<?xml version="1.0" encoding="UTF-8"?>
<svg xmlns="http://www.w3.org/2000/svg"
     viewBox="0 0 10000 10000"
     width="10000mm"
     height="10000mm"
     data-tpv-mode="geometric"
     data-seed="43018.883580250666">
  <title>Dynamic organic shapes</title>
  <desc>TPV Studio Geometric Design - Generated 2025-11-12T13:43:47.470Z</desc>

  <!-- Metadata -->
  <metadata>
    <tpv:design xmlns:tpv="http://rosehill.group/tpv">
      <tpv:mode>geometric</tpv:mode>
      <tpv:brief>Dynamic organic shapes</tpv:brief>
      <tpv:palette>#b7384b,#c43a0e,#7449d2,#d52766,#bf3b00,#4568f7</tpv:palette>
      <tpv:seed>43018.883580250666</tpv:seed>
      <tpv:canvas width="10000" height="10000" unit="mm"/>
    </tpv:design>
  </metadata>

  <!-- Design layers -->
  <g id="design">
    <rect id="bg" x="0" y="0" width="10000" height="10000" fill="#b7384b"/>
    <path id="island-0" class="geometric-island" fill="#c43a0e" d="M 5666.88,6591.46 L 5565.78,6512.30 L 5465.50,6429.32 L 5367.71,6339.46 L 5275.41,6240.19 L 5193.00,6129.85 L 5125.94,6008.14 L 5079.64,5876.67 L 5057.89,5738.94 L 5061.52,5599.66 L 5088.14,5463.48 L 5133.17,5333.82 L 5191.36,5212.34 L 5258.03,5099.17 L 5329.58,4993.23 L 5403.58,4892.70 L 5478.56,4795.20 L 5554.29,4698.27 L 5633.19,4601.54 L 5717.95,4505.84 L 5810.93,4413.06 L 5914.05,4326.42 L 6028.40,4250.48 L 6153.64,4190.75 L 6287.61,4152.51 L 6426.41,4139.23 L 6565.28,4151.28 L 6699.86,4185.88 L 6827.26,4238.18 L 6946.41,4302.81 L 7057.82,4375.11 L 7163.18,4451.53 L 7265.05,4529.70 L 7366.15,4608.86 L 7466.43,4691.84 L 7564.22,4781.71 L 7656.52,4880.98 L 7738.93,4991.32 L 7805.99,5113.02 L 7852.29,5244.50 L 7874.04,5382.23 L 7870.41,5521.50 L 7843.79,5657.68 L 7798.76,5787.35 L 7740.56,5908.82 L 7673.90,6021.99 L 7602.35,6127.93 L 7528.35,6228.46 L 7453.37,6325.97 L 7377.64,6422.89 L 7298.74,6519.62 L 7213.98,6615.32 L 7121.00,6708.10 L 7017.88,6794.75 L 6903.53,6870.69 L 6778.29,6930.42 L 6644.32,6968.66 L 6505.52,6981.94 L 6366.65,6969.88 L 6232.07,6935.28 L 6104.67,6882.99 L 5985.52,6818.35 L 5874.11,6746.06 L 5768.75,6669.63 L 5666.88,6591.46 Z"/>
    <path id="island-1" class="geometric-island" fill="#7449d2" d="M 2913.15,4771.22 L 2907.36,4869.26 L 2897.63,4968.04 L 2882.09,5067.76 L 2859.10,5168.05 L 2827.06,5267.94 L 2784.51,5365.85 L 2730.33,5459.59 L 2663.98,5546.55 L 2585.76,5624.02 L 2496.87,5689.65 L 2399.35,5741.85 L 2295.70,5780.14 L 2188.50,5805.07 L 2079.93,5818.16 L 1971.48,5821.62 L 1863.74,5818.38 L 1756.19,5811.33 L 1648.57,5797.54 L 1541.73,5774.15 L 1437.40,5739.10 L 1337.88,5691.11 L 1245.79,5629.84 L 1163.56,5556.03 L 1093.08,5471.45 L 1035.33,5378.56 L 990.34,5280.08 L 957.32,5178.56 L 934.96,5076.06 L 921.64,4974.04 L 915.69,4873.29 L 915.43,4774.03 L 919.02,4675.89 L 924.80,4577.85 L 934.54,4479.06 L 950.07,4379.34 L 973.06,4279.06 L 1005.10,4179.16 L 1047.65,4081.25 L 1101.83,3987.51 L 1168.18,3900.56 L 1246.41,3823.09 L 1335.30,3757.46 L 1432.82,3705.25 L 1536.46,3666.97 L 1643.66,3642.04 L 1752.24,3628.94 L 1860.69,3625.48 L 1968.42,3628.73 L 2075.97,3635.78 L 2183.60,3649.56 L 2290.43,3672.96 L 2394.77,3708.00 L 2494.28,3756.00 L 2586.38,3817.27 L 2668.60,3891.08 L 2739.08,3975.65 L 2796.83,4068.54 L 2841.83,4167.02 L 2874.84,4268.55 L 2897.21,4371.04 L 2910.52,4473.07 L 2916.47,4573.81 L 2916.74,4673.07 L 2913.15,4771.22 Z"/>
    <path id="island-2" class="geometric-island" fill="#d52766" d="M 3354.77,9485.11 L 3306.50,9424.64 L 3262.11,9360.85 L 3221.81,9293.65 L 3185.87,9222.96 L 3154.69,9148.73 L 3128.83,9071.00 L 3108.97,8989.89 L 3095.92,8905.72 L 3090.61,8819.01 L 3094.04,8730.58 L 3107.19,8641.59 L 3130.87,8553.53 L 3165.67,8468.17 L 3211.73,8387.50 L 3268.67,8313.55 L 3335.51,8248.10 L 3410.74,8192.49 L 3492.79,8148.00 L 3579.74,8115.33 L 3669.54,8094.51 L 3760.25,8085.10 L 3850.19,8086.24 L 3938.04,8096.88 L 4022.81,8115.88 L 4103.85,8142.12 L 4180.78,8174.60 L 4253.43,8212.46 L 4321.77,8255.02 L 4385.86,8301.72 L 4445.81,8352.18 L 4501.75,8406.12 L 4553.80,8463.37 L 4602.07,8523.84 L 4646.45,8587.63 L 4686.76,8654.83 L 4722.70,8725.52 L 4753.87,8799.75 L 4779.73,8877.49 L 4799.60,8958.59 L 4812.65,9042.77 L 4817.95,9129.48 L 4814.52,9217.90 L 4801.38,9306.89 L 4777.69,9394.96 L 4742.89,9480.32 L 4696.84,9560.98 L 4639.90,9634.94 L 4573.06,9700.39 L 4497.83,9756.00 L 4415.78,9800.48 L 4328.83,9833.16 L 4239.03,9853.97 L 4148.32,9863.39 L 4058.37,9862.24 L 3970.52,9851.60 L 3885.76,9832.61 L 3804.72,9806.37 L 3727.79,9773.89 L 3655.14,9736.02 L 3586.80,9693.47 L 3522.71,9646.76 L 3462.75,9596.31 L 3406.81,9542.36 L 3354.77,9485.11 Z"/>
  </g>
</svg>