<?xml version="1.0" encoding="UTF-8"?>
<svg xmlns="http://www.w3.org/2000/svg"
     viewBox="0 0 10000 10000"
     width="10000mm"
     height="10000mm"
     data-tpv-mode="geometric"
     data-seed="92400.08436757489">
  <title>Bold striking design</title>
  <desc>TPV Studio Geometric Design - Generated 2025-11-12T13:43:47.472Z</desc>

  <!-- Metadata -->
  <metadata>
    <tpv:design xmlns:tpv="http://rosehill.group/tpv">
      <tpv:mode>geometric</tpv:mode>
      <tpv:brief>Bold striking design</tpv:brief>
      <tpv:palette>#955dd9,#cc0b00,#005fa3,#b94baf,#bb0500,#009af3,#934eba</tpv:palette>
      <tpv:seed>92400.08436757489</tpv:seed>
      <tpv:canvas width="10000" height="10000" unit="mm"/>
    </tpv:design>
  </metadata>

  <!-- Design layers -->
  <g id="design">
    <rect id="bg" x="0" y="0" width="10000" height="10000" fill="#955dd9"/>
    <path id="band-0" class="geometric-band" fill="#cc0b00" d="M -235.58,5432.96 C 14.42,5551.01 -64.87,5516.81 264.42,5669.07 C 813.24,5922.82 992.98,6160.38 1362.06,6176.57 C 1977.20,6203.56 2255.35,6356.50 2592.33,6230.55 C 3153.98,6020.64 3405.55,5955.04 3715.62,5810.72 C 4232.42,5570.20 4458.21,5489.59 4749.21,5329.68 C 5234.20,5063.15 5451.79,4881.97 5719.20,4796.62 C 6164.87,4654.37 6350.99,4536.01 6610.55,4512.12 C 7043.15,4472.29 7217.86,4386.35 7475.74,4432.46 C 7905.56,4509.32 8053.52,4458.96 8335.37,4586.18 C 8805.12,4798.22 9124.87,4943.21 9274.87,5010.25 C 9524.87,5121.99 9774.87,5233.73 9774.87,5233.73 L 10225.13,4226.33 C 9975.13,4114.59 10043.28,4143.80 9725.13,4002.85 C 9194.88,3767.93 9006.74,3593.88 8664.63,3533.01 C 8094.44,3431.54 7864.70,3299.79 7524.26,3330.08 C 6956.85,3380.56 6722.05,3325.16 6389.45,3431.05 C 5835.13,3607.52 5589.81,3615.63 5280.80,3783.99 C 4765.80,4064.60 4540.71,4210.26 4250.79,4345.21 C 3767.58,4570.12 3547.39,4690.74 3284.38,4795.03 C 2846.02,4968.85 2638.58,5153.01 2407.67,5142.66 C 2022.80,5125.42 1908.65,5239.24 1637.94,5108.17 C 1186.76,4889.72 885.58,4742.10 735.58,4671.27 C 485.58,4553.22 235.58,4435.17 235.58,4435.17 Z"/>
    <path id="island-0" class="geometric-island" fill="#005fa3" d="M 6757.27,870.23 L 6879.76,791.11 L 7006.70,715.97 L 7141.22,651.19 L 7284.16,605.26 L 7433.22,586.93 L 7582.94,601.75 L 7726.50,649.18 L 7858.26,722.71 L 7975.45,813.16 L 8078.11,912.13 L 8167.99,1013.69 L 8247.51,1114.44 L 8319.15,1212.88 L 8385.16,1308.74 L 8447.57,1402.45 L 8508.23,1494.95 L 8568.69,1587.56 L 8629.58,1682.28 L 8690.97,1781.15 L 8752.49,1886.21 L 8812.97,1999.42 L 8870.04,2122.45 L 8919.63,2256.15 L 8955.58,2399.76 L 8970.20,2549.93 L 8956.17,2700.47 L 8909.80,2843.61 L 8833.32,2972.84 L 8733.99,3085.43 L 8620.77,3182.76 L 8501.09,3268.99 L 8379.53,3349.55 L 8257.04,3428.68 L 8130.09,3503.82 L 7995.57,3568.59 L 7852.63,3614.52 L 7703.58,3632.86 L 7553.85,3618.03 L 7410.29,3570.61 L 7278.54,3497.08 L 7161.34,3406.63 L 7058.68,3307.65 L 6968.80,3206.09 L 6889.28,3105.34 L 6817.65,3006.90 L 6751.64,2911.05 L 6689.23,2817.33 L 6628.57,2724.84 L 6568.11,2632.22 L 6507.22,2537.50 L 6445.82,2438.63 L 6384.30,2333.58 L 6323.83,2220.36 L 6266.75,2097.34 L 6217.17,1963.64 L 6181.21,1820.03 L 6166.60,1669.85 L 6180.63,1519.32 L 6226.99,1376.18 L 6303.48,1246.94 L 6402.80,1134.35 L 6516.03,1037.03 L 6635.71,950.79 L 6757.27,870.23 Z"/>
    <path id="island-1" class="geometric-island" fill="#b94baf" d="M 3664.94,6976.76 L 3601.83,7036.29 L 3536.67,7095.59 L 3467.96,7154.47 L 3394.33,7212.47 L 3314.56,7268.61 L 3227.65,7321.22 L 3133.01,7367.83 L 3030.85,7405.07 L 2922.48,7429.02 L 2810.50,7435.86 L 2698.59,7423.01 L 2590.67,7390.06 L 2489.90,7339.08 L 2397.78,7274.00 L 2313.89,7199.42 L 2235.76,7119.80 L 2160.16,7037.78 L 2089.89,6950.25 L 2029.50,6854.99 L 1983.65,6751.79 L 1956.15,6642.35 L 1948.92,6529.93 L 1961.38,6418.44 L 1990.73,6311.41 L 2033.05,6211.24 L 2084.34,6119.06 L 2141.25,6034.90 L 2201.31,5958.04 L 2262.93,5887.42 L 2325.19,5821.75 L 2387.68,5759.64 L 2450.30,5699.60 L 2513.42,5640.06 L 2578.57,5580.77 L 2647.29,5521.88 L 2720.91,5463.88 L 2800.68,5407.75 L 2887.60,5355.13 L 2982.23,5308.53 L 3084.39,5271.28 L 3192.77,5247.34 L 3304.74,5240.49 L 3416.66,5253.34 L 3524.57,5286.30 L 3625.35,5337.27 L 3717.46,5402.36 L 3801.36,5476.93 L 3879.48,5556.55 L 3955.09,5638.57 L 4025.36,5726.10 L 4085.74,5821.37 L 4131.60,5924.57 L 4159.10,6034.00 L 4166.32,6146.42 L 4153.87,6257.91 L 4124.52,6364.95 L 4082.20,6465.11 L 4030.90,6557.29 L 3973.99,6641.46 L 3913.93,6718.31 L 3852.31,6788.93 L 3790.05,6854.61 L 3727.57,6916.71 L 3664.94,6976.76 Z"/>
    <path id="island-2" class="geometric-island" fill="#bb0500" d="M 8360.84,7922.22 L 8274.62,7985.24 L 8183.61,8041.97 L 8087.41,8090.67 L 7986.32,8129.84 L 7881.16,8158.12 L 7773.14,8174.38 L 7663.77,8177.85 L 7554.77,8168.22 L 7447.88,8145.67 L 7344.71,8110.85 L 7246.61,8064.84 L 7154.58,8008.95 L 7069.23,7944.63 L 6990.73,7873.33 L 6918.82,7796.42 L 6852.63,7715.22 L 6790.61,7630.78 L 6734.18,7541.89 L 6684.84,7448.02 L 6643.97,7349.27 L 6612.94,7246.17 L 6592.99,7139.67 L 6585.15,7031.06 L 6590.12,6921.93 L 6608.12,6814.00 L 6638.90,6708.99 L 6681.72,6608.49 L 6735.46,6513.78 L 6798.72,6425.75 L 6869.98,6344.82 L 6947.71,6270.94 L 7030.33,6203.27 L 7116.55,6140.25 L 7207.56,6083.53 L 7303.77,6034.83 L 7404.85,5995.66 L 7510.01,5967.38 L 7618.04,5951.11 L 7727.40,5947.64 L 7836.40,5957.27 L 7943.30,5979.83 L 8046.47,6014.64 L 8144.57,6060.65 L 8236.59,6116.54 L 8321.95,6180.86 L 8400.45,6252.16 L 8472.35,6329.08 L 8538.55,6410.28 L 8600.56,6494.71 L 8656.99,6583.60 L 8706.33,6677.47 L 8747.20,6776.23 L 8778.24,6879.33 L 8798.19,6985.83 L 8806.02,7094.43 L 8801.06,7203.56 L 8783.06,7311.50 L 8752.28,7416.50 L 8709.46,7517.00 L 8655.72,7611.71 L 8592.45,7699.75 L 8521.19,7780.67 L 8443.47,7854.55 L 8360.84,7922.22 Z"/>
    <path id="motif-0" class="geometric-motif" data-motif="circle" fill="#009af3" transform="translate(2086.02 8425.02) rotate(46.44) scale(0.776)" d="M 500,0 A 500,500 0 1,1 -500,0 A 500,500 0 1,1 500,0 Z"/>
    <path id="motif-1" class="geometric-motif" data-motif="circle" fill="#934eba" transform="translate(7550.33 4917.94) rotate(100.66) scale(0.992)" d="M 500,0 A 500,500 0 1,1 -500,0 A 500,500 0 1,1 500,0 Z"/>
    <path id="motif-2" class="geometric-motif" data-motif="star" fill="#955dd9" transform="translate(6556.59 3394.70) rotate(142.18) scale(0.682)" d="M 0,-450 C 50,-350 100,-300 150,-150 C 180,-100 250,-50 400,-20 C 300,20 220,80 180,200 C 150,280 140,350 100,450 C 50,380 0,320 -100,200 C -140,120 -200,80 -400,-20 C -250,-50 -180,-100 -150,-150 C -100,-300 -50,-350 0,-450 Z"/>
    <path id="motif-3" class="geometric-motif" data-motif="star" fill="#cc0b00" transform="translate(5000.48 9599.23) rotate(24.94) scale(0.813)" d="M 0,-450 C 50,-350 100,-300 150,-150 C 180,-100 250,-50 400,-20 C 300,20 220,80 180,200 C 150,280 140,350 100,450 C 50,380 0,320 -100,200 C -140,120 -200,80 -400,-20 C -250,-50 -180,-100 -150,-150 C -100,-300 -50,-350 0,-450 Z"/>
  </g>
</svg>