<svg id="Layer_2" data-name="Layer 2" xmlns="http://www.w3.org/2000/svg" viewBox="0 0 64 64">
  <title>01 Gardening Can</title>
  <g>
    <path d="M13.7329,40.799l.51-7.6008c-.3777-.2835-.75-.5557-1.11-.8183C9.9307,30.0425,9,29.0952,9,27.3208,9,25.24,9.4766,23,10.5225,23c1.3213,0,2.7178.8984,4.2236,2.6882l.2607-3.8889a2.9958,2.9958,0,0,1,1.5675-2.423A9.013,9.013,0,0,0,10.5225,17C5.8823,17,3,20.9546,3,27.3208c0,5.0913,3.5034,7.6489,6.5947,9.9053A21.307,21.307,0,0,1,13.7329,40.799Z"/>
    <path d="M52.6069,20.3931a1,1,0,0,0-1.6015.26L49.563,23.5371v.0005a3.32,3.32,0,0,0,.623,3.8369l3.6568,3.6568a3.3207,3.3207,0,0,0,3.8369.623l2.8843-1.4424a1,1,0,0,0,.26-1.6015Z"/>
    <path d="M20.2666,53H38.7334a5.0031,5.0031,0,0,0,4.99-5.3247l-.26-3.8745L52.879,32.8157a5.3454,5.3454,0,0,1-.45-.37c-4.056-4.0926-3.5135-3.4505-4.0354-4.1005l-5.6418,4.8359-.7539-11.2476A1,1,0,0,0,41,21H35.2383L34.147,25.0728a5.0065,5.0065,0,0,1-4.8291,3.706h-.0005a5.0065,5.0065,0,0,1-4.83-6.2939L24.8857,21H18a1,1,0,0,0-.9976.9331l-1.726,25.7446A5.0044,5.0044,0,0,0,20.2666,53Z"/>
    <path d="M28.5405,26.6763h.001a3.0032,3.0032,0,0,0,3.6738-2.1211l3.8824-14.4893a1,1,0,0,0-.7071-1.2246L31.5269,7.8062a.9977.9977,0,0,0-1.2247.707L26.42,23.002A3.0041,3.0041,0,0,0,28.5405,26.6763Z"/>
  </g>
</svg>
