<svg id="Layer_2" data-name="Layer 2" xmlns="http://www.w3.org/2000/svg" viewBox="0 0 64 64">
  <title>02 Flower</title>
  <g>
    <path d="M22.61,36.45a10.0111,10.0111,0,0,1,1.67-9.81,51.4285,51.4285,0,0,1-1.74-4.85c-5.0988-3.4152-11.4112-6.3809-15.7-1.95a3.0311,3.0311,0,0,0-.61,3.37,1.96,1.96,0,0,1-.83,2.56,3.0494,3.0494,0,0,0-1.49,3.09c.3,2.14,1.59,4.99,5.96,6.41A37.2494,37.2494,0,0,0,22.61,36.45Z"/>
    <path d="M27.32,54.75c2.66-3.65,4.25-8.66,5.05-11.76a9.9829,9.9829,0,0,1-8.79-4.6c-1.7892.1408-3.7181.1733-5.15.14-4.87,3.8088-9.59,8.9027-6.72,14.33a3.0225,3.0225,0,0,0,3.01,1.62,1.9836,1.9836,0,0,1,2.19,1.59,3.0283,3.0283,0,0,0,2.47,2.37C22.65,59,25.33,57.49,27.32,54.75Z"/>
    <path d="M44.62,58.44a3.0283,3.0283,0,0,0,2.47-2.37,1.9814,1.9814,0,0,1,2.19-1.59,3.0225,3.0225,0,0,0,3.01-1.62c1.01-1.91,1.65-4.97-1.05-8.69-2.66-3.66-6.94-6.73-9.63-8.43a10.0217,10.0217,0,0,1-7.11,6.94c-.31,1.28-.78,3.02-1.44,4.92C35.1829,53.4138,38.5579,59.4781,44.62,58.44Z"/>
    <path d="M58.6,25.77a1.96,1.96,0,0,1-.83-2.56,3.0311,3.0311,0,0,0-.61-3.37c-1.51-1.56-4.22-3.11-8.59-1.69-4.29,1.4-8.52,4.51-10.99,6.55a10.011,10.011,0,0,1,4.4,8.91,50.5081,50.5081,0,0,1,4.26,2.9c6.1443-.2643,12.9927-1.5352,13.85-7.65A3.0494,3.0494,0,0,0,58.6,25.77Z"/>
    <path d="M35.66,23.7a49.4094,49.4094,0,0,1,4.07-3.16C41.443,14.6049,42.2349,7.7051,36.74,5a3.0493,3.0493,0,0,0-3.39.46,1.9982,1.9982,0,0,1-2.7,0A3.0493,3.0493,0,0,0,27.26,5C25.31,5.96,23,8.06,23,12.66c0,4.52,1.66,9.51,2.83,12.48A9.948,9.948,0,0,1,35.66,23.7Z"/>
    <circle cx="32" cy="33" r="8"/>
  </g>
</svg>
