<svg id="Layer_2" data-name="Layer 2" xmlns="http://www.w3.org/2000/svg" viewBox="0 0 64 64">
  <title>03 Flower</title>
  <g>
    <path d="M35.51,17.41c.21-5.78-.23-11.8-2.01-13.71a1.9482,1.9482,0,0,0-3,0c-1.78,1.91-2.22,7.93-2.01,13.71A15.2164,15.2164,0,0,1,35.51,17.41Z"/>
    <path d="M26.5,18.05c-.17.06-.32.13-.48.2a61.6181,61.6181,0,0,0-5.58-5.45c-.81-2.7-1.15-5.03-.65-6.37a1.9541,1.9541,0,0,1,2.77-1.15c1.31.59,2.71,2.48,4.05,4.96A60.4258,60.4258,0,0,0,26.5,18.05Z"/>
    <path d="M19.2,24.19a15.0677,15.0677,0,0,1,4.99-4.99c-3.95-4.23-8.52-8.18-11.14-8.27a1.9551,1.9551,0,0,0-2.12,2.12C11.02,15.67,14.97,20.24,19.2,24.19Z"/>
    <path d="M18.25,26.02a4.1918,4.1918,0,0,0-.2.49,59.7924,59.7924,0,0,0-7.8.1c-2.48-1.34-4.38-2.74-4.97-4.05a1.9515,1.9515,0,0,1,1.15-2.77c1.34-.5,3.67-.16,6.37.65A61.6181,61.6181,0,0,0,18.25,26.02Z"/>
    <path d="M17.41,35.51a15.085,15.085,0,0,1,.01-7.03c-5.78-.21-11.81.24-13.72,2.02a1.9482,1.9482,0,0,0,0,3C5.87,35.52,12.89,35.66,17.41,35.51Z"/>
    <path d="M18.25,37.98a60.2468,60.2468,0,0,0-5.44,5.58c-2.56.77-4.97,1.18-6.38.65a1.9454,1.9454,0,0,1-1.15-2.77c.59-1.31,2.5-2.72,4.99-4.06a61.5018,61.5018,0,0,0,7.78.11A4.1918,4.1918,0,0,0,18.25,37.98Z"/>
    <path d="M10.93,50.95a1.9551,1.9551,0,0,0,2.12,2.12c2.62-.09,7.19-4.04,11.14-8.27a15.0677,15.0677,0,0,1-4.99-4.99C14.97,43.76,11.02,48.33,10.93,50.95Z"/>
    <path d="M26.61,53.76c-1.34,2.48-2.74,4.37-4.05,4.96a1.95,1.95,0,0,1-2.77-1.15c-.5-1.34-.16-3.67.65-6.37a61.6181,61.6181,0,0,0,5.58-5.45c.16.07.31.14.48.2A60.4258,60.4258,0,0,0,26.61,53.76Z"/>
    <path d="M33.5,60.3c1.78-1.91,2.22-7.93,2.01-13.71a15.2164,15.2164,0,0,1-7.02,0c-.21,5.78.23,11.8,2.01,13.71A1.9482,1.9482,0,0,0,33.5,60.3Z"/>
    <path d="M44.21,57.57a1.9464,1.9464,0,0,1-2.77,1.15c-1.31-.59-2.71-2.48-4.05-4.96a60.4258,60.4258,0,0,0,.11-7.81c.17-.06.32-.13.48-.2a61.6181,61.6181,0,0,0,5.58,5.45C44.37,53.9,44.71,56.23,44.21,57.57Z"/>
    <path d="M44.8,39.81a15.0677,15.0677,0,0,1-4.99,4.99c3.95,4.23,8.52,8.18,11.14,8.27a1.95,1.95,0,0,0,2.12-2.12C52.98,48.33,49.03,43.76,44.8,39.81Z"/>
    <path d="M57.57,44.21c-1.41.53-3.82.12-6.38-.65a60.2468,60.2468,0,0,0-5.44-5.58,4.1918,4.1918,0,0,0,.2-.49,63.0455,63.0455,0,0,0,7.78-.11c2.49,1.34,4.4,2.75,4.99,4.06A1.9515,1.9515,0,0,1,57.57,44.21Z"/>
    <path d="M46.58,28.48a15.0841,15.0841,0,0,1,.01,7.03c4.52.15,11.54.01,13.71-2.01a1.9482,1.9482,0,0,0,0-3C58.39,28.72,52.36,28.27,46.58,28.48Z"/>
    <path d="M58.72,22.56c-.59,1.31-2.49,2.71-4.97,4.05a59.7924,59.7924,0,0,0-7.8-.1,4.1918,4.1918,0,0,0-.2-.49,61.6181,61.6181,0,0,0,5.45-5.58c2.7-.81,5.03-1.15,6.37-.65A1.9454,1.9454,0,0,1,58.72,22.56Z"/>
    <path d="M39.81,19.2a15.0677,15.0677,0,0,1,4.99,4.99c4.23-3.95,8.18-8.52,8.27-11.14a1.9551,1.9551,0,0,0-2.12-2.12C48.33,11.02,43.76,14.97,39.81,19.2Z"/>
    <path d="M43.56,12.8a61.6181,61.6181,0,0,0-5.58,5.45c-.16-.07-.31-.14-.48-.2a60.4258,60.4258,0,0,0-.11-7.81c1.34-2.48,2.74-4.37,4.05-4.96a1.9515,1.9515,0,0,1,2.77,1.15C44.71,7.77,44.37,10.1,43.56,12.8Z"/>
    <circle cx="32" cy="32" r="6"/>
    <path d="M32,19A13,13,0,1,0,45,32,13.0144,13.0144,0,0,0,32,19Zm0,21a8,8,0,1,1,8-8A8.0092,8.0092,0,0,1,32,40Z"/>
  </g>
</svg>
