<svg id="Layer_2" data-name="Layer 2" xmlns="http://www.w3.org/2000/svg" viewBox="0 0 64 64">
  <title>04 Butterfly</title>
  <path d="M51.8584,9.01c-5.7679.8237-13.822,7.7814-17.0993,10.8155A3.0233,3.0233,0,0,0,34.1,18.863C36.7621,10.4008,44.6029,5.9182,44.6836,5.8735L43.71,4.126c-.3532.1971-8.4715,4.8233-11.4374,13.9015a1.3256,1.3256,0,0,0-.5452,0C28.7615,8.9493,20.6432,4.3231,20.29,4.126l-.9736,1.7475c.0807.0447,7.9215,4.5273,10.5833,12.99a3.0233,3.0233,0,0,0-.6588.9628C25.9636,16.7917,17.91,9.834,12.1416,9.01c-3.9263-.5621-6.3047-.2671-7.7114.9545A5.0693,5.0693,0,0,0,3,14c0,3.0171,4.5732,7.2227,6,8.4614v5.6949a7.9393,7.9393,0,0,0,5.21,7.4389l4.9048,1.7837-5.6591,5.2236A8.3788,8.3788,0,1,0,26.3237,53.0708l3.5655-5.9425a2.9915,2.9915,0,0,0,4.2216,0l3.5655,5.9425A8.3788,8.3788,0,1,0,50.5439,42.6025l-5.6591-5.2236L49.79,35.5952A7.9391,7.9391,0,0,0,55,28.1563V22.4614c1.4268-1.2387,6-5.4443,6-8.4614C61,8.7347,57.114,8.257,51.8584,9.01ZM20,51a4,4,0,1,1,4-4A4.0045,4.0045,0,0,1,20,51Zm0-21a5,5,0,1,1,5-5A5.0059,5.0059,0,0,1,20,30ZM48,47a4,4,0,1,1-4-4A4.0045,4.0045,0,0,1,48,47ZM44,30a5,5,0,1,1,5-5A5.0059,5.0059,0,0,1,44,30Z"/>
</svg>
