<svg id="Layer_2" data-name="Layer 2" xmlns="http://www.w3.org/2000/svg" viewBox="0 0 64 64">
  <title>05 lady Bug</title>
  <g>
    <path d="M25.3774,58.6494a17.0149,17.0149,0,0,0,13.2465.0013A36.5325,36.5325,0,0,1,32,45.94,36.5381,36.5381,0,0,1,25.3774,58.6494Z"/>
    <path d="M24.2059,14.6589A25.9677,25.9677,0,0,1,30,14h4a25.9677,25.9677,0,0,1,5.7941.6589A4.9925,4.9925,0,0,0,35,11h-.7475a21.2023,21.2023,0,0,1,4.436-6.2749l-1.377-1.45c-.1695.1613-3.9361,3.77-5.1829,7.7251h-.2572c-1.2468-3.9549-5.0134-7.5638-5.1829-7.7251l-1.377,1.45A21.1209,21.1209,0,0,1,29.7477,11H29A4.9925,4.9925,0,0,0,24.2059,14.6589Z"/>
    <path d="M34,16H30A24.0026,24.0026,0,0,0,18.584,61.1152a.9981.9981,0,0,0,1.0078-.0322c7.72-4.8379,11.0146-15.8184,12.4082-23.58,1.3936,7.7617,4.6885,18.7422,12.4082,23.58a1,1,0,0,0,1.0078.0322A24.0026,24.0026,0,0,0,34,16ZM12,37a4,4,0,1,1,4,4A4.0042,4.0042,0,0,1,12,37Zm6.5,15A3.5,3.5,0,1,1,22,48.5,3.5042,3.5042,0,0,1,18.5,52Zm6-22A3.5,3.5,0,1,1,28,26.5,3.5042,3.5042,0,0,1,24.5,30Zm15,1A3.5,3.5,0,1,1,43,27.5,3.5042,3.5042,0,0,1,39.5,31Zm6,21A3.5,3.5,0,1,1,49,48.5,3.5042,3.5042,0,0,1,45.5,52Zm2-11A4.5,4.5,0,1,1,52,36.5,4.505,4.505,0,0,1,47.5,41Z"/>
  </g>
</svg>
