<svg id="Layer_2" data-name="Layer 2" xmlns="http://www.w3.org/2000/svg" viewBox="0 0 64 64">
  <title>06 Rain Boot</title>
  <g>
    <path d="M56,60V54H13v6a1.0029,1.0029,0,0,0,1,1H26a1.0029,1.0029,0,0,0,1-1V58.28l10.76,2.69A.9863.9863,0,0,0,38,61H55A1.0029,1.0029,0,0,0,56,60Z"/>
    <path d="M34.4,34.36l1.25-23.63H11.4l1.34,22.54a7.1748,7.1748,0,0,0,.47,2.13c.78,1.94,1.38,4.02.48,6.09A7.6136,7.6136,0,0,0,13,44.52V52H56V49.48a6.9638,6.9638,0,0,0-6.37-6.97l-8.87-.81A6.9848,6.9848,0,0,1,34.4,34.36Z"/>
    <path d="M35.7531,8.7252l.2459-4.6725A1.0006,1.0006,0,0,0,35,3H12a1,1,0,0,0-.998,1.06l.278,4.6656Z"/>
  </g>
</svg>
