<svg id="Layer_2" data-name="Layer 2" xmlns="http://www.w3.org/2000/svg" viewBox="0 0 64 64">
  <title>07 Sun</title>
  <g>
    <rect x="21.634" y="12.4948" width="1.9996" height="6.9996" transform="translate(-3.9052 23.9821) rotate(-51.9981)"/>
    <rect x="56.4882" y="25.1805" width="2.0003" height="7.0004" transform="translate(26.8201 85.1337) rotate(-88.0014)"/>
    <rect x="50.6663" y="16.0954" width="6.9994" height="2.0005" transform="translate(-0.295 33.2271) rotate(-34.0159)"/>
    <rect x="41.1696" y="8.6763" width="6.9996" height="1.9994" transform="translate(20.304 48.3453) rotate(-70.0073)"/>
    <rect x="31.6252" y="5.7555" width="1.9995" height="6.9998" transform="translate(-1.2873 9.3527) rotate(-16.0025)"/>
    <path d="M39.0586,29.0137A11.484,11.484,0,0,1,47.9805,34a10.42,10.42,0,0,1,1.4983.1113A12.9985,12.9985,0,0,0,27.0022,21.082,15.5187,15.5187,0,0,1,39.0586,29.0137Z"/>
    <path d="M14,54H48a9,9,0,0,0,0-18H46.86a9.5025,9.5025,0,0,0-9.0313-4.9717A13.4857,13.4857,0,0,0,12.75,32.0835,10.9935,10.9935,0,0,0,14,54Z"/>
  </g>
</svg>
