<svg id="Layer_2" data-name="Layer 2" xmlns="http://www.w3.org/2000/svg" viewBox="0 0 64 64">
  <title>08 Rain</title>
  <g>
    <path d="M39.0586,13.0137A11.484,11.484,0,0,1,47.9805,18H48A11.0063,11.0063,0,0,1,58.96,28.2154a6.5153,6.5153,0,0,0-4.4779-11.25h-.6035a6.87,6.87,0,0,0-6.2178-3.4419,9.6114,9.6114,0,0,0-12.183-4.8582A15.51,15.51,0,0,1,39.0586,13.0137Z"/>
    <path d="M14,38H48a9,9,0,0,0,0-18H46.86a9.5221,9.5221,0,0,0-8.36-5c-.2158,0-.4385.0093-.6709.0283A13.4857,13.4857,0,0,0,12.75,16.0835,10.9935,10.9935,0,0,0,14,38Z"/>
    <path d="M17.0186,48.7329a3.0038,3.0038,0,0,0,3.6738-2.1211c.331-1.2353-.5332-3.8916-.9209-4.9765a1,1,0,0,0-1.5889-.4258c-.8779.7456-2.9551,2.6142-3.2861,3.85A3.004,3.004,0,0,0,17.0186,48.7329Z"/>
    <path d="M27.0186,48.7329a3.0038,3.0038,0,0,0,3.6738-2.1211c.331-1.2353-.5332-3.8916-.9209-4.9765a1,1,0,0,0-1.5889-.4258c-.8779.7456-2.9551,2.6142-3.2861,3.85A3.004,3.004,0,0,0,27.0186,48.7329Z"/>
    <path d="M37.0186,48.7329a3.0038,3.0038,0,0,0,3.6738-2.1211c.331-1.2353-.5332-3.8916-.9209-4.9765a1,1,0,0,0-1.5889-.4258c-.8779.7456-2.9551,2.6142-3.2861,3.85A3.004,3.004,0,0,0,37.0186,48.7329Z"/>
    <path d="M47.0186,48.7329a3.0038,3.0038,0,0,0,3.6738-2.1211c.331-1.2353-.5332-3.8916-.9209-4.9765a1,1,0,0,0-1.5889-.4258c-.8779.7456-2.9551,2.6142-3.2861,3.85A3.004,3.004,0,0,0,47.0186,48.7329Z"/>
    <path d="M11.8965,55.0591a3,3,0,0,0,5.7959,1.5527c.331-1.2353-.5332-3.8916-.9209-4.9765a.9994.9994,0,0,0-1.5889-.4258C14.3047,51.9551,12.2275,53.8237,11.8965,55.0591Z"/>
    <path d="M21.8965,55.0591a3,3,0,0,0,5.7959,1.5527c.331-1.2353-.5332-3.8916-.9209-4.9765a.9994.9994,0,0,0-1.5889-.4258C24.3047,51.9551,22.2275,53.8237,21.8965,55.0591Z"/>
    <path d="M36.7715,51.6353a.9994.9994,0,0,0-1.5889-.4258c-.8779.7456-2.9551,2.6142-3.2861,3.85a3,3,0,0,0,5.7959,1.5527C38.0234,55.3765,37.1592,52.72,36.7715,51.6353Z"/>
    <path d="M41.8965,55.0591a3,3,0,0,0,5.7959,1.5527c.331-1.2353-.5332-3.8916-.9209-4.9765a.9994.9994,0,0,0-1.5889-.4258C44.3047,51.9551,42.2275,53.8237,41.8965,55.0591Z"/>
  </g>
</svg>
