<svg id="Layer_2" data-name="Layer 2" xmlns="http://www.w3.org/2000/svg" viewBox="0 0 64 64">
  <title>09 Umbrella</title>
  <g>
    <path d="M35.1212,18.2569c-4.1531,3.5747-8.1206,10.2386-10.4223,17.5688,5.1018-2.0847,9.233-.9747,12.6057,3.3885,1.845-7.9667,1.7921-15.8851-.1214-20.9265l.6059-2.2623-1.9317-.5176Z"/>
    <path d="M17.1826,8.21c-.8779.7456-2.9551,2.6142-3.2856,3.8486a3,3,0,1,0,5.7954,1.5537v-.0005c.3305-1.2348-.5337-3.8911-.92-4.976A1,1,0,0,0,17.1826,8.21Z"/>
    <path d="M28.1826,4.21c-.8779.7456-2.9551,2.6142-3.2856,3.8486a3,3,0,1,0,5.7954,1.5537V9.6113c.3305-1.2348-.5337-3.8911-.92-4.976A1,1,0,0,0,28.1826,4.21Z"/>
    <path d="M42.6924,9.6118V9.6113c.3305-1.2348-.5337-3.8911-.92-4.976A1,1,0,0,0,40.1826,4.21c-.8779.7456-2.9551,2.6142-3.2856,3.8486a3,3,0,1,0,5.7954,1.5537Z"/>
    <path d="M49.0181,17.7329a3.0042,3.0042,0,0,0,3.6743-2.1211v-.0005c.3305-1.2348-.5337-3.8911-.92-4.976a1,1,0,0,0-1.5894-.4258c-.8779.7456-2.9551,2.6142-3.2856,3.8486A3.0035,3.0035,0,0,0,49.0181,17.7329Z"/>
    <path d="M57.1826,18.21c-.8779.7456-2.9551,2.6142-3.2856,3.8486a3,3,0,1,0,5.7954,1.5537v0c.3305-1.2348-.5337-3.8911-.92-4.976A1,1,0,0,0,57.1826,18.21Z"/>
    <path d="M32.0717,37.3634a6.554,6.554,0,0,0-1.9322-.5157l-5.1522,19.229a4,4,0,1,0,7.7271,2.0708L30.7827,57.63a2,2,0,0,1-3.8638-1.0357Z"/>
    <path d="M22.7755,35.2809c2.3313-7.4935,6.2792-14.2226,10.5885-18.1434a24.5063,24.5063,0,0,0-24.863,13.61,1.0008,1.0008,0,0,0,1.2964,1.3618C15.07,29.8009,19.3192,30.8433,22.7755,35.2809Z"/>
    <path d="M39.496,18.8364c1.8158,5.9228,1.35,13.9072-.2487,20.8477,5.2043-2.1062,9.4017-.8838,12.81,3.749a1.0006,1.0006,0,0,0,1.8037-.5312A24.5292,24.5292,0,0,0,39.496,18.8364Z"/>
  </g>
</svg>
