<svg id="Layer_2" data-name="Layer 2" xmlns="http://www.w3.org/2000/svg" viewBox="0 0 64 64">
  <title>10 Bee</title>
  <g>
    <path d="M21.9468,43.6636H42.0532c-.7355-.5882.2725.2568-4.504-4H26.4508C21.7519,43.8512,22.7668,43.0076,21.9468,43.6636Z"/>
    <path d="M20.8615,49.6636h22.277a12.94,12.94,0,0,0,1.5615-4H19.3A12.9388,12.9388,0,0,0,20.8615,49.6636Z"/>
    <path d="M32,34.2983a22.2049,22.2049,0,0,1-3.3171,3.3653h6.6342A22.0238,22.0238,0,0,1,32,34.2983Z"/>
    <path d="M28.0868,55.3844a.9642.9642,0,0,0,.0558.13l3,5a1.0006,1.0006,0,0,0,1.7148,0l3-5a.9642.9642,0,0,0,.0558-.13,13.0285,13.0285,0,0,0,5.7454-3.7208H22.3414A13.0293,13.0293,0,0,0,28.0868,55.3844Z"/>
    <path d="M24.2759,14.4337A22.7138,22.7138,0,0,1,28.6279,14c5.8242.0941,7.58-.2524,11.0962.4337A4.9906,4.9906,0,0,0,35,11h-.7469A21.2036,21.2036,0,0,1,38.689,4.7251l-1.3775-1.45c-.17.1613-3.9359,3.77-5.1828,7.7251h-.2574c-1.2469-3.9548-5.0128-7.5638-5.1828-7.7251l-1.377,1.45A21.1018,21.1018,0,0,1,29.7475,11H29A4.9906,4.9906,0,0,0,24.2759,14.4337Z"/>
    <path d="M54.332,27.9717A21.0992,21.0992,0,0,0,35.3721,16H28.6279A21.1,21.1,0,0,0,9.668,27.9712L7.8057,31.8818a8.4421,8.4421,0,0,0,13.2607,9.9209c6.23-5.9465,9.13-7.1722,10.9336-11.5034,1.8034,4.3312,4.7033,5.5569,10.9336,11.5034a8.4452,8.4452,0,0,0,13.2607-9.9209Z"/>
  </g>
</svg>
