<svg id="Layer_2" data-name="Layer 2" xmlns="http://www.w3.org/2000/svg" viewBox="0 0 64 64">
  <title>11 Shovel</title>
  <g>
    <path d="M51.5654,13.0527a.9993.9993,0,0,0,.9659-.7412l1.0351-3.8637a1,1,0,0,0-.707-1.2247L37.4048,3.082a1.0013,1.0013,0,0,0-1.2246.7071L35.1445,7.6528a.9992.9992,0,0,0,.7071,1.2246l15.455,4.1412A.9939.9939,0,0,0,51.5654,13.0527Z"/>
    <path d="M30.5,39a9.5015,9.5015,0,0,1,8.43,5.12,8.41,8.41,0,0,1,3.4262,1.4048,6.8807,6.8807,0,0,1,2.4487-.5149l1.5743-5.8752a1.4982,1.4982,0,0,0-1.0606-1.8379L28.8975,32.8955A1.505,1.505,0,0,0,27.061,33.957l-1.3686,5.1082a10.9633,10.9633,0,0,1,1.2016.6487A9.4573,9.4573,0,0,1,30.5,39Z"/>
    <path d="M4,58a3.0033,3.0033,0,0,0,3,3H56a3,3,0,0,0,0-6H53.8994a5.0154,5.0154,0,0,0-3.9834-3.916A4.9807,4.9807,0,0,0,42.1182,47.93a6.5011,6.5011,0,0,0-4.55-1.93,7.4864,7.4864,0,0,0-10.8667-3.9614,8.997,8.997,0,0,0-14.4624,9.0185A5.013,5.013,0,0,0,8.1006,55H7A3.0033,3.0033,0,0,0,4,58Z"/>
    <rect x="29.8439" y="20.0221" width="21.0002" height="5.9998" transform="translate(7.6645 56.0326) rotate(-74.9997)"/>
  </g>
</svg>
