<svg id="Layer_2" data-name="Layer 2" xmlns="http://www.w3.org/2000/svg" viewBox="0 0 64 64">
  <title>12 Fence</title>
  <g>
    <path d="M23,45.13a8.497,8.497,0,0,1,.57,1.27A5.5245,5.5245,0,0,1,25.72,48H28V42H23Z"/>
    <rect x="43" y="16" width="5" height="6"/>
    <rect x="43" y="42" width="5" height="6"/>
    <rect x="23" y="16" width="5" height="6"/>
    <path d="M21,42.7694V12a1.0013,1.0013,0,0,0-.3354-.7476l-4.5-4a1,1,0,0,0-1.3292,0l-4.5,4A1.0013,1.0013,0,0,0,10,12V43.11a6.0564,6.0564,0,0,1,.7153-.1038A7.9573,7.9573,0,0,1,21,42.7694ZM14.5,17a1,1,0,1,1,1,1A1,1,0,0,1,14.5,17Z"/>
    <path d="M56.1646,7.2524a1,1,0,0,0-1.3292,0l-4.5,4A1.0013,1.0013,0,0,0,50,12V56a1,1,0,0,0,1,1h9a1,1,0,0,0,1-1V12a1.0013,1.0013,0,0,0-.3354-.7476ZM55.5,18a1,1,0,1,1,1-1A1,1,0,0,1,55.5,18Z"/>
    <path d="M40,57a1,1,0,0,0,1-1V12a1.0013,1.0013,0,0,0-.3354-.7476l-4.5-4a1,1,0,0,0-1.3292,0l-4.5,4A1.0013,1.0013,0,0,0,30,12V56a1,1,0,0,0,1,1ZM35.5,16a1,1,0,1,1-1,1A1,1,0,0,1,35.5,16Z"/>
    <path d="M3.15,53.0459A3.0062,3.0062,0,0,0,6,57H26a3.0062,3.0062,0,0,0,2.85-3.9541A3.0582,3.0582,0,0,0,25.9155,51h-.9507a3.4726,3.4726,0,0,0-3.0439-2.9751A5.9907,5.9907,0,0,0,11.5142,45.03a4.6737,4.6737,0,0,0-3.87,1.4643A4.7849,4.7849,0,0,0,6.0845,51,3.0582,3.0582,0,0,0,3.15,53.0459Z"/>
  </g>
</svg>
