<svg id="Layer_2" data-name="Layer 2" xmlns="http://www.w3.org/2000/svg" viewBox="0 0 64 64">
  <title>13 Flower</title>
  <g>
    <path d="M35.01,7a2.09,2.09,0,0,1,.25.01c-.54-1.6-1.2-2.65-2.25-3.11-1.41-.63-2.96.1-4.01.71-1.05.6-2.46,1.58-2.62,3.12-.12,1.14.45,2.23,1.57,3.49A7.9594,7.9594,0,0,1,35.01,7Z"/>
    <path d="M23,15c0,1.8792.3918,3.5727,2.14,4.22a12.4788,12.4788,0,0,1,2.04-2.55,8,8,0,0,1,0-3.34,12.4788,12.4788,0,0,1-2.04-2.55C23.409,11.3571,23,13.176,23,15Z"/>
    <path d="M26.38,22.27c.16,1.54,1.57,2.52,2.62,3.12,1.25.72,2.7,1.29,4.01.71,1.05-.46,1.71-1.51,2.25-3.11a7.9715,7.9715,0,0,1-7.31-4.22C26.83,20.03,26.26,21.13,26.38,22.27Z"/>
    <path d="M41,25.39c1.6094-.92,2.9066-2.1338,2.59-3.97h-.1a12.1629,12.1629,0,0,1-3.13-.48,7.7356,7.7356,0,0,1-2.91,1.68,12.5023,12.5023,0,0,1-1.18,3.03C37.723,26.8389,39.371,26.3282,41,25.39Z"/>
    <path d="M47,15c0-3.7046-1.719-4.9272-5.2-4.21a8.02,8.02,0,0,1-.01,8.44C45.3539,19.9377,47,18.625,47,15Z"/>
    <path d="M41,4.61c-1.6251-.9441-3.2833-1.4438-4.73-.26a12.5023,12.5023,0,0,1,1.18,3.03,7.8,7.8,0,0,1,2.91,1.69,12.5855,12.5855,0,0,1,3.18-.49h.05C43.9065,6.7441,42.61,5.53,41,4.61Z"/>
    <path d="M17.0916,42h2.5793L28.35,40.0718c.715-.1613-.3693-.2241,14.1143,1.6963A5.2482,5.2482,0,0,1,47,46.96a5.3439,5.3439,0,0,1-.03.5629l3.6485-2.7363a4.8423,4.8423,0,0,1,1.2075-.6531,5.51,5.51,0,0,0-.8335-.8728,5.006,5.006,0,0,0-7.7061-4.4589,5.9771,5.9771,0,0,0-4.5429-1.7959A7.9909,7.9909,0,0,0,36,32.7672V27.838a4.8363,4.8363,0,0,1-1-.6466,4.8006,4.8006,0,0,1-1,.6471V31.593a7.9723,7.9723,0,0,0-10.7432,5.4129A5.9813,5.9813,0,0,0,17.0916,42Z"/>
    <path d="M51.8184,46.3867l-6.2237,4.667L34.1563,52.96l-2.4678-1.2339.76-.76,9.65-.8032A3.1941,3.1941,0,0,0,45,46.96a3.2428,3.2428,0,0,0-2.8008-3.2095L29.1318,42.0088a1.0064,1.0064,0,0,0-.3486.0151L19.8906,44H12a1,1,0,0,0-1,1V56a1,1,0,0,0,1,1h5.8379l11.8457,3.9487a1.0028,1.0028,0,0,0,.49.0362l17-3a.9963.9963,0,0,0,.49-.2373l7.7841-6.919a2.8707,2.8707,0,0,0-3.63-4.4419Z"/>
    <path d="M39.76,18.6528A6,6,0,1,0,31.3477,19.76,6.0074,6.0074,0,0,0,39.76,18.6528Z"/>
  </g>
</svg>
