<svg id="Layer_2" data-name="Layer 2" xmlns="http://www.w3.org/2000/svg" viewBox="0 0 64 64">
  <title>14 Barrow Gardening</title>
  <g>
    <path d="M39.8965,17.8745a6.4947,6.4947,0,0,0-7.4277-2.5483,7,7,0,0,0-13.4581,2.289,5.4946,5.4946,0,0,0-3.01,4.8116A4.9978,4.9978,0,0,0,15.0089,23H50.9877a4.9844,4.9844,0,0,0-2.057-.9131A5.999,5.999,0,0,0,39.8965,17.8745Z"/>
    <path d="M11,36.83V50.0933a2.7138,2.7138,0,0,0,4.5518,1.997l10.3254-9.5012-6.236-2.4141L17,42.605V39.1526Z"/>
    <path d="M54,39a6.9746,6.9746,0,0,0-5.0765,2.1947l-1.08-.81,8.9959-13.84A1.0009,1.0009,0,0,0,56,25H6a3,3,0,0,0,0,6h5v3a1,1,0,0,0,.6387.9326L36.582,44.5884a9.0416,9.0416,0,0,0,10.1021-2.5728l1.0839.8125A6.995,6.995,0,1,0,54,39Zm0,9a2,2,0,1,1,2-2A2,2,0,0,1,54,48Z"/>
  </g>
</svg>
