<svg id="Layer_2" data-name="Layer 2" xmlns="http://www.w3.org/2000/svg" viewBox="0 0 64 64">
  <title>15 Seeds</title>
  <g>
    <path d="M11,21.9261V32.3132A8.7237,8.7237,0,0,0,9.045,34H54.96A8.5481,8.5481,0,0,0,53,32.311V22.9259a7.0044,7.0044,0,0,0,7.6983-8.9573.9988.9988,0,0,0-.667-.667A6.9859,6.9859,0,0,0,52,16.413a6.9858,6.9858,0,0,0-8.0312-3.1114.9988.9988,0,0,0-.667.667A7.0043,7.0043,0,0,0,51,22.9259V31.39a8.3764,8.3764,0,0,0-1.3966-.3085A4.9655,4.9655,0,0,0,42.5,28.6855a5.0067,5.0067,0,0,0-4.6006-.2211A6.0521,6.0521,0,0,0,33,27.1073V15.9261a7.0044,7.0044,0,0,0,7.6982-8.9573.9985.9985,0,0,0-.6669-.667A6.9858,6.9858,0,0,0,32,9.4132a6.9858,6.9858,0,0,0-8.0312-3.1114.9984.9984,0,0,0-.667.667A7.0042,7.0042,0,0,0,31,15.9261V27.0234A4.9457,4.9457,0,0,0,23.79,28.33a4.9473,4.9473,0,0,0-3.4541-.0322A4.99,4.99,0,0,0,13,28.9949V21.9261a7.0044,7.0044,0,0,0,7.6982-8.9573.9985.9985,0,0,0-.6669-.667A6.9858,6.9858,0,0,0,12,15.4132a6.9858,6.9858,0,0,0-8.0312-3.1114.9984.9984,0,0,0-.667.667A7.0043,7.0043,0,0,0,11,21.9261Z"/>
    <path d="M10,54H54a5.0059,5.0059,0,0,0,5-5V45H5v4A5.0059,5.0059,0,0,0,10,54Z"/>
    <rect x="3" y="36" width="58" height="7" rx="1"/>
  </g>
</svg>
