<svg id="Layer_2" data-name="Layer 2" xmlns="http://www.w3.org/2000/svg" viewBox="0 0 64 64">
  <title>16 Grass</title>
  <g>
    <path d="M3.89,20.85a196.8571,196.8571,0,0,1,8.88,21.58,6.8066,6.8066,0,0,1,2.65-1.24,141.66,141.66,0,0,0-3.81-14.66A64.2866,64.2866,0,0,0,5.49,19.7,1.0023,1.0023,0,0,0,3.89,20.85Z"/>
    <path d="M35.28,6.79a69.6766,69.6766,0,0,0-5.93,16.36,73.6934,73.6934,0,0,1,4.37,17.88,1.77,1.77,0,0,1,.23-.01,7.9828,7.9828,0,0,1,2.13.28c-1.24-10.57-.14-24.08,1.08-33.92A1.0027,1.0027,0,0,0,35.28,6.79Z"/>
    <path d="M28.01,40a6.7867,6.7867,0,0,1,3.71,1.08A74.3769,74.3769,0,0,0,18.81,7.41a1.001,1.001,0,0,0-1.77.86c1.62,5.89,2.77,10.8,3.61,14.93a78.2421,78.2421,0,0,1,7.03,16.82A1.8287,1.8287,0,0,1,28.01,40Z"/>
    <path d="M20.77,42.11A7.4468,7.4468,0,0,1,22.02,42a7.0094,7.0094,0,0,1,1.02.08,6.7545,6.7545,0,0,1,2.68-1.69A73.7432,73.7432,0,0,0,11.1,12.99,1.0019,1.0019,0,0,0,9.41,14a180.0289,180.0289,0,0,1,8.02,27.02A6.7544,6.7544,0,0,1,20.77,42.11Z"/>
    <path d="M43.7225,23.5289c.888-4.1952,1.966-8.6346,3.2414-13.2633a1.0007,1.0007,0,0,0-1.7725-.854A68.1254,68.1254,0,0,0,37.7705,22.7a127.8844,127.8844,0,0,0-.0746,13.97A78.9714,78.9714,0,0,1,43.7225,23.5289Z"/>
    <path d="M39.98,42.01a6.5564,6.5564,0,0,1,1.47.16,78.2679,78.2679,0,0,1,9.51-16.7c1.07-3.38,2.29-6.88,3.63-10.47a1.0019,1.0019,0,0,0-1.69-1.01A73.6583,73.6583,0,0,0,38.08,42.15a1.093,1.093,0,0,1,.15.08A6.881,6.881,0,0,1,39.98,42.01Z"/>
    <path d="M59.51,18.7A73.2711,73.2711,0,0,0,43.65,42.14,6.8758,6.8758,0,0,1,45,42a6.9531,6.9531,0,0,1,5.92,3.29.3553.3553,0,0,0,.1.02A182.5,182.5,0,0,1,61.11,19.85,1.0025,1.0025,0,0,0,59.51,18.7Z"/>
    <path d="M58,52H56.2451A8.4537,8.4537,0,0,0,49.6,47.082a4.9567,4.9567,0,0,0-7.1-2.3935,4.9924,4.9924,0,0,0-4.6006-.2237,6.0545,6.0545,0,0,0-6.3174-.9482,4.9771,4.9771,0,0,0-7.791.814,4.9386,4.9386,0,0,0-3.4521-.0337,4.9938,4.9938,0,0,0-8.333,3.46A8.4648,8.4648,0,0,0,7.7559,52H5a3,3,0,0,0,0,6H58a3,3,0,0,0,0-6Z"/>
  </g>
</svg>
