<svg id="Layer_2" data-name="Layer 2" xmlns="http://www.w3.org/2000/svg" viewBox="0 0 64 64">
  <title>17 Pinwheel</title>
  <g>
    <polygon points="33 41.558 31 42.713 31 60 33 60 33 41.558"/>
    <path d="M10.6685,37.4058c.2451.3569,5.1069,7.3281,10.9043,7.3281a7.2925,7.2925,0,0,0,3.6967-1.022L37.5538,36.62l5.42,9.3872a1.0008,1.0008,0,0,0,1.4322.3247c.4306-.2959,10.5068-7.3247,6.3061-14.601L43.62,19.4463l9.387-5.42a1.001,1.001,0,0,0,.3247-1.4322c-.2954-.4311-7.3256-10.5068-14.601-6.3061L26.4462,13.38l-5.42-9.3871a1.0009,1.0009,0,0,0-1.4322-.3247c-.4306.2959-10.5068,7.3247-6.3061,14.601L20.38,30.5538l-9.3871,5.42A1.0009,1.0009,0,0,0,10.6685,37.4058ZM27.3832,28.82a5.9283,5.9283,0,0,1-1.0974-5.5986c-4.1385-.84-9.2975-2.5436-11.2653-5.9523-2.6538-4.5962,2.669-9.5429,4.8413-11.2934L28.184,20.3909a5.923,5.923,0,0,1,5.5965-1.1131c.833-4.0839,2.5351-9.2857,5.95-11.2573,4.5957-2.6523,9.5434,2.669,11.2934,4.8413L36.6168,21.18a5.9286,5.9286,0,0,1,1.0973,5.5991c4.0992.8348,9.294,2.5372,11.2654,5.9518,2.6538,4.5962-2.669,9.5429-4.8413,11.2934L35.8161,29.6092a5.9509,5.9509,0,0,1-5.37,1.1862c-.0774-.0207-.15-.05-.2261-.0731-2.7182,13.3392-9.8121,15.6363-17.2436,6.4159Z"/>
    <path d="M31.999,29.0005a4,4,0,1,0-3.8628-5.0357A4.008,4.008,0,0,0,31.999,29.0005Z"/>
  </g>
</svg>
