<svg id="Layer_2" data-name="Layer 2" xmlns="http://www.w3.org/2000/svg" viewBox="0 0 64 64">
  <title>18 Tree</title>
  <g>
    <path d="M47.9346,16.4238a7.4213,7.4213,0,0,0-7.3633-8.0791A9.501,9.501,0,0,0,32,3a9.5966,9.5966,0,0,0-8.6021,5.4189,7.4079,7.4079,0,0,0-8.3413,8.4756,8.4767,8.4767,0,0,0,1.6211,15.5171,6.2651,6.2651,0,0,0,5.0838,3.5345l-4.0838-4.9944a3,3,0,0,1,.8951-4.5376l2.497-1.3536a2.9973,2.9973,0,0,1,3.49.4566l2.2734,2.1514.227-4.81A2.9968,2.9968,0,0,1,30.0571,20h3.8858A2.9967,2.9967,0,0,1,36.94,22.8579l.227,4.8106,2.272-2.15a2.9975,2.9975,0,0,1,3.4966-.4556c.7329.4336,1.2548.6963,1.6567.8994a3.5891,3.5891,0,0,1,2.352,2.5147,2.9833,2.9833,0,0,1-.6235,2.4765l-4.0812,4.9915a6.2647,6.2647,0,0,0,5.0832-3.5335,8.4735,8.4735,0,0,0,.6123-15.9878Z"/>
    <path d="M44.7739,29.6855a.9974.9974,0,0,0,.2071-.8256c-.1516-.7759-.8907-.7871-3.0039-2.0411a.9987.9987,0,0,0-1.1641.1524l-5.439,5.147-.4321-9.1651A1,1,0,0,0,33.9429,22H30.0571a1,1,0,0,0-.999.9531l-.4321,9.1651-5.439-5.147a.9987.9987,0,0,0-1.1641-.1524l-2.5,1.355a1,1,0,0,0-.2973,1.5117l9.0781,11.1026L26.7656,59.92A1,1,0,0,0,27.7622,61h8.4756a1,1,0,0,0,.9966-1.08L35.6958,40.7881Z"/>
  </g>
</svg>
