<svg id="Layer_2" data-name="Layer 2" xmlns="http://www.w3.org/2000/svg" viewBox="0 0 64 64">
  <title>19 Mushroom</title>
  <g>
    <path d="M29.0962,51a19.37,19.37,0,0,1,7.1354-15.25Q35.99,33.3449,35.5948,31H13.6219A114.05,114.05,0,0,0,14.01,60.1416,1,1,0,0,0,15,61H34a1.0006,1.0006,0,0,0,.9834-.8179c.4473-2.4189.7459-4.427.9516-6.1821H32.0962A3.0033,3.0033,0,0,1,29.0962,51Z"/>
    <path d="M38.7877,54a12.7734,12.7734,0,0,0,.8671,6.3711A1,1,0,0,0,40.5835,61h10.8a1.0006,1.0006,0,0,0,.91-.5845A11.4268,11.4268,0,0,0,53.2959,54Z"/>
    <path d="M48,28C48,14.0737,37.9067,2.7437,25.5,2.7437S3,14.0737,3,28a1,1,0,0,0,1,1H47A1,1,0,0,0,48,28ZM12,24a3,3,0,1,1,3-3A3.0033,3.0033,0,0,1,12,24Zm6.5-8A3.5,3.5,0,1,1,22,12.5,3.5042,3.5042,0,0,1,18.5,16ZM26,22a3,3,0,1,1,3-3A3.0033,3.0033,0,0,1,26,22Zm4-9a3,3,0,1,1,3,3A3.0033,3.0033,0,0,1,30,13Zm8,11a3,3,0,1,1,3-3A3.0033,3.0033,0,0,1,38,24Z"/>
    <path d="M46.0479,34.2593c-8.2442,0-14.9517,7.51-14.9517,16.7407a1,1,0,0,0,1,1H60a1,1,0,0,0,1-1C61,41.769,54.2925,34.2593,46.0479,34.2593ZM41,48a3,3,0,1,1,3-3A3.0033,3.0033,0,0,1,41,48Zm8-3a3,3,0,1,1,3-3A3.0033,3.0033,0,0,1,49,45Z"/>
  </g>
</svg>
