<svg id="Layer_2" data-name="Layer 2" xmlns="http://www.w3.org/2000/svg" viewBox="0 0 64 64">
  <title>20 Chick</title>
  <g>
    <path d="M12.38,20.14A7.0215,7.0215,0,0,0,11,20H6.4a2.9973,2.9973,0,0,0-2.62,4.46l1.06,1.91A8.99,8.99,0,0,0,12.67,31,30.4068,30.4068,0,0,1,12.38,20.14Z"/>
    <path d="M57.6,20H53a7.123,7.123,0,0,0-1.39.14A30.0868,30.0868,0,0,1,51.33,31a8.99,8.99,0,0,0,7.83-4.63l1.06-1.91A3.0006,3.0006,0,0,0,57.6,20Z"/>
    <path d="M14,24a41.9809,41.9809,0,0,0,1.6572,11.0417l2.3394,2.0062,5.0454-4.3257a3.0007,3.0007,0,0,1,3.9067.0019l5.041,4.3238,5.0469-4.3257a3.0007,3.0007,0,0,1,3.9053.0005L45.9946,37.05l2.3492-2.0119A41.9834,41.9834,0,0,0,50,24,18.0142,18.0142,0,0,0,34.3546,6.1722a6.6666,6.6666,0,0,0,.8041-3.0677l-2,.0068a4.0406,4.0406,0,0,1-.83,2.4678,1.5281,1.5281,0,0,1-1.1562.4409v.0219A18.0068,18.0068,0,0,0,14,24Zm22-8a1,1,0,1,1-1,1A1,1,0,0,1,36,16Zm-4.4961,6.1318a1,1,0,0,1,.9922,0l3.5,2a1,1,0,0,1,.39,1.3316C34.8579,28.3862,33.1572,29,32,29s-2.8579-.6138-4.3862-3.5366a1,1,0,0,1,.39-1.3316ZM28,16a1,1,0,1,1-1,1A1,1,0,0,1,28,16Z"/>
    <path d="M52.35,34.2407l-6.355,5.4429L39.64,34.2407a1,1,0,0,0-1.3012,0l-6.3491,5.4419-6.3438-5.4414a.9994.9994,0,0,0-1.3017-.0005l-6.3472,5.4419-6.3457-5.4419A1.0007,1.0007,0,0,0,10,35v4.5C10,51.355,19.8691,61,32,61s22-9.645,22-21.5V35A1.0006,1.0006,0,0,0,52.35,34.2407Z"/>
  </g>
</svg>
