<svg id="Layer_2" data-name="Layer 2" xmlns="http://www.w3.org/2000/svg" viewBox="0 0 64 64">
  <title>21 Kite</title>
  <g>
    <path d="M19.7415,46.5066,52.4622,26.999,36.3661,17.706,19.868,46.2806l.0041-.0072-1.7442-.9775-3.3047,5.8984a6.2739,6.2739,0,0,0,2.0918,8.4444l1.0967.6943a6.2661,6.2661,0,0,0,8.4971-1.687l7.2383-9.5366a4.2872,4.2872,0,1,1,6.93,5.0464L36.418,59.7515,38.01,60.9624l4.2588-5.5957A6.2868,6.2868,0,1,0,32.13,47.9336L24.8916,57.47a4.279,4.279,0,0,1-5.8105,1.1729l-1.0977-.6944a4.2813,4.2813,0,0,1-1.4209-5.767Z"/>
    <polygon points="42.387 3.278 19.762 5.81 35.634 14.974 42.387 3.278"/>
    <polygon points="18.004 45.509 34.634 16.706 18.538 7.413 18.004 45.509"/>
    <polygon points="37.366 15.974 53.238 25.137 44.119 4.279 37.366 15.974"/>
  </g>
</svg>
