<svg id="Layer_2" data-name="Layer 2" xmlns="http://www.w3.org/2000/svg" viewBox="0 0 64 64">
  <title>22 Rainbow</title>
  <g>
    <path d="M13,31.38v7.25a8.5193,8.5193,0,0,1,1.75-.18,8.6557,8.6557,0,0,1,1.25.09V31.38C16,23.45,22.95,17,31.5,17a16.0818,16.0818,0,0,1,10.78,4.08,9.2973,9.2973,0,0,1,2.34-1.9A19.189,19.189,0,0,0,31.5,14C21.3,14,13,21.8,13,31.38Z"/>
    <path d="M40.57,22.23A14.1624,14.1624,0,0,0,31.5,19C24.06,19,18,24.55,18,31.38v7.67a9.4059,9.4059,0,0,1,3,1.85V31.38C21,26.21,25.71,22,31.5,22a11.3293,11.3293,0,0,1,6.32,1.89A7.0805,7.0805,0,0,1,40.57,22.23Z"/>
    <path d="M8,41.4a9.2121,9.2121,0,0,1,3-2.14V31.38C11,20.69,20.2,12,31.5,12a21.2186,21.2186,0,0,1,15.14,6.34A8.8793,8.8793,0,0,1,49.05,18a9.9732,9.9732,0,0,1,1.35.1A24.0586,24.0586,0,0,0,31.5,9C18.54,9,8,19.04,8,31.38Z"/>
    <path d="M26,46.9453h-.2812a5.2633,5.2633,0,0,0-4.4688-2.5h-.0264a7.2412,7.2412,0,0,0-13.2129.5879A5.9969,5.9969,0,0,0,9,56.9453H26a5,5,0,0,0,0-10Z"/>
    <path d="M55.5859,24.4341a7.0266,7.0266,0,0,0-12.8046-.5718h-.004a5.1131,5.1131,0,0,0-4.333,2.4136h-.0527a5.0022,5.0022,0,0,0-5.0439,4.43A4.866,4.866,0,0,0,38.1914,36H54.3643a6.0143,6.0143,0,0,0,6.0371-5.2163A5.8222,5.8222,0,0,0,55.5859,24.4341Z"/>
  </g>
</svg>
