<svg id="Layer_2" data-name="Layer 2" xmlns="http://www.w3.org/2000/svg" viewBox="0 0 64 64">
  <title>23 Snail</title>
  <g>
    <path d="M61.4492,9.8936c-.05-.1007-.954-1.9029-.8965-1.7881A16.7442,16.7442,0,0,0,52.6943,18h-.1308a7.41,7.41,0,0,0-6.2783,3.5161L33.3936,42.55A9.38,9.38,0,0,1,25.4463,47H12.1719a5.1325,5.1325,0,0,0-5.1485,4.5122A5.0031,5.0031,0,0,0,12,57H51.8281a5.1325,5.1325,0,0,0,5.1485-4.5122A5.0007,5.0007,0,0,0,52,47a.3112.3112,0,0,1-.3057-.3726l1.9082-9.542a5.3342,5.3342,0,0,1,1.4668-2.74v0l3.6143-3.6142A7.3562,7.3562,0,0,0,54.76,18.0969,14.7168,14.7168,0,0,1,61.4492,9.8936Z"/>
    <path d="M27.9629,34.27c1.8135-6.4717-2.81-10.7846-5.5078-12.1611l.9082-1.7813c3.2031,1.6333,8.6885,6.7627,6.5254,14.482-2.0276,7.2427-12.45,9.6925-19.7484,7.4583a8.1111,8.1111,0,0,0-.0613,3.0461c1.8168-.55,1.9328-.2113,15.3673-.314a7.3679,7.3679,0,0,0,6.2422-3.4956C45.2757,19.5388,44.4756,20.1913,46.0192,18.6868A22.9962,22.9962,0,0,0,3,30C3,44.5691,25.3823,43.4778,27.9629,34.27Z"/>
  </g>
</svg>
