<svg id="Layer_2" data-name="Layer 2" xmlns="http://www.w3.org/2000/svg" viewBox="0 0 64 64">
  <title>24 Bird House</title>
  <g>
    <path d="M54.5186,16.502l-22-13.357a1,1,0,0,0-1.0372,0l-22,13.357A1,1,0,0,0,9,17.3569v6a1.0006,1.0006,0,0,0,1.5186.855L32,11.17l21.4814,13.042A1.0007,1.0007,0,0,0,55,23.3569v-6A1,1,0,0,0,54.5186,16.502Z"/>
    <rect x="11" y="42" width="42" height="7" rx="1"/>
    <path d="M27,60a1,1,0,0,0,1,1h8a1,1,0,0,0,1-1V51H27Z"/>
    <path d="M48.1171,23.2948,32,13.51,15.8835,23.2945,17.6731,40H46.327ZM32,38a9,9,0,1,1,9-9A9.01,9.01,0,0,1,32,38Z"/>
  </g>
</svg>
