<svg id="Layer_2" data-name="Layer 2" xmlns="http://www.w3.org/2000/svg" viewBox="0 0 64 64">
  <title>25 Easter Egg</title>
  <g>
    <path d="M12.8864,24H51.1136A54.166,54.166,0,0,0,48.51,19H15.49A54.166,54.166,0,0,0,12.8864,24Z"/>
    <path d="M14.1172,52H49.8828a21.3083,21.3083,0,0,0,2.7335-5H11.3837A21.3083,21.3083,0,0,0,14.1172,52Z"/>
    <path d="M52.646,33.8906c-2.2827.4556-2.68,5.9668-6.6514,5.9668-4.1213,0-4.394-6.001-7.0053-6.001-2.613,0-2.8667,6.001-7,6.001-4.1472,0-4.3658-6.001-6.9942-6.001-2.6124,0-2.865,6.001-6.998,6.001-4.0216,0-4.3851-5.7009-6.772-5.9873a2.8753,2.8753,0,0,0-1.1886.1807C9.97,35.1166,10.0145,34.8719,10,39.5a20.9952,20.9952,0,0,0,.7326,5.5H53.2674A20.9952,20.9952,0,0,0,54,39.5c-.0144-4.6315.03-4.4031-.0364-5.4616A2.6273,2.6273,0,0,0,52.646,33.8906Z"/>
    <path d="M11.4629,31.8848c3.7368.4484,3.9913,5.9726,6.5337,5.9726,2.6152,0,2.865-6,6.998-6,4.1472,0,4.3653,6,6.9942,6s2.8552-6,7-6c4.1221,0,4.3934,6,7.0053,6,2.4782,0,2.7824-5.2332,6.2593-5.9277a4.1024,4.1024,0,0,1,1.4484-.0059A30.8792,30.8792,0,0,0,51.9638,26H12.0362a30.8893,30.8893,0,0,0-1.7385,5.9233A4.174,4.174,0,0,1,11.4629,31.8848Z"/>
    <path d="M32,61a22.1782,22.1782,0,0,0,16.228-7H15.772A22.1782,22.1782,0,0,0,32,61Z"/>
    <path d="M16.7109,17H47.2891C42.3862,9.3356,35.9331,3,32,3S21.6138,9.3356,16.7109,17Z"/>
  </g>
</svg>
