<?xml version="1.0" encoding="utf-8"?>
<!-- Generator: Adobe Illustrator 27.3.1, SVG Export Plug-In . SVG Version: 6.00 Build 0)  -->
<svg version="1.1" id="Outline" xmlns="http://www.w3.org/2000/svg" xmlns:xlink="http://www.w3.org/1999/xlink" x="0px" y="0px"
	 viewBox="0 0 64 64" enable-background="new 0 0 64 64" xml:space="preserve">
<g>
	<path d="M49.46991,19.95245C51.45215,19.71649,53,18.04468,53,16c0-2.20557-1.79443-4-4-4h-4c-0.55225,0-1,0.44775-1,1
		s0.44775,1,1,1h4c1.10303,0,2,0.89697,2,2s-0.89697,2-2,2H15c-1.10303,0-2-0.89697-2-2s0.89697-2,2-2h22c0.55225,0,1-0.44775,1-1
		s-0.44775-1-1-1H15c-2.20557,0-4,1.79443-4,4c0,2.04468,1.54785,3.71649,3.53009,3.95245
		c-5.0177,3.73883-7.96411,9.83875-7.52765,16.11688C7.4873,43.04199,12.04932,49.2666,18.625,51.92676
		C18.74414,51.97559,18.87158,52,19,52h26c0.12842,0,0.25586-0.02441,0.375-0.07324
		c6.57568-2.66016,11.1377-8.88477,11.62256-15.85742C57.43402,29.7912,54.48761,23.69128,49.46991,19.95245z M55.00244,35.93066
		C54.57471,42.08301,50.57861,47.58496,44.80225,50H19.19775c-5.77637-2.41504-9.77246-7.91699-10.2002-14.06934
		C8.53998,29.3501,12.25232,22.97888,18.24713,20h27.50574C51.74768,22.97888,55.46002,29.3501,55.00244,35.93066z"/>
	<path d="M44.69922,21.70312c-0.13525-0.06494-0.28369-0.09863-0.43359-0.09863H19.73438c-0.1499,0-0.29834,0.03369-0.43359,0.09863
		c-5.37549,2.58643-8.71436,8.24805-8.30811,14.08887c0.36279,5.21289,3.58691,9.85449,8.41406,12.11328
		C19.53955,47.96777,19.68408,48,19.83057,48h24.33887c0.14648,0,0.29102-0.03223,0.42383-0.09473
		c4.82715-2.25879,8.05127-6.90039,8.41406-12.11328C53.41357,29.95117,50.07471,24.28955,44.69922,21.70312z M19.9668,23.60449
		H44.0332c1.21893,0.61334,2.30725,1.41534,3.24786,2.34985c-4.53815,1.57977-8.98206,2.27325-13.22882,2.04712
		c-1.47021-0.07715-2.6792-0.24756-3.95947-0.42822c-1.69775-0.23926-3.45361-0.48682-6.06006-0.57275
		c-2.84143-0.09613-5.7196,0.05518-8.58478,0.4248C16.61658,25.84741,18.14899,24.51917,19.9668,23.60449z M51.01221,35.65332
		C50.70459,40.07031,48.00293,44.01562,43.94238,46H20.05762c-4.06055-1.98438-6.76221-5.92969-7.06982-10.34668
		c-0.14551-2.09265,0.27435-4.15692,1.14203-6.01807c3.27588-0.52252,6.58521-0.74225,9.83746-0.63574
		c2.49902,0.08203,4.20068,0.32227,5.84619,0.5542c1.32471,0.18701,2.57617,0.36328,4.13281,0.44482
		c0.56689,0.03027,1.13574,0.04541,1.70801,0.04541c4.2124,0,8.57916-0.83209,13.01251-2.46198
		C50.3335,29.90485,51.21393,32.75208,51.01221,35.65332z"/>
	<path d="M31.9707,32.05859c-1.3692,0-4.60834,0.40643-7.62103,3.79248c0,0-4.8858-2.44336-4.90234-2.45166
		c-0.89148-0.4458-1.83411,0.60779-1.28229,1.44531C18.79248,35.7959,19.12402,36.88672,19.12402,38
		c0,1.11304-0.33142,2.20361-0.95856,3.1546c-0.53815,0.81598,0.40741,1.88318,1.2818,1.44598l4.90253-2.45166
		c3.0127,3.3858,6.25171,3.79248,7.62091,3.79248c4.67969,0,7.75146-3.76074,8.85547-5.37793
		c0.23193-0.33984,0.23193-0.78711,0-1.12695C39.72217,35.81934,36.65039,32.05859,31.9707,32.05859z M23.10187,38.53668
		l-2.15021,1.07562c0.11426-0.52832,0.17236-1.06836,0.17236-1.6123s-0.05811-1.08398-0.17236-1.6123l2.15021,1.07562
		C22.89221,37.79138,22.89221,38.20862,23.10187,38.53668z M31.9707,41.94141c-1.18164,0-4.12549-0.39746-6.79932-3.94141
		c2.67383-3.54395,5.61768-3.94141,6.79932-3.94141c3.27393,0,5.64209,2.43262,6.79541,3.94141
		C37.61279,39.50879,35.24463,41.94141,31.9707,41.94141z"/>
	<circle cx="35" cy="38" r="1"/>
	<circle cx="46" cy="38" r="1"/>
	<circle cx="43" cy="40" r="1"/>
	<path d="M46,30c-1.6543,0-3,1.3457-3,3s1.3457,3,3,3s3-1.3457,3-3S47.6543,30,46,30z M46,34c-0.55127,0-1-0.44824-1-1
		c0-0.55127,0.44873-1,1-1s1,0.44873,1,1C47,33.55176,46.55127,34,46,34z"/>
	<circle cx="41" cy="13" r="1"/>
</g>
</svg>
