<?xml version="1.0" encoding="UTF-8"?>
<svg xmlns="http://www.w3.org/2000/svg" version="1.1" viewBox="0 0 64 64">
  <!-- Generator: Adobe Illustrator 28.7.1, SVG Export Plug-In . SVG Version: 1.2.0 Build 142)  -->
  <g>
    <g id="Outline">
      <path d="M56,29.98581c-1.44,0-2.84003-.29999-4.14001-.89001s-2.44-1.44-3.39996-2.53003c-2.44-2.79999-5.94-4.42999-9.64001-4.56-.40002-1.16998-1.51001-2.01996-2.82001-2.01996h-3v-5h3c.37,0,.71002-.20001.88-.53003.17999-.32001.15997-.71997-.04999-1.01996l-4-6c-.37-.56-1.29004-.56-1.66003,0l-4,6c-.20996.29999-.22998.69995-.04999,1.01996.16998.33002.51001.53003.88.53003h3v5h-3c-1.31,0-2.41998.84998-2.82001,2.01996-1.77002.06-3.48999.45001-5.08997,1.18005-1.75.78998-3.28003,1.92999-4.55005,3.37994-.95996,1.09003-2.09998,1.94-3.39996,2.53003s-2.70001.89001-4.14001.89001c-.54999,0-1,.45001-1,1v4c0,.54999.45001,1,1,1h23v8.5l-3.59998,2.70001c-.25.19-.40002.48999-.40002.79999v8c0,.38.21002.71997.54999.89001.34003.16998.75.13995,1.04999-.09003l3.40002-2.54999s3.39001,2.53998,3.40002,2.54999c.64996.48999,1.59998,0,1.59998-.79999v-8c0-.31-.15002-.60999-.40002-.79999l-3.59998-2.70001v-8.5h23c.54999,0,1-.45001,1-1v-4c0-.54999-.45001-1-1-1ZM29.87,12.98581l2.13-3.20001,2.13,3.20001h-4.26001ZM10,33.98581h-1v-2.04004c1.37-.10999,2.70001-.45996,3.96002-1.02997,1.57001-.70001,2.94-1.72003,4.07996-3.03003,1.08002-1.23999,2.38-2.19995,3.88-2.88,1.29004-.58997,2.66003-.90997,4.08002-.98999v2.25c-2.89001.57001-5.52002,2.07001-7.46002,4.29999-.95996,1.09003-2.09998,1.94-3.39996,2.53003s-2.70001.89001-4.14001.89001ZM16.62,33.98581c.89001-.59003,1.71002-1.28003,2.41998-2.10004,1.63-1.87,3.83002-3.13995,6.24005-3.64996.47998,1.02997,1.50995,1.75,2.71997,1.75h3v4h-14.38ZM35,48.48581v5.5l-2.40002-1.79999c-.17999-.13-.38995-.20001-.59998-.20001s-.41998.07001-.59998.20001l-2.40002,1.79999v-5.5l3-2.25,3,2.25ZM28,27.98581c-.54999,0-1-.45001-1-1v-4c0-.54999.45001-1,1-1h8c.54999,0,1,.45001,1,1v4.01001c0,.53998-.45001.98999-1,.98999h-8ZM33,33.98581v-4h3c1.21002,0,2.25-.72003,2.71997-1.76001.81006.16998,1.60004.42999,2.37006.77997,1.48999.68005,2.78998,1.64001,3.87,2.88.70996.82001,1.53998,1.51001,2.42999,2.10004h-14.39001ZM55,33.98581h-1c-2.89001,0-5.64001-1.25-7.53998-3.42004-1.27002-1.44995-2.80005-2.58997-4.54004-3.37994-.94-.43005-1.91998-.74005-2.91998-.94v-2.23004c3.06.17004,5.92999,1.54999,7.96002,3.87,1.13995,1.31,2.50995,2.33002,4.07996,3.03003,1.26001.57001,2.58002.91998,3.96002,1.02997v2.04004Z"/>
    </g>
  </g>
</svg>