<?xml version="1.0" encoding="UTF-8"?>
<svg id="Outline" xmlns="http://www.w3.org/2000/svg" version="1.1" viewBox="0 0 64 64">
  <path d="M14,47c-1.6543,0-3,1.3457-3,3s1.3457,3,3,3,3-1.3457,3-3-1.3457-3-3-3ZM14,51c-.55127,0-1-.44873-1-1s.44873-1,1-1,1,.44873,1,1-.44873,1-1,1Z" fill="#000" stroke-width="0"/>
  <path d="M23,47c-1.6543,0-3,1.3457-3,3s1.3457,3,3,3,3-1.3457,3-3-1.3457-3-3-3ZM23,51c-.55127,0-1-.44873-1-1s.44873-1,1-1,1,.44873,1,1-.44873,1-1,1Z" fill="#000" stroke-width="0"/>
  <path d="M50,47c-1.6543,0-3,1.3457-3,3s1.3457,3,3,3,3-1.3457,3-3-1.3457-3-3-3ZM50,51c-.55127,0-1-.44873-1-1s.44873-1,1-1,1,.44873,1,1-.44873,1-1,1Z" fill="#000" stroke-width="0"/>
  <path d="M41,47c-1.6543,0-3,1.3457-3,3s1.3457,3,3,3,3-1.3457,3-3-1.3457-3-3-3ZM41,51c-.55127,0-1-.44873-1-1s.44873-1,1-1,1,.44873,1,1-.44873,1-1,1Z" fill="#000" stroke-width="0"/>
  <path d="M32,47c-1.6543,0-3,1.3457-3,3s1.3457,3,3,3,3-1.3457,3-3-1.3457-3-3-3ZM32,51c-.55127,0-1-.44873-1-1s.44873-1,1-1,1,.44873,1,1-.44873,1-1,1Z" fill="#000" stroke-width="0"/>
  <path d="M51,43.07996v-11.07996c0-.54999-.45001-1-1-1h-12c-.54999,0-1,.45001-1,1v11h-9v-11c0-.54999-.45001-1-1-1h-12c-.54999,0-1,.45001-1,1v11c-3.85999,0-7,3.14001-7,7s3.14001,7,7,7h36c3.85999,0,7-3.14001,7-7,0-3.52002-2.60999-6.42999-6-6.92004ZM39,33h10v10h-10v-10ZM16,33h10v10h-10v-10ZM50,55H14c-2.76001,0-5-2.23999-5-5s2.23999-5,5-5h36c2.76001,0,5,2.23999,5,5s-2.23999,5-5,5Z" fill="#000" stroke-width="0"/>
  <path d="M56,14h-6.42383c.26935-.61359.42383-1.28821.42383-2s-.15448-1.38641-.42383-2h6.42383c.55225,0,1-.44775,1-1s-.44775-1-1-1h-8c-.00879,0-.01605.00476-.02484.005-.83386-.62286-1.85681-1.005-2.97516-1.005-2.50665,0-4.56897,1.86047-4.92615,4.26941l-6.39075,6.39124c-.18799.1875-.29297.44238-.29297.70752s.10583.51892.29309.7063l-1.82526,1.82495h-2.41412c-.26514,0-.51953.10547-.70703.29297l-2.12158,2.12158c-.1875.1875-.29297.44189-.29297.70703v2.82812c0,.55225.44775,1,1,1s1-.44775,1-1v-2.41406l1.53564-1.53564h2l2.24268,2.24268v2l-1.53564,1.53564h-2.41406c-.55225,0-1,.44775-1,1s.44775,1,1,1h2.82812c.26514,0,.51953-.10547.70703-.29297l2.12158-2.12158c.1875-.1875.29297-.44189.29297-.70703v-2.41412l1.82965-1.82996.00385.00385c.19482.19482.45068.29199.70605.29199.25635,0,.51221-.09766.70752-.29346l6.37793-6.38782c.83624-.12317,1.60095-.44714,2.24957-.93164.00879.00024.01605.005.02484.005h8c.55225,0,1-.44775,1-1s-.44775-1-1-1ZM45,9c1.6543,0,3,1.3457,3,3s-1.3457,3-3,3-3-1.3457-3-3,1.3457-3,3-3ZM35.10059,23.31396l-1.41455-1.41455,1.41278-1.41229,1.41565,1.41248-1.41388,1.41437ZM38.63867,21.19385l-.65387-.6524-2.17719-2.17719h0l4.54645-4.54681c.50781,1.29303,1.53375,2.31952,2.82642,2.82782l-4.54181,4.54858Z" fill="#000" stroke-width="0"/>
</svg>