<?xml version="1.0" encoding="UTF-8"?>
<svg id="Outline" xmlns="http://www.w3.org/2000/svg" version="1.1" viewBox="0 0 64 64">
  <path d="M35.16672,7.50392c-12.13086,0-22,9.86914-22,22s9.86914,22,22,22,22-9.86914,22-22S47.29758,7.50392,35.16672,7.50392ZM34.16672,28.50392h-6.02582c-.2428-5.27234-2.39301-10.32263-6.01733-14.12836,3.26837-2.8219,7.45233-4.59229,12.04315-4.82098v18.94934ZM28.1409,30.50392h6.02582v18.94934c-4.59082-.2287-8.77478-1.99908-12.04315-4.82098,3.62433-3.80573,5.77454-8.85602,6.01733-14.12836ZM36.16672,30.50392h6.02582c.2428,5.27234,2.39301,10.32263,6.01733,14.12836-3.26837,2.8219-7.45233,4.59229-12.04315,4.82098v-18.94934ZM42.19254,28.50392h-6.02582V9.55458c4.59082.2287,8.77478,1.99908,12.04315,4.82098-3.62433,3.80573-5.77454,8.85602-6.01733,14.12836ZM15.16672,29.50392c0-5.31604,2.09863-10.1416,5.49371-13.72748,3.49823,3.67572,5.50629,8.61169,5.50629,13.72748s-2.00806,10.05176-5.50629,13.72748c-3.39508-3.58588-5.49371-8.41144-5.49371-13.72748ZM49.67301,43.2314c-3.49823-3.67572-5.50629-8.61169-5.50629-13.72748s2.00806-10.05176,5.50629-13.72748c3.39508,3.58588,5.49371,8.41144,5.49371,13.72748s-2.09863,10.1416-5.49371,13.72748Z" style="fill: #000; stroke-width: 0px;"/>
  <circle cx="8.33341" cy="55.17055" r="1" style="fill: #000; stroke-width: 0px;"/>
  <path d="M17.37375,46.29689c-.39062-.39062-1.02344-.39062-1.41406,0l-5.5,5.5c-.39062.39062-.39062,1.02344.00003,1.41409.3873.38727,1.02745.38656,1.41404-.00003l5.5-5.5c.39062-.39062.39062-1.02344,0-1.41406Z" style="fill: #000; stroke-width: 0px;"/>
  <path d="M18.88743,50.64455c-.38232-.39941-1.01562-.41016-1.41357-.02783l-4.3335,4.1665c-.39837.38275-.41064,1.01542-.02802,1.41338.37385.38884,1.02724.39993,1.41376.02802l4.3335-4.1665c.39844-.38281.41064-1.01562.02783-1.41357Z" style="fill: #000; stroke-width: 0px;"/>
  <path d="M8.5261,50.22462l4.3335-4.1665c.39844-.38281.41064-1.01562.02783-1.41357-.38184-.39893-1.01514-.40967-1.41357-.02783l-4.3335,4.1665c-.39836.38274-.41064,1.01537-.02806,1.41333.35659.37093,1.02136.40568,1.41381.02807Z" style="fill: #000; stroke-width: 0px;"/>
  <path d="M7.83361,44.49129c.25078.00118.5034-.08472.69249-.26667l4.3335-4.1665c.39844-.38281.41064-1.01562.02783-1.41357-.38184-.39844-1.01514-.41016-1.41357-.02783l-4.33345,4.16646c-.6406.61591-.181,1.70401.69321,1.70811Z" style="fill: #000; stroke-width: 0px;"/>
  <path d="M23.47385,50.61671l-4.3335,4.1665c-.39834.38272-.41064,1.01532-.02811,1.41328.35541.36976,1.0206.40651,1.41385.02812l4.3335-4.1665c.39844-.38281.41064-1.01562.02783-1.41357-.38281-.39941-1.01514-.41016-1.41357-.02783Z" style="fill: #000; stroke-width: 0px;"/>
</svg>