<?xml version="1.0" encoding="utf-8"?>
<!-- Generator: Adobe Illustrator 27.3.1, SVG Export Plug-In . SVG Version: 6.00 Build 0)  -->
<svg version="1.1" id="Outline" xmlns="http://www.w3.org/2000/svg" xmlns:xlink="http://www.w3.org/1999/xlink" x="0px" y="0px"
	 viewBox="0 0 64 64" enable-background="new 0 0 64 64" xml:space="preserve">
<g>
	<path d="M54,30H38.09003c-0.68005-0.98999-1.33002-1.65002-1.38-1.71002c-0.39001-0.39001-1.03003-0.39001-1.42004,0
		c-0.04999,0.06-0.69995,0.72003-1.38,1.71002H10c-1.65002,0-3,1.34998-3,3c0,1.64996,1.34998,3,3,3h0.20001l3.12,14.08997
		C13.84003,52.39001,15.84998,54,18.21002,54H19c0,1.64996,1.34998,3,3,3s3-1.35004,3-3h14c0,1.64996,1.34998,3,3,3s3-1.35004,3-3
		h0.78998c2.36005,0,4.37-1.60999,4.89001-3.91003L53.79999,36H54c1.65002,0,3-1.35004,3-3C57,31.34998,55.65002,30,54,30z
		 M36,30.51996c0.75,0.97003,1.66998,2.46002,1.66998,3.81C37.66998,35.25,36.91998,36,36,36s-1.66998-0.75-1.66998-1.67004
		C34.33002,32.98999,35.25,31.48999,36,30.51996z M23,54c0,0.54999-0.45001,1-1,1s-1-0.45001-1-1v-3h2V54z M43,54
		c0,0.54999-0.45001,1-1,1s-1-0.45001-1-1v-3h2V54z M48.71997,49.64996C48.40997,51.02997,47.21002,52,45.78998,52H45v-2
		c0-0.54999-0.45001-1-1-1h-4c-0.54999,0-1,0.45001-1,1v2H25v-2c0-0.54999-0.45001-1-1-1h-4c-0.54999,0-1,0.45001-1,1v2h-0.78998
		c-1.42004,0-2.62-0.97003-2.92999-2.35004L13.79999,43c4.04004-0.95001,8.10999-1.29004,12.13-1
		c2.72998,0.19,4.56,0.59998,6.51001,1.03998c1.62,0.35999,3.28998,0.72998,5.46002,0.96002
		c1.17999,0.10999,2.37,0.16998,3.56995,0.16998c2.84003,0,5.75-0.34998,8.70001-1.01001L48.71997,49.64996z M50.64001,41
		c-4.29004,1.07001-8.5,1.40997-12.54004,1.01001c-2.04999-0.21002-3.58997-0.56-5.21997-0.92004
		c-1.92999-0.44-3.92999-0.88-6.81-1.08997C21.87,39.70001,17.59998,40.06,13.37,41.03998L12.25,36H18c0.54999,0,1-0.45001,1-1
		s-0.45001-1-1-1h-8c-0.54999,0-1-0.45001-1-1s0.45001-1,1-1h22.83002c-0.25,0.63-0.42999,1.31-0.48004,2H26
		c-0.54999,0-1,0.45001-1,1s0.45001,1,1,1h6.75c0.60999,1.17999,1.83002,2,3.25,2s2.64001-0.82001,3.25-2h12.5L50.64001,41z M54,34
		H39.65002c-0.05005-0.69-0.23004-1.37-0.48004-2H54c0.54999,0,1,0.45001,1,1S54.54999,34,54,34z"/>
	<path d="M8,25c0.54999,0,1-0.45001,1-1v-3h6.09998C15.56,23.27997,17.59003,25,20,25s4.44-1.72003,4.90002-4H29v5
		c0,0.54999,0.45001,1,1,1h4c0.54999,0,1-0.45001,1-1v-5c0-3.31-2.69-6-6-6h-4.09998C24.5,13.03998,22.95001,11.51001,21,11.10999V9
		h5c0.54999,0,1-0.45001,1-1s-0.45001-1-1-1H14c-0.54999,0-1,0.45001-1,1s0.45001,1,1,1h5v2.10999
		C17.04999,11.51001,15.5,13.03998,15.09998,15H9v-2c0-0.54999-0.45001-1-1-1s-1,0.45001-1,1v11C7,24.54999,7.45001,25,8,25z M33,25
		h-2v-2h2V25z M9,17h7c0.54999,0,1-0.45001,1-1c0-1.65002,1.34998-3,3-3s3,1.34998,3,3c0,0.54999,0.45001,1,1,1h5
		c2.21002,0,4,1.78998,4,4h-2c0-1.10004-0.90002-2-2-2h-5c-0.54999,0-1,0.45001-1,1c0,1.64996-1.34998,3-3,3s-3-1.35004-3-3
		c0-0.54999-0.45001-1-1-1H9V17z"/>
	<path d="M40,28c1.6543,0,3-1.3457,3-3c0-2.34668-2.05859-4.47266-2.29297-4.70703c-0.39062-0.39062-1.02344-0.39062-1.41406,0
		C39.05859,20.52734,37,22.65332,37,25C37,26.6543,38.3457,28,40,28z M40,22.56104c0.49023,0.68311,1,1.60938,1,2.43896
		c0,0.55127-0.44824,1-1,1s-1-0.44873-1-1C39,24.17041,39.50977,23.24414,40,22.56104z"/>
	<circle cx="22" cy="35" r="1"/>
</g>
</svg>
