<?xml version="1.0" encoding="UTF-8"?>
<svg xmlns="http://www.w3.org/2000/svg" version="1.1" viewBox="0 0 64 64">
  <!-- Generator: Adobe Illustrator 28.7.1, SVG Export Plug-In . SVG Version: 1.2.0 Build 142)  -->
  <g>
    <g id="Outline">
      <g>
        <path d="M54.00033,30.1654c0,1.29999-.84003,2.39996-2,2.82001v21.17999c0,1.64996-1.34998,3-3,3h-24c-1.65002,0-3-1.35004-3-3v-7c0-.54999.45001-1,1-1s1,.45001,1,1v7c0,.54999.45001,1,1,1h24c.54999,0,1-.45001,1-1v-21h-29.28003l3.15002,5.5c.08002.14996.13.32996.13.5v4c0,.54999-.45001,1-1,1s-1-.45001-1-1v-3.73004l-3.62-6.33997c-1.34003-.29999-2.38-1.52002-2.38-2.92999,0-1.65002,1.34998-3,3-3h13c.54999,0,1,.45001,1,1s-.45001,1-1,1h-13c-.53998,0-1,.45996-1,1,0,.51996.47998,1,1,1h32c.54999,0,1-.45001,1-1,0-.54004-.46002-1-1-1h-15c-.54999,0-1-.45001-1-1s.45001-1,1-1h15c1.65002,0,3,1.34998,3,3Z"/>
        <path d="M15.00033,18.1654c0-.42999-.08588-.83649-.21204-1.22498l4.49268-2.85901c.71497.66711,1.66675,1.08398,2.71936,1.08398,2.20557,0,4-1.79443,4-4s-1.79443-4-4-4-4,1.79443-4,4c0,.42999.08588.83649.21204,1.22498l-4.49268,2.85901c-.71497-.66711-1.66675-1.08398-2.71936-1.08398-2.20557,0-4,1.79443-4,4,0,1.85828,1.27972,3.41071,3,3.85797v6.28406c-1.72028.44727-3,1.99969-3,3.85797,0,2.20557,1.79443,4,4,4s4-1.79443,4-4c0-1.85828-1.27972-3.41071-3-3.85797v-6.28406c1.72028-.44727,3-1.99969,3-3.85797ZM22.00033,9.1654c1.10303,0,2,.89697,2,2s-.89697,2-2,2-2-.89697-2-2,.89697-2,2-2ZM9.00033,18.1654c0-1.10303.89697-2,2-2s2,.89697,2,2-.89697,2-2,2-2-.89697-2-2ZM13.00033,32.1654c0,1.10303-.89697,2-2,2s-2-.89697-2-2,.89697-2,2-2,2,.89697,2,2Z"/>
        <path d="M55.00033,17.70538l-14.71997-8.5.5-.87c.26996-.47998.10999-1.09003-.37006-1.37-.47998-.27002-1.08997-.10999-1.37.37l-5,8.65997c-.26996.48004-.10999,1.09003.37008,1.37011.48296.27144,1.08934.10254,1.36997-.37011l.5-.87s14.7136,8.49632,14.71997,8.5c1.86026,1.0742,4.36.44261,5.46002-1.45996,1.10999-1.91003.44995-4.35999-1.46002-5.46002ZM54.73031,22.1654c-.54999.95001-1.77997,1.27997-2.72998.72998l-14.71997-8.5,2-3.46002,14.71997,8.5c.95001.55005,1.28003,1.77002.72998,2.73004Z"/>
        <path d="M43.00033,51.1654c-.55225,0-1,.44775-1,1s.44775,1,1,1h4c.55225,0,1-.44775,1-1v-16c0-.55225-.44775-1-1-1h-4c-.55225,0-1,.44775-1,1s.44775,1,1,1h3v2h-1c-.55225,0-1,.44775-1,1s.44775,1,1,1h1v2h-3c-.55225,0-1,.44775-1,1s.44775,1,1,1h3v2h-1c-.55225,0-1,.44775-1,1s.44775,1,1,1h1v2h-3Z"/>
      </g>
    </g>
  </g>
</svg>