<?xml version="1.0" encoding="UTF-8"?>
<svg id="Outline" xmlns="http://www.w3.org/2000/svg" version="1.1" viewBox="0 0 64 64">
  <path d="M44,7c-7.16797,0-13,5.83154-13,13,0,.34027.02527.67432.05109,1.00806l-2.72101-.9519c-.21289-.0752-.44727-.0752-.66016,0l-20,7c-.40137.14014-.66992.51904-.66992.94385v21c0,.4248.26855.80371.66992.94434l20,7c.22913.07983.43207.05701.66016,0l6.23047-2.17969c.52148-.18262.7959-.75293.61426-1.27441-.18262-.52051-.75195-.79395-1.27441-.61426l-4.90039,1.71454v-18.88086l10.29803-3.60327c1.46045.56934,3.04254.89362,4.70197.89362,1.034,0,2.0351-.13422,3-.3634v3.64301l-11.31641,3.77216c-.52344.17383-.80664.74017-.63184,1.26459.13464.40411.52307.68365.94824.68365.10449,0,.21094-.0166.31641-.05176l10.68359-3.56122v1.89258l-11.31641,3.77216c-.4082.13574-.68359.51758-.68359.94824v3.99988c0,.66632.68689,1.16217,1.31641.94836l10.68359-3.56122v1.90302l-5.56055,1.94531c-.52142.18262-.79584.75281-.61432,1.27429.17419.50024.77301.789,1.27448.61438l6.23047-2.17969c.40137-.14062.66992-.51953.66992-.94434v-17.00293c4.69293-1.96326,8-6.59998,8-11.99707,0-7.16846-5.83203-13-13-13ZM47,44.2796l-10,3.3327v-1.8916l10-3.33362v1.89252ZM9,42.38708l10,3.33362v1.8916l-10-3.3327v-1.89252ZM27,54.59039l-18-6.30035v-1.90302s10.68359,3.56122,10.68384,3.56128c.63629.21594,1.31616-.27704,1.31616-.9483v-4c0-.43066-.27539-.8125-.68359-.94824l-11.31641-3.77216v-1.89258l10.68359,3.56122c.10547.03516.21191.05176.31641.05176.41895,0,.80859-.26465.94824-.68359.1748-.52441-.1084-1.09082-.63184-1.26465l-11.31641-3.77216v-6.87024l18,6.30017v18.88086ZM28,33.94043l-16.97302-5.94037,16.97302-5.94049,3.43024,1.19983c.8172,3.14746,2.77527,5.83655,5.41815,7.58533l-8.84839,3.0957ZM44,31c-6.06543,0-11-4.93457-11-11s4.93457-11,11-11,11,4.93457,11,11-4.93457,11-11,11Z" fill="#000" stroke-width="0"/>
  <path d="M49,12h-10c-.55273,0-1,.44775-1,1v5c0,2.96722,2.16687,5.43134,5,5.90967v3.09033h-2c-.55273,0-1,.44775-1,1s.44727,1,1,1h6c.55273,0,1-.44775,1-1s-.44727-1-1-1h-2v-3.09033c2.83313-.47833,5-2.94244,5-5.90967v-5c0-.55225-.44727-1-1-1ZM48,18c0,2.20557-1.79395,4-4,4s-4-1.79443-4-4v-4h3.38184l-.27637.55273c-.19238.38525-.11719.8501.1875,1.1543l.49023.49023-.67773,1.35547c-.24707.49414-.04688,1.09473.44727,1.3418.14355.07178.2959.10547.44629.10547.36719,0,.71973-.20215.89551-.55273l1-2c.19238-.38525.11719-.8501-.1875-1.1543l-.49023-.49023.40137-.80273h2.38184v4Z" fill="#000" stroke-width="0"/>
  <circle cx="38" cy="52.5" r="1" fill="#000" stroke-width="0"/>
</svg>