<?xml version="1.0" encoding="UTF-8"?>
<svg xmlns="http://www.w3.org/2000/svg" version="1.1" viewBox="0 0 64 64">
  <!-- Generator: Adobe Illustrator 28.7.1, SVG Export Plug-In . SVG Version: 1.2.0 Build 142)  -->
  <g>
    <g id="Outline">
      <g>
        <path d="M13,21c3.30859,0,6-2.69141,6-6,0-3.13477-4.80566-7.29883-5.35352-7.7627-.37305-.31641-.91992-.31641-1.29297,0-.54785.46387-5.35352,4.62793-5.35352,7.7627,0,3.30859,2.69141,6,6,6ZM14,10.31702c.70911.72943,1.40338,1.53381,1.95221,2.31671l-1.95221,1.95221v-4.26892ZM14,17.41406l2.91687-2.91687c.04559.17578.08313.34808.08313.50281,0,1.8587-1.27948,3.41095-3,3.85803v-1.44397ZM12,10.3183v4.26764l-1.95129-1.95129c.54883-.78247,1.24268-1.58673,1.95129-2.31635ZM9.08319,14.49725l2.91681,2.91681v1.44397c-1.72052-.44708-3-1.99933-3-3.85803,0-.1546.03748-.32697.08319-.50275Z"/>
        <path d="M28,47c1.6543,0,3-1.3457,3-3s-1.3457-3-3-3-3,1.3457-3,3,1.3457,3,3,3ZM28,43c.55176,0,1,.44824,1,1s-.44824,1-1,1-1-.44824-1-1,.44824-1,1-1Z"/>
        <path d="M46,47c1.6543,0,3-1.3457,3-3s-1.3457-3-3-3-3,1.3457-3,3,1.3457,3,3,3ZM46,43c.55176,0,1,.44824,1,1s-.44824,1-1,1-1-.44824-1-1,.44824-1,1-1Z"/>
        <path d="M34,45h6c.55273,0,1-.44727,1-1s-.44727-1-1-1h-6c-.55273,0-1,.44727-1,1s.44727,1,1,1Z"/>
        <path d="M55,23h-2v-1c0-1.65002-1.34998-3-3-3h-26c-1.65002,0-3,1.34998-3,3v1h-2c-1.09998,0-2,.89996-2,2v6c0,1.09998.90002,2,2,2h2v15c0,1.64996,1.34998,3,3,3v2c0,2.20996,1.78998,4,4,4s4-1.79004,4-4v-2h10v2c0,2.20996,1.78998,4,4,4s4-1.79004,4-4v-2c1.65002,0,3-1.35004,3-3v-15h2c1.09998,0,2-.90002,2-2v-6c0-1.10004-.90002-2-2-2ZM21,31h-2v-6h2v6ZM23,28h13v9h-13v-9ZM30,53c0,1.09998-.90002,2-2,2s-2-.90002-2-2v-2h4v2ZM48,53c0,1.09998-.90002,2-2,2s-2-.90002-2-2v-2h4v2ZM51,48c0,.54999-.45001,1-1,1h-26c-.54999,0-1-.45001-1-1v-9h28v9ZM51,37h-13v-9h13v9ZM51,26h-28v-4c0-.54999.45001-1,1-1h26c.54999,0,1,.45001,1,1v4ZM55,31h-2v-6h2v6Z"/>
        <path d="M16.59375,46.28906c0-3.91504-3.81445-6.94922-3.97656-7.07617-.36328-.2832-.87109-.2832-1.23438,0-.16211.12695-3.97656,3.16113-3.97656,7.07617,0,3.23273,2.59595,5.86053,3.59375,6.75146v1.95947h-1c-.55273,0-1,.44727-1,1s.44727,1,1,1h4c.55273,0,1-.44727,1-1s-.44727-1-1-1h-1v-1.95947c.9978-.89093,3.59375-3.51874,3.59375-6.75146ZM12,45.28906c-.55273,0-1,.44727-1,1v3.8338c-.82294-1.04944-1.59375-2.42181-1.59375-3.8338,0-2.125,1.66602-4.04297,2.59863-4.95117,1.05273,1.02637,2.58887,2.95605,2.58887,4.95117,0,1.46765-.79486,2.82806-1.59375,3.83368v-3.83368c0-.55273-.44727-1-1-1Z"/>
      </g>
    </g>
  </g>
</svg>