<?xml version="1.0" encoding="UTF-8"?>
<svg xmlns="http://www.w3.org/2000/svg" version="1.1" viewBox="0 0 64 64">
  <!-- Generator: Adobe Illustrator 28.7.1, SVG Export Plug-In . SVG Version: 1.2.0 Build 142)  -->
  <g>
    <g id="Outline">
      <g>
        <path d="M33.15997,31c1.66003,0,4.64001-.29999,6.59003-2.25,2.77002-2.77002,2.21002-7.60999,2.19-7.82001-.06-.45001-.41998-.81-.87-.87-.21002-.02002-5.04999-.58002-7.82001,2.19-.09003.08997-.16998.19-.25.28998v-1.5c1-.89001,3.59003-3.52002,3.59003-6.75,0-3.91998-3.81-6.95001-3.97003-7.08002-.37-.27997-.87-.27997-1.23999,0-.16003.13-3.97003,3.16003-3.97003,7.08002,0,3.22998,2.59003,5.85999,3.59003,6.75v1.5c-.08002-.09998-.15997-.20001-.25-.28998-2.77002-2.77002-7.60999-2.21002-7.82001-2.19-.45001.06-.81.41998-.87.87-.02002.21002-.58002,5.04999,2.19,7.82001,1.95001,1.95001,4.92999,2.25,6.59003,2.25h.15997v3.09998c-2.28003.47003-4,2.48999-4,4.90002,0,.54999.45001,1,1,1h8c.54999,0,1-.45001,1-1,0-2.41003-1.71997-4.42999-4-4.90002v-3.09998h.15997ZM34.66998,23.66998c1.5-1.51001,4.03003-1.66998,5.33002-1.66998.02002,1.46997-.26001,3.91998-1.66998,5.32996-1.17999,1.19-3.01001,1.53003-4.37,1.63.94995-1.04999,2.06-1.96997,3.31-2.67999.47998-.27997.63995-.88995.37-1.37-.28003-.47998-.89001-.64001-1.37-.37-1.13.65002-2.17004,1.46002-3.10004,2.35999.21002-1.15997.65002-2.38995,1.5-3.22998ZM26.72998,26.27997c1.26001.72003,2.38,1.64001,3.33002,2.70001-1.42999-.08997-3.25-.5-4.39001-1.65002-1.51001-1.5-1.67999-4.02997-1.66998-5.32996,1.46997-.04004,3.91998.26001,5.33002,1.66998.88.87,1.29999,2.09998,1.5,3.22998-.92999-.89996-1.97003-1.70996-3.10004-2.35999-.47998-.27002-1.08997-.10999-1.37.37-.26996.48004-.10999,1.09003.37,1.37ZM34.83002,38h-5.66003c.41003-1.16003,1.53003-2,2.83002-2s2.41998.83997,2.83002,2ZM32,13c-.54999,0-1,.45001-1,1v4.12c-.82001-1.04999-1.59003-2.41998-1.59003-3.83002,0-2.13,1.66003-4.03998,2.59003-4.95001,1.06,1.02002,2.59003,2.95001,2.59003,4.95001,0,1.47003-.79004,2.83002-1.59003,3.83002v-4.12c0-.54999-.45001-1-1-1Z"/>
        <path d="M19.38,29.65997c.98999-.90997,1.62-2.20996,1.62-3.65997,0-2.76001-2.23999-5-5-5s-5,2.23999-5,5c0,1.45001.63,2.75,1.62,3.65997-3.28998,1.34003-5.62,4.57001-5.62,8.34003v6c0,.54999.45001,1,1,1h3v11c0,.54999.45001,1,1,1h8c.54999,0,1-.45001,1-1v-11h3c.54999,0,1-.45001,1-1v-6c0-3.77002-2.33002-7-5.62-8.34003ZM16,23c1.65002,0,3,1.34998,3,3s-1.34998,3-3,3-3-1.35004-3-3,1.34998-3,3-3ZM23,43h-2v-6c0-.54999-.45001-1-1-1s-1,.45001-1,1v18h-2v-6c0-.54999-.45001-1-1-1s-1,.45001-1,1v6h-2v-18c0-.54999-.45001-1-1-1s-1,.45001-1,1v6h-2v-5c0-3.85999,3.14001-7,7-7s7,3.14001,7,7v5Z"/>
        <path d="M51.38,29.65997c.98999-.90997,1.62-2.20996,1.62-3.65997,0-2.76001-2.23999-5-5-5s-5,2.23999-5,5c0,1.45001.63,2.75,1.62,3.65997-3.28998,1.34003-5.62,4.57001-5.62,8.34003v6c0,.54999.45001,1,1,1h3v11c0,.54999.45001,1,1,1h8c.54999,0,1-.45001,1-1v-11h3c.54999,0,1-.45001,1-1v-6c0-3.77002-2.33002-7-5.62-8.34003ZM48,23c1.65002,0,3,1.34998,3,3s-1.34998,3-3,3-3-1.35004-3-3,1.34998-3,3-3ZM55,43h-2v-6c0-.54999-.45001-1-1-1s-1,.45001-1,1v18h-2v-6c0-.54999-.45001-1-1-1s-1,.45001-1,1v6h-2v-18c0-.54999-.45001-1-1-1s-1,.45001-1,1v6h-2v-5c0-3.85999,3.14001-7,7-7s7,3.14001,7,7v5Z"/>
      </g>
    </g>
  </g>
</svg>