<?xml version="1.0" encoding="UTF-8"?>
<svg id="Outline" xmlns="http://www.w3.org/2000/svg" version="1.1" viewBox="0 0 64 64">
  <path d="M51.60999,41.45001c.23999-.43005.39001-.92004.39001-1.45001,0-1.65002-1.34998-3-3-3v-13c0-.54999-.45001-1-1-1H16c-.54999,0-1,.45001-1,1v13c-1.65002,0-3,1.34998-3,3,0,.52997.15002,1.01996.39001,1.45001-3.13,1.07996-5.39001,4.04999-5.39001,7.54999,0,4.40997,3.59003,8,8,8h6c.54999,0,1-.45001,1-1s-.45001-1-1-1h-6c-3.31,0-6-2.69-6-6s2.69-6,6-6h34c3.31,0,6,2.69,6,6s-2.69,6-6,6h-20c-.54999,0-1,.45001-1,1s.45001,1,1,1h20c4.40997,0,8-3.59003,8-8,0-3.5-2.26001-6.47003-5.39001-7.54999ZM31,25h16v12h-16v-12ZM21,25h4v3h-4v-3ZM17,25h2v4c0,.54999.45001,1,1,1h6c.54999,0,1-.45001,1-1v-4h2v12h-12v-12ZM49,41H15c-.54999,0-1-.45001-1-1s.45001-1,1-1h34c.54999,0,1,.45001,1,1s-.45001,1-1,1Z" fill="#000" stroke-width="0"/>
  <path d="M49,53c2.20605,0,4-1.79443,4-4s-1.79395-4-4-4H15c-2.20605,0-4,1.79443-4,4s1.79395,4,4,4h34ZM30,49c0-1.10303.89746-2,2-2s2,.89697,2,2-.89746,2-2,2-2-.89697-2-2ZM28.55634,51h-10.11267c.34448-.59076.55634-1.26825.55634-2s-.21185-1.40924-.55634-2h10.11267c-.34448.59076-.55634,1.26825-.55634,2s.21185,1.40924.55634,2ZM35.44366,47h10.11267c-.34448.59076-.55634,1.26825-.55634,2s.21185,1.40924.55634,2h-10.11267c.34448-.59076.55634-1.26825.55634-2s-.21185-1.40924-.55634-2ZM51,49c0,1.10303-.89746,2-2,2s-2-.89697-2-2,.89746-2,2-2,2,.89697,2,2ZM13,49c0-1.10303.89746-2,2-2s2,.89697,2,2-.89746,2-2,2-2-.89697-2-2Z" fill="#000" stroke-width="0"/>
  <path d="M39,35h5c.55273,0,1-.44775,1-1s-.44727-1-1-1h-5c-.55273,0-1,.44775-1,1s.44727,1,1,1Z" fill="#000" stroke-width="0"/>
  <path d="M56,7H8c-.55273,0-1,.44775-1,1v4c0,.55225.44727,1,1,1h23v2.14539l-16.45508,2.5968c-.22559.03564-.43164.14746-.58496.31689l-2.70117,2.98486c-.16699.18359-.25879.42285-.25879.6709v6.28516c0,.55225.44727,1,1,1s1-.44775,1-1v-5.8999l2.20605-2.4375,16.79395-2.65039,16.79395,2.65039,2.20605,2.4375v5.8999c0,.55225.44727,1,1,1s1-.44775,1-1v-6.28516c0-.24805-.0918-.4873-.25879-.6709l-2.70117-2.98486c-.15332-.16943-.35938-.28125-.58496-.31689l-16.45508-2.5968v-2.14539h23c.55273,0,1-.44775,1-1v-4c0-.55225-.44727-1-1-1ZM55,11H9v-2h46v2Z" fill="#000" stroke-width="0"/>
  <circle cx="25" cy="56" r="1" fill="#000" stroke-width="0"/>
</svg>