<?xml version="1.0" encoding="UTF-8"?>
<svg id="Outline" xmlns="http://www.w3.org/2000/svg" version="1.1" viewBox="0 0 64 64">
  <path d="M20.60034,12.1012c-.375-.375-1.03906-.375-1.41406,0l-3.53516,3.53564c-.39062.39063-.39062,1.02393,0,1.41406.39062.39062,1.02344.39062,1.41406,0l2.82812-2.82861,3.9013,3.90081c.36149.36144,1.02223.39196,1.41413.00007.39062-.39062.39062-1.02344,0-1.41406l-4.6084-4.60791Z" style="fill: #000; stroke-width: 0px;"/>
  <path d="M55.24878,46.74915c-1.1333-1.1333-2.64014-1.75732-4.24268-1.75732-.11005,0-.21832.01007-.32733.01593l-11.69366-11.69366,2.12158-2.12158c1.16992-1.16943,1.16992-3.07275,0-4.24219L22.01489,7.85852c-1.13379-1.13379-3.10986-1.13379-4.24268,0l-9.89941,9.89893c-.56689.56689-.87891,1.32031-.87891,2.12158s.31201,1.55469.87891,2.12109l19.0918,19.09229c.58496.58496,1.35303.87744,2.12109.87744s1.53613-.29248,2.12109-.87744l2.12158-2.12158,11.69366,11.69366c-.00586.10901-.01593.21729-.01593.32733,0,1.60254.62402,3.10938,1.75732,4.24268s2.64014,1.75732,4.24268,1.75732,3.10938-.62402,4.24268-1.75732,1.75732-2.64014,1.75732-4.24268-.62402-3.10938-1.75732-4.24268ZM29.79272,39.67834c-.38965.38965-1.02441.38965-1.41406,0L9.28687,20.58557c-.18896-.18848-.29297-.43945-.29297-.70654s.104-.51807.29297-.70703l9.8999-9.89941c.18848-.18896.43945-.29297.70654-.29297s.51807.104.70703.29297l19.09229,19.0918c.38965.38965.38965,1.02393,0,1.41406l-2.82861,2.82861-4.24268,4.24268-2.82861,2.82861ZM34.74243,37.55676l2.82861-2.82861,10.85236,10.85236c-.60718.29034-1.16998.67865-1.65997,1.16864s-.8783,1.0528-1.16864,1.65997l-10.85236-10.85236ZM53.83472,53.82043c-1.55957,1.55957-4.09766,1.55957-5.65723,0s-1.55957-4.09766,0-5.65723c.77979-.77979,1.8042-1.16943,2.82861-1.16943s2.04883.38965,2.82861,1.16943c1.55957,1.55957,1.55957,4.09766,0,5.65723Z" style="fill: #000; stroke-width: 0px;"/>
  <path d="M15.9939,38.97961c-4.9624,0-9,4.0376-9,9s4.0376,9,9,9,9-4.0376,9-9-4.0376-9-9-9ZM8.9939,47.97961c0-1.84436.72229-3.51935,1.89215-4.771.71655,1.48456,1.10785,3.1076,1.10785,4.771s-.3913,3.28644-1.10785,4.771c-1.16986-1.25165-1.89215-2.92664-1.89215-4.771ZM12.4964,54.03406c.98114-1.86182,1.4975-3.93518,1.4975-6.05444s-.51636-4.19263-1.4975-6.05444c1.03046-.59766,2.2229-.94556,3.4975-.94556s2.46704.3479,3.4975.94556c-.98114,1.86182-1.4975,3.93518-1.4975,6.05444s.51636,4.19263,1.4975,6.05444c-1.03046.59766-2.2229.94556-3.4975.94556s-2.46704-.3479-3.4975-.94556ZM21.10175,52.75061c-.71655-1.48456-1.10785-3.1076-1.10785-4.771s.3913-3.28644,1.10785-4.771c1.16986,1.25165,1.89215,2.92664,1.89215,4.771s-.72229,3.51935-1.89215,4.771Z" style="fill: #000; stroke-width: 0px;"/>
</svg>