<?xml version="1.0" encoding="UTF-8"?>
<svg xmlns="http://www.w3.org/2000/svg" version="1.1" viewBox="0 0 64 64">
  <!-- Generator: Adobe Illustrator 28.7.1, SVG Export Plug-In . SVG Version: 1.2.0 Build 142)  -->
  <g>
    <g id="Outline">
      <g>
        <path d="M16,43h-6c-.55225,0-1,.44775-1,1v12c0,.55225.44775,1,1,1h6c.55225,0,1-.44775,1-1v-12c0-.55225-.44775-1-1-1ZM15,55h-4v-10h4v10Z"/>
        <path d="M26,37h-6c-.55225,0-1,.44775-1,1v18c0,.55225.44775,1,1,1h6c.55225,0,1-.44775,1-1v-18c0-.55225-.44775-1-1-1ZM25,55h-4v-16h4v16Z"/>
        <path d="M36,31h-6c-.55225,0-1,.44775-1,1v24c0,.55225.44775,1,1,1h6c.55225,0,1-.44775,1-1v-24c0-.55225-.44775-1-1-1ZM35,55h-4v-22h4v22Z"/>
        <path d="M46,27h-6c-.55225,0-1,.44775-1,1v28c0,.55225.44775,1,1,1h6c.55225,0,1-.44775,1-1v-28c0-.55225-.44775-1-1-1ZM45,55h-4v-26h4v26Z"/>
        <path d="M56,21h-6c-.55225,0-1,.44775-1,1v34c0,.55225.44775,1,1,1h6c.55225,0,1-.44775,1-1V22c0-.55225-.44775-1-1-1ZM55,55h-4V23h4v32Z"/>
        <path d="M10.91162,24.09814c.68652-.39746,1.50732-.39844,2.1958,0,.6875.39697,1.09814,1.10791,1.09814,1.90186,0,.55225.44775,1,1,1h4c.55225,0,1-.44775,1-1,0-.79395.41064-1.50488,1.09814-1.90186.6875-.39746,1.50879-.39746,2.19629,0,.47852.27539,1.08936.11133,1.36621-.36621l2-3.46387c.27588-.47803.1123-1.08984-.36621-1.36621-.6875-.39697-1.09814-1.10791-1.09814-1.90186s.41064-1.50488,1.09814-1.90186c.47852-.27637.64209-.88818.36621-1.36621l-2-3.46387c-.27686-.47852-.8877-.64355-1.36621-.36621-.6875.39697-1.50879.39697-2.19629,0s-1.09814-1.10791-1.09814-1.90186c0-.55225-.44775-1-1-1h-4c-.55225,0-1,.44775-1,1,0,.79395-.41064,1.50488-1.09814,1.90186-.68848.39697-1.50928.39697-2.1958,0-.47949-.27734-1.09033-.1123-1.36621.36621l-2,3.46387c-.27588.47803-.1123,1.08984.36621,1.36621.6875.39697,1.09814,1.10791,1.09814,1.90186s-.41064,1.50488-1.09814,1.90186c-.47852.27637-.64209.88818-.36621,1.36621l2,3.46387c.27588.47754.88672.6416,1.36621.36621ZM9.71875,13.96777l1.11768-1.93555c1.08545.32227,2.25537.18945,3.27148-.39844,1.01611-.58691,1.71582-1.53271,1.97998-2.63379h2.23535c.26416,1.10059.96387,2.04688,1.98047,2.63379,1.01709.5874,2.18555.7207,3.27148.39844l1.11768,1.93555c-.82129.7793-1.29102,1.8584-1.29102,3.03223s.46973,2.25293,1.29102,3.03223l-1.11768,1.93555c-1.08643-.3208-2.25537-.18848-3.27148.39844-1.0166.58691-1.71631,1.5332-1.98047,2.63379h-2.23535c-.26416-1.10107-.96387-2.04688-1.97998-2.63379-1.01709-.58691-2.18701-.72021-3.27148-.39844l-1.11768-1.93555c.82129-.7793,1.29102-1.8584,1.29102-3.03223s-.46973-2.25293-1.29102-3.03223Z"/>
        <path d="M17.20557,21c2.20557,0,4-1.79443,4-4s-1.79443-4-4-4-4,1.79443-4,4,1.79443,4,4,4ZM17.20557,15c1.10303,0,2,.89697,2,2s-.89697,2-2,2-2-.89697-2-2,.89697-2,2-2Z"/>
        <path d="M30,9h12c.55225,0,1-.44775,1-1s-.44775-1-1-1h-12c-.55225,0-1,.44775-1,1s.44775,1,1,1Z"/>
        <path d="M30,13h12c.55225,0,1-.44775,1-1s-.44775-1-1-1h-12c-.55225,0-1,.44775-1,1s.44775,1,1,1Z"/>
        <circle cx="46" cy="8" r="1"/>
        <circle cx="46" cy="12" r="1"/>
        <path d="M40,19c0,.07684.01703.14899.02271.22443l-4.8551,2.7124c-.54681-.57428-1.31384-.93683-2.1676-.93683-1.6543,0-3,1.3457-3,3,0,.26086.04395.50952.10681.75098l-5.34918,4.82922c-.49518-.36078-1.09937-.5802-1.75763-.5802-1.6543,0-3,1.3457-3,3,0,.20563.02106.40637.06067.60046l-5.16547,3.09332c-.51831-.42676-1.17291-.69379-1.8952-.69379-1.6543,0-3,1.3457-3,3s1.3457,3,3,3,3-1.3457,3-3c0-.20563-.02106-.40637-.06067-.60046l5.16547-3.09332c.51831.42676,1.17291.69379,1.8952.69379,1.6543,0,3-1.3457,3-3,0-.26086-.04395-.50958-.10681-.75104l5.34918-4.82916c.49518.36078,1.09937.5802,1.75763.5802,1.6543,0,3-1.3457,3-3,0-.07684-.01703-.14899-.02271-.22443l4.8551-2.7124c.54681.57428,1.31384.93683,2.1676.93683,1.6543,0,3-1.3457,3-3,0-.16736-.02289-.32874-.04938-.48871l5.07703-2.26874c.52875.46558,1.21411.75745,1.97235.75745,1.6543,0,3-1.3457,3-3s-1.3457-3-3-3-3,1.3457-3,3c0,.16736.02289.32874.04938.48871l-5.07703,2.26874c-.52875-.46558-1.21411-.75745-1.97235-.75745-1.6543,0-3,1.3457-3,3ZM13,39c-.55127,0-1-.44873-1-1s.44873-1,1-1,1,.44873,1,1-.44873,1-1,1ZM23,33c-.55127,0-1-.44873-1-1s.44873-1,1-1,1,.44873,1,1-.44873,1-1,1ZM33,25c-.55127,0-1-.44873-1-1s.44873-1,1-1,1,.44873,1,1-.44873,1-1,1ZM53,13c.55127,0,1,.44873,1,1s-.44873,1-1,1-1-.44873-1-1,.44873-1,1-1ZM44,19c0,.55127-.44873,1-1,1s-1-.44873-1-1,.44873-1,1-1,1,.44873,1,1Z"/>
      </g>
    </g>
  </g>
</svg>