<?xml version="1.0" encoding="UTF-8"?>
<svg xmlns="http://www.w3.org/2000/svg" version="1.1" viewBox="0 0 64 64">
  <!-- Generator: Adobe Illustrator 28.7.1, SVG Export Plug-In . SVG Version: 1.2.0 Build 142)  -->
  <g>
    <g id="Outline">
      <g>
        <path d="M56.84998,27.46997l-5-8c-.17999-.28998-.50995-.46997-.84998-.46997h-12v-1c0-1.65002-1.34998-3-3-3H10c-1.65002,0-3,1.34998-3,3v24c0,1.64996,1.34998,3,3,3h2.09998c.47003,2.27997,2.49005,4,4.90002,4s4.42999-1.72003,4.90002-4h19.19995c.47003,2.27997,2.49005,4,4.90002,4s4.42999-1.72003,4.90002-4h3.09998c1.65002,0,3-1.35004,3-3v-14c0-.19-.04999-.37-.15002-.53003ZM17,47c-1.65002,0-3-1.35004-3-3s1.34998-3,3-3,3,1.34998,3,3-1.34998,3-3,3ZM37,43h-15.09998c-.47003-2.28003-2.49005-4-4.90002-4s-4.42999,1.71997-4.90002,4h-2.09998c-.54999,0-1-.45001-1-1v-24c0-.54999.45001-1,1-1h26c.54999,0,1,.45001,1,1v25ZM46,47c-1.65002,0-3-1.35004-3-3s1.34998-3,3-3,3,1.34998,3,3-1.34998,3-3,3ZM55,36h-1c-.54999,0-1-.45001-1-1s.45001-1,1-1h1v2ZM55,32h-1c-1.65002,0-3,1.34998-3,3s1.34998,3,3,3h1v4c0,.54999-.45001,1-1,1h-3.09998c-.47003-2.28003-2.49005-4-4.90002-4s-4.42999,1.71997-4.90002,4h-2.09998v-22h11.45001l4.54999,7.28998v3.71002Z"/>
        <path d="M52.87012,29.49268c.17773-.31348.17285-.69824-.0127-1.00732l-3-5c-.18066-.30127-.50635-.48535-.85742-.48535h-7c-.55225,0-1,.44775-1,1v5c0,.55225.44775,1,1,1h10c.36035,0,.69287-.19385.87012-.50732ZM43,28v-3h5.43359l1.80029,3h-7.23389Z"/>
        <circle cx="17" cy="44" r="1"/>
        <circle cx="46" cy="44" r="1"/>
        <path d="M44,33h-2c-.55225,0-1,.44775-1,1s.44775,1,1,1h2c.55225,0,1-.44775,1-1s-.44775-1-1-1Z"/>
        <path d="M19,21c.55225,0,1-.44775,1-1s-.44775-1-1-1h-7c-.55225,0-1,.44775-1,1s.44775,1,1,1h7Z"/>
        <path d="M23,21h3c.55225,0,1-.44775,1-1s-.44775-1-1-1h-3c-.55225,0-1,.44775-1,1s.44775,1,1,1Z"/>
      </g>
    </g>
  </g>
</svg>