<?xml version="1.0" encoding="UTF-8"?>
<svg id="Outline" xmlns="http://www.w3.org/2000/svg" version="1.1" viewBox="0 0 64 64">
  <circle cx="17" cy="52" r="1" fill="#000" stroke-width="0"/>
  <circle cx="47" cy="52" r="1" fill="#000" stroke-width="0"/>
  <path d="M56,47v-7c0-.22003-.07001-.42999-.20001-.60004l-6-8c-.19-.25-.48999-.39996-.79999-.39996h-11c-.54999,0-1,.45001-1,1v15H8c-.54999,0-1,.45001-1,1v4c0,.54999.45001,1,1,1h4.09998c.47003,2.27997,2.49005,4,4.90002,4s4.42999-1.72003,4.90002-4h5.09998c.54999,0,1-.45001,1-1s-.45001-1-1-1h-5.09998c-.15002-.73999-.48004-1.42004-.93005-2h22.06006c-.45001.57996-.78003,1.26001-.93005,2h-7.09998c-.54999,0-1,.45001-1,1s.45001,1,1,1h7.09998c.47003,2.27997,2.49005,4,4.90002,4s4.42999-1.72003,4.90002-4h4.09998c.54999,0,1-.45001,1-1v-4c0-.54999-.45001-1-1-1ZM12.09998,51h-3.09998v-2h4.03003c-.45001.57996-.78003,1.26001-.93005,2ZM17,55c-1.65002,0-3-1.35004-3-3s1.34998-3,3-3,3,1.34998,3,3-1.34998,3-3,3ZM53,39h-4v-2h2.5l1.5,2ZM47,55c-1.65002,0-3-1.35004-3-3s1.34998-3,3-3,3,1.34998,3,3-1.34998,3-3,3ZM39,47v-14h9.5l1.5,2h-8c-.54999,0-1,.45001-1,1v4c0,.54999.45001,1,1,1h12v2h-2c-.54999,0-1,.45001-1,1s.45001,1,1,1h2v2h-15ZM47,37v2h-4v-2h4ZM55,51h-3.09998c-.15002-.73999-.48004-1.42004-.93005-2h4.03003v2Z" fill="#000" stroke-width="0"/>
  <path d="M7.58105,38.9082s13,6,13.00001,6.00001c.26336.12199.57433.12242.83788,0l13-6c.35449-.16406.58105-.51855.58105-.9082v-12c0-.39014-.22656-.74463-.58105-.9082l-13-6c-.26562-.12207-.57227-.12207-.83789,0l-13,6c-.35449.16357-.58105.51807-.58105.9082v12c0,.38965.22656.74414.58105.9082ZM9,35.56311l5.08105,2.34509c.48377.22328,1.0968.01006,1.32715-.48926.23096-.50098.01221-1.0957-.48926-1.32715l-5.91895-2.73181v-5.79687l11,5.0769v9.79694l-11-5.0766v-1.79724ZM22,42.43695v-9.79694l11-5.0769v5.79687l-5.91895,2.73181c-.50145.23144-.7202.82614-.48928,1.32711.22293.48362.84167.71284,1.32717.4893l5.08105-2.34509v1.79724l-11,5.0766ZM21,21.10156l10.61365,4.89825-10.61365,4.89862-10.61365-4.89862,10.61365-4.89825Z" fill="#000" stroke-width="0"/>
  <path d="M8,19h10c.55225,0,1-.44775,1-1v-4h26.09076c.65656,4.11115,5.00226,8.50751,5.20221,8.70703.1875.1875.44189.29297.70703.29297s.51953-.10547.70703-.29297c.21631-.21582,5.29297-5.34277,5.29297-9.70703,0-3.30859-2.69141-6-6-6-2.96722,0-5.43134,2.16687-5.90967,5h-26.09033v-4c0-.55225-.44775-1-1-1h-10c-.55225,0-1,.44775-1,1v10c0,.55225.44775,1,1,1ZM51,9c2.20557,0,4,1.79443,4,4,0,2.49609-2.45947,5.79834-4,7.53613-1.54053-1.73779-4-5.04004-4-7.53613,0-2.20557,1.79443-4,4-4ZM9,9h8v8h-8v-8Z" fill="#000" stroke-width="0"/>
  <circle cx="51" cy="13" r="1" fill="#000" stroke-width="0"/>
  <circle cx="31" cy="52" r="1" fill="#000" stroke-width="0"/>
</svg>