<?xml version="1.0" encoding="UTF-8"?>
<svg id="Outline" xmlns="http://www.w3.org/2000/svg" version="1.1" viewBox="0 0 64 64">
  <path d="M44,7c-7.16797,0-13,5.83154-13,13,0,.34027.02527.67432.05109,1.00806l-2.72101-.9519c-.21289-.0752-.44727-.0752-.66016,0l-20,7c-.40137.14014-.66992.51904-.66992.94385v21c0,.4248.26855.80371.66992.94385l20,7c.10645.0376.21875.05615.33008.05615s.22363-.01855.33008-.05615l20-7c.40137-.14014.66992-.51904.66992-.94385v-17.00293c4.69293-1.96326,8-6.59998,8-11.99707,0-7.16846-5.83203-13-13-13ZM28,22.05957l3.43024,1.19983c.8172,3.14746,2.77527,5.83655,5.41815,7.58533l-8.84839,3.0957-16.97302-5.94037,16.97302-5.94049ZM9,42.38751l10,3.33319v1.89209l-10-3.33362v-1.89166ZM47,44.27917l-10,3.33362v-1.89209l10-3.33319v1.89166ZM47,36.27911l-11.31641,3.77216c-.52341.17479-.80661.74115-.63187,1.26505.17236.51675.74979.80404,1.26468.63241l10.68359-3.56122v1.8916l-11.31641,3.77216c-.4082.13623-.68359.51807-.68359.94873v3.99996c0,.65129.6987,1.15273,1.31641.94877l10.68359-3.56122v1.90302l-18,6.29993v-5.59045c0-.55225-.44727-1-1-1s-1,.44775-1,1v5.59045l-18-6.29993v-1.90302s10.68359,3.56122,10.68363,3.56123c.63205.20867,1.31637-.27911,1.31637-.94874v-4c0-.43066-.27539-.8125-.68359-.94873l-11.31641-3.77216v-1.8916s10.68359,3.56122,10.68363,3.56123c.51774.17256,1.09189-.11418,1.26461-.63234.1748-.52393-.1084-1.09033-.63184-1.26514l-11.31641-3.77216v-6.86975l18,6.30017v5.29047c0,.55225.44727,1,1,1s1-.44775,1-1v-5.29034l10.29803-3.60327c1.46045.56934,3.04254.89362,4.70197.89362,1.034,0,2.0351-.13422,3-.3634v3.64252ZM45,30.94934v-.94934c0-.55225-.44727-1-1-1s-1,.44775-1,1v.94934c-5.26801-.4776-9.47174-4.68134-9.94934-9.94934h.94934c.55273,0,1-.44775,1-1s-.44727-1-1-1h-.94934c.4776-5.26801,4.68134-9.47174,9.94934-9.94934v.94934c0,.55225.44727,1,1,1s1-.44775,1-1v-.94934c5.26801.4776,9.47174,4.68134,9.94934,9.94934h-.94934c-.55273,0-1,.44775-1,1s.44727,1,1,1h.94934c-.4776,5.26801-4.68134,9.47174-9.94934,9.94934Z" fill="#000" stroke-width="0"/>
  <path d="M49.29297,13.29297l-4.00763,4.00763c-.39111-.18713-.82361-.3006-1.28534-.3006-1.6543,0-3,1.3457-3,3,0,.46173.11346.89423.3006,1.28534l-1.00763,1.00763c-.39057.39057-.39062,1.02325-.00017,1.41389.36904.36922,1.02002.39438,1.41423.00017l1.00763-1.00763c.39111.18713.82361.3006,1.28534.3006,1.6543,0,3-1.3457,3-3,0-.46173-.11346-.89423-.3006-1.28534l4.00763-4.00763c.39062-.39062.39062-1.02344,0-1.41406s-1.02344-.39062-1.41406,0ZM44,21c-.55176,0-1-.44873-1-1s.44824-1,1-1,1,.44873,1,1-.44824,1-1,1Z" fill="#000" stroke-width="0"/>
  <circle cx="28" cy="45" r="1" fill="#000" stroke-width="0"/>
</svg>