<?xml version="1.0" encoding="UTF-8"?>
<svg id="Outline" xmlns="http://www.w3.org/2000/svg" version="1.1" viewBox="0 0 64 64">
  <path d="M56.70878,19.78998l-2-2c-.19-.17999-.44-.28998-.71002-.28998h-15c0-.54999-.45001-1-1-1h-3v-1c0-.54999-.45001-1-1-1h-3v-1c0-.54999-.45001-1-1-1H11.99876c-2.76001,0-5,2.23999-5,5v6c0,2.76001,2.23999,5,5,5h1.87l-1.75,14h-1.12c-1.09998,0-2,.89996-2,2v2.17999c-1.15997.41998-2,1.52002-2,2.82001v4c0,.54999.45001,1,1,1h18c.54999,0,1-.45001,1-1v-4c0-1.29999-.84003-2.40002-2-2.82001v-2.17999c0-1.10004-.90002-2-2-2h-.87l1.75-14h6.12c.54999,0,1-.45001,1-1v-1h3c.54999,0,1-.45001,1-1v-1h3c.54999,0,1-.45001,1-1h15c.27002,0,.52002-.10999.71002-.29004l2-2c.38995-.38995.38995-1.02997,0-1.41998ZM23.99876,48.5c.54999,0,1,.45001,1,1v3H8.99876v-3c0-.54999.45001-1,1-1h14ZM22.99876,44.5v2h-12v-2h12ZM14.12876,42.5l1.75-14h5.98999l-1.75,14h-5.98999ZM24.99876,26.5h-13c-1.65002,0-3-1.35004-3-3v-6c0-1.65002,1.34998-3,3-3h13v12ZM28.99876,26.5h-2v-12h2v12ZM32.99876,24.5h-2v-8h2v8ZM36.99876,22.5h-2v-4h2v4ZM40.58878,21.5h-1.59003v-2h3.59003l-2,2ZM46.58878,21.5h-3.18005l2-2h3.18005l-2,2ZM53.58878,21.5h-4.18005l2-2h2.18005l1,1-1,1Z" fill="#000" stroke-width="0"/>
  <path d="M12.99876,16.5c-.55273,0-1,.44727-1,1v6c0,.55273.44727,1,1,1s1-.44727,1-1v-6c0-.55273-.44727-1-1-1Z" fill="#000" stroke-width="0"/>
  <path d="M16.99876,24.5c.55273,0,1-.44727,1-1v-6c0-.55273-.44727-1-1-1s-1,.44727-1,1v6c0,.55273.44727,1,1,1Z" fill="#000" stroke-width="0"/>
  <path d="M20.99876,24.5c.55273,0,1-.44727,1-1v-6c0-.55273-.44727-1-1-1s-1,.44727-1,1v6c0,.55273.44727,1,1,1Z" fill="#000" stroke-width="0"/>
  <path d="M55.29173,13.20703c.38973.38972,1.02749.38657,1.41406,0,.39062-.39062.39062-1.02344,0-1.41406l-2-2c-.39062-.39062-1.02344-.39062-1.41406,0s-.39062,1.02344,0,1.41406c0,0,1.99479,1.99479,2,2Z" fill="#000" stroke-width="0"/>
  <path d="M49.68235,14.44824l3,1c.48533.16178,1.08727-.09972,1.26465-.63184.1748-.52441-.1084-1.09082-.63184-1.26465l-3-1c-.52734-.17578-1.08984.1084-1.26465.63184-.1748.52441.1084,1.09082.63184,1.26465Z" fill="#000" stroke-width="0"/>
  <path d="M55.29173,27.79297l-2,2c-.39061.39061-.39062,1.0234-.00004,1.41403.36769.36773,1.01594.39819,1.4141.00004l2-2c.39062-.39062.39062-1.02344,0-1.41406s-1.02344-.39062-1.41406,0Z" fill="#000" stroke-width="0"/>
  <path d="M53.947,26.18359c-.1748-.52344-.73535-.80762-1.26465-.63184l-3,1c-.52339.17381-.80659.74013-.63189,1.2645.16434.49327.73439.80875,1.2647.63199l3-1c.52344-.17383.80664-.74023.63184-1.26465Z" fill="#000" stroke-width="0"/>
</svg>