<?xml version="1.0" encoding="UTF-8"?>
<svg id="Outline" xmlns="http://www.w3.org/2000/svg" version="1.1" viewBox="0 0 64 64">
  <path d="M54,55h-5V18c0-1.65002-1.34998-3-3-3h-8v-5c0-1.65002-1.34998-3-3-3h-8c-1.65002,0-3,1.34998-3,3v5h-8c-1.65002,0-3,1.34998-3,3v37h-5c-.54999,0-1,.45001-1,1s.45001,1,1,1h46c.54999,0,1-.45001,1-1s-.45001-1-1-1ZM26,10c0-.54999.45001-1,1-1h8c.54999,0,1,.45001,1,1v5h-10v-5ZM30,55h-11V21h11v34ZM43,55h-11V21h11v34ZM47,55h-2V20c0-.54999-.45001-1-1-1h-26c-.54999,0-1,.45001-1,1v35h-2V18c0-.54999.45001-1,1-1h30c.54999,0,1,.45001,1,1v37Z" fill="#000" stroke-width="0"/>
  <path d="M52.70703,26.70703l.29297-.29297v3.58594c0,.55225.44727,1,1,1s1-.44775,1-1v-3.58594l.29297.29297c.37009.37009,1.02185.39221,1.41406,0,.39062-.39062.39062-1.02344,0-1.41406l-2-2c-.39062-.39062-1.02344-.39062-1.41406,0l-2,2c-.39062.39062-.39062,1.02344,0,1.41406s1.02344.39062,1.41406,0Z" fill="#000" stroke-width="0"/>
  <path d="M55.29297,37.29297l-.29297.29297v-3.58594c0-.55273-.44727-1-1-1s-1,.44727-1,1v3.58594l-.29297-.29297c-.39062-.39062-1.02344-.39062-1.41406,0s-.39062,1.02344,0,1.41406l2,2c.19531.19531.45117.29297.70703.29297s.51172-.09766.70703-.29297l2-2c.39062-.39062.39062-1.02344,0-1.41406s-1.02344-.39062-1.41406,0Z" fill="#000" stroke-width="0"/>
  <circle cx="33" cy="12" r="1" fill="#000" stroke-width="0"/>
  <circle cx="29" cy="12" r="1" fill="#000" stroke-width="0"/>
</svg>