<?xml version="1.0" encoding="UTF-8"?>
<svg xmlns="http://www.w3.org/2000/svg" version="1.1" viewBox="0 0 64 64">
  <!-- Generator: Adobe Illustrator 28.7.1, SVG Export Plug-In . SVG Version: 1.2.0 Build 142)  -->
  <g>
    <g id="Outline">
      <g>
        <path d="M56,27h-2.58203c-.54492-2.35645-1.46094-4.57617-2.73145-6.61523l1.81934-1.82031c.39062-.39062.39062-1.02344,0-1.41406l-5.65625-5.65625c-.39062-.39062-1.02344-.39062-1.41406,0l-1.82031,1.81934c-2.03906-1.27051-4.25879-2.18652-6.61523-2.73145v-2.58203c0-.55273-.44727-1-1-1h-8c-.55273,0-1,.44727-1,1v2.58203c-2.35645.54492-4.57617,1.46094-6.61523,2.73145l-1.82031-1.81934c-.39062-.39062-1.02344-.39062-1.41406,0l-5.65625,5.65625c-.39062.39062-.39062,1.02344,0,1.41406l1.81934,1.82031c-1.27051,2.03906-2.18652,4.25879-2.73145,6.61523h-2.58203c-.55273,0-1,.44727-1,1v8c0,.55273.44727,1,1,1h2.58203c.54492,2.35645,1.46094,4.57617,2.73145,6.61523l-1.81934,1.82031c-.39062.39062-.39062,1.02344,0,1.41406l5.65625,5.65625c.39062.39062,1.02344.39062,1.41406,0l1.82031-1.81934c2.03906,1.27051,4.25879,2.18652,6.61523,2.73145v2.58203c0,.55273.44727,1,1,1h8c.55273,0,1-.44727,1-1v-2.58203c2.35645-.54492,4.57617-1.46094,6.61523-2.73145l1.82031,1.81934c.39062.39062,1.02344.39062,1.41406,0l5.65625-5.65625c.39062-.39062.39062-1.02344,0-1.41406l-1.81934-1.82031c1.27051-2.03906,2.18652-4.25879,2.73145-6.61523h2.58203c.55273,0,1-.44727,1-1v-8c0-.55273-.44727-1-1-1ZM55,35h-2.3916c-.47949,0-.8916.33984-.98145.81055-.51465,2.66699-1.54004,5.14941-3.04785,7.37891-.26855.39746-.21777.92871.12109,1.26758l1.68457,1.68555-4.24219,4.24219-1.68555-1.68457c-.33887-.33887-.86914-.3877-1.26758-.12109-2.22949,1.50781-4.71191,2.5332-7.37891,3.04785-.4707.08984-.81055.50195-.81055.98145v2.3916h-6v-2.3916c0-.47949-.33984-.8916-.81055-.98145-2.66699-.51465-5.14941-1.54004-7.37891-3.04785-.39648-.2666-.92773-.21777-1.26758.12109l-1.68555,1.68457-4.24219-4.24219,1.68457-1.68555c.33887-.33887.38965-.87012.12109-1.26758-1.50781-2.22949-2.5332-4.71191-3.04785-7.37891-.08984-.4707-.50195-.81055-.98145-.81055h-2.3916v-6h2.3916c.47949,0,.8916-.33984.98145-.81055.51465-2.66699,1.54004-5.14941,3.04785-7.37891.26855-.39746.21777-.92871-.12109-1.26758l-1.68457-1.68555,4.24219-4.24219,1.68555,1.68457c.33984.33984.87109.38965,1.26758.12109,2.22949-1.50781,4.71191-2.5332,7.37891-3.04785.4707-.08984.81055-.50195.81055-.98145v-2.3916h6v2.3916c0,.47949.33984.8916.81055.98145,2.66699.51465,5.14941,1.54004,7.37891,3.04785.39844.26855.92871.21875,1.26758-.12109l1.68555-1.68457,4.24219,4.24219-1.68457,1.68555c-.33887.33887-.38965.87012-.12109,1.26758,1.50781,2.22949,2.5332,4.71191,3.04785,7.37891.08984.4707.50195.81055.98145.81055h2.3916v6Z"/>
        <path d="M32,14c-9.9248,0-18,8.0752-18,18s8.0752,18,18,18,18-8.0752,18-18-8.0752-18-18-18ZM32,48c-8.82227,0-16-7.17773-16-16s7.17773-16,16-16,16,7.17773,16,16-7.17773,16-16,16Z"/>
        <path d="M36.86388,23.52144c-.1672-.3015-.48128-.52144-.86388-.52144h-6c-.3877,0-.74121.22461-.90527.5752l-2.99999,6.40038c-.24.51203.01272,1.14455.53417,1.35353l3.18945,1.27539-1.78809,7.15332c-.11328.45215.10156.92285.51665,1.13381.41146.20848.925.10348,1.22163-.251l7.99998-9.59959c.42924-.51506.22265-1.32132-.39744-1.56936l-2.88965-1.15625,2.3662-3.78514c.20367-.3258.18311-.70794.01623-1.00885ZM35.35059,30.81738l-4.32031,5.18457.93945-3.75977c.12207-.48438-.13379-.98535-.59863-1.1709l-3.01562-1.20605,2.28027-4.86523h3.55957l-2.04297,3.26953c-.15723.25098-.19531.55957-.10254.84082.0918.28125.30371.50781.5791.61816l2.72168,1.08887Z"/>
        <path d="M44.87988,34.02637c-.53809-.12402-1.07617.20703-1.20312.74414-1.28027,5.43457-6.08203,9.22949-11.67676,9.22949s-10.39648-3.79492-11.67676-9.22949c-.12695-.53711-.66895-.86816-1.20312-.74414-.53711.12695-.87012.66504-.74414,1.20312,1.49512,6.3418,7.09766,10.77051,13.62402,10.77051s12.12891-4.42871,13.62402-10.77051c.12598-.53809-.20703-1.07617-.74414-1.20312Z"/>
        <path d="M32,18c-6.52637,0-12.12891,4.42871-13.62402,10.77051-.12598.53809.20703,1.07617.74414,1.20312.53418.12207,1.07617-.20703,1.20312-.74414,1.28027-5.43457,6.08203-9.22949,11.67676-9.22949s10.39647,3.79491,11.67675,9.22947c.12481.52978.67595.86428,1.20313.74416.53711-.12695.87012-.66504.74414-1.20312-1.49512-6.3418-7.09766-10.77051-13.62402-10.77051Z"/>
      </g>
    </g>
  </g>
</svg>