<?xml version="1.0" encoding="UTF-8"?>
<svg xmlns="http://www.w3.org/2000/svg" version="1.1" viewBox="0 0 64 64">
  <!-- Generator: Adobe Illustrator 28.7.1, SVG Export Plug-In . SVG Version: 1.2.0 Build 142)  -->
  <g>
    <g id="Outline">
      <g>
        <path d="M53,39.01996v-7.01996c0-2.21002-1.78998-4-4-4h-1V11c0-2.21002-1.78998-4-4-4h-28c-2.21002,0-4,1.78998-4,4v12h-1c-2.21002,0-4,1.78998-4,4v26c0,2.20996,1.78998,4,4,4h36c5.51001,0,10-4.48999,10-10,0-3.26001-1.58002-6.15002-4-7.98004ZM14,11c0-1.10004.90002-2,2-2h28c1.09998,0,2,.89996,2,2v17h-21.32001l-1-2.48004c-.59998-1.52997-2.06-2.51996-3.71002-2.51996h-5.96997v-12ZM11,55c-1.09998,0-2-.90002-2-2v-26c0-1.10004.90002-2,2-2h8.96997c.82001,0,1.55005.48999,1.85004,1.26001l1.25,3.10999c.14996.38.52002.63.92999.63h25c1.09998,0,2,.89996,2,2v5.83997c-1.22998-.53998-2.58002-.83997-4-.83997-5.51001,0-10,4.48999-10,10,0,3.26996,1.59003,6.16998,4.03003,8H11ZM47,55c-4.40997,0-8-3.59003-8-8s3.59003-8,8-8,8,3.58997,8,8-3.59003,8-8,8Z"/>
        <path d="M52.70703,46.29297l-3-3c-.39062-.39062-1.02344-.39062-1.41406,0s-.39062,1.02344,0,1.41406l1.29297,1.29297h-7.58594c-.55273,0-1,.44727-1,1s.44727,1,1,1h7.58594l-1.29297,1.29297c-.39062.39062-.39062,1.02344.00003,1.4141.38963.3896,1.02611.38789,1.41403-.00003l3-3c.39062-.39062.39062-1.02344,0-1.41406Z"/>
        <path d="M17,14h26c.55273,0,1-.44727,1-1s-.44727-1-1-1h-26c-.55273,0-1,.44727-1,1s.44727,1,1,1Z"/>
        <path d="M44,18c0-.55273-.44727-1-1-1h-26c-.55273,0-1,.44727-1,1s.44727,1,1,1h26c.55273,0,1-.44727,1-1Z"/>
        <path d="M43,22h-15c-.55273,0-1,.44727-1,1s.44727,1,1,1h15c.55273,0,1-.44727,1-1s-.44727-1-1-1Z"/>
      </g>
    </g>
  </g>
</svg>