<?xml version="1.0" encoding="UTF-8"?>
<svg xmlns="http://www.w3.org/2000/svg" version="1.1" viewBox="0 0 64 64">
  <!-- Generator: Adobe Illustrator 28.7.1, SVG Export Plug-In . SVG Version: 1.2.0 Build 142)  -->
  <g>
    <g id="Outline">
      <g>
        <path d="M30,19h-14c-.55225,0-1,.44775-1,1v12c0,.55225.44775,1,1,1h14c.55225,0,1-.44775,1-1v-12c0-.55225-.44775-1-1-1ZM29,31h-12v-10h12v10Z"/>
        <path d="M55.54999,7.16998c-.45996-.31-1.08002-.17999-1.38.28003l-2,3c-.10999.15997-.16998.34998-.16998.54999v2.06c-4.48999.5-8,4.32001-8,8.94,0,2.76001,2.23999,5,5,5h1v9.5c0,1.38-1.12,2.5-2.5,2.5s-2.5-1.12-2.5-2.5v-1c0-1.92999-1.57001-3.5-3.5-3.5s-3.5,1.57001-3.5,3.5c0,1.38-1.12,2.5-2.5,2.5h-.5v-20c0-1.65002-1.34998-3-3-3H14c-1.65002,0-3,1.34998-3,3v33h-1c-1.09998,0-2,.89996-2,2v2c0,1.09998.90002,2,2,2h26c1.09998,0,2-.90002,2-2v-2c0-1.10004-.90002-2-2-2h-1v-11h.5c2.47998,0,4.5-2.02002,4.5-4.5,0-.83002.66998-1.5,1.5-1.5s1.5.66998,1.5,1.5v1c0,2.47998,2.02002,4.5,4.5,4.5s4.5-2.02002,4.5-4.5v-9.5h1c.54999,0,1-.45001,1-1v-14.70001l1.83002-2.75c.31-.45001.17999-1.08002-.28003-1.38ZM13,18c0-.54999.45001-1,1-1h18c.54999,0,1,.45001,1,1v29H13v-29ZM13,49h20v2H13v-2ZM36,53v2H10v-2h26ZM52,25h-3c-1.65002,0-3-1.35004-3-3,0-3.52002,2.60999-6.44,6-6.92999v9.92999Z"/>
      </g>
    </g>
  </g>
</svg>