<?xml version="1.0" encoding="UTF-8"?>
<svg id="Outline" xmlns="http://www.w3.org/2000/svg" version="1.1" viewBox="0 0 64 64">
  <path d="M54,19h-21v-2h1c2.21002,0,4-1.79004,4-4v-5c0-.54999-.45001-1-1-1s-1,.45001-1,1v5c0,1.09998-.90002,2-2,2h-1v-1c0-1.65002-1.34998-3-3-3h-1v-3c0-.54999-.45001-1-1-1h-10c-.54999,0-1,.45001-1,1v3h-1c-1.65002,0-3,1.34998-3,3v5h-3c-1.65002,0-3,1.34998-3,3v28c0,1.64996,1.34998,3,3,3h2v3c0,.54999.45001,1,1,1h4c.38,0,.71997-.21002.89001-.54999l1.72998-3.45001h24.76001l1.72998,3.45001c.17004.33997.51001.54999.89001.54999h4c.54999,0,1-.45001,1-1v-3h2c1.65002,0,3-1.35004,3-3v-28c0-1.65002-1.34998-3-3-3ZM19,9h8v2h-8v-2ZM15,14c0-.54999.45001-1,1-1h14c.54999,0,1,.45001,1,1v5H15v-5ZM16.38,55h-2.38v-2h3.38l-1,2ZM50,55h-2.38l-1-2h3.38v2ZM55,50c0,.54999-.45001,1-1,1H10c-.54999,0-1-.45001-1-1v-1h46v1ZM13,47v-22h14v22h-14ZM48,35h-16c-.54999,0-1,.45001-1,1v11h-2v-22h22v22h-2v-11c0-.54999-.45001-1-1-1ZM47,37v10h-14v-10h14ZM55,47h-2v-23c0-.54999-.45001-1-1-1H12c-.54999,0-1,.45001-1,1v23h-2v-25c0-.54999.45001-1,1-1h44c.54999,0,1,.45001,1,1v25Z" fill="#000" stroke-width="0"/>
  <path d="M16,37h2v5.99987c0,1.02233,1.43266,1.37375,1.89453.44739l5-10c.15527-.30957.13867-.67773-.04395-.97266s-.50391-.47461-.85059-.47461h-1.71875l.68848-2.75781c.0752-.29883.00781-.61523-.18164-.85742-.18945-.24316-.48047-.38477-.78809-.38477h-4c-.44629,0-.83887.2959-.96191.72559l-2,7c-.08594.30176-.02539.62598.16309.87695.18945.25.48535.39746.79883.39746ZM18.75391,30h1.96484l-.68848,2.75781c-.0752.29883-.00781.61523.18164.85742.18945.24316.48047.38477.78809.38477h1.38184l-2.38184,4.76367v-2.76367c0-.55273-.44727-1-1-1h-1.67383l1.42773-5Z" fill="#000" stroke-width="0"/>
  <path d="M49,28c0-.55273-.44727-1-1-1h-16c-.55273,0-1,.44727-1,1v4c0,.55273.44727,1,1,1h16c.55273,0,1-.44727,1-1v-4ZM47,31h-14v-2h14v2Z" fill="#000" stroke-width="0"/>
</svg>