<?xml version="1.0" encoding="utf-8"?>
<!-- Generator: Adobe Illustrator 28.2.0, SVG Export Plug-In . SVG Version: 6.00 Build 0)  -->
<svg version="1.1" id="Outline" xmlns="http://www.w3.org/2000/svg" xmlns:xlink="http://www.w3.org/1999/xlink" x="0px" y="0px"
	 viewBox="0 0 64 64" enable-background="new 0 0 64 64" xml:space="preserve">
<g>
	<circle cx="16" cy="52" r="1"/>
	<circle cx="48" cy="52" r="1"/>
	<path d="M56.71002,31.28998l-8-8C48.52002,23.10999,48.27002,23,48,23h-8c-0.54999,0-1,0.45001-1,1v18h-2V22
		c0-1.65002-1.34998-3-3-3h-5.08002C29.59998,17.82001,30,16.45996,30,15c0-4.41003-3.59003-8-8-8s-8,3.58997-8,8
		c0,1.45996,0.40002,2.82001,1.08002,4H10c-1.65002,0-3,1.34998-3,3v5c0,0.54999,0.45001,1,1,1s1-0.45001,1-1v-5
		c0-0.54999,0.45001-1,1-1h6.72998c1.41003,1.23999,3.25,2,5.27002,2s3.85999-0.76001,5.27002-2H34c0.54999,0,1,0.45001,1,1v21H23
		v-4h1c3.85999,0,7-3.14001,7-7v-2c0-0.54999-0.45001-1-1-1h-2c-2.54999,0-4.78003,1.37-6,3.40997C20.78003,30.37,18.54999,29,16,29
		h-2c-0.54999,0-1,0.45001-1,1v2c0,3.85999,3.14001,7,7,7h1v4H9v-8c0-0.54999-0.45001-1-1-1s-1,0.45001-1,1v13
		c0,1.64996,1.34998,3,3,3h1.09998C11.03998,51.32001,11,51.65997,11,52c0,2.76001,2.23999,5,5,5s5-2.23999,5-5
		c0-0.34003-0.03998-0.67999-0.09998-1H34c1.65002,0,3-1.35004,3-3h2v2c0,0.54999,0.45001,1,1,1h3.09998
		C43.03998,51.32001,43,51.65997,43,52c0,2.76001,2.23999,5,5,5s5-2.23999,5-5c0-0.34003-0.03998-0.67999-0.09998-1H56
		c0.54999,0,1-0.45001,1-1V32C57,31.72998,56.89001,31.47998,56.71002,31.28998z M26.19,19.28998
		c-0.01001,0-0.01001,0-0.01001,0.01001C25.09998,20.34998,23.63,21,22,21s-3.09998-0.65002-4.17999-1.70001
		c0-0.01001,0-0.01001-0.01001-0.01001C16.70001,18.20001,16,16.67999,16,15c0-3.31,2.69-6,6-6s6,2.69,6,6
		C28,16.67999,27.29999,18.20001,26.19,19.28998z M23,36c0-2.76001,2.23999-5,5-5h1v1c0,2.76001-2.23999,5-5,5h-1V36z M20,37
		c-2.76001,0-5-2.23999-5-5v-1h1c2.76001,0,5,2.23999,5,5v1H20z M16,55c-1.65002,0-3-1.35004-3-3c0-1.65002,1.34998-3,3-3
		s3,1.34998,3,3C19,53.64996,17.65002,55,16,55z M35,48c0,0.54999-0.45001,1-1,1H19.96997C19.06,47.78998,17.63,47,16,47
		s-3.06,0.78998-3.96997,2H10c-0.54999,0-1-0.45001-1-1v-3h26V48z M39,46h-2v-2h2V46z M41,25h6.59003l2,2H44
		c-0.54999,0-1,0.45001-1,1v7h-2V25z M48,55c-1.65002,0-3-1.35004-3-3c0-1.65002,1.34998-3,3-3s3,1.34998,3,3
		C51,53.64996,49.65002,55,48,55z M55,43h-2v-2h2V43z M55,39h-3c-0.54999,0-1,0.45001-1,1v4c0,0.54999,0.45001,1,1,1h3v4h-3.03003
		C51.06,47.78998,49.63,47,48,47s-3.06,0.78998-3.96997,2H41V37h14V39z M55,35H45v-6h6.59003L55,32.40997V35z"/>
	<path d="M46,39h-2c-0.55273,0-1,0.44727-1,1s0.44727,1,1,1h2c0.55273,0,1-0.44727,1-1S46.55273,39,46,39z"/>
	<path d="M24.88184,14.52832C24.70801,14.20312,24.36914,14,24,14h-2.13184l0.96387-1.44531
		c0.30664-0.45996,0.18262-1.08008-0.27734-1.38672c-0.46094-0.30664-1.08203-0.18262-1.38672,0.27734l-2,3
		c-0.2041,0.30664-0.22363,0.70117-0.0498,1.02637S19.63086,16,20,16h2.13184l-0.96387,1.44531
		c-0.30655,0.45983-0.18269,1.07972,0.27695,1.38646c0.42446,0.28326,1.07882,0.18612,1.38711-0.27708l2-3
		C25.03613,15.24805,25.05566,14.85352,24.88184,14.52832z"/>
	<circle cx="8" cy="31" r="1"/>
</g>
</svg>
