<?xml version="1.0" encoding="UTF-8"?>
<svg xmlns="http://www.w3.org/2000/svg" version="1.1" viewBox="0 0 64 64">
  <!-- Generator: Adobe Illustrator 28.7.1, SVG Export Plug-In . SVG Version: 1.2.0 Build 142)  -->
  <g>
    <g id="Outline">
      <g>
        <path d="M25,11c.55273,0,1-.44727,1-1v-2c0-.55273-.44727-1-1-1s-1,.44727-1,1v2c0,.55273.44727,1,1,1Z"/>
        <path d="M14.39357,15.39171c.87511-.00008,1.32274-1.0893.70702-1.70519l-1.41406-1.41406c-.39062-.39062-1.02344-.39062-1.41406,0s-.39062,1.02344,0,1.41406l1.41405,1.41405c.19403.19403.45014.29096.70706.29114Z"/>
        <path d="M10,24h-2c-.55273,0-1,.44727-1,1s.44727,1,1,1h2c.55273,0,1-.44727,1-1s-.44727-1-1-1Z"/>
        <path d="M36.31348,12.27246l-1.41406,1.41406c-.39056.39056-.39062,1.02324-.00018,1.41388.36317.36335,1.02433.39007,1.41424.00018l1.41406-1.41406c.39062-.39062.39062-1.02344,0-1.41406s-1.02344-.39062-1.41406,0Z"/>
        <path d="M42,26c.55273,0,1-.44727,1-1s-.44727-1-1-1h-2c-.55273,0-1,.44727-1,1s.44727,1,1,1h2Z"/>
        <path d="M56,41h-2c-1.12994,0-2.16174.39099-3,1.02557v-1.12616l1.12109-1.12109c1.94922-1.94922,1.94922-5.12207,0-7.07129l-1.41406-1.41406c-.39062-.39062-1.02344-.39062-1.41406,0l-1.41406,1.41406c-1.94922,1.94922-1.94922,5.12207,0,7.07129l1.12109,1.12109v1.12616c-.83826-.63458-1.87006-1.02557-3-1.02557h-2c-.55273,0-1,.44727-1,1v2c0,2.75684,2.24316,5,5,5h1v5c0,.55176-.44824,1-1,1h-7c-.55273,0-1,.44727-1,1s.44727,1,1,1h7c1.6543,0,3-1.3457,3-3v-5h1c2.75684,0,5-2.24316,5-5v-2c0-.55273-.44727-1-1-1ZM49.29297,34.12109l.70703-.70703.70703.70703c1.16992,1.16992,1.16992,3.07324,0,4.24316l-.70703.70703-.70703-.70703c-1.16992-1.16992-1.16992-3.07324,0-4.24316ZM45,44v-1h1c1.6543,0,3,1.3457,3,3v1h-1c-1.6543,0-3-1.3457-3-3ZM55,44c0,1.6543-1.3457,3-3,3h-1v-1c0-1.6543,1.3457-3,3-3h1v1Z"/>
        <path d="M37,55h-10c-.54999,0-1-.45001-1-1v-6h1c1.65002,0,3-1.35004,3-3v-1c1.65002,0,3-1.35004,3-3,0-1.29004-.83002-2.39001-1.96997-2.81.12994-1.65002.88995-3.23999,2.13995-4.42004,2.42999-2.25,3.83002-5.44995,3.83002-8.76996,0-3.41003-1.46002-6.67004-4-8.94-2.53998-2.28003-5.96002-3.35999-9.38-2.98004-1.90997.21002-3.78998.91003-5.41998,2.04004-.45001.31-.57001.92999-.25,1.39001.31.44995.92999.56995,1.39001.25,1.35999-.93005,2.90997-1.52002,4.5-1.70001,2.89996-.32001,5.67999.56,7.82996,2.48999,2.12,1.89001,3.33002,4.60999,3.33002,7.45001,0,2.76996-1.15997,5.42999-3.19,7.31-1.60999,1.51001-2.59998,3.54999-2.77997,5.69h-3.03003v-5.10004c2.28003-.46997,4-2.48999,4-4.89996,0-.54999-.45001-1-1-1s-1,.45001-1,1c0,1.64996-1.34998,3-3,3s-3-1.35004-3-3c0-.54999-.45001-1-1-1s-1,.45001-1,1c0,2.40997,1.71997,4.42999,4,4.89996v5.10004h-3.03003c-.17999-2.15002-1.17999-4.17004-2.87-5.76001-2.39996-2.29999-3.47998-5.52002-2.96997-8.84003.21997-1.46997.77002-2.82996,1.64001-4.03998.31-.45001.20996-1.07001-.23999-1.40002-.45001-.31995-1.07001-.20996-1.40002.24005-1.03003,1.44995-1.71002,3.13995-1.97998,4.89996-.61005,3.97003.69,7.83002,3.56995,10.59003,1.34003,1.25,2.12006,2.83997,2.25,4.5-1.14996.41998-1.96997,1.51996-1.96997,2.81,0,1.64996,1.34998,3,3,3v1c0,1.64996,1.34998,3,3,3h1v6c0,1.64996,1.34998,3,3,3h10c.54999,0,1-.45001,1-1s-.45001-1-1-1ZM20,42c-.54999,0-1-.45001-1-1s.45001-1,1-1h10c.54999,0,1,.45001,1,1s-.45001,1-1,1h-10ZM23,46c-.54999,0-1-.45001-1-1v-1h6v1c0,.54999-.45001,1-1,1h-4Z"/>
      </g>
    </g>
  </g>
</svg>