<?xml version="1.0" encoding="utf-8"?>
<!-- Generator: Adobe Illustrator 28.2.0, SVG Export Plug-In . SVG Version: 6.00 Build 0)  -->
<svg version="1.1" id="Outline" xmlns="http://www.w3.org/2000/svg" xmlns:xlink="http://www.w3.org/1999/xlink" x="0px" y="0px"
	 viewBox="0 0 64 64" enable-background="new 0 0 64 64" xml:space="preserve">
<g>
	<path d="M54.99951,27.05664L33,19.29205V15h1c2.75684,0,5-2.24316,5-5V8c0-0.55273-0.44775-1-1-1h-2
		c-1.6413,0-3.08777,0.80573-4,2.03094C31.08777,7.80573,29.6413,7,28,7h-2c-0.55225,0-1,0.44727-1,1v2c0,2.75684,2.24316,5,5,5h1
		v4.29205L9.00049,27.05664c-0.52051,0.18457-0.79395,0.75586-0.60986,1.27637s0.75391,0.79102,1.27588,0.61035L14,27.41382V56
		c0,0.55273,0.44775,1,1,1h34c0.55225,0,1-0.44727,1-1v-7c0-0.55273-0.44775-1-1-1s-1,0.44727-1,1v6H16V26.70789l16-5.64734
		l16,5.64734V41c0,0.55273,0.44775,1,1,1s1-0.44727,1-1V27.41382c0,0,4.3335,1.52954,4.33357,1.52957
		c0.51712,0.17843,1.09274-0.0926,1.27581-0.61038C55.79346,27.8125,55.52002,27.24121,54.99951,27.05664z M36,9h1v1
		c0,1.6543-1.3457,3-3,3h-1v-1C33,10.3457,34.3457,9,36,9z M27,10V9h1c1.6543,0,3,1.3457,3,3v1h-1C28.3457,13,27,11.6543,27,10z"/>
	<path d="M29.52783,31.4082l-1.81006,3.16992c-0.27393,0.47949-0.10742,1.09082,0.37207,1.36426
		c0.48096,0.27637,1.09131,0.10742,1.36426-0.37207l1.80957-3.16895c0.26074-0.45508,0.729-0.72656,1.25195-0.72656
		c0.52344,0,0.9917,0.27148,1.25195,0.72559l1.68109,2.94403l-0.49066-0.15106c-0.52637-0.16309-1.0874,0.13379-1.24951,0.66211
		c-0.1626,0.52734,0.13379,1.08691,0.66162,1.25c0,0,2.88683,0.8881,2.88867,0.88867
		c0.46031,0.14161,1.01109-0.08724,1.21436-0.56543l1.14844-2.70312c0.21582-0.50781-0.021-1.09473-0.5293-1.31055
		c-0.51074-0.21777-1.0957,0.02051-1.31152,0.5293l-0.38031,0.89496c-0.02167-0.0885-0.03906-0.1781-0.08649-0.26117
		l-1.81055-3.1709c-0.62207-1.08496-1.73877-1.73242-2.98779-1.73242C31.26709,29.6748,30.15039,30.32227,29.52783,31.4082z"/>
	<path d="M29.51562,44.28418h-2.55957c-0.51562,0-0.97852-0.26758-1.23828-0.71582c-0.26074-0.4502-0.26221-0.9873-0.00244-1.44043
		l0.5152-0.90796l0.13715,0.43433c0.13475,0.42672,0.52873,0.69917,0.953,0.69922c0.66443,0.00008,1.15561-0.66509,0.95423-1.30078
		l-0.83301-2.63867c-0.1499-0.47461-0.61963-0.77148-1.11816-0.68555l-3,0.5c-0.54443,0.09082-0.9126,0.60547-0.82178,1.15039
		c0.09082,0.54395,0.6001,0.91602,1.15088,0.82227l0.94635-0.15784l-0.62067,1.09338
		c-0.61719,1.0752-0.61377,2.35938,0.0083,3.43359c0.62158,1.07324,1.73145,1.71387,2.96924,1.71387h2.55957
		c0.55225,0,1-0.44727,1-1S30.06787,44.28418,29.51562,44.28418z"/>
	<path d="M38.93213,39.4248c-0.47998,0.27246-0.64844,0.88281-0.37598,1.36328l0.7627,1.34473
		c0.25732,0.44824,0.25586,0.98535-0.00488,1.43555c-0.25977,0.44824-0.72266,0.71582-1.23828,0.71582h-1.8512l0.30334-0.28027
		c0.40527-0.375,0.43066-1.00684,0.05566-1.41309c-0.37354-0.40527-1.00684-0.42969-1.41309-0.05566l-2.29639,2.12109
		c-0.20312,0.1875-0.31982,0.45117-0.32129,0.72852s0.11182,0.54199,0.31299,0.73242c0,0,2.04041,1.92892,2.04638,1.93456
		c0.37568,0.35515,1.03495,0.36021,1.41359-0.04003c0.37939-0.40137,0.36182-1.03418-0.03955-1.41309l-0.33264-0.31445h2.12219
		c1.23779,0,2.34766-0.64062,2.96924-1.71387c0.62207-1.07422,0.62549-2.3584,0.01074-3.42871l-0.76025-1.33984
		C40.02295,39.32031,39.41211,39.15234,38.93213,39.4248z"/>
	<path d="M18,39c0,7.71973,6.28027,14,14,14s14-6.28027,14-14s-6.28027-14-14-14S18,31.28027,18,39z M44,39
		c0,6.61719-5.3833,12-12,12s-12-5.38281-12-12s5.3833-12,12-12S44,32.38281,44,39z"/>
	<path d="M41.70703,15.70703L42,15.41406V19c0,0.55273,0.44775,1,1,1s1-0.44727,1-1v-3.58594c0,0,0.2919,0.2919,0.29296,0.29297
		c0.36517,0.36517,1.02767,0.3864,1.41407,0c0.39062-0.39062,0.39062-1.02344,0-1.41406l-2-2
		c-0.39062-0.39062-1.02344-0.39062-1.41406,0l-2,2c-0.39062,0.39062-0.39062,1.02344,0,1.41406
		S41.31641,16.09766,41.70703,15.70703z"/>
	<path d="M19.70703,15.70703L20,15.41406V19c0,0.55273,0.44775,1,1,1s1-0.44727,1-1v-3.58594c0,0,0.29208,0.29208,0.29297,0.29297
		c0.36728,0.36728,1.02279,0.39127,1.41406,0c0.39062-0.39062,0.39062-1.02344,0-1.41406l-2-2
		c-0.39062-0.39062-1.02344-0.39062-1.41406,0l-2,2c-0.39062,0.39062-0.39062,1.02344,0,1.41406
		S19.31641,16.09766,19.70703,15.70703z"/>
	<circle cx="49" cy="45" r="1"/>
</g>
</svg>
