<?xml version="1.0" encoding="UTF-8"?>
<svg id="Outline" xmlns="http://www.w3.org/2000/svg" version="1.1" viewBox="0 0 48 48">
  <path d="M38,5h-17c-1.09998,0-2,.89996-2,2v2h-2.14001c-.45001-1.72003-2-3-3.85999-3-2.21002,0-4,1.78998-4,4s1.78998,4,4,4c1.85999,0,3.40997-1.28003,3.85999-3h2.14001v2c0,1.09998.90002,2,2,2v2.35999c-5.71997,1.35999-10,6.51001-10,12.64001,0,7.16998,5.83002,13,13,13s13-5.83002,13-13c0-6.13-4.28003-11.28003-10-12.64001v-2.35999c1.09998,0,2-.90002,2-2v-2h8v9c0,.54999.45001,1,1,1h4c.54999,0,1-.45001,1-1v-10c0-2.76001-2.23999-5-5-5ZM13,12c-1.09998,0-2-.90002-2-2,0-1.10004.90002-2,2-2s2,.89996,2,2c0,1.09998-.90002,2-2,2ZM24,41c-5.02002,0-9.26001-3.39001-10.57001-8h21.14001c-1.31,4.60999-5.54999,8-10.57001,8ZM35,30c0,.33997-.02002.66998-.04999,1H13.04999c-.02997-.33002-.04999-.66003-.04999-1,0-.34003.02002-.67004.04999-1h21.90002c.02997.32996.04999.65997.04999,1ZM34.57001,27H13.42999c1.31-4.60999,5.54999-8,10.57001-8s9.26001,3.39001,10.57001,8ZM23,17v-2h2v2h-2ZM27,13h-6v-6h6v6ZM41,19h-2v-9c0-.54999-.45001-1-1-1h-9v-2h9c1.65002,0,3,1.34998,3,3v9Z" fill="#000" stroke-width="0"/>
  <circle cx="24" cy="10" r="1" fill="#000" stroke-width="0"/>
  <path d="M17.63623,23.63623c-.39062.39062-.39062,1.02344,0,1.41406s1.02344.39062,1.41406,0c2.72949-2.72949,7.16992-2.72949,9.89941,0,.19531.19531.45117.29297.70703.29297s.51172-.09766.70703-.29297c.39062-.39062.39062-1.02344,0-1.41406-3.50879-3.50879-9.21875-3.50879-12.72754,0Z" fill="#000" stroke-width="0"/>
</svg>