<?xml version="1.0" encoding="UTF-8"?>
<svg id="Outline" xmlns="http://www.w3.org/2000/svg" version="1.1" viewBox="0 0 64 64">
  <path d="M50,20c.54999,0,1-.45001,1-1v-3h3c1.65002,0,3-1.35004,3-3v-2c0-1.65002-1.34998-3-3-3H10c-1.65002,0-3,1.34998-3,3v2c0,1.64996,1.34998,3,3,3h3v3c0,.54999.45001,1,1,1h2v12.39001c-5.16998,1.33997-9,6.02997-9,11.60999,0,6.62,5.38,12,12,12s12-5.38,12-12c0-5.58002-3.83002-10.27002-9-11.60999v-12.39001h2c.54999,0,1-.45001,1-1v-3h14v3c0,.54999.45001,1,1,1h2v12.39001c-5.16998,1.33997-9,6.02997-9,11.60999,0,6.62,5.38,12,12,12s12-5.38,12-12c0-5.58002-3.83002-10.27002-9-11.60999v-12.39001h2ZM29,44c0,5.51001-4.48999,10-10,10s-10-4.48999-10-10,4.48999-10,10-10,10,4.48999,10,10ZM20,25.40997v2.17999l-2-2v-2.17999l2,2ZM18,20.58997v-.58997h2v2.58997l-2-2ZM20,30.40997v1.59003h-2v-3.59003l2,2ZM23,18h-8v-2h8v2ZM10,14c-.54999,0-1-.45001-1-1v-2c0-.54999.45001-1,1-1h44c.54999,0,1,.45001,1,1v2c0,.54999-.45001,1-1,1H10ZM55,44c0,5.51001-4.48999,10-10,10s-10-4.48999-10-10,4.48999-10,10-10,10,4.48999,10,10ZM46,23.40997v2.17999l-2,2v-2.17999l2-2ZM44,22.58997v-2.58997h2v.58997l-2,2ZM46,28.40997v3.59003h-2v-1.59003l2-2ZM41,18v-2h8v2h-8Z" style="fill: #000; stroke-width: 0px;"/>
  <path d="M37,44c0,4.41113,3.58887,8,8,8s8-3.58887,8-8-3.58887-8-8-8-8,3.58887-8,8ZM51,44c0,3.30859-2.69141,6-6,6s-6-2.69141-6-6,2.69141-6,6-6,6,2.69141,6,6Z" style="fill: #000; stroke-width: 0px;"/>
  <path d="M11,44c0,4.41113,3.58887,8,8,8s8-3.58887,8-8-3.58887-8-8-8-8,3.58887-8,8ZM25,44c0,3.30859-2.69141,6-6,6s-6-2.69141-6-6,2.69141-6,6-6,6,2.69141,6,6Z" style="fill: #000; stroke-width: 0px;"/>
</svg>