<?xml version="1.0" encoding="UTF-8"?>
<svg xmlns="http://www.w3.org/2000/svg" version="1.1" viewBox="0 0 64 64">
  <!-- Generator: Adobe Illustrator 28.7.1, SVG Export Plug-In . SVG Version: 1.2.0 Build 142)  -->
  <g>
    <g id="Outline">
      <g>
        <path d="M11,44.5c0,4.41113,3.58887,8,8,8s8-3.58887,8-8-3.58887-8-8-8-8,3.58887-8,8ZM25,44.5c0,3.30859-2.69141,6-6,6s-6-2.69141-6-6,2.69141-6,6-6,6,2.69141,6,6Z"/>
        <path d="M37,44.5c0,4.41113,3.58887,8,8,8s8-3.58887,8-8-3.58887-8-8-8-8,3.58887-8,8ZM51,44.5c0,3.30859-2.69141,6-6,6s-6-2.69141-6-6,2.69141-6,6-6,6,2.69141,6,6Z"/>
        <path d="M52,17.5c.54999,0,1-.45001,1-1v-3h3c.54999,0,1-.45001,1-1v-4c0-.54999-.45001-1-1-1H8c-.54999,0-1,.45001-1,1v4c0,.54999.45001,1,1,1h3v3c0,.54999.45001,1,1,1h4v15.39001c-5.16998,1.33997-9,6.02997-9,11.60999,0,6.62,5.38,12,12,12s12-5.38,12-12c0-5.58002-3.83002-10.27002-9-11.60999v-15.39001h4c.54999,0,1-.45001,1-1v-3h10v3c0,.54999.45001,1,1,1h4v15.39001c-5.16998,1.33997-9,6.02997-9,11.60999,0,6.62,5.38,12,12,12s12-5.38,12-12c0-5.58002-3.83002-10.27002-9-11.60999v-15.39001h4ZM29,44.5c0,5.51001-4.48999,10-10,10s-10-4.48999-10-10,4.48999-10,10-10,10,4.48999,10,10ZM20,23.90997v3.17999l-2-2v-3.17999l2,2ZM18,19.08997v-1.58997h2v3.58997l-2-2ZM20,29.90997v2.64001c-.33002-.03003-.65997-.04999-1-.04999s-.66998.01996-1,.04999v-4.64001l2,2ZM25,15.5h-12v-2h12v2ZM9,11.5v-2h46v2H9ZM55,44.5c0,5.51001-4.48999,10-10,10s-10-4.48999-10-10,4.48999-10,10-10,10,4.48999,10,10ZM46,21.90997v3.17999l-2,2v-3.17999l2-2ZM44,21.08997v-3.58997h2v1.58997l-2,2ZM46,27.90997v4.64001c-.33002-.03003-.65997-.04999-1-.04999s-.66998.01996-1,.04999v-2.64001l2-2ZM39,15.5v-2h12v2h-12Z"/>
      </g>
    </g>
  </g>
</svg>