<?xml version="1.0" encoding="UTF-8"?>
<svg id="Outline" xmlns="http://www.w3.org/2000/svg" version="1.1" viewBox="0 0 48 48">
  <path d="M40,35h-6v-2h2.91998c3,0,5.37-2.73999,4.95001-5.71002-.83997-5.87-5.94-10.28998-11.87-10.28998h-1v-2h1c.54999,0,1-.45001,1-1h9c1.65002,0,3-1.35004,3-3s-1.34998-3-3-3h-9c0-.54999-.45001-1-1-1h-8c-.54999,0-1,.45001-1,1h-9c-1.65002,0-3,1.34998-3,3s1.34998,3,3,3h9c0,.54999.45001,1,1,1h1v2h-2c-1.65002,0-3,1.34998-3,3v1h-6.28003l-.76996-2.32001c-.14001-.40002-.52002-.67999-.95001-.67999h-4c-.33002,0-.64001.15997-.83002.44-.17999.26996-.21997.62-.09998.92999l1.84998,4.63-1.84998,4.63c-.12.31-.08002.65997.09998.92999.19.27997.5.44.83002.44h4c.42999,0,.81-.28003.95001-.67999l.76996-2.32001h6.28003v3c0,1.64996,1.34998,3,3,3h2v2h-5c-1.65002,0-3,1.34998-3,3s1.34998,3,3,3h22c1.65002,0,3-1.35004,3-3s-1.34998-3-3-3ZM31,10h9c.54999,0,1,.45001,1,1s-.45001,1-1,1h-9v-2ZM21,12h-9c-.54999,0-1-.45001-1-1s.45001-1,1-1h9v2ZM38.64001,24c.35999.63.65997,1.29999.88,2h-5.52002v-2h4.64001ZM23,9h6v4h-6v-4ZM27,15v2h-2v-2h2ZM21,31c-.54999,0-1-.45001-1-1v-4c0-.54999-.45001-1-1-1h-8c-.42999,0-.81.27997-.95001.67999l-.76996,2.32001h-1.80005l1.45001-3.63c.09003-.23999.09003-.5,0-.73999l-1.45001-3.63h1.80005l.76996,2.32001c.14001.39996.52002.67999.95001.67999h8c.54999,0,1-.45001,1-1v-2c0-.54999.45001-1,1-1h9c2.75,0,5.28003,1.14001,7.10999,3h-4.10999c-.54999,0-1,.45001-1,1v4c0,.54999.45001,1,1,1h6.90002c0,.71997-.24005,1.41998-.72003,1.96997-.57001.65002-1.39001,1.03003-2.26001,1.03003h-15.91998ZM32,33v2h-7v-2h7ZM40,39h-22c-.54999,0-1-.45001-1-1s.45001-1,1-1h22c.54999,0,1,.45001,1,1s-.45001,1-1,1Z" fill="#000" stroke-width="0"/>
  <path d="M28,22h-4c-.55225,0-1,.44775-1,1v4c0,.55225.44775,1,1,1h4c.55225,0,1-.44775,1-1v-4c0-.55225-.44775-1-1-1ZM27,26h-2v-2h2v2Z" fill="#000" stroke-width="0"/>
</svg>