<?xml version="1.0" encoding="UTF-8"?>
<svg id="Outline" xmlns="http://www.w3.org/2000/svg" version="1.1" viewBox="0 0 64 64">
  <path d="M54,41.05499h-1v-3.04999c0-8.48004-4.97998-15.97003-12.71997-19.29004l-.15002-1.92999c-.10999-1.56-1.41998-2.77997-2.98999-2.77997h-10.28003c-1.57001,0-2.88,1.21997-2.98999,2.77997l-.15002,1.92999c-7.73999,3.32001-12.71997,10.81-12.71997,19.29004v3.04999h-1c-1.65002,0-3,1.34003-3,3v2c0,.45001.31.84998.76001.96997,7.92999,1.98004,16.08002,2.97003,24.23999,2.97003s16.31-.98999,24.23999-2.97003c.45001-.12.76001-.51996.76001-.96997v-2c0-1.65997-1.34998-3-3-3ZM47,26.315c2.34998,3,3.76001,6.70996,3.96002,10.69-2.19-.02002-3.96002-1.81-3.96002-4v-6.69ZM45,24.125v8.88c0,3.31,2.69,6,6,6v2h-9.07001l-1.47998-20.02002c1.69.84003,3.21997,1.89001,4.54999,3.14001ZM25.85999,16.935c.04004-.52002.48004-.92999,1-.92999h10.28003c.51996,0,.95996.40997,1,.92999l.22998,3.07001h-12.73999l.22998-3.07001ZM25.47998,22.005h13.04004l.28998,4h-13.62l.28998-4ZM25.03998,28.005h13.92004l.95996,13h-3.45996c.94995-1.06,1.53998-2.46002,1.53998-4,0-3.31-2.69-6-6-6s-6,2.69-6,6c0,1.53998.59003,2.94,1.53998,4h-3.45996l.95996-13ZM36,37.005c0,2.20996-1.78998,4-4,4s-4-1.79004-4-4,1.78998-4,4-4,4,1.78998,4,4ZM17,26.315v6.69c0,2.19-1.77002,3.97998-3.96002,4,.20001-3.98004,1.61005-7.69,3.96002-10.69ZM13,39.005c3.31,0,6-2.69,6-6v-8.88c1.33002-1.25,2.85999-2.29999,4.54999-3.14001l-1.47998,20.02002h-9.07001v-2ZM55,45.26501c-15.07001,3.63995-30.92999,3.63995-46,0v-1.21002c0-.56.45001-1,1-1h44c.54999,0,1,.44,1,1v1.21002Z" fill="#000" stroke-width="0"/>
</svg>