<?xml version="1.0" encoding="UTF-8"?>
<svg xmlns="http://www.w3.org/2000/svg" version="1.1" viewBox="0 0 64 64">
  <!-- Generator: Adobe Illustrator 28.7.1, SVG Export Plug-In . SVG Version: 1.2.0 Build 142)  -->
  <g>
    <g id="Outline">
      <path d="M56,21h-6c-.54999,0-1,.45001-1,1v2.56c-.59003-.35004-1.27002-.56-2-.56s-1.40997.20996-2,.56v-5.73999c1.15997-.42004,2-1.52002,2-2.82001v-2c0-1.37-.92999-2.52002-2.19-2.87l-.84003-3.37c-.10999-.45001-.50995-.76001-.96997-.76001h-4c-.46002,0-.85999.31-.96997.76001l-.84003,3.37c-1.26001.34998-2.19,1.5-2.19,2.87v2c0,1.29999.84003,2.39996,2,2.82001v5.73999c-.59003-.35004-1.27002-.56-2-.56-1.20001,0-2.27002.53998-3,1.38-.72998-.84003-1.79999-1.38-3-1.38s-2.27002.53998-3,1.38c-.72998-.84003-1.79999-1.38-3-1.38s-2.27002.53998-3,1.38c-.72998-.84003-1.79999-1.38-3-1.38-.72998,0-1.40997.20996-2,.56v-2.56c0-.54999-.45001-1-1-1h-6c-.54999,0-1,.45001-1,1v34c0,.54999.45001,1,1,1h6c.54999,0,1-.45001,1-1v-2.56c.59003.34998,1.27002.56,2,.56,1.20001,0,2.27002-.54004,3-1.38.72998.83997,1.79999,1.38,3,1.38s2.27002-.54004,3-1.38c.72998.83997,1.79999,1.38,3,1.38s2.27002-.54004,3-1.38c.72998.83997,1.79999,1.38,3,1.38s2.27002-.54004,3-1.38c.72998.83997,1.79999,1.38,3,1.38s2.27002-.54004,3-1.38c.72998.83997,1.79999,1.38,3,1.38.72998,0,1.40997-.21002,2-.56v2.56c0,.54999.45001,1,1,1h6c.54999,0,1-.45001,1-1V22c0-.54999-.45001-1-1-1ZM13,55h-4V23h4v32ZM19,50c0,1.09998-.90002,2-2,2s-2-.90002-2-2v-22c0-1.10004.90002-2,2-2s2,.89996,2,2v22ZM25,50c0,1.09998-.90002,2-2,2s-2-.90002-2-2v-22c0-1.10004.90002-2,2-2s2,.89996,2,2v22ZM31,50c0,1.09998-.90002,2-2,2s-2-.90002-2-2v-22c0-1.10004.90002-2,2-2s2,.89996,2,2v22ZM37,50c0,1.09998-.90002,2-2,2s-2-.90002-2-2v-22c0-1.10004.90002-2,2-2s2,.89996,2,2v22ZM39.78003,9h2.43994l.5,2h-3.43994l.5-2ZM43,50c0,1.09998-.90002,2-2,2s-2-.90002-2-2v-31h4v31ZM44,17h-6c-.54999,0-1-.45001-1-1v-2c0-.54999.45001-1,1-1h6c.54999,0,1,.45001,1,1v2c0,.54999-.45001,1-1,1ZM49,50c0,1.09998-.90002,2-2,2s-2-.90002-2-2v-22c0-1.10004.90002-2,2-2s2,.89996,2,2v22ZM55,55h-4V23h4v32Z"/>
    </g>
  </g>
</svg>