<?xml version="1.0" encoding="utf-8"?>
<!-- Generator: Adobe Illustrator 27.3.1, SVG Export Plug-In . SVG Version: 6.00 Build 0)  -->
<svg version="1.1" id="Outline" xmlns="http://www.w3.org/2000/svg" xmlns:xlink="http://www.w3.org/1999/xlink" x="0px" y="0px"
	 viewBox="0 0 64 64" enable-background="new 0 0 64 64" xml:space="preserve">
<g>
	<path d="M56.04199,28.00098c-1.33887-0.05566-2.05859-0.98242-2.28613-1.83008c-0.22656-0.84863-0.06738-2.01074,1.06445-2.72852
		c0.45215-0.28711,0.59766-0.88086,0.33008-1.34473l-3-5.19531c-0.26758-0.46484-0.85156-0.63672-1.33008-0.38574
		c-1.18848,0.62207-2.27246,0.17676-2.89355-0.44336c-0.62109-0.62109-1.06348-1.70703-0.44336-2.89355
		c0.24902-0.47559,0.07812-1.06152-0.38574-1.33008l-5.19531-3c-0.46387-0.26758-1.05664-0.12109-1.34473,0.33008
		c-0.7168,1.12988-1.87891,1.28809-2.72852,1.06445c-0.84766-0.22754-1.77441-0.94727-1.83008-2.28613
		C35.97656,7.42285,35.53613,7,35,7h-6c-0.53613,0-0.97705,0.42285-0.99902,0.95801
		c-0.05566,1.33887-0.98193,2.05859-1.83008,2.28613c-0.84912,0.22559-2.01123,0.06641-2.72852-1.06445
		c-0.28711-0.45117-0.87891-0.59766-1.34424-0.33008l-5.19629,3c-0.46436,0.26855-0.63477,0.85449-0.38623,1.33008
		c0.62109,1.18555,0.17871,2.27246-0.44189,2.89355c-0.62158,0.62109-1.7085,1.06348-2.89502,0.44336
		c-0.47656-0.25098-1.06152-0.0791-1.32959,0.38574l-3,5.19531c-0.26807,0.46387-0.12207,1.05762,0.33057,1.34473
		c1.13135,0.7168,1.2915,1.87988,1.06396,2.72754c-0.22705,0.84863-0.94678,1.77539-2.28516,1.83105
		C7.42285,28.02344,7,28.46387,7,29v6c0,0.53613,0.42285,0.97656,0.9585,0.99902c1.33838,0.05566,2.05811,0.98242,2.28516,1.83105
		c0.22754,0.84766,0.06738,2.01074-1.06396,2.72754c-0.45264,0.28711-0.59863,0.88086-0.33057,1.34473l3,5.19531
		c0.26807,0.46484,0.85303,0.63672,1.32959,0.38574c1.18799-0.62012,2.27344-0.17773,2.89502,0.44336
		c0.62061,0.62109,1.06299,1.70801,0.44189,2.89355c-0.24854,0.47559-0.07813,1.06152,0.38623,1.33008l5.19629,3
		c0.46533,0.26953,1.05713,0.12207,1.34424-0.33008c0.71729-1.13086,1.87988-1.29004,2.72852-1.06445
		c0.84814,0.22754,1.77441,0.94727,1.83008,2.28613C28.02295,56.57715,28.46387,57,29,57h6
		c0.53613,0,0.97656-0.42285,0.99902-0.95801c0.05566-1.33887,0.98242-2.05859,1.83008-2.28613
		c0.84863-0.22559,2.01074-0.06738,2.72852,1.06445c0.28809,0.45215,0.88086,0.59961,1.34473,0.33008l5.19531-3
		c0.46387-0.26855,0.63477-0.85449,0.38574-1.33008c-0.62012-1.18652-0.17773-2.27246,0.44336-2.89355
		s1.70508-1.06543,2.89355-0.44336c0.47852,0.25098,1.0625,0.0791,1.33008-0.38574l3-5.19531
		c0.26758-0.46387,0.12207-1.05762-0.33008-1.34473c-1.13184-0.71777-1.29102-1.87988-1.06445-2.72852
		c0.22754-0.84766,0.94727-1.77441,2.28613-1.83008C56.57715,35.97656,57,35.53613,57,35v-6
		C57,28.46387,56.57715,28.02344,56.04199,28.00098z M55,34.13965c-1.54395,0.39258-2.74414,1.56348-3.17578,3.17188
		c-0.43066,1.6084,0.02344,3.22363,1.16406,4.33594l-2.13965,3.70508c-1.53516-0.43262-3.15918-0.01758-4.33594,1.16016
		c-1.17773,1.17773-1.5918,2.80273-1.16016,4.33594l-3.70508,2.13965c-1.1123-1.14062-2.72363-1.59277-4.33594-1.16406
		c-1.6084,0.43164-2.7793,1.63184-3.17188,3.17578h-4.27979c-0.39209-1.54395-1.56299-2.74414-3.17139-3.17578
		c-1.60498-0.42773-3.22266,0.02246-4.33496,1.16406l-3.70654-2.13965c0.43164-1.5332,0.01807-3.1582-1.15869-4.33496
		c-1.17773-1.17871-2.80273-1.59277-4.33691-1.16113l-2.14014-3.70508c1.14111-1.1123,1.59521-2.72656,1.16455-4.33496
		C11.74463,35.70312,10.54395,34.53223,9,34.13965v-4.2793c1.54395-0.39258,2.74463-1.56348,3.17578-3.17285
		c0.43066-1.6084-0.02344-3.22266-1.16455-4.33496l2.14014-3.70508c1.53516,0.43164,3.16016,0.01758,4.33691-1.16113
		c1.17676-1.17676,1.59033-2.80176,1.15869-4.33496l3.70654-2.13965c1.1123,1.1416,2.72803,1.59277,4.33496,1.16406
		c1.6084-0.43164,2.7793-1.63184,3.17139-3.17578h4.27979c0.39258,1.54395,1.56348,2.74414,3.17188,3.17578
		c1.61035,0.42773,3.22266-0.02344,4.33594-1.16406l3.70508,2.13965c-0.43164,1.5332-0.01758,3.1582,1.16016,4.33594
		c1.17676,1.17676,2.80078,1.58984,4.33594,1.16016l2.13965,3.70508c-1.14062,1.1123-1.59473,2.72754-1.16406,4.33594
		c0.43164,1.6084,1.63184,2.7793,3.17578,3.17188V34.13965z"/>
	<path d="M31.26123,13.32617C30.71973,13.91992,18,27.96875,18,37.25c0,6.01562,3.91895,11.28223,9.75146,13.10449
		c0.52295,0.16504,1.08789-0.12793,1.25293-0.65625c0.16455-0.52637-0.12939-1.08789-0.65625-1.25195
		C23.35498,46.88574,20,42.38672,20,37.25c0-7.29883,9.28125-18.58594,12-21.73633c2.71875,3.15039,12,14.4375,12,21.73633
		c0,5.13672-3.35449,9.63574-8.34766,11.19629c-0.52734,0.16406-0.82129,0.72559-0.65625,1.25195
		c0.13379,0.42871,0.52832,0.70215,0.9541,0.70215c0.09863,0,0.19922-0.01465,0.29785-0.0459
		C42.08105,48.53223,46,43.26562,46,37.25c0-9.28125-12.71973-23.33008-13.26123-23.92383
		C32.35986,12.91016,31.64014,12.91016,31.26123,13.32617z"/>
	<path d="M38.84863,30.15613c-0.19263-0.31451-0.55212-0.52875-0.97266-0.48132l-3.71094,0.46289
		c0,0,2.10645-5.79321,2.10742-5.7959c0.26373-0.7254-0.38171-1.47223-1.13574-1.32227l-6.6665,1.33301
		c-0.36719,0.07324-0.6626,0.3457-0.76514,0.70605c0,0-2.65613,9.29773-2.6665,9.33386
		c-0.20154,0.70551,0.41211,1.37164,1.12598,1.26086l2.66553-0.44434c0,0-1.15076,8.62885-1.15479,8.65906
		c-0.13489,1.01166,1.22235,1.54547,1.81055,0.7052c0,0,9.28833-13.26849,9.33331-13.33276
		C39.06702,30.88635,39.04144,30.47101,38.84863,30.15613z M30.2002,40.06543c0,0,0.7876-5.90808,0.79102-5.93353
		C31.07074,33.53534,30.599,33,30,33c-0.05469,0-0.10986,0.00488-0.16455,0.01367L27.396,33.41992l2.06445-7.22559l4.32471-0.86523
		c0,0-2.04889,5.6355-2.05853,5.66199c-0.25616,0.70459,0.33521,1.41174,1.0639,1.33411l3.09912-0.38672L30.2002,40.06543z"/>
	<circle cx="32" cy="50" r="1"/>
</g>
</svg>
