<?xml version="1.0" encoding="utf-8"?>
<!-- Generator: Adobe Illustrator 28.2.0, SVG Export Plug-In . SVG Version: 6.00 Build 0)  -->
<svg version="1.1" id="Outline" xmlns="http://www.w3.org/2000/svg" xmlns:xlink="http://www.w3.org/1999/xlink" x="0px" y="0px"
	 viewBox="0 0 64 64" enable-background="new 0 0 64 64" xml:space="preserve">
<g>
	<path d="M56,35c0.54999,0,1-0.45001,1-1V16c0-0.54999-0.45001-1-1-1h-4c-0.53003,0-0.96997,0.41998-1,0.95001L50.75,21H37.27002
		C38.94,19.52997,40,17.39001,40,15c0-4.41003-3.59003-8-8-8s-8,3.58997-8,8c0,2.39001,1.06,4.52997,2.72998,6H13.25L13,15.95001
		C12.96997,15.41998,12.53003,15,12,15H8c-0.54999,0-1,0.45001-1,1v40c0,0.54999,0.45001,1,1,1h48c0.54999,0,1-0.45001,1-1V42
		c0-0.54999-0.45001-1-1-1s-1,0.45001-1,1v13h-3.95001l1.90002-38H55v17C55,34.54999,55.45001,35,56,35z M9,55V17h2.04999
		l1.90002,38H9z M26,15c0-3.31,2.69-6,6-6s6,2.69,6,6s-2.69,6-6,6S26,18.31,26,15z M49.04999,55H14.95001l-0.16998-3.46002
		c0.39996,0.07001,0.81,0.12,1.21997,0.12c1.46002,0,2.84998-0.46997,4-1.33997c2.29999,1.73999,5.70001,1.73999,8,0
		c2.29999,1.73999,5.70001,1.73999,8,0c2.29999,1.73999,5.70001,1.73999,8,0c1.15002,0.87,2.53998,1.33997,4,1.33997
		c0.40997,0,0.82001-0.04999,1.21997-0.12L49.04999,55z M49.33002,49.42999c-0.42999,0.14001-0.88,0.22998-1.33002,0.22998
		c-1.23999,0-2.40997-0.48999-3.28998-1.37c-0.38-0.37-1.04004-0.37-1.42004,0c-0.88,0.88-2.04999,1.37-3.28998,1.37
		s-2.40997-0.48999-3.28998-1.37c-0.39001-0.39001-1.03003-0.39001-1.42004,0c-0.88,0.88-2.04999,1.37-3.28998,1.37
		s-2.40997-0.48999-3.28998-1.37c-0.39001-0.39001-1.03003-0.39001-1.42004,0c-0.88,0.88-2.04999,1.37-3.28998,1.37
		s-2.40997-0.48999-3.28998-1.37c-0.38-0.37-1.04004-0.37-1.42004,0c-0.88,0.88-2.04999,1.37-3.28998,1.37
		c-0.45001,0-0.90002-0.08997-1.33002-0.22998l-0.20001-3.97003c1.93005,0.44,3.98004,0.03003,5.53003-1.13995
		c2.09998,1.58997,5.12,1.70996,7.38,0.38995c0.04999-0.01996,0.08997-0.04999,0.13-0.07996
		c0.16998-0.10004,0.33997-0.19,0.48999-0.31c2.29999,1.73999,5.70001,1.73999,8,0c0.15002,0.12,0.32001,0.20996,0.48999,0.31
		c0.04004,0.02997,0.08002,0.06,0.13,0.07996c2.26001,1.32001,5.28003,1.20001,7.38-0.38995
		c0.19,0.14996,0.40002,0.26996,0.60999,0.38995C45.63,45.32001,46.78998,45.65997,48,45.65997
		c0.51001,0,1.02002-0.06,1.53003-0.17999L49.33002,49.42999z M18.09998,31C18.56,28.71997,20.59003,27,23,27
		s4.44,1.71997,4.90002,4H18.09998z M26,33v10.19c-0.62,0.29999-1.28998,0.46997-2,0.46997c-1.23999,0-2.40997-0.48999-3.28998-1.37
		c-0.19-0.17999-0.45001-0.27997-0.71002-0.27997V33H26z M36.09998,31C36.56,28.71997,38.59003,27,41,27s4.44,1.71997,4.90002,4
		H36.09998z M44,33v9.01001c-0.26001,0-0.52002,0.09998-0.71002,0.27997c-0.88,0.88-2.04999,1.37-3.28998,1.37
		c-0.71002,0-1.38-0.16998-2-0.46997V33H44z M49.63,43.34998C48.42999,43.78998,47.12,43.70996,46,43.19V33h1
		c0.54999,0,1-0.45001,1-1c0-3.85999-3.14001-7-7-7s-7,3.14001-7,7c0,0.54999,0.45001,1,1,1h1v9
		c-0.26001,0-0.51001,0.09998-0.71002,0.28998c-0.88,0.88-2.04999,1.37-3.28998,1.37s-2.40997-0.48999-3.28998-1.37
		C28.51001,42.09998,28.26001,42,28,42v-9h1c0.54999,0,1-0.45001,1-1c0-3.85999-3.14001-7-7-7s-7,3.14001-7,7
		c0,0.54999,0.45001,1,1,1h1v10.19c-1.12,0.51996-2.42999,0.59998-3.63,0.15997L13.34998,23h37.30005L49.63,43.34998z"/>
	<path d="M34,14h-2.13135l0.96338-1.44531c0.30615-0.45947,0.18213-1.08057-0.27734-1.38672
		c-0.45996-0.30762-1.08008-0.18213-1.38672,0.27734l-2,3c-0.20459,0.30664-0.22363,0.70117-0.0498,1.02637
		C29.29248,15.79688,29.63135,16,30,16h2.13135l-0.96338,1.44531c-0.30613,0.45944-0.18215,1.08048,0.27725,1.38666
		c0.43147,0.28756,1.07198,0.19456,1.38681-0.27728l2-3c0.20459-0.30664,0.22363-0.70117,0.0498-1.02637
		C34.70752,14.20312,34.36865,14,34,14z"/>
	<circle cx="56" cy="38" r="1"/>
</g>
</svg>
