<?xml version="1.0" encoding="UTF-8"?>
<svg id="Outline" xmlns="http://www.w3.org/2000/svg" version="1.1" viewBox="0 0 48 48">
  <path d="M41,32v-7c0-1.65002-1.34998-3-3-3h-5c-.40997,0-.78003-.25-.92999-.64001-.02002-.03003-.03003-.07001-.04999-.09998l-2.97003-5.43005c-.45996-1.09998-1.56-1.82996-2.76001-1.82996h-.28998v-2h2c.54999,0,1-.45001,1-1s-.45001-1-1-1H10c-.54999,0-1,.45001-1,1s.45001,1,1,1h2v2c-1.65002,0-3,1.34998-3,3v1h-1c-1.65002,0-3,1.34998-3,3v6c0,1.64996,1.34998,3,3,3h1v2c-1.09998,0-2,.89996-2,2v2c0,1.09998.90002,2,2,2h4.03003c.90997,1.20996,2.33997,2,3.96997,2s3.06-.79004,3.96997-2h8.06006c.90997,1.20996,2.33997,2,3.96997,2s3.06-.79004,3.96997-2h4.03003c1.09998,0,2-.90002,2-2v-2c0-1.10004-.90002-2-2-2ZM22,12h2v2h-2v-2ZM18,12h2v2h-2v-2ZM14,12h2v2h-2v-2ZM8,28c-.54999,0-1-.45001-1-1v-6c0-.54999.45001-1,1-1h1v8h-1ZM12.09998,36h-3.09998v-2h3.09998c-.06.32001-.09998.65997-.09998,1,0,.33997.03998.67999.09998,1ZM17,38c-1.65002,0-3-1.35004-3-3s1.34998-3,3-3,3,1.34998,3,3-1.34998,3-3,3ZM28.09998,36h-6.19995c.06-.32001.09998-.66003.09998-1,0-.34003-.03998-.67999-.09998-1h6.19995c-.06.32001-.09998.65997-.09998,1,0,.33997.03998.67999.09998,1ZM33,38c-1.65002,0-3-1.35004-3-3s1.34998-3,3-3,3,1.34998,3,3-1.34998,3-3,3ZM33,30c-1.63,0-3.06.78998-3.96997,2h-8.06006c-.90997-1.21002-2.33997-2-3.96997-2s-3.06.78998-3.96997,2h-2.03003v-15c0-.54999.45001-1,1-1h14.28998c.41003,0,.78003.25.92999.63.01001.03998.03003.07001.05005.10999l2.96997,5.42999c.47998,1.12,1.54999,1.83002,2.76001,1.83002h5c.54999,0,1,.45001,1,1v2h-2c-.54999,0-1,.45001-1,1s.45001,1,1,1h2v3h-2.03003c-.90997-1.21002-2.33997-2-3.96997-2ZM41,36h-3.09998c.06-.32001.09998-.66003.09998-1,0-.34003-.03998-.67999-.09998-1h3.09998v2Z" fill="#000" stroke-width="0"/>
  <path d="M38,15c2.75684,0,5-2.24316,5-5s-2.24316-5-5-5-5,2.24316-5,5,2.24316,5,5,5ZM38,7c1.6543,0,3,1.3457,3,3s-1.3457,3-3,3-3-1.3457-3-3,1.3457-3,3-3Z" fill="#000" stroke-width="0"/>
  <path d="M14,26h14c.34668,0,.66846-.17969.85059-.47461s.19873-.66309.04395-.97266l-3-6c-.16943-.33887-.51562-.55273-.89453-.55273h-11c-.55225,0-1,.44727-1,1v6c0,.55273.44775,1,1,1ZM19,24v-4h2v4h-2ZM26.38184,24h-3.38184v-4h1.38184l2,4ZM15,20h2v4h-2v-4Z" fill="#000" stroke-width="0"/>
  <circle cx="17" cy="35" r="1" fill="#000" stroke-width="0"/>
  <circle cx="33" cy="35" r="1" fill="#000" stroke-width="0"/>
</svg>