<?xml version="1.0" encoding="utf-8"?>
<!-- Generator: Adobe Illustrator 27.3.1, SVG Export Plug-In . SVG Version: 6.00 Build 0)  -->
<svg version="1.1" id="Outline" xmlns="http://www.w3.org/2000/svg" xmlns:xlink="http://www.w3.org/1999/xlink" x="0px" y="0px"
	 viewBox="0 0 48 48" enable-background="new 0 0 48 48" xml:space="preserve">
<g>
	<circle cx="8" cy="18" r="1"/>
	<path d="M32,24H20c-0.55273,0-1,0.44727-1,1s0.44727,1,1,1h12c0.55273,0,1-0.44727,1-1S32.55273,24,32,24z"/>
	<path d="M32,20H20c-0.55273,0-1,0.44727-1,1s0.44727,1,1,1h12c0.55273,0,1-0.44727,1-1S32.55273,20,32,20z"/>
	<path d="M32,16H20c-0.55273,0-1,0.44727-1,1s0.44727,1,1,1h12c0.55273,0,1-0.44727,1-1S32.55273,16,32,16z"/>
	<path d="M42,32h-1V11c0-1.6543-1.3457-3-3-3H10c-1.6543,0-3,1.3457-3,3v3c0,0.55273,0.44727,1,1,1s1-0.44727,1-1v-3
		c0-0.55176,0.44824-1,1-1h28c0.55176,0,1,0.44824,1,1v21c0,0-8.99782,0-9,0c-0.18135,0-0.40254,0.06644-0.55469,0.16797
		L26.69727,34h-5.39453c0,0-2.74742-1.83161-2.74809-1.83206C18.39974,32.0647,18.18555,32,18,32H9V22c0-0.55273-0.44727-1-1-1
		s-1,0.44727-1,1v10H6c-0.55273,0-1,0.44727-1,1v2c0,2.75684,2.24316,5,5,5h28c2.75684,0,5-2.24316,5-5v-2
		C43,32.44727,42.55273,32,42,32z M41,35c0,1.6543-1.3457,3-3,3H10c-1.6543,0-3-1.3457-3-3v-1h1h9.69727l2.74805,1.83203
		C20.60938,35.94141,20.80273,36,21,36h6c0.19727,0,0.39062-0.05859,0.55469-0.16797L30.30273,34H40h1V35z"/>
	<path d="M36,30c0.55273,0,1-0.44727,1-1V13c0-0.55273-0.44727-1-1-1H12c-0.55273,0-1,0.44727-1,1v16c0,0.55273,0.44727,1,1,1H36z
		 M13,14h22v14H13V14z"/>
	<circle cx="16" cy="25" r="1"/>
	<path d="M16,16c-0.55273,0-1,0.44727-1,1v4c0,0.55273,0.44727,1,1,1s1-0.44727,1-1v-4C17,16.44727,16.55273,16,16,16z"/>
</g>
</svg>
