<?xml version="1.0" encoding="UTF-8"?>
<svg id="Outline" xmlns="http://www.w3.org/2000/svg" version="1.1" viewBox="0 0 64 64">
  <path d="M44,11c-3.85986,0-7,3.14062-7,7,0,5.40625,6.1001,10.55176,6.35986,10.76855.18555.1543.4126.23145.64014.23145s.45459-.07715.64014-.23145c.25977-.2168,6.35986-5.3623,6.35986-10.76855,0-3.85938-3.14014-7-7-7ZM44,26.65234c-1.47852-1.39941-5-5.10449-5-8.65234,0-2.75684,2.24316-5,5-5s5,2.24316,5,5c0,3.54785-3.52148,7.25293-5,8.65234Z" fill="#000" stroke-width="0"/>
  <path d="M44,15c-1.6543,0-3,1.3457-3,3s1.3457,3,3,3,3-1.3457,3-3-1.3457-3-3-3ZM44,19c-.55127,0-1-.44824-1-1s.44873-1,1-1,1,.44824,1,1-.44873,1-1,1Z" fill="#000" stroke-width="0"/>
  <path d="M44,7c-7.16846,0-13,5.83203-13,13,0,.34009.02533.67395.05109,1.00757l-2.72101-.9519c-.21387-.07422-.44678-.07422-.66064,0l-20,7c-.40088.14062-.66943.51953-.66943.94434v21c0,.4248.26855.80371.66943.94434l20,7c.21619.07501.44476.07275.66113,0l20-7c.40088-.14062.66943-.51953.66943-.94434v-17.00293c4.69312-1.96332,8-6.60028,8-11.99707,0-7.16797-5.83154-13-13-13ZM9,42.38708l10,3.33362v1.8916l-10-3.3327v-1.89252ZM28,33.94043l-5.8999-2.06445c-.52051-.18164-1.0918.09375-1.27393.61426-.18262.52148.09229,1.0918.61377,1.27441l5.56006,1.94531v18.88043l-18-6.30035v-1.90302s10.68359,3.56122,10.68372,3.56122c.6297.21381,1.31628-.28351,1.31628-.94824v-4c0-.43066-.27539-.8125-.68359-.94824l-11.31641-3.77216v-1.89258s10.68182,3.56061,10.68359,3.56122c.50201.1673,1.09003-.10651,1.26514-.63184.1748-.52441-.1084-1.09082-.63232-1.26465l-11.31641-3.77216v-6.86993l4.8999,1.71436c.10889.03809.2207.05566.33008.05566.41309,0,.7998-.25781.94385-.66992.18262-.52148-.09229-1.0918-.61377-1.27441l-3.53131-1.23547,16.97125-5.94031,3.43036,1.20026c.81726,3.14703,2.7749,5.83594,5.41754,7.58466l-8.8479,3.09595ZM47,44.2796l-10,3.3327v-1.8916l10-3.33362v1.89252ZM47,36.2796l-11.31641,3.77216c-.52393.17383-.80713.74023-.63232,1.26465.13965.41895.52979.68359.94873.68359.10449,0,.21143-.0166.31641-.05176l10.68359-3.56122v1.89258l-11.31641,3.77216c-.4082.13574-.68359.51758-.68359.94824v4c0,.64532.70001,1.15759,1.31641.94824l10.68359-3.56122v1.90302l-18,6.30035v-18.88043l10.29871-3.60333c1.46027.56915,3.04205.89337,4.70129.89337,1.034,0,2.0351-.13422,3-.3634v3.64301ZM44,31c-6.06543,0-11-4.93457-11-11s4.93457-11,11-11,11,4.93457,11,11-4.93457,11-11,11Z" fill="#000" stroke-width="0"/>
  <circle cx="18" cy="31.5" r="1" fill="#000" stroke-width="0"/>
</svg>