<?xml version="1.0" encoding="UTF-8"?>
<svg id="Outline" xmlns="http://www.w3.org/2000/svg" version="1.1" viewBox="0 0 48 48">
  <path d="M32,9h-2v-1c0-1.6543-1.3457-3-3-3h-6c-1.6543,0-3,1.3457-3,3v1h-2c-1.6543,0-3,1.3457-3,3v28c0,1.6543,1.3457,3,3,3h16c1.6543,0,3-1.3457,3-3V12c0-1.6543-1.3457-3-3-3ZM20,8c0-.55176.44873-1,1-1h6c.55127,0,1,.44824,1,1v1h-8v-1ZM33,40c0,.55176-.44873,1-1,1h-16c-.55127,0-1-.44824-1-1V12c0-.55176.44873-1,1-1h16c.55127,0,1,.44824,1,1v28Z" fill="#000" stroke-width="0"/>
  <path d="M28,18v-1c0-2.20605-1.79443-4-4-4s-4,1.79395-4,4v1c-1.6543,0-3,1.3457-3,3v9c0,1.6543,1.3457,3,3,3h8c1.6543,0,3-1.3457,3-3v-9c0-1.6543-1.3457-3-3-3ZM22,17c0-1.10254.89697-2,2-2s2,.89746,2,2v1h-4v-1ZM29,30c0,.55176-.44873,1-1,1h-8c-.55127,0-1-.44824-1-1v-9c0-.55176.44873-1,1-1h8c.55127,0,1,.44824,1,1v9Z" fill="#000" stroke-width="0"/>
  <path d="M24,22c-1.10455,0-2,.89539-2,2,0,.7384.40472,1.37616,1,1.7226v2.2774c0,.55273.44775,1,1,1s1-.44727,1-1v-2.2774c.59528-.34644,1-.98419,1-1.7226,0-1.10461-.89545-2-2-2Z" fill="#000" stroke-width="0"/>
  <path d="M26,35c-.55225,0-1,.44727-1,1v2c0,.55273.44775,1,1,1s1-.44727,1-1v-2c0-.55273-.44775-1-1-1Z" fill="#000" stroke-width="0"/>
  <path d="M30,35c-.55225,0-1,.44727-1,1v2c0,.55273.44775,1,1,1s1-.44727,1-1v-2c0-.55273-.44775-1-1-1Z" fill="#000" stroke-width="0"/>
  <path d="M22,35c-.55225,0-1,.44727-1,1v2c0,.55273.44775,1,1,1s1-.44727,1-1v-2c0-.55273-.44775-1-1-1Z" fill="#000" stroke-width="0"/>
  <path d="M18,35c-.55225,0-1,.44727-1,1v2c0,.55273.44775,1,1,1s1-.44727,1-1v-2c0-.55273-.44775-1-1-1Z" fill="#000" stroke-width="0"/>
</svg>