<?xml version="1.0" encoding="UTF-8"?>
<svg xmlns="http://www.w3.org/2000/svg" version="1.1" viewBox="0 0 64 64">
  <!-- Generator: Adobe Illustrator 28.7.1, SVG Export Plug-In . SVG Version: 1.2.0 Build 142)  -->
  <g>
    <g id="Outline">
      <g>
        <path d="M52,25c1.6543,0,3-1.3457,3-3v-1.18427c1.1615-.41412,2-1.51379,2-2.81573,0-1.6543-1.3457-3-3-3s-3,1.3457-3,3c0,1.30194.8385,2.40155,2,2.81567v1.18433c0,.55127-.44824,1-1,1h-3v-5c0-1.6543-1.3457-3-3-3v-3c0-.55127.44824-1,1-1h4.18433c.41412,1.1615,1.51373,2,2.81567,2,1.6543,0,3-1.3457,3-3s-1.3457-3-3-3c-1.30194,0-2.40161.8385-2.81573,2h-4.18427c-1.6543,0-3,1.3457-3,3v3h-4v-5c0-.55225-.44727-1-1-1s-1,.44775-1,1v5h-5v-2.18427c1.1615-.41412,2-1.51379,2-2.81573,0-1.6543-1.3457-3-3-3s-3,1.3457-3,3c0,1.30194.8385,2.40155,2,2.81567v2.18433h-5v-5c0-.55225-.44727-1-1-1s-1,.44775-1,1v5h-4v-3c0-1.6543-1.3457-3-3-3h-4.18427c-.41412-1.1615-1.51379-2-2.81573-2-1.6543,0-3,1.3457-3,3s1.3457,3,3,3c1.30194,0,2.40161-.8385,2.81573-2h4.18427c.55176,0,1,.44873,1,1v3c-1.6543,0-3,1.3457-3,3v5h-3c-.55176,0-1-.44873-1-1v-1.18427c1.1615-.41412,2-1.51379,2-2.81573,0-1.6543-1.3457-3-3-3s-3,1.3457-3,3c0,1.30194.8385,2.40155,2,2.81567v1.18433c0,1.6543,1.3457,3,3,3h3v2h-5c-.55273,0-1,.44775-1,1s.44727,1,1,1h5v2h-5c-.55273,0-1,.44775-1,1s.44727,1,1,1h5v2h-5c-.55273,0-1,.44775-1,1s.44727,1,1,1h5v2h-3c-1.6543,0-3,1.3457-3,3v1.18427c-1.1615.41412-2,1.51379-2,2.81573,0,1.6543,1.3457,3,3,3s3-1.3457,3-3c0-1.30194-.8385-2.40161-2-2.81573v-1.18427c0-.55127.44824-1,1-1h3v5c0,1.6543,1.3457,3,3,3v3c0,.55127-.44824,1-1,1h-4.18427c-.41412-1.1615-1.51379-2-2.81573-2-1.6543,0-3,1.3457-3,3s1.3457,3,3,3c1.30194,0,2.40161-.8385,2.81573-2h4.18427c1.6543,0,3-1.3457,3-3v-3h4v5c0,.55225.44727,1,1,1s1-.44775,1-1v-5h5v2.18427c-1.1615.41412-2,1.51379-2,2.81573,0,1.6543,1.3457,3,3,3s3-1.3457,3-3c0-1.30194-.8385-2.40161-2-2.81573v-2.18427h5v5c0,.55225.44727,1,1,1s1-.44775,1-1v-5h4v3c0,1.6543,1.3457,3,3,3h4.18433c.41412,1.1615,1.51373,2,2.81567,2,1.6543,0,3-1.3457,3-3s-1.3457-3-3-3c-1.30194,0-2.40161.8385-2.81573,2h-4.18427c-.55176,0-1-.44873-1-1v-3c1.6543,0,3-1.3457,3-3v-5h3c.55176,0,1,.44873,1,1v1.18427c-1.1615.41412-2,1.51379-2,2.81573,0,1.6543,1.3457,3,3,3s3-1.3457,3-3c0-1.30194-.8385-2.40161-2-2.81573v-1.18427c0-1.6543-1.3457-3-3-3h-3v-2h5c.55273,0,1-.44775,1-1s-.44727-1-1-1h-5v-2h5c.55273,0,1-.44775,1-1s-.44727-1-1-1h-5v-2h5c.55273,0,1-.44775,1-1s-.44727-1-1-1h-5v-2h3ZM54,17c.55176,0,1,.44873,1,1s-.44824,1-1,1-1-.44873-1-1,.44824-1,1-1ZM54,9c.55176,0,1,.44873,1,1s-.44824,1-1,1-1-.44873-1-1,.44824-1,1-1ZM10,11c-.55176,0-1-.44873-1-1s.44824-1,1-1,1,.44873,1,1-.44824,1-1,1ZM10,19c-.55176,0-1-.44873-1-1s.44824-1,1-1,1,.44873,1,1-.44824,1-1,1ZM10,47c-.55176,0-1-.44873-1-1s.44824-1,1-1,1,.44873,1,1-.44824,1-1,1ZM10,55c-.55176,0-1-.44873-1-1s.44824-1,1-1,1,.44873,1,1-.44824,1-1,1ZM54,53c.55176,0,1,.44873,1,1s-.44824,1-1,1-1-.44873-1-1,.44824-1,1-1ZM32,9c.55176,0,1,.44873,1,1s-.44824,1-1,1-1-.44873-1-1,.44824-1,1-1ZM32,55c-.55176,0-1-.44873-1-1s.44824-1,1-1,1,.44873,1,1-.44824,1-1,1ZM47,46c0,.55127-.44824,1-1,1h-28c-.55176,0-1-.44873-1-1v-28c0-.55127.44824-1,1-1h28c.55176,0,1,.44873,1,1v28ZM54,45c.55176,0,1,.44873,1,1s-.44824,1-1,1-1-.44873-1-1,.44824-1,1-1Z"/>
        <path d="M41.99805,28.12598c.00098-.04199.00195-.08398.00195-.12598,0-2.0459-1.54395-3.73828-3.52832-3.97217-.69434-1.23633-2.01367-2.02783-3.47168-2.02783-1.2005,0-2.2663.54236-3,1.3822-.7337-.83984-1.7995-1.3822-3-1.3822-1.45801,0-2.77734.7915-3.47168,2.02783-1.98438.23389-3.52832,1.92627-3.52832,3.97217,0,.04199.00098.08398.00195.12598-1.72461.44434-3.00195,2.0127-3.00195,3.87402s1.27734,3.42969,3.00195,3.87402c-.00098.04199-.00195.08398-.00195.12598,0,2.0459,1.54395,3.73828,3.52832,3.97217.69434,1.23633,2.01367,2.02783,3.47168,2.02783,1.2005,0,2.2663-.54236,3-1.3822.7337.83984,1.7995,1.3822,3,1.3822,1.45801,0,2.77734-.7915,3.47168-2.02783,1.98438-.23389,3.52832-1.92627,3.52832-3.97217,0-.04199-.00098-.08398-.00195-.12598,1.72461-.44434,3.00195-2.0127,3.00195-3.87402s-1.27734-3.42969-3.00195-3.87402ZM31,38c0,1.10303-.89746,2-2,2-.84766,0-1.60156-.53613-1.87402-1.3335-.14062-.41016-.53906-.67969-.96387-.67969-.05371,0-.1084.00439-.16211.01318-1.10254,0-2-.89697-2-2,0-.22314.04102-.44141.12695-.66846.11523-.30711.07227-.65132-.11422-.92085-.19052-.27534-.66506-.55349-1.01273-.41069-1.10254,0-2-.89697-2-2s.89746-2,1.9428-2.0014c.41379.05938.82174-.05066,1.06989-.40924.18652-.26953.22949-.61377.11426-.9209-.08594-.22705-.12695-.44531-.12695-.66846,0-1.10303.89746-2,2.01758-2.00342.48242.07715.9502-.20117,1.1084-.66309.27246-.79736,1.02637-1.3335,1.87402-1.3335,1.10254,0,2,.89697,2,2v12ZM41.05697,34.00137c-.41339-.05915-.82137.05048-1.06966.40927-.18652.26953-.22949.61377-.11426.9209.08594.22705.12695.44531.12695.66846,0,1.10303-.89746,2-2.01758,2.00342-.48438-.07715-.9502.20068-1.1084.66309-.27246.79736-1.02637,1.3335-1.87402,1.3335-1.10254,0-2-.89697-2-2v-12c0-1.10303.89746-2,2-2,.84766,0,1.60156.53613,1.87402,1.3335.1582.46191.64648.74414,1.12598.6665,1.10254,0,2,.89697,2,2,0,.22314-.04102.44141-.12695.66846-.11522.3071-.07227.6513.1142.92082.18375.26557.67699.54862,1.01275.41072,1.10254,0,2,.89697,2,2s-.89746,2-1.94303,2.00137Z"/>
      </g>
    </g>
  </g>
</svg>