<?xml version="1.0" encoding="UTF-8"?>
<svg id="Outline" xmlns="http://www.w3.org/2000/svg" version="1.1" viewBox="0 0 48 48">
  <path d="M20,9h-4c-.55225,0-1,.44727-1,1s.44775,1,1,1h4c.55225,0,1-.44727,1-1s-.44775-1-1-1Z" fill="#000" stroke-width="0"/>
  <path d="M32,9h-4c-.55225,0-1,.44727-1,1s.44775,1,1,1h4c.55225,0,1-.44727,1-1s-.44775-1-1-1Z" fill="#000" stroke-width="0"/>
  <circle cx="24" cy="10" r="1" fill="#000" stroke-width="0"/>
  <path d="M42,41h-7.98633V15c0-.00049-.00024-.00085-.00024-.00134,1.64801-.00745,2.98657-1.34894,2.98657-2.99866v-4c0-1.6543-1.3457-3-3-3H14c-1.6543,0-3,1.3457-3,3v4c0,1.6543,1.3457,3,3,3v26H6c-.55225,0-1,.44727-1,1s.44775,1,1,1h36c.55225,0,1-.44727,1-1s-.44775-1-1-1ZM32.01367,41h-16.01367V15h16.01367v26ZM14,13c-.55127,0-1-.44824-1-1v-4c0-.55176.44873-1,1-1h20c.55127,0,1,.44824,1,1v4c0,.55176-.44873,1-1,1H14Z" fill="#000" stroke-width="0"/>
  <path d="M24,25c1.59619,0,3.10303-.62109,4.24316-1.74902.39258-.38867.396-1.02148.00781-1.41406-.38867-.39355-1.02148-.39551-1.41406-.00781-1.52637,1.50977-4.14746,1.50977-5.67383,0-.39209-.3877-1.0249-.38574-1.41406.00781-.38818.39258-.38477,1.02539.00781,1.41406,1.14014,1.12793,2.64697,1.74902,4.24316,1.74902Z" fill="#000" stroke-width="0"/>
  <circle cx="24" cy="19" r="2" fill="#000" stroke-width="0"/>
</svg>