<?xml version="1.0" encoding="UTF-8"?>
<svg xmlns="http://www.w3.org/2000/svg" version="1.1" viewBox="0 0 48 48">
  <!-- Generator: Adobe Illustrator 28.7.1, SVG Export Plug-In . SVG Version: 1.2.0 Build 142)  -->
  <g>
    <g id="Outline">
      <g>
        <path d="M33,25c5.51367,0,10-4.48584,10-10,0-1.88721-.53418-3.72852-1.54492-5.32471-.29492-.4668-.91309-.60498-1.37988-.31055-.4668.29541-.60547.91357-.30957,1.37988.80762,1.27637,1.23438,2.74756,1.23438,4.25537,0,4.41113-3.58887,8-8,8s-8-3.58887-8-8,3.58887-8,8-8c1.50879,0,2.97949.42725,4.25488,1.23486.4668.29395,1.08398.15625,1.37988-.30957.2959-.46631.15723-1.08447-.30957-1.37988-1.5957-1.01123-3.4375-1.54541-5.3252-1.54541-2.20819,0-4.24475.72827-5.90118,1.94519-2.14886-1.27032-4.58527-1.94519-7.09882-1.94519-7.71973,0-14,6.28027-14,14,0,3.36389,2.54828,7.55792,5.41705,11.21637-4.04553,1.2738-6.41705,3.37939-6.41705,5.78363,0,3.99072,6.44824,7,15,7s15-3.00928,15-7c0-2.40405-2.37115-4.50952-6.41608-5.78333,1.32751-1.68884,2.57611-3.48492,3.54352-5.26086.28815.02509.57806.04419.87256.04419ZM25.78711,21.90802c-1.29022,1.91913-3.44061,3.09198-5.78711,3.09198-3.85938,0-7-3.14014-7-7s3.14062-7,7-7c1.23596,0,2.41986.33783,3.47961.94989-.30914.96246-.47961,1.98633-.47961,3.05011,0,2.67957,1.06519,5.11084,2.78711,6.90802ZM33,36c0,2.36475-5.33887,5-13,5s-13-2.63525-13-5c0-1.53918,2.30078-3.15332,5.78583-4.1026.49683.58893.9928,1.15839,1.47687,1.69684-2.32483.51599-3.69171,1.22534-4.22656,1.55371-.29688.18213-.47656.50537-.47656.85303,0,.34814.18164.6709.47852.85205.82324.50391,3.97656,2.14697,9.96191,2.14697s9.13867-1.64307,9.96191-2.14697c.29688-.18115.47852-.50391.47852-.85205,0-.34766-.17969-.6709-.47656-.85303-.53467-.32874-1.90326-1.03906-4.22876-1.55536.48639-.54022.98187-1.10394,1.48108-1.69464,3.48407.9494,5.78381,2.56317,5.78381,4.10205ZM24.13318,35.32141c1.16302.18805,2.11639.43243,2.84924.67712-1.03247.34619-2.48444.69708-4.36945.87701.45483-.45264.96625-.97382,1.5202-1.55414ZM17.38409,36.87524c-1.88287-.17993-3.33374-.53021-4.36554-.87622.73163-.24402,1.68427-.4881,2.8465-.67603.55194.57861,1.06488,1.10022,1.51904,1.55225ZM19.99609,36.63135c-3.8916-3.68408-11.99609-12.43262-11.99609-17.63135,0-6.6167,5.38281-12,12-12,1.94482,0,3.83484.47369,5.53906,1.36487-.4754.53394-.8974,1.11499-1.25085,1.74182-1.31366-.71735-2.77173-1.10669-4.28821-1.10669-4.96289,0-9,4.0376-9,9s4.03711,9,9,9c2.93939,0,5.64862-1.42438,7.32098-3.77899.83289.57715,1.75494,1.03345,2.7442,1.33783-2.90503,5.01251-8.2049,10.2901-10.06909,12.07251Z"/>
        <path d="M33,21c.55273,0,1-.44775,1-1v-1.14197c1.39899-.36365,2.49438-1.45923,2.85797-2.85803h1.14203c.55273,0,1-.44775,1-1s-.44727-1-1-1h-1.14203c-.36359-1.3988-1.45898-2.49438-2.85797-2.85803v-1.14197c0-.55225-.44727-1-1-1s-1,.44775-1,1v1.14197c-1.39899.36365-2.49438,1.45923-2.85797,2.85803h-1.14203c-.55273,0-1,.44775-1,1s.44727,1,1,1h1.14203c.36359,1.3988,1.45898,2.49438,2.85797,2.85803v1.14197c0,.55225.44727,1,1,1ZM31,15c0-1.10303.89746-2,2-2s2,.89697,2,2-.89746,2-2,2-2-.89697-2-2Z"/>
      </g>
    </g>
  </g>
</svg>