<?xml version="1.0" encoding="UTF-8"?>
<svg xmlns="http://www.w3.org/2000/svg" version="1.1" viewBox="0 0 48 48">
  <!-- Generator: Adobe Illustrator 28.7.1, SVG Export Plug-In . SVG Version: 1.2.0 Build 142)  -->
  <g>
    <g id="Outline">
      <g>
        <path d="M37.31641,25.41211l-8.02423-8.01459c-.65607-1.63861-1.73492-3.07874-3.09973-4.1759l6.51459-6.51459c.39062-.39062.39062-1.02344,0-1.41406s-1.02344-.39062-1.41406,0l-6.81519,6.81519c-1.35687-.70129-2.87848-1.10815-4.47778-1.10815s-3.12091.40686-4.47778,1.10815l-6.81519-6.81519c-.39062-.39062-1.02344-.39062-1.41406,0s-.39062,1.02344,0,1.41406l6.51459,6.51459c-2.3017,1.85034-3.80756,4.67389-3.80756,7.77838v5c0,.55273.44775,1,1,1s1-.44727,1-1v-5c0-2.56305,1.2851-4.88367,3.22693-6.35901l2.07367,2.07367c-.18713.39111-.3006.82361-.3006,1.28534,0,1.6543,1.3457,3,3,3s3-1.3457,3-3c0-.46173-.11346-.89423-.3006-1.28534l2.07367-2.07367c1.94183,1.47534,3.22693,3.79596,3.22693,6.35901v12c0,4.33691-3.66357,8-8,8-4.41113,0-8-3.58887-8-8v-3c0-.55273-.44775-1-1-1s-1,.44727-1,1v3c0,5.51367,4.48584,10,10,10,2.02759,0,3.93713-.6413,5.53375-1.72717,1.49054.80426,3.10559,1.22229,4.71918,1.22229,2.57324,0,5.12158-1.00195,7.06494-2.93945,3.88867-3.89844,3.88867-10.24316-.00146-14.14355ZM20,19c-.55127,0-1-.44824-1-1s.44873-1,1-1,1,.44824,1,1-.44873,1-1,1ZM21.28534,15.3006c-.39111-.18713-.82361-.3006-1.28534-.3006s-.89423.11346-1.28534.3006l-1.69684-1.69684c.92725-.38574,1.93414-.60376,2.98218-.60376s2.05493.21802,2.98218.60376l-1.69684,1.69684ZM30,26.58081l3.06934,3.06274c1.55078,1.56738,1.55566,4.11133.00977,5.67285-.93976.9505-2.38574,1.32843-3.69861,1.05011.39294-1.05872.61951-2.19037.61951-3.36652v-6.41919ZM35.90381,38.1416c-2.34021,2.33118-5.77399,2.966-8.72339,1.72906.48926-.51031.92285-1.07135,1.29852-1.672.55963.16724,1.14075.25739,1.72467.25739,1.58936,0,3.18066-.60449,4.29688-1.73242,2.31396-2.33691,2.30957-6.14355-.01416-8.49121l-4.48633-4.4776v-2.75482c0-.02423-.0036-.04779-.00378-.07202l5.90564,5.89819c3.11182,3.12012,3.11182,8.19727.00195,11.31543Z"/>
        <path d="M15,25h10c.55225,0,1-.44727,1-1s-.44775-1-1-1h-10c-.55225,0-1,.44727-1,1s.44775,1,1,1Z"/>
        <path d="M15,29h10c.55225,0,1-.44727,1-1s-.44775-1-1-1h-10c-.55225,0-1,.44727-1,1s.44775,1,1,1Z"/>
        <path d="M15,33h10c.55225,0,1-.44727,1-1s-.44775-1-1-1h-10c-.55225,0-1,.44727-1,1s.44775,1,1,1Z"/>
        <circle cx="16" cy="36" r="1"/>
        <circle cx="20" cy="36" r="1"/>
        <circle cx="24" cy="36" r="1"/>
      </g>
    </g>
  </g>
</svg>