<?xml version="1.0" encoding="UTF-8"?>
<svg xmlns="http://www.w3.org/2000/svg" version="1.1" viewBox="0 0 48 48">
  <!-- Generator: Adobe Illustrator 28.7.1, SVG Export Plug-In . SVG Version: 1.2.0 Build 142)  -->
  <g>
    <g id="Outline">
      <g>
        <path d="M40,37v-14c1.65002,0,3-1.35004,3-3s-1.34998-3-3-3H8c-1.65002,0-3,1.34998-3,3s1.34998,3,3,3v14c-1.63,0-3,1.37-3,3,0,1.64996,1.34998,3,3,3h17c.54999,0,1-.45001,1-1s-.45001-1-1-1H8c-.54999,0-1-.45001-1-1,0-.53003.46997-1,1-1h32c.54999,0,1,.45001,1,1,0,.52997-.46997,1-1,1h-7c-.54999,0-1,.45001-1,1s.45001,1,1,1h7c1.63,0,3-1.37,3-3,0-1.65002-1.34998-3-3-3ZM38,37H10v-2h28v2ZM24,32.58997l-5.59003-5.58997h11.18005l-5.59003,5.58997ZM31.95001,27.45996l4.84998,5.54004h-10.39001l5.54004-5.54004ZM21.59003,33h-10.39001l4.84998-5.54004,5.54004,5.54004ZM10,31.33997v-4.33997h3.79999l-3.79999,4.33997ZM38,31.33997l-3.79999-4.33997h3.79999v4.33997ZM38,25H10v-2h28v2ZM8,21c-.54999,0-1-.45001-1-1s.45001-1,1-1h32c.54999,0,1,.45001,1,1s-.45001,1-1,1H8Z"/>
        <path d="M6.92188,6.90332l10.10925,4.78851c-.01068.10272-.03113.20264-.03113.30817,0,1.6543,1.3457,3,3,3s3-1.3457,3-3-1.3457-3-3-3c-.82788,0-1.57837.33716-2.1217.88123L7.77734,5.09668c-.49707-.23633-1.09473-.02441-1.33105.47559-.2373.49902-.02344,1.09473.47559,1.33105ZM20,11c.55176,0,1,.44824,1,1s-.44824,1-1,1-1-.44824-1-1,.44824-1,1-1Z"/>
        <path d="M28,15c1.6543,0,3-1.3457,3-3,0-.10553-.02045-.20544-.03113-.30817l10.10925-4.78851c.49902-.23633.71289-.83203.47559-1.33105-.23633-.5-.83398-.71191-1.33105-.47559l-10.10095,4.78455c-.54333-.54407-1.29382-.88123-2.1217-.88123-1.6543,0-3,1.3457-3,3s1.3457,3,3,3ZM28,11c.55176,0,1,.44824,1,1s-.44824,1-1,1-1-.44824-1-1,.44824-1,1-1Z"/>
        <circle cx="29" cy="42" r="1"/>
      </g>
    </g>
  </g>
</svg>