<?xml version="1.0" encoding="utf-8"?>
<!-- Generator: Adobe Illustrator 27.3.1, SVG Export Plug-In . SVG Version: 6.00 Build 0)  -->
<svg version="1.1" id="Outline" xmlns="http://www.w3.org/2000/svg" xmlns:xlink="http://www.w3.org/1999/xlink" x="0px" y="0px"
	 viewBox="0 0 64 64" enable-background="new 0 0 64 64" xml:space="preserve">
<g>
	<path d="M32.70703,7.29297c-0.39062-0.39062-1.02344-0.39062-1.41406,0C30.5459,8.04004,13,25.72656,13,38
		c0,10.47656,8.52344,19,19,19s19-8.52344,19-19C51,25.72656,33.4541,8.04004,32.70703,7.29297z M32,55c-9.37402,0-17-7.62598-17-17
		c0-10.11914,13.7002-25.10156,17-28.5625C35.2998,12.89844,49,27.88086,49,38C49,47.37402,41.37402,55,32,55z"/>
	<path d="M38.66113,20.38184c-1.75391-2.34473-3.74512-4.76367-5.91602-7.18848c-0.37891-0.42383-1.11133-0.42383-1.49023,0
		c-2.1709,2.4248-4.16211,4.84375-5.91602,7.1875C19.96191,27.56152,17,33.81836,17,38
		c0,6.60449,4.42383,12.52148,10.75684,14.38867c0.53809,0.16016,1.08691-0.14844,1.24219-0.67578
		c0.15625-0.53027-0.14648-1.08594-0.67578-1.24219C22.83398,48.85254,19,43.72363,19,38c0-3.69824,2.89355-9.68262,7.94043-16.4209
		c1.5166-2.02734,3.21582-4.1123,5.05957-6.21191c1.84375,2.09961,3.54297,4.18457,5.05957,6.21289
		C42.10645,28.31738,45,34.30176,45,38c0,5.72363-3.83398,10.85254-9.32324,12.4707
		c-0.52924,0.15625-0.83197,0.71179-0.67584,1.24207c0.14655,0.49744,0.70483,0.83655,1.24225,0.6759
		C42.57617,50.52148,47,44.60449,47,38C47,33.81836,44.03809,27.56152,38.66113,20.38184z"/>
	<path d="M43,38c0-6.06543-4.93457-11-11-11s-11,4.93457-11,11s4.93457,11,11,11S43,44.06543,43,38z M23,38c0-4.96289,4.03711-9,9-9
		s9,4.03711,9,9s-4.03711,9-9,9S23,42.96289,23,38z"/>
	<path d="M35.62665,33.45734c0.22064-0.2207,0.31049-0.53992,0.27008-0.84338c-0.03937-0.29614-0.20276-0.57727-0.4895-0.737
		C34.37988,31.30371,33.20215,31,32,31c-3.85938,0-7,3.14062-7,7c0,1.20209,0.30371,2.37976,0.87689,3.4071
		c0.31989,0.5733,1.11469,0.68524,1.58014,0.21985C27.45703,41.62695,35.57062,33.51331,35.62665,33.45734z M27.12598,39.12988
		C27.04297,38.7627,27,38.38281,27,38c0-2.75684,2.24316-5,5-5c0.38281,0,0.7627,0.04297,1.12988,0.12598L27.12598,39.12988z"/>
	<path d="M39,38c0-0.91113-0.16895-1.79102-0.50293-2.61523c-0.25427-0.62762-1.12274-0.84308-1.63379-0.33203
		c0,0-7.7832,7.7832-7.81049,7.81049c-0.50269,0.50269-0.32086,1.36902,0.33197,1.63385C30.20898,44.83105,31.08887,45,32,45
		C35.85938,45,39,41.85938,39,38z M36.99414,37.75C36.99805,37.83301,37,37.91602,37,38c0,2.75684-2.24316,5-5,5
		c-0.08398,0-0.16699-0.00195-0.25-0.00586L36.99414,37.75z"/>
	<circle cx="32" cy="52" r="1"/>
</g>
</svg>
