<?xml version="1.0" encoding="UTF-8"?>
<svg xmlns="http://www.w3.org/2000/svg" version="1.1" viewBox="0 0 64 64">
  <!-- Generator: Adobe Illustrator 28.7.1, SVG Export Plug-In . SVG Version: 1.2.0 Build 142)  -->
  <g>
    <g id="Outline">
      <g>
        <path d="M32,7c-13.78516,0-25,11.21484-25,25s11.21484,25,25,25c4.45605,0,8.83301-1.19238,12.6582-3.44824.47559-.28027.63379-.89355.35352-1.36914-.28125-.47656-.89551-.63379-1.36914-.35352-3.51758,2.07422-7.54395,3.1709-11.64258,3.1709-12.68262,0-23-10.31738-23-23s10.31738-23,23-23,23,10.31738,23,23c0,5.46387-1.95312,10.75879-5.5,14.91016-.35938.41992-.30957,1.05078.11035,1.40918.41992.35938,1.05078.31055,1.40918-.11035,3.85645-4.5127,5.98047-10.26855,5.98047-16.20898,0-13.78516-11.21484-25-25-25Z"/>
        <path d="M51,32c0,.55273.44727,1,1,1s1-.44727,1-1c0-11.5791-9.4209-21-21-21-.55273,0-1,.44727-1,1s.44727,1,1,1c10.47656,0,19,8.52344,19,19Z"/>
        <path d="M13,32c0-.55273-.44727-1-1-1s-1,.44727-1,1c0,11.5791,9.4209,21,21,21,.55273,0,1-.44727,1-1s-.44727-1-1-1c-10.47656,0-19-8.52344-19-19Z"/>
        <path d="M38.22333,42.7926c.33276.05457.66547.10883.98865.1449,2.58555.28864,6.04565.09869,7.51068-2.43751,1.27081-2.20184.30463-5.33258-2.27081-8.5,2.57544-3.16742,3.54163-6.29816,2.27081-8.5-1.14551-1.98438-3.81055-2.85156-7.51074-2.4375-.32312.03607-.65582.09033-.98859.1449-1.45526-3.80908-3.6825-6.2074-6.22333-6.2074s-4.76807,2.39832-6.22333,6.2074c-.33276-.05457-.66547-.10883-.98859-.1449-3.70117-.41309-6.36523.4541-7.51074,2.4375-1.27081,2.20184-.30463,5.33258,2.27081,8.5-2.57544,3.16742-3.54163,6.29816-2.27081,8.5.95898,1.66112,2.98338,2.53808,5.78608,2.53809.9121,0,1.81451-.09811,2.71324-.24548,1.45526,3.80908,3.6825,6.2074,6.22333,6.2074s4.76807-2.39832,6.22333-6.2074ZM44.99023,39.5c-.71289,1.23633-2.73242,1.76465-5.55664,1.44922-.19019-.02118-.38843-.05737-.58258-.08569.38239-1.35187.67737-2.82849.87201-4.40485,1.26501-.95483,2.39423-1.94666,3.37225-2.9516,1.94043,2.46613,2.64288,4.69781,1.89496,5.99292ZM29,37.19629c-1.0174-.5874-1.96063-1.20044-2.83722-1.82611-.10352-1.07196-.16278-2.19537-.16278-3.37018s.05927-2.29822.16278-3.37018c.87659-.62567,1.81982-1.23871,2.83722-1.82611.99567-.57489,2.00012-1.08636,3-1.54236.99988.45599,2.00433.96747,3,1.54236,1.0174.58752,1.96057,1.20062,2.83722,1.82635.10352,1.0719.16278,2.19519.16278,3.36993,0,1.1748-.05927,2.29822-.16278,3.37018-.87659.62567-1.81982,1.23871-2.83722,1.82611-.99567.57489-2.00012,1.08636-3,1.54236-.99988-.45599-2.00433-.96747-3-1.54236ZM29.50922,39.75342c-.8147.28931-1.61713.53296-2.39917.72748-.22064-.76227-.41632-1.57684-.5777-2.44543.47589.30432.96466.60278,1.46765.89325.50073.28912,1.00446.56305,1.50922.82471ZM24.03949,33.71747c-.66931-.5722-1.27478-1.14703-1.82318-1.71747.5484-.57043,1.15387-1.14526,1.82318-1.71747-.02551.56421-.03949,1.13666-.03949,1.71747s.01398,1.15326.03949,1.71747ZM26.53235,25.96454c.16138-.86859.35706-1.68317.5777-2.44543.78204.19452,1.58447.43817,2.39917.72748-.50476.26166-1.00848.53558-1.50922.82471-.50299.29047-.99176.58893-1.46765.89325ZM34.49078,24.24658c.8147-.28931,1.61713-.53296,2.39917-.72748.22064.76227.41638,1.5769.57776,2.4455-.47589-.30432-.96472-.60278-1.46771-.89331-.50073-.28912-1.00446-.56305-1.50922-.82471ZM39.96051,30.28284c.66925.5722,1.27466,1.14697,1.823,1.71735-.54834.57031-1.15375,1.1452-1.823,1.71735.02551-.56427.03949-1.13672.03949-1.71753,0-.58069-.01398-1.15302-.03949-1.71716ZM36,38.92871c.50299-.29053.99182-.58899,1.46771-.89331-.16138.86859-.35712,1.68323-.57776,2.4455-.78204-.19452-1.58447-.43817-2.39917-.72748.50476-.26166,1.00848-.53558,1.50922-.82471ZM39.43359,23.05078c2.82129-.31445,4.84375.21289,5.55664,1.44922.74792,1.29517.04559,3.52692-1.89478,5.9931-.97803-1.005-2.1073-1.99689-3.37244-2.95178-.19464-1.57635-.48962-3.05298-.87201-4.40485.19415-.02832.3924-.06451.58258-.08569ZM32,17c1.49402,0,3.07355,1.71967,4.23859,4.62646-1.37531.35272-2.79944.84033-4.23859,1.45117-1.43915-.61084-2.86328-1.09845-4.23859-1.45117,1.16504-2.9068,2.74457-4.62646,4.23859-4.62646ZM19.00977,24.5c.57812-1.00195,2.01758-1.53809,4.04395-1.53809.47266,0,.97852.0293,1.5127.08887.19019.02118.38843.05737.58258.08569-.38239,1.35187-.67737,2.82849-.87201,4.40485-1.26514.9549-2.39441,1.94678-3.37244,2.95178-1.94037-2.46619-2.6427-4.69794-1.89478-5.9931ZM24.56641,40.94922c-2.82422.31348-4.84375-.21387-5.55664-1.44922-.74792-1.29517-.04559-3.52692,1.89478-5.9931.97803,1.005,2.1073,1.99689,3.37244,2.95178.19464,1.57635.48962,3.05298.87201,4.40485-.19415.02832-.3924.06451-.58258.08569ZM32,47c-1.49402,0-3.07355-1.71967-4.23859-4.62646,1.37531-.35272,2.79944-.84033,4.23859-1.45117,1.43915.61084,2.86328,1.09845,4.23859,1.45117-1.16504,2.9068-2.74457,4.62646-4.23859,4.62646Z"/>
        <path d="M46.78412,49.61902c-.4231.35498-.47827.98572-.12323,1.40881.35498.4231.98572.47827,1.40881.12329.42303-.35504.47827-.98578.12323-1.40887-.35498-.42303-.98572-.47827-1.40881-.12323Z"/>
      </g>
    </g>
  </g>
</svg>