<?xml version="1.0" encoding="utf-8"?>
<!-- Generator: Adobe Illustrator 28.2.0, SVG Export Plug-In . SVG Version: 6.00 Build 0)  -->
<svg version="1.1" id="Outline" xmlns="http://www.w3.org/2000/svg" xmlns:xlink="http://www.w3.org/1999/xlink" x="0px" y="0px"
	 viewBox="0 0 64 64" enable-background="new 0 0 64 64" xml:space="preserve">
<g>
	<path d="M34,24.00024h-2.13135l0.96338-1.44531c0.30615-0.45996,0.18213-1.08008-0.27734-1.38672
		c-0.45996-0.30566-1.08008-0.18262-1.38672,0.27734l-2,3c-0.20459,0.30664-0.22363,0.70117-0.0498,1.02637
		c0.17432,0.3252,0.51318,0.52832,0.88184,0.52832h2.13135l-0.96338,1.44531c-0.30614,0.45995-0.18213,1.08005,0.27731,1.3867
		c0.43437,0.28991,1.07747,0.1862,1.38675-0.27732l2-3c0.20459-0.30664,0.22363-0.70117,0.0498-1.02637
		C34.70752,24.20337,34.36865,24.00024,34,24.00024z"/>
	<path d="M32,37.00024c1.70508,0,3.35303-0.34863,4.89697-1.03711c0.50488-0.22461,0.73145-0.81543,0.50684-1.32031
		c-0.22559-0.50488-0.81934-0.73438-1.32031-0.50586c-1.28662,0.57227-2.66064,0.86328-4.0835,0.86328c-5.51416,0-10-4.48633-10-10
		c0-4.30469,6.66455-12.11133,10-15.57324c3.33545,3.46191,10,11.26855,10,15.57324c0,1.42285-0.29053,2.79688-0.86377,4.08301
		c-0.22461,0.50488,0.00195,1.0957,0.50684,1.32031c0.50293,0.22656,1.09473-0.00195,1.32031-0.50586
		C43.65137,28.35278,44,26.70532,44,25.00024c0-6.41309-10.83398-17.25098-11.29492-17.70898
		c-0.39062-0.38867-1.01953-0.38867-1.41016,0C30.83398,7.74927,20,18.58716,20,25.00024C20,31.61743,25.3833,37.00024,32,37.00024z
		"/>
	<path d="M32,17.00024c-4.41113,0-8,3.58887-8,8s3.58887,8,8,8s8-3.58887,8-8S36.41113,17.00024,32,17.00024z M32,31.00024
		c-3.30859,0-6-2.69141-6-6s2.69141-6,6-6s6,2.69141,6,6S35.30859,31.00024,32,31.00024z"/>
	<path d="M13.70703,25.70728L14,25.41431v5.58594c0,0.55273,0.44775,1,1,1s1-0.44727,1-1v-5.58594
		c0,0,0.29185,0.29185,0.29296,0.29296c0.36567,0.36567,1.0244,0.38967,1.41407,0c0.39062-0.39062,0.39062-1.02344,0-1.41406l-2-2
		c-0.39062-0.39062-1.02344-0.39062-1.41406,0l-2,2c-0.39062,0.39062-0.39062,1.02344,0,1.41406S13.31641,26.0979,13.70703,25.70728
		z"/>
	<path d="M48.29297,31.70728c0.19531,0.19531,0.45117,0.29297,0.70703,0.29297s0.51172-0.09766,0.70703-0.29297l2-2
		c0.39062-0.39062,0.39062-1.02344,0-1.41406s-1.02344-0.39062-1.41406,0L50,28.58618v-5.58594c0-0.55273-0.44775-1-1-1
		s-1,0.44727-1,1v5.58594l-0.29297-0.29297c-0.39062-0.39062-1.02344-0.39062-1.41406,0s-0.39062,1.02344,0,1.41406
		L48.29297,31.70728z"/>
	<path d="M56.44727,41.10571l-4-2c-0.38623-0.19434-0.8501-0.11719-1.1543,0.1875C50.41064,40.17505,49.24121,40.6604,48,40.6604
		s-2.41064-0.48535-3.29297-1.36719c-0.39062-0.39062-1.02344-0.39062-1.41406,0C42.41064,40.17505,41.24121,40.6604,40,40.6604
		s-2.41064-0.48535-3.29297-1.36719c-0.39062-0.39062-1.02344-0.39062-1.41406,0C34.41064,40.17505,33.24121,40.6604,32,40.6604
		s-2.41064-0.48535-3.29297-1.36719c-0.39062-0.39062-1.02344-0.39062-1.41406,0C26.41064,40.17505,25.24121,40.6604,24,40.6604
		s-2.41064-0.48535-3.29297-1.36719c-0.39062-0.39062-1.02344-0.39062-1.41406,0C18.41064,40.17505,17.24121,40.6604,16,40.6604
		s-2.41064-0.48535-3.29297-1.36719c-0.30371-0.30371-0.76807-0.38184-1.1543-0.1875l-4,2C7.21387,41.27563,7,41.62134,7,42.00024
		v14c0,0.55273,0.44775,1,1,1h48c0.55225,0,1-0.44727,1-1v-14C57,41.62134,56.78613,41.27563,56.44727,41.10571z M11.83984,41.19849
		C13.01855,42.14575,14.4707,42.6604,16,42.6604c1.46094,0,2.85107-0.46973,4-1.33691c1.14893,0.86719,2.53906,1.33691,4,1.33691
		s2.85107-0.46973,4-1.33691c1.14893,0.86719,2.53906,1.33691,4,1.33691s2.85107-0.46973,4-1.33691
		c1.14893,0.86719,2.53906,1.33691,4,1.33691s2.85107-0.46973,4-1.33691c1.14893,0.86719,2.53906,1.33691,4,1.33691
		c1.5293,0,2.98145-0.51465,4.16016-1.46191L55,42.61841v2.76367l-2.55273-1.27637c-0.38525-0.19336-0.8501-0.11621-1.1543,0.1875
		C50.41357,45.1731,49.24414,45.65747,48,45.65747s-2.41357-0.48438-3.29297-1.36426c-0.39062-0.39062-1.02344-0.39062-1.41406,0
		C42.41357,45.1731,41.24414,45.65747,40,45.65747s-2.41357-0.48438-3.29297-1.36426c-0.39062-0.39062-1.02344-0.39062-1.41406,0
		c-1.81543,1.81641-4.77051,1.81641-6.58594,0c-0.39062-0.39062-1.02344-0.39062-1.41406,0
		C26.41357,45.1731,25.24414,45.65747,24,45.65747s-2.41357-0.48438-3.29297-1.36426c-0.39062-0.39062-1.02344-0.39062-1.41406,0
		C18.41357,45.1731,17.24414,45.65747,16,45.65747s-2.41357-0.48438-3.29297-1.36426
		c-0.30371-0.30371-0.76807-0.38184-1.1543-0.1875L9,45.38208v-2.76367L11.83984,41.19849z M9,47.61847l2.84033-1.41998
		c2.37012,1.89844,5.74609,1.94043,8.15967,0.12305c2.35938,1.77734,5.64062,1.77734,8,0c2.35938,1.77734,5.64062,1.77734,8,0
		c2.35938,1.77734,5.64062,1.77734,8,0c2.41309,1.81836,5.78955,1.77637,8.15967-0.12305L55,47.61847v2.76361l-2.55273-1.27637
		c-0.38525-0.19336-0.8501-0.11621-1.1543,0.1875C50.41357,50.1731,49.24414,50.65747,48,50.65747s-2.41357-0.48438-3.29297-1.36426
		c-0.39062-0.39062-1.02344-0.39062-1.41406,0C42.41357,50.1731,41.24414,50.65747,40,50.65747s-2.41357-0.48438-3.29297-1.36426
		c-0.39062-0.39062-1.02344-0.39062-1.41406,0c-1.81543,1.81641-4.77051,1.81641-6.58594,0
		c-0.39062-0.39062-1.02344-0.39062-1.41406,0C26.41357,50.1731,25.24414,50.65747,24,50.65747s-2.41357-0.48438-3.29297-1.36426
		c-0.39062-0.39062-1.02344-0.39062-1.41406,0C18.41357,50.1731,17.24414,50.65747,16,50.65747s-2.41357-0.48438-3.29297-1.36426
		c-0.30371-0.30371-0.76807-0.38184-1.1543-0.1875L9,50.38208V47.61847z M9,55.00024v-2.38177l2.84033-1.41998
		c2.37012,1.89844,5.74609,1.94043,8.15967,0.12305c2.35938,1.77734,5.64062,1.77734,8,0c2.35938,1.77734,5.64062,1.77734,8,0
		c2.35938,1.77734,5.64062,1.77734,8,0c2.41309,1.81738,5.78955,1.77637,8.15967-0.12305L55,52.61847v2.38177H9z"/>
	<path d="M40.48529,33.48553c0.3905-0.39056,0.3905-1.02374,0-1.41425s-1.02368-0.3905-1.41425,0
		c-0.3905,0.3905-0.3905,1.02368,0,1.41425C39.46161,33.87604,40.09479,33.87604,40.48529,33.48553z"/>
</g>
</svg>
