<?xml version="1.0" encoding="UTF-8"?>
<svg xmlns="http://www.w3.org/2000/svg" version="1.1" viewBox="0 0 64 64">
  <!-- Generator: Adobe Illustrator 28.7.1, SVG Export Plug-In . SVG Version: 1.2.0 Build 142)  -->
  <g>
    <g id="Outline">
      <g>
        <path d="M56,34h-15v-3c0-.54999-.45001-1-1-1h-1v-3c0-.54999-.45001-1-1-1h-.44c-.96002-1.60004-1.48999-3.41003-1.54999-5.27002,1.01001-.71002,1.82001-1.66998,2.33997-2.79999.09003-.03003.17004-.07001.25-.13l1.60004-1.20001c1.75-1.31,2.79999-3.40997,2.79999-5.59998,0-.54999-.45001-1-1-1h-3v-1c0-.54999-.45001-1-1-1h-12c-.54999,0-1,.45001-1,1v1h-3c-.54999,0-1,.45001-1,1,0,2.19,1.04999,4.28998,2.79999,5.59998l1.60004,1.20001c.07996.06.15997.09998.25.13.51996,1.13,1.32996,2.08997,2.33997,2.79999-.06,1.85999-.58997,3.66998-1.54999,5.27002h-.44c-.54999,0-1,.45001-1,1v3h-1c-.54999,0-1,.45001-1,1v5h-15c-.54999,0-1,.45001-1,1v18c0,.54999.45001,1,1,1h48c.54999,0,1-.45001,1-1v-20c0-.54999-.45001-1-1-1ZM39,12h1.90002c-.25,1.19-.92004,2.26001-1.90002,3v-3ZM25,15c-.97998-.73999-1.65002-1.81-1.90002-3h1.90002v3ZM23,54h-14v-16h14v16ZM27,15v-5h10v5c0,2.76001-2.23999,5-5,5s-5-2.23999-5-5ZM35.28003,26h-6.56006c.66003-1.35004,1.06006-2.81,1.21002-4.31.65002.20001,1.35004.31,2.07001.31s1.41998-.10999,2.07001-.31c.14996,1.5.54999,2.95996,1.21002,4.31ZM27,28h10v2h-10v-2ZM39,54h-14v-22h14v22ZM55,54h-14v-18h14v18Z"/>
        <path d="M35,47v-9c0-.55225-.44775-1-1-1h-6c-.55225,0-1,.44775-1,1s.44775,1,1,1h1v8c-.55225,0-1,.44775-1,1s.44775,1,1,1h6c.55225,0,1-.44775,1-1s-.44775-1-1-1ZM31,47v-8h2v8h-2Z"/>
        <path d="M44,50c-.55225,0-1,.44775-1,1s.44775,1,1,1h8c.55225,0,1-.44775,1-1s-.44775-1-1-1h-1v-8h1c.55225,0,1-.44775,1-1s-.44775-1-1-1h-8c-.55225,0-1,.44775-1,1s.44775,1,1,1h1v8h-1ZM47,42h2v8h-2v-8Z"/>
        <path d="M22,41c0-.55225-.44775-1-1-1h-10c-.55225,0-1,.44775-1,1s.44775,1,1,1v8c-.55225,0-1,.44775-1,1s.44775,1,1,1h10c.55225,0,1-.44775,1-1s-.44775-1-1-1v-8c.55225,0,1-.44775,1-1ZM13,42h2v8h-2v-8ZM19,50h-2v-8h2v8Z"/>
      </g>
    </g>
  </g>
</svg>