<?xml version="1.0" encoding="UTF-8"?>
<svg xmlns="http://www.w3.org/2000/svg" version="1.1" viewBox="0 0 48 48">
  <!-- Generator: Adobe Illustrator 28.7.1, SVG Export Plug-In . SVG Version: 1.2.0 Build 142)  -->
  <g>
    <g id="Outline">
      <g>
        <path d="M38.21997,38.53998l-8.21997-14.79999v-12.91998c1.15997-.42004,2-1.52002,2-2.82001,0-1.65002-1.34998-3-3-3h-10c-1.65002,0-3,1.34998-3,3,0,1.29999.84003,2.39996,2,2.82001v12.91998l-8.21997,14.79999c-.53003.94-.51001,2.04999.02997,2.97998.54999.93005,1.51001,1.48004,2.59003,1.48004h1.59998c.54999,0,1-.45001,1-1s-.45001-1-1-1h-1.59998c-.52002,0-.78003-.34003-.86005-.48999-.08997-.15002-.26996-.54004-.01996-.99005l8.34998-15.02997c.09003-.15002.13-.32001.13-.48999v-5h1.40002c.54999,0,1-.45001,1-1s-.45001-1-1-1h-1.40002v-2h1.40002c.54999,0,1-.45001,1-1s-.45001-1-1-1h-1.40002v-2h8v13c0,.16998.03998.33997.13.48999l8.34998,15.02997c.25.45001.07001.84003-.01996.99005-.08002.14996-.34003.48999-.86005.48999h-10.59998v-3.04004c1.08002-.10999,2.75-.46997,3.95001-1.66998,1.85999-1.84998,1.70996-4.87,1.70996-5-.02997-.51001-.44-.91998-.94995-.95001-.11005-.01001-2.84003-.13-4.71002,1.45001v-.38c.64001-.67999,2-2.35999,2-4.40997,0-2.63-2.23999-4.66003-2.33002-4.75-.38-.33002-.95996-.33002-1.33997,0-.09003.08997-2.33002,2.12-2.33002,4.75,0,2.04999,1.35999,3.72998,2,4.40997v1.38c-1.87-1.58002-4.59003-1.46002-4.71002-1.45001-.50995.03003-.91998.44-.94995.95001,0,.13-.15002,3.15002,1.70996,5,1.20001,1.20001,2.87,1.56,3.95001,1.66998v2.04004h-1c-.54999,0-1,.45001-1,1s.45001,1,1,1h13.59998c1.08002,0,2.04004-.54999,2.59003-1.48004.53998-.92999.56-2.03998.02997-2.97998ZM29,9h-10c-.54999,0-1-.45001-1-1s.45001-1,1-1h10c.54999,0,1,.45001,1,1s-.45001,1-1,1ZM26.12,33.45996c.70001-.69,1.72003-.95996,2.47998-1.06-.09998.76001-.37,1.78003-1.06,2.48004-.69995.69-1.71997.95996-2.47998,1.06.09998-.76001.37-1.78003,1.06-2.48004ZM20.46002,35.88c-.69-.70001-.96002-1.72003-1.06-2.48004.75995.10004,1.77997.37,2.47998,1.06.69.70001.96002,1.72003,1.06,2.48004-.76001-.10004-1.78003-.37-2.47998-1.06ZM23,27c0-.98004.53998-1.90002,1-2.5.46002.59998,1,1.51996,1,2.5,0,.97998-.53998,1.89996-1,2.5-.46002-.60004-1-1.52002-1-2.5Z"/>
        <path d="M12.59863,19.5l1.73145-3c.17871-.30957.17871-.69043,0-1l-1.73145-3c-.17871-.30957-.50879-.5-.86621-.5h-3.46484c-.35742,0-.6875.19043-.86621.5l-1.73145,3c-.17871.30957-.17871.69043,0,1l1.73145,3c.17871.30957.50879.5.86621.5h3.46484c.35742,0,.6875-.19043.86621-.5ZM8.84473,18l-1.1543-2,1.1543-2h2.31055l1.1543,2-1.1543,2h-2.31055Z"/>
        <path d="M42.33008,23.5l-1.73145-3c-.17871-.30957-.50879-.5-.86621-.5h-3.46484c-.35742,0-.6875.19043-.86621.5l-1.73145,3c-.17871.30957-.17871.69043,0,1l1.73145,3c.17871.30957.50879.5.86621.5h3.46484c.35742,0,.6875-.19043.86621-.5l1.73145-3c.17871-.30957.17871-.69043,0-1ZM39.15527,26h-2.31055l-1.1543-2,1.1543-2h2.31055l1.1543,2-1.1543,2Z"/>
        <circle cx="18" cy="42" r="1"/>
      </g>
    </g>
  </g>
</svg>