<?xml version="1.0" encoding="UTF-8"?>
<svg id="Outline" xmlns="http://www.w3.org/2000/svg" version="1.1" viewBox="0 0 64 64">
  <path d="M52.33105,28.05664l-15.01727-5.25989,2.47528-3.1825c.23438-.30176.27734-.71094.10938-1.05371s-.5166-.56055-.89844-.56055h-3v-10c0-.55273-.44727-1-1-1h-6c-.55273,0-1,.44727-1,1v10h-2.99997c-.8215,0-1.29021.96906-.78909,1.61426l2.47528,3.1825-15.01727,5.25989c-.40039.13965-.66895.51855-.66895.94336v20c0,.4248.26855.80371.66992.94434,0,0,20,7,20.00009,7.00003.2167.07552.44354.07383.66007-.00003.00001,0,20-7,20-7,.40137-.14062.66992-.51953.66992-.94434v-20c0-.4248-.26855-.80371-.66895-.94336ZM51,44.2796l-10,3.3327v-1.8916l10-3.33362v1.89252ZM29,20c.55273,0,1-.44727,1-1v-10h4v10c0,.55273.44727,1,1,1h1.95508l-4.95508,6.37109-4.95508-6.37109h1.95508ZM31.21094,28.61426c.39675.51008,1.18174.50876,1.57812,0l3.22992-4.15277,12.7464,4.46478-16.76538,5.02979-16.76538-5.02979,12.7464-4.46478s3.22238,4.14308,3.22992,4.15277ZM13,42.38708l10,3.33362v1.8916l-10-3.3327v-1.89252ZM33,54.59039v-5.59039c0-.55273-.44727-1-1-1s-1,.44727-1,1v5.59039l-18-6.30035v-1.90302s10.68359,3.56122,10.68367,3.56124c.62978.21383,1.31633-.28318,1.31633-.94827v-4c0-.43066-.27539-.8125-.68359-.94824l-11.31641-3.77216v-1.89258s10.68359,3.56122,10.68377,3.56128c.51652.17206,1.09149-.11296,1.26447-.6319.1748-.52441-.1084-1.09082-.63184-1.26465l-11.31641-3.77216v-5.93549l18,5.39984v5.25604c0,.55273.44727,1,1,1s1-.44727,1-1v-5.25604l18-5.39984v5.93549l-11.31641,3.77216c-.52338.17381-.80658.74011-.63189,1.26448.16257.48799.74799.80424,1.2647.632l10.68359-3.56122v1.89258l-11.31641,3.77216c-.4082.13574-.68359.51758-.68359.94824v3.9999c0,.65063.69785,1.15842,1.31641.94835l10.68359-3.56122v1.90302l-18,6.30035Z" fill="#000" stroke-width="0"/>
  <path d="M54.89668,17.57989c-.1549-.33002-.48061-.57989-.89668-.57989h-2v-5c0-.55273-.44727-1-1-1h-4c-.55273,0-1,.44727-1,1v5h-1.99997c-.81345,0-1.28882,1.01388-.76858,1.64062,0,0,4.96871,5.96245,4.99985,5.99982.39232.47078,1.1467.46684,1.53726.00018,0,0,4.98255-5.97905,4.99995-5.99995.26717-.3206.28308-.73077.12818-1.06079ZM49,22.4375l-2.86523-3.4375h.86523c.55273,0,1-.44727,1-1v-5h2v5c0,.55273.44727,1,1,1h.86523l-2.86523,3.4375Z" fill="#000" stroke-width="0"/>
  <path d="M15,24.99684c.28524.00003.57054-.1186.76855-.35622l4.99994-5.99992c.5352-.64225.06126-1.6407-.76849-1.6407h-2v-5c0-.55273-.44727-1-1-1h-4c-.55273,0-1,.44727-1,1v5h-2c-.3877,0-.74121.22461-.90527.57617-.16504.35059-.11133.76562.13672,1.06445,0,0,4.99435,5.99321,5.00003,6.00003.19779.23732.48313.35616.76853.35619ZM13,19c.55273,0,1-.44727,1-1v-5h2v5c0,.55273.44727,1,1,1h.86523l-2.86523,3.4375-2.86523-3.4375h.86523Z" fill="#000" stroke-width="0"/>
  <circle cx="32" cy="45" r="1" fill="#000" stroke-width="0"/>
</svg>