<?xml version="1.0" encoding="UTF-8"?>
<svg xmlns="http://www.w3.org/2000/svg" version="1.1" viewBox="0 0 64 64">
  <!-- Generator: Adobe Illustrator 28.7.1, SVG Export Plug-In . SVG Version: 1.2.0 Build 142)  -->
  <g>
    <g id="Outline">
      <g>
        <path d="M54,19H10c-1.65002,0-3,1.34998-3,3v2c0,.54999.45001,1,1,1s1-.45001,1-1v-2c0-.54999.45001-1,1-1h13v22h-13c-.54999,0-1-.45001-1-1v-10c0-.54999-.45001-1-1-1s-1,.45001-1,1v10c0,1.64996,1.34998,3,3,3h13.06c.5,4.48999,4.32001,8,8.94,8s8.44-3.51001,8.94-8h13.06c1.65002,0,3-1.35004,3-3v-20c0-1.65002-1.34998-3-3-3ZM32,51c-3.85999,0-7-3.14001-7-7s3.14001-7,7-7,7,3.14001,7,7-3.14001,7-7,7ZM39,38.35999c-1.65002-2.04999-4.16998-3.35999-7-3.35999s-5.34998,1.31-7,3.35999v-17.35999h14v17.35999ZM55,42c0,.54999-.45001,1-1,1h-13v-22h13c.54999,0,1,.45001,1,1v20Z"/>
        <path d="M50,23h-4c-1.6543,0-3,1.3457-3,3v12c0,1.6543,1.3457,3,3,3h4c1.6543,0,3-1.3457,3-3v-12c0-1.6543-1.3457-3-3-3ZM45,29.29785c1.97729-.38904,4.02271-.38904,6,0v5.4043c-1.97729.38904-4.02271.38904-6,0v-5.4043ZM46,25h4c.55176,0,1,.44873,1,1v1.26459c-1.98206-.34363-4.01794-.34363-6,0v-1.26459c0-.55127.44824-1,1-1ZM50,39h-4c-.55176,0-1-.44873-1-1v-1.26459c.99091.17181,1.99487.26263,3,.26263s2.00909-.09082,3-.26263v1.26459c0,.55127-.44824,1-1,1Z"/>
        <path d="M18,41c1.6543,0,3-1.3457,3-3v-12c0-1.6543-1.3457-3-3-3h-4c-1.6543,0-3,1.3457-3,3v12c0,1.6543,1.3457,3,3,3h4ZM13,29.29785c1.97729-.38904,4.02271-.38904,6,0v5.4043c-1.97729.38904-4.02271.38904-6,0v-5.4043ZM14,25h4c.55176,0,1,.44873,1,1v1.26459c-1.98206-.34363-4.01794-.34363-6,0v-1.26459c0-.55127.44824-1,1-1ZM13,38v-1.26459c.99091.17181,1.99487.26263,3,.26263s2.00909-.09082,3-.26263v1.26459c0,.55127-.44824,1-1,1h-4c-.55176,0-1-.44873-1-1Z"/>
        <path d="M31.29297,32.70703c.19531.19531.45117.29297.70703.29297s.51172-.09766.70703-.29297l3-3c.39062-.39062.39062-1.02344,0-1.41406s-1.02344-.39062-1.41406,0l-1.29297,1.29297v-5.58594c0-.55225-.44727-1-1-1s-1,.44775-1,1v5.58594l-1.29297-1.29297c-.39062-.39062-1.02344-.39062-1.41406,0s-.39062,1.02344,0,1.41406l3,3Z"/>
        <path d="M32,39h-2c-.54999,0-1,.45001-1,1v8c0,.54999.45001,1,1,1s1-.45001,1-1v-3h1c1.65002,0,3-1.35004,3-3s-1.34998-3-3-3ZM32,43h-1v-2h1c.54999,0,1,.45001,1,1s-.45001,1-1,1Z"/>
        <circle cx="8" cy="28" r="1"/>
      </g>
    </g>
  </g>
</svg>