<?xml version="1.0" encoding="UTF-8"?>
<svg xmlns="http://www.w3.org/2000/svg" version="1.1" viewBox="0 0 64 64">
  <!-- Generator: Adobe Illustrator 28.7.1, SVG Export Plug-In . SVG Version: 1.2.0 Build 142)  -->
  <g>
    <g id="Outline">
      <g>
        <path d="M25.00001,35h-4c-.52783,0-.96533.41064-.99805.9375l-1,16c-.01709.27539.08008.5459.26904.74707s.45312.31543.729.31543h6c.27588,0,.54004-.11426.729-.31543s.28613-.47168.26904-.74707l-1-16c-.03271-.52686-.47021-.9375-.99805-.9375ZM21.06447,51l.875-14h2.12109l.875,14h-3.87109Z"/>
        <path d="M35.00001,35h-4c-.52783,0-.96533.41064-.99805.9375l-1,16c-.01709.27539.08008.5459.26904.74707s.45312.31543.729.31543h6c.27588,0,.54004-.11426.729-.31543s.28613-.47168.26904-.74707l-1-16c-.03271-.52686-.47021-.9375-.99805-.9375ZM31.06447,51l.875-14h2.12109l.875,14h-3.87109Z"/>
        <path d="M45.00001,35h-4c-.52783,0-.96533.41064-.99805.9375l-1,16c-.01709.27539.08008.5459.26904.74707s.45312.31543.729.31543h6c.27588,0,.54004-.11426.729-.31543s.28613-.47168.26904-.74707l-1-16c-.03271-.52686-.47021-.9375-.99805-.9375ZM41.06447,51l.875-14h2.12109l.875,14h-3.87109Z"/>
        <path d="M55.99806,35.9375c-.03271-.52686-.47021-.9375-.99805-.9375h-4c-.52783,0-.96533.41064-.99805.9375l-1,16c-.01709.27539.08008.5459.26904.74707s.45312.31543.729.31543h6c.27588,0,.54004-.11426.729-.31543s.28613-.47168.26904-.74707l-1-16ZM51.06447,51l.875-14h2.12109l.875,14h-3.87109Z"/>
        <path d="M14.00001,23c-1.6543,0-3,1.3457-3,3s1.3457,3,3,3,3-1.3457,3-3-1.3457-3-3-3ZM14.00001,27c-.55127,0-1-.44873-1-1s.44873-1,1-1,1,.44873,1,1-.44873,1-1,1Z"/>
        <path d="M14.00001,15c-1.6543,0-3,1.3457-3,3s1.3457,3,3,3,3-1.3457,3-3-1.3457-3-3-3ZM14.00001,19c-.55127,0-1-.44873-1-1s.44873-1,1-1,1,.44873,1,1-.44873,1-1,1Z"/>
        <path d="M20.00001,19c.54999,0,1-.45001,1-1v-4c0-1.65002-1.34998-3-3-3h-8c-1.65002,0-3,1.34998-3,3v16c0,1.64996,1.34998,3,3,3h1v18c-.54999,0-1,.45001-1,1s.45001,1,1,1h6c.54999,0,1-.45001,1-1s-.45001-1-1-1v-18h1c1.65002,0,3-1.35004,3-3v-4c0-.54999-.45001-1-1-1s-1,.45001-1,1v4c0,.54999-.45001,1-1,1h-8c-.54999,0-1-.45001-1-1V14c0-.54999.45001-1,1-1h8c.54999,0,1,.45001,1,1v4c0,.54999.45001,1,1,1ZM13.00001,33h2v18h-2v-18Z"/>
        <circle cx="20.00001" cy="22" r="1"/>
      </g>
    </g>
  </g>
</svg>