<?xml version="1.0" encoding="UTF-8"?>
<svg xmlns="http://www.w3.org/2000/svg" version="1.1" viewBox="0 0 64 64">
  <!-- Generator: Adobe Illustrator 28.7.1, SVG Export Plug-In . SVG Version: 1.2.0 Build 142)  -->
  <g>
    <g id="Outline">
      <g>
        <path d="M44.50073,29.33738l4.64185-4.64136c.19434.19434.4502.29297.70703.29297.22363,0,.44824-.07471.63281-.22607l3.90918-3.19775c2.48666-2.03412,2.67328-5.9165.40728-8.18257-2.23455-2.23461-6.19198-2.0255-8.18267.40766l-3.19824,3.90869c-.3252.39746-.2959.97705.06738,1.34033l-9.1839,9.18427c-.75854-.0224-1.51984-.04218-2.30145-.04218-12.11914,0-25,3.1543-25,9v6c0,5.63184,12.3584,8.83545,24,8.99023.5459,0,.99219-.43896,1-.98682.00684-.55225-.43457-1.00586-.98633-1.01318-12.97266-.17285-22.01367-3.82275-22.01367-6.99023v-2.33917c1.9566,1.67303,5.29236,3.07196,9.79004,4.03693.07129.01562.1416.02246.21094.02246.46094,0,.87598-.3208.97656-.79004.11621-.54004-.22754-1.07178-.76758-1.1875-6.20215-1.33105-10.20996-3.58496-10.20996-5.74268,0-3.31104,9.44531-7,23-7,.1145,0,.22357.00562.33752.00623l-.16565.16565c-1.53273,1.53273-1.52794,4.12926-.00003,5.65622,1.52436,1.52341,4.13917,1.51911,5.65628.00003l4.95337-4.953c8.38232,1.42938,12.21851,4.15619,12.21851,6.12488,0,3.31104-9.44531,7-23,7-3.0625,0-6.04492-.19531-8.86426-.58057-.55176-.0791-1.05078.30811-1.12695.85547-.07422.54688.30859,1.05127.85547,1.12598,2.90918.39746,5.9834.59912,9.13574.59912,9.24365,0,18.92371-1.83704,23-5.30176v2.30176c0,2.93115-7.66309,6.41797-20.04199,6.94092-.55176.02344-.98047.48926-.95703,1.04102.02246.5376.46582.95801.99805.95801.01465,0,.0293-.00049.04297-.00098,10.57617-.44629,21.95801-3.43457,21.95801-8.93896v-6c0-3.4104-4.63562-6.28802-12.49927-7.84399ZM48.16504,15.05687c1.30285-1.59161,3.76554-1.71435,5.21965-.26033,1.43971,1.43962,1.30791,3.93766-.25969,5.22078l-3.20801,2.62451-4.37793-4.37695s2.62274-3.20405,2.62598-3.20801ZM36.41406,34.59544c-.75584.75584-2.07221.75586-2.82807.00005-.76867-.76861-.76643-2.0618-.00005-2.82818l11.31348-11.31396,2.82904,2.82867-11.31439,11.31342Z"/>
        <path d="M24.92285,34.60862c-.46582-1.64551-2.88477-2.29932-5.62695-1.52539-2.74219.77539-4.45996,2.60107-3.99512,4.24756.33301,1.17969,1.6709,1.85059,3.41113,1.85059.68848,0,1.43945-.10498,2.2168-.32471,1.1748-.33203,2.22656-.88525,2.96387-1.55664.91895-.83789,1.28418-1.79346,1.03027-2.69141ZM22.54492,35.822c-.50391.45996-1.29199.86426-2.16113,1.10986-1.86133.52881-3.09082.09473-3.1582-.14502-.06836-.23975.75195-1.25195,2.61523-1.77881.64551-.18311,1.21484-.25049,1.68555-.25049.88867,0,1.42773.23926,1.47266.396.00879.03369-.03223.28369-.4541.66846Z"/>
        <path d="M31,39.18138c0-1.6543-1.3457-3-3-3s-3,1.3457-3,3,1.3457,3,3,3,3-1.3457,3-3ZM27,39.18138c0-.55127.44824-1,1-1s1,.44873,1,1-.44824,1-1,1-1-.44873-1-1Z"/>
        <path d="M34.25977,41.27708c.72949.18213,1.47266.27197,2.21289.27197,1.79297,0,3.56738-.52588,5.08203-1.53564.45996-.30615.58398-.92725.27734-1.38672-.30566-.45947-.92578-.58545-1.38672-.27734-1.67285,1.11523-3.75195,1.47412-5.70117.9873l-.50195-.12549c-.537-.13816-1.07889.19176-1.21183.72722-.21788.87751.56568,1.17277,1.22941,1.3387Z"/>
      </g>
    </g>
  </g>
</svg>