<?xml version="1.0" encoding="UTF-8"?>
<svg xmlns="http://www.w3.org/2000/svg" version="1.1" viewBox="0 0 48 48">
  <!-- Generator: Adobe Illustrator 28.7.1, SVG Export Plug-In . SVG Version: 1.2.0 Build 142)  -->
  <g>
    <g id="Outline">
      <g>
        <path d="M39.34998,23.09998l-5.23999-2.95996c-.20996-1.55005-1.13-2.93005-2.48999-3.69l-2.58997-1.46002c-.48004-.27002-1.09003-.09998-1.36005.38-.26996.47998-.09998,1.08997.38,1.35999l2.59003,1.46002c.91998.51001,1.48999,1.5,1.51001,2.57001.00995.35999.19995.69.50995.85999l5.71002,3.21997c.47998.27002.65002.89001.38,1.37-.27002.48004-.89001.65002-1.37.38l-5.71002-3.21997c-.31-.17999-.69-.16998-.98999.01001-.92999.53998-2.07001.54999-2.98999.03998l-10.45001-5.90002,2.95001-5.21997.90002.51001c.47998.26996,1.08997.09998,1.35999-.38.26996-.47998.09998-1.09003-.38-1.35999l-.90002-.51001c.06711.03803.3416-1.00053.35507-1.10602.15238-1.19332-.44432-2.39856-1.49502-2.98401-1.45001-.81-3.28003-.29999-4.09003,1.14001l-3.47998-1.96002c-2.37807-1.33939-5.48314-.48841-6.80999,1.90001-1.32909,2.39245-.48643,5.46387,1.89996,6.81001l3.48004,1.96002c-.81006,1.44-.30005,3.26996,1.13996,4.08997,1.42235.80392,3.29364.26904,4.09002-1.14997l10.45001,5.89996c1.37.76001,3.01996.83002,4.44.21002,0,0,5.25,2.95996,5.25,2.95996,1.42566.78874,3.28404.28139,4.08996-1.13995.81-1.45001.29999-3.28003-1.14001-4.09003ZM12.01001,14.57996l-3.47998-1.96997c-1.41931-.80346-1.95479-2.6542-1.14002-4.08.81364-1.42382,2.64329-1.94677,4.07996-1.13997l3.49005,1.95996-2.95001,5.22998ZM14.51001,18.27997c-.27002.48004-.88.65002-1.35999.39001-.48004-.27997-.65002-.89001-.38-1.37l4.90997-8.71002c.26821-.47578.89721-.64589,1.36999-.38001.46064.25905.65694.88861.37,1.36005l-4.90997,8.70996Z"/>
        <path d="M29.25586,29.33203c-.54395.60596-3.25586,3.72656-3.25586,5.66797,0,2.20557,1.79443,4,4,4s4-1.79443,4-4c0-1.94141-2.71191-5.06201-3.25586-5.66797-.37891-.42285-1.10938-.42285-1.48828,0ZM30,37c-1.10303,0-2-.89697-2-2,0-.63721.93945-2.12549,1.99951-3.45117,1.06299,1.33252,2.00049,2.83154,2.00049,3.45117,0,1.10303-.89697,2-2,2Z"/>
        <path d="M39.74414,33.33203c-.37891-.42285-1.10938-.42285-1.48828,0-.54395.60596-3.25586,3.72656-3.25586,5.66797,0,2.20557,1.79443,4,4,4s4-1.79443,4-4c0-1.94141-2.71191-5.06201-3.25586-5.66797ZM39,41c-1.10303,0-2-.89697-2-2,0-.63721.93945-2.12549,1.99951-3.45117,1.06299,1.33252,2.00049,2.83154,2.00049,3.45117,0,1.10303-.89697,2-2,2Z"/>
        <circle cx="25" cy="14" r="1"/>
      </g>
    </g>
  </g>
</svg>