<?xml version="1.0" encoding="UTF-8"?>
<svg xmlns="http://www.w3.org/2000/svg" version="1.1" viewBox="0 0 64 64">
  <!-- Generator: Adobe Illustrator 28.7.1, SVG Export Plug-In . SVG Version: 1.2.0 Build 142)  -->
  <g>
    <g id="Outline">
      <g>
        <path d="M16,25h4c.55273,0,1-.44727,1-1v-4c0-.55273-.44727-1-1-1h-4c-.55273,0-1,.44727-1,1v4c0,.55273.44727,1,1,1ZM17,21h2v2h-2v-2Z"/>
        <path d="M40,19h-16c-.55273,0-1,.44727-1,1s.44727,1,1,1h16c.55273,0,1-.44727,1-1s-.44727-1-1-1Z"/>
        <path d="M40,23h-16c-.55273,0-1,.44727-1,1s.44727,1,1,1h16c.55273,0,1-.44727,1-1s-.44727-1-1-1Z"/>
        <path d="M16,33h4c.55273,0,1-.44727,1-1v-4c0-.55273-.44727-1-1-1h-4c-.55273,0-1,.44727-1,1v4c0,.55273.44727,1,1,1ZM17,29h2v2h-2v-2Z"/>
        <path d="M40,27h-16c-.55273,0-1,.44727-1,1s.44727,1,1,1h16c.55273,0,1-.44727,1-1s-.44727-1-1-1Z"/>
        <path d="M40,31h-16c-.55273,0-1,.44727-1,1s.44727,1,1,1h16c.55273,0,1-.44727,1-1s-.44727-1-1-1Z"/>
        <path d="M23,13h10c.55273,0,1-.44727,1-1s-.44727-1-1-1h-10c-.55273,0-1,.44727-1,1s.44727,1,1,1Z"/>
        <path d="M49,41V15c0-3.31-2.69-6-6-6h-5.17999c-.41998-1.16003-1.52002-2-2.82001-2h-14c-1.29999,0-2.40002.83997-2.82001,2h-5.17999c-3.31,0-6,2.69-6,6v36c0,3.31,2.69,6,6,6h36c4.40997,0,8-3.59003,8-8s-3.59003-8-8-8ZM38,11h5c2.21002,0,4,1.78998,4,4v26.26001c-.71002.19-1.38.45996-2,.81995v-26.07996c0-1.65002-1.34998-3-3-3h-4v-2ZM20,10c0-.54999.45001-1,1-1h14c.54999,0,1,.45001,1,1v4c0,.54999-.45001,1-1,1h-14c-.54999,0-1-.45001-1-1v-4ZM21,17h14c1.29999,0,2.40002-.84003,2.82001-2h4.17999c.54999,0,1,.45001,1,1v27.72998c-1.23999,1.41003-2,3.25-2,5.27002,0,.69.09998,1.35999.26001,2H14c-.54999,0-1-.45001-1-1V16c0-.54999.45001-1,1-1h4.17999c.41998,1.15997,1.52002,2,2.82001,2ZM13,55c-2.21002,0-4-1.79004-4-4V15c0-2.21002,1.78998-4,4-4h5v2h-4c-1.65002,0-3,1.34998-3,3v34c0,1.64996,1.34998,3,3,3h28.08002c.44.75,1,1.42999,1.64996,2H13ZM49,55c-3.31,0-6-2.69-6-6,0-1.63.65002-3.10004,1.70001-4.17999q.01001,0,.01001-.01001c1.08997-1.10999,2.60999-1.81,4.28998-1.81,3.31,0,6,2.69,6,6s-2.69,6-6,6Z"/>
        <path d="M51.29297,46.29297l-3.29297,3.29297-1.29297-1.29297c-.39062-.39062-1.02344-.39062-1.41406,0s-.39062,1.02344,0,1.41406l2,2c.19531.19531.45117.29297.70703.29297s.51172-.09766.70703-.29297l4-4c.39062-.39062.39062-1.02344,0-1.41406s-1.02344-.39062-1.41406,0Z"/>
        <path d="M26.71002,45.28998l-.82001-.82001c.69-.97998,1.10999-2.17999,1.10999-3.46997,0-3.31-2.69-6-6-6s-6,2.69-6,6,2.69,6,6,6c1.28998,0,2.48999-.42004,3.46997-1.10999l.81999.81993c.3696.36957,1.02469.3756,1.42006.00001.38995-.38995.38995-1.02997,0-1.41998ZM24.42999,43.01996l-.71997-.72998c-.39001-.39001-1.03003-.39001-1.42004,0-.38995.39001-.38995,1.03003,0,1.41998l.73004.72003c-.60004.34998-1.28003.57001-2.02002.57001-2.21002,0-4-1.79004-4-4s1.78998-4,4-4,4,1.78998,4,4c0,.73999-.21997,1.41998-.57001,2.01996Z"/>
        <path d="M35,37c1.06641,0,2.07324.41602,2.83691,1.1709.3916.3877,1.02637.38477,1.41406-.00781.38867-.39258.38477-1.02539-.00781-1.41406-1.13965-1.12793-2.64648-1.74902-4.24316-1.74902-3.30859,0-6,2.69141-6,6s2.69141,6,6,6c1.59668,0,3.10352-.62109,4.24316-1.74902.39258-.38867.39648-1.02148.00781-1.41406-.3877-.39355-1.02246-.39551-1.41406-.00781-.76367.75488-1.77051,1.1709-2.83691,1.1709-2.20605,0-4-1.79395-4-4s1.79395-4,4-4Z"/>
      </g>
    </g>
  </g>
</svg>