<?xml version="1.0" encoding="utf-8"?>
<!-- Generator: Adobe Illustrator 27.3.1, SVG Export Plug-In . SVG Version: 6.00 Build 0)  -->
<svg version="1.1" id="Outline" xmlns="http://www.w3.org/2000/svg" xmlns:xlink="http://www.w3.org/1999/xlink" x="0px" y="0px"
	 viewBox="0 0 48 48" enable-background="new 0 0 48 48" xml:space="preserve">
<g>
	<circle cx="24" cy="42" r="1"/>
	<circle cx="24" cy="30" r="1"/>
	<path d="M25.87842,27.22559c0.24951-0.10254,0.44775-0.30078,0.54883-0.55078l1.5-3.70996
		c0.20654-0.51074-0.03906-1.09277-0.54932-1.30078c-2.15723-0.88086-4.59863-0.88086-6.75586,0
		c-0.51025,0.20801-0.75586,0.79004-0.54932,1.30078c0,0,1.4987,3.70673,1.5,3.70996
		c0.20745,0.5131,0.81807,0.76536,1.32617,0.54199c0.66113-0.28711,1.54101-0.28711,2.20214,0
		C25.33741,27.31943,25.63045,27.32716,25.87842,27.22559z M24.91357,25.08203C24.61816,25.02734,24.31299,25,24,25
		s-0.61816,0.02734-0.91357,0.08203l-0.75928-1.87695c1.0918-0.27344,2.25391-0.27344,3.3457,0L24.91357,25.08203z"/>
	<path d="M21.02979,30.41797c-0.07764-0.54492-0.58594-0.92969-1.12744-0.84863l-3.95996,0.55078
		c-0.26318,0.03613-0.50098,0.17578-0.66064,0.3877c-0.16016,0.21289-0.229,0.47949-0.19189,0.74219
		c0.16309,1.15625,0.53809,2.25,1.11377,3.24902c0.58154,1.00977,1.34375,1.88184,2.26562,2.59277
		c0.18213,0.13965,0.39697,0.20801,0.61035,0.20801c0.29736,0,0.59131-0.13184,0.78857-0.38477c0,0,2.45733-3.14605,2.45996-3.14941
		c0.33569-0.42978,0.25368-1.07207-0.17529-1.40528C21.53955,31.88477,21.14062,31.19531,21.02979,30.41797z M18.94775,34.84473
		c-0.38965-0.40332-0.72803-0.85254-1.01123-1.34375c-0.28125-0.48828-0.50098-1.00586-0.65723-1.54785l2.00928-0.2793
		c0.2041,0.57715,0.51123,1.1084,0.9082,1.57227L18.94775,34.84473z"/>
	<path d="M28.92041,37.2998c0.21338,0,0.42822-0.06836,0.61035-0.20801c0.92188-0.71094,1.68408-1.58301,2.26611-2.59277
		c0.5752-0.99902,0.9502-2.09277,1.11328-3.24902c0.03711-0.2627-0.03174-0.5293-0.19189-0.74219
		c-0.15967-0.21191-0.39746-0.35156-0.66064-0.3877l-3.95996-0.55078c-0.54785-0.08105-1.0498,0.30371-1.12744,0.84863
		c-0.11084,0.77734-0.50976,1.46679-1.12304,1.94238c-0.43123,0.33441-0.51208,0.97501-0.1753,1.40528l2.45996,3.14941
		C28.3291,37.16797,28.62305,37.2998,28.92041,37.2998z M28.71143,31.67383l2.00928,0.2793
		c-0.15625,0.54102-0.37549,1.05957-0.65674,1.54785c-0.2832,0.49121-0.62207,0.94043-1.01172,1.34375l-1.24902-1.59863
		C28.2002,32.78223,28.50732,32.25098,28.71143,31.67383z"/>
	<path d="M42,22.5c0-2.67285-1.61377-5.02441-4.02393-6.00684C37.99219,16.33008,38,16.16504,38,16c0-2.75684-2.24316-5-5-5
		c-0.41406,0-0.82373,0.05078-1.22021,0.15039C30.94287,7.61133,27.75146,5,24,5c-3.68457,0-6.854,2.52051-7.73926,6.00488
		C16.1748,11.00195,16.08789,11,16,11c-3.85986,0-7,3.14062-7,7c0,0.33691,0.02393,0.6709,0.07178,1H9
		c-1.32422,0-2.57861,0.51758-3.54248,1.46777C4.51758,21.42188,4,22.67676,4,24c0,2.75684,2.24316,5,5,5h2.05066
		C11.02527,29.33112,11,29.66248,11,30c0,5.52637,3.50928,10.45996,8.73193,12.27441
		c0.51953,0.18164,1.0918-0.09473,1.27295-0.61621s-0.09473-1.0918-0.6167-1.27246C15.96924,38.84961,13,34.67578,13,30
		c0-6.06543,4.93457-11,11-11s11,4.93457,11,11c0,4.67578-2.96924,8.84961-7.38818,10.38574
		c-0.52197,0.18066-0.79785,0.75098-0.6167,1.27246c0.14355,0.41309,0.53076,0.67188,0.94482,0.67188
		c0.10889,0,0.21973-0.01758,0.32812-0.05566C33.49072,40.45996,37,35.52637,37,30c0-0.39606-0.0246-0.78632-0.05945-1.17346
		c1.18396-0.26349,2.28003-0.85327,3.15662-1.72986C41.32422,25.87012,42,24.23828,42,22.5z M38.68311,25.68262
		c-0.58258,0.58221-1.30328,0.98535-2.0827,1.17682C35.19006,21.20642,30.0838,17,24,17c-6.1344,0-11.27692,4.27594-12.6366,10H9
		c-1.6543,0-3-1.3457-3-3c0-0.79492,0.31348-1.55078,0.87207-2.11816C7.44873,21.31348,8.20459,21,9,21c0,0,1.34842,0,1.3501,0
		c0.68512,0,1.1742-0.69903,0.93946-1.34277C11.09717,19.13086,11,18.57324,11,18c0-2.75684,2.24316-5,5-5
		c0.31885,0,0.61182,0.02637,0.87015,0.07911c0.56511,0.11543,1.12022-0.28295,1.19186-0.85548C18.43457,9.24609,20.9873,7,24,7
		c3.15674,0,5.78418,2.46484,5.98193,5.6123c0.02197,0.34766,0.22266,0.65918,0.53027,0.82129
		c0.30859,0.16406,0.67822,0.1543,0.97754-0.02344C31.94238,13.1416,32.46484,13,33,13c1.6543,0,3,1.3457,3,3
		c0,0.2997-0.04343,0.59745-0.12833,0.88544c-0.16006,0.54294,0.16991,1.12179,0.71964,1.25518
		C38.59814,18.63477,40,20.42676,40,22.5C40,23.70312,39.53223,24.83398,38.68311,25.68262z"/>
	<path d="M24,9c-2.20557,0-4,1.79395-4,4c0,0.55273,0.44775,1,1,1s1-0.44727,1-1c0-1.10254,0.89697-2,2-2s2,0.89746,2,2
		c0,0.55273,0.44775,1,1,1s1-0.44727,1-1C28,10.79395,26.20557,9,24,9z"/>
</g>
</svg>
