<?xml version="1.0" encoding="UTF-8"?>
<svg xmlns="http://www.w3.org/2000/svg" version="1.1" viewBox="0 0 48 48">
  <!-- Generator: Adobe Illustrator 28.7.1, SVG Export Plug-In . SVG Version: 1.2.0 Build 142)  -->
  <g>
    <g id="Outline">
      <g>
        <path d="M42.79999,37.39996l-5.79999-7.72998v-6.66998c0-.54999-.45001-1-1-1h-1v-3h1c.54999,0,1-.45001,1-1v-4c0-.54999-.45001-1-1-1h-8c-.54999,0-1,.45001-1,1v4c0,.54999.45001,1,1,1h1v3h-6v-5h1c.54999,0,1-.45001,1-1v-4c0-.54999-.45001-1-1-1h-5c-.54999,0-1,.45001-1,1s.45001,1,1,1h4v2H7v-2h4c.54999,0,1-.45001,1-1s-.45001-1-1-1h-5c-.54999,0-1,.45001-1,1v4c0,.54999.45001,1,1,1h1v12.17999c-1.15997.41998-2,1.52002-2,2.82001v4c0,1.64996,1.34998,3,3,3h2.09998c.47003,2.27997,2.49005,4,4.90002,4s4.42999-1.72003,4.90002-4h6.19995c.47003,2.27997,2.49005,4,4.90002,4s4.42999-1.72003,4.90002-4h6.09998c.38,0,.71997-.21002.89001-.54999.16998-.34003.14001-.75-.09003-1.05005ZM29,15h6v2h-6v-2ZM33,19v3h-2v-3h2ZM23,24h12v5h-12v-5ZM9,17h12v12h-12v-12ZM15,41c-1.65002,0-3-1.35004-3-3s1.34998-3,3-3,3,1.34998,3,3-1.34998,3-3,3ZM31,41c-1.65002,0-3-1.35004-3-3s1.34998-3,3-3,3,1.34998,3,3-1.34998,3-3,3ZM35.90002,37c-.47003-2.28003-2.49005-4-4.90002-4s-4.42999,1.71997-4.90002,4h-6.19995c-.47003-2.28003-2.49005-4-4.90002-4s-4.42999,1.71997-4.90002,4h-2.09998c-.54999,0-1-.45001-1-1v-4c0-.54999.45001-1,1-1h27.5l4.5,6h-4.09998Z"/>
        <circle cx="15" cy="38" r="1"/>
        <circle cx="31" cy="38" r="1"/>
        <path d="M15,25c1.6543,0,3-1.3457,3-3s-1.3457-3-3-3-3,1.3457-3,3,1.3457,3,3,3ZM15,21c.55176,0,1,.44873,1,1s-.44824,1-1,1-1-.44873-1-1,.44824-1,1-1Z"/>
        <circle cx="15" cy="12" r="1"/>
      </g>
    </g>
  </g>
</svg>