<?xml version="1.0" encoding="UTF-8"?>
<svg id="Outline" xmlns="http://www.w3.org/2000/svg" version="1.1" viewBox="0 0 64 64">
  <path d="M48.24219,20s3.53296-3.53247,3.53613-3.53564c.38605-.38605.38593-1.02814,0-1.41406l-2.8291-2.82861c-.39062-.39062-1.02344-.39062-1.41406,0l-3.53516,3.53564-3.53516-3.53564c-.39062-.39062-1.02344-.39062-1.41406,0,0,0-2.82727,2.82678-2.8291,2.82861-.38605.38593-.38605,1.02802,0,1.41406l3.53613,3.53564s-3.53522,3.53467-3.53613,3.53564c-.38586.3858-.38629,1.02777,0,1.41406l2.8291,2.82861c.39062.39062,1.02344.39062,1.41406,0l3.53516-3.53564s3.52716,3.52765,3.53516,3.53564c.38409.38409,1.03131.38275,1.41406,0,0,0,2.82349-2.823,2.8291-2.82861.38623-.38617.38519-1.02887,0-1.41406l-3.53613-3.53564ZM48.24219,25.65723s-3.53149-3.53204-3.53516-3.53564c-.38629-.38635-1.02832-.38574-1.41406,0l-3.53516,3.53564-1.41504-1.41455s3.53339-3.53296,3.53613-3.53564c.38574-.38568.38544-1.02869,0-1.41406l-3.53613-3.53564,1.41504-1.41455,3.53516,3.53564c.375.375,1.03906.375,1.41406,0l3.53516-3.53564,1.41504,1.41455s-3.5329,3.53241-3.53613,3.53564c-.38623.38617-.38586,1.02814,0,1.41406l3.53613,3.53564-1.41504,1.41455Z" fill="#000" stroke-width="0"/>
  <path d="M44,7c-7.16797,0-13,5.83154-13,13,0,.34027.02527.67432.05109,1.00806l-2.72101-.9519c-.21289-.0752-.44727-.0752-.66016,0l-20,7c-.40137.14014-.66992.51904-.66992.94385v21c0,.4248.26855.80371.66992.94385l6.23047,2.18018c.10938.03809.2207.05664.33008.05664.41309,0,.7998-.2583.94434-.67041.18164-.521-.09277-1.09131-.61426-1.27393l-5.56055-1.9458v-1.90302s10.68359,3.56122,10.68365,3.56122c.63446.20941,1.31635-.27667,1.31635-.94873v-4c0-.43066-.27539-.8125-.68359-.94873l-11.31641-3.77216v-1.8916s10.68359,3.56122,10.68372,3.56122c.51917.17303,1.09137-.11292,1.26453-.63232.1748-.52393-.1084-1.09033-.63184-1.26514l-11.31641-3.77216v-6.86975l18,6.30017v18.88098l-4.90039-1.71454c-.52148-.18262-1.09082.09277-1.27441.61377-.18164.521.09277,1.09131.61426,1.27393l6.23047,2.18018c.21436.07568.44562.07422.66016,0l20-7c.40137-.14014.66992-.51904.66992-.94385v-17.00293c4.69293-1.96326,8-6.59998,8-11.99707,0-7.16846-5.83203-13-13-13ZM19,45.7207v1.89209l-10-3.33362v-1.89166l10,3.33319ZM28,33.94043l-16.97302-5.94037,16.97302-5.94049,3.43024,1.19983c.8172,3.14746,2.77527,5.83655,5.41815,7.58533l-8.84839,3.0957ZM47,44.27917l-10,3.33362v-1.89209l10-3.33319v1.89166ZM47,36.27911l-11.31641,3.77216c-.52338.17474-.80658.74109-.6319,1.26495.16278.48804.74823.80463,1.26471.63251l10.68359-3.56122v1.8916l-11.31641,3.77216c-.4082.13623-.68359.51807-.68359.94873v3.99994c0,.66663.68933,1.15582,1.31641.94879l10.68359-3.56122v1.90302l-18,6.29993v-18.8808l10.29803-3.60327c1.46045.56934,3.04254.89362,4.70197.89362,1.034,0,2.0351-.13422,3-.3634v3.64252ZM44,31c-6.06543,0-11-4.93457-11-11s4.93457-11,11-11,11,4.93457,11,11-4.93457,11-11,11Z" fill="#000" stroke-width="0"/>
  <circle cx="18" cy="52.5" r="1" fill="#000" stroke-width="0"/>
</svg>