<?xml version="1.0" encoding="utf-8"?>
<!-- Generator: Adobe Illustrator 28.2.0, SVG Export Plug-In . SVG Version: 6.00 Build 0)  -->
<svg version="1.1" id="Outline" xmlns="http://www.w3.org/2000/svg" xmlns:xlink="http://www.w3.org/1999/xlink" x="0px" y="0px"
	 viewBox="0 0 64 64" enable-background="new 0 0 64 64" xml:space="preserve">
<g>
	<path d="M56,29h-1v-6c0-0.40002-0.23999-0.77002-0.62-0.92004c-0.37-0.15997-0.79999-0.06995-1.09003,0.21002L48,27.58997V23
		c0-0.40002-0.23999-0.77002-0.62-0.92004c-0.37-0.15997-0.79999-0.06995-1.09003,0.21002L41,27.58997V23
		c0-0.40002-0.23999-0.77002-0.62-0.92004c-0.37-0.15997-0.79999-0.06995-1.09003,0.21002L32.59003,29H20v-4h1
		c0.54999,0,1-0.45001,1-1v-4c0-0.54999-0.45001-1-1-1H11c-0.54999,0-1,0.45001-1,1v4c0,0.54999,0.45001,1,1,1h1v4H8
		c-0.54999,0-1,0.45001-1,1v8c0,0.54999,0.45001,1,1,1s1-0.45001,1-1v-7h24c0.27002,0,0.52002-0.10999,0.71002-0.29004L39,25.40997
		V30c0,0.39996,0.23999,0.76996,0.62,0.91998c0.37,0.15997,0.79999,0.07001,1.09003-0.21002L46,25.40997V30
		c0,0.39996,0.23999,0.76996,0.62,0.91998c0.37,0.15997,0.79999,0.07001,1.09003-0.21002L53,25.40997V30c0,0.54999,0.45001,1,1,1h1
		v2H34c-0.54999,0-1,0.45001-1,1v6c0,0.54999,0.45001,1,1,1h21v14h-2V44c0-0.54999-0.45001-1-1-1H34c-0.54999,0-1,0.45001-1,1v11H22
		v-4h1c3.85999,0,7-3.14001,7-7v-2c0-0.54999-0.45001-1-1-1h-2c-2.54999,0-4.78003,1.37-6,3.40997C19.78003,42.37,17.54999,41,15,41
		h-2c-0.54999,0-1,0.45001-1,1v2c0,3.85999,3.14001,7,7,7h1v4H9v-9c0-0.54999-0.45001-1-1-1s-1,0.45001-1,1v10
		c0,0.54999,0.45001,1,1,1h48c0.54999,0,1-0.45001,1-1V30C57,29.45001,56.54999,29,56,29z M18,29h-4v-4h4V29z M12,23v-2h8v2H12z
		 M22,48c0-2.76001,2.23999-5,5-5h1v1c0,2.76001-2.23999,5-5,5h-1V48z M20,49h-1c-2.76001,0-5-2.23999-5-5v-1h1
		c2.76001,0,5,2.23999,5,5V49z M42,55h-7V45h7V55z M51,55h-7V45h7V55z M40,39h-5v-4h5V39z M48,39h-6v-4h6V39z M55,39h-5v-4h5V39z"/>
	<path d="M30,16h2.13184l-0.96387,1.44531c-0.30664,0.45996-0.18262,1.08008,0.27749,1.38681
		c0.45692,0.30276,1.08186,0.17965,1.38657-0.27744c0.00005-0.00008,2-3,2-3c0.2041-0.30664,0.22363-0.70117,0.0498-1.02637
		S34.36914,14,34,14h-2.13184l0.96387-1.44531c0.30664-0.45996,0.18262-1.08008-0.27734-1.38672
		c-0.46191-0.30664-1.08203-0.18262-1.38672,0.27734l-2,3c-0.2041,0.30664-0.22363,0.70117-0.0498,1.02637S29.63086,16,30,16z"/>
	<path d="M32,23c4.41113,0,8-3.58887,8-8s-3.58887-8-8-8s-8,3.58887-8,8S27.58887,23,32,23z M32,9c3.30859,0,6,2.69141,6,6
		s-2.69141,6-6,6s-6-2.69141-6-6S28.69141,9,32,9z"/>
	<circle cx="8" cy="42" r="1"/>
</g>
</svg>
