<?xml version="1.0" encoding="utf-8"?>
<!-- Generator: Adobe Illustrator 27.3.1, SVG Export Plug-In . SVG Version: 6.00 Build 0)  -->
<svg version="1.1" id="Outline" xmlns="http://www.w3.org/2000/svg" xmlns:xlink="http://www.w3.org/1999/xlink" x="0px" y="0px"
	 viewBox="0 0 64 64" enable-background="new 0 0 64 64" xml:space="preserve">
<g>
	<path d="M41.70703,7.29297c-0.39062-0.39062-1.02344-0.39062-1.41406,0c-0.40192,0.40143-9.66113,9.73486-13.57355,18.72125
		C20.78436,26.16498,16,31.0293,16,37c0,1.18213,0.19244,2.31897,0.53918,3.38702c0,0-2.56787,2.56744-2.57629,2.57581
		c-0.38696,0.3869-0.38635,1.02777,0,1.41412l0.25861,0.25861l-5.47882,4.25702c-1.02295,0.80273-1.65527,2.00586-1.73486,3.30078
		c-0.07965,1.28644,0.41107,2.57422,1.31738,3.48633c1.89551,1.90759,5.13721,1.67395,6.78418-0.42676l4.25458-5.47491
		c0,0,0.25891,0.25891,0.25909,0.25909c0.38678,0.38678,1.02765,0.38641,1.41406,0l2.57587-2.57629
		C24.68103,47.80756,25.81787,48,27,48c1.99585,0,3.86371-0.5426,5.47919-1.47571c1.33093,0.84308,2.76898,1.49304,4.29816,1.91028
		c0.08789,0.02441,0.17578,0.03516,0.26367,0.03516c0.43945,0,0.84277-0.29199,0.96387-0.7373
		c0.14551-0.53223-0.16895-1.08203-0.70215-1.22754c-1.07214-0.2923-2.09387-0.71521-3.05774-1.24896
		C36.54108,43.2384,38,40.28955,38,37c0-5.43903-3.97198-9.9566-9.16516-10.83417C32.1142,19.11395,38.81226,11.74481,41,9.43896
		C43.93652,12.53271,55,24.73975,55,33c0,6.29297-4.2373,11.8457-10.30371,13.50488
		c-0.5332,0.14551-0.84668,0.69629-0.70117,1.22852c0.12207,0.44434,0.52441,0.73633,0.96387,0.73633
		c0.08789,0,0.17676-0.01172,0.26465-0.03516C52.15723,46.53809,57,40.19141,57,33C57,22.7041,42.33105,7.91748,41.70703,7.29297z
		 M13.5332,54.02246c-0.91998,1.1839-2.73096,1.297-3.79388,0.24225c-1.06342-1.0553-0.93494-2.87799,0.23431-3.79498
		l5.67383-4.4082l2.2915,2.2915C17.93896,48.35303,13.53601,54.0188,13.5332,54.02246z M20.33008,47.91602l-4.24609-4.24609
		l1.3158-1.31555c0.99542,1.77753,2.46832,3.25043,4.24585,4.24585L20.33008,47.91602z M36,37c0,3.13-1.60791,5.88892-4.039,7.50195
		c-0.00348,0.00214-0.00677,0.00403-0.01025,0.00623C30.52911,45.44873,28.82843,46,27,46c-4.9624,0-9-4.03711-9-9
		c0-4.9624,4.0376-9,9-9S36,32.0376,36,37z"/>
	<path d="M53,33c0-0.55225-0.44727-1-1-1s-1,0.44775-1,1c0,5.51367-4.48633,10-10,10c-0.55273,0-1,0.44727-1,1s0.44727,1,1,1
		C47.61719,45,53,39.61719,53,33z"/>
	<circle cx="30" cy="33" r="1"/>
	<circle cx="28" cy="43" r="1"/>
	<path d="M32.80176,40.00293c0.02625,0,0.05298,0,0.07928,0c0.57111,0,1.13281-0.36963,1.11896-1.02344
		C33.98828,38.42676,33.56152,37.99902,32.979,38l-0.13574,0.00293c-1.09033,0.01562-2.10938-0.67285-2.48047-1.72266
		c-0.18359-0.52051-0.75342-0.79004-1.27588-0.61035c-0.52051,0.18457-0.79395,0.75488-0.60986,1.27637
		C29.12549,38.7832,30.85498,40.00293,32.80176,40.00293z"/>
	<path d="M26,37c-0.55225,0-1,0.44727-1,1c0,1.36328-0.86914,2.56836-2.16504,3l-0.15381,0.05176
		c-0.52338,0.1767-0.80511,0.74402-0.62897,1.2674c0.1604,0.47668,0.75793,0.79865,1.26666,0.62909l0.15088-0.05176
		C25.58154,42.19336,27,40.22559,27,38C27,37.44727,26.55225,37,26,37z"/>
	<path d="M23.19727,36c0.78467,0,1.52246-0.30566,2.07715-0.86035l0.86523-0.86523C26.69434,33.71973,27,32.98193,27,32.19727V31
		c0-0.55225-0.44775-1-1-1s-1,0.44775-1,1v1.19727c0,0.25049-0.09766,0.48584-0.27441,0.66309l-0.86523,0.86523
		C23.68311,33.90234,23.44775,34,23.19727,34c-1.11963,0-2.12646,0.62207-2.62744,1.62402l-0.46436,0.92871
		c-0.24707,0.49408-0.04694,1.0946,0.44714,1.34174c0.4635,0.23181,1.0968,0.04297,1.34192-0.4472l0.46436-0.92871
		C22.51855,36.19824,22.83984,36,23.19727,36z"/>
	<circle cx="41" cy="48" r="1"/>
</g>
</svg>
