<?xml version="1.0" encoding="UTF-8"?>
<svg xmlns="http://www.w3.org/2000/svg" version="1.1" viewBox="0 0 64 64">
  <!-- Generator: Adobe Illustrator 28.7.1, SVG Export Plug-In . SVG Version: 1.2.0 Build 142)  -->
  <g>
    <g id="Outline">
      <g>
        <path d="M25.28418,40.89551c-.44391-.11731-.88477.09198-1.10706.47101-.10455-.32288-.19543-.65137-.25916-.99054-.09766-.50391-.14746-1.02344-.14746-1.54297,0-2.9873,1.62109-5.72949,4.22949-7.15625.48535-.26465.66309-.87207.39746-1.35645-.26465-.48535-.87207-.66406-1.35645-.39746-3.25098,1.77734-5.27051,5.19141-5.27051,8.91016,0,.64746.0625,1.29492.18359,1.91797.11902.63525.30566,1.24658.54077,1.83765l-.09741-.02612c-.53125-.1416-1.08105.17285-1.22461.70703-.14355.5332.17383,1.08203.70703,1.22461l2.27633.61034c.49809.13355,1.08283-.17622,1.22465-.70702l.61035-2.27734c.14258-.5332-.17383-1.08203-.70703-1.22461Z"/>
        <path d="M41.25781,42.43652c-.14355-.53418-.68945-.84961-1.22461-.70703l-2.27637.60938c-.5332.14258-.84961.69043-.70703,1.22461.11841.44287.51953.71997.95642.7243-.23047.25525-.4715.50024-.73181.72296-1.4834,1.28223-3.37891,1.98926-5.33789,1.98926-1.49903,0-2.96191-.4082-4.23047-1.17969-.47168-.28711-1.08691-.13672-1.37402.33496s-.13672,1.08691.33496,1.37402c1.58203.96191,3.4043,1.4707,5.26953,1.4707,2.43945,0,4.7998-.87988,6.6416-2.47363.48773-.41656.92981-.89014,1.3313-1.39691l.0271.10101c.12006.44705.52304.74092.9642.74121.64779.00042,1.13596-.63286.96744-1.25879l-.61035-2.27637Z"/>
        <path d="M35.27832,29.23242c-.60229-.21326-1.23047-.36115-1.8703-.45587l.06952-.06952c.39062-.39062.39062-1.02344,0-1.41406s-1.02344-.39062-1.41406,0l-1.66699,1.66699c-.1875.1875-.29297.44238-.29297.70703,0,.26562.10547.51953.29297.70703,0,0,1.66699,1.66602,1.66703,1.66605.38742.38738,1.02706.38693,1.41403-.00004.32556-.32556.36346-.81268.14636-1.19397.3374.07263.67078.15942.99426.27405,3.28125,1.13477,5.48535,4.23438,5.48535,7.71289v.19238c0,.55273.44727,1,1,1s1-.44727,1-1v-.19238c0-4.33105-2.74512-8.19043-6.8252-9.60059Z"/>
        <path d="M48,7h-17c-.55273,0-1,.44727-1,1s.44727,1,1,1h17c.55176,0,1,.44824,1,1v13H15v-13c0-.55176.44824-1,1-1h7c.55273,0,1-.44727,1-1s-.44727-1-1-1h-7c-1.6543,0-3,1.3457-3,3v40c0,1.6543,1.3457,3,3,3h2v1c0,1.6543,1.3457,3,3,3h22c1.6543,0,3-1.3457,3-3v-1h2c1.6543,0,3-1.3457,3-3V10c0-1.6543-1.3457-3-3-3ZM44,54c0,.55176-.44824,1-1,1h-22c-.55176,0-1-.44824-1-1v-1h24v1ZM48,51H16c-.55176,0-1-.44824-1-1v-25h34v25c0,.55176-.44824,1-1,1Z"/>
        <circle cx="46" cy="28" r="1"/>
        <circle cx="18" cy="28" r="1"/>
        <circle cx="46" cy="48" r="1"/>
        <circle cx="18" cy="48" r="1"/>
        <path d="M27,12v8c0,.55273.44727,1,1,1s1-.44727,1-1v-8c0-.55273-.44727-1-1-1s-1,.44727-1,1Z"/>
        <path d="M22,11c-1.6543,0-3,1.3457-3,3s1.3457,3,3,3c.55176,0,1,.44824,1,1s-.44824,1-1,1h-2c-.55273,0-1,.44727-1,1s.44727,1,1,1h2c1.6543,0,3-1.3457,3-3s-1.3457-3-3-3c-.55176,0-1-.44824-1-1s.44824-1,1-1h2c.55273,0,1-.44727,1-1s-.44727-1-1-1h-2Z"/>
        <path d="M34,13c.55176,0,1,.44824,1,1,0,.55273.44727,1,1,1s1-.44727,1-1c0-1.6543-1.3457-3-3-3s-3,1.3457-3,3v4c0,1.6543,1.3457,3,3,3s3-1.3457,3-3v-1c0-.55273-.44727-1-1-1h-1c-.55273,0-1,.44727-1,1s.44727,1,1,1c0,.55176-.44824,1-1,1s-1-.44824-1-1v-4c0-.55176.44824-1,1-1Z"/>
        <path d="M41,20v-3.76367l2.10547,4.21094c.17188.34473.52246.55273.89474.55273.54433-.00012.99979-.45287.99979-1v-8c0-.55273-.44727-1-1-1s-1,.44727-1,1v3.76367l-2.10547-4.21094c-.20704-.41504-.67773-.62988-1.12402-.52637-.45117.10742-.77051.50977-.77051.97363v8c0,.55273.44727,1,1,1s1-.44727,1-1Z"/>
        <circle cx="27" cy="8" r="1"/>
      </g>
    </g>
  </g>
</svg>