<?xml version="1.0" encoding="UTF-8"?>
<svg id="Outline" xmlns="http://www.w3.org/2000/svg" version="1.1" viewBox="0 0 64 64">
  <path d="M51.13086,14.32715c-2.34766-.30957-4.6123-1.20605-6.54883-2.59277-.34766-.25-.81543-.25-1.16504,0-1.93457,1.38672-4.19824,2.2832-6.54785,2.59277-.49707.06543-.86914.48926-.86914.99121v2.85156c0,4.80859,3.18262,9.02338,7.74023,10.24902.1568.04218.35046.04468.51953,0,4.55762-1.22559,7.74023-5.44043,7.74023-10.24902v-2.85156c0-.50195-.37207-.92578-.86914-.99121ZM50,18.16992c0,3.81348-2.4541,7.16406-6,8.24316-3.5459-1.0791-6-4.42969-6-8.24316v-1.99902c2.13086-.39844,4.17871-1.22168,6-2.41211,1.82227,1.19043,3.87012,2.01367,6,2.41211v1.99902Z" fill="#000" stroke-width="0"/>
  <path d="M42.0791,19.45117c-.39062-.39062-1.02344-.39062-1.41406,0s-.39062,1.02344,0,1.41406l1.75195,1.75195c.38751.38751,1.02777.38629,1.41406,0l3.50391-3.50391c.39062-.39062.39062-1.02344,0-1.41406s-1.02344-.39062-1.41406,0l-2.79688,2.79688-1.04492-1.04492Z" fill="#000" stroke-width="0"/>
  <path d="M44,7c-7.16797,0-13,5.83154-13,13,0,.34027.02527.67432.05109,1.00806l-2.72101-.9519c-.21289-.0752-.44727-.0752-.66016,0l-20,7c-.40137.14014-.66992.51904-.66992.94385v21c0,.4248.26855.80371.66992.94434l20,7c.22913.07983.43207.05701.66016,0l6.23047-2.17969c.52148-.18262.7959-.75293.61426-1.27441-.18262-.52051-.75195-.79395-1.27441-.61426l-4.90039,1.71454v-18.88086l10.29803-3.60327c1.46045.56934,3.04254.89362,4.70197.89362,1.034,0,2.0351-.13422,3-.3634v3.64301l-11.31641,3.77216c-.52344.17383-.80664.74017-.63184,1.26459.13464.40411.52307.68365.94824.68365.10449,0,.21094-.0166.31641-.05176l10.68359-3.56122v1.89258l-11.31641,3.77216c-.4082.13574-.68359.51758-.68359.94824v3.99988c0,.66632.68689,1.16217,1.31641.94836l10.68359-3.56122v1.90302l-5.56055,1.94531c-.52142.18262-.79584.75281-.61432,1.27429.17419.50024.77301.789,1.27448.61438l6.23047-2.17969c.40137-.14062.66992-.51953.66992-.94434v-17.00293c4.69293-1.96326,8-6.59998,8-11.99707,0-7.16846-5.83203-13-13-13ZM47,44.2796l-10,3.3327v-1.8916l10-3.33362v1.89252ZM9,42.38708l10,3.33362v1.8916l-10-3.3327v-1.89252ZM27,54.59039l-18-6.30035v-1.90302s10.68359,3.56122,10.68384,3.56128c.63629.21594,1.31616-.27704,1.31616-.9483v-4c0-.43066-.27539-.8125-.68359-.94824l-11.31641-3.77216v-1.89258l10.68359,3.56122c.10547.03516.21191.05176.31641.05176.41895,0,.80859-.26465.94824-.68359.1748-.52441-.1084-1.09082-.63184-1.26465l-11.31641-3.77216v-6.87024l18,6.30017v18.88086ZM28,33.94043l-16.97302-5.94037,16.97302-5.94049,3.43024,1.19983c.8172,3.14746,2.77527,5.83655,5.41815,7.58533l-8.84839,3.0957ZM44,31c-6.06543,0-11-4.93457-11-11s4.93457-11,11-11,11,4.93457,11,11-4.93457,11-11,11Z" fill="#000" stroke-width="0"/>
  <circle cx="38" cy="52.5" r="1" fill="#000" stroke-width="0"/>
</svg>