<?xml version="1.0" encoding="UTF-8"?>
<svg id="Outline" xmlns="http://www.w3.org/2000/svg" version="1.1" viewBox="0 0 64 64">
  <path d="M48,26v-4c0-1.65002-1.34998-3-3-3h-.04999c-.23004-3.10004-1.54004-5.98004-3.75-8.20001-2.46002-2.45001-5.72003-3.79999-9.20001-3.79999-6.83002,0-12.44,5.29999-12.95001,12h-.04999c-1.65002,0-3,1.34998-3,3v4c0,1.64996,1.34998,3,3,3v6c-1.65002,0-3,1.34998-3,3v4c0,1.64996,1.34998,3,3,3h.04999c.51001,6.70001,6.12,12,12.95001,12s12.44-5.29999,12.95001-12h.04999c1.65002,0,3-1.35004,3-3v-4c0-1.65002-1.34998-3-3-3v-6c1.65002,0,3-1.35004,3-3ZM32,9c5.57137,0,10.44733,4.40598,10.95001,10-1.63.02997-2.95001,1.35999-2.95001,3v1h-16v-1c0-1.64001-1.32001-2.97003-2.95001-2.98999.51001-5.61004,5.22003-10.01001,10.95001-10.01001ZM21,35v-6c1.65002,0,3-1.35004,3-3v-1h16v1c0,1.64996,1.34998,3,3,3v6c-1.65002,0-3,1.34998-3,3v1h-16v-1c0-1.65002-1.34998-3-3-3ZM18,26v-4c0-.54999.45001-1,1-1h2c.54999,0,1,.45001,1,1v4c0,.54999-.45001,1-1,1h-2c-.54999,0-1-.45001-1-1ZM19,43c-.54999,0-1-.45001-1-1v-4c0-.54999.45001-1,1-1h2c.54999,0,1,.45001,1,1v4c0,.54999-.45001,1-1,1h-2ZM32,55c-5.72998,0-10.44-4.40002-10.95001-10.01001,1.63-.02002,2.95001-1.34998,2.95001-2.98999v-1h16v1c0,1.64001,1.32001,2.96997,2.95001,2.98999-.51001,5.60999-5.22003,10.01001-10.95001,10.01001ZM46,38v4c0,.54999-.45001,1-1,1h-2c-.54999,0-1-.45001-1-1v-4c0-.54999.45001-1,1-1h2c.54999,0,1,.45001,1,1ZM43,27c-.54999,0-1-.45001-1-1v-4c0-.54999.45001-1,1-1h2c.54999,0,1,.45001,1,1v4c0,.54999-.45001,1-1,1h-2Z" style="fill: #000; stroke-width: 0px;"/>
</svg>