<?xml version="1.0" encoding="UTF-8"?>
<svg xmlns="http://www.w3.org/2000/svg" version="1.1" viewBox="0 0 64 64">
  <!-- Generator: Adobe Illustrator 28.7.1, SVG Export Plug-In . SVG Version: 1.2.0 Build 142)  -->
  <g>
    <g id="Outline">
      <path d="M51,27.14001v-3.14001c0-1.65002-1.34998-3-3-3v-5c0-1.65002-1.34998-3-3-3-4.25,0-8.23999-1.65002-11.23999-4.66003l-1.04999-1.04999c-.39001-.39001-1.03003-.39001-1.42004,0l-1.04999,1.04999c-3,3.01001-6.98999,4.66003-11.23999,4.66003-1.65002,0-3,1.34998-3,3v5c-1.65002,0-3,1.34998-3,3v3.14001c-1.71997.44995-3,2-3,3.85999v22c0,2.20996,1.78998,4,4,4h36c2.21002,0,4-1.79004,4-4v-22c0-1.85999-1.28003-3.41003-3-3.85999ZM18,16c0-.54999.45001-1,1-1,4.78003,0,9.28003-1.85999,12.65997-5.23999l.34003-.35004.34003.35004c3.37994,3.38,7.87994,5.23999,12.65997,5.23999.54999,0,1,.45001,1,1v5h-28v-5ZM15,24c0-.54999.45001-1,1-1h32c.54999,0,1,.45001,1,1v3H15v-3ZM52,53c0,1.09998-.90002,2-2,2H14c-1.09998,0-2-.90002-2-2v-1h40v1ZM52,50h-19v-3h.15997c1.66003,0,4.64001-.29999,6.59003-2.25,2.77002-2.77002,2.21002-7.60999,2.19-7.82001-.06-.45001-.41998-.81-.87-.87-.21002-.02002-5.04999-.58002-7.82001,2.19-.12.12-.21997.25-.33002.37-.02997-.09003-.08997-.16003-.14996-.22998-.27002-1.41003-.85004-2.96002-2.02002-4.14001-2.77002-2.77002-7.60999-2.21002-7.82001-2.19-.45001.06-.81.41998-.87.87-.02002.21002-.58002,5.04999,2.19,7.82001,1.95001,1.95001,4.92999,2.25,6.59003,2.25h.15997v7H12v-19c0-1.10004.90002-2,2-2h36c1.09998,0,2,.89996,2,2v19ZM37.64001,40.90997c-.28003-.47998-.89001-.64001-1.37-.37-1.13.65002-2.17004,1.46002-3.10004,2.35999.21002-1.15997.65002-2.38995,1.5-3.22998,1.5-1.51001,4.03003-1.66998,5.33002-1.66998.02002,1.46997-.25,3.91998-1.66998,5.32996-1.17999,1.19-3.01001,1.53003-4.37,1.63.94995-1.04999,2.06-1.96997,3.31-2.67999.47998-.27997.63995-.88995.37-1.37ZM26.72998,38.27997c1.25.71002,2.36005,1.63,3.31,2.67999-1.35999-.08997-3.19-.44-4.37-1.63-1.5-1.5-1.67999-4.02997-1.66998-5.32996,1.31,0,3.83002.16998,5.33002,1.66998.88.87,1.29999,2.09998,1.5,3.22998-.92999-.89996-1.97003-1.70996-3.10004-2.35999-.47998-.27002-1.08997-.10999-1.37.37-.26996.48004-.10999,1.09003.37,1.37Z"/>
    </g>
  </g>
</svg>