<?xml version="1.0" encoding="UTF-8"?>
<svg xmlns="http://www.w3.org/2000/svg" version="1.1" viewBox="0 0 64 64">
  <!-- Generator: Adobe Illustrator 28.7.1, SVG Export Plug-In . SVG Version: 1.2.0 Build 142)  -->
  <g>
    <g id="Outline">
      <g>
        <path d="M56.32001,40.75l-2.75-22c-.12-1-.97998-1.75-1.97998-1.75h-31.18005c-1,0-1.85999.75-1.97998,1.75l-2.75,22c-.07001.57001.10999,1.14001.47998,1.57001.38.42999.93005.67999,1.5.67999h14.34003v4h-2c-1.65002,0-3,1.34998-3,3v1c-1.09998,0-2,.89996-2,2v2c0,1.09998.90002,2,2,2h18c1.09998,0,2-.90002,2-2v-2c0-1.10004-.90002-2-2-2v-1c0-1.65002-1.34998-3-3-3h-2v-4h14.34003c.56995,0,1.12-.25,1.5-.67999.37-.42999.54999-1,.47998-1.57001ZM49,19h2.59003l.5,4h-3.09003v-4ZM49,25h3.34003l.5,4h-3.84003v-4ZM49,31h4.09003l.5,4h-4.59003v-4ZM31,19h4v4h-4v-4ZM38,43v4h-4v-4h4ZM31,25h4v4h-4v-4ZM31,31h4v4h-4v-4ZM23,41h-5.34003l.5-4h4.84003v4ZM23,35h-4.59003l.5-4h4.09003v4ZM23,29h-3.84003l.5-4h3.34003v4ZM23,23h-3.09003l.5-4h2.59003v4ZM29,41h-4v-4h4v4ZM29,35h-4v-4h4v4ZM29,29h-4v-4h4v4ZM29,23h-4v-4h4v4ZM31,41v-4h4v4h-4ZM45,53v2h-18v-2h18ZM42,49c.54999,0,1,.45001,1,1v1h-14v-1c0-.54999.45001-1,1-1h12ZM41,41h-4v-4h4v4ZM41,35h-4v-4h4v4ZM41,29h-4v-4h4v4ZM41,23h-4v-4h4v4ZM47,41h-4v-4h4v4ZM47,35h-4v-4h4v4ZM47,29h-4v-4h4v4ZM47,23h-4v-4h4v4ZM49,41v-4h4.84003l.5,4h-5.34003Z"/>
        <path d="M19,13c0-3.30859-2.69141-6-6-6s-6,2.69141-6,6,2.69141,6,6,6,6-2.69141,6-6ZM13,17c-2.20557,0-4-1.79395-4-4s1.79443-4,4-4,4,1.79395,4,4-1.79443,4-4,4Z"/>
        <path d="M30.29298,14.70704c.38601.386,1.02803.386,1.41405-.00001.39062-.39063.39062-1.02344,0-1.41406l-6-6c-.39062-.39062-1.02344-.39062-1.41406,0s-.39062,1.02344,0,1.41406c0,0,6,6,6.00001,6.00001Z"/>
        <path d="M47.70703,7.29297c-.39062-.39062-1.02344-.39062-1.41406,0l-6,6c-.39062.39062-.39062,1.02342-.00001,1.41405.38128.38129,1.03342.38066,1.41407.00001l6-6c.39062-.39062.39062-1.02344,0-1.41406Z"/>
        <path d="M36,15c.55225,0,1-.44727,1-1v-6c0-.55273-.44775-1-1-1s-1,.44727-1,1v6c0,.55273.44775,1,1,1Z"/>
      </g>
    </g>
  </g>
</svg>