<?xml version="1.0" encoding="UTF-8"?>
<svg xmlns="http://www.w3.org/2000/svg" version="1.1" viewBox="0 0 64 64">
  <!-- Generator: Adobe Illustrator 28.7.1, SVG Export Plug-In . SVG Version: 1.2.0 Build 142)  -->
  <g>
    <g id="Outline">
      <g>
        <path d="M56.96997,37.83997c-.00995-.03998,0-.07001-.00995-.10999l-5-18c-.12-.42999-.51001-.72998-.96002-.72998h-20c-.45001,0-.84003.29999-.96002.72998l-5,18c-.00995.03998,0,.07001-.00995.10999-.01001.05005-.03003.10004-.03003.16003v4c0,.54999.45001,1,1,1h4v3c0,.54999.45001,1,1,1h3v4h-2c-.54999,0-1,.45001-1,1v1h-3c-.54999,0-1-.45001-1-1v-2c0-1.65002-1.34998-3-3-3h-3v-5c0-1.65002-1.34998-3-3-3v-3c0-.54999-.45001-1-1-1h-6c-.54999,0-1,.45001-1,1v3c-1.65002,0-3,1.34998-3,3v4c0,.54999.45001,1,1,1s1-.45001,1-1v-4c0-.54999.45001-1,1-1h8c.54999,0,1,.45001,1,1v12c0,.54999-.45001,1-1,1h-8c-.54999,0-1-.45001-1-1v-4c0-.54999-.45001-1-1-1s-1,.45001-1,1v4c0,1.64996,1.34998,3,3,3h8c1.65002,0,3-1.35004,3-3v-5h3c.54999,0,1,.45001,1,1v2c0,1.64996,1.34998,3,3,3h3v1c0,.54999.45001,1,1,1h18c.54999,0,1-.45001,1-1v-4c0-.54999-.45001-1-1-1h-2v-4h3c.54999,0,1-.45001,1-1v-3h4c.54999,0,1-.45001,1-1v-4c0-.06-.02002-.10999-.03003-.16003ZM16,39h-4v-2h4v2ZM48,21h2.23999l1.10999,4h-3.34998v-4ZM48,27h3.90997l1.11005,4h-5.02002v-4ZM48,33h5.57001l1.10999,4h-6.67999v-4ZM42,21h4v4h-4v-4ZM42,27h4v4h-4v-4ZM42,33h4v4h-4v-4ZM36,21h4v4h-4v-4ZM36,27h4v4h-4v-4ZM36,33h4v4h-4v-4ZM31.76001,21h2.23999v4h-3.34998l1.10999-4ZM30.09003,27h3.90997v4h-5.02002l1.11005-4ZM28.42999,33h5.57001v4h-6.67999l1.10999-4ZM49,53v2h-16v-2h16ZM36,51v-4h10v4h-10ZM55,41h-12c-.54999,0-1,.45001-1,1s.45001,1,1,1h7v2h-18v-2h7c.54999,0,1-.45001,1-1s-.45001-1-1-1h-12v-2h28v2Z"/>
        <path d="M34.19287,16.70703c.19531.19531.45117.29297.70703.29297s.51172-.09766.70703-.29297l3.29297-3.29297,3.29297,3.29297c.19531.19531.45117.29297.70703.29297s.51172-.09766.70703-.29297l6.39307-6.39307v.68604c0,.55225.44775,1,1,1s1-.44775,1-1v-3c0-.55225-.44775-1-1-1h-3c-.55225,0-1,.44775-1,1s.44775,1,1,1h.48584l-5.58594,5.58594-2.58594-2.58594,1.68604-1.68604v.68604c0,.55225.44775,1,1,1s1-.44775,1-1v-3c0-.55225-.44775-1-1-1h-3c-.55225,0-1,.44775-1,1s.44775,1,1,1h.48584l-5.58594,5.58594-4.09277-4.09277c-.39062-.39062-1.02344-.39062-1.41406,0s-.39062,1.02344,0,1.41406l4.7998,4.7998Z"/>
        <path d="M14.44727,43.10547c-.49609-.24707-1.09521-.04639-1.3418.44727l-2,4c-.15479.31006-.13818.67822.04395.97314.18213.29443.50391.47412.85059.47412h2.38184l-1.27637,2.55273c-.24707.49414-.04688,1.09473.44743,1.34188.4925.24613,1.0962.0435,1.34163-.44735l2-4c.15479-.31006.13818-.67822-.04395-.97314-.18213-.29443-.50391-.47412-.85059-.47412h-2.38184l1.27637-2.55273c.24707-.49414.04688-1.09473-.44727-1.3418Z"/>
      </g>
    </g>
  </g>
</svg>