<?xml version="1.0" encoding="UTF-8"?>
<svg xmlns="http://www.w3.org/2000/svg" version="1.1" viewBox="0 0 48 48">
  <!-- Generator: Adobe Illustrator 28.7.1, SVG Export Plug-In . SVG Version: 1.2.0 Build 142)  -->
  <g>
    <g id="Outline">
      <g>
        <path d="M32.91998,23.65997h1.08002c1.65002,0,3-1.33997,3-3,0-1.64996-1.34998-3-3-3h-1v-2.02997c1.65002-.14001,3-1.55005,3-3.23004,0-1.46997-.98999-2.76996-2.40997-3.14996l-14.85004-4.04999c-.45996-.13-.94-.20001-1.41998-.20001-2.92999,0-5.32001,2.39001-5.32001,5.32996,0,2.10004,1.22998,3.90002,3,4.77002v2.56h-1c-1.65002,0-3,1.35004-3,3,0,1.66003,1.34998,3,3,3h1.08002c.32001,2.39001,1.71997,4.13,3.32996,5.37-.53998.04999-1.06.15002-1.54999.31-.01996,0-.03998.01001-.06.02002-2.77997.92999-4.79999,3.54999-4.79999,6.64001v6c0,.54999.45001,1,1,1h22c.54999,0,1-.45001,1-1v-6c0-3.07001-1.98999-5.67004-4.73999-6.62-.03003-.01001-.06-.02002-.09003-.03003-.51001-.16998-1.02997-.27002-1.57996-.32001,1.60999-1.23999,3.00995-2.97998,3.32996-5.37ZM15,21.65997h-1c-.54999,0-1-.45001-1-1s.45001-1,1-1h1v2ZM34,19.65997c.54999,0,1,.45001,1,1s-.45001,1-1,1h-1v-2h1ZM23,41h-9v-5c0-2,1.17999-3.71002,2.88-4.51001l6.12,6.89001v2.62ZM19.12,31h2.78998c1,.40997,1.75.60999,1.85004.63.08002.01996.15997.02997.23999.02997s.15997-.01001.23999-.02997c.10004-.02002.85004-.22003,1.85004-.63h2.82996l-4.91998,5.5-4.88-5.5ZM31.15002,31.51001c1.67999.79999,2.84998,2.50995,2.84998,4.48999v5h-9v-2.62l6.15002-6.87ZM24,29.62c-1.26001-.38-7-2.35999-7-6.96002v-7h4c.54999,0,1-.45001,1-1s-.45001-1-1-1h-3.66998c-1.84003,0-3.33002-1.48999-3.33002-3.33002s1.48999-3.32996,3.32001-3.32996c.29999,0,.58997.03998.89001.12l14.85999,4.04999c.54999.15997.92999.65002.92999,1.22998,0,.67004-.59003,1.26001-1.27002,1.26001h-7.72998c-.54999,0-1,.45001-1,1s.45001,1,1,1h6v7c0,4.60004-5.73999,6.58002-7,6.96002Z"/>
        <path d="M29,39h2c.55273,0,1-.44775,1-1s-.44727-1-1-1h-2c-.55273,0-1,.44775-1,1s.44727,1,1,1Z"/>
        <path d="M16,38c0,.55225.44727,1,1,1h2c.55273,0,1-.44775,1-1s-.44727-1-1-1h-2c-.55273,0-1,.44775-1,1Z"/>
      </g>
    </g>
  </g>
</svg>