<?xml version="1.0" encoding="UTF-8"?>
<svg xmlns="http://www.w3.org/2000/svg" version="1.1" viewBox="0 0 48 48">
  <!-- Generator: Adobe Illustrator 28.7.1, SVG Export Plug-In . SVG Version: 1.2.0 Build 142)  -->
  <g>
    <g id="Outline">
      <g>
        <path d="M42,31h-9v-7c0-.55225-.44775-1-1-1h-16c-.55225,0-1,.44775-1,1v7H6c-.55225,0-1,.44775-1,1v8c0,.55225.44775,1,1,1h16c.55225,0,1-.44775,1-1v-7h2v7c0,.55225.44775,1,1,1h16c.55225,0,1-.44775,1-1v-8c0-.55225-.44775-1-1-1ZM17,25h14v6h-14v-6ZM21,39H7v-6h14v6ZM41,39h-14v-6h14v6Z"/>
        <path d="M6,21h2c.55225,0,1-.44775,1-1s-.44775-1-1-1h-1v-6h14v6h-5c-.55225,0-1,.44775-1,1s.44775,1,1,1h6c.26234,0,.52196-.10765.70734-.29327l3.99969-3.99969c.1875-.1875.29297-.44189.29297-.70703v-8c0-.55225-.44775-1-1-1H10c-.26514,0-.51953.10547-.70703.29297,0,0-3.99969,3.99969-4.00122,4.00165-.16814.16891-.26389.40719-.2793.64368-.0014.02155-.01245.03979-.01245.06171v8c0,.55225.44775,1,1,1ZM23,17.58594v-5.17188l2-2v5.17188l-2,2ZM10.41406,9h13.17188l-2,2h-13.17188l2-2Z"/>
        <circle cx="12" cy="20" r="1"/>
      </g>
    </g>
  </g>
</svg>