<?xml version="1.0" encoding="UTF-8"?>
<svg id="Outline" xmlns="http://www.w3.org/2000/svg" version="1.1" viewBox="0 0 48 48">
  <path d="M40,8h-3.12836c-.44727-1.72028-1.99969-3-3.85797-3s-3.41071,1.27972-3.85797,3h-10.29773c-.44727-1.72028-1.99969-3-3.85797-3s-3.41071,1.27972-3.85797,3h-3.14203c-1.6543,0-3,1.3457-3,3v29c0,1.6543,1.3457,3,3,3h32c1.6543,0,3-1.3457,3-3V11c0-1.6543-1.3457-3-3-3ZM33.01367,7c.73712,0,1.375.40509,1.72186,1h-3.44373c.34686-.59491.98474-1,1.72186-1ZM15,7c.73712,0,1.375.40509,1.72186,1h-3.44373c.34686-.59491.98474-1,1.72186-1ZM41,40c0,.55127-.44873,1-1,1H8c-.55127,0-1-.44873-1-1V11c0-.55127.44873-1,1-1h3.14203c.44727,1.72028,1.99969,3,3.85797,3,.55225,0,1-.44775,1-1s-.44775-1-1-1c-.73712,0-1.375-.40509-1.72186-1h15.87756c.44727,1.72028,1.99969,3,3.85797,3,.55225,0,1-.44775,1-1s-.44775-1-1-1c-.73712,0-1.375-.40509-1.72186-1h8.70819c.55127,0,1,.44873,1,1v29Z" fill="#000" stroke-width="0"/>
  <path d="M38,15H10c-.55225,0-1,.44775-1,1v22c0,.55225.44775,1,1,1h28c.55225,0,1-.44775,1-1v-22c0-.55225-.44775-1-1-1ZM33,37H11v-12h2v1c0,.55225.44775,1,1,1h3v1c0,.55225.44775,1,1,1h3v1c0,.55225.44775,1,1,1h3v1c0,.55225.44775,1,1,1h3v1c0,.55225.44775,1,1,1h3v2ZM37,37h-2v-3c0-.55225-.44775-1-1-1h-3v-1c0-.55225-.44775-1-1-1h-3v-1c0-.55225-.44775-1-1-1h-3v-1c0-.55225-.44775-1-1-1h-3v-1c0-.55225-.44775-1-1-1h-3v-1c0-.55225-.44775-1-1-1h-3v-6h26v20Z" fill="#000" stroke-width="0"/>
  <path d="M18,23c.43005,0,.78918-.27454.93042-.65552l2.36255,2.36255c.37054.37054,1.03638.37769,1.41406,0,.39062-.39062.39062-1.02344,0-1.41406l-2.36255-2.36255c.38098-.14124.65552-.50037.65552-.93042,0-.55225-.44775-1-1-1h-2c-.55225,0-1,.44775-1,1v2c0,.55225.44775,1,1,1Z" fill="#000" stroke-width="0"/>
  <path d="M28,28c.43005,0,.78918-.27454.93042-.65552,0,0,2.36035,2.36029,2.36255,2.36255.37579.37573,1.03052.38348,1.41406,0,.39062-.39062.39062-1.02344,0-1.41406l-2.36255-2.36255c.38098-.14124.65552-.50037.65552-.93042,0-.55225-.44775-1-1-1h-2c-.55225,0-1,.44775-1,1v2c0,.55225.44775,1,1,1Z" fill="#000" stroke-width="0"/>
</svg>