<?xml version="1.0" encoding="UTF-8"?>
<svg id="Outline" xmlns="http://www.w3.org/2000/svg" version="1.1" viewBox="0 0 48 48">
  <path d="M40.00684,8h-3.12836c-.44714-1.72028-1.99927-3-3.85797-3s-3.41083,1.27972-3.85797,3h-10.29773c-.44714-1.72028-1.99927-3-3.85797-3s-3.41083,1.27972-3.85797,3h-3.14203c-1.6543,0-3,1.3457-3,3v29c0,1.6543,1.3457,3,3,3h32c1.6543,0,3-1.3457,3-3V11c0-1.6543-1.3457-3-3-3ZM33.02051,7c.73676,0,1.37476.40509,1.7218,1h-3.4436c.34705-.59491.98505-1,1.7218-1ZM15.00684,7c.73676,0,1.37476.40509,1.7218,1h-3.4436c.34705-.59491.98505-1,1.7218-1ZM41.00684,40c0,.55176-.44824,1-1,1H8.00684c-.55176,0-1-.44824-1-1V11c0-.55127.44824-1,1-1h3.14203c.44714,1.72028,1.99927,3,3.85797,3,.55273,0,1-.44775,1-1s-.44727-1-1-1c-.73676,0-1.37476-.40509-1.7218-1h15.8775c.44714,1.72028,1.99927,3,3.85797,3,.55273,0,1-.44775,1-1s-.44727-1-1-1c-.73676,0-1.37476-.40509-1.7218-1h8.70813c.55176,0,1,.44873,1,1v29Z" fill="#000" stroke-width="0"/>
  <path d="M38.00684,15H10.00684c-.55273,0-1,.44775-1,1v22c0,.55273.44727,1,1,1h28c.55273,0,1-.44727,1-1v-22c0-.55225-.44727-1-1-1ZM33.00684,37H11.00684v-12h2v1c0,.55273.44727,1,1,1h3v1c0,.55273.44727,1,1,1h3v1c0,.55273.44727,1,1,1h3v1c0,.55273.44727,1,1,1h3v1c0,.55273.44727,1,1,1h3v2ZM37.00684,37h-2v-3c0-.55273-.44727-1-1-1h-3v-1c0-.55273-.44727-1-1-1h-3v-1c0-.55273-.44727-1-1-1h-3v-1c0-.55273-.44727-1-1-1h-3v-1c0-.55273-.44727-1-1-1h-3v-1c0-.55225-.44727-1-1-1h-3v-6h26v20Z" fill="#000" stroke-width="0"/>
  <path d="M29.66223,27.06946c-.38104.14105-.6554.50012-.6554.93054,0,.55273.44727,1,1,1h2c.55273,0,1-.44727,1-1v-2c0-.55273-.44727-1-1-1-.43048,0-.78943.27435-.93048.65546l-2.36249-2.36249c-.39062-.39062-1.02344-.39062-1.41406,0s-.39062,1.02344,0,1.41406l2.36243,2.36243Z" fill="#000" stroke-width="0"/>
  <path d="M21.65552,23.06958c-.3811.14117-.65552.50031-.65552.93042,0,.55225.44727,1,1,1h2c.55273,0,1-.44775,1-1v-2c0-.55225-.44727-1-1-1-.43042,0-.78937.27454-.93048.65546l-2.36249-2.36249c-.39062-.39062-1.02344-.39062-1.41406,0s-.39062,1.02344,0,1.41406l2.36255,2.36255Z" fill="#000" stroke-width="0"/>
</svg>