<?xml version="1.0" encoding="UTF-8"?>
<svg id="Outline" xmlns="http://www.w3.org/2000/svg" version="1.1" viewBox="0 0 64 64">
  <path d="M42,30.12256c2.20557,0,4-1.79443,4-4s-1.79443-4-4-4-4,1.79443-4,4,1.79443,4,4,4ZM42,24.12256c1.10303,0,2,.89697,2,2s-.89697,2-2,2-2-.89697-2-2,.89697-2,2-2Z" style="fill: #000; stroke-width: 0px;"/>
  <path d="M32,7c-13.78516,0-25,11.21484-25,25s11.21484,25,25,25,25-11.21484,25-25S45.78516,7,32,7ZM32,9c12.68213,0,23,10.31787,23,23,0,2.23114-.32544,4.3866-.92084,6.4281l-5.04742-1.68835c-1.79578-.58875-3.7038-.76538-5.55774-.55725l-11.05994-11.05994,3.79297-3.79297c.58887-.58887.91309-1.37256.91309-2.20703s-.32422-1.61816-.91309-2.20703c-1.2168-1.2168-3.19727-1.2168-4.41406,0l-6.58984,6.58984c-1.16748,1.16748-1.16748,3.06689,0,4.23438l2.67969,2.67969c.18848.18848.29248.43848.29248.70312s-.104.51465-.29248.70312l-4.87476,4.87433c-2.61072-.82977-5.44122-.82709-8.04565.04169l-5.04156,1.6864c-.5954-2.0415-.92084-4.19696-.92084-6.4281,0-12.68213,10.31787-23,23-23ZM22.89996,38.76666c.00421.00171.00854.00244.01282.00415.00507.00189.01038.00317.01544.00507.36768.13818.72559.29443,1.07471.46875l2.17969,1.08984c1.82129.91064,3.81934,1.36572,5.81738,1.36572s3.99609-.45508,5.81738-1.36572l2.18311-1.0918c1.00439-.50635,2.09912-.85449,3.25293-1.03418,1.70605-.26367,3.48828-.11523,5.14941.42969l5.03271,1.68341c-.57904,1.48633-1.30737,2.89771-2.16821,4.21613l-2.22974-.74573c-3.24121-1.08496-6.86182-.82812-9.93506.70361l-2.17969,1.08984c-3.08203,1.54102-6.76367,1.54102-9.8457,0l-2.18115-1.09033c-3.07227-1.53174-6.69482-1.78809-9.93311-.70312l-2.23022.74573c-.8609-1.31842-1.58911-2.72974-2.16815-4.21606l5.03168-1.68298c2.36853-.79083,4.96051-.7428,7.30377.12799ZM29.29688,29.00537l-2.67969-2.67969c-.3877-.3877-.3877-1.01855,0-1.40625l6.58984-6.58984c.4375-.4375,1.14844-.4375,1.58594,0,.27051.27051.32715.58057.32715.79297s-.05664.52246-.32715.79297l-4.5,4.5c-.39062.39062-.39062,1.02344,0,1.41406l10.82513,10.82513c-.69812.21259-1.37341.47699-2.01556.80084l-2.17969,1.08984c-3.08203,1.54102-6.76367,1.54102-9.8457,0l-2.05768-1.02863,4.2774-4.27704c1.16748-1.16748,1.16748-3.06689,0-4.23438ZM32,55c-7.30908,0-13.82782-3.43121-18.0437-8.76294l1.64087-.54858c2.73975-.91748,5.8042-.7002,8.40576.59619l2.17969,1.08984c1.82129.91064,3.81934,1.36572,5.81738,1.36572s3.99609-.45508,5.81738-1.36572l2.17822-1.08936c2.60156-1.29688,5.66699-1.5127,8.40771-.59668l1.64044.54852c-4.21588,5.33173-10.73468,8.763-18.04376,8.763Z" style="fill: #000; stroke-width: 0px;"/>
</svg>