<?xml version="1.0" encoding="UTF-8"?>
<svg id="Outline" xmlns="http://www.w3.org/2000/svg" version="1.1" viewBox="0 0 48 48">
  <path d="M36,41h-3.98633v-3c0-.02405-.01202-.04419-.01367-.06781v-2.93219c1.6543,0,3-1.3457,3-3V15c0-1.6543-1.3457-3-3-3h-3.98633v-5h1.57227l1.70703,1.70703c.37463.37457,1.0387.37537,1.41406,0,.39062-.39062.39062-1.02344,0-1.41406l-2-2c-.1875-.1875-.44141-.29297-.70703-.29297h-12c-.26562,0-.51953.10547-.70703.29297l-2,2c-.39062.39062-.39062,1.02344,0,1.41406s1.02344.39062,1.41406,0l1.70703-1.70703h1.58594v5h-4c-1.6543,0-3,1.3457-3,3v17c0,1.6543,1.3457,3,3,3v6h-4c-.55273,0-1,.44775-1,1s.44727,1,1,1h24c.55273,0,1-.44775,1-1s-.44727-1-1-1ZM22,7h4.01367v5h-4.01367v-5ZM15,32V15c0-.55127.44824-1,1-1h16c.55176,0,1,.44873,1,1v17c0,.55127-.44824,1-1,1h-16c-.55176,0-1-.44873-1-1ZM30,35v2h-12v-2h12ZM20,41h-2v-2h2v2ZM26.01367,41h-4.01367v-2h4.01367v2ZM30.01367,41h-2v-2h2v2Z" fill="#000" stroke-width="0"/>
  <circle cx="30" cy="30" r="1" fill="#000" stroke-width="0"/>
  <circle cx="18.01367" cy="30" r="1" fill="#000" stroke-width="0"/>
  <path d="M26,29h-4c-.55273,0-1,.44775-1,1s.44727,1,1,1h4c.55273,0,1-.44775,1-1s-.44727-1-1-1Z" fill="#000" stroke-width="0"/>
  <path d="M30,16h-12c-.55273,0-1,.44775-1,1v10c0,.55225.44727,1,1,1h12c.55273,0,1-.44775,1-1v-10c0-.55225-.44727-1-1-1ZM29,26h-10v-8h10v8Z" fill="#000" stroke-width="0"/>
</svg>