<?xml version="1.0" encoding="UTF-8"?>
<svg id="Outline" xmlns="http://www.w3.org/2000/svg" version="1.1" viewBox="0 0 48 48">
  <path d="M42,41h-7.55634c.34448-.59076.55634-1.26825.55634-2h3c.55273,0,1-.44775,1-1v-3.93219c.00165-.02362.01367-.04376.01367-.06781v-6c0-1.6543-1.3457-3-3-3s-3,1.3457-3,3v5h-8.01367v-14.69861l3.7464,1.00385c.03442.4397.15564.87048.38251,1.26361.40137.69385,1.04785,1.19043,1.82227,1.39746,1.57361.42065,3.25342-.54993,3.67383-2.12061.42871-1.59766-.52246-3.24609-2.12109-3.6748-.77344-.20654-1.58203-.10059-2.27637.2998-.39331.22711-.71375.53967-.96332.90295l-9.99701-2.67865c-.03448-.43976-.15601-.87067-.38342-1.26385-.40039-.69385-1.04785-1.19043-1.8213-1.39746-1.59277-.42773-3.24511.52246-3.6748,2.12158-.42773,1.59814.52441,3.24603,2.12201,3.67334,1.19025.3183,2.5282-.16754,3.23944-1.20209l4.29578,1.151c-.01727.07361-.04492.14355-.04492.22247v15h-8v-5c0-1.6543-1.3457-3-3-3s-3,1.3457-3,3v10c0,.55225.44727,1,1,1h3.00977c0,.73175.21185,1.40924.55634,2h-7.5661c-.55273,0-1,.44775-1,1s.44727,1,1,1h36c.55273,0,1-.44775,1-1s-.44727-1-1-1ZM30.76178,18.80951c.06836-.2558.24597-.46735.47119-.59747.75702-.43732,1.68604.27271,1.46039,1.11511-.14038.52399-.70245.84601-1.22461.70752-.52429-.1391-.8465-.70306-.70697-1.22516ZM16.77979,15.78674c-.21753.13098-.4837.18201-.75244.11023-.53223-.14258-.84961-.69189-.70801-1.22412.14355-.53271.69336-.84912,1.22559-.70752.39459.10498.69879.46167.73309.86926.03357.3988-.18036.7608-.49823.95215ZM35.01367,28c0-.55127.44824-1,1-1s1,.44873,1,1v5h-2v-5ZM11,28c0-.55127.44824-1,1-1s1,.44873,1,1v5h-2v-5ZM11,37v-2h26v2H11ZM17.00977,41c-1.10254,0-2-.89697-2-2h4c0,1.10303-.89746,2-2,2ZM20.45343,41c.34448-.59076.55634-1.26825.55634-2h5.99023c0,.73175.21185,1.40924.55634,2h-7.10291ZM31,41c-1.10254,0-2-.89697-2-2h4c0,1.10303-.89746,2-2,2Z" fill="#000" stroke-width="0"/>
</svg>