<?xml version="1.0" encoding="UTF-8"?>
<svg xmlns="http://www.w3.org/2000/svg" version="1.1" viewBox="0 0 64 64">
  <!-- Generator: Adobe Illustrator 28.7.1, SVG Export Plug-In . SVG Version: 1.2.0 Build 142)  -->
  <g>
    <g id="Outline">
      <g>
        <path d="M56.41998,18.08998l-24-11c-.26996-.12-.57001-.12-.83997,0L7.58002,18.08998c-.35004.16003-.58002.52002-.58002.91003v37c0,.54999.45001,1,1,1h48c.54999,0,1-.45001,1-1V19.00002c0-.39001-.22998-.75-.58002-.91003ZM32,55.00002h-12v-10h3v3c0,.54999.45001,1,1,1h4c.54999,0,1-.45001,1-1v-3h3v10ZM25,47.00002v-2h2v2h-2ZM44,55.00002h-6v-6h2v1c0,.54999.45001,1,1,1s1-.45001,1-1v-1h2v6ZM48,55.00002h-2v-7c0-.54999-.45001-1-1-1h-8c-.54999,0-1,.45001-1,1v7h-2v-11c0-.54999-.45001-1-1-1h-14c-.54999,0-1,.45001-1,1v11h-2v-24h32v24ZM55,55.00002h-5v-25c0-.54999-.45001-1-1-1H15c-.54999,0-1,.45001-1,1v25h-5V19.64003l23-10.54004,23,10.54004v35.35999Z"/>
        <path d="M18.5,21.00002h-6c-.55225,0-1,.44775-1,1v4c0,.55225.44775,1,1,1h6c.55225,0,1-.44775,1-1v-4c0-.55225-.44775-1-1-1ZM17.5,25.00002h-4v-2h4v2Z"/>
        <path d="M29.5,21.00002h-6c-.55225,0-1,.44775-1,1v4c0,.55225.44775,1,1,1h6c.55225,0,1-.44775,1-1v-4c0-.55225-.44775-1-1-1ZM28.5,25.00002h-4v-2h4v2Z"/>
        <path d="M34.5,27.00002h6c.55225,0,1-.44775,1-1v-4c0-.55225-.44775-1-1-1h-6c-.55225,0-1,.44775-1,1v4c0,.55225.44775,1,1,1ZM35.5,23.00002h4v2h-4v-2Z"/>
        <path d="M45.5,27.00002h6c.55225,0,1-.44775,1-1v-4c0-.55225-.44775-1-1-1h-6c-.55225,0-1,.44775-1,1v4c0,.55225.44775,1,1,1ZM46.5,23.00002h4v2h-4v-2Z"/>
      </g>
    </g>
  </g>
</svg>