<?xml version="1.0" encoding="utf-8"?>
<!-- Generator: Adobe Illustrator 27.3.1, SVG Export Plug-In . SVG Version: 6.00 Build 0)  -->
<svg version="1.1" id="Outline" xmlns="http://www.w3.org/2000/svg" xmlns:xlink="http://www.w3.org/1999/xlink" x="0px" y="0px"
	 viewBox="0 0 48 48" enable-background="new 0 0 48 48" xml:space="preserve">
<g>
	<path d="M11.97919,11.97919c0.3905-0.39056,0.3905-1.02368,0-1.41425c-0.3905-0.3905-1.02368-0.3905-1.41425,0
		c-0.3905,0.39056-0.3905,1.02368,0,1.41425C10.95551,12.36969,11.58868,12.36969,11.97919,11.97919z"/>
	<path d="M24,5c-3.59766,0-7.10254,1.01465-10.13477,2.93506c-0.4668,0.29541-0.60547,0.91309-0.30957,1.37988
		c0.2959,0.46631,0.91309,0.60693,1.37988,0.30957C17.64746,7.90771,20.78125,7,24,7c9.37402,0,17,7.62598,17,17s-7.62598,17-17,17
		S7,33.37402,7,24c0-3.21875,0.9082-6.35352,2.625-9.06494c0.2959-0.4668,0.15723-1.08447-0.30957-1.37988
		c-0.46777-0.29736-1.08496-0.15674-1.37988,0.30957C6.01465,16.89746,5,20.40186,5,24c0,10.47656,8.52344,19,19,19
		s19-8.52344,19-19S34.47656,5,24,5z"/>
	<path d="M9.20508,24.5l6.96484,12.0625c0.17871,0.30957,0.50879,0.5,0.86621,0.5h13.92773c0.35742,0,0.6875-0.19043,0.86621-0.5
		L38.79492,24.5c0.17871-0.30957,0.17871-0.69043,0-1l-6.96484-12.0625c-0.17871-0.30957-0.50879-0.5-0.86621-0.5H17.03613
		c-0.35742,0-0.6875,0.19043-0.86621,0.5L9.20508,23.5C9.02637,23.80957,9.02637,24.19043,9.20508,24.5z M17.61328,12.9375h12.77344
		L36.77441,24l-6.3877,11.0625H17.61328L11.22559,24L17.61328,12.9375z"/>
	<path d="M19.3457,33.0625h9.30859c0.35742,0,0.6875-0.19043,0.86621-0.5L34.17578,24.5c0.17871-0.30957,0.17871-0.69043,0-1
		l-4.65527-8.0625c-0.17871-0.30957-0.50879-0.5-0.86621-0.5H19.3457c-0.35742,0-0.6875,0.19043-0.86621,0.5L13.82422,23.5
		c-0.17871,0.30957-0.17871,0.69043,0,1l4.65527,8.0625C18.6582,32.87207,18.98828,33.0625,19.3457,33.0625z M19.92285,16.9375
		h8.1543L32.15527,24l-4.07812,7.0625h-8.1543L15.84473,24L19.92285,16.9375z"/>
	<circle cx="24" cy="28" r="1"/>
	<path d="M24,25c0.55273,0,1-0.44775,1-1v-4c0-0.55225-0.44727-1-1-1s-1,0.44775-1,1v4C23,24.55225,23.44727,25,24,25z"/>
</g>
</svg>
