<?xml version="1.0" encoding="utf-8"?>
<!-- Generator: Adobe Illustrator 27.3.1, SVG Export Plug-In . SVG Version: 6.00 Build 0)  -->
<svg version="1.1" id="Outline" xmlns="http://www.w3.org/2000/svg" xmlns:xlink="http://www.w3.org/1999/xlink" x="0px" y="0px"
	 viewBox="0 0 64 64" enable-background="new 0 0 64 64" xml:space="preserve">
<g>
	<path d="M51.62012,10.21533l-3.7998-3c-0.31055-0.24512-0.73535-0.28418-1.08594-0.1001l-3.33398,1.75488l-3.33496-1.75488
		c-0.29102-0.15332-0.64062-0.15332-0.93164,0L35.7998,8.87012l-3.33398-1.75488c-0.29102-0.15332-0.64062-0.15332-0.93164,0
		L28.2002,8.87012l-3.33398-1.75488c-0.29102-0.15332-0.64062-0.15332-0.93164,0l-3.33496,1.75488l-3.33398-1.75488
		c-0.34961-0.18506-0.77539-0.146-1.08594,0.1001l-3.7998,3C12.14062,10.40479,12,10.69385,12,11v45c0,0.55225,0.44727,1,1,1h38
		c0.55273,0,1-0.44775,1-1V39c0-0.55225-0.44727-1-1-1s-1,0.44775-1,1v16H14V11.48438l2.90918-2.29688l3.22461,1.69727
		c0.29102,0.15332,0.64062,0.15332,0.93164,0l3.33496-1.75488l3.33398,1.75488c0.29102,0.15332,0.64062,0.15332,0.93164,0
		L32,9.12988l3.33398,1.75488c0.29102,0.15332,0.64062,0.15332,0.93164,0l3.33398-1.75488l3.33496,1.75488
		c0.29102,0.15332,0.64062,0.15332,0.93164,0l3.22461-1.69727L50,11.48438V31c0,0.55225,0.44727,1,1,1s1-0.44775,1-1V11
		C52,10.69385,51.85938,10.40479,51.62012,10.21533z"/>
	<path d="M16,52c0,0.55225,0.44727,1,1,1h30c0.55273,0,1-0.44775,1-1V38c0-0.55225-0.44727-1-1-1H17c-0.55273,0-1,0.44775-1,1V52z
		 M30,51h-2v-6h2V51z M34,51h-2v-6h2V51z M38,51h-2v-6h2V51z M42,51h-2v-6h2V51z M46,51h-2v-6h2V51z M24,39h22v4H24V39z M24,45h2v6
		h-2V45z M18,39h4v4h-4V39z M18,45h4v6h-4V45z"/>
	<path d="M19,32c-0.55176,0-1-0.44873-1-1c0-0.55225-0.44727-1-1-1s-1,0.44775-1,1c0,1.30194,0.8385,2.40155,2,2.81567V34
		c0,0.55225,0.44727,1,1,1s1-0.44775,1-1v-0.18427c1.1615-0.41412,2-1.51379,2-2.81573c0-1.6543-1.3457-3-3-3
		c-0.55176,0-1-0.44873-1-1s0.44824-1,1-1s1,0.44873,1,1c0,0.55225,0.44727,1,1,1s1-0.44775,1-1c0-1.30194-0.8385-2.40161-2-2.81573
		V24c0-0.55225-0.44727-1-1-1s-1,0.44775-1,1v0.18427C16.8385,24.59839,16,25.69806,16,27c0,1.6543,1.3457,3,3,3
		c0.55176,0,1,0.44873,1,1S19.55176,32,19,32z"/>
	<path d="M47,28H33c-0.55273,0-1,0.44775-1,1s0.44727,1,1,1h14c0.55273,0,1-0.44775,1-1S47.55273,28,47,28z"/>
	<path d="M24,33c0,0.55225,0.44727,1,1,1h18c0.55273,0,1-0.44775,1-1s-0.44727-1-1-1H25C24.44727,32,24,32.44775,24,33z"/>
	<path d="M47,24H25c-0.55273,0-1,0.44775-1,1s0.44727,1,1,1h22c0.55273,0,1-0.44775,1-1S47.55273,24,47,24z"/>
	<path d="M29,28h-4c-0.55273,0-1,0.44775-1,1s0.44727,1,1,1h4c0.55273,0,1-0.44775,1-1S29.55273,28,29,28z"/>
	<path d="M35.66699,18.3335c0-3.04639-2.83887-5.91992-2.95996-6.04053c-0.39062-0.39062-1.02344-0.39062-1.41406,0
		c-0.12109,0.12061-2.95996,2.99414-2.95996,6.04053C28.33301,20.35498,29.97754,22,32,22S35.66699,20.35498,35.66699,18.3335z
		 M30.33301,18.3335c0-1.34375,0.91699-2.8418,1.66797-3.80957c0.75098,0.96436,1.66602,2.45898,1.66602,3.80957
		C33.66699,19.25244,32.91895,20,32,20S30.33301,19.25244,30.33301,18.3335z"/>
	<path d="M26.66699,18.3335c0-3.04639-2.83887-5.91992-2.95996-6.04053c-0.39062-0.39062-1.02344-0.39062-1.41406,0
		c-0.12109,0.12061-2.95996,2.99414-2.95996,6.04053C19.33301,20.35498,20.97754,22,23,22S26.66699,20.35498,26.66699,18.3335z
		 M23,20c-0.91895,0-1.66699-0.74756-1.66699-1.6665c0-1.34375,0.91699-2.8418,1.66797-3.80957
		c0.75098,0.96436,1.66602,2.45898,1.66602,3.80957C24.66699,19.25244,23.91895,20,23,20z"/>
	<path d="M44.66699,18.3335c0-3.04639-2.83887-5.91992-2.95996-6.04053c-0.39062-0.39062-1.02344-0.39062-1.41406,0
		c-0.12109,0.12061-2.95996,2.99414-2.95996,6.04053C37.33301,20.35498,38.97754,22,41,22S44.66699,20.35498,44.66699,18.3335z
		 M39.33301,18.3335c0-1.34375,0.91699-2.8418,1.66797-3.80957c0.75098,0.96436,1.66602,2.45898,1.66602,3.80957
		C42.66699,19.25244,41.91895,20,41,20S39.33301,19.25244,39.33301,18.3335z"/>
	<circle cx="51" cy="35" r="1"/>
</g>
</svg>
