<?xml version="1.0" encoding="utf-8"?>
<!-- Generator: Adobe Illustrator 27.3.1, SVG Export Plug-In . SVG Version: 6.00 Build 0)  -->
<svg version="1.1" id="Outline" xmlns="http://www.w3.org/2000/svg" xmlns:xlink="http://www.w3.org/1999/xlink" x="0px" y="0px"
	 viewBox="0 0 64 64" enable-background="new 0 0 64 64" xml:space="preserve">
<g>
	<path d="M32,26c-0.55273,0-1,0.44775-1,1s0.44727,1,1,1c1.6543,0,3,1.3457,3,3c0,0.55225,0.44727,1,1,1s1-0.44775,1-1
		C37,28.24316,34.75684,26,32,26z"/>
	<path d="M50,43c-0.82288,0-1.60956,0.15015-2.34363,0.41223l-1.99194-1.99194C47.18964,38.94757,48,36.13287,48,33.22021
		C48,22.48486,33.32617,7.90332,32.70215,7.2876c-0.39062-0.38379-1.01367-0.38379-1.4043,0
		C30.67383,7.90332,16,22.48486,16,33.22021c0,2.91266,0.81036,5.72736,2.33557,8.20007l-1.99194,1.99194
		C15.60956,43.15015,14.82288,43,14,43c-3.85938,0-7,3.14014-7,7s3.14062,7,7,7s7-3.14014,7-7
		c0-0.82294-0.15021-1.60956-0.41223-2.34363l1.83453-1.83453c1.61023,1.18793,3.43536,2.10022,5.35504,2.62299
		c0.08789,0.02393,0.17676,0.03564,0.26367,0.03564c0.43945,0,0.84277-0.29297,0.96387-0.73779
		c0.14551-0.53271-0.16895-1.08252-0.70215-1.22754c-1.58643-0.43219-3.10083-1.16663-4.45294-2.12079l4.98138-4.98138
		C29.81848,39.78619,30.88354,40,32,40s2.18158-0.21375,3.16888-0.58698l4.98651,4.98651
		c-1.35461,0.95886-2.84424,1.6781-4.45715,2.11511c-0.5332,0.14453-0.84766,0.69385-0.70312,1.22705
		c0.12012,0.44531,0.52344,0.73877,0.96387,0.73877c0.08691,0,0.1748-0.01172,0.2627-0.03516
		c1.95166-0.52948,3.74316-1.42194,5.36096-2.61853l1.82959,1.82959C43.15021,48.39044,43,49.17706,43,50c0,3.85986,3.14062,7,7,7
		s7-3.14014,7-7S53.85938,43,50,43z M18,33.22021c0-8.63477,11.07227-20.74072,14-23.79053c2.92773,3.04834,14,15.14941,14,23.79053
		c0,2.38043-0.61938,4.68732-1.79205,6.74359l-4.44006-4.44006C40.54614,34.19269,41,32.64996,41,31c0-4.9624-4.03711-9-9-9
		s-9,4.0376-9,9c0,1.64996,0.45386,3.19269,1.23212,4.52374l-4.44006,4.44006C18.61938,37.90753,18,35.60065,18,33.22021z M14,55
		c-2.75684,0-5-2.24316-5-5s2.24316-5,5-5s5,2.24316,5,5S16.75684,55,14,55z M19.59918,45.81683
		c-0.4024-0.53717-0.87878-1.01361-1.41602-1.41602l7.25775-7.25775c0.45856,0.48926,0.96448,0.93335,1.52118,1.31085
		L19.59918,45.81683z M32,38c-3.85938,0-7-3.14014-7-7s3.14062-7,7-7s7,3.14014,7,7S35.85938,38,32,38z M37.0379,38.45392
		c0.5567-0.3775,1.06262-0.82159,1.52118-1.31085l7.25781,7.25781c-0.53723,0.4024-1.01367,0.87872-1.41608,1.41595
		L37.0379,38.45392z M50,55c-2.75684,0-5-2.24316-5-5s2.24316-5,5-5s5,2.24316,5,5S52.75684,55,50,55z"/>
	<path d="M16,47c-0.55273,0-1,0.44775-1,1v1h-2v-1c0-0.55225-0.44727-1-1-1s-1,0.44775-1,1v4c0,0.55225,0.44727,1,1,1s1-0.44775,1-1
		v-1h2v1c0,0.55225,0.44727,1,1,1s1-0.44775,1-1v-4C17,47.44775,16.55273,47,16,47z"/>
	<path d="M52,47c-0.55273,0-1,0.44775-1,1v1h-2v-1c0-0.55225-0.44727-1-1-1s-1,0.44775-1,1v4c0,0.55225,0.44727,1,1,1s1-0.44775,1-1
		v-1h2v1c0,0.55225,0.44727,1,1,1s1-0.44775,1-1v-4C53,47.44775,52.55273,47,52,47z"/>
	<path d="M51,23c3.30859,0,6-2.69141,6-6c0-4.36426-5.07715-9.49121-5.29297-9.70703c-0.375-0.375-1.03906-0.375-1.41406,0
		C50.07715,7.50879,45,12.63574,45,17C45,20.30859,47.69141,23,51,23z M51,9.46387c1.54004,1.73779,4,5.04004,4,7.53613
		c0,2.20557-1.79395,4-4,4s-4-1.79443-4-4C47,14.50391,49.45996,11.20166,51,9.46387z"/>
	<path d="M13,23c3.30859,0,6-2.69141,6-6c0-4.36426-5.07715-9.49121-5.29297-9.70703c-0.375-0.375-1.03906-0.375-1.41406,0
		C12.07715,7.50879,7,12.63574,7,17C7,20.30859,9.69141,23,13,23z M13,9.46387c1.54004,1.73779,4,5.04004,4,7.53613
		c0,2.20557-1.79395,4-4,4s-4-1.79443-4-4C9,14.50391,11.45996,11.20166,13,9.46387z"/>
	<circle cx="32" cy="48" r="1"/>
</g>
</svg>
