<?xml version="1.0" encoding="utf-8"?>
<!-- Generator: Adobe Illustrator 27.3.1, SVG Export Plug-In . SVG Version: 6.00 Build 0)  -->
<svg version="1.1" id="Outline" xmlns="http://www.w3.org/2000/svg" xmlns:xlink="http://www.w3.org/1999/xlink" x="0px" y="0px"
	 viewBox="0 0 48 48" enable-background="new 0 0 48 48" xml:space="preserve">
<g>
	<circle cx="24" cy="6" r="1"/>
	<circle cx="24" cy="30" r="1"/>
	<path d="M23,23v3c0,0.55273,0.44775,1,1,1s1-0.44727,1-1v-3c0-0.55273-0.44775-1-1-1S23,22.44727,23,23z"/>
	<path d="M25.69629,17.4707c-0.71859-1.26841-2.70868-1.21042-3.41455,0.03614c-0.00005,0.00009-8.15462,14.39967-8.17379,14.43353
		C13.3549,33.27011,14.2211,35,15.8042,35c0,0,16.3616,0,16.39108,0c1.49775,0,2.53012-1.72793,1.71879-3.02344
		C33.91406,31.97656,25.70099,17.479,25.69629,17.4707z M15.82617,32.96289l8.15186-14.46973L32.20117,33L15.82617,32.96289z"/>
	<path d="M37.14746,7.75293C37.02734,6.20898,35.71484,5,34.16016,5H28c-0.55273,0-1,0.44727-1,1s0.44727,1,1,1h6.16016
		c0.51758,0,0.9541,0.39844,0.99414,0.91309L35.41144,11h-5.5957C29.40161,9.8385,28.30194,9,27,9h-6
		c-1.30194,0-2.40161,0.8385-2.81573,2h-5.59509l0.258-3.09277C12.88672,7.39844,13.32275,7,13.83984,7H20c0.55225,0,1-0.44727,1-1
		s-0.44775-1-1-1h-6.16016c-1.55469,0-2.8667,1.20898-2.98633,2.74707L8.09375,40.83398
		c-0.04785,0.55469,0.14062,1.10742,0.51709,1.51758C8.98926,42.76367,9.52832,43,10.08984,43h2.29004
		c0.7666,0,1.4541-0.42285,1.79492-1.10352L15.61865,39h16.76221l1.44434,2.89746C34.16504,42.57715,34.85352,43,35.62012,43
		h2.29004c0.56152,0,1.10059-0.23633,1.47852-0.64844c0.37695-0.41016,0.56543-0.96289,0.51758-1.51465L37.14746,7.75293z M21,11h6
		c0.55176,0,1,0.44824,1,1s-0.44824,1-1,1h-6c-0.55127,0-1-0.44824-1-1S20.44873,11,21,11z M35.61426,41.00391l-1.71973-3.4502
		C33.72559,37.21484,33.37891,37,33,37H15c-0.37939,0-0.72559,0.21484-0.89502,0.55371L12.37988,41l-2.29346,0.00293L12.42236,13
		h5.76196c0.41412,1.1615,1.51373,2,2.81567,2h6c1.30194,0,2.40161-0.8385,2.81573-2H35.578l2.33215,28L35.61426,41.00391z"/>
</g>
</svg>
