<?xml version="1.0" encoding="UTF-8"?>
<svg id="Glyph" xmlns="http://www.w3.org/2000/svg" viewBox="0 0 64 64">
  <path d="M58.81,54.52h-8.97c-.58,2.07-2.49,3.6-4.74,3.6-.09,0-.18,0-.27-.01-2.11-.11-3.85-1.59-4.44-3.59h-4.1c-.81.59-1.81.94-2.89.94-.08,0-.17,0-.26-.01-.96-.05-1.85-.39-2.59-.93H5.19c-.67,0-1.21.55-1.21,1.21v1.8c0,1.37,1.11,2.48,2.47,2.48h51.1c1.36,0,2.47-1.11,2.47-2.48v-1.8c0-.66-.54-1.21-1.21-1.21Z"/>
  <path d="M9.17,47.74c-.97,0-1.89-.24-2.7-.66-.61.68-.96,1.57-.96,2.54,0,1.16.52,2.19,1.32,2.9h22.11c-.3-.65-.46-1.38-.46-2.15v-2.68l-19.31.05Z"/>
  <path d="M38.33,49.74v.79c0,.71-.15,1.38-.42,1.99h2.26v-2.95c0-.51-.41-.92-.92-.92-.52.02-.92.52-.92,1.09Z"/>
  <path d="M54.87,47.74h-4.89l.04,4.78h7.15c.8-.71,1.32-1.74,1.32-2.9,0-.97-.35-1.85-.94-2.53-.8.42-1.71.65-2.68.65Z"/>
  <path d="M3.977,31.851c0,1.367,1.108,2.476,2.476,2.476h51.094c1.367,0,2.476-1.108,2.476-2.476v-3.007H3.977v3.007Z"/>
  <path d="M22.162,4.551c-1.915-1.148-4.401-.464-5.46,1.503L3.977,26.844h56.045L22.162,4.551ZM14.984,22.276c0,.552-.448,1-1,1s-1-.448-1-1v-2.122c0-.552.448-1,1-1s1,.448,1,1v2.122ZM19.707,15.129c0,.552-.448,1-1,1s-1-.448-1-1v-2.122c0-.552.448-1,1-1s1,.448,1,1v2.122ZM23.514,22.215c0,.552-.448,1-1,1s-1-.448-1-1v-2.122c0-.552.448-1,1-1s1,.448,1,1v2.122ZM28.107,15.129c0,.552-.448,1-1,1s-1-.448-1-1v-2.122c0-.552.448-1,1-1s1,.448,1,1v2.122ZM32.044,22.246c0,.552-.448,1-1,1s-1-.448-1-1v-2.122c0-.552.448-1,1-1s1,.448,1,1v2.122ZM39.575,23.276c-.552,0-1-.448-1-1v-2.122c0-.552.448-1,1-1s1,.448,1,1v2.122c0,.552-.448,1-1,1Z"/>
  <path d="M58.555,40.511l-2.025,2.113c-.935.975-2.192,1.511-3.543,1.511s-2.608-.537-3.542-1.511l-2.798-2.918c-.233-.243-.511-.28-.655-.28s-.422.037-.656.28l-2.797,2.918c-.935.975-2.192,1.511-3.543,1.511s-2.608-.537-3.542-1.511l-2.798-2.918c-.233-.243-.511-.28-.655-.28s-.422.037-.656.28l-2.797,2.918c-.935.975-2.193,1.511-3.543,1.511s-2.608-.537-3.543-1.511l-2.797-2.918c-.233-.243-.511-.28-.655-.28s-.422.037-.656.28l-2.797,2.918c-.935.975-2.193,1.511-3.543,1.511s-2.608-.537-3.543-1.511l-1.991-2.077c-.123.44-.192.883-.192,1.302,0,2.146,1.74,3.886,3.886,3.886h19.35c1.08,0,1.956.876,1.956,1.956v2.677c0,1.583,1.185,3.002,2.766,3.084,1.686.088,3.08-1.253,3.08-2.919v-.797c0-1.583,1.185-3.002,2.766-3.085,1.686-.088,3.08,1.253,3.08,2.919v3.46c0,1.583,1.185,3.002,2.766,3.084,1.686.088,3.08-1.253,3.08-2.919v-5.505c0-1.08.876-1.956,1.956-1.956h4.896c2.146,0,3.886-1.74,3.886-3.886,0-.431-.073-.886-.203-1.338Z"/>
  <path d="M59.625,35.791c-.624.331-1.324.536-2.078.536H6.453c-.754,0-1.455-.205-2.079-.536l-.357.342,4.897,5.107c1.145,1.194,3.053,1.194,4.198,0l2.798-2.918c1.145-1.194,3.053-1.194,4.198,0l2.798,2.918c1.145,1.194,3.053,1.194,4.198,0l2.798-2.918c1.145-1.194,3.053-1.194,4.198,0l2.798,2.918c1.145,1.194,3.053,1.194,4.198,0l2.798-2.918c1.145-1.194,3.053-1.194,4.198,0l2.798,2.918c1.145,1.194,3.053,1.194,4.198,0l4.897-5.107-.358-.342Z"/>
</svg>