<?xml version="1.0" encoding="UTF-8"?>
<svg id="Glyph" xmlns="http://www.w3.org/2000/svg" viewBox="0 0 64 64">
  <path d="M12,21v1.6c0,5.46,3.24,10.21,7.84,12.29l5.16,4.48,5.06-4.39c1.49-.63,2.86-1.54,4.05-2.7,2.51-2.47,3.89-5.76,3.89-9.28v-2c1.66,0,3-1.34,3-3s-1.34-3-3-3H12c-1.66,0-3,1.34-3,3s1.34,3,3,3ZM14,17.39l.44,1.06c.34.67,1.03,1.1,1.79,1.1h17.53c.76,0,1.45-.43,1.79-1.1l.45-1.08v5.63c0,2.98-1.17,5.76-3.29,7.85-2.13,2.08-4.92,3.18-7.92,3.15-5.95-.11-10.79-5.22-10.79-11.4v-5.21Z"/>
  <path d="M32.413,35.58l-7.413,6.441,6.139,3.061c.452.225,1,.012,1.181-.459l2.747-7.15c.108-.281.019-.599-.219-.782l-1.473-1.138c-.286-.221-.689-.21-.962.028Z"/>
  <path d="M16.625,35.553l-1.473,1.138c-.238.184-.327.502-.219.782l2.747,7.15c.181.472.729.685,1.181.459l6.139-3.061-7.413-6.441c-.273-.237-.676-.249-.962-.028Z"/>
  <path d="M37.07,37.68c-.03.17-.07.34-.14.51l-.54,1.41.54.08c1.16.16,2.27.55,3.28,1.16l.01.01v2.48c.35-.11.73-.17,1.11-.17h3.63c-.82-1.64-2.1-3.05-3.72-4.03-1.23-.75-2.61-1.23-4.04-1.43l-.13-.02Z"/>
  <path d="M30.5,54.67c0-.09,0-.17.01-.26H14.11v5.57h-4.29v-8.61c0-.76.61-1.37,1.37-1.37h22.19l1.83-2h-.06v-5.17l-.96,2.51c-.42,1.1-1.49,1.83-2.67,1.83-.44,0-.88-.1-1.27-.3l-5.25-2.61-5.25,2.61c-.39.2-.83.3-1.27.3-1.18,0-2.25-.73-2.67-1.83l-.96-2.5v5.16h-3.66c-.49,0-.95.11-1.37.3v-7.47c1-.6,2.1-.99,3.25-1.15l.54-.08-.54-1.41c-.07-.17-.11-.34-.14-.51l-.13.02c-1.43.2-2.81.68-4.04,1.43-2.95,1.78-4.76,4.98-4.76,8.43v10.08c0,1.3,1.06,2.36,2.36,2.36h24.63c-.31-.56-.49-1.2-.49-1.88v-3.45Z"/>
  <path d="M37,11c0-4.42-3.58-7-8-7h-8c-4.42,0-8,2.58-8,7v2h24v-2ZM28.94,9.13c0,.71-.57,1.28-1.27,1.28h-5.34c-.7,0-1.27-.57-1.27-1.28v-1c0-.7.57-1.27,1.27-1.27h5.34c.7,0,1.27.57,1.27,1.27v1Z"/>
  <path d="M58.337,39.085c.918,0,1.663-.744,1.663-1.663v-3.6c0-.918-.744-1.663-1.663-1.663h-11.794c-.918,0-1.663.744-1.663,1.663v3.6c0,.918.744,1.663,1.663,1.663h3.997v6.075h-6.641v14.841h14.222c1.037,0,1.878-.841,1.878-1.878v-11.085c0-1.037-.841-1.878-1.878-1.878h-3.782v-6.075h3.997ZM56.532,54.872c.552,0,1,.448,1,1s-.448,1-1,1h-9.063c-.552,0-1-.448-1-1s.448-1,1-1h9.063Z"/>
  <path d="M39.95,45.77l-6.96,7.63c-.31.35-.49.8-.49,1.27v3.45c0,1.04.84,1.88,1.88,1.88h7.52v-14.84h-.57c-.53,0-1.03.22-1.38.61Z"/>
</svg>