<?xml version="1.0" encoding="UTF-8"?>
<svg id="Glyph" xmlns="http://www.w3.org/2000/svg" viewBox="0 0 64 64">
  <path d="M18.08,53.47c-1.37,0-2.56-.72-3.23-1.8h-5.41c.9,3.94,4.43,6.87,8.64,6.87s7.74-2.93,8.64-6.87h-5.41c-.67,1.08-1.86,1.8-3.23,1.8Z"/>
  <path d="M49.08,53.47c-1.37,0-2.56-.72-3.23-1.8h-5.41c.9,3.94,4.43,6.87,8.64,6.87s7.74-2.93,8.64-6.87h-5.41c-.67,1.08-1.86,1.8-3.23,1.8Z"/>
  <path d="M59.957,48.344c-.654-5.413-5.263-9.607-10.852-9.607s-10.198,4.194-10.852,9.607c-.085.703.471,1.325,1.179,1.325h19.345c.708,0,1.264-.622,1.179-1.325Z"/>
  <path d="M37.468,11.886c.553,0,1-.447,1-1v-1.684c.568.071,1.077.393,1.357.902l2.036,3.68c.162-.042.32-.094.488-.119-.628.094-1.204.321-1.718.636,1.942.262,3.449,1.912,3.449,3.925s-1.509,3.664-3.451,3.926c.515.315,1.091.543,1.72.637l5.289.702v-10.527l-3.675.488-2.387-4.316c-.634-1.145-1.81-1.872-3.107-1.948v-1.729c0-.553-.447-1-1-1s-1,.447-1,1v5.428c0,.553.447,1,1,1Z"/>
  <path d="M49.11,36.74c3.53,0,6.76,1.43,9.11,3.76-1.92-5.49-6.93-7.94-6.93-7.94-2.916-1.784-4.071-4.766-4.516-7.167l-4.687-.622c-.623-.093-1.216-.273-1.767-.525v9.664s.22,8.23-7.96,8.36c.96,1.83,1.57,3.84,1.76,5.92.05.51-.03,1.01-.22,1.48h2.59c-.21-.49-.29-1.03-.22-1.57.78-6.48,6.3-11.36,12.84-11.36Z"/>
  <path d="M36.734,20.204h3.369c1.093,0,1.979-.886,1.979-1.979s-.886-1.979-1.979-1.979h-3.369c-1.093,0-1.979.886-1.979,1.979s.886,1.979,1.979,1.979Z"/>
  <path d="M53.748,21.91v-7.36c0-1.29-1.14-2.27-2.41-2.08l-1.7.23v11.05l1.7.23c1.27.19,2.41-.79,2.41-2.07Z"/>
  <path d="M24.48,26.75v1.42h-12.81v-1.43c.06.02.13.02.2.02,1.55,0,1.55-1.18,3.11-1.18,1.55,0,1.55,1.18,3.1,1.18s1.55-1.18,3.11-1.18c1.55,0,1.55,1.18,3.1,1.18.07,0,.13,0,.19-.01Z"/>
  <path d="M28.37,12.91H7.78c-1.48,0-2.67,1.19-2.67,2.66v20.22c0,1.47,1.19,2.66,2.67,2.66h20.59c1.47,0,2.66-1.19,2.66-2.66V15.57c0-1.47-1.19-2.66-2.66-2.66ZM9.48,21.94c1.68-2.94,4.85-4.92,8.49-4.92s6.8,1.98,8.49,4.92c.14.25.18.52.14.78l-17.26.04c-.05-.27-.02-.56.14-.82ZM26.58,29.91c-.53,1.81-2.21,3.13-4.19,3.13h-8.84c-1.99,0-3.66-1.32-4.2-3.13-.18-.61.27-1.23.9-1.24-.35-.33-.57-.8-.57-1.32v-1.59c-.24-.11-.53-.18-.91-.18l.78-.82,17.08-.04.77.86c-.39,0-.67.07-.91.18v1.59c0,.54-.24,1.01-.61,1.35.52.12.86.66.7,1.21Z"/>
  <path d="M28.366,40.451H7.776c-.101,0-.196-.023-.296-.03-1.907,2.164-3.164,4.907-3.442,7.947-.064.695.482,1.3,1.181,1.3h25.724c.698,0,1.244-.605,1.181-1.3-.278-3.041-1.536-5.785-3.443-7.949-.106.007-.207.032-.315.032Z"/>
</svg>