<?xml version="1.0" encoding="UTF-8"?>
<svg id="Glyph" xmlns="http://www.w3.org/2000/svg" viewBox="0 0 64 64">
  <g>
    <path d="M42.139,15.981H8.941c-1.744,0-3.171,1.331-3.171,2.958s1.427,2.958,3.171,2.958h33.198c1.744,0,3.171-1.331,3.171-2.958s-1.427-2.958-3.171-2.958Z"/>
    <path d="M42.14,23.9h-13.31c1.21,2.58,3.29,7.44,4.8,13.4,2.28-1.88,5.03-3.12,7.97-3.56l.84-9.87c-.1,0-.2.03-.3.03ZM24.06,23.9h-15.12c-.1,0-.2-.03-.3-.03l2.75,32.36c.18,2.07,2.03,3.77,4.11,3.77h8.03c6.01-11.04,2.05-29.96.53-36.1ZM12.8,49.24l-1.53-18.02c3.66,1.56,6.23,5.19,6.23,9.42,0,3.61-1.87,6.78-4.7,8.6Z"/>
    <path d="M28.868,13.98l.847-3.137c.52-1.705,2.066-2.85,3.849-2.85h3.646c.625,0,1.132-.507,1.132-1.132v-1.73c0-.625-.507-1.132-1.132-1.132h-3.646c-3.551,0-6.633,2.282-7.686,5.741l-1.145,4.24h4.136Z"/>
  </g>
  <path d="M56.827,42.882c-2.523-4.393-7.259-7.352-12.688-7.352s-10.165,2.959-12.688,7.352c-.696,1.213.188,2.726,1.586,2.726h22.204c1.398,0,2.283-1.514,1.586-2.726ZM38.212,42.029c0,.552-.447,1-1,1s-1-.448-1-1v-1.027c0-.552.447-1,1-1s1,.448,1,1v1.027ZM41.675,40.136c0,.552-.447,1-1,1s-1-.448-1-1v-1.026c0-.552.447-1,1-1s1,.448,1,1v1.026ZM45.139,42.029c0,.552-.447,1-1,1s-1-.448-1-1v-1.027c0-.552.447-1,1-1s1,.448,1,1v1.027ZM48.602,40.136c0,.552-.447,1-1,1s-1-.448-1-1v-1.026c0-.552.447-1,1-1s1,.448,1,1v1.026ZM52.065,42.029c0,.552-.447,1-1,1s-1-.448-1-1v-1.027c0-.552.447-1,1-1s1,.448,1,1v1.027Z"/>
  <path d="M54.154,55.467h-1.212c-.249,1.971-1.938,3.502-3.978,3.502-.215,0-.436-.017-.658-.053-1.712-.279-3.046-1.71-3.305-3.449h-10.537c-.832,0-1.603-.259-2.241-.698-.017.18-.01.365.045.553.798,2.704,3.299,4.678,6.262,4.678h11.216c2.963,0,5.464-1.974,6.262-4.678.036-.123.053-.246.057-.367-.57.316-1.215.512-1.912.512Z"/>
  <path d="M53.59,52.421c-1.833,0-2.854-.775-3.529-1.289-.479-.364-.624-.474-1.11-.474s-.631.11-1.109.474c-.676.513-1.696,1.289-3.53,1.289s-2.854-.775-3.529-1.289c-.479-.364-.624-.474-1.11-.474s-.632.11-1.11.474c-.676.513-1.696,1.289-3.53,1.289-1.091,0-1.889-.276-2.503-.607.152.936.958,1.653,1.937,1.653h12.494l-.002,1.386c0,1.001.684,1.928,1.671,2.089,1.258.205,2.346-.761,2.346-1.981l.002-1.493h3.179c.979,0,1.785-.716,1.937-1.652-.614.33-1.412.606-2.502.606Z"/>
  <path d="M55.24,47.608h-22.204c-.491,0-.962-.094-1.399-.264l-1.247,1.315c2.32,0,2.321,1.762,4.641,1.762s2.32-1.762,4.641-1.762c2.32,0,2.32,1.762,4.64,1.762s2.32-1.762,4.64-1.762,2.32,1.762,4.64,1.762c2.32,0,2.32-1.762,4.64-1.762l-1.292-1.45c-.517.255-1.091.4-1.697.4Z"/>
</svg>