<?xml version="1.0" encoding="UTF-8"?>
<svg id="Glyph" xmlns="http://www.w3.org/2000/svg" viewBox="0 0 64 64">
  <path d="M23.18,10.66v1.64c.08-.01.17-.01.25-.01h5.32c.08,0,.17,0,.25.01v-1.64c1.59-.26,2.8-1.64,2.8-3.3,0-1.86-1.5-3.36-3.35-3.36-.92,0-1.75.37-2.36.97-.6-.6-1.43-.97-2.35-.97-1.85,0-3.36,1.51-3.36,3.36.01,1.66,1.22,3.04,2.8,3.3Z"/>
  <polygon points="13.75 49.44 49.43 49.44 50.5 41.95 12.68 41.95 13.75 49.44"/>
  <polygon points="12.391 39.95 50.786 39.95 51.431 35.451 11.746 35.451 12.391 39.95"/>
  <path d="M14.862,57.174c.233,1.622,1.622,2.826,3.26,2.826h26.933c1.638,0,3.027-1.204,3.26-2.826l.823-5.734H14.039l.823,5.734Z"/>
  <path d="M51.688,27.535H11.49c-1.744,0-3.171,1.331-3.171,2.958s1.427,2.958,3.171,2.958h40.198c1.744,0,3.171-1.331,3.171-2.958s-1.427-2.958-3.171-2.958Z"/>
  <path d="M45.294,13.936l3.76,3.76c.06.06.103.13.158.193l1.169-1.168c1.312.933,3.138.819,4.316-.357,1.311-1.311,1.312-3.438,0-4.749-.65-.647-1.495-.971-2.346-.98-.008-.851-.334-1.699-.98-2.346-1.312-1.312-3.44-1.31-4.749,0-1.176,1.178-1.292,3.005-.357,4.317l-1.169,1.168c.064.056.136.101.197.162Z"/>
  <path d="M36.84,25.54h8.4c.16-.58.36-1.09.56-1.52.41-.88,1-1.67,1.69-2.36l.15-.15c.66-.66.66-1.74,0-2.4l-3.76-3.76c-.67-.67-1.74-.67-2.41,0l-.13.13c-.78.78-1.68,1.41-2.69,1.84-.86.37-1.97.71-3.43.86-.79.04-1.57.17-2.33.41.34.87.83,1.69,1.5,2.52,1.16,1.28,1.99,2.79,2.45,4.43Z"/>
  <path d="M32.87,22.42c-1.04-1.28-1.6-2.42-1.94-3.35-.33-.92-.48-1.89-.48-2.87v-.21c0-.94-.76-1.7-1.7-1.7h-5.32c-.94,0-1.7.76-1.7,1.7v.2c0,1.09-.19,2.18-.59,3.19-.35.87-.89,1.9-1.82,3.04-.82.89-1.46,1.95-1.87,3.12h17.29c-.41-1.17-1.05-2.23-1.87-3.12Z"/>
</svg>