<?xml version="1.0" encoding="UTF-8"?>
<svg id="Glyph" xmlns="http://www.w3.org/2000/svg" viewBox="0 0 64 64">
  <path d="M36.4,21.04H4.37c-.13,0-.25-.02-.37-.05v16.42l32.4-8.46v-7.91Z"/>
  <path d="M32.12,55.89c-.12-.42-.16-.86-.12-1.31.05-.52.31-.99.69-1.33-.17-.34-.3-.71-.37-1.11-.08-.5.05-1,.32-1.41-.14-.04-.28-.07-.48-.07-.8,0-1.52-.48-1.84-1.21-.31-.74-.16-1.59.39-2.17l1.08-1.14c-.1-.14-.2-.29-.29-.44-.7-1.2-.7-2.62-.01-3.81.37-.64.78-1.25,1.23-1.83l-28.72,7.99v8.63c0,1.83,1.49,3.32,4.32,3.32h26.52c-1.26-1.04-2.24-2.46-2.72-4.11Z"/>
  <path d="M38.035,16.371l3.912-5.651v-5.208c0-.837-.679-1.516-1.516-1.516H12.495c-.837,0-1.516.678-1.516,1.516v5.208l-5.75,6.86c-.37.44-.66.93-.86,1.46h32.315c.267-.969.708-1.885,1.349-2.669Z"/>
  <path d="M38.4,20.96v14.38c1.56-.8,3.23-1.34,4.98-1.6V12.16l-3.75,5.42c-.8.95-1.23,2.14-1.23,3.38Z"/>
  <path d="M50.36,34.14v-13.18c0-1.24-.44-2.43-1.23-3.38l-3.75-5.42v21.39c.18-.02.35-.02.53-.02,1.52,0,3.02.21,4.45.61Z"/>
  <path d="M33.221,42.883c-.696,1.212.188,2.726,1.586,2.726h22.204c1.398,0,2.282-1.514,1.586-2.726-2.523-4.393-7.259-7.352-12.688-7.352s-10.165,2.959-12.688,7.352ZM39.982,42.029c0,.552-.448,1-1,1s-1-.448-1-1v-1.026c0-.552.448-1,1-1s1,.448,1,1v1.026ZM43.446,40.137c0,.552-.448,1-1,1s-1-.448-1-1v-1.026c0-.552.448-1,1-1s1,.448,1,1v1.026ZM51.836,41.003c0-.552.448-1,1-1s1,.448,1,1v1.026c0,.552-.448,1-1,1s-1-.448-1-1v-1.026ZM48.373,39.11c0-.552.448-1,1-1s1,.448,1,1v1.026c0,.552-.448,1-1,1s-1-.448-1-1v-1.026ZM46.909,41.003v1.026c0,.552-.448,1-1,1s-1-.448-1-1v-1.026c0-.552.448-1,1-1s1,.448,1,1Z"/>
  <path d="M54.713,55.468c-.249,1.971-1.938,3.501-3.976,3.501-.216,0-.437-.017-.66-.053-1.711-.278-3.046-1.71-3.304-3.448h-10.538c-.832,0-1.603-.259-2.241-.698-.017.18-.01.365.045.552.798,2.704,3.3,4.678,6.262,4.678h11.216c2.963,0,5.464-1.974,6.262-4.678.036-.123.053-.245.057-.366-.569.316-1.215.512-1.911.512h-1.213Z"/>
  <path d="M51.832,51.133c-.479-.364-.624-.474-1.11-.474s-.631.11-1.11.474c-.675.513-1.696,1.288-3.529,1.288s-2.854-.775-3.529-1.288c-.479-.364-.624-.474-1.11-.474s-.632.11-1.111.474c-.675.513-1.696,1.288-3.529,1.288-1.091,0-1.889-.276-2.503-.606.152.936.958,1.653,1.938,1.653h12.494l-.002,1.386c0,1.001.684,1.928,1.671,2.089,1.259.205,2.346-.761,2.346-1.981l.002-1.493h3.179c.979,0,1.785-.716,1.937-1.653-.614.33-1.412.606-2.502.606-1.833,0-2.854-.775-3.529-1.288Z"/>
  <path d="M57.011,47.609h-22.204c-.491,0-.962-.094-1.399-.264l-1.247,1.315c2.32,0,2.321,1.762,4.641,1.762s2.32-1.762,4.641-1.762,2.32,1.762,4.64,1.762,2.32-1.762,4.64-1.762,2.32,1.762,4.64,1.762,2.32-1.762,4.64-1.762l-1.292-1.45c-.517.255-1.091.4-1.697.4Z"/>
</svg>