<?xml version="1.0" encoding="UTF-8"?>
<svg id="Glyph" xmlns="http://www.w3.org/2000/svg" viewBox="0 0 64 64">
  <path d="M21.48,17.82v-8.17c0-.36-.29-.65-.65-.65h-3.05c-.36,0-.65.29-.65.65v7.24h1.97c.89,0,1.73.33,2.38.93Z"/>
  <path d="M34.17,24.03v-14.38c0-.36-.29-.65-.65-.65h-3.04c-.36,0-.65.29-.65.65v14.38c.7.14,1.43.21,2.17.21s1.47-.07,2.17-.21Z"/>
  <path d="M46.87,16.89v-7.24c0-.36-.29-.65-.65-.65h-3.05c-.36,0-.65.29-.65.65v8.17c.65-.6,1.49-.93,2.38-.93h1.97Z"/>
  <path d="M40.52,5.56c0-.31-.25-.56-.55-.56h-3.24c-.31,0-.56.25-.56.56v17.9c1.66-.65,3.15-1.68,4.35-3.03V5.56Z"/>
  <path d="M27.83,5.56c0-.31-.25-.56-.56-.56h-3.24c-.3,0-.55.25-.55.56v14.87c1.2,1.35,2.69,2.38,4.35,3.03V5.56Z"/>
  <path d="M23.54,41.45c0-1.65.48-3.2,1.31-4.5h-10.48l1.36,9.49h9.44c-1.02-1.4-1.63-3.13-1.63-4.99Z"/>
  <path d="M32,49.91c-1.76,0-3.4-.54-4.75-1.47h-11.23l1.25,8.73c.24,1.63,1.63,2.83,3.26,2.83h22.94c1.63,0,3.02-1.2,3.26-2.83l1.25-8.73h-11.23c-1.35.93-2.99,1.47-4.75,1.47Z"/>
  <path d="M50.61,18.89h-5.71c-.57,0-1.07.32-1.36.8-2.35,3.92-6.64,6.55-11.54,6.55s-9.19-2.63-11.54-6.55c-.29-.48-.79-.8-1.36-.8h-5.71c-.85,0-1.5.76-1.38,1.6l2.08,14.46h12.5c1.47-1.22,3.36-1.96,5.41-1.96s3.94.74,5.41,1.96h12.5l2.08-14.46c.12-.84-.53-1.6-1.38-1.6Z"/>
  <path d="M40.46,41.45c0,1.86-.61,3.59-1.63,4.99h9.44l1.36-9.49h-10.48c.83,1.3,1.31,2.85,1.31,4.5Z"/>
</svg>