<?xml version="1.0" encoding="UTF-8"?>
<svg id="Glyph" xmlns="http://www.w3.org/2000/svg" viewBox="0 0 64 64">
  <g>
    <path d="M7.413,43.552L43.553,7.411c.13-.13.269-.246.405-.367-3.105-2.657-7.782-2.523-10.724.417L7.462,33.234c-2.942,2.941-3.076,7.616-.417,10.725.121-.137.237-.277.368-.407Z"/>
    <path d="M56.456,20.318L20.316,56.458c-.132.132-.273.25-.411.373,3.103,2.782,7.875,2.691,10.861-.293l25.772-25.773c2.985-2.985,3.078-7.754.294-10.861-.124.139-.243.282-.376.415Z"/>
  </g>
  <path d="M55.042,8.825c-2.778-2.78-7.291-2.781-10.075,0L8.827,44.966c-2.782,2.783-2.782,7.295,0,10.078,2.782,2.781,7.293,2.782,10.075,0L55.042,18.904c2.784-2.783,2.782-7.296,0-10.078ZM49.094,13.938c-1.224,1.224-1.354,2.219-1.518,3.478-.18,1.373-.383,2.929-2.088,4.634-1.705,1.706-3.262,1.908-4.634,2.087-1.26.165-2.254.294-3.479,1.518-1.224,1.224-1.354,2.219-1.518,3.478-.18,1.373-.383,2.929-2.088,4.634-1.705,1.705-3.261,1.908-4.633,2.087-1.259.165-2.254.294-3.479,1.519-1.225,1.225-1.354,2.22-1.519,3.479-.179,1.373-.383,2.928-2.088,4.633-1.705,1.706-3.261,1.909-4.634,2.088-1.26.165-2.254.294-3.479,1.519-.195.195-.451.293-.707.293s-.512-.098-.707-.293c-.391-.391-.391-1.024,0-1.414,1.705-1.705,3.261-1.908,4.634-2.088,1.26-.165,2.255-.294,3.479-1.519s1.354-2.219,1.519-3.479c.18-1.373.383-2.929,2.088-4.634s3.261-1.908,4.634-2.087c1.259-.165,2.254-.294,3.478-1.518s1.354-2.219,1.519-3.479c.179-1.373.382-2.928,2.087-4.633s3.261-1.908,4.634-2.087c1.259-.165,2.254-.294,3.479-1.519,1.225-1.225,1.354-2.219,1.519-3.479.179-1.373.382-2.928,2.087-4.633.391-.391,1.023-.391,1.414,0,.391.39.391,1.023,0,1.414Z"/>
  <path d="M9.74,58.15l-.69,1.22c-.4.71-1.38.85-1.96.27l-2.73-2.73c-.58-.58-.44-1.56.27-1.96l1.18-.66c.41.78.95,1.51,1.6,2.17.7.69,1.48,1.26,2.33,1.69Z"/>
  <path d="M59.37,9.05l-1.22.69c-.43-.85-1-1.64-1.69-2.33-.65-.65-1.38-1.19-2.17-1.61l.66-1.17c.4-.71,1.38-.85,1.96-.27l2.73,2.73c.58.58.44,1.56-.27,1.96Z"/>
</svg>