<?xml version="1.0" encoding="UTF-8"?>
<svg id="Glyph" xmlns="http://www.w3.org/2000/svg" viewBox="0 0 64 64">
  <path d="M54.946,28.141H9.054c-1.123,0-2.178-.322-3.081-.893-.606.637-.984,1.494-.984,2.442,0,1.96,1.589,3.549,3.549,3.549h46.924c1.96,0,3.549-1.589,3.549-3.549,0-.949-.378-1.806-.984-2.442-.903.571-1.958.893-3.081.893Z"/>
  <path d="M58.225,20.506c-5.214-9.08-15.003-15.196-26.225-15.196S10.989,11.426,5.775,20.506c-1.439,2.506.389,5.635,3.278,5.635h45.893c2.89,0,4.718-3.129,3.278-5.635ZM18.684,18.743c0,.552-.447,1-1,1s-1-.448-1-1v-2.122c0-.552.447-1,1-1s1,.448,1,1v2.122ZM25.842,14.831c0,.552-.447,1-1,1s-1-.448-1-1v-2.122c0-.552.447-1,1-1s1,.448,1,1v2.122ZM33,18.743c0,.552-.447,1-1,1s-1-.448-1-1v-2.122c0-.552.447-1,1-1s1,.448,1,1v2.122ZM40.158,14.831c0,.552-.447,1-1,1s-1-.448-1-1v-2.122c0-.552.447-1,1-1s1,.448,1,1v2.122ZM47.316,18.743c0,.552-.447,1-1,1s-1-.448-1-1v-2.122c0-.552.447-1,1-1s1,.448,1,1v2.122Z"/>
  <path d="M55.868,47.204h-6.898v4.739c0,2.559-2.082,4.641-4.641,4.641-.081,0-.163-.002-.246-.007-2.464-.129-4.394-2.23-4.394-4.783v-3.125c0-.353-.287-.641-.641-.641-.358.018-.641.387-.641.79v.72c0,2.559-2.082,4.641-4.641,4.641-.081,0-.163-.002-.246-.007-2.464-.129-4.394-2.23-4.394-4.783v-2.185H9.175c-1.171,0-2.256-.37-3.15-.996-.642.734-.934,1.77-.626,2.813,1.649,5.589,6.82,9.668,12.943,9.668h27.315c6.123,0,11.294-4.079,12.943-9.668.252-.853.096-1.699-.315-2.384-.731.359-1.55.567-2.418.567Z"/>
  <path d="M55.965,40.992c-1.253.952-2.812,2.136-5.761,2.136s-4.508-1.184-5.761-2.136c-1.047-.795-1.739-1.321-3.341-1.321s-2.293.525-3.34,1.321c-1.253.952-2.812,2.136-5.761,2.136s-4.508-1.184-5.761-2.136c-1.047-.795-1.739-1.321-3.341-1.321s-2.294.525-3.342,1.321c-1.253.951-2.812,2.135-5.761,2.135s-4.508-1.184-5.762-2.136c-.686-.521-1.224-.923-1.962-1.14-.26.607-.409,1.249-.409,1.843,0,1.938,1.571,3.51,3.51,3.51h20.187c.976,0,1.767.791,1.767,1.767v2.418c0,1.43,1.071,2.711,2.498,2.786,1.523.08,2.782-1.131,2.782-2.637v-.72c0-1.43,1.071-2.711,2.498-2.786,1.523-.08,2.782,1.131,2.782,2.637v3.125c0,1.43,1.071,2.711,2.498,2.786,1.523.08,2.782-1.131,2.782-2.636v-4.973c0-.976.791-1.767,1.767-1.767h7.132c1.938,0,3.51-1.571,3.51-3.51,0-.647-.178-1.352-.484-2.005-1.313.085-1.978.581-2.929,1.303Z"/>
  <path d="M55.462,35.24H8.538c-.473,0-.929-.066-1.368-.178l-2.475,2.609c4.551,0,4.552,3.456,9.103,3.456s4.551-3.456,9.103-3.456,4.551,3.456,9.101,3.456,4.551-3.456,9.101-3.456,4.55,3.456,9.101,3.456,4.551-3.456,9.101-3.456l-2.354-2.641c-.475.133-.973.209-1.49.209Z"/>
</svg>