<?xml version="1.0" encoding="UTF-8"?>
<svg id="Glyph" xmlns="http://www.w3.org/2000/svg" viewBox="0 0 64 64">
  <path d="M56.417,23.374c0-2.135-1.731-3.866-3.866-3.866h-13.42c-2.135,0-3.866,1.731-3.866,3.866v2.757s21.152,0,21.152,0v-2.756Z"/>
  <path d="M35.264,56.263c0,1.979,1.605,3.584,3.584,3.584h13.984c1.979,0,3.584-1.604,3.584-3.584v-3.044s-21.152,0-21.152,0v3.043Z"/>
  <rect x="35.26" y="28.13" width="21.16" height="23.09"/>
  <path d="M27.417,23.374c0-2.135-1.731-3.866-3.866-3.866h-13.42c-2.135,0-3.866,1.731-3.866,3.866v2.757s21.152,0,21.152,0v-2.756Z"/>
  <path d="M6.264,56.263c0,1.979,1.605,3.584,3.584,3.584h13.984c1.979,0,3.584-1.604,3.584-3.584v-3.044s-21.152,0-21.152,0v3.043Z"/>
  <rect x="6.26" y="28.13" width="21.16" height="23.09"/>
  <path d="M24.67,7.15h-5.73l-.14-1.91c-.04-.61-.55-1.09-1.16-1.09h-1.6c-.61,0-1.12.48-1.16,1.09l-.58,8.1h-2.28c-.82,0-1.49.67-1.49,1.5v2.67h2.04v-1.63c0-.55.44-1,1-1,.55,0,1,.45,1,1v1.63h1.27v-1.63c0-.55.45-1,1-1s1,.45,1,1v1.63h1.27v-1.63c0-.55.45-1,1-1,.56,0,1,.45,1,1v1.63h2.04v-.23h1.52c2.79,0,5.07-2.27,5.07-5.06s-2.28-5.07-5.07-5.07ZM24.67,15.28h-1.52v-.44c0-.83-.67-1.5-1.49-1.5h-2.28l-.3-4.19h5.59c1.69,0,3.07,1.38,3.07,3.07s-1.38,3.06-3.07,3.06Z"/>
  <path d="M53.67,7.15h-5.73l-.14-1.91c-.04-.61-.55-1.09-1.16-1.09h-1.6c-.61,0-1.12.48-1.16,1.09l-.58,8.1h-2.28c-.82,0-1.49.67-1.49,1.5v2.67h2.04v-1.63c0-.55.44-1,1-1,.55,0,1,.45,1,1v1.63h1.27v-1.63c0-.55.45-1,1-1s1,.45,1,1v1.63h1.27v-1.63c0-.55.45-1,1-1,.56,0,1,.45,1,1v1.63h2.04v-.23h1.52c2.79,0,5.07-2.27,5.07-5.06s-2.28-5.07-5.07-5.07ZM53.67,15.28h-1.52v-.44c0-.83-.67-1.5-1.49-1.5h-2.28l-.3-4.19h5.59c1.69,0,3.07,1.38,3.07,3.07s-1.38,3.06-3.07,3.06Z"/>
</svg>