<?xml version="1.0" encoding="UTF-8"?>
<svg id="Glyph" xmlns="http://www.w3.org/2000/svg" viewBox="0 0 64 64">
  <path d="M20.542,19.555v-.331h3.543c.39,0,.716.293.754.653l.418,5.294h-1.411c-1.339,0-2.425,1.086-2.425,2.425,0,.786.38,1.478.961,1.921-.004-.003-.008-.005-.012-.008l1.41,13.05.78,7.23c.27,1.99,2.13,3.61,4.14,3.61h23.39c2.01,0,3.85-1.62,4.11-3.64l.78-7.76h.01l1.26-12.49s0,0-.001,0c.575-.443.952-1.132.952-1.914,0-1.339-1.086-2.425-2.425-2.425h-29.512l-.433-5.479c-.15-1.407-1.331-2.468-2.746-2.468h-3.543v-.331c0-1.11-.9-2.01-2.01-2.01h-7.972v6.681h7.972c1.11,0,2.01-.9,2.01-2.01ZM22.757,29.752c-.038-.02-.075-.039-.112-.061.037.021.074.042.112.061ZM23.716,30.009c-.103-.006-.205-.012-.304-.031.099.018.201.025.304.031ZM23.188,29.92c-.062-.018-.124-.034-.184-.057.06.022.122.039.184.057ZM24.44,30.022h6.39c0,.019-.01.039-.01.058l.24,4.84h-6.09l-.53-4.898ZM25.74,42.13l-.56-5.21h5.97l.14,2.96.26,5.28h-5.48l-.33-3.03ZM28.7,51.4c-1.03,0-2.02-.86-2.15-1.85l-.26-2.39h5.36l.2,4.24h-3.15ZM39.31,51.4h-5.45l-.21-4.24h5.66v4.24ZM39.31,45.16h-5.76l-.25-5.26-.14-2.98h6.15v8.24ZM39.31,34.92h-6.25l-.24-4.898h6.49v4.898ZM46.83,51.4h-5.52v-4.24h5.71l-.19,4.24ZM47.33,40.59h-.01l-.2,4.57h-5.81v-8.24h6.18l-.16,3.67ZM41.31,34.92v-4.898h6.49l-.22,4.898h-6.27ZM54.22,49.53c-.13,1.01-1.11,1.87-2.13,1.87h-3.26l.2-4.24h5.42l-.23,2.37ZM55.08,40.96l-.42,4.2h-5.54l.23-5.21.14-3.03h6l-.41,4.04ZM49.58,34.92l.22-4.85c0-.01-.009-.029-.01-.048h6.399l-.5,4.898h-6.11ZM56.873,30.012c.115-.005.23-.014.34-.034-.111.021-.225.03-.34.034ZM57.874,29.748c.031-.016.062-.033.092-.05-.03.018-.061.034-.092.05ZM57.434,29.92c.061-.017.122-.034.181-.056-.059.022-.12.039-.181.056Z"/>
  <path d="M6.9,21.57h1.66v-6.69h-1.66c-1.71,0-3.09,1.39-3.09,3.09v.51c0,1.7,1.38,3.09,3.09,3.09Z"/>
  <path d="M32.528,16.16c-.458.308-.581.93-.272,1.388.193.288.509.442.831.442.192,0,.386-.055.557-.17,3.431-2.306,2.625-5.554,1.703-6.973-2.603-3.768-.432-5.859-.171-6.089.416-.357.467-.984.112-1.404-.356-.421-.988-.475-1.409-.118-1.358,1.148-3.144,4.455-.197,8.718.253.403,1.387,2.499-1.152,4.206Z"/>
  <path d="M40.958,16.16c-.458.308-.58.93-.272,1.388.193.287.509.442.831.442.192,0,.386-.055.557-.17,3.431-2.307,2.624-5.554,1.702-6.973-2.603-3.767-.432-5.858-.171-6.088.416-.357.467-.984.112-1.404-.356-.421-.988-.475-1.409-.118-1.358,1.148-3.144,4.455-.193,8.723.159.244,1.471,2.434-1.157,4.2Z"/>
  <path d="M49.39,16.16c-.458.308-.581.93-.272,1.388.193.288.509.442.831.442.192,0,.386-.055.557-.17,3.432-2.307,2.625-5.554,1.703-6.973-2.603-3.767-.432-5.858-.171-6.088.416-.357.467-.984.112-1.404-.356-.421-.988-.475-1.409-.118-1.358,1.148-3.144,4.455-.197,8.717.253.403,1.387,2.499-1.153,4.206Z"/>
  <path d="M58.938,42.514l-.748,7.445c-.395,3.075-3.072,5.44-6.1,5.44h-23.39c-3.026,0-5.716-2.347-6.122-5.342l-.812-7.526c-3.585-.398-3.965-2.689-8.225-2.689-4.665,0-4.665,2.754-9.329,2.754l-.212,17.403h56l.19-17.403c-.464,0-.871-.034-1.251-.083Z"/>
</svg>