<?xml version="1.0" encoding="UTF-8"?>
<svg id="Glyph" xmlns="http://www.w3.org/2000/svg" viewBox="0 0 64 64">
  <path d="M10.97,12.18c-.71,0-1.35.28-1.81.75-.46.46-.75,1.09-.75,1.8,0,1.42,1.14,2.56,2.56,2.56h2.34v-5.11h-2.34Z"/>
  <path d="M10.97,23.69c-.71,0-1.35.29-1.81.75s-.75,1.1-.75,1.8c0,1.42,1.14,2.56,2.56,2.56h2.34v-5.11h-2.34Z"/>
  <path d="M10.97,35.2c-.71,0-1.35.28-1.81.75-.46.46-.75,1.1-.75,1.81,0,1.41,1.14,2.55,2.56,2.55h2.34v-5.11h-2.34Z"/>
  <path d="M10.97,46.71c-.71,0-1.35.29-1.81.75-.46.46-.75,1.1-.75,1.81,0,1.41,1.14,2.55,2.56,2.55h2.34v-5.11h-2.34Z"/>
  <path d="M29.391,18.442c.552,0,1-.448,1-1v-1.026c0-.552-.448-1-1-1s-1,.448-1,1v1.026c0,.552.448,1,1,1Z"/>
  <path d="M32.854,16.549c.552,0,1-.448,1-1v-1.026c0-.552-.448-1-1-1s-1,.448-1,1v1.026c0,.552.448,1,1,1Z"/>
  <path d="M43.245,18.442c.552,0,1-.448,1-1v-1.026c0-.552-.448-1-1-1s-1,.448-1,1v1.026c0,.552.448,1,1,1Z"/>
  <path d="M39.781,16.549c.552,0,1-.448,1-1v-1.026c0-.552-.448-1-1-1s-1,.448-1,1v1.026c0,.552.448,1,1,1Z"/>
  <path d="M36.318,18.442c.552,0,1-.448,1-1v-1.026c0-.552-.448-1-1-1s-1,.448-1,1v1.026c0,.552.448,1,1,1Z"/>
  <path d="M53.39,3.97H15.51c-1.22,0-2.2.98-2.2,2.2v6.01h2.34c1.41,0,2.56,1.14,2.56,2.55,0,.71-.29,1.35-.75,1.81-.46.46-1.1.75-1.81.75h-2.34v6.4h2.34c1.41,0,2.56,1.14,2.56,2.55,0,.71-.29,1.35-.75,1.81-.46.47-1.1.75-1.81.75h-2.34v6.4h2.34c1.41,0,2.56,1.14,2.56,2.56,0,.7-.29,1.34-.75,1.8-.46.46-1.1.75-1.81.75h-2.34v6.4h2.34c1.41,0,2.56,1.14,2.56,2.56,0,.71-.29,1.34-.75,1.8-.46.47-1.1.75-1.81.75h-2.34v6.01c0,1.22.98,2.2,2.2,2.2h37.88c1.22,0,2.2-.98,2.2-2.2V6.17c0-1.22-.98-2.2-2.2-2.2ZM23.63,18.3c2.52-4.4,7.26-7.36,12.69-7.36s10.16,2.96,12.69,7.36c.69,1.21-.19,2.72-1.59,2.72h-22.2c-1.4,0-2.29-1.51-1.59-2.72ZM48.54,48.05c0,1.05-.84,1.9-1.89,1.9h-20.32c-1.04,0-1.89-.85-1.89-1.9v-4.47c0-1.04.85-1.89,1.89-1.89h20.32c1.05,0,1.89.85,1.89,1.89v4.47ZM49.19,30.74c-.8,2.7-3.3,4.67-6.26,4.67h-13.22c-2.96,0-5.46-1.97-6.26-4.67-.13-.45-.04-.9.2-1.25.73.84,1.79,1.39,2.99,1.39h10.54c.26,1.74,1.59,3.17,3.31,3.45.22.04.44.05.66.05,2.03,0,3.72-1.53,3.97-3.5h1.21c1.09,0,2.07-.44,2.79-1.15.14.3.17.65.07,1.01ZM26.64,28.88c-.98,0-1.78-.72-1.93-1.65.61.33,1.41.6,2.5.6,1.83,0,2.85-.77,3.53-1.28.48-.37.62-.48,1.11-.48s.63.11,1.11.48c.68.51,1.7,1.28,3.53,1.28s2.85-.77,3.53-1.28c.48-.37.62-.48,1.11-.48s.63.11,1.11.48c.68.51,1.7,1.28,3.53,1.28,1.09,0,1.89-.27,2.5-.6-.15.93-.96,1.65-1.94,1.65h-3.18v1.49c0,1.22-1.08,2.19-2.34,1.99-.99-.17-1.67-1.09-1.67-2.09v-1.39h-12.5ZM45.77,25.83c-2.32,0-2.32-1.76-4.64-1.76s-2.32,1.76-4.64,1.76-2.32-1.76-4.64-1.76-2.32,1.76-4.64,1.76-2.32-1.76-4.64-1.76l1.25-1.31c.43.17.9.26,1.4.26h22.2c.61,0,1.18-.14,1.7-.4l1.29,1.45c-2.32,0-2.32,1.76-4.64,1.76Z"/>
</svg>