<?xml version="1.0" encoding="UTF-8"?>
<svg id="Glyph" xmlns="http://www.w3.org/2000/svg" viewBox="0 0 64 64">
  <polygon points="13.75 49.44 49.43 49.44 50.5 41.95 12.68 41.95 13.75 49.44"/>
  <path d="M14.86,57.17c.23,1.63,1.62,2.83,3.26,2.83h26.94c1.63,0,3.02-1.2,3.26-2.83l.823-5.73H14.037l.823,5.73Z"/>
  <polygon points="12.393 39.95 50.787 39.95 51.432 35.451 11.748 35.451 12.393 39.95"/>
  <path d="M51.688,27.535H11.49c-1.744,0-3.171,1.331-3.171,2.958s1.427,2.958,3.171,2.958h40.198c1.744,0,3.171-1.331,3.171-2.958s-1.427-2.958-3.171-2.958Z"/>
  <path d="M39.24,19.63c-5.85.16-11.4,2.07-11.4,2.07-1.98.68-3.49,2.1-4.33,3.84h27.06c.13-.56,0-1.19-.41-1.67l-9.33-11.04c-.58-.69-.49-1.71.19-2.29,4.15-3.52,4.27-6.54,4.27-6.54l-12.35,4.25c-1.01.35-1.37,1.59-.71,2.43l7.01,8.95Z"/>
  <path d="M27.19,19.81c.12-.04,1.45-.5,3.47-.98-.29-1.68-1.25-3.23-2.82-4.2-2.9-1.78-6.69-.88-8.48,2.01,0,0-1.47,2.26-3.92,8.9h5.9c.98-2.67,3.11-4.79,5.85-5.73Z"/>
</svg>