<?xml version="1.0" encoding="UTF-8"?>
<svg id="Glyph" xmlns="http://www.w3.org/2000/svg" viewBox="0 0 64 64">
  <path d="M19,21v1.602c0,5.46,3.24,10.212,7.84,12.287l5.16,4.484,5.057-4.395c1.488-.629,2.861-1.533,4.05-2.701,2.51-2.465,3.893-5.759,3.893-9.277v-2c1.66,0,3-1.34,3-3s-1.34-3-3-3h-26c-1.66,0-3,1.34-3,3s1.34,3,3,3ZM21.443,18.447c.339.678,1.031,1.106,1.789,1.106h17.528c.758,0,1.45-.428,1.789-1.106l.451-1.072v5.625c0,2.977-1.17,5.764-3.294,7.85-2.123,2.084-4.917,3.18-7.912,3.148-5.952-.109-10.794-5.221-10.794-11.396v-5.213l.443,1.058Z"/>
  <path d="M39.413,35.58l-7.413,6.441,6.139,3.061c.452.225,1,.012,1.181-.459l2.747-7.15c.108-.281.019-.599-.219-.782l-1.473-1.138c-.286-.221-.689-.21-.962.028Z"/>
  <path d="M23.625,35.553l-1.473,1.138c-.238.184-.327.502-.219.782l2.747,7.15c.181.472.729.685,1.181.459l6.139-3.061-7.413-6.441c-.273-.237-.676-.249-.962-.028Z"/>
  <path d="M48.24,39.129c-1.235-.745-2.609-1.232-4.037-1.43l-.136-.019c-.029.172-.069.342-.133.509l-.544,1.416.539.076c1.16.16,2.27.55,3.28,1.16l.01.01v7.45c-.41-.19-.88-.3-1.36-.3h-3.71v-5.166l-.963,2.506c-.42,1.096-1.492,1.833-2.667,1.833-.439,0-.88-.104-1.273-.3l-5.247-2.617-5.247,2.617c-.394.196-.834.3-1.273.3-1.175,0-2.247-.737-2.668-1.834l-.962-2.503v5.164h-3.66c-.49,0-.95.11-1.37.3v-7.47c1-.6,2.1-.99,3.25-1.15l.539-.076-.543-1.415c-.064-.167-.104-.338-.133-.51l-.136.019c-1.429.199-2.802.685-4.037,1.43-2.954,1.782-4.76,4.98-4.76,8.429v10.083c0,1.302,1.056,2.358,2.358,2.358h37.284c1.302,0,2.358-1.056,2.358-2.358v-10.083c0-3.45-1.806-6.648-4.76-8.429ZM47.224,59.981h-4.296v-5.571h-21.814v5.571h-4.296v-8.612c0-.756.613-1.368,1.368-1.368h27.67c.756,0,1.368.613,1.368,1.368v8.612Z"/>
  <path d="M44,11c0-4.418-3.582-7-8-7h-8c-4.418,0-8,2.582-8,7v2h24v-2ZM35.943,9.13c0,.706-.572,1.277-1.277,1.277h-5.332c-.706,0-1.277-.572-1.277-1.277v-.997c0-.706.572-1.277,1.277-1.277h5.332c.706,0,1.277.572,1.277,1.277v.997Z"/>
</svg>