<?xml version="1.0" encoding="UTF-8"?>
<svg id="Glyph" xmlns="http://www.w3.org/2000/svg" viewBox="0 0 64 64">
  <path d="M32.003,18.869c2.536,0,4.599-2.063,4.599-4.599l-.003-.621h-9.197l.003.616c0,2.54,2.062,4.603,4.599,4.603Z"/>
  <path d="M16.205,13.65l.002.617c0,2.539,2.062,4.602,4.599,4.602s4.599-2.063,4.599-4.599l-.003-.621h-9.196Z"/>
  <path d="M58.995,14.271l-.003-.621h-9.196l.002.617c0,2.539,2.062,4.602,4.599,4.602s4.599-2.063,4.599-4.599Z"/>
  <path d="M14.207,14.271l-.002-.621H5.008l.003.616c0,2.54,2.062,4.603,4.598,4.603s4.599-2.063,4.599-4.599Z"/>
  <path d="M47.798,14.271l-.002-.621h-9.196l.003.616c0,2.54,2.062,4.603,4.598,4.603s4.599-2.063,4.599-4.599Z"/>
  <path d="M53.64,5.07c-.56-.68-1.4-1.07-2.28-1.07H13.01c-.85,0-1.66.36-2.23,1l-5.89,6.65h54.25l-5.5-6.58Z"/>
  <path d="M60,43.18v2.4c0,.7-.56,1.26-1.26,1.26H5.26c-.7,0-1.26-.56-1.26-1.26v-2.4c0-.7.56-1.26,1.26-1.26h2.37v-21.36c.62.2,1.29.31,1.98.31,1.04,0,2.03-.24,2.9-.67v21.72h38.98v-21.74c.88.45,1.87.69,2.91.69.69,0,1.35-.11,1.97-.3v21.35h2.37c.7,0,1.26.56,1.26,1.26Z"/>
  <path d="M7.633,57.704c0,1.268,1.028,2.296,2.296,2.296h44.142c1.268,0,2.296-1.028,2.296-2.296v-8.865H7.633v8.865Z"/>
  <path d="M39.905,32.947c.346-.255.727-.485,1.409-.485l-.773-.867-17.078.046-.779.821c.683,0,1.063.23,1.409.485v2.285s.002.142.008.33c-.597.052-1.003.639-.829,1.228.534,1.81,2.208,3.13,4.19,3.13h8.843c1.982,0,3.656-1.321,4.19-3.13.15-.51-.135-1.017-.601-1.18.006-.215.009-.374.009-.379v-2.285ZM37.896,35.553h-11.792c-.005-.147-.009-.271-.009-.32v-1.621c1.242-.149,1.363-1.149,2.801-1.149,1.552,0,1.552,1.179,3.105,1.179s1.552-1.179,3.105-1.179c1.437,0,1.559.999,2.798,1.149l.002,1.62c0,.051-.004.175-.009.321Z"/>
  <path d="M23.395,28.817c-.154.268-.184.557-.132.825l17.258-.047c.038-.255,0-.526-.145-.778-1.688-2.94-4.857-4.92-8.49-4.92s-6.802,1.98-8.49,4.92Z"/>
</svg>