<?xml version="1.0" encoding="UTF-8"?>
<svg id="Glyph" xmlns="http://www.w3.org/2000/svg" viewBox="0 0 64 64">
  <path d="M40.028,33.912v-.002h1c.175,0,.318-.143.318-.318v-1.701h0c-.086.028-.177.052-.277.069-.126.024-.261.041-.418.041-1.552,0-1.552-1.179-3.105-1.179s-1.552,1.179-3.105,1.179-1.552-1.179-3.105-1.179-1.553,1.179-3.105,1.179c-.157,0-.293-.017-.418-.041-.101-.017-.192-.041-.278-.069v1.701c0,.176.143.318.318.318h1v.002h11.176Z"/>
  <path d="M25.69,35.07c-.03-.18-.01-.37.05-.54-.13-.29-.21-.6-.21-.94v-2.73c-.12-.02-.25-.04-.4-.04l1.73-1.83c.01.01.02.01.04.01h14.85c.12,0,.23-.02.34-.05l.89,1,.77.87c-.15,0-.28.02-.4.04v2.73c0,.46-.14.89-.38,1.26,0,.1,0,.2-.03.3-.54,1.81-2.21,3.13-4.19,3.13h-1.91c1.2.45,2.2,1.31,2.82,2.46.69,1.26.85,2.72.44,4.09-.29.99-.84,1.85-1.59,2.51.73-.05,1.1-.2,1.1-.2.03-.01,3.53-1.42,7.02-2.83v-25.85h-26.53v17.07c1.32-.47,2.59-.61,3.66-.61.7,0,1.36.06,1.93.15ZM25.83,27.18c1.69-2.94,4.86-4.92,8.5-4.92s6.8,1.98,8.49,4.92c.14.25.18.52.14.77l-17.26.05c-.05-.27-.02-.56.13-.82Z"/>
  <path d="M51.16,4.84v4.72l-3.1,4.48c-.58.71-1,1.54-1.23,2.42h-26.43c.17-.44.41-.85.72-1.21l4.77-5.69v-4.72c0-.47.38-.86.85-.86h23.56c.48,0,.86.39.86.86Z"/>
  <path d="M57.73,41.53c.29.12.56.27.81.43v-23.92c0-1.02-.36-2.01-1.02-2.79l-2.93-4.24v30.19c.34-.07.68-.1,1.03-.1.72,0,1.43.14,2.11.43Z"/>
  <path d="M48.63,18.04v25.46c1.6-.64,3.04-1.23,3.96-1.6V11l-2.94,4.25c-.66.78-1.02,1.77-1.02,2.79Z"/>
  <rect x="4.991" y="40.484" width="4.692" height="18.531"/>
  <path d="M58.765,45.216c-.336-.834-.982-1.489-1.817-1.845s-1.755-.366-2.589-.028l-13.899,5.606c-.19.094-2.536,1.122-7.092-.484l-6.67-2.433c-.406-.148-.658-.531-.658-.939,0-.114.02-.229.061-.343.189-.519.763-.784,1.282-.597l6.66,2.429c.802.234,1.717.135,2.513-.301.797-.435,1.376-1.149,1.629-2.013.254-.862.154-1.776-.28-2.574-.435-.797-1.149-1.375-2.012-1.628l-8.614-2.534c-.349-.134-6.509-2.49-10.638,3.011-.067.088-1.509,1.935-4.958,2.885v12.222l8.495-2.5c.018-.011,1.216-.479,2.774-.479.819,0,1.737.129,2.636.522l8.309,2.732c.039.014.079.029.116.047.042.021,4.216,1.956,7.47.423l15.381-6.76c1.759-.711,2.6-2.688,1.901-4.419Z"/>
</svg>