<?xml version="1.0" encoding="UTF-8"?>
<svg id="Glyph" xmlns="http://www.w3.org/2000/svg" viewBox="0 0 64 64">
  <path d="M48.894,44.291c-1.771,0-3.207,1.437-3.207,3.207s1.436,3.208,3.207,3.208,3.207-1.437,3.207-3.208-1.435-3.207-3.207-3.207Z"/>
  <path d="M16.296,44.291c-1.771,0-3.207,1.437-3.207,3.207,0,1.771,1.436,3.208,3.207,3.208s3.207-1.437,3.207-3.208-1.435-3.207-3.207-3.207Z"/>
  <path d="M59.43,28.69l-5.82-12.34c-.54-1.05-1.62-1.71-2.8-1.71h-9.06v29.244c-.552,1.087-.87,2.312-.87,3.612,0,4.422,3.595,8.019,8.014,8.019,3.82,0,7.02-2.69,7.818-6.275h1.038c1.26,0,2.28-1.02,2.28-2.28v-15.79c0-.86-.2-1.71-.6-2.48ZM44.684,19.335c0-.526.426-.952.952-.952h3.354c.53,0,1.02.282,1.286.741l3.831,8.64c.575.991-.14,2.232-1.286,2.232h-7.185c-.526,0-.952-.426-.952-.952v-9.709ZM48.894,53.515c-3.316,0-6.014-2.7-6.014-6.019s2.698-6.014,6.014-6.014,6.015,2.697,6.015,6.014-2.698,6.019-6.015,6.019ZM58.034,38.261h-2.104c-1.039,0-1.881-.842-1.881-1.881v-.854c0-1.039.842-1.881,1.881-1.881h2.104v4.615Z"/>
  <path d="M36.71,9.49H7.01c-1.68,0-3.04,1.36-3.04,3.04v29.02h6.972c-.638.575-1.185,1.248-1.613,2H3.97v2.65c0,1.68,1.36,3.04,3.04,3.04h1.468c.799,3.585,3.998,6.275,7.818,6.275s7.02-2.69,7.818-6.275h15.636v-5.69h-16.487c-.428-.752-.975-1.425-1.613-2h18.1V12.53c0-1.68-1.36-3.04-3.04-3.04ZM36.696,14.548v19.392H8.025V14.548h28.672ZM36.651,36.953H8.07v-1.014h28.581v1.014ZM22.311,47.496c0,3.318-2.698,6.019-6.015,6.019s-6.014-2.7-6.014-6.019,2.698-6.014,6.014-6.014,6.015,2.697,6.015,6.014Z"/>
  <path d="M25.708,20.841c1.285,0,2.33-1.045,2.33-2.329l-.002-1.964h-4.659l.002,1.963c0,1.285,1.045,2.33,2.33,2.33Z"/>
  <path d="M32.367,20.841c1.285,0,2.33-1.045,2.33-2.329l-.002-1.964h-4.659l.002,1.963c0,1.285,1.045,2.33,2.33,2.33Z"/>
  <path d="M19.048,20.841c1.285,0,2.33-1.045,2.33-2.329l-.002-1.964h-4.659l.002,1.963c0,1.285,1.045,2.33,2.329,2.33Z"/>
  <path d="M12.39,20.841c1.285,0,2.33-1.045,2.33-2.329l-.003-1.964h-4.659l.002,1.963c0,1.285,1.045,2.33,2.33,2.33Z"/>
  <path d="M27.151,30.084v2.856h5.214v-2.856c0-.567-.46-1.027-1.027-1.027h-3.16c-.567,0-1.027.46-1.027,1.027Z"/>
  <path d="M20.552,25.274v1.652c0,.009.005.016.005.024-.636.114-1.12.668-1.12,1.337v3.291c0,.752.609,1.361,1.361,1.361h1.508c.752,0,1.361-.609,1.361-1.361v-3.291c0-.752-.609-1.361-1.361-1.361.083,0,.163.01.241.024,0-.008.005-.015.005-.024v-1.652c0-.553-.448-1-1-1s-1,.447-1,1Z"/>
  <path d="M13.552,25.274v1.652c0,.009.005.016.005.024-.636.114-1.12.668-1.12,1.337v3.291c0,.752.609,1.361,1.361,1.361h1.508c.752,0,1.361-.609,1.361-1.361v-3.291c0-.752-.609-1.361-1.361-1.361.083,0,.163.01.241.024,0-.008.005-.015.005-.024v-1.652c0-.553-.448-1-1-1s-1,.447-1,1Z"/>
</svg>