<?xml version="1.0" encoding="UTF-8"?>
<svg id="Glyph" xmlns="http://www.w3.org/2000/svg" viewBox="0 0 64 64">
  <path d="M25.163,33.415l-1.416,1.416c-.195.195-.451.293-.707.293s-.512-.098-.707-.293c-.391-.391-.391-1.023,0-1.414l1.416-1.416c.39-.391,1.023-.391,1.414,0s.391,1.023,0,1.414ZM25.167,25.22c-1.658,1.658-4.345,1.658-6.003,0s-1.658-4.345,0-6.003c1.658-1.658,4.345-1.658,6.003,0,1.658,1.658,1.658,4.345,0,6.003ZM30.612,23.753c0-.553.448-1,1-1s1,.447,1,1v2.002c0,.553-.448,1-1,1s-1-.447-1-1v-2.002ZM34.313,38.266c-1.159,1.159-3.038,1.159-4.197,0-1.159-1.159-1.159-3.038,0-4.197,1.159-1.159,3.038-1.159,4.197,0,1.159,1.159,1.159,3.038,0,4.197ZM37.828,45.575c0,.553-.447,1-1,1s-1-.447-1-1v-2.002c0-.553.447-1,1-1s1,.447,1,1v2.002ZM43.347,36.061l-1.429,1.42c-.195.194-.45.291-.705.291-.257,0-.514-.099-.709-.295-.39-.392-.388-1.025.004-1.414l1.429-1.42c.392-.391,1.024-.388,1.414.004s.388,1.025-.004,1.414ZM44.365,29.82c-1.159,1.159-3.038,1.159-4.197,0-1.159-1.159-1.159-3.038,0-4.197s3.038-1.159,4.197,0c1.159,1.159,1.159,3.038,0,4.197ZM23.91,46.83c1.66-1.67,4.37-1.67,6.04,0s1.67,4.37,0,6.04c-.99.99-2.34,1.39-3.63,1.2l1.65,3.45c1.66,3.33,6.4,3.33,8.07,0l18.53-38.87c-.31-.06-.62-.14-.92-.24-.4-.15-.81-.28-1.22-.42-.23,2.12-1.89,3.87-3.98,4.08-.15.01-.3.02-.45.02-2.46,0-4.47-2-4.47-4.46v-1.13c0-.29-.19-.58-.41-.6-.31,0-.51.21-.51.46v3.68c0,2.34-1.76,4.36-4.01,4.58-.15.02-.31.03-.46.03-2.46,0-4.46-2.01-4.46-4.47v-4.7c0-.46-.37-.84-.85-.85-.4-.01-.81-.01-1.21-.01-7.29,0-14.46,1.19-21.32,3.53-.32.11-.65.19-.98.25l13.95,29.26c.17-.29.38-.57.64-.83Z"/>
  <path d="M56.989,8.449c-7.917-2.885-16.459-4.465-25.374-4.465-8.687,0-17.023,1.494-24.769,4.235-2.482.879-3.587,3.774-2.309,6.077l.012.021c1.002,1.806,3.151,2.611,5.105,1.943,6.889-2.355,14.273-3.641,21.962-3.641.421,0,.84.005,1.258.015,1.556.036,2.808,1.288,2.808,2.845v4.703c0,1.444,1.243,2.598,2.717,2.451,1.282-.128,2.209-1.303,2.209-2.591v-3.679c0-1.444,1.243-2.598,2.717-2.451,1.282.128,2.209,1.303,2.209,2.591v1.124c0,1.444,1.243,2.598,2.717,2.451,1.282-.128,2.209-1.303,2.209-2.591v-.536c0-.831.808-1.421,1.602-1.175.759.235,1.512.483,2.258.748,2.103.747,4.452-.226,5.351-2.332.978-2.29-.343-4.889-2.683-5.742Z"/>
</svg>