<?xml version="1.0" encoding="UTF-8"?>
<svg id="Glyph" xmlns="http://www.w3.org/2000/svg" viewBox="0 0 64 64">
  <path d="M47.538,21.281l-.065-.304c-1.421-6.64-7.009-11.599-13.64-12.383v-3.553c0-.582-.471-1.053-1.053-1.053h-1.56c-.582,0-1.053.471-1.053,1.053v3.553c-6.631.784-12.219,5.743-13.64,12.383l-.065.304c-1.215.297-2.123,1.324-2.123,2.547,0,1.453,1.275,2.642,2.833,2.642h29.657c1.558,0,2.833-1.189,2.833-2.642,0-1.223-.908-2.25-2.123-2.547ZM18.537,21.186c1.297-5.616,6.01-9.815,11.63-10.577v10.577h-11.63ZM33.833,10.609c5.62.762,10.334,4.961,11.63,10.577h-11.63v-10.577Z"/>
  <polygon points="17.644 30.6 46.356 30.6 46.536 28.471 17.464 28.471 17.644 30.6"/>
  <path d="M19.858,56.64c.158,1.854,1.809,3.372,3.67,3.372h16.943c1.861,0,3.513-1.517,3.67-3.372l.113-1.331h-24.51l.113,1.331Z"/>
  <path d="M19.58,53.31h24.84l1.77-20.71h-28.38l1.77,20.71ZM37.78,39.41c.61,1.97-.29,4.73-2.44,6.88-2.43,2.44-5.64,3.28-7.62,2.12,2.38-.44,4.44-2.24,5.09-4.63l.31-1.12c.54-2,2.51-3.39,4.57-3.25h.09ZM28.66,39.62c2.43-2.44,5.64-3.28,7.62-2.12-2.39.43-4.45,2.23-5.09,4.63l-.31,1.12c-.54,2-2.52,3.39-4.57,3.25h-.09c-.61-1.97.29-4.73,2.44-6.88Z"/>
</svg>