<?xml version="1.0" encoding="UTF-8"?>
<svg id="Glyph" xmlns="http://www.w3.org/2000/svg" viewBox="0 0 64 64">
  <path d="M58.767,42.882c-2.523-4.393-7.259-7.352-12.688-7.352s-10.165,2.959-12.688,7.352c-.696,1.213.188,2.726,1.586,2.726h22.204c1.398,0,2.283-1.514,1.586-2.726ZM40.152,42.029c0,.552-.447,1-1,1s-1-.448-1-1v-1.027c0-.552.447-1,1-1s1,.448,1,1v1.027ZM43.615,40.136c0,.552-.447,1-1,1s-1-.448-1-1v-1.026c0-.552.447-1,1-1s1,.448,1,1v1.026ZM47.079,42.029c0,.552-.447,1-1,1s-1-.448-1-1v-1.027c0-.552.447-1,1-1s1,.448,1,1v1.027ZM50.542,40.136c0,.552-.447,1-1,1s-1-.448-1-1v-1.026c0-.552.447-1,1-1s1,.448,1,1v1.026ZM54.006,42.029c0,.552-.447,1-1,1s-1-.448-1-1v-1.027c0-.552.447-1,1-1s1,.448,1,1v1.027Z"/>
  <path d="M56.093,55.467h-1.212c-.249,1.971-1.938,3.502-3.978,3.502-.215,0-.436-.017-.658-.053-1.712-.279-3.046-1.71-3.305-3.449h-10.537c-.832,0-1.603-.259-2.241-.698-.017.18-.01.365.045.553.798,2.704,3.299,4.678,6.262,4.678h11.216c2.963,0,5.464-1.974,6.262-4.678.036-.123.053-.246.057-.367-.57.316-1.215.512-1.912.512Z"/>
  <path d="M55.359,52.421c-1.833,0-2.854-.775-3.529-1.289-.479-.364-.624-.474-1.11-.474s-.631.11-1.109.474c-.676.513-1.696,1.289-3.53,1.289s-2.854-.775-3.529-1.289c-.479-.364-.624-.474-1.11-.474s-.632.11-1.11.474c-.676.513-1.696,1.289-3.53,1.289-1.091,0-1.889-.276-2.503-.607.152.936.958,1.653,1.937,1.653h12.494l-.002,1.386c0,1.001.684,1.928,1.671,2.089,1.258.205,2.346-.761,2.346-1.981l.002-1.493h3.179c.979,0,1.785-.716,1.937-1.652-.614.33-1.412.606-2.502.606Z"/>
  <g>
    <path d="M8.339,5.022c-1.859.119-3.339,1.654-3.339,3.543v4.352c0,.597.486,1.083,1.084,1.083h5.629l-.005-5.311c0-1.918-1.472-3.503-3.368-3.667Z"/>
    <path d="M32.6,53.552c.048-.06.094-.121.148-.176-.203-.38-.353-.795-.426-1.242-.08-.499.047-.992.313-1.401-.133-.049-.273-.075-.476-.075-.8,0-1.521-.476-1.838-1.21-.315-.735-.163-1.587.387-2.167l1.182-1.246c-.079-.109-.157-.219-.225-.338-.69-1.192-.694-2.617-.009-3.812,2.96-5.154,8.486-8.356,14.423-8.356,1.784,0,3.528.294,5.18.839V9.258c.001-2.348-1.909-4.258-4.258-4.258l-34.646.007c.845.995,1.353,2.282,1.353,3.681l.051,48.968,5.606-4.158,6.562,5.225,6.583-5.242.091.073ZM32.158,10.987h13.211c.553,0,1,.447,1,1s-.447,1-1,1h-13.211c-.553,0-1-.447-1-1s.447-1,1-1ZM32.127,17.567h13.211c.553,0,1,.447,1,1s-.447,1-1,1h-13.211c-.553,0-1-.447-1-1s.447-1,1-1ZM19.429,11.994c.182-1.496,1.502-1.984,2.176-2.033h1.216v-.921c0-.553.447-1,1-1s1,.447,1,1v.919h1.027c1.622.108,2.265,1.333,2.387,1.967.105.542-.249,1.066-.792,1.171-.531.104-1.052-.24-1.167-.769-.061-.229-.228-.354-.496-.372l-4.103.002c-.113.02-.223.101-.256.237v1.325c.028.247.202.256.306.261h4.327c.036,0,.072,0,.108.005.697.076,2.031.633,2.09,2.197v1.28c.037.598-.274,1.935-1.722,2.309-.081.021-.165.032-.25.032h-1.433v.918c0,.553-.447,1-1,1s-1-.447-1-1v-.918h-1.295c-.639,0-1.904-.432-2.123-2.064-.073-.548.312-1.051.858-1.124.552-.072,1.051.312,1.124.858.042.313.148.327.188.332l4.515-.002c.067-.037.139-.117.139-.307v-1.276c-.003-.026-.009-.184-.282-.241h-4.295c-1.592-.078-2.213-1.365-2.255-2.211v-1.454c0-.04.002-.081.007-.121ZM20.174,24.115h25.211c.553,0,1,.447,1,1s-.447,1-1,1h-25.211c-.553,0-1-.447-1-1s.447-1,1-1ZM20.143,30.695h25.211c.553,0,1,.447,1,1s-.447,1-1,1h-25.211c-.553,0-1-.447-1-1s.447-1,1-1ZM20.143,37.243h9.211c.553,0,1,.447,1,1s-.447,1-1,1h-9.211c-.553,0-1-.447-1-1s.447-1,1-1ZM29.354,45.79h-9.211c-.553,0-1-.447-1-1s.447-1,1-1h9.211c.553,0,1,.447,1,1s-.447,1-1,1Z"/>
  </g>
  <path d="M57.009,47.608h-22.204c-.491,0-.962-.094-1.399-.264l-1.247,1.315c2.32,0,2.321,1.762,4.641,1.762s2.32-1.762,4.641-1.762c2.32,0,2.32,1.762,4.64,1.762s2.32-1.762,4.64-1.762,2.32,1.762,4.64,1.762c2.32,0,2.32-1.762,4.64-1.762l-1.292-1.45c-.517.255-1.091.4-1.697.4Z"/>
</svg>