<?xml version="1.0" encoding="UTF-8"?>
<svg id="Glyph" xmlns="http://www.w3.org/2000/svg" viewBox="0 0 64 64">
  <path d="M55.868,47.204h-6.898v4.739c0,2.559-2.082,4.641-4.641,4.641-.081,0-.163-.002-.246-.007-2.464-.129-4.394-2.23-4.394-4.783v-3.125c0-.353-.287-.641-.641-.641-.358.018-.641.387-.641.79v.72c0,2.559-2.082,4.641-4.641,4.641-.081,0-.163-.002-.246-.007-2.464-.129-4.394-2.23-4.394-4.783v-2.185H9.175c-1.171,0-2.256-.37-3.15-.996-.642.734-.934,1.77-.626,2.813,1.649,5.589,6.82,9.668,12.943,9.668h27.315c6.123,0,11.294-4.079,12.943-9.668.252-.853.096-1.699-.315-2.384-.731.359-1.55.567-2.418.567Z"/>
  <path d="M55.965,40.992c-1.253.952-2.812,2.136-5.761,2.136s-4.508-1.184-5.761-2.136c-1.047-.795-1.739-1.321-3.341-1.321s-2.293.525-3.34,1.321c-1.253.952-2.812,2.136-5.761,2.136s-4.508-1.184-5.761-2.136c-1.047-.795-1.739-1.321-3.341-1.321s-2.294.525-3.342,1.321c-1.253.951-2.812,2.135-5.761,2.135s-4.508-1.184-5.762-2.136c-.686-.521-1.224-.923-1.962-1.14-.26.607-.409,1.249-.409,1.843,0,1.938,1.571,3.51,3.51,3.51h20.187c.976,0,1.767.791,1.767,1.767v2.418c0,1.43,1.071,2.711,2.498,2.786,1.523.08,2.782-1.131,2.782-2.637v-.72c0-1.43,1.071-2.711,2.498-2.786,1.523-.08,2.782,1.131,2.782,2.637v3.125c0,1.43,1.071,2.711,2.498,2.786,1.523.08,2.782-1.131,2.782-2.636v-4.973c0-.976.791-1.767,1.767-1.767h7.132c1.938,0,3.51-1.571,3.51-3.51,0-.647-.178-1.352-.484-2.005-1.313.085-1.978.581-2.929,1.303Z"/>
  <path d="M55.46,35.24h-5.67c1.34-.48,2.62-1.15,3.81-2h1.86c1.96,0,3.55-1.59,3.55-3.55,0-.75-.24-1.44-.64-2.01,1.1-2.16,1.69-4.56,1.69-7.05,0-4.14-1.61-8.04-4.54-10.97-4.45-4.45-10.95-5.61-16.49-3.51-2.26-.54-4.61-.84-7.03-.84-11.22,0-21.01,6.12-26.23,15.2-1.43,2.5.39,5.63,3.28,5.63h21c.17.44.35.88.56,1.31l-.22.69H9.05c-1.12,0-2.17-.32-3.08-.89-.6.63-.98,1.49-.98,2.44,0,1.96,1.59,3.55,3.55,3.55h20.2l-.19.59c-.15.47-.12.96.03,1.41H8.54c-.47,0-.93-.07-1.37-.18l-2.48,2.61c4.56,0,4.56,3.46,9.11,3.46s4.55-3.46,9.1-3.46,4.55,3.46,9.1,3.46,4.55-3.46,9.1-3.46,4.55,3.46,9.1,3.46,4.55-3.46,9.11-3.46l-2.36-2.64c-.47.13-.97.21-1.49.21ZM18.68,18.74c0,.55-.44,1-1,1-.55,0-1-.45-1-1v-2.12c0-.55.45-1,1-1,.56,0,1,.45,1,1v2.12ZM25.84,14.83c0,.55-.45,1-1,1s-1-.45-1-1v-2.12c0-.55.45-1,1-1s1,.45,1,1v2.12ZM38.28,32.61l-.37-.2-7.18,2.32c-.1.03-.18-.01-.22-.06-.07-.06-.08-.13-.06-.22l2.32-7.17-.19-.38c-2.76-5.26-1.79-11.62,2.41-15.82,2.64-2.64,6.1-3.96,9.56-3.96s6.92,1.32,9.56,3.96c2.55,2.55,3.95,5.94,3.95,9.55s-1.4,7.01-3.95,9.56c-4.21,4.2-10.57,5.18-15.83,2.42Z"/>
  <path d="M41.083,21.519h2.649v4.429h-2.857c-.031,0-.759-.013-.911-1.146-.073-.547-.579-.931-1.124-.858-.547.073-.932.576-.858,1.124.305,2.278,2.026,2.88,2.893,2.88h2.857v1.743c0,.553.448,1,1,1s1-.447,1-1v-1.743h3.089c.085,0,.169-.011.251-.032,2.003-.52,2.435-2.373,2.385-3.223v-2.125c-.083-2.165-1.938-2.938-2.908-3.043-.036-.004-.072-.006-.108-.006h-2.709s0-4.426,0-4.426h2.294c1.147.077,1.41.964,1.452,1.149.11.535.63.884,1.169.779.542-.104.897-.629.792-1.172-.172-.886-1.078-2.603-3.345-2.755h-2.362s0-1.693,0-1.693c0-.553-.448-1-1-1s-1,.447-1,1v1.695h-2.722c-.938.069-2.779.747-3.03,2.823-.005.04-.007.08-.007.12v2.411c.05,1.011.753,2.952,3.11,3.068ZM45.732,21.519h2.638c.301.049,1.055.258,1.087,1.087v2.132c.008.225-.031.953-.78,1.21h-2.945v-4.429ZM39.973,16.107c.138-.871,1.015-1,1.11-1.014h2.649s0,4.425,0,4.425h-2.599c-.975-.048-1.137-.839-1.16-1.118v-2.294Z"/>
</svg>