<?xml version="1.0" encoding="UTF-8"?>
<svg id="Glyph" xmlns="http://www.w3.org/2000/svg" viewBox="0 0 64 64">
  <path d="M48.599,15.981H15.401c-1.744,0-3.171,1.331-3.171,2.958s1.427,2.958,3.171,2.958h33.198c1.744,0,3.171-1.331,3.171-2.958s-1.427-2.958-3.171-2.958Z"/>
  <path d="M30.52,23.9h-15.12c-.1,0-.2-.03-.3-.03l2.75,32.36c.18,2.07,2.03,3.77,4.11,3.77h8.03c6.01-11.04,2.05-29.96.53-36.1ZM19.26,49.24l-1.53-18.02c3.66,1.56,6.23,5.19,6.23,9.42,0,3.61-1.87,6.78-4.7,8.6ZM48.6,23.9h-13.31c2.59,5.49,9.09,21.4,5.7,36.1h1.05c2.08,0,3.93-1.7,4.11-3.77l2.75-32.36c-.1,0-.2.03-.3.03Z"/>
  <path d="M35.328,13.98l.847-3.137c.52-1.705,2.066-2.85,3.849-2.85h3.646c.625,0,1.132-.507,1.132-1.132v-1.73c0-.625-.507-1.132-1.132-1.132h-3.646c-3.551,0-6.633,2.282-7.686,5.741l-1.145,4.24h4.136Z"/>
</svg>