<?xml version="1.0" encoding="UTF-8"?>
<svg id="Glyph" xmlns="http://www.w3.org/2000/svg" viewBox="0 0 64 64">
  <path d="M54.92,25.15h-9.59c-1.29,3.17-4.42,5.32-7.89,5.32h-11.22c-3.47,0-6.61-2.15-7.9-5.32h-9.24v27.14h13.79v-12.57h-1.1c-1.75,0-3.18-1.42-3.18-3.17v-2.38c0-1.75,1.43-3.17,3.18-3.17h20.46c1.75,0,3.18,1.42,3.18,3.17v2.38c0,1.75-1.43,3.17-3.18,3.17h-1.1v12.57h13.79v-27.14Z"/>
  <path d="M7.24,23.15h10.68c.04-.59.24-1.17.57-1.67-.2-.47-.3-.98-.3-1.51v-1.81c0-.19.02-.37.04-.55l.03-.17H7.24c-.96,0-1.74.78-1.74,1.74v2.23c0,.96.78,1.74,1.74,1.74Z"/>
  <path d="M56.76,17.44h-11.02l.02.13c.03.2.05.39.05.59v1.81c0,.66-.17,1.27-.46,1.82.22.43.35.89.38,1.36h11.03c.96,0,1.74-.78,1.74-1.74v-2.23c0-.96-.78-1.74-1.74-1.74Z"/>
  <path d="M43.405,36.548v-2.374c0-.648-.526-1.174-1.174-1.174h-20.463c-.648,0-1.174.526-1.174,1.174v2.374c0,.648.526,1.174,1.174,1.174h9.231l-.007,14.57h2l.007-14.57h9.232c.648,0,1.174-.526,1.174-1.174Z"/>
  <path d="M34.289,44.475v2.062c0,.553.447,1,1,1s1-.447,1-1v-2.062c0-.553-.447-1-1-1s-1,.447-1,1Z"/>
  <path d="M27.711,44.475v2.062c0,.553.448,1,1,1s1-.447,1-1v-2.062c0-.553-.448-1-1-1s-1,.447-1,1Z"/>
  <rect x="5.5" y="54.292" width="53" height="5.708" rx="1.741" ry="1.741"/>
  <path d="M20.727,14.079h22.204c1.398,0,2.283-1.514,1.586-2.726-2.523-4.393-7.259-7.352-12.688-7.352s-10.165,2.959-12.688,7.352c-.696,1.213.188,2.726,1.586,2.726ZM37.756,9.472c0-.552.447-1,1-1s1,.448,1,1v1.027c0,.552-.447,1-1,1s-1-.448-1-1v-1.027ZM34.292,7.58c0-.552.447-1,1-1s1,.448,1,1v1.026c0,.552-.447,1-1,1s-1-.448-1-1v-1.026ZM30.829,9.472c0-.552.447-1,1-1s1,.448,1,1v1.027c0,.552-.447,1-1,1s-1-.448-1-1v-1.027ZM27.365,7.58c0-.552.447-1,1-1s1,.448,1,1v1.026c0,.552-.447,1-1,1s-1-.448-1-1v-1.026ZM23.902,9.472c0-.552.447-1,1-1s1,.448,1,1v1.027c0,.552-.447,1-1,1s-1-.448-1-1v-1.027Z"/>
  <path d="M19.959,23.792c.798,2.704,3.299,4.678,6.262,4.678h11.216c2.963,0,5.464-1.974,6.262-4.678.036-.123.053-.246.057-.367-.57.316-1.215.512-1.912.512h-1.212c-.249,1.971-1.938,3.502-3.978,3.502-.215,0-.436-.017-.658-.053-1.712-.279-3.046-1.71-3.305-3.449h-10.537c-.832,0-1.603-.259-2.241-.698-.017.18-.01.365.045.553Z"/>
  <path d="M36.318,25.412c1.258.205,2.346-.761,2.346-1.981l.002-1.493h3.179c.979,0,1.785-.716,1.937-1.652-.614.33-1.412.606-2.502.606-1.833,0-2.854-.775-3.529-1.289-.479-.364-.624-.474-1.11-.474s-.631.11-1.109.474c-.676.513-1.696,1.289-3.53,1.289s-2.854-.775-3.529-1.289c-.479-.364-.624-.474-1.11-.474s-.632.11-1.11.474c-.676.513-1.696,1.289-3.53,1.289-1.091,0-1.889-.276-2.503-.607.152.936.958,1.653,1.937,1.653h12.494l-.002,1.386c0,1.001.684,1.928,1.671,2.089Z"/>
  <path d="M27.361,17.129c2.32,0,2.32,1.762,4.64,1.762s2.32-1.762,4.64-1.762,2.32,1.762,4.64,1.762c2.32,0,2.32-1.762,4.64-1.762l-1.292-1.45c-.517.255-1.091.4-1.697.4h-22.204c-.491,0-.962-.094-1.399-.264l-1.247,1.315c2.32,0,2.321,1.762,4.641,1.762s2.32-1.762,4.641-1.762Z"/>
</svg>