<?xml version="1.0" encoding="UTF-8"?>
<svg id="Glyph" xmlns="http://www.w3.org/2000/svg" viewBox="0 0 64 64">
  <path d="M31.127,10.425c-.421.356-.474.987-.116,1.409.197.233.479.354.764.354.228,0,.457-.078.646-.237,1.703-1.442,1.315-3.447.861-4.328-1.004-1.831-.237-2.831-.136-2.951.365-.403.342-1.026-.057-1.4-.404-.377-1.036-.359-1.414.045-.078.084-1.896,2.078-.159,5.245.022.044.54,1.077-.389,1.864Z"/>
  <path d="M21.791,10.425c-.421.356-.474.987-.116,1.409.197.233.479.354.764.354.228,0,.457-.078.646-.237,1.702-1.442,1.316-3.447.862-4.329-1.005-1.83-.237-2.83-.136-2.949.365-.403.342-1.026-.057-1.4-.402-.379-1.036-.359-1.413.044-.079.083-1.898,2.078-.16,5.245.022.043.539,1.077-.39,1.864Z"/>
  <path d="M40.016,10.424c-.421.357-.474.988-.117,1.41.198.233.48.354.765.354.228,0,.457-.078.646-.236,1.703-1.443,1.316-3.448.862-4.33-1.005-1.83-.237-2.83-.136-2.949.365-.403.342-1.026-.057-1.4-.403-.379-1.036-.359-1.413.044-.079.083-1.898,2.078-.165,5.235.089.183.488,1.135-.385,1.873Z"/>
  <polygon points="13.75 49.44 49.43 49.44 50.5 41.95 12.68 41.95 13.75 49.44"/>
  <polygon points="12.391 39.95 50.786 39.95 51.431 35.451 11.746 35.451 12.391 39.95"/>
  <path d="M14.862,57.174c.233,1.622,1.622,2.826,3.26,2.826h26.933c1.638,0,3.027-1.204,3.26-2.826l.822-5.734H14.04l.822,5.734Z"/>
  <path d="M51.688,27.535H11.49c-1.744,0-3.171,1.331-3.171,2.958s1.427,2.958,3.171,2.958h40.198c1.744,0,3.171-1.331,3.171-2.958s-1.427-2.958-3.171-2.958Z"/>
  <path d="M40.46,21.68c-.43.98-.85,2.24-1.19,3.86h10.66c-.04-.47-.12-.99-.29-1.51-.23-.71-.03-1.48.48-2.02.29-.3.58-.65.76-1.03.22-.45.13-1-.2-1.38-.6-.68-1.97-1.79-4.5-1.74-2.49.06-4.71,1.54-5.72,3.82Z"/>
  <path d="M32.21,19.88c-.68,2.39-.91,4.25-.91,5.66h5.94c.34-1.79.81-3.35,1.39-4.67.38-.86.89-1.62,1.51-2.29-1.03-.88-2.03-1.28-2.03-1.28-1.84-.9-3.25-.51-4.19.12-.86.56-1.44,1.47-1.71,2.46Z"/>
  <path d="M29.3,25.54v-.01c0-1.52.23-3.23.69-5.1-.23-.1-.47-.19-.73-.26-.72-.19-1.25-.78-1.41-1.51-.09-.41-.23-.84-.45-1.2-.25-.43-.76-.66-1.26-.59-.9.12-2.58.66-3.93,2.8-1.12,1.78-1.27,3.97-.49,5.87h7.58Z"/>
  <path d="M19.6,25.54c-.65-2.14-.44-4.49.65-6.48-.91-.13-1.7-.19-2.39-.2-2.49-.01-4.76,1.41-5.82,3.66-.56,1.18-.72,2.2-.67,3.03.04-.01.08-.01.12-.01h8.11Z"/>
</svg>