<?xml version="1.0" encoding="UTF-8"?>
<svg id="Glyph" xmlns="http://www.w3.org/2000/svg" viewBox="0 0 64 64">
  <path d="M49.747,49.13c-.878-.805-1.31-1.16-2.327-1.16-.12,0-.24.168-.24.33v2.61c0,2.489-1.868,4.624-4.252,4.86-.159.017-.325.025-.489.025-2.607,0-4.729-2.125-4.729-4.736v-1.869c0-.44-.303-.856-.647-.891h-.008c-.479,0-.805.328-.805.73,0,1.164-.408,2.299-1.149,3.195-.813.961-1.911,1.547-3.104,1.665-.159.017-.325.025-.489.025-2.606,0-4.728-2.12-4.728-4.726v-.891c0-.162-.12-.329-.238-.33-1.064,0-1.515.412-2.33,1.161-1.018.932-2.409,2.209-5.021,2.209s-4.015-1.279-5.033-2.213c-.875-.803-1.305-1.157-2.317-1.157-.878,0-1.332.267-1.962.826l-.167.148c5.701,7.49,15.085,12.025,25.454,10.888,6.818-.748,12.949-4.012,17.414-8.85-1.291-.45-2.162-1.237-2.832-1.852Z"/>
  <path d="M57.383,12.31c-1.445,0-2.617,1.172-2.617,2.617s1.172,2.617,2.617,2.617,2.617-1.172,2.617-2.617-1.172-2.617-2.617-2.617Z"/>
  <path d="M53.21,4.378l-2.905-.372c-.931-.119-1.724.673-1.605,1.604l.372,2.905c.151,1.181,1.593,1.673,2.435.831l2.534-2.533c.842-.842.35-2.284-.831-2.435Z"/>
  <path d="M59.29,25.76c-.16-.72-.79-1.27-1.53-1.24-.2.01-.4.02-.6.01-1.92-.07-3.69-1.05-5-2.45-2.01-2.16-2.35-4.06-2.17-5.8-.01,0-.03.01-.04.01-4.12,0-7.45-3.34-7.45-7.46,0-.45.04-.9.12-1.33.14-.77-.25-1.52-.98-1.79-3.42-1.26-7.16-1.86-11.07-1.67-13.87.69-25.33,11.75-26.47,25.59-.54,6.54,1.17,12.66,4.45,17.67.8-.71,1.71-1.33,3.29-1.33,3.67,0,3.67,3.37,7.35,3.37s3.67-3.37,7.35-3.37h.02c1.25.01,2.22,1.09,2.22,2.33v.89c0,1.6,1.38,2.88,3.02,2.71.71-.07,1.32-.43,1.76-.95.43-.52.69-1.21.69-1.92,0-1.6,1.38-2.88,3.01-2.72,1.42.14,2.45,1.45,2.45,2.88v1.87c0,1.61,1.38,2.89,3.02,2.72,1.42-.14,2.45-1.44,2.45-2.87v-2.61c0-1.24.97-2.32,2.22-2.33h.02c3.41,0,3.66,2.9,6.61,3.32,2.78-3.53,4.73-7.75,5.54-12.34.68-3.9.53-7.67-.28-11.19ZM13.588,24.669l1.887-3.731c.249-.493.853-.691,1.344-.441.493.249.69.851.441,1.344l-1.887,3.731c-.176.349-.528.549-.894.549-.151,0-.306-.034-.45-.107-.493-.249-.69-.851-.441-1.344ZM9.677,32.376c-.478-.278-.639-.89-.361-1.367s.89-.639,1.367-.361l3.641,2.119c.478.278.639.89.361,1.367-.186.319-.521.497-.865.497-.171,0-.344-.044-.502-.136l-3.641-2.119ZM18.655,39.522l-3.199,3.035c-.193.184-.441.274-.688.274-.265,0-.529-.104-.726-.312-.38-.4-.363-1.034.037-1.414l3.199-3.035c.401-.38,1.034-.362,1.414.037.38.4.363,1.034-.037,1.414ZM31.944,8.961c.074-.548.576-.923,1.126-.856.547.075.931.579.856,1.126l-.574,4.224c-.068.502-.497.865-.99.865-.045,0-.09-.003-.136-.009-.547-.075-.931-.579-.856-1.126l.574-4.224ZM19.737,14.198c.09-.545.602-.918,1.148-.826l4.512.738c.545.09.915.604.826,1.148-.081.49-.505.839-.986.839-.054,0-.107-.004-.162-.013l-4.512-.738c-.545-.09-.915-.604-.826-1.148ZM32,42.495c-5.796,0-10.495-4.699-10.495-10.495s4.699-10.495,10.495-10.495,10.495,4.699,10.495,10.495-4.699,10.495-10.495,10.495ZM42.369,19.258l-4.511-.574c-.548-.07-.936-.57-.866-1.118.07-.547.573-.929,1.118-.866l4.511.574c.548.07.936.57.866,1.118-.064.505-.495.874-.991.874-.042,0-.084-.003-.127-.008ZM47.437,40.187l-3.199,3.034c-.193.184-.441.274-.688.274-.265,0-.529-.104-.726-.312-.38-.401-.363-1.034.037-1.414l3.199-3.034c.401-.38,1.035-.362,1.414.037.38.401.363,1.034-.037,1.414ZM47.434,30.546c-.186,0-.373-.052-.541-.159-.464-.3-.598-.918-.299-1.383l2.379-3.69c.3-.465.918-.597,1.383-.299.464.3.598.918.299,1.383l-2.379,3.69c-.191.297-.514.458-.842.458ZM55.716,37.377c-.186.319-.521.497-.865.497-.171,0-.344-.044-.502-.136l-3.642-2.119c-.478-.277-.64-.89-.361-1.367.277-.478.89-.639,1.367-.361l3.642,2.119c.478.277.639.89.361,1.367Z"/>
</svg>