<?xml version="1.0" encoding="UTF-8"?>
<svg xmlns="http://www.w3.org/2000/svg" version="1.1" viewBox="0 0 48 48">
  <!-- Generator: Adobe Illustrator 28.7.1, SVG Export Plug-In . SVG Version: 1.2.0 Build 142)  -->
  <g>
    <g id="Glyph">
      <g>
        <path d="M17.06,18.5l-2.06.82367v-2.32367c0-.55273-.44727-1-1-1s-1,.44727-1,1v3.12329l-2,.79968v-1.92297c0-.55273-.44727-1-1-1s-1,.44727-1,1v2.7226l-3.37,1.34741c-.38.14996-.63.51996-.63.92999v4c0,.28998.11999.56.34003.75.19895.17179.52301.30684.78998.23999l11.48999-1.53003-.56-8.95996Z"/>
        <path d="M42.37,23.07001l-3.37-1.34741v-2.7226c0-.55273-.44727-1-1-1s-1,.44727-1,1v1.92297l-2-.79968v-3.12329c0-.55273-.44727-1-1-1s-1,.44727-1,1v2.32367l-2.06-.82367-.56,8.95996s11.48999,1.53003,11.49001,1.53003c.5796.14508,1.12999-.44738,1.12999-.98999v-4c0-.41003-.25-.78003-.63-.92999Z"/>
        <path d="M17.96997,33.01996l-5.56995,4.18005c-.25.19-.40002.48999-.40002.79999v4c0,.34998.17999.66998.47004.85002.29686.18553.66878.19527.97997.03999l5.06-2.53003c-.08002-.31-.12-.64001-.14001-.96997l-.40002-6.37006Z"/>
        <path d="M30.03003,33.01996l-.40002,6.41003c-.02002.32001-.06.63-.13.92999,0,0,5.04999,2.53003,5.05005,2.53006.31104.15536.68337.14534.97998-.04007.28998-.17999.46997-.5.46997-.84998v-4c0-.31-.15002-.60999-.40002-.79999l-5.56995-4.18005Z"/>
        <path d="M17,9h4v.85999c.92999-.56,1.96002-.85999,3-.85999s2.06.28998,3,.84998v-.84998h4c.55273,0,1-.44727,1-1s-.44727-1-1-1h-4.18524c-.41553-1.15967-1.51678-2-2.81476-2s-2.39923.84033-2.81476,2h-4.18524c-.55273,0-1,.44727-1,1s.44727,1,1,1Z"/>
        <path d="M24,11c-1.15466,0-2.29913.57996-3.22205,1.63232-1.18195,1.3465-1.86029,3.26562-1.76996,5.01929l1.3584,21.63971c.10565,2.08002,1.70258,3.70868,3.63361,3.70868s3.52795-1.62866,3.63361-3.69672l1.3584-21.66266c.09033-1.74268-.58801-3.6618-1.76996-5.0083-.92291-1.05237-2.06738-1.63232-3.22205-1.63232ZM25,37c0,.55273-.44727,1-1,1s-1-.44727-1-1v-7c0-.55273.44727-1,1-1s1,.44727,1,1v7ZM25,26c0,.55273-.44727,1-1,1s-1-.44727-1-1v-7c0-.55273.44727-1,1-1s1,.44727,1,1v7ZM25.70703,15.70703c-.37787.37787-1.02405.39001-1.41406,0l-.29297-.29297-.29297.29297c-.39062.39062-1.02344.39062-1.41406,0s-.39062-1.02344,0-1.41406l1-1c.39062-.39062,1.02344-.39062,1.41406,0l1,1c.39062.39062.39062,1.02344,0,1.41406Z"/>
      </g>
    </g>
  </g>
</svg>