<?xml version="1.0" encoding="UTF-8"?>
<svg xmlns="http://www.w3.org/2000/svg" version="1.1" viewBox="0 0 48 48">
  <!-- Generator: Adobe Illustrator 28.7.1, SVG Export Plug-In . SVG Version: 1.2.0 Build 142)  -->
  <g>
    <g id="Glyph">
      <g>
        <circle cx="24" cy="24" r="1"/>
        <path d="M28,19h-8c-.55127,0-1,.44873-1,1v8c0,.55127.44873,1,1,1h8c.55127,0,1-.44873,1-1v-8c0-.55127-.44873-1-1-1ZM24,27c-1.6543,0-3-1.3457-3-3s1.3457-3,3-3,3,1.3457,3,3-1.3457,3-3,3Z"/>
        <path d="M11,32c0,.55127.44873,1,1,1,.27094,0,.51556-.11029.69586-.28595.00317-.00323.00403-.00769.00726-.01093s.00769-.00409.01093-.00726c.17566-.1803.28595-.42493.28595-.69586,0-.55127-.44873-1-1-1s-1,.44873-1,1Z"/>
        <path d="M37,16c0-.55127-.44873-1-1-1-.27094,0-.51556.11029-.69586.28595-.00317.00323-.00403.00769-.00726.01093s-.00769.00409-.01093.00726c-.17566.1803-.28595.42493-.28595.69586,0,.55127.44873,1,1,1s1-.44873,1-1Z"/>
        <path d="M40,9h-6v3.58594l.71466.71466c.39111-.18713.82361-.3006,1.28534-.3006,1.6543,0,3,1.3457,3,3s-1.3457,3-3,3-3-1.3457-3-3c0-.46173.11346-.89423.3006-1.28534l-1.00763-1.00763c-.1875-.1875-.29297-.44189-.29297-.70703v-4H14c-.55225,0-1,.44775-1,1,0,.55127-.44873,1-1,1s-1-.44873-1-1c0-.55225-.44775-1-1-1h-2c-1.6543,0-3,1.3457-3,3v24c0,1.6543,1.3457,3,3,3h6v-3.58594l-.71466-.71466c-.39111.18713-.82361.3006-1.28534.3006-1.6543,0-3-1.3457-3-3s1.3457-3,3-3,3,1.3457,3,3c0,.46173-.11346.89423-.3006,1.28534l1.00763,1.00763c.1875.1875.29297.44189.29297.70703v4h18c.55225,0,1-.44775,1-1,0-.55127.44873-1,1-1s1,.44873,1,1c0,.55225.44775,1,1,1h2c1.6543,0,3-1.3457,3-3V12c0-1.6543-1.3457-3-3-3ZM11,26.5c0,.55225-.44775,1-1,1s-1-.44775-1-1v-2c0-.55225.44775-1,1-1s1,.44775,1,1v2ZM11,21c0,.55225-.44775,1-1,1s-1-.44775-1-1v-2c0-.55225.44775-1,1-1s1,.44775,1,1v2ZM10,16c-.55231,0-1-.44775-1-1,0-.55231.44769-1,1-1s1,.44769,1,1c0,.55225-.44769,1-1,1ZM33,23c.55225,0,1,.44775,1,1s-.44775,1-1,1h-2v2h2c.55225,0,1,.44775,1,1s-.44775,1-1,1h-2.18427c-.30206.84717-.96857,1.51367-1.81573,1.81573v2.18427c0,.55225-.44775,1-1,1s-1-.44775-1-1v-2h-2v2c0,.55225-.44775,1-1,1s-1-.44775-1-1v-2h-2v2c0,.55225-.44775,1-1,1s-1-.44775-1-1v-2.18433c-.84717-.30206-1.51361-.96851-1.81567-1.81567h-2.18433c-.55225,0-1-.44775-1-1s.44775-1,1-1h2v-2h-2c-.55225,0-1-.44775-1-1s.44775-1,1-1h2v-2h-2c-.55225,0-1-.44775-1-1s.44775-1,1-1h2.18427c.30206-.84717.96857-1.51367,1.81573-1.81573v-2.18427c0-.55225.44775-1,1-1s1,.44775,1,1v2h2v-2c0-.55225.44775-1,1-1s1,.44775,1,1v2h2v-2c0-.55225.44775-1,1-1s1,.44775,1,1v2.18427c.84717.30206,1.51367.96857,1.81573,1.81573h2.18427c.55225,0,1,.44775,1,1s-.44775,1-1,1h-2v2h2ZM38,34c-.55231,0-1-.44775-1-1,0-.55231.44769-1,1-1s1,.44769,1,1c0,.55225-.44769,1-1,1ZM39,29c0,.55225-.44775,1-1,1s-1-.44775-1-1v-2c0-.55225.44775-1,1-1s1,.44775,1,1v2ZM39,23.5c0,.55225-.44775,1-1,1s-1-.44775-1-1v-2c0-.55225.44775-1,1-1s1,.44775,1,1v2Z"/>
      </g>
    </g>
  </g>
</svg>