<?xml version="1.0" encoding="UTF-8"?>
<svg xmlns="http://www.w3.org/2000/svg" version="1.1" viewBox="0 0 64 64">
  <!-- Generator: Adobe Illustrator 28.7.1, SVG Export Plug-In . SVG Version: 1.2.0 Build 142)  -->
  <g>
    <g id="Glyph">
      <g>
        <path d="M19,47c0,.55225.44769,1,1,1h1v-2h-1c-.55231,0-1,.44769-1,1Z"/>
        <path d="M45,47c0-.55231-.44769-1-1-1h-1v2h1c.55231,0,1-.44775,1-1Z"/>
        <path d="M19,27h26v-15h-26v15ZM21,15c0-.55225.44775-1,1-1h20c.55225,0,1,.44775,1,1v9c0,.55225-.44775,1-1,1h-20c-.55225,0-1-.44775-1-1v-9Z"/>
        <rect x="23" y="16" width="18" height="7"/>
        <path d="M19,39h26v-10h-26v10ZM35,33h7c.55225,0,1,.44775,1,1s-.44775,1-1,1h-7c-.55225,0-1-.44775-1-1s.44775-1,1-1ZM30,31c.55231,0,1,.44769,1,1,0,.55225-.44769,1-1,1s-1-.44775-1-1c0-.55231.44769-1,1-1ZM30,35c.55231,0,1,.44769,1,1,0,.55225-.44769,1-1,1s-1-.44775-1-1c0-.55231.44769-1,1-1ZM26,31c.55231,0,1,.44769,1,1,0,.55225-.44769,1-1,1s-1-.44775-1-1c0-.55231.44769-1,1-1ZM26,35c.55231,0,1,.44769,1,1,0,.55225-.44769,1-1,1s-1-.44775-1-1c0-.55231.44769-1,1-1ZM22,31c.55231,0,1,.44769,1,1,0,.55225-.44769,1-1,1s-1-.44775-1-1c0-.55231.44769-1,1-1ZM22,35c.55231,0,1,.44769,1,1,0,.55225-.44769,1-1,1s-1-.44775-1-1c0-.55231.44769-1,1-1Z"/>
        <path d="M47,7h-30c-2.21002,0-4,1.78998-4,4v39c0,2.20996,1.78998,4,4,4h4v-4h-1c-1.65997,0-3-1.34003-3-3,0-.83002.34003-1.58002.88-2.12.53998-.54004,1.28998-.88,2.12-.88h24c1.65997,0,3,1.33997,3,3,0,.82996-.34003,1.57996-.88,2.12-.53998.53998-1.28998.88-2.12.88h-1v4h4c2.21002,0,4-1.79004,4-4V11c0-2.21002-1.78998-4-4-4ZM47,40c0,.54999-.45001,1-1,1h-28c-.54999,0-1-.45001-1-1V11c0-.54999.45001-1,1-1h28c.54999,0,1,.45001,1,1v29Z"/>
        <path d="M23,55c0,1.10455.89545,2,2,2h14c1.10455,0,2-.89545,2-2v-9h-18v9Z"/>
      </g>
    </g>
  </g>
</svg>