<?xml version="1.0" encoding="UTF-8"?>
<svg xmlns="http://www.w3.org/2000/svg" version="1.1" viewBox="0 0 48 48">
  <!-- Generator: Adobe Illustrator 28.7.1, SVG Export Plug-In . SVG Version: 1.2.0 Build 142)  -->
  <g>
    <g id="Glyph">
      <g>
        <path d="M43,24c0-2.25067-1.64526-4.33502-4.62134-5.93964.37585-1.24762.55878-2.40497.55133-3.45038-.58997.38-1.27997.62-2.02002.65002-.05353.59491-.18274,1.24438-.37073,1.92999-1.30859-.53778-2.78094-.98352-4.39294-1.33606-.35468-1.62115-.80341-3.1001-1.34351-4.41125.68988-.18701,1.34076-.3078,1.93719-.35272.03003-.72998.26001-1.41998.64001-2-1.04956-.00244-2.20538.18634-3.43073.54913-1.60791-2.98877-3.69537-4.6391-5.94928-4.6391-2.29236,0-4.37701,1.67865-5.96716,4.62421-3.24286-.9621-5.88086-.6507-7.47034.93878-1.59179,1.5918-1.90197,4.22839-.93237,7.46643-2.94928,1.59076-4.63013,3.67688-4.63013,5.97058,0,2.25067,1.64532,4.33502,4.62134,5.93964-.37579,1.24762-.55878,2.40497-.55133,3.45038.58997-.38,1.27997-.62006,2.02002-.65002.05353-.59491.18274-1.24445.37073-1.92999,1.30859.53778,2.78094.98352,4.39294,1.33606.35388,1.61761.80127,3.09387,1.3399,4.40289-.68848.18591-1.3382.30615-1.93359.35101-.02002.74005-.26001,1.42999-.64001,2.01001h.02002c1.04395,0,2.19379-.18866,3.41113-.54828,1.60785,2.98834,3.69513,4.63831,5.94885,4.63831,2.29108,0,4.37457-1.67688,5.96442-4.61908,1.21667.36169,2.35162.55121,3.37347.55121,1.7041,0,3.10547-.50098,4.0996-1.49512,1.5918-1.5918,1.90198-4.22839.93238-7.46643,2.94928-1.59076,4.63013-3.67688,4.63013-5.97058ZM28.92993,35.8858c-1.02393-.42401-2.08038-.95447-3.13757-1.59088.62158-.45685,1.2428-.94446,1.86212-1.46277.79639-.07355,1.5802-.17365,2.35382-.29236-.30328,1.22351-.6662,2.34692-1.07837,3.34601ZM17.64001,17.64001c-.03906.039-.07489.07947-.11377.11853.04932-.29156.08972-.58942.14563-.87573.35126-1.7868.83038-3.3924,1.39819-4.76862,1.02417.42413,2.08087.95471,3.13831,1.59131-1.53564,1.12817-3.07458,2.44073-4.56836,3.93451ZM15.16998,20.33075c-.5191.61945-1.00049,1.24683-1.4635,1.87634-.64484-1.07025-1.1698-2.11774-1.58771-3.13855.99805-.41156,2.12006-.77411,3.34198-1.07733-.11804.76868-.21735,1.54761-.29077,2.33954ZM15.00366,23.8186c-.00024.05957-.00366.12201-.00366.1814,0,2.05981.15637,4.07153.45355,6.00708-1.21869-.30286-2.32812-.66992-3.33453-1.09064.68677-1.65912,1.66455-3.38263,2.88464-5.09784ZM17.55701,30.44373c-.36353-2.05878-.55701-4.21893-.55701-6.44373,0-.91113.03906-1.8548.10718-2.85138.61462-.71027,1.25763-1.41345,1.94281-2.09863.6944-.6944,1.39032-1.33856,2.0838-1.94159,1.0058-.06946,1.95288-.1084,2.86621-.1084,2.22443,0,4.38422.19342,6.44299.55627.36353,2.05878.55701,4.21893.55701,6.44373,0,.90894-.03906,1.85132-.1076,2.85187-.6145.71008-1.25732,1.41309-1.94238,2.09814-.69464.69458-1.39081,1.33881-2.08447,1.94165-1.00549.0694-1.95239.10834-2.86554.10834-2.22443,0-4.38422-.19342-6.44299-.55627ZM31.11816,30.32861h-.00012c-.00897.00165-.0177.00256-.02655.00446-.27765.05402-.56689.09351-.84979.1413.03925-.03894.0791-.0752.11829-.11438,1.47015-1.46594,2.78625-3.00708,3.93353-4.56708.6449,1.07031,1.1698,2.11792,1.58777,3.13867-1.37506.56702-2.9787,1.04572-4.76312,1.39703ZM32.99634,24.1814c.00024-.05957.00366-.12201.00366-.1814,0-2.05981-.15631-4.07159-.45349-6.00708,1.21869.30286,2.32806.66992,3.33447,1.09064-.68677,1.65912-1.66449,3.38257-2.88464,5.09784ZM30.0069,15.45374c-1.93579-.29724-3.94739-.45374-6.0069-.45374-.07056,0-.14471.00403-.21558.00439.23224-.16632.46228-.32251.69226-.47827.04913-.02686.09229-.0592.13684-.09454,1.50275-1.00616,2.95013-1.78314,4.29248-2.33643.4248,1.01093.79559,2.12842,1.10089,3.35858ZM24,7c1.40656,0,2.85272,1.19452,4.05438,3.3183-1.31024.54633-2.67493,1.26886-4.05884,2.15472-1.35083-.86969-2.72412-1.60431-4.05511-2.16376,1.18231-2.0885,2.6084-3.30927,4.05957-3.30927ZM11.97656,11.97705c.99231-.99231,2.85681-1.17365,5.20459-.53052-.52979,1.30139-.9776,2.77716-1.33118,4.4032-1.62366.35303-3.09766.80005-4.39771,1.32892-.64819-2.34357-.4693-4.20758.52429-5.2016ZM7,24c0-1.45203,1.22198-2.87872,3.31305-4.06152.54968,1.3208,1.27521,2.67938,2.16162,4.0589-.87537,1.36591-1.6004,2.72815-2.15649,4.05731-2.12195-1.20074-3.31818-2.64771-3.31818-4.05469ZM17.9931,32.54626c1.93573.29724,3.94739.45374,6.0069.45374.0694,0,.14252-.00397.21216-.00433-.23438.16766-.46667.3252-.69879.48206-.04193.0235-.07867.05121-.11725.08087-1.50714,1.00854-2.95898,1.78662-4.30493,2.33984-.42358-1.00928-.79346-2.12457-1.09808-3.35217ZM24,41c-1.40619,0-2.85199-1.19385-4.05353-3.31665.69519-.28986,1.40424-.62585,2.12354-1.01337.63849-.34271,1.28516-.7262,1.93536-1.14246,1.35059.86951,2.72351,1.60388,4.0542,2.16321-1.18231,2.0885-2.6084,3.30927-4.05957,3.30927ZM36.02344,36.02295c-.9931.99182-2.85681,1.17316-5.20441.5304.52979-1.30139.97766-2.7771,1.33124-4.40308,1.6236-.35303,3.09747-.80011,4.39746-1.32892.64819,2.34357.4693,4.20758-.52429,5.2016ZM37.68701,28.06158c-.54968-1.3208-1.27527-2.6795-2.16168-4.05902.87537-1.36584,1.6004-2.72815,2.15649-4.05725,2.12195,1.20074,3.31818,2.64771,3.31818,4.05469,0,1.45209-1.22211,2.87885-3.31299,4.06158Z"/>
        <circle cx="24" cy="24" r="5"/>
        <circle cx="36.72754" cy="11.27197" r="2"/>
        <circle cx="11.27246" cy="36.72803" r="2"/>
      </g>
    </g>
  </g>
</svg>