<?xml version="1.0" encoding="UTF-8"?>
<svg id="Glyph" xmlns="http://www.w3.org/2000/svg" version="1.1" viewBox="0 0 64 64">
  <path d="M21.20013,38.52155l-2.96265,2.95422c-1.1131-.52521-2.48181-.33954-3.40155.57867l-7.07178,7.07129c-.56592.56641-.87793,1.32031-.87793,2.12109,0,.80176.31201,1.55469.87842,2.12109l2.90723,2.90723c.58496.58496,1.35303.87695,2.12109.87695.76855,0,1.53662-.29199,2.12158-.87695l7.07031-7.07031c.56689-.56641.87939-1.32031.87939-2.12207,0-.492-.13068-.96008-.35303-1.38409l2.92889-2.93713-4.23999-4.23999Z" style="fill: #000; stroke-width: 0px;"/>
  <path d="M44.53461,18.01288l3.48657-3.48651c-.55585-.43176-1.15424-.7818-1.78156-1.04657l-3.11914,3.11896,1.41412,1.41412Z" style="fill: #000; stroke-width: 0px;"/>
  <path d="M43.99396,12.89734c-.29047-.03162-.58191-.05188-.87384-.05188-1.06305,0-2.12421.21442-3.11877.63416l1.70508,1.70508,2.28754-2.28735Z" style="fill: #000; stroke-width: 0px;"/>
  <rect x="41.82672" y="21.9626" width="4.00095" height="2.00017" transform="translate(-3.40039 37.71612) rotate(-45)" style="fill: #000; stroke-width: 0px;"/>
  <rect x="34.75633" y="23.37697" width="3.99957" height="2" transform="translate(-6.4715 33.13035) rotate(-45)" style="fill: #000; stroke-width: 0px;"/>
  <rect x="38.99841" y="19.13443" width="4.00095" height="1.99992" transform="translate(-2.22886 34.88781) rotate(-45)" style="fill: #000; stroke-width: 0px;"/>
  <path d="M51.06409,19.96796l-2.28711,2.28729,1.70496,1.70496c.53473-1.26764.729-2.64417.58215-3.99225Z" style="fill: #000; stroke-width: 0px;"/>
  <path d="M47.36292,20.84119l3.11871-3.11896c-.26477-.62738-.61475-1.22583-1.04645-1.78168l-3.48651,3.48639,1.41425,1.41425Z" style="fill: #000; stroke-width: 0px;"/>
  <path d="M36.04913,29.32623l-3.48706,3.48694c.54974.42804,1.14532.78271,1.77887,1.05072l3.1228-3.12305-1.41461-1.41461Z" style="fill: #000; stroke-width: 0px;"/>
  <rect x="37.58476" y="26.20518" width="3.99957" height="2.00043" transform="translate(-7.64308 35.95878) rotate(-45)" style="fill: #000; stroke-width: 0px;"/>
  <path d="M40.29187,30.74084l2.07239,2.07239c.26221-.20416.51733-.41949.75586-.6582l2.12128-2.12091-2.12152-2.12152-2.828,2.82825Z" style="fill: #000; stroke-width: 0px;"/>
  <path d="M36.58832,34.44458c.2887.03113.57996.05029.87457.05029,1.09186,0,2.14868-.21906,3.12341-.63147l-1.7085-1.7085-2.28949,2.28967Z" style="fill: #000; stroke-width: 0px;"/>
  <path d="M44.53394,26.49854l2.12164,2.12164,2.12177-2.1214c.24005-.24017.45508-.4953.6582-.75684l-2.07263-2.07263-2.82898,2.82922Z" style="fill: #000; stroke-width: 0px;"/>
  <path d="M53.01953,10.94214c-5.45898-5.45898-14.33984-5.45898-19.79883,0l-5.65674,5.65723c-2.64453,2.64355-4.10107,6.15918-4.10107,9.89941,0,2.59949.71857,5.08319,2.03625,7.24902l-2.73206,1.81836c-.24951.16602-.41113.43457-.44092.7334-.02979.29785.07617.59375.28809.80566l4.24268,4.24219c.18848.18848.44336.29297.70703.29297.03271,0,.06592-.00195.09912-.00488.29834-.0293.56738-.19141.7334-.44141l1.81915-2.73474c2.22058,1.34509,4.73053,2.03259,7.24725,2.03259,3.58496,0,7.16992-1.36426,9.89941-4.09375l5.65723-5.65723c5.45898-5.45898,5.45898-14.33984,0-19.79883ZM50.19141,27.91284l-5.65723,5.65625c-1.88574,1.88672-4.39648,2.92578-7.07129,2.92578-2.67285,0-5.18457-1.03906-7.0708-2.92578-1.88623-1.88574-2.9248-4.39746-2.9248-7.07031,0-2.6748,1.03857-5.18555,2.9248-7.07129l5.65674-5.65723c3.89844-3.89941,10.24414-3.89746,14.14258,0,3.89844,3.89941,3.89844,10.24316,0,14.14258Z" style="fill: #000; stroke-width: 0px;"/>
  <path d="M36.04907,20.8418l-2.12164-2.12164-2.12128,2.1214c-.23859.23853-.4538.49353-.6579.75568l2.07257,2.07257,2.82825-2.828Z" style="fill: #000; stroke-width: 0px;"/>
  <path d="M33.22083,26.49792l-3.12274,3.1225c.26782.63348.62225,1.22906,1.05005,1.77863l3.48694-3.48688-1.41425-1.41425Z" style="fill: #000; stroke-width: 0px;"/>
  <path d="M40.29236,16.59875l-2.07263-2.07263c-.26154.20306-.51666.41815-.75684.6582l-2.12146,2.1217,2.1217,2.1217,2.82922-2.82898Z" style="fill: #000; stroke-width: 0px;"/>
  <path d="M30.09821,23.37531c-.41211.97437-.63092,2.03082-.63092,3.1225,0,.29474.01923.58618.05035.875l2.28912-2.28894-1.70856-1.70856Z" style="fill: #000; stroke-width: 0px;"/>
</svg>