<?xml version="1.0" encoding="UTF-8"?>
<svg xmlns="http://www.w3.org/2000/svg" version="1.1" viewBox="0 0 64 64">
  <!-- Generator: Adobe Illustrator 28.7.1, SVG Export Plug-In . SVG Version: 1.2.0 Build 142)  -->
  <g>
    <g id="Glyph">
      <g>
        <path d="M55,24c0-1.65002-1.34998-3-3-3v6c.81,0,1.57001-.32001,2.10999-.87.57001-.56.89001-1.32001.89001-2.13Z"/>
        <path d="M12,27v-6c-1.65002,0-3,1.34998-3,3s1.34998,3,3,3Z"/>
        <path d="M48,33c1.10303,0,2-.89697,2-2v-14c0-1.10303-.89697-2-2-2s-2,.89697-2,2v14c0,1.10303.89697,2,2,2Z"/>
        <path d="M16,33c1.09998,0,2-.90002,2-2v-14c0-1.10004-.90002-2-2-2s-2,.89996-2,2v14c0,1.09998.90002,2,2,2Z"/>
        <rect x="23" y="29" width="6" height="8"/>
        <rect x="35" y="29" width="6" height="8"/>
        <rect x="20" y="21" width="24" height="6"/>
        <path d="M56,47h-17v-4h4c.54999,0,1-.45001,1-1v-3h-24v3c0,.54999.45001,1,1,1h4v4H8c-.54999,0-1,.45001-1,1s.45001,1,1,1h48c.54999,0,1-.45001,1-1s-.45001-1-1-1ZM37,47h-10v-4h10v4Z"/>
      </g>
    </g>
  </g>
</svg>