<?xml version="1.0" encoding="UTF-8"?>
<svg id="Glyph" xmlns="http://www.w3.org/2000/svg" version="1.1" viewBox="0 0 64 64">
  <circle cx="8.33341" cy="55.15393" r="1" style="fill: #000; stroke-width: 0px;"/>
  <path d="M17.37375,46.28027c-.39062-.39062-1.02344-.39062-1.41406,0l-5.5,5.5c-.39062.39062-.39062,1.02344,0,1.41406.19531.19531.45117.29297.70703.29297s.51172-.09766.70703-.29297l5.5-5.5c.39062-.39062.39062-1.02344,0-1.41406Z" style="fill: #000; stroke-width: 0px;"/>
  <path d="M18.88743,50.62793c-.38232-.39941-1.01562-.41016-1.41357-.02783l-4.3335,4.1665c-.39844.38281-.41064,1.01562-.02783,1.41357.19629.20459.4585.30713.7207.30713.24951,0,.49902-.09277.69287-.2793l4.3335-4.1665c.39844-.38281.41064-1.01562.02783-1.41357Z" style="fill: #000; stroke-width: 0px;"/>
  <path d="M8.5261,50.20801l4.3335-4.1665c.39844-.38281.41064-1.01562.02783-1.41357-.38184-.39893-1.01514-.40967-1.41357-.02783l-4.3335,4.1665c-.39844.38281-.41064,1.01562-.02783,1.41357.19629.20459.4585.30713.7207.30713.24951,0,.49902-.09277.69287-.2793Z" style="fill: #000; stroke-width: 0px;"/>
  <path d="M7.83323,44.4873c.24951,0,.49902-.09277.69287-.2793l4.3335-4.1665c.39844-.38281.41064-1.01562.02783-1.41357-.38184-.39844-1.01514-.41016-1.41357-.02783l-4.3335,4.1665c-.39844.38281-.41064,1.01562-.02783,1.41357.19629.20459.4585.30713.7207.30713Z" style="fill: #000; stroke-width: 0px;"/>
  <path d="M23.47385,50.6001l-4.3335,4.1665c-.39844.38281-.41064,1.01562-.02783,1.41357.19629.20459.4585.30713.7207.30713.24951,0,.49902-.09277.69287-.2793l4.3335-4.1665c.39844-.38281.41064-1.01562.02783-1.41357-.38281-.39941-1.01514-.41016-1.41357-.02783Z" style="fill: #000; stroke-width: 0px;"/>
  <path d="M49.66385,12.96021c-3.6405-3.19727-8.33887-5.21545-13.49713-5.44751v20.97461h6.03137c.27008-6.03998,2.97406-11.60736,7.46576-15.5271Z" style="fill: #000; stroke-width: 0px;"/>
  <path d="M51.10923,14.35083c-4.38715,3.76233-6.9425,9.2392-6.9425,15.13647s2.55536,11.37415,6.9425,15.13647c3.74933-3.94708,6.0575-9.27563,6.0575-15.13647s-2.30817-11.18939-6.0575-15.13647Z" style="fill: #000; stroke-width: 0px;"/>
  <path d="M28.13535,28.4873h6.03137V7.5127c-5.15826.23206-9.85663,2.25024-13.49713,5.44751,4.4917,3.91974,7.19568,9.48712,7.46576,15.5271Z" style="fill: #000; stroke-width: 0px;"/>
  <path d="M42.19809,30.4873h-6.03137v20.97461c5.15826-.23206,9.85663-2.25024,13.49713-5.44751-4.4917-3.91974-7.19568-9.48712-7.46576-15.5271Z" style="fill: #000; stroke-width: 0px;"/>
  <path d="M20.66959,46.0144c3.6405,3.19727,8.33887,5.21545,13.49713,5.44751v-20.97461h-6.03137c-.27008,6.03998-2.97406,11.60736-7.46576,15.5271Z" style="fill: #000; stroke-width: 0px;"/>
  <path d="M26.16672,29.4873c0-5.89728-2.55536-11.37415-6.9425-15.13647-3.74933,3.94708-6.0575,9.27563-6.0575,15.13647s2.30817,11.18939,6.0575,15.13647c4.38715-3.76233,6.9425-9.2392,6.9425-15.13647Z" style="fill: #000; stroke-width: 0px;"/>
</svg>