<?xml version="1.0" encoding="UTF-8"?>
<svg xmlns="http://www.w3.org/2000/svg" version="1.1" viewBox="0 0 48 48">
  <!-- Generator: Adobe Illustrator 28.7.1, SVG Export Plug-In . SVG Version: 1.2.0 Build 142)  -->
  <g>
    <g id="Glyph">
      <g>
        <path d="M41.46179,30.96411c-1.03729,2.09662-2.77637,4.42114-4.92664,6.57141-2.06354,2.06384-4.41571,3.86261-6.56384,4.92871.94818.34039,1.9649.53564,3.02869.53564,4.96228,0,9-4.03723,9-9,0-1.06653-.19617-2.08563-.53821-3.03577Z"/>
        <path d="M39.75488,29.91199c.21582-.45184.37646-.8598.49304-1.22504-.53979-.73438-1.18671-1.38245-1.91986-1.92371-1.7533.55615-4.44482,2.11115-7.44916,5.11505-2.05859,2.05859-3.7041,4.26416-4.63379,6.20947-.21588.4519-.37646.85986-.49304,1.2251.54108.73608,1.18976,1.38544,1.92511,1.92755,1.75378-.56006,4.44757-2.12262,7.44391-5.11896,2.05859-2.05859,3.7041-4.26416,4.63379-6.20947Z"/>
        <path d="M36.03601,25.53821c-.9502-.3421-1.96948-.53833-3.03601-.53833-4.96228,0-9,4.03729-9,9,0,1.06653.19617,2.08563.53821,3.03577,1.03735-2.09705,2.77545-4.42114,4.92664-6.57141,2.06671-2.06696,4.42053-3.8606,6.57117-4.92603Z"/>
        <path d="M31.36523,7.22021c-2.47314-1.40607-5.32416-2.22009-8.36523-2.22009-9.37,0-17,7.63-17,17,0,3.04089.8139,5.89166,2.21979,8.36469,1.7168-4.01245,5.48657-8.96997,9.83099-13.31439,4.34375-4.3446,9.30182-8.11377,13.31445-9.8302Z"/>
        <path d="M27.6286,24.40808c4.96509-5.1958,7.83716-9.84332,8.79449-12.79791-.88129-1.13568-1.90033-2.15448-3.03619-3.03546-3.16785,1.02838-8.27856,4.24591-13.92206,9.88977-5.64783,5.64783-8.86163,10.75818-9.88794,13.9256.88019,1.13428,1.89777,2.15192,3.03186,3.03217,2.61121-.84607,6.54352-3.18097,11.0097-7.13983.98383-1.60931,2.36255-2.94873,4.01013-3.87433Z"/>
        <path d="M33,23.00012c2.52002,0,4.83002.84998,6.69,2.26001.21002-1.07001.31-2.16003.31-3.26001,0-3.04089-.8139-5.89166-2.21979-8.36469-1.22717,2.8681-3.50189,6.21375-6.29205,9.48083.49554-.06848.99762-.11615,1.51184-.11615Z"/>
        <path d="M22.17798,32.08386c-2.62848,2.05939-5.23657,3.7149-7.53632,4.70038,2.47156,1.40356,5.32013,2.21588,8.35834,2.21588h.20001c-.77002-1.5-1.20001-3.20001-1.20001-5,0-.65479.06799-1.29279.17798-1.91626Z"/>
      </g>
    </g>
  </g>
</svg>