<?xml version="1.0" encoding="UTF-8"?>
<svg xmlns="http://www.w3.org/2000/svg" version="1.1" viewBox="0 0 48 48">
  <!-- Generator: Adobe Illustrator 28.7.1, SVG Export Plug-In . SVG Version: 1.2.0 Build 142)  -->
  <g>
    <g id="Glyph">
      <g>
        <path d="M24.84277,34.61719c-.02441-.0083-.04883-.01611-.07422-.02246-2.72498-.9549-5.67535-1.46118-8.76855-1.55554v-9.03918h1.56848c.27783-1.33417.43152-2.78271.43152-4.25,0-3.55322-.78674-6.24329-1.67328-7.65149-.10815-.01447-.21783-.02338-.32672-.03528v-1.06323c0-.55225-.44727-1-1-1s-1,.44775-1,1v1.06323c-.10889.0119-.21857.02081-.32672.03528-.88654,1.4082-1.67328,4.09827-1.67328,7.65149,0,1.46729.15369,2.91583.43152,4.25h1.56848v9.03729c-2.9151.08929-5.71222.54584-8.31348,1.40314-.40918.13525-.68652.51807-.68652.94971v5.60986c0,.55225.44727,1,1,1h26.74023c.38477,0,.73438-.22021.90137-.56689.16602-.34619.12012-.75781-.12012-1.05762-1.96484-2.45557-4.96582-4.44678-8.67871-5.7583Z"/>
        <path d="M42.27002,34.13c-2.62-.75-5.40002-1.13-8.27002-1.13-2.15002,0-4.23999.20996-6.26001.63,3.04999,1.39996,5.56,3.27997,7.34003,5.5.64996.79999.82996,1.89996.5,2.87h6.41998c.54999,0,1-.45001,1-1v-5.91003c0-.44995-.29999-.83997-.72998-.95996Z"/>
        <path d="M6,24h4.38562c-.25244-1.35175-.38562-2.79767-.38562-4.25,0-2.46094.39539-4.98779,1.14978-6.97699-3.60779,1.51117-6.14978,5.07697-6.14978,9.22699v1c0,.55225.44727,1,1,1Z"/>
        <path d="M19.61438,24h4.38562c.55273,0,1-.44775,1-1v-1c0-4.15002-2.54199-7.71588-6.14978-9.22705.75439,1.9892,1.14978,4.51611,1.14978,6.97705,0,1.45233-.13318,2.89825-.38562,4.25Z"/>
        <path d="M28,8c1.10254,0,2,.89697,2.00098,2.00488.00037.39758.25092.76642.61694.91797.36829.15247.80817.0658,1.08972-.21631.75592-.75433,2.07184-.75421,2.82751.00043.38611.38562,1.02826.38586,1.41406.00006.39062-.39014.39062-1.02344,0-1.41406-1.11548-1.11554-2.82062-1.46576-4.28705-.89087-.61835-1.41144-2.02484-2.4021-3.66217-2.4021-.55273,0-1,.44775-1,1s.44727,1,1,1Z"/>
        <path d="M34.12109,14.12158c-1.06836,0-2.07227.41602-2.82812,1.17139-.39062.39014-.39062,1.02344,0,1.41406s1.02344.39062,1.41406,0c.75568-.7547,2.07159-.75482,2.82751-.00049.28217.28156.72101.36884,1.08972.21637.36462-.15082.61792-.5285.61792-.92291,0-1.10303.89746-2,2-2,.55273,0,1-.44775,1-1s-.44727-1-1-1c-1.63727,0-3.04376.99072-3.66211,2.40204-.45935-.17993-.95087-.28046-1.45898-.28046Z"/>
        <path d="M35,20c-.55273,0-1,.44775-1,1s.44727,1,1,1c1.10254,0,2,.89697,2,2,0,.55225.44727,1,1,1s1-.44775,1-1c0-1.10303.89746-2,2-2,.55273,0,1-.44775,1-1s-.44727-1-1-1c-1.2005,0-2.2663.54236-3,1.3822-.7337-.83984-1.7995-1.3822-3-1.3822Z"/>
      </g>
    </g>
  </g>
</svg>