<?xml version="1.0" encoding="UTF-8"?>
<svg xmlns="http://www.w3.org/2000/svg" version="1.1" viewBox="0 0 64 64">
  <!-- Generator: Adobe Illustrator 28.7.1, SVG Export Plug-In . SVG Version: 1.2.0 Build 142)  -->
  <g>
    <g id="Glyph">
      <g>
        <path d="M20.47998,31.70001c-1.04999-.61005-2.22998-1.01001-3.47998-1.14001v5.88l3.47998-4.73999Z"/>
        <path d="M16,42.5c-1.65002,0-3-1.35004-3-3,0-1.29999.84003-2.41003,2-2.82001v-6.12c-4.48999.48999-8,4.32001-8,8.94,0,4.95996,4.03998,9,9,9,4.62,0,8.45001-3.51001,8.94-8h-6.12c-.41003,1.15997-1.52002,2-2.82001,2Z"/>
        <path d="M18.82001,38.5h6.12c-.23999-2.21002-1.28998-4.19-2.84998-5.62l-3.61005,4.92999c.14001.20996.26001.44.34003.69Z"/>
        <path d="M16.8102,38.93346c-.18669-.25821-.48962-.43358-.8103-.43346-.52207.00019-.99991.4856-.9999,1.00002.00001.54998.45002.99998,1,.99998s1-.45001,1-1.00002c0-.20637-.0716-.40305-.1898-.56652Z"/>
        <path d="M48,30.5c-1.17999,0-2.29999.22998-3.33002.64001l2.88,5.39996c.14001-.02997.29999-.03998.45001-.03998,1.65002,0,3,1.34998,3,3s-1.34998,3-3,3-3-1.35004-3-3c0-.77002.29999-1.48999.78998-2.02002l-2.88-5.40002c-2.35999,1.63-3.90997,4.35004-3.90997,7.42004,0,4.95996,4.03998,9,9,9s9-4.04004,9-9-4.03998-9-9-9Z"/>
        <path d="M47.07892,39.88831c.05078.11951.12421.22736.21484.31793.18121.18127.43127.29376.70624.29376.54999,0,1-.45001,1-1s-.45001-1-1-1c-.13049,0-.25183.03101-.36597.07812-.00812.00342-.01605.00604-.02411.0097-.02618.01172-.05493.01788-.0799.03217-.2005.10651-.34967.28003-.43921.48511-.00446.00964-.00842.01886-.01257.02869-.04572.1145-.07825.23541-.07825.36621v.00006h0c0,.13745.02814.26874.07892.38824Z"/>
        <path d="M41,22.5c0-.54999.45001-1,1-1,1.65002,0,3-1.35004,3-3s-1.34998-3-3-3h-6c-.54999,0-1,.45001-1,1s.45001,1,1,1h6c.54999,0,1,.45001,1,1s-.45001,1-1,1c-1.65002,0-3,1.34998-3,3v1h-11v-2h1c.54999,0,1-.45001,1-1s-.45001-1-1-1h-4c-.54999,0-1,.45001-1,1s.45001,1,1,1h1v2h-15c-.54999,0-1,.45001-1,1s.45001,1,1,1h4v5.06c.33002-.04004.65997-.06,1-.06s.66998.01996,1,.06v-5.06h8.02002l-4.54004,6.20001c.58002.32996,1.12.72998,1.61005,1.17999l4.56995-6.23004,3.5,10.5c-.44.35004-.77997.81-.97998,1.35004h-4.23999c.03998.32996.06.65997.06,1,0,.33997-.02002.66998-.06,1h4.23999c.31.84998.97003,1.51001,1.82001,1.82001v2.17999c-.54999,0-1,.45001-1,1s.45001,1,1,1h2c.54999,0,1-.45001,1-1s-.45001-1-1-1v-2.17999c1.15997-.42004,2-1.52002,2-2.82001,0-.78003-.29999-1.48004-.78998-2.01001l5.78998-10.85999,2.90997,5.44995c.55005-.37,1.14001-.68994,1.76001-.93994l-3.66998-6.88v-1.76001ZM32.44,36.53998c-.12-.01001-.25-.02997-.38-.02997l-3.66998-11.01001h9.94l-5.89001,11.03998Z"/>
        <path d="M20,20.5c0-.54999-.45001-1-1-1h-6c-.54999,0-1,.45001-1,1v1h8v-1Z"/>
      </g>
    </g>
  </g>
</svg>