<?xml version="1.0" encoding="UTF-8"?>
<svg id="Glyph" xmlns="http://www.w3.org/2000/svg" version="1.1" viewBox="0 0 64 64">
  <path d="M45.2168,14.80273l.49023.49023c.30469.3042.37988.76904.1875,1.1543l-1,2c-.24353.48706-.85577.69025-1.3418.44727-.49414-.24707-.69434-.84766-.44727-1.3418l.67773-1.35547-.49023-.49023c-.30469-.3042-.37988-.76904-.1875-1.1543l.27637-.55273h-3.38184v4c0,2.20557,1.79395,4,4,4s4-1.79443,4-4v-4h-2.38184l-.40137.80273Z" fill="#000" stroke-width="0"/>
  <path d="M44,7c-7.16797,0-13,5.83154-13,13s5.83203,13,13,13,13-5.83154,13-13-5.83203-13-13-13ZM50,18c0,2.96722-2.16687,5.43134-5,5.90967v3.09033h2c.55273,0,1,.44775,1,1s-.44727,1-1,1h-6c-.55273,0-1-.44775-1-1s.44727-1,1-1h2v-3.09033c-2.83313-.47833-5-2.94244-5-5.90967v-5c0-.55225.44727-1,1-1h10c.55273,0,1,.44775,1,1v5Z" fill="#000" stroke-width="0"/>
  <polygon points="19 45.7207 7 41.72095 7 43.61267 19 47.61279 19 45.7207" fill="#000" stroke-width="0"/>
  <polygon points="37 47.61279 49 43.61267 49 41.72095 37 45.7207 37 47.61279" fill="#000" stroke-width="0"/>
  <path d="M29.01001,20.29999l-.67999-.23999c-.21002-.08002-.45001-.08002-.66003,0l-19.66455,6.88257,19.99457,6.99786,6.55707-2.29486c-3.31592-2.69434-5.46271-6.77319-5.54706-11.34558Z" fill="#000" stroke-width="0"/>
  <path d="M7,35.61261l13.31641,4.43866c.52344.1748.80664.74115.63184,1.26508-.16608.49786-.73975.80731-1.26465.63239l-12.68359-4.22772v1.8916l13.31641,4.43866c.4082.13623.68359.51807.68359.94873v3.99988c0,.67041-.68701,1.15668-1.31641.94885l-12.68359-4.22772v3.27899c0,.41998.27002.79999.66998.94l19.33002,7.06v-21.29065l-20-6.99988v6.90314Z" fill="#000" stroke-width="0"/>
  <path d="M36.62225,33.04163l-7.62225,2.66772v21.29065l19.33002-7.06c.39996-.14001.66998-.52002.66998-.94v-3.27899s-12.68359,4.22772-12.68365,4.22772c-.63953.21112-1.31635-.27155-1.31635-.94873v-4c0-.43066.27539-.8125.68359-.94873l13.31641-4.43866v-1.8916s-12.63641,4.21198-12.68347,4.22766c-.49579.16528-1.08893-.10474-1.26477-.63226-.1748-.52393.1084-1.09033.63184-1.26514l13.31641-4.43866v-1.4726c-1.56.56-3.23999.85999-5,.85999-2.68256,0-5.19629-.71912-7.37775-1.95837Z" fill="#000" stroke-width="0"/>
</svg>