<?xml version="1.0" encoding="UTF-8"?>
<svg xmlns="http://www.w3.org/2000/svg" version="1.1" viewBox="0 0 64 64">
  <!-- Generator: Adobe Illustrator 28.7.1, SVG Export Plug-In . SVG Version: 1.2.0 Build 142)  -->
  <g>
    <g id="Glyph">
      <g>
        <circle cx="36.99781" cy="44" r="1"/>
        <circle cx="12.99781" cy="44" r="1"/>
        <path d="M34.18207,43H15.81354c.11206.31433.18427.64764.18427,1s-.0722.68567-.18427,1h18.36859c-.11206-.31433-.18433-.64764-.18433-1s.0722-.68567.18427-1Z"/>
        <path d="M36.99783,37.07996v-2.07996c1.65002,0,3-1.35004,3-3v-13c0-.27002-.10999-.52002-.28998-.71002l-5-5c-.19-.17999-.44-.28998-.71002-.28998h-6c-1.09998,0-2,.89996-2,2v20h9v2H14.99783v-2h5v-4H7.99783v1c0,1.64996,1.34998,3,3,3h2v2.07996c-3.58002.52002-6.28998,3.74005-5.96997,7.52002.29999,3.66998,3.53998,6.40002,7.21997,6.40002h21.5c3.67999,0,6.91998-2.73004,7.21997-6.40002.32001-3.77997-2.38995-7-5.96997-7.52002ZM29.99783,31c-.54999,0-1-.45001-1-1s.45001-1,1-1,1,.45001,1,1-.45001,1-1,1ZM29.99783,27c-.54999,0-1-.45001-1-1v-8c0-.54999.45001-1,1-1h3.34003c.26996,0,.51996.10999.70996.28998l2.66003,2.66003c.17999.19.28998.44.28998.70996v5.34003c0,.54999-.45001,1-1,1h-6ZM36.99783,47H12.99783c-1.65002,0-3-1.35004-3-3s1.34998-3,3-3h24c1.65002,0,3,1.34998,3,3s-1.34998,3-3,3Z"/>
        <path d="M18.99783,16v1h-8v-1c0-.54999.45001-1,1-1h6c.54999,0,1,.45001,1,1Z"/>
        <path d="M18.99781,29h2c.54999,0,1,.45001,1,1v5h2v-16h-2v5c0,.54999-.45001,1-1,1h-2v4Z"/>
        <path d="M19.99781,19h-9c-1.6543,0-3,1.3457-3,3v1h12v-4Z"/>
        <rect x="7.99781" y="25" width="9" height="4"/>
        <polygon points="30.99781 19 30.99781 25 34.99781 25 34.99781 21.0708 32.927 19 30.99781 19"/>
        <path d="M44.93781,43h2.06v-6h-5.35999c1.79999,1.45001,3.03998,3.57996,3.29999,6Z"/>
        <path d="M56.82984,49.44531l-7.83203-11.74805v10.30273c0,1.65686,1.34314,3,3,3h4c.36865,0,.70752-.20312.88184-.52832.17383-.3252.15479-.71973-.0498-1.02637Z"/>
      </g>
    </g>
  </g>
</svg>