<?xml version="1.0" encoding="UTF-8"?>
<svg xmlns="http://www.w3.org/2000/svg" version="1.1" viewBox="0 0 64 64">
  <!-- Generator: Adobe Illustrator 28.7.1, SVG Export Plug-In . SVG Version: 1.2.0 Build 142)  -->
  <g>
    <g id="Glyph">
      <g>
        <path d="M16,40.5c-2.21002,0-4,1.78998-4,4s1.78998,4,4,4,4-1.79004,4-4-1.78998-4-4-4ZM16,45.5c-.54999,0-1-.45001-1-1s.45001-1,1-1,1,.45001,1,1-.45001,1-1,1Z"/>
        <path d="M48,40.5c-2.21002,0-4,1.78998-4,4s1.78998,4,4,4,4-1.79004,4-4-1.78998-4-4-4ZM48,45.5c-.54999,0-1-.45001-1-1s.45001-1,1-1,1,.45001,1,1-.45001,1-1,1Z"/>
        <rect x="33" y="25.5" width="4" height="6"/>
        <path d="M56.98047,30.30371l-.96075-4.80371h-9.01971v8.05499l2.20508.94501h7.79492v-4c0-.06592-.00635-.13135-.01953-.19629Z"/>
        <rect x="27" y="33.5" width="10" height="10"/>
        <polygon points="45 32.69794 45 25.5 43 25.5 43 31.84082 45 32.69794"/>
        <rect x="27" y="25.5" width="4" height="6"/>
        <path d="M49,36.5c-.14001,0-.27002-.03003-.39001-.08002l-7-3c-.37-.15997-.60999-.52002-.60999-.91998v-8c0-.54999.45001-1,1-1h13.62l-.64001-3.20001c-.08997-.46002-.5-.79999-.97998-.79999H10c-1.65002,0-3,1.34998-3,3v18c0,1.64996,1.34998,3,3,3h.09003c.46997-2.84003,2.94-5,5.90997-5s5.44,2.15997,5.90997,5h3.09003v-19c0-.54999.45001-1,1-1h12c.54999,0,1,.45001,1,1v19h3.09003c.46997-2.84003,2.94-5,5.90997-5s5.44,2.15997,5.90997,5h2.09003c.54999,0,1-.45001,1-1v-6h-8ZM23,32.5c0,.54999-.45001,1-1,1h-10c-.54999,0-1-.45001-1-1v-8c0-.54999.45001-1,1-1h10c.54999,0,1,.45001,1,1v8ZM44,37.5h-2c-.54999,0-1-.45001-1-1s.45001-1,1-1h2c.54999,0,1,.45001,1,1s-.45001,1-1,1Z"/>
        <rect x="13" y="25.5" width="3" height="6"/>
        <rect x="18" y="25.5" width="3" height="6"/>
        <path d="M50.82001,17.5H11.17999c.41998-1.16003,1.52002-2,2.82001-2h34c1.29999,0,2.40002.83997,2.82001,2Z"/>
      </g>
    </g>
  </g>
</svg>