<?xml version="1.0" encoding="UTF-8"?>
<svg xmlns="http://www.w3.org/2000/svg" version="1.1" viewBox="0 0 64 64">
  <!-- Generator: Adobe Illustrator 28.7.1, SVG Export Plug-In . SVG Version: 1.2.0 Build 142)  -->
  <g>
    <g id="Glyph">
      <g>
        <polygon points="48 39.79309 43 42.24866 43 44.9845 48 42.52893 48 39.79309"/>
        <path d="M10,20.75763v25.12c0,.38.21997.72998.56.88995l20.44,10.0448v-25.82068c-.10693-.03821-.21832-.06445-.32001-.11407l-20.67999-10.12ZM22.89746,47.03088c-.17383.354-.5293.55908-.89844.55908-.14746,0-.29785-.03271-.43945-.10254l-7-3.43799c-.49609-.24316-.7002-.84277-.45703-1.33838s.8418-.70117,1.33789-.45654l7,3.43799c.49609.24316.7002.84277.45703,1.33838ZM22.89746,42.06653c-.17383.354-.5293.55908-.89844.55908-.14746,0-.29785-.03271-.43945-.10254l-7-3.43799c-.49609-.24316-.7002-.84277-.45703-1.33838s.8418-.70117,1.33789-.45654l7,3.43799c.49609.24316.7002.84277.45703,1.33838Z"/>
        <path d="M33,30.9917v25.82068l20.44-10.0448c.34003-.15997.56-.50995.56-.88995v-25.12l-20.67999,10.12c-.10168.04962-.21307.07587-.32001.11407ZM41,41.62561c0-.38135.2168-.72949.55957-.89746l7-3.43799c.30762-.15186.67578-.13428.96875.04883.29395.18262.47168.50342.47168.84863v4.96436c0,.38135-.2168.72949-.55957.89746l-7,3.43799c-.13867.06836-.29004.10254-.44043.10254-.18359,0-.36719-.05078-.52832-.15137-.29395-.18262-.47168-.50342-.47168-.84863v-4.96436Z"/>
        <path d="M17.08392,13.98834l-6.50385,3.00983c-.35059.16211-.57617.51123-.58008.89697s.21387.73926.56055.90869l21,10.28174c.13867.06787.28906.10205.43945.10205s.30078-.03418.43945-.10205l7.29028-3.5694-22.64581-11.52783Z"/>
        <polygon points="45.33673 22.771 22.84576 11.3219 19.39355 12.91949 41.97729 24.41577 45.33673 22.771"/>
        <path d="M53.43945,18.80383c.34668-.16943.56445-.52295.56055-.90869s-.22949-.73486-.58008-.89697l-21-9.71826c-.26562-.12305-.57422-.12305-.83984,0l-6.42468,2.97321,22.42889,11.41748,5.85516-2.86676Z"/>
      </g>
    </g>
  </g>
</svg>