<?xml version="1.0" encoding="UTF-8"?>
<svg id="Glyph" xmlns="http://www.w3.org/2000/svg" version="1.1" viewBox="0 0 48 48">
  <path d="M7,36V9.17999c-1.15997.40997-2,1.52002-2,2.82001v28c0,1.64996,1.34998,3,3,3h22c1.29999,0,2.40997-.84003,2.82001-2H12c-2.76001,0-5-2.23999-5-5Z" fill="#000" stroke-width="0"/>
  <path d="M40,5c-1.65686,0-3,1.34314-3,3v19h6V8c0-1.65686-1.34314-3-3-3Z" fill="#000" stroke-width="0"/>
  <path d="M21,21c-3.30859,0-6,2.69141-6,6s2.69141,6,6,6,6-2.69141,6-6-2.69141-6-6-6ZM24.20703,26.20703l-3,3c-.19531.19531-.45117.29297-.70703.29297s-.51172-.09766-.70703-.29297l-2-2c-.39062-.39062-.39062-1.02344,0-1.41406s1.02344-.39062,1.41406,0l1.29297,1.29297,2.29297-2.29297c.39062-.39062,1.02344-.39062,1.41406,0s.39062,1.02344,0,1.41406Z" fill="#000" stroke-width="0"/>
  <path d="M9,9v27c0,1.65686,1.34314,3,3,3h20c1.65686,0,3-1.34314,3-3V8c0-1.13.37-2.17004,1-3H13c-2.20917,0-4,1.79083-4,4ZM21,35c-4.41113,0-8-3.58887-8-8s3.58887-8,8-8,8,3.58887,8,8-3.58887,8-8,8ZM32,19h-5c-.55225,0-1-.44775-1-1s.44775-1,1-1h5c.55225,0,1,.44775,1,1s-.44775,1-1,1ZM32,15H14c-.55225,0-1-.44775-1-1s.44775-1,1-1h18c.55225,0,1,.44775,1,1s-.44775,1-1,1ZM14,9h18c.55225,0,1,.44775,1,1s-.44775,1-1,1H14c-.55225,0-1-.44775-1-1s.44775-1,1-1Z" fill="#000" stroke-width="0"/>
</svg>