<?xml version="1.0" encoding="UTF-8"?>
<svg xmlns="http://www.w3.org/2000/svg" version="1.1" viewBox="0 0 64 64">
  <!-- Generator: Adobe Illustrator 28.7.1, SVG Export Plug-In . SVG Version: 1.2.0 Build 142)  -->
  <g>
    <g id="Glyph">
      <g>
        <path d="M55.00027,17.70072l-14.72211-8.49982.49994-.86591c.27588-.47852.1123-1.08984-.36621-1.36621-.47949-.27686-1.09033-.11182-1.36621.36621l-5,8.66016c-.27584.47844-.11235,1.08966.366,1.36609.44623.25787,1.09228.10789,1.36642-.36609l.49982-.86572s14.71588,8.49627,14.72235,8.5c1.85973,1.07372,4.37195.42718,5.46436-1.46435,1.10205-1.91016.44531-4.36133-1.46436-5.46436Z"/>
        <path d="M20.00076,26.16557c0-.37-.04999-.73999-.15002-1.09003,1.20001-.26996,2.21002-1.08002,2.74005-2.16998.17999.07001.37.12.56.16998-.03003.10004-.05005.21002-.07001.32001.35999-.15002.73999-.22998,1.14996-.22998h12c.22003,0,.44.01996.65002.07001-.25-1.06-.94-1.98004-1.91003-2.53003-.15997-1.37-1.02997-2.53998-2.22998-3.13.16998-.44.26001-.91998.26001-1.40997,0-1.90002-1.33002-3.48999-3.09998-3.90002-.41003-1.77002-2-3.09998-3.90002-3.09998-.66998,0-1.32001.16998-1.90002.48999-.75-.91998-1.88995-1.48999-3.09998-1.48999s-2.34998.57001-3.09998,1.48999c-.58002-.32001-1.23004-.48999-1.90002-.48999-1.85999,0-3.42999,1.27997-3.87,3-2.25-.08002-4.13,1.75-4.13,4,0,.66998.16998,1.32001.48999,1.89996-.91998.75-1.48999,1.89001-1.48999,3.10004,0,.91998.32001,1.79999.88,2.5-.56.70001-.88,1.57996-.88,2.5,0,2.20996,1.78998,4,4,4,.91998,0,1.79999-.32001,2.5-.88.70001.56,1.58002.88,2.5.88,2.21002,0,4-1.79004,4-4Z"/>
        <circle cx="23.00076" cy="50.16557" r="1"/>
        <path d="M31.00076,45.16557c-.55225,0-1-.44775-1-1,0-.55127-.44873-1-1-1s-1,.44873-1,1,.44873,1,1,1c.55225,0,1,.44775,1,1,0,.55127.44873,1,1,1s1-.44873,1-1-.44873-1-1-1Z"/>
        <path d="M37.23074,35.92558v-8.76001h1c.56,0,1-.45001,1-1s-.44-1-1-1h-16c-.54999,0-1,.45001-1,1s.45001,1,1,1h1v8.76001l-8.44,16.89996c-.46997.94-.41998,2.03003.13,2.91998.54999.89001,1.5,1.42004,2.54999,1.42004h25.53003c1.03998,0,2-.53003,2.54999-1.42004.54999-.88995.60004-1.97998.13-2.91998l-8.45001-16.89996ZM23.00076,53.16557c-1.65002,0-3-1.35004-3-3s1.34998-3,3-3,3,1.34998,3,3-1.34998,3-3,3ZM32.00076,53.16557c-.54999,0-1-.45001-1-1s.45001-1,1-1,1,.45001,1,1-.45001,1-1,1ZM31.00076,49.16557c-1.34998,0-2.5-.90002-2.87-2.13-1.22998-.37-2.13-1.52002-2.13-2.87,0-1.65002,1.34998-3,3-3,1.34998,0,2.5.89996,2.87,2.13,1.22998.37,2.13,1.51996,2.13,2.87,0,1.64996-1.34998,3-3,3ZM35.00076,51.16557c-.54999,0-1-.45001-1-1s.45001-1,1-1,1,.45001,1,1-.45001,1-1,1ZM38.00076,53.16557c-.54999,0-1-.45001-1-1s.45001-1,1-1,1,.45001,1,1-.45001,1-1,1Z"/>
      </g>
    </g>
  </g>
</svg>