<?xml version="1.0" encoding="UTF-8"?>
<svg id="Glyph" xmlns="http://www.w3.org/2000/svg" version="1.1" viewBox="0 0 48 48">
  <path d="M42,41h-24v-1c0-1.6543-1.3457-3-3-3h-1V14c0-2.75684,2.24316-5,5-5v4h-2c-.55225,0-1,.44727-1,1s.44775,1,1,1h2v3.76495c-1.82629,1.46753-3,3.71539-3,6.23505,0,4.41113,3.58887,8,8,8s8-3.58887,8-8c0-2.51965-1.17371-4.76752-3-6.23505v-3.76495h2c.55273,0,1-.44727,1-1s-.44727-1-1-1h-2v-4h1.18433c.41412,1.1615,1.51373,2,2.81567,2,1.6543,0,3-1.3457,3-3s-1.3457-3-3-3c-1.30194,0-2.40161.8385-2.81573,2h-11.18427c-3.85986,0-7,3.14062-7,7v23h-1c-1.6543,0-3,1.3457-3,3v1h-2c-.55225,0-1,.44727-1,1s.44775,1,1,1h36c.55273,0,1-.44727,1-1s-.44727-1-1-1ZM26.82715,27.82715c-.37451.37451-1.02362.39044-1.41406,0l-2.12012-2.12012c-.1875-.1875-.29297-.44141-.29297-.70703v-3c0-.55273.44775-1,1-1s1,.44727,1,1v2.58594l1.82715,1.82715c.39062.39062.39062,1.02338,0,1.41406ZM21,9h6v4h-6v-4ZM21,15h6v2.58899c-.92743-.37683-1.93884-.58899-3-.58899s-2.07257.21216-3,.58899v-2.58899Z" fill="#000" stroke-width="0"/>
</svg>