<?xml version="1.0" encoding="utf-8"?>
<!-- Generator: Adobe Illustrator 28.3.0, SVG Export Plug-In . SVG Version: 6.00 Build 0)  -->
<svg version="1.1" id="Glyph" xmlns="http://www.w3.org/2000/svg" xmlns:xlink="http://www.w3.org/1999/xlink" x="0px" y="0px"
	 viewBox="0 0 48 48" enable-background="new 0 0 48 48" xml:space="preserve">
<g>
	<path d="M29.21973,21h10c2.20605,0,4-1.79395,4-4s-1.79395-4-4-4c0-2.75684-2.24316-5-5-5s-5,2.24316-5,5c-2.20605,0-4,1.79395-4,4
		S27.01367,21,29.21973,21z"/>
	<path d="M38.97998,24.76001C38.98999,24.59998,39,24.44,39,24.26996c0-0.44-0.06-0.85999-0.15997-1.26996h-9.62006
		c-2.3598,0-4.3985-1.37061-5.37793-3.35498C23.33423,20.00812,23,20.59924,23,21.26953c0,0.55273-0.44775,1-1,1s-1-0.44727-1-1
		c0-1.58038,0.92853-2.93658,2.26178-3.58594C23.23621,17.45892,23.21997,17.23145,23.21997,17
		c0-1.40002,0.48004-2.69,1.30005-3.71002c-3.48004,0.20001-6.41003,2.65002-7.26001,5.97998H17c-3.85999,0-7,3.14001-7,7
		c0,0.34003,0.02002,0.67004,0.07001,1H10c-1.32001,0-2.58002,0.52002-3.53998,1.47003C5.52002,29.69,5,30.95001,5,32.26996
		c0,2.76001,2.23999,5,5,5h26.5c1.73999,0,3.37-0.67999,4.59998-1.89996C42.32001,34.14001,43,32.51001,43,30.76996
		C43,28.09998,41.39001,25.75,38.97998,24.76001z M34,32.26996c-0.55231,0-1-0.44775-1-1c0-0.55231,0.44769-1,1-1s1,0.44769,1,1
		C35,31.8222,34.55231,32.26996,34,32.26996z M38,32.26996c-0.55231,0-1-0.44775-1-1c0-0.55231,0.44769-1,1-1s1,0.44769,1,1
		C39,31.8222,38.55231,32.26996,38,32.26996z"/>
	<path d="M8.71997,22.75c1.22003-2.87,3.89001-4.97003,7.08002-5.40002c0.88-2.08997,2.44-3.78998,4.39001-4.84998
		C18.89001,9.83997,16.15002,8,13,8c-4.40997,0-8,3.58997-8,8C5,18.82996,6.47998,21.32996,8.71997,22.75z M13,12
		c0.55225,0,1,0.44727,1,1s-0.44775,1-1,1c-1.10303,0-2,0.89746-2,2c0,0.55273-0.44775,1-1,1s-1-0.44727-1-1
		C9,13.79395,10.79443,12,13,12z"/>
</g>
</svg>
