<?xml version="1.0" encoding="UTF-8"?>
<svg xmlns="http://www.w3.org/2000/svg" version="1.1" viewBox="0 0 64 64">
  <!-- Generator: Adobe Illustrator 28.7.1, SVG Export Plug-In . SVG Version: 1.2.0 Build 142)  -->
  <g>
    <g id="Glyph">
      <g>
        <path d="M32,13c.54999,0,1,.45001,1,1v7.03998c1-.89996,3.59003-3.52997,3.59003-6.75,0-3.91998-3.81-6.95001-3.97003-7.08002-.37-.27997-.87-.27997-1.23999,0-.16003.13-3.97003,3.16003-3.97003,7.08002,0,3.22003,2.59003,5.85004,3.59003,6.75v-7.03998c0-.54999.45001-1,1-1Z"/>
        <path d="M33.15997,31c1.66003,0,4.64001-.29999,6.59003-2.25,2.77002-2.77002,2.21002-7.60999,2.19-7.82001-.06-.45001-.41998-.81-.87-.87-.21002-.02002-5.04999-.58002-7.82001,2.19-.09003.08997-.16998.19-.25.27997v-1.48999c-.21002.19-.34998.31-.38.33002-.17999.14001-.40002.20996-.62.20996s-.44-.06995-.62-.20996c-.03003-.02002-.16998-.14001-.38-.33002v1.48999c-.08002-.08997-.15997-.19-.25-.27997-2.77002-2.77002-7.60999-2.21002-7.82001-2.19-.45001.06-.81.41998-.87.87-.02002.21002-.58002,5.04999,2.19,7.82001,1.95001,1.95001,4.92999,2.25,6.59003,2.25h.15997v3.09998c-2.28003.47003-4,2.48999-4,4.90002,0,.54999.45001,1,1,1h8c.54999,0,1-.45001,1-1,0-2.41003-1.71997-4.42999-4-4.90002v-3.09998h.15997ZM33,27.07996c.96997-.97998,2.06-1.84998,3.27002-2.53998.47998-.27002,1.08997-.10999,1.37.37.26996.48004.10999,1.09003-.37,1.37-1.71002.97003-3.17004,2.32001-4.27002,3.88v-3.08002ZM31,30.15997c-1.09998-1.56-2.56-2.90997-4.27002-3.88-.47998-.27997-.63995-.88995-.37-1.37.28003-.47998.89001-.64001,1.37-.37,1.21002.69,2.30005,1.56,3.27002,2.53998v3.08002Z"/>
        <circle cx="48" cy="25" r="4"/>
        <path d="M51.63,29.76996c-1,.78003-2.26001,1.23004-3.63,1.23004s-2.63-.45001-3.63-1.23004c-3.15997,1.39001-5.37,4.56-5.37,8.23004v6c0,.54999.45001,1,1,1h1c.55231,0,1-.44775,1-1v-7c0-.55273.44727-1,1-1s1,.44727,1,1v19c0,.55225.44769,1,1,1h1c.55231,0,1-.44775,1-1v-7c0-.55273.44727-1,1-1s1,.44727,1,1v7c0,.55225.44769,1,1,1h1c.55231,0,1-.44775,1-1v-19c0-.55273.44727-1,1-1s1,.44727,1,1v7c0,.55225.44769,1,1,1h1c.54999,0,1-.45001,1-1v-6c0-3.67004-2.21002-6.84003-5.37-8.23004Z"/>
        <circle cx="16" cy="25" r="4"/>
        <path d="M19.63,29.76996c-1,.78003-2.26001,1.23004-3.63,1.23004s-2.63-.45001-3.63-1.23004c-3.15997,1.39001-5.37,4.56-5.37,8.23004v6c0,.54999.45001,1,1,1h1c.55231,0,1-.44775,1-1v-7c0-.55273.44727-1,1-1s1,.44727,1,1v19c0,.55225.44769,1,1,1h1c.55231,0,1-.44775,1-1v-7c0-.55273.44727-1,1-1s1,.44727,1,1v7c0,.55225.44769,1,1,1h1c.55231,0,1-.44775,1-1v-19c0-.55273.44727-1,1-1s1,.44727,1,1v7c0,.55225.44769,1,1,1h1c.54999,0,1-.45001,1-1v-6c0-3.67004-2.21002-6.84003-5.37-8.23004Z"/>
      </g>
    </g>
  </g>
</svg>