<?xml version="1.0" encoding="UTF-8"?>
<svg xmlns="http://www.w3.org/2000/svg" version="1.1" viewBox="0 0 48 48">
  <!-- Generator: Adobe Illustrator 28.7.1, SVG Export Plug-In . SVG Version: 1.2.0 Build 142)  -->
  <g>
    <g id="Glyph">
      <g>
        <path d="M12.54841,20.84912c.38367-.39062.38367-1.02344,0-1.41406-3.44632-3.50977-3.44632-9.21924,0-12.72803.38367-.39062.38367-1.02344,0-1.41406s-1.00522-.39062-1.38889,0c-4.2127,4.28809-4.2127,11.2666,0,15.55615.19184.19531.44314.29297.69444.29297s.50261-.09766.69444-.29297Z"/>
        <path d="M13.93729,18.02051c.19184.19531.44314.29297.69444.29297s.50261-.09766.69444-.29297c.38367-.39014.38367-1.02344,0-1.41406-1.91451-1.94922-1.91451-5.12158,0-7.0708.38367-.39062.38367-1.02393,0-1.41406-.38367-.39062-1.00522-.39062-1.38889,0-2.67994,2.729-2.67994,7.16992,0,9.89893Z"/>
        <path d="M17.40951,15.48535c.2513,0,.50261-.09766.69444-.29248.38367-.39014.38367-1.02344.00096-1.41406-.38367-.39014-.38367-1.02539,0-1.41553.38271-.39062.38271-1.02393-.00096-1.41406-.38367-.38965-1.00617-.39062-1.38984.00098-1.14717,1.16943-1.14717,3.07227,0,4.2417.19184.1958.4441.29346.6954.29346Z"/>
        <path d="M36.84048,5.29297c-.38367-.39062-1.00522-.39062-1.38889,0-.38367.39014-.38367,1.02344,0,1.41406,3.44632,3.50977,3.44632,9.21924,0,12.72803-.38367.39014-.38367,1.02344,0,1.41406.19184.19531.44314.29297.69444.29297s.50261-.09766.69444-.29297c4.2127-4.28809,4.2127-11.2666,0-15.55615Z"/>
        <path d="M32.67382,18.02051c.19184.19531.44314.29297.69444.29297s.50261-.09766.69444-.29297c2.67994-2.729,2.67994-7.16992,0-9.89893-.38367-.39062-1.00522-.39062-1.38889,0-.38367.39014-.38367,1.02344,0,1.41406,1.91451,1.94922,1.91451,5.12158,0,7.0708-.38367.39062-.38367,1.02393,0,1.41406Z"/>
        <path d="M29.89605,15.19287c.19184.19482.44314.29248.69444.29248s.50357-.09766.6954-.29346c1.14717-1.16943,1.14717-3.07227,0-4.2417-.38367-.3916-1.00617-.39062-1.38984-.00098-.38367.39014-.38367,1.02344-.00096,1.41406.38367.39014.38367,1.02539,0,1.41553-.38271.39062-.38271,1.02393.00096,1.41406Z"/>
        <ellipse cx="24" cy="13.07129" rx="3.92878" ry="4"/>
        <path d="M24,19.07001c-1.09022,0-2.10191-.30005-2.97608-.83002l-5.6083,18.76001h17.16875l-5.6083-18.76001c-.87417.52997-1.88586.83002-2.97608.83002Z"/>
        <path d="M33.82195,39H14.17805c-1.62736,0-2.94659,1.34314-2.94659,3v1h25.53708v-1c0-1.65686-1.31923-3-2.94659-3Z"/>
      </g>
    </g>
  </g>
</svg>