<?xml version="1.0" encoding="UTF-8"?>
<svg xmlns="http://www.w3.org/2000/svg" version="1.1" viewBox="0 0 48 48">
  <!-- Generator: Adobe Illustrator 28.7.1, SVG Export Plug-In . SVG Version: 1.2.0 Build 142)  -->
  <g>
    <g id="Glyph">
      <g>
        <path d="M8,21.5h32c1.65686,0,3-1.34314,3-3s-1.34314-3-3-3H8c-1.65686,0-3,1.34314-3,3s1.34314,3,3,3ZM38,17.5c.55231,0,1,.44769,1,1,0,.55225-.44769,1-1,1s-1-.44775-1-1c0-.55231.44769-1,1-1ZM34,17.5c.55231,0,1,.44769,1,1,0,.55225-.44769,1-1,1s-1-.44775-1-1c0-.55231.44769-1,1-1ZM30,17.5c.55231,0,1,.44769,1,1,0,.55225-.44769,1-1,1s-1-.44775-1-1c0-.55231.44769-1,1-1ZM26,17.5c.55231,0,1,.44769,1,1,0,.55225-.44769,1-1,1s-1-.44775-1-1c0-.55231.44769-1,1-1ZM22,17.5c.55231,0,1,.44769,1,1,0,.55225-.44769,1-1,1s-1-.44775-1-1c0-.55231.44769-1,1-1ZM18,17.5c.55231,0,1,.44769,1,1,0,.55225-.44769,1-1,1s-1-.44775-1-1c0-.55231.44769-1,1-1ZM14,17.5c.55231,0,1,.44769,1,1,0,.55225-.44769,1-1,1s-1-.44775-1-1c0-.55231.44769-1,1-1ZM10,17.5c.55231,0,1,.44769,1,1,0,.55225-.44769,1-1,1s-1-.44775-1-1c0-.55231.44769-1,1-1Z"/>
        <path d="M38,24.5v-1H10v1c0,1.10455.89545,2,2,2h24c1.10455,0,2-.89545,2-2Z"/>
        <path d="M41.5,35.5H6.5c-.82843,0-1.5.67157-1.5,1.5s.67157,1.5,1.5,1.5h35c.82843,0,1.5-.67157,1.5-1.5s-.67157-1.5-1.5-1.5Z"/>
        <rect x="12" y="28.5" width="24" height="5"/>
        <path d="M33,9.5c-1.20032,0-2.26624.5423-3,1.3822-.73376-.8399-1.79968-1.3822-3-1.3822s-2.26624.5423-3,1.3822c-.73376-.8399-1.79968-1.3822-3-1.3822s-2.26624.5423-3,1.3822c-.73376-.8399-1.79968-1.3822-3-1.3822-2.20557,0-4,1.79395-4,4h26c0-2.20605-1.79443-4-4-4Z"/>
      </g>
    </g>
  </g>
</svg>