<?xml version="1.0" encoding="UTF-8"?>
<svg id="Glyph" xmlns="http://www.w3.org/2000/svg" version="1.1" viewBox="0 0 64 64">
  <path d="M12,40c0,.55225.44769,1,1,1h38c.55231,0,1-.44775,1-1,0-.55231-.44769-1-1-1H13c-.55231,0-1,.44769-1,1Z" fill="#000" stroke-width="0"/>
  <path d="M48,23h-16c-.54999,0-1,.45001-1,1v13h18v-13c0-.54999-.45001-1-1-1ZM46,35h-5c-.54999,0-1-.45001-1-1s.45001-1,1-1h5c.54999,0,1,.45001,1,1s-.45001,1-1,1Z" fill="#000" stroke-width="0"/>
  <circle cx="15" cy="50" r="2" fill="#000" stroke-width="0"/>
  <path d="M35.44366,48c.34448.59076.55634,1.26825.55634,2s-.21185,1.40924-.55634,2h10.11267c-.34448-.59076-.55634-1.26825-.55634-2s.21185-1.40924.55634-2h-10.11267Z" fill="#000" stroke-width="0"/>
  <path d="M18.44366,48c.34448.59076.55634,1.26825.55634,2s-.21185,1.40924-.55634,2h10.11267c-.34448-.59076-.55634-1.26825-.55634-2s.21185-1.40924.55634-2h-10.11267Z" fill="#000" stroke-width="0"/>
  <circle cx="32" cy="50" r="2" fill="#000" stroke-width="0"/>
  <circle cx="49" cy="50" r="2" fill="#000" stroke-width="0"/>
  <path d="M50,43H14c-3.86597,0-7,3.13397-7,7s3.13403,7,7,7h36c3.86597,0,7-3.13403,7-7s-3.13403-7-7-7ZM49,54H15c-2.20605,0-4-1.79443-4-4s1.79395-4,4-4h34c2.20605,0,4,1.79443,4,4s-1.79395,4-4,4Z" fill="#000" stroke-width="0"/>
  <rect x="20" y="23" width="4" height="3" fill="#000" stroke-width="0"/>
  <path d="M16,23c-.55231,0-1,.44769-1,1v13h14v-13c0-.55231-.44769-1-1-1h-2v4c0,.55225-.44727,1-1,1h-6c-.55273,0-1-.44775-1-1v-4h-2Z" fill="#000" stroke-width="0"/>
  <path d="M56,7H8c-.55273,0-1,.44775-1,1v4c0,.55225.44727,1,1,1h23v2.14539l-16.45508,2.5968c-.22559.03564-.43164.14746-.58496.31689l-2.70117,2.98486c-.16699.18359-.25879.42285-.25879.6709v6.28516c0,.55225.44727,1,1,1s1-.44775,1-1v-5.8999l2.20605-2.4375,16.79395-2.65039,16.79395,2.65039,2.20605,2.4375v5.8999c0,.55225.44727,1,1,1s1-.44775,1-1v-6.28516c0-.24805-.0918-.4873-.25879-.6709l-2.70117-2.98486c-.15332-.16943-.35938-.28125-.58496-.31689l-16.45508-2.5968v-2.14539h23c.55273,0,1-.44775,1-1v-4c0-.55225-.44727-1-1-1Z" fill="#000" stroke-width="0"/>
</svg>