<?xml version="1.0" encoding="UTF-8"?>
<svg id="Glyph" xmlns="http://www.w3.org/2000/svg" version="1.1" viewBox="0 0 64 64">
  <path d="M43.55469,51.16797l-3-2c-.16406-.10938-.35742-.16797-.55469-.16797h-16c-.19727,0-.39062.05859-.55469.16797l-3,2c-.27832.18555-.44531.49756-.44531.83203v4c0,.55225.44775,1,1,1h22c.55273,0,1-.44775,1-1v-4c0-.33447-.16699-.64648-.44531-.83203Z" fill="#000" stroke-width="0"/>
  <path d="M23,21v1c0,.54999-.45001,1-1,1h-12c-.54999,0-1-.45001-1-1v-1h14Z" fill="#000" stroke-width="0"/>
  <path d="M20,25h-8v1c0,.55225.44775,1,1,1h2v.58154c0,1.36865.59717,2.67773,1.68066,3.68604.20605.19141.31934.45166.31934.73242,0,.55127-.44873,1-1,1s-1-.44873-1-1c0-.55225-.44775-1-1-1s-1,.44775-1,1c0,1.6543,1.3457,3,3,3s3-1.3457,3-3c0-.82959-.34863-1.62988-.95654-2.19678-.67285-.62549-1.04346-1.41455-1.04346-2.22168v-.58154h2c.55225,0,1-.44775,1-1v-1Z" fill="#000" stroke-width="0"/>
  <path d="M56.99849,13.94949c-.02417-.40523-.33479-.76936-.70851-.90951,0,0-19.96657-5.98997-19.99998-5.99999-.07297-.02188-.2128-.03998-.29-.03998-.00002,0-7.99678,0-8.00002,0-.07616,0-.2188.01863-.28996.03998-.00005.00002-20,6-20,6-.02001.01001-.03002.02001-.05002.03002-.35461.17738-.66.51089-.66.93001v4c0,.54999.45001,1,1,1h48c.54999,0,1-.45001,1-1v-3.99984c0-.01695-.00051-.03385-.00151-.05067ZM14.81,13l12.19-3.66003v1.66003h10v-1.66003l12.19,3.66003H14.81Z" fill="#000" stroke-width="0"/>
  <polygon points="33.85089 47 37 47 37 35.86847 27.69238 42.07324 33.85089 47" fill="#000" stroke-width="0"/>
  <polygon points="27 23.86511 30.43799 21 27 21 27 23.86511" fill="#000" stroke-width="0"/>
  <polygon points="27 47 30.64929 47 27 44.08044 27 47" fill="#000" stroke-width="0"/>
  <polygon points="27 40.13153 36.19727 34 27 27.86847 27 40.13153" fill="#000" stroke-width="0"/>
  <polygon points="37 21 33.56201 21 27.66895 25.91064 37 32.13147 37 21" fill="#000" stroke-width="0"/>
</svg>