<?xml version="1.0" encoding="UTF-8"?>
<svg xmlns="http://www.w3.org/2000/svg" version="1.1" viewBox="0 0 64 64">
  <!-- Generator: Adobe Illustrator 28.7.1, SVG Export Plug-In . SVG Version: 1.2.0 Build 142)  -->
  <g>
    <g id="Glyph">
      <g>
        <rect x="47" y="41" width="4" height="2"/>
        <path d="M53,15H11c-2.20557,0-4,1.79443-4,4v2h50v-2c0-2.20557-1.79443-4-4-4Z"/>
        <path d="M7,45c0,2.20557,1.79443,4,4,4h42c2.20557,0,4-1.79443,4-4v-16H7v16ZM47,31h5c.55225,0,1,.44775,1,1s-.44775,1-1,1h-5c-.55225,0-1-.44775-1-1s.44775-1,1-1ZM45,40c0-.55225.44775-1,1-1h6c.55225,0,1,.44775,1,1v4c0,.55225-.44775,1-1,1h-6c-.55225,0-1-.44775-1-1v-4ZM38,31h5c.55225,0,1,.44775,1,1s-.44775,1-1,1h-5c-.55225,0-1-.44775-1-1s.44775-1,1-1ZM29,31h5c.55225,0,1,.44775,1,1s-.44775,1-1,1h-5c-.55225,0-1-.44775-1-1s.44775-1,1-1ZM20,31h5c.55225,0,1,.44775,1,1s-.44775,1-1,1h-5c-.55225,0-1-.44775-1-1s.44775-1,1-1ZM12,31h4c.55225,0,1,.44775,1,1s-.44775,1-1,1h-4c-.55225,0-1-.44775-1-1s.44775-1,1-1ZM12,39h6c.55225,0,1,.44775,1,1s-.44775,1-1,1h-6c-.55225,0-1-.44775-1-1s.44775-1,1-1ZM12,43h10c.55225,0,1,.44775,1,1s-.44775,1-1,1h-10c-.55225,0-1-.44775-1-1s.44775-1,1-1Z"/>
        <rect x="7" y="23" width="50" height="4"/>
      </g>
    </g>
  </g>
</svg>