<?xml version="1.0" encoding="UTF-8"?>
<svg id="Glyph" xmlns="http://www.w3.org/2000/svg" version="1.1" viewBox="0 0 64 64">
  <path d="M8,19h10c.55225,0,1-.44775,1-1v-4h26.09076c.65656,4.11115,5.00226,8.50751,5.20221,8.70703.1875.1875.44189.29297.70703.29297s.51953-.10547.70703-.29297c.21631-.21582,5.29297-5.34277,5.29297-9.70703,0-3.30859-2.69141-6-6-6-2.96722,0-5.43134,2.16687-5.90967,5h-26.09033v-4c0-.55225-.44775-1-1-1h-10c-.55225,0-1,.44775-1,1v10c0,.55225.44775,1,1,1ZM51,12c.55231,0,1,.44769,1,1,0,.55225-.44769,1-1,1s-1-.44775-1-1c0-.55231.44769-1,1-1Z" fill="#000" stroke-width="0"/>
  <rect x="43" y="37" width="4" height="2" fill="#000" stroke-width="0"/>
  <polygon points="55.49988 39 53.99988 37 49 37 49 39 55.49988 39" fill="#000" stroke-width="0"/>
  <path d="M53,43h3v-2h-14c-.55273,0-1-.44775-1-1v-4c0-.55225.44727-1,1-1h10.49988l-2.70007-3.6001c-.18848-.25195-.48535-.3999-.7998-.3999h-11c-.55273,0-1,.44775-1,1v15h19v-2h-3c-.55273,0-1-.44775-1-1s.44727-1,1-1Z" fill="#000" stroke-width="0"/>
  <path d="M7,50v2c0,.54999.45001,1,1,1h3c0-1.54004.58002-2.94,1.53998-4h-4.53998c-.54999,0-1,.45001-1,1Z" fill="#000" stroke-width="0"/>
  <path d="M23,53h18c0-1.54004.58002-2.94,1.53998-4h-21.07996c.95996,1.06,1.53998,2.45996,1.53998,4Z" fill="#000" stroke-width="0"/>
  <path d="M56,49h-4.53998c.95996,1.06,1.53998,2.45996,1.53998,4h3c.54999,0,1-.45001,1-1v-2c0-.54999-.45001-1-1-1Z" fill="#000" stroke-width="0"/>
  <path d="M17,49c-2.20605,0-4,1.79443-4,4s1.79395,4,4,4,4-1.79443,4-4-1.79395-4-4-4ZM17,54c-.55231,0-1-.44775-1-1,0-.55231.44769-1,1-1s1,.44769,1,1c0,.55225-.44769,1-1,1Z" fill="#000" stroke-width="0"/>
  <path d="M47,49c-2.20605,0-4,1.79443-4,4s1.79395,4,4,4,4-1.79443,4-4-1.79395-4-4-4ZM47,54c-.55231,0-1-.44775-1-1,0-.55231.44769-1,1-1s1,.44769,1,1c0,.55225-.44769,1-1,1Z" fill="#000" stroke-width="0"/>
  <path d="M21.41895,21.0918c-.26562-.12207-.57227-.12207-.83789,0l-12.58142,5.80682,13.00037,6.00031,13.00037-6.00031-12.58142-5.80682Z" fill="#000" stroke-width="0"/>
  <path d="M7.58105,40.9082l12.41895,6.0918v-12.36047l-13-6.00012v6.79785l7.91895,3.65503c.50189.23138.7207.82507.48932,1.32654-.22235.48193-.84497.71265-1.32721.48889l-7.08105-3.26831v2.3606c0,.39014.22656.74463.58105.9082Z" fill="#000" stroke-width="0"/>
  <path d="M27.08105,39.0918l7.91895-3.65491v-6.79749l-13,6.00012v12.36047l12.41895-6.0918c.35449-.16357.58105-.51807.58105-.9082v-2.36017s-7.08105,3.26788-7.08112,3.26788c-.49469.22955-1.09851.00604-1.32709-.48877-.23145-.50146-.0127-1.0957.48926-1.32715Z" fill="#000" stroke-width="0"/>
</svg>