<?xml version="1.0" encoding="UTF-8"?>
<svg id="Glyph" xmlns="http://www.w3.org/2000/svg" version="1.1" viewBox="0 0 64 64">
  <polygon points="19 45.7207 7 41.72095 7 43.61267 19 47.61279 19 45.7207" fill="#000" stroke-width="0"/>
  <polygon points="37 47.61279 49 43.61267 49 41.72095 37 45.7207 37 47.61279" fill="#000" stroke-width="0"/>
  <path d="M29.01001,20.29999l-.67999-.23999c-.21002-.08002-.45001-.08002-.66003,0l-19.66455,6.88257,19.99457,6.99786,6.55707-2.29486c-3.31592-2.69434-5.46271-6.77319-5.54706-11.34558Z" fill="#000" stroke-width="0"/>
  <path d="M7,35.61261l13.31641,4.43866c.52344.1748.80664.74115.63184,1.26508-.16608.49786-.73975.80731-1.26465.63239l-12.68359-4.22772v1.8916l13.31641,4.43866c.4082.13623.68359.51807.68359.94873v3.99988c0,.67041-.68701,1.15668-1.31641.94885l-12.68359-4.22772v3.27899c0,.41998.27002.79999.66998.94l19.33002,7.06v-21.29065l-20-6.99988v6.90314Z" fill="#000" stroke-width="0"/>
  <path d="M36.62225,33.04163l-7.62225,2.66772v21.29065l19.33002-7.06c.39996-.14001.66998-.52002.66998-.94v-3.27899s-12.68359,4.22772-12.68365,4.22772c-.63953.21112-1.31635-.27155-1.31635-.94873v-4c0-.43066.27539-.8125.68359-.94873l13.31641-4.43866v-1.8916s-12.63641,4.21198-12.68347,4.22766c-.49579.16528-1.08893-.10474-1.26477-.63226-.1748-.52393.1084-1.09033.63184-1.26514l13.31641-4.43866v-1.4726c-1.56.56-3.23999.85999-5,.85999-2.68256,0-5.19629-.71912-7.37775-1.95837Z" fill="#000" stroke-width="0"/>
  <circle cx="44" cy="20" r="1" fill="#000" stroke-width="0"/>
  <path d="M54,20c0-.55225.44727-1,1-1h1.94934c-.48846-6.3703-5.57941-11.46088-11.94934-11.94934v1.94934c0,.55225-.44727,1-1,1s-1-.44775-1-1v-1.94934c-6.36993.48846-11.46088,5.57904-11.94934,11.94934h1.94934c.55273,0,1,.44775,1,1s-.44727,1-1,1h-1.94934c.48846,6.3703,5.57941,11.46088,11.94934,11.94934v-1.94934c0-.55225.44727-1,1-1s1,.44775,1,1v1.94934c6.36993-.48846,11.46088-5.57904,11.94934-11.94934h-1.94934c-.55273,0-1-.44775-1-1ZM50.70703,14.70703l-4.00763,4.00763c.18713.39111.3006.82361.3006,1.28534,0,1.6543-1.3457,3-3,3-.46173,0-.89423-.11346-1.28534-.3006l-1.00763,1.00763c-.36499.36499-1.01367.40039-1.41406,0-.39062-.39062-.39062-1.02344,0-1.41406l1.00763-1.00763c-.18713-.39111-.3006-.82361-.3006-1.28534,0-1.6543,1.3457-3,3-3,.46173,0,.89423.11346,1.28534.3006l4.00763-4.00763c.39062-.39062,1.02344-.39062,1.41406,0s.39062,1.02344,0,1.41406Z" fill="#000" stroke-width="0"/>
</svg>