<?xml version="1.0" encoding="UTF-8"?>
<svg xmlns="http://www.w3.org/2000/svg" version="1.1" viewBox="0 0 64 64">
  <!-- Generator: Adobe Illustrator 28.7.1, SVG Export Plug-In . SVG Version: 1.2.0 Build 142)  -->
  <g>
    <g id="Glyph">
      <g>
        <polygon points="33 19.61816 29 17.61816 29 21.38184 33 23.38184 33 19.61816"/>
        <rect x="25" y="44" width="14" height="4"/>
        <polygon points="35 23.38184 39 21.38184 39 17.61816 35 19.61816 35 23.38184"/>
        <polygon points="21.76416 16 18 14.11816 14.23584 16 18 17.88184 21.76416 16"/>
        <polygon points="17 19.61816 13 17.61816 13 21.38184 17 23.38184 17 19.61816"/>
        <polygon points="19 23.38184 23 21.38184 23 17.61816 19 19.61816 19 23.38184"/>
        <path d="M39,50h-14c-2.76141,0-5,2.23859-5,5v1h24v-1c0-2.76141-2.23859-5-5-5Z"/>
        <path d="M54,8H10c-1.65686,0-3,1.34314-3,3v25h50V11c0-1.65686-1.34314-3-3-3ZM27,16c0-.37891.21387-.72461.55273-.89453l6-3c.28125-.14062.61328-.14062.89453,0l6,3c.33887.16992.55273.51562.55273.89453v6c0,.37891-.21387.72461-.55273.89453,0,0-5.99188,2.99542-5.99707,2.99805-.28076.14032-.62097.14258-.90088,0l-5.99658-2.99805c-.33887-.16992-.55273-.51562-.55273-.89453v-6ZM11,16c0-.37891.21387-.72461.55273-.89453l6-3c.28125-.14062.61328-.14062.89453,0l6,3c.33887.16992.55273.51562.55273.89453v6c0,.37891-.21387.72461-.55273.89453,0,0-5.98383,2.99139-5.99707,2.99805-.27472.13733-.62524.13782-.90088,0-.00006-.00006-5.99658-2.99805-5.99658-2.99805-.33887-.16992-.55273-.51562-.55273-.89453v-6ZM52,34H12c-.55225,0-1-.44727-1-1s.44775-1,1-1h40c.55225,0,1,.44727,1,1s-.44775,1-1,1ZM52,30H12c-.55225,0-1-.44727-1-1s.44775-1,1-1h40c.55225,0,1,.44727,1,1s-.44775,1-1,1ZM52,25h-8c-.55225,0-1-.44727-1-1s.44775-1,1-1h8c.55225,0,1,.44727,1,1s-.44775,1-1,1ZM52,20h-8c-.55225,0-1-.44727-1-1s.44775-1,1-1h8c.55225,0,1,.44727,1,1s-.44775,1-1,1ZM52,15h-8c-.55225,0-1-.44727-1-1s.44775-1,1-1h8c.55225,0,1,.44727,1,1s-.44775,1-1,1Z"/>
        <path d="M7,39c0,1.65686,1.34314,3,3,3h37v-1c0-.55273.44775-1,1-1s1,.44727,1,1v1h2v-1c0-.55273.44775-1,1-1s1,.44727,1,1v1h1c1.65686,0,3-1.34314,3-3v-1H7v1Z"/>
        <polygon points="37.76416 16 34 14.11816 30.23584 16 34 17.88184 37.76416 16"/>
      </g>
    </g>
  </g>
</svg>