<?xml version="1.0" encoding="UTF-8"?>
<svg id="Glyph" xmlns="http://www.w3.org/2000/svg" version="1.1" viewBox="0 0 64 64">
  <path d="M7,28v6c0,.54999.45001,1,1,1h1v-8h-1c-.54999,0-1,.45001-1,1Z" style="fill: #000; stroke-width: 0px;"/>
  <path d="M56,10h-4c-.55225,0-1,.44727-1,1v16h-2v-6c0-1.6543-1.3457-3-3-3H14c-1.6543,0-3,1.3457-3,3v18c0,1.6543,1.3457,3,3,3h8.46875c.52197,0,1.03711-.13672,1.48828-.39551l6.04297-3.45312,6.04199,3.45312c.45215.25879.96729.39551,1.48926.39551h8.46875c1.6543,0,3-1.3457,3-3v-4h2v10c0,1.6543-1.3457,3-3,3h-14c-1.6543,0-3,1.3457-3,3s1.3457,3,3,3h16c3.85986,0,7-3.14062,7-7V11c0-.55273-.44775-1-1-1ZM45,37c0,.55273-.44775,1-1,1h-5.9375c-.17383,0-.34521-.04492-.49609-.13184l-7.56641-4.32324-7.56641,4.32324c-.15088.08691-.32227.13184-.49609.13184h-5.9375c-.55225,0-1-.44727-1-1v-14c0-.55273.44775-1,1-1h28c.55225,0,1,.44727,1,1v14ZM49,33v-4h2v4h-2Z" style="fill: #000; stroke-width: 0px;"/>
  <path d="M17,36h4.67188l7.83203-4.47461c.30762-.17578.68457-.17578.99219,0l7.83203,4.47461h4.67188v-12h-26v12ZM40.70703,29.29297c.39062.39062.39062,1.02344,0,1.41406l-2,2c-.19531.19531-.45117.29297-.70703.29297s-.51172-.09766-.70703-.29297c-.39062-.39062-.39062-1.02344,0-1.41406l2-2c.39062-.39062,1.02344-.39062,1.41406,0ZM35.29297,28.29297l2-2c.39062-.39062,1.02344-.39062,1.41406,0s.39062,1.02344,0,1.41406l-2,2c-.19531.19531-.45117.29297-.70703.29297s-.51172-.09766-.70703-.29297c-.39062-.39062-.39062-1.02344,0-1.41406ZM24.70703,29.29297c.39062.39062.39062,1.02344,0,1.41406l-2,2c-.19531.19531-.45117.29297-.70703.29297s-.51172-.09766-.70703-.29297c-.39062-.39062-.39062-1.02344,0-1.41406l2-2c.39062-.39062,1.02344-.39062,1.41406,0ZM19.29297,28.29297l2-2c.39062-.39062,1.02344-.39062,1.41406,0s.39062,1.02344,0,1.41406l-2,2c-.19531.19531-.45117.29297-.70703.29297s-.51172-.09766-.70703-.29297c-.39062-.39062-.39062-1.02344,0-1.41406Z" style="fill: #000; stroke-width: 0px;"/>
  <circle cx="27" cy="48" r="3" style="fill: #000; stroke-width: 0px;"/>
  <circle cx="14" cy="47" r="3" style="fill: #000; stroke-width: 0px;"/>
  <circle cx="20" cy="51" r="3" style="fill: #000; stroke-width: 0px;"/>
</svg>