<?xml version="1.0" encoding="UTF-8"?>
<svg xmlns="http://www.w3.org/2000/svg" version="1.1" viewBox="0 0 64 64">
  <!-- Generator: Adobe Illustrator 28.7.1, SVG Export Plug-In . SVG Version: 1.2.0 Build 142)  -->
  <g>
    <g id="Glyph">
      <g>
        <path d="M53,10.39551v-2.39551c0-.55273-.44775-1-1-1s-1,.44727-1,1v1h-22v-1c0-.55273-.44775-1-1-1s-1,.44727-1,1v2.39551c0,3.80957,2.27246,7.21875,5.78906,8.68262l4.61194,1.92194-4.61145,1.92181c-3.51709,1.46387-5.78955,4.87305-5.78955,8.68262,0,3.66699,2.15381,7.02441,5.48779,8.55273l5.11163,2.34271-5.11212,2.34283c-3.3335,1.52832-5.4873,4.88574-5.4873,8.55273v2.60449c0,.55273.44775,1,1,1s1-.44727,1-1v-1h22v1c0,.55273.44775,1,1,1s1-.44727,1-1v-2.60449c0-3.66699-2.15381-7.02441-5.48779-8.55273l-5.11163-2.34271,5.11212-2.34283c3.3335-1.52832,5.4873-4.88574,5.4873-8.55273,0-3.80957-2.27246-7.21875-5.78906-8.68262l-4.61194-1.92194,4.61145-1.92181c3.51709-1.46387,5.78955-4.87305,5.78955-8.68262ZM29.04492,11h21.91016c-.09003,1.10632-.42023,2.15118-.95508,3.08136v-.08136h-20v.08142c-.53479-.93018-.86505-1.9751-.95508-3.08142ZM30.47192,36c-.65399-.88428-1.10968-1.90479-1.32178-3h21.69977c-.2121,1.09521-.66779,2.11572-1.32172,3h-19.05627ZM50,49.71893c.56854.99011.90753,2.10803.97113,3.28107h-21.94226c.0636-1.17303.40253-2.29108.97113-3.28119v.28119h20v-.28107ZM46.67871,46.66113c.73785.3382,1.39221.79962,1.96625,1.33887h-17.2901c.57397-.53925,1.22821-1.00067,1.96594-1.33887l6.6792-3.06097,6.67871,3.06097ZM40,41.39984l-6.67871-3.06097c-.21533-.09869-.41406-.22144-.61646-.33887h14.59076c-.20239.11743-.40112.24017-.61639.33887l-6.6792,3.06097ZM50.95508,31h-21.91016c.09003-1.10632.42023-2.15118.95508-3.08136v.08136h20v-.08142c.53479.93018.86505,1.9751.95508,3.08142ZM46.44189,24.76758c.7384.30756,1.40051.73022,1.98419,1.23242h-16.85199c.5838-.5022,1.24597-.92487,1.9845-1.23242l6.44141-2.68451,6.44189,2.68451ZM40,19.91693l-6.44189-2.68451c-.7384-.30756-1.40051-.73022-1.98419-1.23242h16.85199c-.5838.5022-1.24597.92487-1.9845,1.23242l-6.44141,2.68451Z"/>
        <path d="M25,24c0-1.6543-1.3457-3-3-3-.61407,0-1.18469.18671-1.66064.50452l-3.48883-2.61639c.08838-.28247.14948-.5769.14948-.88812,0-.70447-.25415-1.34436-.66217-1.85687l2.01465-3.21771c.20911.04626.42468.07458.64752.07458,1.6543,0,3-1.3457,3-3s-1.3457-3-3-3-3,1.3457-3,3c0,.70447.25415,1.34436.66217,1.85687l-2.01465,3.21771c-.20911-.04626-.42468-.07458-.64752-.07458-1.6543,0-3,1.3457-3,3s1.3457,3,3,3c.61407,0,1.18469-.18671,1.66064-.50452l3.48883,2.61639c-.08838.28247-.14948.5769-.14948.88812,0,1.30194.8385,2.40155,2,2.81567v2.36859c-.84717.30206-1.51367.96857-1.81573,1.81573h-2.36853c-.41412-1.1615-1.51379-2-2.81573-2-1.6543,0-3,1.3457-3,3s1.3457,3,3,3c1.30194,0,2.40161-.8385,2.81573-2h2.36859c.30206.84717.96851,1.51361,1.81567,1.81567v2.36859c-1.1615.41412-2,1.51379-2,2.81573,0,1.6543,1.3457,3,3,3s3-1.3457,3-3c0-1.30194-.8385-2.40161-2-2.81573v-2.36853c1.1615-.41412,2-1.51379,2-2.81573s-.8385-2.40161-2-2.81573v-2.36853c1.1615-.41412,2-1.51379,2-2.81573Z"/>
      </g>
    </g>
  </g>
</svg>