<?xml version="1.0" encoding="UTF-8"?>
<svg id="Glyph" xmlns="http://www.w3.org/2000/svg" version="1.1" viewBox="0 0 64 64">
  <path d="M16,14h14c.55225,0,1-.44775,1-1v-2c0-.55225-.44775-1-1-1h-3.12646c-.44531-1.72314-2.01318-3-3.87354-3s-3.42822,1.27686-3.87354,3h-3.12646c-.55225,0-1,.44775-1,1v2c0,.55225.44775,1,1,1Z" fill="#000" stroke-width="0"/>
  <rect x="13" y="20" width="20" height="2" fill="#000" stroke-width="0"/>
  <path d="M8,48h5.69c.95001-.64001,2.09003-1,3.31-1s2.35999.35999,3.31,1h16.69v-18h2V13c0-.54999-.45001-1-1-1h-5v1c0,1.64996-1.34998,3-3,3h-14c-1.65002,0-3-1.35004-3-3v-1h-5c-.54999,0-1,.45001-1,1v35c0,.06.01001.12.02002.16998.31-.10999.63995-.16998.97998-.16998ZM34,43h-11c-.54999,0-1-.45001-1-1s.45001-1,1-1h11c.54999,0,1,.45001,1,1s-.45001,1-1,1ZM22,38c0-.54999.45001-1,1-1h6c.54999,0,1,.45001,1,1s-.45001,1-1,1h-6c-.54999,0-1-.45001-1-1ZM34,33h-11c-.54999,0-1-.45001-1-1s.45001-1,1-1h11c.54999,0,1,.45001,1,1s-.45001,1-1,1ZM22,28c0-.54999.45001-1,1-1h6c.54999,0,1,.45001,1,1s-.45001,1-1,1h-6c-.54999,0-1-.45001-1-1ZM11,19c0-.54999.45001-1,1-1h22c.54999,0,1,.45001,1,1v4c0,.54999-.45001,1-1,1H12c-.54999,0-1-.45001-1-1v-4ZM18.71002,28.70996s-2,1.99005-2,2c-.37.36005-1.03003.39001-1.42004,0l-1-1c-.38995-.38995-.38995-1.02997,0-1.41998.39001-.39001,1.03003-.39001,1.42004,0l.28998.29999,1.28998-1.29999c.39001-.39001,1.03003-.39001,1.42004,0,.38995.39001.38995,1.03003,0,1.41998ZM11,27c0-.54999.45001-1,1-1s1,.45001,1,1v5h6c.54999,0,1,.45001,1,1s-.45001,1-1,1h-7c-.54999,0-1-.45001-1-1v-6ZM18.71002,38.70996l-2,2c-.39001.38-1.03003.38-1.42004,0l-1-1c-.38995-.38995-.38995-1.02997,0-1.41998.39001-.39001,1.03003-.39001,1.42004,0l.28998.29999,1.28998-1.29999c.39001-.39001,1.03003-.39001,1.42004,0,.38995.39001.38995,1.03003,0,1.41998ZM11,37c0-.54999.45001-1,1-1s1,.45001,1,1v5h6c.54999,0,1,.45001,1,1s-.45001,1-1,1h-7c-.54999,0-1-.45001-1-1v-6Z" fill="#000" stroke-width="0"/>
  <path d="M8,50c-.54999,0-1,.45001-1,1v2c0,.54999.45001,1,1,1h3.09003c-.06-.32001-.09003-.66003-.09003-1,0-1.10004.28998-2.12.81-3h-3.81Z" fill="#000" stroke-width="0"/>
  <path d="M22.19,50c.52002.88.81,1.89996.81,3,0,.33997-.03003.67999-.09003,1h18.18005c-.06-.32001-.09003-.66003-.09003-1,0-1.10004.28998-2.12.81-3h-19.62Z" fill="#000" stroke-width="0"/>
  <path d="M56,50h-3.81c.52002.88.81,1.89996.81,3,0,.33997-.03003.67999-.09003,1h3.09003c.54999,0,1-.45001,1-1v-2c0-.54999-.45001-1-1-1Z" fill="#000" stroke-width="0"/>
  <polygon points="49 40 55.49988 40 53.99988 38 49 38 49 40" fill="#000" stroke-width="0"/>
  <rect x="43" y="38" width="4" height="2" fill="#000" stroke-width="0"/>
  <path d="M39,48h4.69c.95001-.64001,2.09003-1,3.31-1s2.35999.35999,3.31,1h5.69v-2h-3c-.54999,0-1-.45001-1-1s.45001-1,1-1h3v-2h-14c-.55,0-1-.45-1-1v-4c0-.55.45-1,1-1h10.5l-2.69997-3.59999c-.18886-.25181-.48526-.40001-.80003-.40001h-9c-.55228,0-1,.44772-1,1v15Z" fill="#000" stroke-width="0"/>
  <path d="M17,49c-2.20557,0-4,1.79443-4,4s1.79443,4,4,4,4-1.79443,4-4-1.79443-4-4-4ZM17,54c-.55231,0-1-.44775-1-1,0-.55231.44769-1,1-1s1,.44769,1,1c0,.55225-.44769,1-1,1Z" fill="#000" stroke-width="0"/>
  <path d="M47,49c-2.20557,0-4,1.79443-4,4s1.79443,4,4,4,4-1.79443,4-4-1.79443-4-4-4ZM47,54c-.55231,0-1-.44775-1-1,0-.55231.44769-1,1-1s1,.44769,1,1c0,.55225-.44769,1-1,1Z" fill="#000" stroke-width="0"/>
</svg>