<?xml version="1.0" encoding="UTF-8"?>
<svg xmlns="http://www.w3.org/2000/svg" version="1.1" viewBox="0 0 64 64">
  <!-- Generator: Adobe Illustrator 28.7.1, SVG Export Plug-In . SVG Version: 1.2.0 Build 142)  -->
  <g>
    <g id="Glyph">
      <g>
        <path d="M34.47067,7.58571c-.3905-.3905-1.02368-.3905-1.41418,0l-.00024.00024c-.3905.3905-.3905,1.02368,0,1.41418l11.31372,11.31348c.3905.3905,1.02368.3905,1.41418,0s.3905-1.02368,0-1.41418l-11.31348-11.31372Z"/>
        <path d="M29.52097,8.29305c-.3905-.3905-1.02368-.3905-1.41425,0-.39062.3905-.39062,1.0238-.00006,1.41437l15.55615,15.55615c.39056.39056,1.0238.3905,1.41437-.00006l.00024-.00024c.3905-.39056.39044-1.02374-.00006-1.41425l-15.5564-15.55597Z"/>
        <path d="M44.37009,14.65688c1.55957-1.55957,1.55957-4.09717,0-5.65674s-4.09717-1.55957-5.65674,0l-.00006.00006,5.65662,5.65686.00018-.00018Z"/>
        <path d="M9.01462,38.69887c-1.55956,1.55956-1.55957,4.09664-.00004,5.65621,1.54267,1.54271,4.11662,1.54118,5.65678.00004,0,0-5.65649-5.65649-5.65674-5.65625Z"/>
        <path d="M9.72177,28.09193c-.3905-.39056-1.02368-.3905-1.41418,0s-.3905,1.02368,0,1.41418l15.55615,15.5564c.3905.3905,1.02368.3905,1.41418,0l.00024-.00024c.3905-.3905.3905-1.02368,0-1.41418l-15.5564-15.55615Z"/>
        <rect x="15.69221" y="22.67776" width="22.0002" height="7.99984" transform="translate(-11.04597 26.68861) rotate(-45.0009)"/>
        <path d="M9.01505,33.0417c-.39056-.39056-1.02386-.39056-1.41437.00006l-.00018.00018c-.3905.39056-.39044,1.02368.00006,1.41425l11.31335,11.31335c.39056.3905,1.02374.3905,1.41431,0,.39056-.39056.39056-1.02374,0-1.41431l-11.31317-11.31354Z"/>
        <path d="M31.69235,42.70717v6c0,.55225.44775,1,1,1h12v-8h-12c-.55225,0-1,.44775-1,1Z"/>
        <path d="M48.69235,34.70717c-1.09998,0-2,.89996-2,2v18c0,1.09998.90002,2,2,2,1.10455,0,2-.89545,2-2v-18c0-1.10461-.89545-2-2-2Z"/>
        <path d="M54.69235,37.70717c-1.10455,0-2,.89539-2,2v12c0,1.10455.89545,2,2,2s2-.89545,2-2v-12c0-1.10461-.89545-2-2-2Z"/>
        <path d="M28.69235,34.70717c-1.10455,0-2,.89539-2,2v18c0,1.10455.89545,2,2,2,1.09998,0,2-.90002,2-2v-18c0-1.10004-.90002-2-2-2Z"/>
        <path d="M22.45236,46.47713l-.12-.12c-.14001.30005-.34003.58002-.59003.83002-.31.29999-.65997.53003-1.04999.67999v3.84003c0,.54999.21997,1.04999.59003,1.40997.35999.37.85999.59003,1.40997.59003,1.09998,0,2-.90002,2-2v-4.35004h-.12c-.79999,0-1.56-.31-2.12-.88Z"/>
      </g>
    </g>
  </g>
</svg>