<?xml version="1.0" encoding="UTF-8"?>
<svg xmlns="http://www.w3.org/2000/svg" version="1.1" viewBox="0 0 64 64">
  <!-- Generator: Adobe Illustrator 28.7.1, SVG Export Plug-In . SVG Version: 1.2.0 Build 142)  -->
  <g>
    <g id="Glyph">
      <g>
        <path d="M32,21c3.85999,0,7-3.14001,7-7s-3.14001-7-7-7-7,3.14001-7,7,3.14001,7,7,7ZM29.16998,13.45001l2-3c.29999-.46002.92004-.59003,1.38-.28003.46002.29999.59003.92999.28003,1.38l-.96002,1.45001h2.13c.37,0,.71002.20001.88.52997.17999.32001.15997.72003-.04999,1.02002l-2,3c-.19.28998-.51001.45001-.83002.45001-.19,0-.38-.04999-.54999-.17004-.46002-.29999-.59003-.92999-.28003-1.37994l.96002-1.45001h-2.13c-.37,0-.71002-.20001-.88-.53003-.17999-.32001-.15997-.71997.04999-1.01996Z"/>
        <path d="M32,39c-3.07001,0-5.73999,2.07996-6.48999,5.06l-.22998.94h13.43994l-.22998-.94c-.75-2.98004-3.41998-5.06-6.48999-5.06ZM30,43c-.54999,0-1-.45001-1-1s.45001-1,1-1,1,.45001,1,1-.45001,1-1,1ZM34,43c-.54999,0-1-.45001-1-1s.45001-1,1-1,1,.45001,1,1-.45001,1-1,1Z"/>
        <circle cx="45" cy="40" r="1"/>
        <circle cx="19" cy="40" r="1"/>
        <path d="M52,47H12c-1.10455,0-2,.89539-2,2,0,1.10455.89545,2,2,2h40c1.10455,0,2-.89545,2-2,0-1.10461-.89545-2-2-2Z"/>
        <path d="M35.14203,33h7.71594c-.44714-1.72028-1.99927-3-3.85797-3s-3.41083,1.27972-3.85797,3Z"/>
        <path d="M40,54c0,1.6543,1.3457,3,3,3h4c1.6543,0,3-1.3457,3-3v-1h-10v1Z"/>
        <path d="M39,28c2.96997,0,5.42999,2.16998,5.90997,5h5.86005l-3.57001-13.45001c-.22003-1.46002-1.48004-2.54999-2.97003-2.54999h-3.75c-1.22998,3.48999-4.57001,6-8.47998,6s-7.25-2.51001-8.47998-6h-3.75c-1.48999,0-2.75,1.08997-2.97003,2.54999l-3.57001,13.45001h19.86005c.47998-2.83002,2.94-5,5.90997-5Z"/>
        <path d="M14,54c0,1.6543,1.3457,3,3,3h4c1.6543,0,3-1.3457,3-3v-1h-10v1Z"/>
        <path d="M12.38,45h10.83997l.28003-1.13c.92999-3.71002,4.07001-6.59003,7.89001-6.85004,4.25-.28998,8.01996,2.49005,9.02997,6.56l.36005,1.42004h10.83997l1.27002-2.54999c.07001-.14001.10999-.29004.10999-.45001v-5c0-1.10004-.90002-2-2-2H13c-1.09998,0-2,.89996-2,2v5c0,.15997.03998.31.10999.45001l1.27002,2.54999ZM45,37c1.65002,0,3,1.34998,3,3s-1.34998,3-3,3-3-1.35004-3-3,1.34998-3,3-3ZM19,37c1.65002,0,3,1.34998,3,3s-1.34998,3-3,3-3-1.35004-3-3,1.34998-3,3-3Z"/>
      </g>
    </g>
  </g>
</svg>