<?xml version="1.0" encoding="utf-8"?>
<!-- Generator: Adobe Illustrator 28.2.0, SVG Export Plug-In . SVG Version: 6.00 Build 0)  -->
<svg version="1.1" id="Glyph" xmlns="http://www.w3.org/2000/svg" xmlns:xlink="http://www.w3.org/1999/xlink" x="0px" y="0px"
	 viewBox="0 0 64 64" enable-background="new 0 0 64 64" xml:space="preserve">
<g>
	<path d="M25,18c0-1.6543-1.3457-3-3-3H10c-1.6543,0-3,1.3457-3,3v11h18V18z M18.83203,22.55469c0,0-1.99945,2.99917-2,3
		c-0.28891,0.43336-0.91784,0.58948-1.38672,0.27734c-0.45996-0.30615-0.58398-0.92725-0.27734-1.38672L16.13184,23H14
		c-0.36914,0-0.70801-0.20312-0.88184-0.52832s-0.1543-0.71973,0.0498-1.02637l2-3c0.30469-0.45947,0.9248-0.58496,1.38672-0.27734
		c0.45996,0.30615,0.58398,0.92725,0.27734,1.38672L15.86816,21H18c0.36914,0,0.70801,0.20312,0.88184,0.52832
		S19.03613,22.24805,18.83203,22.55469z"/>
	<rect x="13" y="36" width="6" height="16"/>
	<path d="M56,27H45c-0.40918,0-0.77637,0.24902-0.92871,0.62842L40.32263,37H57v-9C57,27.44775,56.55273,27,56,27z"/>
	<path d="M44,57c2.20605,0,4-1.79443,4-4h-8C40,55.20557,41.79395,57,44,57z"/>
	<polygon points="47,45 47,43 43.5,43 42,45 	"/>
	<path d="M57,43v-4H38.85999l-3.63,4.35999C35.08002,43.53998,35,43.76996,35,44v2h-3c-0.54999,0-1-0.45001-1-1v-6
		c0-1.65002-1.34998-3-3-3h-3v-5H7v25c0,0.54999,0.45001,1,1,1h16c0.54999,0,1-0.45001,1-1V38h3c0.54999,0,1,0.45001,1,1v6
		c0,1.64996,1.34998,3,3,3h3v2c0,0.54999,0.45001,1,1,1h20c0.54999,0,1-0.45001,1-1v-5h-8v1c0,0.54999-0.45001,1-1,1h-8
		c-0.38,0-0.71997-0.21002-0.89001-0.54999c-0.16998-0.34003-0.14001-0.75,0.09003-1.05005l3-4C42.39001,41.14996,42.69,41,43,41h5
		c0.54999,0,1,0.45001,1,1v1H57z M21,53c0,0.54999-0.45001,1-1,1h-8c-0.54999,0-1-0.45001-1-1V35c0-0.54999,0.45001-1,1-1h8
		c0.54999,0,1,0.45001,1,1V53z"/>
	<path d="M23,10c0-1.65002-1.34998-3-3-3h-8c-1.65002,0-3,1.34998-3,3v3h14V10z M18,11h-4c-0.54999,0-1-0.45001-1-1s0.45001-1,1-1h4
		c0.54999,0,1,0.45001,1,1S18.54999,11,18,11z"/>
</g>
</svg>
