<?xml version="1.0" encoding="UTF-8"?>
<svg xmlns="http://www.w3.org/2000/svg" version="1.1" viewBox="0 0 64 64">
  <!-- Generator: Adobe Illustrator 28.7.1, SVG Export Plug-In . SVG Version: 1.2.0 Build 142)  -->
  <g>
    <g id="Glyph">
      <g>
        <path d="M53,43.5c-2.21002,0-4,1.78998-4,4s1.78998,4,4,4,4-1.79004,4-4-1.78998-4-4-4ZM53,48.5c-.54999,0-1-.45001-1-1s.45001-1,1-1,1,.45001,1,1-.45001,1-1,1Z"/>
        <path d="M20.46997,44.5h-4.27997c.52002.88.81,1.89996.81,3,0,1.09998-.28998,2.12-.81,3h10.79999c-2.81-1.17999-5.12-3.31-6.52002-6Z"/>
        <path d="M43.53003,44.5c-1.40002,2.69-3.71002,4.82001-6.52002,6h10.79999c-.52002-.88-.81-1.90002-.81-3,0-1.10004.28998-2.12.81-3h-4.27997Z"/>
        <path d="M36,18.5h3c.54999,0,1-.45001,1-1v-1h4.22998l3.86005,15h-.75c-.31,0-.61005.14996-.80005.39996s-.25.57001-.15997.87l2.83002,10.08002c1.02997-.84998,2.34998-1.34998,3.78998-1.34998.78998,0,1.54999.14996,2.23999.42999l-2.83002-9.71002c-.12-.42999-.51996-.71997-.95996-.71997h-1.29999c-.21317,0-1.24726-4.84874-1.3352-5.19059-.53398-2.13593-1.09711-4.26503-1.6456-6.3973l-.78261-3.04241c-.12823-.4985-.18479-1.156-.41664-1.61971-.12-.44-.50995-.75-.96997-.75h-5v-1c0-.54999-.45001-1-1-1h-3c-1.65002,0-3,1.34998-3,3s1.34998,3,3,3Z"/>
        <path d="M50.90997,21.5c.31,0,.60004-.14001.79004-.39001.19-.23999.25-.56.17999-.85999l-.14001-.53003c-.52002-2.02997-1.91998-3.65997-3.71997-4.52997l1.63,6.31h1.25995Z"/>
        <path d="M11,43.5c-2.21002,0-4,1.78998-4,4s1.78998,4,4,4,4-1.79004,4-4-1.78998-4-4-4ZM11,48.5c-.54999,0-1-.45001-1-1s.45001-1,1-1,1,.45001,1,1-.45001,1-1,1Z"/>
        <path d="M32.16998,37.06c-.17999-.27002-.21997-.62-.09998-.92999l1.45001-3.63h-2.83002l-2.25,6h2.56c.28998,0,.57001.13.76001.34998.19.22998.27002.52002.22998.81l-.23999,1.41003,2.38-3.57001h-1.13c-.33002,0-.64001-.17004-.83002-.44Z"/>
        <path d="M43,38.5c0-6.07001-4.92999-11-11-11s-11,4.92999-11,11,4.92999,11,11,11,11-4.92999,11-11ZM36.83002,37.04999l-5.99998,8.99996c-.2426.36391-.76257.56228-1.20004.38004-.44-.16998-.69-.63-.62-1.09003l.81-4.83997h-2.82001c-.33002,0-.64001-.16003-.82001-.42999-.19-.27002-.22998-.61005-.12-.92004l3-8c.15002-.38995.52002-.64996.94-.64996h5c.33002,0,.64001.16998.83002.44.17999.26996.21997.62.09998.92999l-1.45001,3.63h1.52002c.37,0,.71002.20001.88.52997.17999.32001.15997.72003-.04999,1.02002Z"/>
      </g>
    </g>
  </g>
</svg>