<?xml version="1.0" encoding="utf-8"?>
<!-- Generator: Adobe Illustrator 28.2.0, SVG Export Plug-In . SVG Version: 6.00 Build 0)  -->
<svg version="1.1" id="Glyph" xmlns="http://www.w3.org/2000/svg" xmlns:xlink="http://www.w3.org/1999/xlink" x="0px" y="0px"
	 viewBox="0 0 64 64" enable-background="new 0 0 64 64" xml:space="preserve">
<g>
	<path d="M57,23v4c0,2.40997-1.71997,4.42999-4,4.89996V48c0,1.64996-1.34998,3-3,3h-7v2c0,0.54999-0.45001,1-1,1H8
		c-0.54999,0-1-0.45001-1-1v-8c0-0.54999,0.45001-1,1-1h4c0.54999,0,1,0.45001,1,1v3h24v-3c0-0.54999,0.45001-1,1-1h4
		c0.54999,0,1,0.45001,1,1v4h7c0.54999,0,1-0.45001,1-1V31.89996C48.71997,31.42999,47,29.40997,47,27v-4c0-0.54999,0.45001-1,1-1h1
		v-2c0-0.54999,0.45001-1,1-1s1,0.45001,1,1v2h2v-2c0-0.54999,0.45001-1,1-1s1,0.45001,1,1v2h1C56.54999,22,57,22.45001,57,23z"/>
	<path d="M18,46h14c1.6543,0,3-1.3457,3-3V30.10315l-3.7832,0.37244c-2.13477,0.35645-4.41602,0.17676-6.5332-0.52637
		c-1.78711-0.5957-3.71191-0.75391-5.57617-0.45312L15,30.7417V43C15,44.6543,16.3457,46,18,46z M22.16797,38.44531l2-3
		c0.30566-0.45996,0.9248-0.58398,1.38672-0.27734c0.45996,0.30664,0.58398,0.92676,0.27734,1.38672L24.86816,38H27
		c0.36914,0,0.70801,0.20312,0.88184,0.52832s0.1543,0.71973-0.0498,1.02637c0,0-2,3-2.00004,3.00006
		c-0.30487,0.458-0.92963,0.58023-1.38667,0.27728c-0.45996-0.30664-0.58398-0.92676-0.27734-1.38672L25.13184,40H23
		c-0.36914,0-0.70801-0.20312-0.88184-0.52832S21.96387,38.75195,22.16797,38.44531z"/>
	<path d="M18.7168,27.5332c2.20215-0.36719,4.4834-0.1875,6.59961,0.51855c1.80762,0.60156,3.75879,0.75488,5.63867,0.44238
		L35,28.09412V17c0-1.6543-1.3457-3-3-3H18c-1.6543,0-3,1.3457-3,3v11.65167l3.59082-1.08917
		C18.63184,27.5498,18.67383,27.54004,18.7168,27.5332z"/>
	<path d="M30,12h2v-1c0-0.55273-0.44727-1-1-1H19c-0.55273,0-1,0.44727-1,1v1h2H30z"/>
</g>
</svg>
