<?xml version="1.0" encoding="UTF-8"?>
<svg id="Glyph" xmlns="http://www.w3.org/2000/svg" version="1.1" viewBox="0 0 64 64">
  <polygon points="53 36.61279 53 34.7207 41 38.7207 41 40.6123 53 36.61279" fill="#000" stroke-width="0"/>
  <path d="M32.33057,14.05566c-.21387-.07422-.44727-.07422-.66113,0l-19.69397,6.89288,20.02454,6.00751,20.02423-6.00745-19.69366-6.89294Z" fill="#000" stroke-width="0"/>
  <path d="M11,28.61316l13.31641,4.4386c.52393.17383.80713.74023.63232,1.26465-.13965.41895-.52979.68359-.94873.68359-.10449,0-.21143-.0166-.31641-.05176l-12.68359-4.22766v1.89264l13.31641,4.43854c.4082.13574.68359.51758.68359.94824v3.99994c0,.65039-.69934,1.15784-1.31641.9483l-12.68359-4.22784v3.2796c0,.4248.26855.80371.66943.94434l19.33057,6.76569v-20.96588l-20-6v5.86902Z" fill="#000" stroke-width="0"/>
  <polygon points="23 38.7207 11 34.7207 11 36.61279 23 40.6123 23 38.7207" fill="#000" stroke-width="0"/>
  <path d="M53,42v-3.2796s-12.66705,4.22235-12.68359,4.22784c-.28705.09564-.63879.05164-.90143-.13678-.25897-.18726-.41498-.49121-.41498-.81146v-4c0-.43066.27539-.8125.68359-.94824l13.31641-4.43854v-1.89264l-12.68359,4.22766c-.10547.03516-.21191.05176-.31641.05176-.41895,0-.80859-.26465-.94824-.68359-.1748-.52441.1084-1.09082.63184-1.26465l13.31641-4.4386v-5.86902l-20,6v20.96588l19.33008-6.76569c.40137-.14062.66992-.51953.66992-.94434Z" fill="#000" stroke-width="0"/>
  <path d="M16.8374,14.6123l2.1626.27051v1.11716c0,.77192.91261,1.25808,1.55469.83206l6-4c.56-.37333.60563-1.26031,0-1.66406l-5.99996-3.99997c-.624-.416-1.55473.02552-1.55473.832v1h-2.67529c-4.21387,0-7.94092,2.68555-9.27344,6.68359-.13818.41504.00928.87207.36438,1.12802.35503.2565.83664.25001,1.18445-.0118,2.37061-1.77734,5.29395-2.55469,8.2373-2.1875Z" fill="#000" stroke-width="0"/>
  <path d="M56.58496,47.18848c-.35352-.25586-.83594-.25195-1.18457.01172-2.37012,1.77734-5.2959,2.55664-8.2373,2.1875l-2.16309-.27051v-1.11718c0-.78676-.90058-1.26533-1.55469-.83204,0,0-5.97737,3.98491-5.99994,3.99996-.56024.37349-.59188,1.26956-.00006,1.66411,0,0,6,4,6.00004,4.00003.65064.43372,1.55465-.04871,1.55465-.83206v-1h2.67578c4.21387,0,7.94043-2.68555,9.27246-6.68359.13867-.41504-.00879-.87207-.36328-1.12793Z" fill="#000" stroke-width="0"/>
</svg>