<?xml version="1.0" encoding="UTF-8"?>
<svg xmlns="http://www.w3.org/2000/svg" version="1.1" viewBox="0 0 64 64">
  <!-- Generator: Adobe Illustrator 28.7.1, SVG Export Plug-In . SVG Version: 1.2.0 Build 142)  -->
  <g>
    <g id="Glyph">
      <g>
        <path d="M36.41113,30.98828c-.59708.19936-1.32455.59004-1.87891.0791-.26758-.24805-.37891-.62207-.29053-.97559.95508-3.82129.30615-7.92773-1.78125-11.2666l-.77393-1.23926c-4.65771,4.65332-11.53467,12.77344-11.53467,17.56641,0,6.5332,5.31494,11.84766,11.84814,11.84766s11.84814-5.31445,11.84814-11.84766c0-1.83105-1.03223-5.31934-2.61133-8.21289-1.01855,1.89355-2.72412,3.34863-4.82568,4.04883Z"/>
        <path d="M32,7c-13.78516,0-25,11.21484-25,25s11.21484,25,25,25,25-11.21484,25-25S45.78516,7,32,7ZM32,53c-11.57959,0-21-9.4209-21-21,0-.55273.44775-1,1-1s1,.44727,1,1c0,10.47656,8.52344,19,19,19,.55225,0,1,.44727,1,1s-.44775,1-1,1ZM32,49c-7.63574,0-13.84814-6.21191-13.84814-13.84766,0-6.96582,10.85352-17.77637,13.0293-19.87207.2168-.20898.51318-.30957.81641-.27246.29932.03711.56592.20703.72559.46191l1.43359,2.29492c2.05078,3.28125,2.88086,7.21484,2.36719,11.02734,1.76221-.83496,3.06104-2.40625,3.54199-4.33008.09521-.38086.40381-.6709.79004-.74121.38428-.07617.77734.09082,1.00098.41211,2.16357,3.11035,3.99121,8.15723,3.99121,11.01953,0,7.63574-6.2124,13.84766-13.84814,13.84766ZM52,33c-.55225,0-1-.44727-1-1,0-10.47656-8.52344-19-19-19-.55225,0-1-.44727-1-1s.44775-1,1-1c11.57959,0,21,9.4209,21,21,0,.55273-.44775,1-1,1Z"/>
      </g>
    </g>
  </g>
</svg>