<?xml version="1.0" encoding="UTF-8"?>
<svg id="Glyph" xmlns="http://www.w3.org/2000/svg" version="1.1" viewBox="0 0 48 48">
  <path d="M31.69425,16.21289l-.19434-.37793-.19434.37793c-.14551.2832-.41699.48047-.73047.53125l-.41992.06738.2998.30176c.22461.22559.32812.54395.2793.8584l-.06543.4209.37891-.19238c.14258-.07129.29688-.10742.45215-.10742s.30957.03613.45215.10742l.37891.19238-.06543-.4209c-.04883-.31445.05469-.63281.2793-.8584l.2998-.30176-.41992-.06738c-.31348-.05078-.58496-.24805-.73047-.53125Z" fill="#000" stroke-width="0"/>
  <path d="M41.30362,10.4043c-.17285-.23242-.4375-.37891-.72656-.40137l-9.89062-.76074c-2.24902-.17188-4.44922.34863-6.37598,1.50586-1.36621.81934-2.92969,1.25195-4.52148,1.25195h-8.28906v-1.18427c1.1615-.41412,2-1.51379,2-2.81573,0-1.6543-1.3457-3-3-3s-3,1.3457-3,3c0,1.30194.8385,2.40155,2,2.81567v26.18433h-2c-.55225,0-1,.44727-1,1v4c0,.55273.44775,1,1,1h6c.55225,0,1-.44727,1-1v-4c0-.55273-.44775-1-1-1h-2v-5h8.28906c1.9541,0,3.87305-.53125,5.55029-1.53711,1.5708-.94238,3.37061-1.36621,5.19385-1.22656l9.88965.76074c.32715.02148.625-.10254.83301-.3418.20703-.23926.28906-.5625.2207-.87207l-1.95215-8.7832,1.95215-8.7832c.0625-.2832-.00098-.5791-.17285-.8125ZM35.01066,17.46973l-.69141.69531.15137.96973c.08496.53906-.1377,1.07617-.58105,1.39941-.25488.18555-.55469.28027-.85645.28027-.22363,0-.44824-.05176-.65625-.15723l-.87695-.44336-.875.44336c-.49219.24707-1.07129.20117-1.51465-.12305-.44336-.32324-.66602-.86035-.58105-1.40137l.15137-.96777-.69238-.69629c-.38672-.38867-.52246-.9541-.35254-1.47656.16992-.52148.61133-.89941,1.15332-.98633l.96777-.15625.44824-.87207c.24902-.48828.74609-.79102,1.29492-.79102s1.04492.30273,1.29492.79102h.00098l.44727.87207.96875.15625c.54102.08691.98242.46484,1.15234.98633.16992.52246.03418,1.08789-.35352,1.47754Z" fill="#000" stroke-width="0"/>
</svg>