<?xml version="1.0" encoding="utf-8"?>
<!-- Generator: Adobe Illustrator 27.3.1, SVG Export Plug-In . SVG Version: 6.00 Build 0)  -->
<svg version="1.1" id="Glyph" xmlns="http://www.w3.org/2000/svg" xmlns:xlink="http://www.w3.org/1999/xlink" x="0px" y="0px"
	 viewBox="0 0 48 48" enable-background="new 0 0 48 48" xml:space="preserve">
<g>
	<path d="M41.92086,26.11736c-0.60963-0.32289-1.37629-0.3471-2.02084,0.08265L39,26.79999l-1.90002-1.26001
		c-0.66998-0.45001-1.52997-0.45001-2.19995,0L33,26.79999l-1.90002-1.26001C31.07001,25.51996,31.03003,25.5,31,25.47998V28
		c0,1.64996-1.34998,3-3,3H12c-1.65002,0-3-1.35004-3-3v-1.21002l-0.89001-0.58002C7.5,25.79999,6.71997,25.75,6.07001,26.09998
		C5.40997,26.45001,5,27.12,5,27.87v7.83246l2.66602-2.29401c0.73993-0.63763,1.95117-0.49323,2.62012,0.1748L12,35.29712
		l1.58594-1.58594c0.7793-0.7793,2.04883-0.7793,2.82812,0L18,35.29712l1.58594-1.58594c0.7793-0.7793,2.04883-0.7793,2.82812,0
		L24,35.29712l1.58594-1.58594c0.7793-0.7793,2.04883-0.7793,2.82812,0L30,35.29712l1.58594-1.58594
		c0.7793-0.7793,2.04883-0.7793,2.82812,0L36,35.29712c0,0,1.71204-1.71204,1.71289-1.71289
		c0.66626-0.66626,1.86853-0.80389,2.61523-0.18164L43,35.66461c0,0,0-7.78891,0-7.79461
		C43,27.08523,42.54192,26.4463,41.92086,26.11736z"/>
	<path d="M37.41406,36.71118c-0.7793,0.7793-2.04883,0.7793-2.82812,0L33,35.12524l-1.58594,1.58594
		c-0.7793,0.7793-2.04883,0.7793-2.82812,0L27,35.12524l-1.58594,1.58594c-0.7793,0.7793-2.04883,0.7793-2.82812,0L21,35.12524
		l-1.58594,1.58594c-0.7793,0.7793-2.04883,0.7793-2.82812,0L15,35.12524l-1.58594,1.58594c-0.7793,0.7793-2.04883,0.7793-2.82812,0
		l-1.70801-1.70703L5,38.34082V40c0,0.54999,0.45001,1,1,1h36c0.54999,0,1-0.45001,1-1v-1.71362l-3.87793-3.28418L37.41406,36.71118
		z"/>
	<path d="M9.43945,16.82788c0.27441,0.18555,0.625,0.22217,0.93164,0.10059L20,13.0769l9.62891,3.85156
		c0.11914,0.04785,0.24512,0.07129,0.37109,0.07129c0.19727,0,0.39258-0.05811,0.56055-0.17188
		C30.83496,16.64185,31,16.33179,31,15.99976v-4c0-0.40869-0.24902-0.77637-0.62891-0.92871l-10-4
		c-0.23828-0.09473-0.50391-0.09473-0.74219,0l-10,4C9.24902,11.22339,9,11.59106,9,11.99976v4
		C9,16.33179,9.16504,16.64185,9.43945,16.82788z"/>
	<rect x="18" y="22" width="4" height="7"/>
	<path d="M28,29c0.55231,0,1-0.44775,1-1v-9.17999c-0.03998-0.01001-0.08002-0.02002-0.12-0.04004L20,15.22998l-8.89001,3.56
		C11.07001,18.79999,11.03998,18.82001,11,18.82996V28c0,0.55225,0.44769,1,1,1h4v-8c0-0.55225,0.44727-1,1-1h6
		c0.55273,0,1,0.44775,1,1v8H28z"/>
</g>
</svg>
