<?xml version="1.0" encoding="UTF-8"?>
<svg xmlns="http://www.w3.org/2000/svg" version="1.1" viewBox="0 0 64 64">
  <!-- Generator: Adobe Illustrator 28.7.1, SVG Export Plug-In . SVG Version: 1.2.0 Build 142)  -->
  <g>
    <g id="Glyph">
      <g>
        <circle cx="20" cy="51" r="1"/>
        <path d="M20,45c-3.30847,0-6,2.69196-6,6s2.69153,6,6,6,6-2.69196,6-6-2.69153-6-6-6ZM20,54c-1.6543,0-3-1.3457-3-3s1.3457-3,3-3,3,1.3457,3,3-1.3457,3-3,3Z"/>
        <path d="M45,21c3.85974,0,7-3.14026,7-7s-3.14026-7-7-7-7,3.14026-7,7,3.14026,7,7,7ZM45,11c1.6543,0,3,1.3457,3,3s-1.3457,3-3,3-3-1.3457-3-3,1.3457-3,3-3Z"/>
        <circle cx="45" cy="14" r="1"/>
        <path d="M39,29h12c0-1.10461-.89545-2-2-2h-8c-1.10455,0-2,.89539-2,2Z"/>
        <path d="M49,22.06c-1.21002.59998-2.57001.94-4,.94s-2.78998-.34003-4-.94v2.94h8v-2.94Z"/>
        <path d="M54,31H10c-1.65997,0-3,1.33997-3,3v14c0,1.65997,1.34003,3,3,3h2c0-4.41003,3.59003-8,8-8s8,3.58997,8,8h26c1.65997,0,3-1.34003,3-3v-14c0-1.66003-1.34003-3-3-3ZM50,48h-14c-1.65002,0-3-1.35004-3-3s1.34998-3,3-3h14c1.65002,0,3,1.34998,3,3s-1.34998,3-3,3ZM50,40h-14c-1.65002,0-3-1.35004-3-3s1.34998-3,3-3h14c1.65002,0,3,1.34998,3,3s-1.34998,3-3,3Z"/>
        <path d="M50,36h-14c-.55127,0-1,.44824-1,1s.44873,1,1,1h14c.55127,0,1-.44824,1-1s-.44873-1-1-1Z"/>
        <path d="M50,44h-14c-.55127,0-1,.44824-1,1s.44873,1,1,1h14c.55127,0,1-.44824,1-1s-.44873-1-1-1Z"/>
        <path d="M29,29h6v-2c0-3.30859-2.69141-6-6-6h-4v6h4v2Z"/>
        <path d="M23,19c0-1.10004-.90002-2-2-2h-6c-1.09998,0-2,.89996-2,2v10h10v-10ZM19,26h-2c-.54999,0-1-.45001-1-1s.45001-1,1-1h2c.54999,0,1,.45001,1,1s-.45001,1-1,1ZM19,22h-2c-.54999,0-1-.45001-1-1s.45001-1,1-1h2c.54999,0,1,.45001,1,1s-.45001,1-1,1Z"/>
        <path d="M43,56c0,.55225.44769,1,1,1h4c.55231,0,1-.44775,1-1v-3h-6v3Z"/>
      </g>
    </g>
  </g>
</svg>