<?xml version="1.0" encoding="UTF-8"?>
<svg xmlns="http://www.w3.org/2000/svg" version="1.1" viewBox="0 0 48 48">
  <!-- Generator: Adobe Illustrator 28.7.1, SVG Export Plug-In . SVG Version: 1.2.0 Build 142)  -->
  <g>
    <g id="Glyph">
      <g>
        <path d="M10,9.86163c.55225,0,1-.44727,1-1v-2c0-.55273-.44775-1-1-1s-1,.44727-1,1v2c0,.55273.44775,1,1,1Z"/>
        <path d="M12,11.86163h2c.55225,0,1-.44727,1-1s-.44775-1-1-1h-2c-.55225,0-1,.44727-1,1s.44775,1,1,1Z"/>
        <path d="M11,14.86163v-2c0-.55273-.44775-1-1-1s-1,.44727-1,1v2c0,.55273.44775,1,1,1s1-.44727,1-1Z"/>
        <path d="M8,9.86163h-2c-.55225,0-1,.44727-1,1s.44775,1,1,1h2c.55225,0,1-.44727,1-1s-.44775-1-1-1Z"/>
        <path d="M38,9.86163c.55225,0,1-.44727,1-1v-2c0-.55273-.44775-1-1-1s-1,.44727-1,1v2c0,.55273.44775,1,1,1Z"/>
        <path d="M34,11.86163h2c.55225,0,1-.44727,1-1s-.44775-1-1-1h-2c-.55225,0-1,.44727-1,1s.44775,1,1,1Z"/>
        <path d="M38,11.86163c-.55225,0-1,.44727-1,1v2c0,.55273.44775,1,1,1s1-.44727,1-1v-2c0-.55273-.44775-1-1-1Z"/>
        <path d="M42,9.86163h-2c-.55225,0-1,.44727-1,1s.44775,1,1,1h2c.55225,0,1-.44727,1-1s-.44775-1-1-1Z"/>
        <polygon points="33.79657 13.86163 25.8045 13.86163 29.13428 19.18976 33.79657 13.86163"/>
        <polygon points="20.22986 21.86163 24 41.95831 27.77014 21.86163 20.22986 21.86163"/>
        <polygon points="27.1955 19.86163 24 14.74835 20.8045 19.86163 27.1955 19.86163"/>
        <polygon points="12.71448 15.19635 10.38184 19.86163 16.79663 19.86163 12.71448 15.19635"/>
        <polygon points="31.20337 19.86163 37.61816 19.86163 35.28552 15.19635 31.20337 19.86163"/>
        <polygon points="25.58887 42.13837 37.57056 21.86163 29.81317 21.86163 25.58887 42.13837"/>
        <polygon points="10.42944 21.86163 22.41113 42.13837 18.18683 21.86163 10.42944 21.86163"/>
        <polygon points="18.86572 19.18976 22.1955 13.86163 14.20343 13.86163 18.86572 19.18976"/>
      </g>
    </g>
  </g>
</svg>