<?xml version="1.0" encoding="UTF-8"?>
<svg xmlns="http://www.w3.org/2000/svg" version="1.1" viewBox="0 0 48 48">
  <!-- Generator: Adobe Illustrator 28.7.1, SVG Export Plug-In . SVG Version: 1.2.0 Build 142)  -->
  <g>
    <g id="Glyph">
      <g>
        <path d="M41.0007,5h-12c-1.10303,0-2,.89746-2,2v5c0,4.41113,3.58887,8,8,8s8-3.58887,8-8v-5c0-1.10254-.89697-2-2-2Z"/>
        <path d="M38.0007,27.13v-5.59003c-.95001.29999-1.95001.46002-3,.46002s-2.04999-.16003-3-.46002v5.59003c-1.71997.44-3,2.01001-3,3.87v1c0,.54999.45001,1,1,1h10c.54999,0,1-.45001,1-1v-1c0-1.85999-1.28003-3.42999-3-3.87Z"/>
        <path d="M13.6047,9h8c1.10455,0,2-.89545,2-2,0-1.10461-.89545-2-2-2h-8c-1.10455,0-2,.89539-2,2,0,1.10455.89545,2,2,2Z"/>
        <path d="M21.6047,23.74121v-12.74121h-8v2h1.396c.55225,0,1,.44727,1,1s-.44775,1-1,1h-1.396v2h1.396c.55225,0,1,.44727,1,1s-.44775,1-1,1h-1.396v2h1.396c.55225,0,1,.44727,1,1s-.44775,1-1,1h-1.396v.74121l-8.22363,14.80176c-.52197.93945-.50781,2.05273.03711,2.97852s1.51123,1.47852,2.58545,1.47852h19.20166c1.07422,0,2.04102-.55273,2.58594-1.47852.54492-.92676.55859-2.04004.03662-2.97852l-8.22314-14.80176Z"/>
      </g>
    </g>
  </g>
</svg>