<?xml version="1.0" encoding="utf-8"?>
<!-- Generator: Adobe Illustrator 27.3.1, SVG Export Plug-In . SVG Version: 6.00 Build 0)  -->
<svg version="1.1" id="Glyph" xmlns="http://www.w3.org/2000/svg" xmlns:xlink="http://www.w3.org/1999/xlink" x="0px" y="0px"
	 viewBox="0 0 64 64" enable-background="new 0 0 64 64" xml:space="preserve">
<g>
	<path d="M51,7H13c-1.65686,0-3,1.34314-3,3s1.34314,3,3,3h38c1.65686,0,3-1.34314,3-3S52.65686,7,51,7z"/>
	<path d="M26.0791,24.00293c2.14551,0.16846,3.59863,0.73096,5.00391,1.2749c0.72266,0.2793,1.4043,0.54297,2.18359,0.7583
		c3.22455,0.8833,6.92786,0.54376,11.00244-0.98303L44.62988,20H19.37012l0.34265,4.79803
		C21.85333,24.10913,23.98975,23.83875,26.0791,24.00293z"/>
	<circle cx="26" cy="32" r="1"/>
	<path d="M32.73535,27.96436c-0.87695-0.24219-1.6377-0.53662-2.37402-0.82129c-1.3291-0.51465-2.58496-1.00049-4.43945-1.146
		c-1.97302-0.15826-4.01019,0.15491-6.06073,0.87903L21.65527,52h20.68945l1.76813-24.75995
		c-2.49725,0.84949-4.87878,1.28143-7.12067,1.28143C35.51172,28.52148,34.0918,28.33594,32.73535,27.96436z M30,35
		c0.55231,0,1,0.44769,1,1c0,0.55225-0.44769,1-1,1s-1-0.44775-1-1C29,35.44769,29.44769,35,30,35z M23,32c0-1.6543,1.3457-3,3-3
		s3,1.3457,3,3s-1.3457,3-3,3S23,33.6543,23,32z M39,50H25c-0.55273,0-1-0.44727-1-1s0.44727-1,1-1h14c0.55273,0,1,0.44727,1,1
		S39.55273,50,39,50z M39,46H25c-0.55273,0-1-0.44727-1-1s0.44727-1,1-1h14c0.55273,0,1,0.44727,1,1S39.55273,46,39,46z M39,42H25
		c-0.55273,0-1-0.44727-1-1s0.44727-1,1-1h14c0.55273,0,1,0.44727,1,1S39.55273,42,39,42z M39,31c0.55231,0,1,0.44769,1,1
		c0,0.55225-0.44769,1-1,1s-1-0.44775-1-1C38,31.44769,38.44769,31,39,31z M36,38c-0.55231,0-1-0.44775-1-1c0-0.55231,0.44769-1,1-1
		s1,0.44769,1,1C37,37.55225,36.55231,38,36,38z"/>
	<path d="M16.00293,56.07129C16.04004,56.59473,16.47559,57,17,57h30c0.52441,0,0.95996-0.40527,0.99707-0.92871L50.93073,15
		H13.06927L16.00293,56.07129z M17.56445,18.31836C17.75293,18.11523,18.01855,18,18.2959,18c0,0,27.26752,0,27.40765,0
		c0.54199,0,1.04108,0.4848,0.99762,1.07129l-2.42871,34C44.23535,53.59473,43.7998,54,43.27539,54H20.72461
		c-0.52441,0-0.95996-0.40527-0.99707-0.92871l-2.42871-34C17.27832,18.79443,17.375,18.52148,17.56445,18.31836z"/>
</g>
</svg>
