<?xml version="1.0" encoding="UTF-8"?>
<svg xmlns="http://www.w3.org/2000/svg" version="1.1" viewBox="0 0 64 64">
  <!-- Generator: Adobe Illustrator 28.7.1, SVG Export Plug-In . SVG Version: 1.2.0 Build 142)  -->
  <g>
    <g id="Glyph">
      <g>
        <path d="M53.25256,22.27942l-.15393-.00598c-.53857-.03613-1.01611.40918-1.03809.95996-.02197.55176.4082,1.0166.95996,1.03809l2.82617.11035c.01318.00098.02637.00098.03955.00098.53467,0,.97754-.42285.99854-.96094l.11035-2.8252c.02197-.55176-.4082-1.0166-.95996-1.03809-.53271-.04004-1.0166.40918-1.03809.95996l-.02307.58691c-.5871-.52307-1.20227-1.02222-1.84363-1.49219-4.12402-3.01855-9.01025-4.61328-14.13037-4.61328-.81024,0-1.61829.0553-2.42389.13702.14709-.11627.23376-.18506.23376-.18579,1.89185-1.49139,2.67273-4.13385,1.94189-6.41602-.06006-.20026-.19012-.38037-.36035-.50049-1.97198-1.43134-4.58466-1.37128-6.49664.14014l-2.94305,2.3222,1.00104.29022c2.32495.63611,2.86462,3.75458,1.04089,5.24506-.11511.09406-5.63556,4.46405-5.63556,4.46405-.92682.73444-2.26709.84552-3.30347.28027l-3.5036-2.09198-7.58777,5.96564c-.42047.33026-.51056.93085-.20026,1.36127,1.15118,1.62146,2.83295,2.66241,4.75494,2.94275,1.91193.27026,3.84387-.28033,5.35547-1.46143,0,0,7.65198-6.01721,12.35114-9.7157,1.8877-.51086,3.82837-.77722,5.77545-.77722,4.69238,0,9.17041,1.46191,12.94873,4.22656.45325.33221.87988.69165,1.30383,1.05286Z"/>
        <path d="M17,39c0-.53204.03772-1.05621.07574-1.5799l.09515.14044c.30586.45143.93827.57244,1.38916.26758.45703-.30957.57666-.93164.26709-1.38867l-1.58643-2.3418c-.14893-.21973-.37891-.37109-.63916-.42188-.2627-.04883-.53027.00684-.75.1543l-2.34082,1.58594c-.45703.30957-.57666.93164-.26709,1.38867.30957.45801.93066.57715,1.38916.26758l.47607-.32269c-.07141.75812-.10889,1.53711-.10889,2.34515.02979,6.70702,2.89794,13.13962,7.86813,17.64646.39375.35705,1.04446.33713,1.41263-.06931.37109-.40918.34033-1.04199-.06885-1.41309-4.55615-4.12988-7.18457-10.02539-7.21191-16.25879Z"/>
        <path d="M31.97601,47h6.02399v-7h-6.97534c.07251,2.50153.40399,4.88147.95135,7Z"/>
        <path d="M48.09198,47h7.00848c1.06311-2.13037,1.71021-4.49585,1.84888-7h-7.9751c-.06573,2.50372-.37177,4.86237-.88226,7Z"/>
        <path d="M31.02466,38h6.97534v-7h-6.02399c-.54736,2.11853-.87885,4.49847-.95135,7Z"/>
        <path d="M22.89807,47h7.01001c-.5105-2.13763-.81659-4.49628-.88232-7h-7.97656c.13867,2.50415.78577,4.86963,1.84888,7Z"/>
        <path d="M40,22.15521v6.84479h5.40948c-1.28021-3.65698-3.21991-6.23309-5.40948-6.84479Z"/>
        <path d="M32.59052,29h5.40948v-6.84479c-2.18958.61169-4.12927,3.18781-5.40948,6.84479Z"/>
        <path d="M46.02399,31h-6.02399v7h6.97534c-.07251-2.50153-.40399-4.88147-.95135-7Z"/>
        <path d="M21.04919,38h7.97656c.06573-2.50366.37183-4.86237.88232-7h-7.01001c-1.06311,2.13037-1.71021,4.49585-1.84888,7Z"/>
        <path d="M30.466,49h-6.42358c2.54358,3.79163,6.49072,6.55914,11.09009,7.57086-1.9599-1.52112-3.58124-4.1853-4.6665-7.57086Z"/>
        <path d="M35.13239,21.42914c-4.5993,1.01172-8.54639,3.77924-11.08997,7.57086h6.42358c1.08527-3.3855,2.7066-6.04974,4.66638-7.57086Z"/>
        <path d="M42.86865,56.57013c4.59827-1.01233,8.54431-3.7793,11.0874-7.57013h-6.42206c-1.08508,3.38495-2.70599,6.04889-4.66534,7.57013Z"/>
        <path d="M53.95605,29c-2.54309-3.79077-6.48901-6.5578-11.08728-7.57007,1.95935,1.52124,3.5802,4.18524,4.66522,7.57007h6.42206Z"/>
        <path d="M40,47h6.02399c.54736-2.11853.87885-4.49847.95135-7h-6.97534v7Z"/>
        <path d="M40,49v6.84479c2.18958-.61169,4.12927-3.18781,5.40948-6.84479h-5.40948Z"/>
        <path d="M38,55.84479v-6.84479h-5.40948c1.28021,3.65698,3.21991,6.23309,5.40948,6.84479Z"/>
        <path d="M48.09198,31c.5105,2.13763.81653,4.49634.88226,7h7.9751c-.13867-2.50415-.78577-4.86963-1.84888-7h-7.00848Z"/>
        <path d="M10.16235,18.02411c-.25024-.0401-.50049.01996-.71069.16016,0,0-1.992,1.32123-2.00201,1.32123-.47052.3103-.59064.96094-.27032,1.41125,0,0,1.00104,1.43134,1.95203,2.77264.16016-.23022.36035-.44043.59058-.62061l5.40558-4.25397-4.96515-.79071Z"/>
        <path d="M15.66138,14.62274s7.354,4.39215,7.35425,4.39227c.35699.19458.7854.15753,1.10248-.09344,0-.00006,5.59222-4.42627,5.63251-4.45813.5965-.47217.44037-1.53186-.35657-1.75031l-9.11658-2.67084c-.28741-.07825-.59827-.02448-.84265.14807,0,0-3.8634,2.73212-3.87024,2.73694-.59814.42291-.54333,1.34332.0968,1.69543Z"/>
      </g>
    </g>
  </g>
</svg>