<?xml version="1.0" encoding="utf-8"?>
<!-- Generator: Adobe Illustrator 28.3.0, SVG Export Plug-In . SVG Version: 6.00 Build 0)  -->
<svg version="1.1" id="Glyph" xmlns="http://www.w3.org/2000/svg" xmlns:xlink="http://www.w3.org/1999/xlink" x="0px" y="0px"
	 viewBox="0 0 48 48" enable-background="new 0 0 48 48" xml:space="preserve">
<g>
	<circle cx="35" cy="35" r="2"/>
	<path d="M42,16c0.55273,0,1-0.44775,1-1s-0.44727-1-1-1h-2v-2h2c0.55273,0,1-0.44775,1-1s-0.44727-1-1-1h-2
		c0-2.75684-2.24316-5-5-5s-5,2.24316-5,5v18.76025C28.1123,30.2749,27,32.56982,27,35c0,4.41113,3.58887,8,8,8s8-3.58887,8-8
		c0-2.43018-1.1123-4.7251-3-6.23975V28h2c0.55273,0,1-0.44775,1-1s-0.44727-1-1-1h-2v-2h2c0.55273,0,1-0.44775,1-1s-0.44727-1-1-1
		h-2v-2h2c0.55273,0,1-0.44775,1-1s-0.44727-1-1-1h-2v-2H42z M35,39c-2.20605,0-4-1.79443-4-4c0-1.85834,1.27948-3.41083,3-3.85803
		V10c0-0.55225,0.44727-1,1-1s1,0.44775,1,1v21.14197c1.72052,0.4472,3,1.99969,3,3.85803C39,37.20557,37.20605,39,35,39z"/>
	<path d="M16,31c0-0.54999-0.45001-1-1-1H5.15002C5.23999,30.67999,5.38,31.34998,5.56,32H15C15.52002,32,16,31.51996,16,31z"/>
	<path d="M11,27c0-0.54999-0.45001-1-1-1H5.15002C5.06,26.65997,5,27.32001,5,28h5C10.53998,28,11,27.53998,11,27z"/>
	<path d="M14,23c0-0.54999-0.45001-1-1-1H6.26001C5.97998,22.64001,5.75,23.31,5.56,24H13C13.52002,24,14,23.51996,14,23z"/>
	<path d="M28,27.85999V15.32001C25.69,13.84998,22.94,13,20,13c-5.3277,0-10.00397,2.80145-12.66577,7H13c1.6543,0,3,1.3457,3,3
		c0,1.62598-1.37402,3-3,3h-0.18427C12.9278,26.31433,13,26.64764,13,27s-0.0722,0.68567-0.18427,1H15c1.6543,0,3,1.3457,3,3
		c0,1.62598-1.37402,3-3,3H6.26154C8.58185,39.29059,13.86346,43,20,43c2.59003,0,5.03003-0.66003,7.15002-1.81
		C25.79999,39.48999,25,37.33997,25,35C25,32.28998,26.08002,29.73999,28,27.85999z"/>
</g>
</svg>
