<?xml version="1.0" encoding="UTF-8"?>
<svg id="Glyph" xmlns="http://www.w3.org/2000/svg" version="1.1" viewBox="0 0 64 64">
  <path d="M32,25c4.96002,0,9-4.04004,9-9s-4.03998-9-9-9-9,4.03998-9,9,4.03998,9,9,9ZM30,10c.54999,0,1,.45001,1,1s-.45001,1-1,1-1-.45001-1-1,.45001-1,1-1ZM30,13c.54999,0,1,.45001,1,1s-.45001,1-1,1-1-.45001-1-1,.45001-1,1-1ZM27,12c.54999,0,1,.45001,1,1s-.45001,1-1,1-1-.45001-1-1,.45001-1,1-1Z" style="fill: #000; stroke-width: 0px;"/>
  <path d="M15,25h10.67999c-.81-.57001-1.53998-1.23999-2.16998-2-.95001-1.16003-1.67999-2.52002-2.09003-4h-6.41998c-1.65002,0-2.99999,1.34996-3,2.99998-.00001,1.60551,1.34389,3.00002,3,3.00002Z" style="fill: #000; stroke-width: 0px;"/>
  <path d="M52,22c0-1.60517-1.34859-3-3-3h-6.41998c-.41003,1.47998-1.14001,2.83997-2.09003,4-.63.76001-1.35999,1.42999-2.16998,2h10.67999c1.65001,0,2.99998-1.35001,3-3Z" style="fill: #000; stroke-width: 0px;"/>
  <rect x="29" y="45" width="6" height="12" style="fill: #000; stroke-width: 0px;"/>
  <path d="M15,56c0,.54999.45001,1,1,1h11v-13c0-.54999.45001-1,1-1h8c.54999,0,1,.45001,1,1v13h11c.54999,0,1-.45001,1-1v-29H15v29ZM40,31h4c.54999,0,1,.45001,1,1s-.45001,1-1,1h-4c-.54999,0-1-.45001-1-1s.45001-1,1-1ZM40,35h4c.54999,0,1,.45001,1,1s-.45001,1-1,1h-4c-.54999,0-1-.45001-1-1s.45001-1,1-1ZM40,39h4c.54999,0,1,.45001,1,1s-.45001,1-1,1h-4c-.54999,0-1-.45001-1-1s.45001-1,1-1ZM40,43h4c.54999,0,1,.45001,1,1s-.45001,1-1,1h-4c-.54999,0-1-.45001-1-1s.45001-1,1-1ZM40,47h4c.54999,0,1,.45001,1,1s-.45001,1-1,1h-4c-.54999,0-1-.45001-1-1s.45001-1,1-1ZM40,51h4c.54999,0,1,.45001,1,1s-.45001,1-1,1h-4c-.54999,0-1-.45001-1-1s.45001-1,1-1ZM30,31h4c.54999,0,1,.45001,1,1s-.45001,1-1,1h-4c-.54999,0-1-.45001-1-1s.45001-1,1-1ZM30,35h4c.54999,0,1,.45001,1,1s-.45001,1-1,1h-4c-.54999,0-1-.45001-1-1s.45001-1,1-1ZM30,39h4c.54999,0,1,.45001,1,1s-.45001,1-1,1h-4c-.54999,0-1-.45001-1-1s.45001-1,1-1ZM20,31h4c.54999,0,1,.45001,1,1s-.45001,1-1,1h-4c-.54999,0-1-.45001-1-1s.45001-1,1-1ZM20,35h4c.54999,0,1,.45001,1,1s-.45001,1-1,1h-4c-.54999,0-1-.45001-1-1s.45001-1,1-1ZM20,39h4c.54999,0,1,.45001,1,1s-.45001,1-1,1h-4c-.54999,0-1-.45001-1-1s.45001-1,1-1ZM20,43h4c.54999,0,1,.45001,1,1s-.45001,1-1,1h-4c-.54999,0-1-.45001-1-1s.45001-1,1-1ZM20,47h4c.54999,0,1,.45001,1,1s-.45001,1-1,1h-4c-.54999,0-1-.45001-1-1s.45001-1,1-1ZM20,51h4c.54999,0,1,.45001,1,1s-.45001,1-1,1h-4c-.54999,0-1-.45001-1-1s.45001-1,1-1Z" style="fill: #000; stroke-width: 0px;"/>
  <path d="M7,36v20c0,.54999.45001,1,1,1h5v-24.62l-5.45001,2.72998c-.33997.15997-.54999.51001-.54999.89001ZM10,39c.54999,0,1,.45001,1,1s-.45001,1-1,1-1-.45001-1-1,.45001-1,1-1ZM10,43c.54999,0,1,.45001,1,1s-.45001,1-1,1-1-.45001-1-1,.45001-1,1-1ZM10,47c.54999,0,1,.45001,1,1s-.45001,1-1,1-1-.45001-1-1,.45001-1,1-1ZM10,51c.54999,0,1,.45001,1,1s-.45001,1-1,1-1-.45001-1-1,.45001-1,1-1Z" style="fill: #000; stroke-width: 0px;"/>
  <path d="M56.45001,35.10999l-5.45001-2.72998v24.62h5c.54999,0,1-.45001,1-1v-20c0-.38-.21002-.73004-.54999-.89001ZM54,53c-.54999,0-1-.45001-1-1s.45001-1,1-1,1,.45001,1,1-.45001,1-1,1ZM54,49c-.54999,0-1-.45001-1-1s.45001-1,1-1,1,.45001,1,1-.45001,1-1,1ZM54,45c-.54999,0-1-.45001-1-1s.45001-1,1-1,1,.45001,1,1-.45001,1-1,1ZM54,41c-.54999,0-1-.45001-1-1s.45001-1,1-1,1,.45001,1,1-.45001,1-1,1Z" style="fill: #000; stroke-width: 0px;"/>
</svg>