<?xml version="1.0" encoding="UTF-8"?>
<svg xmlns="http://www.w3.org/2000/svg" version="1.1" viewBox="0 0 64 64">
  <!-- Generator: Adobe Illustrator 28.7.1, SVG Export Plug-In . SVG Version: 1.2.0 Build 142)  -->
  <g>
    <g id="Glyph">
      <g>
        <path d="M16,39c-2.21002,0-4,1.78998-4,4s1.78998,4,4,4,4-1.79004,4-4-1.78998-4-4-4ZM16,44c-.54999,0-1-.45001-1-1s.45001-1,1-1,1,.45001,1,1-.45001,1-1,1Z"/>
        <path d="M33,39c-2.21002,0-4,1.78998-4,4s1.78998,4,4,4,4-1.79004,4-4-1.78998-4-4-4ZM33,44c-.54999,0-1-.45001-1-1s.45001-1,1-1,1,.45001,1,1-.45001,1-1,1Z"/>
        <path d="M52,39c-2.21002,0-4,1.78998-4,4s1.78998,4,4,4,4-1.79004,4-4-1.78998-4-4-4ZM52,44c-.54999,0-1-.45001-1-1s.45001-1,1-1,1,.45001,1,1-.45001,1-1,1Z"/>
        <path d="M20,26h-9c-1.65002,0-3,1.34998-3,3v1h12v-4Z"/>
        <path d="M22,31c0,.55225-.44727,1-1,1h-3v2c0,.55225-.44727,1-1,1s-1-.44775-1-1v-2h-2v2c0,.55225-.44727,1-1,1s-1-.44775-1-1v-2h-4v7c0,1.33997.89001,2.47998,2.10999,2.85999.53003-2.77002,2.97003-4.85999,5.89001-4.85999,2.96997,0,5.44,2.15997,5.90997,5h2.09003v-16h-2v5Z"/>
        <path d="M34.71002,17.28998c-.19-.17999-.44-.28998-.71002-.28998h-6c-1.10457,0-2,.89543-2,2v23h1.09003c.46997-2.84003,2.94-5,5.90997-5,2.76001,0,5.09003,1.87,5.78003,4.40997.73999-.53998,1.21997-1.41998,1.21997-2.40997v-16c0-.27002-.10999-.52002-.28998-.71002l-5-5ZM30,34c-.54999,0-1-.45001-1-1s.45001-1,1-1,1,.45001,1,1-.45001,1-1,1ZM37,29c0,.54999-.45001,1-1,1h-6c-.54999,0-1-.45001-1-1v-7c0-.54999.45001-1,1-1h3.34003c.26996,0,.51996.10999.70996.28998l2.66003,2.66003c.17999.19.28998.44.28998.70996v4.34003Z"/>
        <polygon points="31 23 31 28 35 28 35 25.0708 32.92969 23 31 23"/>
        <path d="M17,24h2v-1c0-.55225-.44727-1-1-1h-6c-.55273,0-1,.44775-1,1v1h6Z"/>
        <path d="M49,36v1.81c.88-.52002,1.90002-.81,3-.81s2.12.28998,3,.81v-2.81c0-3.31-2.69-6-6-6h-7v6h6c.54999,0,1,.45001,1,1Z"/>
      </g>
    </g>
  </g>
</svg>