<?xml version="1.0" encoding="UTF-8"?>
<svg xmlns="http://www.w3.org/2000/svg" version="1.1" viewBox="0 0 64 64">
  <!-- Generator: Adobe Illustrator 28.7.1, SVG Export Plug-In . SVG Version: 1.2.0 Build 142)  -->
  <g>
    <g id="Glyph">
      <g>
        <path d="M25,11c.55273,0,1-.44727,1-1v-2c0-.55273-.44727-1-1-1s-1,.44727-1,1v2c0,.55273.44727,1,1,1Z"/>
        <path d="M14.39212,15.37717c.74432-.04665,1.41791-.9812.70847-1.69064l-1.41406-1.41406c-.39062-.39062-1.02344-.39062-1.41406,0s-.39062,1.02344,0,1.41406c0,0,1.411,1.411,1.41437,1.41437.21227.21226.46254.29149.70528.27627Z"/>
        <path d="M10,24h-2c-.55273,0-1,.44727-1,1s.44727,1,1,1h2c.55273,0,1-.44727,1-1s-.44727-1-1-1Z"/>
        <path d="M35.60644,15.3804c.26047-.00006.52076-.09355.70704-.27981l1.41406-1.41406c.39062-.39062.39062-1.02344,0-1.41406s-1.02344-.39062-1.41406,0l-1.41403,1.41403c-.61176.61176-.13915,1.69409.70699,1.69391Z"/>
        <path d="M40,26h2c.55273,0,1-.44727,1-1s-.44727-1-1-1h-2c-.55273,0-1,.44727-1,1s.44727,1,1,1Z"/>
        <path d="M56,41h-2c-1.12994,0-2.16174.39099-3,1.02557v-1.12616l1.12109-1.12109c1.94922-1.94922,1.94922-5.12207,0-7.07129l-1.41406-1.41406c-.39062-.39062-1.02344-.39062-1.41406,0l-1.41406,1.41406c-1.94922,1.94922-1.94922,5.12207,0,7.07129l1.12109,1.12109v1.12616c-.83826-.63458-1.87006-1.02557-3-1.02557h-2c-.55273,0-1,.44727-1,1v2c0,2.75684,2.24316,5,5,5h1v5c0,.55176-.44824,1-1,1h-21c-.55176,0-1-.44824-1-1v-6h1c1.6543,0,3-1.3457,3-3h-10c0,1.6543,1.3457,3,3,3h1v6c0,1.6543,1.3457,3,3,3h21c1.6543,0,3-1.3457,3-3v-5h1c2.75684,0,5-2.24316,5-5v-2c0-.55273-.44727-1-1-1Z"/>
        <path d="M24,38v-5.10107c-2.2793-.46466-4-2.4845-4-4.89893,0-.55273.44727-1,1-1s1,.44727,1,1c0,1.6543,1.3457,3,3,3s3-1.3457,3-3c0-.55273.44727-1,1-1s1,.44727,1,1c0,2.41443-1.7207,4.43427-4,4.89893v5.10107h5.03748c.17133-1.59235.92731-3.10187,2.13342-4.22266,2.43359-2.26172,3.8291-5.46094,3.8291-8.77734,0-3.41016-1.45898-6.6709-4.00293-8.94629-2.54102-2.27344-5.95996-3.35547-9.375-2.97656-5.26465.58789-9.66992,4.80176-10.47461,10.02051-.61426,3.97656.68945,7.83398,3.57715,10.58203,1.28101,1.2179,2.05847,2.73126,2.23578,4.32031h5.03961Z"/>
        <path d="M33,41.5c0-.82843-.67157-1.5-1.5-1.5h-13c-.82843,0-1.5.67157-1.5,1.5s.67157,1.5,1.5,1.5h13c.82843,0,1.5-.67157,1.5-1.5Z"/>
      </g>
    </g>
  </g>
</svg>