<?xml version="1.0" encoding="utf-8"?>
<!-- Generator: Adobe Illustrator 28.2.0, SVG Export Plug-In . SVG Version: 6.00 Build 0)  -->
<svg version="1.1" id="Glyph" xmlns="http://www.w3.org/2000/svg" xmlns:xlink="http://www.w3.org/1999/xlink" x="0px" y="0px"
	 viewBox="0 0 64 64" enable-background="new 0 0 64 64" xml:space="preserve">
<g>
	<path d="M32,27c-6.6167,0-12,5.38281-12,12s5.3833,12,12,12s12-5.38281,12-12S38.6167,27,32,27z M29.51562,46.28418h-2.55957
		c-1.23779,0-2.34766-0.64062-2.96924-1.71387c-0.62207-1.07422-0.62549-2.3584-0.0083-3.43359l0.62067-1.09338l-0.94635,0.15784
		c-0.55078,0.09375-1.06006-0.27832-1.15088-0.82227c-0.09082-0.54492,0.27734-1.05957,0.82178-1.15039l3-0.5
		c0.49854-0.08594,0.96826,0.21094,1.11816,0.68555c0,0,0.82994,2.62896,0.833,2.63865
		c0.19678,0.62333-0.29863,1.30081-0.95409,1.30081c-0.42432,0-0.81836-0.27246-0.95312-0.69922l-0.13715-0.43433l-0.5152,0.90796
		c-0.25977,0.45312-0.2583,0.99023,0.00244,1.44043c0.25977,0.44824,0.72266,0.71582,1.23828,0.71582h2.55957
		c0.55225,0,1,0.44727,1,1S30.06787,46.28418,29.51562,46.28418z M31.26367,32.40137l-1.80957,3.16895
		c-0.27295,0.47949-0.8833,0.64844-1.36426,0.37207c-0.47949-0.27344-0.646-0.88477-0.37207-1.36426l1.81006-3.16992
		c0.62256-1.08594,1.73926-1.7334,2.98779-1.7334c1.24902,0,2.36572,0.64746,2.98779,1.73242l1.81055,3.1709
		c0.04742,0.08307,0.06482,0.17267,0.08649,0.26117l0.38031-0.89496c0.21582-0.50879,0.80078-0.74707,1.31152-0.5293
		c0.5083,0.21582,0.74512,0.80273,0.5293,1.31055c0,0-1.14578,2.69688-1.14843,2.70311
		c-0.18682,0.43973-0.73679,0.70871-1.21436,0.56544l-2.88867-0.88867c-0.52783-0.16309-0.82422-0.72266-0.66162-1.25
		c0.16211-0.52832,0.72314-0.8252,1.24951-0.66211l0.49066,0.15106l-1.68109-2.94403
		c-0.26025-0.4541-0.72852-0.72559-1.25195-0.72559C31.99268,31.6748,31.52441,31.94629,31.26367,32.40137z M41.04492,44.57031
		c-0.62158,1.07324-1.73145,1.71387-2.96924,1.71387h-2.12219l0.33264,0.31445c0.40135,0.37889,0.41895,1.01167,0.03959,1.41304
		c-0.36277,0.38382-1.01417,0.41734-1.41361,0.04008l-2.04639-1.93457c-0.20117-0.19043-0.31445-0.45508-0.31299-0.73242
		s0.11816-0.54102,0.32129-0.72852l2.29639-2.12109c0.40625-0.37402,1.03955-0.34961,1.41309,0.05566
		c0.375,0.40625,0.34961,1.03809-0.05566,1.41309l-0.30334,0.28027h1.8512c0.51562,0,0.97852-0.26758,1.23828-0.71582
		c0.26074-0.4502,0.26221-0.9873,0.00488-1.43555l-0.7627-1.34473c-0.27246-0.48047-0.104-1.09082,0.37598-1.36328
		s1.09082-0.10449,1.36328,0.37695l0.76025,1.33984C41.67041,42.21191,41.66699,43.49609,41.04492,44.57031z"/>
	<path d="M54.99951,27.05664L33,19.29205V15h1c2.75684,0,5-2.24316,5-5V8c0-0.55273-0.44775-1-1-1h-2
		c-1.6413,0-3.08777,0.80573-4,2.03094C31.08777,7.80573,29.6413,7,28,7h-2c-0.55225,0-1,0.44727-1,1v2c0,2.75684,2.24316,5,5,5h1
		v4.29205L9.00049,27.05664c-0.52051,0.18457-0.79395,0.75586-0.60986,1.27637s0.75391,0.79102,1.27588,0.61035L14,27.41382V56
		c0,0.55273,0.44775,1,1,1h34c0.55225,0,1-0.44727,1-1V27.41382c0,0,4.3335,1.52954,4.33362,1.52958
		c0.51858,0.17891,1.09161-0.08971,1.27576-0.61039C55.79346,27.8125,55.52002,27.24121,54.99951,27.05664z M32,53
		c-7.71973,0-14-6.28027-14-14s6.28027-14,14-14s14,6.28027,14,14S39.71973,53,32,53z"/>
	<path d="M41.70703,15.70703L42,15.41406V19c0,0.55273,0.44775,1,1,1s1-0.44727,1-1v-3.58594c0,0,0.29279,0.29278,0.29297,0.29297
		c0.37017,0.37017,1.01847,0.39559,1.41406,0c0.39062-0.39062,0.39062-1.02344,0-1.41406l-2-2
		c-0.39062-0.39062-1.02344-0.39062-1.41406,0l-2,2c-0.39062,0.39062-0.39062,1.02344,0,1.41406
		S41.31641,16.09766,41.70703,15.70703z"/>
	<path d="M19.70703,15.70703L20,15.41406V19c0,0.55273,0.44775,1,1,1s1-0.44727,1-1v-3.58594c0,0,0.29234,0.29234,0.29297,0.29297
		c0.36705,0.36705,1.02489,0.38918,1.41406,0c0.39062-0.39062,0.39062-1.02344,0-1.41406l-2-2
		c-0.39062-0.39062-1.02344-0.39062-1.41406,0l-2,2c-0.39062,0.39062-0.39062,1.02344,0,1.41406
		S19.31641,16.09766,19.70703,15.70703z"/>
</g>
</svg>
