<?xml version="1.0" encoding="UTF-8"?>
<svg id="Glyph" xmlns="http://www.w3.org/2000/svg" version="1.1" viewBox="0 0 48 48">
  <path d="M25.5,17.32001v-3.32001h-6v3.32001c.96997-.21002,1.96997-.32001,3-.32001s2.03003.10999,3,.32001Z" fill="#000" stroke-width="0"/>
  <path d="M10.8949,28h23.21021c-1.33734-5.16724-6.02557-9-11.6051-9s-10.26776,3.83276-11.6051,9ZM16.13623,24.63623c3.50879-3.50879,9.21875-3.50879,12.72754,0,.39062.39062.39062,1.02344,0,1.41406-.19531.19531-.45117.29297-.70703.29297s-.51172-.09766-.70703-.29297c-2.72949-2.72949-7.16992-2.72949-9.89941,0-.39062.39062-1.02344.39062-1.41406,0s-.39062-1.02344,0-1.41406Z" fill="#000" stroke-width="0"/>
  <path d="M22.5,43c5.57953,0,10.2677-3.83282,11.6051-9H10.8949c1.3374,5.16718,6.02557,9,11.6051,9Z" fill="#000" stroke-width="0"/>
  <path d="M10.55066,30c-.02747.33057-.05066.66248-.05066,1s.02319.66943.05066,1h23.89868c.02747-.33057.05066-.66248.05066-1s-.02319-.66943-.05066-1H10.55066Z" fill="#000" stroke-width="0"/>
  <path d="M19.5,12h6c.55231,0,1-.44775,1-1v-6h-8v6c0,.55225.44769,1,1,1ZM22.5,8c.55231,0,1,.44769,1,1,0,.55225-.44769,1-1,1s-1-.44775-1-1c0-.55231.44769-1,1-1Z" fill="#000" stroke-width="0"/>
  <path d="M36.5,5h-8v6h7v9c0,.55225.44775,1,1,1h4c.55225,0,1-.44775,1-1v-10c0-2.75684-2.24316-5-5-5Z" fill="#000" stroke-width="0"/>
  <path d="M14.35797,10h2.14203v-2h-2.14203c-.44727-1.72028-1.99969-3-3.85797-3-2.20557,0-4,1.79443-4,4s1.79443,4,4,4c1.85828,0,3.41071-1.27972,3.85797-3Z" fill="#000" stroke-width="0"/>
</svg>