<?xml version="1.0" encoding="UTF-8"?>
<svg xmlns="http://www.w3.org/2000/svg" version="1.1" viewBox="0 0 64 64">
  <!-- Generator: Adobe Illustrator 28.7.1, SVG Export Plug-In . SVG Version: 1.2.0 Build 142)  -->
  <g>
    <g id="Glyph">
      <g>
        <path d="M46,21h-28c-6.06543,0-11,4.93457-11,11v18c0,1.6543,1.3457,3,3,3h1v-17c0-.55273.44727-1,1-1h40c.55273,0,1,.44727,1,1v17h1c1.6543,0,3-1.3457,3-3v-18c0-6.06543-4.93457-11-11-11ZM52,33c-.55273,0-1-.44727-1-1,0-2.75684-2.24316-5-5-5h-28c-2.75684,0-5,2.24316-5,5,0,.55273-.44727,1-1,1s-1-.44727-1-1c0-3.85938,3.14062-7,7-7h28c3.85938,0,7,3.14062,7,7,0,.55273-.44727,1-1,1Z"/>
        <path d="M13,37v16h38v-16H13ZM48,41h-2v2c0,.54999-.45001,1-1,1s-1-.45001-1-1v-2h-28c-.54999,0-1-.45001-1-1s.45001-1,1-1h32c.54999,0,1,.45001,1,1s-.45001,1-1,1Z"/>
        <path d="M24,17h16v2h6v-7c0-.55273-.44727-1-1-1h-26c-.55273,0-1,.44727-1,1v7h6v-2Z"/>
      </g>
    </g>
  </g>
</svg>