<?xml version="1.0" encoding="UTF-8"?>
<svg xmlns="http://www.w3.org/2000/svg" version="1.1" viewBox="0 0 64 64">
  <!-- Generator: Adobe Illustrator 28.7.1, SVG Export Plug-In . SVG Version: 1.2.0 Build 142)  -->
  <g>
    <g id="Glyph">
      <g>
        <path d="M17.38184,27l2.72363-5.44727c.1875-.37305.58202-.59277,1.00391-.54688.41602.0459.75879.3457.86035.75195l2.16797,8.66797.91406-2.74219c.13574-.4082.51758-.68359.94824-.68359h7v-14H13v14h4.38184Z"/>
        <rect x="39" y="17" width="8" height="2"/>
        <circle cx="14" cy="51" r="1"/>
        <path d="M50,50h-12c-.55176,0-1,.44824-1,1s.44824,1,1,1h12c.55176,0,1-.44824,1-1s-.44824-1-1-1Z"/>
        <circle cx="22" cy="51" r="1"/>
        <path d="M35,43h16V13h-16v30ZM39,41h-1c-.55273,0-1-.44727-1-1s.44727-1,1-1h1c.55273,0,1,.44727,1,1s-.44727,1-1,1ZM48,41h-5c-.55273,0-1-.44727-1-1s.44727-1,1-1h5c.55273,0,1,.44727,1,1s-.44727,1-1,1ZM48,37h-5c-.55273,0-1-.44727-1-1s.44727-1,1-1h5c.55273,0,1,.44727,1,1s-.44727,1-1,1ZM48,33h-5c-.55273,0-1-.44727-1-1s.44727-1,1-1h5c.55273,0,1,.44727,1,1s-.44727,1-1,1ZM48,29h-5c-.55273,0-1-.44727-1-1s.44727-1,1-1h5c.55273,0,1,.44727,1,1s-.44727,1-1,1ZM48,25h-5c-.55273,0-1-.44727-1-1s.44727-1,1-1h5c.55273,0,1,.44727,1,1s-.44727,1-1,1ZM37,16c0-.55273.44727-1,1-1h10c.55273,0,1,.44727,1,1v4c0,.55273-.44727,1-1,1h-10c-.55273,0-1-.44727-1-1v-4ZM38,23h1c.55273,0,1,.44727,1,1s-.44727,1-1,1h-1c-.55273,0-1-.44727-1-1s.44727-1,1-1ZM38,27h1c.55273,0,1,.44727,1,1s-.44727,1-1,1h-1c-.55273,0-1-.44727-1-1s.44727-1,1-1ZM38,31h1c.55273,0,1,.44727,1,1s-.44727,1-1,1h-1c-.55273,0-1-.44727-1-1s.44727-1,1-1ZM38,35h1c.55273,0,1,.44727,1,1s-.44727,1-1,1h-1c-.55273,0-1-.44727-1-1s.44727-1,1-1Z"/>
        <circle cx="30" cy="51" r="1"/>
        <path d="M54,7H10c-1.65002,0-3,1.34998-3,3v44c0,1.64996,1.34998,3,3,3h44c1.65002,0,3-1.35004,3-3V10c0-1.65002-1.34998-3-3-3ZM14,54c-1.65002,0-3-1.35004-3-3s1.34998-3,3-3,3,1.34998,3,3-1.34998,3-3,3ZM22,54c-1.65002,0-3-1.35004-3-3s1.34998-3,3-3,3,1.34998,3,3-1.34998,3-3,3ZM30,54c-1.65002,0-3-1.35004-3-3s1.34998-3,3-3,3,1.34998,3,3-1.34998,3-3,3ZM50,54h-12c-1.65002,0-3-1.35004-3-3s1.34998-3,3-3h12c1.65002,0,3,1.34998,3,3s-1.34998,3-3,3ZM53,44c0,.54999-.45001,1-1,1H12c-.54999,0-1-.45001-1-1V12c0-.54999.45001-1,1-1h40c.54999,0,1,.45001,1,1v32Z"/>
        <path d="M33,29v14H13v-14h5c.38,0,.71997-.21002.89001-.54999l1.79999-3.58002,2.34003,9.37c.10999.42999.48999.73999.92999.76001h.03998c.42999,0,.81-.27002.95001-.67999l1.76996-5.32001h6.28003Z"/>
      </g>
    </g>
  </g>
</svg>