<?xml version="1.0" encoding="UTF-8"?>
<svg id="Glyph" xmlns="http://www.w3.org/2000/svg" version="1.1" viewBox="0 0 48 48">
  <path d="M40.00005,35h-6v-2h2.91797c1.4502,0,2.82715-.62842,3.77734-1.72412.79395-.91553,1.21661-2.08014,1.21655-3.27588h-8.91187c-.55225,0-1-.44775-1-1v-4c0-.55225.44775-1,1-1h6.71057c-2.20056-3.03656-5.76892-5-9.71057-5h-1v-2h-6v2h-2c-1.6543,0-3,1.3457-3,3v1h-6.2793l-.77197-2.31641c-.13623-.4082-.51807-.68359-.94873-.68359h-4c-.33203,0-.64209.16455-.82812.43945s-.22363.62402-.10059.93213l1.85156,4.62842-1.85156,4.62842c-.12305.30811-.08545.65723.10059.93213s.49609.43945.82812.43945h4c.43066,0,.8125-.27539.94873-.68359l.77197-2.31641h6.2793v3c0,1.6543,1.3457,3,3,3h2v2h-5c-1.6543,0-3,1.3457-3,3s1.3457,3,3,3h22c1.6543,0,3-1.3457,3-3s-1.3457-3-3-3ZM23.00005,27v-4c0-.55225.44775-1,1-1h4c.55225,0,1,.44775,1,1v4c0,.55225-.44775,1-1,1h-4c-.55225,0-1-.44775-1-1ZM32.00005,35h-7v-2h7v2Z" fill="#000" stroke-width="0"/>
  <path d="M34.00005,24v2h7.60083c-.17975-.69391-.41864-1.36224-.71338-2h-6.88745Z" fill="#000" stroke-width="0"/>
  <rect x="25.00005" y="24" width="2" height="2" fill="#000" stroke-width="0"/>
  <rect x="23.00005" y="7" width="6" height="6" rx="1" ry="1" fill="#000" stroke-width="0"/>
  <path d="M11.00005,12h10v-4h-10c-1.10455,0-2,.89539-2,2,0,1.10455.89545,2,2,2Z" fill="#000" stroke-width="0"/>
  <path d="M43.00005,10c0-1.10461-.89545-2-2-2h-10v4h10c1.10455,0,2-.89545,2-2Z" fill="#000" stroke-width="0"/>
</svg>