<?xml version="1.0" encoding="UTF-8"?>
<svg xmlns="http://www.w3.org/2000/svg" version="1.1" viewBox="0 0 48 48">
  <!-- Generator: Adobe Illustrator 28.7.1, SVG Export Plug-In . SVG Version: 1.2.0 Build 142)  -->
  <g>
    <g id="Glyph">
      <g>
        <path d="M24,23c2.21002,0,4-1.79004,4-4s-1.78998-4-4-4-4,1.78998-4,4,1.78998,4,4,4ZM24,18c.54999,0,1,.45001,1,1s-.45001,1-1,1-1-.45001-1-1,.45001-1,1-1Z"/>
        <path d="M24,13c.79999,0,1.57001.15997,2.27002.44l.46997-5.45001c.14001-1.60999-1.13-2.98999-2.73999-2.98999s-2.88,1.38-2.73999,2.98999l.46997,5.45001c.70001-.28003,1.47003-.44,2.27002-.44Z"/>
        <path d="M27,27h13v-4c0-1.02002-.09998-2.02002-.28998-3h-9.80005c-.31,1.78998-1.39996,3.31-2.90997,4.19v2.81Z"/>
        <path d="M39.19,18c-.77002-2.35004-2.08002-4.51001-3.88-6.31-1.85999-1.86005-4.09998-3.21002-6.56-3.95001,0,.14001-.01001.27997-.02002.41998l-.57001,6.53003c.91003.85999,1.53003,2.01996,1.75,3.31h9.28003Z"/>
        <path d="M19.84003,14.69l-.57001-6.53003c-.01001-.14001-.02002-.28998-.02002-.42999-5,1.53003-8.85999,5.41003-10.45001,10.27002h9.29004c.21997-1.29004.83997-2.45001,1.75-3.31Z"/>
        <path d="M21,24.19c-1.51001-.88-2.59998-2.40002-2.90997-4.19h-9.80005c-.17999.96997-.28998,1.97998-.28998,3v4h13v-2.81Z"/>
        <path d="M23,24.90979v2.09021h2v-2.09021c-.32593.05499-.65857.09021-1,.09021s-.67407-.03522-1-.09021Z"/>
        <path d="M42.27002,29.72998c-.45001-.45001-1.08002-.72998-1.77002-.72998H7.5c-1.38,0-2.5,1.12-2.5,2.5,0,.69.28003,1.32001.72998,1.76996.45001.45001,1.08002.73004,1.77002.73004h3.5v2c0,3.85999,3.14001,7,7,7h12c3.85999,0,7-3.14001,7-7v-2h3.5c1.38,0,2.5-1.12,2.5-2.5,0-.69-.28003-1.32001-.72998-1.77002ZM35,36c0,2.76001-2.23999,5-5,5h-12c-2.76001,0-5-2.23999-5-5v-2h22v2Z"/>
      </g>
    </g>
  </g>
</svg>