<?xml version="1.0" encoding="UTF-8"?>
<svg id="Glyph" xmlns="http://www.w3.org/2000/svg" version="1.1" viewBox="0 0 64 64">
  <path d="M57,44.05499v2c0,.45001-.31.84998-.76001.96997-7.92999,1.98004-16.08002,2.97003-24.23999,2.97003s-16.31-.98999-24.23999-2.97003c-.45001-.12-.76001-.51996-.76001-.96997v-2c0-1.65997,1.34998-3,3-3h44c1.65002,0,3,1.34003,3,3Z" fill="#000" stroke-width="0"/>
  <path d="M51,35.005h1.78741c-.63483-4.49469-2.68488-8.57581-5.78741-11.72345v7.72345c0,2.20605,1.79443,4,4,4Z" fill="#000" stroke-width="0"/>
  <path d="M53,39.005v-1c0-.33588-.02045-.66742-.03589-1h-1.96411c-3.30859,0-6-2.69141-6-6v-9.49927c-1.3147-1.0293-2.75879-1.92126-4.33002-2.63074l1.17004,20.13h11.15997Z" fill="#000" stroke-width="0"/>
  <path d="M17,31.005v-7.72345c-3.10254,3.14764-5.15259,7.22876-5.78741,11.72345h1.78741c2.20557,0,4-1.79395,4-4Z" fill="#000" stroke-width="0"/>
  <path d="M23.33002,18.875c-1.57123.70947-3.01532,1.60144-4.33002,2.63074v9.49927c0,3.30859-2.69141,6-6,6h-1.96411c-.01544.33258-.03589.66412-.03589,1v1h11.15997l1.17004-20.13Z" fill="#000" stroke-width="0"/>
  <polygon points="38.73456 20.005 25.26544 20.005 25.03503 24.005 38.96497 24.005 38.73456 20.005" fill="#000" stroke-width="0"/>
  <circle cx="32" cy="33.005" r="3" fill="#000" stroke-width="0"/>
  <path d="M38.55176,16.83215c-.0918-1.58496-1.40723-2.82715-2.99561-2.82715h-7.1123c-1.58838,0-2.90381,1.24219-2.99561,2.82715l-.06757,1.17285h13.23865l-.06757-1.17285Z" fill="#000" stroke-width="0"/>
  <path d="M39.08002,25.98499c-.03003.01001-.04999.02002-.08002.02002h-14c-.03003,0-.04999-.01001-.08002-.02002l-.75,13.02002h15.66003l-.75-13.02002ZM32,38.005c-2.76001,0-5-2.23999-5-5s2.23999-5,5-5,5,2.23999,5,5-2.23999,5-5,5Z" fill="#000" stroke-width="0"/>
</svg>