<?xml version="1.0" encoding="utf-8"?>
<!-- Generator: Adobe Illustrator 28.2.0, SVG Export Plug-In . SVG Version: 6.00 Build 0)  -->
<svg version="1.1" id="Glyph" xmlns="http://www.w3.org/2000/svg" xmlns:xlink="http://www.w3.org/1999/xlink" x="0px" y="0px"
	 viewBox="0 0 64 64" enable-background="new 0 0 64 64" xml:space="preserve">
<g>
	<path d="M27,16c0-1.6543-1.3457-3-3-3H10c-1.6543,0-3,1.3457-3,3v1h20V16z"/>
	<path d="M27,19H7v14h20V19z M17,30c0,0.55225-0.44775,1-1,1s-1-0.44775-1-1v-3h-2v3c0,0.55225-0.44775,1-1,1s-1-0.44775-1-1v-8
		c0-0.55225,0.44775-1,1-1s1,0.44775,1,1v3h2v-3c0-0.55225,0.44775-1,1-1s1,0.44775,1,1V30z M23,27c0,0.55225-0.44775,1-1,1h-1v1h1
		c0.55225,0,1,0.44775,1,1s-0.44775,1-1,1h-2c-0.55225,0-1-0.44775-1-1v-3c0-0.55225,0.44775-1,1-1h1v-1h-1
		c-0.55225,0-1-0.44775-1-1s0.44775-1,1-1h2c0.55225,0,1,0.44775,1,1V27z"/>
	<rect x="13" y="40" width="8" height="12"/>
	<path d="M44,57c2.20557,0,4-1.79443,4-4h-8C40,55.20557,41.79443,57,44,57z"/>
	<path d="M56,27H45c-0.40869,0-0.77637,0.24902-0.92871,0.62842L40.32263,37H57v-9C57,27.44775,56.55225,27,56,27z"/>
	<polygon points="47,46 47,44 43.5,44 42,46 	"/>
	<path d="M35.22998,43.35999C35.08002,43.53998,35,43.76996,35,44v2h-2c-0.54999,0-1-0.45001-1-1v-6c0-1.65002-1.34998-3-3-3h-2v-1
		H7v19c0,1.64996,1.34998,3,3,3h14c1.65002,0,3-1.35004,3-3V38h2c0.54999,0,1,0.45001,1,1v6c0,1.64996,1.34998,3,3,3h2v2
		c0,0.54999,0.45001,1,1,1h20c0.54999,0,1-0.45001,1-1v-4h-8v1c0,0.54999-0.45001,1-1,1h-8c-0.38,0-0.72998-0.21002-0.89001-0.54999
		c-0.16998-0.34003-0.14001-0.75,0.09003-1.05005l3-4C42.39001,42.14996,42.69,42,43,42h5c0.54999,0,1,0.45001,1,1v1h8v-5H38.87
		L35.22998,43.35999z M23,53c0,0.54999-0.45001,1-1,1H12c-0.54999,0-1-0.45001-1-1V39c0-0.54999,0.45001-1,1-1h10
		c0.54999,0,1,0.45001,1,1V53z"/>
	<path d="M17,7c-2.78534,0-5.18872,1.63922-6.315,4h12.63C22.18872,8.63922,19.78534,7,17,7z"/>
</g>
</svg>
