<?xml version="1.0" encoding="UTF-8"?>
<svg id="Glyph" xmlns="http://www.w3.org/2000/svg" version="1.1" viewBox="0 0 64 64">
  <rect x="7" y="7" width="5" height="50" rx="1" ry="1" fill="#000" stroke-width="0"/>
  <rect x="52" y="7" width="5" height="50" rx="1" ry="1" fill="#000" stroke-width="0"/>
  <rect x="14" y="23" width="36" height="6" fill="#000" stroke-width="0"/>
  <rect x="20" y="9" width="4" height="3" fill="#000" stroke-width="0"/>
  <path d="M29,10c0-.55231-.44769-1-1-1h-2v4c0,.54999-.45001,1-1,1h-6c-.54999,0-1-.45001-1-1v-4h-2c-.54999,0-1,.45001-1,1v11h14v-11Z" fill="#000" stroke-width="0"/>
  <path d="M49,10c0-.54999-.45001-1-1-1h-17v12h18v-11ZM46,19h-5c-.54999,0-1-.45001-1-1s.45001-1,1-1h5c.54999,0,1,.45001,1,1s-.45001,1-1,1Z" fill="#000" stroke-width="0"/>
  <rect x="14" y="47" width="36" height="6" fill="#000" stroke-width="0"/>
  <rect x="20" y="33" width="4" height="3" fill="#000" stroke-width="0"/>
  <path d="M16,33c-.54999,0-1,.45001-1,1v11h14v-11c0-.55231-.44769-1-1-1h-2v4c0,.54999-.45001,1-1,1h-6c-.54999,0-1-.45001-1-1v-4h-2Z" fill="#000" stroke-width="0"/>
  <path d="M48,33h-17v12h18v-11c0-.54999-.45001-1-1-1ZM46,43h-5c-.54999,0-1-.45001-1-1s.45001-1,1-1h5c.54999,0,1,.45001,1,1s-.45001,1-1,1Z" fill="#000" stroke-width="0"/>
</svg>