<?xml version="1.0" encoding="UTF-8"?>
<svg xmlns="http://www.w3.org/2000/svg" version="1.1" viewBox="0 0 64 64">
  <!-- Generator: Adobe Illustrator 28.7.1, SVG Export Plug-In . SVG Version: 1.2.0 Build 142)  -->
  <g>
    <g id="Glyph">
      <g>
        <path d="M45.75,15.73999c-1.54999-5.19-6-8.73999-11.08002-8.73999-2.98999,0-5.84998,1.25-8,3.45001-2.15997-2.20001-5.01996-3.45001-8-3.45001-6.42999,0-11.66998,5.66998-11.66998,12.64001,0,2.95996.95001,5.78998,2.67999,8.03998-.01001.22998-.01001.46997-.01001.67999,0,6.07001,3.97003,11.15997,9.28003,12.35999-.70001-1.82001-1.08002-3.79999-1.08002-5.87v-9.17999c0-1.27002.79999-2.39001,2-2.78998l11.20001-3.73004c.29999-.09998.62-.14996.92999-.14996s.63.04999.92999.14996l11.20001,3.73004c1.20001.39996,2,1.51996,2,2.78998v9.17999c0,2.16998-.41998,4.25-1.19,6.15002h.39001c6.42999,0,11.66998-5.67004,11.66998-12.64001,0-6.81-5.01001-12.38-11.25-12.62Z"/>
        <path d="M45,51c-.57916,0-1.11566.17242-1.57471.45782l-2.42529-1.93878v-5.72437c1.96783-2.46417,3.13336-5.57788,3.13336-8.94916v-9.17889c0-.40192-.25708-.7583-.63806-.88544l-11.20001-3.73334c-.19232-.06384-.39825-.06384-.59058,0l-11.20001,3.73334c-.38098.12714-.63806.48352-.63806.88544v9.17889c0,3.37128,1.16553,6.48499,3.13336,8.94916v5.72437l-2.42529,1.93878c-.45898-.2854-.99554-.45782-1.57471-.45782-1.6543,0-3,1.3457-3,3s1.3457,3,3,3,3-1.3457,3-3c0-.34448-.07025-.67029-.17761-.97864l2.80212-2.24011c.2373-.18994.37549-.47754.37549-.78125v-4.14508c1.6936,1.41339,3.73596,2.43536,6,2.95209v2.37726c-1.1615.41412-2,1.51379-2,2.81573,0,1.6543,1.3457,3,3,3s3-1.3457,3-3c0-1.30194-.8385-2.40161-2-2.81573v-2.37726c2.26404-.51672,4.3064-1.5387,6-2.95209v4.14508c0,.30371.13818.59131.37549.78125l2.80212,2.24011c-.10736.30835-.17761.63416-.17761.97864,0,1.6543,1.3457,3,3,3s3-1.3457,3-3-1.3457-3-3-3ZM32.14215,40c-.55231,0-1-.44775-1-1,0-.55231.44769-1,1-1,.55225,0,1,.44769,1,1,0,.55225-.44775,1-1,1ZM34.19237,36.29299c-.3864.38638-1.02753.3865-1.41405-.00002-.39014-.38965-1.02539-.38965-1.41455,0-.39062.39062-1.02344.39062-1.41406,0s-.39062-1.02344,0-1.41406c1.16943-1.1709,3.07227-1.16992,4.24268,0,.39062.39062.39062,1.02344-.00002,1.41408ZM37.02051,33.46436c-.38678.3863-1.0282.38586-1.41406,0-.94238-.94238-2.19775-1.46143-3.53516-1.46143-1.33789,0-2.59326.51904-3.53564,1.46143-.39062.39062-1.02344.39062-1.41406,0-.39062-.39014-.39062-1.02344,0-1.41406,1.31982-1.32031,3.07764-2.04736,4.94971-2.04736,1.87158,0,3.62939.72705,4.94922,2.04736.39061.39061.39062,1.02388,0,1.41406ZM39.84912,30.63574c-.37542.37541-1.02196.3921-1.41406,0-3.50977-3.50977-9.22021-3.50879-12.72803,0-.39062.39062-1.02344.39062-1.41406,0s-.39062-1.02344,0-1.41406c4.28955-4.28857,11.26758-4.2876,15.55615,0,.39062.39062.39062,1.02343,0,1.41406Z"/>
      </g>
    </g>
  </g>
</svg>