<?xml version="1.0" encoding="UTF-8"?>
<svg xmlns="http://www.w3.org/2000/svg" version="1.1" viewBox="0 0 64 64">
  <!-- Generator: Adobe Illustrator 28.7.1, SVG Export Plug-In . SVG Version: 1.2.0 Build 142)  -->
  <g>
    <g id="Glyph">
      <g>
        <path d="M43.34003,52.65997v2.34003h9c.56,0,1,.45001,1,1s-.44,1-1,1h-20c-.55005,0-1-.45001-1-1s.44995-1,1-1h9v-2.34003c0-3.25-1.22003-6.31-3.44-8.65997h-1.56c-2.75,0-5-2.23999-5-5v-2c0-.54999.44995-1,1-1h2c2.75995,0,5,2.23999,5,5v1.62c1.31995,1.39001,2.32996,2.98999,3,4.72998.67999-1.73999,1.69-3.33997,3-4.72998v-1.62c0-2.76001,2.25-5,5-5h2c.56,0,1,.45001,1,1v2c0,2.76001-2.24005,5-5,5h-1.56c-2.21002,2.35999-3.44,5.40997-3.44,8.65997Z"/>
        <circle cx="42.34314" cy="26" r="1"/>
        <circle cx="42.34314" cy="30" r="1"/>
        <circle cx="42.34314" cy="34" r="1"/>
        <path d="M45.63605,25.29291c-.3905.3905-.3905,1.02368,0,1.41418s1.02368.3905,1.41418,0c.39056-.3905.39056-1.02368,0-1.41418-.3905-.39056-1.02368-.39056-1.41418,0Z"/>
        <path d="M49.87866,29.53552c.39056-.3905.39056-1.02368,0-1.41425-.3905-.3905-1.02368-.3905-1.41418,0-.39056.39056-.39056,1.02374,0,1.41425.3905.3905,1.02368.3905,1.41418,0Z"/>
        <path d="M52.70709,32.36395c.39056-.3905.39056-1.02368,0-1.41425-.3905-.3905-1.02368-.3905-1.41418,0-.39056.39056-.39056,1.02374,0,1.41425.3905.3905,1.02368.3905,1.41418,0Z"/>
        <path d="M37.63605,25.29291c-.3905.3905-.3905,1.02368,0,1.41418s1.02368.3905,1.41418,0c.39056-.3905.39056-1.02368,0-1.41418-.3905-.39056-1.02368-.39056-1.41418,0Z"/>
        <path d="M36.2218,29.53552c.39056-.3905.39056-1.02368,0-1.41425-.3905-.3905-1.02368-.3905-1.41418,0-.3905.39056-.3905,1.02374,0,1.41425s1.02368.3905,1.41418,0Z"/>
        <path d="M33.39337,32.36395c.39056-.3905.39056-1.02368,0-1.41425-.3905-.3905-1.02368-.3905-1.41418,0-.3905.39056-.3905,1.02374,0,1.41425s1.02368.3905,1.41418,0Z"/>
        <path d="M21,7v14h-8v-13c0-.54999.45001-1,1-1h7Z"/>
        <path d="M25,23H9c-1.10455,0-2,.89539-2,2v14c0,1.10455.89545,2,2,2h16c1.10455,0,2-.89545,2-2v-14c0-1.10461-.89545-2-2-2ZM12,39c-.55231,0-1-.44775-1-1,0-.55231.44769-1,1-1s1,.44769,1,1c0,.55225-.44769,1-1,1ZM17,39c-.55231,0-1-.44775-1-1,0-.55231.44769-1,1-1s1,.44769,1,1c0,.55225-.44769,1-1,1ZM22,39c-.55231,0-1-.44775-1-1,0-.55231.44769-1,1-1s1,.44769,1,1c0,.55225-.44769,1-1,1Z"/>
        <path d="M37.34277,22c0,.55225.44727,1,1,1h8c.55273,0,1-.44775,1-1v-1h-10v1Z"/>
        <path d="M13,56c0,.55225.44727,1,1,1h6c.55273,0,1-.44775,1-1v-13h-8v13Z"/>
        <path d="M57,8v10c0,.54999-.45001,1-1,1H23V7h33c.54999,0,1,.45001,1,1Z"/>
      </g>
    </g>
  </g>
</svg>