<?xml version="1.0" encoding="UTF-8"?>
<svg xmlns="http://www.w3.org/2000/svg" version="1.1" viewBox="0 0 64 64">
  <!-- Generator: Adobe Illustrator 28.7.1, SVG Export Plug-In . SVG Version: 1.2.0 Build 142)  -->
  <g>
    <g id="Glyph">
      <g>
        <path d="M32.15234,14.99268H15.84766c-.33496,0-.63672.15869-.8252.43555-.18945.27637-.22852.61475-.10742.92725l2.34863,6.03809c4.27539-1.86035,9.19727-1.86035,13.47266,0l2.34863-6.03809c.12109-.3125.08203-.65088-.10742-.92725-.18848-.27686-.49023-.43555-.8252-.43555Z"/>
        <path d="M35.71002,35.02264l-1.11005-2.01001c-1.16998-2.09998-1.13995-4.59998.08002-6.67999.46002-.76996,1.03998-1.41998,1.71002-1.94l3.33997-8.58997c.60004-1.54004.40002-3.27002-.52997-4.63-.92999-1.37-2.47003-2.17999-4.12-2.17999H12.91998c-1.64996,0-3.19.81-4.12,2.17999-.92999,1.35999-1.13,3.08997-.52997,4.63l3.88995,10.01996c-3.28998,3.20001-5.15997,7.60004-5.15997,12.17004,0,9.37,7.63,17,17,17,3.91998,0,7.71997-1.37,10.72998-3.82001-1.44-2.12-2.27997-4.69-2.27997-7.44,0-3.22003,1.16998-6.31,3.26001-8.71002ZM31.6275,24.68604c-.25751.09674-.55255.09265-.8075-.0434-4.28003-2.19-9.35999-2.19-13.64001,0-.26001.13-.54999.15002-.81.05005-.27002-.10004-.47998-.31-.58002-.57001l-2.73999-7.04004c-.35999-.92999-.23999-1.96997.32001-2.77997.56-.82001,1.48999-1.31,2.47998-1.31h16.30005c.98999,0,1.91998.48999,2.47998,1.31.56.81.67999,1.84998.32001,2.77997,0,0-2.73102,7.01703-2.73999,7.03998-.10437.26825-.32458.46643-.58252.56342Z"/>
        <path d="M45.72363,31.99268c.88574,0,1.77051.09961,2.6416.29736l1.25977-2.26855h-7.80273l1.26074,2.26807c.87012-.19727,1.75586-.29688,2.64062-.29688Z"/>
        <circle cx="45.72363" cy="43.99268" r="6"/>
        <path d="M53.25781,35.354l1.83887-3.31006c.82324-1.4834.80176-3.24121-.05762-4.70264-.86035-1.46143-2.38672-2.33398-4.08301-2.33398h-10.46484c-1.69727,0-3.22363.87256-4.08398,2.33447-.85938,1.46289-.88086,3.2207-.05664,4.70215l1.83789,3.30957c-2.3877,2.14062-3.74121,5.14795-3.74121,8.37695,0,6.21826,5.05859,11.27686,11.27637,11.27686s11.27637-5.05859,11.27637-11.27686c0-3.22852-1.35352-6.23584-3.74219-8.37646ZM39.26074,28.51416c.17969-.30518.50781-.49268.8623-.49268h11.20215c.35449,0,.68262.1875.8623.49268.17969.30566.1836.68311.01172.99316l-2.46289,4.43213c-.17969.32373-.51855.51416-.87402.51416-.09473,0-.19043-.01367-.28516-.0415-1.86914-.55664-3.83789-.55615-5.70703-.00049-.4502.13477-.93164-.0625-1.15918-.47266l-2.46191-4.43164c-.17188-.31006-.16797-.6875.01172-.99316ZM45.72363,51.99268c-4.41114,0-8-3.58887-8-8s3.58886-8,8-8,8,3.58887,8,8-3.58887,8-8,8Z"/>
      </g>
    </g>
  </g>
</svg>