<?xml version="1.0" encoding="utf-8"?>
<!-- Generator: Adobe Illustrator 27.3.1, SVG Export Plug-In . SVG Version: 6.00 Build 0)  -->
<svg version="1.1" id="Glyph" xmlns="http://www.w3.org/2000/svg" xmlns:xlink="http://www.w3.org/1999/xlink" x="0px" y="0px"
	 viewBox="0 0 64 64" enable-background="new 0 0 64 64" xml:space="preserve">
<g>
	<path d="M37.05615,21.57617C35.52686,19.53223,33.8291,17.44629,32,15.36426c-1.8291,2.08203-3.52686,4.16797-5.05615,6.21094
		C21.82129,28.4209,19,34.25391,19,38c0,3.71295,1.573,7.05853,4.0777,9.42969c1.58832-1.38184,4.27057-3.1134,7.9223-3.38892V43h-1
		c-2.75684,0-5-2.24316-5-5c0-0.55273,0.44775-1,1-1h2c1.12994,0,2.16174,0.39099,3,1.02557v-2.29834
		c-1.76105-1.33356-2.96381-3.2345-3.39453-5.42059c-0.46436-2.3584,0.01709-4.75684,1.35645-6.75293l2.22852-3.32227
		c0.30713-0.45801,0.9292-0.58203,1.3877-0.27246c1.99609,1.33887,3.35156,3.375,3.81641,5.73438
		c0.46436,2.3584-0.01709,4.75684-1.35645,6.75293L33,35.48468v1.54089C33.83826,36.39099,34.87006,36,36,36h2
		c0.55225,0,1,0.44727,1,1c0,2.75684-2.24316,5-5,5h-1v2.05237c1.71771,0.15967,5.0484,0.80573,7.95349,3.349
		C43.44037,45.03192,45,41.69781,45,38C45,34.25391,42.17871,28.4209,37.05615,21.57617z"/>
	<path d="M34.43213,26.08008c-0.29639-1.50391-1.05762-2.83887-2.17725-3.84473l-1.63184,2.43262
		c-1.04199,1.55176-1.4165,3.41797-1.05518,5.25195c0.29639,1.50391,1.05762,2.83887,2.17725,3.84473l1.63184-2.43262
		C34.41895,29.78027,34.79346,27.91406,34.43213,26.08008z"/>
	<path d="M24.65948,48.71912C26.75012,50.15533,29.27734,51,32,51c2.73804,0,5.2774-0.85547,7.37494-2.30664
		C36.19696,46.08905,32.45154,46,32,46C28.65417,46,26.17548,47.46851,24.65948,48.71912z"/>
	<path d="M32.70703,7.29297c-0.39062-0.39062-1.02344-0.39062-1.41406,0C30.5459,8.04004,13,25.72656,13,38
		c0,10.47656,8.52344,19,19,19s19-8.52344,19-19C51,25.72656,33.4541,8.04004,32.70703,7.29297z M32,53c-8.271,0-15-6.72852-15-15
		c0-4.17578,2.96289-10.43359,8.34229-17.62305c1.77002-2.36523,3.75977-4.7832,5.91309-7.18652
		c0.37891-0.42383,1.11035-0.42383,1.48926,0c2.15332,2.40332,4.14307,4.82129,5.91309,7.1875C44.03711,27.56641,47,33.82422,47,38
		C47,46.27148,40.271,53,32,53z"/>
	<path d="M27.17139,39c0.4126,1.16406,1.5249,2,2.82861,2h0.82861c-0.4126-1.16406-1.5249-2-2.82861-2H27.17139z"/>
	<path d="M36.82861,38H36c-1.30371,0-2.41602,0.83594-2.82861,2H34C35.30371,40,36.41602,39.16406,36.82861,38z"/>
</g>
</svg>
