<?xml version="1.0" encoding="UTF-8"?>
<svg xmlns="http://www.w3.org/2000/svg" version="1.1" viewBox="0 0 64 64">
  <!-- Generator: Adobe Illustrator 28.7.1, SVG Export Plug-In . SVG Version: 1.2.0 Build 142)  -->
  <g>
    <g id="Glyph">
      <g>
        <path d="M32,11c.55273,0,1-.44775,1-1v-2c0-.55225-.44727-1-1-1s-1,.44775-1,1v2c0,.55225.44727,1,1,1Z"/>
        <path d="M15,32c0-.55225-.44727-1-1-1h-6c-.55273,0-1,.44775-1,1s.44727,1,1,1h6c.55273,0,1-.44775,1-1Z"/>
        <path d="M16.293,17.70706c.38697.38694,1.02746.38654,1.41404-.00003.39062-.39062.39062-1.02344,0-1.41406l-4.24219-4.24268c-.39062-.39062-1.02344-.39062-1.41406,0s-.39062,1.02344,0,1.41406c0,0,4.24219,4.24268,4.24221,4.2427Z"/>
        <path d="M51.94922,12.05029c-.39062-.39062-1.02344-.39062-1.41406,0l-4.24219,4.24268c-.39062.39062-.39062,1.02342-.00002,1.41404.38031.38033,1.03434.37976,1.41408.00002l4.24219-4.24268c.39062-.39062.39062-1.02344,0-1.41406Z"/>
        <path d="M56,31h-6c-.55273,0-1,.44775-1,1s.44727,1,1,1h6c.55273,0,1-.44775,1-1s-.44727-1-1-1Z"/>
        <path d="M20.37109,46.67139l-2.38965-.95557,1.99121-3.18603c.39939-.63905-.06402-1.52979-.84766-1.52979h-5.25c-.3877,0-.74121.22412-.90527.57568l-2.625,5.60009c-.24135.51489.00744,1.14194.53418,1.35304l2.68945,1.07568-1.53809,6.15283c-.11328.45264.10156.92334.51661,1.13428.41263.2091.92565.10375,1.22167-.25147l6.99998-8.39987c.42847-.51415.22033-1.32177-.39744-1.56888Z"/>
        <path d="M53.12109,46.67139l-2.38965-.95557,1.99121-3.18603c.39939-.63905-.06376-1.52978-.84766-1.52979h-5.25c-.3877,0-.74121.22412-.90527.57568l-2.62499,5.60007c-.23997.51195.01232,1.14392.53417,1.35305l2.68945,1.07568-1.53809,6.15283c-.11328.45264.10156.92334.51664,1.13429.38025.19268.96805.12892,1.22165-.25148l6.99998-8.39988c.42933-.51519.22285-1.32075-.39745-1.56887Z"/>
        <path d="M33,31.85803c1.72052-.4472,3-1.99969,3-3.85803,0-.15472-.03754-.32703-.08313-.50281l-2.91687,2.91687v1.44397Z"/>
        <path d="M33,27.58594l1.95209-1.95209c-.54883-.7829-1.24304-1.58716-1.95209-2.31665v4.26874Z"/>
        <path d="M28,28c0,1.85834,1.27948,3.41083,3,3.85803v-1.44397l-2.91675-2.91675c-.04572.17578-.08325.34808-.08325.50269Z"/>
        <path d="M31,27.58594v-4.26746c-.70856.72974-1.4024,1.53387-1.95117,2.31628l1.95117,1.95117Z"/>
        <path d="M39,45h-14c-.55231,0-1,.44769-1,1,0,.55225.44769,1,1,1h14c.55231,0,1-.44775,1-1,0-.55231-.44769-1-1-1Z"/>
        <path d="M32,57c2.20917,0,4-1.79089,4-4h-8c0,2.20911,1.79083,4,4,4Z"/>
        <path d="M39,49h-14c-.55231,0-1,.44769-1,1,0,.55225.44769,1,1,1h14c.55231,0,1-.44775,1-1,0-.55231-.44769-1-1-1Z"/>
        <path d="M32,13c-8.27148,0-15,6.729-15,15,0,5.93164,3.58887,11.36523,9,13.73486v1.26514h12v-1.26514c5.41113-2.36963,9-7.80322,9-13.73486,0-8.271-6.72852-15-15-15ZM32,34c-3.30859,0-6-2.69141-6-6,0-3.13378,4.80564-7.29832,5.35355-7.76272.34628-.2935.94022-.29909,1.29293.00003.54785.46436,5.35352,4.62891,5.35352,7.7627,0,3.30859-2.69141,6-6,6Z"/>
      </g>
    </g>
  </g>
</svg>