<?xml version="1.0" encoding="UTF-8"?>
<svg xmlns="http://www.w3.org/2000/svg" version="1.1" viewBox="0 0 64 64">
  <!-- Generator: Adobe Illustrator 28.7.1, SVG Export Plug-In . SVG Version: 1.2.0 Build 142)  -->
  <g>
    <g id="Glyph">
      <g>
        <path d="M41.25,33.79005c-1.39001-1.44-2.25-3.39001-2.25-5.53998v-.01001l-21.44,9.08997,4.57001,4.57001,19.12-8.10999Z"/>
        <circle cx="47" cy="28.25007" r="1"/>
        <path d="M41,28.25007c0,3.30859,2.69141,6,6,6s6-2.69141,6-6-2.69141-6-6-6-6,2.69141-6,6ZM47,25.25007c1.6543,0,3,1.3457,3,3s-1.3457,3-3,3-3-1.3457-3-3,1.3457-3,3-3Z"/>
        <path d="M39.65997,25.06007c.84003-1.91003,2.40002-3.44,4.34003-4.22003l-4.07001-5.66998c-.15997-.22998-.39996-.37-.66998-.40997-.27002-.04004-.54999.03998-.76001.20996l-3.12,2.5c-.41998.33002-.5.92999-.19,1.35999l4.46997,6.23004Z"/>
        <path d="M53,22.97005v-6.71997c0-.54999-.45001-1-1-1h-4c-.54999,0-1,.45001-1,1v4c2.39001,0,4.53003,1.04999,6,2.71997Z"/>
        <path d="M47,43.25007h6v-9.72003c-1.46997,1.67004-3.60999,2.72003-6,2.72003v7Z"/>
        <path d="M7,45.25007v3c0,.55273.44727,1,1,1h48c.55273,0,1-.44727,1-1v-3H7Z"/>
        <path d="M12.17578,43.25007h8.47852l-9.11719-9.11719c-.38867-.38867-1.02051-.38965-1.41309-.00098l-2.83008,2.82031c-.1875.1875-.29395.44141-.29395.70703s.10547.52051.29297.70801l4.88281,4.88281Z"/>
      </g>
    </g>
  </g>
</svg>