<?xml version="1.0" encoding="UTF-8"?>
<svg xmlns="http://www.w3.org/2000/svg" version="1.1" viewBox="0 0 64 64">
  <!-- Generator: Adobe Illustrator 28.7.1, SVG Export Plug-In . SVG Version: 1.2.0 Build 142)  -->
  <g>
    <g id="Glyph">
      <g>
        <path d="M14,57h36v-26H14v26ZM16,37c0-1.6543,1.3457-3,3-3h26c1.6543,0,3,1.3457,3,3v14c0,1.6543-1.3457,3-3,3h-26c-1.6543,0-3-1.3457-3-3v-14Z"/>
        <rect x="24.5" y="22" width="4" height="2"/>
        <rect x="35.5" y="22" width="4" height="2"/>
        <rect x="46.5" y="22" width="4" height="2"/>
        <rect x="13.5" y="22" width="4" height="2"/>
        <path d="M19,52h26c.55176,0,1-.44824,1-1v-14c0-.55176-.44824-1-1-1h-26c-.55176,0-1,.44824-1,1v14c0,.55176.44824,1,1,1ZM41,39c0-.55273.44727-1,1-1s1,.44727,1,1v10c0,.55273-.44727,1-1,1s-1-.44727-1-1v-10ZM36,39c0-.55273.44727-1,1-1s1,.44727,1,1v10c0,.55273-.44727,1-1,1s-1-.44727-1-1v-10ZM31,39c0-.55273.44727-1,1-1s1,.44727,1,1v10c0,.55273-.44727,1-1,1s-1-.44727-1-1v-10ZM26,39c0-.55273.44727-1,1-1s1,.44727,1,1v10c0,.55273-.44727,1-1,1s-1-.44727-1-1v-10ZM21,39c0-.55273.44727-1,1-1s1,.44727,1,1v10c0,.55273-.44727,1-1,1s-1-.44727-1-1v-10Z"/>
        <path d="M56.41699,18.09082l-24-11c-.26562-.12109-.56836-.12109-.83398,0L7.58301,18.09082c-.35547.16309-.58301.51855-.58301.90918v37c0,.55273.44727,1,1,1h4v-27c0-.55273.44727-1,1-1h38c.55273,0,1,.44727,1,1v27h4c.55273,0,1-.44727,1-1V19c0-.39062-.22754-.74609-.58301-.90918ZM19.5,25c0,.55273-.44727,1-1,1h-6c-.55273,0-1-.44727-1-1v-4c0-.55273.44727-1,1-1h6c.55273,0,1,.44727,1,1v4ZM30.5,25c0,.55273-.44727,1-1,1h-6c-.55273,0-1-.44727-1-1v-4c0-.55273.44727-1,1-1h6c.55273,0,1,.44727,1,1v4ZM41.5,25c0,.55273-.44727,1-1,1h-6c-.55273,0-1-.44727-1-1v-4c0-.55273.44727-1,1-1h6c.55273,0,1,.44727,1,1v4ZM52.5,25c0,.55273-.44727,1-1,1h-6c-.55273,0-1-.44727-1-1v-4c0-.55273.44727-1,1-1h6c.55273,0,1,.44727,1,1v4Z"/>
      </g>
    </g>
  </g>
</svg>