<?xml version="1.0" encoding="UTF-8"?>
<svg xmlns="http://www.w3.org/2000/svg" version="1.1" viewBox="0 0 64 64">
  <!-- Generator: Adobe Illustrator 28.7.1, SVG Export Plug-In . SVG Version: 1.2.0 Build 142)  -->
  <g>
    <g id="Glyph">
      <g>
        <path d="M43.81955,45.45464l-7.78003,1.64001c-.04999.40997-.15002.82001-.28998,1.22003-.84003,2.41998-3.13,4.04999-5.71002,4.04999-.51001,0-1.02002-.07001-1.52002-.20001l-5.94-1.56c-.52997-.14001-.84998-.67999-.70996-1.22003.13995-.52997.69-.84998,1.21997-.70996l5.94,1.56c.33002.08997.66998.13,1.01001.13,2.10236,0,3.81641-1.63763,4.03003-3.70001.12164-1.17487-.45691-2.54657-1.33002-3.33002-.39001-.34998-.84003-.62-1.35999-.79999l-7.11005-2.46997c-.85999-.30005-1.77997-.35004-2.66998-.17004l-4.78998,1.01001,2.45996,11.73999c.11005.5.14001,1.01001.09003,1.51001,2.81.59998,5.66998.91003,8.53998.90002,2.79999,0,5.60004-.28003,8.35004-.86005,0,0,8.99316-1.88647,9.00995-1.88995,1.80353-.37836,3.0874-2.31287,2.71002-4.14001-.38538-1.86597-2.28796-3.09882-4.14996-2.71002Z"/>
        <path d="M14.85495,41.30944c-.33887-1.61816-1.93262-2.66504-3.55127-2.32031l-1.95752.41016c-.78418.16406-1.45752.62402-1.896,1.29492-.43848.66992-.58936,1.47168-.4248,2.25586,0,0,2.45819,11.73425,2.46045,11.74512.32288,1.5412,1.99115,2.6532,3.55127,2.32129l1.95752-.41016c1.61914-.33887,2.66016-1.93262,2.3208-3.55176l-2.46045-11.74512Z"/>
        <path d="M22.6395,37.79466c.78003,0,1.55005.13,2.29004.38l7.10999,2.46997c.75.26001,1.44.67004,2.03998,1.20001.92004.81,1.62,2.02002,1.86005,3.22998l7.46997-1.57996c.35999-.07001.73999-.11005,1.12-.11005.51001,0,1.02002.07001,1.51001.21002v-12.66998h-1.82001c-1.26001,0-2.33997-.78003-2.77997-1.88-.37.14996-.77002.23999-1.19.23999-.07001,0-.14001,0-.21002-.01001v5.65002c0,.31-.15002.60999-.40002.79999-.21997.16998-.57996.26001-.87.15997l-6.72998-1.91998-6.72998,1.91998c-.30005.09003-.62.03003-.87-.15997s-.40002-.48999-.40002-.79999v-9h-5c-.54999,0-1,.45001-1,1v11.67999l3.15002-.66998c.48999-.10004.96997-.14001,1.44995-.14001Z"/>
        <path d="M32.03952,31.92467c.09003,0,.19.01001.27002.03998l5.72998,1.63v-5.27997l-2.39001-2.39001h-9.60999v7.66998l5.72998-1.63c.08002-.02997.17999-.03998.27002-.03998Z"/>
        <circle cx="46.03952" cy="17.92467" r="4"/>
        <path d="M56.03952,15.10631h-1.2666c-.15137-.46875-.34033-.92383-.56592-1.36328l.89648-.89648c.1875-.1875.29297-.44141.29297-.70703s-.10547-.51953-.29297-.70703l-2.57129-2.57129c-.39062-.39062-1.02344-.39062-1.41406,0l-.89697.89648c-.43945-.22559-.89502-.41504-1.36328-.56641v-1.2666c0-.55273-.44775-1-1-1h-3.63672c-.55225,0-1,.44727-1,1v1.2666c-.46826.15137-.92383.34082-1.36328.56641l-.89697-.89648c-.39062-.39062-1.02344-.39062-1.41406,0l-2.57129,2.57129c-.1875.1875-.29297.44141-.29297.70703s.10547.51953.29297.70703l.89648.89648c-.22559.43945-.41455.89453-.56592,1.36328h-1.2666c-.55225,0-1,.44727-1,1v3.63672c0,.55273.44775,1,1,1h1.2666c.15137.46875.34033.92383.56592,1.36328l-.89648.89648c-.1875.1875-.29297.44141-.29297.70703s.10547.51953.29297.70703l2.57129,2.57129c.39062.39062,1.02344.39062,1.41406,0l.89697-.89648c.43945.22559.89502.41504,1.36328.56641v1.2666c0,.55273.44775,1,1,1h3.63672c.55225,0,1-.44727,1-1v-1.2666c.46826-.15137.92383-.34082,1.36328-.56641l.89697.89648c.39062.39062,1.02344.39062,1.41406,0l2.57129-2.57129c.1875-.1875.29297-.44141.29297-.70703s-.10547-.51953-.29297-.70703l-.89648-.89648c.22559-.43945.41455-.89453.56592-1.36328h1.2666c.55225,0,1-.44727,1-1v-3.63672c0-.55273-.44775-1-1-1ZM46.03952,23.92467c-3.30859,0-6-2.69141-6-6s2.69141-6,6-6,6,2.69141,6,6-2.69141,6-6,6Z"/>
      </g>
    </g>
  </g>
</svg>