<?xml version="1.0" encoding="UTF-8"?>
<svg id="Glyph" xmlns="http://www.w3.org/2000/svg" version="1.1" viewBox="0 0 48 48">
  <path d="M28,21h-8c-.55127,0-1,.44824-1,1v9c0,.55176.44873,1,1,1h8c.55127,0,1-.44824,1-1v-9c0-.55176-.44873-1-1-1ZM25,26.7226v2.2774c0,.55273-.44775,1-1,1s-1-.44727-1-1v-2.2774c-.59528-.34644-1-.98419-1-1.7226,0-1.10461.89545-2,2-2s2,.89539,2,2c0,.7384-.40472,1.37616-1,1.7226Z" fill="#000" stroke-width="0"/>
  <path d="M26,18c0-1.10254-.89697-2-2-2s-2,.89746-2,2v1h4v-1Z" fill="#000" stroke-width="0"/>
  <path d="M32,11h-2v-3c0-1.6543-1.3457-3-3-3h-6c-1.6543,0-3,1.3457-3,3v3h-2c-1.6543,0-3,1.3457-3,3v26c0,1.6543,1.3457,3,3,3h16c1.6543,0,3-1.3457,3-3V14c0-1.6543-1.3457-3-3-3ZM20,8c0-.55176.44873-1,1-1h6c.55127,0,1,.44824,1,1v3h-8v-3ZM19,39c0,.55273-.44775,1-1,1s-1-.44727-1-1v-2c0-.55273.44775-1,1-1s1,.44727,1,1v2ZM23,39c0,.55273-.44775,1-1,1s-1-.44727-1-1v-2c0-.55273.44775-1,1-1s1,.44727,1,1v2ZM27,39c0,.55273-.44775,1-1,1s-1-.44727-1-1v-2c0-.55273.44775-1,1-1s1,.44727,1,1v2ZM31,39c0,.55273-.44775,1-1,1s-1-.44727-1-1v-2c0-.55273.44775-1,1-1s1,.44727,1,1v2ZM31,31c0,1.6543-1.3457,3-3,3h-8c-1.6543,0-3-1.3457-3-3v-9c0-1.6543,1.3457-3,3-3v-1c0-2.20605,1.79443-4,4-4s4,1.79395,4,4v1c1.6543,0,3,1.3457,3,3v9Z" fill="#000" stroke-width="0"/>
</svg>