<?xml version="1.0" encoding="UTF-8"?>
<svg xmlns="http://www.w3.org/2000/svg" version="1.1" viewBox="0 0 64 64">
  <!-- Generator: Adobe Illustrator 28.7.1, SVG Export Plug-In . SVG Version: 1.2.0 Build 142)  -->
  <g>
    <g id="Glyph">
      <g>
        <rect x="35" y="45" width="4" height="2"/>
        <path d="M36,33c0,.33398-.16699.64648-.44531.83203-2.15918,1.43945-4.9502,1.43945-7.10938,0-.27832-.18555-.44531-.49805-.44531-.83203v-2.18066l-3-.59961v5.98926c4.5957,1.03125,9.4043,1.03125,14,0v-5.98926l-3,.59961v2.18066Z"/>
        <path d="M46,7h-28c-1.65002,0-3,1.34998-3,3v44c0,1.64996,1.34998,3,3,3h28c1.65002,0,3-1.35004,3-3V10c0-1.65002-1.34998-3-3-3ZM45,52c0,.54999-.45001,1-1,1h-24c-.54999,0-1-.45001-1-1V12c0-.54999.45001-1,1-1h5c.27002,0,.52002.10999.71002.28998l1.69995,1.71002h9.18005l1.69995-1.71002c.19-.17999.44-.28998.71002-.28998h5c.54999,0,1,.45001,1,1v40Z"/>
        <path d="M39.40997,13l-1.69995,1.70996c-.19.18005-.44.29004-.71002.29004h-10c-.27002,0-.52002-.10999-.71002-.29004l-1.69995-1.70996h-3.59003v38h22V13h-3.59003ZM24.21997,20.21997c2.08002-2.07996,4.84003-3.21997,7.78003-3.21997s5.70001,1.14001,7.78003,3.21997c.38995.39001.38995,1.03003-.00003,1.42007-.40058.38039-1.0202.37966-1.42002-.00003-1.70001-1.70001-3.95996-2.64001-6.35999-2.64001s-4.65997.94-6.35999,2.64001c-.39001.38995-1.03003.38995-1.42004,0-.38995-.39001-.38995-1.03003,0-1.42004ZM32,23c-1.34003,0-2.59003.51996-3.53003,1.45996-.38995.40002-1.01996.40002-1.40997.01001-.40002-.39001-.40002-1.01996-.01001-1.40997,1.31-1.33002,3.07001-2.06,4.95001-2.06s3.64001.72998,4.95001,2.06c.39001.39001.39001,1.01994-.00999,1.40995-.38232.37277-1.01908.38105-1.40999-.00999-.94-.94-2.19-1.45996-3.53003-1.45996ZM34.10999,27.31c-.37756.37756-1.03603.36393-1.41998-.02002-.35999-.37-1.02002-.37-1.38,0-.39001.39001-1.02002.40002-1.41998.02002-.39001-.39001-.40002-1.02002-.02002-1.41998,1.12-1.15002,3.14001-1.15002,4.26001,0,.38.39996.37,1.02996-.02002,1.41998ZM31,48c0,.54999-.45001,1-1,1h-6c-.54999,0-1-.45001-1-1v-4c0-.54999.45001-1,1-1h6c.54999,0,1,.45001,1,1v4ZM41,48c0,.54999-.45001,1-1,1h-6c-.54999,0-1-.45001-1-1v-4c0-.54999.45001-1,1-1h6c.54999,0,1,.45001,1,1v4ZM41,37c0,.45996-.31.85999-.76001.96997-2.69.67004-5.46997,1.01001-8.23999,1.01001s-5.54999-.33997-8.23999-1.01001c-.45001-.10999-.76001-.51001-.76001-.96997v-8c0-.29999.13-.58002.37-.77002.22998-.19.53003-.27002.83002-.21002l5,1c.45996.09003.79999.5.79999.98004v2.42999c1.26001.64001,2.73999.64001,4,0v-2.42999c0-.48004.34003-.89001.79999-.98004l5-1c.29999-.06.60004.02002.83002.21002.23999.19.37.47003.37.77002v8Z"/>
        <rect x="25" y="45" width="4" height="2"/>
      </g>
    </g>
  </g>
</svg>