<?xml version="1.0" encoding="UTF-8"?>
<svg id="Glyph" xmlns="http://www.w3.org/2000/svg" version="1.1" viewBox="0 0 48 48">
  <rect x="19" y="12" width="10" height="6" rx="1" ry="1" fill="#000" stroke-width="0"/>
  <rect x="22" y="20" width="4" height="2" fill="#000" stroke-width="0"/>
  <path d="M40,15c0-1.10461-.89545-2-2-2h-7v4h7c1.10455,0,2-.89545,2-2Z" fill="#000" stroke-width="0"/>
  <path d="M10,17h7v-4h-7c-1.10455,0-2,.89539-2,2,0,1.10455.89545,2,2,2Z" fill="#000" stroke-width="0"/>
  <path d="M29,6c0,.54999-.45001,1-1,1h-2v3h-4v-3h-2c-.54999,0-1-.45001-1-1s.45001-1,1-1h8c.54999,0,1,.45001,1,1Z" fill="#000" stroke-width="0"/>
  <path d="M36,29c-3.85974,0-7,3.14026-7,7s3.14026,7,7,7,7-3.14026,7-7-3.14026-7-7-7ZM36,40c-.55225,0-1-.44727-1-1s.44775-1,1-1c1.10303,0,2-.89746,2-2,0-.55273.44775-1,1-1s1,.44727,1,1c0,2.20605-1.79443,4-4,4Z" fill="#000" stroke-width="0"/>
  <path d="M12,29c-3.85974,0-7,3.14026-7,7s3.14026,7,7,7,7-3.14026,7-7-3.14026-7-7-7ZM12,40c-.55225,0-1-.44727-1-1s.44775-1,1-1c1.10303,0,2-.89746,2-2,0-.55273.44775-1,1-1s1,.44727,1,1c0,2.20605-1.79443,4-4,4Z" fill="#000" stroke-width="0"/>
  <path d="M30.35785,29h-12.7157c2.04468,1.65161,3.35785,4.17499,3.35785,7,0,1.04999-.17999,2.06-.52002,3h7.04004c-.34003-.94-.52002-1.95001-.52002-3,0-2.82501,1.31317-5.34839,3.35785-7ZM24,33c-.55231,0-1-.44775-1-1,0-.55231.44769-1,1-1s1,.44769,1,1c0,.55225-.44769,1-1,1Z" fill="#000" stroke-width="0"/>
  <path d="M36,26v1H12v-1c0-1.10004.90002-2,2-2h20c1.09998,0,2,.89996,2,2Z" fill="#000" stroke-width="0"/>
</svg>