<?xml version="1.0" encoding="UTF-8"?>
<svg xmlns="http://www.w3.org/2000/svg" version="1.1" viewBox="0 0 64 64">
  <!-- Generator: Adobe Illustrator 28.7.1, SVG Export Plug-In . SVG Version: 1.2.0 Build 142)  -->
  <g>
    <g id="Glyph">
      <g>
        <path d="M56.55518,52.3127c-1.97754-.96686-4.4873-1.04865-6.55518-.24292-1.87891-.73181-4.12109-.73181-6,0-1.87891-.73181-4.12109-.73181-6,0-1.87891-.73181-4.12109-.73181-6,0-1.87891-.73181-4.12109-.73181-6,0-1.87891-.73181-4.12109-.73181-6,0-1.87891-.73181-4.12109-.73181-6,0-2.06836-.80573-4.57715-.72394-6.55518.24292-.27783.1358-.44482.36414-.44482.60852v3.32581c0,.27014.20312.51813.52832.64532.32666.12787.7207.11322,1.02686-.0368,1.48535-.72534,3.4043-.72534,4.88965,0,.33594.16437.77441.16437,1.11035,0,1.48535-.72534,3.4043-.72534,4.88965,0,.33594.16437.77441.16437,1.11035,0,1.48535-.72534,3.4043-.72534,4.88965,0,.33594.16437.77441.16437,1.11035,0,1.48535-.72534,3.4043-.72534,4.88965,0,.33594.16437.77441.16437,1.11035,0,1.48535-.72534,3.4043-.72534,4.88965,0,.33594.16437.77441.16437,1.11035,0,1.48535-.72534,3.4043-.72534,4.88965,0,.33594.16437.77441.16437,1.11035,0,1.48535-.72534,3.4043-.72534,4.88965,0,.33594.16437.77441.16437,1.11035,0,1.48535-.72534,3.4043-.72534,4.88965,0,.16748.08179.36084.12323.55518.12323.16162,0,.32373-.02856.47168-.08643.3252-.1272.52832-.37518.52832-.64532v-3.32581c0-.24438-.16699-.47272-.44482-.60852Z"/>
        <path d="M56,35.02095c-.55225,0-1,.44775-1,1v3H9v-3c0-.55225-.44775-1-1-1s-1,.44775-1,1v4c0,1.10455.89545,2,2,2h46c1.10455,0,2-.89545,2-2v-4c0-.55225-.44775-1-1-1Z"/>
        <polygon points="28.95477 16.02095 21.04517 16.02095 20.29517 20.02095 29.70483 20.02095 28.95477 16.02095"/>
        <path d="M47,27.02095c0-1.10461-.89545-2-2-2h-10v1c0,.55225-.44769,1-1,1h-15c-1.10455,0-2,.89539-2,2h30v-2Z"/>
        <path d="M24,34.02095c0-.55231.44769-1,1-1h14c.55231,0,1,.44769,1,1v3h10v-3c0-1.65686-1.34314-3-3-3h-30c-1.65686,0-3,1.34314-3,3v3h10v-3Z"/>
        <polygon points="30.07983 22.02095 19.92017 22.02095 19.1701 25.02095 30.8299 25.02095 30.07983 22.02095"/>
        <rect x="26" y="35.02095" width="12" height="2"/>
        <rect x="35" y="21.02095" width="10" height="2"/>
        <path d="M44.16699,17.26802l3.83301-3.83301v2.58594c0,.55225.44775,1,1,1s1-.44775,1-1v-5c0-.4043-.24365-.76904-.61719-.92383-.37451-.15527-.8042-.07031-1.08984.2168l-5.54004,5.54004c-.79053-.52399-1.7356-.83301-2.75293-.83301-2.41443,0-4.43427,1.7207-4.89893,4h9.78473c-.13123-.63464-.37207-1.2298-.71881-1.75293Z"/>
        <rect x="14" y="44.02095" width="6" height="2"/>
        <path d="M12,49.57094c.67999.06,1.35999.19,2,.39001.95001-.29004,1.97998-.44,3-.44s2.04999.14996,3,.44c.64001-.20001,1.32001-.33002,2-.39001v-1.54999h-10v1.54999Z"/>
        <path d="M42,49.57094c.67999.06,1.35999.19,2,.39001.95001-.29004,1.97998-.44,3-.44s2.04999.14996,3,.44c.64001-.20001,1.32001-.33002,2-.39001v-1.54999h-10v1.54999Z"/>
        <path d="M27,49.72096c.65002-.13,1.33002-.20001,2-.20001,1.02002,0,2.04999.14996,3,.44.95001-.29004,1.97998-.44,3-.44.66998,0,1.34998.07001,2,.20001v-1.70001h-10v1.70001Z"/>
        <rect x="29" y="44.02095" width="6" height="2"/>
        <rect x="44" y="44.02095" width="6" height="2"/>
        <path d="M28.13574,11.65327c-.17676-.9458-1.00342-1.63232-1.96582-1.63232h-.16992v-2c0-.55225-.44775-1-1-1s-1,.44775-1,1v2h-.16992c-.9624,0-1.78906.68652-1.96582,1.63184l-.44403,2.36816h7.15948l-.44397-2.36768Z"/>
      </g>
    </g>
  </g>
</svg>