<?xml version="1.0" encoding="UTF-8"?>
<svg xmlns="http://www.w3.org/2000/svg" version="1.1" viewBox="0 0 64 64">
  <!-- Generator: Adobe Illustrator 28.7.1, SVG Export Plug-In . SVG Version: 1.2.0 Build 142)  -->
  <g>
    <g id="Glyph">
      <g>
        <rect x="29" y="23" width="3" height="5"/>
        <path d="M55.15332,39H8.84668l-1.71429,12h17.14722l1.77216-5.31641c.13574-.4082.51758-.68359.94824-.68359h10c.43066,0,.81249.27539.94824.68359l1.77216,5.31641h17.14722l-1.71429-12Z"/>
        <rect x="24" y="23" width="3" height="5"/>
        <polygon points="28 16.41406 23.41406 21 32.58594 21 28 16.41406"/>
        <polygon points="27.7207 47 26.3877 51 37.6123 51 36.2793 47 27.7207 47"/>
        <rect x="26" y="53" width="12" height="4"/>
        <path d="M11,57h13v-4H7c0,2.20911,1.79083,4,4,4Z"/>
        <path d="M55,11c0-2.20917-1.79083-4-4-4H13c-2.20917,0-4,1.79083-4,4v26h46V11ZM51,33c0,.55273-.44727,1-1,1H14c-.55273,0-1-.44727-1-1V11c0-.55273.44727-1,1-1h36c.55273,0,1,.44727,1,1v22Z"/>
        <path d="M15,32h34V12H15v20ZM41.73145,21.26367l-2.03809-.61133c-1.0127-.30469-1.69336-1.21875-1.69336-2.27637,0-1.18176.86877-2.15631,2-2.33795v-1.03802c0-.55273.44727-1,1-1s1,.44727,1,1v1h1c.55273,0,1,.44727,1,1s-.44727,1-1,1h-2.62402c-.20703,0-.37598.16895-.37598.37598,0,.16504.11035.31348.26855.36035l2.03809.61133c1.0127.30469,1.69336,1.21875,1.69336,2.27637,0,1.18182-.86877,2.15631-2,2.33801v1.03796c0,.55273-.44727,1-1,1s-1-.44727-1-1v-1h-1c-.55273,0-1-.44727-1-1s.44727-1,1-1h2.62402c.20703,0,.37598-.16895.37598-.37598,0-.16504-.11035-.31348-.26855-.36035ZM21,23c-.4043,0-.76953-.24316-.92383-.61719-.15527-.37402-.06934-.80371.2168-1.08984l7-7c.39062-.39062,1.02344-.39062,1.41406,0l7,7c.28613.28613.37207.71582.2168,1.08984-.1543.37402-.51953.61719-.92383.61719h-1v5h1c.55273,0,1,.44727,1,1s-.44727,1-1,1h-14c-.55273,0-1-.44727-1-1s.44727-1,1-1h1v-5h-1Z"/>
        <path d="M40,53v4h13c2.20917,0,4-1.79089,4-4h-17Z"/>
      </g>
    </g>
  </g>
</svg>