<?xml version="1.0" encoding="UTF-8"?>
<svg id="Glyph" xmlns="http://www.w3.org/2000/svg" version="1.1" viewBox="0 0 64 64">
  <path d="M28.33057,20.05566c-.21387-.07422-.44727-.07422-.66113,0l-19.67004,6.88452,20.00061,7.00024,20.00061-7.00024-19.67004-6.88452Z" fill="#000" stroke-width="0"/>
  <polygon points="19 45.7207 7 41.72021 7 43.61279 19 47.6123 19 45.7207" fill="#000" stroke-width="0"/>
  <polygon points="37 47.6123 49 43.61279 49 41.72021 37 45.7207 37 47.6123" fill="#000" stroke-width="0"/>
  <path d="M29,56.71002l19.33057-6.76569c.40088-.14062.66943-.51953.66943-.94434v-3.2796s-12.68359,4.22784-12.68365,4.22784c-.63263.21484-1.31635-.28387-1.31635-.94824v-4c0-.43066.27539-.8125.68359-.94824l13.31641-4.43909v-1.89252s-12.68359,4.22809-12.68365,4.22809c-.51721.17316-1.09357-.11743-1.26508-.63184-.1748-.52441.1084-1.09082.63232-1.26465l13.31641-4.43909v-6.90234l-20,6.99969v21Z" fill="#000" stroke-width="0"/>
  <path d="M7,35.61267l13.31641,4.43909c.52393.17383.80713.74017.63232,1.26459-.17194.51599-.75043.80426-1.26514.6319l-12.68359-4.22809v1.89252l13.31641,4.43909c.4082.13574.68359.51758.68359.94824v3.99994c0,.65863-.69434,1.15955-1.31641.9483l-12.68359-4.22784v3.2796c0,.4248.26855.80371.66943.94434l19.33057,7.05566v-21.28998l-20-6.99969v6.90234Z" fill="#000" stroke-width="0"/>
  <path d="M32,19.22351l16.98999,5.94647c1.20001.41998,2.01001,1.56,2.01001,2.83002v7h1v-18h-20v2.22351Z" fill="#000" stroke-width="0"/>
  <path d="M53,7h-22c-2.21002,0-4,1.78998-4,4v7.16998h.01001c.32001-.10999.64996-.16998.98999-.16998s.66998.06.98999.16998l1.01001.35352v-2.5235c0-.55273.44775-1,1-1h22c.55225,0,1,.44727,1,1v19h2c.54999,0,1-.45001,1-1V11c0-2.21002-1.78998-4-4-4ZM44,12h-4c-.55225,0-1-.44727-1-1s.44775-1,1-1h4c.55225,0,1,.44727,1,1s-.44775,1-1,1Z" fill="#000" stroke-width="0"/>
</svg>