<?xml version="1.0" encoding="UTF-8"?>
<svg id="Glyph" xmlns="http://www.w3.org/2000/svg" version="1.1" viewBox="0 0 64 64">
  <polygon points="41 47.6123 53 43.61285 53 41.72046 41 45.7207 41 47.6123" fill="#000" stroke-width="0"/>
  <path d="M39.29999,23.5l-4.92999,6.33997c-.58002.73999-1.44,1.16003-2.37,1.16003s-1.78998-.42004-2.37-1.16003l-4.92999-6.33997-12.72003,4.45001,20.02002,6.00995,20.02002-6.00995-12.72003-4.45001Z" fill="#000" stroke-width="0"/>
  <path d="M11,35.61298l13.31641,4.43878c.52344.17383.80664.74023.63184,1.26465-.13965.41895-.5293.68359-.94824.68359-.10449,0-.21094-.0166-.31641-.05176l-12.68359-4.22784v1.89258l13.31641,4.43878c.4082.13574.68359.51758.68359.94824v3.99988c0,.64795-.69983,1.15771-1.31641.94836l-12.68359-4.22784v3.2796c0,.4248.26855.80371.66992.94434l19.33008,7.05566v-21.25586l-20-6.00018v5.86902Z" fill="#000" stroke-width="0"/>
  <path d="M33,57l19.33008-7.05566c.40137-.14062.66992-.51953.66992-.94434v-3.2796s-12.68359,4.22784-12.68365,4.22784c-.6297.21381-1.31635-.28381-1.31635-.94824v-4c0-.43066.27539-.8125.68359-.94824l13.31641-4.43878v-1.89258l-12.68359,4.22784c-.10547.03516-.21191.05176-.31641.05176-.41895,0-.80859-.26465-.94824-.68359-.1748-.52441.1084-1.09082.63184-1.26465l13.31641-4.43878v-5.86902l-20,6.00018v21.25586Z" fill="#000" stroke-width="0"/>
  <polygon points="23 45.7207 11 41.72046 11 43.61285 23 47.6123 23 45.7207" fill="#000" stroke-width="0"/>
  <path d="M54.89709,17.58002c-.15491-.33014-.4809-.58002-.89709-.58002h-2v-5c0-.55273-.44727-1-1-1h-4c-.55273,0-1,.44727-1,1v5h-2c-.82727,0-1.29645,1.00464-.76855,1.64062,0,0,4.98242,5.97888,4.99994,5.99994.37915.4549,1.13391.48187,1.53717.00006,0,0,4.99536-5.99445,5-6,.2674-.32086.28339-.73083.12854-1.06061Z" fill="#000" stroke-width="0"/>
  <path d="M15.76855,24.64062s4.9837-5.98047,4.99994-5.99994c.53473-.64166.06232-1.64069-.76849-1.64069h-2v-5c0-.55273-.44727-1-1-1h-4c-.55273,0-1,.44727-1,1v5h-2c-.80548,0-1.31226.9856-.76855,1.64062,0,0,4.98993,5.98792,5,5.99994.39508.47412,1.14197.47217,1.53711.00006Z" fill="#000" stroke-width="0"/>
  <path d="M31.21088,28.6142c.39612.50922,1.18353.50659,1.57819.00006,0,0,6.98163-8.97638,6.99994-8.99994.25171-.32361.25848-.72711.1004-1.04974-.1582-.32275-.48132-.56458-.8894-.56458h-3v-10c0-.55273-.44727-1-1-1h-6c-.55273,0-1,.44727-1,1v10h-3c-.81158,0-1.2865.97375-.78906,1.61426,0,0,6.97662,8.96991,6.99994,8.99994Z" fill="#000" stroke-width="0"/>
</svg>