<?xml version="1.0" encoding="UTF-8"?>
<svg id="Glyph" xmlns="http://www.w3.org/2000/svg" version="1.1" viewBox="0 0 48 48">
  <circle cx="17" cy="35.90899" r="1" fill="#000" stroke-width="0"/>
  <circle cx="24" cy="29.90899" r="1" fill="#000" stroke-width="0"/>
  <circle cx="16" cy="23.90899" r="1" fill="#000" stroke-width="0"/>
  <path d="M26.40002,24.90899h-7.58002c-.41998,1.15997-1.52002,2-2.82001,2s-2.40002-.84003-2.82001-2h-3.17999c-.54999,0-1-.45001-1-1s.45001-1,1-1h3.17999c.41998-1.16003,1.52002-2,2.82001-2s2.40002.83997,2.82001,2h5.26001c-1.48999-1.65002-2.53003-3.71002-2.91003-6h-13.16998c-1.65002,0-3,1.34998-3,3v20c0,1.64996,1.34998,3,3,3h24c1.65002,0,3-1.35004,3-3v-13.17004c-.65997.11005-1.32001.17004-2,.17004-2.44,0-4.70001-.73004-6.59998-2ZM30,36.90899h-10.18427c-.41412,1.1615-1.51379,2-2.81573,2s-2.40155-.8385-2.81567-2h-4.18433c-.55225,0-1-.44727-1-1s.44775-1,1-1h4.18427c.41412-1.1615,1.51379-2,2.81573-2s2.40161.8385,2.81573,2h10.18427c.55225,0,1,.44727,1,1s-.44775,1-1,1ZM30,30.90899h-3.18427c-.41412,1.1615-1.51379,2-2.81573,2s-2.40155-.8385-2.81567-2h-11.18433c-.55225,0-1-.44727-1-1s.44775-1,1-1h11.18427c.41412-1.1615,1.51379-2,2.81573-2s2.40161.8385,2.81573,2h3.18427c.55225,0,1,.44727,1,1s-.44775,1-1,1Z" fill="#000" stroke-width="0"/>
  <path d="M34.99976,5.10919c-.55896-.11383-1.09064.32184-1.09064.89087v8.1543c0,.24103.0954.47186.26587.64233l5.76349,5.77283c.40271.40375,1.08514.33356,1.40045-.13898,1.08667-1.63531,1.66107-3.54449,1.66107-5.52155,0-4.73315-3.36462-8.85468-8.00024-9.7998Z" fill="#000" stroke-width="0"/>
  <path d="M32.09088,15.28674V6.00018c0-.57019-.5354-1.00165-1.09064-.89099-4.63556.94501-8.00024,5.06659-8.00024,9.7998,0,5.51404,4.48596,10,10,10,1.9762,0,3.8858-.5744,5.52112-1.66107.45203-.30035.55518-.98566.1394-1.40045l-6.56964-6.56073Z" fill="#000" stroke-width="0"/>
</svg>