<?xml version="1.0" encoding="UTF-8"?>
<svg id="Glyph" xmlns="http://www.w3.org/2000/svg" version="1.1" viewBox="0 0 64 64">
  <path d="M16,19c1.09998,0,2-.90002,2-2,0-.62-.94-2.12-2-3.45001-1.06,1.32001-2,2.81-2,3.45001,0,1.09998.90002,2,2,2Z" fill="#000" stroke-width="0"/>
  <path d="M16,25c4.96002,0,9-4.04004,9-9s-4.03998-9-9-9-9,4.03998-9,9,4.03998,9,9,9ZM15.26001,11.32996c.37-.41998,1.10999-.41998,1.47998,0,.54999.61005,3.26001,3.73004,3.26001,5.67004,0,2.20996-1.78998,4-4,4s-4-1.79004-4-4c0-1.94,2.71002-5.06,3.26001-5.67004Z" fill="#000" stroke-width="0"/>
  <path d="M27,16c0,1.40997-.27002,2.76001-.75,4h4.75v-8h-4.75c.47998,1.23999.75,2.58997.75,4Z" fill="#000" stroke-width="0"/>
  <path d="M46,21v4h8v-7c0-3.31-2.69-6-6-6h-9v8h6c.54999,0,1,.45001,1,1Z" fill="#000" stroke-width="0"/>
  <rect x="46" y="33" width="8" height="12" fill="#000" stroke-width="0"/>
  <path d="M46,56c0,.54999.45001,1,1,1h6c.54999,0,1-.45001,1-1v-3h-8v3Z" fill="#000" stroke-width="0"/>
  <rect x="33" y="9" width="4" height="14" rx="1" ry="1" fill="#000" stroke-width="0"/>
  <rect x="33" y="32" width="4" height="14" rx="1" ry="1" fill="#000" stroke-width="0"/>
  <rect x="43" y="27" width="14" height="4" rx="1" ry="1" fill="#000" stroke-width="0"/>
  <rect x="43" y="47" width="14" height="4" rx="1" ry="1" fill="#000" stroke-width="0"/>
  <path d="M23,33h2c1.6543,0,3-1.3457,3-3s-1.3457-3-3-3h-10c-1.6543,0-3,1.3457-3,3s1.3457,3,3,3h2v2h-4c-3.31,0-6,2.69-6,6v15c0,.54999.45001,1,1,1h6c.54999,0,1-.45001,1-1v-12c0-.54999.45001-1,1-1h15v-8h-8v-2ZM19,33h2v2h-2v-2Z" fill="#000" stroke-width="0"/>
  <rect x="39" y="35" width="5" height="8" fill="#000" stroke-width="0"/>
</svg>