<?xml version="1.0" encoding="UTF-8"?>
<svg xmlns="http://www.w3.org/2000/svg" version="1.1" viewBox="0 0 64 64">
  <!-- Generator: Adobe Illustrator 28.7.1, SVG Export Plug-In . SVG Version: 1.2.0 Build 142)  -->
  <g>
    <g id="Glyph">
      <g>
        <path d="M52,7c-1.6543,0-3,1.3457-3,3v11h-2v-11c0-1.6543-1.3457-3-3-3s-3,1.3457-3,3v11h-2v-11c0-1.6543-1.3457-3-3-3s-3,1.3457-3,3v17c0,4.07227,3.05908,7.44434,7,7.9375v18.0625c0,2.20605,1.79443,4,4,4s4-1.79395,4-4v-18.0625c3.94092-.49316,7-3.86523,7-7.9375V10c0-1.6543-1.3457-3-3-3Z"/>
        <path d="M23,29c-7.71973,0-14,6.28027-14,14s6.28027,14,14,14,14-6.28027,14-14-6.28027-14-14-14ZM30.74854,47.74805c-1.94971,1.9502-4.92822,2.25293-6.59131,2.25293-.59851,0-1.00903-.03796-1.15723-.05353-.14832.01556-.55914.05353-1.15723.05353-1.66309,0-4.64111-.30273-6.59131-2.25293-2.76855-2.76855-2.21631-7.61133-2.19141-7.81543.05566-.45703.41553-.81738.87207-.87305.20459-.02344,5.04736-.57617,7.81641,2.19238.53082.53082.93768,1.13837,1.25146,1.77435.31378-.63599.72064-1.24353,1.25146-1.77435,2.76855-2.7666,7.61279-2.21582,7.81641-2.19238.45654.05566.81641.41602.87207.87305.0249.2041.57715,5.04688-2.19141,7.81543Z"/>
        <path d="M24.17169,45.90137c.92889-.90497,1.96515-1.70905,3.10175-2.35938.48047-.27539,1.09033-.1084,1.36475.37207.27393.47949.10791,1.08984-.37158,1.36426-1.24567.71204-2.35876,1.62903-3.30432,2.67999,1.35577-.09692,3.18463-.43793,4.37219-1.62433,1.41064-1.41016,1.68896-3.86133,1.66992-5.33203-1.29932-.00488-3.83594.16113-5.33887,1.66406-.84888.84857-1.28308,2.0733-1.49384,3.23535Z"/>
        <path d="M18.72656,43.54199c1.13733.65076,2.17413,1.45551,3.10352,2.36121-.19891-1.13092-.61786-2.35913-1.49561-3.23718-1.5-1.5-4.01953-1.6543-5.33252-1.66406-.0166,1.30273.16406,3.83203,1.66357,5.33203,1.18964,1.18964,3.02142,1.54083,4.37964,1.63208-.94708-1.05438-2.06293-1.97394-3.31177-2.68774-.47949-.27441-.64551-.88477-.37158-1.36426.27393-.48047.88525-.64746,1.36475-.37207Z"/>
      </g>
    </g>
  </g>
</svg>