<?xml version="1.0" encoding="UTF-8"?>
<svg xmlns="http://www.w3.org/2000/svg" version="1.1" viewBox="0 0 64 64">
  <!-- Generator: Adobe Illustrator 28.7.1, SVG Export Plug-In . SVG Version: 1.2.0 Build 142)  -->
  <g>
    <g id="Glyph">
      <g>
        <path d="M32,36c-.7066,0-1.59589,1.04419-2.2226,2.86292.71796.08655,1.46295.13708,2.2226.13708s1.50464-.05054,2.2226-.13708c-.62671-1.81873-1.51599-2.86292-2.2226-2.86292Z"/>
        <path d="M27.78131,38.49567c.19019-.59845.40918-1.15332.65833-1.64917-.67853.33911-1.3006.77087-1.85284,1.28027.37183.13879.77216.26111,1.19452.3689Z"/>
        <path d="M27.30884,47.56085c-.19702-1.09814-.30884-2.29181-.30884-3.56085s.11176-2.46271.30878-3.56085c-.74731-.19006-1.44507-.42242-2.06714-.70087-.78198,1.23553-1.24164,2.69446-1.24164,4.26172s.45966,3.02618,1.24164,4.26172c.62207-.27844,1.31989-.51074,2.0672-.70087Z"/>
        <path d="M35.56036,36.8465c.24915.49585.46814,1.05072.65833,1.64917.42236-.10779.82269-.2301,1.19452-.3689-.55225-.5094-1.17432-.94116-1.85284-1.28027Z"/>
        <path d="M36.69122,40.43915c.19702,1.09814.30878,2.29181.30878,3.56085s-.11182,2.46271-.30884,3.56085c.74731.19012,1.44513.42242,2.0672.70087.78198-1.23553,1.24164-2.69446,1.24164-4.26172s-.45966-3.02618-1.24164-4.26172c-.62207.27844-1.31982.5108-2.06714.70087Z"/>
        <path d="M28.43964,51.1535c-.24915-.49585-.46814-1.05072-.65833-1.64917-.42236.10779-.82269.2301-1.19452.3689.55225.5094,1.17432.94116,1.85284,1.28027Z"/>
        <path d="M29.276,40.81537c-.17194.94879-.276,2.01428-.276,3.18463s.10406,2.23584.276,3.18463c.87469-.11707,1.78693-.18463,2.724-.18463s1.8493.06757,2.724.18463c.17194-.94879.276-2.01428.276-3.18463s-.10406-2.23584-.276-3.18463c-.87469.11707-1.78693.18463-2.724.18463s-1.8493-.06757-2.724-.18463Z"/>
        <path d="M46,11c.26562,0,.51953.10547.70703.29297l1.70703,1.70703h8.58594v-3c0-1.6543-1.3457-3-3-3H10c-1.6543,0-3,1.3457-3,3v1h39Z"/>
        <path d="M36.21869,49.50433c-.19019.59845-.40918,1.15332-.65833,1.64917.67853-.33911,1.3006-.77087,1.85284-1.28027-.37183-.13879-.77216-.26111-1.19452-.3689Z"/>
        <path d="M29.7774,49.13708c.62671,1.81873,1.51599,2.86292,2.2226,2.86292s1.59589-1.04419,2.2226-2.86292c-.71796-.08655-1.46295-.13708-2.2226-.13708s-1.50464.05054-2.2226.13708Z"/>
        <path d="M50,28c-.55273,0-1-.44727-1-1s.44727-1,1-1h.81573c-.41412-1.1615-1.51379-2-2.81573-2h-25c-.26562,0-.51953-.10547-.70703-.29297l-2.11475-2.11475-2.52783,2.1665c-.18066.15625-.41211.24121-.65039.24121h-3c-.55176,0-1,.44824-1,1v1h1c.55273,0,1,.44727,1,1s-.44727,1-1,1h-1v1c0,.55176.44824,1,1,1h3.10107c.46466-2.2793,2.4845-4,4.89893-4s4.43427,1.7207,4.89893,4h9.20215c.46466-2.2793,2.4845-4,4.89893-4s4.43427,1.7207,4.89893,4h4.10107c.55176,0,1-.44824,1-1v-1h-1Z"/>
        <path d="M48,15c-.26562,0-.51953-.10547-.70703-.29297l-1.70703-1.70703H7v41c0,1.6543,1.3457,3,3,3h44c1.6543,0,3-1.3457,3-3V15h-9ZM32,54c-5.51367,0-10-4.48633-10-10s4.48633-10,10-10,10,4.48633,10,10-4.48633,10-10,10ZM53,29c0,1.6543-1.3457,3-3,3h-4.10107c-.46466,2.2793-2.4845,4-4.89893,4s-4.43427-1.7207-4.89893-4h-9.20215c-.46466,2.2793-2.4845,4-4.89893,4s-4.43427-1.7207-4.89893-4h-3.10107c-1.6543,0-3-1.3457-3-3v-4c0-1.6543,1.3457-3,3-3h2.62988l5.59961-4.79883c.89746-.77441,2.05273-1.20117,3.25098-1.20117h8.03906c1.19824,0,2.35352.42676,3.25293,1.20215l5.59766,4.79785h5.62988c2.75684,0,5,2.24316,5,5v2Z"/>
        <path d="M41,28c-1.6543,0-3,1.3457-3,3s1.3457,3,3,3,3-1.3457,3-3-1.3457-3-3-3ZM41,32c-.55231,0-1-.44775-1-1,0-.55231.44769-1,1-1s1,.44769,1,1c0,.55225-.44769,1-1,1Z"/>
        <path d="M22,28c-1.6543,0-3,1.3457-3,3s1.3457,3,3,3,3-1.3457,3-3-1.3457-3-3-3ZM22,32c-.55231,0-1-.44775-1-1,0-.55231.44769-1,1-1s1,.44769,1,1c0,.55225-.44769,1-1,1Z"/>
        <path d="M23.41406,22h5.40558l-.66663-4h-2.67255c-.71875,0-1.41113.25488-1.94824.71777l-1.83105,1.56934,1.71289,1.71289Z"/>
        <path d="M30.84698,22h8.45074l-3.828-3.28125c-.53906-.46387-1.23145-.71875-1.9502-.71875h-3.33917l.66663,4Z"/>
      </g>
    </g>
  </g>
</svg>