<?xml version="1.0" encoding="UTF-8"?>
<svg xmlns="http://www.w3.org/2000/svg" version="1.1" viewBox="0 0 64 64">
  <!-- Generator: Adobe Illustrator 28.7.1, SVG Export Plug-In . SVG Version: 1.2.0 Build 142)  -->
  <g>
    <g id="Glyph">
      <g>
        <path d="M40.26807,21.70117c-.47626-.3467-1.16578-.18507-1.43701.33838-.25146.48389-.1084,1.00635.31982,1.32275,3.03613,2.24268,4.84912,5.8457,4.84912,9.6377,0,3.375-1.43848,6.61523-3.94678,8.88916-2.54102,2.3042-5.83057,3.38623-9.25537,3.05176-5.21729-.51123-9.56104-4.43604-10.56348-9.54492-.91648-4.67129.87004-9.29619,4.66235-12.06867.98326-.71884-.07799-2.41047-1.11889-1.65985-3.95752,2.85742-6.10254,7.49268-5.73828,12.39893.52197,7.02972,6.45953,12.70752,13.51746,12.92676,3.83044.11462,7.4353-1.28235,10.18127-3.94482,2.74805-2.66406,4.26172-6.23291,4.26172-10.04834,0-4.46189-2.14256-8.68551-5.73193-11.29883Z"/>
        <path d="M32,31c.54199,0,1-.58887,1-1.28564v-11.42871c0-.69678-.45801-1.28564-1-1.28564s-1,.58887-1,1.28564v11.42871c0,.69678.45801,1.28564,1,1.28564Z"/>
        <path d="M32,7c-13.78998,0-25,11.20996-25,25s11.21002,25,25,25,25-11.21002,25-25S45.78998,7,32,7ZM29,18.28998c0-1.82001,1.34998-3.28998,3-3.28998s3,1.46997,3,3.28998v11.41998c0,1.82001-1.34998,3.29004-3,3.29004s-3-1.47003-3-3.29004v-11.41998ZM32,53c-11.58002,0-21-9.42004-21-21,0-.54999.45001-1,1-1s1,.45001,1,1c0,10.47998,8.52002,19,19,19,.54999,0,1,.45001,1,1s-.45001,1-1,1ZM43.13,44.47998c-3.01001,2.92999-6.95001,4.52002-11.12,4.52002-.16998,0-.34003,0-.52002-.01001-8.06-.25-14.84998-6.73999-15.44-14.78003-.41998-5.59993,2.02999-10.89988,6.5599-14.1599,1.5145-1.08994,3.55467-.40752,4.39011,1.16991.65997,1.28003.27002,2.85004-.91998,3.72003-3.16003,2.31-4.65002,6.16998-3.88,10.07001.83002,4.25,4.45001,7.50995,8.78998,7.94,2.87.27997,5.60004-.62006,7.72003-2.54004,2.08997-1.89996,3.28998-4.59998,3.28998-7.40997,0-3.16003-1.51001-6.16003-4.03998-8.03003-1.21-.89995-1.61004-2.49995-.93002-3.79993.83945-1.60477,2.92768-2.17722,4.42001-1.09008,4.09998,2.99005,6.54999,7.82001,6.54999,12.92004,0,4.35999-1.72998,8.44-4.87,11.47998ZM52,33c-.54999,0-1-.45001-1-1,0-10.48004-8.52002-19-19-19-.54999,0-1-.45001-1-1s.45001-1,1-1c11.58002,0,21,9.41998,21,21,0,.54999-.45001,1-1,1Z"/>
      </g>
    </g>
  </g>
</svg>