<?xml version="1.0" encoding="UTF-8"?>
<svg xmlns="http://www.w3.org/2000/svg" version="1.1" viewBox="0 0 64 64">
  <!-- Generator: Adobe Illustrator 28.7.1, SVG Export Plug-In . SVG Version: 1.2.0 Build 142)  -->
  <g>
    <g id="Glyph">
      <g>
        <circle cx="32" cy="16" r="7"/>
        <rect x="7" y="53" width="50" height="4" rx="1" ry="1"/>
        <path d="M25.22388,51l1.01611-5h11.52002l1.01611,5h6.75165l-6.4278-29.48004c-1.35999,1.75-3.34998,2.98004-5.62,3.36005l3.07001,15.12h-9.09998l3.07001-15.12c-2.27002-.38-4.26001-1.61005-5.62-3.36005l-6.4278,29.48004h6.75165Z"/>
        <path d="M50,18v27c-1.6543,0-3,1.3457-3,3v3h8v-3c0-1.6543-1.3457-3-3-3v-27h3c1.10455,0,2-.89545,2-2,0-1.10461-.89545-2-2-2h-14.21997c.13995.64001.21997,1.31.21997,2s-.08002,1.35999-.21997,2h9.21997Z"/>
        <path d="M23,16c0-.69.08002-1.35999.21997-2h-5.21997v4h5.21997c-.13995-.64001-.21997-1.31-.21997-2Z"/>
        <path d="M9.29297,24.70703c.18756.18756.44202.29297.70728.29297h1.99976v7.18427c-1.1615.41412-2,1.51379-2,2.81573s.8385,2.40155,2,2.81567v7.18433c-1.6543,0-3,1.3457-3,3v3h8v-3c0-1.6543-1.3457-3-3-3v-7.18427c1.1615-.41412,2-1.51379,2-2.81573s-.8385-2.40161-2-2.81573v-7.18427c1.10455,0,2-.89545,2-2v-14c0-1.10461-.89545-2-2-2h-4c-.26514,0-.51941.10529-.70685.29279l-2.00018,2.00018c-.18756.18756-.29297.44202-.29297.70728v11.99951c0,.26526.10541.51965.29297.70728l2,2Z"/>
      </g>
    </g>
  </g>
</svg>