<?xml version="1.0" encoding="UTF-8"?>
<svg xmlns="http://www.w3.org/2000/svg" version="1.1" viewBox="0 0 64 64">
  <!-- Generator: Adobe Illustrator 28.7.1, SVG Export Plug-In . SVG Version: 1.2.0 Build 142)  -->
  <g>
    <g id="Glyph">
      <g>
        <path d="M50.40466,29.84467c-.83002,0-1.63.15997-2.37.47998-.90997-1.56-2.46997-2.64001-4.23999-2.94.01001-.10999.01001-.22998.01001-.33997,0-3.35004-2.72003-6.07001-6.06-6.07001-2.84003,0-5.23004,1.95996-5.89001,4.58997-.71002-.40997-1.51001-.65997-2.33002-.75-2.28998,3.69-6.39001,6.16003-11.04999,6.16003-1.52002,0-2.98999-.26001-4.34998-.75-2.30005.84998-3.98004,3.07996-3.98004,5.67999,0,3.34998,2.72003,6.07001,6.06,6.07001h34.20001c3.35004,0,6.07001-2.72003,6.07001-6.07001,0-3.34003-2.71997-6.06-6.07001-6.06Z"/>
        <circle cx="18.47467" cy="17.97467" r="1"/>
        <path d="M9.47467,18.97467h-1.94934c.50751,5.5979,5.22144,10,10.94934,10s10.44183-4.4021,10.94934-10h-1.94934c-.55273,0-1-.44775-1-1s.44727-1,1-1h1.94934c-.20697-2.28278-1.11078-4.36633-2.50134-6.03369l-1.37671,1.37695c-.37242.37242-1.01892.39514-1.41406,0-.39062-.39014-.39062-1.02344,0-1.41406l1.37671-1.37695c-1.66742-1.39075-3.75098-2.29462-6.03394-2.50159v1.94934c0,.55225-.44727,1-1,1s-1-.44775-1-1v-1.94934c-2.28296.20697-4.36652,1.1109-6.034,2.50165l1.37677,1.37689c.39062.39062.39062,1.02344-.00006,1.41412-.38678.38672-1.02599.38795-1.414-.00006l-1.37677-1.37689c-1.39056,1.66736-2.29431,3.75085-2.50128,6.03363h1.94934c.55273,0,1,.44775,1,1s-.44727,1-1,1ZM17.47467,15.15894v-2.18427c0-.55225.44727-1,1-1s1,.44775,1,1v2.18427c1.1615.41412,2,1.51379,2,2.81573,0,1.6543-1.3457,3-3,3s-3-1.3457-3-3c0-1.30194.8385-2.40161,2-2.81573Z"/>
        <path d="M32.65143,44.40631c-.6543.94775-2.17676,3.29004-2.17676,4.56836,0,1.6543,1.3457,3,3,3s3-1.3457,3-3c0-1.27832-1.52246-3.62061-2.17676-4.56836-.375-.54102-1.27148-.54102-1.64648,0Z"/>
        <path d="M40.65143,49.40631c-.6543.94775-2.17676,3.29004-2.17676,4.56836,0,1.6543,1.3457,3,3,3s3-1.3457,3-3c0-1.27832-1.52246-3.62061-2.17676-4.56836-.375-.54102-1.27148-.54102-1.64648,0Z"/>
        <path d="M48.65143,44.40631c-.6543.94775-2.17676,3.29004-2.17676,4.56836,0,1.6543,1.3457,3,3,3s3-1.3457,3-3c0-1.27832-1.52246-3.62061-2.17676-4.56836-.375-.54102-1.27148-.54102-1.64648,0Z"/>
        <path d="M24.65143,49.40631c-.6543.94775-2.17676,3.29004-2.17676,4.56836,0,1.6543,1.3457,3,3,3s3-1.3457,3-3c0-1.27832-1.52246-3.62061-2.17676-4.56836-.375-.54102-1.27148-.54102-1.64648,0Z"/>
        <path d="M16.65143,44.40631c-.6543.94775-2.17676,3.29004-2.17676,4.56836,0,1.6543,1.3457,3,3,3s3-1.3457,3-3c0-1.27832-1.52246-3.62061-2.17676-4.56836-.375-.54102-1.27148-.54102-1.64648,0Z"/>
      </g>
    </g>
  </g>
</svg>