<?xml version="1.0" encoding="utf-8"?>
<!-- Generator: Adobe Illustrator 28.3.0, SVG Export Plug-In . SVG Version: 6.00 Build 0)  -->
<svg version="1.1" id="Glyph" xmlns="http://www.w3.org/2000/svg" xmlns:xlink="http://www.w3.org/1999/xlink" x="0px" y="0px"
	 viewBox="0 0 48 48" enable-background="new 0 0 48 48" xml:space="preserve">
<g>
	<path d="M38.97998,16.48999C38.98999,16.32996,39,16.16998,39,16c0-2.76001-2.23999-5-5-5
		c-0.40997,0-0.82001,0.04999-1.21997,0.14996C31.94,7.60999,28.75,5,25,5c-3.67999,0-6.84998,2.51996-7.73999,6H17
		c-3.85999,0-7,3.14001-7,7c0,0.33997,0.02002,0.66998,0.07001,1c0,0-0.06947,0-0.07,0c-2.71748,0-5,2.28984-5,5
		c0,2.76001,2.23999,5,5,5h4.52002c2.13995-3.98004,5.94995-7.78003,7.41998-9.17999C22.5,19.28998,23.22998,19,24,19
		s1.5,0.28998,2.06,0.82001c1.47003,1.39996,5.28003,5.19995,7.41998,9.17999c0,0,3.01707,0,3.02002,0
		c3.54918,0,6.5-2.95368,6.5-6.5C43,19.82996,41.39001,17.47998,38.97998,16.48999z M28,14c-0.55225,0-1-0.44727-1-1
		c0-1.10254-0.89697-2-2-2s-2,0.89746-2,2c0,0.55273-0.44775,1-1,1s-1-0.44727-1-1c0-2.20605,1.79443-4,4-4s4,1.79395,4,4
		C29,13.55273,28.55225,14,28,14z M34,24c-0.55231,0-1-0.44775-1-1c0-0.55231,0.44769-1,1-1s1,0.44769,1,1
		C35,23.55225,34.55231,24,34,24z M38,24c-0.55231,0-1-0.44775-1-1c0-0.55231,0.44769-1,1-1s1,0.44769,1,1
		C39,23.55225,38.55231,24,38,24z"/>
	<path d="M24.68799,21.27441c-0.38574-0.36523-0.99023-0.36523-1.37598,0C22.46143,22.08008,15,29.28809,15,34
		c0,4.96289,4.0376,9,9,9s9-4.03711,9-9C33,29.28809,25.53857,22.08008,24.68799,21.27441z M24,39c-2.75684,0-5-2.24316-5-5
		c0-0.55273,0.44775-1,1-1s1,0.44727,1,1c0,1.6543,1.3457,3,3,3c0.55225,0,1,0.44727,1,1S24.55225,39,24,39z"/>
</g>
</svg>
