<?xml version="1.0" encoding="utf-8"?>
<!-- Generator: Adobe Illustrator 28.3.0, SVG Export Plug-In . SVG Version: 6.00 Build 0)  -->
<svg version="1.1" id="Glyph" xmlns="http://www.w3.org/2000/svg" xmlns:xlink="http://www.w3.org/1999/xlink" x="0px" y="0px"
	 viewBox="0 0 48 48" enable-background="new 0 0 48 48" xml:space="preserve">
<g>
	<path d="M38.97656,30.49316C38.99219,30.33008,39,30.16504,39,30c0-2.75684-2.24316-5-5-5
		c-0.41406,0-0.82324,0.05078-1.21973,0.15039C31.94238,21.61133,28.75098,19,25,19c-3.68555,0-6.85449,2.52051-7.73926,6.00488
		C17.1748,25.00195,17.08789,25,17,25c-3.85938,0-7,3.14062-7,7c0,0.33691,0.02441,0.6709,0.07227,1c0,0-0.07214,0-0.07227,0
		c-2.72589,0-5,2.27673-5,5c0,2.75684,2.24316,5,5,5c0,0,26.48181,0,26.5,0c3.54443,0,6.5-2.96246,6.5-6.5
		C43,33.82617,41.38574,31.47559,38.97656,30.49316z M28,28c-0.55273,0-1-0.44727-1-1c0-1.10254-0.89746-2-2-2s-2,0.89746-2,2
		c0,0.55273-0.44727,1-1,1s-1-0.44727-1-1c0-2.20605,1.79395-4,4-4s4,1.79395,4,4C29,27.55273,28.55273,28,28,28z M34,38
		c-0.55231,0-1-0.44775-1-1c0-0.55231,0.44769-1,1-1s1,0.44769,1,1C35,37.55225,34.55231,38,34,38z M38,38c-0.55231,0-1-0.44775-1-1
		c0-0.55231,0.44769-1,1-1s1,0.44769,1,1C39,37.55225,38.55231,38,38,38z"/>
	<path d="M24,11c-7.16797,0-13,5.83203-13,13c0,0.4201,0.02893,0.83441,0.06769,1.24652
		c1.117-0.98114,2.47382-1.69446,3.97229-2.02655C15.42999,18.62,19.29999,15,24,15c3.45001,0,6.46002,1.95996,7.96002,4.82001
		c0.92999,0.88995,1.67999,1.95996,2.20996,3.17999c1.00464,0.02277,1.9549,0.26544,2.81342,0.67206
		C36.80707,16.65649,31.05725,11,24,11z"/>
	<path d="M8.03003,31.27997c0.11462-1.46808,0.58661-2.83649,1.32538-4.02222C9.12085,26.19879,9,25.11084,9,24
		c0-8.27148,6.72852-15,15-15s15,6.72852,15,15c0,0.3587-0.01294,0.71655-0.03839,1.07281
		c1.09363,1.10211,1.82916,2.56049,1.99841,4.18719c0.37,0.22998,0.71997,0.47998,1.04999,0.75995
		C42.66998,28.08997,43,26.03998,43,24c0-10.48004-8.52002-19-19-19S5,13.51996,5,24c0,2.72998,0.58002,5.39001,1.69,7.82996
		C7.12,31.59998,7.57001,31.41998,8.03003,31.27997z"/>
</g>
</svg>
