<?xml version="1.0" encoding="UTF-8"?>
<svg xmlns="http://www.w3.org/2000/svg" version="1.1" viewBox="0 0 64 64">
  <!-- Generator: Adobe Illustrator 28.7.1, SVG Export Plug-In . SVG Version: 1.2.0 Build 142)  -->
  <g>
    <g id="Glyph">
      <g>
        <rect x="23" y="7" width="12" height="5"/>
        <path d="M55,16.44318l-6.64893,2.49335c-.1123.04199-.23096.06348-.35107.06348H9v2h38.81885l7.18115-2.69318v-1.86365Z"/>
        <polygon points="11.34607 25 46.65393 25 46.88922 23 11.11078 23 11.34607 25"/>
        <path d="M11.58002,27l2.82001,24h29.19995l2.82001-24H11.58002ZM27.28998,31.28998l2-2c.39001-.39001,1.03003-.39001,1.42004,0,.38995.39001.38995,1.03003,0,1.41998l-.41003.40002c1.01001.15002,2,.46002,2.90002.94,2.53985,1.31994,4.29981,3.81976,4.7099,6.66956.17828,1.2389-1.79854,1.57575-1.97992.28045-.32001-2.21002-1.69-4.15002-3.65997-5.17999-.52002-.28003-1.08002-.47003-1.64001-.61005,0,0,.08002.08002.08019.08019.89197.89255-.51075,2.28376-1.42022,1.41981l-2-2c-.03998-.03998-.06-.08997-.09998-.14996-.26001-.39001-.23999-.91998.09998-1.27002ZM22.31,41.97998l.03003-.09998c.13995-.54004.69-.86005,1.21997-.71002.53998.14001.84998.69.71002,1.22003l-.73002,2.72991c-.13782.51538-.69112.82986-1.23.71003l-2.72998-.72998c-.53003-.14001-.85004-.69-.71002-1.21997.15002-.54004.70001-.86005,1.22998-.71002l.55005.15002c-.37-.95001-.60004-1.95001-.64001-2.98004-.01001-.07001-.01001-.20996-.01001-.33997,0-2.77002,1.25-5.35004,3.42999-7.07001.42999-.35004,1.06-.27002,1.40002.15997.34998.42999.26996,1.06-.16003,1.40002-1.70001,1.34998-2.66998,3.34998-2.66998,5.51001v.20001c.03003.62.14001,1.21997.31,1.77997ZM37.41241,46.80385c-.48527.12908-1.05467-.0548-1.22241-.68385l-.14001-.54004c-.63.79004-1.38,1.49005-2.26001,2.04004-1.41998.89996-3.07996,1.38-4.78998,1.38-1.15997,0-2.28003-.22003-3.34003-.64001-.51996-.21002-.75995-.78998-.56-1.29999.21002-.52002.79004-.76001,1.30005-.56,2.03998.82001,4.45996.60999,6.31995-.57001.51001-.32001.95001-.71002,1.36005-1.13l-.12.02997c-.54004.15002-1.09003-.16998-1.23004-.70996-.13995-.53003.17004-1.08002.71002-1.22003l2.72998-.72998c.04999-.01001.10004-.01001.14001-.01001.03003,0,.04999-.01001.08002-.01001.17999,0,.37.02002.53998.12.22998.13.40002.35004.46002.61005l.73997,2.72992c.16882.6228-.23231,1.06484-.71758,1.19392Z"/>
        <path d="M41.92871,7.62842c-.15234-.37939-.52002-.62842-.92871-.62842h-4v6c0,.55225-.44775,1-1,1h-14c-.55225,0-1-.44775-1-1v-6h-4c-.40869,0-.77637.24902-.92871.62842l-3.74866,9.37158h33.35474l-3.74866-9.37158Z"/>
        <path d="M14.6402,53l.36664,3.1167c.05908.50391.48584.8833.99316.8833h26c.50732,0,.93408-.37939.99316-.8833l.36664-3.1167H14.6402Z"/>
      </g>
    </g>
  </g>
</svg>