<?xml version="1.0" encoding="utf-8"?>
<!-- Generator: Adobe Illustrator 27.3.1, SVG Export Plug-In . SVG Version: 6.00 Build 0)  -->
<svg version="1.1" id="Glyph" xmlns="http://www.w3.org/2000/svg" xmlns:xlink="http://www.w3.org/1999/xlink" x="0px" y="0px"
	 viewBox="0 0 48 48" enable-background="new 0 0 48 48" xml:space="preserve">
<g>
	<polygon points="9.59003,19 5,19 5,23 5.59003,23 	"/>
	<path d="M11,15c-1.09998,0-2.12-0.29004-3-0.81V17h6v-2.81C13.12,14.70996,12.09998,15,11,15z"/>
	<polygon points="8.40997,23 11.59003,23 15.59003,19 12.40997,19 	"/>
	<polygon points="21.59003,19 18.40997,19 14.40997,23 17.59003,23 	"/>
	<polygon points="9.59003,29 5,29 5,33 5.59003,33 	"/>
	<rect x="8" y="25" width="6" height="2"/>
	<polygon points="12.40997,29 8.40997,33 11.59003,33 15.59003,29 	"/>
	<rect x="8" y="35" width="6" height="2"/>
	<path d="M16,39H6c-0.55231,0-1,0.44769-1,1v2c0,0.54999,0.45001,1,1,1h10c0.54999,0,1-0.45001,1-1v-2
		C17,39.44769,16.55231,39,16,39z"/>
	<polygon points="18.40997,29 14.40997,33 17.59003,33 21.59003,29 	"/>
	<polygon points="27.59003,19 24.40997,19 20.40997,23 23.59003,23 	"/>
	<path d="M20,17h8v-1c0-2.21002-1.78998-4-4-4s-4,1.78998-4,4V17z"/>
	<polygon points="29.59003,23 33.59003,19 30.40997,19 26.40997,23 	"/>
	<path d="M40,14.19C39.12,14.70996,38.09998,15,37,15s-2.12-0.29004-3-0.81V17h6V14.19z"/>
	<polygon points="36.40997,19 32.40997,23 35.59003,23 39.59003,19 	"/>
	<polygon points="42.40997,19 38.40997,23 43,23 43,19 	"/>
	<polygon points="30.40997,29 26.40997,33 29.59003,33 33.59003,29 	"/>
	<rect x="34" y="25" width="6" height="2"/>
	<polygon points="36.40997,29 32.40997,33 35.59003,33 39.59003,29 	"/>
	<polygon points="38.40997,33 43,33 43,29 42.40997,29 	"/>
	<rect x="34" y="35" width="6" height="2"/>
	<path d="M42,39H32c-0.55231,0-1,0.44769-1,1v2c0,0.54999,0.45001,1,1,1h10c0.54999,0,1-0.45001,1-1v-2
		C43,39.44769,42.55231,39,42,39z"/>
	<polygon points="24.40997,29 20.40997,33 23.59003,33 27.59003,29 	"/>
	<path d="M11,13c2.20544,0,4-1.79456,4-4c0-2.20551-1.79456-4-4-4S7,6.79449,7,9C7,11.20544,8.79456,13,11,13z M11,8
		c0.55231,0,1,0.44769,1,1c0,0.55225-0.44769,1-1,1s-1-0.44775-1-1C10,8.44769,10.44769,8,11,8z"/>
	<path d="M37,13c2.20544,0,4-1.79456,4-4c0-2.20551-1.79456-4-4-4s-4,1.79449-4,4C33,11.20544,34.79456,13,37,13z M37,8
		c0.55231,0,1,0.44769,1,1c0,0.55225-0.44769,1-1,1s-1-0.44775-1-1C36,8.44769,36.44769,8,37,8z"/>
	<path d="M19.29297,11.70703c0.37714,0.37714,1.02405,0.38995,1.41406,0c0.39062-0.39062,0.39062-1.02344,0-1.41406l-1-1
		c-0.39062-0.39062-1.02344-0.39062-1.41406,0s-0.39062,1.02344,0,1.41406C18.29297,10.70703,19.29291,11.70697,19.29297,11.70703z"
		/>
	<path d="M24,10.34326c0.55225,0,1-0.44775,1-1V7.92871c0-0.55225-0.44775-1-1-1s-1,0.44775-1,1v1.41455
		C23,9.89551,23.44775,10.34326,24,10.34326z"/>
	<path d="M28.70703,11.70703l1-1c0.39062-0.39062,0.39062-1.02344,0-1.41406s-1.02344-0.39062-1.41406,0l-1,1
		c-0.39062,0.39062-0.39062,1.02344,0,1.41406C27.66614,12.0802,28.32184,12.09216,28.70703,11.70703z"/>
</g>
</svg>
