<?xml version="1.0" encoding="UTF-8"?>
<svg xmlns="http://www.w3.org/2000/svg" version="1.1" viewBox="0 0 64 64">
  <!-- Generator: Adobe Illustrator 28.7.1, SVG Export Plug-In . SVG Version: 1.2.0 Build 142)  -->
  <g>
    <g id="Glyph">
      <g>
        <circle cx="48" cy="29" r="4"/>
        <path d="M48,20c-2.14001,0-4.09998.75-5.64001,2h-13.35999v-1c0-.54999-.45001-1-1-1s-1,.45001-1,1v4c0,.54999.45001,1,1,1s1-.45001,1-1v-1h11.52002c-.96002,1.42999-1.52002,3.14996-1.52002,5,0,4.95996,4.03998,9,9,9s9-4.04004,9-9-4.03998-9-9-9ZM48,35c-3.31,0-6-2.69-6-6s2.69-6,6-6,6,2.69,6,6-2.69,6-6,6Z"/>
        <path d="M37.41998,32H8c-.54999,0-1,.45001-1,1v4c0,.54999.45001,1,1,1h33.67999c-2.03998-1.42999-3.57001-3.54004-4.26001-6Z"/>
        <path d="M18,43c0,.54999-.45001,1-1,1h-8c-.54999,0-1-.45001-1-1s.45001-1,1-1h1.28003l.66998-2h6.09998l-.65997,2h.60999c.54999,0,1,.45001,1,1Z"/>
        <path d="M53,43c0,.54999-.45001,1-1,1h-8c-.54999,0-1-.45001-1-1s.45001-1,1-1h.60999l-.65997-2h6.09998l.66998,2h1.28003c.54999,0,1,.45001,1,1Z"/>
        <path d="M21,29v1h-11v-1c0-.54999.45001-1,1-1h9c.54999,0,1,.45001,1,1Z"/>
      </g>
    </g>
  </g>
</svg>