<?xml version="1.0" encoding="UTF-8"?>
<svg xmlns="http://www.w3.org/2000/svg" version="1.1" viewBox="0 0 64 64">
  <!-- Generator: Adobe Illustrator 28.7.1, SVG Export Plug-In . SVG Version: 1.2.0 Build 142)  -->
  <g>
    <g id="Glyph">
      <g>
        <path d="M55.20703,52.79297c-1.2168-1.2168-3.19727-1.2168-4.41406,0-.4375.43555-1.14844.43555-1.58594,0-1.2168-1.2168-3.19727-1.2168-4.41406,0-.4375.43555-1.14844.43555-1.58594,0-1.2168-1.2168-3.19727-1.2168-4.41406,0-.4375.43555-1.14844.43555-1.58594,0-1.2168-1.2168-3.19727-1.2168-4.41406,0-.4375.43555-1.14844.43555-1.58594,0-1.2168-1.2168-3.19727-1.2168-4.41406,0-.4375.43555-1.14844.43555-1.58594,0-1.2168-1.2168-3.19727-1.2168-4.41406,0-.4375.43555-1.14844.43555-1.58594,0-1.2168-1.2168-3.19727-1.2168-4.41406,0-.4375.43555-1.14844.43555-1.58594,0-1.2168-1.2168-3.19727-1.2168-4.41406,0l-1.5,1.5c-.39062.39062-.39062,1.02344,0,1.41406s1.02344.39062,1.41406,0l1.5-1.5c.4375-.43555,1.14844-.43555,1.58594,0,1.2168,1.2168,3.19727,1.2168,4.41406,0,.4375-.43555,1.14844-.43555,1.58594,0,1.2168,1.2168,3.19727,1.2168,4.41406,0,.4375-.43555,1.14844-.43555,1.58594,0,1.2168,1.2168,3.19727,1.2168,4.41406,0,.4375-.43555,1.14844-.43555,1.58594,0,1.2168,1.2168,3.19727,1.2168,4.41406,0,.4375-.43555,1.14844-.43555,1.58594,0,1.2168,1.2168,3.19727,1.2168,4.41406,0,.4375-.43555,1.14844-.43555,1.58594,0,1.2168,1.2168,3.19727,1.2168,4.41406,0,.4375-.43555,1.14844-.43555,1.58594,0,1.2168,1.2168,3.19727,1.2168,4.41406,0,.4375-.4375,1.14844-.4375,1.58594,0l1.5,1.5c.3701.3701,1.01856.39551,1.41407,0,.39062-.39062.39062-1.02344,0-1.41406l-1.5-1.5Z"/>
        <path d="M55.20703,47.79297c-1.2168-1.2168-3.19727-1.2168-4.41406,0-.4375.43555-1.14844.43555-1.58594,0-1.2168-1.2168-3.19727-1.2168-4.41406,0-.4375.43555-1.14844.43555-1.58594,0-1.2168-1.2168-3.19727-1.2168-4.41406,0-.4375.43555-1.14844.43555-1.58594,0-1.2168-1.2168-3.19727-1.2168-4.41406,0-.4375.43555-1.14844.43555-1.58594,0-1.2168-1.2168-3.19727-1.2168-4.41406,0-.4375.43555-1.14844.43555-1.58594,0-1.2168-1.2168-3.19727-1.2168-4.41406,0-.4375.43555-1.14844.43555-1.58594,0-1.2168-1.2168-3.19727-1.2168-4.41406,0-.4375.43555-1.14844.43555-1.58594,0-1.2168-1.2168-3.19727-1.2168-4.41406,0l-1.5,1.5c-.39062.39062-.39062,1.02344,0,1.41406s1.02344.39062,1.41406,0l1.5-1.5c.4375-.43555,1.14844-.43555,1.58594,0,1.2168,1.2168,3.19727,1.2168,4.41406,0,.4375-.43555,1.14844-.43555,1.58594,0,1.2168,1.2168,3.19727,1.2168,4.41406,0,.4375-.43555,1.14844-.43555,1.58594,0,1.2168,1.2168,3.19727,1.2168,4.41406,0,.4375-.43555,1.14844-.43555,1.58594,0,1.2168,1.2168,3.19727,1.2168,4.41406,0,.4375-.43555,1.14844-.43555,1.58594,0,1.2168,1.2168,3.19727,1.2168,4.41406,0,.4375-.43555,1.14844-.43555,1.58594,0,1.2168,1.2168,3.19727,1.2168,4.41406,0,.4375-.43555,1.14844-.43555,1.58594,0,1.2168,1.2168,3.19727,1.2168,4.41406,0,.4375-.4375,1.14844-.4375,1.58594,0,0,0,1.5,1.5,1.5,1.5.3872.38719,1.0282.38585,1.41406,0,.39062-.39062.39062-1.02344,0-1.41406l-1.5-1.5Z"/>
        <path d="M8.70703,45.70703l1.5-1.5c.4375-.43555,1.14844-.43555,1.58594,0,1.2168,1.2168,3.19727,1.2168,4.41406,0,.4375-.43555,1.14844-.43555,1.58594,0,1.2168,1.2168,3.19727,1.2168,4.41406,0,.4375-.43555,1.14844-.43555,1.58594,0,1.2168,1.2168,3.19727,1.2168,4.41406,0,.4375-.43555,1.14844-.43555,1.58594,0,1.2168,1.2168,3.19727,1.2168,4.41406,0,.4375-.43555,1.14844-.43555,1.58594,0,1.2168,1.2168,3.19727,1.2168,4.41406,0,.4375-.43555,1.14844-.43555,1.58594,0,1.2168,1.2168,3.19727,1.2168,4.41406,0,.4375-.43555,1.14844-.43555,1.58594,0,1.2168,1.2168,3.19727,1.2168,4.41406,0,.4375-.4375,1.14844-.4375,1.58594,0l1.49999,1.49999c.36755.36755,1.02254.39154,1.41407,0,.39062-.39062.39062-1.02344,0-1.41406l-1.5-1.5c-1.2168-1.2168-3.19727-1.2168-4.41406,0-.4375.43555-1.14844.43555-1.58594,0-1.2168-1.2168-3.19727-1.2168-4.41406,0-.4375.43555-1.14844.43555-1.58594,0-1.2168-1.2168-3.19727-1.2168-4.41406,0-.4375.43555-1.14844.43555-1.58594,0-1.2168-1.2168-3.19727-1.2168-4.41406,0-.4375.43555-1.14844.43555-1.58594,0-1.2168-1.2168-3.19727-1.2168-4.41406,0-.4375.43555-1.14844.43555-1.58594,0-1.2168-1.2168-3.19727-1.2168-4.41406,0-.4375.43555-1.14844.43555-1.58594,0-1.2168-1.2168-3.19727-1.2168-4.41406,0-.4375.43555-1.14844.43555-1.58594,0-1.2168-1.2168-3.19727-1.2168-4.41406,0l-1.5,1.5c-.39062.39062-.39062,1.02344,0,1.41406s1.02344.39062,1.41406,0Z"/>
        <path d="M20.07001,36.63c-.10004.26001-.09003.54999.02997.81l1.32001,2.69c.5-.17004,1.04004-.25,1.58002-.25,1.09003,0,2.13.33997,3,.96997.87-.63,1.90997-.96997,3-.96997.70001,0,1.37.13995,2,.40997v-7.98999l-10.34003,3.76001c-.26996.09998-.47998.29999-.58997.57001Z"/>
        <path d="M43.34003,36.06l-10.34003-3.76001v7.98999c.63-.27002,1.29999-.40997,2-.40997,1.09003,0,2.13.33997,3,.96997.87-.63,1.90997-.96997,3-.96997.53998,0,1.08002.07996,1.58002.25l1.32001-2.69c.12-.26001.13-.54999.02997-.81-.10999-.27002-.32001-.47003-.58997-.57001Z"/>
        <path d="M32,18c2.20557,0,4-1.79395,4-4v-2c0-2.20605-1.79443-4-4-4s-4,1.79395-4,4v2c0,2.20605,1.79443,4,4,4Z"/>
        <path d="M12.90381,40.31836c.1875.1875.44189.29297.70703.29297s.51953-.10547.70703-.29297l2.85352-2.85352c.39062-.39062.39062-1.02344,0-1.41406l-.70911-.70935,2.43054-2.43054c1.11444.41827,2.42035.18854,3.3172-.70093l2.78998-2.79999v2.94l5.96997-2.16998c.34003-.12.68005-.17999,1.03003-.17999s.69.06,1.02002.17999l5.97998,2.16998v-2.94l2.78998,2.79999c.89685.88947,2.20276,1.1192,3.3172.70093l2.43054,2.43054-.70911.70935c-.39062.39062-.39062,1.02344,0,1.41406l2.85352,2.85352c.1875.1875.44189.29297.70703.29297s.51953-.10547.70703-.29297l2.82812-2.8291c.39062-.39062.39062-1.02344,0-1.41406l-2.85352-2.85352c-.375-.375-1.03906-.375-1.41406,0l-.7052.70544-2.29645-2.29645c.29865-.48822.4649-1.04749.4649-1.63068,0-.83002-.32001-1.62-.90997-2.21002l-5.75-5.73999c-1.32001-1.32001-3.07001-2.04999-4.95001-2.04999h-7.02002c-1.88,0-3.63.72998-4.95001,2.04999l-5.75,5.73999c-.58997.59003-.90997,1.38-.90997,2.21002,0,.58319.16626,1.14246.4649,1.63068l-2.29645,2.29645-.7052-.70544c-.1875-.1875-.44189-.29297-.70703-.29297s-.51953.10547-.70703.29297l-2.85352,2.85352c-.39062.39062-.39062,1.02344,0,1.41406l2.82812,2.8291Z"/>
      </g>
    </g>
  </g>
</svg>