<?xml version="1.0" encoding="UTF-8"?>
<svg xmlns="http://www.w3.org/2000/svg" version="1.1" viewBox="0 0 64 64">
  <!-- Generator: Adobe Illustrator 28.7.1, SVG Export Plug-In . SVG Version: 1.2.0 Build 142)  -->
  <g>
    <g id="Glyph">
      <g>
        <path d="M55.20703,53.79297c-1.2168-1.2168-3.19727-1.2168-4.41406,0-.4375.4375-1.14844.4375-1.58594,0-1.17773-1.17969-3.23633-1.17969-4.41406,0-.4375.4375-1.14844.4375-1.58594,0-1.2168-1.2168-3.19727-1.2168-4.41406,0-.4375.4375-1.14844.4375-1.58594,0-1.2168-1.2168-3.19727-1.2168-4.41406,0-.4375.4375-1.14844.4375-1.58594,0-1.2168-1.2168-3.19727-1.2168-4.41406,0-.4375.4375-1.14844.4375-1.58594,0-1.2168-1.2168-3.19727-1.2168-4.41406,0-.4375.4375-1.14844.4375-1.58594,0-1.17773-1.17969-3.23633-1.17969-4.41406,0-.4375.4375-1.14844.4375-1.58594,0-1.2168-1.2168-3.19727-1.2168-4.41406,0l-1.5,1.5c-.39062.39062-.39062,1.02344,0,1.41406s1.02344.39062,1.41406,0l1.5-1.5c.4375-.4375,1.14844-.4375,1.58594,0,1.2168,1.2168,3.19727,1.2168,4.41406,0,.42383-.42383,1.16211-.42383,1.58594,0,1.2168,1.2168,3.19727,1.2168,4.41406,0,.42383-.42383,1.16211-.42383,1.58594,0,1.2168,1.2168,3.19727,1.2168,4.41406,0,.42383-.42383,1.16211-.42383,1.58594,0,1.2168,1.2168,3.19727,1.2168,4.41406,0,.42383-.42383,1.16211-.42383,1.58594,0,1.2168,1.2168,3.19727,1.2168,4.41406,0,.42383-.42383,1.16211-.42383,1.58594,0,1.2168,1.2168,3.19727,1.2168,4.41406,0,.42383-.42383,1.16211-.42383,1.58594,0,1.2168,1.2168,3.19727,1.2168,4.41406,0,.4375-.4375,1.14844-.4375,1.58594,0l1.5,1.5c.36814.36814,1.01553.39853,1.41406,0,.39062-.39062.39062-1.02344,0-1.41406l-1.5-1.5Z"/>
        <path d="M55.20703,48.79297c-1.2168-1.2168-3.19727-1.2168-4.41406,0-.4375.4375-1.14844.4375-1.58594,0-1.17773-1.17969-3.23633-1.17969-4.41406,0-.4375.4375-1.14844.4375-1.58594,0-1.2168-1.2168-3.19727-1.2168-4.41406,0-.4375.4375-1.14844.4375-1.58594,0-1.2168-1.2168-3.19727-1.2168-4.41406,0-.4375.4375-1.14844.4375-1.58594,0-1.2168-1.2168-3.19727-1.2168-4.41406,0-.4375.4375-1.14844.4375-1.58594,0-1.2168-1.2168-3.19727-1.2168-4.41406,0-.4375.4375-1.14844.4375-1.58594,0-1.17773-1.17969-3.23633-1.17969-4.41406,0-.4375.4375-1.14844.4375-1.58594,0-1.2168-1.2168-3.19727-1.2168-4.41406,0l-1.5,1.5c-.39062.39062-.39062,1.02344,0,1.41406s1.02344.39062,1.41406,0l1.5-1.5c.4375-.4375,1.14844-.4375,1.58594,0,1.2168,1.2168,3.19727,1.2168,4.41406,0,.42383-.42383,1.16211-.42383,1.58594,0,1.2168,1.2168,3.19727,1.2168,4.41406,0,.42383-.42383,1.16211-.42383,1.58594,0,1.2168,1.2168,3.19727,1.2168,4.41406,0,.42383-.42383,1.16211-.42383,1.58594,0,1.2168,1.2168,3.19727,1.2168,4.41406,0,.42383-.42383,1.16211-.42383,1.58594,0,1.2168,1.2168,3.19727,1.2168,4.41406,0,.42383-.42383,1.16211-.42383,1.58594,0,1.2168,1.2168,3.19727,1.2168,4.41406,0,.42383-.42383,1.16211-.42383,1.58594,0,1.2168,1.2168,3.19727,1.2168,4.41406,0,.4375-.4375,1.14844-.4375,1.58594,0l1.5,1.5c.38862.38862,1.02683.38724,1.41407,0,.39062-.39062.39062-1.02344,0-1.41406l-1.5-1.5Z"/>
        <path d="M8.70703,46.70703l1.5-1.5c.4375-.4375,1.14844-.4375,1.58594,0,1.2168,1.2168,3.19727,1.2168,4.41406,0,.42383-.42383,1.16211-.42383,1.58594,0,1.2168,1.2168,3.19727,1.2168,4.41406,0,.42383-.42383,1.16211-.42383,1.58594,0,1.2168,1.2168,3.19727,1.2168,4.41406,0,.42383-.42383,1.16211-.42383,1.58594,0,1.2168,1.2168,3.19727,1.2168,4.41406,0,.42383-.42383,1.16211-.42383,1.58594,0,1.2168,1.2168,3.19727,1.2168,4.41406,0,.42383-.42383,1.16211-.42383,1.58594,0,1.2168,1.2168,3.19727,1.2168,4.41406,0,.42383-.42383,1.16211-.42383,1.58594,0,1.2168,1.2168,3.19727,1.2168,4.41406,0,.4375-.4375,1.14844-.4375,1.58594,0l1.49999,1.49999c.3628.3628,1.02404.39005,1.41407.00001.39062-.39062.39062-1.02344,0-1.41406l-1.5-1.5c-1.2168-1.2168-3.19727-1.2168-4.41406,0-.4375.4375-1.14844.4375-1.58594,0-1.17773-1.17969-3.23633-1.17969-4.41406,0-.4375.4375-1.14844.4375-1.58594,0-1.2168-1.2168-3.19727-1.2168-4.41406,0-.4375.4375-1.14844.4375-1.58594,0-1.2168-1.2168-3.19727-1.2168-4.41406,0-.4375.4375-1.14844.4375-1.58594,0-1.2168-1.2168-3.19727-1.2168-4.41406,0-.4375.4375-1.14844.4375-1.58594,0-1.2168-1.2168-3.19727-1.2168-4.41406,0-.4375.4375-1.14844.4375-1.58594,0-1.17773-1.17969-3.23633-1.17969-4.41406,0-.4375.4375-1.14844.4375-1.58594,0-1.2168-1.2168-3.19727-1.2168-4.41406,0l-1.5,1.5c-.39062.39062-.39062,1.02344,0,1.41406s1.02344.39062,1.41406,0Z"/>
        <path d="M11,40.88c1.09003,0,2.14001.33997,3,.96997.85999-.59998,1.91998-.94,3-.94s2.14001.34003,3,.94c.85999-.63,1.90997-.96997,3-.96997s2.13.33997,3,.96997c.87-.63,1.90997-.96997,3-.96997s2.13.33997,3,.96997c.87-.63,1.90997-.96997,3-.96997s2.13.33997,3,.96997c.87-.63,1.90997-.96997,3-.96997s2.14001.33997,3,.96997c.85999-.59998,1.91998-.94,3-.94s2.14001.34003,3,.94c.85999-.63,1.90997-.96997,3-.96997.32001,0,.63.02997.92999.08997.04999-.32001.07001-.64001.07001-.96997v-6c0-.27002-.10999-.54004-.31-.72003-.20001-.19-.45001-.28998-.73999-.27997l-14.73181.70154,15.13824-5.76697c.32422-.12402.5625-.4082.62598-.75.06445-.3418-.05371-.69238-.31152-.92578,0,0-21-19-21.00021-19.00019-.16801-.15093-.44758-.2586-.67069-.2586-.55273,0-1,.44727-1,1v26.04523l-20.04999.95477c-.53003.02997-.95001.46997-.95001,1v4c0,.32996.02002.64996.07001.96997.29999-.06.60999-.08997.92999-.08997ZM33,32.29059V11.67175l.96777,1.64465c3.53729,6.01959,3.06415,13.48114-.96777,18.97418Z"/>
      </g>
    </g>
  </g>
</svg>