<?xml version="1.0" encoding="UTF-8"?>
<svg id="Glyph" xmlns="http://www.w3.org/2000/svg" version="1.1" viewBox="0 0 64 64">
  <polygon points="29.00024 9.66797 18.29022 34.66797 29.00024 34.66797 29.00024 9.66797" style="fill: #000; stroke-width: 0px;"/>
  <path d="M8.31665,49.66016l7.28467-2.42773c2.78711-.92871,5.76953-.71777,8.39746.59668l2.1875,1.09375c1.82031.91016,3.81689,1.36523,5.81396,1.36523,1.99609,0,3.99316-.45508,5.81348-1.36523l2.1875-1.09375c2.62891-1.31543,5.6123-1.52539,8.39844-.59668l7.28418,2.42773c.52832.17578,1.08984-.1084,1.26465-.63184.1748-.52441-.1084-1.09082-.63184-1.26465l-7.28418-2.42773c-3.2959-1.10059-6.82031-.84766-9.92578.7041l-2.1875,1.09375c-3.08008,1.54102-6.7583,1.54102-9.83838,0l-2.1875-1.09375c-3.10596-1.55371-6.63232-1.80371-9.9248-.7041l-7.28467,2.42773c-.52393.17383-.80713.74023-.63232,1.26465.1748.52344.73828.80762,1.26514.63184Z" style="fill: #000; stroke-width: 0px;"/>
  <path d="M56.31665,54.80762l-7.28418-2.42773c-3.29395-1.09961-6.81934-.84961-9.92578.7041l-2.1875,1.09375c-3.08008,1.54102-6.7583,1.54102-9.83838,0l-2.1875-1.09375c-3.10596-1.55273-6.63232-1.80469-9.9248-.7041l-7.28467,2.42773c-.52393.17383-.80713.74023-.63232,1.26465.1748.52344.73828.80762,1.26514.63184l7.28467-2.42773c2.78711-.92871,5.76953-.71777,8.39746.59668l2.1875,1.09375c1.82031.91016,3.81689,1.36523,5.81396,1.36523,1.99609,0,3.99316-.45508,5.81348-1.36523l2.1875-1.09375c2.62891-1.31445,5.6123-1.52637,8.39844-.59668l7.28418,2.42773c.52832.17578,1.08984-.1084,1.26465-.63184.1748-.52441-.1084-1.09082-.63184-1.26465Z" style="fill: #000; stroke-width: 0px;"/>
  <path d="M49.00024,37.66797c0,1.76001-.34003,3.63-.91998,5.32996-1.04999-.22998-2.11005-.33997-3.17004-.33997-2.32996,0-4.58997.53998-6.69995,1.58997l-2.19,1.10004c-1.23004.60999-2.62.94-4.02002.94s-2.78998-.33002-4.02002-.94l-2.19-1.10004c-2.10999-1.04999-4.35999-1.58997-6.69995-1.58997-1.07001,0-2.13.10999-3.17004.33997-.57996-1.69995-.91998-3.56995-.91998-5.32996,0-.54999.45001-1,1-1h15s0-28.99483,0-29.00002c0-.52607.48756-.99997,1.02003-.99998.51912-.00001.97997.47822.97997,1v29h15c.54999,0,1,.45001,1,1Z" style="fill: #000; stroke-width: 0px;"/>
  <path d="M35.00024,21.66797h10v-2c0-.67999-.07001-1.35004-.16998-2h-9.83002v4Z" style="fill: #000; stroke-width: 0px;"/>
  <path d="M35.00024,15.66797h9.35999c-.46997-1.47003-1.20001-2.81-2.13-4h-7.22998v4Z" style="fill: #000; stroke-width: 0px;"/>
  <path d="M35.00024,9.66797h5.28998c-1.52997-1.27002-3.35999-2.20001-5.37-2.66003.04999.21002.08002.42999.08002.66003v2Z" style="fill: #000; stroke-width: 0px;"/>
  <rect x="35.00024" y="23.66797" width="10" height="4" style="fill: #000; stroke-width: 0px;"/>
  <path d="M35.00024,32.66797h9c.54999,0,1-.45001,1-1v-2h-10v3Z" style="fill: #000; stroke-width: 0px;"/>
</svg>