<?xml version="1.0" encoding="UTF-8"?>
<svg id="Glyph" xmlns="http://www.w3.org/2000/svg" version="1.1" viewBox="0 0 64 64">
  <rect x="7" y="39" width="8" height="18" rx="3" ry="3" style="fill: #000; stroke-width: 0px;"/>
  <rect x="49" y="39" width="8" height="18" rx="3" ry="3" style="fill: #000; stroke-width: 0px;"/>
  <path d="M36.96997,32.76001c-.10999-.45001-.50995-.76001-.96997-.76001h-8c-.46002,0-.85999.31-.96997.76001l-2.81006,11.23999h-7.21997v8h30v-8h-7.21997l-2.81006-11.23999ZM31,36h2c.54999,0,1,.45001,1,1s-.45001,1-1,1h-2c-.54999,0-1-.45001-1-1s.45001-1,1-1ZM30,40h4c.54999,0,1,.45001,1,1s-.45001,1-1,1h-4c-.54999,0-1-.45001-1-1s.45001-1,1-1ZM35,46h-6c-.54999,0-1-.45001-1-1s.45001-1,1-1h6c.54999,0,1,.45001,1,1s-.45001,1-1,1Z" style="fill: #000; stroke-width: 0px;"/>
  <rect x="27" y="7" width="10" height="10" rx="3" ry="3" style="fill: #000; stroke-width: 0px;"/>
  <path d="M30,19c-.71002,0-1.39001-.15002-2-.41003v11.41003h8v-11.41003c-.60999.26001-1.28998.41003-2,.41003h-4Z" style="fill: #000; stroke-width: 0px;"/>
  <path d="M38.90002,15h11.09998c1.65002,0,3-1.35004,3-3s-1.34998-3-3-3h-11.09998c.06995.32001.09998.65997.09998,1v4c0,.33997-.03003.67999-.09998,1Z" style="fill: #000; stroke-width: 0px;"/>
  <path d="M14,15h11.09998c-.06995-.32001-.09998-.66003-.09998-1v-4c0-.34003.03003-.67999.09998-1h-11.09998c-1.65002,0-3,1.34998-3,3s1.34998,3,3,3Z" style="fill: #000; stroke-width: 0px;"/>
</svg>