<?xml version="1.0" encoding="UTF-8"?>
<svg xmlns="http://www.w3.org/2000/svg" version="1.1" viewBox="0 0 64 64">
  <!-- Generator: Adobe Illustrator 28.7.1, SVG Export Plug-In . SVG Version: 1.2.0 Build 142)  -->
  <g>
    <g id="Glyph">
      <g>
        <path d="M18.18433,55c.41412,1.1615,1.51373,2,2.81567,2h22c1.30194,0,2.40161-.8385,2.81573-2h-27.63141Z"/>
        <path d="M37,40h-8c-.55273,0-1-.44727-1-1v-6c0-.42871.26953-.79492.64941-.93652l-1.64941-1.64941-1.64941,1.64941c.37988.1416.64941.50781.64941.93652v15h2v-5c0-.55273.44727-1,1-1h8c.42871,0,.79492.26953.93652.64941l1.64941-1.64941-1.64941-1.64941c-.1416.37988-.50781.64941-.93652.64941Z"/>
        <path d="M51,23v-13c0-1.6543-1.3457-3-3-3H16c-1.6543,0-3,1.3457-3,3v13h38ZM39,11c0-.46387.31934-.86621.77051-.97363.44824-.10352.91698.11133,1.12402.52637l2.10547,4.21094v-3.76367c0-.55273.44727-1,1-1s1,.44727,1,1v7.99994c0,.5453-.4576,1.00006-1,1.00006-.37207,0-.72266-.20801-.89453-.55273l-2.10547-4.21094v3.76367c0,.55273-.44727,1-1,1s-1-.44727-1-1v-8ZM31,13c0-1.6543,1.3457-3,3-3s3,1.3457,3,3c0,.55273-.44727,1-1,1s-1-.44727-1-1c0-.55176-.44824-1-1-1s-1,.44824-1,1v4c0,.55176.44824,1,1,1s1-.44824,1-1c-.55273,0-1-.44727-1-1s.44727-1,1-1h1c.55273,0,1,.44727,1,1v1c0,1.6543-1.3457,3-3,3s-3-1.3457-3-3v-4ZM27,11c0-.55273.44727-1,1-1s1,.44727,1,1v8c0,.55273-.44727,1-1,1s-1-.44727-1-1v-8ZM22,16c-1.6543,0-3-1.3457-3-3s1.3457-3,3-3h2c.55273,0,1,.44727,1,1s-.44727,1-1,1h-2c-.55176,0-1,.44824-1,1s.44824,1,1,1c1.6543,0,3,1.3457,3,3s-1.3457,3-3,3h-2c-.55273,0-1-.44727-1-1s.44727-1,1-1h2c.55176,0,1-.44824,1-1s-.44824-1-1-1Z"/>
        <path d="M13,25v25c0,1.64996,1.34998,3,3,3h32c1.65002,0,3-1.35004,3-3v-25H13ZM18,50c-.54999,0-1-.45001-1-1s.45001-1,1-1,1,.45001,1,1-.45001,1-1,1ZM18,30c-.54999,0-1-.45001-1-1s.45001-1,1-1,1,.45001,1,1-.45001,1-1,1ZM41.71002,41.70996l-4,4c-.29004.28003-.72003.37-1.09003.21002-.38-.15002-.62-.52002-.62-.91998v-1h-6v5c0,.54999-.45001,1-1,1h-4c-.54999,0-1-.45001-1-1v-15h-1c-.40002,0-.77002-.23999-.91998-.62-.16003-.37-.07001-.80005.20996-1.09003l4-4c.39001-.39001,1.03003-.39001,1.42004,0l4,4c.27997.28998.37.72003.20996,1.09003-.14996.38-.51996.62-.91998.62h-1v4h6v-1c0-.40002.23999-.77002.62-.92004.37-.15997.79999-.06995,1.09003.21002l4,4c.38995.39001.38995,1.03003,0,1.41998ZM46,50c-.54999,0-1-.45001-1-1s.45001-1,1-1,1,.45001,1,1-.45001,1-1,1ZM46,30c-.54999,0-1-.45001-1-1s.45001-1,1-1,1,.45001,1,1-.45001,1-1,1Z"/>
      </g>
    </g>
  </g>
</svg>