<?xml version="1.0" encoding="UTF-8"?>
<svg id="Glyph" xmlns="http://www.w3.org/2000/svg" version="1.1" viewBox="0 0 64 64">
  <path d="M41,15c2.75684,0,5-2.24316,5-5v-2c0-.55273-.44727-1-1-1h-8c-.55273,0-1,.44727-1,1v2c0,2.75684,2.24316,5,5,5Z" fill="#000" stroke-width="0"/>
  <path d="M40,44c-5.54785,0-10.68945,1.88281-13.87109,5.05664-.74316-.03809-1.44434-.05664-2.12891-.05664-8.24121,0-17,2.45312-17,7,0,.55273.44727,1,1,1h48c.55273,0,1-.44727,1-1,0-6.61719-7.62598-12-17-12ZM39,52c-.55231,0-1-.44775-1-1,0-.55231.44769-1,1-1s1,.44769,1,1c0,.55225-.44769,1-1,1ZM41,49c0-.55231.44769-1,1-1s1,.44769,1,1c0,.55225-.44769,1-1,1s-1-.44775-1-1ZM43,53c-.55231,0-1-.44775-1-1,0-.55231.44769-1,1-1s1,.44769,1,1c0,.55225-.44769,1-1,1ZM46,51c-.55231,0-1-.44775-1-1,0-.55231.44769-1,1-1s1,.44769,1,1c0,.55225-.44769,1-1,1Z" fill="#000" stroke-width="0"/>
  <path d="M46,32c0-1.30194-.8385-2.40161-2-2.81573h-6c-1.1615.41412-2,1.51379-2,2.81573v1h10v-1Z" fill="#000" stroke-width="0"/>
  <path d="M40,42c3.23999,0,6.28003.59998,8.95001,1.64996.69-1.62,1.04999-3.37,1.04999-5.19v-2.45996c0-.54999-.45001-1-1-1h-16c-.54999,0-1,.45001-1,1v2.45996c0,1.58002.27002,3.12.82001,4.57001,2.25-.66998,4.67999-1.02997,7.17999-1.02997Z" fill="#000" stroke-width="0"/>
  <path d="M38,16.32001v10.67999h6v-10.67999c-.90997.44-1.92999.67999-3,.67999s-2.09003-.23999-3-.67999Z" fill="#000" stroke-width="0"/>
</svg>