<?xml version="1.0" encoding="UTF-8"?>
<svg id="Glyph" xmlns="http://www.w3.org/2000/svg" version="1.1" viewBox="0 0 64 64">
  <path d="M45,19c-1.6543,0-3,1.3457-3,3v4c0,1.6543,1.3457,3,3,3s3-1.3457,3-3v-4c0-1.6543-1.3457-3-3-3Z" style="fill: #000; stroke-width: 0px;"/>
  <path d="M19,29c1.6543,0,3-1.3457,3-3v-4c0-1.6543-1.3457-3-3-3s-3,1.3457-3,3v4c0,1.6543,1.3457,3,3,3Z" style="fill: #000; stroke-width: 0px;"/>
  <path d="M45,35c-1.6543,0-3,1.3457-3,3v4c0,1.6543,1.3457,3,3,3s3-1.3457,3-3v-4c0-1.6543-1.3457-3-3-3Z" style="fill: #000; stroke-width: 0px;"/>
  <path d="M22,42v-4c0-1.6543-1.3457-3-3-3s-3,1.3457-3,3v4c0,1.6543,1.3457,3,3,3s3-1.3457,3-3Z" style="fill: #000; stroke-width: 0px;"/>
  <path d="M24,22v1h16v-1c0-2.64001,2.06-4.81,4.65997-4.98004-.53998-2.33997-1.72998-4.48999-3.45996-6.21997-2.46002-2.45001-5.72003-3.79999-9.20001-3.79999-6.14001,0-11.29999,4.27997-12.65002,10.01996,2.60004.17004,4.65002,2.34003,4.65002,4.98004Z" style="fill: #000; stroke-width: 0px;"/>
  <path d="M40,39v-1c0-2.76001,2.23999-5,5-5v-2c-2.76001,0-5-2.23999-5-5v-1h-16v1c0,2.76001-2.23999,5-5,5v2c2.76001,0,5,2.23999,5,5v1h16Z" style="fill: #000; stroke-width: 0px;"/>
  <path d="M40,42v-1h-16v1c0,2.64001-2.04999,4.81-4.65002,4.97998,1.35004,5.73999,6.51001,10.02002,12.65002,10.02002s11.29999-4.28003,12.65002-10.02002c-2.60004-.16998-4.65002-2.33997-4.65002-4.97998Z" style="fill: #000; stroke-width: 0px;"/>
</svg>