<?xml version="1.0" encoding="UTF-8"?>
<svg id="Glyph" xmlns="http://www.w3.org/2000/svg" version="1.1" viewBox="0 0 64 64">
  <path d="M23.22168,27c-.55176,0-1,.44873-1,1v1h2v-1c0-.55127-.44824-1-1-1Z" style="fill: #000; stroke-width: 0px;"/>
  <path d="M22.22168,36c0,.55127.44824,1,1,1s1-.44873,1-1v-5h-2v5Z" style="fill: #000; stroke-width: 0px;"/>
  <path d="M30.62402,17.66455l.26855-1.60889c.37695-2.25977-.25684-4.55762-1.7373-6.30566-1.48047-1.74756-3.64355-2.75-5.93359-2.75-2.29102,0-4.4541,1.00244-5.93457,2.75049-1.48047,1.74756-2.11426,4.0459-1.7373,6.30518l.26855,1.60889c.26758,1.60547.40332,3.24414.40332,4.87012v18.93066c0,1.62598-.13574,3.26465-.40332,4.87012l-.26855,1.60889c-.37695,2.25928.25684,4.55762,1.7373,6.30518,1.48047,1.74805,3.64355,2.75049,5.93457,2.75049,2.29004,0,4.45312-1.00244,5.93359-2.75,1.48047-1.74805,2.11426-4.0459,1.7373-6.30566l-.26855-1.60889c-.2666-1.60156-.40234-3.24023-.40234-4.87012v-18.93066c0-1.62988.13574-3.26855.40234-4.87012ZM26.22168,36c0,1.6543-1.3457,3-3,3s-3-1.3457-3-3v-8c0-1.6543,1.3457-3,3-3s3,1.3457,3,3v8Z" style="fill: #000; stroke-width: 0px;"/>
  <path d="M39.77832,36c0,.55127.44824,1,1,1s1-.44873,1-1v-5h-2v5Z" style="fill: #000; stroke-width: 0px;"/>
  <path d="M40.77832,27c-.55176,0-1,.44873-1,1v1h2v-1c0-.55127-.44824-1-1-1Z" style="fill: #000; stroke-width: 0px;"/>
  <path d="M48.18164,17.66455l.26855-1.60889c.37695-2.25928-.25684-4.55762-1.7373-6.30518-1.48047-1.74805-3.64355-2.75049-5.93457-2.75049-2.29004,0-4.45312,1.00244-5.93359,2.75-1.48047,1.74805-2.11426,4.0459-1.7373,6.30566l.26855,1.60889c.2666,1.60156.40234,3.24023.40234,4.87012v18.93066c0,1.62988-.13574,3.26855-.40234,4.87012l-.26855,1.60889c-.37695,2.25977.25684,4.55762,1.7373,6.30566,1.48047,1.74756,3.64355,2.75,5.93359,2.75,2.29102,0,4.4541-1.00244,5.93457-2.75049,1.48047-1.74756,2.11426-4.0459,1.7373-6.30518l-.26855-1.60889c-.26758-1.60547-.40332-3.24414-.40332-4.87012v-18.93066c0-1.62598.13574-3.26465.40332-4.87012ZM43.77832,36c0,1.6543-1.3457,3-3,3s-3-1.3457-3-3v-8c0-1.6543,1.3457-3,3-3s3,1.3457,3,3v8Z" style="fill: #000; stroke-width: 0px;"/>
  <path d="M10,7c-1.6543,0-3,1.3457-3,3v10c0,1.30194.8385,2.40155,2,2.81567v28.18433h-1c-.55273,0-1,.44775-1,1s.44727,1,1,1h1v3c0,.55225.44727,1,1,1s1-.44775,1-1v-3h1c.55273,0,1-.44775,1-1s-.44727-1-1-1h-1v-28.18427c1.1615-.41412,2-1.51379,2-2.81573v-10c0-1.6543-1.3457-3-3-3Z" style="fill: #000; stroke-width: 0px;"/>
  <path d="M57,20v-10c0-1.6543-1.3457-3-3-3s-3,1.3457-3,3v10c0,1.30194.8385,2.40155,2,2.81567v28.18433h-1c-.55273,0-1,.44775-1,1s.44727,1,1,1h1v3c0,.55225.44727,1,1,1s1-.44775,1-1v-3h1c.55273,0,1-.44775,1-1s-.44727-1-1-1h-1v-28.18427c1.1615-.41412,2-1.51379,2-2.81573Z" style="fill: #000; stroke-width: 0px;"/>
</svg>