<?xml version="1.0" encoding="UTF-8"?>
<svg id="Glyph" xmlns="http://www.w3.org/2000/svg" version="1.1" viewBox="0 0 64 64">
  <path d="M32.88403,16.81885l-16.06647,16.06604,3.33582,11.1192,10.87854,3.26355,16.23456-16.23505-3.26349-10.87811-11.11896-3.33563ZM32.07818,40.56464c-.75537.75586-1.76025,1.17188-2.82861,1.17188s-2.07275-.41602-2.82812-1.17188l-2.82861-2.82812c-1.55908-1.55957-1.55908-4.09766,0-5.65723,1.51074-1.51172,4.146-1.51172,5.65674,0l2.82861,2.82812c1.55908,1.55957,1.55908,4.09766,0,5.65723ZM40.56353,32.07929c-.75537.75586-1.76025,1.17188-2.82861,1.17188s-2.07275-.41602-2.82812-1.17188l-2.82861-2.82812c-1.55908-1.55957-1.55908-4.09766,0-5.65723,1.51074-1.51172,4.146-1.51172,5.65674,0l2.82861,2.82812c1.55908,1.55957,1.55908,4.09766,0,5.65723Z" style="fill: #000; stroke-width: 0px;"/>
  <path d="M27.8355,33.49335c-.37793-.37793-.87988-.58594-1.41406-.58594s-1.03662.20801-1.41455.58594c-.7793.78027-.7793,2.04883,0,2.8291l2.82861,2.82812c.75586.75586,2.07275.75586,2.82861,0,.7793-.78027.7793-2.04883,0-2.8291l-2.82861-2.82812Z" style="fill: #000; stroke-width: 0px;"/>
  <path d="M36.26287,13.23645c-.57739.67755-1.17981,1.33051-1.79767,1.96832l10.6286,3.18896c.32178.09668.57373.34863.67041.6709l3.11755,10.39142c.63885-.61548,1.29279-1.2146,1.97089-1.78918l-3.31403-11.04852-11.27576-3.3819Z" style="fill: #000; stroke-width: 0px;"/>
  <path d="M36.32086,25.008c-.37793-.37793-.87988-.58594-1.41406-.58594s-1.03662.20801-1.41455.58594c-.7793.78027-.7793,2.04883,0,2.8291l2.82861,2.82812c.75586.75586,2.07275.75586,2.82861,0,.7793-.78027.7793-2.04883,0-2.8291l-2.82861-2.82812Z" style="fill: #000; stroke-width: 0px;"/>
  <path d="M14.8565,48.63007l-3.30225-11.00903c-.11389.08728-.22076.18481-.33545.27075-2.46826,1.85059-4.00879,4.67773-4.22754,7.75488s.90674,6.09277,3.08838,8.27441c2.00244,2.00293,4.70801,3.11523,7.51904,3.11523.25098,0,.50342-.00879.75586-.02637,3.07715-.21875,5.90381-1.75977,7.75488-4.22852.06329-.08429.13513-.16266.1991-.24658l-10.78113-3.23389c-.32227-.09668-.57422-.34863-.6709-.6709Z" style="fill: #000; stroke-width: 0px;"/>
  <path d="M53.91998,10.08124c-2.18115-2.18164-5.20264-3.31641-8.27344-3.08887-3.07764.21777-5.9043,1.75879-7.75586,4.22754-.086.11462-.18347.22162-.27075.33545l11.00903,3.30225c.32227.09668.57422.34863.6709.6709l3.23407,10.78168c.08411-.06409.16284-.13629.24738-.19965,2.46826-1.85156,4.00879-4.67773,4.22754-7.75488.21826-3.07715-.90723-6.09375-3.08887-8.27441Z" style="fill: #000; stroke-width: 0px;"/>
  <path d="M18.39215,45.09393l-3.18854-10.62793c-.63757.61786-1.29047,1.2204-1.96814,1.79803l3.38226,11.27618,11.0481,3.3136c.5752-.67865,1.17419-1.33252,1.78931-1.97083l-10.39258-3.11816c-.32178-.09668-.57373-.34863-.67041-.6709Z" style="fill: #000; stroke-width: 0px;"/>
</svg>