<?xml version="1.0" encoding="UTF-8"?>
<svg xmlns="http://www.w3.org/2000/svg" version="1.1" viewBox="0 0 64 64">
  <!-- Generator: Adobe Illustrator 28.7.1, SVG Export Plug-In . SVG Version: 1.2.0 Build 142)  -->
  <g>
    <g id="Glyph">
      <g>
        <path d="M35.38095,42.06275l-2.66997,2.66997c-.37317.37317-1.01883.38115-1.42006.00001-.38995-.38995-.38995-1.02997,0-1.41998l2.67999-2.67999-1.57996-1.58002-2.67998,2.67998c-.38294.38294-1.03526.36555-1.42006.00002-.38995-.38995-.38995-1.02997,0-1.41998l2.67999-2.67999-1.56995-1.59003-2.69,2.69c-.37594.37594-1.01732.38257-1.42004,0-.38995-.38995-.38995-1.02997,0-1.41998l2.69-2.69-1.90997-1.91998c-.25-.25-.60999-.35004-.95001-.27002-2.59998.65002-5.28998-.21997-7.01001-2.26001l-1.16998-1.38c-.18998-.21995-.45997-.34995-.74991-.34998-.43187-.00004-.71549.27932-.98007.58002-2.49005,2.79999-4.55005,5.92999-6.13,9.32996l30.27997,13.08002.84003.35999c.64996-2.34998,0-4.87994-1.76001-6.65997l-3.06-3.07001Z"/>
        <path d="M9.19095,40.58277l-.91998-.39001-1.19,2.75c-.22003.51001.01996,1.09998.51996,1.32001,0,0,29.38,12.67999,29.38032,12.68011.51628.19836,1.08522-.00839,1.31969-.52014l1.17999-2.75995-.89996-.39001-29.39001-12.69Z"/>
        <path d="M31.68094,8.19276c.07001-.29999-.01001-.59998-.20001-.84003-.19-.22998-.47998-.37-.77997-.37l-12.70001.04004c-.52002,0-.95001.39996-1,.91998l-.82843,9.75739,12.57404,4.46179,2.93439-13.96918Z"/>
        <path d="M16.13095,26.44276c.92999,0,1.75.38,2.32001,1.03998l1.19,1.40002c.94,1.12,2.32001,1.76001,3.76996,1.76001.41003,0,.82001-.04999,1.23004-.15002.25-.06.47998-.08997.70996-.08997.56,0,1.10004.15997,1.57001.44995l1.41083-6.71619-12.33411-4.37665-.57672,6.79285c.22003-.07001.46002-.09998.70001-.10999h.01001Z"/>
        <path d="M45.00094,24.51356l3.29913,2.39679,1.87177-.94928,2.34943-6.73322c-.01855-.01617-.03595-.03363-.05463-.04968l-7.4657,3.48169v1.8537Z"/>
        <path d="M54.08102,20.82856l-1.90723,5.4657,4.81647,2.93982c.00116-.07104.01068-.14001.01068-.2113,0-3.10461-1.09711-5.95612-2.91992-8.19421Z"/>
        <path d="M39.70181,26.91035l3.29913-2.39679v-1.8537l-7.46582-3.48157c-.09998.08606-.19531.177-.2926.26599l2.56445,6.50513,1.89484.96094Z"/>
        <path d="M38.97208,28.78205l-1.80859-.91718-5.58246,3.97235c-.07349.05225-.15356.08673-.23438.11676.1651.71252.38,1.40613.65729,2.06879h.01947l6.99805.15723,1.28662-1.28595-1.336-4.112Z"/>
        <polygon points="40.97067 28.46028 42.1279 32.02278 45.87399 32.02278 47.03122 28.46028 44.00094 26.2591 40.97067 28.46028"/>
        <path d="M49.02981,28.78205l-1.33606,4.11224,1.33551,1.33551,6.56219.64874c.54327-1.07074.94543-2.22266,1.17523-3.43738l-5.89008-3.5957-1.8468.93658Z"/>
        <path d="M42.00778,34.02278l-1.48212,1.48212,1.44989,6.29327c.00397.01721-.00165.03357.0014.05072.66132.10413,1.33386.17389,2.02399.17389.75885,0,1.49829-.0788,2.22186-.20416l1.2663-6.30084-1.495-1.495h-3.98633Z"/>
        <path d="M48.37765,41.24836c2.42871-.8725,4.51984-2.44385,6.03644-4.47644l-5.03668-.49799-.99976,4.97443Z"/>
        <path d="M31.03873,29.76869l4.78253-3.40314-2.08588-5.28912c-1.70703,2.20007-2.73444,4.95264-2.73444,7.94635,0,.25177.02356.49762.03778.74591Z"/>
        <path d="M50.59976,17.84199c-1.93726-1.14789-4.18854-1.81921-6.59882-1.81921s-4.66168.67133-6.59894,1.81927l6.59894,3.07727,6.59882-3.07733Z"/>
        <path d="M33.07919,36.04756c1.57446,2.43921,3.93933,4.31488,6.73285,5.26965l-1.1853-5.1449-5.54755-.12476Z"/>
      </g>
    </g>
  </g>
</svg>