<?xml version="1.0" encoding="utf-8"?>
<!-- Generator: Adobe Illustrator 28.2.0, SVG Export Plug-In . SVG Version: 6.00 Build 0)  -->
<svg version="1.1" id="Glyph" xmlns="http://www.w3.org/2000/svg" xmlns:xlink="http://www.w3.org/1999/xlink" x="0px" y="0px"
	 viewBox="0 0 64 64" enable-background="new 0 0 64 64" xml:space="preserve">
<g>
	<path d="M57.00003,56c0,0.54999-0.45001,1-1,1h-48c-0.54999,0-1-0.45001-1-1s0.45001-1,1-1h48
		C56.55002,55,57.00003,55.45001,57.00003,56z"/>
	<path d="M22.05082,24.87891c0,0-9.16004,9.15955-9.17186,9.17138c-1.15275,1.15268-1.14983,3.09283-0.00005,4.24265
		c1.13267,1.13271,3.07738,1.16391,4.24222,0.00003l1.87891-1.87878V47.1781c-0.84656,0.30359-1.52075,0.97534-1.82001,1.8219
		h5.64001c-0.29926-0.84656-0.97345-1.51831-1.82001-1.8219V34.41425l5.29346-5.29315
		c1.16895-1.16992,1.16895-3.07324-0.00049-4.24219C25.15921,23.74512,23.18363,23.74512,22.05082,24.87891z"/>
	<circle cx="15.60843" cy="16" r="1"/>
	<path d="M7.43461,17.64746c-0.36572,0.25049-0.52246,0.71191-0.38574,1.13379c0.13721,0.42139,0.50635,0.72803,0.979,0.69043
		c0.64355-0.00977,1.27734,0.28174,1.67041,0.82275s0.49023,1.2124,0.26562,1.84229
		c-0.14844,0.41797-0.00439,0.88379,0.35449,1.14453c0.35986,0.26123,0.84668,0.25488,1.19775-0.0166
		c0.52979-0.40869,1.19873-0.52441,1.83447-0.31689c0.63623,0.20654,1.10938,0.69336,1.29834,1.33496
		C14.77445,24.70801,15.16507,25,15.60843,25s0.83398-0.29199,0.95947-0.71729c0.18896-0.6416,0.66211-1.12842,1.29834-1.33496
		s1.3042-0.0918,1.83447,0.31689c0.35059,0.27051,0.83838,0.27686,1.19727,0.0166c0.35889-0.26074,0.50342-0.72607,0.35498-1.14404
		c-0.22412-0.63037-0.12744-1.30225,0.26562-1.84326c0.39355-0.54102,1.0166-0.83496,1.67041-0.82227
		c0.4707,0.0293,0.8418-0.26855,0.979-0.69043c0.13672-0.42188-0.02002-0.8833-0.38574-1.13379
		C23.2305,17.26904,22.9141,16.66895,22.9141,16s0.31641-1.26904,0.86816-1.64746c0.36572-0.25049,0.52246-0.71191,0.38574-1.13379
		c-0.13428-0.4126-0.51904-0.69092-0.95117-0.69092c-0.00879,0-0.01807,0-0.02783,0.00049
		c-0.65137,0.01709-1.27686-0.28125-1.67041-0.82227c-0.39307-0.54102-0.48975-1.21289-0.26562-1.84326
		c0.14844-0.41797,0.00391-0.8833-0.35498-1.14404c-0.35791-0.26025-0.8457-0.25342-1.19727,0.0166
		c-0.53027,0.40918-1.19824,0.52441-1.83447,0.31689c-0.63623-0.20654-1.10938-0.69336-1.29834-1.33496
		C16.44242,7.29199,16.05179,7,15.60843,7s-0.83398,0.29199-0.95947,0.71729C14.46,8.35889,13.98685,8.8457,13.35062,9.05225
		c-0.63574,0.20703-1.30469,0.09131-1.83447-0.31689c-0.35205-0.27051-0.83984-0.27783-1.19775-0.0166
		C9.95951,8.97949,9.81546,9.44531,9.9639,9.86328c0.22461,0.62988,0.12744,1.30127-0.26562,1.84229s-1.0293,0.8374-1.67041,0.82275
		c-0.44482-0.02002-0.8418,0.26904-0.979,0.69043c-0.13672,0.42188,0.02002,0.8833,0.38574,1.13379
		C7.98636,14.73096,8.30277,15.33105,8.30277,16S7.98636,17.26904,7.43461,17.64746z M15.60843,13c1.6543,0,3,1.3457,3,3
		s-1.3457,3-3,3s-3-1.3457-3-3S13.95414,13,15.60843,13z"/>
	<path d="M38.9996,39.14641c0.77206,0.00106,1.54712-0.27951,2.12152-0.85344l1.87891-1.87878V47.1781
		c-0.84656,0.30359-1.52075,0.97534-1.82001,1.8219h5.64001c-0.29926-0.84656-0.97345-1.51831-1.82001-1.8219V34.41425
		l5.29346-5.29315c1.16895-1.16992,1.16895-3.07324-0.00049-4.24219c-1.13428-1.13379-3.10938-1.13379-4.24219,0
		c0,0-9.15325,9.15276-9.17184,9.17136C35.03506,35.89407,36.41589,39.14284,38.9996,39.14641z"/>
	<path d="M29.00003,52v1h-18v-1c0-0.54999,0.45001-1,1-1h16C28.55002,51,29.00003,51.45001,29.00003,52z"/>
	<path d="M53.00003,52c0-0.54999-0.45001-1-1-1h-16c-0.54999,0-1,0.45001-1,1v1h18V52z"/>
</g>
</svg>
