<?xml version="1.0" encoding="UTF-8"?>
<svg id="Glyph" xmlns="http://www.w3.org/2000/svg" version="1.1" viewBox="0 0 48 48">
  <path d="M33,17.65001c-.09003.01001-15.66998.01001-15.66998.01001-.81,0-1.60004-.13-2.33002-.39001v5.39001c0,6.71002,8.40002,8.88,8.76001,8.97003.08002.01996.15997.02997.23999.02997s.15997-.01001.23999-.02997c.35999-.09003,8.76001-2.26001,8.76001-8.97003v-5.01001Z" fill="#000" stroke-width="0"/>
  <path d="M13.04999,23.66002c-.02997-.32001-.04999-.65997-.04999-1v-5h-1c-1.65002,0-3,1.35004-3,3,0,1.66003,1.34998,3,3,3h1.04999Z" fill="#000" stroke-width="0"/>
  <path d="M36,17.66002h-1v5c0,.34003-.02002.67999-.04999,1h1.04999c1.65002,0,3-1.33997,3-3,0-1.64996-1.34998-3-3-3Z" fill="#000" stroke-width="0"/>
  <path d="M17.33057,15.66313h15.40186c1.80176,0,3.26758-1.46582,3.26758-3.26758,0-1.46973-.99023-2.76611-2.4082-3.15283l-14.85889-4.05225c-1.61621-.43994-3.30566-.10986-4.63818.90625-1.33105,1.01709-2.09473,2.56104-2.09473,4.23633,0,2.93896,2.39111,5.33008,5.33057,5.33008Z" fill="#000" stroke-width="0"/>
  <rect x="18" y="37.00005" width="12" height="6" fill="#000" stroke-width="0"/>
  <path d="M24,33.66002c-.23999,0-.48999-.02997-.72998-.08997-1.52423-.37744-3.47833-1.15594-5.27002-2.36566v3.79565h12v-3.79578c-1.79224,1.20972-3.74847,1.98834-5.28003,2.36578-.22998.06-.47998.08997-.71997.08997Z" fill="#000" stroke-width="0"/>
  <path d="M32,29.69005v13.31h3c.54999,0,1-.45001,1-1v-6c0-2.78003-1.64001-5.20001-4-6.31Z" fill="#000" stroke-width="0"/>
  <path d="M12,36.00005v6c0,.54999.45001,1,1,1h3v-13.31c-2.35999,1.10999-4,3.52997-4,6.31Z" fill="#000" stroke-width="0"/>
</svg>