<?xml version="1.0" encoding="UTF-8"?>
<svg xmlns="http://www.w3.org/2000/svg" version="1.1" viewBox="0 0 48 48">
  <!-- Generator: Adobe Illustrator 28.7.1, SVG Export Plug-In . SVG Version: 1.2.0 Build 142)  -->
  <g>
    <g id="Glyph">
      <g>
        <path d="M40,32h-1c-.19727,0-.39014.04956-.55469.14209l-2.44531,1.37915-1.88965-1.06512c-.67432-.38092-1.54639-.38342-2.21973-.00085l-1.89062,1.06598-1.88965-1.06512c-.67432-.38092-1.54639-.38342-2.21973-.00085l-1.89062,1.06598-1.88965-1.06512c-.67432-.38092-1.54639-.38342-2.21973-.00085l-1.89062,1.06598-1.88965-1.06512c-.67432-.38092-1.54639-.38342-2.21973-.00085l-1.89062,1.06598-2.44531-1.37915c-.16455-.09253-.35742-.14209-.55469-.14209h-1c-1.6543,0-3,1.13867-3,2.53845v4.01587l2.66553-2.29358c.03076-.02637.06348-.05176.09717-.07422.78906-.52734,1.85156-.42285,2.52393.25l1.71338,1.71289,1.58594-1.58594c.7793-.7793,2.04883-.7793,2.82812,0l1.58594,1.58594,1.58594-1.58594c.7793-.7793,2.04883-.7793,2.82812,0l1.58594,1.58594,1.58594-1.58594c.7793-.7793,2.04883-.7793,2.82812,0l1.58594,1.58594,1.58594-1.58594c.7793-.7793,2.04883-.7793,2.82812,0l1.58594,1.58594,1.71338-1.71289c.67139-.67188,1.73438-.77637,2.52393-.25l2.7627,2.23065v-3.87872c0-1.39978-1.3457-2.53845-3-2.53845Z"/>
        <path d="M37.41406,39.56348c-.7793.7793-2.04883.7793-2.82812,0l-1.58594-1.58594-1.58594,1.58594c-.7793.7793-2.04883.7793-2.82812,0l-1.58594-1.58594-1.58594,1.58594c-.7793.7793-2.04883.7793-2.82812,0l-1.58594-1.58594-1.58594,1.58594c-.7793.7793-2.04883.7793-2.82812,0l-1.58594-1.58594-1.58594,1.58594c-.75586.75586-2.07227.75586-2.82812,0l-1.70801-1.70703-3.77002,3.24353c.33698,1.08978,1.49994,1.90002,2.89209,1.90002h32c1.46027,0,2.67664-.88818,2.94275-2.05902l-3.88953-3.14508-1.63916,1.76758Z"/>
        <path d="M40,8v22h-1c-.53998,0-1.07001.14001-1.53998.39996l-1.46002.83002-.90997-.52002c-.34003-.19-.71002-.32996-1.09003-.41998v-11.28998H14v11.28998c-.39001.09003-.75.22998-1.09003.41998l-.90997.52002-1.46002-.83002c-.46997-.25995-1-.39996-1.53998-.39996h-1V8c0-1.65,1.35-3,3-3h0c1.65,0,3,1.35,3,3v9h4.87l-.75-6h11.76001l-.75,6h4.87V8c0-1.65,1.35-3,3-3h0c1.65,0,3,1.35,3,3Z"/>
        <path d="M19.31201,22.27441c-.54248.51367-2.31201,2.30176-2.31201,3.72559,0,1.6543,1.3457,3,3,3s3-1.3457,3-3c0-1.42383-1.76953-3.21191-2.31201-3.72559-.38574-.36523-.99023-.36523-1.37598,0ZM21,26.00195c-.00098.5498-.44922.99805-1,.99805-.55127,0-1-.44824-1-.99805.0127-.26074.44238-.90918,1-1.55273.55713.64355.98682,1.29102,1,1.55273Z"/>
        <path d="M27.31201,21.27441c-.54248.51367-2.31201,2.30176-2.31201,3.72559,0,1.6543,1.3457,3,3,3s3-1.3457,3-3c0-1.42383-1.76953-3.21191-2.31201-3.72559-.38574-.36523-.99023-.36523-1.37598,0ZM29,25.00195c-.00098.5498-.44922.99805-1,.99805-.55127,0-1-.44824-1-.99805.0127-.26074.44238-.90918,1-1.55273.55713.64355.98682,1.29102,1,1.55273Z"/>
        <path d="M18,9h12c1.10455,0,2-.89545,2-2,0-1.10461-.89545-2-2-2h-12c-1.10455,0-2,.89539-2,2,0,1.10455.89545,2,2,2Z"/>
      </g>
    </g>
  </g>
</svg>