<?xml version="1.0" encoding="UTF-8"?>
<svg xmlns="http://www.w3.org/2000/svg" version="1.1" viewBox="0 0 48 48">
  <!-- Generator: Adobe Illustrator 28.7.1, SVG Export Plug-In . SVG Version: 1.2.0 Build 142)  -->
  <g>
    <g id="Glyph">
      <g>
        <path d="M11.15256,8.84192c-3.54318,2.92523-5.86678,7.25877-6.15256,12.12868h9.92878c-.1762-4.77505-1.59026-9.05292-3.77622-12.12868Z"/>
        <path d="M12.7526,36.25882c2.39578,1.55194,5.20213,2.50805,8.218,2.68504v-15.9706h-4.04085c-.18097,5.19095-1.7381,9.86852-4.17715,13.28556Z"/>
        <path d="M5,22.97327c.28578,4.8699,2.60938,9.20345,6.15256,12.12868,2.18596-3.07576,3.60002-7.35363,3.77622-12.12868H5Z"/>
        <path d="M31.19127,7.68504c-2.39578-1.55194-5.20213-2.50805-8.218-2.68504v15.9706h4.04085c.18097-5.19095,1.7381-9.86852,4.17715-13.28556Z"/>
        <path d="M27.67541,28.17565c-.37758-1.6504-.59833-3.39613-.66128-5.20238h-4.04085v15.96565c.91058-.05446,1.80875-.15695,2.67355-.35484-.43057-1.11147-.67088-2.33307-.67088-3.59476,0-2.63169,1.03073-5.0238,2.69946-6.81366Z"/>
        <path d="M29.41143,26.6803c1.59564-1.07529,3.51513-1.70436,5.57788-1.70436,1.26169,0,2.4833.24031,3.59483.67088.19783-.8648.30033-1.76297.35478-2.67355h-9.92383c.04712,1.27587.18066,2.51483.39634,3.70704Z"/>
        <path d="M38.94387,20.9706c-.28578-4.8699-2.60938-9.20345-6.15256-12.12868-2.18596,3.07576-3.60002,7.35363-3.77622,12.12868h9.92878Z"/>
        <path d="M16.92974,20.9706h4.04085V5c-3.01587.17699-5.82222,1.1331-8.218,2.68504,2.43905,3.41704,3.99618,8.09461,4.17715,13.28556Z"/>
        <path d="M34.98931,26.97862c-.51436,0-2.00267,2.75416-2.00267,8.01069s1.48831,8.01069,2.00267,8.01069,2.00267-2.75416,2.00267-8.01069-1.48831-8.01069-2.00267-8.01069Z"/>
        <path d="M37.75667,27.48161c.83974,1.95665,1.23798,4.79027,1.23798,7.5077s-.39824,5.55105-1.23798,7.5077c3.05541-1.13023,5.24333-4.06451,5.24333-7.5077s-2.18792-6.37747-5.24333-7.5077Z"/>
        <path d="M26.97862,34.98931c0,3.44319,2.18792,6.37747,5.24333,7.5077-.83974-1.95665-1.23798-4.79027-1.23798-7.5077s.39824-5.55105,1.23798-7.5077c-3.05541,1.13023-5.24333,4.06451-5.24333,7.5077Z"/>
      </g>
    </g>
  </g>
</svg>