<?xml version="1.0" encoding="UTF-8"?>
<svg id="Glyph" xmlns="http://www.w3.org/2000/svg" version="1.1" viewBox="0 0 48 48">
  <path d="M19,26c0-3.85974-3.14026-7-7-7s-7,3.14026-7,7,3.14026,7,7,7,7-3.14026,7-7ZM10.79297,28.20703l-2-2c-.39062-.39062-.39062-1.02344,0-1.41406s1.02344-.39062,1.41406,0l1.29297,1.29297,2.29297-2.29297c.39062-.39062,1.02344-.39062,1.41406,0s.39062,1.02344,0,1.41406l-3,3c-.19531.19531-.45117.29297-.70703.29297s-.51172-.09766-.70703-.29297Z" fill="#000" stroke-width="0"/>
  <path d="M20.93787,25c.03674.32916.06213.66156.06213,1,0,1.05292-.19153,2.05988-.52576,3h14.52576v-1c0-1.65686-1.34314-3-3-3h-11.06213Z" fill="#000" stroke-width="0"/>
  <circle cx="27" cy="12" r="1" fill="#000" stroke-width="0"/>
  <path d="M17.64215,33h25.35785c0-1.10461-.89545-2-2-2h-21.52319c-.50751.75616-1.12793,1.42914-1.83466,2Z" fill="#000" stroke-width="0"/>
  <path d="M13,37h28c1.10455,0,2-.89545,2-2H11c0,1.10455.89545,2,2,2Z" fill="#000" stroke-width="0"/>
  <path d="M14,40c0,1.65686,1.34314,3,3,3h20c1.65686,0,3-1.34314,3-3v-1H14v1Z" fill="#000" stroke-width="0"/>
  <path d="M23,17.73999v5.26001h8v-5.26001c1.85999-1.29999,3-3.45001,3-5.73999,0-3.85999-3.14001-7-7-7s-7,3.14001-7,7c0,2.28998,1.14001,4.44,3,5.73999ZM27,9c1.6543,0,3,1.3457,3,3s-1.3457,3-3,3-3-1.3457-3-3,1.3457-3,3-3Z" fill="#000" stroke-width="0"/>
</svg>