<?xml version="1.0" encoding="UTF-8"?>
<svg xmlns="http://www.w3.org/2000/svg" version="1.1" viewBox="0 0 64 64">
  <!-- Generator: Adobe Illustrator 28.7.1, SVG Export Plug-In . SVG Version: 1.2.0 Build 142)  -->
  <g>
    <g id="Glyph">
      <g>
        <circle cx="32" cy="18.17047" r="3"/>
        <path d="M41.48535,23.82721c0-.26514-.10547-.51953-.29297-.70703l-1.07617-1.07666c.13477-.28418.25586-.57568.36133-.87305h1.52246c.55273,0,1-.44775,1-1v-4c0-.55225-.44727-1-1-1h-1.52246c-.10547-.29736-.22656-.58887-.36133-.87305l1.07617-1.07666c.1875-.1875.29297-.44189.29297-.70703s-.10547-.51953-.29297-.70703l-2.82812-2.82861c-.39062-.39062-1.02344-.39062-1.41406,0l-1.07715,1.07617c-.28418-.13525-.5752-.25586-.87305-.36133v-1.52246c0-.55225-.44727-1-1-1h-4c-.55273,0-1,.44775-1,1v1.52246c-.29785.10547-.58887.22607-.87305.36133l-1.07715-1.07617c-.39062-.39062-1.02344-.39062-1.41406,0l-2.82812,2.82861c-.1875.1875-.29297.44189-.29297.70703s.10547.51953.29297.70703l1.07617,1.07666c-.13477.28418-.25586.57568-.36133.87305h-1.52246c-.55273,0-1,.44775-1,1v4c0,.55225.44727,1,1,1h1.52246c.10547.29736.22656.58887.36133.87305l-1.07617,1.07666c-.1875.1875-.29297.44189-.29297.70703s.10547.51953.29297.70703l2.82812,2.82861c.39062.39062,1.02344.39062,1.41406,0l1.07715-1.07617c.28418.13525.5752.25586.87305.36133v1.52246c0,.55225.44727,1,1,1h4c.55273,0,1-.44775,1-1v-1.52246c.29785-.10547.58887-.22607.87305-.36133l1.07715,1.07617c.39062.39062,1.02344.39062,1.41406,0l2.82812-2.82861c.1875-.1875.29297-.44189.29297-.70703ZM32,23.17047c-2.75684,0-5-2.24316-5-5s2.24316-5,5-5,5,2.24316,5,5-2.24316,5-5,5Z"/>
        <path d="M17,56.82953l7.39355-3.16882c.36816-.15723.60645-.51904.60645-.91895v-8.48364l-8,3.42834v9.14307Z"/>
        <path d="M16.39355,39.25153c-.25-.1084-.53711-.1084-.78711,0l-7.60614,3.25989,7.99969,3.4281,7.99969-3.4281-7.60614-3.25989Z"/>
        <path d="M7,52.74176c0,.3999.23828.76172.60645.91895l7.39355,3.16882v-9.14307l-8-3.42834v8.48364Z"/>
        <path d="M39,52.74176c0,.3999.23828.76172.60645.91895l7.39355,3.16882v-9.14307l-8-3.42834v8.48364Z"/>
        <path d="M48.39355,39.25153c-.25-.1084-.53711-.1084-.78711,0l-7.60614,3.25989,7.99969,3.4281,7.99969-3.4281-7.60614-3.25989Z"/>
        <path d="M49,47.68646v9.14307l7.39355-3.16882c.36816-.15723.60645-.51904.60645-.91895v-8.48364l-8,3.42834Z"/>
        <path d="M45.56934,24.59625c.92285,1.23047,1.43066,2.75439,1.43066,4.29199v2.28223h-1c-.4043,0-.76953.24365-.92383.61719-.15527.37402-.06934.80371.2168,1.08984l4,4c.19531.19531.45117.29297.70703.29297s.51172-.09766.70703-.29297l4-4c.28613-.28613.37207-.71582.2168-1.08984-.1543-.37354-.51953-.61719-.92383-.61719h-1v-.92871c0-4.52588-3.37891-8.42139-7.8584-9.06104-.40527-.05713-.7959.13232-1.00195.48047-.20605.34766-.18262.78564.06055,1.10938l1.36914,1.82568Z"/>
        <path d="M13.29297,36.8775c.19531.19531.45117.29297.70703.29297s.51172-.09766.70703-.29297l4-4c.28613-.28613.37207-.71582.2168-1.08984-.1543-.37354-.51953-.61719-.92383-.61719h-1v-2.28223c0-1.5376.50781-3.06152,1.43066-4.29199l1.36914-1.82568c.24316-.32373.2666-.76172.06055-1.10938-.20605-.34814-.59961-.53857-1.00195-.48047-4.47949.63965-7.8584,4.53516-7.8584,9.06104v.92871h-1c-.4043,0-.76953.24365-.92383.61719-.15527.37402-.06934.80371.2168,1.08984l4,4Z"/>
        <circle cx="32" cy="48.17047" r="1"/>
        <circle cx="36" cy="48.17047" r="1"/>
        <circle cx="28" cy="48.17047" r="1"/>
      </g>
    </g>
  </g>
</svg>