<?xml version="1.0" encoding="UTF-8"?>
<svg xmlns="http://www.w3.org/2000/svg" version="1.1" viewBox="0 0 64 64">
  <!-- Generator: Adobe Illustrator 28.7.1, SVG Export Plug-In . SVG Version: 1.2.0 Build 142)  -->
  <g>
    <g id="Glyph">
      <g>
        <path d="M55,38H9c-1.10254,0-2,.89746-2,2s.89746,2,2,2h46c1.10254,0,2-.89746,2-2s-.89746-2-2-2Z"/>
        <rect x="27" y="44" width="4" height="13"/>
        <rect x="33" y="44" width="4" height="13"/>
        <path d="M39,57h8.48999c1.33002,0,2.52002-.89001,2.89001-2.17999l3.08997-10.82001h-14.46997v13Z"/>
        <path d="M13.62,54.82001c.37,1.28998,1.56,2.17999,2.89001,2.17999h8.48999v-13h-14.46997l3.08997,10.82001Z"/>
        <path d="M25,34c-.55176,0-1,.44824-1,1v1h16v-1c0-.55176-.44824-1-1-1h-14Z"/>
        <path d="M22,35c0-1.65002,1.34998-3,3-3h14c1.65002,0,3,1.34998,3,3v1h11.46997l-3.08997-10.82001c-.37-1.28998-1.56-2.17999-2.89001-2.17999h-5.09998c-2.08002,3.57996-5.95001,6-10.39001,6s-8.31-2.42004-10.39001-6h-5.09998c-1.33002,0-2.52002.89001-2.89001,2.17999l-3.08997,10.82001h11.46997v-1Z"/>
        <path d="M30,19h1v-1c0-1.65002-1.34998-3-3-3h-1v1c0,1.64996,1.34998,3,3,3Z"/>
        <path d="M37,16v-1h-1c-1.65002,0-3,1.34998-3,3v1h1c1.65002,0,3-1.35004,3-3Z"/>
        <path d="M32,27c5.51001,0,10-4.48999,10-10s-4.48999-10-10-10-10,4.48999-10,10,4.48999,10,10,10ZM25,14c0-.54999.45001-1,1-1h2c1.63,0,3.09003.78998,4,2,.90997-1.21002,2.37-2,4-2h2c.54999,0,1,.45001,1,1v2c0,2.76001-2.23999,5-5,5h-4c-2.76001,0-5-2.23999-5-5v-2Z"/>
      </g>
    </g>
  </g>
</svg>