<?xml version="1.0" encoding="UTF-8"?>
<svg id="Glyph" xmlns="http://www.w3.org/2000/svg" version="1.1" viewBox="0 0 64 64">
  <path d="M32,7c-13.78516,0-25,11.21484-25,25,0,2.45209.36096,4.82025,1.02197,7.06104l6.94629-2.31543c2.64484-.88202,5.43494-.87946,8.04059-.04639l4.87396-4.87354c.18848-.18848.29248-.43848.29248-.70312s-.104-.51465-.29248-.70312l-2.67969-2.67969c-1.16748-1.16748-1.16748-3.06689,0-4.23438l6.58984-6.58984c1.21677-1.21677,3.19717-1.2168,4.41398-.00009,1.19543,1.19533,1.18999,3.22424.00009,4.41415l-3.79297,3.79297,11.04663,11.04663c1.85461-.21057,3.74731-.03094,5.57104.57642l6.94629,2.31543c.66101-2.24078,1.02197-4.60895,1.02197-7.06104,0-13.78516-11.21484-25-25-25ZM42,30.12256c-2.20557,0-4-1.79443-4-4s1.79443-4,4-4,4,1.79443,4,4-1.79443,4-4,4Z" style="fill: #000; stroke-width: 0px;"/>
  <circle cx="42" cy="26.12256" r="2" style="fill: #000; stroke-width: 0px;"/>
  <path d="M40.00146,39.23975l-2.1875,1.09424c-1.82031.90967-3.81738,1.36475-5.81396,1.36475-1.99707,0-3.99365-.45508-5.81399-1.36476-1.07789-.53918-2.14385-1.14067-3.28556-1.56701-2.34363-.87323-4.89392-.9256-7.29938-.1239l-6.93622,2.31207c.57141,1.48376,1.27869,2.89984,2.10962,4.23236l4.19379-1.39795c3.29492-1.09766,6.81885-.84766,9.9248.70508l2.1875,1.09424c3.08057,1.54004,6.7583,1.54004,9.83887,0l2.1875-1.09424c3.10693-1.55273,6.63086-1.80225,9.9248-.70508l4.19379,1.39795c.83093-1.33252,1.53821-2.7486,2.10962-4.23236l-6.93622-2.31207c-2.78662-.92871-5.77002-.7168-8.39746.59668Z" style="fill: #000; stroke-width: 0px;"/>
  <path d="M25.02136,37.51483l2.0592,1.03009c3.08057,1.54004,6.7583,1.54004,9.83887,0l2.1875-1.09424c.65363-.3269,1.3288-.5827,2.01349-.79364l-10.82745-10.82745c-.39062-.39062-.39062-1.02344,0-1.41406,0,0,4.5-4.5,4.50015-4.50015.42195-.4221.41981-1.16582-.00015-1.58578-.4375-.4375-1.14844-.4375-1.58594,0l-6.58984,6.58984c-.3877.3877-.3877,1.01855,0,1.40625l2.67969,2.67969c1.16748,1.16748,1.16748,3.06689,0,4.23438l-4.27551,4.27509Z" style="fill: #000; stroke-width: 0px;"/>
  <path d="M40.00146,46.28369l-2.1875,1.09424c-1.82031.90967-3.81738,1.36475-5.81396,1.36475-1.99707,0-3.99365-.45508-5.81396-1.36475l-2.1875-1.09424c-2.62939-1.31445-5.61182-1.5249-8.39746-.59668l-3.65796,1.2193c4.56122,6.1214,11.85345,10.09369,20.05688,10.09369s15.49567-3.97229,20.05688-10.09369l-3.65796-1.2193c-2.78662-.93018-5.76953-.71826-8.39746.59668Z" style="fill: #000; stroke-width: 0px;"/>
</svg>