<?xml version="1.0" encoding="UTF-8"?>
<svg xmlns="http://www.w3.org/2000/svg" version="1.1" viewBox="0 0 64 64">
  <!-- Generator: Adobe Illustrator 28.7.1, SVG Export Plug-In . SVG Version: 1.2.0 Build 142)  -->
  <g>
    <g id="Glyph">
      <g>
        <path d="M8.35964,44.42819l4.52637-1.74072c5.25488-2.02295,11.12012-2.23291,16.50781-.59277l6.2666,1.90723c2.61621.79639,5.29883,1.19434,7.97949,1.19434,2.91797,0,5.83398-.47168,8.6582-1.41309l4.01855-1.33936c.52344-.1748.80664-.74121.63184-1.26514-.1748-.52344-.73633-.80762-1.26465-.63232l-4.01855,1.33936c-5.02344,1.6748-10.35645,1.74512-15.42285.20312l-6.2666-1.90723c-5.81152-1.76807-12.13574-1.54248-17.80859.63916l-4.52637,1.74121c-.51465.19824-.77246.77686-.57422,1.29199s.77734.77148,1.29297.57422Z"/>
        <path d="M55.68386,44.85251l-4.01855,1.33936c-5.02344,1.6748-10.35645,1.74512-15.42285.20312l-6.2666-1.90723c-5.81152-1.76855-12.13574-1.54248-17.80859.63916l-4.52637,1.74121c-.51465.19824-.77246.77686-.57422,1.29199s.77734.77246,1.29297.57422l4.52637-1.74072c5.25488-2.02344,11.12012-2.2334,16.50781-.59277l6.2666,1.90723c2.61621.79639,5.29883,1.19434,7.97949,1.19434,2.91797,0,5.83398-.47168,8.6582-1.41309l4.01855-1.33936c.52344-.1748.80664-.74121.63184-1.26514-.1748-.52344-.73633-.80908-1.26465-.63232Z"/>
        <path d="M30.56026,38.26505l6.26001,1.91003c1.35999.41998,2.75.70001,4.14996.87l-11.42999-11.42999c-1.16998-1.16998-1.16998-3.07001,0-4.23999l5.55005-5.55005c1.20996-1.21997,1.20996-3.19995,0-4.41998-1.22003-1.20996-3.20001-1.20996-4.42004,0l-7.67999,7.69c-1.92999,1.92999-2.47998,4.79004-1.40997,7.29004.75,1.75.37,3.75-.98004,5.09998l-1.69,1.67999c1.02002-.10999,2.06-.15997,3.10004-.15997,2.90997,0,5.78998.41998,8.54999,1.25995Z"/>
        <circle cx="41.00026" cy="30.49509" r="5"/>
      </g>
    </g>
  </g>
</svg>