<?xml version="1.0" encoding="UTF-8"?>
<svg xmlns="http://www.w3.org/2000/svg" version="1.1" viewBox="0 0 48 48">
  <!-- Generator: Adobe Illustrator 28.7.1, SVG Export Plug-In . SVG Version: 1.2.0 Build 142)  -->
  <g>
    <g id="Glyph">
      <g>
        <path d="M37.41406,39.42261c-.7793.78027-2.04883.78027-2.82812,0l-1.58594-1.58545-1.58594,1.58545c-.75586.75586-2.07227.75586-2.82812,0l-1.58594-1.58545-1.58594,1.58545c-.7793.78027-2.04883.78027-2.82812,0l-1.58594-1.58545-1.58594,1.58545c-.7793.78027-2.04883.78027-2.82812,0l-1.58594-1.58545-1.58594,1.58545c-.75586.75586-2.07227.75586-2.82812,0l-1.70654-1.70605-3.73322,3.3233c.37799,1.0495,1.5069,1.81927,2.85382,1.81927h32c1.38422,0,2.54095-.81189,2.88544-1.90631l-3.76385-3.23822-1.70752,1.70801Z"/>
        <path d="M40,30.85913h-1c-.19727,0-.39062.05023-.55469.14398l-2.44531,1.39746-1.89111-1.08105c-.67334-.38379-1.54395-.38507-2.21826.00037l-1.89062,1.08069-1.89111-1.08105c-.67334-.38379-1.54395-.38507-2.21826.00037l-1.89062,1.08069-1.89111-1.08105c-.67334-.38379-1.54395-.38507-2.21826.00037l-1.89062,1.08069-1.89111-1.08105c-.67383-.38379-1.54443-.38507-2.21826.00037l-1.89062,1.08069-2.44531-1.39746c-.16406-.09375-.35742-.14398-.55469-.14398h-1c-1.6543,0-3,1.15344-3,2.57141v5.06146l2.65283-2.36139c.03467-.03076.07129-.05908.10986-.08447.79053-.52783,1.85303-.42285,2.52441.25l1.71289,1.7124,1.58594-1.58545c.7793-.78027,2.04883-.78027,2.82812,0l1.58594,1.58545,1.58594-1.58545c.7793-.78027,2.04883-.78027,2.82812,0l1.58594,1.58545,1.58594-1.58545c.7793-.78027,2.04883-.78027,2.82812,0l1.58594,1.58545,1.58594-1.58545c.7793-.78027,2.04883-.78027,2.82812,0l1.58594,1.58545,1.71338-1.71289c.67236-.67285,1.73291-.77734,2.52393-.24951.03369.02246.06641.04688.09717.07373l2.66553,2.2934v-4.98273c0-1.41797-1.3457-2.57141-3-2.57141Z"/>
        <path d="M6,15h3v13.85999c.54999,0,1.08002.14001,1.54999.40997l1.45001.83002.90002-.52002c.63-.35999,1.35999-.54999,2.09998-.54999v-2.02997h10v2.52997c.59998-.32996,1.29999-.5,2-.5.73999,0,1.46997.19,2.09998.54999l.90002.52002.90002-.52002c.02997-.01996.06-.03998.09998-.04999v-14.52997h11c.54999,0,1-.45001,1-1s-.45001-1-1-1h-3v-1c0-3.85999-3.14001-7-7-7s-7,3.14001-7,7v1h-2v-1c0-3.85999-3.14001-7-7-7s-7,3.14001-7,7v1h-3c-.54999,0-1,.45001-1,1s.45001,1,1,1ZM31,12c0-.54999.45001-1,1-1s1,.45001,1,1v1h-2v-1ZM15,12c0-.54999.45001-1,1-1s1,.45001,1,1v1h-2v-1ZM15,15h10v2h-10v-2ZM15,19h10v2h-10v-2ZM15,23h10v2h-10v-2Z"/>
        <path d="M36.25586,17.33203c-.54395.60596-3.25586,3.72656-3.25586,5.66797,0,2.20557,1.79443,4,4,4s4-1.79443,4-4c0-1.94141-2.71191-5.06201-3.25586-5.66797-.37891-.42285-1.10938-.42285-1.48828,0Z"/>
      </g>
    </g>
  </g>
</svg>