<?xml version="1.0" encoding="utf-8"?>
<!-- Generator: Adobe Illustrator 28.3.0, SVG Export Plug-In . SVG Version: 6.00 Build 0)  -->
<svg version="1.1" id="Glyph" xmlns="http://www.w3.org/2000/svg" xmlns:xlink="http://www.w3.org/1999/xlink" x="0px" y="0px"
	 viewBox="0 0 48 48" enable-background="new 0 0 48 48" xml:space="preserve">
<g>
	<path d="M27.42725,26.08008C27.15967,25.89258,27,25.58691,27,25.25977V14c0-1.6543-1.3457-3-3-3s-3,1.3457-3,3v11.25977
		c0,0.32715-0.15967,0.63281-0.42725,0.82031C18.96191,27.20508,18,29.04395,18,31c0,3.30859,2.69141,6,6,6s6-2.69141,6-6
		C30,29.04395,29.03809,27.20508,27.42725,26.08008z M24,35c-2.20557,0-4-1.79395-4-4c0-1.8587,1.27972-3.41083,3-3.85797V14
		c0-0.55225,0.44775-1,1-1s1,0.44775,1,1v13.14203C26.72028,27.58917,28,29.1413,28,31C28,33.20605,26.20557,35,24,35z"/>
	<circle cx="24" cy="31" r="2"/>
	<path d="M33,11h4V8c0-1.6543-1.3457-3-3-3H14c-1.6543,0-3,1.3457-3,3v32c0,1.6543,1.3457,3,3,3h20c1.6543,0,3-1.3457,3-3V25h-4
		c-0.55225,0-1-0.44775-1-1s0.44775-1,1-1h4v-2h-4c-0.55225,0-1-0.44775-1-1s0.44775-1,1-1h4v-2h-4c-0.55225,0-1-0.44775-1-1
		s0.44775-1,1-1h4v-2h-4c-0.55225,0-1-0.44775-1-1S32.44775,11,33,11z M24,39c-4.41113,0-8-3.58887-8-8
		c0-2.43066,1.1123-4.72559,3-6.23975V14c0-2.75684,2.24316-5,5-5s5,2.24316,5,5v10.76025c1.8877,1.51416,3,3.80908,3,6.23975
		C32,35.41113,28.41113,39,24,39z"/>
</g>
</svg>
