<?xml version="1.0" encoding="utf-8"?>
<!-- Generator: Adobe Illustrator 28.3.0, SVG Export Plug-In . SVG Version: 6.00 Build 0)  -->
<svg version="1.1" id="Glyph" xmlns="http://www.w3.org/2000/svg" xmlns:xlink="http://www.w3.org/1999/xlink" x="0px" y="0px"
	 viewBox="0 0 48 48" enable-background="new 0 0 48 48" xml:space="preserve">
<g>
	<path d="M7.17725,35.43164C6.52246,36.37988,5,38.72168,5,40c0,1.6543,1.3457,3,3,3s3-1.3457,3-3
		c0-1.27832-1.52246-3.62012-2.17725-4.56836C8.44971,34.89062,7.55029,34.89062,7.17725,35.43164z"/>
	<path d="M15.17725,31.43164C14.52246,32.37988,13,34.72168,13,36c0,1.6543,1.3457,3,3,3s3-1.3457,3-3
		c0-1.27832-1.52246-3.62012-2.17725-4.56836C16.44971,30.89062,15.55029,30.89062,15.17725,31.43164z"/>
	<path d="M31.17725,35.43164C30.52246,36.37988,29,38.72168,29,40c0,1.6543,1.3457,3,3,3s3-1.3457,3-3
		c0-1.27832-1.52246-3.62012-2.17725-4.56836C32.44971,34.89062,31.55029,34.89062,31.17725,35.43164z"/>
	<path d="M39.17725,31.43164C38.52246,32.37988,37,34.72168,37,36c0,1.6543,1.3457,3,3,3s3-1.3457,3-3
		c0-1.27832-1.52246-3.62012-2.17725-4.56836C40.44971,30.89062,39.55029,30.89062,39.17725,31.43164z"/>
	<path d="M32.95221,29.15979c-0.0744-0.2981-0.27502-0.56549-0.58063-0.68811l-2.88965-1.15625c0,0,2.3587-3.77313,2.36621-3.78516
		C32.25793,22.87476,31.7699,22,31,22h-6c-0.3877,0-0.74072,0.22461-0.90527,0.5752c0,0-2.99878,6.39777-3,6.40039
		c-0.23456,0.50037-0.00061,1.13916,0.53418,1.35352l3.18945,1.27539l-1.78857,7.15332
		c-0.11279,0.45215,0.10156,0.92285,0.51758,1.13379c0.39667,0.20111,0.92108,0.10797,1.2207-0.25098c0,0,7.98566-9.5824,8-9.59961
		C32.97357,29.79474,33.02759,29.46155,32.95221,29.15979z"/>
	<path d="M43,22.5c0-2.67004-1.60999-5.02002-4.02002-6.01001C38.98999,16.32996,39,16.16998,39,16c0-2.76001-2.23999-5-5-5
		c-0.40997,0-0.82001,0.04999-1.21997,0.14996C31.94,7.60999,28.75,5,25,5c-3.67999,0-6.84998,2.51996-7.73999,6H17
		c-3.85999,0-7,3.14001-7,7c0,0.33997,0.02002,0.66998,0.07001,1c0,0-0.06982,0-0.07001,0c-2.71747,0-5,2.28815-5,5
		c0,2.76001,2.23999,5,5,5h9.03003c0.02997-0.29999,0.12-0.59003,0.25-0.87l3-6.40002C22.78003,20.67999,23.84003,20,25,20
		c0,0,5.99481,0,6,0c2.31317,0,3.75439,2.62494,2.54999,4.58997l-1.09998,1.76001L33.10999,26.62
		c0.90002,0.34998,1.57001,1.12,1.79999,2.04999c0.03003,0.10999,0.05005,0.22003,0.06,0.33002c0,0,1.52869,0,1.53003,0
		C40.0379,29,43,26.03192,43,22.5z M13,25c-0.55231,0-1-0.44775-1-1c0-0.55231,0.44769-1,1-1s1,0.44769,1,1
		C14,24.55225,13.55231,25,13,25z M17,25c-0.55231,0-1-0.44775-1-1c0-0.55231,0.44769-1,1-1s1,0.44769,1,1
		C18,24.55225,17.55231,25,17,25z M28,14c-0.55225,0-1-0.44727-1-1c0-1.10254-0.89697-2-2-2s-2,0.89746-2,2c0,0.55273-0.44775,1-1,1
		s-1-0.44727-1-1c0-2.20605,1.79443-4,4-4s4,1.79395,4,4C29,13.55273,28.55225,14,28,14z"/>
</g>
</svg>
