<?xml version="1.0" encoding="UTF-8"?>
<svg id="Glyph" xmlns="http://www.w3.org/2000/svg" version="1.1" viewBox="0 0 48 48">
  <path d="M34,37.82996c-1.15997-.40997-2-1.52997-2-2.82996s.84003-2.42004,2-2.83002v-1.16998H14v1.16998c1.15997.40997,2,1.53003,2,2.83002s-.84003,2.41998-2,2.82996v1.17004h20v-1.17004ZM20,36c-.54999,0-1-.45001-1-1s.45001-1,1-1,1,.45001,1,1-.45001,1-1,1ZM24,36c-.54999,0-1-.45001-1-1s.45001-1,1-1,1,.45001,1,1-.45001,1-1,1ZM28,36c-.54999,0-1-.45001-1-1s.45001-1,1-1,1,.45001,1,1-.45001,1-1,1Z" fill="#000" stroke-width="0"/>
  <path d="M8,40c0,1.64996,1.34998,3,3,3h26c1.65002,0,3-1.35004,3-3v-13H8v13ZM12,37c0-.54999.45001-1,1-1s1-.45001,1-1-.45001-1-1-1-1-.45001-1-1v-3c0-.54999.45001-1,1-1h22c.54999,0,1,.45001,1,1v3c0,.54999-.45001,1-1,1s-1,.45001-1,1,.45001,1,1,1,1,.45001,1,1v3c0,.54999-.45001,1-1,1H13c-.54999,0-1-.45001-1-1v-3Z" fill="#000" stroke-width="0"/>
  <path d="M40,19H8c-1.65002,0-3,1.34998-3,3s1.34998,3,3,3h32c1.65002,0,3-1.35004,3-3s-1.34998-3-3-3Z" fill="#000" stroke-width="0"/>
  <path d="M21,17h6c0-1.65002-1.34998-3-3-3s-3,1.34998-3,3Z" fill="#000" stroke-width="0"/>
  <circle cx="24" cy="11" r="1" fill="#000" stroke-width="0"/>
  <path d="M21.52002,12.67999c-.33002-.47998-.52002-1.06-.52002-1.67999,0-1.65002,1.34998-3,3-3s3,1.34998,3,3c0,.62-.19,1.20001-.52002,1.67999,1.5.87,2.52002,2.46997,2.52002,4.32001h11v-9c0-1.65002-1.34998-3-3-3H11c-1.65002,0-3,1.34998-3,3v9h11c0-1.85004,1.02002-3.45001,2.52002-4.32001Z" fill="#000" stroke-width="0"/>
</svg>