<?xml version="1.0" encoding="UTF-8"?>
<svg xmlns="http://www.w3.org/2000/svg" version="1.1" viewBox="0 0 64 64">
  <!-- Generator: Adobe Illustrator 28.7.1, SVG Export Plug-In . SVG Version: 1.2.0 Build 142)  -->
  <g>
    <g id="Glyph">
      <g>
        <path d="M32,7c-11.57959,0-21,9.42041-21,21v28c0,.55225.44775,1,1,1h4c.55225,0,1-.44775,1-1v-28c0-8.271,6.729-15,15-15s15,6.729,15,15v28c0,.55225.44775,1,1,1h4c.55225,0,1-.44775,1-1v-28c0-11.57959-9.42041-21-21-21Z"/>
        <circle cx="26" cy="43" r="1"/>
        <polygon points="38.90479 27 33 27 33 36 38.08691 36 38.90479 27"/>
        <circle cx="38" cy="43" r="1"/>
        <path d="M42,21h-20c-1.6543,0-3,1.3457-3,3v23c0,1.6543,1.3457,3,3,3h2.27692l-3.14508,5.50391c-.27393.47949-.10742,1.09033.37231,1.3644.47628.2722,1.09146.10551,1.36402-.37221l1.42633-2.49609h15.41101l1.42633,2.49609c.27107.47438.89057.64297,1.36426.37208.47949-.27393.646-.88477.37207-1.36426l-3.14508-5.50391h2.27692c1.6543,0,3-1.3457,3-3v-23c0-1.6543-1.3457-3-3-3ZM23.26172,25.32568c.18945-.20752.45752-.32568.73828-.32568h16c.28076,0,.54883.11816.73828.32568s.2832.48486.25781.76465l-1,11c-.04688.51514-.479.90967-.99609.90967h-14c-.51709,0-.94922-.39453-.99609-.90967l-1-11c-.02539-.27979.06836-.55713.25781-.76465ZM23,43c0-1.6543,1.3457-3,3-3s3,1.3457,3,3-1.3457,3-3,3-3-1.3457-3-3ZM38.56262,52h-13.12524l1.14282-2h10.8396l1.14282,2ZM38,46c-1.6543,0-3-1.3457-3-3s1.3457-3,3-3,3,1.3457,3,3-1.3457,3-3,3Z"/>
        <polygon points="31 36 31 27 25.09521 27 25.91309 36 31 36"/>
      </g>
    </g>
  </g>
</svg>