<?xml version="1.0" encoding="UTF-8"?>
<svg xmlns="http://www.w3.org/2000/svg" version="1.1" viewBox="0 0 64 64">
  <!-- Generator: Adobe Illustrator 28.7.1, SVG Export Plug-In . SVG Version: 1.2.0 Build 142)  -->
  <g>
    <g id="Glyph">
      <g>
        <path d="M43,45.34531H7v3c0,.55225.44727,1,1,1h35v-4Z"/>
        <path d="M41,20.65537h3.16595l2.67261,14.68994h6.03198l-2.67261-14.68994h2.80206c.37891,0,.72461-.21387.89453-.55273l2-4c.24707-.49414.04688-1.09473-.44727-1.3418-.49414-.24756-1.09375-.04736-1.3418.44727l-1.72363,3.44727h-11.38184c-.55273,0-1,.44775-1,1s.44727,1,1,1Z"/>
        <path d="M43,39.34531v4H11c-1.10457,0-2-.89543-2-2h0c0-1.1.9-2,2-2h32Z"/>
        <path d="M56,37.34531h-10c-.54999,0-1,.45001-1,1v11h11c.54999,0,1-.45001,1-1v-10c0-.54999-.45001-1-1-1ZM52,44.34531h-2c-.54999,0-1-.45001-1-1s.45001-1,1-1h2c.54999,0,1,.45001,1,1s-.45001,1-1,1Z"/>
      </g>
    </g>
  </g>
</svg>