<?xml version="1.0" encoding="utf-8"?>
<!-- Generator: Adobe Illustrator 27.3.1, SVG Export Plug-In . SVG Version: 6.00 Build 0)  -->
<svg version="1.1" id="Glyph" xmlns="http://www.w3.org/2000/svg" xmlns:xlink="http://www.w3.org/1999/xlink" x="0px" y="0px"
	 viewBox="0 0 64 64" enable-background="new 0 0 64 64" xml:space="preserve">
<g>
	<path d="M37.05664,21.5752C35.52832,19.5332,33.83105,17.44824,32,15.36426c-1.8291,2.08203-3.52686,4.16797-5.05615,6.21094
		C21.82129,28.4209,19,34.25391,19,38c0,6.03931,4.14569,11.1153,9.73676,12.56879C28.89337,49.72461,29,48.86847,29,48v-2.05981
		c-2.47156-0.29626-4.3999-2.3537-4.3999-4.8689c0-0.5625,0.09814-1.11816,0.28809-1.64453
		C23.70508,38.50488,23,37.09766,23,35.57129c0-1.52539,0.70508-2.93262,1.88818-3.85547
		c-0.18994-0.52637-0.28809-1.08203-0.28809-1.64453c0-2.08398,1.33691-3.92285,3.26904-4.625C28.22852,23.46387,29.94434,22,32,22
		c2.07715,0,3.80664,1.49414,4.1416,3.4502c1.92676,0.7041,3.25879,2.54102,3.25879,4.62109
		c0,0.5625-0.09863,1.11816-0.28809,1.64453C40.29492,32.63965,41,34.0459,41,35.57129c0,1.52637-0.70508,2.93262-1.8877,3.85547
		c0.18945,0.52637,0.28809,1.08203,0.28809,1.64453c0,2.51538-1.92859,4.57288-4.40039,4.86896V48
		c0,0.86908,0.10645,1.72485,0.26337,2.56873C40.85419,49.11511,45,44.03925,45,38C45,34.25488,42.17871,28.42188,37.05664,21.5752z
		"/>
	<path d="M33,46h-2v2c0,0.98956-0.09326,1.97229-0.27167,2.93555C31.14703,50.97638,31.57074,51,32,51
		c0.42938,0,0.85321-0.02356,1.27203-0.06445C33.09344,49.97253,33,48.98938,33,48V46z"/>
	<path d="M37.40039,41.07129c0-0.53107-0.14148-1.03192-0.42157-1.48981c-0.30408-0.49701-0.11401-1.15344,0.40204-1.41449
		C38.37988,37.66211,39,36.66699,39,35.57129c0-1.09564-0.62103-2.08972-1.61993-2.59564
		c-0.51721-0.2619-0.70203-0.92206-0.40155-1.41412c0.28027-0.45801,0.42188-0.95898,0.42188-1.49023
		c0-1.3877-1.00684-2.59375-2.39453-2.86914c-0.46777-0.0918-0.80566-0.50293-0.80566-0.98047C34.2002,24.96094,33.21289,24,32,24
		c-1.21338,0-2.2002,0.96094-2.2002,2.14258c0,0.47754-0.3374,0.9668-0.80566,1.05957
		c-1.38721,0.27539-2.39404,1.48145-2.39404,2.86914c0,0.53119,0.1416,1.03217,0.42133,1.49115
		c0.3028,0.49664,0.11267,1.15088-0.40179,1.41315C25.62061,33.48145,25,34.47559,25,35.57129s0.62061,2.09082,1.61914,2.5957
		c0.51666,0.26135,0.70557,0.91656,0.40234,1.41309c-0.27979,0.45898-0.42139,0.95996-0.42139,1.49121
		c0,1.61523,1.3457,2.92871,3,2.92871h4.80029C36.05469,44,37.40039,42.68652,37.40039,41.07129z"/>
	<path d="M32.70703,7.29297c-0.39062-0.39062-1.02344-0.39062-1.41406,0C30.5459,8.04004,13,25.72656,13,38
		c0,10.47656,8.52344,19,19,19s19-8.52344,19-19C51,25.72656,33.4541,8.04004,32.70703,7.29297z M32,53c-8.271,0-15-6.72852-15-15
		c0-4.17578,2.96289-10.43359,8.34229-17.62305c1.77002-2.36523,3.75977-4.7832,5.91309-7.18652
		c0.37891-0.42383,1.11035-0.42383,1.48926,0c2.15576,2.40527,4.14502,4.82324,5.91357,7.1875C44.03711,27.56738,47,33.8252,47,38
		C47,46.27148,40.27148,53,32,53z"/>
</g>
</svg>
