<?xml version="1.0" encoding="UTF-8"?>
<svg id="Glyph" xmlns="http://www.w3.org/2000/svg" version="1.1" viewBox="0 0 64 64">
  <circle cx="13" cy="45.5" r="1" fill="#000" stroke-width="0"/>
  <path d="M13,39.5c-3.30859,0-6,2.69141-6,6s2.69141,6,6,6,6-2.69141,6-6-2.69141-6-6-6ZM13,48.5c-1.6543,0-3-1.3457-3-3s1.3457-3,3-3,3,1.3457,3,3-1.3457,3-3,3Z" fill="#000" stroke-width="0"/>
  <path d="M54,23.5c0-.55273-.44775-1-1-1h-3v8.99997c0,.76163-.8627,1.24782-1.51465.85745l-4.48535-2.69141-4.48535,2.69141c-.30859.18555-.69385.19043-1.00732.0127s-.50732-.50977-.50732-.87012v-9h-3c-.55225,0-1,.44727-1,1v17h20v-17Z" fill="#000" stroke-width="0"/>
  <path d="M32,29.5c0-.55273-.44775-1-1-1h-6c-.55225,0-1,.44727-1,1v11h8v-11Z" fill="#000" stroke-width="0"/>
  <path d="M44,27.5c.17822,0,.35596.04785.51465.14258l3.48535,2.09082v-7.2334h-8v7.2334l3.48535-2.09082c.15869-.09473.33643-.14258.51465-.14258Z" fill="#000" stroke-width="0"/>
  <path d="M56,42.5H20.40997c.38.92999.59003,1.94.59003,3s-.21002,2.07001-.59003,3h35.59003c.54999,0,1-.45001,1-1v-4c0-.54999-.45001-1-1-1Z" fill="#000" stroke-width="0"/>
  <path d="M22,32.5v6h-3c-.54999,0-1-.45001-1-1v-4c0-.54004.42999-.97003.96002-.98999l-5.71002-20.01001h-3.25c-.54999,0-1-.45001-1-1s.45001-1,1-1h4c.45001,0,.84003.29999.96002.72998l6,21c.02997.09003.01996.17999.01996.27002h1.02002Z" fill="#000" stroke-width="0"/>
  <path d="M48,53.5c2.04504,0,3.80243-1.2373,4.57617-3h-9.15234c.77374,1.7627,2.53113,3,4.57617,3Z" fill="#000" stroke-width="0"/>
</svg>