<?xml version="1.0" encoding="UTF-8"?>
<svg xmlns="http://www.w3.org/2000/svg" version="1.1" viewBox="0 0 64 64">
  <!-- Generator: Adobe Illustrator 28.7.1, SVG Export Plug-In . SVG Version: 1.2.0 Build 142)  -->
  <g>
    <g id="Glyph">
      <g>
        <rect x="30" y="7" width="4" height="16"/>
        <path d="M28,7h-12.5293c-1.31934,0-2.4707.8457-2.86328,2.10547l-4.3421,13.89453h19.73468V7Z"/>
        <path d="M51.39258,9.10547c-.39258-1.25977-1.54395-2.10547-2.86328-2.10547h-12.5293v16h19.73468l-4.3421-13.89453Z"/>
        <path d="M35,25H8v28c0,2.20605,1.79395,4,4,4h40c2.20605,0,4-1.79395,4-4v-28h-21ZM28,51.23047h-3.82812c-1.03613,0-1.98438-.52344-2.53711-1.39941-.55273-.87695-.61621-1.95898-.16992-2.89355l2.29498-4.8031-.41217.12927c-.53027.16504-1.08887-.12891-1.25391-.6543-.16504-.52734.12793-1.08887.6543-1.25391,0,0,2.69769-.8465,2.69824-.84668.52289-.16412,1.08942.13434,1.25391.65527l.84668,2.69922c.16504.52637-.12793,1.08789-.65533,1.25293-.52002.16467-1.08984-.13635-1.25287-.65527,0-.00006-.11761-.37439-.11761-.37439l-2.25153,4.71228c-.15137.31641-.12988.66797.05664.96484.1875.29688.49512.4668.8457.4668h3.82812c.55273,0,1,.44727,1,1s-.44727,1-1,1ZM31.09766,31.4375l-2.97559,6.22461c-.23828.49707-.83398.70801-1.33398.4707-.49805-.23828-.70898-.83496-.4707-1.33398l2.97559-6.22461c.50391-1.05176,1.54102-1.70605,2.70703-1.70605s2.20312.6543,2.70703,1.70605l2.06354,4.31671.11517-.33917c.17773-.52344.74609-.80371,1.26855-.62598.52344.17773.80273.74609.62598,1.26855,0,0-.90741,2.67352-.90918,2.67871-.17438.51379-.75592.79999-1.26855.62598l-2.67871-.90918c-.52344-.17773-.80273-.74609-.62598-1.26855.17773-.52344.74707-.80371,1.26855-.62598l.4433.15051-2.10736-4.40833c-.33985-.71289-1.46485-.71289-1.80469,0ZM42.36523,49.83105c-.55274.87598-1.50098,1.39941-2.53711,1.39941h-4.68835l.16101.13477c.42383.35449.47949.98438.125,1.4082-.34088.40753-.98383.48083-1.4082.125,0,0-2.16589-1.81207-2.16992-1.81543-.41833-.35004-.47607-.99097-.125-1.4082l1.81543-2.16895c.35352-.42188.98535-.48145,1.4082-.125.42383.35449.47949.98535.125,1.4082l-.36914.44141h5.12598c.35059,0,.6582-.16992.8457-.4668.18652-.29688.20801-.64844.05664-.96484l-2.93262-6.1377c-.23828-.49805-.02734-1.09473.47168-1.33301.49512-.23828,1.09473-.02734,1.33301.47168l2.93262,6.1377c.44629.93457.38281,2.0166-.16992,2.89355Z"/>
      </g>
    </g>
  </g>
</svg>