<?xml version="1.0" encoding="UTF-8"?>
<svg xmlns="http://www.w3.org/2000/svg" version="1.1" viewBox="0 0 64 64">
  <!-- Generator: Adobe Illustrator 28.7.1, SVG Export Plug-In . SVG Version: 1.2.0 Build 142)  -->
  <g>
    <g id="Glyph">
      <g>
        <path d="M54.76796,50.01495c-.40002.39001-1.05005.36005-1.42004,0,0-.00995-.54999-.56-.54999-.56l-5.10999,5.11005c-1.60999,1.60999-3.72003,2.44-5.84998,2.44-1.68005,0-3.36005-.51001-4.82001-1.55005-10.27002-7.33997-19.19-16.25995-26.53003-26.52997-2.35999-3.31-1.98999-7.79999.89001-10.66998l5.10999-5.11005-.57001-.57001c-.39001-.38995-.39001-1.01996,0-1.40997s1.02002-.39001,1.42004,0l12.71997,12.72003c.39001.38995.39001,1.02997,0,1.41998-.39001.38-1.03003.39001-1.41998,0l-.56-.57001-3.66003,3.65997c-.20001.20001-.31.46002-.31.74005,0,.28998.10999.54999.31.75l11.64001,11.63995c.40002.40002,1.09003.40002,1.48999,0l3.66003-3.65997-.56-.54999c-.39001-.39001-.39001-1.03003,0-1.42004.39996-.38995,1.02997-.38995,1.41998,0l12.70001,12.70001c.38995.39001.38995,1.03003,0,1.41998Z"/>
        <path d="M42.83528,20.995c-1.71814,0-3.33978.7345-4.46436,1.99469,1.09937,1.22736,2.69073,2.00531,4.46436,2.00531,1.77264,0,3.36316-.7771,4.46252-2.00323-.07202-.08032-.14111-.16156-.21936-.23993-1.13281-1.13281-2.63965-1.75684-4.24316-1.75684Z"/>
        <circle cx="42.83528" cy="17.995" r="1"/>
        <path d="M30.01789,29.28796c-.28613.28613-.37207.71631-.2168,1.08984.1543.37354.51953.61719.92383.61719h12.22168c6.61719,0,12-5.3833,12-12s-5.38281-12-12-12-12,5.3833-12,12c0,2.53955.8125,5.01318,2.30371,7.05908l-3.23242,3.23389ZM42.83528,10.995c4.41113,0,8,3.58887,8,8s-3.58887,8-8,8-8-3.58887-8-8,3.58887-8,8-8Z"/>
        <path d="M40.22474,19.44385c-.24054-.43146-.38947-.92078-.38947-1.44885,0-1.6543,1.3457-3,3-3s3,1.3457,3,3c0,.526-.14789,1.01343-.38666,1.44373,1.09076.37604,2.09351.98499,2.94415,1.80853.2832-.69617.4425-1.45551.4425-2.25226,0-3.30859-2.69141-6-6-6s-6,2.69141-6,6c0,.80072.16052,1.56384.44641,2.26282.84015-.81525,1.84271-1.43353,2.94305-1.81396Z"/>
      </g>
    </g>
  </g>
</svg>