<?xml version="1.0" encoding="UTF-8"?>
<svg xmlns="http://www.w3.org/2000/svg" version="1.1" viewBox="0 0 64 64">
  <!-- Generator: Adobe Illustrator 28.7.1, SVG Export Plug-In . SVG Version: 1.2.0 Build 142)  -->
  <g>
    <g id="Glyph">
      <g>
        <path d="M46,36c-3.31372,0-6,2.68628-6,6s2.68628,6,6,6h9v-12h-9ZM46,45c-1.6543,0-3-1.3457-3-3s1.3457-3,3-3,3,1.3457,3,3-1.3457,3-3,3Z"/>
        <circle cx="46" cy="42" r="1"/>
        <path d="M33.12695,12h-6.25391c-.3623,1.40381-1.46973,2.51074-2.87305,2.87354v12.12646h12v-12.12646c-1.40332-.36279-2.51074-1.46973-2.87305-2.87354Z"/>
        <path d="M22,13.94556c0-.55072.46625-.94104,1.01703-.94562,1.08887-.00916,1.97339-.89301,1.98291-1.98224.00476-.55121.39539-1.0177.94659-1.0177h8.10693c.55121,0,.94183.46649.94659,1.0177.00952,1.08923.89404,1.97308,1.98291,1.98224.55078.00458,1.01703.3949,1.01703.94562v13.05444h3V9c0-1.10461-.89545-2-2-2h-18c-1.10455,0-2,.89539-2,2v18h3v-13.05444Z"/>
        <circle cx="24" cy="50" r="1"/>
        <circle cx="16" cy="50" r="1"/>
        <path d="M38.01837,41.45203c.28461-4.24719,4.00745-7.45203,8.26416-7.45203h4.71747v-3c0-1.10461-.89545-2-2-2H12c-1.13,0-2.16998-.37-3-1v25c0,2.20911,1.79083,4,4,4h36c1.10455,0,2-.89545,2-2v-5h-5c-4.59247,0-8.2937-3.89001-7.98163-8.54797ZM16,53c-1.6543,0-3-1.3457-3-3s1.3457-3,3-3,3,1.3457,3,3-1.3457,3-3,3ZM24,53c-1.6543,0-3-1.3457-3-3s1.3457-3,3-3,3,1.3457,3,3-1.3457,3-3,3Z"/>
        <path d="M12,27h5v-6h-5c-1.65997,0-3,1.33997-3,3,0,.82996.34003,1.57996.88,2.12.53998.53998,1.28998.88,2.12.88Z"/>
        <rect x="43" y="21" width="5" height="6"/>
      </g>
    </g>
  </g>
</svg>