<?xml version="1.0" encoding="utf-8"?>
<!-- Generator: Adobe Illustrator 27.3.1, SVG Export Plug-In . SVG Version: 6.00 Build 0)  -->
<svg version="1.1" id="Glyph" xmlns="http://www.w3.org/2000/svg" xmlns:xlink="http://www.w3.org/1999/xlink" x="0px" y="0px"
	 viewBox="0 0 64 64" enable-background="new 0 0 64 64" xml:space="preserve">
<g>
	<path d="M53.29297,23.29297C53.05859,23.52734,51,25.65332,51,28c0,1.6543,1.3457,3,3,3s3-1.3457,3-3
		c0-2.34668-2.05859-4.47266-2.29297-4.70703C54.31641,22.90234,53.68359,22.90234,53.29297,23.29297z"/>
	<path d="M19.33002,54C19.21997,54,19.10999,54,19,53.98999V56c0,0.54999,0.45001,1,1,1h20c0.54999,0,1-0.45001,1-1v-2.04004
		C40.66998,53.98999,40.34003,54,40,54H19.33002z"/>
	<path d="M48,7c-4.96002,0-9,4.03998-9,9v8h1c1.76001,0,3.44,0.29999,5,0.85999V16c0-1.65002,1.34998-3,3-3s3,1.34998,3,3v4
		c0,0.54999,0.45001,1,1,1h4c0.54999,0,1-0.45001,1-1v-4C57,11.03998,52.96002,7,48,7z"/>
	<path d="M27,24v-1c0-0.54999-0.45001-1-1-1h-6c-0.54999,0-1,0.45001-1,1v1.01001C19.10999,24,19.21997,24,19.33002,24H27z"/>
	<path d="M32,40.5c0-1.69922-1.19775-3.47998-2-4.48193c-0.80225,1.00195-2,2.78271-2,4.48193c0,1.10303,0.89697,2,2,2
		S32,41.60303,32,40.5z"/>
	<path d="M40,32H20c-3.78607,0-6.87201,3.02307-6.98895,6.78131c2.00671-0.58881,4.02545-0.86737,6.02997-0.78033
		c1.48047,0.06006,2.43701,0.28125,3.44971,0.51514c0.75391,0.17383,1.5332,0.354,2.6333,0.4917
		c0.35718,0.04449,0.70148,0.05713,1.05225,0.08344c0.65979-2.80664,3.00098-5.18292,3.1167-5.29828
		c0.39062-0.39062,1.02344-0.39062,1.41406,0c0.1059,0.10553,2.07343,2.10468,2.91376,4.59302
		c0.71368-0.13556,1.44586-0.26923,2.24542-0.3772c3.55432-0.49017,7.28485-0.38281,11.09918,0.30774
		C46.62061,34.77637,43.62872,32,40,32z"/>
	<path d="M36.13672,39.99072c-0.75421,0.10168-1.45764,0.2301-2.14514,0.36035C33.99292,40.40088,34,40.45013,34,40.5
		c0,2.20557-1.79443,4-4,4c-2.00488,0-3.6543-1.48755-3.94073-3.414c-0.39435-0.02905-0.78259-0.04376-1.18329-0.09381
		c-1.20215-0.15039-2.06982-0.35059-2.83545-0.52734c-0.95898-0.22168-1.78711-0.41309-3.08105-0.46582
		c-1.88849-0.07471-3.80695,0.20709-5.71552,0.80377C14.0423,43.79022,16.76434,46,20,46h20c3.4032,0,6.2442-2.44275,6.86908-5.6665
		C43.13855,39.62811,39.617,39.51172,36.13672,39.99072z"/>
	<path d="M40,26H19.32812C12.53027,26,7,31.53027,7,38.32812v1.34375C7,46.46973,12.53027,52,19.32812,52H40
		c7.16797,0,13-5.83154,13-13S47.16797,26,40,26z M40,48H20c-4.9624,0-9-4.0376-9-9s4.0376-9,9-9h20c4.96289,0,9,4.0376,9,9
		S44.96289,48,40,48z"/>
</g>
</svg>
