<?xml version="1.0" encoding="UTF-8"?>
<svg xmlns="http://www.w3.org/2000/svg" version="1.1" viewBox="0 0 64 64">
  <!-- Generator: Adobe Illustrator 28.7.1, SVG Export Plug-In . SVG Version: 1.2.0 Build 142)  -->
  <g>
    <g id="Glyph">
      <g>
        <path d="M53,17.99988c-2.16071,0-4,1.83423-4,4v7.20996c.75.12,1.47998.38,2.14001.78003,2.67999,1.60999,3.69,5.06,2.28998,7.85999l-2.75,5.48999c-.23663.4873-.87396.68774-1.34003.44995-.48999-.25-.68994-.84998-.44995-1.3399l2.75-5.5c.94-1.87006.26001-4.17004-1.53003-5.25-1.82397-1.0946-4.43347-.45038-5.52997,1.37994-.00372.00623-3.87,6.46002-3.87,6.46002-.46002.77002-.71002,1.66003-.71002,2.57001v4.89001h12c.57001,0,1.12.09998,1.63.26996,2.20001-4.57996,3.37-9.58997,3.37-14.69995v-10.57001c0-2.21002-1.78998-4-4-4Z"/>
        <rect x="37" y="48.99988" width="18" height="8" rx="3" ry="3"/>
        <path d="M12,46.99988h12v-4.89001c0-.90997-.25-1.79999-.71002-2.57001,0,0-3.86627-6.4538-3.87-6.46002-1.0965-1.83032-3.70599-2.47455-5.52997-1.37994-1.79004,1.07996-2.47003,3.37994-1.53003,5.25l2.75,5.5c.23999.48993.04004,1.0899-.44995,1.3399-.46606.23779-1.10339.03735-1.34003-.44995l-2.75-5.48999c-1.40002-2.79999-.39001-6.25,2.28998-7.85999.66003-.40002,1.39001-.66003,2.14001-.78003v-7.20996c0-2.16577-1.83929-4-4-4-2.21002,0-4,1.78998-4,4v10.57001c0,5.10999,1.16998,10.12,3.37,14.69995.51001-.16998,1.06-.26996,1.63-.26996Z"/>
        <rect x="9" y="48.99988" width="18" height="8" rx="3" ry="3"/>
        <path d="M46,23.99988c0-7.62207-12.88965-16.45508-13.43848-16.82764-.33887-.22949-.78418-.22949-1.12305,0-.54883.37256-13.43848,9.20557-13.43848,16.82764,0,7.71973,6.28027,14,14,14s14-6.28027,14-14ZM30.29297,16.29285c.00031-.00037,2-2,2-2,.39062-.39062,1.02344-.39062,1.41406,0s.39062,1.02344,0,1.41406l-.40936.40936c1.01385.16571,1.98871.51385,2.86493,1.05109,1.82227,1.1001,3.14795,2.93359,3.63135,5.02734.12451.53802-.21094,1.07513-.74896,1.19922-.51868.11957-1.07617-.21429-1.19928-.74902-.36279-1.56934-1.35498-2.94336-2.72266-3.76904-.4632-.284-.96143-.50024-1.48041-.6474l.06439.06439c.39062.39062.39062,1.02344,0,1.41406-.38586.38586-1.02832.38574-1.41406,0l-2.00012-2.00012c-.37683-.37726-.37134-1.04248.00012-1.41394ZM26,23.99988c0,.49091.07715.96442.19031,1.42645l.01379-.05145c.14258-.5332.68799-.85303,1.22461-.70703.5332.14258.8501.69092.70703,1.22461,0,0-.73126,2.72998-.73199,2.73254-.10785.40198-.55426.74109-.96576.74109-.08691,0-.17383-.01123-.25879-.03418l-2.73242-.73242c-.53369-.14307-.8501-.69141-.70703-1.22461.14258-.5332.69336-.85107,1.22461-.70703l.56372.151c-.33826-.88916-.52808-1.83466-.52808-2.81897v-.16016c.05469-2.17285.98438-4.23535,2.55127-5.68408.40381-.37549,1.03662-.35107,1.41309.05566.375.40527.3501,1.03809-.05566,1.41309-1.18945,1.1001-1.86768,2.60596-1.90918,4.24072l.00049.13477ZM39.55212,30.32825c-.52264.15729-1.08466-.18475-1.22351-.70337l-.1535-.57269c-.64764.79309-1.42786,1.47565-2.33331,1.97357-1.19873.64746-2.48926.97412-3.8418.97412-.77979,0-1.56152-.11475-2.32471-.34131-.5293-.15674-.83105-.71338-.67383-1.24316.15674-.5293.71094-.83105,1.24316-.67383,1.57861.46875,3.22559.29248,4.64014-.47168.4632-.25488.87469-.58612,1.25342-.95123l-.04932.01324c-.53271.14551-1.08203-.17383-1.22461-.70703-.14307-.5332.17334-1.08154.70703-1.22461,0,0,2.73193-.73242,2.73224-.73254.50983-.13751,1.09155.21198,1.2243.70715.00018.00055.73041,2.72479.73242,2.73236.13751.51312-.21252,1.0719-.70813,1.22101Z"/>
      </g>
    </g>
  </g>
</svg>