<?xml version="1.0" encoding="utf-8"?>
<!-- Generator: Adobe Illustrator 27.3.1, SVG Export Plug-In . SVG Version: 6.00 Build 0)  -->
<svg version="1.1" id="Glyph" xmlns="http://www.w3.org/2000/svg" xmlns:xlink="http://www.w3.org/1999/xlink" x="0px" y="0px"
	 viewBox="0 0 64 64" enable-background="new 0 0 64 64" xml:space="preserve">
<g>
	<path d="M14,43c-3.85999,0-7,3.14001-7,7s3.14001,7,7,7s7-3.14001,7-7S17.85999,43,14,43z M17,52c0,0.54999-0.45001,1-1,1
		s-1-0.45001-1-1v-1h-2v1c0,0.54999-0.45001,1-1,1s-1-0.45001-1-1v-4c0-0.54999,0.45001-1,1-1s1,0.45001,1,1v1h2v-1
		c0-0.54999,0.45001-1,1-1s1,0.45001,1,1V52z"/>
	<path d="M50,43c-3.85999,0-7,3.14001-7,7s3.14001,7,7,7s7-3.14001,7-7S53.85999,43,50,43z M53,52c0,0.54999-0.45001,1-1,1
		s-1-0.45001-1-1v-1h-2v1c0,0.54999-0.45001,1-1,1s-1-0.45001-1-1v-4c0-0.54999,0.45001-1,1-1s1,0.45001,1,1v1h2v-1
		c0-0.54999,0.45001-1,1-1s1,0.45001,1,1V52z"/>
	<path d="M32,42c-0.90002,0-1.77002-0.10999-2.60999-0.32001L24.12,46.95001C26.45001,48.25,29.14001,49,32,49
		s5.54999-0.75,7.88-2.04999l-5.27002-5.27002C33.77002,41.89001,32.90002,42,32,42z"/>
	<path d="M17.35999,39.57001l4.44-4.44C21.28003,33.85999,21,32.45996,21,31c0-6.07001,4.92999-11,11-11s11,4.92999,11,11
		c0,1.45996-0.28003,2.85999-0.79999,4.13l4.44,4.44C47.52002,37.63,48,35.47998,48,33.21997
		C48,22.48999,33.33002,7.89996,32.70001,7.28998c-0.39001-0.39001-1.01001-0.39001-1.40002,0
		C30.66998,7.89996,16,22.48999,16,33.21997C16,35.47998,16.47998,37.63,17.35999,39.57001z"/>
	<path d="M32,22c-4.96002,0-9,4.03998-9,9c0,4.95996,4.03998,9,9,9s9-4.04004,9-9C41,26.03998,36.96002,22,32,22z M36,32
		c-0.54999,0-1-0.45001-1-1c0-1.65002-1.34998-3-3-3c-0.54999,0-1-0.45001-1-1s0.45001-1,1-1c2.76001,0,5,2.23999,5,5
		C37,31.54999,36.54999,32,36,32z"/>
	<path d="M22.77002,36.97998L17.87,41.88c1.85999,0.88,3.37,2.38995,4.25,4.25l5.17999-5.17999
		C25.45001,40.07001,23.88,38.69,22.77002,36.97998z"/>
	<path d="M46.13,41.88l-4.90002-4.90002C40.12,38.69,38.54999,40.07001,36.70001,40.95001L41.88,46.13
		C42.76001,44.26996,44.27002,42.76001,46.13,41.88z"/>
	<path d="M51,23c3.30859,0,6-2.69141,6-6c0-4.36426-5.07715-9.49121-5.29297-9.70703c-0.375-0.375-1.03906-0.375-1.41406,0
		C50.07715,7.50879,45,12.63574,45,17C45,20.30859,47.69141,23,51,23z"/>
	<path d="M13,23c3.30859,0,6-2.69141,6-6c0-4.36426-5.07715-9.49121-5.29297-9.70703c-0.375-0.375-1.03906-0.375-1.41406,0
		C12.07715,7.50879,7,12.63574,7,17C7,20.30859,9.69141,23,13,23z"/>
</g>
</svg>
