<?xml version="1.0" encoding="utf-8"?>
<!-- Generator: Adobe Illustrator 28.3.0, SVG Export Plug-In . SVG Version: 6.00 Build 0)  -->
<svg version="1.1" id="Glyph" xmlns="http://www.w3.org/2000/svg" xmlns:xlink="http://www.w3.org/1999/xlink" x="0px" y="0px"
	 viewBox="0 0 48 48" enable-background="new 0 0 48 48" xml:space="preserve">
<g>
	<path d="M19,10c0-2.75684-2.24316-5-5-5s-5,2.24316-5,5c-2.20605,0-4,1.79443-4,4s1.79395,4,4,4h10c2.20605,0,4-1.79443,4-4
		S21.20605,10,19,10z"/>
	<path d="M29,18h10c2.20605,0,4-1.79443,4-4s-1.79395-4-4-4c0-2.75684-2.24316-5-5-5s-5,2.24316-5,5c-2.20605,0-4,1.79443-4,4
		S26.79395,18,29,18z"/>
	<path d="M8.55304,23.89465c0.48944,0.24451,1.09595,0.04364,1.34149-0.44739c0.00006-0.00012,1-2,1-2
		c0.24707-0.49414,0.04688-1.09473-0.44727-1.3418c-0.49316-0.24658-1.09473-0.04688-1.3418,0.44727l-1,2
		C7.8584,23.04688,8.05859,23.64746,8.55304,23.89465z"/>
	<path d="M12.55341,23.89465c0.48944,0.24451,1.09595,0.04364,1.34149-0.44739c0.00006-0.00012,1-2,1-2
		c0.24707-0.49414,0.04688-1.09473-0.44727-1.3418c-0.49316-0.24658-1.09473-0.04688-1.3418,0.44727l-1,2
		C11.85877,23.04688,12.05896,23.64746,12.55341,23.89465z"/>
	<path d="M16.5531,23.89471c0.48907,0.24426,1.09583,0.04382,1.34143-0.44745c0.00006-0.00018,1-2,1-2
		c0.24707-0.49414,0.04688-1.09473-0.44727-1.3418c-0.49512-0.24658-1.09375-0.04688-1.3418,0.44727l-1,2
		C15.8584,23.04688,16.05859,23.64746,16.5531,23.89471z"/>
	<circle cx="13.42969" cy="34.56982" r="1"/>
	<path d="M19.68457,31.98047v-2.66553c0-0.55225-0.44727-1-1-1h-2.66504l-1.88281-1.88232
		c-0.37598-0.37549-1.04004-0.37451-1.41406,0l-1.88184,1.88232H8.17578c-0.55273,0-1,0.44775-1,1v2.66553
		c0,0-1.88038,1.87989-1.88281,1.88232c-0.38723,0.38713-0.38742,1.02665,0,1.41407l1.88281,1.88232v2.66553
		c0,0.55225,0.44727,1,1,1h2.66504c0,0,1.87561,1.8761,1.88182,1.88231c0.38687,0.38697,1.02773,0.38636,1.41408,0.00002
		l1.88281-1.88232h2.66504c0.55273,0,1-0.44775,1-1v-2.66553c0,0,1.87671-1.87622,1.8828-1.88231
		c0.38769-0.38758,0.38687-1.02722,0.00002-1.41408L19.68457,31.98047z M13.42969,37.56982c-1.6543,0-3-1.3457-3-3s1.3457-3,3-3
		s3,1.3457,3,3S15.08398,37.56982,13.42969,37.56982z"/>
	<path d="M42,33h-1.5874l1.29248-1.29248c0.39062-0.39062,0.39062-1.02344,0-1.41406s-1.02344-0.39062-1.41406,0L37.58447,33H35
		v-2.58594l2.70703-2.70703c0.39062-0.39062,0.39062-1.02344,0-1.41406s-1.02344-0.39062-1.41406,0L35,27.58594V26
		c0-0.55225-0.44727-1-1-1s-1,0.44775-1,1v1.58594l-1.29297-1.29297c-0.39062-0.39062-1.02344-0.39062-1.41406,0
		s-0.39062,1.02344,0,1.41406L33,30.41406V33h-2.58447l-2.70947-2.70947c-0.39062-0.39062-1.02344-0.39062-1.41406,0
		s-0.39062,1.02344,0,1.41406L27.5874,33H26c-0.55273,0-1,0.44775-1,1s0.44727,1,1,1h1.58252l-1.29053,1.29053
		c-0.39062,0.39062-0.39062,1.02342-0.00002,1.41405c0.37226,0.37228,1.01908,0.39501,1.41408,0.00002L30.41064,35H33v2.58154
		l-2.70996,2.70996c-0.39062,0.39062-0.39062,1.02344,0,1.41406s1.02344,0.39062,1.41406,0L33,40.40967V42c0,0.55225,0.44727,1,1,1
		s1-0.44775,1-1v-1.58447c0,0,1.29004,1.29004,1.29005,1.29005c0.38718,0.38716,1.02631,0.38772,1.41405-0.00001
		c0.39062-0.39062,0.39062-1.02344,0-1.41406L35,37.5874V35h2.5835c0,0,2.70752,2.70752,2.70754,2.70754
		c0.38732,0.3873,1.02716,0.38686,1.41404-0.00002c0.39062-0.39062,0.39062-1.02344,0-1.41406L40.41162,35H42
		c0.55273,0,1-0.44775,1-1S42.55273,33,42,33z"/>
</g>
</svg>
