<?xml version="1.0" encoding="UTF-8"?>
<svg id="Glyph" xmlns="http://www.w3.org/2000/svg" version="1.1" viewBox="0 0 64 64">
  <path d="M32,20.99982c4.0293,0,7.30664-3.27734,7.30664-7.30615,0-2.80908-1.63965-5.39893-4.17578-6.59814-.31055-.14551-.67285-.12354-.96289.05957-.28906.18311-.46484.50195-.46484.84473v5.15869l-1.70312,1.13525-1.70312-1.13525v-5.15869c0-.34277-.17578-.66162-.46484-.84473-.29102-.18311-.65234-.20508-.96289-.05957-2.53613,1.19922-4.17578,3.78906-4.17578,6.59814,0,3.97627,3.29205,7.30616,7.30664,7.30616Z" fill="#000" stroke-width="0"/>
  <path d="M32,28.99982c-3.90024,0-7.30664,3.37843-7.30664,7.30615,0,2.80908,1.63965,5.39893,4.17578,6.59814.31055.146.67188.12354.96289-.05957.28906-.18311.46484-.50195.46484-.84473v-5.15869l1.70312-1.13525,1.70312,1.13525v5.15869c0,.34264.17565.66137.46451.84451.25865.16398.65187.2065.96323.05978,2.53613-1.19922,4.17578-3.78906,4.17578-6.59814,0-4.02879-3.27732-7.30613-7.30664-7.30615Z" fill="#000" stroke-width="0"/>
  <path d="M27,21.54981v6.90002c1.44-.93005,3.15997-1.45001,5-1.45001s3.54999.52997,5,1.45996v-6.91998c-1.45001.92999-3.15997,1.46002-5,1.46002s-3.56-.52002-5-1.45001Z" fill="#000" stroke-width="0"/>
  <path d="M52.60699,49.06183c.01031-.02039.01886-.04163.02911-.06201h-12.63611c-1.6543,0-3,1.3457-3,3v2c0,1.6543,1.3457,3,3,3h12c1.6543,0,3-1.3457,3-3v-2c0-1.44635-1.02881-2.65656-2.39301-2.93799Z" fill="#000" stroke-width="0"/>
  <path d="M53.5,17.99982c-1.90747,0-3.5,1.5979-3.5,3.5v7.95508c.3927.13623.7749.3114,1.13965.53027,2.68457,1.61133,3.69043,5.06592,2.28906,7.86475,0,0-2.7381,5.4776-2.74512,5.49164-.24408.48828-.85522.69061-1.3418.44733-.49414-.24707-.69434-.84766-.44727-1.3418l2.74512-5.49219c.93652-1.87012.26465-4.17822-1.5293-5.25488-1.8587-1.11768-4.41345-.47192-5.52539,1.38135-.00018.00024-3.87207,6.45361-3.87207,6.45361-.4668.77734-.71289,1.66699-.71289,2.57275v4.89209h13.57428c2.23981-5.12378,3.42572-10.68457,3.42572-16.2998v-9.2002c0-1.92969-1.57025-3.5-3.5-3.5Z" fill="#000" stroke-width="0"/>
  <path d="M24,48.99982h-12.63611c.01025.02039.0188.04163.02911.06201-1.3642.28143-2.39301,1.49164-2.39301,2.93799v2c0,1.6543,1.3457,3,3,3h12c1.6543,0,3-1.3457,3-3v-2c0-1.6543-1.3457-3-3-3Z" fill="#000" stroke-width="0"/>
  <path d="M24,46.99982v-4.89209c0-.90576-.24609-1.79541-.71289-2.57275,0,0-3.87189-6.45337-3.87207-6.45361-1.11194-1.85327-3.66669-2.49902-5.52539-1.38135-1.79395,1.07666-2.46582,3.38477-1.5293,5.25488l2.74512,5.49219c.24707.49414.04688,1.09473-.44727,1.3418-.48657.24329-1.09772.04095-1.3418-.44733-.00702-.01404-2.74512-5.49164-2.74512-5.49164-1.40137-2.79883-.39551-6.25342,2.28906-7.86475.36475-.21887.74695-.39404,1.13965-.53027v-7.95508c0-1.9021-1.59253-3.5-3.5-3.5-1.92975,0-3.5,1.57031-3.5,3.5v9.2002c0,5.61523,1.18591,11.17603,3.42572,16.2998h13.57428Z" fill="#000" stroke-width="0"/>
</svg>