<?xml version="1.0" encoding="UTF-8"?><svg id="Glyph" xmlns="http://www.w3.org/2000/svg" viewBox="0 0 64 64"><path d="m27.52,33.79l-2.61-2.27-2.54,2.19-2.53-2.19-2.53,2.19-2.53-2.19-2.59,2.24,4.09-9.34c1.48-3.23,5.67-3.23,7.14,0l4.1,9.37Z"/><path d="m29.89,39.18l-2.85,6.52c-.93-.46-1.96-.7-3.04-.7-1.18,0-2.3.29-3.31.83-1.26-1.16-2.93-1.83-4.69-1.83-.92,0-1.81.18-2.65.53-1.22-.99-2.74-1.53-4.35-1.53-.3,0-.59.02-.88.06l3.27-7.48c.25.12.52.18.8.18.47,0,.93-.16,1.31-.49l1.28-1.11,1.22,1.06c.38.33.84.49,1.31.49s.93-.16,1.31-.49l1.22-1.05,1.22,1.05c.38.33.84.49,1.31.49s.93-.16,1.31-.49l1.22-1.05,1.31,1.13c.37.32.84.49,1.31.49.28,0,.55-.06.81-.18l1.56,3.57Z"/><path d="m51.52,29.79l-2.61-2.27-2.54,2.19-2.53-2.19-2.53,2.19-2.53-2.19-2.58,2.23,4.08-9.33c1.48-3.23,5.67-3.23,7.14,0l4.1,9.37Z"/><path d="m57.52,43.47c-.78-.3-1.63-.47-2.52-.47-1.61,0-3.13.54-4.35,1.53-.84-.35-1.73-.53-2.65-.53-1.76,0-3.43.67-4.69,1.83-1.01-.54-2.13-.83-3.31-.83-1.46,0-2.84.45-4,1.26-1.16-.81-2.54-1.26-4-1.26-.95,0-1.87.19-2.72.56l6.12-13.98c.25.11.52.17.8.17.47,0,.93-.16,1.31-.49l1.27-1.1,1.22,1.06c.38.33.84.49,1.31.49s.93-.16,1.31-.49l1.22-1.05,1.22,1.05c.38.33.84.49,1.31.49s.93-.16,1.31-.49l1.22-1.05,1.31,1.13c.37.32.84.49,1.31.49.28,0,.55-.06.8-.18l5.2,11.86Z"/><path d="m55,45c-1.64,0-3.09.8-4,2.02-.84-.63-1.87-1.02-3-1.02-1.88,0-3.51,1.05-4.36,2.59-.91-.98-2.2-1.59-3.64-1.59-1.64,0-3.09.8-4,2.03-.91-1.22-2.36-2.03-4-2.03s-3.09.8-4,2.03c-.91-1.22-2.36-2.03-4-2.03-1.44,0-2.73.62-3.64,1.59-.85-1.54-2.47-2.59-4.36-2.59-1.13,0-2.16.39-3,1.02-.91-1.22-2.36-2.02-4-2.02-2.76,0-5,2.24-5,5v10h56v-10c0-2.76-2.24-5-5-5Z"/><path d="m16.22,9.29c-.83-.4-1.58-.34-2.24-.1,0-.06.02-.12.02-.19,0-1.66-1.34-3-3-3s-3,1.34-3,3c0,.06.02.13.02.19-.66-.24-1.41-.3-2.24.1-1.12.54-1.78,1.72-1.78,2.96h0c0,1.52,1.23,2.75,2.75,2.75h8.51c1.52,0,2.75-1.23,2.75-2.75h0c0-1.24-.66-2.42-1.78-2.96Z"/><path d="m49.22,6.29c-.83-.4-1.58-.34-2.24-.1,0-.06.02-.12.02-.19,0-1.66-1.34-3-3-3s-3,1.34-3,3c0,.06.02.13.02.19-.66-.24-1.41-.3-2.24.1-1.12.54-1.78,1.72-1.78,2.96h0c0,1.52,1.23,2.75,2.75,2.75h8.51c1.52,0,2.75-1.23,2.75-2.75h0c0-1.24-.66-2.42-1.78-2.96Z"/></svg>