<?xml version="1.0" encoding="UTF-8"?><svg id="Glyph" xmlns="http://www.w3.org/2000/svg" viewBox="0 0 64 64"><path d="m18.2,39.4c.68.51,1.44.59,1.83.6.32,0,1.09-.09,1.77-.61.28-.21.48-.44.59-.59.38-.51.97-.81,1.61-.81s1.23.3,1.61.81c.11.15.3.38.59.59.68.51,1.44.59,1.83.6.32,0,1.09-.09,1.77-.61.28-.21.48-.44.59-.59.38-.51.97-.81,1.61-.81s1.23.3,1.61.81c.11.15.3.38.59.59.68.51,1.44.59,1.83.6.32,0,1.09-.09,1.77-.61.28-.21.48-.44.59-.59.38-.51.97-.81,1.61-.81s1.23.3,1.61.81c.11.15.3.38.59.59.68.51,1.44.59,1.83.6.32,0,1.09-.09,1.77-.61.28-.21.48-.44.59-.59.11-.14.23-.27.37-.37-1.22-7.06-7.36-12.43-14.76-12.43s-13.54,5.38-14.76,12.43c.14.11.26.23.37.37.11.15.3.38.59.59Z"/><path d="m57,41c-.44-.33-.77-.69-1-1-.23.31-.56.67-1,1-1.17.87-2.43.99-3,1-.57-.01-1.83-.13-3-1-.44-.33-.77-.69-1-1-.23.31-.56.67-1,1-1.17.87-2.43.99-3,1-.57-.01-1.83-.13-3-1-.44-.33-.77-.69-1-1-.23.31-.56.67-1,1-1.17.87-2.43.99-3,1-.57-.01-1.83-.13-3-1-.44-.33-.77-.69-1-1-.23.31-.56.67-1,1-1.17.87-2.43.99-3,1-.57-.01-1.83-.13-3-1-.44-.33-.77-.69-1-1-.23.31-.56.67-1,1-1.17.87-2.43.99-3,1-.57-.01-1.83-.13-3-1-.44-.33-.77-.69-1-1-.23.31-.56.67-1,1-1.17.87-2.43.99-3,1-.57-.01-1.83-.13-3-1-.44-.33-.77-.69-1-1-.23.31-.56.67-1,1-1.17.87-2.43.99-3,1v7c.4-.01,1.14-.1,1.81-.6.28-.21.48-.44.59-.59.38-.51.97-.81,1.61-.81s1.23.3,1.61.81c.11.15.3.38.59.59.68.51,1.44.59,1.83.6.32,0,1.09-.09,1.77-.61.28-.21.48-.44.59-.59.38-.51.97-.81,1.61-.81s1.23.3,1.61.81c.11.15.3.38.59.59.68.51,1.44.59,1.83.6.32,0,1.09-.09,1.77-.61.28-.21.48-.44.59-.59.38-.51.97-.81,1.61-.81s1.23.3,1.61.81c.11.15.3.38.59.59.68.51,1.44.59,1.83.6.32,0,1.09-.09,1.77-.61.28-.21.48-.44.59-.59.38-.51.97-.81,1.61-.81s1.23.3,1.61.81c.11.15.3.38.59.59.68.51,1.44.59,1.83.6.32,0,1.09-.09,1.77-.61.28-.21.48-.44.59-.59.38-.51.97-.81,1.61-.81s1.23.3,1.61.81c.11.15.3.38.59.59.68.51,1.44.59,1.83.6.32,0,1.09-.09,1.77-.61.28-.21.48-.44.59-.59.38-.51.97-.81,1.61-.81s1.23.3,1.61.81c.11.15.3.38.59.59.68.51,1.44.59,1.83.6.32,0,1.09-.09,1.77-.61.28-.21.48-.44.59-.59.38-.51.97-.81,1.61-.81s1.23.3,1.61.81c.11.15.3.38.59.59.66.49,1.4.59,1.8.6v-7c-.57-.01-1.83-.13-3-1Z"/><path d="m56,49c-.23.31-.56.67-1,1-1.17.87-2.43.99-3,1-.57-.01-1.83-.13-3-1-.44-.33-.77-.69-1-1-.23.31-.56.67-1,1-1.17.87-2.43.99-3,1-.57-.01-1.83-.13-3-1-.44-.33-.77-.69-1-1-.23.31-.56.67-1,1-1.17.87-2.43.99-3,1-.57-.01-1.83-.13-3-1-.44-.33-.77-.69-1-1-.23.31-.56.67-1,1-1.17.87-2.43.99-3,1-.57-.01-1.83-.13-3-1-.44-.33-.77-.69-1-1-.23.31-.56.67-1,1-1.17.87-2.43.99-3,1-.57-.01-1.83-.13-3-1-.44-.33-.77-.69-1-1-.23.31-.56.67-1,1-1.17.87-2.43.99-3,1-.57-.01-1.83-.13-3-1-.44-.33-.77-.69-1-1-.23.31-.56.67-1,1-1.17.87-2.43.99-3,1v7h56v-7c-.57-.01-1.83-.13-3-1-.44-.33-.77-.69-1-1Z"/><path d="m32,23c.55,0,1-.45,1-1v-4c0-.55-.45-1-1-1s-1,.45-1,1v4c0,.55.45,1,1,1Z"/><path d="m19.5,20.35c-.48.28-.64.89-.37,1.37l2,3.46c.19.32.52.5.87.5.17,0,.34-.04.5-.13.48-.28.64-.89.37-1.37l-2-3.46c-.28-.48-.89-.64-1.37-.37Z"/><path d="m11.72,29.13c-.48-.28-1.09-.11-1.37.37-.28.48-.11,1.09.37,1.37l3.46,2c.16.09.33.13.5.13.35,0,.68-.18.87-.5.28-.48.11-1.09-.37-1.37l-3.46-2Z"/><path d="m43.13,20.72l-2,3.46c-.28.48-.11,1.09.37,1.37.16.09.33.13.5.13.35,0,.68-.18.87-.5l2-3.46c.28-.48.11-1.09-.37-1.37-.48-.28-1.09-.11-1.37.37Z"/><path d="m52.28,29.13l-3.46,2c-.48.28-.64.89-.37,1.37.19.32.52.5.87.5.17,0,.34-.04.5-.13l3.46-2c.48-.28.64-.89.37-1.37-.28-.48-.89-.64-1.37-.37Z"/><path d="m48.78,14.06c2.21,0,2.79,1.53,2.95,2.44h-.95c-.55,0-1,.45-1,1s.45,1,1,1h4c.55,0,1-.45,1-1s-.45-1-1-1h-.95c.15-.91.73-2.44,2.95-2.44.55,0,1-.45,1-1s-.45-1-1-1c-1.99,0-3.25.83-4,1.88-.75-1.05-2.01-1.88-4-1.88-.55,0-1,.45-1,1s.45,1,1,1Z"/><path d="m36.67,7c2.81,0,2.99,2.49,3,3h-1c-.55,0-1,.45-1,1s.45,1,1,1h4c.55,0,1-.45,1-1s-.45-1-1-1h-1c0-.51.19-3,3-3,.55,0,1-.45,1-1s-.45-1-1-1c-1.99,0-3.25.83-4,1.88-.75-1.05-2.01-1.88-4-1.88-.55,0-1,.45-1,1s.45,1,1,1Z"/><path d="m7.22,14.06c2.21,0,2.79,1.53,2.95,2.44h-.95c-.55,0-1,.45-1,1s.45,1,1,1h4c.55,0,1-.45,1-1s-.45-1-1-1h-.95c.15-.91.73-2.44,2.95-2.44.55,0,1-.45,1-1s-.45-1-1-1c-1.99,0-3.25.83-4,1.88-.75-1.05-2.01-1.88-4-1.88-.55,0-1,.45-1,1s.45,1,1,1Z"/><path d="m19.33,7c2.81,0,2.99,2.49,3,3h-1c-.55,0-1,.45-1,1s.45,1,1,1h4c.55,0,1-.45,1-1s-.45-1-1-1h-1c0-.51.19-3,3-3,.55,0,1-.45,1-1s-.45-1-1-1c-1.99,0-3.25.83-4,1.88-.75-1.05-2.01-1.88-4-1.88-.55,0-1,.45-1,1s.45,1,1,1Z"/></svg>