<?xml version="1.0" encoding="UTF-8"?><svg id="Glyph" xmlns="http://www.w3.org/2000/svg" viewBox="0 0 64 64"><path d="m32,11c.55,0,1-.45,1-1v-4c0-.55-.45-1-1-1s-1,.45-1,1v4c0,.55.45,1,1,1Z"/><path d="m7,32h4c.55,0,1-.45,1-1s-.45-1-1-1h-4c-.55,0-1,.45-1,1s.45,1,1,1Z"/><path d="m52,31c0,.55.45,1,1,1h4c.55,0,1-.45,1-1s-.45-1-1-1h-4c-.55,0-1,.45-1,1Z"/><path d="m21.13,13.18c.19.32.52.5.87.5.17,0,.34-.04.5-.13.48-.28.64-.89.37-1.37l-2-3.46c-.28-.48-.89-.64-1.37-.37-.48.28-.64.89-.37,1.37l2,3.46Z"/><path d="m10.72,18.87l3.46,2c.16.09.33.13.5.13.35,0,.68-.18.87-.5.28-.48.11-1.09-.37-1.37l-3.46-2c-.48-.28-1.09-.11-1.37.37-.28.48-.11,1.09.37,1.37Z"/><path d="m41.5,13.55c.16.09.33.13.5.13.35,0,.68-.18.87-.5l2-3.46c.28-.48.11-1.09-.37-1.37-.48-.28-1.09-.11-1.37.37l-2,3.46c-.28.48-.11,1.09.37,1.37Z"/><path d="m49.32,21c.17,0,.34-.04.5-.13l3.46-2c.48-.28.64-.89.37-1.37-.28-.48-.89-.64-1.37-.37l-3.46,2c-.48.28-.64.89-.37,1.37.19.32.52.5.87.5Z"/><path d="m32,41.84c3.58-1.06,7.7-1.91,12.43-2.39,2.16-2.68,3.49-6.06,3.56-9.75-.15-8.7-7.25-15.7-15.99-15.7s-15.84,7-15.99,15.7c.06,3.7,1.39,7.08,3.56,9.75,4.74.48,8.86,1.33,12.43,2.39Z"/><path d="m53.67,41c-7.18,0-13.19.78-18.2,1.99,13.93,5.19,18.1,13.64,18.34,14.15.13.27.18.56.18.85h6.01s0-17.09,0-17h-6.33Z"/><path d="m10.33,41h-6.33c0-.09,0,17,0,17h48s-8-17-41.67-17Z"/></svg>