<?xml version="1.0" encoding="UTF-8"?><svg id="Glyph" xmlns="http://www.w3.org/2000/svg" viewBox="0 0 64 64"><path d="m50.98,31h9.13l-13.82-15.84c-1.35-1.54-4.37-1.54-5.71,0l-1.37,1.57,11.3,12.95c.32.37.47.84.47,1.31Z"/><path d="m49,31L30.3,9.56c-1.82-2.08-5.91-2.08-7.73,0L3.88,31h21.87l-8.75,29h30l-8.75-29h10.75Zm-16,27c0,.55-.45,1-1,1s-1-.45-1-1v-3c0-.55.45-1,1-1s1,.45,1,1v3Zm0-7c0,.55-.45,1-1,1s-1-.45-1-1v-3c0-.55.45-1,1-1s1,.45,1,1v3Zm0-7c0,.55-.45,1-1,1s-1-.45-1-1v-3c0-.55.45-1,1-1s1,.45,1,1v3Zm0-7c0,.55-.45,1-1,1s-1-.45-1-1v-3c0-.55.45-1,1-1s1,.45,1,1v3Z"/><path d="m50.83,37.09c-.43-.34-1.06-.27-1.4.16l-.43.54v-.91c0-.49-.45-.88-1-.88s-1,.4-1,.88v.91l-.43-.54c-.34-.43-.97-.51-1.4-.16-.43.34-.51.97-.16,1.4l2.21,2.79c.19.24.48.38.78.38s.59-.14.78-.38l2.21-2.79c.34-.43.27-1.06-.16-1.4Z"/><path d="m55.43,49.25l-.43.54v-.88c0-.5-.45-.91-1-.91s-1,.41-1,.91v.88l-.43-.54c-.34-.43-.97-.51-1.4-.16-.43.34-.51.97-.16,1.4l2.21,2.79c.19.24.48.38.78.38s.59-.14.78-.38l2.21-2.79c.34-.43.27-1.06-.16-1.4-.43-.34-1.06-.27-1.4.16Z"/><path d="m18.83,37.09c-.43-.34-1.06-.27-1.4.16l-.43.54v-.93c0-.47-.45-.86-1-.86s-1,.38-1,.86v.93l-.43-.54c-.34-.43-.97-.51-1.4-.16-.43.34-.51.97-.16,1.4l2.21,2.79c.19.24.48.38.78.38s.59-.14.78-.38l2.21-2.79c.34-.43.27-1.06-.16-1.4Z"/><path d="m11.22,49.34l-.22.27v-.56c0-.49-.45-.88-1-.88s-1,.4-1,.88v.56l-.22-.27c-.34-.43-.97-.51-1.4-.16-.43.34-.51.97-.16,1.4l2,2.52c.19.24.48.38.78.38s.59-.14.78-.38l2-2.52c.34-.43.27-1.06-.16-1.4-.43-.34-1.06-.27-1.4.16Z"/></svg>