<?xml version="1.0" encoding="UTF-8"?><svg id="Glyph" xmlns="http://www.w3.org/2000/svg" viewBox="0 0 64 64"><path d="m5.81,41.4c.28-.21.48-.44.59-.59.38-.51.97-.81,1.61-.81s1.23.3,1.61.81c.11.15.31.38.59.59.68.51,1.44.59,1.83.6.32,0,1.08-.09,1.77-.61.28-.21.48-.44.59-.59.38-.51.97-.81,1.61-.81s1.23.3,1.61.81c.11.15.31.38.59.59.68.51,1.44.59,1.83.6.32,0,1.08-.09,1.77-.61.28-.21.48-.44.59-.59.38-.51.97-.81,1.61-.81s1.23.3,1.61.81c.11.15.31.38.59.59.68.51,1.44.59,1.83.6.32,0,1.08-.09,1.77-.61.28-.21.48-.44.59-.59.38-.51.97-.81,1.61-.81s1.23.3,1.61.81c.11.15.31.38.59.59.68.51,1.44.59,1.83.6.32,0,1.08-.09,1.77-.61.28-.21.48-.44.59-.59.38-.51.97-.81,1.61-.81s1.23.3,1.61.81c.11.15.31.38.59.59.68.51,1.44.59,1.83.6.32,0,1.08-.09,1.77-.61.28-.21.48-.44.59-.59.38-.51.97-.81,1.61-.81s1.23.3,1.61.81c.11.15.31.38.59.59.68.51,1.44.59,1.83.6.32,0,1.08-.09,1.77-.61.28-.21.48-.44.59-.59.38-.51.97-.81,1.61-.81s1.23.3,1.61.81c.11.15.31.38.59.59.67.49,1.4.59,1.8.6v-7c-.57-.01-1.83-.13-3-1-.44-.33-.77-.69-1-1-.23.31-.56.67-1,1-1.17.87-2.43.99-3,1-.57-.01-1.83-.13-3-1-.44-.33-.77-.69-1-1-.23.31-.56.67-1,1-1.17.87-2.43.99-3,1-.57-.01-1.83-.13-3-1-.44-.33-.77-.69-1-1-.23.31-.56.67-1,1-1.17.87-2.43.99-3,1-.57-.01-1.83-.13-3-1-.44-.33-.77-.69-1-1-.23.31-.56.67-1,1-1.17.87-2.43.99-3,1-.57-.01-1.83-.13-3-1-.44-.33-.77-.69-1-1-.23.31-.56.67-1,1-1.17.87-2.43.99-3,1-.57-.01-1.83-.13-3-1-.44-.33-.77-.69-1-1-.23.31-.56.67-1,1-1.17.87-2.43.99-3,1-.57-.01-1.83-.13-3-1-.44-.33-.77-.69-1-1-.23.31-.56.67-1,1-1.17.87-2.43.99-3,1v7c.4-.01,1.14-.1,1.81-.6Z"/><path d="m5.81,49.4c.28-.21.48-.44.59-.59.38-.51.97-.81,1.61-.81s1.23.3,1.61.81c.11.15.31.38.59.59.68.51,1.44.59,1.83.6.32,0,1.08-.09,1.77-.61.28-.21.48-.44.59-.59.38-.51.97-.81,1.61-.81s1.23.3,1.61.81c.11.15.31.38.59.59.68.51,1.44.59,1.83.6.32,0,1.08-.09,1.77-.61.28-.21.48-.44.59-.59.38-.51.97-.81,1.61-.81s1.23.3,1.61.81c.11.15.31.38.59.59.68.51,1.44.59,1.83.6.32,0,1.08-.09,1.77-.61.28-.21.48-.44.59-.59.38-.51.97-.81,1.61-.81s1.23.3,1.61.81c.11.15.31.38.59.59.68.51,1.44.59,1.83.6.32,0,1.08-.09,1.77-.61.28-.21.48-.44.59-.59.38-.51.97-.81,1.61-.81s1.23.3,1.61.81c.11.15.31.38.59.59.68.51,1.44.59,1.83.6.32,0,1.08-.09,1.77-.61.28-.21.48-.44.59-.59.38-.51.97-.81,1.61-.81s1.23.3,1.61.81c.11.15.31.38.59.59.68.51,1.44.59,1.83.6.32,0,1.08-.09,1.77-.61.28-.21.48-.44.59-.59.38-.51.97-.81,1.61-.81s1.23.3,1.61.81c.11.15.31.38.59.59.67.49,1.4.59,1.8.6v-6c-.57-.01-1.83-.13-3-1-.44-.33-.77-.69-1-1-.23.31-.56.67-1,1-1.17.87-2.43.99-3,1-.57-.01-1.83-.13-3-1-.44-.33-.77-.69-1-1-.23.31-.56.67-1,1-1.17.87-2.43.99-3,1-.57-.01-1.83-.13-3-1-.44-.33-.77-.69-1-1-.23.31-.56.67-1,1-1.17.87-2.43.99-3,1-.57-.01-1.83-.13-3-1-.44-.33-.77-.69-1-1-.23.31-.56.67-1,1-1.17.87-2.43.99-3,1-.57-.01-1.83-.13-3-1-.44-.33-.77-.69-1-1-.23.31-.56.67-1,1-1.17.87-2.43.99-3,1-.57-.01-1.83-.13-3-1-.44-.33-.77-.69-1-1-.23.31-.56.67-1,1-1.17.87-2.43.99-3,1-.57-.01-1.83-.13-3-1-.44-.33-.77-.69-1-1-.23.31-.56.67-1,1-1.17.87-2.43.99-3,1v6c.4-.01,1.14-.1,1.81-.6Z"/><path d="m4,59v-7c.57-.01,1.83-.13,3-1,.44-.33.77-.69,1-1,.23.31.56.67,1,1,1.17.87,2.43.99,3,1,.57-.01,1.83-.13,3-1,.44-.33.77-.69,1-1,.23.31.56.67,1,1,1.17.87,2.43.99,3,1,.57-.01,1.83-.13,3-1,.44-.33.77-.69,1-1,.23.31.56.67,1,1,1.17.87,2.43.99,3,1,.57-.01,1.83-.13,3-1,.44-.33.77-.69,1-1,.23.31.56.67,1,1,1.17.87,2.43.99,3,1,.57-.01,1.83-.13,3-1,.44-.33.77-.69,1-1,.23.31.56.67,1,1,1.17.87,2.43.99,3,1,.57-.01,1.83-.13,3-1,.44-.33.77-.69,1-1,.23.31.56.67,1,1,1.17.87,2.43.99,3,1,.57-.01,1.83-.13,3-1,.44-.33.77-.69,1-1,.23.31.56.67,1,1,1.17.87,2.43.99,3,1v7H4Z"/><path d="m56.29,14.03c-1.16-.56-2.2-.48-3.13-.14,0-.09.03-.17.03-.26,0-2.31-1.88-4.19-4.19-4.19s-4.19,1.88-4.19,4.19c0,.09.02.18.03.26-.92-.34-1.97-.42-3.13.14-1.56.75-2.49,2.41-2.49,4.14h0c0,2.12,1.72,3.84,3.84,3.84h11.88c2.12,0,3.84-1.72,3.84-3.84h0c0-1.73-.93-3.39-2.49-4.14Z"/><path d="m20.63,8.18c-1.05-.51-2-.43-2.84-.13,0-.08.02-.16.02-.24,0-2.1-1.71-3.81-3.81-3.81s-3.81,1.71-3.81,3.81c0,.08.02.16.02.24-.84-.3-1.79-.38-2.84.13-1.42.68-2.26,2.19-2.26,3.76h0c0,1.93,1.56,3.49,3.49,3.49h10.8c1.93,0,3.49-1.56,3.49-3.49h0c0-1.57-.84-3.08-2.26-3.76Z"/></svg>