<?xml version="1.0" encoding="UTF-8"?><svg id="Glyph" xmlns="http://www.w3.org/2000/svg" viewBox="0 0 64 64"><path d="m57,42c-.44-.33-.77-.69-1-1-.23.31-.56.67-1,1-1.17.87-2.43.99-3,1-.57-.01-1.83-.13-3-1-.44-.33-.77-.69-1-1-.23.31-.56.67-1,1-1.17.87-2.43.99-3,1-.57-.01-1.83-.13-3-1-.44-.33-.77-.69-1-1-.23.31-.56.67-1,1-1.17.87-2.43.99-3,1-.57-.01-1.83-.13-3-1-.44-.33-.77-.69-1-1-.23.31-.56.67-1,1-1.17.87-2.43.99-3,1-.2,0-.48-.02-.82-.08.64,1.13,1.21,2.31,1.69,3.55l1.09,2.8c.2-.17.34-.34.43-.46.38-.51.98-.81,1.61-.81s1.23.3,1.61.81c.11.15.3.37.59.59.68.51,1.44.59,1.83.6.33-.01,1.09-.09,1.78-.6.28-.22.47-.44.58-.59.38-.51.98-.81,1.61-.81s1.23.3,1.61.81c.11.15.3.37.59.59.68.51,1.44.59,1.83.6.33-.01,1.09-.09,1.78-.6.28-.22.47-.44.58-.59.38-.51.98-.81,1.61-.81s1.23.3,1.61.81c.11.15.3.37.59.59.68.51,1.44.59,1.83.6.33-.01,1.09-.09,1.78-.6.28-.22.47-.44.58-.59.38-.51.98-.81,1.61-.81s1.23.3,1.61.81c.11.15.3.37.59.59.66.49,1.4.59,1.8.6v-7c-.57-.01-1.83-.13-3-1Z"/><path d="m56,50c-.23.31-.56.67-1,1-1.17.87-2.43.99-3,1-.57-.01-1.83-.13-3-1-.44-.33-.77-.69-1-1-.23.31-.56.67-1,1-1.17.87-2.43.99-3,1-.57-.01-1.83-.13-3-1-.44-.33-.77-.69-1-1-.23.31-.56.67-1,1-1.17.87-2.43.99-3,1-.57-.01-1.83-.13-3-1-.44-.33-.77-.69-1-1-.23.31-.56.67-1,1-.1.07-.19.14-.29.19l3.15,8.08c.09.24.14.48.14.73h26v-8c-.57-.01-1.83-.13-3-1-.44-.33-.77-.69-1-1Z"/><path d="m19.66,37.21l6.67-10.65-3.39-2.12-6.61,10.55c-3.47-1.92-7.42-3-11.56-3h-.77v28h28l-4.99-12.8c-1.56-4.01-4.13-7.42-7.35-9.98Z"/><polygon points="20.85 20.77 30.55 26.85 32.29 25.58 21.24 18.65 20.85 20.77"/><path d="m35.63,17.57c.32-3.27-.33-6.04-1.03-7.95-2.02.2-4.79.82-7.62,2.53-2.35,1.44-3.97,3.17-5.03,4.59l11.75,7.36c.81-1.57,1.67-3.79,1.93-6.53Z"/><path d="m37.63,17.76c-.31,3.13-1.3,5.66-2.22,7.41l2.14,1.35,5.99,3.74c.42-2.66.48-6.27-.87-10.24-1.31-3.87-3.5-6.67-5.45-8.54.4,1.78.63,3.91.41,6.28Z"/><path d="m20.24,15.67c1.18-1.6,3.02-3.59,5.7-5.22,2.04-1.24,4.05-1.97,5.83-2.39-2.54-.93-6.01-1.68-10.06-1.18-4.17.52-7.39,2.16-9.59,3.7l2.41,1.51,5.71,3.58Z"/><polygon points="18.85 17.15 15.09 14.8 10.96 12.21 10.4 14.22 17.28 18.53 18.85 17.15"/><polygon points="42.57 32.02 36.51 28.22 34.68 27.08 34.13 29.09 41 33.4 42.57 32.02"/><path d="m35.83,7.74c.45.32.98.72,1.55,1.19l1.16-1.86c.59-.94.3-2.17-.63-2.76-.94-.59-2.17-.3-2.76.63l-1.17,1.86c.69.31,1.29.61,1.75.87.03.02.06.04.09.06Z"/></svg>