<?xml version="1.0" encoding="UTF-8"?><svg id="Glyph" xmlns="http://www.w3.org/2000/svg" viewBox="0 0 64 64"><path d="m25,26h2v-9.12c-.64-.04-1.31-.1-2-.17v9.29Z"/><path d="m19,15.56v10.44h2v-9.95c-.14-.03-.29-.07-.44-.1-.52-.12-1.04-.25-1.56-.39Z"/><path d="m37,26h2v-9.29c-.69.07-1.36.13-2,.17v9.12Z"/><path d="m43.44,15.95c-.15.03-.3.07-.44.1v9.95h2v-10.44c-.52.14-1.04.27-1.56.39Z"/><path d="m31,16.99v9.01h2v-9.01c-.34.01-.67.01-1,.01s-.66,0-1-.01Z"/><path d="m6,14.97c-.48.16-.97.3-1.45.44-.19.06-.37.08-.55.08v10.51h2v-11.03Z"/><path d="m58,14.97v11.03h2v-10.51c-.18,0-.36-.02-.55-.08-.48-.14-.97-.28-1.45-.44Z"/><path d="m54,6.78v-1.78c0-.55-.45-1-1-1h-2c-.55,0-1,.45-1,1v2.26c-3.12,1.44-5.9,2.26-8,2.74-4.32.98-7.74,1-10,1s-5.68-.02-10-1c-2.1-.48-4.88-1.3-8-2.74v-2.26c0-.55-.45-1-1-1h-2c-.55,0-1,.45-1,1v1.78c-2.18,1.08-4.22,1.86-6,2.41v4.3c1.74-.49,3.78-1.21,6-2.24v16.75h-6v4h6v11h-1c-.55,0-1,.45-1,1v3c.63,0,1.22.3,1.6.8.17.23.37.43.6.6.64.47,1.36.59,1.85.6.39-.01,1.11-.13,1.76-.6.22-.17.42-.37.59-.6.38-.5.97-.8,1.6-.8v-3c0-.55-.45-1-1-1h-1v-11h36v11h-1c-.55,0-1,.45-1,1v3c.63,0,1.22.3,1.6.8.17.23.37.43.6.6.64.47,1.36.59,1.85.6.39-.01,1.11-.13,1.76-.6.22-.17.42-.37.59-.6.38-.5.97-.8,1.6-.8v-3c0-.55-.45-1-1-1h-1v-11h6v-4h-6V11.25c2.22,1.03,4.26,1.74,6,2.24v-4.3c-1.78-.55-3.82-1.34-6-2.41ZM14,28V11.7c2.74,1.18,5.16,1.88,7,2.3,4.39,1,7.83,1,11,1s6.61,0,11-1c1.84-.42,4.26-1.12,7-2.3v16.3H14Z"/><path d="m56,49c-.23.31-.56.67-1,1-1.17.87-2.43.99-3,1-.57-.01-1.83-.13-3-1-.44-.33-.77-.69-1-1-.23.31-.56.67-1,1-1.17.87-2.43.99-3,1-.57-.01-1.83-.13-3-1-.44-.33-.77-.69-1-1-.23.31-.56.67-1,1-1.17.87-2.43.99-3,1-.57-.01-1.83-.13-3-1-.44-.33-.77-.69-1-1-.23.31-.56.67-1,1-1.17.87-2.43.99-3,1-.57-.01-1.83-.13-3-1-.44-.33-.77-.69-1-1-.23.31-.56.67-1,1-1.17.87-2.43.99-3,1-.57-.01-1.83-.13-3-1-.44-.33-.77-.69-1-1-.23.31-.56.67-1,1-1.17.87-2.43.99-3,1-.57-.01-1.83-.13-3-1-.44-.33-.77-.69-1-1-.23.31-.56.67-1,1-1.17.87-2.43.99-3,1v7h56v-7c-.57-.01-1.83-.13-3-1-.44-.33-.77-.69-1-1Z"/></svg>