<?xml version="1.0" encoding="UTF-8"?><svg id="Glyph" xmlns="http://www.w3.org/2000/svg" viewBox="0 0 64 64"><path d="m39.5,37.62c9.83-4.46,19.52-4.62,20.46-4.62,0-6.25,0-11.96.04-12,0,0-14.91.01-26.46,9.4,2.17,2.03,4.2,4.41,5.96,7.22Z"/><path d="m4.03,33c1.1,0,16.22.22,27.98,9.02,1.83-1.38,3.75-2.53,5.67-3.52C26.57,21,4,21,4,21c.04.04.04,5.75.03,12Z"/><path d="m33.64,43.32c2.2,1.85,4.24,4.04,6.01,6.62,1.52,2.23,3.07,4.22,4.61,5.93.89.99,1.76,1.88,2.61,2.65.43.39.66.92.66,1.48h12.47s-.09-24.92,0-25c0,0-14.82,0-26.36,8.32Z"/><path d="m42.77,57.21c-1.51-1.68-3.11-3.71-4.77-6.13C27,35,4,35,4,35c.09.08,0,25,0,25h41.53c-.89-.8-1.81-1.73-2.76-2.79Z"/><circle cx="32" cy="13" r="4"/><path d="m32,7c.55,0,1-.45,1-1v-1c0-.55-.45-1-1-1s-1,.45-1,1v1c0,.55.45,1,1,1Z"/><path d="m26.34,8.76c.2.2.45.29.71.29s.51-.1.71-.29c.39-.39.39-1.02,0-1.41l-.71-.71c-.39-.39-1.02-.39-1.41,0s-.39,1.02,0,1.41l.71.71Z"/><path d="m24,14h1c.55,0,1-.45,1-1s-.45-1-1-1h-1c-.55,0-1,.45-1,1s.45,1,1,1Z"/><path d="m26.34,17.24l-.71.71c-.39.39-.39,1.02,0,1.41.2.2.45.29.71.29s.51-.1.71-.29l.71-.71c.39-.39.39-1.02,0-1.41s-1.02-.39-1.41,0Z"/><path d="m31,20v1c0,.55.45,1,1,1s1-.45,1-1v-1c0-.55-.45-1-1-1s-1,.45-1,1Z"/><path d="m37.66,19.66c.26,0,.51-.1.71-.29.39-.39.39-1.02,0-1.41l-.71-.71c-.39-.39-1.02-.39-1.41,0s-.39,1.02,0,1.41l.71.71c.2.2.45.29.71.29Z"/><path d="m38,13c0,.55.45,1,1,1h1c.55,0,1-.45,1-1s-.45-1-1-1h-1c-.55,0-1,.45-1,1Z"/><path d="m36.95,9.05c.26,0,.51-.1.71-.29l.71-.71c.39-.39.39-1.02,0-1.41s-1.02-.39-1.41,0l-.71.71c-.39.39-.39,1.02,0,1.41.2.2.45.29.71.29Z"/></svg>