<?xml version="1.0" encoding="UTF-8"?><svg id="Glyph" xmlns="http://www.w3.org/2000/svg" viewBox="0 0 64 64"><path d="m16,29c0-2.21-1.79-4-4-4-.04,0-.09,0-.13.01-.44-1.73-2-3.01-3.87-3.01s-3.45,1.29-3.88,3.04c-.08.31-.12.63-.12.96v4h12v-1Z"/><path d="m59.88,25.04c-.43-1.75-2-3.04-3.88-3.04s-3.43,1.28-3.87,3.01c-.04-.01-.09-.01-.13-.01-2.21,0-4,1.79-4,4v1h12v-4c0-.33-.04-.65-.12-.96Z"/><path d="m47,30h-1v-1c0-2.87,2.03-5.28,4.73-5.87.16-.3.36-.57.57-.84l-14.5-16.19c-2.56-2.86-7.04-2.86-9.6,0l-14.5,16.19c.21.27.41.54.57.84,2.7.59,4.73,3,4.73,5.87v1h-1v9H4v2h6v8h-6v2h13v9h2v-9h12v9h2v-9h12v9h2v-9h13v-2h-6v-8h6v-2h-13v-9Zm-2,0v9h-12v-9h12Zm-14,0v9h-12v-9h12Zm-7,19h-12v-8h12v8Zm14,0h-12v-8h12v8Zm14-8v8h-12v-8h12Z"/><path d="m53,32c-.55,0-1,.38-1,.84v.95l-.43-.54c-.34-.43-.97-.51-1.4-.16-.43.34-.51.97-.16,1.4l2.21,2.79c.19.24.48.38.78.38s.59-.14.78-.38l2.21-2.79c.34-.43.27-1.06-.16-1.4-.43-.34-1.06-.27-1.4.16l-.43.54v-.95c0-.46-.45-.84-1-.84Z"/><path d="m38.22,37.28c.19.24.48.38.78.38s.59-.14.78-.38l2.21-2.79c.34-.43.27-1.06-.16-1.4s-1.06-.27-1.4.16l-.43.54v-.92c0-.48-.45-.86-1-.86s-1,.39-1,.86v.92l-.43-.54c-.34-.43-.97-.51-1.4-.16-.43.34-.51.97-.16,1.4l2.21,2.79Z"/><path d="m24.22,37.28c.19.24.48.38.78.38s.59-.14.78-.38l2.21-2.79c.34-.43.27-1.06-.16-1.4s-1.06-.27-1.4.16l-.43.54v-.92c0-.48-.45-.86-1-.86s-1,.39-1,.86v.92l-.43-.54c-.34-.43-.97-.51-1.4-.16-.43.34-.51.97-.16,1.4l2.21,2.79Z"/><path d="m11,32c-.55,0-1,.39-1,.86v.92l-.43-.54c-.34-.43-.97-.51-1.4-.16-.43.34-.51.97-.16,1.4l2.21,2.79c.19.24.48.38.78.38s.59-.14.78-.38l2.21-2.79c.34-.43.27-1.06-.16-1.4-.43-.34-1.06-.27-1.4.16l-.43.54v-.92c0-.48-.45-.86-1-.86Z"/><path d="m17.22,47.28c.19.24.48.38.78.38s.59-.14.78-.38l2.21-2.79c.34-.43.27-1.06-.16-1.4-.43-.34-1.06-.27-1.4.16l-.43.54v-.9c0-.49-.45-.89-1-.89s-1,.4-1,.89v.9l-.43-.54c-.34-.43-.97-.51-1.4-.16-.43.34-.51.97-.16,1.4l2.21,2.79Z"/><path d="m31.22,47.28c.19.24.48.38.78.38s.59-.14.78-.38l2.21-2.79c.34-.43.27-1.06-.16-1.4-.43-.34-1.06-.27-1.4.16l-.43.54v-.87c0-.51-.45-.92-1-.92s-1,.41-1,.92v.87l-.43-.54c-.34-.43-.97-.51-1.4-.16-.43.34-.51.97-.16,1.4l2.21,2.79Z"/><path d="m45.22,47.28c.19.24.48.38.78.38s.59-.14.78-.38l2.21-2.79c.34-.43.27-1.06-.16-1.4-.43-.34-1.06-.27-1.4.16l-.43.54v-.94c0-.47-.45-.85-1-.85s-1,.38-1,.85v.94l-.43-.54c-.34-.43-.97-.51-1.4-.16-.43.34-.51.97-.16,1.4l2.21,2.79Z"/><path d="m54.43,53.25l-.43.54v-.93c0-.48-.45-.86-1-.86s-1,.39-1,.86v.93l-.43-.54c-.34-.43-.97-.51-1.4-.16-.43.34-.51.97-.16,1.4l2.21,2.79c.19.24.48.38.78.38s.59-.14.78-.38l2.21-2.79c.34-.43.27-1.06-.16-1.4-.43-.34-1.06-.27-1.4.16Z"/><path d="m40.43,53.25l-.43.54v-.93c0-.48-.45-.86-1-.86s-1,.39-1,.86v.93l-.43-.54c-.34-.43-.97-.51-1.4-.16-.43.34-.51.97-.16,1.4l2.21,2.79c.19.24.48.38.78.38s.59-.14.78-.38l2.21-2.79c.34-.43.27-1.06-.16-1.4-.43-.34-1.06-.27-1.4.16Z"/><path d="m26.43,53.25l-.43.54v-.85c0-.52-.45-.94-1-.94s-1,.42-1,.94v.85l-.43-.54c-.34-.43-.97-.51-1.4-.16-.43.34-.51.97-.16,1.4l2.21,2.79c.19.24.48.38.78.38s.59-.14.78-.38l2.21-2.79c.34-.43.27-1.06-.16-1.4-.43-.34-1.06-.27-1.4.16Z"/><path d="m12.43,53.25l-.43.54v-.89c0-.5-.45-.9-1-.9s-1,.4-1,.9v.89l-.43-.54c-.34-.43-.97-.51-1.4-.16-.43.34-.51.97-.16,1.4l2.21,2.79c.19.24.48.38.78.38s.59-.14.78-.38l2.21-2.79c.34-.43.27-1.06-.16-1.4-.43-.34-1.06-.27-1.4.16Z"/></svg>