<?xml version="1.0" encoding="UTF-8"?><svg id="Glyph" xmlns="http://www.w3.org/2000/svg" viewBox="0 0 64 64"><path d="m51.92,35.04l-6.16-9.87c-1.39-2.21-4.5-2.21-5.89,0l-.41.66,6.14,9.83c2.08-.34,4.19-.55,6.32-.62Z"/><path d="m28,23v2c0,3.31-2.69,6-6,6h-2v4.95c4.17.83,8.2,2.19,12,4.04,3.64-1.77,7.5-3.1,11.49-3.93l-10.64-17.04c-1.69-2.69-5.47-2.69-7.16,0l-.18.29c1.46.58,2.49,2.02,2.49,3.69Z"/><path d="m53.67,37c-6.78,0-13.38,1.44-19.42,4.15,5.04,2.78,9.62,6.44,13.48,10.89l5.78,6.65c.32.37.49.84.49,1.31h6v-23h-6.33Zm-6.67,8c-.55,0-1-.45-1-1s.45-1,1-1h5c.55,0,1,.45,1,1s-.45,1-1,1h-5Zm9,6h-5c-.55,0-1-.45-1-1s.45-1,1-1h5c.55,0,1,.45,1,1s-.45,1-1,1Z"/><path d="m18,37.62v-8.62h4c2.21,0,4-1.79,4-4v-2c0-1.1-.9-2-2-2s-2,.9-2,2v2h-4v-4c0-1.66-1.34-3-3-3s-3,1.34-3,3v7h-4v-2c0-1.1-.9-2-2-2s-2,.9-2,2v2c0,2.21,1.79,4,4,4h4v5.05c-.56-.02-1.11-.05-1.67-.05h-6.33c0-.09,0,23,0,23h48l-5.78-6.65c-7.33-8.43-17.34-13.95-28.22-15.73Zm-3,8.38h-5c-.55,0-1-.45-1-1s.45-1,1-1h5c.55,0,1,.45,1,1s-.45,1-1,1Zm10,5h-5c-.55,0-1-.45-1-1s.45-1,1-1h5c.55,0,1,.45,1,1s-.45,1-1,1Zm12,5h-5c-.55,0-1-.45-1-1s.45-1,1-1h5c.55,0,1,.45,1,1s-.45,1-1,1Z"/><circle cx="50" cy="12" r="4"/><path d="m50,6c.55,0,1-.45,1-1v-1c0-.55-.45-1-1-1s-1,.45-1,1v1c0,.55.45,1,1,1Z"/><path d="m44.34,7.76c.2.2.45.29.71.29s.51-.1.71-.29c.39-.39.39-1.02,0-1.41l-.71-.71c-.39-.39-1.02-.39-1.41,0s-.39,1.02,0,1.41l.71.71Z"/><path d="m42,13h1c.55,0,1-.45,1-1s-.45-1-1-1h-1c-.55,0-1,.45-1,1s.45,1,1,1Z"/><path d="m44.34,16.24l-.71.71c-.39.39-.39,1.02,0,1.41.2.2.45.29.71.29s.51-.1.71-.29l.71-.71c.39-.39.39-1.02,0-1.41s-1.02-.39-1.41,0Z"/><path d="m49,19v1c0,.55.45,1,1,1s1-.45,1-1v-1c0-.55-.45-1-1-1s-1,.45-1,1Z"/><path d="m54.24,16.24c-.39.39-.39,1.02,0,1.41l.71.71c.2.2.45.29.71.29s.51-.1.71-.29c.39-.39.39-1.02,0-1.41l-.71-.71c-.39-.39-1.02-.39-1.41,0Z"/><path d="m56,12c0,.55.45,1,1,1h1c.55,0,1-.45,1-1s-.45-1-1-1h-1c-.55,0-1,.45-1,1Z"/><path d="m54.95,8.05c.26,0,.51-.1.71-.29l.71-.71c.39-.39.39-1.02,0-1.41s-1.02-.39-1.41,0l-.71.71c-.39.39-.39,1.02,0,1.41.2.2.45.29.71.29Z"/></svg>