<?xml version="1.0" encoding="UTF-8"?><svg id="Glyph" xmlns="http://www.w3.org/2000/svg" viewBox="0 0 64 64"><path d="m27.5,18.13c11.39-7.89,23.21-10.09,31.69-10.45.54-.02.96-.46.96-1v-.68c0-.57-.46-1.03-1.03-1-8.86.36-21.2,2.66-33.14,10.92-6.15,4.25-11.59,9.78-15.87,16.08h-6.11v12h44.09c-3.87-3.77-11.08-8.66-23.61-10.85,2.53-2.78,5.34-5.25,8.35-7.33,9.41-6.52,19.22-8.42,26.36-8.77.54-.03.96-.46.96-1v-.68c0-.57-.47-1.03-1.04-1-7.51.36-17.85,2.36-27.81,9.25-3.72,2.58-7.05,5.61-9.98,9.05-.77-.1-1.56-.18-2.36-.26,3.23-4,6.97-7.5,11.2-10.43,10.43-7.21,21.23-9.26,29.03-9.61.54-.02.96-.46.96-1v-.68c0-.57-.47-1.03-1.03-1-8.19.36-19.54,2.51-30.48,10.08-4.84,3.35-9.22,7.58-12.87,12.39-.79-.05-1.6-.08-2.43-.11,3.94-5.43,8.77-10.2,14.16-13.92Z"/><path d="m35.47,33.99c7.96,2.97,12.74,7.01,15.41,10.01h9.12v-12h-6.33c-7.18,0-13.19.78-18.2,1.99Z"/><rect x="4" y="46" width="56" height="14"/></svg>