<?xml version="1.0" encoding="UTF-8"?><svg id="Glyph" xmlns="http://www.w3.org/2000/svg" viewBox="0 0 64 64"><path d="m53,40v-2.96c.23.03.45.06.68.06.99,0,1.98-.28,2.85-.83,1.47-.93,2.4-2.53,2.47-4.27.02-.41-.23-.8-.61-.96-.66-.28-1.37-.42-2.07-.42-.99,0-1.98.28-2.85.83-.17.11-.32.24-.47.37v-3.03c1.18.43,2.55.29,3.64-.5,1.42-1.03,1.93-2.84,1.41-4.42,1.35-.98,2-2.74,1.46-4.41-.54-1.67-2.1-2.72-3.77-2.71-.51-1.59-1.98-2.75-3.74-2.75s-3.23,1.16-3.74,2.75c-1.67,0-3.23,1.04-3.77,2.71-.54,1.67.1,3.43,1.46,4.41-.52,1.59,0,3.39,1.41,4.42,1.1.8,2.46.93,3.64.5v3.03c-.15-.13-.3-.26-.47-.37-1.48-.94-3.32-1.09-4.92-.41-.38.16-.63.55-.61.96.07,1.74,1,3.34,2.47,4.27.87.55,1.86.83,2.85.83.23,0,.45-.03.68-.06v2.96h-5.04c-.99,0-1.98.05-2.96.11-.1,2.37-1.37,4.56-3.4,5.85-.79.5-1.65.82-2.55.99,5.88,2.17,10.87,5.47,14.91,9.9l1.52,1.67c.37.41.54.94.5,1.47h6.02v-20h-7Zm-4-18.1c0-1.66,1.34-3,3-3s3,1.34,3,3-1.34,3-3,3-3-1.34-3-3Zm0,23.6l-2.21,2.79c-.19.24-.48.38-.78.38s-.59-.14-.78-.38l-2.21-2.79c-.34-.43-.27-1.06.16-1.4.43-.34,1.06-.27,1.41.16l.43.54v-.9c0-.49.45-.89,1-.89s1,.4,1,.89v.9l.43-.54c.34-.43.97-.51,1.41-.16.43.34.5.97.16,1.4Zm8,6l-2.21,2.79c-.19.24-.48.38-.78.38s-.59-.14-.78-.38l-2.21-2.79c-.34-.43-.27-1.06.16-1.4.43-.34,1.06-.27,1.41.16l.43.54v-.91c0-.49.45-.88,1-.88s1,.4,1,.88v.91l.43-.54c.34-.43.97-.51,1.41-.16.43.34.5.97.16,1.4Z"/><path d="m35,48.37v-3.32c.23.03.45.06.68.06.99,0,1.98-.28,2.85-.83,1.47-.93,2.4-2.53,2.47-4.27.02-.41-.23-.8-.61-.96-1.6-.68-3.44-.53-4.92.41-.17.11-.32.24-.47.37v-3.03c1.18.43,2.55.29,3.64-.5,1.42-1.03,1.93-2.84,1.41-4.42,1.35-.98,2-2.74,1.46-4.41-.54-1.67-2.1-2.72-3.77-2.71-.51-1.59-1.98-2.75-3.74-2.75s-3.23,1.16-3.74,2.75c-1.67,0-3.23,1.04-3.77,2.71-.54,1.67.1,3.43,1.46,4.41-.52,1.59,0,3.39,1.41,4.42,1.1.8,2.46.93,3.64.5v3.03c-.15-.13-.3-.26-.47-.37-1.48-.94-3.32-1.09-4.92-.41-.38.16-.63.55-.61.96.07,1.74,1,3.34,2.47,4.27.87.55,1.86.83,2.85.83.23,0,.45-.03.68-.06v2.71c-4.75-1.32-9.8-1.89-14.96-1.89h-4.04v-2.83c.23.03.45.06.68.06.99,0,1.98-.28,2.85-.83,1.47-.93,2.4-2.53,2.47-4.27.02-.41-.23-.8-.61-.96-1.6-.68-3.44-.53-4.92.41-.17.11-.32.24-.47.37v-3.03c1.18.43,2.55.29,3.64-.5,1.42-1.03,1.93-2.84,1.41-4.42,1.35-.98,2-2.74,1.46-4.41-.54-1.67-2.1-2.72-3.77-2.71-.51-1.59-1.98-2.75-3.74-2.75s-3.23,1.16-3.74,2.75c-1.67,0-3.23,1.04-3.77,2.71-.54,1.67.1,3.43,1.46,4.41-.52,1.59,0,3.39,1.41,4.42,1.1.8,2.46.93,3.64.5v3.03c-.15-.13-.3-.26-.47-.37-1.48-.94-3.32-1.09-4.92-.41-.38.16-.63.55-.61.96.07,1.74,1,3.34,2.47,4.27.87.55,1.86.83,2.85.83.23,0,.45-.03.68-.06v2.83H4v14h48l-1.52-1.67c-4.35-4.77-9.65-7.91-15.48-9.84Zm-4-18.47c0-1.66,1.34-3,3-3s3,1.34,3,3-1.34,3-3,3-3-1.34-3-3Zm-21-2c0-1.66,1.34-3,3-3s3,1.34,3,3-1.34,3-3,3-3-1.34-3-3Zm4.99,24.6l-2.21,2.79c-.19.24-.48.38-.78.38s-.59-.14-.78-.38l-2.21-2.79c-.34-.43-.27-1.06.16-1.4.43-.34,1.06-.27,1.41.16l.43.54v-.91c0-.49.45-.88,1-.88s1,.39,1,.88v.91l.43-.54c.34-.43.97-.51,1.41-.16.43.34.5.97.16,1.4Zm16,2l-2.21,2.79c-.19.24-.48.38-.78.38s-.59-.14-.78-.38l-2.21-2.79c-.34-.43-.27-1.06.16-1.4.43-.34,1.06-.27,1.41.16l.43.54v-.92c0-.48.45-.87,1-.87s1,.39,1,.87v.92l.43-.54c.34-.43.97-.51,1.41-.16.43.34.5.97.16,1.4Z"/><circle cx="24" cy="12" r="4"/><path d="m24,6c.55,0,1-.45,1-1v-1c0-.55-.45-1-1-1s-1,.45-1,1v1c0,.55.45,1,1,1Z"/><path d="m18.34,7.76c.2.2.45.29.71.29s.51-.1.71-.29c.39-.39.39-1.02,0-1.41l-.71-.71c-.39-.39-1.02-.39-1.41,0s-.39,1.02,0,1.41l.71.71Z"/><path d="m16,13h1c.55,0,1-.45,1-1s-.45-1-1-1h-1c-.55,0-1,.45-1,1s.45,1,1,1Z"/><path d="m18.34,16.24l-.71.71c-.39.39-.39,1.02,0,1.41.2.2.45.29.71.29s.51-.1.71-.29l.71-.71c.39-.39.39-1.02,0-1.41s-1.02-.39-1.41,0Z"/><path d="m23,19v1c0,.55.45,1,1,1s1-.45,1-1v-1c0-.55-.45-1-1-1s-1,.45-1,1Z"/><path d="m28.24,16.24c-.39.39-.39,1.02,0,1.41l.71.71c.2.2.45.29.71.29s.51-.1.71-.29c.39-.39.39-1.02,0-1.41l-.71-.71c-.39-.39-1.02-.39-1.41,0Z"/><path d="m30,12c0,.55.45,1,1,1h1c.55,0,1-.45,1-1s-.45-1-1-1h-1c-.55,0-1,.45-1,1Z"/><path d="m28.95,8.05c.26,0,.51-.1.71-.29l.71-.71c.39-.39.39-1.02,0-1.41s-1.02-.39-1.41,0l-.71.71c-.39.39-.39,1.02,0,1.41.2.2.45.29.71.29Z"/></svg>