<?xml version="1.0" encoding="UTF-8"?><svg id="Glyph" xmlns="http://www.w3.org/2000/svg" viewBox="0 0 64 64"><path d="m37.97,13.9c1.08.41,2,1.09,2.7,1.95.72-1.34,1.9-2.4,3.36-2.95.61-1.59,1.8-2.84,3.31-3.52-.57-.44-1.25-.75-2-.86-.32-2.1-2.14-3.72-4.34-3.72s-4.02,1.62-4.34,3.72c-1.1.17-2.06.75-2.74,1.57,1.85.57,3.35,1.97,4.05,3.81Z"/><path d="m20.97,12.9c1.22.46,2.24,1.27,2.97,2.3.6-.56,1.3-1,2.09-1.3.77-2.02,2.49-3.5,4.6-3.95-.62-1.27-1.84-2.2-3.29-2.43-.32-2.1-2.14-3.72-4.34-3.72s-4.02,1.62-4.34,3.72c-1.02.15-1.92.66-2.57,1.38,2.23.37,4.08,1.89,4.88,4Z"/><path d="m4,31.33c0,2.43,1.97,4.4,4.4,4.4,1.01,0,1.95-.34,2.69-.92.42.82,1.09,1.48,1.91,1.9v10.38c.33-.06.66-.09,1-.09,1.07,0,2.1.29,3,.82v-11.11c.82-.42,1.49-1.08,1.91-1.9.26.2.54.37.84.52-.48-.89-.75-1.91-.75-3,0-1.43.48-2.79,1.33-3.9-.39-.84-.6-1.76-.6-2.7,0-1.91.86-3.69,2.28-4.89-.05-.32-.08-.64-.08-.97,0-1.05.25-2.05.7-2.93-.63-1.27-1.84-2.19-3.29-2.42-.32-2.1-2.14-3.72-4.34-3.72s-4.02,1.62-4.34,3.72c-2.11.33-3.73,2.15-3.73,4.35,0,.66.15,1.28.41,1.85-1.53.68-2.61,2.22-2.61,4.01,0,1.15.45,2.2,1.17,2.98-1.15.8-1.9,2.12-1.9,3.62Z"/><path d="m45.66,14.52c-2.03.32-3.61,2.01-3.72,4.1-.01.08-.01.17-.01.25,0,.37.05.72.14,1.06.06.27.15.54.27.79-.11.05-.21.1-.31.16,1.4,1.19,2.24,2.96,2.24,4.85,0,.94-.21,1.86-.6,2.7.85,1.11,1.33,2.47,1.33,3.9,0,1.23-.35,2.38-.96,3.35.77-.11,1.47-.41,2.05-.87.42.82,1.09,1.48,1.91,1.9v10.64c.64-.23,1.31-.35,2-.35s1.37.12,2,.35v-10.64c.82-.42,1.49-1.08,1.91-1.9.74.58,1.68.92,2.69.92,2.43,0,4.4-1.97,4.4-4.4,0-1.5-.75-2.82-1.9-3.62.72-.78,1.17-1.83,1.17-2.98,0-1.79-1.08-3.33-2.61-4.01.26-.57.41-1.19.41-1.85,0-2.2-1.62-4.02-3.73-4.35-.32-2.1-2.14-3.72-4.34-3.72s-4.02,1.62-4.34,3.72Z"/><path d="m27.66,15.52c-2.11.33-3.72,2.14-3.72,4.34,0,.66.15,1.29.41,1.85-1.54.69-2.61,2.23-2.61,4.02,0,1.15.45,2.2,1.17,2.98-1.15.79-1.9,2.12-1.9,3.62,0,2.43,1.97,4.4,4.4,4.4,1.01,0,1.95-.35,2.69-.92.42.82,1.09,1.48,1.91,1.9v10.65c.63-.24,1.31-.36,2-.36s1.37.12,2,.36v-10.65c.82-.42,1.49-1.08,1.91-1.9.74.58,1.68.92,2.69.92,2.43,0,4.4-1.97,4.4-4.4,0-1.5-.75-2.83-1.9-3.62.72-.78,1.17-1.83,1.17-2.98,0-1.79-1.07-3.33-2.61-4.02.26-.56.41-1.19.41-1.85,0-2.2-1.62-4.02-3.72-4.34-.33-2.11-2.14-3.72-4.34-3.72s-4.02,1.62-4.34,3.72Z"/><path d="m56.7,48.06c-1.75-.3-3.32.55-4.12,1.9-.7-.59-1.59-.96-2.58-.96-1.46,0-2.73.79-3.42,1.96-.7-.59-1.59-.96-2.58-.96-1.2,0-2.27.54-3,1.38-.73-.84-1.8-1.38-3-1.38s-2.27.54-3,1.38c-.73-.84-1.8-1.38-3-1.38s-2.27.54-3,1.38c-.73-.84-1.8-1.38-3-1.38s-2.27.54-3,1.38c-.73-.84-1.8-1.38-3-1.38-.99,0-1.88.37-2.58.96-.69-1.17-1.96-1.96-3.42-1.96-.99,0-1.88.37-2.58.96-.8-1.35-2.37-2.2-4.12-1.9-1.94.33-3.3,2.12-3.3,4.09v5.85c0,.55.45,1,1,1h54c.55,0,1-.45,1-1v-5.85c0-1.97-1.36-3.76-3.3-4.09Z"/></svg>