<?xml version="1.0" encoding="UTF-8"?><svg id="Glyph" xmlns="http://www.w3.org/2000/svg" viewBox="0 0 64 64"><path d="m34.54,38.85c1.41.89,2.78,1.86,4.08,2.9,5.48-2.44,11.47-3.75,17.61-3.75h3.27v-3.5h-6.62c-6.49,0-12.74,1.56-18.34,4.35Z"/><path d="m40.32,43.19c1.02.89,1.99,1.84,2.91,2.83,5.02-1.98,10.43-3.02,16-3.02h.27v-3h-3.27c-5.53,0-10.93,1.12-15.91,3.19Z"/><path d="m44.67,47.61c.85,1,1.66,2.04,2.43,3.12,3.96-1.48,8.14-2.37,12.4-2.63v-3.1h-.27c-5.05,0-9.97.9-14.56,2.61Z"/><path d="m50.15,55.69c3.01-1.11,6.13-1.88,9.35-2.3v-3.28c-3.85.25-7.64,1.04-11.25,2.33.68,1.05,1.32,2.13,1.9,3.25Z"/><path d="m51.84,59.22c.11.25.15.52.15.78h7.51v-4.6c-2.9.4-5.72,1.1-8.44,2.09.27.57.53,1.14.78,1.73Z"/><path d="m4,60h13.36c-4.2-2.18-8.69-3.61-13.36-4.26v4.26Z"/><path d="m4,53.65c6,.79,11.69,2.8,16.94,5.98.16.09.28.22.37.37h6.94c-6.86-5.74-15.39-9.18-24.25-9.77v3.42Z"/><path d="m4.28,44.92h-.28v3.22c10.02.63,19.62,4.75,27.09,11.61.08.07.14.16.19.25h5.26c-8.09-9.61-19.77-15.08-32.26-15.08Z"/><path d="m7.34,39.72h-3.34v3.12h.28c13.61,0,26.31,6.21,34.8,17.04.03.04.06.08.09.12h4.19c-7.72-12.54-21.42-20.28-36.02-20.28Z"/><path d="m10.77,34h-6.77v3.64h3.34c15.73,0,30.45,8.57,38.41,22.35h0s4.25.01,4.25.01c-6.66-15.76-22.12-26-39.23-26Z"/><path d="m7.14,14h9.72c1.73,0,3.14-1.41,3.14-3.14,0-1.42-.76-2.77-2.03-3.39-.95-.46-1.8-.39-2.56-.12,0-.07.02-.14.02-.22,0-1.89-1.54-3.43-3.43-3.43s-3.43,1.53-3.43,3.43c0,.07.02.14.02.22-.76-.27-1.61-.34-2.56.12-1.28.62-2.03,1.97-2.03,3.39,0,1.73,1.41,3.14,3.14,3.14Z"/><path d="m47.14,23h9.72c1.73,0,3.14-1.41,3.14-3.14,0-1.42-.76-2.77-2.03-3.39-.95-.46-1.8-.39-2.56-.12,0-.07.02-.14.02-.22,0-1.89-1.54-3.43-3.43-3.43s-3.43,1.53-3.43,3.43c0,.07.02.14.02.22-.76-.27-1.61-.34-2.56.12-1.28.62-2.03,1.97-2.03,3.39,0,1.73,1.41,3.14,3.14,3.14Z"/><circle cx="32" cy="13" r="4"/><path d="m32,7c.55,0,1-.45,1-1v-1c0-.55-.45-1-1-1s-1,.45-1,1v1c0,.55.45,1,1,1Z"/><path d="m26.34,8.76c.2.2.45.29.71.29s.51-.1.71-.29c.39-.39.39-1.02,0-1.41l-.71-.71c-.39-.39-1.02-.39-1.41,0s-.39,1.02,0,1.41l.71.71Z"/><path d="m24,14h1c.55,0,1-.45,1-1s-.45-1-1-1h-1c-.55,0-1,.45-1,1s.45,1,1,1Z"/><path d="m26.34,17.24l-.71.71c-.39.39-.39,1.02,0,1.41.2.2.45.29.71.29s.51-.1.71-.29l.71-.71c.39-.39.39-1.02,0-1.41s-1.02-.39-1.41,0Z"/><path d="m31,20v1c0,.55.45,1,1,1s1-.45,1-1v-1c0-.55-.45-1-1-1s-1,.45-1,1Z"/><path d="m36.24,17.24c-.39.39-.39,1.02,0,1.41l.71.71c.2.2.45.29.71.29s.51-.1.71-.29c.39-.39.39-1.02,0-1.41l-.71-.71c-.39-.39-1.02-.39-1.41,0Z"/><path d="m38,13c0,.55.45,1,1,1h1c.55,0,1-.45,1-1s-.45-1-1-1h-1c-.55,0-1,.45-1,1Z"/><path d="m36.95,9.05c.26,0,.51-.1.71-.29l.71-.71c.39-.39.39-1.02,0-1.41s-1.02-.39-1.41,0l-.71.71c-.39.39-.39,1.02,0,1.41.2.2.45.29.71.29Z"/></svg>