<?xml version="1.0" encoding="UTF-8"?><svg id="Glyph" xmlns="http://www.w3.org/2000/svg" viewBox="0 0 64 64"><path d="m60.6,10.21c-2.24-1.69-6.91-4.47-12.98-4.2-3.69.17-6.76,1.39-9.06,2.74.21.27.36.6.41.96.07.46-.03.91-.25,1.3,2.15-1.41,5.21-2.82,8.99-3,5.43-.25,9.66,2.27,11.69,3.8.44.33,1.07.24,1.4-.2s.24-1.07-.2-1.4Z"/><path d="m26.21,25.26c-1.52-4.97,4.62-10.76,10.78-15.26-.9-.32-2.57-.78-4.65-.62-1.11.09-2.03.33-2.72.56-2.62-1.73-6.7-3.71-11.95-3.93-6.66-.28-11.77,2.5-14.23,4.17-.46.31-.57.93-.26,1.39.19.28.51.44.83.44.19,0,.39-.06.56-.17,2.25-1.54,6.94-4.08,13.02-3.83,4.31.18,7.77,1.67,10.17,3.11-5.74,3.94-12.03,9.46-10.92,14.9,1.28,6.32,11.56,7.47,13.4,13.79,1.09,3.73-.6,9.92-15.11,20.19h23.81c8.37-11.25,8.31-17.69,6.04-21.6-4.24-7.27-16.84-6.85-18.76-13.14Zm-2.64,3.51c-.2.25-.49.37-.78.37-.22,0-.44-.07-.62-.22-1.44-1.15-2.23-2.26-2.47-3.47-.27-1.34.11-2.87,1.15-4.53.29-.47.91-.61,1.38-.32.47.29.61.91.32,1.38-.75,1.19-1.05,2.26-.89,3.07.15.73.71,1.46,1.76,2.31.43.35.5.97.16,1.41Zm13.06,28.01c-.2.26-.49.39-.79.39-.21,0-.43-.07-.61-.21-.44-.34-.52-.96-.18-1.4,4.93-6.4,6.48-11.27,4.62-14.47-.28-.48-.12-1.09.36-1.37.48-.28,1.09-.12,1.37.36,2.34,4.02.79,9.48-4.76,16.69Z"/><path d="m43,14c-2.21,0-4,2.24-4,5,0,2.33,1.28,4.27,3,4.82v4.77c0,.55.45,1,1,1s1-.45,1-1v-4.77c1.72-.56,3-2.5,3-4.82,0-2.76-1.79-5-4-5Z"/><path d="m16,50.6c0,.55.45,1,1,1s1-.45,1-1v-4.77c1.72-.56,3-2.5,3-4.82,0-2.76-1.79-5-4-5s-4,2.24-4,5c0,2.33,1.28,4.27,3,4.82v4.77Z"/><path d="m57.53,16.42l-.43.54v-.85c0-.52-.45-.94-1-.94s-1,.42-1,.94v.85l-.43-.54c-.34-.43-.97-.51-1.4-.16-.43.34-.51.97-.16,1.4l2.21,2.79c.19.24.48.38.78.38s.59-.14.78-.38l2.21-2.79c.34-.43.27-1.06-.16-1.41-.43-.34-1.06-.27-1.4.16Z"/><path d="m53.1,36.83c.31,0,.59-.14.78-.38l2.21-2.79c.34-.43.27-1.06-.16-1.4-.43-.34-1.06-.27-1.4.16l-.43.54v-.86c0-.51-.45-.93-1-.93s-1,.42-1,.93v.86l-.42-.54c-.34-.43-.97-.51-1.41-.16-.43.34-.51.97-.16,1.4l2.21,2.79c.19.24.48.38.78.38Z"/><path d="m56.43,51.25l-.43.54v-.85c0-.52-.45-.94-1-.94s-1,.42-1,.94v.85l-.43-.54c-.34-.43-.97-.51-1.4-.16-.43.34-.51.97-.16,1.4l2.21,2.79c.19.24.48.38.78.38s.59-.14.78-.38l2.21-2.79c.34-.43.27-1.06-.16-1.4-.43-.34-1.06-.27-1.4.16Z"/><path d="m10.11,52.59l-.43.54v-.91c0-.49-.45-.88-1-.88s-1,.39-1,.88v.91l-.43-.54c-.34-.43-.97-.51-1.4-.16-.43.34-.51.97-.16,1.4l2.21,2.79c.19.24.48.38.78.38s.59-.14.78-.38l2.21-2.79c.34-.43.27-1.06-.16-1.4-.43-.34-1.06-.27-1.4.16Z"/><path d="m7.69,35c.31,0,.59-.14.78-.38l2.21-2.79c.34-.43.27-1.06-.16-1.4-.43-.34-1.06-.27-1.4.16l-.43.54v-.92c0-.48-.45-.87-1-.87s-1,.39-1,.87v.92l-.43-.54c-.34-.43-.97-.51-1.4-.16-.43.34-.51.97-.16,1.4l2.21,2.79c.19.24.48.38.78.38Z"/><path d="m14.83,15.3c-.43-.34-1.06-.27-1.4.16l-.43.54v-.89c0-.5-.45-.9-1-.9s-1,.4-1,.9v.89l-.43-.54c-.34-.43-.97-.5-1.4-.16-.43.34-.51.97-.16,1.41l2.21,2.79c.19.24.48.38.78.38s.59-.14.78-.38l2.21-2.79c.34-.43.27-1.06-.16-1.41Z"/></svg>