<?xml version="1.0" encoding="UTF-8"?><svg id="Glyph" xmlns="http://www.w3.org/2000/svg" viewBox="0 0 64 64"><path d="m6.4,46.8c.38-.5.97-.8,1.6-.8s1.22.3,1.6.8c.17.23.37.43.59.6.65.47,1.37.59,1.86.6.39-.01,1.11-.13,1.76-.6.22-.17.42-.37.59-.6.38-.5.97-.8,1.6-.8s1.22.3,1.6.8c.17.23.37.43.59.6.64.46,1.35.59,1.84.6.18-1.75,1.25-3.26,2.8-4.02.48-.97,1.24-1.75,2.17-2.24v-21.74H4v28c.49-.02,1.18-.15,1.81-.6.22-.17.42-.37.59-.6Z"/><path d="m39,41.74c.93.49,1.69,1.27,2.17,2.24,1.55.76,2.62,2.27,2.8,4.02h.08c.39-.01,1.11-.13,1.76-.6.22-.17.42-.37.59-.6.38-.5.97-.8,1.6-.8s1.22.3,1.6.8c.17.23.37.43.59.6.65.47,1.37.59,1.86.6.39-.01,1.11-.13,1.76-.6.22-.17.42-.37.59-.6.38-.5.97-.8,1.6-.8s1.22.3,1.6.8c.17.23.37.43.59.6.63.45,1.32.58,1.81.6v-28h-21v21.74Z"/><path d="m56,48c-.23.31-.56.67-1,1-1.17.87-2.43.99-3,1-.57-.01-1.83-.13-3-1-.44-.33-.77-.69-1-1-.23.31-.56.67-1,1-1.17.87-2.43.99-3,1-.06,0-.12,0-.19-.01-.64,2.52-2.93,4.39-5.66,4.39h-12.3c-2.73,0-5.02-1.87-5.66-4.39-.07.01-.13.01-.19.01-.57-.01-1.83-.13-3-1-.44-.33-.77-.69-1-1-.23.31-.56.67-1,1-1.17.87-2.43.99-3,1-.57-.01-1.83-.13-3-1-.44-.33-.77-.69-1-1-.23.31-.56.67-1,1-1.17.87-2.43.99-3,1v8h56v-8c-.57-.01-1.83-.13-3-1-.44-.33-.77-.69-1-1Z"/><path d="m56.6,7.64c-.36.22-.82.19-1.15-.08l-3.04-2.43c-.26-.2-.6-.27-.91-.17l-3.32.99c-.12.03-.23.09-.33.17l-1.98,1.56c-.25.2-.59.27-.9.18l-2.67-.77c-.2-.06-.4-.06-.59.01l-2.66.88c-4.59-1.3-9.52-1.29-14.11,0l-2.66-.88c-.19-.07-.39-.07-.59-.01l-2.67.77c-.31.09-.65.02-.9-.18l-1.98-1.56c-.1-.08-.21-.14-.33-.17l-3.32-.99c-.31-.1-.65-.03-.91.17l-3.04,2.43c-.33.27-.79.3-1.15.08l-3.4-2.07v6.43h21v-1.96l.28-.08c4.36-1.27,9.07-1.27,13.44,0l.28.08v1.96h21v-6.43l-3.4,2.07Z"/><rect x="39" y="14" width="21" height="4"/><rect x="4" y="14" width="21" height="4"/><path d="m24.38,45.54c-1.37.32-2.38,1.54-2.38,3,0,2.12,1.72,3.85,3.85,3.85h12.31c2.12,0,3.85-1.72,3.85-3.85,0-1.46-1.02-2.68-2.38-3-.32-1.37-1.54-2.38-3-2.38-.63,0-1.22.19-1.72.52-.42-1.2-1.55-2.06-2.9-2.06s-2.48.86-2.9,2.06c-.49-.33-1.08-.52-1.72-.52-1.46,0-2.68,1.02-3,2.38Z"/><path d="m29,17.49c.55,0,1-.45,1-1v-3.49c0-.55-.45-1-1-1s-1,.45-1,1v3.49c0,.55.45,1,1,1Z"/><path d="m28,29.49c0,.55.45,1,1,1s1-.45,1-1v-5.49c0-.55-.45-1-1-1s-1,.45-1,1v5.49Z"/><path d="m35,24.49c.55,0,1-.45,1-1v-5.49c0-.55-.45-1-1-1s-1,.45-1,1v5.49c0,.55.45,1,1,1Z"/><path d="m34,35.49c0,.55.45,1,1,1s1-.45,1-1v-3.49c0-.55-.45-1-1-1s-1,.45-1,1v3.49Z"/></svg>