<?xml version="1.0" encoding="UTF-8"?><svg id="Glyph" xmlns="http://www.w3.org/2000/svg" viewBox="0 0 64 64"><path d="m33,6.2v-2.2c0-.55-.45-1-1-1s-1,.45-1,1v2.2c-1.9.54-4.47,2.03-5.52,5.05h13.04c-1.05-3.02-3.62-4.51-5.52-5.05Z"/><path d="m24,15.25h16c.55,0,1-.45,1-1s-.45-1-1-1h-16c-.55,0-1,.45-1,1s.45,1,1,1Z"/><path d="m38.89,28.32l.67-2c.22-.65-.27-1.32-.95-1.32h-.61v-7.75h-12v7.75h-.61c-.68,0-1.16.67-.95,1.32l.67,2c.14.41.52.68.95.68h11.89c.43,0,.81-.28.95-.68Zm-8.89-3.32v-4c0-1.1.9-2,2-2s2,.9,2,2v4h-4Z"/><polygon points="26.64 34 26.27 39 37.73 39 37.36 34 26.64 34"/><path d="m25.63,47.83c.16.22.35.41.56.57.65.47,1.37.59,1.86.6.39-.01,1.11-.13,1.76-.6.22-.17.42-.37.59-.6.38-.5.97-.8,1.6-.8s1.22.3,1.6.8c.17.23.37.43.59.6.65.47,1.37.59,1.86.6.39-.01,1.11-.13,1.76-.6.21-.16.4-.35.56-.57l-.28-3.83h-12.18l-.28,3.83Z"/><path d="m57,50c-.44-.33-.77-.69-1-1-.23.31-.56.67-1,1-1.17.87-2.43.99-3,1-.57-.01-1.83-.13-3-1-.44-.33-.77-.69-1-1-.23.31-.56.67-1,1-1.17.87-2.43.99-3,1-.57-.01-1.83-.13-3-1-.44-.33-.77-.69-1-1-.23.31-.56.67-1,1-1.17.87-2.43.99-3,1-.57-.01-1.83-.13-3-1-.44-.33-.77-.69-1-1-.23.31-.56.67-1,1-1.17.87-2.43.99-3,1-.57-.01-1.83-.13-3-1-.44-.33-.77-.69-1-1-.23.31-.56.67-1,1-1.17.87-2.43.99-3,1-.57-.01-1.83-.13-3-1-.44-.33-.77-.69-1-1-.23.31-.56.67-1,1-1.17.87-2.43.99-3,1-.57-.01-1.83-.13-3-1-.44-.33-.77-.69-1-1-.23.31-.56.67-1,1-1.17.87-2.43.99-3,1v7h56v-7c-.57-.01-1.83-.13-3-1Z"/><path d="m44,19c-.55,0-1,.45-1,1s.45,1,1,1h5c.55,0,1-.45,1-1s-.45-1-1-1h-5Z"/><path d="m43.48,17.5c.1,0,.2-.01.29-.04l4.78-1.46c.53-.16.83-.72.66-1.25s-.72-.83-1.25-.66l-4.78,1.46c-.53.16-.83.72-.66,1.25.13.43.53.71.96.71Z"/><path d="m43.19,24.46l4.78,1.46c.1.03.2.04.29.04.43,0,.82-.28.96-.71.16-.53-.14-1.09-.66-1.25l-4.78-1.46c-.53-.17-1.09.14-1.25.66-.16.53.14,1.09.66,1.25Z"/><path d="m15,21h5c.55,0,1-.45,1-1s-.45-1-1-1h-5c-.55,0-1,.45-1,1s.45,1,1,1Z"/><path d="m15.45,15.99l4.78,1.46c.1.03.2.04.29.04.43,0,.82-.28.96-.71.16-.53-.14-1.09-.66-1.25l-4.78-1.46c-.53-.17-1.09.14-1.25.66-.16.53.14,1.09.66,1.25Z"/><path d="m20.23,22.55l-4.78,1.46c-.53.16-.83.72-.66,1.25.13.43.53.71.96.71.1,0,.2-.01.29-.04l4.78-1.46c.53-.16.83-.72.66-1.25s-.72-.83-1.25-.66Z"/></svg>