<?xml version="1.0" encoding="UTF-8"?><svg id="Glyph" xmlns="http://www.w3.org/2000/svg" viewBox="0 0 64 64"><path d="m47.91,46.78c-4.83,1.3-4.83-5.2-8.78-6.21-2.31-.59-1.83-4.2-4.64-4-3.03.21-1.19,5.58-4.04,5.52-2.63-.06-1.41-5.01-4.05-4.91-2.65.09-2.1,8.03-6.19,8.7-1.54.25-2.23-.67-2.5-1.91h0c.57-1.05,1.12-2.12,1.67-3.23,2.45-4.96,4.13-9.63,5.31-13.71.24-.85,1.03-1.43,1.91-1.43h10.8c.88,0,1.67.58,1.91,1.43,1.18,4.08,2.86,8.75,5.31,13.71,1.05,2.15,2.16,4.16,3.29,6.04Z"/><path d="m57.72,60H6.28c3.13-3.46,6.78-8.05,10.19-13.85.72,1.13,1.86,1.77,3.26,1.77.25,0,.52-.02.8-.07,3.44-.56,4.58-4,5.41-6.51.15-.43.33-.97.5-1.43.03.09.05.16.07.24.39,1.35,1.12,3.88,3.99,3.94,3,0,3.58-2.85,3.85-4.22.08-.4.21-1.03.34-1.31h.1c.15.1.42.62.59.93.54,1.01,1.36,2.53,3.25,3.02.9.23,1.52,1.09,2.45,2.47,1.11,1.68,2.63,3.97,5.63,3.97.55,0,1.13-.08,1.72-.24.19-.05.37-.13.53-.23,2.98,4.71,6.06,8.54,8.76,11.52Z"/><path d="m52.7,6.6c.75,5.61-5.47,6.63-5.47,6.63-.63,5.24-5.84,4.44-5.84,4.44.35,3.32-3.56,4.12-3.56,4.12v1.83c-.14-.01-.29-.02-.43-.02h-10.8c-.07,0-.13,0-.2.01v-1.82s-3.91-.8-3.56-4.12c0,0-5.2.8-5.84-4.44,0,0-6.21-1.02-5.47-6.63,0,0-2.13-.92-1.68-2.6h9.67s-.03.09-.03.14c-.13,1.49.5,4.37,3.68,5.45.07,1.4.73,3.31,2.94,3.98.1.03.2.05.29.05.43,0,.83-.28.96-.71.16-.53-.13-1.09-.66-1.25-1.75-.53-1.55-2.48-1.52-2.69.08-.52-.27-1.01-.78-1.12-3.04-.64-2.94-3.24-2.91-3.53.01-.11,0-.22-.03-.32h20.68c.02.38-.04,1.54-1.31,1.65-.48.04-.86.42-.91.89-.03.27-.39,2.59-2.31,2.49-.57-.03-1.03.38-1.06.93-.04.55.38,1.03.93,1.06.1.01.2.01.3.01,2.48,0,3.62-2,3.99-3.53,1.79-.53,2.4-2.26,2.38-3.5h10.23c.45,1.68-1.68,2.6-1.68,2.6Z"/></svg>