<?xml version="1.0" encoding="UTF-8"?><svg id="Glyph" xmlns="http://www.w3.org/2000/svg" viewBox="0 0 64 64"><path d="m59.9,54.91c.05.59-.41,1.09-.99,1.09h-14.46l-1.51-13.74c-.03-.32-.22-.6-.5-.76l-2.04-1.15c-.23-.13-.4-.34-.47-.6l-1.34-4.71c-.09-.32-.33-.57-.64-.68l-6.27-2.11c-.39-.13-.81-.02-1.08.29l-7.87,9.07c-.15.16-.23.38-.25.6l-.66,13.79H5.11c-.59,0-1.06-.51-.99-1.1l2.17-20.8c.03-.3.2-.58.46-.74l5.08-3.22c.16-.1.3-.26.38-.44l4.94-11.33c.11-.25.31-.44.57-.54l5.8-2.16c.2-.08.37-.22.49-.4l3.9-6.08c.17-.26.43-.42.73-.46l5.96-.66c.36-.04.72.12.93.42l.03.04c-.37.25-.65.62-.79,1.07-.49,1.65-2.73,10.05,1.96,12.56.87.47,1.02.99,1.32,2.25.35,1.5.88,3.76,3.79,4.98.56.24,1.04.43,1.48.61,2.43.99,2.53,1.03,3.58,2.98.93,1.74,2.92,2.77,5.3,2.77,1.99,0,3.93-.72,5.34-1.98.14-.12.25-.25.34-.4.05.11.1.23.11.35l1.91,21.19Z"/><path d="m56.21,32.28c-2.29,2.05-6.36,1.96-7.55-.25-1.62-3.01-2.21-2.86-6.04-4.48-3.83-1.61-1.45-5.27-4.94-7.15-3.49-1.87-.99-10.23-.99-10.23h.01l5.64,8.13c.08.12.2.23.33.3l4.99,2.79c.19.1.34.27.43.48l3.3,7.65c.09.22.25.39.46.5l4.36,2.26Z"/></svg>