<?xml version="1.0" encoding="UTF-8"?><svg id="Glyph" xmlns="http://www.w3.org/2000/svg" viewBox="0 0 64 64"><path d="m53.55,34c-4.44,0-5.55,5-5.55,5-4.29,0-6.27,2.26-7.16,4h18.19c.34,0,.67.06.97.17v-14.17c-4,0-6.45,5-6.45,5Z"/><circle cx="21" cy="12" r="4"/><path d="m21,6c.55,0,1-.45,1-1v-1c0-.55-.45-1-1-1s-1,.45-1,1v1c0,.55.45,1,1,1Z"/><path d="m15.34,7.76c.2.2.45.29.71.29s.51-.1.71-.29c.39-.39.39-1.02,0-1.41l-.71-.71c-.39-.39-1.02-.39-1.41,0s-.39,1.02,0,1.41l.71.71Z"/><path d="m13,13h1c.55,0,1-.45,1-1s-.45-1-1-1h-1c-.55,0-1,.45-1,1s.45,1,1,1Z"/><path d="m15.34,16.24l-.71.71c-.39.39-.39,1.02,0,1.41.2.2.45.29.71.29s.51-.1.71-.29l.71-.71c.39-.39.39-1.02,0-1.41s-1.02-.39-1.41,0Z"/><path d="m20,19v1c0,.55.45,1,1,1s1-.45,1-1v-1c0-.55-.45-1-1-1s-1,.45-1,1Z"/><path d="m25.24,16.24c-.39.39-.39,1.02,0,1.41l.71.71c.2.2.45.29.71.29s.51-.1.71-.29c.39-.39.39-1.02,0-1.41l-.71-.71c-.39-.39-1.02-.39-1.41,0Z"/><path d="m27,12c0,.55.45,1,1,1h1c.55,0,1-.45,1-1s-.45-1-1-1h-1c-.55,0-1,.45-1,1Z"/><path d="m25.95,8.05c.26,0,.51-.1.71-.29l.71-.71c.39-.39.39-1.02,0-1.41s-1.02-.39-1.41,0l-.71.71c-.39.39-.39,1.02,0,1.41.2.2.45.29.71.29Z"/><path d="m37.01,25.35c0,.05-.01.1-.01.15,0,2.49,1.79,4.5,4,4.5.35,0,.68-.06,1-.15v8.86c1.06-.73,2.39-1.29,4-1.55v-7.32c.32.09.65.15,1,.15,2.21,0,4-2.01,4-4.5,0-.05-.01-.1-.01-.15,1.73-.5,3.01-2.25,3.01-4.35s-1.28-3.85-3.01-4.35c0-.05.01-.1.01-.15,0-2.49-1.79-4.5-4-4.5-1.2,0-2.27.61-3,1.55-.73-.94-1.8-1.55-3-1.55-2.21,0-4,2.01-4,4.5,0,.05.01.1.01.15-1.73.5-3.01,2.25-3.01,4.35s1.28,3.85,3.01,4.35Z"/><path d="m59.03,45h-30.03v-3h1c1.1,0,2-.9,2-2v-2c0-1.1-.9-2-2-2h-3v-2h1c1.1,0,2-.9,2-2v-4c0-1.1-.9-2-2-2H10c-1.1,0-2,.9-2,2v4c0,1.1.9,2,2,2h1v2h-3c-1.1,0-2,.9-2,2v2c0,1.1.9,2,2,2h1v3h-4.03c-.53,0-.97.45-.97,1v14c0,.55.43,1,.97,1h54.07c.53,0,.97-.45.97-1v-14c0-.55-.43-1-.97-1Zm-46.03-11h12v2h-12v-2Zm1.99,18.49l-2.21,2.79c-.19.24-.48.38-.78.38s-.59-.14-.78-.38l-2.21-2.79c-.34-.43-.27-1.06.16-1.4.43-.35,1.06-.27,1.4.16l.43.54v-.91c0-.49.45-.88,1-.88s1,.4,1,.88v.91l.43-.54c.34-.43.97-.51,1.4-.16.43.34.51.97.16,1.4Zm-3.99-7.49v-3h16v3H11Zm23.99,10.49l-2.21,2.79c-.19.24-.48.38-.78.38s-.59-.14-.78-.38l-2.21-2.79c-.34-.43-.27-1.06.16-1.4.43-.35,1.06-.27,1.4.16l.43.54v-.88c0-.5.45-.91,1-.91s1,.41,1,.91v.88l.43-.54c.34-.43.97-.51,1.4-.16.43.34.51.97.16,1.4Zm21-3l-2.21,2.79c-.19.24-.48.38-.78.38s-.59-.14-.78-.38l-2.21-2.79c-.34-.43-.27-1.06.16-1.4.43-.35,1.06-.27,1.4.16l.43.54v-.91c0-.49.45-.88,1-.88s1,.4,1,.88v.91l.43-.54c.34-.43.97-.51,1.4-.16.43.34.51.97.16,1.4Z"/></svg>