<?xml version="1.0" encoding="UTF-8"?><svg id="Glyph" xmlns="http://www.w3.org/2000/svg" viewBox="0 0 64 64"><path d="m24.89,37.58c-.45-.38-.7-.94-.7-1.52v-6.18l-1.73-4.52h-9.23v5.6l4.4,4.39v7.99l5.5,3.57,1.19,7.45,2.59-1.45,2.6,1.28.62,1.45.26-8.43-1.18-5.91-4.32-3.72Z"/><polygon points="24.61 25.36 26.19 29.51 26.19 36.06 31.04 40.23 32.4 47.04 32 60 37.34 50.96 37.6 46.7 41.64 43.98 42.91 35.81 45.98 33.26 47 29.04 49.81 26.11 49.55 25.36 24.61 25.36"/><path d="m60,21.36h-11.75l-.99-3.47-4.03-1.46-3.21-5.14-.84,5.52c-.04.29-.21.54-.46.7l-3.23,2.03-.48,1.82h-2.06l.7-2.71c.06-.25.22-.46.44-.6l3.18-1.99.78-5.12-1.39,1.13-4.66-8.07-3.56,6.16c.08.17.12.37.09.57l-.58,4.13.92,1.76c.25.49.06,1.1-.43,1.35-.15.08-.31.11-.46.11-.36,0-.71-.19-.89-.53l-1.06-2.05c-.1-.18-.13-.39-.11-.6l.51-3.58-1.64-1.33-4.02,6.44-4.03,1.46-.99,3.47H4c-.55,0-1,.45-1,1s.45,1,1,1h56c.55,0,1-.45,1-1s-.45-1-1-1Z"/></svg>