<?xml version="1.0" encoding="UTF-8"?><svg id="Glyph" xmlns="http://www.w3.org/2000/svg" viewBox="0 0 64 64"><path d="m50.31,28.5c-2.56-1.29-4.01-4-4-6.86,0-.02,0-.04,0-.05,0-9.14-9.47-16.55-21.15-16.55S4,12.45,4,21.59c0,5.84,3.86,10.96,9.69,13.9,2.56,1.29,4.01,4,3.99,6.86,0,.02,0,.04,0,.06,0,9.14,9.47,16.55,21.16,16.55s21.15-7.41,21.15-16.55c0-5.84-3.86-10.97-9.69-13.91Zm-11.47,25.46c-8.76,0-16.17-5.29-16.17-11.55.02-4.93-2.56-9.27-6.74-11.38-4.35-2.2-6.94-5.72-6.94-9.44,0-6.26,7.4-11.55,16.17-11.55s16.15,5.29,16.15,11.55c-.02,4.92,2.56,9.27,6.74,11.38,4.35,2.19,6.94,5.72,6.94,9.44,0,6.26-7.4,11.55-16.15,11.55Z"/><path d="m29.2,20.76c.14-.1.27-.21.4-.33.13.12.26.23.4.33,1.27.95,2.65,1.18,3.57,1.2h.02c.54,0,.99-.43,1-.98.01-.55-.42-1.01-.98-1.02-.64-.01-1.57-.17-2.43-.8-.3-.22-.57-.49-.8-.8-.19-.25-.48-.4-.8-.4h0c-.31,0-.61.15-.8.4-.23.31-.5.58-.8.8-.84.63-1.77.78-2.4.8-.64-.02-1.56-.17-2.4-.8-.3-.22-.57-.49-.8-.8-.19-.25-.48-.4-.8-.4h0c-.31,0-.61.15-.8.4-.23.31-.5.58-.8.8-.85.64-1.79.79-2.43.8-.55.01-.99.47-.98,1.02.01.55.47.98,1.02.98.93-.02,2.3-.25,3.57-1.2.14-.1.27-.21.4-.33.13.12.26.23.4.33,1.27.95,2.65,1.18,3.57,1.2h.02s0,0,.01,0c0,0,0,0,.01,0,.93-.02,2.3-.25,3.57-1.2Z"/><path d="m50.32,42.1c-.64-.01-1.57-.17-2.43-.8-.3-.22-.57-.49-.8-.8-.38-.5-1.22-.5-1.6,0-.23.31-.5.58-.8.8-.84.63-1.77.78-2.4.8-.64-.02-1.56-.17-2.4-.8-.3-.22-.57-.49-.8-.8-.38-.5-1.22-.5-1.6,0-.23.31-.5.58-.8.8-.85.64-1.79.79-2.43.8-.55.01-.99.47-.98,1.02.01.55.45.95,1.02.98.93-.02,2.3-.25,3.57-1.2.14-.1.27-.21.4-.33.13.12.26.22.4.33,1.27.95,2.65,1.18,3.57,1.2h.02s0,0,.01,0c0,0,0,0,.01,0,.93-.02,2.3-.25,3.57-1.2.14-.1.27-.21.4-.33.13.12.26.22.4.33,1.27.95,2.65,1.18,3.57,1.2h.02c.54,0,.99-.43,1-.98.01-.55-.42-1.01-.98-1.02Z"/><path d="m34.01,32.8c1.27.95,2.65,1.18,3.57,1.2h.02c.54,0,.99-.43,1-.98.01-.55-.42-1.01-.98-1.02-.64-.01-1.57-.17-2.43-.8-.3-.22-.57-.49-.8-.8-.19-.25-.48-.4-.8-.4h0c-.31,0-.61.15-.8.4-.23.31-.5.58-.8.8-.85.64-1.79.79-2.43.8-.55.01-.99.47-.98,1.02.01.55.46.96,1.02.98.93-.02,2.3-.25,3.57-1.2.14-.1.27-.21.4-.33.13.12.26.22.4.33Z"/><path d="m11.09,42.94c0-2.76-1.79-5-4-5s-4,2.24-4,5c0,2.33,1.28,4.27,3,4.82v4.77c0,.55.45,1,1,1s1-.45,1-1v-4.77c1.72-.56,3-2.5,3-4.82Z"/><path d="m55,22.48v4.77c0,.55.45,1,1,1s1-.45,1-1v-4.77c1.72-.56,3-2.5,3-4.82,0-2.76-1.79-5-4-5s-4,2.24-4,5c0,2.33,1.28,4.27,3,4.82Z"/><path d="m15.64,55.29l-.43.54v-.86c0-.51-.45-.93-1-.93s-1,.42-1,.93v.86l-.43-.54c-.34-.43-.97-.51-1.41-.16-.43.34-.5.97-.16,1.4l2.21,2.79c.19.24.48.38.78.38s.59-.14.78-.38l2.21-2.79c.34-.43.27-1.06-.16-1.4-.43-.34-1.06-.27-1.41.16Z"/><path d="m47.72,10.45c.19.24.48.38.78.38s.59-.14.78-.38l2.21-2.79c.34-.43.27-1.06-.16-1.4-.43-.34-1.06-.27-1.4.16l-.43.54v-.92c0-.48-.45-.86-1-.86s-1,.39-1,.86v.92l-.43-.54c-.34-.43-.97-.51-1.4-.16-.43.34-.51.97-.16,1.4l2.21,2.79Z"/></svg>