<?xml version="1.0" encoding="UTF-8"?><svg id="Glyph" xmlns="http://www.w3.org/2000/svg" viewBox="0 0 64 64"><path d="m24.33,25.64c-.15.1-.33.16-.52.17-.59.01-1.19.15-1.72.4-.77.35-1.29.86-1.58,1.23-.1.12-.22.21-.36.28.5,1.14.97,2.38,1.38,3.71.11.34.21.68.29,1.02.43-.44,1.12-1.05,2.1-1.59.83-.44,1.73-.77,2.68-.97-.26-.59-.54-1.18-.85-1.77-.46-.88-.94-1.7-1.42-2.48Z"/><path d="m22.92,34.22c-.14.19-.34.33-.58.38.03.16.07.32.09.47,1.76-.8,3.61-1.38,5.53-1.71-.18-.53-.37-1.07-.58-1.61h-.01s-.1.04-.16.05c-.85.17-1.64.44-2.34.82-1.1.6-1.72,1.32-1.95,1.6Z"/><path d="m10.17,22.12c-.5.49-1.6,1.66-2.13,3.53-.55,1.94-.2,3.57-.01,4.24l8.54-8.49c.85,1.21,1.79,2.69,2.69,4.45.55-.61,1.23-1.11,1.99-1.46.6-.27,1.23-.45,1.87-.53-1.22-1.71-2.46-3.12-3.59-4.25l11.97-3.15c-.48-.5-1.71-1.63-3.66-2.14-1.89-.49-3.45-.14-4.12.05-.53.13-1.56.44-2.65,1.2l4.91-7.04c-.69-.07-2.36-.13-4.18.75-1.75.85-2.72,2.13-3.11,2.71-.41.57-1.27,1.92-1.47,3.85-.19,1.95.4,3.45.72,4.11h0c-.41-.6-1.4-1.87-3.18-2.7-1.77-.82-3.37-.75-4.07-.69-.7.04-2.29.23-3.91,1.31-1.68,1.12-2.47,2.59-2.76,3.22l8.55-.66c-1.21.56-2,1.29-2.38,1.68Z"/><path d="m35.76,27.29c-.78,2.03-1.31,3.99-1.67,5.81,2.1.18,4.14.65,6.07,1.39.12-1.39.32-2.84.64-4.35-.26-.05-.48-.2-.62-.41-.25-.3-.85-.99-1.92-1.57-.7-.37-1.48-.65-2.33-.82-.06-.01-.12-.03-.17-.05Z"/><path d="m41.31,28c.09-.34.19-.68.3-1.02.41-1.33.88-2.57,1.38-3.72-.14-.06-.26-.16-.36-.28-.29-.36-.81-.88-1.58-1.23-.53-.25-1.13-.38-1.72-.4-.19,0-.37-.06-.51-.16-.49.77-.97,1.6-1.43,2.47-.31.59-.59,1.18-.85,1.77.95.21,1.85.53,2.67.97.8.43,1.5.96,2.1,1.6Z"/><path d="m40.03,19.4c.64.09,1.27.26,1.85.53.75.35,1.45.85,2,1.46.89-1.76,1.84-3.24,2.69-4.44l8.54,8.49c.19-.67.54-2.3-.01-4.24-.54-1.87-1.63-3.04-2.13-3.53-.38-.39-1.17-1.12-2.38-1.68l8.55.66c-.29-.63-1.08-2.1-2.76-3.22-1.62-1.08-3.21-1.26-3.91-1.31-.7-.06-2.3-.13-4.07.69-1.82.85-2.82,2.16-3.21,2.75h0c.31-.64.93-2.17.74-4.16-.19-1.94-1.06-3.28-1.47-3.85-.39-.58-1.36-1.86-3.11-2.71-1.82-.88-3.48-.82-4.18-.75l4.9,7.04c-1.09-.76-2.13-1.07-2.65-1.2-.67-.19-2.24-.54-4.12-.05-1.95.51-3.18,1.63-3.66,2.14l11.97,3.15c-1.13,1.14-2.37,2.53-3.58,4.25Z"/><path d="m12.62,47.92c.36-.08.79-.23,1.19-.52.22-.17.42-.37.59-.6.38-.5.97-.8,1.6-.8s1.22.3,1.6.8c.17.23.37.43.59.59.64.48,1.36.59,1.85.61.4-.01,1.12-.13,1.76-.6.22-.17.42-.37.59-.6.38-.5.97-.8,1.6-.8s1.22.3,1.6.8c.17.23.37.43.59.59.64.48,1.36.59,1.85.61.4-.01,1.12-.13,1.76-.6.22-.17.42-.37.59-.6.38-.5.97-.8,1.6-.8s1.22.3,1.6.8c.17.23.37.43.59.59.64.48,1.36.59,1.85.61.4-.01,1.12-.13,1.76-.6.22-.17.42-.37.6-.6.38-.5.97-.8,1.6-.8s1.22.3,1.6.8c.17.23.37.43.59.6.64.48,1.36.59,1.85.61.4-.01,1.12-.13,1.76-.6.22-.17.42-.37.6-.6.38-.5.97-.8,1.6-.8s1.22.3,1.6.8c.17.23.37.43.59.6.39.29.81.44,1.18.52-1.07-2.55-2.61-4.84-4.53-6.76-3.8-3.8-9.05-6.15-14.85-6.15s-11.05,2.35-14.85,6.15c-1.92,1.92-3.47,4.22-4.53,6.77Z"/><path d="m57,49c-.44-.33-.77-.69-1-1-.23.31-.56.67-1,1-1.17.87-2.43.99-3,1-.57-.01-1.83-.13-3-1-.44-.33-.77-.69-1-1-.23.31-.56.67-1,1-1.17.87-2.43.99-3,1-.57-.01-1.83-.13-3-1-.44-.33-.77-.69-1-1-.23.31-.56.67-1,1-1.17.87-2.43.99-3,1-.57-.01-1.83-.13-3-1-.44-.33-.77-.69-1-1-.23.31-.56.67-1,1-1.17.87-2.43.99-3,1-.57-.01-1.83-.13-3-1-.44-.33-.77-.69-1-1-.23.31-.56.67-1,1-1.17.87-2.43.99-3,1-.57-.01-1.83-.13-3-1-.44-.33-.77-.69-1-1-.23.31-.56.67-1,1-1.17.87-2.43.99-3,1-.57-.01-1.83-.13-3-1-.44-.33-.77-.69-1-1-.23.31-.56.67-1,1-1.17.87-2.43.99-3,1v8h56v-8c-.57-.01-1.83-.13-3-1Z"/></svg>