<?xml version="1.0" encoding="UTF-8"?><svg id="Glyph" xmlns="http://www.w3.org/2000/svg" viewBox="0 0 64 64"><path d="m45.52,23.78c1.1.22,2.14.16,2.66,0,.82-.26,1.1-.63,1.82-.6.67.02.91.36,1.62.61.56.21,1.64.25,2.84-.04l-1.5-3.05h3.04l-3-4.36-3-4.34-3,4.34-3,4.36h3.04l-1.52,3.08Z"/><path d="m11.04,26.7l-1.63,3.29c1.12.16,1.94.03,2.48-.12.95-.25,1.28-.62,2.11-.6.78.02,1.05.36,1.88.62.6.19,1.48.33,2.71.12l-1.63-3.31h3.04l-3-4.36-3-4.34-3,4.34-3,4.36h3.04Z"/><path d="m51,37.3v-4.3h5l-3.05-6.15h3.05l-.65-1.31c-.13.07-.28.12-.42.16-.71.17-1.45.26-2.13.26-.73,0-1.36-.1-1.88-.3-.38-.13-.68-.29-.9-.41-.03-.02-.06-.03-.08-.05-.04.02-.08.04-.12.06-.24.12-.57.28-1.03.42-.64.2-1.34.24-1.83.24-.61,0-1.23-.06-1.83-.18-.17-.03-.34-.1-.49-.17l-.63,1.28h3.05l-3.05,6.15h5v4.3h-7.18c-5.75,0-11.32,1.48-16.24,4.17,9.36.88,18.01,5.39,24.12,12.67l3.83,4.58c.31.37.45.82.45,1.29h6.02v-22.7h-9Z"/><path d="m22.18,43.3h-7.18v-4.3h5l-3.05-6.15h3.05l-.53-1.06c-.17.09-.35.16-.55.19-.52.09-1.03.13-1.51.13-.75,0-1.47-.11-2.14-.32-.44-.14-.77-.29-1.01-.41-.25-.12-.26-.12-.32-.12h0c-.06,0-.08,0-.39.13-.27.11-.65.27-1.15.4-.61.17-1.29.26-1.99.26-.42,0-.85-.03-1.28-.09-.21-.03-.41-.1-.6-.2l-.53,1.08h3.05l-3.05,6.15h5v4.3H4v16.7h48l-3.84-4.58c-6.44-7.69-15.96-12.13-25.99-12.13Z"/><circle cx="37" cy="20.7" r="2"/><circle cx="27.45" cy="13" r="2"/><circle cx="40.17" cy="8" r="2"/><circle cx="57.13" cy="7" r="2"/><circle cx="27" cy="24.65" r="2"/><circle cx="8" cy="15" r="2"/><circle cx="17" cy="7" r="2"/></svg>