<?xml version="1.0" encoding="UTF-8"?><svg id="Glyph" xmlns="http://www.w3.org/2000/svg" viewBox="0 0 64 64"><path d="m56,42c-.23.31-.56.67-1,1-1.17.87-2.43.99-3,1-.57-.01-1.83-.13-3-1-.44-.33-.77-.69-1-1-.23.31-.56.67-1,1-1.17.87-2.43.99-3,1-.57-.01-1.83-.13-3-1-.44-.33-.77-.69-1-1-.23.31-.56.67-1,1-1.17.87-2.43.99-3,1-.57-.01-1.83-.13-3-1-.44-.33-.77-.69-1-1-.23.31-.56.67-1,1-.49.36-.99.59-1.45.74l1.56,1.8c.29.33.46.75.49,1.19l.07,1.3c.1-.02.22-.03.33-.03.63,0,1.23.3,1.6.81.12.15.31.38.6.59.68.51,1.44.59,1.83.6.33-.01,1.09-.09,1.78-.6.28-.21.47-.44.59-.59.37-.51.97-.81,1.6-.81s1.23.3,1.6.81c.12.15.31.38.6.59.68.51,1.44.59,1.83.6.33-.01,1.09-.09,1.78-.6.28-.21.47-.44.59-.59.37-.51.97-.81,1.6-.81s1.23.3,1.6.81c.12.15.31.38.6.59.68.51,1.44.59,1.83.6.33-.01,1.09-.09,1.78-.6.28-.21.47-.44.59-.59.37-.51.97-.81,1.6-.81s1.23.3,1.6.81c.12.15.31.38.6.59.66.5,1.4.59,1.8.6v-6c-.57-.01-1.83-.13-3-1-.44-.33-.77-.69-1-1Z"/><path d="m47.14,20.23h9.72c1.73,0,3.14-1.41,3.14-3.14,0-1.42-.76-2.77-2.03-3.39-.95-.46-1.8-.39-2.56-.12,0-.07.02-.14.02-.22,0-1.89-1.54-3.43-3.43-3.43s-3.43,1.54-3.43,3.43c0,.07.02.14.02.22-.76-.27-1.61-.34-2.56.12-1.28.62-2.03,1.97-2.03,3.39,0,1.73,1.41,3.14,3.14,3.14Z"/><path d="m24.93,13.14h9.72c1.73,0,3.14-1.41,3.14-3.14,0-1.42-.76-2.77-2.03-3.39-.95-.46-1.8-.39-2.56-.12,0-.07.02-.14.02-.22,0-1.89-1.54-3.43-3.43-3.43s-3.43,1.54-3.43,3.43c0,.07.02.14.02.22-.76-.27-1.61-.34-2.56.12-1.28.62-2.04,1.97-2.04,3.39,0,1.73,1.41,3.14,3.14,3.14Z"/><path d="m10.23,33.81c2.88.04,8.75-.81,13.55-2.15,4.42-1.23,7.91-2.95,7.91-2.95,0,0-6.06-4.21-14.08-4.21H4v9.31s.7-.09,6.23,0Z"/><path d="m6.4,48.81c.37-.51.97-.81,1.6-.81.33,0,.65.08.93.23l.66-4.22-1.35-2.08c-.21-.32-.21-.74-.01-1.06l2.3-3.77c.29-.48.9-.62,1.37-.34.48.29.62.91.34,1.38l-1.98,3.23,1.22,1.88c.13.21.18.46.14.71l-.89,5.75c.52.23,1.01.28,1.3.29.33-.01,1.09-.09,1.78-.6.28-.21.47-.44.59-.59.37-.51.97-.81,1.6-.81s1.23.3,1.6.81c.12.15.31.38.6.59.15.11.29.19.44.26l-1.84-4.52c-.04-.1-.07-.2-.08-.31l-.48-5.34c-.01-.14.01-.27.05-.4l1.33-4.03c-2.73.46-5.33.75-7.17.75h-.25c-1.83-.03-3.12-.04-4.04-.04-1.58,0-1.96.03-1.98.03-.05,0-.1.01-.15.01h-.03v14.19c.4-.01,1.14-.1,1.81-.6.28-.21.47-.44.59-.59Z"/><path d="m30.77,36.09l.64-5.04c-1.43.62-4.04,1.69-7.09,2.54-1.39.39-2.92.74-4.46,1.05l-1.61,4.88.45,4.97,2.18,5.36c.29-.09.62-.22.93-.45.28-.21.47-.44.59-.59.37-.51.97-.81,1.6-.81s1.23.3,1.6.81c.12.15.31.38.6.59.68.51,1.44.59,1.83.6.32-.01,1.05-.09,1.72-.56l-.15-2.59-2.47-2.85v-2.98l3.64-4.93Z"/><path d="m56,50c-.23.31-.56.67-1,1-1.17.87-2.43.99-3,1-.57-.01-1.83-.13-3-1-.44-.33-.77-.69-1-1-.23.31-.56.67-1,1-1.17.87-2.43.99-3,1-.57-.01-1.83-.13-3-1-.44-.33-.77-.69-1-1-.23.31-.56.67-1,1-1.17.87-2.43.99-3,1-.57-.01-1.83-.13-3-1-.44-.33-.77-.69-1-1-.23.31-.56.67-1,1-1.17.87-2.43.99-3,1-.57-.01-1.83-.13-3-1-.44-.33-.77-.69-1-1-.23.31-.56.67-1,1-1.17.87-2.43.99-3,1-.57-.01-1.83-.13-3-1-.44-.33-.77-.69-1-1-.23.31-.56.67-1,1-1.17.87-2.43.99-3,1-.57-.01-1.83-.13-3-1-.44-.33-.77-.69-1-1-.23.31-.56.67-1,1-1.17.87-2.43.99-3,1v8h56v-8c-.57-.01-1.83-.13-3-1-.44-.33-.77-.69-1-1Z"/></svg>