<?xml version="1.0" encoding="UTF-8"?>
<svg xmlns="http://www.w3.org/2000/svg" version="1.1" viewBox="0 0 64 64">
  <!-- Generator: Adobe Illustrator 28.7.1, SVG Export Plug-In . SVG Version: 1.2.0 Build 142)  -->
  <g>
    <g id="Glyph">
      <g>
        <path d="M41,26v-5h-18v5c0,.55127.44824,1,1,1h16c.55176,0,1-.44873,1-1ZM26,25c-.55231,0-1-.44775-1-1,0-.55231.44769-1,1-1s1,.44769,1,1c0,.55225-.44769,1-1,1ZM34,25h-4c-.55273,0-1-.44775-1-1s.44727-1,1-1h4c.55273,0,1,.44775,1,1s-.44727,1-1,1ZM38,25c-.55231,0-1-.44775-1-1,0-.55231.44769-1,1-1s1,.44769,1,1c0,.55225-.44769,1-1,1Z"/>
        <polygon points="33.38184 35 34.38184 33 29.61816 33 30.61816 35 33.38184 35"/>
        <rect x="29" y="12" width="14" height="2"/>
        <path d="M38,31c.55176,0,1-.44873,1-1v-1h-14v1c0,.55127.44824,1,1,1h12Z"/>
        <path d="M28,49c-.55176,0-1,.44873-1,1v1h10v-1c0-.55127-.44824-1-1-1h-8Z"/>
        <path d="M9,21v30h16v-1c0-1.6543,1.3457-3,3-3h8c1.6543,0,3,1.3457,3,3v1h16v-30h-12v5c0,1.30194-.8385,2.40161-2,2.81573v1.18427c0,1.6543-1.3457,3-3,3h-1.38184l-1.72363,3.44727c-.16992.33887-.51562.55273-.89453.55273h-1v2c0,.55225-.44727,1-1,1s-1-.44775-1-1v-2h-1c-.37891,0-.72461-.21387-.89453-.55273l-1.72363-3.44727h-1.38184c-1.6543,0-3-1.3457-3-3v-1.18433c-1.1615-.41412-2-1.51373-2-2.81567v-5h-12Z"/>
        <circle cx="50" cy="13" r="1"/>
        <circle cx="22" cy="13" r="1"/>
        <path d="M55,7H9c-1.10455,0-2,.89539-2,2v8c0,1.10455.89545,2,2,2h46c1.10455,0,2-.89545,2-2v-8c0-1.10461-.89545-2-2-2ZM14,16c-1.6543,0-3-1.3457-3-3s1.3457-3,3-3,3,1.3457,3,3-1.3457,3-3,3ZM22,16c-1.6543,0-3-1.3457-3-3s1.3457-3,3-3,3,1.3457,3,3-1.3457,3-3,3ZM45,15c0,.55225-.44727,1-1,1h-16c-.55273,0-1-.44775-1-1v-4c0-.55225.44727-1,1-1h16c.55273,0,1,.44775,1,1v4ZM50,16c-1.6543,0-3-1.3457-3-3s1.3457-3,3-3,3,1.3457,3,3-1.3457,3-3,3Z"/>
        <path d="M56,53H8c-.55231,0-1,.44769-1,1v2c0,.55225.44769,1,1,1h48c.55231,0,1-.44775,1-1v-2c0-.55231-.44769-1-1-1Z"/>
        <circle cx="14" cy="13" r="1"/>
      </g>
    </g>
  </g>
</svg>