<?xml version="1.0" encoding="UTF-8"?>
<svg xmlns="http://www.w3.org/2000/svg" version="1.1" viewBox="0 0 64 64">
  <!-- Generator: Adobe Illustrator 28.7.1, SVG Export Plug-In . SVG Version: 1.2.0 Build 142)  -->
  <g>
    <g id="Glyph">
      <g>
        <path d="M55,39h-4v7c0,.55225-.44727,1-1,1h-6c-.55273,0-1-.44775-1-1v-7h-4c-1.10254,0-2,.89697-2,2v14c0,1.10303.89746,2,2,2h16c1.10254,0,2-.89697,2-2v-14c0-1.10303-.89746-2-2-2Z"/>
        <rect x="45" y="39" width="4" height="6"/>
        <path d="M12.83002,15.28998c-.76001-1.40997-2.23004-2.28998-3.83002-2.28998-1.09998,0-2,.89996-2,2v8c2.40997-1.73999,5.16998-2.94,8.07001-3.54004l-2.23999-4.16998Z"/>
        <path d="M24.09998,19h12.98004l-5.54999-7.78003c-1.89001-2.64001-4.96002-4.21997-8.20001-4.21997-1.30151,0-2.29083,1.28711-1.92999,2.54999.00586.02045,2.69995,9.45001,2.69995,9.45001Z"/>
        <path d="M38.83514,30.52972c-.17798-.28674-.48615-.49554-.83514-.49554h-12c-.47266,0-.88135.33105-.97852.79395,0,0-3.74182,16.74072-3.74609,16.7597-.27435,1.2276.71466,2.41217,1.95703,2.41217,3.31348,0,6.33007-1.82129,7.87305-4.75293,0,0,7.68958-13.58856,7.77869-13.74591.17749-.31348.13055-.68213-.04901-.97144Z"/>
        <path d="M52,26h4.76575c-.94995-2.93896-3.71533-5-6.86572-5h-.90002v2c0,1.6543,1.3457,3,3,3Z"/>
        <path d="M23.07001,30.39001c.27997-1.35004,1.52002-2.36005,2.92999-2.36005h12c2.79523,0,3.47235,2.9527,2.34003,4.97003h9.56c3.11707,0,5.90912-2.0871,6.86169-5h-4.76172c-2.75684,0-5-2.24316-5-5v-2h-27.59998c-4.34003,0-8.64001,1.5-12.03003,4.21997-.22998.19-.37.48004-.37.78003v2c0,.29999.14001.58997.38.77997,3.40002,2.72003,7.66998,4.22003,12.02002,4.22003h3.08997l.58002-2.60999ZM42,24.5h1c.55225,0,1,.44775,1,1s-.44775,1-1,1h-1c-.55225,0-1-.44775-1-1s.44775-1,1-1ZM37,24.5h1c.55225,0,1,.44775,1,1s-.44775,1-1,1h-1c-.55225,0-1-.44775-1-1s.44775-1,1-1ZM32,24.5h1c.55225,0,1,.44775,1,1s-.44775,1-1,1h-1c-.55225,0-1-.44775-1-1s.44775-1,1-1ZM27,24.5h1c.55225,0,1,.44775,1,1s-.44775,1-1,1h-1c-.55225,0-1-.44775-1-1s.44775-1,1-1ZM18,26.5h-1c-.55225,0-1-.44775-1-1s.44775-1,1-1h1c.55225,0,1,.44775,1,1s-.44775,1-1,1ZM21,25.5c0-.55225.44775-1,1-1h1c.55225,0,1,.44775,1,1s-.44775,1-1,1h-1c-.55225,0-1-.44775-1-1Z"/>
      </g>
    </g>
  </g>
</svg>