<?xml version="1.0" encoding="UTF-8"?>
<svg id="Glyph" xmlns="http://www.w3.org/2000/svg" version="1.1" viewBox="0 0 64 64">
  <path d="M11.03998,33.81c-.32996-.07001-.67999.02997-.91998.26996l-2.83002,2.83002c-.43176.43188-.36884,1.14825.12012,1.51007.03387.02509,6.99988,5.17993,6.99988,5.17993l4.30005-8.10999-7.67004-1.67999Z" fill="#000" stroke-width="0"/>
  <path d="M28.52002,45.28998l-8.12,4.29999,5.17999,7c.35071.49518,1.08185.5481,1.51007.11993l2.8299-2.8299c.23999-.23999.34003-.59003.27002-.92004l-1.66998-7.66998Z" fill="#000" stroke-width="0"/>
  <path d="M12.49005,18.06c.04077.01855,15.20996,6.91998,15.20996,6.91998l8.17999-8.17999-18.47003-4.85999c-.34998-.09003-.71997.01001-.96997.26001l-4.23999,4.23999c-.47345.4939-.34485,1.33118.29004,1.62Z" fill="#000" stroke-width="0"/>
  <path d="M27.04999,10.07996c-1.16998-1.16998-3.07001-1.16998-4.23999,0l-.96002.96002,6.05005,1.59003c.13-.90002-.16003-1.86005-.85004-2.55005Z" fill="#000" stroke-width="0"/>
  <path d="M36.53998,11.90997c-1.13995-1.13-3.10999-1.14001-4.25,0l-1.47998,1.48004,6.40997,1.68994c.41003-1.06995.18005-2.31-.67999-3.16998Z" fill="#000" stroke-width="0"/>
  <path d="M45.34003,24.32001l1.88995.94,5.05005-5.05005c2.62-2.63,4.28998-6.09998,4.69995-9.78998.10004-.94-.21997-1.84998-.88-2.52002-.66998-.65997-1.58997-.98999-2.51996-.88-3.69.41003-7.16003,2.08002-9.79004,4.70001l-21.64996,21.65002c-.07001.07001-.13.14996-.17004.23999l-5.89996,11.14001c-.48999.91992-.32001,2.02985.41986,2.75989.70331.69397,1.84528.91675,2.76013.4201l9.75-5.16003v-9.76996c0-1.14001.64001-2.17004,1.65997-2.67999l12-6c.82605-.4231,1.85333-.42346,2.68005,0ZM47.53027,13.72998c.41895-.3584,1.05078-.31055,1.40918.11084.37793.44141.77637.83984,1.21973,1.21875.41992.35889.46973.98975.11127,1.40973-.19623.22906-.47772.34753-.76062.34814-.23065.00049-.46222-.07733-.64948-.23737-.52344-.44727-.99512-.91846-1.44043-1.44043-.35938-.41943-.30957-1.05078.11035-1.40967Z" fill="#000" stroke-width="0"/>
  <path d="M44.44727,26.10547c-.28125-.14062-.61328-.14062-.89453,0l-11.55273,5.77637,12,6,12-6-11.55273-5.77637Z" fill="#000" stroke-width="0"/>
  <path d="M31,38.38184l6.44727,3.22363c.49408.24701.69427.84753.44733,1.34161-.24323.48676-.85767.68951-1.34186.44745l-5.55273-2.77637v2.38184c0,.37891.21387.7251.55273.89453l11.44727,5.72363v-10l-12-6v4.76367Z" fill="#000" stroke-width="0"/>
  <path d="M50.55273,41.60547l6.44727-3.22363v-4.76367l-12,6v10l11.44727-5.72363c.33887-.16943.55273-.51562.55273-.89453v-2.38184s-5.55273,2.77637-5.5528,2.77637c-.48914.24457-1.09698.04218-1.34174-.44727-.24707-.49414-.04688-1.09473.44727-1.3418Z" fill="#000" stroke-width="0"/>
</svg>