<?xml version="1.0" encoding="UTF-8"?>
<svg id="Glyph" xmlns="http://www.w3.org/2000/svg" version="1.1" viewBox="0 0 48 48">
  <path d="M8.48119,31.82001V12c0-2.76001,2.24123-5,5.00277-5h20.83152c-.41026-1.16003-1.52086-2-2.82157-2H9.48175c-1.65094,0-3.00166,1.34998-3.00166,3v21c0,1.29999.84049,2.40997,2.00111,2.82001Z" fill="#000" stroke-width="0"/>
  <circle cx="17.48617" cy="31" r="6.00332" fill="#000" stroke-width="0"/>
  <path d="M10.4823,34.85999l-.4102-.87-3.18181,2.47998c-1.72129,1.3266-1.8554,3.92334-.34015,5.46002,1.51921,1.54071,4.13827,1.3576,5.46304-.34003.00079-.00104,2.02108-2.58997,2.02108-2.58997l.46028-.59003c-1.71097-.67999-3.13174-1.95001-4.01223-3.54999Z" fill="#000" stroke-width="0"/>
  <path d="M40.49889,13.18524v19.81476h2.00111v-17c0-1.29797-.8408-2.39923-2.00111-2.81476Z" fill="#000" stroke-width="0"/>
  <polygon points="34.49558 42.41998 41.91966 35 34.49558 35 34.49558 42.41998" fill="#000" stroke-width="0"/>
  <path d="M18.48673,43h14.00774v-2H15.67108c.40971,1.1593,1.51518,2,2.81564,2Z" fill="#000" stroke-width="0"/>
  <path d="M38.49779,12c0-1.65002-1.35072-3-3.00166-3H13.48396c-1.65094,0-3.00166,1.34998-3.00166,3v15.14001c1.36074-2.47003,3.9922-4.14001,7.00387-4.14001,2.02114,0,3.86212.76001,5.27293,2h10.73592c.55029,0,1.00055.45001,1.00055,1s-.45026,1-1.00055,1h-9.08504c.36025.62.63035,1.28998.82046,2h8.26458c.55029,0,1.00055.45001,1.00055,1s-.45026,1-1.00055,1h-8.00442c0,.69-.10003,1.35999-.26015,2h4.26237c.55029,0,1.00055.45001,1.00055,1s-.45026,1-1.00055,1h-5.08283c-1.39072,2.39001-3.97217,4-6.92381,4h15.0083v-5c0-.54999.45026-1,1.00055-1h5.00277V12ZM33.49502,21h-17.0094c-.55029,0-1.00055-.45001-1.00055-1s.45026-1,1.00055-1h17.0094c.55029,0,1.00055.45001,1.00055,1s-.45026,1-1.00055,1ZM33.49502,17h-17.0094c-.55029,0-1.00055-.45001-1.00055-1s.45026-1,1.00055-1h17.0094c.55029,0,1.00055.45001,1.00055,1s-.45026,1-1.00055,1ZM33.49502,13h-17.0094c-.55029,0-1.00055-.45001-1.00055-1s.45026-1,1.00055-1h17.0094c.55029,0,1.00055.45001,1.00055,1s-.45026,1-1.00055,1Z" fill="#000" stroke-width="0"/>
</svg>