<?xml version="1.0" encoding="UTF-8"?>
<svg xmlns="http://www.w3.org/2000/svg" version="1.1" viewBox="0 0 48 48">
  <!-- Generator: Adobe Illustrator 28.7.1, SVG Export Plug-In . SVG Version: 1.2.0 Build 142)  -->
  <g>
    <g id="Glyph">
      <g>
        <path d="M29.59003,19.00003c-1.54004,1.22998-3.48004,1.96002-5.59003,1.96002s-4.04999-.73004-5.59003-1.96002l-6.32996,13.89001c-.11005.22998-.11005.5,0,.72998.09998.23004.29999.41003.54999.48999,3.66998,1.19,7.52002,1.79004,11.37,1.79004s7.70001-.60004,11.37-1.79004c.25-.07996.45001-.25995.54999-.48999.11005-.22998.11005-.5,0-.72998l-6.32996-13.89001Z"/>
        <path d="M16,39.96005c0,1.64996,1.34998,3,3,3s3-1.35004,3-3v-2.12c-2.03003-.10004-4.03003-.36005-6-.78003v2.90002Z"/>
        <path d="M26,39.96005c0,1.64996,1.34998,3,3,3s3-1.35004,3-3v-2.90002c-1.96997.41998-3.96997.67999-6,.78003v2.12Z"/>
        <path d="M16.23999,18.95004l-1.94-1.94c-1.14996-1.15002-3.09998-1.15002-4.25,0-1.15997,1.16998-1.15997,3.07001,0,4.25l3.53003,3.52997,2.65997-5.83997Z"/>
        <path d="M37.95001,17.01004c-1.15002-1.15002-3.10004-1.15002-4.25,0l-1.94,1.94,2.65997,5.83002,3.53003-3.53003c1.15997-1.16998,1.15997-3.07001,0-4.23999Z"/>
        <path d="M23,8.03427v-2.99432c-3.38647.48785-6,3.40076-6,6.9201h2.07422c2.16455,0,3.92578-1.76123,3.92578-3.92578Z"/>
        <path d="M28.92578,11.96005h2.07422c0-3.51935-2.61353-6.43225-6-6.9201v2.99432c0,2.16455,1.76123,3.92578,3.92578,3.92578Z"/>
        <path d="M17.2948,13.96005c.8631,2.8877,3.54065,5,6.7052,5s5.8421-2.1123,6.7052-5h-1.77942c-2.05145,0-3.86169-1.0484-4.92578-2.63684-1.06409,1.58844-2.87433,2.63684-4.92578,2.63684h-1.77942Z"/>
        <path d="M12,14.96005h3.52002c-.34003-.94-.52002-1.95001-.52002-3,0-1.77002.52002-3.42999,1.40997-4.82001-1.26996.28998-2.42999.92999-3.34998,1.87-1.33002,1.31-2.06,3.07001-2.06,4.95001,0,.54999.45001,1,1,1Z"/>
        <path d="M32.47998,14.96005h3.52002c.54999,0,1-.45001,1-1,0-1.88-.72998-3.64001-2.04999-4.94-.92999-.95001-2.09003-1.59003-3.35999-1.88.88995,1.39001,1.40997,3.04999,1.40997,4.82001,0,1.04999-.17999,2.06-.52002,3Z"/>
      </g>
    </g>
  </g>
</svg>