<?xml version="1.0" encoding="UTF-8"?>
<svg xmlns="http://www.w3.org/2000/svg" version="1.1" viewBox="0 0 64 64">
  <!-- Generator: Adobe Illustrator 28.7.1, SVG Export Plug-In . SVG Version: 1.2.0 Build 142)  -->
  <g>
    <g id="Glyph">
      <g>
        <path d="M19,56c0,.54999.45001,1,1,1h4c.54999,0,1-.45001,1-1V24h-6v32Z"/>
        <path d="M39,56c0,.54999.45001,1,1,1h4c.54999,0,1-.45001,1-1V24h-6v32Z"/>
        <rect x="27" y="41" width="10" height="6" rx="1" ry="1"/>
        <path d="M29,56c0,.54999.45001,1,1,1h4c.54999,0,1-.45001,1-1v-7h-6v7Z"/>
        <path d="M55.5,10c-.82843,0-1.5.67157-1.5,1.5v15c0,.82843.67157,1.5,1.5,1.5s1.5-.67157,1.5-1.5v-15c0-.82843-.67157-1.5-1.5-1.5Z"/>
        <path d="M50.5,7c-.82843,0-1.5.67157-1.5,1.5v21c0,.82843.67157,1.5,1.5,1.5s1.5-.67157,1.5-1.5V8.5c0-.82843-.67157-1.5-1.5-1.5Z"/>
        <path d="M8.5,10c-.82843,0-1.5.67157-1.5,1.5v15c0,.82843.67157,1.5,1.5,1.5s1.5-.67157,1.5-1.5v-15c0-.82843-.67157-1.5-1.5-1.5Z"/>
        <path d="M13.5,7c-.82843,0-1.5.67157-1.5,1.5v21c0,.82843.67157,1.5,1.5,1.5s1.5-.67157,1.5-1.5V8.5c0-.82843-.67157-1.5-1.5-1.5Z"/>
        <rect x="17" y="16" width="30" height="6"/>
      </g>
    </g>
  </g>
</svg>