<?xml version="1.0" encoding="UTF-8"?>
<svg id="Glyph" xmlns="http://www.w3.org/2000/svg" version="1.1" viewBox="0 0 64 64">
  <circle cx="8.3331" cy="55.16663" r="1" style="fill: #000; stroke-width: 0px;"/>
  <path d="M18.88712,50.64014c-.38281-.39795-1.01465-.41064-1.41406-.02734l-4.33301,4.1665c-.39746.38281-.41016,1.01562-.02734,1.41406.19629.2041.45801.30664.7207.30664.24902,0,.49902-.09277.69336-.2793l4.33301-4.1665c.39746-.38281.41016-1.01562.02734-1.41406Z" style="fill: #000; stroke-width: 0px;"/>
  <path d="M8.52677,50.2207l4.33301-4.1665c.39746-.38281.41016-1.01562.02734-1.41406-.38281-.39795-1.01465-.41113-1.41406-.02734l-4.33301,4.1665c-.39746.38281-.41016,1.01562-.02734,1.41406.19629.2041.45801.30664.7207.30664.24902,0,.49902-.09277.69336-.2793Z" style="fill: #000; stroke-width: 0px;"/>
  <path d="M7.83341,44.5c.24902,0,.49902-.09277.69336-.2793l4.33301-4.1665c.39746-.38281.41016-1.01562.02734-1.41406-.38281-.39795-1.01465-.41016-1.41406-.02734l-4.33301,4.1665c-.39746.38281-.41016,1.01562-.02734,1.41406.19629.2041.45801.30664.7207.30664Z" style="fill: #000; stroke-width: 0px;"/>
  <path d="M23.47306,50.61279l-4.33301,4.1665c-.39746.38281-.41016,1.01562-.02734,1.41406.19629.2041.45801.30664.7207.30664.24902,0,.49902-.09277.69336-.2793l4.33301-4.1665c.39746-.38281.41016-1.01562.02734-1.41406-.38281-.39795-1.01465-.41064-1.41406-.02734Z" style="fill: #000; stroke-width: 0px;"/>
  <path d="M51.1088,14.3634c-.771.66125-1.48334,1.37628-2.13702,2.1366h.19464c.55273,0,1,.44775,1,1s-.44727,1-1,1h-1.70557c-.43024.65167-.82013,1.32764-1.17023,2.02509.49121.06372.87579.46674.87579.97491,0,.55225-.44727,1-1,1h-.73724c-.24353.65411-.46075,1.31952-.63513,2h.37238c.55273,0,1,.44775,1,1s-.44727,1-1,1h-.76788c-.09882.65924-.16766,1.32581-.20081,2h.96869c.55273,0,1,.44775,1,1s-.44727,1-1,1h-.96869c.03314.67419.10199,1.34076.20081,2h.76788c.55273,0,1,.44775,1,1s-.44727,1-1,1h-.37238c.17438.68048.3916,1.34589.63513,2h.73724c.55273,0,1,.44775,1,1,0,.50818-.38458.91119-.87579.97491.3501.69745.73999,1.37341,1.17023,2.02509h1.70557c.55273,0,1,.44775,1,1s-.44727,1-1,1h-.19464c.65369.76031,1.36603,1.47534,2.13702,2.1366,3.74945-3.94708,6.05762-9.2757,6.05762-15.1366s-2.30817-11.18951-6.05762-15.1366Z" style="fill: #000; stroke-width: 0px;"/>
  <path d="M21.36106,42.5h-.19464c-.55273,0-1-.44775-1-1s.44727-1,1-1h1.70557c.43024-.65167.82013-1.32764,1.17023-2.02509-.49121-.06372-.87579-.46674-.87579-.97491,0-.55225.44727-1,1-1h.73724c.24353-.65411.46082-1.31952.63519-2h-.37244c-.55273,0-1-.44775-1-1s.44727-1,1-1h.76788c.09882-.65924.16766-1.32581.20081-2h-.96869c-.55273,0-1-.44775-1-1s.44727-1,1-1h.96869c-.03314-.67419-.10199-1.34076-.20081-2h-.76788c-.55273,0-1-.44775-1-1s.44727-1,1-1h.37244c-.17438-.68048-.39166-1.34589-.63519-2h-.73724c-.55273,0-1-.44775-1-1,0-.50818.38458-.91119.87579-.97491-.3501-.69745-.73999-1.37341-1.17023-2.02509h-1.70557c-.55273,0-1-.44775-1-1s.44727-1,1-1h.19464c-.65369-.76031-1.36603-1.47534-2.13702-2.1366-3.74945,3.94708-6.05762,9.2757-6.05762,15.1366s2.30817,11.18951,6.05762,15.1366c.771-.66125,1.48334-1.37628,2.13702-2.1366Z" style="fill: #000; stroke-width: 0px;"/>
  <path d="M46.41166,42.5h-1.24524c-.55273,0-1-.44775-1-1,0-.53455.42194-.96252.95013-.98993-.37726-.65192-.72162-1.3219-1.0296-2.01007h-1.92053c-.55273,0-1-.44775-1-1s.44727-1,1-1h1.13763c-.21869-.65491-.40216-1.32294-.5589-2h-1.57874c-.55273,0-1-.44775-1-1s.44727-1,1-1h1.20782c-.0896-.65967-.14636-1.32703-.17645-2h-1.03137c-.55273,0-1-.44775-1-1s.44727-1,1-1h1.03137c.03009-.67297.08685-1.34033.17645-2h-1.20782c-.55273,0-1-.44775-1-1s.44727-1,1-1h1.57874c.15674-.67706.34021-1.34509.5589-2h-1.13763c-.55273,0-1-.44775-1-1s.44727-1,1-1h1.92053c.30798-.68817.65234-1.35815,1.0296-2.01007-.5282-.0274-.95013-.45538-.95013-.98993,0-.55225.44727-1,1-1h1.24524c.94269-1.2829,2.03333-2.46368,3.25195-3.52704-3.87463-3.40295-8.94727-5.47296-14.49719-5.47296s-10.62256,2.07001-14.49719,5.47296c1.21863,1.06335,2.30927,2.24414,3.25195,3.52704h1.24524c.55273,0,1,.44775,1,1,0,.53455-.42194.96252-.95013.98993.37726.65192.72162,1.3219,1.0296,2.01007h1.92053c.55273,0,1,.44775,1,1s-.44727,1-1,1h-1.13763c.21869.65491.40216,1.32294.5589,2h1.57874c.55273,0,1,.44775,1,1s-.44727,1-1,1h-1.20782c.0896.65967.14636,1.32703.17645,2h1.03137c.55273,0,1,.44775,1,1s-.44727,1-1,1h-1.03137c-.03009.67297-.08685,1.34033-.17645,2h1.20782c.55273,0,1,.44775,1,1s-.44727,1-1,1h-1.57874c-.15674.67706-.34021,1.34509-.5589,2h1.13763c.55273,0,1,.44775,1,1s-.44727,1-1,1h-1.92053c-.30798.68817-.65234,1.35815-1.0296,2.01007.5282.0274.95013.45538.95013.98993,0,.55225-.44727,1-1,1h-1.24524c-.94269,1.2829-2.03333,2.46368-3.25195,3.52704,3.87463,3.40295,8.94727,5.47296,14.49719,5.47296s10.62256-2.07001,14.49719-5.47296c-1.21863-1.06335-2.30927-2.24414-3.25195-3.52704Z" style="fill: #000; stroke-width: 0px;"/>
  <path d="M17.37345,46.29297c-.39062-.39062-1.02344-.39062-1.41406,0l-5.5,5.5c-.39062.39062-.39062,1.02344,0,1.41406.19531.19531.45117.29297.70703.29297s.51172-.09766.70703-.29297l5.5-5.5c.39062-.39062.39062-1.02344,0-1.41406Z" style="fill: #000; stroke-width: 0px;"/>
</svg>