<?xml version="1.0" encoding="utf-8"?>
<!-- Generator: Adobe Illustrator 27.3.1, SVG Export Plug-In . SVG Version: 6.00 Build 0)  -->
<svg version="1.1" id="Glyph" xmlns="http://www.w3.org/2000/svg" xmlns:xlink="http://www.w3.org/1999/xlink" x="0px" y="0px"
	 viewBox="0 0 64 64" enable-background="new 0 0 64 64" xml:space="preserve">
<g>
	<path d="M31.57001,30H9c-1.09998,0-2,0.89996-2,2c0,0.54999,0.21997,1.04999,0.59003,1.40997C7.95001,33.77997,8.45001,34,9,34
		h21.34998C30.40997,32.51996,30.94,31.14996,31.57001,30z"/>
	<path d="M55,30H40.42999c0.63,1.14996,1.16003,2.51996,1.22003,4H55c1.09998,0,2-0.90002,2-2C57,30.89996,56.09998,30,55,30z"/>
	<path d="M37.90002,43.98999c-2.18005-0.22003-3.85004-0.59003-5.47003-0.95001c-1.94-0.44-3.77002-0.84998-6.5-1.03998
		c-4.64996-0.34003-9.38,0.16998-14.07001,1.48999l1.46002,6.59998c0.5,2.23004,2.40997,3.81,4.67999,3.90002V51
		c0-1.65002,1.34998-3,3-3h3c1.65002,0,3,1.34998,3,3v3h10v-3c0-1.65002,1.34998-3,3-3h3c1.65002,0,3,1.34998,3,3v2.98999
		c2.27002-0.09003,4.17999-1.66998,4.67999-3.90002L52.33002,42.62c-3.69,1.02997-7.32001,1.54999-10.85004,1.54999
		C40.27002,44.16998,39.08002,44.10999,37.90002,43.98999z"/>
	<path d="M36,40c-2.53998,0-4.71002-1.69-5.41998-4h-20.38l1.22998,5.53998c4.88-1.35999,9.79999-1.88,14.64001-1.53998
		c2.88,0.20996,4.87,0.64996,6.79999,1.08997C34.5,41.45001,36.04999,41.79999,38.09998,42
		C42.81,42.48999,47.75,41.92999,52.83002,40.39001L53.79999,36h-12.38C40.71002,38.31,38.53998,40,36,40z"/>
	<path d="M24,50h-3c-0.55225,0-1,0.44775-1,1v3.5c0,1.37842,1.12158,2.5,2.5,2.5s2.5-1.12158,2.5-2.5V51
		C25,50.44775,24.55225,50,24,50z"/>
	<path d="M43,50h-3c-0.55273,0-1,0.44775-1,1v3.5c0,1.37842,1.12109,2.5,2.5,2.5s2.5-1.12158,2.5-2.5V51
		C44,50.44775,43.55273,50,43,50z"/>
	<path d="M35,26v-2h-6v2c0,0.55225,0.44775,1,1,1h4C34.55273,27,35,26.55225,35,26z"/>
	<path d="M8,25c0.54999,0,1-0.45001,1-1v-3h6.09998C15.56,23.27997,17.59003,25,20,25s4.44-1.72003,4.90002-4H29v1h6v-1
		c0-3.31-2.69-6-6-6h-4.09998C24.5,13.03998,22.95001,11.51001,21,11.10999V9h5c0.54999,0,1-0.45001,1-1s-0.45001-1-1-1H14
		c-0.54999,0-1,0.45001-1,1s0.45001,1,1,1h5v2.10999C17.04999,11.51001,15.5,13.03998,15.09998,15H9v-2c0-0.54999-0.45001-1-1-1
		s-1,0.45001-1,1v11C7,24.54999,7.45001,25,8,25z"/>
	<path d="M40,28c1.6543,0,3-1.3457,3-3c0-2.34668-2.05859-4.47266-2.29297-4.70703c-0.39062-0.39062-1.02344-0.39062-1.41406,0
		C39.05859,20.52734,37,22.65332,37,25C37,26.6543,38.3457,28,40,28z"/>
	<path d="M36,38c2.02246,0,3.66699-1.64502,3.66699-3.6665c0-3.04639-2.83887-5.91992-2.95996-6.04053
		c-0.39062-0.39062-1.02344-0.39062-1.41406,0c-0.12109,0.12061-2.95996,2.99414-2.95996,6.04053
		C32.33301,36.35498,33.97754,38,36,38z"/>
</g>
</svg>
