<?xml version="1.0" encoding="UTF-8"?>
<svg id="Glyph" xmlns="http://www.w3.org/2000/svg" version="1.1" viewBox="0 0 48 48">
  <path d="M42,41h-24v-1c0-1.6543-1.3457-3-3-3h-1V14c0-2.75684,2.24316-5,5-5v4h-2c-.55273,0-1,.44727-1,1s.44727,1,1,1h6v1.09021c-2.83411.47791-5,2.94122-5,5.90979,0,.54999-.45001,1-1,1s-1,.45001-1,1v4c0,.54999.45001,1,1,1h14c.54999,0,1-.45001,1-1v-4c0-.54999-.45001-1-1-1s-1-.45001-1-1c0-2.96857-2.16589-5.43188-5-5.90979v-1.09021h6c.55273,0,1-.44727,1-1s-.44727-1-1-1h-2v-4h1.18433c.41412,1.1615,1.51373,2,2.81567,2,1.6543,0,3-1.3457,3-3s-1.3457-3-3-3c-1.30194,0-2.40161.8385-2.81573,2h-11.18427c-3.85938,0-7,3.14062-7,7v23h-1c-1.6543,0-3,1.3457-3,3v1h-2c-.55273,0-1,.44727-1,1s.44727,1,1,1h36c.55273,0,1-.44727,1-1s-.44727-1-1-1ZM21,9h6v4h-6v-4Z" fill="#000" stroke-width="0"/>
  <path d="M24,34c2.04999,0,3.81-1.23999,4.59003-3h-9.18005c.78003,1.76001,2.54004,3,4.59003,3Z" fill="#000" stroke-width="0"/>
</svg>