<?xml version="1.0" encoding="UTF-8"?>
<svg xmlns="http://www.w3.org/2000/svg" version="1.1" viewBox="0 0 64 64">
  <!-- Generator: Adobe Illustrator 28.7.1, SVG Export Plug-In . SVG Version: 1.2.0 Build 142)  -->
  <g>
    <g id="Glyph">
      <g>
        <rect x="43" y="28" width="6" height="16"/>
        <path d="M9,14c-1.09998,0-2,.89996-2,2v14c0,1.09998.90002,2,2,2s2-.90002,2-2v-14c0-1.10004-.90002-2-2-2Z"/>
        <rect x="13" y="20" width="38" height="6"/>
        <rect x="15" y="28" width="6" height="16"/>
        <path d="M55,14c-1.09998,0-2,.89996-2,2v14c0,1.09998.90002,2,2,2s2-.90002,2-2v-14c0-1.10004-.90002-2-2-2Z"/>
        <path d="M41,49c0,.55273.44775,1,1,1h8c.55225,0,1-.44727,1-1v-3h-10v3Z"/>
        <path d="M13,49c0,.55273.44775,1,1,1h8c.55225,0,1-.44727,1-1v-3h-10v3Z"/>
        <path d="M41,37c0-1.65002-1.34998-3-3-3h-12c-1.65002,0-3,1.34998-3,3v1h18v-1Z"/>
        <path d="M28,49c0,.54999.45001,1,1,1h6c.54999,0,1-.45001,1-1v-9h-8v9Z"/>
      </g>
    </g>
  </g>
</svg>