<?xml version="1.0" encoding="UTF-8"?>
<svg xmlns="http://www.w3.org/2000/svg" version="1.1" viewBox="0 0 64 64">
  <!-- Generator: Adobe Illustrator 28.7.1, SVG Export Plug-In . SVG Version: 1.2.0 Build 142)  -->
  <g>
    <g id="Glyph">
      <g>
        <path d="M48,35.50006c-1.6543,0-3,1.3457-3,3s1.3457,3,3,3,3-1.3457,3-3-1.3457-3-3-3ZM48,39.50006c-.55231,0-1-.44775-1-1,0-.55231.44769-1,1-1s1,.44769,1,1c0,.55225-.44769,1-1,1Z"/>
        <path d="M48,29.50006c-1.12579,0-2.19952.21692-3.19379.59613l-3.80621-6.85461v-3.96027l3.24268-.81152c.53564-.13379.86133-.67676.72754-1.21191-.13379-.53613-.67627-.8623-1.21289-.72754l-4,1c-.44483.11133-.75732.51074-.75732.96973v4h-11v-2h1c.55225,0,1-.44727,1-1s-.44775-1-1-1h-4c-.55225,0-1,.44727-1,1s.44775,1,1,1h1v2.61993l-6.36084,7.15564c-1.11407-.495-2.34357-.77557-3.63916-.77557-4.9624,0-9,4.03711-9,9s4.0376,9,9,9c4.62408,0,8.44153-3.50653,8.94104-8h4.23706c.30334.84424.97449,1.51355,1.8219,1.81567v2.18433c-.55225,0-1,.44727-1,1s.44775,1,1,1h2c.55225,0,1-.44727,1-1s-.44775-1-1-1v-2.18427c1.1615-.41412,2-1.51379,2-2.81573,0-.7774-.30469-1.47998-.79144-2.01349l5.80933-10.89471,3.0069,5.41492c-2.42334,1.61432-4.02478,4.36926-4.02478,7.49329,0,4.96289,4.0376,9,9,9s9-4.03711,9-9-4.0376-9-9-9ZM16,43.50006c-2.75684,0-5-2.24316-5-5s2.24316-5,5-5,5,2.24316,5,5-2.24316,5-5,5ZM29.18427,37.50006h-4.24323c-.28082-2.52643-1.61444-4.73352-3.54767-6.18781l5.20477-5.8551,3.56329,10.68988c-.44366.34753-.78442.81238-.97717,1.35303ZM32.44403,35.54492c-.12762-.01917-.25568-.03668-.38794-.03918l-3.66888-11.00568h9.94623l-5.8894,11.04486ZM48,43.50006c-2.75684,0-5-2.24316-5-5s2.24316-5,5-5,5,2.24316,5,5-2.24316,5-5,5Z"/>
        <path d="M16,35.50006c-1.6543,0-3,1.3457-3,3s1.3457,3,3,3,3-1.3457,3-3-1.3457-3-3-3ZM16,39.50006c-.55231,0-1-.44775-1-1,0-.55231.44769-1,1-1s1,.44769,1,1c0,.55225-.44769,1-1,1Z"/>
      </g>
    </g>
  </g>
</svg>