<?xml version="1.0" encoding="UTF-8"?>
<svg id="Glyph" xmlns="http://www.w3.org/2000/svg" version="1.1" viewBox="0 0 64 64">
  <rect x="16" y="47" width="11" height="4" style="fill: #000; stroke-width: 0px;"/>
  <path d="M46,42h-28c-1.10455,0-2,.89539-2,2v1h12c.54999,0,1,.45001,1,1v6c0,.54999-.45001,1-1,1h-12v1c0,1.09998.90002,2,2,2h28c1.09998,0,2-.90002,2-2v-10c0-1.10461-.89545-2-2-2Z" style="fill: #000; stroke-width: 0px;"/>
  <path d="M42,8h-16c-2.40002,0-4.57001,1.42999-5.52002,3.64001-.63995,1.5-.63995,3.21997,0,4.71997l3.40002,6.15997c.26001.48004.08997,1.09003-.40002,1.36005-.47998.26001-1.08997.08997-1.35999-.40002l-3.42999-6.23999c-.85999-2-.90002-4.17999-.15002-6.12-.5-.10004-1-.14001-1.51996-.10999-3.16003.19-5.64001,2.90997-5.64001,6.20996,0,7.90002,2.32001,15.56,6.71002,22.14001l.42999.64001h27.29999l5.42999-19.90002c.21997-.82001.33002-1.66998.33002-2.52002,0-5.27997-4.29999-9.57996-9.58002-9.57996ZM26,12c-.79999,0-1.52002.47998-1.84003,1.20996-.20991.49987-.20996,1.07972-.00016,1.57964.49318,1.17515-1.3117,1.97091-1.83981.79036-.42999-1.00995-.42999-2.14996,0-3.15997.63-1.46997,2.08002-2.41998,3.67999-2.41998.54999,0,1,.45001,1,1s-.45001,1-1,1Z" style="fill: #000; stroke-width: 0px;"/>
</svg>