<?xml version="1.0" encoding="UTF-8"?>
<svg xmlns="http://www.w3.org/2000/svg" version="1.1" viewBox="0 0 48 48">
  <!-- Generator: Adobe Illustrator 28.7.1, SVG Export Plug-In . SVG Version: 1.2.0 Build 142)  -->
  <g>
    <g id="Glyph">
      <g>
        <path d="M40,30.97524h-1c-.19727,0-.39062.05034-.55469.14428l-2.44531,1.39992-1.88965-1.08121c-.6748-.38752-1.54688-.38752-2.21973-.0008l-1.89062,1.082-1.88965-1.08121c-.67383-.38752-1.5459-.38752-2.21973-.0008l-1.89062,1.082-1.88965-1.08121c-.67383-.38752-1.5459-.38752-2.21973-.0008l-1.89062,1.082-1.88965-1.08121c-.6748-.38752-1.54688-.38752-2.21973-.0008l-1.89062,1.082-2.44531-1.39992c-.16406-.09394-.35742-.14428-.55469-.14428h-1c-1.6543,0-3,1.15582-3,2.57672v4.11669l2.6543-2.3643c.03418-.03131.07031-.05969.10938-.08514.78906-.52745,1.84961-.42177,2.52246.24954l1.71387,1.7174,1.58594-1.58921c.7793-.7809,2.04785-.77993,2.82715-.00098l1.58691,1.59019,1.58594-1.58921c.7793-.7809,2.04785-.77993,2.82715-.00098l1.58691,1.59019,1.58594-1.58921c.7793-.7809,2.04785-.77993,2.82715-.00098l1.58691,1.59019,1.58594-1.58921c.7793-.7809,2.04785-.77993,2.82715-.00098l1.58691,1.59019,1.71289-1.71642c.67578-.67424,1.73633-.77797,2.52344-.25052.03125.02153.06152.04404.09082.0685l2.67285,2.26088v-3.99663c0-1.42089-1.3457-2.57672-3-2.57672Z"/>
        <path d="M37.41406,38.60313c-.7793.7809-2.04883.7809-2.82812,0l-1.58594-1.58921-1.58594,1.58921c-.7793.7809-2.04883.7809-2.82812,0l-1.58594-1.58921-1.58594,1.58921c-.7793.7809-2.04883.7809-2.82812,0l-1.58594-1.58921-1.58594,1.58921c-.7793.7809-2.04883.7809-2.82812,0l-1.58594-1.58921-1.58594,1.58921c-.7793.7809-2.04883.7809-2.82812,0l-1.70605-1.70957-3.87988,3.4556v.07413c0,1.42089,1.3457,2.57672,3,2.57672h32c1.6543,0,3-1.15582,3-2.57672v-.25223l-3.87793-3.28044-1.70801,1.71251Z"/>
        <polygon points="17.38 22.03508 16.38 24.0392 31.62 24.0392 30.62 22.03508 17.38 22.03508"/>
        <path d="M17.5,20.03095h13c.82843,0,1.5-.67296,1.5-1.5031s-.67157-1.5031-1.5-1.5031h-13c-.82843,0-1.5.67296-1.5,1.5031s.67157,1.5031,1.5,1.5031Z"/>
        <path d="M17.09998,29.70083l.90002.51106s.89984-.511.90002-.51106c1.30353-.74017,2.90485-.73558,4.20996,0l.89001.51106s.89984-.511.90002-.51106c1.30377-.74036,2.90479-.73565,4.20996,0l.89001.51106.90002-.51106c.63-.36073,1.35999-.56115,2.09998-.56115.34003,0,.67999.04012,1,.13027v-1.22249c0-1.10689-.89545-2.00413-2-2.00413h-16c-1.10455,0-2,.89723-2,2.00413v1.22249c.32001-.09015.65997-.13027,1-.13027.73999,0,1.46997.20042,2.09998.56115Z"/>
        <path d="M27,11.01238c0-1.30065-.84033-2.40418-2-2.82057v-2.18975c0-.55387-.44727-1.00206-1-1.00206s-1,.44819-1,1.00206v2.18975c-1.15967.41638-2,1.51991-2,2.82057v4.00825h6v-4.00825Z"/>
      </g>
    </g>
  </g>
</svg>