<?xml version="1.0" encoding="UTF-8"?>
<svg id="Glyph" xmlns="http://www.w3.org/2000/svg" version="1.1" viewBox="0 0 64 64">
  <path d="M57,54c0,.54999-.45001,1-1,1H8c-.54999,0-1-.45001-1-1s.45001-1,1-1h1v-3c0-.54999.45001-1,1-1h2v-25.10004c-2.28003-.46997-4-2.48999-4-4.89996,0-2.76001,2.23999-5,5-5s5,2.23999,5,5c0,2.40997-1.71997,4.42999-4,4.89996v25.10004h2c.54999,0,1,.45001,1,1v3h12.19c-.12-.31-.19-.65002-.19-1v-1h8v1c0,.34998-.07001.69-.19,1h8.38c-.12-.31-.19-.65002-.19-1v-1h8v1c0,.34998-.07001.69-.19,1h3.19c.54999,0,1,.45001,1,1Z" style="fill: #000; stroke-width: 0px;"/>
  <polygon points="33.2793 39 25 39 25 43 34.61279 43 33.2793 39" style="fill: #000; stroke-width: 0px;"/>
  <path d="M31,29.58105l3.50684,1.2749c4.18701,1.52246,8.79932,1.52393,12.98633,0l3.50684-1.2749v-11.58105h-20v11.58105Z" style="fill: #000; stroke-width: 0px;"/>
  <polygon points="47.38721 43 57 43 57 39 48.7207 39 47.38721 43" style="fill: #000; stroke-width: 0px;"/>
  <path d="M54,9h-26c-1.6543,0-3,1.3457-3,3v25h9c.43066,0,.8125.27539.94873.68359l2,6c.10156.30469.05029.64062-.1377.90137s-.48975.41504-.81104.41504h-11v1c0,1.6543,1.3457,3,3,3h26c1.6543,0,3-1.3457,3-3v-1h-11c-.32129,0-.62305-.1543-.81104-.41504s-.23926-.59668-.1377-.90137l2-6c.13623-.4082.51807-.68359.94873-.68359h9V12c0-1.6543-1.3457-3-3-3ZM34,12h14c.55225,0,1,.44775,1,1s-.44775,1-1,1h-14c-.55225,0-1-.44775-1-1s.44775-1,1-1ZM30,12c.55231,0,1,.44769,1,1,0,.55225-.44769,1-1,1s-1-.44775-1-1c0-.55231.44769-1,1-1ZM43,43h-4c-.55225,0-1-.44727-1-1s.44775-1,1-1h4c.55225,0,1,.44727,1,1s-.44775,1-1,1ZM43,39h-4c-.55225,0-1-.44727-1-1s.44775-1,1-1h4c.55225,0,1,.44727,1,1s-.44775,1-1,1ZM53,30.28125c0,.42041-.26318.7959-.6582.93994l-4.16504,1.51465c-2.31396.84131-4.74561,1.26221-7.17676,1.26221s-4.86279-.4209-7.17676-1.26221l-4.16504-1.51465c-.39502-.14404-.6582-.51953-.6582-.93994v-13.28125c0-.55225.44775-1,1-1h22c.55225,0,1,.44775,1,1v13.28125ZM52,14c-.55231,0-1-.44775-1-1,0-.55231.44769-1,1-1s1,.44769,1,1c0,.55225-.44769,1-1,1Z" style="fill: #000; stroke-width: 0px;"/>
</svg>