<?xml version="1.0" encoding="UTF-8"?>
<svg id="Glyph" xmlns="http://www.w3.org/2000/svg" version="1.1" viewBox="0 0 64 64">
  <path d="M56,53h-12.18524c.11273-.31451.18524-.64801.18524-1v-1h-8v1c0,.35199.07251.68549.18524,1h-8.37048c.11273-.31451.18524-.64801.18524-1v-1h-8v1c0,.35199.07251.68549.18524,1h-12.18524c-.55225,0-1,.44775-1,1s.44775,1,1,1h48c.55225,0,1-.44775,1-1s-.44775-1-1-1Z" style="fill: #000; stroke-width: 0px;"/>
  <polygon points="16 39 16 43 24.61279 43 23.2793 39 16 39" style="fill: #000; stroke-width: 0px;"/>
  <path d="M38.49316,30.85596l3.50684-1.2749v-11.58105h-20v11.58105l3.50684,1.2749c4.18701,1.52246,8.79932,1.52344,12.98633,0Z" style="fill: #000; stroke-width: 0px;"/>
  <polygon points="48 43 48 39 40.7207 39 39.38721 43 48 43" style="fill: #000; stroke-width: 0px;"/>
  <path d="M55,17h-7v-5c0-1.65002-1.34998-3-3-3h-26c-1.65002,0-3,1.34998-3,3v5h-7c-.54999,0-1,.45001-1,1v8c0,.54999.45001,1,1,1h4c.54999,0,1-.45001,1-1v-7h2v18h8c.42999,0,.81.27997.95001.67999l2,6c.09998.31.04999.64001-.14001.89996-.19.27002-.48999.42004-.81.42004h-10v1c0,1.64996,1.34998,3,3,3h26c1.65002,0,3-1.35004,3-3v-1h-10c-.32001,0-.62-.15002-.81-.42004-.19-.25995-.23999-.58997-.14001-.89996l2-6c.14001-.40002.52002-.67999.95001-.67999h8v-18h2v7c0,.54999.45001,1,1,1h4c.54999,0,1-.45001,1-1v-8c0-.54999-.45001-1-1-1ZM25,12h14c.54999,0,1,.45001,1,1s-.45001,1-1,1h-14c-.54999,0-1-.45001-1-1s.45001-1,1-1ZM21,12c.54999,0,1,.45001,1,1s-.45001,1-1,1-1-.45001-1-1,.45001-1,1-1ZM34,43h-4c-.54999,0-1-.45001-1-1s.45001-1,1-1h4c.54999,0,1,.45001,1,1s-.45001,1-1,1ZM34,39h-4c-.54999,0-1-.45001-1-1s.45001-1,1-1h4c.54999,0,1,.45001,1,1s-.45001,1-1,1ZM44,30.27997c0,.42004-.26001.79999-.65997.94l-4.16003,1.52002c-2.32001.83997-4.75,1.26001-7.17999,1.26001s-4.85999-.42004-7.17999-1.26001l-4.16003-1.52002c-.39996-.14001-.65997-.51996-.65997-.94v-13.27997c0-.54999.45001-1,1-1h22c.54999,0,1,.45001,1,1v13.27997ZM43,14c-.54999,0-1-.45001-1-1s.45001-1,1-1,1,.45001,1,1-.45001,1-1,1Z" style="fill: #000; stroke-width: 0px;"/>
</svg>