<?xml version="1.0" encoding="UTF-8"?>
<svg xmlns="http://www.w3.org/2000/svg" version="1.1" viewBox="0 0 64 64">
  <!-- Generator: Adobe Illustrator 28.7.1, SVG Export Plug-In . SVG Version: 1.2.0 Build 142)  -->
  <g>
    <g id="Glyph">
      <g>
        <path d="M12,7.27283c-.70679.62927-2.20789,2.04242-3.3847,3.65558l3.3847,3.3847v-7.04028Z"/>
        <path d="M14,7.27283v7.04028l3.3847-3.3847c-1.17682-1.61316-2.67792-3.02631-3.3847-3.65558Z"/>
        <path d="M14,17.14124v3.49561c2.83313-.47833,5-2.94244,5-5.90967,0-.64978-.21368-1.34387-.54596-2.03998l-4.45404,4.45404Z"/>
        <path d="M12,20.63684v-3.49561l-4.45404-4.45404c-.33228.69611-.54596,1.3902-.54596,2.03998,0,2.96722,2.16687,5.43134,5,5.90967Z"/>
        <path d="M15,24.72717v6c0,1.10455.89545,2,2,2h1v-10h-1c-1.10455,0-2,.89539-2,2Z"/>
        <path d="M55,22.72717h-1v10h1c1.10455,0,2-.89545,2-2v-6c0-1.10461-.89545-2-2-2Z"/>
        <circle cx="45" cy="43.72717" r="1"/>
        <rect x="20" y="27.72717" width="15" height="9"/>
        <circle cx="27" cy="43.72717" r="1"/>
        <path d="M20,46.72717c0,1.10455.89545,2,2,2h28c1.10455,0,2-.89545,2-2v-8H20v8ZM45,40.72717c1.6543,0,3,1.3457,3,3s-1.3457,3-3,3-3-1.3457-3-3,1.3457-3,3-3ZM33,42.72717h6c.55273,0,1,.44727,1,1s-.44727,1-1,1h-6c-.55273,0-1-.44727-1-1s.44727-1,1-1ZM27,40.72717c1.6543,0,3,1.3457,3,3s-1.3457,3-3,3-3-1.3457-3-3,1.3457-3,3-3Z"/>
        <path d="M23,52.72717c0,2.20911,1.79083,4,4,4s4-1.79089,4-4v-2h-8v2Z"/>
        <path d="M41,52.72717c0,2.20911,1.79083,4,4,4s4-1.79089,4-4v-2h-8v2Z"/>
        <path d="M50,18.72717h-28c-1.10455,0-2,.89539-2,2v5h32v-5c0-1.10461-.89545-2-2-2Z"/>
        <rect x="37" y="27.72717" width="15" height="9"/>
        <path d="M12.62,53.09717c-.17999.14001-.40002.20996-.62.20996s-.44-.06995-.62-.20996c-.03003-.02002-.16998-.14001-.38-.33002v1.96002h-1c-.55273,0-1,.44727-1,1s.44727,1,1,1h4c.55273,0,1-.44727,1-1s-.44727-1-1-1h-1v-1.96002c-.21002.19-.34998.31-.38.33002Z"/>
        <path d="M12,45.01715c.54999,0,1,.45001,1,1v6.75c1-.89996,3.59003-3.52997,3.59003-6.75,0-3.91998-3.81-6.95001-3.97003-7.08002-.37-.27997-.87-.27997-1.23999,0-.16003.13-3.97003,3.16003-3.97003,7.08002,0,3.22003,2.59003,5.85004,3.59003,6.75v-6.75c0-.54999.45001-1,1-1Z"/>
      </g>
    </g>
  </g>
</svg>