<?xml version="1.0" encoding="UTF-8"?>
<svg xmlns="http://www.w3.org/2000/svg" version="1.1" viewBox="0 0 64 64">
  <!-- Generator: Adobe Illustrator 28.7.1, SVG Export Plug-In . SVG Version: 1.2.0 Build 142)  -->
  <g>
    <g id="Glyph">
      <g>
        <path d="M12,40h18c.55231,0,1-.44775,1-1v-12c0-.55231-.44769-1-1-1h-5v5c0,.55225-.44769,1-1,1h-6c-.55231,0-1-.44775-1-1v-5h-5c-.55231,0-1,.44769-1,1v12c0,.55225.44769,1,1,1Z"/>
        <rect x="19" y="26" width="4" height="4"/>
        <path d="M34,40h18c.55231,0,1-.44775,1-1v-12c0-.55231-.44769-1-1-1h-5v5c0,.55225-.44769,1-1,1h-6c-.55231,0-1-.44775-1-1v-5h-5c-.55231,0-1,.44769-1,1v12c0,.55225.44769,1,1,1Z"/>
        <path d="M34,24h18c.55231,0,1-.44775,1-1v-12c0-.55231-.44769-1-1-1h-5v5c0,.55225-.44769,1-1,1h-6c-.55231,0-1-.44775-1-1v-5h-5c-.55231,0-1,.44769-1,1v12c0,.55225.44769,1,1,1Z"/>
        <rect x="41" y="26" width="4" height="4"/>
        <path d="M55,42H9c-1.10455,0-2,.89539-2,2v9c0,.55225.44769,1,1,1h4c.55231,0,1-.44775,1-1v-5h16v5c0,.55225.44769,1,1,1h4c.55231,0,1-.44775,1-1v-5h16v5c0,.55225.44769,1,1,1h4c.55231,0,1-.44775,1-1v-9c0-1.10461-.89545-2-2-2Z"/>
        <rect x="41" y="10" width="4" height="4"/>
      </g>
    </g>
  </g>
</svg>