<?xml version="1.0" encoding="UTF-8"?>
<svg xmlns="http://www.w3.org/2000/svg" version="1.1" viewBox="0 0 64 64">
  <!-- Generator: Adobe Illustrator 28.7.1, SVG Export Plug-In . SVG Version: 1.2.0 Build 142)  -->
  <g>
    <g id="Glyph">
      <g>
        <path d="M51,35V10c0-1.6543-1.3457-3-3-3H16c-1.6543,0-3,1.3457-3,3v25h38ZM19.14258,30.48535l12-20c.36133-.60254,1.35352-.60254,1.71484,0l12,20c.18555.30908.19043.69385.0127,1.00732s-.50977.50732-.87012.50732h-24c-.36035,0-.69238-.19385-.87012-.50732s-.17285-.69824.0127-1.00732Z"/>
        <path d="M18.18433,55c.41412,1.1615,1.51373,2,2.81567,2h22c1.30194,0,2.40161-.8385,2.81573-2h-27.63141Z"/>
        <path d="M32,12.94385l-10.2334,17.05615h20.4668l-10.2334-17.05615ZM32,28c-.55231,0-1-.44775-1-1,0-.55231.44769-1,1-1s1,.44769,1,1c0,.55225-.44769,1-1,1ZM32,24c-.55273,0-1-.44775-1-1v-4c0-.55225.44727-1,1-1s1,.44775,1,1v4c0,.55225-.44727,1-1,1Z"/>
        <path d="M36,44h-11v2h11c.42871,0,.79492.27002.93652.64893l1.64941-1.64893-1.64941-1.64893c-.1416.37891-.50781.64893-.93652.64893Z"/>
        <path d="M13,37v13c0,1.64996,1.34998,3,3,3h32c1.65002,0,3-1.35004,3-3v-13H13ZM18,50c-.54999,0-1-.45001-1-1s.45001-1,1-1,1,.45001,1,1-.45001,1-1,1ZM18,42c-.54999,0-1-.45001-1-1s.45001-1,1-1,1,.45001,1,1-.45001,1-1,1ZM40.71002,45.70996s-4,4-4.00008,4.00008c-.29443.29436-.7133.35863-1.08994.20994-.38-.15002-.62-.52002-.62-.91998v-1h-11c-.54999,0-1-.45001-1-1v-4c0-.54999.45001-1,1-1h11v-1c0-.40002.23999-.77002.62-.92004.37-.15997.79999-.06995,1.09003.21002l4,4c.38995.39001.38995,1.03003,0,1.41998ZM46,50c-.54999,0-1-.45001-1-1s.45001-1,1-1,1,.45001,1,1-.45001,1-1,1ZM46,42c-.54999,0-1-.45001-1-1s.45001-1,1-1,1,.45001,1,1-.45001,1-1,1Z"/>
      </g>
    </g>
  </g>
</svg>