<?xml version="1.0" encoding="UTF-8"?>
<svg xmlns="http://www.w3.org/2000/svg" version="1.1" viewBox="0 0 64 64">
  <!-- Generator: Adobe Illustrator 28.7.1, SVG Export Plug-In . SVG Version: 1.2.0 Build 142)  -->
  <g>
    <g id="Glyph">
      <g>
        <path d="M13,23v17h-3c-1.65002,0-3-1.35004-3-3v-11c0-1.65002,1.34998-3,3-3h3Z"/>
        <path d="M21.40332,33.35596c2.27832,3.32324,7.4585,5.64404,12.59668,5.64404s10.31836-2.3208,12.59668-5.64355l.24445-.35645h-25.68219l.24438.35596Z"/>
        <path d="M29,27c.55127,0,1-.44873,1-1,0-1.6543,1.3457-3,3-3s3,1.3457,3,3c0,.55127.44873,1,1,1s1-.44873,1-1v-11h-10v11c0,.55127.44873,1,1,1Z"/>
        <path d="M26,15h-2c-.37891,0-.7251.21387-.89453.55273l-2.72363,5.44727h5.61816v-6Z"/>
        <path d="M44.25732,15.48535c-.18066-.30127-.50635-.48535-.85742-.48535h-3.3999v6h7.56622l-3.3089-5.51465Z"/>
        <path d="M56,15h-6c-.54999,0-1,.45001-1,1v7h-9v3c0,1.64996-1.34998,3-3,3s-3-1.35004-3-3c0-.54999-.45001-1-1-1s-1,.45001-1,1c0,1.64996-1.34998,3-3,3s-3-1.35004-3-3v-3h-9v-4c0-.54999-.45001-1-1-1s-1,.45001-1,1v28h-1c-.54999,0-1,.45001-1,1s.45001,1,1,1h4c.54999,0,1-.45001,1-1s-.45001-1-1-1h-1v-2h34v2h-1c-.54999,0-1,.45001-1,1s.45001,1,1,1h4c.54999,0,1-.45001,1-1s-.45001-1-1-1h-1v-22h3c.54999,0,1-.45001,1-1v-8c0-.54999-.45001-1-1-1ZM51,43H17v-18h3v4.94c0,.35999.06.70996.14001,1.06h27.71997c.08002-.35004.14001-.70001.14001-1.06v-4.94h3v18Z"/>
      </g>
    </g>
  </g>
</svg>