<?xml version="1.0" encoding="UTF-8"?>
<svg id="Glyph" xmlns="http://www.w3.org/2000/svg" version="1.1" viewBox="0 0 48 48">
  <path d="M24,10.64703c-3.63232,0-6.58826,2.95587-6.58826,6.58826s2.95593,6.5882,6.58826,6.5882c3.02417,0,5.57288-2.05164,6.34375-4.83405-2.03687-1.65186-3.34375-4.17072-3.34375-6.98944,0-.20532.01453-.40723.0282-.60931-.90778-.47235-1.93622-.74365-3.0282-.74365Z" fill="#000" stroke-width="0"/>
  <path d="M23.37,36.76001c.17999.15997.40002.23999.63.23999s.45001-.08002.63-.23999c.46002-.41003,9.73999-8.92004,12.03998-15.79004-.21997.02002-.44.03003-.66998.03003-1.44427,0-2.80579-.35083-4.01703-.95892-1.16144,3.29388-4.29651,5.66479-7.98297,5.66479-4.67096,0-8.47058-3.79962-8.47058-8.47058s3.79962-8.47058,8.47058-8.47058c1.19647,0,2.33405.25244,3.36694.70184.37238-1.26654,1.01331-2.42072,1.86304-3.3866-1.59998-.68994-3.37-1.07996-5.22998-1.07996-7.27002,0-13.17999,5.90997-13.17999,13.17999,0,7.08997,12.02997,18.10999,12.54999,18.58002Z" fill="#000" stroke-width="0"/>
  <path d="M17.01465,36c.85767.28778,2.00958.57874,3.45807.77277-.39508-.38495-.8421-.82971-1.32867-1.32825-.84119.16681-1.55249.36188-2.12939.55548Z" fill="#000" stroke-width="0"/>
  <path d="M33.29999,30.42999c-.95959,1.20081-1.93787,2.32196-2.85712,3.32465,1.92511.50232,3.07294,1.11823,3.521,1.3938.29492.18164.47559.50391.47559.85156s-.18066.66992-.47559.85156c-.81934.50391-3.95898,2.14844-9.96387,2.14844s-9.14453-1.64453-9.96387-2.14844c-.29492-.18164-.47559-.50391-.47559-.85156s.18066-.66992.47559-.85156c.44733-.27509,1.59216-.88934,3.51129-1.39117-.92169-1.005-1.90015-2.12769-2.85742-3.32727-3.51001,1.26001-5.69,3.25-5.69,5.57001,0,3.98999,6.45001,7,15,7s15-3.01001,15-7c0-2.32001-2.19-4.31-5.70001-5.57001Z" fill="#000" stroke-width="0"/>
  <path d="M30.98535,36c-.57861-.19415-1.2926-.38977-2.13715-.55695-.49121.50403-.93774.94824-1.32947,1.33093,1.45258-.19397,2.60724-.4856,3.46661-.77399Z" fill="#000" stroke-width="0"/>
  <path d="M36,5c-3.85974,0-7,3.14026-7,7s3.14026,7,7,7,7-3.14026,7-7-3.14026-7-7-7ZM39.20703,11.20703l-3,3c-.19531.19531-.45117.29297-.70703.29297s-.51172-.09766-.70703-.29297l-2-2c-.39062-.39062-.39062-1.02344,0-1.41406s1.02344-.39062,1.41406,0l1.29297,1.29297,2.29297-2.29297c.39062-.39062,1.02344-.39062,1.41406,0s.39062,1.02344,0,1.41406Z" fill="#000" stroke-width="0"/>
</svg>