<?xml version="1.0" encoding="utf-8"?>
<!-- Generator: Adobe Illustrator 27.3.1, SVG Export Plug-In . SVG Version: 6.00 Build 0)  -->
<svg version="1.1" id="Glyph" xmlns="http://www.w3.org/2000/svg" xmlns:xlink="http://www.w3.org/1999/xlink" x="0px" y="0px"
	 viewBox="0 0 48 48" enable-background="new 0 0 48 48" xml:space="preserve">
<g>
	<circle cx="24" cy="13" r="2"/>
	<path d="M16.22168,27.77832c0.73956,0,1.42413,0.21545,2.0191,0.56683l2.32605-2.32605C20.21545,25.42413,20,24.73956,20,24
		c0-1.85828,1.27972-3.41071,3-3.85797v-3.28406c-1.16248-0.30225-2.11719-1.10736-2.61664-2.17639
		C16.58246,16.15137,14,19.85236,14,24c0,1.39447,0.30463,2.76715,0.86066,4.03265
		C15.28741,27.87695,15.74176,27.77832,16.22168,27.77832z"/>
	<circle cx="16.22168" cy="31.77832" r="2"/>
	<circle cx="24" cy="24" r="2"/>
	<path d="M25,16.85803v3.28394c1.72052,0.4472,3,1.99969,3,3.85803c0,0.73956-0.21539,1.42413-0.56671,2.0191l2.32611,2.32581
		c0.59485-0.3512,1.27936-0.56659,2.01892-0.56659c0.4801,0,0.93451,0.09869,1.36133,0.25439C33.69543,26.76715,34,25.39453,34,24
		c0-4.14758-2.58246-7.84863-6.3833-9.31842C27.11731,15.75061,26.1626,16.55585,25,16.85803z"/>
	<path d="M24,5C13.52344,5,5,13.52344,5,24s8.52344,19,19,19s19-8.52344,19-19S34.47656,5,24,5z M35.77832,31.77832
		c0,2.20557-1.79395,4-4,4c-0.99347,0-1.89185-0.3772-2.59198-0.9787C27.57281,35.57202,25.80194,36,24,36
		c-1.80212,0-3.57306-0.4281-5.18634-1.20056c-0.7002,0.60162-1.59863,0.97888-2.59198,0.97888c-2.20557,0-4-1.79443-4-4
		c0-0.99335,0.37726-1.89178,0.97888-2.59198C12.4281,27.57306,12,25.80212,12,24c0-5.11005,3.26831-9.65375,8.03204-11.31689
		C20.19678,10.62775,21.90295,9,24,9c2.0976,0,3.80341,1.62787,3.96796,3.68335C32.73169,14.34644,36,18.89026,36,24
		c0,1.80194-0.4281,3.57269-1.20074,5.18591C35.401,29.88617,35.77832,30.78479,35.77832,31.77832z"/>
	<circle cx="31.77832" cy="31.77832" r="2"/>
	<path d="M27.77832,31.77832c0-0.73969,0.21552-1.42444,0.56689-2.01947l-2.32599-2.32562C25.42432,27.78455,24.73969,28,24,28
		c-0.73956,0-1.42413-0.21545-2.0191-0.56683l-2.32605,2.32605c0.35138,0.59497,0.56683,1.27954,0.56683,2.0191
		c0,0.47882-0.09845,0.93207-0.25342,1.35797c2.53644,1.1001,5.52698,1.10022,8.06348,0.00024
		C27.87671,32.71057,27.77832,32.25726,27.77832,31.77832z"/>
</g>
</svg>
