<?xml version="1.0" encoding="UTF-8"?>
<svg xmlns="http://www.w3.org/2000/svg" version="1.1" viewBox="0 0 48 48">
  <!-- Generator: Adobe Illustrator 28.7.1, SVG Export Plug-In . SVG Version: 1.2.0 Build 142)  -->
  <g>
    <g id="Glyph">
      <g>
        <circle cx="15" cy="40" r="3"/>
        <circle cx="33" cy="40" r="3"/>
        <polygon points="33.6001 23 33.9751 21 14.0249 21 14.3999 23 33.6001 23"/>
        <rect x="5" y="12" width="38" height="3" rx="1" ry="1"/>
        <polygon points="15.1499 27 32.8501 27 33.2251 25 14.7749 25 15.1499 27"/>
        <path d="M39,33H9c-1.10455,0-2,.89539-2,2v2c0,1.09998.90002,2,2,2h1.09998c.46002-2.28003,2.48004-4,4.90002-4s4.44,1.71997,4.90002,4h8.19995c.46002-2.28003,2.48004-4,4.90002-4s4.44,1.71997,4.90002,4h1.09998c1.09998,0,2-.90002,2-2v-2c0-1.10461-.89545-2-2-2Z"/>
        <path d="M38.21002,31l2.62-14H7.16998l2.62,14h28.42004ZM12.05029,19.36133c.18994-.22852.47217-.36133.76953-.36133h22.36035c.29736,0,.57959.13281.76953.36133s.26807.53027.21338.82324l-1.5,8c-.08887.47266-.50146.81543-.98291.81543H14.31982c-.48145,0-.89404-.34277-.98291-.81543l-1.5-8c-.05469-.29297.02344-.59473.21338-.82324Z"/>
        <path d="M39.21002,8.72998c-.25-1.02002-1.16003-1.72998-2.21002-1.72998-.95001,0-1.78998.58997-2.12,1.46997l-.60999-1.83997c-.33002-.97003-1.23999-1.63-2.27002-1.63s-1.94.65997-2.27002,1.63l-.60999,1.83997c-.33002-.88-1.15997-1.46997-2.12-1.46997-.95001,0-1.78998.58997-2.12,1.46997l-.60999-1.83997c-.33002-.97003-1.23999-1.63-2.27002-1.63s-1.94.65997-2.27002,1.63l-.60999,1.83997c-.33002-.88-1.15997-1.46997-2.12-1.46997-.95001,0-1.78998.58997-2.12,1.46997l-.60999-1.83997c-.33002-.97003-1.23999-1.63-2.27002-1.63s-1.94.65997-2.27002,1.63l-1.11816,3.37h30.91711l-.31891-1.27002Z"/>
      </g>
    </g>
  </g>
</svg>