<?xml version="1.0" encoding="UTF-8"?>
<svg xmlns="http://www.w3.org/2000/svg" version="1.1" viewBox="0 0 64 64">
  <!-- Generator: Adobe Illustrator 28.7.1, SVG Export Plug-In . SVG Version: 1.2.0 Build 142)  -->
  <g>
    <g id="Glyph">
      <g>
        <path d="M41.01001,15.95001c1.73999-2.24005,3.90997-4.22003,5.81-5.30005.47998-.26996,1.08997-.09998,1.35999.38.27002.48004.10004,1.09003-.38,1.36005-1.63.92999-3.59998,2.72998-5.14996,4.70996-.02002.03003-.04004.06-.06.09003-.15002.19-.29004.38-.43005.57001.21002.01996.48004.02997.80005.02997,1.69,0,4.72998-.29999,6.71997-2.19,2.85004-2.71997,2.28003-7.46997,2.26001-7.67999-.06-.45001-.41998-.81-.88-.85999-.21002-.03003-5.15002-.56-7.96997,2.13-2.28003,2.16998-2.37006,5.65997-2.30005,7.06.05005-.07001.10004-.15002.16003-.22003.01996-.02997.03998-.06.06-.07996Z"/>
        <path d="M47.90002,23h-31.80005c.47003-2.28003,2.49005-4,4.90002-4,.62,0,1.22998.10999,1.78998.32996.87-1.37,2.36005-2.25995,4.01001-2.32996,1.06-1.84003,3.03003-3,5.20001-3s4.14001,1.15997,5.20001,3c.91998.03998,1.77997.33997,2.51996.82001.32001-.52002.67004-1.05005,1.07001-1.57001.01001.34998.03003.57001.04004.60999.06.46002.41998.82001.88.87.02997.01001.19.02002.44995.03003-.37994.50995-.69,1.01996-.97998,1.52997.01001.01001.02002.03003.03003.03998.56-.21997,1.16998-.32996,1.78998-.32996,2.40997,0,4.42999,1.71997,4.90002,4Z"/>
        <path d="M30.04803,41.96954c-.94745-1.05548-2.06433-1.97607-3.31464-2.69122-.47949-.27441-.64551-.88525-.37158-1.36475.27441-.47949.88525-.64551,1.36475-.37158,1.13745.65094,2.17426,1.45563,3.10358,2.36115-.19891-1.13116-.6178-2.35944-1.49567-3.23761-1.49951-1.49951-4.02393-1.68213-5.33252-1.66357-.0166,1.30322.16406,3.83252,1.66357,5.33252,1.19177,1.19177,3.01984,1.54657,4.38251,1.63507Z"/>
        <path d="M51,26.5c0,.82996-.66998,1.5-1.5,1.5H14.5c-.83002,0-1.5-.67004-1.5-1.5,0-.83002.66998-1.5,1.5-1.5h35c.83002,0,1.5.66998,1.5,1.5Z"/>
        <path d="M15.14001,30l1.59998,22.35999c.17999,2.59998,2.37,4.64001,4.97998,4.64001h20.56006c2.60999,0,4.79999-2.04004,4.97998-4.64001l1.59998-22.35999H15.14001ZM39.75,41.75c-1.95001,1.95001-4.92999,2.25-6.59003,2.25-.59998,0-1.00995-.04004-1.15997-.04999-.15002.00995-.56.04999-1.15997.04999-1.66003,0-4.64001-.29999-6.59003-2.25-2.77002-2.77002-2.21002-7.60999-2.19-7.82001.06-.45001.41998-.81.87-.87.21002-.02002,5.04999-.58002,7.82001,2.19.53003.52997.94,1.14001,1.25,1.77997.31-.63995.71997-1.25,1.25-1.77997,2.77002-2.77002,7.60999-2.21002,7.82001-2.19.45001.06.81.41998.87.87.02002.21002.58002,5.04999-2.19,7.82001Z"/>
        <path d="M40,35c.01001,1.31-.16998,3.82996-1.66998,5.32996-1.19,1.20001-3.01001,1.55005-4.38,1.64001.95001-1.06,2.07001-1.97998,3.32001-2.69.47998-.27997.63995-.88995.37-1.37-.28003-.47998-.89001-.64001-1.37-.37-1.13.65002-2.17004,1.46002-3.10004,2.35999.20001-1.13.62-2.35999,1.5-3.22998,1.5-1.5,4.01001-1.66998,5.33002-1.66998Z"/>
      </g>
    </g>
  </g>
</svg>