<?xml version="1.0" encoding="UTF-8"?>
<svg xmlns="http://www.w3.org/2000/svg" version="1.1" viewBox="0 0 64 64">
  <!-- Generator: Adobe Illustrator 28.7.1, SVG Export Plug-In . SVG Version: 1.2.0 Build 142)  -->
  <g>
    <g id="Glyph">
      <g>
        <rect x="23" y="7" width="12" height="4"/>
        <path d="M41.92999,7.63c-.14996-.38-.52002-.63-.92999-.63h-4v5c0,.55273-.44775,1-1,1h-14c-.55225,0-1-.44727-1-1v-5h-4c-.40997,0-.78003.25-.92999.63l-3.35004,8.37h32.56006l-3.35004-8.37Z"/>
        <path d="M54.58447,16.18848c-.26123-.1875-.59717-.24023-.90088-.13672l-5.8457,1.94824H10c-.55225,0-1,.44727-1,1v2c0,.55273.44775,1,1,1h38c.10742,0,.21436-.01758.31641-.05176l6-2c.4082-.13574.68359-.51758.68359-.94824v-2c0-.32129-.1543-.62305-.41553-.81152Z"/>
        <path d="M34,48v-1h-1c-1.6543,0-3,1.3457-3,3v1h1c1.6543,0,3-1.3457,3-3Z"/>
        <polygon points="11.46533 26 46.53467 26 46.77002 24 11.22998 24 11.46533 26"/>
        <path d="M30,40.58557l.25732-.25745c.75537-.75586,1.17139-1.75977,1.17139-2.82812s-.41602-2.07227-1.17139-2.82812l-1.25732-1.25781-1.25732,1.25781c-.75537.75586-1.17139,1.75977-1.17139,2.82812s.41602,2.07227,1.17139,2.82812l.25732.25745v-2.58557c0-.55273.44775-1,1-1s1,.44727,1,1v2.58557Z"/>
        <path d="M15.01001,56.12c.06.5.47998.88.98999.88h12v-4h-1c-2.75684,0-5-2.24316-5-5v-2c0-.55273.44775-1,1-1h2c1.12994,0,2.16174.39099,3,1.02557v-2.61157l-1.67139-1.67181c-1.1333-1.13281-1.75732-2.63965-1.75732-4.24219s.62402-3.10938,1.75732-4.24219l1.96436-1.96484c.375-.375,1.03906-.375,1.41406,0l1.96436,1.96484c1.1333,1.13281,1.75732,2.63965,1.75732,4.24219s-.62402,3.10938-1.75732,4.24219l-1.67139,1.67181v2.61157c.83826-.63458,1.87006-1.02557,3-1.02557h2c.55225,0,1,.44727,1,1v2c0,2.75684-2.24316,5-5,5h-1v4h12c.51001,0,.92999-.38.98999-.88l3.30927-28.12H11.70074l3.30927,28.12Z"/>
        <path d="M25,47h-1v1c0,1.6543,1.3457,3,3,3h1v-1c0-1.6543-1.3457-3-3-3Z"/>
      </g>
    </g>
  </g>
</svg>