<?xml version="1.0" encoding="UTF-8"?>
<svg xmlns="http://www.w3.org/2000/svg" version="1.1" viewBox="0 0 48 48">
  <!-- Generator: Adobe Illustrator 28.7.1, SVG Export Plug-In . SVG Version: 1.2.0 Build 142)  -->
  <g>
    <g id="Glyph">
      <g>
        <path d="M8,8v-2c0-.55273-.44775-1-1-1s-1,.44727-1,1v2c0,.55273.44775,1,1,1s1-.44727,1-1Z"/>
        <path d="M11,9c.55225,0,1-.44727,1-1v-2c0-.55273-.44775-1-1-1s-1,.44727-1,1v2c0,.55273.44775,1,1,1Z"/>
        <path d="M15,9c.55225,0,1-.44727,1-1v-2c0-.55273-.44775-1-1-1s-1,.44727-1,1v2c0,.55273.44775,1,1,1Z"/>
        <path d="M33,9c.55225,0,1-.44727,1-1v-2c0-.55273-.44775-1-1-1s-1,.44727-1,1v2c0,.55273.44775,1,1,1Z"/>
        <path d="M37,9c.55225,0,1-.44727,1-1v-2c0-.55273-.44775-1-1-1s-1,.44727-1,1v2c0,.55273.44775,1,1,1Z"/>
        <path d="M41,5c-.55225,0-1,.44727-1,1v2c0,.55273.44775,1,1,1s1-.44727,1-1v-2c0-.55273-.44775-1-1-1Z"/>
        <path d="M40,11h-6c-.55225,0-1,.44727-1,1v3h8v-3c0-.55273-.44775-1-1-1Z"/>
        <path d="M33,26c0,4.96289-4.0376,9-9,9s-9-4.03711-9-9v-9H7v9c0,9.37402,7.62598,17,17,17s17-7.62598,17-17v-9h-8v9Z"/>
        <path d="M7,12v3h8v-3c0-.55273-.44775-1-1-1h-6c-.55225,0-1,.44727-1,1Z"/>
        <path d="M17.55273,17.49414l4.1167,2.05859-2.25,11.25098c-.09375.46875.15674.9375.59766,1.12012.12451.05176.25439.07617.38232.07617.32666,0,.64258-.16016.83252-.44531l9.6001-14.40039c.15918-.23828.20801-.53418.13428-.81152-.07324-.27734-.2627-.50977-.51904-.6377l-3.90527-1.95215,3.15234-6.30566c.15479-.31055.13818-.67773-.04395-.97266s-.50391-.47461-.85059-.47461h-7.19971c-.41699,0-.79004.25879-.93652.64844l-3.6001,9.59961c-.17969.47949.03174,1.0166.48926,1.24609Z"/>
      </g>
    </g>
  </g>
</svg>