<?xml version="1.0" encoding="UTF-8"?>
<svg xmlns="http://www.w3.org/2000/svg" version="1.1" viewBox="0 0 64 64">
  <!-- Generator: Adobe Illustrator 28.7.1, SVG Export Plug-In . SVG Version: 1.2.0 Build 142)  -->
  <g>
    <g id="Glyph">
      <g>
        <path d="M17.5,16h29c.82843,0,1.5-.67157,1.5-1.5s-.67157-1.5-1.5-1.5h-29c-.82843,0-1.5.67157-1.5,1.5s.67157,1.5,1.5,1.5Z"/>
        <path d="M32,26c-4.96289,0-9,4.03711-9,9s4.03711,9,9,9,9-4.03711,9-9-4.03711-9-9-9ZM32,42c-3.30859,0-6-2.69141-6-6,0-3.13477,4.80566-7.29883,5.35352-7.7627.37305-.31641.91992-.31641,1.29297,0,.54785.46387,5.35352,4.62793,5.35352,7.7627,0,3.30859-2.69141,6-6,6Z"/>
        <path d="M32,30.33594c-1.75977,1.62402-4,4.18262-4,5.66406,0,2.20605,1.79395,4,4,4s4-1.79395,4-4c0-1.48438-2.23926-4.04199-4-5.66406Z"/>
        <path d="M32,22c-8.42126,0-15.68378,3.21619-15.9726,4.89484-.01337.31171-.0274.62335-.0274.93622v14.33789c0,.31287.01404.62451.0274.93622.28882,1.67865,7.55133,4.89484,15.9726,4.89484s15.68378-3.21619,15.9726-4.89484c.01337-.31171.0274-.62335.0274-.93622v-14.33789c0-.31287-.01404-.62451-.0274-.93622-.28882-1.67865-7.55133-4.89484-15.9726-4.89484ZM32,46c-6.06543,0-11-4.93457-11-11s4.93457-11,11-11,11,4.93457,11,11-4.93457,11-11,11Z"/>
        <path d="M43,8c0-.55231-.44769-1-1-1h-6c-.55231,0-1,.44769-1,1v3h8v-3Z"/>
        <path d="M18.32013,18c-.90802,1.82294-1.55377,3.76025-1.93109,5.75385,3.41901-2.23444,9.92474-3.75385,15.61096-3.75385s12.19196,1.51941,15.61096,3.75385c-.37732-1.99359-1.02307-3.93091-1.93109-5.75385h-27.35974Z"/>
        <path d="M46.5,54h-29c-.82843,0-1.5.67157-1.5,1.5s.67157,1.5,1.5,1.5h29c.82843,0,1.5-.67157,1.5-1.5s-.67157-1.5-1.5-1.5Z"/>
        <path d="M45.67987,52c.90802-1.82294,1.55383-3.76025,1.93109-5.75385-3.41901,2.23444-9.92474,3.75385-15.61096,3.75385s-12.19196-1.51941-15.61096-3.75385c.37726,1.99359,1.02307,3.93091,1.93109,5.75385h27.35974Z"/>
      </g>
    </g>
  </g>
</svg>