<?xml version="1.0" encoding="UTF-8"?>
<svg xmlns="http://www.w3.org/2000/svg" version="1.1" viewBox="0 0 64 64">
  <!-- Generator: Adobe Illustrator 28.7.1, SVG Export Plug-In . SVG Version: 1.2.0 Build 142)  -->
  <g>
    <g id="Glyph">
      <g>
        <rect x="12" y="12" width="2" height="2"/>
        <rect x="12" y="39" width="2" height="2"/>
        <rect x="12" y="30" width="2" height="2"/>
        <path d="M29,47c0-3.79999,2.35999-7.13,5.84003-8.42004-1.11005-1.50995-1.84003-3.35999-1.84003-5.57996v-5.29999l-1.67999-3.36005c-.40002-.78998-.42999-1.71997-.07001-2.52997.34998-.81,1.03998-1.42999,1.89001-1.67999l10-3c.26996-.09003.57001-.13.85999-.13s.59003.03998.87.13l4.13,1.23999v-7.37c0-2.21002-1.78998-4-4-4H11c-2.21002,0-4,1.78998-4,4v42c0,2.20996,1.78998,4,4,4h18.17999c-.12-.31-.17999-.65002-.17999-1v-9ZM19,10h21c.55225,0,1,.44727,1,1s-.44775,1-1,1h-21c-.55225,0-1-.44727-1-1s.44775-1,1-1ZM19,14h21c.55225,0,1,.44727,1,1s-.44775,1-1,1h-21c-.55225,0-1-.44727-1-1s.44775-1,1-1ZM19,19h9c.55225,0,1,.44727,1,1s-.44775,1-1,1h-9c-.55225,0-1-.44727-1-1s.44775-1,1-1ZM19,23h9c.55225,0,1,.44727,1,1s-.44775,1-1,1h-9c-.55225,0-1-.44727-1-1s.44775-1,1-1ZM19,28h9c.55225,0,1,.44727,1,1s-.44775,1-1,1h-9c-.55225,0-1-.44727-1-1s.44775-1,1-1ZM19,32h9c.55225,0,1,.44727,1,1s-.44775,1-1,1h-9c-.55225,0-1-.44727-1-1s.44775-1,1-1ZM16,42c0,.55273-.44775,1-1,1h-4c-.55225,0-1-.44727-1-1v-4c0-.55273.44775-1,1-1h4c.55225,0,1,.44727,1,1v4ZM16,33c0,.55273-.44775,1-1,1h-4c-.55225,0-1-.44727-1-1v-4c0-.55273.44775-1,1-1h4c.55225,0,1,.44727,1,1v4ZM16,24c0,.55273-.44775,1-1,1h-4c-.55225,0-1-.44727-1-1v-4c0-.55273.44775-1,1-1h4c.55225,0,1,.44727,1,1v4ZM16,15c0,.55273-.44775,1-1,1h-4c-.55225,0-1-.44727-1-1v-4c0-.55273.44775-1,1-1h4c.55225,0,1,.44727,1,1v4ZM26,43h-7c-.55225,0-1-.44727-1-1s.44775-1,1-1h7c.55225,0,1,.44727,1,1s-.44775,1-1,1ZM28,39h-9c-.55225,0-1-.44727-1-1s.44775-1,1-1h9c.55225,0,1,.44727,1,1s-.44775,1-1,1Z"/>
        <rect x="12" y="21" width="2" height="2"/>
        <path d="M44.72998,43.90997c-.22998.06-.47998.09003-.72998.09003s-.5-.03003-.73999-.09003c-.16962-.04285-.35156-.09753-.53119-.15002l1.27118,2.22443,1.27271-2.22711c-.18359.05359-.3692.10913-.54272.15271Z"/>
        <path d="M36.29999,40.20996c-3.03998.76001-5.29999,3.52002-5.29999,6.79004v9c0,.54999.45001,1,1,1h11v-8.73462l-3.2514-5.68994c-1.19269-.60583-2.39716-1.38739-3.44861-2.36548Z"/>
        <path d="M51.70001,40.20996c-1.0542.97614-2.2561,1.75623-3.44641,2.36157l-3.2536,5.69385v8.73462h11c.54999,0,1-.45001,1-1v-9c0-3.27002-2.26001-6.03003-5.29999-6.79004Z"/>
        <path d="M50.16211,28h-12.32422c1.47168,1.87012,3.75439,3,6.16211,3s4.69043-1.12891,6.16211-3Z"/>
        <path d="M43.71289,19.04199l-10,3c-.2832.08496-.51367.29004-.63086.56152-.11719.27051-.1084.58008.02344.84375l1.27637,2.55273h19.23633l1.27637-2.55273c.13184-.26367.14062-.57324.02344-.84375-.11719-.27148-.34766-.47656-.63086-.56152l-10-3c-.18652-.05664-.3877-.05664-.57422,0Z"/>
        <path d="M35.57031,28.22754l-.13654-.22754h-.43378v5c0,6.7041,8.3999,8.88086,8.75732,8.96973.07959.02051.16113.03027.24268.03027s.16309-.00977.24268-.03027c.35742-.08887,8.75732-2.26562,8.75732-8.96973v-5h-.43378l-.13654.22754c-1.7666,2.94336-4.99658,4.77246-8.42969,4.77246s-6.66309-1.8291-8.42969-4.77246Z"/>
      </g>
    </g>
  </g>
</svg>