<?xml version="1.0" encoding="UTF-8"?>
<svg xmlns="http://www.w3.org/2000/svg" version="1.1" viewBox="0 0 64 64">
  <!-- Generator: Adobe Illustrator 28.7.1, SVG Export Plug-In . SVG Version: 1.2.0 Build 142)  -->
  <g>
    <g id="Glyph">
      <g>
        <path d="M17,41c-2.20544,0-4,1.79449-4,4s1.79456,4,4,4,4-1.79456,4-4-1.79456-4-4-4ZM17,46c-.55151,0-1-.44849-1-1s.44849-1,1-1,1,.44849,1,1-.44849,1-1,1Z"/>
        <path d="M47,41c-2.20544,0-4,1.79449-4,4s1.79456,4,4,4,4-1.79456,4-4-1.79456-4-4-4ZM47,46c-.55151,0-1-.44849-1-1s.44849-1,1-1,1,.44849,1,1-.44849,1-1,1Z"/>
        <path d="M35,15H9c-1.09998,0-2,.89996-2,2v26c0,1.09998.90002,2,2,2h2c0-3.31,2.69-6,6-6s6,2.69,6,6h14v-28c0-1.10461-.89545-2-2-2ZM19,21h-7c-.55225,0-1-.44775-1-1s.44775-1,1-1h7c.55225,0,1,.44775,1,1s-.44775,1-1,1ZM26,21h-3c-.55225,0-1-.44775-1-1s.44775-1,1-1h3c.55225,0,1,.44775,1,1s-.44775,1-1,1Z"/>
        <path d="M53,35c0,.55127.44873,1,1,1h3v-2h-3c-.55127,0-1,.44873-1,1Z"/>
        <polygon points="43.99994 24 43.99994 27 51.23383 27 49.43353 24 43.99994 24"/>
        <path d="M56.84998,27.46997l-5-8c-.17999-.28998-.50995-.46997-.84998-.46997h-12v26h2c0-3.31,2.69-6,6-6s6,2.69,6,6h1c1.65002,0,3-1.35004,3-3v-4h-3c-1.6543,0-3-1.3457-3-3s1.3457-3,3-3h3v-4c0-.19-.04999-.37-.15002-.53003ZM44,35h-2c-.55225,0-1-.44775-1-1s.44775-1,1-1h2c.55225,0,1,.44775,1,1s-.44775,1-1,1ZM53.87006,28.49268c-.17725.31348-.50977.50732-.87012.50732h-10c-.55225,0-1-.44775-1-1v-5c0-.55225.44775-1,1-1h7c.35107,0,.67676.18408.85742.48535l3,5c.18555.30908.19043.69385.0127,1.00732Z"/>
      </g>
    </g>
  </g>
</svg>