<?xml version="1.0" encoding="UTF-8"?>
<svg id="Glyph" xmlns="http://www.w3.org/2000/svg" version="1.1" viewBox="0 0 64 64">
  <rect x="43" y="37" width="4" height="2" fill="#000" stroke-width="0"/>
  <polygon points="49 39 55.49988 39 53.99988 37 49 37 49 39" fill="#000" stroke-width="0"/>
  <path d="M56,45h-3c-.55273,0-1-.44775-1-1s.44727-1,1-1h3v-2h-14c-.55273,0-1-.44775-1-1v-4c0-.55225.44727-1,1-1h10.49988l-2.70007-3.6001c-.18848-.25195-.48535-.3999-.7998-.3999h-11c-.55273,0-1,.44775-1,1v15h19v-2Z" fill="#000" stroke-width="0"/>
  <path d="M7,50v2c0,.54999.45001,1,1,1h3c0-1.54004.58002-2.94,1.53998-4h-4.53998c-.54999,0-1,.45001-1,1Z" fill="#000" stroke-width="0"/>
  <path d="M23,53h18c0-1.54004.58002-2.94,1.53998-4h-21.07996c.95996,1.06,1.53998,2.45996,1.53998,4Z" fill="#000" stroke-width="0"/>
  <path d="M56,49h-4.53998c.95996,1.06,1.53998,2.45996,1.53998,4h3c.54999,0,1-.45001,1-1v-2c0-.54999-.45001-1-1-1Z" fill="#000" stroke-width="0"/>
  <path d="M17,49c-2.20605,0-4,1.79443-4,4s1.79395,4,4,4,4-1.79443,4-4-1.79395-4-4-4ZM17,54c-.55231,0-1-.44775-1-1,0-.55231.44769-1,1-1s1,.44769,1,1c0,.55225-.44769,1-1,1Z" fill="#000" stroke-width="0"/>
  <path d="M47,49c-2.20605,0-4,1.79443-4,4s1.79395,4,4,4,4-1.79443,4-4-1.79395-4-4-4ZM47,54c-.55231,0-1-.44775-1-1,0-.55231.44769-1,1-1s1,.44769,1,1c0,.55225-.44769,1-1,1Z" fill="#000" stroke-width="0"/>
  <path d="M28.27002,24.25c-1.95001,1.71997-4.48004,2.75-7.27002,2.75s-5.32001-1.03003-7.27002-2.75l-5.72998,2.64996,13,6,13-6-5.72998-2.64996Z" fill="#000" stroke-width="0"/>
  <path d="M7.58105,40.9082l12.41895,6.0918v-12.36047l-13-6.00012v6.79785l7.91895,3.65503c.50195.23145.7207.82513.48932,1.32654-.22137.47974-.84515.71259-1.32721.48889l-7.08105-3.26831v2.3606c0,.39014.22656.74463.58105.9082Z" fill="#000" stroke-width="0"/>
  <path d="M27.08105,39.0918l7.91895-3.65491v-6.79749l-13,6.00012v12.36047l12.41895-6.0918c.35449-.16357.58105-.51807.58105-.9082v-2.36017s-7.07684,3.26593-7.08105,3.26788c-.48071.2218-1.09418.0155-1.32715-.48877-.23145-.50146-.0127-1.0957.48926-1.32715Z" fill="#000" stroke-width="0"/>
  <path d="M21,25c4.96289,0,9-4.0376,9-9s-4.03711-9-9-9-9,4.0376-9,9,4.03711,9,9,9ZM20,12c0-.55225.44727-1,1-1s1,.44775,1,1v3.58594l1.70703,1.70703c.39056.39056.39062,1.02319,0,1.41406-.38953.38947-1.02679.38727-1.41406,0l-2-2c-.1875-.1875-.29297-.44189-.29297-.70703v-4Z" fill="#000" stroke-width="0"/>
</svg>