<?xml version="1.0" encoding="UTF-8"?>
<svg id="Glyph" xmlns="http://www.w3.org/2000/svg" version="1.1" viewBox="0 0 48 48">
  <path d="M33.45182,29.64482l-1.06934-1.06714v4.42358c0,1.13068-.17334,2.21838-.46643,3.25647.57996-.18994,1.11584-.50598,1.54553-.94006,1.54492-1.56152,1.54102-4.10547-.00977-5.67285Z" fill="#000" stroke-width="0"/>
  <path d="M37.70249,25.41124l-5.35999-5.34998c.02997.31.03998.62.03998.94v4.75116l2.48633,2.48126c2.32324,2.34766,2.32715,6.1543.01465,8.49023-1.00055,1.01105-2.38348,1.57428-3.80225,1.68658-.73071,1.4411-1.73346,2.72327-2.95874,3.76074.82001.22003,1.66998.33002,2.51001.33002,2.58002,0,5.13-1.01001,7.07001-2.94,3.89001-3.90002,3.89001-10.25,0-14.15002Z" fill="#000" stroke-width="0"/>
  <rect x="16.38248" y="25.00127" width="8" height="3" fill="#000" stroke-width="0"/>
  <rect x="16.38248" y="30.00127" width="8" height="2" fill="#000" stroke-width="0"/>
  <path d="M20.38248,37.00127c1.8587,0,3.41095-1.27948,3.85803-3h-7.71606c.44708,1.72052,1.99933,3,3.85803,3Z" fill="#000" stroke-width="0"/>
  <path d="M20.38248,15.00127c.46002,0,.89001.09998,1.28003.29999l3.21997-3.22003c-1.34998-.68994-2.88-1.07996-4.5-1.07996s-3.15002.39001-4.5,1.07996l3.21997,3.22003c.39001-.20001.82001-.29999,1.28003-.29999Z" fill="#000" stroke-width="0"/>
  <path d="M30.38248,21.00127c0-3.15002-1.46997-5.97003-3.76001-7.82001l-3.53998,3.53998c.20001.39001.29999.82001.29999,1.28003,0,1.64996-1.34998,3-3,3s-3-1.35004-3-3c0-.46002.09998-.89001.29999-1.28003l-3.53998-3.53998c-2.29004,1.84998-3.76001,4.66998-3.76001,7.82001v12c0,5.51001,4.48999,10,10,10s10-4.48999,10-10v-12ZM26.38248,33.00127c0,3.31-2.69,6-6,6s-6-2.69-6-6v-9c0-.54999.45001-1,1-1h10c.54999,0,1,.45001,1,1v9Z" fill="#000" stroke-width="0"/>
  <path d="M9.09251,5.29124c-.39001-.39001-1.03003-.39001-1.42004,0-.38995.39001-.38995,1.03003,0,1.41998l6.47003,6.47003c.53998-.41998,1.12-.79999,1.73999-1.10004l-6.78998-6.78998Z" fill="#000" stroke-width="0"/>
  <path d="M33.09251,6.71123c.38995-.38995.38995-1.02997,0-1.41998-.39001-.39001-1.03003-.39001-1.42004,0l-6.78998,6.78998c.62.30005,1.20001.68005,1.73999,1.10004l6.47003-6.47003Z" fill="#000" stroke-width="0"/>
  <circle cx="20.38248" cy="18.00127" r="1" fill="#000" stroke-width="0"/>
</svg>