<?xml version="1.0" encoding="UTF-8"?>
<svg id="Glyph" xmlns="http://www.w3.org/2000/svg" version="1.1" viewBox="0 0 64 64">
  <path d="M43.41183,31.00636c-.26653-.12008-.57316-.11778-.83787.00627l-12.53761,5.90083,13.04491,5.90235,12.9551-6.09695-12.62453-5.7125Z" fill="#000" stroke-width="0"/>
  <path d="M49.2085,48.96348l7.89137-3.7142-.05087-6.7962-12.95473,6.09676.09251,12.35964,12.373-6.18457c.35325-.16671.57716-.52289.57424-.91253l-.01766-2.35998s-7.0564,3.32116-7.05646,3.32116c-.49303.23148-1.09838.01384-1.33071-.47931-.23519-.49923-.0209-1.09558.47931-1.33077Z" fill="#000" stroke-width="0"/>
  <path d="M29.10065,45.45884l7.94608,3.59566c.50367.22768.72687.82075.49918,1.32345-.1662.36747-.52689.58501-.90481.58784-.13964.00105-.28244-.02718-.41864-.08867l-7.10532-3.21516.01766,2.35998c.00292.38964.23213.74242.58784.90383l12.46419,5.99868-.09251-12.35964-13.04454-5.90217.05087,6.7962Z" fill="#000" stroke-width="0"/>
  <circle cx="18.01536" cy="34.10473" r="1" fill="#000" stroke-width="0"/>
  <rect x="16.89928" y="17.08458" width="7.5" height="3" transform="translate(-.13852 .15507) rotate(-.42883)" fill="#000" stroke-width="0"/>
  <rect x="26.39901" y="17.01348" width="7.5" height="3" transform="translate(-.13772 .22617) rotate(-.42883)" fill="#000" stroke-width="0"/>
  <rect x="16.9367" y="22.08444" width="7.5" height="3" transform="translate(-.17594 .15549) rotate(-.42883)" fill="#000" stroke-width="0"/>
  <path d="M37.85763,12.95563l-24.9993.18711.28441,37.99894,14.1796-.10613c-.12239-.3191-.18485-.64866-.18747-.99862l-.08981-11.99966c-.00876-1.17001.66328-2.23507,1.71958-2.73298l9.22776-4.34305-.13476-18.0056ZM24.02268,35.05979l-3.18418.02383c-.40542,1.16457-1.49878,2.01127-2.80069,2.02102-1.65425.01238-3.00999-1.32321-3.02237-2.97746s1.32321-3.00999,2.97746-3.02237c1.3019-.00974,2.40782.8205,2.83062,1.97887l3.18418-.02383c.55272-.00414,1.00332.43977,1.00746.99249s-.43977,1.00332-.99249,1.00746ZM35.95498,25.97023c.00413.55223-.43977,1.00332-.99249,1.00746l-18.99947.1422c-.55272.00414-1.00332-.44026-1.00746-.99249l-.07484-9.99972c-.00413-.55223.43977-1.00332.99249-1.00746l18.99947-.1422c.55272-.00414,1.00332.44026,1.00746.99249l.07484,9.99972Z" fill="#000" stroke-width="0"/>
  <path d="M39.85009,11.94068l.13534,18.08256,1.73393-.8161c.39859-.19299.81789-.2861,1.25788-.28939.34997-.00262.68042.05491,1.00124.16249l-.15844-21.16939c-.00412-.54997-.45748-.9966-1.00746-.99249l-34.99902.26195c-.54997.00412-.9966.45748-.99249,1.00746l.31434,41.99882c.00412.54997.45748.9966,1.00746.99249l2.99992-.02245-.29189-38.99891c-.00413-.55223.43977-1.00332.99249-1.00746l26.99924-.20208c.55272-.00414,1.00332.44026,1.00746.99249Z" fill="#000" stroke-width="0"/>
  <rect x="26.43643" y="22.01334" width="7.5" height="3" transform="translate(-.17514 .22659) rotate(-.42883)" fill="#000" stroke-width="0"/>
</svg>