<?xml version="1.0" encoding="UTF-8"?>
<svg id="Glyph" xmlns="http://www.w3.org/2000/svg" version="1.1" viewBox="0 0 64 64">
  <path d="M55.29297,13.20703c.37461.37461,1.02342.39064,1.41406,0,.39062-.39062.39062-1.02344,0-1.41406l-2-2c-.39062-.39062-1.02344-.39062-1.41406,0s-.39062,1.02344,0,1.41406l2,2Z" fill="#000" stroke-width="0"/>
  <path d="M49.68359,14.44824s3,1,3.00005,1.00002c.51781.17258,1.09192-.1138,1.2646-.63185.1748-.52441-.1084-1.09082-.63184-1.26465l-3-1c-.52734-.17578-1.08984.1084-1.26465.63184-.1748.52441.1084,1.09082.63184,1.26465Z" fill="#000" stroke-width="0"/>
  <path d="M55.29297,27.79297l-2,2c-.39062.39062-.39062,1.02344,0,1.41407.38509.38508,1.03024.38381,1.41406,0l2-2c.39062-.39062.39062-1.02344,0-1.41406s-1.02344-.39062-1.41406,0Z" fill="#000" stroke-width="0"/>
  <path d="M53.94824,26.18359c-.1748-.52344-.73535-.80762-1.26465-.63184l-3,1c-.52341.17382-.80661.74017-.63187,1.26456.1627.48825.75604.80147,1.26468.63193l3-1c.52344-.17383.80664-.74023.63184-1.26465Z" fill="#000" stroke-width="0"/>
  <polygon points="41 17.5 41 21.08594 44.58594 17.5 41 17.5" fill="#000" stroke-width="0"/>
  <polygon points="47.41406 17.5 41.41406 23.5 44.58594 23.5 50.58594 17.5 47.41406 17.5" fill="#000" stroke-width="0"/>
  <path d="M54.70703,17.79297c-.1875-.1875-.44141-.29297-.70703-.29297h-.58594l-6,6h6.58594c.26562,0,.51953-.10547.70703-.29297l2-2c.39062-.39062.39062-1.02344,0-1.41406l-2-2Z" fill="#000" stroke-width="0"/>
  <path d="M25,44.5v1H9v-1c0-1.1.9-2,2-2h12c1.1,0,2,.9,2,2Z" fill="#000" stroke-width="0"/>
  <polygon points="23.63269 30.5 13.61731 30.5 12.36731 40.5 22.38269 40.5 23.63269 30.5" fill="#000" stroke-width="0"/>
  <path d="M12,12.5c-2.76001,0-5,2.23999-5,5v6c0,2.76001,2.23999,5,5,5h13V12.5h-13ZM13,23.5c0,.54999-.45001,1-1,1s-1-.45001-1-1v-6c0-.54999.45001-1,1-1s1,.45001,1,1v6ZM17,23.5c0,.54999-.45001,1-1,1s-1-.45001-1-1v-6c0-.54999.45001-1,1-1s1,.45001,1,1v6ZM21,23.5c0,.54999-.45001,1-1,1s-1-.45001-1-1v-6c0-.54999.45001-1,1-1s1,.45001,1,1v6Z" fill="#000" stroke-width="0"/>
  <path d="M39,17.5v6c0,.54999-.45001,1-1,1h-1v-8h1c.54999,0,1,.45001,1,1Z" fill="#000" stroke-width="0"/>
  <path d="M35,15.5v10c0,.54999-.45001,1-1,1h-1v-12h1c.54999,0,1,.45001,1,1Z" fill="#000" stroke-width="0"/>
  <path d="M31,13.5v14c0,.54999-.45001,1-1,1h-3V12.5h3c.54999,0,1,.45001,1,1Z" fill="#000" stroke-width="0"/>
  <path d="M27,49.5v4c0,.55-.45,1-1,1H8c-.55,0-1-.45-1-1v-4c0-1.1.9-2,2-2h16c1.1,0,2,.9,2,2Z" fill="#000" stroke-width="0"/>
</svg>