<?xml version="1.0" encoding="UTF-8"?>
<svg xmlns="http://www.w3.org/2000/svg" version="1.1" viewBox="0 0 64 64">
  <!-- Generator: Adobe Illustrator 28.7.1, SVG Export Plug-In . SVG Version: 1.2.0 Build 142)  -->
  <g>
    <g id="Glyph">
      <g>
        <path d="M56,55h-23v-1.34326c0-3.24805,1.22601-6.30145,3.44128-8.65674h2.55872c4.41113,0,8-3.58887,8-8v-3c0-.55225-.44775-1-1-1h-3c-4.41113,0-8,3.58887-8,8v2.61591c-1.3418,1.42218-2.36627,3.06433-3.04138,4.84735-.72302-1.73987-1.72308-3.35278-2.95862-4.78296v-2.6803c0-4.41113-3.58887-8-8-8h-3c-.55225,0-1,.44775-1,1v3c0,4.41113,3.58887,8,8,8h2.49847c1.76581,2.04889,2.98492,4.52454,3.52106,7.19678.00854.04272.03235.07703.0459.11725-.0401.44409-.06543.89136-.06543,1.34271v1.34326H8c-.55225,0-1,.44775-1,1s.44775,1,1,1h48c.55225,0,1-.44775,1-1s-.44775-1-1-1Z"/>
        <path d="M31.25586,26.33203c-.54395.60596-3.25586,3.72656-3.25586,5.66797,0,2.20557,1.79443,4,4,4s4-1.79443,4-4c0-1.94141-2.71191-5.06201-3.25586-5.66797-.37891-.42285-1.10938-.42285-1.48828,0Z"/>
        <path d="M40,29c2.20557,0,4-1.79443,4-4,0-1.94141-2.71191-5.06201-3.25586-5.66797-.37891-.42285-1.10938-.42285-1.48828,0-.54395.60596-3.25586,3.72656-3.25586,5.66797,0,2.20557,1.79443,4,4,4Z"/>
        <path d="M23.25586,19.33203c-.54395.60596-3.25586,3.72656-3.25586,5.66797,0,2.20557,1.79443,4,4,4s4-1.79443,4-4c0-1.94141-2.71191-5.06201-3.25586-5.66797-.37891-.42285-1.10938-.42285-1.48828,0Z"/>
        <path d="M46.07617,25.61719c-.15479.37402-.06934.80371.2168,1.08984l4,4c.19531.19531.45117.29297.70703.29297s.51172-.09766.70703-.29297l4-4c.28613-.28613.37158-.71582.2168-1.08984-.15479-.37354-.51953-.61719-.92383-.61719h-1v-5c0-.55225-.44775-1-1-1h-4c-.55225,0-1,.44775-1,1v5h-1c-.4043,0-.76904.24365-.92383.61719Z"/>
        <path d="M11,19c-.55225,0-1,.44775-1,1v5h-1c-.4043,0-.76904.24365-.92383.61719-.15479.37402-.06934.80371.2168,1.08984l4,4c.19531.19531.45117.29297.70703.29297s.51172-.09766.70703-.29297l4-4c.28613-.28613.37158-.71582.2168-1.08984-.15479-.37354-.51953-.61719-.92383-.61719h-1v-5c0-.55225-.44775-1-1-1h-4Z"/>
        <path d="M47,7h-10v10h10V7ZM44,13h-4c-.54999,0-1-.45001-1-1s.45001-1,1-1h4c.54999,0,1,.45001,1,1s-.45001,1-1,1Z"/>
        <path d="M27,7h-10v10h10V7ZM24,13h-4c-.55225,0-1-.44775-1-1s.44775-1,1-1h4c.55225,0,1,.44775,1,1s-.44775,1-1,1Z"/>
        <path d="M8,15h7v-6h-7c-.55225,0-1,.44775-1,1v4c0,.55225.44775,1,1,1Z"/>
        <rect x="29" y="9" width="6" height="6"/>
        <path d="M56,9h-7v6h7c.55225,0,1-.44775,1-1v-4c0-.55225-.44775-1-1-1Z"/>
      </g>
    </g>
  </g>
</svg>