<?xml version="1.0" encoding="UTF-8"?>
<svg xmlns="http://www.w3.org/2000/svg" version="1.1" viewBox="0 0 48 48">
  <!-- Generator: Adobe Illustrator 28.7.1, SVG Export Plug-In . SVG Version: 1.2.0 Build 142)  -->
  <g>
    <g id="Glyph">
      <g>
        <path d="M11.5,9c.55273,0,1-.44775,1-1v-2c0-.55225-.44727-1-1-1s-1,.44775-1,1v2c0,.55225.44727,1,1,1Z"/>
        <path d="M15.5,11c.55273,0,1-.44775,1-1s-.44727-1-1-1h-2c-.55273,0-1,.44775-1,1s.44727,1,1,1h2Z"/>
        <path d="M11.5,11c-.55273,0-1,.44775-1,1v2c0,.55225.44727,1,1,1s1-.44775,1-1v-2c0-.55225-.44727-1-1-1Z"/>
        <path d="M9.5,9h-2c-.55273,0-1,.44775-1,1s.44727,1,1,1h2c.55273,0,1-.44775,1-1s-.44727-1-1-1Z"/>
        <rect x="13.5" y="18" width="28" height="4" rx="1" ry="1"/>
        <rect x="13.5" y="34" width="28" height="4" rx="1" ry="1"/>
        <rect x="24.5" y="24" width="6" height="8"/>
        <path d="M24.5,42c0,.54999.45001,1,1,1h4c.54999,0,1-.45001,1-1v-2h-6v2Z"/>
        <path d="M16.5,16h6v-2c0-.54999-.45001-1-1-1h-1v-1c0-.55127.44824-1,1-1h5v2h-1c-.54999,0-1,.45001-1,1v2h6v-2c0-.54999-.45001-1-1-1h-1v-2h5c.55176,0,1,.44873,1,1v1h-1c-.54999,0-1,.45001-1,1v2h6v-2c0-.54999-.45001-1-1-1h-1v-1c0-1.6543-1.3457-3-3-3h-5v-3c0-.55225-.44727-1-1-1h-8c-.55273,0-1,.44775-1,1s.44727,1,1,1h7v2h-5c-1.6543,0-3,1.3457-3,3v1h-1c-.54999,0-1,.45001-1,1v2Z"/>
        <rect x="16.5" y="24" width="6" height="8"/>
        <path d="M16.5,42c0,.54999.45001,1,1,1h4c.54999,0,1-.45001,1-1v-2h-6v2Z"/>
        <rect x="32.5" y="24" width="6" height="8"/>
        <path d="M32.5,42c0,.54999.45001,1,1,1h4c.54999,0,1-.45001,1-1v-2h-6v2Z"/>
      </g>
    </g>
  </g>
</svg>