<?xml version="1.0" encoding="UTF-8"?>
<svg xmlns="http://www.w3.org/2000/svg" version="1.1" viewBox="0 0 48 48">
  <!-- Generator: Adobe Illustrator 28.7.1, SVG Export Plug-In . SVG Version: 1.2.0 Build 142)  -->
  <g>
    <g id="Glyph">
      <g>
        <path d="M32.59912,12.51562l2.44189,1.06836-1.41602,6.19336c-.10449.45898.12451.92871.55127,1.12793.41022.19147.93256.07715,1.21924-.29883,0,0,6.39014-8.38757,6.3999-8.40039.38733-.50842.18927-1.2666-.39453-1.52246l-2.18066-.9541s1.84546-3.22864,1.84814-3.2334c.37274-.65216-.12183-1.49609-.86816-1.49609h-4.80029c-.3999,0-.76172.23828-.91895.60645l-2.3999,5.59961c-.2168.50488.01465,1.08984.51807,1.30957Z"/>
        <path d="M41,26c-.55225,0-1,.44727-1,1v11.5c0,1.37891-1.12158,2.5-2.5,2.5s-2.5-1.12109-2.5-2.5v-3c0-1.92969-1.57031-3.5-3.5-3.5-3.03271,0-5.5,2.46777-5.5,5.5,0,1.92969-1.57031,3.5-3.5,3.5s-3.5-1.57031-3.5-3.5v-.5h2c.55225,0,1-.44727,1-1v-3h-8v3c0,.55273.44775,1,1,1h2v.5c0,3.03223,2.46729,5.5,5.5,5.5s5.5-2.46777,5.5-5.5c0-1.92969,1.57031-3.5,3.5-3.5.82715,0,1.5.67285,1.5,1.5v3c0,2.48145,2.01855,4.5,4.5,4.5s4.5-2.01855,4.5-4.5v-11.5c0-.55273-.44775-1-1-1Z"/>
        <path d="M25,7c0-1.10461-.89545-2-2-2s-2,.89539-2,2v6h4v-6Z"/>
        <path d="M22,31c3.31372,0,6-2.68628,6-6v-5H8v5c0,3.31372,2.68628,6,6,6h8Z"/>
        <path d="M30,16.5c0-.82843-.67157-1.5-1.5-1.5H7.5c-.82843,0-1.5.67157-1.5,1.5s.67157,1.5,1.5,1.5h21c.82843,0,1.5-.67157,1.5-1.5Z"/>
        <path d="M15,7c0-1.10461-.89545-2-2-2s-2,.89539-2,2v6h4v-6Z"/>
      </g>
    </g>
  </g>
</svg>