<?xml version="1.0" encoding="UTF-8"?>
<svg id="Glyph" xmlns="http://www.w3.org/2000/svg" version="1.1" viewBox="0 0 64 64">
  <path d="M52.70703,26.70703l.29297-.29297v3.58594c0,.55225.44727,1,1,1s1-.44775,1-1v-3.58594l.29297.29297c.36748.36748,1.03053.38354,1.41406,0,.39062-.39062.39062-1.02344,0-1.41406l-2-2c-.39062-.39062-1.02344-.39062-1.41406,0l-2,2c-.39062.39062-.39062,1.02344,0,1.41406s1.02344.39062,1.41406,0Z" fill="#000" stroke-width="0"/>
  <path d="M55.29297,37.29297l-.29297.29297v-3.58594c0-.55273-.44727-1-1-1s-1,.44727-1,1v3.58594l-.29297-.29297c-.39062-.39062-1.02344-.39062-1.41406,0s-.39062,1.02344,0,1.41406l2,2c.19531.19531.45117.29297.70703.29297s.51172-.09766.70703-.29297l2-2c.39062-.39062.39062-1.02344,0-1.41406s-1.02344-.39062-1.41406,0Z" fill="#000" stroke-width="0"/>
  <path d="M32,56c0,.55273-.44727,1-1,1h12V21h-11v35Z" fill="#000" stroke-width="0"/>
  <path d="M38,10c0-1.6543-1.3457-3-3-3h-8c-1.6543,0-3,1.3457-3,3v3h14v-3ZM29,11c-.55231,0-1-.44775-1-1,0-.55231.44769-1,1-1s1,.44769,1,1c0,.55225-.44769,1-1,1ZM33,11c-.55231,0-1-.44775-1-1,0-.55231.44769-1,1-1s1,.44769,1,1c0,.55225-.44769,1-1,1Z" fill="#000" stroke-width="0"/>
  <path d="M30,56V21h-11v36h12c-.55273,0-1-.44727-1-1Z" fill="#000" stroke-width="0"/>
  <path d="M54,55h-5V18c0-1.6543-1.3457-3-3-3h-30c-1.6543,0-3,1.3457-3,3v37h-5c-.55273,0-1,.44727-1,1s.44727,1,1,1h9V20c0-.55225.44727-1,1-1h26c.55273,0,1,.44775,1,1v37h9c.55273,0,1-.44727,1-1s-.44727-1-1-1Z" fill="#000" stroke-width="0"/>
</svg>