<?xml version="1.0" encoding="UTF-8"?>
<svg xmlns="http://www.w3.org/2000/svg" version="1.1" viewBox="0 0 64 64">
  <!-- Generator: Adobe Illustrator 28.7.1, SVG Export Plug-In . SVG Version: 1.2.0 Build 142)  -->
  <g>
    <g id="Glyph">
      <g>
        <polygon points="30.2793 10 31.27942 7 16.72058 7 17.7207 10 30.2793 10"/>
        <path d="M23,48v-21.03003c.02002-2.75,2.25-4.96997,5-4.96997h1.04999c-.02997-.33002-.04999-.66003-.04999-1,0-6.07001,4.92999-11,11-11,.29999,0,.59003.01001.88.03998-.42999-1.75-2-3.03998-3.88-3.03998h-3.61249l-1.43878,4.31641c-.13623.4082-.51807.68359-.94873.68359h-14c-.43066,0-.8125-.27539-.94873-.68359l-1.43878-4.31641h-3.61249c-2.21002,0-4,1.78998-4,4v42c0,2.20996,1.78998,4,4,4h26c1.85999,0,3.42999-1.27002,3.87-3h-11.87c-3.31,0-6-2.69-6-6Z"/>
        <path d="M49,41c0,1.65997,1.34003,3,3,3h5v-6h-5c-1.65997,0-3,1.33997-3,3ZM53,41c0,.54999-.45001,1-1,1s-1-.45001-1-1,.45001-1,1-1,1,.45001,1,1Z"/>
        <rect x="31" y="44" width="4" height="2"/>
        <path d="M28,32c-1.13,0-2.16998-.37-3-1v17c0,2.20914,1.79086,4,4,4h26c1.1,0,2-.9,2-2v-4h-4.78264c-2.61092,0-4.94393-1.90722-5.19358-4.50618-.2864-2.98159,2.0533-5.49382,4.97622-5.49382h5v-2c0-1.10457-.89543-2-2-2h-27ZM37,47c0,.54999-.45001,1-1,1h-6c-.54999,0-1-.45001-1-1v-4c0-.54999.45001-1,1-1h6c.54999,0,1,.45001,1,1v4Z"/>
        <path d="M31,21c0,4.96228,4.03723,9,9,9s9-4.03772,9-9-4.03723-9-9-9-9,4.03766-9,9ZM41,16v1h1c.55225,0,1,.44727,1,1s-.44775,1-1,1h-2.62402c-.20752,0-.37598.16895-.37598.37598,0,.16504.11035.31348.26807.36035l2.03857.61133c1.01318.30469,1.69336,1.21875,1.69336,2.27637,0,1.18176-.86908,2.15625-2,2.33795v1.03802c0,.55273-.44775,1-1,1s-1-.44727-1-1v-1h-1c-.55225,0-1-.44727-1-1s.44775-1,1-1h2.62402c.20752,0,.37598-.16895.37598-.37598,0-.16504-.11035-.31348-.26807-.36035l-2.03857-.61133c-1.01318-.30469-1.69336-1.21875-1.69336-2.27637,0-1.18176.86908-2.15625,2-2.33795v-1.03802c0-.55273.44775-1,1-1s1,.44727,1,1Z"/>
        <path d="M46.30475,30h8.69525v-6h-4.42645c-.69861,2.45789-2.22754,4.56561-4.2688,6Z"/>
        <path d="M29.42645,24h-1.42645c-1.65686,0-3,1.34314-3,3s1.34314,3,3,3h5.69525c-2.04126-1.43439-3.57019-3.54211-4.2688-6Z"/>
      </g>
    </g>
  </g>
</svg>