<?xml version="1.0" encoding="UTF-8"?>
<svg xmlns="http://www.w3.org/2000/svg" version="1.1" viewBox="0 0 64 64">
  <!-- Generator: Adobe Illustrator 28.7.1, SVG Export Plug-In . SVG Version: 1.2.0 Build 142)  -->
  <g>
    <g id="Glyph">
      <g>
        <path d="M53,36.13911c0-1.88965-.80371-3.70068-2.20508-4.96875-1.40088-1.26758-3.28027-1.8877-5.1626-1.69873l-29.94971,2.99512c-2.66943.2666-4.68262,2.49072-4.68262,5.17334,0,2.86719,2.33252,5.19971,5.19971,5.19971h30.09961c3.69482,0,6.70068-3.00586,6.70068-6.70068ZM46,38.83979c-1.24963,0-2.32098-.76892-2.77142-1.85767l-4.22858.70477v.15289c0,.55225-.44775,1-1,1s-1-.44775-1-1v-2c0-.55225.44775-1,1-1,.49036,0,.87939.35974.96472.82544l4.17944-.69653c.37598-1.22772,1.50653-2.12891,2.85583-2.12891,1.6543,0,3,1.3457,3,3s-1.3457,3-3,3Z"/>
        <circle cx="46" cy="35.83979" r="1"/>
        <path d="M50.59003,28.58979l.69-2.77002c-.09003.02002-.18005.02002-.28003.02002h-5.78003l-.41998,1.70001.63-.06c.28998-.03003.58002-.04004.87001-.04004,1.5013,0,2.99303.3918,4.29002,1.15002Z"/>
        <path d="M42,23.83979h9c.55225,0,1-.44775,1-1v-4c0-.55225-.44775-1-1-1h-5c-2.75684,0-5,2.24316-5,5,0,.55225.44775,1,1,1Z"/>
        <polygon points="44.61249 46.83979 50.72089 46.83979 50.0542 44.83979 43.9458 44.83979 44.61249 46.83979"/>
        <polygon points="13.27911 46.83979 19.38751 46.83979 20.0542 44.83979 13.9458 44.83979 13.27911 46.83979"/>
        <path d="M7,48.83979v3c0,.55225.44775,1,1,1h48c.55225,0,1-.44775,1-1v-3H7Z"/>
        <path d="M11.07001,21.13978l-2.31,6.91998c-.12.35999-.02002.76001.23999,1.03003l2.83002,2.82996c1.02997-.78998,2.27997-1.31,3.64996-1.43994l3.09003-.31006-3.14001-3.13995,1.34003-3.98999-5.70001-1.90002Z"/>
        <path d="M9.74121,18.30708c.12109.22266.32227.3916.5625.47168,0,0,8.84753,2.93812,8.85307,2.93995,1.57005.52136,3.25818-.36827,3.7934-1.90719.53269-1.53164-.38993-3.28855-1.90184-3.79058l-6.97852-2.31592-.53613-.98584c-.78029-1.4348-2.63421-1.98441-4.06836-1.20215-1.45068.78955-1.99023,2.61279-1.20264,4.06445l1.47852,2.72559Z"/>
      </g>
    </g>
  </g>
</svg>