<?xml version="1.0" encoding="UTF-8"?>
<svg xmlns="http://www.w3.org/2000/svg" version="1.1" viewBox="0 0 64 64">
  <!-- Generator: Adobe Illustrator 28.7.1, SVG Export Plug-In . SVG Version: 1.2.0 Build 142)  -->
  <g>
    <g id="Glyph">
      <g>
        <rect x="28.5" y="7" width="10" height="8" rx="2" ry="2"/>
        <path d="M49.5,11c0-2.16139-1.93197-3.9065-4.08002-3.70001l-5.09998.51001c.12.38.17999.77997.17999,1.19v4c0,.40997-.06.81-.17999,1.19,0,0,5.09801.50981,5.09999.51001,2.1216.21216,4.07997-1.53668,4.08-3.70001Z"/>
        <path d="M26.67999,14.19c-.12-.38-.17999-.78003-.17999-1.19v-4c0-.41003.06-.81.17999-1.19l-5.09997-.51001c-2.14956-.21496-4.08,1.54401-4.08002,3.69998-.00002,2.17194,1.93433,3.87794,4.08002,3.70005l5.09998-.51001Z"/>
        <path d="M40.67725,39.43164c-.65479.94775-2.17725,3.29004-2.17725,4.56836,0,1.6543,1.3457,3,3,3s3-1.3457,3-3c0-1.27832-1.52246-3.62061-2.17725-4.56836-.37305-.54102-1.27246-.54102-1.64551,0Z"/>
        <path d="M40.67725,49.43164c-.65479.94775-2.17725,3.29004-2.17725,4.56836,0,1.6543,1.3457,3,3,3s3-1.3457,3-3c0-1.27832-1.52246-3.62061-2.17725-4.56836-.37305-.54102-1.27246-.54102-1.64551,0Z"/>
        <path d="M50.32275,43.43164c-.37305-.54102-1.27246-.54102-1.64551,0-.65479.94775-2.17725,3.29004-2.17725,4.56836,0,1.6543,1.3457,3,3,3s3-1.3457,3-3c0-1.27832-1.52246-3.62061-2.17725-4.56836Z"/>
        <path d="M33.67725,43.43164c-.65479.94775-2.17725,3.29004-2.17725,4.56836,0,1.6543,1.3457,3,3,3s3-1.3457,3-3c0-1.27832-1.52246-3.62061-2.17725-4.56836-.37305-.54102-1.27246-.54102-1.64551,0Z"/>
        <rect x="30.5" y="17" width="6" height="2"/>
        <path d="M11.5,18v18c0,.55225.44775,1,1,1h3v-20h-3c-.55225,0-1,.44775-1,1Z"/>
        <path d="M44.5,23h-4v-2h-14v2h-5v8h16v5c0,.55225.44775,1,1,1h6c.55225,0,1-.44775,1-1v-12c0-.55225-.44775-1-1-1Z"/>
        <rect x="17.5" y="19" width="2" height="16"/>
      </g>
    </g>
  </g>
</svg>