<?xml version="1.0" encoding="UTF-8"?>
<svg id="Glyph" xmlns="http://www.w3.org/2000/svg" version="1.1" viewBox="0 0 64 64">
  <path d="M8.32001,49.98999l7.27997-2.41998c2.01001-.67999,4.17004-.75,6.24005-.21002.72998.17999,1.44995.45001,2.15998.79999,1.29137.6457,2.56669,1.35218,3.93999,1.80999.98999.32001,2.02002.51001,3.06.59003v-24.12l-12.52002,7.70996c-.38.23004-.56.67999-.44995,1.11005l2.65997,9.83997c-1.92999-.23999-3.88-.04999-5.72998.57001l-7.28003,2.41998c-.52002.17999-.79999.73999-.63,1.27002.17999.52002.73999.79999,1.27002.63ZM22.12,35.98999l4.35999-2.67999c.47003-.29004,1.08002-.15002,1.37.33002.29004.46997.14001,1.07996-.32996,1.37,0,0-4.36005,2.67999-4.36005,2.68-.46516.29069-1.08556.13403-1.36999-.33002-.28998-.46997-.13995-1.08002.33002-1.37Z" style="fill: #000; stroke-width: 0px;"/>
  <path d="M56.31641,55.13916l-7.28418-2.42822c-3.29297-1.09717-6.81836-.84717-9.92578.70557l-2.1875,1.09375c-3.08008,1.54004-6.7583,1.54004-9.83838,0l-2.1875-1.09375c-3.10693-1.55322-6.63037-1.80322-9.9248-.70557l-7.28467,2.42822c-.52393.1748-.80713.74121-.63232,1.26514.1748.52344.73828.80908,1.26514.63232l7.28467-2.42822c2.78613-.92969,5.76904-.71777,8.39746.59717l2.1875,1.09375c1.82031.91016,3.81738,1.36475,5.81396,1.36475,1.99707,0,3.99316-.45459,5.81348-1.36475l2.1875-1.09375c2.62793-1.31494,5.61133-1.52637,8.39844-.59717l7.28418,2.42822c.5293.17725,1.08984-.10889,1.26465-.63232.1748-.52393-.1084-1.09033-.63184-1.26514Z" style="fill: #000; stroke-width: 0px;"/>
  <path d="M33,48.57001v1.98999c1.03998-.08002,2.07-.27002,3.05999-.59003,1.37283-.44376,2.65324-1.1666,3.94001-1.81.70001-.34998,1.42999-.62,2.16998-.79999,2.06-.53998,4.22003-.46997,6.23004.21002l7.27997,2.41998c.53003.16998,1.10004-.10999,1.27002-.63.16998-.53003-.10999-1.09003-.63-1.27002l-7.28003-2.41998c-1.84998-.62-3.81-.81-5.73999-.57001l2.66003-9.83997c.12-.43005-.06-.88-.44-1.11005l-12.52002-7.70996v22.13Z" style="fill: #000; stroke-width: 0px;"/>
  <path d="M32,24c.56,0,1.09998.14996,1.57001.45001l10.42999,6.41998v-7.87c0-.54999-.45001-1-1-1h-22c-.54999,0-1,.45001-1,1v7.85999l10.42999-6.40997c.47003-.30005,1.01001-.45001,1.57001-.45001Z" style="fill: #000; stroke-width: 0px;"/>
  <path d="M42,19v1h-20v-1c0-.54999.45001-1,1-1h18c.54999,0,1,.45001,1,1Z" style="fill: #000; stroke-width: 0px;"/>
  <path d="M40,15v1h-16v-1c0-.54999.45001-1,1-1h4v-3c0-.54999.45001-1,1-1h4c.54999,0,1,.45001,1,1v3h4c.54999,0,1,.45001,1,1Z" style="fill: #000; stroke-width: 0px;"/>
</svg>