<?xml version="1.0" encoding="UTF-8"?>
<svg xmlns="http://www.w3.org/2000/svg" version="1.1" viewBox="0 0 64 64">
  <!-- Generator: Adobe Illustrator 28.7.1, SVG Export Plug-In . SVG Version: 1.2.0 Build 142)  -->
  <g>
    <g id="Glyph">
      <g>
        <polygon points="23.38184 43 7.81958 43 8.15289 45 22.38184 45 23.38184 43"/>
        <path d="M33,31H9c-.54999,0-1,.45001-1,1v3h31.31c-1.13-2.35999-3.52997-4-6.31-4Z"/>
        <path d="M56.76001,37.34998c-.19-.21997-.47003-.34998-.76001-.34998H8c-.28998,0-.57001.13-.76001.34998-.19.22998-.27997.52002-.22998.81l.47998,2.84003h17.51001c.34998,0,.66998.17999.84998.46997.18005.29999.20001.67004.04004.98004l-2,4c-.17004.33997-.51001.54999-.89001.54999h-14.51001l1.52002,9.15997c.08002.48999.5.84003.98999.84003h33.53003c5.39996,0,9.95996-3.87,10.84998-9.19l1.60999-9.65002c.04999-.28998-.03998-.58002-.22998-.81ZM44,43h-2c-.54999,0-1-.45001-1-1s.45001-1,1-1h2c.54999,0,1,.45001,1,1s-.45001,1-1,1ZM50,43h-2c-.54999,0-1-.45001-1-1s.45001-1,1-1h2c.54999,0,1,.45001,1,1s-.45001,1-1,1Z"/>
        <path d="M15,13.65674v1.34326h6v-3.41455c0-.26514-.10547-.51953-.29297-.70703l-3.58594-3.58545c-.39062-.39062-1.02344-.39062-1.41406,0l-2.82812,2.82812c-.39062.39062-.39062,1.02344,0,1.41406l2.12109,2.12158Z"/>
        <path d="M34,18c0-.54999-.45001-1-1-1H11c-.54999,0-1,.45001-1,1v3h24v-3Z"/>
        <rect x="12" y="23" width="20" height="6"/>
      </g>
    </g>
  </g>
</svg>