<?xml version="1.0" encoding="UTF-8"?>
<svg id="Glyph" xmlns="http://www.w3.org/2000/svg" version="1.1" viewBox="0 0 64 64">
  <path d="M56.65997,32.25l-9-8c-.17999-.16003-.40997-.25-.65997-.25h-1v-1c0-1.6543-1.3457-3-3-3s-3,1.3457-3,3v1h-3v26h4c0-2.76001,2.23999-5,5-5s5,2.23999,5,5h5c.54999,0,1-.45001,1-1v-16c0-.29004-.12-.56-.34003-.75ZM54,38c0,.54999-.45001,1-1,1h-12c-.54999,0-1-.45001-1-1v-9c0-.54999.45001-1,1-1h5.47998c.23999,0,.48004.08997.66003.25l6.51996,5.79999c.22003.19.34003.46002.34003.75v3.20001Z" style="fill: #000; stroke-width: 0px;"/>
  <path d="M46,47c-1.65002,0-3,1.34998-3,3s1.34998,3,3,3,3-1.35004,3-3-1.34998-3-3-3ZM46,51c-.54999,0-1-.45001-1-1s.45001-1,1-1,1,.45001,1,1-.45001,1-1,1Z" style="fill: #000; stroke-width: 0px;"/>
  <polygon points="42 30 42 37 52 37 52 35.24561 46.09961 30 42 30" style="fill: #000; stroke-width: 0px;"/>
  <circle cx="15" cy="28" r="3" style="fill: #000; stroke-width: 0px;"/>
  <rect x="24" y="25" width="6" height="2" style="fill: #000; stroke-width: 0px;"/>
  <rect x="24" y="29" width="6" height="6" style="fill: #000; stroke-width: 0px;"/>
  <path d="M20,47c-1.65002,0-3,1.34998-3,3s1.34998,3,3,3,3-1.35004,3-3-1.34998-3-3-3ZM20,51c-.54999,0-1-.45001-1-1s.45001-1,1-1,1,.45001,1,1-.45001,1-1,1Z" style="fill: #000; stroke-width: 0px;"/>
  <path d="M7,47c0,1.64996,1.34998,3,3,3h5c0-2.76001,2.23999-5,5-5s5,2.23999,5,5h10v-8H7v5Z" style="fill: #000; stroke-width: 0px;"/>
  <path d="M32,20h-7v-1h7c.55225,0,1-.44775,1-1s-.44775-1-1-1h-1v-4h1c.55225,0,1-.44775,1-1s-.44775-1-1-1H8c-.55225,0-1,.44775-1,1s.44775,1,1,1h1v4h-1c-.55225,0-1,.44775-1,1s.44775,1,1,1h7v1h-5c-1.65002,0-3,1.34998-3,3v17h28v-17c0-1.65686-1.34314-3-3-3ZM13,17h-2v-4h2v4ZM27,13h2v4h-2v-4ZM23,13h2v4h-2v-4ZM19,13h2v4h-2v-4ZM23,19v1h-6v-1h6ZM15,13h2v4h-2v-4ZM15,33c-1.13,0-2.15997-.39001-3-1.03003v4.03003c0,.54999-.45001,1-1,1s-1-.45001-1-1v-8c0-2.76001,2.23999-5,5-5s5,2.23999,5,5-2.23999,5-5,5ZM32,36c0,.54999-.45001,1-1,1h-8c-.54999,0-1-.45001-1-1v-12c0-.54999.45001-1,1-1h8c.54999,0,1,.45001,1,1v12Z" style="fill: #000; stroke-width: 0px;"/>
</svg>