<?xml version="1.0" encoding="utf-8"?>
<!-- Generator: Adobe Illustrator 28.3.0, SVG Export Plug-In . SVG Version: 6.00 Build 0)  -->
<svg version="1.1" id="Glyph" xmlns="http://www.w3.org/2000/svg" xmlns:xlink="http://www.w3.org/1999/xlink" x="0px" y="0px"
	 viewBox="0 0 48 48" enable-background="new 0 0 48 48" xml:space="preserve">
<g>
	<path d="M40.73999,36.31C39.83002,37.33997,38.48999,38,37,38s-2.83002-0.66003-3.73999-1.69C31.88,37.40997,31,39.09998,31,41v1
		c0,0.54999,0.45001,1,1,1h10c0.54999,0,1-0.45001,1-1v-1C43,39.09998,42.12,37.40997,40.73999,36.31z"/>
	<circle cx="37" cy="33" r="3"/>
	<path d="M32,19c0.55127,0,0.99951-0.44824,1-0.99902c-0.0083-0.30615-0.42432-1.17725-1-2.14746
		c-0.57617,0.9707-0.9917,1.8418-1,2.14746C31,18.55127,31.44873,19,32,19z"/>
	<circle cx="20" cy="22" r="2.06982"/>
	<path d="M24,37.18427V35h8.40997C32.15002,34.39001,32,33.70996,32,33c0-2.76001,2.23999-5,5-5
		c0.71002,0,1.39001,0.14996,2,0.40997V11H7v21c0,1.64996,1.34998,3,3,3h12v2.18427C20.8385,37.59839,20,38.69806,20,40
		c0,1.6543,1.3457,3,3,3s3-1.3457,3-3C26,38.69806,25.1615,37.59839,24,37.18427z M31.17725,13.43164
		c0.37305-0.54102,1.27246-0.54102,1.64551,0C33.47754,14.37939,35,16.72168,35,18c0,1.6543-1.3457,3-3,3s-3-1.3457-3-3
		C29,16.72168,30.52246,14.37939,31.17725,13.43164z M22.73584,28.6084l-2.02881,2.02881
		C20.51172,30.83252,20.25586,30.93018,20,30.93018s-0.51172-0.09766-0.70703-0.29297l-2.02881-2.02881H14.3916
		c-0.55225,0-1-0.44775-1-1v-2.87256l-2.02881-2.02881c-0.39062-0.39062-0.39062-1.02344,0-1.41406l2.02881-2.02881V16.3916
		c0-0.55225,0.44775-1,1-1h2.87256l2.02881-2.02881c0.39062-0.39062,1.02344-0.39062,1.41406,0l2.02881,2.02881h2.87256
		c0.55225,0,1,0.44775,1,1v2.87256l2.02881,2.02881c0.39062,0.39062,0.39062,1.02344,0,1.41406l-2.02881,2.02881v2.87256
		c0,0.55225-0.44775,1-1,1H22.73584z"/>
	<path d="M41,8V6c0-0.54999-0.45001-1-1-1H6C5.45001,5,5,5.45001,5,6v2c0,0.55225,0.44769,1,1,1h34C40.55231,9,41,8.55225,41,8z"/>
	<path d="M24.90137,20.38525c-0.1875-0.1875-0.29297-0.44189-0.29297-0.70703V17.3916h-2.28662
		c-0.26514,0-0.51953-0.10547-0.70703-0.29297L20,15.48389l-1.61475,1.61475c-0.1875,0.1875-0.44189,0.29297-0.70703,0.29297
		H15.3916v2.28662c0,0.26514-0.10547,0.51953-0.29297,0.70703L13.48389,22l1.61475,1.61475
		c0.1875,0.1875,0.29297,0.44189,0.29297,0.70703v2.28662h2.28662c0.26514,0,0.51953,0.10547,0.70703,0.29297L20,28.51611
		l1.61475-1.61475c0.1875-0.1875,0.44189-0.29297,0.70703-0.29297h2.28662v-2.28662c0-0.26514,0.10547-0.51953,0.29297-0.70703
		L26.51611,22L24.90137,20.38525z M20,26.06982c-2.24414,0-4.06982-1.82568-4.06982-4.06982S17.75586,17.93018,20,17.93018
		S24.06982,19.75586,24.06982,22S22.24414,26.06982,20,26.06982z"/>
</g>
</svg>
