<?xml version="1.0" encoding="UTF-8"?>
<svg id="Glyph" xmlns="http://www.w3.org/2000/svg" version="1.1" viewBox="0 0 48 48">
  <path d="M24,5c-2.21002,0-4.34003.73999-6.19,2.12h12.38c-1.84998-1.38-3.97998-2.12-6.19-2.12Z" fill="#000" stroke-width="0"/>
  <path d="M24,22.5c-2.75684,0-5,1.79395-5,4s2.24316,4,5,4,5-1.79395,5-4-2.24316-4-5-4ZM23,27.5c0,.55273-.44727,1-1,1s-1-.44727-1-1v-2c0-.55273.44727-1,1-1s1,.44727,1,1v2ZM27,27.5c0,.55273-.44727,1-1,1s-1-.44727-1-1v-2c0-.55273.44727-1,1-1s1,.44727,1,1v2Z" fill="#000" stroke-width="0"/>
  <path d="M36,19.76996c0-.33997-.01001-.67999-.03003-1.00995-.31.07996-.63995.12-.96997.12h-9c-.75,0-1.46002-.27002-2-.76001-.53998.48999-1.25.76001-2,.76001h-9c-.33002,0-.65997-.04004-.96997-.12-.02002.33997-.03003.67999-.03003,1.00995,0,8.14001,5.38,14.77002,12,14.77002s12-6.63,12-14.77002ZM24,32.5c-3.85938,0-7-2.69141-7-6s3.14062-6,7-6,7,2.69141,7,6-3.14062,6-7,6Z" fill="#000" stroke-width="0"/>
  <path d="M13,16.88458h9c.33435,0,.64655-.16705.83203-.44525l1.16797-1.75201,1.16797,1.75201c.18549.2782.49768.44525.83203.44525h9c1.10455,0,2-.89539,2-2v-3.76923c0-1.10455-.89545-2-2-2H13c-1.10455,0-2,.89545-2,2v3.76923c0,1.10461.89545,2,2,2Z" fill="#000" stroke-width="0"/>
  <path d="M35.82001,28.73999c-1.69,3.19-4.23999,5.64001-7.27002,6.89001l2.14001,2.13,7.07001-7.07001-1.94-1.95001Z" fill="#000" stroke-width="0"/>
  <path d="M42.71002,32.81l-2.05298-2.05298-9.90002,9.90002,2.05298,2.05292c.19.19.45001.29004.70001.29004.26001,0,.52002-.10004.70996-.29004l8.49005-8.48999c.38995-.39001.38995-1.01996,0-1.40997Z" fill="#000" stroke-width="0"/>
  <path d="M12.17999,28.73999l-1.94,1.95001,7.07001,7.07001,2.14001-2.13c-3.03003-1.25-5.58002-3.70001-7.27002-6.89001Z" fill="#000" stroke-width="0"/>
  <path d="M5.28998,32.81c-.38995.39001-.38995,1.01996,0,1.40997l8.49005,8.48999c.18994.19.44995.29004.70996.29004.25,0,.51001-.10004.70001-.29004l2.05298-2.05292-9.90002-9.90002-2.05298,2.05298Z" fill="#000" stroke-width="0"/>
</svg>