<?xml version="1.0" encoding="UTF-8"?>
<svg id="Glyph" xmlns="http://www.w3.org/2000/svg" version="1.1" viewBox="0 0 48 48">
  <path d="M5,37h14v-9H5v9ZM9.29297,32.29297c.39062-.39062,1.02344-.39062,1.41406,0l.29297.29297,2.29297-2.29297c.39062-.39062,1.02344-.39062,1.41406,0s.39062,1.02344,0,1.41406l-3,3c-.19531.19531-.45117.29297-.70703.29297s-.51172-.09766-.70703-.29297l-1-1c-.39062-.39062-.39062-1.02344,0-1.41406Z" fill="#000" stroke-width="0"/>
  <path d="M5,40c0,1.6543,1.3457,3,3,3h8c1.6543,0,3-1.3457,3-3v-1H5v1Z" fill="#000" stroke-width="0"/>
  <path d="M40,12h-16c-1.6543,0-3,1.3457-3,3h-2v-1c0-1.6543-1.3457-3-3-3h-8c-1.6543,0-3,1.3457-3,3v12h14v-3h2c0,1.6543,1.3457,3,3,3h16c1.6543,0,3-1.3457,3-3v-8c0-1.6543-1.3457-3-3-3ZM14.70703,18.70703c-.36768.36761-1.03174.38232-1.41406,0l-.29297-.29297v3.58594c0,.55225-.44775,1-1,1s-1-.44775-1-1v-3.58594l-.29297.29297c-.39062.39062-1.02344.39062-1.41406,0s-.39062-1.02344,0-1.41406l2-2c.39062-.39062,1.02344-.39062,1.41406,0l2,2c.39056.39056.39062,1.02332,0,1.41406ZM21,21h-2v-4h2v4Z" fill="#000" stroke-width="0"/>
  <path d="M17,8c0-1.6543-1.3457-3-3-3h-4c-1.6543,0-3,1.3457-3,3v1h10v-1Z" fill="#000" stroke-width="0"/>
</svg>