<?xml version="1.0" encoding="UTF-8"?>
<svg id="Glyph" xmlns="http://www.w3.org/2000/svg" version="1.1" viewBox="0 0 48 48">
  <path d="M31.00186,10.99388c-3.30859,0-6,2.69141-6,6s2.69141,6,6,6,6-2.69141,6-6-2.69141-6-6-6ZM34.20889,16.20091l-3,3c-.19531.19531-.45117.29297-.70703.29297s-.51172-.09766-.70703-.29297l-2-2c-.39062-.39062-.39062-1.02344,0-1.41406s1.02344-.39062,1.41406,0l1.29297,1.29297,2.29297-2.29297c.39062-.39062,1.02344-.39062,1.41406,0s.39062,1.02344,0,1.41406Z" fill="#000" stroke-width="0"/>
  <path d="M42.42673,15.11034c-.43359-.6427-.6427-1.42249-.58771-2.19769.04596-.67157-.1073-1.33417-.44531-1.91919-.33899-.58502-.83655-1.04926-1.43964-1.34314-.69678-.33984-1.2674-.91138-1.60724-1.60815-.2948-.60309-.75903-1.10071-1.34497-1.44055-.58325-.33624-1.24402-.49127-1.91919-.44348-.77521.05316-1.55499-.15503-2.19678-.58862-1.11603-.75183-2.65204-.75183-3.76807,0-.64178.43445-1.43146.64813-2.19769.58771-.66705-.04327-1.33276.1073-1.91919.44531-.58459.33807-1.04883.83655-1.34271,1.43964-.34027.69678-.9118,1.2674-1.60907,1.60815-.60437.29474-1.10199.75903-1.43915,1.34406-.33759.58411-.49127,1.24756-.4444,1.91827.05408.77429-.15503,1.55499-.58911,2.19769-.37585.55798-.57465,1.20886-.57465,1.88403s.19879,1.32599.57465,1.88397c.43408.64276.64319,1.4234.58911,2.19684-.04688.67157.10681,1.33502.44397,1.91919.33759.58502.83521,1.04926,1.43958,1.34406.69775.3407,1.26923.91132,1.60864,1.60815.29431.60394.75903,1.10156,1.34448,1.44049.58368.33624,1.2431.49042,1.91876.44354.77344-.05408,1.55408.15503,2.19678.58862.55798.37592,1.20978.57513,1.88403.57513s1.32605-.19922,1.88312-.57513c.64362-.43359,1.4234-.64813,2.19861-.58777.67249.04419,1.33502-.10815,1.91919-.44531.58502-.33893,1.04926-.83649,1.34314-1.43958.33984-.69684.91138-1.26831,1.60815-1.6073.60309-.29474,1.10065-.75897,1.44049-1.34491.33716-.58417.49042-1.2467.44354-1.91919-.05408-.77435.15503-1.55408.58862-2.19684.37592-.55798.57513-1.20972.57513-1.88397,0-.67432-.19922-1.32605-.57513-1.88403ZM31.00186,24.99388c-4.41113,0-8-3.58887-8-8s3.58887-8,8-8,8,3.58887,8,8-3.58887,8-8,8Z" fill="#000" stroke-width="0"/>
  <circle cx="17.50186" cy="29.99437" r="4" fill="#000" stroke-width="0"/>
  <path d="M29.50186,33.39433c-1.25-.70996-1.98999-1.97998-1.98999-3.39996,0-.04004,0-.08002.01001-.12-.12-.03003-.23999-.05005-.36005-.05005h-.09998c-.13.01001-.25.01001-.38.01001-.92999,0-1.85999-.23999-2.67999-.70996-.22913-.1355-.44617-.28619-.651-.44977.09595.42529.151.86591.151,1.31976,0,3.30859-2.69141,6-6,6s-6-2.69141-6-6,2.69141-6,6-6c.5246,0,1.03094.07458,1.51624.20166-.04352-.06873-.09576-.13068-.13623-.20166-.53998-.92999-.78998-1.98999-.71002-3.06.02002-.32001-.07001-.67004-.25-.94-.59998-.89001-.91998-1.92999-.91998-3h-1.52002c-.54999,0-1,.45001-1,1,0,1.40997-.72998,2.66998-1.95996,3.39001-1.25.71997-2.75.72998-4,.00995-.48004-.26996-1.09003-.10999-1.36005.36005l-2.01996,3.46997c-.14001.22998-.17999.5-.10999.76001.06995.26001.23999.47998.46997.60999,1.25.71002,1.98999,1.97998,1.98999,3.40002s-.73999,2.69-1.98999,3.39996c-.22998.13-.40002.35004-.46997.61005-.07001.25995-.03003.52997.10999.75995l2.01996,3.47003c.27002.46997.88.63,1.36005.35999,1.25-.71997,2.75-.70996,4,.01001,1.22998.71997,1.95996,1.97998,1.95996,3.39001,0,.54999.45001,1,1,1h4.04004c.54999,0,1-.45001,1-1,0-1.41003.72998-2.67004,1.95996-3.39001,1.25-.71997,2.75-.72998,4.01001-.01001.47003.28003,1.08002.10999,1.35999-.35999l2.01001-3.47003c.14001-.22998.17999-.5.10999-.75995-.06995-.26001-.23999-.48004-.46997-.61005Z" fill="#000" stroke-width="0"/>
</svg>