<?xml version="1.0" encoding="UTF-8"?>
<svg id="Glyph" xmlns="http://www.w3.org/2000/svg" version="1.1" viewBox="0 0 64 64">
  <rect x="33" y="37" width="14" height="10" fill="#000" stroke-width="0"/>
  <rect x="33" y="29" width="14" height="2" fill="#000" stroke-width="0"/>
  <path d="M51,47v-22h-22v22h2v-11c0-.55273.44727-1,1-1h16c.55273,0,1,.44727,1,1v11h2ZM48,33h-16c-.55273,0-1-.44727-1-1v-4c0-.55273.44727-1,1-1h16c.55273,0,1,.44727,1,1v4c0,.55273-.44727,1-1,1Z" fill="#000" stroke-width="0"/>
  <path d="M29,8c0-.55273-.44727-1-1-1h-10c-.55273,0-1,.44727-1,1v1h12v-1Z" fill="#000" stroke-width="0"/>
  <path d="M38,8v2c0,2.76001-2.23999,5-5,5v2H13v-5c0-.54999.45001-1,1-1h18c.54999,0,1,.45001,1,1v1c1.65002,0,3-1.35004,3-3v-2c0-.54999.45001-1,1-1s1,.45001,1,1Z" fill="#000" stroke-width="0"/>
  <path d="M57,22v25h-4v-23c0-.54999-.45001-1-1-1H12c-.54999,0-1,.45001-1,1v23h-4v-25c0-1.65002,1.34998-3,3-3h44c1.65002,0,3,1.34998,3,3Z" fill="#000" stroke-width="0"/>
  <path d="M13,25v22h14v-22h-14ZM24.89453,33.44727l-5,10c-.2055.411-.67842.6292-1.12403.52637-.45117-.10742-.77051-.50977-.77051-.97363v-6h-2c-.31348,0-.60938-.14746-.79883-.39746-.18848-.25098-.24902-.5752-.16309-.87695l2-7c.12305-.42969.51562-.72559.96191-.72559h4c.30762,0,.59863.1416.78809.38477.18945.24219.25684.55859.18164.85742l-.68848,2.75781h1.71875c.34668,0,.66797.17969.85059.47461s.19922.66309.04395.97266Z" fill="#000" stroke-width="0"/>
  <path d="M46.10547,56.44727c.16992.33887.51562.55273.89453.55273h4c.55273,0,1-.44727,1-1v-1h-6.61816l.72363,1.44727Z" fill="#000" stroke-width="0"/>
  <path d="M12,56c0,.55273.44727,1,1,1h4c.37891,0,.72461-.21387.89453-.55273l.72363-1.44727h-6.61816v1Z" fill="#000" stroke-width="0"/>
  <path d="M57,49v1c0,1.64996-1.34998,3-3,3H10c-1.65002,0-3-1.35004-3-3v-1h50Z" fill="#000" stroke-width="0"/>
  <path d="M20.21191,33.61523c-.18945-.24219-.25684-.55859-.18164-.85742l.68848-2.75781h-1.96484l-1.42773,5h1.67383c.55273,0,1,.44727,1,1v2.76367l2.38184-4.76367h-1.38184c-.30762,0-.59863-.1416-.78809-.38477Z" fill="#000" stroke-width="0"/>
</svg>