<?xml version="1.0" encoding="utf-8"?>
<!-- Generator: Adobe Illustrator 28.2.0, SVG Export Plug-In . SVG Version: 6.00 Build 0)  -->
<svg version="1.1" id="Glyph" xmlns="http://www.w3.org/2000/svg" xmlns:xlink="http://www.w3.org/1999/xlink" x="0px" y="0px"
	 viewBox="0 0 64 64" enable-background="new 0 0 64 64" xml:space="preserve">
<g>
	<path d="M53,17h-1v-6c0-0.40002-0.23999-0.77002-0.62-0.92004c-0.37-0.15997-0.79999-0.06995-1.09003,0.21002L45,15.58997V11
		c0-0.40002-0.23999-0.77002-0.62-0.92004c-0.37-0.15997-0.79999-0.06995-1.09003,0.21002L38,15.58997V11
		c0-0.40002-0.23999-0.77002-0.62-0.92004c-0.37-0.15997-0.79999-0.06995-1.09003,0.21002L29.59003,17H11c-0.54999,0-1,0.45001-1,1
		v26c0,0.54999,0.45001,1,1,1h26.46997v-9.59003h-2.62c-1.85999,4-5.85999,6.59003-10.38,6.59003
		C18.15002,42,13,36.84998,13,30.52997C13,24.20001,18.15002,19.06,24.46997,19.06c4.52002,0,8.52002,2.58997,10.38,6.58997h9.39001
		c1.65002,0,3,1.34003,3,3V45H53c0.54999,0,1-0.45001,1-1V18C54,17.45001,53.54999,17,53,17z"/>
	<path d="M45.23999,47.57996V28.64996c0-0.56-0.45001-1-1-1h-10.75C32.25,23.72998,28.65002,21.06,24.46997,21.06
		C19.25,21.06,15,25.31,15,30.52997C15,35.75,19.25,40,24.46997,40c4.18005,0,7.78003-2.67004,9.02002-6.59003h5.97998v14.06
		H19.76001c-2.62,0-4.76001,2.14001-4.76001,4.77002C15,54.85999,17.14001,57,19.76001,57h24.47998
		C46.85999,57,49,54.85999,49,52.23999C49,49.95001,47.38,48.03998,45.23999,47.57996z M24,36.06
		c-2.39001,0-4.33002-1.95001-4.33002-4.33002c0-2.04999,2.92004-6.39001,3.51001-7.23999c0.37-0.53998,1.27002-0.53998,1.64001,0
		c0.58997,0.84998,3.51001,5.19,3.51001,7.23999C28.33002,34.10999,26.39001,36.06,24,36.06z M25,53h-6c-0.54999,0-1-0.45001-1-1
		s0.45001-1,1-1h6c0.54999,0,1,0.45001,1,1S25.54999,53,25,53z M31,53h-2c-0.54999,0-1-0.45001-1-1s0.45001-1,1-1h2
		c0.54999,0,1,0.45001,1,1S31.54999,53,31,53z"/>
	<path d="M21.66998,31.72998c0,1.28003,1.04004,2.33002,2.33002,2.33002s2.33002-1.04999,2.33002-2.33002
		C26.33002,30.88,25.15002,28.69,24,26.88C22.84998,28.69,21.66998,30.88,21.66998,31.72998z"/>
	<rect x="12" y="13" width="8" height="2"/>
	<path d="M22,8c0-0.55225-0.44727-1-1-1H11c-0.55273,0-1,0.44775-1,1v3h12V8z"/>
</g>
</svg>
