<?xml version="1.0" encoding="UTF-8"?>
<svg xmlns="http://www.w3.org/2000/svg" version="1.1" viewBox="0 0 64 64">
  <!-- Generator: Adobe Illustrator 28.7.1, SVG Export Plug-In . SVG Version: 1.2.0 Build 142)  -->
  <g>
    <g id="Glyph">
      <g>
        <path d="M47.21002,42.62c-.19-.25-.25-.56-.17999-.85999l.68994-2.76001h-1.96997l-1.41998,5h1.66998c.29999,0,.58002.13.77002.37.19.22998.26996.52997.20996.83002l-.13995.66998,2.15997-2.87h-1c-.31,0-.59998-.14001-.78998-.38Z"/>
        <path d="M47,34c-5.51001,0-10,4.48999-10,10s4.48999,10,10,10,10-4.48999,10-10-4.48999-10-10-10ZM51.79999,42.59998s-5.97644,7.96863-5.99994,7.99988c-.59259.79016-1.98627.25397-1.78003-.79987l.76001-3.79999h-1.78003c-.31,0-.60999-.15002-.79999-.40002s-.25-.57001-.16003-.87l2-7c.12-.42999.51001-.72998.96002-.72998h4c.31,0,.59998.14001.78998.38.19.25.25.56.17999.85999l-.68994,2.76001h1.71997c.38,0,.71997.20996.89001.54999.16998.34003.14001.75-.09003,1.04999Z"/>
        <path d="M19.10156,18.43262l2.52246,1.26172c.78418.3916,1.35547,1.10449,1.56836,1.95605l.45898,1.83496c.09766.38672.41309.67871.80566.74414l3.25.54102c.43848.06934.86133-.14355,1.05859-.53906l.65625-1.3125c.60254-1.20703,1.94531-1.86523,3.27246-1.59961l2.78711.55762c.69043.1377,1.31445.5166,1.75488,1.06836l2.67383,3.34082c.25977.3252.69922.45605,1.0957.32422l.95312-.31738c.2334-.07812.42969-.23828.55176-.45215l3.34076-5.84631c-3.70386-5.9856-10.30975-9.99451-17.8515-9.99451-4.17578,0-8.06091,1.2392-11.33447,3.34857l1.96436,4.58405c.09277.2168.26074.39453.47168.5Z"/>
        <path d="M25.62598,43.74219l-.86426-1.29688c-.18555-.2793-.49707-.44531-.83203-.44531h-3.32422c-.59375,0-1.16992-.17383-1.66406-.50391l-1.60547-1.07031c-.83691-.55762-1.33594-1.49121-1.33594-2.49609v-1.10156c0-.80078.3125-1.55469.87891-2.12109l1.82812-1.82812c.18652-.18652.29297-.44434.29297-.70703v-2.03906c0-.34961-.18652-.67871-.48633-.8584l-3.05762-1.83398c-.89844-.54004-1.45605-1.52637-1.45605-2.57324v-1.90625c0-.30469-.13672-.58984-.37598-.78125l-3.23224-2.58521c-2.13702,3.28796-3.39178,7.20007-3.39178,11.40552,0,10.01617,7.05267,18.4032,16.44977,20.48932l2.29242-6.87799c.09668-.29004.05273-.61523-.11621-.86914Z"/>
        <path d="M47,32c.66998,0,1.32001.04999,1.96002.15997.02997-.38.03998-.76996.03998-1.15997,0-3.19983-.74042-6.22278-2.02576-8.93958l-2.72717,4.77258c-.36719.64258-.95508,1.12402-1.65625,1.35742l-.95117.31641c-.30957.10352-.62793.15332-.94336.15332-.89551,0-1.76953-.40137-2.34863-1.12402l-2.67383-3.3418c-.14648-.18457-.35352-.31055-.58398-.35645l-2.78809-.55762c-.44727-.08887-.89062.13086-1.09082.5332l-.65625,1.3125c-.59277,1.18555-1.86816,1.83594-3.17676,1.61719l-3.24902-.54102c-1.17871-.19629-2.12695-1.07227-2.41699-2.23145l-.45898-1.83594c-.07129-.2832-.26172-.52051-.52246-.65137l-2.52246-1.26172c-.63379-.31641-1.13672-.84961-1.41602-1.50195l-1.79169-4.18103c-1.27411,1.0083-2.42731,2.15778-3.43793,3.42999l3.31165,2.64948c.71582.57324,1.12598,1.42676,1.12598,2.34277v1.90625c0,.34961.18652.67871.48633.8584l3.05762,1.83398c.89844.54004,1.45605,1.52637,1.45605,2.57324v2.03906c0,.80078-.3125,1.55469-.87891,2.12109l-1.82812,1.82812c-.18652.18652-.29297.44434-.29297.70703v1.10156c0,.33496.16602.64648.44531.83203l1.60547,1.07031c.16504.11035.35645.16797.55469.16797h3.32422c1.00488,0,1.93848.49902,2.49609,1.33594l.86328,1.2959c.50977.7627.6416,1.74023.34961,2.6123l-2.19446,6.58423c.83954.10254,1.68903.17163,2.55579.17163,3.09003,0,6.03003-.67004,8.67999-1.89001-1.07001-1.78998-1.67999-3.88-1.67999-6.10999,0-6.62,5.38-12,12-12Z"/>
      </g>
    </g>
  </g>
</svg>