<?xml version="1.0" encoding="UTF-8"?>
<svg xmlns="http://www.w3.org/2000/svg" version="1.1" viewBox="0 0 64 64">
  <!-- Generator: Adobe Illustrator 28.7.1, SVG Export Plug-In . SVG Version: 1.2.0 Build 142)  -->
  <g>
    <g id="Glyph">
      <g>
        <rect x="31" y="38" width="2" height="8"/>
        <path d="M35.21997,27.35999c.48004-.66998.78003-1.47998.78003-2.35999,0-1.17999-.52002-2.22003-1.33002-2.96002l3.33002-1.27997v-7.76001h-12v7.76001l3.33002,1.27997c-.81.73999-1.33002,1.78003-1.33002,2.96002,0,.88.29999,1.69.78003,2.35999-6.73004,1.46997-11.78003,7.46997-11.78003,14.64001,0,8.26996,6.72998,15,15,15s15-6.73004,15-15c0-7.17004-5.04999-13.17004-11.78003-14.64001ZM32,53c-6.07001,0-11-4.92999-11-11s4.92999-11,11-11,11,4.92999,11,11-4.92999,11-11,11Z"/>
        <path d="M32,33c-4.96002,0-9,4.03998-9,9s4.03998,9,9,9,9-4.04004,9-9-4.03998-9-9-9ZM36,48h-8c-.54999,0-1-.45001-1-1s.45001-1,1-1h1v-8h-1c-.54999,0-1-.45001-1-1s.45001-1,1-1h6c.54999,0,1,.45001,1,1v9h1c.54999,0,1,.45001,1,1s-.45001,1-1,1Z"/>
        <path d="M18.64111,17.93359l5.35889,2.0611v-6.99469h-6v4c0,.41357.25488.78467.64111.93359Z"/>
        <path d="M46,8c0-.55225-.44775-1-1-1h-26c-.55225,0-1,.44775-1,1v3h28v-3Z"/>
        <path d="M45.35889,17.93359c.38623-.14893.64111-.52002.64111-.93359v-4h-6v6.99469l5.35889-2.0611Z"/>
      </g>
    </g>
  </g>
</svg>