<?xml version="1.0" encoding="utf-8"?>
<!-- Generator: Adobe Illustrator 28.2.0, SVG Export Plug-In . SVG Version: 6.00 Build 0)  -->
<svg version="1.1" id="Glyph" xmlns="http://www.w3.org/2000/svg" xmlns:xlink="http://www.w3.org/1999/xlink" x="0px" y="0px"
	 viewBox="0 0 64 64" enable-background="new 0 0 64 64" xml:space="preserve">
<g>
	<path d="M48,48c-2.20605,0-4,1.79395-4,4s1.79395,4,4,4s4-1.79395,4-4S50.20605,48,48,48z M48,53c-0.55231,0-1-0.44775-1-1
		c0-0.55231,0.44769-1,1-1s1,0.44769,1,1C49,52.55225,48.55231,53,48,53z"/>
	<path d="M56.70703,30.29297L54.41406,28H45v6h12v-3C57,30.73438,56.89453,30.48047,56.70703,30.29297z"/>
	<rect x="53" y="40" width="4" height="2"/>
	<path d="M43,27c0-0.55273,0.44727-1,1-1h8.41406l-3.70703-3.70703C48.51953,22.10547,48.26562,22,48,22h-8
		c-0.55273,0-1,0.44727-1,1v11h4V27z"/>
	<path d="M39,40h-2V21c0-1.65002-1.34998-3-3-3h-4.52002c-1.62,2.40997-4.37,4-7.47998,4s-5.85999-1.59003-7.47998-4H10
		c-1.65002,0-3,1.34998-3,3v21h14v-4h-1c-3.85999,0-7-3.14001-7-7v-2c0-0.54999,0.45001-1,1-1h2c2.54999,0,4.78003,1.37,6,3.40997
		C23.21997,29.37,25.45001,28,28,28h2c0.54999,0,1,0.45001,1,1v2c0,3.85999-3.14001,7-7,7h-1v4h16v2H7v3c0,1.64996,1.34998,3,3,3
		h0.34998c0.81-2.33002,3.04004-4,5.65002-4s4.84003,1.66998,5.65002,4H34c1.65002,0,3-1.35004,3-3v-1h2v3c0,0.54999,0.45001,1,1,1
		h2.34998c0.81-2.33002,3.04004-4,5.65002-4s4.84003,1.66998,5.65002,4H56c0.54999,0,1-0.45001,1-1v-5h-5c-0.54999,0-1-0.45001-1-1
		v-4c0-0.54999,0.45001-1,1-1h5v-2H39V40z M44,38h2c0.54999,0,1,0.45001,1,1s-0.45001,1-1,1h-2c-0.54999,0-1-0.45001-1-1
		S43.45001,38,44,38z"/>
	<path d="M29,31v-1h-1c-2.75684,0-5,2.24316-5,5v1h1C26.75684,36,29,33.75684,29,31z"/>
	<path d="M16,30h-1v1c0,2.75684,2.24316,5,5,5h1v-1C21,32.24316,18.75684,30,16,30z"/>
	<path d="M22,20c3.85999,0,7-3.14001,7-7s-3.14001-7-7-7s-7,3.14001-7,7S18.14001,20,22,20z M19.16998,12.45001l2-3
		c0.29999-0.46002,0.92004-0.59003,1.38-0.28003c0.46002,0.29999,0.59003,0.91998,0.28003,1.38L21.87,12H24
		c0.37,0,0.71002,0.20001,0.88,0.52997c0.17999,0.32001,0.15997,0.72003-0.04999,1.02002c0,0-1.99548,2.99323-2,3
		c-0.67743,1.01611-2.40204,0.00098-1.66003-1.09998L22.13,14H20c-0.37,0-0.71002-0.20001-0.88-0.53003
		C18.94,13.14996,18.96002,12.75,19.16998,12.45001z"/>
	<path d="M16,48c-2.20605,0-4,1.79395-4,4s1.79395,4,4,4s4-1.79395,4-4S18.20605,48,16,48z M16,53c-0.55231,0-1-0.44775-1-1
		c0-0.55231,0.44769-1,1-1s1,0.44769,1,1C17,52.55225,16.55231,53,16,53z"/>
</g>
</svg>
