<?xml version="1.0" encoding="UTF-8"?>
<svg xmlns="http://www.w3.org/2000/svg" version="1.1" viewBox="0 0 64 64">
  <!-- Generator: Adobe Illustrator 28.7.1, SVG Export Plug-In . SVG Version: 1.2.0 Build 142)  -->
  <g>
    <g id="Glyph">
      <g>
        <path d="M57,8.5v3H7v-3c0-.54999.45001-1,1-1h48c.54999,0,1,.45001,1,1Z"/>
        <circle cx="45" cy="45.5" r="6"/>
        <path d="M45,34.5c-6.06543,0-11,4.93457-11,11s4.93457,11,11,11,11-4.93457,11-11-4.93457-11-11-11ZM45,53.5c-4.41113,0-8-3.58887-8-8s3.58887-8,8-8,8,3.58887,8,8-3.58887,8-8,8Z"/>
        <polygon points="48 19.91406 42 25.91406 42 29.08594 48 23.08594 48 19.91406"/>
        <polygon points="42 23.08997 47.59003 17.5 42 17.5 42 23.08997"/>
        <path d="M42,32.84998c.96002-.22998,1.96997-.34998,3-.34998s2.03998.12,3,.34998v-6.94l-6,6v.94Z"/>
        <rect x="37" y="13.5" width="16" height="2"/>
        <circle cx="19" cy="45.5" r="6"/>
        <path d="M19,34.5c-6.06543,0-11,4.93457-11,11s4.93457,11,11,11,11-4.93457,11-11-4.93457-11-11-11ZM19,53.5c-4.41113,0-8-3.58887-8-8s3.58887-8,8-8,8,3.58887,8,8-3.58887,8-8,8Z"/>
        <polygon points="22 25.91406 16 19.91406 16 23.08594 22 29.08594 22 25.91406"/>
        <polygon points="22 17.5 16.40997 17.5 22 23.08997 22 17.5"/>
        <path d="M16,32.84998c.96002-.22998,1.96997-.34998,3-.34998s2.03998.12,3,.34998v-.94l-6-6v6.94Z"/>
        <rect x="11" y="13.5" width="16" height="2"/>
      </g>
    </g>
  </g>
</svg>