<?xml version="1.0" encoding="UTF-8"?>
<svg id="Glyph" xmlns="http://www.w3.org/2000/svg" version="1.1" viewBox="0 0 64 64">
  <path d="M57,44.03229v2c0,.45001-.31.84998-.76001.96997-7.92999,1.98004-16.08002,2.97003-24.23999,2.97003s-16.31-.98999-24.23999-2.97003c-.45001-.12-.76001-.51996-.76001-.96997v-2c0-1.65997,1.34998-3,3-3h44c1.65002,0,3,1.34003,3,3Z" fill="#000" stroke-width="0"/>
  <path d="M31.6582,32.02771h.68359c1.60449,0,2.9209-1.25586,2.99707-2.85938l.5625-12.00049c.03809-.82715-.25586-1.61279-.82715-2.21191-.57227-.59863-1.34277-.92822-2.16992-.92822h-1.80859c-.82715,0-1.59766.32959-2.16992.92822-.57129.59912-.86523,1.38477-.82715,2.2124l.5625,12.00049c.07617,1.60303,1.39258,2.85889,2.99707,2.85889Z" fill="#000" stroke-width="0"/>
  <path d="M40,18.5423c-.70001-.27002-1.40997-.51001-2.13-.70001l-.52997,11.41998c-.13,2.67004-2.32001,4.77002-5,4.77002h-.68005c-2.67999,0-4.87-2.09998-5-4.77002l-.52997-11.41998c-.72003.19-1.42999.42999-2.13.70001v20.44h16v-20.44Z" fill="#000" stroke-width="0"/>
  <path d="M48.78998,24.81226c-1.87-2.20996-4.16998-4.02997-6.78998-5.37v19.54004h3.04382c.21295-4.9408,1.49609-9.78827,3.74615-14.17004Z" fill="#000" stroke-width="0"/>
  <path d="M53.99811,38.9823c-.01031-4.56116-1.41705-8.83307-3.84808-12.38-1.83386,3.86536-2.9082,8.08679-3.10822,12.38h6.9563Z" fill="#000" stroke-width="0"/>
  <path d="M22,38.9823v-19.54004c-2.62,1.34003-4.91998,3.16003-6.78998,5.37,2.25006,4.38177,3.5332,9.22925,3.74615,14.17004h3.04382Z" fill="#000" stroke-width="0"/>
  <path d="M13.84998,26.60229c-2.43103,3.54694-3.83777,7.81885-3.84808,12.38h6.9563c-.20001-4.29321-1.27435-8.51465-3.10822-12.38Z" fill="#000" stroke-width="0"/>
</svg>