<?xml version="1.0" encoding="UTF-8"?>
<svg xmlns="http://www.w3.org/2000/svg" version="1.1" viewBox="0 0 64 64">
  <!-- Generator: Adobe Illustrator 28.7.1, SVG Export Plug-In . SVG Version: 1.2.0 Build 142)  -->
  <g>
    <g id="Glyph">
      <g>
        <path d="M54.76645,48.59766l-6.34912-6.34863s-5.08984-5.08984-5.091-5.09064l-1.25812-1.258c-.39062-.39062-1.02344-.39062-1.41406,0s-.39062,1.02344,0,1.41406l.55194.55188-3.65594,3.65515c-.39844.40039-1.09424.40039-1.49365,0l-11.63379-11.63379c-.19971-.19922-.30957-.46484-.30957-.74707s.10986-.54785.30957-.74707l3.65576-3.65576s.56396.56396.564.564c.38827.38823,1.02735.38664,1.41403-.00003.39062-.39062.39062-1.02344,0-1.41406l-12.72217-12.72168c-.39062-.39062-1.02344-.39062-1.41406,0s-.39062,1.02344,0,1.41406l.56439.56439-5.11029,5.10944c-2.87451,2.875-3.24609,7.36328-.8833,10.67188,7.3335,10.2666,16.25879,19.19238,26.52783,26.52734,1.45654,1.04102,3.1416,1.55078,4.81689,1.55078,2.13037,0,4.24512-.82422,5.85449-2.43359l5.11011-5.11053.552.55194c.38838.38833,1.02751.38656,1.41406,0,.39062-.39062.39062-1.02344,0-1.41406Z"/>
        <path d="M30.01889,29.28906c-.28613.28613-.37158.71582-.2168,1.08984s.51953.61719.92383.61719h12.22217c6.6167,0,12-5.38281,12-12s-5.3833-12-12-12-12,5.38281-12,12c0,2.53906.81299,5.0127,2.30469,7.05859l-3.23389,3.23438ZM43.05942,24.99609c-.55231,0-1-.44775-1-1,0-.55231.44769-1,1-1s1,.44769,1,1c0,.55225-.44769,1-1,1ZM43.05942,12.99609c1.6543,0,3,1.3457,3,3,0,.95215-.45898,1.85645-1.22754,2.4209-.28857.21094-.77246.66309-.77246,1.31641v.2627c0,.55273-.44775,1-1,1s-1-.44727-1-1v-.2627c0-1.12207.57959-2.18945,1.59033-2.92969.26025-.19141.40967-.48535.40967-.80762,0-.55176-.44873-1-1-1s-1,.44824-1,1c0,.55273-.44775,1-1,1s-1-.44727-1-1c0-1.6543,1.3457-3,3-3Z"/>
      </g>
    </g>
  </g>
</svg>