<?xml version="1.0" encoding="UTF-8"?>
<svg id="Glyph" xmlns="http://www.w3.org/2000/svg" version="1.1" viewBox="0 0 64 64">
  <path d="M15,7c-1.6543,0-3,1.3457-3,3v46c0,.55273.44775,1,1,1h4c.55225,0,1-.44727,1-1V10c0-1.6543-1.3457-3-3-3Z" style="fill: #000; stroke-width: 0px;"/>
  <path d="M49,7c-1.6543,0-3,1.3457-3,3v46c0,.55273.44775,1,1,1h4c.55225,0,1-.44727,1-1V10c0-1.6543-1.3457-3-3-3Z" style="fill: #000; stroke-width: 0px;"/>
  <path d="M7,42v8c0,1.64996,1.34998,3,3,3v-14c-1.65002,0-3,1.34998-3,3Z" style="fill: #000; stroke-width: 0px;"/>
  <path d="M54,39v14c1.65002,0,3-1.35004,3-3v-8c0-1.65002-1.34998-3-3-3Z" style="fill: #000; stroke-width: 0px;"/>
  <rect x="25" y="45" width="14" height="2" style="fill: #000; stroke-width: 0px;"/>
  <path d="M20,53h24v-14h-24v14ZM23,44c0-.55273.44775-1,1-1h16c.55225,0,1,.44727,1,1v4c0,.55273-.44775,1-1,1h-16c-.55225,0-1-.44727-1-1v-4Z" style="fill: #000; stroke-width: 0px;"/>
  <path d="M42,12v2h-20v-2c0-.54999-.45001-1-1-1h-1v8h1c.54999,0,1-.45001,1-1v-2h20v2c0,.54999.45001,1,1,1h1v-8h-1c-.54999,0-1,.45001-1,1Z" style="fill: #000; stroke-width: 0px;"/>
</svg>