<?xml version="1.0" encoding="UTF-8"?>
<svg id="Glyph" xmlns="http://www.w3.org/2000/svg" version="1.1" viewBox="0 0 64 64">
  <path d="M56,45h-9v-26H7v29c0,1.64996,1.34998,3,3,3h1c0-3.85999,3.14001-7,7-7s7,3.14001,7,7h4v-29c0-.54999.45001-1,1-1h12c.54999,0,1,.45001,1,1v29h13c.54999,0,1-.45001,1-1v-4c0-.54999-.45001-1-1-1ZM27,32c0,.54999-.45001,1-1,1h-14c-.54999,0-1-.45001-1-1v-10c0-.54999.45001-1,1-1h14c.54999,0,1,.45001,1,1v10Z" style="fill: #000; stroke-width: 0px;"/>
  <path d="M51,56c0,.54999.45001,1,1,1h4c.54999,0,1-.45001,1-1v-3h-6v3Z" style="fill: #000; stroke-width: 0px;"/>
  <path d="M31,51h10v-28h-10v28ZM33,26c0-.54999.45001-1,1-1h4c.54999,0,1,.45001,1,1v4c0,.54999-.45001,1-1,1h-4c-.54999,0-1-.45001-1-1v-4ZM34,34h4c.54999,0,1,.45001,1,1s-.45001,1-1,1h-4c-.54999,0-1-.45001-1-1s.45001-1,1-1ZM34,38h4c.54999,0,1,.45001,1,1s-.45001,1-1,1h-4c-.54999,0-1-.45001-1-1s.45001-1,1-1ZM34,42h4c.54999,0,1,.45001,1,1s-.45001,1-1,1h-4c-.54999,0-1-.45001-1-1s.45001-1,1-1Z" style="fill: #000; stroke-width: 0px;"/>
  <path d="M47,16c0-1.6543-1.3457-3-3-3H10c-1.6543,0-3,1.3457-3,3v1h40v-1Z" style="fill: #000; stroke-width: 0px;"/>
  <rect x="35" y="27" width="2" height="2" style="fill: #000; stroke-width: 0px;"/>
  <rect x="13" y="23" width="2" height="8" style="fill: #000; stroke-width: 0px;"/>
  <rect x="23" y="23" width="2" height="8" style="fill: #000; stroke-width: 0px;"/>
  <rect x="17" y="23" width="4" height="8" style="fill: #000; stroke-width: 0px;"/>
  <circle cx="18" cy="51" r="1" style="fill: #000; stroke-width: 0px;"/>
  <path d="M18,46c-2.76001,0-5,2.23999-5,5s2.23999,5,5,5,5-2.23999,5-5-2.23999-5-5-5ZM18,54c-1.65002,0-3-1.35004-3-3s1.34998-3,3-3,3,1.34998,3,3-1.34998,3-3,3Z" style="fill: #000; stroke-width: 0px;"/>
</svg>