<?xml version="1.0" encoding="UTF-8"?>
<svg id="Glyph" xmlns="http://www.w3.org/2000/svg" version="1.1" viewBox="0 0 64 64">
  <path d="M28.46997,28.86502h7.06006c.96997-2.47003,1.46997-5.17999,1.46997-8,0-4.53003-1.32001-8.85999-3.71997-12.17999-.41003-.57001-.84003-1.07001-1.28003-1.55005-.45001.48004-.88.98004-1.28003,1.54004-2.39996,3.33002-3.71997,7.65997-3.71997,12.19,0,2.82001.5,5.52997,1.46997,8Z" style="fill: #000; stroke-width: 0px;"/>
  <path d="M26,28.86502h.34003c-.88-2.48999-1.34003-5.20001-1.34003-8,0-4.95001,1.46002-9.69,4.09998-13.35004.07001-.10999.15002-.19.23004-.28998-5.42999,1.44-9.33002,7.09998-9.33002,13.64001,0,3.39996,1.03998,6.60999,2.88,9.09998.84998-.69,1.94-1.09998,3.12-1.09998Z" style="fill: #000; stroke-width: 0px;"/>
  <path d="M39,20.86502c0,2.78998-.46002,5.5-1.34003,8h.34003c1.17999,0,2.27002.40997,3.12,1.09998,1.84003-2.48999,2.88-5.70001,2.88-9.09998,0-6.54004-3.90002-12.19-9.33002-13.64001.08002.09998.16003.19.23004.28998,2.63995,3.66003,4.09998,8.40002,4.09998,13.35004Z" style="fill: #000; stroke-width: 0px;"/>
  <path d="M24,50.86502c-.09003,0-.19,0-.28003-.02002l1.31006,5.26001c.10999.45001.50995.76001.96997.76001h12c.46002,0,.85999-.31.96997-.76001l1.31006-5.26001c-.09003.02002-.19.02002-.28003.02002h-16Z" style="fill: #000; stroke-width: 0px;"/>
  <path d="M40,42.86502h-.21973l-1.5069-6.02765c1.5246-.14056,2.72662-1.41168,2.72662-2.97235,0-1.6543-1.3457-3-3-3h-12c-1.6543,0-3,1.3457-3,3,0,1.56055,1.20172,2.8316,2.72614,2.97235l-1.5069,6.02765h-.21924c-1.6543,0-3,1.3457-3,3s1.3457,3,3,3h16c1.6543,0,3-1.3457,3-3s-1.3457-3-3-3ZM27.78076,36.86502h8.43896l1.5,6h-11.43896l1.5-6Z" style="fill: #000; stroke-width: 0px;"/>
</svg>