<?xml version="1.0" encoding="utf-8"?>
<!-- Generator: Adobe Illustrator 28.2.0, SVG Export Plug-In . SVG Version: 6.00 Build 0)  -->
<svg version="1.1" id="Glyph" xmlns="http://www.w3.org/2000/svg" xmlns:xlink="http://www.w3.org/1999/xlink" x="0px" y="0px"
	 viewBox="0 0 64 64" enable-background="new 0 0 64 64" xml:space="preserve">
<g>
	<path d="M45.89941,31C45.43506,28.7207,43.41455,27,41,27s-4.43506,1.7207-4.89941,4H37h8H45.89941z"/>
	<path d="M44.60895,44.71021c-0.2063-0.12323-0.41559-0.24127-0.60895-0.38745c-2.09961,1.58722-5.11652,1.70599-7.37537,0.39148
		c-0.05121-0.02081-0.09119-0.05762-0.13776-0.0863c-0.16309-0.10071-0.33307-0.1889-0.48688-0.30518
		c-2.29688,1.73633-5.70312,1.73633-8,0c-0.15381,0.11627-0.32379,0.20446-0.48687,0.30517
		C25.25758,46.02076,22.14649,45.94542,20,44.32275c-1.54755,1.17004-3.6037,1.57379-5.52625,1.13477l0.19879,3.9754
		C15.10468,49.56696,15.5498,49.66016,16,49.66016c1.2417,0,2.41113-0.48535,3.29297-1.36719c0.375-0.375,1.03906-0.375,1.41406,0
		C21.58887,49.1748,22.7583,49.66016,24,49.66016s2.41113-0.48535,3.29297-1.36719c0.39062-0.39062,1.02344-0.39062,1.41406,0
		C29.58887,49.1748,30.7583,49.66016,32,49.66016s2.41113-0.48535,3.29297-1.36719c0.39062-0.39062,1.02344-0.39062,1.41406,0
		C37.58887,49.1748,38.7583,49.66016,40,49.66016s2.41113-0.48535,3.29297-1.36719c0.375-0.375,1.03906-0.375,1.41406,0
		C45.58887,49.1748,46.7583,49.66016,48,49.66016c0.4502,0,0.89532-0.0932,1.32745-0.22723l0.19775-3.95465
		c-0.50269,0.1189-1.01538,0.18188-1.52521,0.18188C46.78589,45.66016,45.62927,45.31927,44.60895,44.71021z"/>
	<path d="M27.89941,31C27.43506,28.7207,25.41455,27,23,27s-4.43506,1.7207-4.89941,4H19h8H27.89941z"/>
	<path d="M20.70703,42.29297C21.58887,43.1748,22.7583,43.66016,24,43.66016c0.70569,0,1.38055-0.17285,2-0.47009V33h-6v9.01172
		C20.25977,42.01172,20.51953,42.10547,20.70703,42.29297z"/>
	<path d="M40,43.66016c1.2417,0,2.41113-0.48535,3.29297-1.36719c0.1875-0.1875,0.44727-0.28125,0.70703-0.28125V33h-6v10.19006
		C38.61945,43.4873,39.29431,43.66016,40,43.66016z"/>
	<path d="M8,15c-0.55225,0-1,0.44775-1,1v40c0,0.55225,0.44775,1,1,1h4h1.04883l-2.09985-42H8z"/>
	<path d="M56,15h-2.94897l-2.09985,42H52h4c0.55225,0,1-0.44775,1-1V16C57,15.44775,56.55225,15,56,15z"/>
	<path d="M32,23c-2.13,0-4.09998-0.75-5.64001-2H13.25l1.12,22.34998c1.20001,0.44,2.51001,0.35999,3.63-0.15997V33h-1
		c-0.54999,0-1-0.45001-1-1c0-3.85999,3.14001-7,7-7s7,3.14001,7,7c0,0.54999-0.45001,1-1,1h-1v9
		c0.26001,0,0.51001,0.09998,0.71002,0.28998c0.88,0.88,2.04999,1.37,3.28998,1.37s2.40997-0.48999,3.28998-1.37
		C35.48999,42.09998,35.73999,42,36,42v-9h-1c-0.54999,0-1-0.45001-1-1c0-3.85999,3.14001-7,7-7s7,3.14001,7,7
		c0,0.54999-0.45001,1-1,1h-1v10.19c1.12,0.51996,2.42999,0.59998,3.63,0.15997L50.75,21H37.64001C36.09998,22.25,34.13,23,32,23z"
		/>
	<path d="M44,50.32275c-2.29688,1.73633-5.70312,1.73633-8,0c-2.29688,1.73633-5.70312,1.73633-8,0
		c-2.29688,1.73633-5.70312,1.73633-8,0c-1.14844,0.86816-2.53906,1.3374-4,1.3374c-0.409,0-0.8186-0.04633-1.22229-0.1239
		L15.05084,57h33.89832l0.27313-5.46375C48.8186,51.61383,48.409,51.66016,48,51.66016
		C46.53906,51.66016,45.14844,51.19092,44,50.32275z"/>
	<path d="M32,21c3.85999,0,7-3.14001,7-7s-3.14001-7-7-7s-7,3.14001-7,7S28.14001,21,32,21z M29.16998,13.45001l2-3
		c0.29999-0.46002,0.92004-0.59003,1.38-0.28003c0.46002,0.29999,0.59003,0.92999,0.28003,1.38L31.87,13H34
		c0.37,0,0.71002,0.20001,0.88,0.52997c0.17999,0.32001,0.15997,0.72003-0.04999,1.02002c0,0-1.99687,2.9953-2,2.99999
		c-0.29827,0.44741-0.93455,0.5946-1.38001,0.27997c-0.46002-0.29999-0.59003-0.92999-0.28003-1.37994L32.13,15H30
		c-0.37,0-0.71002-0.20001-0.88-0.53003C28.94,14.14996,28.96002,13.75,29.16998,13.45001z"/>
</g>
</svg>
