<?xml version="1.0" encoding="UTF-8"?>
<svg xmlns="http://www.w3.org/2000/svg" version="1.1" viewBox="0 0 48 48">
  <!-- Generator: Adobe Illustrator 28.7.1, SVG Export Plug-In . SVG Version: 1.2.0 Build 142)  -->
  <g>
    <g id="Glyph">
      <g>
        <path d="M25,13.05054c.68756.06219,1.35461.19202,2,.37518V5.26031c-.65649-.10474-1.32306-.17419-2-.20966v7.99988Z"/>
        <path d="M34.57428,27h8.16541c.10474-.65649.17419-1.32306.20966-2h-7.99988c-.06219.68756-.19202,1.35461-.37518,2Z"/>
        <path d="M21,13.42004c.64508-.18317,1.31262-.31244,2-.37469v-7.99469c-.67694.03546-1.34351.10492-2,.20966v8.15973Z"/>
        <path d="M34.94946,23h7.99988c-.03546-.67694-.10492-1.34351-.20966-2h-8.16541c.18317.64539.31299,1.31244.37518,2Z"/>
        <path d="M33.78748,19h8.52338c-1.76575-6.46051-6.8504-11.5451-13.31085-13.31085v8.52338c2.05566,1.05353,3.73395,2.73181,4.78748,4.78748Z"/>
        <path d="M21,42.73969c.65649.10474,1.32306.17419,2,.20966v-7.99988c-.68756-.06219-1.35461-.19202-2-.37518v8.16541Z"/>
        <path d="M14.21252,29H5.68915c1.76575,6.46045,6.8504,11.5451,13.31085,13.31085v-8.52338c-2.05566-1.05353-3.73395-2.73181-4.78748-4.78748Z"/>
        <path d="M29,33.78748v8.52338c6.46045-1.76575,11.5451-6.8504,13.31085-13.31085h-8.52338c-1.05353,2.05566-2.73181,3.73395-4.78748,4.78748Z"/>
        <path d="M13.05054,25h-7.99988c.03546.67694.10492,1.34351.20966,2h8.16541c-.18317-.64539-.31299-1.31244-.37518-2Z"/>
        <path d="M13.42004,21H5.26031c-.10474.65649-.17419,1.32306-.20966,2h7.99469c.06226-.68738.19153-1.35492.37469-2Z"/>
        <path d="M16.96454,15.55048c.62262-.51917,1.30811-.96289,2.03546-1.33618V5.68915c-6.46045,1.76575-11.5451,6.85034-13.31085,13.31085h8.52515c.37329-.72736.81702-1.41284,1.33618-2.03546l2.08527,2.08527c.19531.19531.45117.29297.70703.29297s.51172-.09766.70703-.29297c.39062-.39062.39062-1.02344,0-1.41406l-2.08527-2.08527Z"/>
        <path d="M25,42.94934c.67694-.03546,1.34351-.10492,2-.20966v-8.16541c-.64539.18317-1.31244.31299-2,.37518v7.99988Z"/>
      </g>
    </g>
  </g>
</svg>