<?xml version="1.0" encoding="UTF-8"?>
<svg id="Glyph" xmlns="http://www.w3.org/2000/svg" version="1.1" viewBox="0 0 48 48">
  <circle cx="11" cy="12" r="3" fill="#000" stroke-width="0"/>
  <path d="M16,20c0-1.63-.78998-3.09003-2-4-.57715.43811-1.26013.73987-2,.88953v1.11047c0,.55273-.44727,1-1,1s-1-.44727-1-1v-1.11047c-.73987-.14966-1.42285-.45142-2-.88953-1.21002.90997-2,2.37-2,4v3h10v-3Z" fill="#000" stroke-width="0"/>
  <polygon points="30.06879 31 37.93121 31 37.0741 19 30.9259 19 30.06879 31" fill="#000" stroke-width="0"/>
  <rect x="7" y="29" width="18" height="2" fill="#000" stroke-width="0"/>
  <path d="M26,25H6c-.55231,0-1,.44769-1,1,0,.55225.44769,1,1,1h20c.55231,0,1-.44775,1-1,0-.55231-.44769-1-1-1Z" fill="#000" stroke-width="0"/>
  <path d="M31,17h6c1.10455,0,2-.89545,2-2,0-1.10461-.89545-2-2-2h-6c-1.10455,0-2,.89539-2,2,0,1.10455.89545,2,2,2Z" fill="#000" stroke-width="0"/>
  <polygon points="18.06879 23 25.93121 23 25.0741 11 18.9259 11 18.06879 23" fill="#000" stroke-width="0"/>
  <path d="M19,9h6c1.10455,0,2-.89545,2-2,0-1.10461-.89545-2-2-2h-6c-1.10455,0-2,.89539-2,2,0,1.10455.89545,2,2,2Z" fill="#000" stroke-width="0"/>
  <path d="M41,33h-14v10h3v-7c0-.55231.44769-1,1-1h8c.55231,0,1,.44769,1,1v7h2c.55231,0,1-.44775,1-1v-7c0-1.10461-.89545-2-2-2Z" fill="#000" stroke-width="0"/>
  <rect x="32" y="37" width="6" height="6" fill="#000" stroke-width="0"/>
  <rect x="14" y="37" width="4" height="6" fill="#000" stroke-width="0"/>
  <path d="M7,42c0,.55225.44775,1,1,1h4v-7c0-.55225.44775-1,1-1h6c.55225,0,1,.44775,1,1v7h5v-10H7v9Z" fill="#000" stroke-width="0"/>
</svg>