<?xml version="1.0" encoding="UTF-8"?>
<svg xmlns="http://www.w3.org/2000/svg" version="1.1" viewBox="0 0 64 64">
  <!-- Generator: Adobe Illustrator 28.7.1, SVG Export Plug-In . SVG Version: 1.2.0 Build 142)  -->
  <g>
    <g id="Glyph">
      <g>
        <path d="M54.00006,44.55579h-14.29919c-1.01862-1.80066-4.66589-7.93591-10.573-14.47137l-5.48645,5.48706c4.60126,4.15851,8.99908,7.19226,11.83392,8.98431H10.00006c-1.6543,0-3,1.3457-3,3s1.3457,3,3,3h44c1.6543,0,3-1.3457,3-3s-1.3457-3-3-3Z"/>
        <path d="M22.17236,34.2124l5.59637-5.59698c-.45428-.47821-.91595-.95697-1.39368-1.43463l-5.6377,5.6377c.47784.47784.95667.93958,1.435,1.39392Z"/>
        <path d="M19.34381,31.38391l5.59662-5.59662c-8.12817-7.72028-16.11359-12.03564-16.46869-12.22565-.3877-.20605-.86621-.13672-1.17871.1748-.31152.31152-.38281.79004-.1748,1.17871.19.3551,4.50452,8.33984,12.22559,16.46875Z"/>
      </g>
    </g>
  </g>
</svg>