<?xml version="1.0" encoding="UTF-8"?>
<svg xmlns="http://www.w3.org/2000/svg" version="1.1" viewBox="0 0 64 64">
  <!-- Generator: Adobe Illustrator 28.7.1, SVG Export Plug-In . SVG Version: 1.2.0 Build 142)  -->
  <g>
    <g id="Glyph">
      <g>
        <path d="M42.92781,33c2.23999,0,4.42999.53998,6.41998,1.57001l1.29999-3.57001h-13.43994l1.02997,2.81c1.51001-.54004,3.08002-.81,4.69-.81Z"/>
        <path d="M42.92781,39c-4.40997,0-8,3.58997-8,8,0,1.41998.37,2.78998,1.07001,4h13.85999c.70001-1.21002,1.07001-2.58002,1.07001-4,0-4.41003-3.59003-8-8-8ZM39.92781,48c0,.54999-.45001,1-1,1s-1-.45001-1-1v-4c0-.54999.45001-1,1-1s1,.45001,1,1v4ZM43.92781,48c0,.54999-.45001,1-1,1s-1-.45001-1-1v-6c0-.54999.45001-1,1-1s1,.45001,1,1v6ZM47.92781,48c0,.54999-.45001,1-1,1s-1-.45001-1-1v-4c0-.54999.45001-1,1-1s1,.45001,1,1v4Z"/>
        <path d="M56.76783,31.70996c.56-1.53998.33997-3.25-.60004-4.56995-.94-1.34003-2.46997-2.14001-4.09998-2.14001h-16.28003c-.27997,0-.54999.01996-.81.07001.15002.82996.22003,1.66998.22003,2.52997,0,.56-.03003,1.12-.10004,1.67999.17999-.17999.42999-.27997.69-.27997h16.28003c.32996,0,.64001.15997.82001.42999.19.26001.23999.60999.12.90997l-2.19,6.03003c-.10004.27997-.33002.51001-.60999.60999-.11005.03003-.22003.04999-.33002.04999-.17999,0-.37-.04999-.53003-.15997-3.35999-2.13-7.64996-2.45001-11.28998-.83002-.26001.10999-.54999.12-.79999.01001-.26001-.10999-.45001-.32001-.54999-.58002l-1.79004-4.95001c-.39001,1.97003-1.15997,3.82001-2.27002,5.48004l.40002,1.10999c-2.63,2.62-4.12,6.19-4.12,9.89001,0,3.64001,1.39001,7.07996,3.90997,9.69.19.20001.45001.31.72003.31h18.73999c.27002,0,.53003-.10999.72003-.31,2.51996-2.61005,3.90997-6.04999,3.90997-9.69,0-3-.94-5.85004-2.71002-8.26001l2.55005-7.03003ZM51.2378,52.56c-.17999.26996-.48999.44-.83002.44h-14.95996c-.34003,0-.65002-.17004-.83002-.44-1.10999-1.64001-1.69-3.56-1.69-5.56,0-5.51001,4.48999-10,10-10s10,4.48999,10,10c0,2-.58002,3.91998-1.69,5.56Z"/>
        <path d="M20.05671,14c2.23828,0,4.43457.53906,6.41992,1.56885l1.29688-3.56885h-13.43359l1.02344,2.81494c1.50977-.54102,3.08398-.81494,4.69336-.81494Z"/>
        <path d="M33.19441,27.6001c0-2.81006-.87012-5.46973-2.52148-7.72705l2.37207-6.52246c.52832-1.44971.31445-3.06982-.57129-4.33301s-2.33496-2.01758-3.87695-2.01758h-15.20312c-1.54297,0-2.99219.75439-3.87793,2.01709-.88477,1.26318-1.09863,2.8833-.57031,4.33398l1.81543,4.99512c-2.44434,2.45703-3.83301,5.79199-3.83301,9.25391,0,3.41504,1.30273,6.64453,3.66895,9.09473.18848.19482.44824.30518.71973.30518h17.49023c.27148,0,.53125-.11035.71973-.30566,2.36523-2.4502,3.66797-5.67969,3.66797-9.09424ZM12.09284,10.42627c.1875-.26709.49316-.42627.81934-.42627h16.28906c.32617,0,.63184.15918.81934.42627.18652.26709.23145.60889.12012.91553l-2.19141,6.02832c-.10352.28467-.33008.50732-.61719.60498-.10449.03564-.21387.05322-.32227.05322-.1875,0-.37402-.05273-.53613-.15576-3.36133-2.13428-7.65137-2.4541-11.29004-.83154-.25391.11279-.54297.11572-.79785.00684-.25586-.1084-.4541-.31787-.54883-.57861l-1.86426-5.12744c-.11133-.30664-.06641-.64844.12012-.91553ZM28.36726,33.55859c-.18555.27588-.49609.44141-.8291.44141h-14.96387c-.33301,0-.64355-.16553-.8291-.44141-1.10449-1.64062-1.68848-3.56299-1.68848-5.55859,0-5.51416,4.48633-10,10-10s10,4.48584,10,10c0,1.99658-.58398,3.91846-1.68945,5.55859Z"/>
        <path d="M20.05671,20c-4.41113,0-8,3.58887-8,8,0,1.42041.36816,2.79248,1.07031,4h13.8584c.70215-1.20703,1.07129-2.57959,1.07129-4,0-4.41113-3.58887-8-8-8ZM17.20124,29c0,.55225-.44727,1-1,1s-1-.44775-1-1v-4c0-.55225.44727-1,1-1s1,.44775,1,1v4ZM21.20124,29c0,.55225-.44727,1-1,1s-1-.44775-1-1v-6c0-.55225.44727-1,1-1s1,.44775,1,1v6ZM25.20124,29c0,.55225-.44727,1-1,1s-1-.44775-1-1v-4c0-.55225.44727-1,1-1s1,.44775,1,1v4Z"/>
      </g>
    </g>
  </g>
</svg>