<?xml version="1.0" encoding="utf-8"?>
<!-- Generator: Adobe Illustrator 28.2.0, SVG Export Plug-In . SVG Version: 6.00 Build 0)  -->
<svg version="1.1" id="Glyph" xmlns="http://www.w3.org/2000/svg" xmlns:xlink="http://www.w3.org/1999/xlink" x="0px" y="0px"
	 viewBox="0 0 64 64" enable-background="new 0 0 64 64" xml:space="preserve">
<g>
	<path d="M32,11c0.55273,0,1-0.44727,1-1V8c0-0.55273-0.44727-1-1-1s-1,0.44727-1,1v2C31,10.55273,31.44727,11,32,11z"/>
	<path d="M19.27246,15.68652c0.37018,0.37018,1.01847,0.39559,1.41406,0c0.39062-0.39062,0.39062-1.02344,0-1.41406
		l-1.41406-1.41406c-0.39062-0.39062-1.02344-0.39062-1.41406,0s-0.39062,1.02344,0,1.41406
		C17.8584,14.27246,19.27164,15.6857,19.27246,15.68652z"/>
	<path d="M15,26h-2c-0.55273,0-1,0.44727-1,1s0.44727,1,1,1h2c0.55273,0,1-0.44727,1-1S15.55273,26,15,26z"/>
	<path d="M19.27246,38.31348l-1.41406,1.41406c-0.39056,0.39056-0.39062,1.02324-0.00018,1.41388
		c0.3553,0.35548,1.03277,0.38164,1.41424,0.00018l1.41406-1.41406c0.39062-0.39062,0.39062-1.02344,0-1.41406
		S19.66309,37.92285,19.27246,38.31348z"/>
	<path d="M44.72754,12.8584l-1.41406,1.41406c-0.39058,0.39057-0.39062,1.02327-0.00015,1.41391
		c0.36233,0.36248,1.02996,0.38439,1.41422,0.00015l1.41406-1.41406c0.39062-0.39062,0.39062-1.02344,0-1.41406
		S45.11816,12.46777,44.72754,12.8584z"/>
	<path d="M51,26h-2c-0.55273,0-1,0.44727-1,1s0.44727,1,1,1h2c0.55273,0,1-0.44727,1-1S51.55273,26,51,26z"/>
	<path d="M44.72754,38.31348c-0.39062-0.39062-1.02344-0.39062-1.41406,0s-0.39062,1.02344,0,1.41406
		c0,0,1.41324,1.41324,1.41406,1.41406c0.37014,0.37014,1.01849,0.39557,1.41406,0c0.39062-0.39062,0.39062-1.02344,0-1.41406
		L44.72754,38.31348z"/>
	<path d="M41.3252,16.56641c-2.96582-2.6543-6.94922-3.91602-10.9248-3.47754c-6.21094,0.69434-11.36426,5.67773-12.25195,11.84961
		c-0.7793,5.41504,1.54883,10.66309,6.07617,13.69629C25.0907,39.21472,25.67993,40.065,25.90015,41h12.20007
		c0.22064-0.93506,0.81073-1.78613,1.6781-2.36816C43.67383,36.01953,46,31.6709,46,27
		C46,23.02637,44.2959,19.22363,41.3252,16.56641z M32,37c-5.51367,0-10-4.48633-10-10s4.48633-10,10-10s10,4.48633,10,10
		S37.51367,37,32,37z"/>
	<path d="M37.01953,26h-0.42969c-0.18652,0-0.36914,0.05469-0.51465,0.1543l-1.19336,0.79004
		c-0.49414,0.33301-1.06348,0.49609-1.62988,0.49609c-0.76074,0-1.51855-0.29297-2.08887-0.86328l-1.02051-1.02051
		c-0.25195-0.25293-0.69141-0.32617-0.96191-0.2334c-1.55859,0.52344-3.23535-0.31543-3.74902-1.85645l-0.22351-0.67346
		C24.4472,24.01733,24,25.45581,24,27c0,0.12646,0.01312,0.24963,0.01898,0.37469l0.97516-0.19501
		c0.77441-0.14941,1.58984,0.0127,2.24609,0.44531l2.15332,1.43164c0.16504,0.11523,0.32324,0.24609,0.45312,0.37598
		l0.84081,0.84082c0.30567,0.30566,0.77149,0.38379,1.16016,0.19043l2.2832-1.14746C34.55371,29.10547,35.00293,29,35.46973,29
		h2.06055c0.4668,0,0.91602,0.10547,1.33594,0.31445l0.67346,0.33472C39.83246,28.8186,40,27.9295,40,27
		c0-0.86169-0.14081-1.69025-0.3941-2.46857l-0.21722,0.28888C38.83105,25.55957,37.94531,26,37.01953,26z"/>
	<path d="M37.53027,31h-2.06055c-0.15723,0-0.30176,0.03418-0.44336,0.10547l-2.28711,1.14844
		c-0.42773,0.21094-0.88672,0.31348-1.34082,0.31348c-0.78125,0-1.54883-0.30371-2.125-0.87988l-0.84082-0.84082
		c-0.0498-0.0498-0.11035-0.09863-0.16602-0.1377l-2.12988-1.41602c-0.21973-0.14551-0.49707-0.19922-0.75586-0.15137
		l-1.02802,0.20569C25.35846,32.61646,28.40552,35,32,35c2.7691,0,5.21283-1.41516,6.64948-3.55933l-0.67487-0.33521
		C37.83203,31.03418,37.68652,31,37.53027,31z"/>
	<path d="M28.5332,23.43164c0.28027-0.09863,0.59961-0.15137,0.93652-0.15137c0.77832,0,1.53906,0.31445,2.08691,0.8623
		l1.02051,1.02051c0.32031,0.31934,0.82227,0.37012,1.19434,0.11816l1.18652-0.78516C35.42578,24.1748,35.99512,24,36.58984,24
		h0.42969c0.30273,0,0.59082-0.14355,0.77246-0.38281l0.82874-1.10175C37.1803,20.39575,34.75031,19,32,19
		c-2.02338,0-3.86816,0.76111-5.2785,2.00433l0.6076,1.8316C27.49414,23.33008,28.03418,23.59668,28.5332,23.43164z"/>
	<path d="M39,43H25c-0.55231,0-1,0.44769-1,1c0,0.55225,0.44769,1,1,1h14c0.55231,0,1-0.44775,1-1C40,43.44769,39.55231,43,39,43z"
		/>
	<path d="M27,52c0,2.75684,2.24316,5,5,5s5-2.24316,5-5v-1H27V52z"/>
	<path d="M39,47H25c-0.55228,0-1,0.44772-1,1v0c0,0.55228,0.44771,1,1,1H39c0.55228,0,1-0.44772,1-1v0
		C40,47.44772,39.55228,47,39,47z"/>
</g>
</svg>
