<?xml version="1.0" encoding="utf-8"?>
<!-- Generator: Adobe Illustrator 27.3.1, SVG Export Plug-In . SVG Version: 6.00 Build 0)  -->
<svg version="1.1" id="Glyph" xmlns="http://www.w3.org/2000/svg" xmlns:xlink="http://www.w3.org/1999/xlink" x="0px" y="0px"
	 viewBox="0 0 64 64" enable-background="new 0 0 64 64" xml:space="preserve">
<g>
	<path d="M41.88635,38H45c0.49756,0,0.91943,0.36523,0.98975,0.8584L46.29688,41h7.98859l-1.30548-7.17999
		C52.90002,33.34998,52.47998,33,52,33h-6.60999C44.32629,34.77545,43.11493,36.45929,41.88635,38z"/>
	<path d="M45.01025,46.1416c-0.04102-0.28711,0.04443-0.57812,0.23438-0.79688S45.70996,45,46,45h9.0127l-0.36365-2h-9.21887
		c-0.49756,0-0.91943-0.36523-0.98975-0.8584L44.1333,40h-3.914c-0.62439,0.71594-1.23566,1.38257-1.82086,2h3.13135
		c0.49756,0,0.91943,0.36523,0.98975,0.8584l0.86035,6c0.0415,0.28711-0.04395,0.57715-0.23389,0.79688
		C42.95605,49.87402,42.68018,50,42.39014,50H21.60986c-0.29004,0-0.56592-0.12598-0.75586-0.34473
		c-0.18994-0.21973-0.27539-0.50977-0.23389-0.79688l0.86035-6C21.55078,42.36523,21.97266,42,22.47021,42h3.13135
		c-0.58521-0.61743-1.19647-1.28406-1.82086-2h-3.91351l-0.39746,2.77148c-0.05762,0.40234-0.35303,0.72949-0.74707,0.82812
		l-9.93237,2.48383l-0.3692,2.03064l9.22687-2.3045c0.32227-0.08008,0.66455,0.00488,0.91211,0.22852
		c0.24707,0.22266,0.36719,0.55469,0.31982,0.88379L18.15332,52H30c0.55225,0,1,0.44727,1,1v4h2v-4c0-0.55273,0.44775-1,1-1
		h11.84717L45.01025,46.1416z"/>
	<path d="M32,47c-0.71997,0-1.40997-0.26001-1.95001-0.72003C29.71356,45.98975,28.79517,45.18427,27.5766,44h-4.23969l-0.57324,4
		h18.47266l-0.57324-4H36.4234c-1.21857,1.18427-2.13696,1.98975-2.47339,2.27997C33.40997,46.73999,32.71997,47,32,47z"/>
	<path d="M56.97998,55.82001L55.37634,47h-8.22351l0.83691,5.8584c0.04102,0.28711-0.04443,0.57812-0.23438,0.79688
		S47.29004,54,47,54H35v3c0,0,20.96497,0,20.99994,0C56.61261,57,57.10596,56.42889,56.97998,55.82001z"/>
	<path d="M18.01025,38.8584C18.08057,38.36523,18.50244,38,19,38h3.11365c-1.22858-1.54071-2.43994-3.22455-3.50366-5H12
		c-0.47998,0-0.90002,0.34998-0.97998,0.82001L9.18298,43.92389l8.40247-2.10065L18.01025,38.8584z"/>
	<path d="M16.01025,52.8584l0.6792-4.74805l-8.66107,2.16351c0,0-1.00635,5.53522-1.00836,5.54608C6.914,56.4032,7.35858,57,8,57h21
		v-3c0,0-11.99396,0-12,0C16.39435,54,15.92462,53.45764,16.01025,52.8584z"/>
	<path d="M41,22c0-4.96289-4.0376-9-9-9s-9,4.03711-9,9s4.0376,9,9,9S41,26.96289,41,22z M27,24
		c0-4.36426,4.11768-8.53223,4.29297-8.70703c0.39062-0.39062,1.02344-0.39062,1.41406,0C32.88232,15.46777,37,19.63574,37,24
		c0,2.75684-2.24316,5-5,5S27,26.75684,27,24z"/>
	<path d="M31.34918,44.75885c0.37439,0.32166,0.92877,0.32037,1.3017-0.00006C33.23682,44.25684,47,32.34082,47,22
		c0-8.27148-6.729-15-15-15s-15,6.72852-15,15C17,32.34082,30.76318,44.25684,31.34918,44.75885z M21,22c0-6.06543,4.93457-11,11-11
		s11,4.93457,11,11s-4.93457,11-11,11S21,28.06543,21,22z"/>
	<path d="M35,24c0-2.55664-1.92383-5.21387-3-6.50098C30.92383,18.78613,29,21.44336,29,24c0,1.6543,1.3457,3,3,3S35,25.6543,35,24z
		"/>
</g>
</svg>
