<?xml version="1.0" encoding="UTF-8"?>
<svg xmlns="http://www.w3.org/2000/svg" version="1.1" viewBox="0 0 48 48">
  <!-- Generator: Adobe Illustrator 28.7.1, SVG Export Plug-In . SVG Version: 1.2.0 Build 142)  -->
  <g>
    <g id="Glyph">
      <path d="M40.76703,22.61865c.13837-.17151.23297-.3808.23297-.61865,0-4.53711-1.76562-8.80859-4.97363-12.02832-3.21777-3.20605-7.48926-4.97168-12.02637-4.97168-9.37402,0-17,7.62598-17,17,0,.29132.12872.54779.32721.73047.00653.00665.00745.01617.01459.02246l13.99664,12.24707h-1.33844c-1.6543,0-3,1.3457-3,3v2c0,1.6543,1.3457,3,3,3h8c1.6543,0,3-1.3457,3-3v-2c0-1.6543-1.3457-3-3-3h-1.33844s14.09894-12.36688,14.10547-12.38135ZM36,19c1.51154,0,2.75262,1.1272,2.95782,2.58301l-11.13586,9.7439,5.0462-8.83081c.0166-.02899.01959-.04755.02954-.07141.06171-.12994.10229-.27118.10229-.42468,0-1.6543,1.3457-3,3-3ZM25,22c0-1.6543,1.3457-3,3-3,1.57709,0,2.85962,1.22699,2.97723,2.77448l-5.97723,10.46014v-10.23462ZM23,32.23462l-5.97723-10.46014c.11761-1.54749,1.40015-2.77448,2.97723-2.77448,1.6543,0,3,1.3457,3,3v10.23462ZM13.89453,13.8291c2.4873-3.06836,6.1709-4.8291,10.10547-4.8291,3.4707,0,6.73926,1.35156,9.20312,3.80566.39062.38965.39258,1.02246.00195,1.41406-.38867.39258-1.02148.39453-1.41406.00195-2.08594-2.07715-4.85254-3.22168-7.79102-3.22168-3.32909,0-6.44627,1.49022-8.55076,4.08884-.34396.42472-.98308.48905-1.40725.14749-.42871-.34766-.49512-.97754-.14746-1.40723ZM12,19c1.6543,0,3,1.3457,3,3,0,.15344.04059.29462.10217.4245.01001.02393.01306.04254.02966.07159l5.0462,8.83081-11.13586-9.7439c.2052-1.45581,1.44629-2.58301,2.95782-2.58301Z"/>
    </g>
  </g>
</svg>