<?xml version="1.0" encoding="UTF-8"?>
<svg xmlns="http://www.w3.org/2000/svg" version="1.1" viewBox="0 0 48 48">
  <!-- Generator: Adobe Illustrator 28.7.1, SVG Export Plug-In . SVG Version: 1.2.0 Build 142)  -->
  <g>
    <g id="Glyph">
      <g>
        <path d="M25.18427,36h-2.36853c.11206.31433.18427.64764.18427,1s-.0722.68567-.18427,1h2.36859c-.11206-.31433-.18433-.64764-.18433-1s.0722-.68567.18427-1Z"/>
        <path d="M17.18427,36h-2.36853c.11206.31433.18427.64764.18427,1s-.0722.68567-.18427,1h2.36859c-.11206-.31433-.18433-.64764-.18433-1s.0722-.68567.18427-1Z"/>
        <path d="M33.94601,25H14.05399c-.86085,0-1.62513.55085-1.89736,1.36753l-.87752,2.63247h25.44177l-.87752-2.63247c-.27223-.81668-1.03651-1.36753-1.89736-1.36753Z"/>
        <circle cx="20" cy="37" r="1"/>
        <circle cx="28" cy="37" r="1"/>
        <path d="M37,31H11c-3.31372,0-6,2.68628-6,6s2.68628,6,6,6h26c3.31372,0,6-2.68628,6-6s-2.68628-6-6-6ZM36,40H12c-1.6543,0-3-1.3457-3-3s1.3457-3,3-3h24c1.6543,0,3,1.3457,3,3s-1.3457,3-3,3Z"/>
        <path d="M33.18427,36h-2.36853c.11206.31433.18427.64764.18427,1s-.0722.68567-.18427,1h2.36859c-.11206-.31433-.18433-.64764-.18433-1s.0722-.68567.18427-1Z"/>
        <circle cx="36" cy="37" r="1"/>
        <circle cx="12" cy="37" r="1"/>
        <rect x="31" y="15" width="7" height="6"/>
        <path d="M29,15h-1v-2h1c.55225,0,1-.44775,1-1v-6c0-.55225-.44775-1-1-1h-3c-2.20557,0-4,1.79443-4,4s1.79443,4,4,4v2h-6c-2.20557,0-4,1.79443-4,4h4c.55225,0,1,.44775,1,1s-.44775,1-1,1h-4v2h13v-8Z"/>
        <rect x="40" y="14" width="3" height="8" rx="1" ry="1"/>
      </g>
    </g>
  </g>
</svg>