<?xml version="1.0" encoding="UTF-8"?>
<svg xmlns="http://www.w3.org/2000/svg" version="1.1" viewBox="0 0 48 48">
  <!-- Generator: Adobe Illustrator 28.7.1, SVG Export Plug-In . SVG Version: 1.2.0 Build 142)  -->
  <g>
    <g id="Glyph">
      <g>
        <path d="M32.86816,15.54297l-4.14062-.31836c-1.02344-.08105-1.98242.15918-2.83008.66797-2.29688,1.37891-4.92773,2.10742-7.6084,2.10742h-4.28906v8h4.28906c.86719,0,1.71875-.23584,2.46289-.68213,2.62207-1.57324,5.68262-2.2998,8.74121-2.06396l3.16211.24316-.72949-3.28027c-.03125-.14258-.03125-.29102,0-.43359l.94238-4.24023ZM29,19c-.55231,0-1-.44775-1-1,0-.55231.44769-1,1-1s1,.44769,1,1c0,.55225-.44769,1-1,1Z"/>
        <path d="M39.97656,11.2168c.12885-.57981-.31088-1.16813-.89941-1.21387l-9.88965-.76074c-2.24609-.1709-4.44726.34814-6.37793,1.50586-1.36426.81885-2.92773,1.25195-4.52051,1.25195h-8.28906v-1.18427c1.1615-.41412,2-1.51379,2-2.81573,0-1.6543-1.3457-3-3-3s-3,1.3457-3,3c0,1.30194.8385,2.40155,2,2.81567v26.18433h-2c-.55273,0-1,.44775-1,1v4c0,.55225.44727,1,1,1h6c.55273,0,1-.44775,1-1v-4c0-.55225-.44727-1-1-1h-2v-5h8.28906c1.95508,0,3.87402-.53174,5.5498-1.53711,1.57227-.94287,3.38184-1.36475,5.19434-1.22656l9.88946.76073c.65479.05037,1.19524-.57478,1.0539-1.21385l-1.95215-8.7832s1.948-8.76452,1.95215-8.7832ZM34.90039,24.38086c.14429.64917-.39502,1.26263-1.05371,1.21387l-4.50684-.34668c-2.63477-.19873-5.29199.42432-7.55859,1.78467-1.05469.63281-2.2627.96729-3.49219.96729h-5.28906c-.55273,0-1-.44775-1-1v-10c0-.55225.44727-1,1-1h5.28906c2.31836,0,4.59375-.62988,6.5791-1.82227,1.2041-.72217,2.60352-1.05664,4.01465-.94727,0,0,5.27295.40558,5.28802.40674.59314.04559,1.0285.63458.90045,1.21387l-1.14453,5.14893s.97235,4.37518.97363,4.38086Z"/>
      </g>
    </g>
  </g>
</svg>