<?xml version="1.0" encoding="UTF-8"?>
<svg xmlns="http://www.w3.org/2000/svg" version="1.1" viewBox="0 0 64 64">
  <!-- Generator: Adobe Illustrator 28.7.1, SVG Export Plug-In . SVG Version: 1.2.0 Build 142)  -->
  <g>
    <g id="Glyph">
      <g>
        <polygon points="38.38184 11 40.38184 7 23.61816 7 25.61816 11 38.38184 11"/>
        <path d="M32,24c-4.41113,0-8,3.58887-8,8s3.58887,8,8,8,8-3.58887,8-8-3.58887-8-8-8ZM31.26855,30.73682l2.03809.61084c1.0127.3042,1.69336,1.21924,1.69336,2.27637,0,1.18134-.86877,2.15631-2,2.33801v1.03796c0,.55225-.44727,1-1,1s-1-.44775-1-1v-1h-1c-.55273,0-1-.44775-1-1s.44727-1,1-1h2.62402c.20703,0,.37598-.16846.37598-.37598,0-.16748-.10742-.3125-.26855-.36084l-2.03809-.61084c-1.0127-.3042-1.69336-1.21924-1.69336-2.27637,0-1.18134.86877-2.15625,2-2.33795v-1.03802c0-.55225.44727-1,1-1s1,.44775,1,1v1h1c.55273,0,1,.44775,1,1s-.44727,1-1,1h-2.62402c-.20703,0-.37598.16846-.37598.37598,0,.16748.10742.3125.26855.36084Z"/>
        <path d="M46,7h-3.38184l-2.72363,5.44727c-.16992.33887-.51562.55273-.89453.55273h-14c-.37891,0-.72461-.21387-.89453-.55273l-2.72363-5.44727h-3.38184c-2.20605,0-4,1.79443-4,4v42c0,2.20557,1.79395,4,4,4h28c2.20605,0,4-1.79443,4-4V11c0-2.20557-1.79395-4-4-4ZM24.70703,47.70703l-3,3c-.37143.37143-1.02033.39373-1.41406,0l-3-3c-.39062-.39062-.39062-1.02344,0-1.41406s1.02344-.39062,1.41406,0l1.29297,1.29297v-5.58594c0-.55225.44727-1,1-1s1,.44775,1,1v5.58594l1.29297-1.29297c.39062-.39062,1.02344-.39062,1.41406,0s.39062,1.02344,0,1.41406ZM32,42c-5.51367,0-10-4.48584-10-10s4.48633-10,10-10,10,4.48584,10,10-4.48633,10-10,10ZM46.70703,17.70703c-.37539.37538-1.02206.392-1.41406,0l-1.29297-1.29297v5.58594c0,.55225-.44727,1-1,1s-1-.44775-1-1v-5.58594l-1.29297,1.29297c-.39062.39062-1.02344.39062-1.41406,0s-.39062-1.02344,0-1.41406l3-3c.39062-.39062,1.02344-.39062,1.41406,0l3,3c.39062.39062.39062,1.02341,0,1.41406Z"/>
      </g>
    </g>
  </g>
</svg>