<?xml version="1.0" encoding="UTF-8"?>
<svg xmlns="http://www.w3.org/2000/svg" version="1.1" viewBox="0 0 48 48">
  <!-- Generator: Adobe Illustrator 28.7.1, SVG Export Plug-In . SVG Version: 1.2.0 Build 142)  -->
  <g>
    <g id="Glyph">
      <g>
        <circle cx="24" cy="24" r="3"/>
        <path d="M33.81531,25h1.32672c.44727,1.72028,1.99969,3,3.85797,3,2.20557,0,4-1.79443,4-4s-1.79443-4-4-4c-1.85828,0-3.41071,1.27972-3.85797,3h-1.32672l-2.70917-4.69208,4.14093-4.14093c.79053.52399,1.7356.83301,2.75293.83301,2.75684,0,5-2.24316,5-5s-2.24316-5-5-5-5,2.24316-5,5c0,1.01733.30902,1.9624.83301,2.75293l-3.76208,3.76208-.58606-1.01501c-.17871-.30957-.50879-.5-.86621-.5h-3.61865v-2.14203c1.72028-.44727,3-1.99969,3-3.85797,0-2.20557-1.79443-4-4-4s-4,1.79443-4,4c0,1.85828,1.27972,3.41071,3,3.85797v2.14203h-3.61865c-.35742,0-.6875.19043-.86621.5l-.58606,1.01501-3.76208-3.76208c.52399-.79053.83301-1.7356.83301-2.75293,0-2.75684-2.24316-5-5-5s-5,2.24316-5,5,2.24316,5,5,5c1.01733,0,1.9624-.30902,2.75293-.83301l4.14093,4.14093-2.70917,4.69208h-1.32672c-.44727-1.72028-1.99969-3-3.85797-3-2.20557,0-4,1.79443-4,4s1.79443,4,4,4c1.85828,0,3.41071-1.27972,3.85797-3h1.32672l2.70917,4.69208-4.14093,4.14093c-.79053-.52399-1.7356-.83301-2.75293-.83301-2.75684,0-5,2.24316-5,5s2.24316,5,5,5,5-2.24316,5-5c0-1.01733-.30902-1.9624-.83301-2.75293l3.76208-3.76208.58606,1.01501c.17871.30957.50879.5.86621.5h3.61865v2.14203c-1.72028.44727-3,1.99969-3,3.85797,0,2.20557,1.79443,4,4,4s4-1.79443,4-4c0-1.85828-1.27972-3.41071-3-3.85797v-2.14203h3.61865c.35742,0,.6875-.19043.86621-.5l.58606-1.01501,3.76208,3.76208c-.52399.79053-.83301,1.7356-.83301,2.75293,0,2.75684,2.24316,5,5,5s5-2.24316,5-5-2.24316-5-5-5c-1.01733,0-1.9624.30902-2.75293.83301l-4.14093-4.14093,2.70917-4.69208ZM24,29c-2.75684,0-5-2.24316-5-5s2.24316-5,5-5,5,2.24316,5,5-2.24316,5-5,5Z"/>
      </g>
    </g>
  </g>
</svg>