<?xml version="1.0" encoding="UTF-8"?>
<svg xmlns="http://www.w3.org/2000/svg" version="1.1" viewBox="0 0 64 64">
  <!-- Generator: Adobe Illustrator 28.7.1, SVG Export Plug-In . SVG Version: 1.2.0 Build 142)  -->
  <g>
    <g id="Glyph">
      <g>
        <path d="M39.29816,30.56494c.8717.27631,1.77991.43506,2.70184.43506,4.96289,0,9-4.0376,9-9s-4.03711-9-9-9-9,4.0376-9,9c0,.9223.15851,1.83026.43463,2.7016,2.38019,1.47235,4.39111,3.48315,5.86353,5.86334ZM42.73145,23.26318l-2.03809-.61084c-1.0127-.3042-1.69336-1.21924-1.69336-2.27637,0-1.18134.86877-2.15625,2-2.33795v-1.03802c0-.55225.44727-1,1-1s1,.44775,1,1v1h1c.55273,0,1,.44775,1,1s-.44727,1-1,1h-2.62402c-.20703,0-.37598.16846-.37598.37598,0,.16748.10742.3125.26855.36084l2.03809.61084c1.0127.3042,1.69336,1.21924,1.69336,2.27637,0,1.18134-.86877,2.15631-2,2.33801v1.03796c0,.55225-.44727,1-1,1s-1-.44775-1-1v-1h-1c-.55273,0-1-.44775-1-1s.44727-1,1-1h2.62402c.20703,0,.37598-.16846.37598-.37598,0-.16748-.10742-.3125-.26855-.36084Z"/>
        <path d="M57,22c0-8.271-6.72852-15-15-15s-15,6.729-15,15c0,.09155.01099.18158.01263.27295,1.4281.24219,2.79803.6546,4.0907,1.21228-.0672-.49078-.10333-.98669-.10333-1.48523,0-6.06543,4.93457-11,11-11s11,4.93457,11,11-4.93457,11-11,11c-.49847,0-.99445-.03619-1.48529-.10339.55774,1.29266.97015,2.6626,1.21234,4.09076.09137.00165.1814.01263.27295.01263,8.27148,0,15-6.729,15-15Z"/>
        <path d="M24,29c-6.06543,0-11,4.93457-11,11s4.93457,11,11,11,11-4.93457,11-11-4.93457-11-11-11ZM23,37c.55273,0,1,.44775,1,1s-.44727,1-1,1h-2.60699c-.03137.32751-.05316.65961-.05316,1s.02179.67249.05316,1h2.60699c.55273,0,1,.44775,1,1s-.44727,1-1,1h-2.20447c.74927,2.36078,2.34821,4,4.20154,4,1.1748,0,2.30664-.68164,3.18848-1.91992.32031-.4502.94434-.55615,1.39453-.23438.4502.32031.55469.94482.23438,1.39453-1.26758,1.77979-2.97852,2.75977-4.81738,2.75977-2.89191,0-5.35193-2.51025-6.2688-6h-2.72827c-.55273,0-1-.44775-1-1s.44727-1,1-1h2.38348c-.02704-.3288-.04364-.66162-.04364-1s.0166-.6712.04364-1h-2.38348c-.55273,0-1-.44775-1-1s.44727-1,1-1h2.72827c.91687-3.48975,3.37689-6,6.2688-6,1.83887,0,3.5498.97998,4.81738,2.75977.32031.44971.21582,1.07422-.23438,1.39453-.44922.32275-1.07324.21582-1.39453-.23438-.88184-1.23828-2.01367-1.91992-3.18848-1.91992-1.85333,0-3.45227,1.63922-4.20154,4h2.20447Z"/>
        <path d="M24,24c-8.82263,0-16,7.17737-16,16s7.17737,16,16,16,16-7.17743,16-16-7.17737-16-16-16ZM24,53c-7.16797,0-13-5.83154-13-13s5.83203-13,13-13,13,5.83154,13,13-5.83203,13-13,13Z"/>
        <path d="M51.84766,36.47021c-.36523-.58496-1.33008-.58496-1.69531,0l-5,8c-.19336.30811-.20312.69678-.02734,1.01465.17676.31787.51172.51514.875.51514h2v10c0,.55225.44727,1,1,1h4c.55273,0,1-.44775,1-1v-10h2c.36328,0,.69824-.19727.875-.51514.17578-.31787.16602-.70654-.02734-1.01465l-5-8Z"/>
        <path d="M13,24c.34473,0,.66504-.17773.84766-.47021l5-8c.19336-.30811.20312-.69678.02734-1.01465-.17676-.31787-.51172-.51514-.875-.51514h-2v-6c0-.55225-.44727-1-1-1h-4c-.55273,0-1,.44775-1,1v6h-2c-.36328,0-.69824.19727-.875.51514-.17578.31787-.16602.70654.02734,1.01465l5,8c.18262.29248.50293.47021.84766.47021Z"/>
      </g>
    </g>
  </g>
</svg>