<?xml version="1.0" encoding="UTF-8"?>
<svg xmlns="http://www.w3.org/2000/svg" version="1.1" viewBox="0 0 48 48">
  <!-- Generator: Adobe Illustrator 28.7.1, SVG Export Plug-In . SVG Version: 1.2.0 Build 142)  -->
  <g>
    <g id="Glyph">
      <g>
        <path d="M6.92188,6.90332l10.10925,4.78851c-.01068.10272-.03113.20264-.03113.30817,0,1.6543,1.3457,3,3,3s3-1.3457,3-3-1.3457-3-3-3c-.82788,0-1.57837.33716-2.1217.88123L7.77734,5.09668c-.49707-.23633-1.09473-.02441-1.33105.47559-.2373.49902-.02344,1.09473.47559,1.33105Z"/>
        <path d="M28,15c1.6543,0,3-1.3457,3-3,0-.10553-.02045-.20544-.03113-.30817l10.10925-4.78851c.49902-.23633.71289-.83203.47559-1.33105-.23633-.5-.83398-.71191-1.33105-.47559l-10.10095,4.78455c-.54333-.54407-1.29382-.88123-2.1217-.88123-1.6543,0-3,1.3457-3,3s1.3457,3,3,3Z"/>
        <polygon points="24 32.58594 29.58594 27 18.41406 27 24 32.58594"/>
        <polygon points="11.20386 33 21.58594 33 16.04883 27.46289 11.20386 33"/>
        <polygon points="40 27 34.20386 27 39.45386 33 40 33 40 27"/>
        <polygon points="31.95117 27.46289 26.41406 33 36.79614 33 31.95117 27.46289"/>
        <polygon points="8 33 8.54614 33 13.79614 27 8 27 8 33"/>
        <rect x="8" y="22" width="32" height="3"/>
        <path d="M41.5,40H6.5c-.82843,0-1.5.67157-1.5,1.5s.67157,1.5,1.5,1.5h35c.82843,0,1.5-.67157,1.5-1.5s-.67157-1.5-1.5-1.5Z"/>
        <path d="M6.5,20h35c.82843,0,1.5-.67157,1.5-1.5s-.67157-1.5-1.5-1.5H6.5c-.82843,0-1.5.67157-1.5,1.5s.67157,1.5,1.5,1.5Z"/>
        <rect x="8" y="35" width="32" height="3"/>
      </g>
    </g>
  </g>
</svg>