<?xml version="1.0" encoding="utf-8"?>
<!-- Generator: Adobe Illustrator 28.3.0, SVG Export Plug-In . SVG Version: 6.00 Build 0)  -->
<svg version="1.1" id="Glyph" xmlns="http://www.w3.org/2000/svg" xmlns:xlink="http://www.w3.org/1999/xlink" x="0px" y="0px"
	 viewBox="0 0 48 48" enable-background="new 0 0 48 48" xml:space="preserve">
<g>
	<path d="M18.99986,35c0-2.75684-2.24314-5-4.99995-5s-4.99995,2.24316-4.99995,5C6.79442,35,5,36.79395,5,39s1.79442,4,3.99996,4
		h9.9999c2.20554,0,3.99996-1.79395,3.99996-4S21.2054,35,18.99986,35z"/>
	<path d="M41.60962,29.39996c-1.98997,0.84003-4.07991,1.26001-6.22992,1.26001c-8.81992,0-15.99984-7.17999-15.99984-16
		c0-2.88,0.77001-5.70001,2.22996-8.14996c0.22003-0.37,0.17999-0.84003-0.10998-1.17004
		c-0.28003-0.32001-0.73998-0.42999-1.14-0.26001C13.68992,7.90997,9.37996,14.40997,9.37996,21.65997
		c0,2.52002,0.52001,4.91998,1.46996,7.10004C11.78991,28.26996,12.86992,28,13.99991,28c3.25998,0,6.00995,2.23999,6.77996,5.26996
		C23.21979,34.02997,24.9998,36.31,24.9998,39c0,0.16998-0.01001,0.32996-0.02002,0.48999c0.79003,0.12,1.59001,0.16998,2.4,0.16998
		c6.32995,0,12.25989-3.38,15.47983-8.83002c0.22003-0.37,0.17999-0.83997-0.10999-1.16998
		C42.4696,29.33997,42.00964,29.22998,41.60962,29.39996z"/>
	<path d="M22.99982,13c1.34081,0,2.5947,0.51953,3.5361,1.46973c0.94433,0.93555,1.46385,2.18945,1.46385,3.53027
		c0,0.55273,0.44726,1,0.99999,1s0.99999-0.44727,0.99999-1c0-2.75684,2.24314-5,4.99995-5c0.55273,0,0.99999-0.44727,0.99999-1
		s-0.44726-1-0.99999-1c-1.34081,0-2.5947-0.51953-3.5361-1.46973C30.51928,8.59473,29.99975,7.34082,29.99975,6
		c0-0.55273-0.44726-1-0.99999-1s-0.99999,0.44727-0.99999,1c0,2.75684-2.24314,5-4.99995,5c-0.55224,0-0.99999,0.44727-0.99999,1
		S22.44758,13,22.99982,13z"/>
	<path d="M31.99973,21c-0.55273,0-0.99999,0.44727-0.99999,1s0.44726,1,0.99999,1c1.07225,0,2.07517,0.41602,2.82907,1.17773
		c0.75488,0.74707,1.17089,1.75,1.17089,2.82227c0,0.55273,0.44726,1,0.99999,1c0.55273,0,0.99999-0.44727,0.99999-1
		c0-2.20605,1.79393-4,3.99996-4c0.55273,0,0.99999-0.44727,0.99999-1s-0.44726-1-0.99999-1
		c-1.07225,0-2.07517-0.41602-2.82907-1.17773c-0.75488-0.74707-1.17089-1.75-1.17089-2.82227c0-0.55273-0.44726-1-0.99999-1
		c-0.55273,0-0.99999,0.44727-0.99999,1C35.99969,19.20605,34.20576,21,31.99973,21z"/>
</g>
</svg>
