<?xml version="1.0" encoding="UTF-8"?>
<svg id="Glyph" xmlns="http://www.w3.org/2000/svg" version="1.1" viewBox="0 0 48 48">
  <path d="M25.55859,24h-10.55859v8h2.15979l9.38098-7.21619-.03394-.10217c-.13574-.40723-.51758-.68164-.94824-.68164Z" fill="#000" stroke-width="0"/>
  <path d="M26.50781,31.31641l.08691-.26367c.41016-1.22852,1.55371-2.05273,2.84668-2.05273h3.55859v-2h-3.55859c-.64905,0-1.26013-.20813-1.75989-.57019l-7.24127,5.57019h5.11835c.43066,0,.8125-.27441.94922-.68359Z" fill="#000" stroke-width="0"/>
  <path d="M14,34c-.55273,0-1-.44727-1-1v-10c0-.55273.44727-1,1-1h11.55859c1.09937,0,2.08606.59937,2.6098,1.5318l7.19135-5.5318H11v18.73828l3.55975-2.73828h-.55975Z" fill="#000" stroke-width="0"/>
  <path d="M34,25c.55273,0,1,.44727,1,1v4c0,.55273-.44727,1-1,1h-4.55859c-.43066,0-.8125.27441-.94922.68359l-.08691.26367c-.41016,1.22852-1.55371,2.05273-2.84668,2.05273h-7.71838l-5.19995,4h24.35974v-18.73828l-7.45978,5.73828h4.45978Z" fill="#000" stroke-width="0"/>
  <path d="M40,9h-2.98999c0-2.21002-1.79004-4-4-4-2.20001,0-4,1.78998-4,4h2c0-1.10004.89996-2,2-2,1.10999,0,2,.89996,2,2h-4c0,1.09998.89996,2,2,2,.56,0,1,.45001,1,1s-.44,1-1,1c-2.20001,0-4-1.79004-4-4h-10.01001c0-2.21002-1.78998-4-4-4s-4,1.78998-4,4h2c0-1.10004.90002-2,2-2s2,.89996,2,2h-4c0,1.09998.90002,2,2,2,.54999,0,1,.45001,1,1s-.45001,1-1,1c-2.21002,0-4-1.79004-4-4h-3c-1.65002,0-3,1.34998-3,3v28c0,1.64996,1.34998,3,3,3h32c1.65002,0,3-1.35004,3-3V12c0-1.65002-1.34998-3-3-3ZM39,39c0,.54999-.45001,1-1,1H10c-.54999,0-1-.45001-1-1v-22c0-.54999.45001-1,1-1h28c.54999,0,1,.45001,1,1v22Z" fill="#000" stroke-width="0"/>
</svg>