<?xml version="1.0" encoding="utf-8"?>
<!-- Generator: Adobe Illustrator 27.3.1, SVG Export Plug-In . SVG Version: 6.00 Build 0)  -->
<svg version="1.1" id="Glyph" xmlns="http://www.w3.org/2000/svg" xmlns:xlink="http://www.w3.org/1999/xlink" x="0px" y="0px"
	 viewBox="0 0 64 64" enable-background="new 0 0 64 64" xml:space="preserve">
<g>
	<path d="M31.75,42.99414C31.83301,42.99805,31.91602,43,32,43c2.75684,0,5-2.24316,5-5c0-0.08398-0.00195-0.16699-0.00586-0.25
		L31.75,42.99414z"/>
	<path d="M27,38c0,0.38281,0.04297,0.7627,0.12598,1.12988l6.00391-6.00391C32.7627,33.04297,32.38281,33,32,33
		C29.24316,33,27,35.24316,27,38z"/>
	<path d="M32,29c-4.96289,0-9,4.03711-9,9s4.03711,9,9,9s9-4.03711,9-9S36.96289,29,32,29z M26.75031,41.90326
		c-0.34509-0.00281-0.69165-0.16998-0.87335-0.49603C25.30371,40.37988,25,39.20215,25,38c0-3.85938,3.14062-7,7-7
		c1.20203,0,2.3797,0.30365,3.40698,0.87677c0.56635,0.31598,0.6759,1.12433,0.21997,1.58026c0,0-8.13721,8.13721-8.1698,8.1698
		C27.26996,41.81403,27.01056,41.9054,26.75031,41.90326z M32,45c-0.91107,0-1.79089-0.16895-2.61505-0.50287
		c-0.6546-0.26526-0.83087-1.13519-0.33221-1.63385c0,0,7.79517-7.79517,7.81055-7.81055
		c0.50073-0.50073,1.36871-0.32141,1.63379,0.33203C38.83105,36.20898,39,37.08887,39,38C39,41.85938,35.85938,45,32,45z"/>
	<path d="M37.05664,21.5752C35.52832,19.5332,33.83105,17.44824,32,15.36426c-1.83105,2.08398-3.52832,4.16895-5.05664,6.21094
		C21.82129,28.42188,19,34.25488,19,38c0,7.16797,5.83203,13,13,13s13-5.83203,13-13
		C45,34.25488,42.17871,28.42188,37.05664,21.5752z M32,49c-6.06543,0-11-4.93457-11-11s4.93457-11,11-11s11,4.93457,11,11
		S38.06543,49,32,49z"/>
	<path d="M32.70703,7.29297c-0.39062-0.39062-1.02344-0.39062-1.41406,0C30.5459,8.04004,13,25.72656,13,38
		c0,10.47656,8.52344,19,19,19s19-8.52344,19-19C51,25.72656,33.4541,8.04004,32.70703,7.29297z M32,53c-8.27148,0-15-6.72852-15-15
		c0-4.1748,2.96289-10.43262,8.3418-17.62207c1.76855-2.36426,3.75781-4.78223,5.91309-7.1875
		c0.38086-0.42383,1.10938-0.42383,1.49023,0c2.15527,2.40527,4.14453,4.82324,5.91309,7.1875C44.03711,27.56738,47,33.8252,47,38
		C47,46.27148,40.27148,53,32,53z"/>
</g>
</svg>
