<?xml version="1.0" encoding="UTF-8"?>
<svg xmlns="http://www.w3.org/2000/svg" version="1.1" viewBox="0 0 64 64">
  <!-- Generator: Adobe Illustrator 28.7.1, SVG Export Plug-In . SVG Version: 1.2.0 Build 142)  -->
  <g>
    <g id="Glyph">
      <g>
        <path d="M31.99874,19c8.24084,0,17-2.10272,17-6s-8.75916-6-17-6-17,2.10266-17,6,8.75916,6,17,6ZM23.99874,10c2.24316,0,4,1.31738,4,3s-1.75684,3-4,3-4-1.31738-4-3,1.75684-3,4-3Z"/>
        <path d="M23.99874,14c1.2207,0,2-.5918,2-1s-.7793-1-2-1-2,.5918-2,1,.7793,1,2,1Z"/>
        <path d="M36.99874,35c0-1.9082-2.81641-5.88477-5-8.47461-2.18359,2.59082-5,6.56836-5,8.47461,0,2.75684,2.24316,5,5,5s5-2.24316,5-5ZM29.00069,35.09473c-.01758-.55273.41504-1.01367.9668-1.03125.01172-.00098.02246-.00098.0332-.00098.53711,0,.98145.42676.99805.96777.01758.53516.46582.96973,1,.96973.55273,0,1,.44727,1,1s-.44727,1-1,1c-1.62988,0-2.94629-1.27637-2.99805-2.90527Z"/>
        <path d="M48.99874,40.4693v-23.5293c-3.71002,3.12-11.71997,4.06-17,4.06s-13.28998-.94-17-4.06v23.5293c2.26562,1.7666,8.31982,3.5307,17,3.5307s14.73438-1.7641,17-3.5307ZM24.99874,35c0-3.59277,5.61523-9.9541,6.25586-10.66797.37891-.42188,1.10938-.42188,1.48828,0,.64062.71387,6.25586,7.0752,6.25586,10.66797,0,3.85938-3.14062,7-7,7s-7-3.14062-7-7Z"/>
        <path d="M31.99874,51c8.23999,0,17-2.33002,17-6.64001v-1.54541c-3.76459,2.08679-10.51617,3.18542-17,3.18542s-13.23541-1.09863-17-3.18542v1.54541c0,4.31,8.76001,6.64001,17,6.64001Z"/>
        <path d="M56.44875,47.31c-.35004-.85004-.51001-1.66003-.46002-2.38.01001-.14001.01001-.28998.01001-.42999,0-2.81-1.76001-5.48004-5-7.63v7.48999c0,5.96997-9.53998,8.64001-19,8.64001s-19-2.67004-19-8.64001v-8.10999c-3.88,2.25-6,5.14001-6,8.25,0,.51001.06,1.01996.17999,1.5.17999.82001.17999,1.64001,0,2.44-.21997.92999-.23999,1.90997-.04999,2.90997.56,2.96002,3.04999,5.26001,6.07001,5.60004,1.69.19,3.39001-.24005,4.77997-1.20001.48999-.34003,1.08002-.45001,1.63-.29004,3.62,1.01001,7.73004,1.54004,11.89001,1.54004,4.42999,0,8.77002-.60004,12.53998-1.73004.60003-.17999,1.25999-.04999,1.77001.34002,1.48769,1.13764,3.4462,1.58975,5.28999,1.31,2.90002-.44,5.28003-2.77002,5.80005-5.66998.22998-1.35004.06995-2.72003-.45001-3.94Z"/>
      </g>
    </g>
  </g>
</svg>