<?xml version="1.0" encoding="UTF-8"?>
<svg xmlns="http://www.w3.org/2000/svg" version="1.1" viewBox="0 0 64 64">
  <!-- Generator: Adobe Illustrator 28.7.1, SVG Export Plug-In . SVG Version: 1.2.0 Build 142)  -->
  <g>
    <g id="Glyph">
      <g>
        <rect x="25" y="28" width="14" height="2"/>
        <path d="M32,24c-1.54999,0-3.01001-.39001-4.28998-1.09003-.26001,1.09003-.67999,2.13-1.27002,3.09003h11.12c-.59003-.96002-1.01001-2-1.27002-3.09003-1.27997.70001-2.73999,1.09003-4.28998,1.09003Z"/>
        <path d="M42,10h-3v-1c0-.55225-.44775-1-1-1h-12c-.55225,0-1,.44775-1,1v1h-3c-.55225,0-1,.44775-1,1,0,2.19189,1.04688,4.28516,2.7998,5.59961l1.6001,1.2002c.07855.05896.16455.09882.25195.13153,1.11194,2.39795,3.53577,4.06866,6.34814,4.06866s5.23621-1.67072,6.34814-4.06866c.0874-.03271.1734-.07257.25195-.13153l1.6001-1.19971c1.75293-1.31494,2.7998-3.4082,2.7998-5.6001,0-.55225-.44775-1-1-1ZM23.10205,12h1.89795v2.99951c-.98193-.73584-1.65332-1.81396-1.89795-2.99951ZM39,15v-3h1.89795c-.24463,1.18555-.91602,2.26367-1.89795,3Z"/>
        <rect x="12" y="42" width="2" height="8"/>
        <rect x="31" y="39" width="2" height="8"/>
        <rect x="16" y="42" width="2" height="8"/>
        <path d="M25,56h14v-24h-14v24ZM28,37h6c.54999,0,1,.45001,1,1v9c.54999,0,1,.45001,1,1s-.45001,1-1,1h-6c-.54999,0-1-.45001-1-1s.45001-1,1-1v-8h-1c-.54999,0-1-.45001-1-1s.45001-1,1-1Z"/>
        <path d="M7,37v18c0,.54999.45001,1,1,1h15v-20h-15c-.54999,0-1,.45001-1,1ZM9,41c0-.54999.45001-1,1-1h10c.54999,0,1,.45001,1,1s-.45001,1-1,1v8c.54999,0,1,.45001,1,1s-.45001,1-1,1h-10c-.54999,0-1-.45001-1-1s.45001-1,1-1v-8c-.54999,0-1-.45001-1-1Z"/>
        <rect x="48" y="42" width="2" height="8"/>
        <path d="M56,34h-15v22h15c.54999,0,1-.45001,1-1v-20c0-.54999-.45001-1-1-1ZM53,50c.54999,0,1,.45001,1,1s-.45001,1-1,1h-8c-.54999,0-1-.45001-1-1s.45001-1,1-1h1v-8h-1c-.54999,0-1-.45001-1-1s.45001-1,1-1h8c.54999,0,1,.45001,1,1s-.45001,1-1,1h-1v8h1Z"/>
      </g>
    </g>
  </g>
</svg>