<?xml version="1.0" encoding="UTF-8"?>
<svg xmlns="http://www.w3.org/2000/svg" version="1.1" viewBox="0 0 64 64">
  <!-- Generator: Adobe Illustrator 28.7.1, SVG Export Plug-In . SVG Version: 1.2.0 Build 142)  -->
  <g>
    <g id="Glyph">
      <g>
        <path d="M7,22v20c0,1.64996,1.34998,3,3,3h12.04999c-.02997-.33002-.04999-.66003-.04999-1,0-1.55084.36603-3.01501,1-4.3269v-20.6731h-13c-1.65002,0-3,1.34998-3,3ZM13,23h4c1.6543,0,3,1.3457,3,3v12c0,1.6543-1.3457,3-3,3h-4c-1.6543,0-3-1.3457-3-3v-12c0-1.6543,1.3457-3,3-3Z"/>
        <path d="M18,27.26459v-1.26459c0-.55127-.44824-1-1-1h-4c-.55176,0-1,.44873-1,1v1.26459c1.98206-.34363,4.01794-.34363,6,0Z"/>
        <path d="M39,36.87347v-17.87347h-14v17.87354c1.80597-1.77423,4.2771-2.87354,7-2.87354s5.19403,1.09924,7,2.87347ZM28.29297,28.70703c-.39062-.39062-.39062-1.02344,0-1.41406s1.02344-.39062,1.41406,0l1.29297,1.29297v-5.58594c0-.55225.44727-1,1-1s1,.44775,1,1v5.58594l1.29297-1.29297c.39062-.39062,1.02344-.39062,1.41406,0s.39062,1.02344,0,1.41406l-3,3c-.19531.19531-.45117.29297-.70703.29297s-.51172-.09766-.70703-.29297l-3-3Z"/>
        <path d="M13,39h4c.55176,0,1-.44873,1-1v-1.26459c-.99091.17181-1.99487.26263-3,.26263s-2.00909-.09082-3-.26263v1.26459c0,.55127.44824,1,1,1Z"/>
        <path d="M46,36.73541v1.26459c0,.55127.44824,1,1,1h4c.55176,0,1-.44873,1-1v-1.26459c-.99091.17181-1.99487.26263-3,.26263s-2.00909-.09082-3-.26263Z"/>
        <path d="M18,34.70215v-5.4043c-1.97729-.38904-4.02271-.38904-6,0v5.4043c1.97729.38904,4.02271.38904,6,0Z"/>
        <path d="M46,29.29785v5.4043c1.97729.38904,4.02271.38904,6,0v-5.4043c-1.97729-.38904-4.02271-.38904-6,0Z"/>
        <path d="M54,19h-13v20.6731c.63397,1.31189,1,2.77606,1,4.3269,0,.33997-.02002.66998-.04999,1h12.04999c1.65002,0,3-1.35004,3-3v-20c0-1.65002-1.34998-3-3-3ZM54,38c0,1.6543-1.3457,3-3,3h-4c-1.6543,0-3-1.3457-3-3v-12c0-1.6543,1.3457-3,3-3h4c1.6543,0,3,1.3457,3,3v12Z"/>
        <path d="M51,25h-4c-.55176,0-1,.44873-1,1v1.26459c1.98206-.34363,4.01794-.34363,6,0v-1.26459c0-.55127-.44824-1-1-1Z"/>
        <path d="M32,41h-1v2h1c.54999,0,1-.45001,1-1s-.45001-1-1-1Z"/>
        <path d="M32,36c-4.40997,0-8,3.58997-8,8s3.59003,8,8,8,8-3.59003,8-8-3.59003-8-8-8ZM32,45h-1v3c0,.54999-.45001,1-1,1s-1-.45001-1-1v-8c0-.54999.45001-1,1-1h2c1.65002,0,3,1.34998,3,3s-1.34998,3-3,3Z"/>
      </g>
    </g>
  </g>
</svg>