<?xml version="1.0" encoding="UTF-8"?>
<svg xmlns="http://www.w3.org/2000/svg" version="1.1" viewBox="0 0 48 48">
  <!-- Generator: Adobe Illustrator 28.7.1, SVG Export Plug-In . SVG Version: 1.2.0 Build 142)  -->
  <g>
    <g id="Glyph">
      <g>
        <rect x="25.02631" y="28.125" width="4.10529" height="4.125"/>
        <rect x="31.1842" y="21.9375" width="4.10529" height="4.125"/>
        <rect x="37.3421" y="21.9375" width="5.6579" height="4.125"/>
        <rect x="12.71051" y="21.9375" width="4.10529" height="4.125"/>
        <rect x="18.86841" y="21.9375" width="4.10529" height="4.125"/>
        <rect x="18.86841" y="28.125" width="4.10529" height="4.125"/>
        <rect x="37.3421" y="15.75" width="5.6579" height="4.125"/>
        <rect x="12.71051" y="28.125" width="4.10529" height="4.125"/>
        <rect x="5" y="21.9375" width="5.6579" height="4.125"/>
        <rect x="5" y="28.125" width="5.6579" height="4.125"/>
        <rect x="31.1842" y="28.125" width="4.10529" height="4.125"/>
        <rect x="37.3421" y="28.125" width="5.6579" height="4.125"/>
        <rect x="31.1842" y="34.3125" width="4.10529" height="4.125"/>
        <rect x="37.3421" y="34.3125" width="5.6579" height="4.125"/>
        <rect x="5" y="9.5625" width="5.6579" height="4.125"/>
        <rect x="25.02631" y="34.3125" width="4.10529" height="4.125"/>
        <rect x="12.71051" y="15.75" width="4.10529" height="4.125"/>
        <rect x="5" y="15.75" width="5.6579" height="4.125"/>
        <rect x="5" y="34.3125" width="5.6579" height="4.125"/>
        <rect x="18.86841" y="34.3125" width="4.10529" height="4.125"/>
        <rect x="12.71051" y="34.3125" width="4.10529" height="4.125"/>
      </g>
    </g>
  </g>
</svg>