<?xml version="1.0" encoding="UTF-8"?>
<svg xmlns="http://www.w3.org/2000/svg" version="1.1" viewBox="0 0 64 64">
  <!-- Generator: Adobe Illustrator 28.7.1, SVG Export Plug-In . SVG Version: 1.2.0 Build 142)  -->
  <g>
    <g id="Glyph">
      <g>
        <path d="M50.85059,47.47461c-.18262-.29492-.50391-.47461-.85059-.47461H14c-2.75684,0-5,2.24316-5,5s2.24316,5,5,5h36c.34668,0,.66797-.17969.85059-.47461s.19922-.66309.04395-.97266c-1.1123-2.22461-1.1123-4.88086,0-7.10547.15527-.30957.13867-.67773-.04395-.97266ZM20,53h-6c-.55273,0-1-.44727-1-1s.44727-1,1-1h6c.55273,0,1,.44727,1,1s-.44727,1-1,1ZM45,53h-21c-.55273,0-1-.44727-1-1s.44727-1,1-1h21c.55273,0,1,.44727,1,1s-.44727,1-1,1Z"/>
        <path d="M36.55762,28.8457l7.44238-1.48828v-6l-4,.66602v2.15332c0,.37891-.21387.72461-.55273.89453-2.78516,1.39258-6.10938,1.39258-8.89453,0-.33887-.16992-.55273-.51562-.55273-.89453v-2.15332l-4-.66602v6l7.44238,1.48828c1.0332.20703,2.08203.20703,3.11523,0Z"/>
        <path d="M15,45V7c-3.31,0-6,2.69-6,6v34.10999c1.27002-1.29999,3.03998-2.10999,5-2.10999h1Z"/>
        <path d="M22,41h24v-6h-24v6ZM25,37h18c.55273,0,1,.44727,1,1s-.44727,1-1,1h-18c-.55273,0-1-.44727-1-1s.44727-1,1-1Z"/>
        <path d="M50,7H17v38h33c.34998,0,.67999.06,1,.16998V8c0-.54999-.45001-1-1-1ZM27.22266,12.22266c2.0791-2.07812,4.84082-3.22266,7.77734-3.22266s5.69824,1.14453,7.77734,3.22266c.39062.39062.39062,1.02341.00003,1.41403-.37269.37272-1.02197.39215-1.41409.00003-1.70117-1.7002-3.96094-2.63672-6.36328-2.63672s-4.66211.93652-6.36328,2.63672c-.39062.39062-1.02344.39062-1.41406,0s-.39062-1.02344,0-1.41406ZM35,15c-1.34082,0-2.59473.51953-3.53027,1.46387-.38867.39258-1.02148.39453-1.41406.00586s-.39453-1.02148-.00586-1.41406c1.31348-1.3252,3.07129-2.05566,4.9502-2.05566s3.63672.73047,4.9502,2.05566c.38863.39253.38672,1.02525-.00573,1.41393-.37241.36883-1.02398.38838-1.41419-.00573-.93555-.94434-2.18945-1.46387-3.53027-1.46387ZM37.10742,19.30664c-.37636.36614-1.0268.37735-1.41406-.01953-.35938-.36914-1.02734-.36914-1.38672,0-.38574.39551-1.01855.40527-1.41406.01953-.39648-.38574-.4043-1.01855-.01953-1.41406,1.12109-1.15234,3.13281-1.15234,4.25391,0,.38472.39546.37696,1.02816-.01953,1.41406ZM24,20.17676c0-.29395.12891-.57324.35352-.7627.22363-.19043.52051-.26953.81055-.22363l6,1c.48242.08008.83594.49707.83594.98633v2.35547c1.91602.78125,4.08398.78125,6,0v-2.35547c0-.48926.35352-.90625.83594-.98633l6-1c.29102-.0459.58691.0332.81055.22363.22461.18945.35352.46875.35352.7627v8c0,.47656-.33691.88672-.80371.98047l-8.24609,1.64941c-.64746.12988-1.29883.19434-1.9502.19434s-1.30273-.06445-1.9502-.19434l-8.24609-1.64941c-.4668-.09375-.80371-.50391-.80371-.98047v-8ZM48,42c0,.55273-.44727,1-1,1h-26c-.55273,0-1-.44727-1-1v-8c0-.55273.44727-1,1-1h26c.55273,0,1,.44727,1,1v8Z"/>
        <rect x="53" y="11" width="2" height="4"/>
        <rect x="53" y="17" width="2" height="4"/>
        <rect x="53" y="29" width="2" height="4"/>
        <rect x="53" y="23" width="2" height="4"/>
      </g>
    </g>
  </g>
</svg>