<?xml version="1.0" encoding="utf-8"?>
<!-- Generator: Adobe Illustrator 28.3.0, SVG Export Plug-In . SVG Version: 6.00 Build 0)  -->
<svg version="1.1" id="Glyph" xmlns="http://www.w3.org/2000/svg" xmlns:xlink="http://www.w3.org/1999/xlink" x="0px" y="0px"
	 viewBox="0 0 48 48" enable-background="new 0 0 48 48" xml:space="preserve">
<g>
	<path d="M31.03387,23.55206c-1.66736-1.39069-3.75092-2.29443-6.03387-2.5014v3.01929
		c1.45752,0.18304,2.79291,0.75684,3.89886,1.61713L31.03387,23.55206z"/>
	<path d="M13.05066,31h3.01184c0.18256-1.45844,0.76124-2.7948,1.62201-3.90143l-2.13245-2.13245
		C14.16138,26.63354,13.25763,28.71716,13.05066,31z"/>
	<path d="M23,24.06995v-3.01929c-2.28296,0.20697-4.36652,1.11072-6.03387,2.5014l2.13501,2.13501
		C20.20709,24.82678,21.54248,24.25299,23,24.06995z"/>
	<circle cx="24" cy="37" r="1"/>
	<path d="M30.31549,27.09857c0.86078,1.10663,1.43945,2.44299,1.622,3.90143h3.01185
		c-0.20697-2.28284-1.11072-4.36646-2.5014-6.03387L30.31549,27.09857z"/>
	<path d="M30,32c0-3.30859-2.69141-6-6-6s-6,2.69141-6,6c0,0.55273-0.44727,1-1,1h-3.94934C13.55817,38.59814,18.27179,43,24,43
		s10.44183-4.40186,10.94934-10H31C30.44727,33,30,32.55273,30,32z M27,37c0,1.6543-1.3457,3-3,3s-3-1.3457-3-3
		c0-1.30194,0.8385-2.40161,2-2.81573v-2.7702l-0.29297,0.29297c-0.39062,0.39062-1.02344,0.39062-1.41406,0
		s-0.39062-1.02344,0-1.41406l2-2c0.39062-0.39062,1.02344-0.39062,1.41406,0l2,2c0.39062,0.39062,0.39062,1.02344-0.00014,1.4142
		c-0.3882,0.38805-1.02425,0.38954-1.41393-0.00014L25,31.41406v2.7702C26.1615,34.59839,27,35.69806,27,37z"/>
	<path d="M38.97998,16.48999C38.98999,16.32996,39,16.16998,39,16c0-2.76001-2.23999-5-5-5
		c-0.40997,0-0.82001,0.04999-1.21997,0.14996C31.94,7.60999,28.75,5,25,5c-3.67999,0-6.84998,2.51996-7.73999,6H17
		c-3.85999,0-7,3.14001-7,7c0,0.33997,0.02002,0.66998,0.07001,1c0,0-0.06982,0-0.07001,0c-2.72192,0-5,2.2807-5,5
		c0,2.76001,2.23999,5,5,5h1.34998C12.71002,23.26996,17.85999,19,24,19c6.13,0,11.28998,4.26996,12.65002,9.98999
		c1.67999-0.03003,3.25995-0.71002,4.44995-1.89001C42.32001,25.87,43,24.23999,43,22.5
		C43,19.82996,41.39001,17.47998,38.97998,16.48999z M28,14c-0.55273,0-1-0.44775-1-1c0-1.10303-0.89746-2-2-2s-2,0.89697-2,2
		c0,0.55225-0.44727,1-1,1s-1-0.44775-1-1c0-2.20557,1.79395-4,4-4s4,1.79443,4,4C29,13.55225,28.55273,14,28,14z"/>
</g>
</svg>
