<?xml version="1.0" encoding="utf-8"?>
<!-- Generator: Adobe Illustrator 27.3.1, SVG Export Plug-In . SVG Version: 6.00 Build 0)  -->
<svg version="1.1" id="Glyph" xmlns="http://www.w3.org/2000/svg" xmlns:xlink="http://www.w3.org/1999/xlink" x="0px" y="0px"
	 viewBox="0 0 48 48" enable-background="new 0 0 48 48" xml:space="preserve">
<g>
	<path d="M19.57764,16.33936L15.15479,24l4.42285,7.66016h8.84473L32.84521,24l-4.42285-7.66064H19.57764z M30,22v4
		c0,0.55273-0.44775,1-1,1H19c-0.55225,0-1-0.44727-1-1v-4c0-0.55225,0.44775-1,1-1h10C29.55225,21,30,21.44775,30,22z"/>
	<path d="M25,9.05066C32.47247,9.54712,38.45288,15.52753,38.94934,23h4C42.44189,13.32263,34.67737,5.55811,25,5.05066V9.05066z"/>
	<rect x="20" y="23" width="8" height="2"/>
	<path d="M37,24c0-7.16846-5.83154-13-13-13s-13,5.83154-13,13c0,7.16797,5.83154,13,13,13S37,31.16797,37,24z M28.99951,33.66016
		h-9.99902c-0.35742,0-0.6875-0.19043-0.86621-0.5L13.13379,24.5c-0.17822-0.30957-0.17822-0.69043,0-1l5.00049-8.66064
		c0.17871-0.30957,0.50879-0.5,0.86621-0.5h9.99902c0.35742,0,0.6875,0.19043,0.86621,0.5L34.86621,23.5
		c0.17822,0.30957,0.17822,0.69043,0,1l-5.00049,8.66016C29.68701,33.46973,29.35693,33.66016,28.99951,33.66016z"/>
	<path d="M23,38.94934C15.52753,38.45288,9.54712,32.47284,9.05066,25h-4C5.55811,34.67737,13.32263,42.44189,23,42.94934V38.94934z
		"/>
	<path d="M38.94934,25C38.45288,32.47284,32.47247,38.45288,25,38.94934v4C34.67737,42.44189,42.44189,34.67737,42.94934,25
		H38.94934z"/>
	<path d="M9.05066,23C9.54712,15.52753,15.52753,9.54712,23,9.05066v-4C13.32263,5.55811,5.55811,13.32263,5.05066,23H9.05066z"/>
</g>
</svg>
