<?xml version="1.0" encoding="UTF-8"?>
<svg id="Glyph" xmlns="http://www.w3.org/2000/svg" version="1.1" viewBox="0 0 48 48">
  <path d="M15,6c0-.54999-.45001-1-1-1h-4c-.54999,0-1,.45001-1,1v1h6v-1Z" fill="#000" stroke-width="0"/>
  <rect x="9" y="17" width="6" height="2" fill="#000" stroke-width="0"/>
  <rect x="9" y="29" width="6" height="2" fill="#000" stroke-width="0"/>
  <path d="M9,42c0,.54999.45001,1,1,1h4c.54999,0,1-.45001,1-1v-1h-6v1Z" fill="#000" stroke-width="0"/>
  <path d="M39.01001,6c0-.54999-.44-1-1-1h-4c-.54999,0-1,.45001-1,1v1h6v-1Z" fill="#000" stroke-width="0"/>
  <rect x="33.01001" y="17" width="6" height="2" fill="#000" stroke-width="0"/>
  <rect x="33.01001" y="29" width="6" height="2" fill="#000" stroke-width="0"/>
  <path d="M33.01001,42c0,.54999.45001,1,1,1h4c.56,0,1-.45001,1-1v-1h-6v1Z" fill="#000" stroke-width="0"/>
  <path d="M40,33H8c-.54999,0-1,.45001-1,1v4c0,.54999.45001,1,1,1h32c.54999,0,1-.45001,1-1v-4c0-.54999-.45001-1-1-1ZM10,37c-.54999,0-1-.45001-1-1s.45001-1,1-1,1,.45001,1,1-.45001,1-1,1ZM14,37c-.54999,0-1-.45001-1-1s.45001-1,1-1,1,.45001,1,1-.45001,1-1,1ZM34,37c-.52002,0-.94-.40002-.98999-.90002v-.20001c.04999-.5.46997-.89996.98999-.89996.54999,0,1,.45001,1,1s-.45001,1-1,1ZM38,37c-.54999,0-1-.45001-1-1s.45001-1,1-1,1,.45001,1,1-.45001,1-1,1Z" fill="#000" stroke-width="0"/>
  <path d="M40,21H8c-.54999,0-1,.45001-1,1v4c0,.54999.45001,1,1,1h32c.54999,0,1-.45001,1-1v-4c0-.54999-.45001-1-1-1ZM10,25c-.54999,0-1-.45001-1-1s.45001-1,1-1,1,.45001,1,1-.45001,1-1,1ZM14,25c-.54999,0-1-.45001-1-1s.45001-1,1-1,1,.45001,1,1-.45001,1-1,1ZM34,25c-.52002,0-.94-.40002-.98999-.90002v-.20001c.04999-.5.46997-.89996.98999-.89996.54999,0,1,.45001,1,1s-.45001,1-1,1ZM38,25c-.54999,0-1-.45001-1-1s.45001-1,1-1,1,.45001,1,1-.45001,1-1,1Z" fill="#000" stroke-width="0"/>
  <path d="M40,9H8c-.54999,0-1,.45001-1,1v4c0,.54999.45001,1,1,1h32c.54999,0,1-.45001,1-1v-4c0-.54999-.45001-1-1-1ZM10,13c-.54999,0-1-.45001-1-1s.45001-1,1-1,1,.45001,1,1-.45001,1-1,1ZM14,13c-.54999,0-1-.45001-1-1s.45001-1,1-1,1,.45001,1,1-.45001,1-1,1ZM34,13c-.52002,0-.94-.40002-.98999-.90002v-.20001c.04999-.5.46997-.89996.98999-.89996.54999,0,1,.45001,1,1s-.45001,1-1,1ZM38,13c-.54999,0-1-.45001-1-1s.45001-1,1-1,1,.45001,1,1-.45001,1-1,1Z" fill="#000" stroke-width="0"/>
</svg>