<?xml version="1.0" encoding="UTF-8"?>
<svg xmlns="http://www.w3.org/2000/svg" version="1.1" viewBox="0 0 64 64">
  <!-- Generator: Adobe Illustrator 28.7.1, SVG Export Plug-In . SVG Version: 1.2.0 Build 142)  -->
  <g>
    <g id="Glyph">
      <g>
        <path d="M41.4486,32.48706h-1.42999c.44,3.98999.44,8.01001,0,12h1.42999c.54999,0,1-.45001,1-1v-10c0-.54999-.45001-1-1-1Z"/>
        <path d="M22.4486,18.48706c1.6543,0,3-1.3457,3-3,0-1.27832-1.52246-3.62012-2.17676-4.56836-.375-.54102-1.27148-.54102-1.64648,0-.6543.94824-2.17676,3.29004-2.17676,4.56836,0,1.6543,1.3457,3,3,3Z"/>
        <path d="M29.4486,15.48706c1.6543,0,3-1.3457,3-3,0-1.27832-1.52246-3.62012-2.17676-4.56836-.375-.54102-1.27148-.54102-1.64648,0-.6543.94824-2.17676,3.29004-2.17676,4.56836,0,1.6543,1.3457,3,3,3Z"/>
        <path d="M15.4486,15.48706c1.6543,0,3-1.3457,3-3,0-1.27832-1.52246-3.62012-2.17676-4.56836-.375-.54102-1.27148-.54102-1.64648,0-.6543.94824-2.17676,3.29004-2.17676,4.56836,0,1.6543,1.3457,3,3,3Z"/>
        <path d="M11.4486,38.48706c0-3.71985,1.86072-7.00824,4.69525-9H7.33019c-1.03839,5.9494-1.03839,12.0506,0,18h8.81366c-2.83453-1.99176-4.69525-5.28015-4.69525-9Z"/>
        <path d="M35.39196,21.15405c-.1416-.39941-.51953-.66699-.94336-.66699H10.4486c-.42383,0-.80176.26758-.94336.66699-.73279,2.07666-1.32825,4.19269-1.78876,6.33301h29.46423c-.46051-2.14032-1.05597-4.25635-1.78876-6.33301Z"/>
        <path d="M28.75335,29.48706c2.83453,1.99176,4.69525,5.28015,4.69525,9s-1.86072,7.00824-4.69525,9h8.81366c1.03839-5.9494,1.03839-12.0506,0-18h-8.81366Z"/>
        <path d="M9.50524,55.82007c.1416.39941.51953.66699.94336.66699h24c.42383,0,.80176-.26758.94336-.66699.73279-2.07666,1.32825-4.19269,1.78876-6.33301H7.71648c.46051,2.14032,1.05597,4.25635,1.78876,6.33301Z"/>
        <path d="M13.4486,38.48706c0,4.96289,4.03711,9,9,9s9-4.03711,9-9-4.03711-9-9-9-9,4.03711-9,9ZM29.15563,38.78003c.39058.39058.39062,1.02328.00015,1.41392-.36114.36128-1.02882.38554-1.41421.00015l-.43237-.43237c-.58636,2.69769-2.98969,4.72534-5.8606,4.72534h-2c-.55273,0-1-.44727-1-1s.44727-1,1-1h2c1.54919,0,2.88007-.89398,3.54425-2.18481-.38837.25824-.90869.23444-1.25128-.10815-.39062-.39062-.39062-1.02344,0-1.41406l2-2c.39062-.39062,1.02344-.39062,1.41406,0l2,2ZM17.15563,36.78003l.43237.43237c.58636-2.69769,2.98969-4.72534,5.8606-4.72534h2c.55273,0,1,.44727,1,1s-.44727,1-1,1h-2c-1.54919,0-2.88007.89398-3.54425,2.18481.38837-.25824.90869-.23444,1.25128.10815.39062.39062.39062,1.02344,0,1.41406l-2,2c-.19531.19531-.45117.29297-.70703.29297s-.51172-.09766-.70703-.29297l-2-2c-.39062-.39062-.39062-1.02344,0-1.41406s1.02344-.39062,1.41406,0Z"/>
        <path d="M56.4486,35.48706h-12v6h7v3c0,.55273.44727,1,1,1h4c.55273,0,1-.44727,1-1v-8c0-.55273-.44727-1-1-1Z"/>
        <path d="M53.4486,32.48706v1h-8v-1c0-.54999.45001-1,1-1h2v-2h-2c-.54999,0-1-.45001-1-1s.45001-1,1-1h6c.54999,0,1,.45001,1,1s-.45001,1-1,1h-2v2h2c.54999,0,1,.45001,1,1Z"/>
      </g>
    </g>
  </g>
</svg>