<?xml version="1.0" encoding="UTF-8"?>
<svg xmlns="http://www.w3.org/2000/svg" version="1.1" viewBox="0 0 48 48">
  <!-- Generator: Adobe Illustrator 28.7.1, SVG Export Plug-In . SVG Version: 1.2.0 Build 142)  -->
  <g>
    <g id="Glyph">
      <g>
        <path d="M13.09998,14h9c.83002,0,1.5-.67004,1.5-1.5,0-.83002-.66998-1.5-1.5-1.5h-9c-.81995,0-1.5.66998-1.5,1.5,0,.82996.68005,1.5,1.5,1.5Z"/>
        <circle cx="17" cy="31" r="1"/>
        <path d="M21.59998,23.73999v-7.73999h-8v7.73999l-8.21997,14.79999c-.52002.94-.51001,2.06.03998,2.97998.54004.93005,1.51001,1.48004,2.58002,1.48004h19.20001c1.08002,0,2.04999-.54999,2.58997-1.48004.55005-.91998.56-2.03998.04004-2.97998l-8.23004-14.79999ZM12,39c-.55231,0-1-.44775-1-1,0-.55231.44769-1,1-1s1,.44769,1,1c0,.55225-.44769,1-1,1ZM16,38c-.55231,0-1-.44775-1-1,0-.55231.44769-1,1-1s1,.44769,1,1c0,.55225-.44769,1-1,1ZM14,31c0-1.6543,1.3457-3,3-3s3,1.3457,3,3-1.3457,3-3,3-3-1.3457-3-3ZM20,39c-.55231,0-1-.44775-1-1,0-.55231.44769-1,1-1s1,.44769,1,1c0,.55225-.44769,1-1,1ZM21,36c-.55231,0-1-.44775-1-1,0-.55231.44769-1,1-1s1,.44769,1,1c0,.55225-.44769,1-1,1ZM24,39c-.55231,0-1-.44775-1-1,0-.55231.44769-1,1-1s1,.44769,1,1c0,.55225-.44769,1-1,1Z"/>
        <path d="M27,29.32996l4.58002,8.24005c.87,1.57001.83997,3.41998-.07001,4.96997.77002.29999,1.60999.46002,2.48999.46002,3.52002,0,6.42999-2.60999,6.91998-6h-3.91998c-.54999,0-1-.45001-1-1s.45001-1,1-1h4v-2h-4c-.54999,0-1-.45001-1-1s.45001-1,1-1h4v-2h-4c-.54999,0-1-.45001-1-1s.45001-1,1-1h4v-2h-4c-.54999,0-1-.45001-1-1s.45001-1,1-1h4v-3h-14v9.32996Z"/>
        <path d="M41.5,15h-15c-.82843,0-1.5.67157-1.5,1.5s.67157,1.5,1.5,1.5h15c.82843,0,1.5-.67157,1.5-1.5s-.67157-1.5-1.5-1.5Z"/>
      </g>
    </g>
  </g>
</svg>