<?xml version="1.0" encoding="UTF-8"?>
<svg id="Glyph" xmlns="http://www.w3.org/2000/svg" version="1.1" viewBox="0 0 64 64">
  <path d="M32,7c-2.44189,0-4.86719.35742-7.20801,1.06152-.50635.15332-.80664.67285-.68506,1.1875l.91992,3.90039c.06396.27051.23779.50293.47998.64062.2417.13672.53027.16699.79541.08301,1.82617-.5791,3.74316-.87305,5.69775-.87305,10.47656,0,19,8.52344,19,19s-8.52344,19-19,19-19-8.52344-19-19c0-2.05176.32227-4.05371.96191-5.96387.27539-.85645.62695-1.70703,1.05029-2.54004l1.43066,1.43066c.25439.25391.62549.35156.97363.25684.34717-.09668.61621-.37207.70361-.7207l2.83008-11.30957c.08496-.34082-.01465-.70215-.26318-.9502s-.61084-.34863-.94971-.2627l-11.31006,2.83008c-.34961.08691-.625.35547-.72119.70312-.09619.34668.00195.71875.25684.97363l2.63672,2.63672c-.6167,1.01855-1.16016,2.07617-1.62061,3.15625-1.31299,3.10059-1.979,6.38379-1.979,9.75977,0,13.78516,11.21484,25,25,25s25-11.21484,25-25S45.78516,7,32,7Z" fill="#000" stroke-width="0"/>
  <path d="M31.58105,20.0918l-12.58142,5.80682,13.00037,5.99982,13.00037-5.99982-12.58142-5.80682c-.26562-.12305-.57227-.12305-.83789,0Z" fill="#000" stroke-width="0"/>
  <path d="M25.03418,39.88477l-7.03418-3.70221v2.81744c0,.38965.22656.74414.58105.9082l12.41895,5.73181v-12l-13-5.99963v6.28229l7.96582,4.19257c.48871.25677.67627.86121.41901,1.35046-.25391.48291-.86865.67188-1.35065.41907Z" fill="#000" stroke-width="0"/>
  <path d="M38.08105,38.0918l7.91895-3.65466v-6.79675l-13,5.99963v12l12.41895-5.73181c.35449-.16406.58105-.51855.58105-.9082v-2.3598s-7.0575,3.25714-7.08105,3.26801c-.46924.21649-1.09717.00916-1.32715-.48926-.23096-.50098-.01221-1.0957.48926-1.32715Z" fill="#000" stroke-width="0"/>
</svg>