<?xml version="1.0" encoding="UTF-8"?>
<svg id="Glyph" xmlns="http://www.w3.org/2000/svg" version="1.1" viewBox="0 0 64 64">
  <path d="M44,7c-7.16797,0-13,5.83154-13,13s5.83203,13,13,13,13-5.83154,13-13-5.83203-13-13-13ZM51.77832,23.53564c.38672.38666.38629,1.02771,0,1.41406,0,0-2.82147,2.82092-2.8291,2.82855-.36786.36786-1.02234.39172-1.41406.00006l-3.53516-3.53564-3.53516,3.53564c-.39062.39062-1.02344.39062-1.41406,0,0,0-2.82562-2.8252-2.8291-2.82861-.37079-.37073-.39685-1.01727,0-1.41406l3.53613-3.53564s-3.53381-3.53339-3.53613-3.53564c-.38721-.38715-.38745-1.02661,0-1.41406l2.8291-2.82861c.39062-.39062,1.02344-.39062,1.41406,0l3.53516,3.53564,3.53516-3.53564c.39062-.39062,1.02344-.39062,1.41406,0,0,0,2.82141,2.82086,2.8291,2.82855.38678.38678.38623,1.02783,0,1.41412l-3.53613,3.53564s3.53473,3.53424,3.53613,3.53564Z" fill="#000" stroke-width="0"/>
  <path d="M44.70703,17.87842c-.375.375-1.03906.375-1.41406,0l-3.53516-3.53564-1.41504,1.41455s3.51941,3.51892,3.53607,3.53558c.3653.36523.38715,1.02704.00006,1.41412l-3.53613,3.53564,1.41504,1.41455s3.53265-3.53314,3.53516-3.53564c.38678-.38684,1.02765-.38647,1.41406,0l3.53516,3.53564,1.41504-1.41455-3.53613-3.53564c-.38684-.38684-.38763-1.02643,0-1.41406l3.53613-3.53564-1.41504-1.41455-3.53516,3.53564Z" fill="#000" stroke-width="0"/>
  <polygon points="19 45.7207 7 41.72095 7 43.61267 19 47.61279 19 45.7207" fill="#000" stroke-width="0"/>
  <polygon points="37 47.61279 49 43.61267 49 41.72095 37 45.7207 37 47.61279" fill="#000" stroke-width="0"/>
  <path d="M29.01001,20.29999l-.67999-.23999c-.21002-.08002-.45001-.08002-.66003,0l-19.66455,6.88257,19.99457,6.99786,6.55707-2.29486c-3.31592-2.69434-5.46271-6.77319-5.54706-11.34558Z" fill="#000" stroke-width="0"/>
  <path d="M7,35.61261l13.31641,4.43866c.52344.1748.80664.74115.63184,1.26508-.16608.49786-.73975.80731-1.26465.63239l-12.68359-4.22772v1.8916l13.31641,4.43866c.4082.13623.68359.51807.68359.94873v3.99988c0,.67041-.68701,1.15668-1.31641.94885l-12.68359-4.22772v3.27899c0,.41998.27002.79999.66998.94l19.33002,7.06v-21.29065l-20-6.99988v6.90314Z" fill="#000" stroke-width="0"/>
  <path d="M36.62225,33.04163l-7.62225,2.66772v21.29065l19.33002-7.06c.39996-.14001.66998-.52002.66998-.94v-3.27899s-12.68359,4.22772-12.68365,4.22772c-.63953.21112-1.31635-.27155-1.31635-.94873v-4c0-.43066.27539-.8125.68359-.94873l13.31641-4.43866v-1.8916s-12.63641,4.21198-12.68347,4.22766c-.49579.16528-1.08893-.10474-1.26477-.63226-.1748-.52393.1084-1.09033.63184-1.26514l13.31641-4.43866v-1.4726c-1.56.56-3.23999.85999-5,.85999-2.68256,0-5.19629-.71912-7.37775-1.95837Z" fill="#000" stroke-width="0"/>
</svg>