<?xml version="1.0" encoding="utf-8"?>
<!-- Generator: Adobe Illustrator 27.3.1, SVG Export Plug-In . SVG Version: 6.00 Build 0)  -->
<svg version="1.1" id="Glyph" xmlns="http://www.w3.org/2000/svg" xmlns:xlink="http://www.w3.org/1999/xlink" x="0px" y="0px"
	 viewBox="0 0 64 64" enable-background="new 0 0 64 64" xml:space="preserve">
<g>
	<path d="M41.71002,7.28998c-0.38-0.37-1.04004-0.37-1.42004,0c-0.44995,0.46002-8.38,8.45001-12.63,16.72998
		C34.52002,24.35999,40,30.04999,40,37c0,4.38-2.17999,8.26001-5.5,10.60999C36.48999,48.5,38.69,49,41,49
		c8.82001,0,16-7.17999,16-16C57,22.70001,42.33002,7.91998,41.71002,7.28998z M41,45c-0.55273,0-1-0.44727-1-1s0.44727-1,1-1
		c5.51367,0,10-4.48633,10-10c0-0.55225,0.44727-1,1-1s1,0.44775,1,1C53,39.61719,47.61719,45,41,45z"/>
	<path d="M14.97998,41.94l-1.01996,1.01996c-0.17999,0.19-0.29004,0.44-0.29004,0.71002S13.78003,44.19,13.96002,44.38
		L19.62,50.03998c0.39282,0.37213,1.02875,0.39117,1.41998,0c0.00421-0.00421,1.02002-1.02002,1.02002-1.02002
		C18.85999,47.70996,16.28998,45.14001,14.97998,41.94z"/>
	<path d="M8.73999,48.89001c-2.09906,1.66687-2.31531,4.88464-0.40997,6.78998c1.88947,1.8894,5.13812,1.67938,6.77997-0.42999
		c0.00189-0.00244,3.02002-3.88,3.02002-3.88l-5.5-5.5L8.73999,48.89001z"/>
	<path d="M38,37c0-6.06543-4.93457-11-11-11s-11,4.93457-11,11s4.93457,11,11,11S38,43.06543,38,37z M30,32c0.55231,0,1,0.44769,1,1
		c0,0.55225-0.44769,1-1,1s-1-0.44775-1-1C29,32.44769,29.44769,32,30,32z M20.99915,37.9967
		c-0.15009,0.00146-0.30273-0.03082-0.44641-0.10217c-0.49414-0.24707-0.69434-0.84766-0.44727-1.3418l0.46436-0.92871
		C21.0708,34.62207,22.07764,34,23.19727,34c0.25049,0,0.48584-0.09766,0.66309-0.27441l0.86523-0.86523
		C24.90234,32.68311,25,32.44775,25,32.19727V31c0-0.55225,0.44775-1,1-1s1,0.44775,1,1v1.19727
		c0,0.78467-0.30566,1.52246-0.86035,2.07715l-0.86523,0.86523C24.71973,35.69434,23.98193,36,23.19727,36
		c-0.35742,0-0.67871,0.19824-0.83838,0.51855c0,0-0.46423,0.92853-0.46436,0.92871
		C21.72662,37.78302,21.37054,37.99316,20.99915,37.9967z M23.46973,42.89648c-0.54651,0.18176-1.20251,0.06018-1.41748-0.57715
		c-0.17627-0.52344,0.10547-1.09082,0.62891-1.26758L22.83496,41C24.13086,40.56836,25,39.36328,25,38c0-0.55273,0.44775-1,1-1
		s1,0.44727,1,1C27,40.2254,25.58179,42.19299,23.46973,42.89648z M28,44c-0.55231,0-1-0.44775-1-1c0-0.55231,0.44769-1,1-1
		s1,0.44769,1,1C29,43.55225,28.55231,44,28,44z M33.01849,39.98572c-0.07214,0.01141-0.14484,0.01721-0.21674,0.01721
		c-1.94678,0-3.67627-1.21973-4.32471-3.05664c-0.18408-0.52148,0.08936-1.0918,0.60986-1.27637
		c0.52246-0.17969,1.09229,0.08984,1.27588,0.61035c0.37109,1.0498,1.39014,1.73828,2.48047,1.72266L32.979,38
		c0.58234-0.00098,1.00903,0.42651,1.021,0.979C34.01221,39.54498,33.52826,39.90509,33.01849,39.98572z"/>
</g>
</svg>
