<?xml version="1.0" encoding="UTF-8"?>
<svg xmlns="http://www.w3.org/2000/svg" version="1.1" viewBox="0 0 64 64">
  <!-- Generator: Adobe Illustrator 28.7.1, SVG Export Plug-In . SVG Version: 1.2.0 Build 142)  -->
  <g>
    <g id="Glyph">
      <path d="M56,7h-16c-.54999,0-1,.45001-1,1v7c0,.26996.10999.51996.28998.70996l4.71002,4.70001v4.59003c0,.54999.45001,1,1,1h2v14.5c0,5.72998-3.34003,10.70001-8.17999,13.04999,1.35999-1.65002,2.17999-3.75,2.17999-6.04999v-1c0-5.23999-4.26001-9.5-9.5-9.5s-9.5,4.26001-9.5,9.5v1c0,1.85999.53998,3.59998,1.46997,5.07001-3.89996-2.61005-6.46997-7.04004-6.46997-12.07001v-14.5h2c.54999,0,1-.45001,1-1v-4.59003l4.71002-4.70001c.17999-.19.28998-.44.28998-.70996v-7c0-.54999-.45001-1-1-1H8c-.54999,0-1,.45001-1,1v7c0,.26996.10999.51996.28998.70996l4.71002,4.70001v4.59003c0,.54999.45001,1,1,1h2v14.5c0,9.09998,7.40002,16.5,16.5,16.5h1c9.09998,0,16.5-7.40002,16.5-16.5v-14.5h2c.54999,0,1-.45001,1-1v-4.59003l4.71002-4.70001c.17999-.19.28998-.44.28998-.70996v-7c0-.54999-.45001-1-1-1ZM13,18c-.16998,0-.32001.04999-.46002.13l-3.53998-3.54004v-1.58997h14v1.58997l-3.53998,3.54004c-.14001-.08002-.29004-.13-.46002-.13h-6ZM31.5,55c-4.14001,0-7.5-3.35999-7.5-7.5v-1c0-4.14001,3.35999-7.5,7.5-7.5s7.5,3.35999,7.5,7.5v1c0,4.14001-3.35999,7.5-7.5,7.5ZM55,14.58997l-3.53998,3.54004c-.14001-.08002-.29004-.13-.46002-.13h-6c-.16998,0-.32001.04999-.46002.13l-3.53998-3.54004v-1.58997h14v1.58997Z"/>
    </g>
  </g>
</svg>