<?xml version="1.0" encoding="UTF-8"?>
<svg id="Glyph" xmlns="http://www.w3.org/2000/svg" version="1.1" viewBox="0 0 64 64">
  <path d="M44.5,10h-14.5v-2c0-.77094-.87427-1.25873-1.53027-.84766l-8,5c-.61768.38605-.61487,1.31073,0,1.69531,0,0,7.96844,4.98029,7.99988,4.99994.6568.41046,1.5304-.07617,1.5304-.8476v-2h14.5c3.58398,0,6.5,2.91602,6.5,6.5s-2.91602,6.5-6.5,6.5h-6.5c-.55273,0-1,.44727-1,1v4c0,.55273.44727,1,1,1h6.5c6.89258,0,12.5-5.60742,12.5-12.5s-5.60742-12.5-12.5-12.5Z" fill="#000" stroke-width="0"/>
  <path d="M35,30c0-1.65002,1.34998-3,3-3h6.5c.77002,0,1.5-.19,2.13-.54004l-16.40002-5.73999-1.89996-.65997c-.21002-.08002-.45001-.08002-.66003,0l-.65997.22998-19.01001,6.65002,20,7,7-2.45001v-1.48999Z" fill="#000" stroke-width="0"/>
  <polygon points="19 45.7207 7 41.72021 7 43.61279 19 47.6123 19 45.7207" fill="#000" stroke-width="0"/>
  <polygon points="37 47.6123 49 43.61279 49 41.72021 37 45.7207 37 47.6123" fill="#000" stroke-width="0"/>
  <path d="M35.04999,41.32001c-.16998-.53003.10999-1.09003.63-1.27002l9.17999-3.06c-.12.01001-.23999.01001-.35999.01001h-6.5c-1.65002,0-3-1.35004-3-3v-.39001l-6,2.09998v21l19.33002-6.76996c.39996-.14001.66998-.52002.66998-.94v-3.28003l-12.67999,4.23004c-.64001.20996-1.32001-.29004-1.32001-.95001v-4c0-.42999.28003-.81.67999-.95001l13.32001-4.44v-1.89001l-12.67999,4.23004c-.52002.16998-1.10004-.12006-1.27002-.63Z" fill="#000" stroke-width="0"/>
  <path d="M7,35.61267l13.31641,4.43909c.52393.17383.80713.74017.63232,1.26459-.17194.51599-.75043.80426-1.26514.6319l-12.68359-4.22809v1.89252l13.31641,4.43909c.4082.13574.68359.51758.68359.94824v3.99994c0,.65863-.69434,1.15955-1.31641.9483l-12.68359-4.22784v3.2796c0,.4248.26855.80371.66943.94434l19.33057,7.05566v-21.28998l-20-6.99969v6.90234Z" fill="#000" stroke-width="0"/>
</svg>