<?xml version="1.0" encoding="UTF-8"?>
<svg xmlns="http://www.w3.org/2000/svg" version="1.1" viewBox="0 0 64 64">
  <!-- Generator: Adobe Illustrator 28.7.1, SVG Export Plug-In . SVG Version: 1.2.0 Build 142)  -->
  <g>
    <g id="Glyph">
      <g>
        <path d="M31,20.92017v10.07983h-15c-.55176,0-1-.44824-1-1v-1.08051c1.59082-.23053,3.01105-.99231,4.06946-2.10669-1.41937-1.17511-3.19122-1.81281-5.06946-1.81281-1.87921,0-3.65192.63855-5.06958,1.81274,1.05841,1.11444,2.4787,1.87622,4.06958,2.10675v1.08051c0,1.6543,1.3457,3,3,3h15v2h-2.81958l.66669,4h11.18964l-3.26428-2.79785c-.90039-.77539-2.05518-1.20215-3.25244-1.20215h-.52002v-2h15c1.6543,0,3-1.3457,3-3v-1.08051c1.59082-.23053,3.01105-.99231,4.06946-2.10669-1.41937-1.17511-3.19122-1.81281-5.06946-1.81281-1.87921,0-3.65192.63855-5.06958,1.81274,1.05841,1.11444,2.4787,1.87622,4.06958,2.10675v1.08051c0,.55176-.44824,1-1,1h-15v-10.07983c3.38666-.48779,6-3.40057,6-6.92017,0-3.85999-3.14001-7-7-7s-7,3.14001-7,7c0,3.51959,2.61334,6.43237,6,6.92017ZM30,13h1v-1c0-.54999.45001-1,1-1s1,.45001,1,1v1h1c.54999,0,1,.45001,1,1s-.45001,1-1,1h-1v1c0,.54999-.45001,1-1,1s-1-.45001-1-1v-1h-1c-.54999,0-1-.45001-1-1s.45001-1,1-1Z"/>
        <path d="M11.34308,23.36346c-.21191-.41101-.34308-.87-.34308-1.36346,0-1.6543,1.3457-3,3-3s3,1.3457,3,3c0,.49347-.1311.95251-.34308,1.36359,1.2995.35535,2.51056.9679,3.56964,1.81927.49091-.95618.77344-2.03625.77344-3.18286,0-3.85938-3.14062-7-7-7s-7,3.14062-7,7c0,1.14642.28247,2.22638.77325,3.1825,1.05841-.85114,2.26978-1.46362,3.56982-1.81903Z"/>
        <circle cx="14" cy="22" r="1"/>
        <path d="M47.34308,23.36346c-.21191-.41101-.34308-.87-.34308-1.36346,0-1.6543,1.3457-3,3-3s3,1.3457,3,3c0,.49347-.1311.95251-.34308,1.36359,1.2995.35535,2.51056.9679,3.56964,1.81927.49091-.95618.77344-2.03625.77344-3.18286,0-3.85938-3.14062-7-7-7s-7,3.14062-7,7c0,1.14642.28247,2.22638.77325,3.1825,1.05841-.85114,2.26978-1.46362,3.56982-1.81903Z"/>
        <circle cx="50" cy="22" r="1"/>
        <path d="M18.229,36.20068l-.8692.74506,2.05426,2.05426h7.40552l-.66669-4h-4.67291c-1.19727,0-2.35205.42676-3.25098,1.20068Z"/>
        <path d="M53,46h4c0-2.76001-2.23999-5-5-5H19c-.27002,0-.52002-.10999-.71002-.29004l-2.44995-2.45996-3.21002,2.75h-2.63c-1.65002,0-3,1.34998-3,3v2h4c.54999,0,1,.45001,1,1s-.45001,1-1,1h-4v2c0,1.64996,1.34998,3,3,3h2c0-3.31,2.69-6,6-6s6,2.69,6,6h17c0-3.31,2.69-6,6-6s6,2.69,6,6h1c1.65002,0,3-1.35004,3-3v-2h-4c-.54999,0-1-.45001-1-1s.45001-1,1-1ZM27,49h-1c-.54999,0-1-.45001-1-1s.45001-1,1-1h1c.54999,0,1,.45001,1,1s-.45001,1-1,1ZM30,47h-1c-.54999,0-1-.45001-1-1s.45001-1,1-1h1c.54999,0,1,.45001,1,1s-.45001,1-1,1ZM33,49h-1c-.54999,0-1-.45001-1-1s.45001-1,1-1h1c.54999,0,1,.45001,1,1s-.45001,1-1,1ZM36,47h-1c-.54999,0-1-.45001-1-1s.45001-1,1-1h1c.54999,0,1,.45001,1,1s-.45001,1-1,1ZM39,49h-1c-.54999,0-1-.45001-1-1s.45001-1,1-1h1c.54999,0,1,.45001,1,1s-.45001,1-1,1Z"/>
        <path d="M18,49c-2.21002,0-4,1.78998-4,4s1.78998,4,4,4,4-1.79004,4-4-1.78998-4-4-4ZM18,54c-.54999,0-1-.45001-1-1s.45001-1,1-1,1,.45001,1,1-.45001,1-1,1Z"/>
        <path d="M47,49c-2.21002,0-4,1.78998-4,4s1.78998,4,4,4,4-1.79004,4-4-1.78998-4-4-4ZM47,54c-.54999,0-1-.45001-1-1s.45001-1,1-1,1,.45001,1,1-.45001,1-1,1Z"/>
      </g>
    </g>
  </g>
</svg>