<?xml version="1.0" encoding="utf-8"?>
<!-- Generator: Adobe Illustrator 27.3.1, SVG Export Plug-In . SVG Version: 6.00 Build 0)  -->
<svg version="1.1" id="Glyph" xmlns="http://www.w3.org/2000/svg" xmlns:xlink="http://www.w3.org/1999/xlink" x="0px" y="0px"
	 viewBox="0 0 64 64" enable-background="new 0 0 64 64" xml:space="preserve">
<g>
	<path d="M34.15283,38.98828c-0.80713,0.12451-1.49023,0.27881-2.15039,0.42822c-1.18896,0.26904-2.31201,0.52295-3.96631,0.58301
		c-2.99677,0.10095-6.03143-0.51971-9.02863-1.85095C19.08826,45.24817,24.88165,51,32,51
		c6.50146,0,11.88739-4.80194,12.8363-11.04254C41.07153,38.80719,37.47974,38.4729,34.15283,38.98828z M30,41
		c0.55231,0,1,0.44769,1,1c0,0.55225-0.44769,1-1,1s-1-0.44775-1-1C29,41.44769,29.44769,41,30,41z M30.83203,48.55469
		c-0.29865,0.44775-0.9411,0.57483-1.38672,0.27734c-0.45947-0.30615-0.5835-0.92725-0.27734-1.38672l4-6
		c0.30615-0.45947,0.92627-0.58496,1.38672-0.27734c0.45947,0.30615,0.5835,0.92725,0.27734,1.38672
		C34.83203,42.55469,30.85437,48.52118,30.83203,48.55469z M34,49c-0.55231,0-1-0.44775-1-1c0-0.55231,0.44769-1,1-1s1,0.44769,1,1
		C35,48.55225,34.55231,49,34,49z"/>
	<path d="M27.96533,38.00049c1.46582-0.05322,2.45312-0.27637,3.59619-0.53467c0.69336-0.15674,1.41064-0.31934,2.28613-0.4541
		c3.50061-0.54059,7.2464-0.23145,11.1485,0.90344c-0.04083-3.7489-2.8548-9.54419-7.94-16.33997
		C35.52539,19.52979,33.82764,17.44434,32,15.36377c-1.82764,2.08057-3.52539,4.16602-5.05615,6.21143
		c-4.30194,5.74902-6.97296,10.77838-7.72089,14.46271C22.13593,37.43463,25.07269,38.10046,27.96533,38.00049z M32.08984,33.27588
		c0.22852-0.50293,0.82178-0.72412,1.32422-0.49609C33.73535,32.92578,34.07031,33,34.41016,33C35.32715,33,36,32.32715,36,31.5
		c0-0.40381-0.15527-0.78125-0.43701-1.06299S34.90381,30,34.5,30H33c-0.32129,0-0.62305-0.1543-0.81104-0.41553
		c-0.18799-0.26074-0.23926-0.5957-0.1377-0.90088l1-3C33.1875,25.27539,33.56934,25,34,25h3c0.55225,0,1,0.44775,1,1
		s-0.44775,1-1,1h-2.2793l-0.3335,1H34.5c0.93799,0,1.81738,0.36328,2.47705,1.02295S38,30.56201,38,31.5
		c0,1.92969-1.57031,3.5-3.5,3.5c-0.71729,0-1.33105-0.13477-1.91406-0.3999C32.08301,34.37158,31.86084,33.77832,32.08984,33.27588
		z M25,32c0-0.55225,0.44775-1,1-1s1,0.44775,1,1c0,0.55127,0.44873,1,1,1s1-0.44873,1-1s-0.44873-1-1-1c-0.55225,0-1-0.44775-1-1
		s0.44775-1,1-1c0.55127,0,1-0.44873,1-1s-0.44873-1-1-1s-1,0.44873-1,1c0,0.55225-0.44775,1-1,1s-1-0.44775-1-1
		c0-1.6543,1.3457-3,3-3s3,1.3457,3,3c0,0.77112-0.30054,1.46802-0.78027,2C30.69946,30.53198,31,31.22888,31,32
		c0,1.6543-1.3457,3-3,3S25,33.6543,25,32z"/>
	<path d="M32.70703,7.29297c-0.39062-0.39062-1.02344-0.39062-1.41406,0C30.5459,8.04004,13,25.72705,13,38
		c0,10.47656,8.52344,19,19,19s19-8.52344,19-19C51,25.72705,33.4541,8.04004,32.70703,7.29297z M32,53c-8.271,0-15-6.729-15-15
		c0-4.17529,2.96289-10.43408,8.34229-17.62305c1.77197-2.36768,3.76123-4.78564,5.91309-7.1875
		c0.37891-0.42285,1.11035-0.42285,1.48926,0c2.15186,2.40186,4.14111,4.81982,5.91309,7.1875C44.03711,27.56592,47,33.82471,47,38
		C47,46.271,40.271,53,32,53z"/>
</g>
</svg>
