<?xml version="1.0" encoding="UTF-8"?>
<svg xmlns="http://www.w3.org/2000/svg" version="1.1" viewBox="0 0 64 64">
  <!-- Generator: Adobe Illustrator 28.7.1, SVG Export Plug-In . SVG Version: 1.2.0 Build 142)  -->
  <g>
    <g id="Glyph">
      <g>
        <path d="M37.97998,45.70996c-3.64996-2.26996-8.31-2.26996-11.95996,0l.87-8.70996h10.21997l.87,8.70996Z"/>
        <path d="M45.92999,13c-.42999,7.92999-3.19,15.60999-7.89996,22h-12.06006c-4.70996-6.39001-7.46997-14.07001-7.89996-22h27.85999Z"/>
        <path d="M46,8v3h-28v-3c0-.54999.45001-1,1-1h26c.54999,0,1,.45001,1,1Z"/>
        <circle cx="32" cy="51.02051" r="1"/>
        <path d="M38.24603,48.41034c-3.54065-3.19965-8.95142-3.19965-12.49207,0l-.15192,1.51935c-.18066,1.80469.41406,3.61035,1.63037,4.95508,1.2168,1.34375,2.95459,2.11523,4.76758,2.11523s3.55078-.77148,4.76758-2.11523c1.21631-1.34473,1.81104-3.15039,1.63037-4.95508l-.15192-1.51935ZM32,54.02051c-1.6543,0-3-1.3457-3-3s1.3457-3,3-3,3,1.3457,3,3-1.3457,3-3,3Z"/>
      </g>
    </g>
  </g>
</svg>