<?xml version="1.0" encoding="UTF-8"?>
<svg xmlns="http://www.w3.org/2000/svg" version="1.1" viewBox="0 0 64 64">
  <!-- Generator: Adobe Illustrator 28.7.1, SVG Export Plug-In . SVG Version: 1.2.0 Build 142)  -->
  <g>
    <g id="Glyph">
      <g>
        <path d="M56,29.37003l-3.96002-1.70001c-.25995-.02002-.51996-.07001-.75995-.16003-.47003.98004-1.47003,1.66003-2.63,1.66003h-3.30005c-1.15997,0-2.15997-.67999-2.63-1.66003-.31.11005-.63995.17004-.97998.17004-.77997,0-1.51001-.31-2.06-.86005l-2.33002-2.32996c-.54999-.55005-.85999-1.28003-.85999-2.06,0-.34003.06-.67004.16998-.98004-.38995-.19-.73999-.45996-1.00995-.79999l-3.26001-1.40002c-.25-.10999-.53003-.10999-.78003,0l-8.94,3.83002,24,10.29004,9.33002-4Z"/>
        <polygon points="20.12946 24.16995 8.00055 29.36832 32 39.65341 44.12897 34.45547 20.12946 24.16995"/>
        <path d="M33,56.82907l23.39355-10.02625c.36816-.15723.60645-.51855.60645-.91895v-14.7691l-24,10.28558v15.42871Z"/>
        <path d="M7,45.87997c0,.40002.23999.77002.60999.92004l23.39001,10.02997v-15.42999L7,31.11002v14.76996ZM10.06,38.37997c.21002-.5.81-.73999,1.31-.51996l7.91003,3.38995c.5099.22001.74995.80994.53003,1.30991-.22018.50057-.80551.7403-1.31006.53012l-7.91998-3.39001c-.51001-.21997-.73999-.81-.52002-1.32001ZM10.06,43.48001c.21002-.51001.81-.73999,1.31-.52002l7.91003,3.39001c.50991.21001.74997.7999.53001,1.30989-.21066.48843-.81777.76626-1.31004.52013l-7.91998-3.39001c-.51001-.21002-.73999-.79999-.52002-1.31Z"/>
        <circle cx="47" cy="17.17001" r="4"/>
        <path d="M56.09003,14.61002h-1.15002c-.14001-.42999-.31-.84003-.52002-1.23999l.82001-.82001c.35004-.35004.35004-.92999,0-1.28003l-2.33997-2.33997c-.35004-.35004-.93005-.35004-1.28003,0l-.82001.81995c-.39996-.20996-.81-.37994-1.23999-.51996v-1.15002c0-.5-.40002-.90997-.90997-.90997h-3.30005c-.50995,0-.90997.40997-.90997.90997v1.15002c-.42999.14001-.84003.31-1.23999.51996l-.82001-.81995c-.34998-.35004-.92999-.35004-1.28003,0l-2.33997,2.33997c-.35004.35004-.35004.92999,0,1.28003l.82001.82001c-.21002.39996-.38.81-.52002,1.23999h-1.15002c-.5,0-.90997.39996-.90997.90997v3.29999c0,.51001.40997.91003.90997.91003h1.15002c.14001.42999.31.83997.52002,1.23999l-.82001.82001c-.35004.34998-.35004.92999,0,1.27997l2.33997,2.34003c.35004.34998.93005.34998,1.28003,0l.82001-.82001c.39996.21002.81.38,1.23999.52002v1.14996c0,.5.40002.91003.90997.91003h3.30005c.50995,0,.90997-.41003.90997-.91003v-1.14996c.42999-.14001.84003-.31,1.23999-.52002l.82001.82001c.34998.34998.92999.34998,1.28003,0l2.33997-2.34003c.35004-.34998.35004-.92999,0-1.27997l-.82001-.82001c.21002-.40002.38-.81.52002-1.23999h1.15002c.5,0,.90997-.40002.90997-.91003v-3.29999c0-.51001-.40997-.90997-.90997-.90997ZM47,23.17001c-3.31,0-6-2.69-6-6s2.69-6,6-6,6,2.69,6,6-2.69,6-6,6Z"/>
      </g>
    </g>
  </g>
</svg>