<?xml version="1.0" encoding="UTF-8"?>
<svg id="Glyph" xmlns="http://www.w3.org/2000/svg" version="1.1" viewBox="0 0 64 64">
  <path d="M43,36c-1.6543,0-3,1.3457-3,3v4c0,1.6543,1.3457,3,3,3s3-1.3457,3-3v-4c0-1.6543-1.3457-3-3-3Z" style="fill: #000; stroke-width: 0px;"/>
  <path d="M24,43v-4c0-1.6543-1.3457-3-3-3s-3,1.3457-3,3v4c0,1.6543,1.3457,3,3,3s3-1.3457,3-3Z" style="fill: #000; stroke-width: 0px;"/>
  <path d="M42.82001,16.01001c-2.67999.08997-4.82001,2.28998-4.82001,4.98999v1h-12v-1c0-2.70001-2.14001-4.90002-4.82001-4.98999.94-5.12,5.42999-9.01001,10.82001-9.01001,2.94,0,5.70001,1.14001,7.78003,3.21997,1.59998,1.60004,2.64996,3.60999,3.03998,5.79004Z" style="fill: #000; stroke-width: 0px;"/>
  <path d="M33,25v-1h-2v1c0,.55176.44873,1,1,1s1-.44824,1-1Z" style="fill: #000; stroke-width: 0px;"/>
  <path d="M43,30v4c-2.76001,0-5,2.23999-5,5v1h-3v-1c0-1.65002-1.34998-3-3-3s-3,1.34998-3,3v1h-3v-1c0-2.76001-2.23999-5-5-5v-4c2.76001,0,5-2.23999,5-5v-1h3v1c0,1.64996,1.34998,3,3,3s3-1.35004,3-3v-1h3v1c0,2.76001,2.23999,5,5,5Z" style="fill: #000; stroke-width: 0px;"/>
  <path d="M42.82001,47.98999c-.94,5.12-5.42999,9.01001-10.82001,9.01001s-9.88-3.89001-10.82001-9.01001c2.67999-.09003,4.82001-2.28998,4.82001-4.98999v-1h12v1c0,2.70001,2.14001,4.89996,4.82001,4.98999Z" style="fill: #000; stroke-width: 0px;"/>
  <path d="M31,39v1h2v-1c0-.55176-.44873-1-1-1s-1,.44824-1,1Z" style="fill: #000; stroke-width: 0px;"/>
  <path d="M43,18c-1.6543,0-3,1.3457-3,3v4c0,1.6543,1.3457,3,3,3s3-1.3457,3-3v-4c0-1.6543-1.3457-3-3-3Z" style="fill: #000; stroke-width: 0px;"/>
  <path d="M21,28c1.6543,0,3-1.3457,3-3v-4c0-1.6543-1.3457-3-3-3s-3,1.3457-3,3v4c0,1.6543,1.3457,3,3,3Z" style="fill: #000; stroke-width: 0px;"/>
</svg>