<?xml version="1.0" encoding="UTF-8"?>
<svg xmlns="http://www.w3.org/2000/svg" version="1.1" viewBox="0 0 48 48">
  <!-- Generator: Adobe Illustrator 28.7.1, SVG Export Plug-In . SVG Version: 1.2.0 Build 142)  -->
  <g>
    <g id="Glyph">
      <g>
        <path d="M21,40c0,1.65686,1.34314,3,3,3s3-1.34314,3-3v-16h-6v16Z"/>
        <path d="M27,7c0-1.10461-.89545-2-2-2h-2c-1.10455,0-2,.89539-2,2v1h6v-1Z"/>
        <rect x="18" y="10" width="12" height="12"/>
        <path d="M15.10187,10.2511l-1.83331,1.71429c-.17188.16071-.26855.37836-.26855.60602v6.85712c0,.22772.09668.44531.26855.60608l1.83331,1.71423c.17188.16077.40466.25116.64813.25116h.25v-12h-.25c-.24347,0-.47626.09039-.64813.2511Z"/>
        <path d="M34.73145,11.96539l-1.83331-1.71429c-.17188-.16071-.40466-.2511-.64813-.2511h-.25v12h.25c.24347,0,.47626-.09039.64813-.25116l1.83331-1.71423c.17188-.16077.26855-.37836.26855-.60608v-6.85712c0-.22766-.09668-.44531-.26855-.60602Z"/>
      </g>
    </g>
  </g>
</svg>