<?xml version="1.0" encoding="UTF-8"?>
<svg xmlns="http://www.w3.org/2000/svg" version="1.1" viewBox="0 0 64 64">
  <!-- Generator: Adobe Illustrator 28.7.1, SVG Export Plug-In . SVG Version: 1.2.0 Build 142)  -->
  <g>
    <g id="Glyph">
      <g>
        <path d="M22.04197,16.00362c-.46289-.28662-.74316-.76318-.76855-1.30713-.02441-.54346.20996-1.04297.64355-1.37109.35449-.26709.48926-.73584.33301-1.15039-.15625-.41504-.56055-.68262-1.00977-.64453-.54688.04053-1.04883-.18164-1.38867-.60596-.33984-.4248-.44434-.96729-.28516-1.48828.12891-.42432-.03711-.88281-.40723-1.12646-.37109-.24414-.85742-.21484-1.19629.07227-.41504.35205-.95703.46973-1.47949.32666-.52539-.14404-.92773-.52148-1.10547-1.03564-.14453-.41895-.54785-.68457-.99219-.67236-.44238.02051-.81934.33057-.9248.76123-.12891.52881-.49512.94189-1.00391,1.13379s-1.05762.12402-1.50488-.18799c-.36133-.25439-.84961-.2373-1.19727.03906-.3457.27734-.46875.74951-.30078,1.15967.20703.50342.15332,1.05322-.14551,1.50781s-.7832.72119-1.32715.73145c-.44336.0083-.82812.30762-.94531.73535-.11816.42773.06055.88135.4375,1.11475.46289.28662.74316.76318.76855,1.30713.02441.54346-.20996,1.04297-.64355,1.37109-.35449.26709-.48926.73584-.33301,1.15039s.55078.6748,1.00977.64453c.55273-.03662,1.0498.18115,1.38867.60547.33984.42529.44434.96777.28516,1.48877-.12891.42432.03711.88281.40723,1.12646.37109.24414.85742.21484,1.19629-.07227.41504-.35156.95801-.47021,1.47949-.32666.52539.14404.92773.52148,1.10547,1.03564.13965.4043.52051.67334.94531.67334.01562,0,.03125-.00049.04688-.00098.44238-.02051.81934-.33057.9248-.76123.12891-.52881.49512-.94189,1.00391-1.13379.50977-.19238,1.05664-.12451,1.50488.18799.3623.25391.84961.23828,1.19727-.03906.3457-.27686.46875-.74902.30078-1.15918-.20605-.50391-.15234-1.05371.14648-1.5083s.78223-.72119,1.32617-.73145c.44336-.0083.82812-.30762.94531-.73535.11816-.42773-.06055-.88135-.4375-1.11475ZM14.75779,17.99971c-1.6543,0-3-1.3457-3-3s1.3457-3,3-3,3,1.3457,3,3-1.3457,3-3,3Z"/>
        <circle cx="14.75779" cy="14.99971" r="1"/>
        <path d="M26.70701,22.29268l-2-2c-.39062-.39062-1.02344-.39062-1.41406,0s-.39062,1.02344,0,1.41406l1.99999,1.99999c.36499.36499,1.01377.4003,1.41407,0,.39062-.39062.39062-1.02344,0-1.41406Z"/>
        <path d="M26.29295,17.70674c.38856.38855,1.02617.3879,1.41406,0,.39062-.39062.39062-1.02344,0-1.41406l-2-2c-.39062-.39062-1.02344-.39062-1.41406,0s-.39062,1.02344,0,1.41406c0,0,1.9948,1.9948,2,2Z"/>
        <path d="M19.70701,23.29268c-.39062-.39062-1.02344-.39062-1.41406,0s-.39062,1.02344,0,1.41406c0,0,2,2,2.00013,2.00013.38819.38805,1.02425.38954,1.41393-.00013.39062-.39062.39062-1.02344,0-1.41406l-2-2Z"/>
        <polygon points="56.37999 30.99971 48.99998 30.99971 48.99998 34.99971 56.87999 34.99971 56.37999 30.99971"/>
        <polygon points="55.63267 24.99971 48.99998 24.99971 48.99998 28.99971 56.13267 28.99971 55.63267 24.99971"/>
        <rect x="42.99998" y="24.99971" width="4" height="4"/>
        <rect x="37.99998" y="42.99971" width="8" height="4"/>
        <polygon points="34.99998 28.99971 34.99998 24.99971 28.36729 24.99971 27.86729 28.99971 34.99998 28.99971"/>
        <rect x="42.99998" y="30.99971" width="4" height="4"/>
        <polygon points="27.11729 34.99971 34.99998 34.99971 34.99998 30.99971 27.61729 30.99971 27.11729 34.99971"/>
        <rect x="36.99998" y="30.99971" width="4" height="4"/>
        <path d="M34.99998,18.99971h-5c-.50391,0-.92969.37549-.99219.87598l-.3905,3.12402h6.38269v-4Z"/>
        <rect x="33.99998" y="48.99971" width="16" height="2"/>
        <path d="M54.99217,19.87569c-.0625-.50049-.48828-.87598-.99219-.87598h-5v4h6.38269l-.3905-3.12402Z"/>
        <path d="M30.99998,55.99971c0,.55225.44727,1,1,1h20c.55273,0,1-.44775,1-1v-3h-22v3Z"/>
        <path d="M26.99998,36.99971v3c0,.54999.45001,1,1,1h28c.54999,0,1-.45001,1-1v-3h-30Z"/>
        <rect x="36.99998" y="18.99971" width="4" height="4"/>
        <rect x="42.99998" y="18.99971" width="4" height="4"/>
        <rect x="36.99998" y="24.99971" width="4" height="4"/>
      </g>
    </g>
  </g>
</svg>