<?xml version="1.0" encoding="UTF-8"?>
<svg xmlns="http://www.w3.org/2000/svg" version="1.1" viewBox="0 0 64 64">
  <!-- Generator: Adobe Illustrator 28.7.1, SVG Export Plug-In . SVG Version: 1.2.0 Build 142)  -->
  <g>
    <g id="Glyph">
      <g>
        <path d="M45.82001,55c-.41998,1.15997-1.52002,2-2.82001,2h-22c-1.29999,0-2.40002-.84003-2.82001-2h27.64001Z"/>
        <path d="M36,30c-.55176,0-1,.44873-1,1v4c0,.55127.44824,1,1,1s1-.44873,1-1v-4c0-.55127-.44824-1-1-1Z"/>
        <path d="M51,23v-13c0-1.6543-1.3457-3-3-3H16c-1.6543,0-3,1.3457-3,3v13h38ZM42,10h4c.55273,0,1,.44775,1,1s-.44727,1-1,1h-1v7c0,.55225-.44727,1-1,1s-1-.44775-1-1v-7h-1c-.55273,0-1-.44775-1-1s.44727-1,1-1ZM37,11c0-.55225.44727-1,1-1s1,.44775,1,1v8c0,.55225-.44727,1-1,1s-1-.44775-1-1v-8ZM29,11c0-.44043.28809-.82959.70996-.95703.42188-.12793.87891.03564,1.12207.40234l1.16797,1.75195,1.16797-1.75195c.24414-.3667.70117-.53027,1.12207-.40234.42188.12744.70996.5166.70996.95703v8c0,.55225-.44727,1-1,1s-1-.44775-1-1v-4.69727l-.16797.25195c-.37109.55664-1.29297.55664-1.66406,0l-.16797-.25195v4.69727c0,.55225-.44727,1-1,1s-1-.44775-1-1v-8ZM25,11c0-.55225.44727-1,1-1s1,.44775,1,1v8c0,.55225-.44727,1-1,1s-1-.44775-1-1v-8ZM17,11c0-.55225.44727-1,1-1s1,.44775,1,1v7h3c.55273,0,1,.44775,1,1s-.44727,1-1,1h-4c-.55273,0-1-.44775-1-1v-8Z"/>
        <path d="M13,25v25c0,1.64996,1.34998,3,3,3h32c1.65002,0,3-1.35004,3-3v-25H13ZM28,34c-.54999,0-1-.45001-1-1s.45001-1,1-1,1-.45001,1-1-.45001-1-1-1-1,.45001-1,1-.45001,1-1,1-1-.45001-1-1c0-1.65002,1.34998-3,3-3s3,1.34998,3,3c0,.76996-.28998,1.46997-.77002,2,.48004.52997.77002,1.22998.77002,2,0,1.64996-1.34998,3-3,3s-3-1.35004-3-3c0-.54999.45001-1,1-1s1,.45001,1,1,.45001,1,1,1,1-.45001,1-1-.45001-1-1-1ZM18,50c-.54999,0-1-.45001-1-1s.45001-1,1-1,1,.45001,1,1-.45001,1-1,1ZM18,30c-.54999,0-1-.45001-1-1s.45001-1,1-1,1,.45001,1,1-.45001,1-1,1ZM30.71002,48.28998c.38995.39001.38995,1.03003-.00004,1.42002-.38278.38273-1.03657.38508-1.42-.00004l-2.28998-2.29999v1.59003c0,.54999-.45001,1-1,1s-1-.45001-1-1v-8c0-.54999.45001-1,1-1s1,.45001,1,1v1.58997l2.28998-2.29999c.39001-.39001,1.03003-.39001,1.42004,0,.38995.39001.38995,1.03003,0,1.41998l-3.30005,3.29004,3.30005,3.28998ZM39,49c0,.54999-.45001,1-1,1s-1-.45001-1-1v-3.76001l-.10999.21002c-.34003.66998-1.44.66998-1.78003,0l-.10999-.21002v3.76001c0,.54999-.45001,1-1,1s-1-.45001-1-1v-8c0-.46002.32001-.87.77002-.97003.44995-.10999.91998.11005,1.12.52002l1.10999,2.21002,1.10999-2.21002c.20001-.40997.67004-.63,1.12-.52002.45001.10004.77002.51001.77002.97003v8ZM39,35c0,1.64996-1.34998,3-3,3s-3-1.35004-3-3v-4c0-1.65002,1.34998-3,3-3s3,1.34998,3,3v4ZM46,50c-.54999,0-1-.45001-1-1s.45001-1,1-1,1,.45001,1,1-.45001,1-1,1ZM46,30c-.54999,0-1-.45001-1-1s.45001-1,1-1,1,.45001,1,1-.45001,1-1,1Z"/>
      </g>
    </g>
  </g>
</svg>