<?xml version="1.0" encoding="UTF-8"?>
<svg xmlns="http://www.w3.org/2000/svg" version="1.1" viewBox="0 0 64 64">
  <!-- Generator: Adobe Illustrator 28.7.1, SVG Export Plug-In . SVG Version: 1.2.0 Build 142)  -->
  <g>
    <g id="Glyph">
      <g>
        <path d="M46.65674,36h-2c-2.75684,0-5,2.24316-5,5v1.61591c-1.31299,1.3916-2.32465,2.99274-3,4.73163-.67535-1.73889-1.68701-3.34003-3-4.73163v-1.61591c0-2.75684-2.24316-5-5-5h-2c-.55225,0-1,.44775-1,1v2c0,2.75684,2.24316,5,5,5h1.55872c2.21527,2.35529,3.44128,5.40869,3.44128,8.65674v2.34326h-9c-.55225,0-1,.44775-1,1s.44775,1,1,1h20c.55225,0,1-.44775,1-1s-.44775-1-1-1h-9v-2.34326c0-3.24805,1.22601-6.30145,3.44128-8.65674h1.55872c2.75684,0,5-2.24316,5-5v-2c0-.55225-.44775-1-1-1Z"/>
        <circle cx="36.65686" cy="26" r="1"/>
        <circle cx="36.65686" cy="30" r="1"/>
        <circle cx="36.65686" cy="34" r="1"/>
        <path d="M39.94977,25.29291c-.39056.3905-.39056,1.02368,0,1.41418.3905.3905,1.02368.3905,1.41418,0s.3905-1.02368,0-1.41418c-.3905-.39056-1.02368-.39056-1.41418,0Z"/>
        <path d="M44.19238,29.53552c.3905-.3905.3905-1.02368,0-1.41425-.3905-.3905-1.02368-.3905-1.41418,0-.39056.39056-.39056,1.02374,0,1.41425.3905.3905,1.02368.3905,1.41418,0Z"/>
        <path d="M47.02081,32.36395c.3905-.3905.3905-1.02368,0-1.41425-.3905-.3905-1.02368-.3905-1.41418,0-.39056.39056-.39056,1.02374,0,1.41425.3905.3905,1.02368.3905,1.41418,0Z"/>
        <path d="M31.94977,25.29291c-.39056.3905-.39056,1.02368,0,1.41418.3905.3905,1.02368.3905,1.41418,0s.3905-1.02368,0-1.41418c-.3905-.39056-1.02368-.39056-1.41418,0Z"/>
        <path d="M30.53552,29.53552c.39056-.3905.39056-1.02368,0-1.41425-.3905-.3905-1.02368-.3905-1.41418,0-.39056.39056-.39056,1.02374,0,1.41425.3905.3905,1.02368.3905,1.41418,0Z"/>
        <path d="M27.70709,32.36395c.39056-.3905.39056-1.02368,0-1.41425-.3905-.3905-1.02368-.3905-1.41418,0-.39056.39056-.39056,1.02374,0,1.41425.3905.3905,1.02368.3905,1.41418,0Z"/>
        <path d="M41.65997,21v1c0,.54999-.44995,1-1,1h-8c-.56,0-1-.45001-1-1v-1h10Z"/>
        <path d="M14,33c0,1.10303.89697,2,2,2s2-.89697,2-2c0-.61963-.9375-2.11865-2.00049-3.45117-1.06006,1.32568-1.99951,2.81396-1.99951,3.45117Z"/>
        <path d="M20,7h-7c-.54999,0-1,.45001-1,1v15h8V7Z"/>
        <path d="M12,56c0,.55225.44775,1,1,1h6c.55225,0,1-.44775,1-1v-15h-8v15Z"/>
        <path d="M55,7H22v12h33c.55225,0,1-.44775,1-1v-10c0-.55225-.44775-1-1-1Z"/>
        <path d="M22,25h-12c-1.10455,0-2,.89539-2,2v10c0,1.10455.89545,2,2,2h12c1.10455,0,2-.89545,2-2v-10c0-1.10461-.89545-2-2-2ZM16,37c-2.21002,0-4-1.79004-4-4,0-1.94,2.71002-5.06,3.26001-5.67004.37-.41998,1.10999-.41998,1.47998,0,.54999.61005,3.26001,3.73004,3.26001,5.67004,0,2.20996-1.78998,4-4,4Z"/>
      </g>
    </g>
  </g>
</svg>