<?xml version="1.0" encoding="UTF-8"?>
<svg xmlns="http://www.w3.org/2000/svg" version="1.1" viewBox="0 0 64 64">
  <!-- Generator: Adobe Illustrator 28.7.1, SVG Export Plug-In . SVG Version: 1.2.0 Build 142)  -->
  <g>
    <g id="Glyph">
      <g>
        <rect x="14" y="36.99988" width="14" height="2"/>
        <path d="M16,47.99988c0-.55225.44727-1,1-1h8c.55273,0,1,.44775,1,1v9h2v-12h-14v12h2v-9Z"/>
        <rect x="18" y="48.99988" width="6" height="8"/>
        <rect x="36" y="36.99988" width="14" height="2"/>
        <rect x="14" y="40.99988" width="14" height="2"/>
        <rect x="28" y="15.99988" width="8" height="2"/>
        <path d="M56.30273,22.99988l-23.74805-15.83203c-.33594-.22363-.77344-.22363-1.10938,0L7.69727,22.99988h48.60547ZM27,13.99988h10c.55273,0,1,.44775,1,1v4c0,.55225-.44727,1-1,1h-10c-.55273,0-1-.44775-1-1v-4c0-.55225.44727-1,1-1Z"/>
        <rect x="36" y="40.99988" width="14" height="2"/>
        <path d="M9,55.99988c0,.55225.44727,1,1,1h2v-21c0-.55225.44727-1,1-1h16c.55273,0,1,.44775,1,1v21h4v-21c0-.55225.44727-1,1-1h16c.55273,0,1,.44775,1,1v21h2c.55273,0,1-.44775,1-1v-31H9v31ZM34,27.99988c0-.55225.44727-1,1-1h16c.55273,0,1,.44775,1,1v4c0,.55225-.44727,1-1,1h-16c-.55273,0-1-.44775-1-1v-4ZM12,27.99988c0-.55225.44727-1,1-1h16c.55273,0,1,.44775,1,1v4c0,.55225-.44727,1-1,1H13c-.55273,0-1-.44775-1-1v-4Z"/>
        <rect x="14" y="28.99988" width="14" height="2"/>
        <path d="M38,47.99988c0-.55225.44727-1,1-1h8c.55273,0,1,.44775,1,1v9h2v-12h-14v12h2v-9Z"/>
        <rect x="40" y="48.99988" width="6" height="8"/>
        <rect x="36" y="28.99988" width="14" height="2"/>
      </g>
    </g>
  </g>
</svg>