<?xml version="1.0" encoding="UTF-8"?>
<svg id="Glyph" xmlns="http://www.w3.org/2000/svg" version="1.1" viewBox="0 0 48 48">
  <path d="M5.02536,40c0,.54999.45001,1,1,1h2c.69,0,1.34003-.23999,1.84998-.64001l-4.84998-4.23999v3.88Z" fill="#000" stroke-width="0"/>
  <path d="M8.02536,21h-2c-.54999,0-1,.45001-1,1v3.88l4.84998-4.23999c-.50995-.40002-1.15997-.64001-1.84998-.64001Z" fill="#000" stroke-width="0"/>
  <path d="M42.97464,30c-.50354-5.04633-4.77313-9-9.94928-9v-5c0-1.6543-1.3457-3-3-3h-1v-3c0-.55127.44824-1,1-1h2c.55273,0,1-.44775,1-1s-.44727-1-1-1h-2c-1.6543,0-3,1.3457-3,3v3h-1.61426c-1.24316,0-2.37207.78223-2.80908,1.94678l-.7699,2.05322h5.19324c.55273,0,1,.44775,1,1s-.44727,1-1,1h-5.94324l-.74994,2h-6.30682c-.24219,0-.47607.08789-.65869.24756l-1.42914,1.25055,7.50189,7.50189h23.53522ZM35.02536,26c.55231,0,1,.44769,1,1,0,.55225-.44769,1-1,1s-1-.44775-1-1c0-.55231.44769-1,1-1ZM31.02536,26c.55231,0,1,.44769,1,1,0,.55225-.44769,1-1,1s-1-.44775-1-1c0-.55231.44769-1,1-1ZM27.02536,26c.55231,0,1,.44769,1,1,0,.55225-.44769,1-1,1s-1-.44775-1-1c0-.55231.44769-1,1-1ZM23.02536,26c.55231,0,1,.44769,1,1,0,.55225-.44769,1-1,1s-1-.44775-1-1c0-.55231.44769-1,1-1Z" fill="#000" stroke-width="0"/>
  <path d="M18.31833,31.70703l-7.88916-7.88916-5.0625,4.42969c-.2168.18994-.34131.46387-.34131.75244v1h7c.55225,0,1,.44775,1,1s-.44775,1-1,1h-7v1c0,.28857.12451.5625.34131.75244l8,7c.18262.15967.4165.24756.65869.24756h19c5.17615,0,9.44574-3.95367,9.94928-9h-23.94928c-.26514,0-.51953-.10547-.70703-.29297ZM36.02536,36c0,.55225-.44727,1-1,1h-16c-.55225,0-1-.44775-1-1s.44775-1,1-1h16c.55273,0,1,.44775,1,1Z" fill="#000" stroke-width="0"/>
</svg>