<?xml version="1.0" encoding="UTF-8"?>
<svg xmlns="http://www.w3.org/2000/svg" version="1.1" viewBox="0 0 64 64">
  <!-- Generator: Adobe Illustrator 28.7.1, SVG Export Plug-In . SVG Version: 1.2.0 Build 142)  -->
  <g>
    <g id="Glyph">
      <g>
        <path d="M32,7c-11.5791,0-21,9.42041-21,21v28c0,.55225.44727,1,1,1h4c.55273,0,1-.44775,1-1v-28c0-8.271,6.72852-15,15-15s15,6.729,15,15v28c0,.55225.44727,1,1,1h4c.55273,0,1-.44775,1-1v-28c0-11.57959-9.4209-21-21-21Z"/>
        <polygon points="25 32.58594 28.41406 36 31 36 31 27 25 27 25 32.58594"/>
        <rect x="33" y="42" width="6" height="2"/>
        <rect x="25" y="42" width="6" height="2"/>
        <polygon points="33 36 35.58594 36 39 32.58594 39 27 33 27 33 36"/>
        <path d="M42,21h-20c-1.6543,0-3,1.3457-3,3v23c0,1.6543,1.3457,3,3,3h2.27692l-3.14508,5.50391c-.27441.47948-.10743,1.09029.37202,1.36423.47726.27269,1.09258.10383,1.36431-.37204l1.42633-2.49609h15.41101l1.42633,2.49609c.25708.4499.87747.65045,1.36426.37207.47949-.27393.64648-.88477.37207-1.36426l-3.14508-5.50391h2.27692c1.6543,0,3-1.3457,3-3v-23c0-1.6543-1.3457-3-3-3ZM38.56262,52h-13.12524l1.14282-2h10.8396l1.14282,2ZM41,45c0,.55225-.44727,1-1,1h-16c-.55273,0-1-.44775-1-1v-4c0-.55225.44727-1,1-1h16c.55273,0,1,.44775,1,1v4ZM41,33c0,.26514-.10547.51953-.29297.70703l-4,4c-.1875.1875-.44141.29297-.70703.29297h-8c-.26562,0-.51953-.10547-.70703-.29297l-4-4c-.1875-.1875-.29297-.44189-.29297-.70703v-7c0-.55225.44727-1,1-1h16c.55273,0,1,.44775,1,1v7Z"/>
        <path d="M37,17h-10c-1.29999,0-2.40997.83997-2.82001,2h15.64001c-.41003-1.16003-1.52002-2-2.82001-2Z"/>
      </g>
    </g>
  </g>
</svg>