<?xml version="1.0" encoding="utf-8"?>
<!-- Generator: Adobe Illustrator 28.3.0, SVG Export Plug-In . SVG Version: 6.00 Build 0)  -->
<svg version="1.1" id="Glyph" xmlns="http://www.w3.org/2000/svg" xmlns:xlink="http://www.w3.org/1999/xlink" x="0px" y="0px"
	 viewBox="0 0 48 48" enable-background="new 0 0 48 48" xml:space="preserve">
<g>
	<path d="M6.70703,8.70703L7,8.41406V11c0,0.55273,0.44775,1,1,1s1-0.44727,1-1V8.41406c0,0,0.29297,0.29297,0.29298,0.29298
		c0.38627,0.38626,1.02791,0.38614,1.41405-0.00001c0.39062-0.39062,0.39062-1.02344,0-1.41406l-2-2
		c-0.39062-0.39062-1.02344-0.39062-1.41406,0l-2,2c-0.39062,0.39062-0.39062,1.02344,0,1.41406S6.31641,9.09766,6.70703,8.70703z"
		/>
	<path d="M38.70703,8.70703L39,8.41406V11c0,0.55273,0.44775,1,1,1s1-0.44727,1-1V8.41406c0,0,0.29249,0.29249,0.29297,0.29297
		c0.37347,0.37347,1.0255,0.38856,1.41406,0c0.39062-0.39062,0.39062-1.02344,0-1.41406l-2-2
		c-0.39062-0.39062-1.02344-0.39062-1.41406,0l-2,2c-0.39062,0.39062-0.39062,1.02344,0,1.41406S38.31641,9.09766,38.70703,8.70703z
		"/>
	<path d="M40,29H8c-0.55225,0-1,0.44727-1,1v4c0,0.55273,0.44775,1,1,1h32c0.55225,0,1-0.44727,1-1v-4
		C41,29.44727,40.55225,29,40,29z"/>
	<path d="M38,37H10c-0.55225,0-1,0.44727-1,1v4c0,0.55273,0.44775,1,1,1h28c0.55225,0,1-0.44727,1-1v-4
		C39,37.44727,38.55225,37,38,37z"/>
	<circle cx="39" cy="16" r="1"/>
	<circle cx="30" cy="7" r="1"/>
	<circle cx="18" cy="7" r="1"/>
	<circle cx="9" cy="16" r="1"/>
	<path d="M16.06946,21c0.49463-3.93994,3.85876-7,7.93054-7s7.43591,3.06006,7.93054,7h8.04352L36,17.02637V11
		c0-0.55273-0.44775-1-1-1h-6.02588l-4.26709-4.2666c-0.39062-0.39062-1.02344-0.39062-1.41406,0L19.02588,10H13
		c-0.55225,0-1,0.44727-1,1v6.02637L8.02594,21H16.06946z"/>
	<path d="M24,16c-2.96722,0-5.43134,2.16687-5.90967,5h11.81934C29.43134,18.16687,26.96722,16,24,16z"/>
	<path d="M42,23H6c-0.55231,0-1,0.44769-1,1v2c0,0.55225,0.44769,1,1,1h36c0.55231,0,1-0.44775,1-1v-2
		C43,23.44769,42.55231,23,42,23z"/>
</g>
</svg>
