<?xml version="1.0" encoding="UTF-8"?>
<svg xmlns="http://www.w3.org/2000/svg" version="1.1" viewBox="0 0 48 48">
  <!-- Generator: Adobe Illustrator 28.7.1, SVG Export Plug-In . SVG Version: 1.2.0 Build 142)  -->
  <g>
    <g id="Glyph">
      <g>
        <path d="M5.46747,30.07856l7.53253-7.55587v-3.1817l-7.86407,7.88844c.07831.97157.18701,1.92514.33154,2.84913Z"/>
        <path d="M15,22.52269l7.53253,7.55587c.14453-.924.25323-1.87756.33154-2.84913l-7.86407-7.88844v3.1817Z"/>
        <path d="M15,5v11.5041l7.99109,8.01585c.00269-.19304.00891-.38486.00891-.57881,0-9.96964-3.44116-17.91777-8-18.94113Z"/>
        <path d="M15,38.39985l2.11328,2.11983c.1875.18906.44238.29388.70703.29388.0166,0,.0332,0,.05078-.00098.28223-.01469.54492-.14792.72363-.36833,1.52222-1.8704,2.72064-4.67784,3.48096-7.98707l-7.07568-7.09761v13.04028Z"/>
        <path d="M5,23.94113c0,.19396.00623.38577.00891.57881l7.99109-8.01585V5c-4.55884,1.02336-8,8.9715-8,18.94113Z"/>
        <path d="M9.40527,40.44425c.17871.22041.44141.35363.72363.36833.2959.01861.55859-.09208.75781-.2929l2.11328-2.11983v-13.04028l-7.07568,7.09761c.76031,3.30923,1.95874,6.11667,3.48096,7.98707Z"/>
        <path d="M25,25.94733c0,6.52112,1.20898,12.54265,3.31738,16.52075.17383.32718.5127.53192.88281.53192h3.7998V5.01243c-4.55884,1.13106-8,9.91619-8,20.9349Z"/>
        <path d="M35,5.01243v37.98757h3.80957c.37012,0,.71094-.20571.88379-.53388,2.10156-3.98594,3.30664-10.00649,3.30664-16.5188,0-11.01871-3.44116-19.80384-8-20.9349Z"/>
      </g>
    </g>
  </g>
</svg>