<?xml version="1.0" encoding="UTF-8"?>
<svg id="Glyph" xmlns="http://www.w3.org/2000/svg" version="1.1" viewBox="0 0 64 64">
  <path d="M56,49.41887h-2v-16h-6v2.57996l-2.58002-2.57996h-2.83997l5.41998,5.41998v10.58002H16v-10.58002l5.41998-5.41998h-2.83997l-2.58002,2.57996v-2.57996h-6v16h-2c-.55225,0-1,.44727-1,1s.44775,1,1,1h48c.55273,0,1-.44727,1-1s-.44727-1-1-1Z" style="fill: #000; stroke-width: 0px;"/>
  <path d="M10,31.41887h44c1.6543,0,3-1.3457,3-3s-1.3457-3-3-3H10c-1.6543,0-3,1.3457-3,3s1.3457,3,3,3Z" style="fill: #000; stroke-width: 0px;"/>
  <path d="M30,19.41887c-.54999,0-1,.45001-1,1v3h6v-3c0-.54999-.45001-1-1-1h-4Z" style="fill: #000; stroke-width: 0px;"/>
  <circle cx="45" cy="17.41887" r="3" style="fill: #000; stroke-width: 0px;"/>
  <path d="M17.00098,23.41887c.19043,0,.3833-.0542.55371-.16797l1.24805-.83203c.45947-.30615.5835-.92725.27734-1.38672-.30713-.45996-.92725-.58545-1.38672-.27734l-1.24805.83203c-.45947.30615-.5835.92725-.27734,1.38672.19287.28906.50977.44531.83301.44531Z" style="fill: #000; stroke-width: 0px;"/>
  <path d="M32.37939,14.62639c.97217-.09814,1.96045-.03662,2.91162.18018.0752.01709.14941.0249.22363.0249.45605,0,.86816-.31396.97363-.77734.12305-.53857-.21387-1.07471-.75195-1.19775-1.16113-.26465-2.37012-.33936-3.55713-.22021-.5498.05566-.9502.5459-.89502,1.09521.05566.54932.54932.95508,1.09521.89502Z" style="fill: #000; stroke-width: 0px;"/>
  <path d="M20.95801,20.78118c.19043,0,.3833-.0542.55371-.16797l2.70898-1.80615c.45947-.30615.5835-.92725.27734-1.38672-.30664-.45947-.92773-.58496-1.38672-.27734l-2.70898,1.80615c-.45947.30615-.5835.92725-.27734,1.38672.19287.28906.50977.44531.83301.44531Z" style="fill: #000; stroke-width: 0px;"/>
  <path d="M26.37549,17.16936c.19043,0,.3833-.0542.55371-.16797l1.36328-.90918c.40332-.26904.83105-.50635,1.27051-.70605.50293-.22852.72559-.82129.49756-1.32373-.22852-.50342-.82227-.7251-1.32373-.49756-.53809.24414-1.06055.53467-1.55371.86328l-1.36328.90918c-.45947.30664-.5835.92725-.27734,1.38672.19287.28906.50977.44531.83301.44531Z" style="fill: #000; stroke-width: 0px;"/>
  <path d="M38.24414,15.82805l1.4043.52686c.11621.04346.23438.06445.35156.06445.4043,0,.78613-.24805.93652-.64941.19336-.51709-.06836-1.09326-.58496-1.28711l-1.4043-.52686c-.51758-.19385-1.09473.06738-1.28809.58496-.19336.51709.06836,1.09326.58496,1.28711Z" style="fill: #000; stroke-width: 0px;"/>
</svg>