<?xml version="1.0" encoding="UTF-8"?>
<svg id="Glyph" xmlns="http://www.w3.org/2000/svg" version="1.1" viewBox="0 0 48 48">
  <circle cx="22" cy="30" r="1" fill="#000" stroke-width="0"/>
  <circle cx="16" cy="36" r="1" fill="#000" stroke-width="0"/>
  <circle cx="16" cy="24" r="1" fill="#000" stroke-width="0"/>
  <path d="M27.23389,31h-2.41815c-.41412,1.1615-1.51379,2-2.81573,2s-2.40155-.8385-2.81567-2h-9.18433c-.55273,0-1-.44727-1-1s.44727-1,1-1h9.18427c.41412-1.1615,1.51379-2,2.81573-2s2.40161.8385,2.81573,2h2.18427c0-2.57001,1.09998-5,3-6.70001v-5.29999H8c-1.65002,0-3,1.34998-3,3v20c0,1.64996,1.34998,3,3,3h24c1.65002,0,3-1.35004,3-3v-2.06c-3.82129-.41699-6.92407-3.25653-7.76611-6.94ZM10,23h3.18427c.41412-1.1615,1.51379-2,2.81573-2s2.40161.8385,2.81573,2h6.18427c.55273,0,1,.44775,1,1s-.44727,1-1,1h-6.18427c-.41412,1.1615-1.51379,2-2.81573,2s-2.40155-.8385-2.81567-2h-3.18433c-.55273,0-1-.44775-1-1s.44727-1,1-1ZM26,37h-7.18427c-.41412,1.1615-1.51379,2-2.81573,2s-2.40155-.8385-2.81567-2h-3.18433c-.55273,0-1-.44727-1-1s.44727-1,1-1h3.18427c.41412-1.1615,1.51379-2,2.81573-2s2.40161.8385,2.81573,2h7.18427c.55273,0,1,.44727,1,1s-.44727,1-1,1Z" fill="#000" stroke-width="0"/>
  <circle cx="36" cy="29" r="1" fill="#000" stroke-width="0"/>
  <path d="M40,23.26172v-.26172h-3c-.55273,0-1-.44775-1-1s.44727-1,1-1h3v-2h-3c-.55273,0-1-.44775-1-1s.44727-1,1-1h3v-2h-3c-.55273,0-1-.44775-1-1s.44727-1,1-1h3v-2h-3c-.55273,0-1-.44775-1-1s.44727-1,1-1h3c0-2.20557-1.79395-4-4-4s-4,1.79443-4,4v14.26172c-1.86426,1.30225-3,3.4502-3,5.73828,0,3.85938,3.14062,7,7,7s7-3.14062,7-7c0-2.28809-1.13574-4.43604-3-5.73828ZM36,32c-1.6543,0-3-1.3457-3-3s1.3457-3,3-3,3,1.3457,3,3-1.3457,3-3,3Z" fill="#000" stroke-width="0"/>
</svg>