<?xml version="1.0" encoding="utf-8"?>
<!-- Generator: Adobe Illustrator 28.3.0, SVG Export Plug-In . SVG Version: 6.00 Build 0)  -->
<svg version="1.1" id="Glyph" xmlns="http://www.w3.org/2000/svg" xmlns:xlink="http://www.w3.org/1999/xlink" x="0px" y="0px"
	 viewBox="0 0 48 48" enable-background="new 0 0 48 48" xml:space="preserve">
<g>
	<path d="M40.65002,17.5l-5.35004,6.41998c-0.88068,1.06604-2.46411,1.37231-3.66003,0.75995
		c-1.24994-0.64001-1.88995-2.03998-1.54993-3.40997l1.37-5.45996l-1.57001-0.62c-1.58795-0.63928-2.32471-2.51984-1.60004-4.07001
		c0.00085-0.00183,1.94-4.15002,1.94-4.15002C28.83002,5.73999,26.98999,5,25,5c-3.67999,0-6.84998,2.51996-7.73999,6H17
		c-3.85999,0-7,3.14001-7,7c0,0.33997,0.02002,0.66998,0.07001,1H10c-2.70428,0-5.00012,2.28967-5,5.00018
		C5.00012,26.76013,7.24005,29,10,29h26.5c3.54608,0,6.5-2.95062,6.5-6.5C42.99994,20.50989,42.10992,18.69995,40.65002,17.5z
		 M13,25c-0.55231,0-1-0.44775-1-1c0-0.55231,0.44769-1,1-1s1,0.44769,1,1C14,24.55225,13.55231,25,13,25z M17,25
		c-0.55231,0-1-0.44775-1-1c0-0.55231,0.44769-1,1-1s1,0.44769,1,1C18,24.55225,17.55231,25,17,25z"/>
	<path d="M11.17725,35.43164C10.52246,36.37939,9,38.72168,9,40c0,1.6543,1.3457,3,3,3s3-1.3457,3-3
		c0-1.27832-1.52246-3.62061-2.17725-4.56836C12.44971,34.89062,11.55029,34.89062,11.17725,35.43164z"/>
	<path d="M19.17725,31.43164C18.52246,32.37939,17,34.72168,17,36c0,1.6543,1.3457,3,3,3s3-1.3457,3-3
		c0-1.27832-1.52246-3.62061-2.17725-4.56836C20.44971,30.89062,19.55029,30.89062,19.17725,31.43164z"/>
	<path d="M27.17676,35.43164C26.52246,36.37939,25,38.72168,25,40c0,1.6543,1.3457,3,3,3s3-1.3457,3-3
		c0-1.27832-1.52246-3.62061-2.17676-4.56836C28.44824,34.89062,27.55176,34.89062,27.17676,35.43164z"/>
	<path d="M35.17676,31.43164C34.52246,32.37939,33,34.72168,33,36c0,1.6543,1.3457,3,3,3s3-1.3457,3-3
		c0-1.27832-1.52246-3.62061-2.17676-4.56836C36.44824,30.89062,35.55176,30.89062,35.17676,31.43164z"/>
	<path d="M30.07031,12.76709c0.10059,0.25586,0.30273,0.45898,0.55859,0.56152l3.18945,1.27588l-1.78809,7.15283
		c-0.11328,0.45264,0.10156,0.92334,0.5166,1.13428C32.69141,22.96484,32.8457,23,33,23c0.28906,0,0.57324-0.12549,0.76855-0.35986
		l8-9.6001c0.20508-0.24609,0.2793-0.5752,0.20117-0.88525c-0.0791-0.31055-0.30078-0.56445-0.59863-0.68359l-2.88965-1.15576
		l2.36621-3.78564c0.19336-0.30811,0.20312-0.69678,0.02734-1.01465C40.69824,5.19727,40.36328,5,40,5h-6
		c-0.3877,0-0.74121,0.22412-0.90527,0.57568l-3,6.3999C29.97754,12.22461,29.96875,12.51123,30.07031,12.76709z"/>
</g>
</svg>
