<?xml version="1.0" encoding="UTF-8"?>
<svg xmlns="http://www.w3.org/2000/svg" version="1.1" viewBox="0 0 48 48">
  <!-- Generator: Adobe Illustrator 28.7.1, SVG Export Plug-In . SVG Version: 1.2.0 Build 142)  -->
  <g>
    <g id="Glyph">
      <g>
        <path d="M40,6c0,.54999-.45001,1-1,1h-1v3h-10v-3h-1c-.54999,0-1-.45001-1-1s.45001-1,1-1h12c.54999,0,1,.45001,1,1Z"/>
        <path d="M28,18v4c0,1.58997.73999,3.03998,2,3.97998v6.02002c0,1.64996,1.34998,3,3,3s3-1.35004,3-3v-6.02002c1.26001-.94,2-2.39001,2-3.97998v-4h-10ZM33,24.75c-.54999,0-1-.45001-1-1s.45001-1,1-1,1,.45001,1,1-.45001,1-1,1ZM33,21.25c-.54999,0-1-.45001-1-1s.45001-1,1-1,1,.45001,1,1-.45001,1-1,1Z"/>
        <path d="M17,9c0-2.20917-1.79083-4-4-4s-4,1.79083-4,4v1h8v-1Z"/>
        <path d="M41,14c0,1.09998-.90002,2-2,2h-12c-.73999,0-1.38-.40002-1.71997-1h-5.56006c-.33997.59998-.97998,1-1.71997,1h-10c-1.09998,0-2-.90002-2-2,0-1.10004.90002-2,2-2h10c.73999,0,1.38.39996,1.71997,1h5.56006c.33997-.60004.97998-1,1.71997-1h12c1.09998,0,2,.89996,2,2Z"/>
        <rect x="9" y="18" width="8" height="19"/>
        <path d="M41,39H7c-1.10455,0-2,.89539-2,2,0,1.10455.89545,2,2,2h34c1.10455,0,2-.89545,2-2,0-1.10461-.89545-2-2-2Z"/>
      </g>
    </g>
  </g>
</svg>