<?xml version="1.0" encoding="UTF-8"?>
<svg xmlns="http://www.w3.org/2000/svg" version="1.1" viewBox="0 0 64 64">
  <!-- Generator: Adobe Illustrator 28.7.1, SVG Export Plug-In . SVG Version: 1.2.0 Build 142)  -->
  <g>
    <g id="Glyph">
      <g>
        <path d="M15,41c-2.21002,0-4,1.78998-4,4s1.78998,4,4,4,4-1.79004,4-4-1.78998-4-4-4ZM15,46c-.54999,0-1-.45001-1-1s.45001-1,1-1,1,.45001,1,1-.45001,1-1,1Z"/>
        <path d="M28,41c-2.21002,0-4,1.78998-4,4s1.78998,4,4,4,4-1.79004,4-4-1.78998-4-4-4ZM28,46c-.54999,0-1-.45001-1-1s.45001-1,1-1,1,.45001,1,1-.45001,1-1,1Z"/>
        <path d="M48,41c-2.21002,0-4,1.78998-4,4s1.78998,4,4,4,4-1.79004,4-4-1.78998-4-4-4ZM48,46c-.54999,0-1-.45001-1-1s.45001-1,1-1,1,.45001,1,1-.45001,1-1,1Z"/>
        <path d="M48.78125,15.37549c-.19043-.2373-.47754-.37549-.78125-.37549h-3v10h11.48083l-7.69958-9.62451Z"/>
        <path d="M13,34h22v-14H13v14ZM16,22h8c.54999,0,1,.45001,1,1s-.45001,1-1,1h-8c-.54999,0-1-.45001-1-1s.45001-1,1-1ZM16,26h5c.54999,0,1,.45001,1,1s-.45001,1-1,1h-5c-.54999,0-1-.45001-1-1s.45001-1,1-1ZM16,30h3c.54999,0,1,.45001,1,1s-.45001,1-1,1h-3c-.54999,0-1-.45001-1-1s.45001-1,1-1Z"/>
        <rect x="41" y="15" width="2" height="10"/>
        <path d="M40,27c-.54999,0-1-.45001-1-1v-11H10c-1.65002,0-3,1.34998-3,3v22c0,1.42999,1.02002,2.64001,2.37,2.92999.84003-2.28998,3.04999-3.92999,5.63-3.92999,2.60999,0,4.84003,1.66998,5.65002,4h1.69995c.81-2.33002,3.04004-4,5.65002-4s4.84003,1.66998,5.65002,4h8.69995c.81-2.33002,3.04004-4,5.65002-4s4.84003,1.66998,5.65002,4h.34998c1.65002,0,3-1.35004,3-3v-13h-17ZM37,35c0,.54999-.45001,1-1,1H12c-.54999,0-1-.45001-1-1v-16c0-.54999.45001-1,1-1h24c.54999,0,1,.45001,1,1v16ZM42,31h-2c-.54999,0-1-.45001-1-1s.45001-1,1-1h2c.54999,0,1,.45001,1,1s-.45001,1-1,1Z"/>
      </g>
    </g>
  </g>
</svg>