<?xml version="1.0" encoding="UTF-8"?>
<svg id="Glyph" xmlns="http://www.w3.org/2000/svg" version="1.1" viewBox="0 0 64 64">
  <path d="M31,45.7204l-7-2.33337v1.89258l2.31641.77216c.52344.17383.80664.74017.63184,1.26459-.17194.51599-.75006.80341-1.26465.6319l-1.68359-.56122v1.89227l7,2.33362v-5.89252Z" fill="#000" stroke-width="0"/>
  <polygon points="37.8385 42.00012 32 40.05371 26.1615 42.00012 32 43.94629 37.8385 42.00012" fill="#000" stroke-width="0"/>
  <rect x="17" y="32" width="30" height="2" fill="#000" stroke-width="0"/>
  <rect x="17" y="28" width="30" height="2" fill="#000" stroke-width="0"/>
  <path d="M9,56c0,.55273.44727,1,1,1h5v-30c0-.55273.44727-1,1-1h32c.55273,0,1,.44727,1,1v30h5c.55273,0,1-.44727,1-1V23H9v33Z" fill="#000" stroke-width="0"/>
  <path d="M17,57h30v-21h-30v21ZM22,42c0-.43066.27539-.8125.68359-.94824l9-3c.20508-.06836.42773-.06836.63281,0l9,3c.4082.13574.68359.51758.68359.94824v8c0,.43066-.27539.8125-.68359.94824l-9,3c-.21704.07233-.41565.05426-.63281,0l-9-3c-.4082-.13574-.68359-.51758-.68359-.94824v-8Z" fill="#000" stroke-width="0"/>
  <path d="M33,51.61292l7-2.33362v-1.89227s-1.68134.56049-1.68359.56122c-.50476.16827-1.09003-.10797-1.26465-.63184-.1748-.52441.1084-1.09082.63184-1.26465l2.31641-.77216v-1.89258l-7,2.33337v5.89252Z" fill="#000" stroke-width="0"/>
  <rect x="31.00011" y="13.00035" width="1.99979" height="1.99979" transform="translate(-.52708 26.72799) rotate(-45)" fill="#000" stroke-width="0"/>
  <path d="M56.35156,16.06348l-24-9c-.22656-.08398-.47656-.08398-.70312,0L7.64923,16.06317c-.3905.14642-.64923.51978-.64923.93683v3c0,.55225.44769,1,1,1h48c.55231,0,1-.44775,1-1v-3.00085c0-.41656-.25842-.78943-.64844-.93567ZM35.53516,14.70728l-2.82812,2.82812c-.19531.19531-.45117.29297-.70703.29297s-.51172-.09766-.70703-.29297l-2.82812-2.82812c-.39062-.39062-.39062-1.02344,0-1.41406l2.82812-2.82812c.39062-.39062,1.02344-.39062,1.41406,0l2.82812,2.82812c.39062.39062.39062,1.02344,0,1.41406Z" fill="#000" stroke-width="0"/>
</svg>