<?xml version="1.0" encoding="UTF-8"?>
<svg xmlns="http://www.w3.org/2000/svg" version="1.1" viewBox="0 0 64 64">
  <!-- Generator: Adobe Illustrator 28.7.1, SVG Export Plug-In . SVG Version: 1.2.0 Build 142)  -->
  <g>
    <g id="Glyph">
      <g>
        <rect x="24.5" y="22" width="4" height="2"/>
        <rect x="13.5" y="22" width="4" height="2"/>
        <path d="M42,50c0,.55225-.44775,1-1,1s-1-.44775-1-1v-1h-2v8h6v-8h-2v1Z"/>
        <path d="M29,48c0,.55225-.44775,1-1,1h-4c-.55225,0-1-.44775-1-1v-3h-3v12h12v-12h-3v3Z"/>
        <rect x="35.5" y="22" width="4" height="2"/>
        <path d="M56.4165,18.09082l-24-11c-.26465-.12109-.56836-.12109-.83301,0L7.5835,18.09082c-.35547.16309-.5835.51807-.5835.90918v37c0,.55225.44775,1,1,1h6v-27c0-.55225.44775-1,1-1h34c.55225,0,1,.44775,1,1v27h6c.55225,0,1-.44775,1-1V19c0-.39111-.22803-.74609-.5835-.90918ZM19.5,25c0,.55225-.44775,1-1,1h-6c-.55225,0-1-.44775-1-1v-4c0-.55225.44775-1,1-1h6c.55225,0,1,.44775,1,1v4ZM30.5,25c0,.55225-.44775,1-1,1h-6c-.55225,0-1-.44775-1-1v-4c0-.55225.44775-1,1-1h6c.55225,0,1,.44775,1,1v4ZM41.5,25c0,.55225-.44775,1-1,1h-6c-.55225,0-1-.44775-1-1v-4c0-.55225.44775-1,1-1h6c.55225,0,1,.44775,1,1v4ZM52.5,25c0,.55225-.44775,1-1,1h-6c-.55225,0-1-.44775-1-1v-4c0-.55225.44775-1,1-1h6c.55225,0,1,.44775,1,1v4Z"/>
        <path d="M16,57h2v-13c0-.55225.44775-1,1-1h14c.55225,0,1,.44775,1,1v13h2v-9c0-.55225.44775-1,1-1h8c.55225,0,1,.44775,1,1v9h2v-26H16v26Z"/>
        <rect x="46.5" y="22" width="4" height="2"/>
        <rect x="25" y="45" width="2" height="2"/>
      </g>
    </g>
  </g>
</svg>