<?xml version="1.0" encoding="UTF-8"?>
<svg xmlns="http://www.w3.org/2000/svg" version="1.1" viewBox="0 0 48 48">
  <!-- Generator: Adobe Illustrator 28.7.1, SVG Export Plug-In . SVG Version: 1.2.0 Build 142)  -->
  <g>
    <g id="Glyph">
      <g>
        <path d="M40,34h-1c-.20001,0-.39001.06-.54999.16998l-2.45001,1.63-1.89001-1.26001c-.66998-.45001-1.54999-.45001-2.21997,0l-1.89001,1.26001-1.89001-1.26001c-.66998-.45001-1.54999-.45001-2.21997,0l-1.89001,1.26001-1.89001-1.26001c-.66998-.45001-1.54999-.45001-2.21997,0l-1.89001,1.26001-1-.66998v-14.13h1c.54999,0,1-.45001,1-1v-7H5v7c0,.54999.45001,1,1,1h1v13.17999c-1.15997.41998-2,1.52002-2,2.82001v3c0,1.64996,1.34998,3,3,3h32c1.65002,0,3-1.35004,3-3v-3c0-1.65002-1.34998-3-3-3ZM15,34.20001c-.39001,0-.77002.10999-1.10999.33997l-1.89001,1.26001-2.45001-1.63c-.15997-.10999-.34998-.16998-.54999-.16998v-1h6v1.20001ZM15,31h-6v-2h6v2ZM15,27h-6v-2h6v2ZM15,23h-6v-4.87c0-1.45001.96997-2.79004,2.40002-3.07001,1.90997-.38,3.59998,1.08997,3.59998,2.94v5Z"/>
        <path d="M26,23.5c0,4.69,3.81,8.5,8.5,8.5h.5c.54999,0,1-.45001,1-1v-4c0-.54999-.45001-1-1-1h-.5c-1.38,0-2.5-1.12-2.5-2.5,0-4.69-3.81-8.5-8.5-8.5h-2.5v6h2.5c1.38,0,2.5,1.12,2.5,2.5Z"/>
        <path d="M13,18v3h-2v-3c0-.54999.45001-1,1-1s1,.45001,1,1Z"/>
        <path d="M12.65088,5.24072c-.375-.32129-.92676-.32129-1.30176,0l-6.71918,5.75928h14.74011l-6.71918-5.75928Z"/>
      </g>
    </g>
  </g>
</svg>