<?xml version="1.0" encoding="UTF-8"?>
<svg xmlns="http://www.w3.org/2000/svg" version="1.1" viewBox="0 0 64 64">
  <!-- Generator: Adobe Illustrator 28.7.1, SVG Export Plug-In . SVG Version: 1.2.0 Build 142)  -->
  <g>
    <g id="Glyph">
      <g>
        <path d="M32,7c-13.78516,0-25,11.21484-25,25s11.21484,25,25,25,25-11.21484,25-25S45.78516,7,32,7ZM32,53c-11.57959,0-21-9.4209-21-21,0-.55273.44775-1,1-1s1,.44727,1,1c0,10.47656,8.52344,19,19,19,.55225,0,1,.44727,1,1s-.44775,1-1,1ZM36.56006,44c-.08478,0-.164-.00543-.2464-.00769-2.05322,1.86212-4.76758,3.00769-7.75116,3.00769-6.37549,0-11.5625-5.18652-11.5625-11.5625,0-6.20508,10.44531-15.77344,10.88965-16.17773.38184-.3457.96387-.3457,1.3457,0,.11255.10236.86768.79407,1.93091,1.86841,2.41626-2.76031,4.61914-4.77502,4.72046-4.86743.38184-.34766.96436-.34668,1.34619-.00098.44434.4043,10.88721,9.96875,10.88721,16.18066,0,6.37402-5.18604,11.55957-11.56006,11.55957ZM52,33c-.55225,0-1-.44727-1-1,0-10.47656-8.52344-19-19-19-.55225,0-1-.44727-1-1s.44775-1,1-1c11.57959,0,21,9.4209,21,21,0,.55273-.44775,1-1,1Z"/>
        <path d="M36.56396,18.37109c-.8493.81665-2.39862,2.35803-4.0069,4.20544,3.20636,3.43811,7.56793,8.85052,7.56793,12.86096,0,2.37213-.71991,4.57825-1.94995,6.41528,4.50354-.77094,7.94507-4.69232,7.94507-9.41235,0-4.11133-6.3667-11.0293-9.55615-14.06934Z"/>
        <path d="M35.2879,42.22614c1.75018-1.73401,2.8371-4.13629,2.8371-6.78864,0-4.10449-6.37402-11.0293-9.5625-14.07031-3.18847,3.04102-9.5625,9.96582-9.5625,14.07031,0,5.27246,4.28955,9.5625,9.5625,9.5625,2.612,0,4.98059-1.05487,6.70813-2.75818.0058-.00543.01135-.01038.01727-.01569Z"/>
      </g>
    </g>
  </g>
</svg>