<?xml version="1.0" encoding="utf-8"?>
<!-- Generator: Adobe Illustrator 27.3.1, SVG Export Plug-In . SVG Version: 6.00 Build 0)  -->
<svg version="1.1" id="Glyph" xmlns="http://www.w3.org/2000/svg" xmlns:xlink="http://www.w3.org/1999/xlink" x="0px" y="0px"
	 viewBox="0 0 64 64" enable-background="new 0 0 64 64" xml:space="preserve">
<g>
	<path d="M23,18h18c0.55225,0,1-0.44775,1-1v-5c0-0.55225-0.44775-1-1-1h-4.10059C36.43506,8.7207,34.41455,7,32,7
		s-4.43506,1.7207-4.89941,4H23c-0.55225,0-1,0.44775-1,1v5C22,17.55225,22.44775,18,23,18z"/>
	<path d="M25,42c0-0.55127-0.44873-1-1-1h-1v2h1C24.55127,43,25,42.55127,25,42z"/>
	<path d="M32,35c2.20557,0,4-1.79443,4-4c0-2.49609-2.45947-5.79834-4-7.53613C30.45947,25.20166,28,28.50391,28,31
		C28,33.20557,29.79443,35,32,35z"/>
	<path d="M50,13h-6v4h2c0.55225,0,1,0.44775,1,1v34c0,0.55225-0.44775,1-1,1H18c-0.55225,0-1-0.44775-1-1V18
		c0-0.55225,0.44775-1,1-1h2v-4h-6c-0.54999,0-1,0.45001-1,1v42c0,0.54999,0.45001,1,1,1h36c0.54999,0,1-0.45001,1-1V14
		C51,13.45001,50.54999,13,50,13z"/>
	<path d="M19,51h26V19h-1.78314C42.66681,19.60883,41.88013,20,41,20H23c-0.88013,0-1.66681-0.39117-2.21686-1H19V51z M34,48
		c0,0.55225-0.44775,1-1,1s-1-0.44775-1-1v-3h-2v3c0,0.55225-0.44775,1-1,1s-1-0.44775-1-1v-8c0-0.55225,0.44775-1,1-1
		s1,0.44775,1,1v3h2v-3c0-0.55225,0.44775-1,1-1s1,0.44775,1,1V48z M42,49h-5c-0.55225,0-1-0.44775-1-1s0.44775-1,1-1h5
		c0.55225,0,1,0.44775,1,1S42.55225,49,42,49z M42,45h-5c-0.55225,0-1-0.44775-1-1s0.44775-1,1-1h5c0.55225,0,1,0.44775,1,1
		S42.55225,45,42,45z M42,39c0.55225,0,1,0.44775,1,1s-0.44775,1-1,1h-5c-0.55225,0-1-0.44775-1-1s0.44775-1,1-1H42z
		 M31.29297,21.29297c0.375-0.375,1.03906-0.375,1.41406,0C32.92334,21.50879,38,26.63574,38,31c0,3.30859-2.69141,6-6,6
		s-6-2.69141-6-6C26,26.63574,31.07666,21.50879,31.29297,21.29297z M21,40c0-0.55225,0.44775-1,1-1h2c1.6543,0,3,1.3457,3,3
		s-1.3457,3-3,3h-1v3c0,0.55225-0.44775,1-1,1s-1-0.44775-1-1V40z"/>
</g>
</svg>
