<?xml version="1.0" encoding="UTF-8"?>
<svg xmlns="http://www.w3.org/2000/svg" version="1.1" viewBox="0 0 64 64">
  <!-- Generator: Adobe Illustrator 28.7.1, SVG Export Plug-In . SVG Version: 1.2.0 Build 142)  -->
  <g>
    <g id="Glyph">
      <g>
        <path d="M56.77242,12.93036c-.38086-1.15381-1.18555-2.08984-2.2666-2.63525s-2.31348-.63623-3.46582-.25586l-3.0921,1.01874-.12177-.27411c-.62793-1.41455-2.20703-2.11816-3.68066-1.63135l-11.75879,3.87402c-1.46875.48486-2.32422,1.98926-1.98926,3.5l3.48828,15.69678c.18359.82565.70992,1.53901,1.44523,1.95747.68782.39144,1.63133.50227,2.42196.24126l14.79688-4.87598c.80371-.26465,1.46191-.85986,1.80469-1.63379.34277-.77344.34277-1.66016-.00098-2.43262l-1.13605-2.55768,3.2923-6.52826c.54785-1.08496.64062-2.31494.2627-3.46338ZM54.72457,15.49286l-2.55579,5.06818-3.40515-7.6665,2.90137-.95587c1.33691-.43701,2.76855.2876,3.20703,1.61768.21191.64111.15918,1.32861-.14746,1.93652Z"/>
        <path d="M27.09896,17.93115c-.47998-.27002-1.08997-.10999-1.37.37l-2.01996,3.46002c-.13.22998-.17004.5-.10004.75995.07001.26001.23999.48004.47003.61005l6.57996,3.82001-1.75995-7.97003-1.80005-1.04999Z"/>
        <path d="M18.99898,50.66113v2.34003h9c.54999,0,1,.45001,1,1s-.45001,1-1,1H7.99898c-.54999,0-1-.45001-1-1s.45001-1,1-1h9v-2.34003c0-3.25-1.22998-6.31-3.44-8.65997h-1.56c-2.76001,0-5-2.23999-5-5v-2c0-.54999.45001-1,1-1h2c2.76001,0,5,2.23999,5,5v1.62c1.31,1.39001,2.32001,2.98999,3,4.72998.67999-1.73999,1.69-3.33997,3-4.72998v-1.62c0-2.76001,2.23999-5,5-5h2c.54999,0,1,.45001,1,1v2c0,2.76001-2.23999,5-5,5h-1.56c-2.21002,2.34998-3.44,5.40997-3.44,8.65997Z"/>
        <path d="M21.99898,33.00116c1.6543,0,3-1.3457,3-3,0-1.27832-1.52246-3.62061-2.17676-4.56836-.375-.54102-1.27148-.54102-1.64648,0-.6543.94775-2.17676,3.29004-2.17676,4.56836,0,1.6543,1.3457,3,3,3Z"/>
        <path d="M13.99898,33.00116c1.6543,0,3-1.3457,3-3,0-1.27832-1.52246-3.62061-2.17676-4.56836-.375-.54102-1.27148-.54102-1.64648,0-.6543.94775-2.17676,3.29004-2.17676,4.56836,0,1.6543,1.3457,3,3,3Z"/>
      </g>
    </g>
  </g>
</svg>