<?xml version="1.0" encoding="UTF-8"?>
<svg xmlns="http://www.w3.org/2000/svg" version="1.1" viewBox="0 0 48 48">
  <!-- Generator: Adobe Illustrator 28.7.1, SVG Export Plug-In . SVG Version: 1.2.0 Build 142)  -->
  <g>
    <g id="Glyph">
      <g>
        <rect x="7" y="23" width="12" height="6"/>
        <path d="M29,7c0-1.10461-.89545-2-2-2s-2,.89539-2,2v22h4V7Z"/>
        <path d="M42.89453,26.44727c.16895-.33887.13281-.74414-.09473-1.04688l-11.7998-15.73309v17.3327h11c.37891,0,.72461-.21387.89453-.55273Z"/>
        <path d="M14.81573,35h28.18427v-4H5v5c0,3.85938,3.14062,7,7,7h24c3.51898,0,6.43213-2.61377,6.9201-6H14.81573c-.41412,1.1615-1.51379,2-2.81573,2-1.6543,0-3-1.3457-3-3s1.3457-3,3-3c1.30194,0,2.40161.8385,2.81573,2Z"/>
        <circle cx="12" cy="36" r="1"/>
        <path d="M7,21h12c1.10455,0,2-.89545,2-2,0-1.10461-.89545-2-2-2H7c-1.10455,0-2,.89539-2,2,0,1.10455.89545,2,2,2Z"/>
      </g>
    </g>
  </g>
</svg>