<?xml version="1.0" encoding="utf-8"?>
<!-- Generator: Adobe Illustrator 28.3.0, SVG Export Plug-In . SVG Version: 6.00 Build 0)  -->
<svg version="1.1" id="Glyph" xmlns="http://www.w3.org/2000/svg" xmlns:xlink="http://www.w3.org/1999/xlink" x="0px" y="0px"
	 viewBox="0 0 48 48" enable-background="new 0 0 48 48" xml:space="preserve">
<g>
	<rect x="35" y="17.5" width="2" height="6"/>
	<path d="M7,33h34c1.10457,0,2-0.89543,2-2v-1H5v1C5,32.10457,5.89543,33,7,33z"/>
	<circle cx="16" cy="15" r="1"/>
	<rect x="18" y="35" width="12" height="2"/>
	<path d="M15,40v2c0,0.55228,0.44771,1,1,1h16c0.55228,0,1-0.44772,1-1v-2c0-0.55228-0.44772-1-1-1H16
		C15.44771,39,15,39.44772,15,40z"/>
	<path d="M41,5H7C5.90002,5,5,5.89996,5,7v21h38V7C43,5.89996,42.09998,5,41,5z M23.71002,15.70996l-1.76001,1.75v2.49005
		c0,0.54999-0.45001,1-1,1h-2.48999l-1.75,1.75995c-0.38,0.37-1.02002,0.39001-1.42004,0l-1.75-1.75995h-2.48999
		c-0.54999,0-1-0.45001-1-1v-2.49005l-1.76001-1.75c-0.38995-0.38995-0.38995-1.02997,0-1.41998l1.76001-1.75v-2.48999
		c0-0.54999,0.45001-1,1-1h2.48999l1.75-1.76001c0.39001-0.39001,1.03003-0.39001,1.42004,0l1.75,1.76001h2.48999
		c0.54999,0,1,0.45001,1,1v2.48999l1.76001,1.75C24.09998,14.67999,24.09998,15.32001,23.71002,15.70996z M31,24.5
		c0,0.54999-0.45001,1-1,1h-3c-0.54999,0-1-0.45001-1-1s0.45001-1,1-1h2v-2h-2c-0.54999,0-1-0.45001-1-1s0.45001-1,1-1h2v-2h-2
		c-0.54999,0-1-0.45001-1-1s0.45001-1,1-1h3c0.54999,0,1,0.45001,1,1V24.5z M39,24.5c0,0.54999-0.45001,1-1,1h-4
		c-0.54999,0-1-0.45001-1-1v-8c0-0.54999,0.45001-1,1-1h4c0.54999,0,1,0.45001,1,1V24.5z M39,14.5c-0.54999,0-1-0.45001-1-1
		s0.45001-1,1-1s1,0.45001,1,1S39.54999,14.5,39,14.5z"/>
	<path d="M12.04932,17.04932v1.90137h1.90137c0.26514,0,0.51953,0.10547,0.70703,0.29297L16,20.58594l1.34229-1.34229
		c0.1875-0.1875,0.44189-0.29297,0.70703-0.29297h1.90137v-1.90137c0-0.26514,0.10547-0.51953,0.29297-0.70703L21.58594,15
		l-1.34229-1.34229c-0.1875-0.1875-0.29297-0.44189-0.29297-0.70703v-1.90137h-1.90137c-0.26514,0-0.51953-0.10547-0.70703-0.29297
		L16,9.41406l-1.34229,1.34229c-0.1875,0.1875-0.44189,0.29297-0.70703,0.29297h-1.90137v1.90137
		c0,0.26514-0.10547,0.51953-0.29297,0.70703L10.41406,15l1.34229,1.34229C11.94385,16.52979,12.04932,16.78418,12.04932,17.04932z
		 M16,12c1.6543,0,3,1.3457,3,3s-1.3457,3-3,3s-3-1.3457-3-3S14.3457,12,16,12z"/>
</g>
</svg>
