<?xml version="1.0" encoding="UTF-8"?>
<svg xmlns="http://www.w3.org/2000/svg" version="1.1" viewBox="0 0 48 48">
  <!-- Generator: Adobe Illustrator 28.7.1, SVG Export Plug-In . SVG Version: 1.2.0 Build 142)  -->
  <g>
    <g id="Glyph">
      <g>
        <path d="M39,29.20703c-1.66187,0-3.08807,1.01898-3.69147,2.46436l-1.65808-.2381,6.90845-11.22626h-23.5589v8c0,.44629.2959.83887.72559.96191l2.27441.64984v5.97809c0,.80957.4834,1.53223,1.23145,1.8418.24902.10352.51074.1543.76953.1543.52051,0,1.03125-.2041,1.41602-.58887l4.9848-4.9848,3.32379.94965c.02844.00793.05725.00641.08594.0119.01642.00323.02911.01398.0459.01642l3.18787.4577c.22589,1.9931,1.90204,3.55206,3.95471,3.55206,2.20605,0,4-1.79395,4-4s-1.79395-4-4-4ZM22,35.79688v-5.40668l4.20282,1.20081-4.20282,4.20587Z"/>
        <path d="M41,18.20703c1.10455,0,2-.89545,2-2,0-1.10461-.89545-2-2-2h-23.58594l-1.70703-1.70703c-.1875-.1875-.44141-.29297-.70703-.29297h-2.18427c-.41412-1.1615-1.51379-2-2.81573-2h-2c-1.6543,0-3,1.3457-3,3s1.3457,3,3,3h2c1.30194,0,2.40161-.8385,2.81573-2h1.7702l.81262.81262c-.24725.33282-.39856.74091-.39856,1.18738,0,1.10455.89545,2,2,2h24Z"/>
      </g>
    </g>
  </g>
</svg>