<?xml version="1.0" encoding="utf-8"?>
<!-- Generator: Adobe Illustrator 28.3.0, SVG Export Plug-In . SVG Version: 6.00 Build 0)  -->
<svg version="1.1" id="Glyph" xmlns="http://www.w3.org/2000/svg" xmlns:xlink="http://www.w3.org/1999/xlink" x="0px" y="0px"
	 viewBox="0 0 48 48" enable-background="new 0 0 48 48" xml:space="preserve">
<g>
	<path d="M10,29h26.5c1.73682,0,3.36963-0.67578,4.59766-1.90283C42.32422,25.86963,43,24.23682,43,22.5
		c0-2.67334-1.61377-5.02393-4.02393-6.00684C38.99219,16.32959,39,16.16504,39,16c0-2.75684-2.24316-5-5-5
		c-0.41406,0-0.82373,0.05127-1.22021,0.15088C31.94238,7.61133,28.75146,5,25,5c-3.68457,0-6.854,2.521-7.73926,6.00439
		C17.1748,11.00146,17.08789,11,17,11c-3.85986,0-7,3.14014-7,7c0,0.3374,0.02393,0.67139,0.07178,1H10
		c-1.32422,0-2.57861,0.51758-3.54199,1.46777C5.51758,21.42139,5,22.67578,5,24C5,26.75684,7.24316,29,10,29z M38,22
		c0.55231,0,1,0.44769,1,1c0,0.55225-0.44769,1-1,1s-1-0.44775-1-1C37,22.44769,37.44769,22,38,22z M34,22c0.55231,0,1,0.44769,1,1
		c0,0.55225-0.44769,1-1,1s-1-0.44775-1-1C33,22.44769,33.44769,22,34,22z M25,9c2.20557,0,4,1.79443,4,4c0,0.55225-0.44775,1-1,1
		s-1-0.44775-1-1c0-1.10303-0.89697-2-2-2s-2,0.89697-2,2c0,0.55225-0.44775,1-1,1s-1-0.44775-1-1C21,10.79443,22.79443,9,25,9z"/>
	<path d="M27.17725,35.43164C26.52246,36.37939,25,38.72168,25,40c0,1.6543,1.3457,3,3,3s3-1.3457,3-3
		c0-1.27832-1.52246-3.62061-2.17725-4.56836C28.44971,34.89062,27.55029,34.89062,27.17725,35.43164z"/>
	<path d="M19.17725,31.43164C18.52246,32.37939,17,34.72168,17,36c0,1.6543,1.3457,3,3,3s3-1.3457,3-3
		c0-1.27832-1.52246-3.62061-2.17725-4.56836C20.44971,30.89062,19.55029,30.89062,19.17725,31.43164z"/>
	<path d="M42,35h-1.58594l1.12158-1.12158c0.39062-0.39062,0.39062-1.02344,0-1.41406s-1.02344-0.39062-1.41406,0L39,33.58594V32
		c0-0.55225-0.44775-1-1-1s-1,0.44775-1,1v1.58594l-1.12158-1.12158c-0.39062-0.39062-1.02344-0.39062-1.41406,0
		s-0.39062,1.02344,0,1.41406L35.58594,35H34c-0.55225,0-1,0.44775-1,1s0.44775,1,1,1h1.58594l-1.12158,1.12158
		c-0.39062,0.39062-0.39062,1.02344,0.00004,1.4141c0.38808,0.38804,1.02445,0.38931,1.41402-0.00004L37,38.41406V40
		c0,0.55225,0.44775,1,1,1s1-0.44775,1-1v-1.58594c0,0,1.11954,1.11954,1.12158,1.12158c0.36764,0.36764,1.01569,0.39838,1.41407,0
		c0.39062-0.39062,0.39062-1.02344,0-1.41406L40.41406,37H42c0.55225,0,1-0.44775,1-1S42.55225,35,42,35z"/>
	<path d="M14,37h-1.58594l1.12158-1.12158c0.39062-0.39062,0.39062-1.02344,0-1.41406s-1.02344-0.39062-1.41406,0L11,35.58594V34
		c0-0.55225-0.44775-1-1-1s-1,0.44775-1,1v1.58594l-1.12158-1.12158c-0.39062-0.39062-1.02344-0.39062-1.41406,0
		s-0.39062,1.02344,0,1.41406L7.58594,37H6c-0.55225,0-1,0.44775-1,1s0.44775,1,1,1h1.58594l-1.12158,1.12158
		c-0.39058,0.39058-0.39062,1.02328-0.00015,1.41391c0.36402,0.36417,1.02102,0.39334,1.41421,0.00015L9,40.41406V42
		c0,0.55225,0.44775,1,1,1s1-0.44775,1-1v-1.58594c0,0,1.12112,1.12112,1.12158,1.12158c0.3651,0.3651,1.01368,0.40038,1.41406,0
		c0.39062-0.39062,0.39062-1.02344,0-1.41406L12.41406,39H14c0.55225,0,1-0.44775,1-1S14.55225,37,14,37z"/>
</g>
</svg>
