<?xml version="1.0" encoding="UTF-8"?>
<svg id="Glyph" xmlns="http://www.w3.org/2000/svg" version="1.1" viewBox="0 0 64 64">
  <path d="M20.99566,11h22c1.10254,0,2-.89746,2-2s-.89746-2-2-2h-22c-1.10303,0-2,.89746-2,2s.89697,2,2,2Z" fill="#000" stroke-width="0"/>
  <path d="M52.99566,12v8.31c-.31-1.32001-1.5-2.31-2.91998-2.31h-4c-1.46002,0-2.67999,1.04999-2.95001,2.42999-.31-.10004-.64001-.16003-.97998-.16003-.26001,0-.52002.03003-.77002.10004-.76001.20001-1.42999.70996-1.83002,1.39996l-2,3.46002c-.39001.67999-.5,1.51001-.29999,2.28003.15997.57996.48999,1.09998.94,1.48999-.45001.39001-.78003.90997-.94,1.48999-.20001.77002-.09003,1.59998.29999,2.27997l1.29004,2.23004H13.99566c-1.65002,0-3-1.35004-3-3v-.06c.25.03998.5.06.75.06h2.5c2.62,0,4.75-2.13,4.75-4.75v-1.98004c1.28003-1.44995,2-3.32996,2-5.26996,0-2.42004-1.08002-4.67999-2.96002-6.21002-1.41998-1.14996-3.20996-1.78998-5.04999-1.78998-.56,0-1.13.06-1.69.17999-.09998.02002-.20001.03998-.29999.08002v-.26001c0-1.65002,1.34998-3,3-3h3c0,2.20996,1.78998,4,4,4h22c2.21002,0,4-1.79004,4-4h3c1.65002,0,3,1.34998,3,3Z" fill="#000" stroke-width="0"/>
  <circle cx="14.99566" cy="45" r="4" fill="#000" stroke-width="0"/>
  <path d="M19.78564,48.59998c-1.08997,1.46002-2.82996,2.40002-4.78998,2.40002s-3.70001-.94-4.78998-2.40002c-1.95001,1.46002-3.21002,3.79004-3.21002,6.40002v1c0,.54999.45001,1,1,1h14c.54999,0,1-.45001,1-1v-1c0-2.60999-1.26001-4.94-3.21002-6.40002Z" fill="#000" stroke-width="0"/>
  <circle cx="48.99566" cy="45" r="4" fill="#000" stroke-width="0"/>
  <path d="M53.78564,48.59998c-1.08997,1.46002-2.82996,2.40002-4.78998,2.40002s-3.70001-.94-4.78998-2.40002c-1.95001,1.46002-3.21002,3.79004-3.21002,6.40002v1c0,.54999.45001,1,1,1h14c.54999,0,1-.45001,1-1v-1c0-2.60999-1.26001-4.94-3.21002-6.40002Z" fill="#000" stroke-width="0"/>
  <path d="M31.99566,37h-8c-1.6543,0-3,1.3457-3,3v4c0,1.6543,1.3457,3,3,3v2.99995c0,.87035,1.09292,1.32119,1.70703.70708l3.70703-3.70703h2.58594c1.6543,0,3-1.3457,3-3v-4c0-1.6543-1.3457-3-3-3Z" fill="#000" stroke-width="0"/>
  <path d="M16.99566,27v.25c0,1.51996-1.22998,2.75-2.75,2.75h-2.5c-1.52002,0-2.75-1.23004-2.75-2.75v-.25h8Z" fill="#000" stroke-width="0"/>
  <path d="M8.99566,25h3v-2.58594l-1.70703-1.70703c-.39062-.39062-.39062-1.02344,0-1.41406s1.02344-.39062,1.41406,0l1.29297,1.29297,1.29297-1.29297c.39062-.39062,1.02344-.39062,1.41406,0s.39062,1.02344,0,1.41406l-1.70703,1.70703v2.58594h3v-.55078c1.27734-1.1416,2-2.73633,2-4.44922,0-1.81543-.80908-3.51367-2.21973-4.65918-1.41064-1.14648-3.26025-1.58789-5.06836-1.20605-2.24316.4707-4.02832,2.21777-4.54785,4.45117-.50977,2.19336.19141,4.39453,1.83594,5.86328v.55078Z" fill="#000" stroke-width="0"/>
  <circle cx="48.15679" cy="29" r="2" fill="#000" stroke-width="0"/>
  <path d="M56.50445,30.40137c-.50684-.29199-.80957-.81641-.80957-1.40137s.30273-1.10938.80957-1.40137c.22949-.13281.39746-.35156.46582-.60742s.0332-.5293-.09961-.75879l-2-3.46484c-.13281-.22949-.35156-.39746-.60742-.46582-.25488-.06738-.5293-.03223-.75879.09961-.50781.29199-1.1123.29199-1.61816.00098-.50684-.29297-.80957-.81738-.80957-1.40234,0-.55273-.44727-1-1-1h-4c-.55273,0-1,.44727-1,1,0,.58496-.30273,1.10938-.80957,1.40234-.50684.29004-1.11035.29199-1.61914-.00098-.23047-.13184-.50488-.16699-.75879-.09961-.25586.06836-.47461.23633-.60742.46582l-2,3.46484c-.13281.22949-.16797.50293-.09961.75879s.23633.47461.46582.60742c.50684.29199.80957.81641.80957,1.40137s-.30273,1.10938-.80957,1.40137c-.22949.13281-.39746.35156-.46582.60742s-.0332.5293.09961.75879l2,3.46484c.13281.22949.35156.39746.60742.46582.25391.06641.52832.03125.75879-.09961.50879-.29395,1.1123-.29102,1.61914-.00098.50684.29297.80957.81738.80957,1.40234,0,.55273.44727,1,1,1h4c.55273,0,1-.44727,1-1,0-.58496.30273-1.10938.80957-1.40234.50391-.29004,1.1084-.29297,1.61816.00098.22949.13086.50391.16602.75879.09961.25586-.06836.47461-.23633.60742-.46582l2-3.46484c.13281-.22949.16797-.50293.09961-.75879s-.23633-.47461-.46582-.60742ZM48.15679,33c-2.20605,0-4-1.79395-4-4s1.79395-4,4-4,4,1.79395,4,4-1.79395,4-4,4Z" fill="#000" stroke-width="0"/>
</svg>