<?xml version="1.0" encoding="UTF-8"?>
<svg id="Glyph" xmlns="http://www.w3.org/2000/svg" version="1.1" viewBox="0 0 64 64">
  <path d="M37.53711,35.58008c-.43274-.33893-.90961-.62262-1.40649-.87628-.35919.2356-.73602.43939-1.13062.61371v3.26025c2.07788.83252,3.7536,2.52295,4.49316,4.74158l.45508,1.36426c.0351.1051.03918.2113.03918.31641h1.7652l-.94891-4.26367c-.44824-2.03711-1.6084-3.86816-3.2666-5.15625Z" style="fill: #000; stroke-width: 0px;"/>
  <path d="M32.11328,40c-2.56641,0-4.85156,1.72363-5.55664,4.19141l-.23083.80859h11.62042l-.34955-1.04785c-.78809-2.36426-2.99219-3.95215-5.4834-3.95215Z" style="fill: #000; stroke-width: 0px;"/>
  <path d="M32,20c1.10254,0,2-.89746,2-2v-3c0-1.10254-.89746-2-2-2s-2,.89746-2,2v3c0,1.10254.89746,2,2,2Z" style="fill: #000; stroke-width: 0px;"/>
  <path d="M31,35.92969v2.16309c.36597-.05365.73602-.09277,1.11328-.09277.3006,0,.59344.03674.88672.07031v-2.16205c-.36584.05359-.73608.09174-1.11328.09174-.3006,0-.59344-.03674-.88672-.07031Z" style="fill: #000; stroke-width: 0px;"/>
  <path d="M29,38.68353v-3.26135c-.44312-.17749-.86554-.39288-1.26624-.64679-.42725.22534-.85406.48395-1.2738.80664-1.65527,1.28613-2.81543,3.11719-3.26367,5.15234l-.94904,4.26562h1.99799l.38757-1.35742c.64807-2.26587,2.2959-4.04358,4.36719-4.95905Z" style="fill: #000; stroke-width: 0px;"/>
  <path d="M32,7c-13.78516,0-25,11.21484-25,25s11.21484,25,25,25,25-11.21484,25-25S45.78516,7,32,7ZM46,47h-28c-.55273,0-1-.44727-1-1s.44727-1,1-1h2.19775l1.04541-4.69727c.23871-1.08258.65063-2.11273,1.19666-3.06647-1.5722-2.07532-2.43982-4.61371-2.43982-7.23627,0-5.16742,3.26825-9.68927,8.06677-11.3399-.03619-.21588-.06677-.43402-.06677-.6601v-3c0-2.20605,1.79395-4,4-4s4,1.79395,4,4v3c0,.22607-.03058.44421-.06677.6601,4.79852,1.65063,8.06677,6.17249,8.06677,11.3399,0,2.62256-.86755,5.16095-2.43982,7.23633.5459.95398.95789,1.98468,1.19666,3.06836l1.04535,4.69531h2.19781c.55273,0,1,.44727,1,1s-.44727,1-1,1Z" style="fill: #000; stroke-width: 0px;"/>
  <path d="M25.23633,34c.28766-.22119.58081-.41315.87451-.59863-.69617-.77649-1.25897-1.68555-1.604-2.7207l-.45508-1.36426c-.1748-.52344.10742-1.08984.63184-1.26465.52344-.17676,1.08984.1084,1.26465.63184l.45508,1.36426c.78809,2.36426,2.99219,3.95215,5.4834,3.95215,2.56641,0,4.85156-1.72363,5.55664-4.19141.02051-.07227.0498-.1416.08496-.20703l.59473-1.08301c.2666-.4834.875-.65918,1.3584-.39551.48438.2666.66113.87402.39551,1.3584l-.54297.98828c-.32367,1.07037-.88574,2.01837-1.59314,2.82971.35651.21655.70166.44873,1.02673.70349.57642.44812,1.09717.95544,1.56927,1.50214,1.07397-1.62433,1.66315-3.53577,1.66315-5.50507,0-4.37067-2.8053-8.1817-6.89905-9.50433-.73376.90979-1.84351,1.50433-3.10095,1.50433s-2.36719-.59454-3.10095-1.50433c-4.09375,1.32263-6.89905,5.13367-6.89905,9.50433,0,1.96942.58923,3.88098,1.66333,5.50537.47296-.54767.995-1.05603,1.573-1.50537ZM28,26h.76367c.99805,0,1.89551-.55469,2.3418-1.44727.01782-.03552.04913-.05762.07043-.09003.03784-.05829.0769-.1123.12695-.16223.04834-.04797.1004-.08545.15649-.12213.03351-.02216.05652-.05444.09338-.07288.02228-.01111.04645-.0094.06909-.01868.06299-.02612.12683-.03949.19379-.05237.06232-.01178.12201-.02417.18439-.02399.06238-.00018.12207.01221.18439.02399.06696.01288.1308.02625.19379.05237.02264.00928.04681.00757.06909.01868.03687.01843.05988.05072.09338.07288.05609.03668.10815.07416.15649.12213.05005.04993.08911.10394.12695.16223.0213.03241.05261.0545.07043.09003.44629.89258,1.34375,1.44727,2.3418,1.44727h.76367c.55273,0,1,.44727,1,1s-.44727,1-1,1h-.76367c-1.24115,0-2.38788-.49445-3.23633-1.33368-.84845.83923-1.99518,1.33368-3.23633,1.33368h-.76367c-.55273,0-1-.44727-1-1s.44727-1,1-1Z" style="fill: #000; stroke-width: 0px;"/>
</svg>