<?xml version="1.0" encoding="UTF-8"?>
<svg xmlns="http://www.w3.org/2000/svg" version="1.1" viewBox="0 0 64 64">
  <!-- Generator: Adobe Illustrator 28.7.1, SVG Export Plug-In . SVG Version: 1.2.0 Build 142)  -->
  <g>
    <g id="Glyph">
      <g>
        <path d="M57,32.00003c0,2.20996-1.78998,4-4,4-.10999,0-.21002-.02002-.32001-.04999l-1.5-.5c-.76001-.25-1.59997-.26001-2.35998,0-1.20539.41238-2.61754.37674-3.83002-.07001-.66998-.22003-1.39001-.25-2.08997-.08002l-1.90002.47998v-7.56l1.90002.48004c.69.16998,1.41998.13995,2.08997-.09003,1.221-.41912,2.57889-.47706,3.83002-.06.76001.26001,1.59998.26001,2.35999,0l1.5-.5c.10999-.03003.21002-.04999.32001-.04999,2.21002,0,4,1.78998,4,4Z"/>
        <path d="M31,15.10001v33.79999c-2.28003-.46997-4-2.48999-4-4.89996v-5h-2v-14h2v-5c0-2.41003,1.71997-4.42999,4-4.90002Z"/>
        <path d="M23,28.22v7.56l-1.90002-.47998c-.69995-.16998-1.41998-.14001-2.08997.09003-1.26411.39847-2.55549.48119-3.83002.06-.76001-.26001-1.59998-.26001-2.35999,0-.55166.18389-1.22873.54999-1.82001.54999-2.21002,0-4-1.79004-4-4s1.78998-4,4.00005-4c.57967.00003,1.27383.36315,1.81996.54999.76001.26001,1.59997.26001,2.35998,0,1.24218-.41408,2.60408-.3817,3.83002.07001.66998.21997,1.39001.25,2.08997.08002l1.90002-.48004Z"/>
        <path d="M39,25.00003h-2v-5c0-2.41443-1.7207-4.43427-4-4.89893v33.79785c2.2793-.46466,4-2.4845,4-4.89893v-5h2v-14Z"/>
      </g>
    </g>
  </g>
</svg>