<?xml version="1.0" encoding="UTF-8"?>
<svg xmlns="http://www.w3.org/2000/svg" version="1.1" viewBox="0 0 64 64">
  <!-- Generator: Adobe Illustrator 28.7.1, SVG Export Plug-In . SVG Version: 1.2.0 Build 142)  -->
  <g>
    <g id="Glyph">
      <g>
        <path d="M50.83002,45.44c-.19-.28003-.5-.44-.83002-.44H15c-3.31,0-6,2.69-6,6s2.69,6,6,6h35c.33002,0,.64001-.16003.83002-.44.17999-.27002.21997-.62.09998-.92999-1.20001-2.98999-1.20001-6.27002,0-9.26001.12-.31.08002-.66003-.09998-.92999ZM20,52h-6c-.54999,0-1-.45001-1-1s.45001-1,1-1h6c.54999,0,1,.45001,1,1s-.45001,1-1,1ZM45,52h-21c-.54999,0-1-.45001-1-1s.45001-1,1-1h21c.54999,0,1,.45001,1,1s-.45001,1-1,1Z"/>
        <circle cx="34" cy="14" r="3"/>
        <path d="M34,19c-3.30859,0-6,2.69141-6,6h12c0-3.30859-2.69141-6-6-6Z"/>
        <path d="M22,39h24v-8h-24v8ZM25,33h18c.55225,0,1,.44775,1,1s-.44775,1-1,1h-18c-.55225,0-1-.44775-1-1s.44775-1,1-1Z"/>
        <path d="M50,7H17v36h33c.34998,0,.67999.06,1,.16998V8c0-.54999-.45001-1-1-1ZM26,25c0-3.23199,1.93042-6.01599,4.6955-7.27692-1.03162-.91663-1.6955-2.23792-1.6955-3.72308,0-2.75684,2.24316-5,5-5s5,2.24316,5,5c0,1.48517-.66388,2.80646-1.6955,3.72308,2.76508,1.26093,4.6955,4.04492,4.6955,7.27692v1c0,.55225-.44775,1-1,1h-14c-.55225,0-1-.44775-1-1v-1ZM48,40c0,.55225-.44775,1-1,1h-26c-.55225,0-1-.44775-1-1v-10c0-.55225.44775-1,1-1h26c.55225,0,1,.44775,1,1v10Z"/>
        <path d="M15,43V7c-3.31,0-6,2.69-6,6v32.71997c1.46997-1.66998,3.60999-2.71997,6-2.71997Z"/>
        <rect x="53" y="17" width="2" height="4"/>
        <rect x="53" y="23" width="2" height="4"/>
        <rect x="53" y="29" width="2" height="4"/>
        <rect x="53" y="11" width="2" height="4"/>
      </g>
    </g>
  </g>
</svg>