<?xml version="1.0" encoding="UTF-8"?>
<svg id="Glyph" xmlns="http://www.w3.org/2000/svg" version="1.1" viewBox="0 0 64 64">
  <path d="M56,7.5h-6.53998c.95996,1.06,1.53998,2.45996,1.53998,4s-.58002,2.94-1.53998,4h6.53998c.54999,0,1-.45001,1-1v-6c0-.54999-.45001-1-1-1Z" fill="#000" stroke-width="0"/>
  <path d="M27.32227,27.34912c.55225,0,1-.44775,1-1v-2.41406l1.53564-1.53564h1.99152l2.25116,2.25116v1.99152l-1.53564,1.53564h-2.41406c-.55225,0-1,.44775-1,1s.44775,1,1,1h2.82812c.26514,0,.51953-.10547.70703-.29297l2.12158-2.12158c.1875-.1875.29297-.44189.29297-.70703v-2.40674l1.74939-1.74945c-.09998-.07996-.19-.15997-.27997-.25l-3.72003-3.69995c-.08997-.09003-.17999-.18005-.25995-.29004l-1.73944,1.73944h-2.40674c-.26514,0-.51953.10547-.70703.29297l-2.12158,2.12158c-.1875.1875-.29297.44189-.29297.70703v2.82812c0,.55225.44775,1,1,1Z" fill="#000" stroke-width="0"/>
  <circle cx="45" cy="11.5" r="4" fill="#000" stroke-width="0"/>
  <path d="M38.97998,21.23999c.17004.16998.39001.26001.61005.26001.22998,0,.44995-.09003.62-.26001l3.82001-3.82001c-2.53003-.40997-4.53003-2.40997-4.95001-4.94l-3.82001,3.82001c-.16998.15997-.26001.38-.26001.62,0,.22998.09003.45001.26001.60999l3.71997,3.71002Z" fill="#000" stroke-width="0"/>
  <circle cx="32" cy="49.5" r="1" fill="#000" stroke-width="0"/>
  <path d="M37,31.5v9h14v-9c0-.55225-.44775-1-1-1h-12c-.55225,0-1,.44775-1,1Z" fill="#000" stroke-width="0"/>
  <circle cx="23" cy="49.5" r="1" fill="#000" stroke-width="0"/>
  <path d="M28,31.5c0-.55225-.44775-1-1-1h-12c-.55225,0-1,.44775-1,1v9h14v-9Z" fill="#000" stroke-width="0"/>
  <path d="M51,42.57996l-37-.07996c-3.85999,0-7,3.14001-7,7s3.14001,7,7,7h36c3.85999,0,7-3.14001,7-7,0-3.52002-2.60999-6.42999-6-6.92004ZM14,51.5c-1.09998,0-2-.90002-2-2,0-1.10004.90002-2,2-2s2,.89996,2,2c0,1.09998-.90002,2-2,2ZM23,52.5c-1.65002,0-3-1.35004-3-3s1.34998-3,3-3,3,1.34998,3,3-1.34998,3-3,3ZM32,52.5c-1.65002,0-3-1.35004-3-3s1.34998-3,3-3,3,1.34998,3,3-1.34998,3-3,3ZM41,52.5c-1.65002,0-3-1.35004-3-3s1.34998-3,3-3,3,1.34998,3,3-1.34998,3-3,3ZM50,52.5c-1.65002,0-3-1.35004-3-3s1.34998-3,3-3,3,1.34998,3,3-1.34998,3-3,3Z" fill="#000" stroke-width="0"/>
  <circle cx="41" cy="49.5" r="1" fill="#000" stroke-width="0"/>
  <circle cx="50" cy="49.5" r="1" fill="#000" stroke-width="0"/>
</svg>