<?xml version="1.0" encoding="UTF-8"?>
<svg xmlns="http://www.w3.org/2000/svg" version="1.1" viewBox="0 0 64 64">
  <!-- Generator: Adobe Illustrator 28.7.1, SVG Export Plug-In . SVG Version: 1.2.0 Build 142)  -->
  <g>
    <g id="Glyph">
      <g>
        <path d="M11.75,42.90527c-1.79883-3.33301-2.75-7.10352-2.75-10.90527,0-3.79199.94775-7.55664,2.73877-10.88379.47955-.88312,1.01575-1.7049,1.57654-2.48785.52155.24957,1.09827.40094,1.71399.40094,2.20557,0,4-1.79395,4-4s-1.79443-4-4-4-4,1.79395-4,4c0,.86383.28168,1.65906.74884,2.31354-.64258.88519-1.25391,1.8186-1.79865,2.82318-1.94922,3.61914-2.97949,7.71191-2.97949,11.83398,0,4.13281,1.03418,8.23145,2.99023,11.85449.18066.33496.5249.52539.88086.52539.16016,0,.32324-.03809.47412-.12012.48584-.2627.66699-.86914.40479-1.35449Z"/>
        <path d="M21.11426,11.74121c3.3291-1.79395,7.09326-2.74121,10.88574-2.74121s7.55664.94727,10.8833,2.73926c.88129.47748,1.70343,1.01416,2.48828,1.57605-.24951.52148-.40088,1.09821-.40088,1.71399,0,2.20605,1.79443,4,4,4s4-1.79395,4-4-1.79443-4-4-4c-.86365,0-1.65887.28162-2.31342.74878-.88757-.64398-1.82153-1.25519-2.8233-1.79858-3.61963-1.94922-7.71191-2.97949-11.83398-2.97949s-8.21436,1.03027-11.83398,2.97949c-.48633.2627-.66797.86914-.40625,1.35547.26221.48633.86816.66699,1.35449.40625Z"/>
        <path d="M42.86377,52.26074c-3.31006,1.79199-7.06689,2.73926-10.86377,2.73926s-7.55371-.94727-10.87451-2.74512c-.84875-.4458-1.6756-.98383-2.48401-1.56494.24213-.5152.38782-1.08392.38782-1.68994,0-2.20605-1.79443-4-4-4s-4,1.79395-4,4,1.79443,4,4,4c.87378,0,1.67639-.28949,2.33508-.76666.91779.66736,1.85931,1.28131,2.8197,1.78522,3.60156,1.9502,7.6875,2.98145,11.81592,2.98145s8.21436-1.03125,11.81592-2.98145c.48584-.2627.66602-.86914.40332-1.35547-.26367-.48535-.87012-.66699-1.35547-.40234Z"/>
        <path d="M57,32c0-4.12207-1.03027-8.21484-2.97949-11.83398-.26172-.48633-.86768-.66797-1.35449-.40723-.48633.26172-.66797.86914-.40625,1.35449,1.79248,3.33008,2.74023,7.09473,2.74023,10.88672,0,3.80176-.95117,7.57227-2.75098,10.90625-.47028.87555-1.00964,1.698-1.57996,2.48615-.51746-.24475-1.08899-.3924-1.69836-.3924-2.20557,0-4,1.79395-4,4s1.79443,4,4,4,4-1.79395,4-4c0-.87048-.28687-1.67065-.76068-2.32788.65265-.89148,1.26697-1.82513,1.79974-2.81763,1.95605-3.62305,2.99023-7.72168,2.99023-11.85449Z"/>
        <path d="M46.08887,43.59766l2.99951-5.19531c.27588-.47852.1123-1.08984-.36621-1.36621-1.82031-1.05078-2.90723-2.93359-2.90723-5.03613s1.08691-3.98535,2.90771-5.03613c.22949-.13281.39746-.35156.46582-.60742.06885-.25586.03271-.5293-.1001-.75879l-3.00049-5.19531c-.27588-.47949-.8877-.64258-1.36572-.36621-1.82031,1.05078-3.99414,1.05078-5.81445,0-1.8208-1.05078-2.90771-2.93359-2.90771-5.03613,0-.55273-.44775-1-1-1h-6c-.55225,0-1,.44727-1,1,0,2.10254-1.08691,3.98535-2.90771,5.03613-1.82031,1.0498-3.99463,1.05078-5.81494,0-.47998-.27637-1.09033-.11133-1.36621.36621l-2.99951,5.19531c-.27588.47852-.1123,1.08984.36621,1.36621,1.82031,1.05078,2.90723,2.93359,2.90723,5.03613s-1.08691,3.98535-2.90771,5.03613c-.22949.13281-.39746.35156-.46582.60742-.06885.25586-.03271.5293.1001.75879l3.00049,5.19531c.27588.47852.88672.6416,1.36572.36621,1.82031-1.05078,3.99414-1.05078,5.81445,0,1.8208,1.05078,2.90771,2.93359,2.90771,5.03613,0,.55273.44775,1,1,1h6c.55225,0,1-.44727,1-1,0-2.10254,1.08691-3.98535,2.90771-5.03613,1.81934-1.05078,3.99365-1.05176,5.81494,0,.479.27539,1.08936.11035,1.36621-.36621ZM32,42c-5.51416,0-10-4.48633-10-10s4.48584-10,10-10,10,4.48633,10,10-4.48584,10-10,10Z"/>
        <circle cx="32" cy="32" r="8"/>
      </g>
    </g>
  </g>
</svg>