<?xml version="1.0" encoding="UTF-8"?>
<svg xmlns="http://www.w3.org/2000/svg" version="1.1" viewBox="0 0 64 64">
  <!-- Generator: Adobe Illustrator 28.7.1, SVG Export Plug-In . SVG Version: 1.2.0 Build 142)  -->
  <g>
    <g id="Glyph">
      <g>
        <path d="M28,49h-5c-1.10455,0-2,.89539-2,2v1h10v-1c0-1.10461-.89545-2-2-2h-1Z"/>
        <path d="M9,51v1h10v-1c0-1.10461-.89545-2-2-2h-6c-1.10455,0-2,.89539-2,2Z"/>
        <path d="M40,49h-5c-1.10455,0-2,.89539-2,2v1h10v-1c0-1.10461-.89545-2-2-2h-1Z"/>
        <path d="M11,47h6v-13c0-1.6543,1.3457-3,3-3s3,1.3457,3,3v13h6v-13c0-1.6543,1.3457-3,3-3s3,1.3457,3,3v13h6v-13c0-1.6543,1.3457-3,3-3s3,1.3457,3,3v13h6v-20H11v20Z"/>
        <rect x="7" y="54" width="50" height="3" rx="1" ry="1"/>
        <path d="M47,49c-1.10455,0-2,.89539-2,2v1h10v-1c0-1.10461-.89545-2-2-2h-6Z"/>
        <path d="M56.44727,19.10547l-24-12c-.28125-.14062-.61328-.14062-.89453,0L7.55273,19.10547c-.33887.16992-.55273.51562-.55273.89453v5h50v-5c0-.37891-.21387-.72461-.55273-.89453ZM31.26855,15.73633l2.03809.61133c1.0127.30469,1.69336,1.21875,1.69336,2.27637,0,1.18182-.86877,2.15631-2,2.33801v1.03796c0,.55273-.44727,1-1,1s-1-.44727-1-1v-1h-1c-.55273,0-1-.44727-1-1s.44727-1,1-1h2.62402c.20703,0,.37598-.16895.37598-.37598,0-.16504-.11035-.31348-.26855-.36035l-2.03809-.61133c-1.0127-.30469-1.69336-1.21875-1.69336-2.27637,0-1.18176.86877-2.15631,2-2.33795v-1.03802c0-.55273.44727-1,1-1s1,.44727,1,1v1h1c.55273,0,1,.44727,1,1s-.44727,1-1,1h-2.62402c-.20703,0-.37598.16895-.37598.37598,0,.16504.11035.31348.26855.36035Z"/>
      </g>
    </g>
  </g>
</svg>