<?xml version="1.0" encoding="utf-8"?>
<!-- Generator: Adobe Illustrator 27.3.1, SVG Export Plug-In . SVG Version: 6.00 Build 0)  -->
<svg version="1.1" id="Glyph" xmlns="http://www.w3.org/2000/svg" xmlns:xlink="http://www.w3.org/1999/xlink" x="0px" y="0px"
	 viewBox="0 0 64 64" enable-background="new 0 0 64 64" xml:space="preserve">
<g>
	<path d="M34.2959,47.06445c-0.3418,0.00781-0.65625,0.18945-0.8335,0.48242l-0.77246,1.27539
		c-0.42035-0.81042-0.57806-1.74292-0.42633-2.65881c0.16101-0.97186-1.08734-1.56366-1.73871-0.82263
		c-1.2749,1.45508-3.41357,4.27344-3.41357,6.80664C27.11133,54.82324,29.3042,57,32,57s4.88867-2.17676,4.88867-4.85254
		c0-1.34668-0.58496-2.90723-1.73877-4.6377C34.96045,47.22559,34.64404,47.05957,34.2959,47.06445z"/>
	<path d="M23.2959,47.06445c-0.3418,0.00781-0.65625,0.18945-0.8335,0.48242l-0.77246,1.27539
		c-0.42035-0.81042-0.57806-1.74292-0.42633-2.65881c0.15424-0.93109-1.07745-1.57495-1.73871-0.82263
		c-1.2749,1.45508-3.41357,4.27344-3.41357,6.80664C16.11133,54.82324,18.3042,57,21,57s4.88867-2.17676,4.88867-4.85254
		c0-1.34668-0.58496-2.90723-1.73877-4.6377C23.95996,47.22559,23.63135,47.05957,23.2959,47.06445z"/>
	<path d="M45.2959,47.06445c-0.3418,0.00781-0.65625,0.18945-0.8335,0.48242l-0.77246,1.27539
		c-0.42035-0.81042-0.57806-1.74286-0.42633-2.65875c0.16199-0.97791-1.08978-1.56213-1.73871-0.82269
		c-1.2749,1.45508-3.41357,4.27344-3.41357,6.80664C38.11133,54.82324,40.3042,57,43,57s4.88867-2.17676,4.88867-4.85254
		c0-1.34668-0.58496-2.90723-1.73877-4.6377C45.95996,47.22559,45.63428,47.05957,45.2959,47.06445z"/>
	<circle cx="25" cy="39" r="1"/>
	<path d="M30.99219,34.30859c0.7583,0.2666,1.47461,0.51855,2.26074,0.72363C36.7417,35.94159,40.69427,35.6225,45,34.10754V30H19
		v3.78259c2.01691-0.59546,4.04602-0.87183,6.04443-0.78162C27.57959,33.11035,29.31445,33.71973,30.99219,34.30859z"/>
	<path d="M42.28003,43.01965c1.1131,0.01941,2.21252,0.64502,2.71997,1.76093v-8.573
		c-2.66583,0.87231-5.22345,1.33636-7.6377,1.33636c-1.6001,0-3.14014-0.19141-4.61475-0.57617
		c-0.86621-0.22656-1.65527-0.50391-2.41846-0.77148c-1.61084-0.56641-3.13232-1.10059-5.37207-1.19727
		C22.98956,34.91449,20.98962,35.22266,19,35.87988v7.40833C19.39551,43.10272,19.83002,43,20.27997,43
		c1.28802-0.00006,2.44092,0.85834,2.85004,2.07001c0.03998,0,0.12,0,0.12,0c1.07001,0,2,0.48999,2.56,1.32996
		c0.26001,0.38,0.48999,0.76001,0.69,1.13c0.72998-1.31995,1.66992-2.52991,2.51996-3.50995
		c0.8537-0.98425,2.36908-1.28625,3.54004-0.73004c0.76001,0.35999,1.31,1.01001,1.57001,1.78003c0.03998,0,0.12,0,0.12,0
		c1.07001,0,2.01001,0.48999,2.56,1.32996c0.26001,0.38,0.48999,0.76001,0.69,1.13c0.72998-1.32001,1.66992-2.52997,2.51996-3.50995
		C40.62445,43.32306,41.45599,43.00525,42.28003,43.01965z M25,42c-1.6543,0-3-1.3457-3-3s1.3457-3,3-3s3,1.3457,3,3
		S26.6543,42,25,42z M31,42c-0.55231,0-1-0.44775-1-1c0-0.55231,0.44769-1,1-1s1,0.44769,1,1C32,41.55225,31.55231,42,31,42z M36,44
		c-0.55231,0-1-0.44775-1-1c0-0.55231,0.44769-1,1-1s1,0.44769,1,1C37,43.55225,36.55231,44,36,44z M41,40c0.55231,0,1,0.44769,1,1
		c0,0.55225-0.44769,1-1,1s-1-0.44775-1-1C40,40.44769,40.44769,40,41,40z"/>
	<path d="M14,23h36c0.39502,0,0.75342-0.23291,0.91357-0.59375c0.16064-0.36133,0.09375-0.7832-0.17139-1.07617
		c-5.1319-5.68494-11.42047-7.50854-15.44031-8.07819C35.74121,12.6098,36,11.83502,36,11c0-2.20557-1.79443-4-4-4s-4,1.79443-4,4
		c0,0.82593,0.25189,1.59399,0.6825,2.23193c-8.48438,1.14062-13.85608,6.3606-15.42468,8.09766
		c-0.26465,0.29346-0.33203,0.71533-0.17188,1.07666C13.24658,22.76709,13.60498,23,14,23z M32,9c1.10303,0,2,0.89697,2,2
		s-0.89697,2-2,2s-2-0.89697-2-2S30.89697,9,32,9z"/>
	<path d="M56,28h-5v-2c0-0.54999-0.45001-1-1-1H14c-0.54999,0-1,0.45001-1,1v2H8c-0.54999,0-1,0.45001-1,1v4
		c0,0.15997,0.03998,0.31,0.10999,0.45001L7.32001,33.87C8.44,36.10999,10.56,37.60999,13,37.92999V48
		c0,1.22998,0.44,2.34998,1.17999,3.21997c0.28003-2.14996,1.52002-4.26001,2.82001-5.95001V29c0-0.54999,0.45001-1,1-1h28
		c0.54999,0,1,0.45001,1,1v16.60999c0.31,0.21002,0.59003,0.46997,0.81,0.78998c1.14001,1.70001,1.82001,3.32001,2.01001,4.82001
		C50.56,50.34998,51,49.22998,51,48V37.93066c2.43787-0.32355,4.56091-1.81616,5.68359-4.06152l0.21094-0.42188
		C56.96387,33.30859,57,33.15527,57,33v-4C57,28.44775,56.55225,28,56,28z M13,35.90918
		c-1.67236-0.30566-3.11377-1.37207-3.89453-2.93457L9,32.76416V30h4V35.90918z M55,32.76416l-0.10547,0.21045
		c-0.78076,1.5625-2.22217,2.62891-3.89453,2.93457V30h4V32.76416z"/>
</g>
</svg>
