<?xml version="1.0" encoding="UTF-8"?>
<svg xmlns="http://www.w3.org/2000/svg" version="1.1" viewBox="0 0 48 48">
  <!-- Generator: Adobe Illustrator 28.7.1, SVG Export Plug-In . SVG Version: 1.2.0 Build 142)  -->
  <g>
    <g id="Glyph">
      <g>
        <path d="M33,18c0-1.10461-.89545-2-2-2h-14c-1.10455,0-2,.89539-2,2v4h18v-4Z"/>
        <path d="M41,20c0-1.10303-.89746-2-2-2h-2c-1.10254,0-2,.89697-2,2v2h6v-2Z"/>
        <path d="M13,20c0-1.10303-.89746-2-2-2h-2c-1.10254,0-2,.89697-2,2v2h6v-2Z"/>
        <path d="M41,24h-16v6h18v-4c0-1.10461-.89545-2-2-2Z"/>
        <rect x="17" y="32" width="14" height="6"/>
        <path d="M33,38h9c.55273,0,1-.44775,1-1v-5h-10v6Z"/>
        <path d="M5,37c0,.55225.44727,1,1,1h9v-6H5v5Z"/>
        <path d="M23,12c0-1.10303-.89746-2-2-2h-2c-1.10254,0-2,.89697-2,2v2h6v-2Z"/>
        <path d="M23,24H7c-1.10455,0-2,.89539-2,2v4h18v-6Z"/>
        <path d="M31,12c0-1.10303-.89746-2-2-2h-2c-1.10254,0-2,.89697-2,2v2h6v-2Z"/>
      </g>
    </g>
  </g>
</svg>