<?xml version="1.0" encoding="UTF-8"?>
<svg xmlns="http://www.w3.org/2000/svg" version="1.1" viewBox="0 0 64 64">
  <!-- Generator: Adobe Illustrator 28.7.1, SVG Export Plug-In . SVG Version: 1.2.0 Build 142)  -->
  <g>
    <g id="Glyph">
      <g>
        <path d="M56,11H8c-.55225,0-1,.44727-1,1v4c0,.55273.44775,1,1,1h3v35c0,.55273.44775,1,1,1h4c.55225,0,1-.44727,1-1V17h30v35c0,.55273.44775,1,1,1h4c.55225,0,1-.44727,1-1V17h3c.55225,0,1-.44727,1-1v-4c0-.55273-.44775-1-1-1Z"/>
        <path d="M33,31c0-.83002-.57001-2.44-1-2.92004-.42999.48004-1,2.09003-1,2.92004,0,.54999.45001,1,1,1s1-.45001,1-1Z"/>
        <path d="M38,27.70996c0-3.45996-2.39001-8.70996-6-8.70996s-6,5.25-6,8.70996c0,1.61005.51001,4.10004,3.51001,4.97003-.32001-.47998-.51001-1.06-.51001-1.67999,0-1.16003.94-5,3-5s3,3.83997,3,5c0,.62-.19,1.20001-.51001,1.67999,3-.87,3.51001-3.35999,3.51001-4.97003Z"/>
        <path d="M44,40c-.55225,0-1,.44727-1,1v1h-2v-1c0-1.10461-.89545-2-2-2h-14c-1.10455,0-2,.89539-2,2v6h4v-5c0-.55231.44769-1,1-1h8c.55231,0,1,.44769,1,1v5h4v-3h2v1c0,.55273.44775,1,1,1s1-.44727,1-1v-4c0-.55273-.44775-1-1-1Z"/>
        <rect x="29" y="43" width="6" height="4"/>
        <path d="M42,49h-20c-1.10455,0-2,.89539-2,2v2h24v-2c0-1.10461-.89545-2-2-2Z"/>
        <path d="M29,37h6v-2.39001c-.87.25-1.85999.39001-3,.39001s-2.13-.14001-3-.39001v2.39001Z"/>
      </g>
    </g>
  </g>
</svg>