<?xml version="1.0" encoding="UTF-8"?>
<svg id="Glyph" xmlns="http://www.w3.org/2000/svg" version="1.1" viewBox="0 0 48 48">
  <path d="M11.70708,20.70699l1.08984-1.08984c.3877-.3877,1.01855-.3877,1.40625,0l1.86517,1.86517c-1.01178,1.22882-1.61804,2.7594-1.68829,4.36761-.04999,1.04004.12,2.07001.5,3.02002,1.46002-1.76001,3.65997-2.87,6.12-2.87,3.07001,0,5.73999,1.73999,7.08002,4.28998l9.53906-11.25684-8.65192-8.65192-11.45715,9.71472-1.89282-1.89282c-1.16699-1.16797-3.06738-1.16797-4.23438,0l-1.08984,1.08984c-.39062.39062-.39062,1.02344,0,1.41406s1.02344.39062,1.41406,0Z" fill="#000" stroke-width="0"/>
  <circle cx="31.00005" cy="39.99995" r="3" fill="#000" stroke-width="0"/>
  <path d="M37.00005,34.99995c-1.07001,0-2.07001.41998-2.79999,1.15997,1.09998.91998,1.79999,2.29999,1.79999,3.84003,0,.95001-.27002,1.83997-.72998,2.59998.52997.26001,1.12.40002,1.72998.40002,2.21002,0,4-1.79004,4-4s-1.78998-4-4-4Z" fill="#000" stroke-width="0"/>
  <circle cx="9.00005" cy="29.99995" r="4" fill="#000" stroke-width="0"/>
  <rect x="34.07534" y="3.76794" width="4.31377" height="15.99967" rx=".99989" ry=".99989" transform="translate(2.2911 29.06675) rotate(-45)" fill="#000" stroke-width="0"/>
  <path d="M21.00005,27.99995c-3.31,0-6,2.69-6,6v2h12v-2c0-3.31-2.69-6-6-6ZM21.00005,33.99995c-.54999,0-1-.45001-1-1s.45001-1,1-1,1,.45001,1,1-.45001,1-1,1Z" fill="#000" stroke-width="0"/>
  <path d="M26.41002,37.99995h-12.40997c-.55231,0-1,.44769-1,1v3c0,.54999.45001,1,1,1h13c-.63-.83002-1-1.87-1-3,0-.71002.15002-1.39001.40997-2Z" fill="#000" stroke-width="0"/>
</svg>