<?xml version="1.0" encoding="UTF-8"?>
<svg id="Glyph" xmlns="http://www.w3.org/2000/svg" version="1.1" viewBox="0 0 64 64">
  <path d="M39.78003,24.21997c2.62,2.63,1.64996,7.77002-2.14001,12l3.26996,3.27002c5.63-5.73999,10.19-11.83002,12.92004-17.22003,2.98999-5.94,3.38995-10.45996,1.13-12.72998-2.27002-2.26001-6.79004-1.85999-12.73004,1.13-5.38995,2.72998-11.47998,7.28998-17.21997,12.91998l2.77002,2.77002c4.22998-3.78998,9.37-4.76001,12-2.14001ZM45.44,14.32001c.39001-.39001,1.02002-.39001,1.40997,0l2.83002,2.82996c.38993.38993.39001,1.01976.00024,1.40979-.37341.37366-1.02594.3945-1.42022.00024l-2.82001-2.82001c-.40002-.39001-.40002-1.03003,0-1.41998ZM42.60999,17.14996c.39001-.38995,1.02002-.38995,1.41003,0l2.82996,2.83002c.38997.38997.39001,1.01986.00015,1.40989-.36853.36868-1.02163.40897-1.41012.00015l-2.83002-2.83002c-.39001-.39001-.39001-1.02002,0-1.41003Z" style="fill: #000; stroke-width: 0px;"/>
  <path d="M28.12,41.26001c-1.53998,0-2.90002-.48004-3.90002-1.48004-2.62-2.63-1.64996-7.76996,2.14001-12l-2.76996-2.76996c-5.63,5.73999-10.19,11.82996-12.92004,17.21997-2.98999,5.94-3.38995,10.46002-1.13,12.72998.97003.97003,2.35004,1.45001,4.08002,1.45001,2.31,0,5.25-.87,8.65002-2.58002,5.38995-2.72998,11.47998-7.28998,17.21997-12.91998l-3.27002-3.26996c-2.62,2.34998-5.58997,3.62-8.09998,3.62ZM18.55998,49.68001c-.39039.39038-1.017.37339-1.40996-.00002l-2.83002-2.83002c-.39001-.39001-.39001-1.02002,0-1.40997.39001-.40002,1.02997-.40002,1.41998,0l2.82001,2.82001c.40002.38995.40002,1.02997-.00002,1.42ZM21.39001,46.84998c-.36039.36037-1.02754.38248-1.41003,0l-2.82996-2.83002c-.39001-.38995-.39001-1.01996,0-1.40997.38995-.39001,1.01996-.39001,1.40997,0l2.83002,2.83002c.38998.38992.39001,1.01984,0,1.40997Z" style="fill: #000; stroke-width: 0px;"/>
  <path d="M38.35999,25.64001c-.59998-.61005-1.45996-.89001-2.46997-.89001-1.97003,0-4.48004,1.08997-6.69,3.02997l7.01996,7.02002c1.94-2.20001,3.03003-4.72003,3.03003-6.69,0-1-.28003-1.87-.89001-2.46997Z" style="fill: #000; stroke-width: 0px;"/>
  <path d="M25.64001,38.35999c1.77997,1.78998,5.82001.78998,9.15997-2.14001l-7.01996-7.01996c-2.93005,3.32996-3.93005,7.37994-2.14001,9.15997Z" style="fill: #000; stroke-width: 0px;"/>
  <path d="M25.01001,23.58997l-1.95526-1.9552-.66754-6.00879c-.0249-.22559-.12598-.43604-.28662-.59668l-2.12109-2.12109c-1.13379-1.13379-3.10986-1.13379-4.24268,0l-2.82861,2.82812c-.56689.56689-.87891,1.32031-.87891,2.12158s.31201,1.55469.87891,2.12109l2.12109,2.12158c.16064.16064.37109.26172.59668.28662l6.00879.66754,1.95526,1.95526c.21997-.24005.45996-.48004.69995-.72003.24005-.23999.48004-.47998.72003-.70001Z" style="fill: #000; stroke-width: 0px;"/>
  <path d="M40.21002,40.20996c-.24005.24005-.48004.48004-.72003.70001l1.45526,1.45526.66754,6.00879c.0249.22559.12598.43652.28662.59668l2.12109,2.12109c.56689.56641,1.32031.87891,2.12158.87891s1.55469-.3125,2.12109-.87891l2.82861-2.82812c1.16992-1.16992,1.16992-3.07324,0-4.24316l-2.12109-2.12109c-.16064-.16016-.37109-.26172-.59668-.28711l-6.00934-.6676-1.45471-1.45471c-.21997.23999-.45996.47998-.69995.71997Z" style="fill: #000; stroke-width: 0px;"/>
</svg>