<?xml version="1.0" encoding="utf-8"?>
<!-- Generator: Adobe Illustrator 28.2.0, SVG Export Plug-In . SVG Version: 6.00 Build 0)  -->
<svg version="1.1" id="Glyph" xmlns="http://www.w3.org/2000/svg" xmlns:xlink="http://www.w3.org/1999/xlink" x="0px" y="0px"
	 viewBox="0 0 64 64" enable-background="new 0 0 64 64" xml:space="preserve">
<g>
	<path d="M36,27c-1.10303,0-2,0.89746-2,2v4c0,1.10254,0.89697,2,2,2s2-0.89746,2-2v-4C38,27.89746,37.10303,27,36,27z"/>
	<path d="M50.78613,24.31445C50.021,21.24121,47.21729,19,44,19c-1.90576,0-3.69775,0.76855-5,2.10352
		C37.69775,19.76855,35.90576,19,34,19c-0.33905,0-0.67133,0.03162-1,0.07861V15h1c2.75684,0,5-2.24316,5-5V8
		c0-0.55273-0.44775-1-1-1h-2c-1.6413,0-3.08777,0.80573-4,2.03094C31.08777,7.80573,29.6413,7,28,7h-2c-0.55225,0-1,0.44727-1,1v2
		c0,2.75684,2.24316,5,5,5h1v4.1228C29.69983,17.77893,27.91614,17,26,17c-2.71973,0-5.17627,1.58301-6.32422,4.00781
		c-3.39551,0.15527-6.16797,2.74121-6.61328,6.05469C9.64453,27.52246,7,30.45801,7,34c0,3.85938,3.14014,7,7,7h34.5
		c4.68701,0,8.5-3.81348,8.5-8.5C57,28.66797,54.4248,25.32812,50.78613,24.31445z M24.85352,35
		c1.07227,0,2.07471-0.41602,2.82275-1.1709c0.38867-0.39258,1.02148-0.39551,1.41406-0.00586
		c0.39258,0.38867,0.39551,1.02148,0.00684,1.41406C27.9707,36.37402,26.46338,37,24.85352,37c-3.30859,0-6-2.69141-6-6
		s2.69141-6,6-6c1.60986,0,3.11719,0.62598,4.24365,1.7627c0.38867,0.39258,0.38574,1.02539-0.00684,1.41406
		c-0.3916,0.38965-1.02441,0.38672-1.41406-0.00586C26.92822,27.41602,25.92578,27,24.85352,27c-2.20557,0-4,1.79395-4,4
		S22.64795,35,24.85352,35z M40,33c0,2.20605-1.79443,4-4,4s-4-1.79395-4-4v-4c0-2.20605,1.79443-4,4-4s4,1.79395,4,4V33z M47,33
		c0,0.55273-0.44775,1-1,1h-2v1h2c0.55225,0,1,0.44727,1,1s-0.44775,1-1,1h-3c-0.55225,0-1-0.44727-1-1v-3c0-0.55273,0.44775-1,1-1
		h2v-1h-2c-0.55225,0-1-0.44727-1-1s0.44775-1,1-1h3c0.55225,0,1,0.44727,1,1V33z"/>
	<path d="M36,51h-1v-7c0-0.55273-0.44775-1-1-1h-4c-0.55225,0-1,0.44727-1,1v7h-1c-0.4043,0-0.76904,0.24316-0.92383,0.61719
		s-0.06934,0.80371,0.2168,1.08984l4,4C31.48828,56.90234,31.74414,57,32,57s0.51172-0.09766,0.70703-0.29297l4-4
		c0.28613-0.28613,0.37158-0.71582,0.2168-1.08984S36.4043,51,36,51z"/>
	<path d="M48,51h-1v-7c0-0.55273-0.44775-1-1-1h-4c-0.55225,0-1,0.44727-1,1v7h-1c-0.4043,0-0.76904,0.24316-0.92383,0.61719
		s-0.06934,0.80371,0.2168,1.08984l4,4C43.48828,56.90234,43.74414,57,44,57s0.51172-0.09766,0.70703-0.29297l4-4
		c0.28613-0.28613,0.37158-0.71582,0.2168-1.08984S48.4043,51,48,51z"/>
	<path d="M24,51h-1v-7c0-0.55273-0.44775-1-1-1h-4c-0.55225,0-1,0.44727-1,1v7h-1c-0.4043,0-0.76904,0.24316-0.92383,0.61719
		s-0.06934,0.80371,0.2168,1.08984l4,4C19.48828,56.90234,19.74414,57,20,57s0.51172-0.09766,0.70703-0.29297l4-4
		c0.28613-0.28613,0.37158-0.71582,0.2168-1.08984S24.4043,51,24,51z"/>
</g>
</svg>
