<?xml version="1.0" encoding="UTF-8"?>
<svg xmlns="http://www.w3.org/2000/svg" version="1.1" viewBox="0 0 48 48">
  <!-- Generator: Adobe Illustrator 28.7.1, SVG Export Plug-In . SVG Version: 1.2.0 Build 142)  -->
  <g>
    <g id="Glyph">
      <g>
        <path d="M40,37c-.46173,0-.89423.11346-1.28534.3006l-6.3006-6.3006h3.62793l4.04102-7-4.04102-7h-3.62793l6.3006-6.3006c.39111.18713.82361.3006,1.28534.3006,1.6543,0,3-1.3457,3-3s-1.3457-3-3-3-3,1.3457-3,3c0,.46173.11346.89423.3006,1.28534l-7.71466,7.71466h-1.62793l-4.04102,7,4.04102,7h1.62793l7.71466,7.71466c-.18713.39111-.3006.82361-.3006,1.28534,0,1.6543,1.3457,3,3,3s3-1.3457,3-3-1.3457-3-3-3ZM31,28v-1.18433c-.84717-.30206-1.51361-.96851-1.81567-1.81567h-1.18433c-.55273,0-1-.44775-1-1s.44727-1,1-1h1.18427c.30206-.84717.96857-1.51367,1.81573-1.81573v-1.18427c0-.55225.44727-1,1-1s1,.44775,1,1v1.18427c.84717.30206,1.51367.96857,1.81573,1.81573h1.18427c.55273,0,1,.44775,1,1s-.44727,1-1,1h-1.18427c-.30206.84717-.96857,1.51367-1.81573,1.81573v1.18427c0,.55225-.44727,1-1,1s-1-.44775-1-1Z"/>
        <circle cx="32" cy="24" r="1"/>
        <circle cx="17" cy="16" r="1"/>
        <path d="M20.61914,23h.42285l4.04102-7-1.49146-2.5835,2.57349-.43018c.31543-.05273.58594-.25293.72949-.53906l.76239-1.52478c1.33838-.30103,2.34308-1.49445,2.34308-2.92249,0-1.6543-1.3457-3-3-3s-3,1.3457-3,3c0,1.13434.64014,2.11157,1.57117,2.6214l-.23816.47626-2.80908.46948-1.48193-2.56714h-8.08398l-4.04102,7,4.04102,7h7.66113ZM12,16c0-.55225.44727-1,1-1h1.18427c.30206-.84717.96857-1.51367,1.81573-1.81573v-1.18427c0-.55225.44727-1,1-1s1,.44775,1,1v1.18427c.84717.30206,1.51367.96857,1.81573,1.81573h1.18427c.55273,0,1,.44775,1,1s-.44727,1-1,1h-1.18427c-.30206.84717-.96857,1.51367-1.81573,1.81573v1.18427c0,.55225-.44727,1-1,1s-1-.44775-1-1v-1.18433c-.84717-.30206-1.51361-.96851-1.81567-1.81567h-1.18433c-.55273,0-1-.44775-1-1Z"/>
        <circle cx="16" cy="32" r="1"/>
        <path d="M26.65692,37.07751l-.76239-1.52478c-.14355-.28613-.41406-.48633-.72949-.53906l-2.57349-.43018,1.49146-2.5835-4.04102-7h-8.08398l-4.04102,7,4.04102,7h8.08398l1.48193-2.56714,2.80908.46948.2381.47626c-.93097.50983-1.57111,1.48712-1.57111,2.6214,0,1.6543,1.3457,3,3,3s3-1.3457,3-3c0-1.42804-1.0047-2.62146-2.34308-2.92249ZM20,33h-1.18427c-.30206.84717-.96857,1.51367-1.81573,1.81573v1.18427c0,.55225-.44727,1-1,1s-1-.44775-1-1v-1.18433c-.84717-.30206-1.51361-.96851-1.81567-1.81567h-1.18433c-.55273,0-1-.44775-1-1s.44727-1,1-1h1.18427c.30206-.84717.96857-1.51367,1.81573-1.81573v-1.18427c0-.55225.44727-1,1-1s1,.44775,1,1v1.18427c.84717.30206,1.51367.96857,1.81573,1.81573h1.18427c.55273,0,1,.44775,1,1s-.44727,1-1,1Z"/>
      </g>
    </g>
  </g>
</svg>