<?xml version="1.0" encoding="utf-8"?>
<!-- Generator: Adobe Illustrator 27.3.1, SVG Export Plug-In . SVG Version: 6.00 Build 0)  -->
<svg version="1.1" id="Glyph" xmlns="http://www.w3.org/2000/svg" xmlns:xlink="http://www.w3.org/1999/xlink" x="0px" y="0px"
	 viewBox="0 0 48 48" enable-background="new 0 0 48 48" xml:space="preserve">
<g>
	<path d="M41.09668,27.09668C42.32422,25.87109,43,24.23828,43,22.5c0-2.67334-1.61426-5.02393-4.02344-6.00684
		C38.99219,16.33008,39,16.16504,39,16c0-2.75684-2.24316-5-5-5c-0.41406,0-0.82324,0.05127-1.21973,0.15088
		C31.94238,7.61133,28.75098,5,25,5c-3.68457,0-6.85352,2.52051-7.73926,6.00439C17.1748,11.00146,17.08789,11,17,11
		c-3.85938,0-7,3.14014-7,7c0,0.3374,0.02441,0.6709,0.07227,1H10c-1.32324,0-2.57812,0.51758-3.54199,1.46777
		C5.51758,21.42139,5,22.67578,5,24c0,2.75684,2.24316,5,5,5h26.5C38.23828,29,39.87109,28.32422,41.09668,27.09668z M28,14
		c-0.55273,0-1-0.44775-1-1c0-1.10303-0.89746-2-2-2s-2,0.89697-2,2c0,0.55225-0.44727,1-1,1s-1-0.44775-1-1
		c0-2.20557,1.79395-4,4-4s4,1.79443,4,4C29,13.55225,28.55273,14,28,14z"/>
	<path d="M31.83008,33h-3c-0.55273,0-1,0.44727-1,1s0.44727,1,1,1h2v2h-2c-0.55273,0-1,0.44727-1,1v4c0,0.55273,0.44727,1,1,1h3
		c0.55273,0,1-0.44727,1-1s-0.44727-1-1-1h-2v-2h2c0.55273,0,1-0.44727,1-1v-4C32.83008,33.44727,32.38281,33,31.83008,33z"/>
	<path d="M23.83008,33h-2c-1.10254,0-2,0.89746-2,2v6c0,1.10254,0.89746,2,2,2h2c1.10254,0,2-0.89746,2-2v-6
		C25.83008,33.89746,24.93262,33,23.83008,33z M21.83008,41v-6h2l0.00195,6H21.83008z"/>
	<path d="M14,35c0.79492,0,1.55078,0.31348,2.12793,0.88184c0.39355,0.3877,1.02637,0.38184,1.41406-0.00977
		c0.3877-0.39355,0.38379-1.02637-0.00977-1.41406C16.57812,33.51758,15.32324,33,14,33c-2.75684,0-5,2.24316-5,5s2.24316,5,5,5
		c1.32324,0,2.57812-0.51758,3.53223-1.45801c0.39355-0.3877,0.39746-1.02051,0.00977-1.41406
		c-0.38672-0.39258-1.01953-0.39746-1.41406-0.00977C15.55078,40.68652,14.79492,41,14,41c-1.6543,0-3-1.3457-3-3S12.3457,35,14,35z
		"/>
	<circle cx="8" cy="32" r="1"/>
	<circle cx="40" cy="33" r="3"/>
	<circle cx="38" cy="40" r="3"/>
</g>
</svg>
