<?xml version="1.0" encoding="UTF-8"?>
<svg xmlns="http://www.w3.org/2000/svg" version="1.1" viewBox="0 0 48 48">
  <!-- Generator: Adobe Illustrator 28.7.1, SVG Export Plug-In . SVG Version: 1.2.0 Build 142)  -->
  <g>
    <g id="Glyph">
      <g>
        <path d="M39.78003,8.21998c-4.29004-4.28998-11.27002-4.28998-15.56006,0l-5.45996,5.46002c.94-.22003,1.90997-.33002,2.89996-.33002.66003,0,1.30005.04999,1.94.14001l3.23004-3.22998c3.01001-3.01001,7.90997-3.01001,10.90997,0,3.01001,3,3.01001,7.89996,0,10.90997l-6.22998,6.22998c-1.41003,1.41003-3.25,2.17004-5.10992,2.24005-2.1626.08136-4.26111-.70105-5.80011-2.24005-1.58997-1.58997-2.33997-3.70996-2.23999-5.79999-.15997.13-2.70001,2.66003-2.70001,2.66003.46002,1.89996,1.42004,3.69995,2.90002,5.17999,2.05487,2.04095,4.88367,3.20996,7.78003,3.20996,2.81995,0,5.63995-1.07001,7.77997-3.20996l5.66003-5.66003c4.28998-4.28998,4.28998-11.26996,0-15.56Z"/>
        <path d="M24.40997,34.50001l-3.23999,3.23999c-3.01001,3.01001-7.90997,3.01001-10.90997,0-3.01001-3-3.01001-7.90002,0-10.91003l6.22998-6.22998c2.94843-2.94843,7.93805-2.97186,10.91003,0,1.5,1.5,2.25995,3.47998,2.25995,5.45001,0,.12,0,.22998-.01996.34998.15997-.13.31-.25995.45996-.40997l2.24005-2.23999c-.46002-1.90002-1.42004-3.71002-2.90002-5.19-4.23682-4.237-11.32153-4.22339-15.56,0l-5.66003,5.65997c-4.28998,4.29004-4.28998,11.27002,0,15.56s11.27002,4.29004,15.56006,0l5.45996-5.45996c-.94.21997-1.90997.32996-2.89996.32996-.65002,0-1.30005-.04999-1.93005-.14996Z"/>
      </g>
    </g>
  </g>
</svg>