<?xml version="1.0" encoding="UTF-8"?>
<svg xmlns="http://www.w3.org/2000/svg" version="1.1" viewBox="0 0 64 64">
  <!-- Generator: Adobe Illustrator 28.7.1, SVG Export Plug-In . SVG Version: 1.2.0 Build 142)  -->
  <g>
    <g id="Glyph">
      <g>
        <path d="M56.82811,33.43945c-.18604-.2749-.49609-.43945-.82812-.43945h-3v-3h2c.55225,0,1-.44775,1-1s-.44775-1-1-1h-2v-2c0-.55225-.44775-1-1-1s-1,.44775-1,1v2h-2c-.55225,0-1,.44775-1,1s.44775,1,1,1h2v3h-2c-.31494,0-.61133.14795-.7998.3999l-2.7002,3.6001H7.99998c-.32617,0-.63184.15918-.81885.42627-.1875.26709-.23242.60889-.12109.91553l4,11c.14404.39502.51953.6582.93994.6582h38c.40869,0,.77637-.24902.92871-.62842l6-15c.12305-.30811.08545-.65723-.10059-.93213ZM36.99998,43c-.55231,0-1-.44775-1-1,0-.55231.44769-1,1-1s1,.44769,1,1c0,.55225-.44769,1-1,1ZM40.99998,43c-.55231,0-1-.44775-1-1,0-.55231.44769-1,1-1s1,.44769,1,1c0,.55225-.44769,1-1,1ZM44.99998,43c-.55231,0-1-.44775-1-1,0-.55231.44769-1,1-1s1,.44769,1,1c0,.55225-.44769,1-1,1Z"/>
        <path d="M41.99998,21c0-.54999-.45001-1-1-1h-8c-.54999,0-1,.45001-1,1v5h10v-5Z"/>
        <path d="M35.99998,28h-6c-1.10455,0-2,.89539-2,2v5h8v-7Z"/>
        <path d="M37.99998,35h6.5l1.5-2v-3c0-1.10461-.89545-2-2-2h-6v7Z"/>
        <rect x="13.99998" y="24" width="8" height="4"/>
        <path d="M21.99998,20c0-1.10303-.89697-2-2-2h-1v-3c0-.55225-.44775-1-1-1s-1,.44775-1,1v3h-1c-1.10303,0-2,.89697-2,2v2h8v-2Z"/>
        <path d="M25.99998,32c0-1.10461-.89545-2-2-2h-12c-1.10455,0-2,.89539-2,2v3h16v-3Z"/>
      </g>
    </g>
  </g>
</svg>