<?xml version="1.0" encoding="UTF-8"?>
<svg xmlns="http://www.w3.org/2000/svg" version="1.1" viewBox="0 0 64 64">
  <!-- Generator: Adobe Illustrator 28.7.1, SVG Export Plug-In . SVG Version: 1.2.0 Build 142)  -->
  <g>
    <g id="Glyph">
      <g>
        <circle cx="32" cy="21" r="2"/>
        <path d="M43,13h-2v-5c0-.55225-.44727-1-1-1s-1,.44775-1,1v5h-14v-5c0-.55225-.44727-1-1-1s-1,.44775-1,1v5h-2c-1.10455,0-2,.89539-2,2v10c0,1.10455.89545,2,2,2h22c1.10455,0,2-.89545,2-2v-10c0-1.10461-.89545-2-2-2ZM32,25c-2.20605,0-4-1.79443-4-4s1.79395-4,4-4,4,1.79443,4,4-1.79395,4-4,4Z"/>
        <path d="M22,32c0,1.6543,1.3457,3,3,3h4v.62695c0,3.09668,1.34766,6.12012,3.7959,8.51318.77637.75977,1.2041,1.77539,1.2041,2.85938,0,2.16846-1.83203,4.00049-4,4.00049-2.20605,0-4-1.79443-4-4,0-.19727-.05859-.39062-.16797-.55469l-2-3c-.37109-.55664-1.29297-.55664-1.66406,0l-2,3c-.10938.16406-.16797.35742-.16797.55469,0,2.72607,1.07715,5.27344,3.0332,7.17334,1.88379,1.82959,4.3457,2.82666,6.96289,2.82666.09961,0,.2002-.00146.30078-.00439,5.3623-.15576,9.71484-4.65039,9.70312-10.01904-.00586-2.52441-.95801-4.93164-2.68066-6.77881-1.28479-1.37708-2.06915-3.19592-2.2663-5.19775h3.94696c1.6543,0,3-1.3457,3-3v-3h-20v3Z"/>
      </g>
    </g>
  </g>
</svg>