<?xml version="1.0" encoding="UTF-8"?>
<svg id="Glyph" xmlns="http://www.w3.org/2000/svg" version="1.1" viewBox="0 0 48 48">
  <path d="M8,10h2v2.18524c-1.15967.41553-2,1.51678-2,2.81476v6h6v-6c0-1.29797-.84033-2.39923-2-2.81476v-2.18524h2c.55225,0,1-.44775,1-1s-.44775-1-1-1h-2v-1c0-.55225-.44775-1-1-1s-1,.44775-1,1v1h-2c-.55225,0-1,.44775-1,1s.44775,1,1,1Z" fill="#000" stroke-width="0"/>
  <path d="M34,10h2v2.18524c-1.15967.41553-2,1.51678-2,2.81476v6h6v-6c0-1.29797-.84033-2.39923-2-2.81476v-2.18524h2c.55273,0,1-.44775,1-1s-.44727-1-1-1h-2v-1c0-.55225-.44727-1-1-1s-1,.44775-1,1v1h-2c-.55273,0-1,.44775-1,1s.44727,1,1,1Z" fill="#000" stroke-width="0"/>
  <path d="M25,35v-1h-2v1c0,.55176.44873,1,1,1s1-.44824,1-1Z" fill="#000" stroke-width="0"/>
  <path d="M27,35c0,1.6543-1.3457,3-3,3s-3-1.3457-3-3v-1h-5.78082l1.4317,5.72852c.33496,1.33691,1.53174,2.27148,2.91064,2.27148h8.87695c1.37891,0,2.57617-.93457,2.91016-2.27246l1.43164-5.72754h-5.78027v1Z" fill="#000" stroke-width="0"/>
  <rect x="21" y="25" width="6" height="2" fill="#000" stroke-width="0"/>
  <path d="M41,23h-7.92999c-.33002,0-.65002-.17004-.83002-.45001l-.81-1.21002c-.56-.83997-1.5-1.33997-2.5-1.33997h-9.85999c-1,0-1.94.5-2.5,1.33997l-.81,1.21002c-.17999.27997-.5.45001-.83002.45001h-7.92999c-1.09998,0-2,.89996-2,2v2c0,1.09998.90002,2,2,2h3.32001l.70001,1.73999c.29999.76001,1.03998,1.26001,1.85999,1.26001h22.23999c.82001,0,1.56-.5,1.85999-1.26001l.70001-1.73999h3.32001c1.09998,0,2-.90002,2-2v-2c0-1.10004-.90002-2-2-2ZM16,28c-.54999,0-1-.45001-1-1s.45001-1,1-1,1,.45001,1,1-.45001,1-1,1ZM29,28c0,.54999-.45001,1-1,1h-8c-.54999,0-1-.45001-1-1v-4c0-.54999.45001-1,1-1h8c.54999,0,1,.45001,1,1v4ZM32,28c-.54999,0-1-.45001-1-1s.45001-1,1-1,1,.45001,1,1-.45001,1-1,1Z" fill="#000" stroke-width="0"/>
</svg>