<?xml version="1.0" encoding="utf-8"?>
<!-- Generator: Adobe Illustrator 27.3.1, SVG Export Plug-In . SVG Version: 6.00 Build 0)  -->
<svg version="1.1" id="Glyph" xmlns="http://www.w3.org/2000/svg" xmlns:xlink="http://www.w3.org/1999/xlink" x="0px" y="0px"
	 viewBox="0 0 48 48" enable-background="new 0 0 48 48" xml:space="preserve">
<g>
	<path d="M5.43945,15.82788c0.27539,0.18604,0.625,0.22314,0.93164,0.10059L16,12.0769c0,0,9.60999,3.84399,9.62891,3.85156
		c0.29083,0.11633,0.65875,0.08423,0.93164-0.10059C26.83496,15.64185,27,15.33179,27,14.99976v-4
		c0-0.40869-0.24902-0.77637-0.62891-0.92871l-10-4c-0.23828-0.09473-0.50391-0.09473-0.74219,0l-10,4
		C5.24902,10.22339,5,10.59106,5,10.99976v4C5,15.33179,5.16504,15.64185,5.43945,15.82788z"/>
	<rect x="14" y="21" width="4" height="6"/>
	<path d="M25,27v-9.17999c-0.03998-0.01001-9-3.59003-9-3.59003s-8.96002,3.59003-9,3.59998V27h5v-7c0-0.55225,0.44727-1,1-1h6
		c0.55273,0,1,0.44775,1,1v7H25z"/>
	<path d="M41,29h-8.07001c0,0,0.01001,0.01001,0.01001,0.01996l2.39001,1.69l-5.42004,4.02002l1.80005-3.42999
		c0.22998-0.44,0.09998-0.97998-0.31-1.27002L29.96002,29H7c-1.09998,0-2,0.89996-2,2v10c0,1.09998,0.90002,2,2,2h34
		c1.09998,0,2-0.90002,2-2V31C43,29.89996,42.09998,29,41,29z"/>
</g>
</svg>
