<?xml version="1.0" encoding="UTF-8"?>
<svg id="Glyph" xmlns="http://www.w3.org/2000/svg" version="1.1" viewBox="0 0 64 64">
  <circle cx="50" cy="46" r="1" style="fill: #000; stroke-width: 0px;"/>
  <path d="M50,39c-3.85999,0-7,3.14001-7,7s3.14001,7,7,7,7-3.14001,7-7-3.14001-7-7-7ZM50,49c-1.65002,0-3-1.35004-3-3s1.34998-3,3-3,3,1.34998,3,3-1.34998,3-3,3Z" style="fill: #000; stroke-width: 0px;"/>
  <circle cx="14" cy="46" r="1" style="fill: #000; stroke-width: 0px;"/>
  <path d="M14,39c-3.85999,0-7,3.14001-7,7s3.14001,7,7,7,7-3.14001,7-7-3.14001-7-7-7ZM14,49c-1.65002,0-3-1.35004-3-3s1.34998-3,3-3,3,1.34998,3,3-1.34998,3-3,3Z" style="fill: #000; stroke-width: 0px;"/>
  <path d="M24.57904,43c-1.32849-4.68018-5.65015-8-10.57904-8-2.00391,0-3.96094.54492-5.6582,1.5752-.47266.28613-.62305.90137-.33594,1.37305.28613.47363.90137.62402,1.37305.33594,1.38477-.83984,2.9834-1.28418,4.62109-1.28418,3.85699,0,7.25555,2.48663,8.49658,6.05304.32847.94394.50342,1.94758.50342,2.94696,0,1.04999-.17999,2.06-.52002,3h19.04004c-.34003-.94-.52002-1.95001-.52002-3s.17999-2.06.52002-3h-16.94098Z" style="fill: #000; stroke-width: 0px;"/>
  <path d="M33,17h6c.55273,0,1-.44775,1-1v-1h1.22461l3.86462,15h-.74921c-.31,0-.60004.14001-.79004.38s-.25.56-.17999.85999l1.73999,7.21002c1.41003-.92004,3.09003-1.45001,4.89001-1.45001.32001,0,.64001.01996.95001.04999l-1.53003-6.28998c-.10999-.44-.51001-.76001-.96997-.76001h-1.29474l-4.18652-16.24951c-.11426-.44189-.5127-.75049-.96875-.75049h-2v-1c0-.55225-.44727-1-1-1h-6c-1.6543,0-3,1.3457-3,3s1.3457,3,3,3Z" style="fill: #000; stroke-width: 0px;"/>
  <path d="M32,41c4.96289,0,9-4.03711,9-9,0-4.9624-4.03711-9-9-9s-9,4.0376-9,9c0,4.96289,4.03711,9,9,9ZM29.2002,31.3999l3-4c.33105-.44043.95801-.53076,1.39941-.19971.44238.33105.53223.95801.2002,1.3999l-1.7998,2.3999h2c.37891,0,.72461.21387.89453.55273.16895.33887.13281.74414-.09473,1.04736l-2.99995,3.99944c-.3096.41275-.9614.52882-1.39947.20027-.44238-.33105-.53223-.95801-.2002-1.39941l1.7998-2.40039h-2c-.37891,0-.72461-.21387-.89453-.55273-.16895-.33887-.13281-.74414.09473-1.04736Z" style="fill: #000; stroke-width: 0px;"/>
</svg>