<?xml version="1.0" encoding="UTF-8"?>
<svg xmlns="http://www.w3.org/2000/svg" version="1.1" viewBox="0 0 64 64">
  <!-- Generator: Adobe Illustrator 28.7.1, SVG Export Plug-In . SVG Version: 1.2.0 Build 142)  -->
  <g>
    <g id="Glyph">
      <g>
        <circle cx="38" cy="50" r="1"/>
        <path d="M35.18427,49h-18.36853c.11206.31433.18427.64764.18427,1s-.0722.68567-.18427,1h18.36859c-.11206-.31433-.18433-.64764-.18433-1s.0722-.68567.18427-1Z"/>
        <circle cx="14" cy="50" r="1"/>
        <path d="M38,43h-4v-2h4c1.65002,0,3-1.35004,3-3v-13c0-.27002-.10999-.52002-.28998-.71002l-5-5c-.19-.17999-.44-.28998-.71002-.28998h-8v22h5v2h-12v-2h1v-4h-12v1c0,1.64996,1.34998,3,3,3h6v2h-4c-3.85999,0-7,3.14001-7,7s3.14001,7,7,7h24c3.85999,0,7-3.14001,7-7s-3.14001-7-7-7ZM30,37c-.54999,0-1-.45001-1-1s.45001-1,1-1,1,.45001,1,1-.45001,1-1,1ZM31,33c-.54999,0-1-.45001-1-1v-8c0-.54999.45001-1,1-1h3.34003c.26996,0,.51996.10999.70996.28998l2.66003,2.66003c.17999.19.28998.44.28998.70996v5.34003c0,.54999-.45001,1-1,1h-6ZM38,53H14c-1.65002,0-3-1.35004-3-3s1.34998-3,3-3h24c1.65002,0,3,1.34998,3,3s-1.34998,3-3,3Z"/>
        <path d="M37.12,17.88l2.60999,2.60999,1.92999-4.48999h3.68005l-.21002-4.87c-.02002-.38,0-.76001.07001-1.13h-9.20001c-.40002,0-.75.22998-.90997.58997l-2.85004,6.41003h2.76001c.79999,0,1.54999.31,2.12.88Z"/>
        <path d="M51,28c1.09998,0,2.14001.21997,3.10999.63l.76001-17.59002c.09428-2.1821-1.69115-4.03991-3.86985-4.03999-2.17031-.00008-3.97252,1.86893-3.87014,4.03998l.73999,16.96002h3.13Z"/>
        <path d="M51,30h-4c-.55225,0-1,.44775-1,1v5.6665l-2.7998,3.7334c-.22754.30322-.26416.7085-.09473,1.04736s.51562.55273.89453.55273h7c3.30859,0,6-2.69141,6-6s-2.69141-6-6-6Z"/>
        <path d="M21,25v4h-12v-1c0-1.65002,1.34998-3,3-3h9Z"/>
        <rect x="9" y="31" width="9" height="4"/>
        <path d="M20,35h2c.54999,0,1,.45001,1,1v5h2v-16h-2v5c0,.54999-.45001,1-1,1h-2v4Z"/>
        <polygon points="36 27.0708 33.9292 25 32 25 32 31 36 31 36 27.0708"/>
        <path d="M20,22v1h-8v-1c0-.54999.45001-1,1-1h6c.54999,0,1,.45001,1,1Z"/>
      </g>
    </g>
  </g>
</svg>