<?xml version="1.0" encoding="UTF-8"?>
<svg id="Glyph" xmlns="http://www.w3.org/2000/svg" version="1.1" viewBox="0 0 48 48">
  <path d="M24.47046,24.03699c-.15228-.02356-.30896-.03699-.47046-.03699-1.6543,0-3,1.3457-3,3s1.3457,3,3,3,3-1.3457,3-3c0-.16156-.01343-.31824-.03699-.47058-.56494-.19031-1.09937-.49451-1.54895-.94348-.4491-.4494-.7533-.98389-.9436-1.54895Z" fill="#000" stroke-width="0"/>
  <path d="M29.65723,24.17188c.75995-.76093.77301-1.98285.05078-2.76685-.03735-.03815-.07507-.07574-.11322-.11316-.38153-.35181-.86542-.53308-1.35162-.53308-.5127,0-1.02539.19434-1.41504.58398-.7793.78027-.7793,2.04883,0,2.8291.78027.7793,2.04883.7793,2.8291,0Z" fill="#000" stroke-width="0"/>
  <path d="M16,27c0,4.41113,3.58887,8,8,8s8-3.58887,8-8c0-.77234-.11591-1.51709-.32111-2.22418-.1684.28741-.36145.56384-.6076.81012-.59351.59277-1.32861.95709-2.0968,1.099.00653.10565.02551.20782.02551.31506,0,2.75684-2.24316,5-5,5s-5-2.24316-5-5,2.24316-5,5-5c.10724,0,.20941.01898.31506.02551.14191-.76862.50623-1.50366,1.099-2.0968.24615-.24615.52252-.43927.80988-.60767-.70703-.20514-1.45166-.32104-2.22394-.32104-4.41113,0-8,3.58887-8,8Z" fill="#000" stroke-width="0"/>
  <path d="M42.79999,26.39996c-.40997-.54999-10.10999-13.39996-18.79999-13.39996-1,0-2.01001.16998-3.02002.47998.01001.16998.02002.34003.02002.52002,0,1.34656-.30615,2.62054-.83923,3.76904,1.18298-.49396,2.47931-.76904,3.83923-.76904,2.72241,0,5.19153,1.09674,6.99664,2.86786.02362.02252.05145.03766.07465.06085.02332.02332.03857.05127.06116.07501,1.77094,1.80511,2.86755,4.27405,2.86755,6.99628,0,5.51367-4.48633,10-10,10s-10-4.48633-10-10c0-1.6463.40704-3.19684,1.11487-4.56787-.97247.36084-2.01886.56787-3.11487.56787-1.19,0-2.32001-.23004-3.35999-.66003-2,2.15002-3.29999,3.86005-3.44,4.06-.27002.36005-.27002.84003,0,1.20001.40997.54999,10.10999,13.40002,18.79999,13.40002s18.39001-12.85004,18.79999-13.40002c.27002-.35999.27002-.83997,0-1.20001Z" fill="#000" stroke-width="0"/>
  <path d="M12,21c3.85974,0,7-3.14026,7-7s-3.14026-7-7-7-7,3.14026-7,7,3.14026,7,7,7ZM8.79297,12.79297c.39062-.39062,1.02344-.39062,1.41406,0l1.29297,1.29297,2.29297-2.29297c.39062-.39062,1.02344-.39062,1.41406,0s.39062,1.02344,0,1.41406l-3,3c-.19531.19531-.45117.29297-.70703.29297s-.51172-.09766-.70703-.29297l-2-2c-.39062-.39062-.39062-1.02344,0-1.41406Z" fill="#000" stroke-width="0"/>
</svg>