<?xml version="1.0" encoding="UTF-8"?>
<svg xmlns="http://www.w3.org/2000/svg" version="1.1" viewBox="0 0 64 64">
  <!-- Generator: Adobe Illustrator 28.7.1, SVG Export Plug-In . SVG Version: 1.2.0 Build 142)  -->
  <g>
    <g id="Glyph">
      <g>
        <rect x="27" y="40" width="4" height="2"/>
        <rect x="37" y="40" width="4" height="2"/>
        <rect x="27" y="32" width="4" height="2"/>
        <rect x="7" y="7" width="12" height="40" rx="3" ry="3"/>
        <polygon points="48 7.58594 48 13 53.41406 13 48 7.58594"/>
        <path d="M54,15h-7c-.55273,0-1-.44775-1-1v-7h-15c-.55273,0-1,.44775-1,1v9h24v-2Z"/>
        <rect x="37" y="32" width="4" height="2"/>
        <path d="M21,21v28c0,1.10457.89543,2,2,2h15.89893c-.46466,2.2793-2.4845,4-4.89893,4h-15c-2.41443,0-4.43427-1.7207-4.89893-4h.89893c.55228,0,1-.44772,1-1v-1h-6v1c0,.55228.44772,1,1,1h1.0799c.48785,3.3866,3.40106,6,6.9201,6h15c3.51904,0,6.43231-2.6134,6.92017-6h14.07983c1.10457,0,2-.89543,2-2v-28c0-1.10457-.89543-2-2-2H23c-1.10457,0-2,.89543-2,2ZM25,31c0-.55225.44727-1,1-1h6c.55273,0,1,.44775,1,1v4c0,.55225-.44727,1-1,1h-6c-.55273,0-1-.44775-1-1v-4ZM25,43v-4c0-.55225.44727-1,1-1h6c.55273,0,1,.44775,1,1v4c0,.55225-.44727,1-1,1h-6c-.55273,0-1-.44775-1-1ZM46,48h-14c-.55273,0-1-.44775-1-1s.44727-1,1-1h14c.55273,0,1,.44775,1,1s-.44727,1-1,1ZM36,38h6c.55273,0,1,.44775,1,1v4c0,.55225-.44727,1-1,1h-6c-.55273,0-1-.44775-1-1v-4c0-.55225.44727-1,1-1ZM35,35v-4c0-.55225.44727-1,1-1h6c.55273,0,1,.44775,1,1v4c0,.55225-.44727,1-1,1h-6c-.55273,0-1-.44775-1-1ZM53,43c0,.55225-.44727,1-1,1h-6c-.55273,0-1-.44775-1-1v-4c0-.55225.44727-1,1-1h6c.55273,0,1,.44775,1,1v4ZM53,35c0,.55225-.44727,1-1,1h-6c-.55273,0-1-.44775-1-1v-4c0-.55225.44727-1,1-1h6c.55273,0,1,.44775,1,1v4ZM53,27c0,.55225-.44727,1-1,1h-26c-.55273,0-1-.44775-1-1v-4c0-.55225.44727-1,1-1h26c.55273,0,1,.44775,1,1v4Z"/>
        <rect x="27" y="24" width="24" height="2"/>
        <rect x="47" y="32" width="4" height="2"/>
        <rect x="47" y="40" width="4" height="2"/>
      </g>
    </g>
  </g>
</svg>