<?xml version="1.0" encoding="UTF-8"?>
<svg id="Glyph" xmlns="http://www.w3.org/2000/svg" version="1.1" viewBox="0 0 64 64">
  <path d="M55.62028,37.87756l-.70703-.70703c-3.89844-3.89844-10.24316-3.89746-14.1416,0-3.89941,3.89844-3.89941,10.24316,0,14.1416l.70703.70703c.37024.37024,1.02159.39247,1.41406,0l12.72754-12.72754c.39062-.39062.39062-1.02344,0-1.41406Z" style="fill: #000; stroke-width: 0px;"/>
  <path d="M42.507,33.49511L17.43699,10.93505c-.81-.72998-2.04999-.69995-2.83002.07001-.76996.77002-.79999,2.02002-.06995,2.83002l22.56,25.07001c.56-1.15002,1.32996-2.22003,2.25995-3.15002.93005-.92999,2-1.69995,3.15002-2.25995Z" style="fill: #000; stroke-width: 0px;"/>
  <path d="M56.327,48.4851l-3.53003-3.53003-4.23999,4.23999,3.53003,3.53003c1.15809,1.15809,3.0841,1.15588,4.23998.00001,1.13941-1.1394,1.1632-3.07693,0-4.24Z" style="fill: #000; stroke-width: 0px;"/>
  <path d="M9.10075,37.17052l-.70703.70703c-.39062.39062-.39062,1.02344,0,1.41406,0,0,12.69325,12.69325,12.72747,12.72747.80245.80245,1.57709-.16288,2.12116-.70696,3.89941-3.89844,3.89941-10.24316,0-14.1416-3.89746-3.89746-10.24219-3.89941-14.1416,0Z" style="fill: #000; stroke-width: 0px;"/>
  <path d="M21.507,33.49511c1.15002.56,2.21997,1.32996,3.15002,2.25995.92999.92999,1.69995,2,2.25995,3.15002l3.75-4.15997-4.71997-5.24005-4.44,3.99005Z" style="fill: #000; stroke-width: 0px;"/>
  <path d="M49.48698,13.83508c.72003-.81.69-2.06-.07996-2.83002-.77002-.76996-2.02002-.79999-2.83002-.07001l-13.07001,11.76001,4.41998,3.98999,11.56-12.84998Z" style="fill: #000; stroke-width: 0px;"/>
  <path d="M7.68699,48.4851c-1.16996,1.16996-1.16998,3.06994-.00006,4.23993,1.14985,1.14992,3.09581,1.16475,4.24005.00006l3.54004-3.53003-4.24005-4.23999-3.53998,3.53003Z" style="fill: #000; stroke-width: 0px;"/>
</svg>