<?xml version="1.0" encoding="UTF-8"?>
<svg xmlns="http://www.w3.org/2000/svg" version="1.1" viewBox="0 0 64 64">
  <!-- Generator: Adobe Illustrator 28.7.1, SVG Export Plug-In . SVG Version: 1.2.0 Build 142)  -->
  <g>
    <g id="Glyph">
      <g>
        <rect x="14.9001" y="40.65646" width="5.99981" height="5.99274" transform="translate(-25.64604 25.4946) rotate(-45.06812)"/>
        <polygon points="46.09998 39.42029 41.85999 43.65033 46.09998 47.89032 50.34003 43.66034 46.09998 39.42029"/>
        <path d="M56.70703,47.18994l-2.19269-2.19348c1.28308-1.94012,1.07172-4.58472-.63544-6.29187l-5.65723-5.65723c-3.26971-3.26971-8.44739-3.49084-11.97888-.66541l-2.82874-2.82874,18.39941-18.39941c.39062-.39062.39062-1.02344,0-1.41406s-1.02344-.39062-1.41406,0l-18.39941,18.39941L13.60059,9.73975c-.39062-.39062-1.02344-.39062-1.41406,0s-.39062,1.02344,0,1.41406l18.39941,18.39941-2.82874,2.82874c-3.53149-2.82544-8.70917-2.60431-11.97888.66541l-5.65723,5.65723c-1.70715,1.70715-1.91852,4.35175-.63544,6.29187l-2.19269,2.19348c-.39062.39062-.39062,1.02344,0,1.41406l5.65723,5.65625c.19531.19531.45117.29297.70703.29297s.51172-.09766.70703-.29297l2.82812-2.82812c.39062-.39062.39062-1.02344,0-1.41406l-5.65723-5.65723c-1.16992-1.16992-1.16992-3.07227,0-4.24219l4.9502-4.9502,10.60645,10.60645c.19531.19531.45117.29297.70703.29297s.51172-.09766.70703-.29297c3.26959-3.26959,3.48914-8.44861.66534-11.97882l2.8288-2.8288,2.8288,2.8288c-2.82379,3.53021-2.60425,8.70923.66534,11.97882.19531.19531.45117.29297.70703.29297s.51172-.09766.70703-.29297l10.60645-10.60645,4.9502,4.9502c1.16992,1.16992,1.16992,3.07227,0,4.24219l-5.65723,5.65723c-.39062.39062-.39062,1.02344,0,1.41406l2.82812,2.82812c.19531.19531.45117.29297.70703.29297s.51172-.09766.70703-.29297l5.65723-5.65625c.39062-.39062.39062-1.02344,0-1.41406Z"/>
      </g>
    </g>
  </g>
</svg>