<?xml version="1.0" encoding="UTF-8"?>
<svg xmlns="http://www.w3.org/2000/svg" version="1.1" viewBox="0 0 64 64">
  <!-- Generator: Adobe Illustrator 28.7.1, SVG Export Plug-In . SVG Version: 1.2.0 Build 142)  -->
  <g>
    <g id="Glyph">
      <g>
        <path d="M19.5,43c-1.92505,0-3.5,1.57495-3.5,3.5,0,1.92493,1.57495,3.5,3.5,3.5s3.5-1.57507,3.5-3.5c0-1.92505-1.57495-3.5-3.5-3.5Z"/>
        <path d="M19.5,38.5c-4.40997,0-8,3.58997-8,8s3.59003,8,8,8,8-3.59003,8-8-3.59003-8-8-8ZM19.5,51.5c-2.76001,0-5-2.23999-5-5s2.23999-5,5-5,5,2.23999,5,5-2.23999,5-5,5Z"/>
        <path d="M55.5,34.5h-1v-4h-8v4h-2V12.5c0-.54999-.45001-1-1-1s-1,.45001-1,1v20h-9.71997l-4.76001-2.85999c-.16003-.09003-.34003-.14001-.52002-.14001H10.5c-1.65002,0-3,1.34998-3,3v11c0,1.29999.84003,2.40997,2,2.82001.09998-5.42999,4.54999-9.82001,10-9.82001,5.51001,0,10,4.48999,10,10h2v-9c0-.54999.45001-1,1-1h23c.54999,0,1-.45001,1-1s-.45001-1-1-1Z"/>
        <circle cx="43.5" cy="50.5" r="4"/>
        <path d="M44.5,44.58997v-6.08997h-11v8h5.53998c1.09003-1.23004,2.69-2,4.46002-2,.34003,0,.67999.02997,1,.08997Z"/>
        <path d="M21.16162,22.43994c-.51953.18945-.79004.7627-.60205,1.27686l1.37445,3.7832h2.12964l-1.62323-4.45752c-.18604-.50391-.7749-.78613-1.27881-.60254Z"/>
        <path d="M18.67999,24.39996c-.57001-1.54999.23999-3.26996,1.79999-3.83997,1.50488-.54718,3.29236.28162,3.84003,1.78998.00208.00574,1.87,5.15002,1.87,5.15002h1.31c.53998,0,1.08002.14996,1.54999.42999l4.28003,2.57001h3.31l-5.73999-18.95001c-.40002-1.22998-1.55005-2.04999-2.84003-2.04999h-10.56c-1.65002,0-3,1.34998-3,3v15h5.31l-1.13-3.10004Z"/>
        <rect x="46.5" y="24.5" width="8" height="4"/>
        <path d="M54.5,17.5c0-.55225-.44775-1-1-1h-6c-.55225,0-1,.44775-1,1v5h8v-5Z"/>
      </g>
    </g>
  </g>
</svg>