<?xml version="1.0" encoding="utf-8"?>
<!-- Generator: Adobe Illustrator 28.3.0, SVG Export Plug-In . SVG Version: 6.00 Build 0)  -->
<svg version="1.1" id="Glyph" xmlns="http://www.w3.org/2000/svg" xmlns:xlink="http://www.w3.org/1999/xlink" x="0px" y="0px"
	 viewBox="0 0 48 48" enable-background="new 0 0 48 48" xml:space="preserve">
<g>
	<circle cx="32" cy="35" r="2"/>
	<path d="M42,26h-5v-2h2c0.55225,0,1-0.44775,1-1s-0.44775-1-1-1h-2v-2h5c0.55225,0,1-0.44775,1-1s-0.44775-1-1-1h-5v-2h2
		c0.55225,0,1-0.44775,1-1s-0.44775-1-1-1h-2v-2h3c0.55225,0,1-0.44775,1-1s-0.44775-1-1-1h-3c0-2.75684-2.24316-5-5-5
		s-5,2.24316-5,5v18.75977C25.1123,30.27441,24,32.56934,24,35c0,4.41113,3.58887,8,8,8s8-3.58887,8-8
		c0-2.43066-1.1123-4.72559-3-6.24023V28h5c0.55225,0,1-0.44727,1-1S42.55225,26,42,26z M32,39c-2.20557,0-4-1.79395-4-4
		c0-1.8587,1.27972-3.41083,3-3.85797V10c0-0.55225,0.44775-1,1-1s1,0.44775,1,1v21.14203C34.72028,31.58917,36,33.1413,36,35
		C36,37.20605,34.20557,39,32,39z"/>
	<path d="M22.41113,15H24c0.55225,0,1-0.44775,1-1s-0.44775-1-1-1h-1.58789l1.29248-1.29248
		c0.39062-0.39062,0.39062-1.02344,0-1.41406s-1.02344-0.39062-1.41406,0L19.58398,13H17v-2.58594l2.70703-2.70703
		c0.39062-0.39062,0.39062-1.02344,0-1.41406s-1.02344-0.39062-1.41406,0L17,7.58594V6c0-0.55225-0.44775-1-1-1s-1,0.44775-1,1
		v1.58594l-1.29297-1.29297c-0.39062-0.39062-1.02344-0.39062-1.41406,0s-0.39062,1.02344,0,1.41406L15,10.41406V13h-2.58398
		l-2.70947-2.70947c-0.39062-0.39062-1.02344-0.39062-1.41406,0s-0.39062,1.02344,0,1.41406L9.58789,13H8c-0.55225,0-1,0.44775-1,1
		s0.44775,1,1,1h1.58301l-1.29053,1.29053c-0.39062,0.39062-0.39062,1.02344,0.00005,1.41411
		c0.38716,0.38711,1.02685,0.38713,1.41402-0.00005C9.70656,17.70457,12.41113,15,12.41113,15H15v2.58154l-2.70996,2.70996
		c-0.39062,0.39062-0.39062,1.02344,0,1.41406s1.02344,0.39062,1.41406,0L15,20.40967V22c0,0.55225,0.44775,1,1,1s1-0.44775,1-1
		v-1.58447c0,0,1.28644,1.28644,1.29003,1.29003c0.38492,0.38492,1.03124,0.38284,1.41407,0.00001
		c0.39062-0.39062,0.39062-1.02344,0-1.41406L17,17.5874V15h2.58301c0,0,2.70752,2.70752,2.70756,2.70756
		c0.38696,0.38692,1.02748,0.38651,1.41403-0.00004c0.39062-0.39062,0.39062-1.02344,0-1.41406L22.41113,15z"/>
</g>
</svg>
