<?xml version="1.0" encoding="UTF-8"?>
<svg xmlns="http://www.w3.org/2000/svg" version="1.1" viewBox="0 0 64 64">
  <!-- Generator: Adobe Illustrator 28.7.1, SVG Export Plug-In . SVG Version: 1.2.0 Build 142)  -->
  <g>
    <g id="Glyph">
      <g>
        <path d="M55.55469,7.16797c-.46045-.30762-1.08057-.18213-1.38672.27734l-2,3c-.10938.16406-.16797.35742-.16797.55469v2.05902c-4.49298.49951-8,4.31696-8,8.94098,0,2.75684,2.24316,5,5,5h1v9.5c0,1.37842-1.12158,2.5-2.5,2.5s-2.5-1.12158-2.5-2.5v-1c0-1.92969-1.57031-3.5-3.5-3.5s-3.5,1.57031-3.5,3.5c0,1.37842-1.12158,2.5-2.5,2.5h-.5v-20c0-1.6543-1.3457-3-3-3H14c-1.6543,0-3,1.3457-3,3v29h24v-7h.5c2.48145,0,4.5-2.01855,4.5-4.5,0-.82715.67285-1.5,1.5-1.5s1.5.67285,1.5,1.5v1c0,2.48145,2.01855,4.5,4.5,4.5s4.5-2.01855,4.5-4.5v-9.5h1c.55225,0,1-.44775,1-1v-14.69727l1.83203-2.74805c.30615-.45947.18213-1.08057-.27734-1.38672ZM31,32c0,.55225-.44775,1-1,1h-14c-.55225,0-1-.44775-1-1v-12c0-.55225.44775-1,1-1h14c.55225,0,1,.44775,1,1v12Z"/>
        <rect x="17" y="21" width="12" height="10"/>
        <rect x="11" y="49" width="24" height="2"/>
        <rect x="8" y="53" width="30" height="4" rx="1" ry="1"/>
      </g>
    </g>
  </g>
</svg>