<?xml version="1.0" encoding="utf-8"?>
<!-- Generator: Adobe Illustrator 27.3.1, SVG Export Plug-In . SVG Version: 6.00 Build 0)  -->
<svg version="1.1" id="Glyph" xmlns="http://www.w3.org/2000/svg" xmlns:xlink="http://www.w3.org/1999/xlink" x="0px" y="0px"
	 viewBox="0 0 48 48" enable-background="new 0 0 48 48" xml:space="preserve">
<g>
	<circle cx="9" cy="9" r="3"/>
	<path d="M38.97656,16.49316C38.99219,16.33008,39,16.16504,39,16c0-2.75684-2.24316-5-5-5
		c-0.41406,0-0.82324,0.05078-1.21973,0.15039C31.94238,7.61133,28.75098,5,25,5c-3.68555,0-6.85449,2.52051-7.73926,6.00488
		C17.1748,11.00195,17.08789,11,17,11c-3.85938,0-7,3.14062-7,7c0,0.33691,0.02441,0.6709,0.07227,1H10
		c-1.32324,0-2.57812,0.51758-3.54199,1.46777C5.51758,21.42188,5,22.67676,5,24c0,2.75684,2.24316,5,5,5h26.5
		c1.73828,0,3.37109-0.67578,4.59668-1.90332C42.32422,25.87109,43,24.23828,43,22.5
		C43,19.82617,41.38574,17.47559,38.97656,16.49316z M28,14c-0.55273,0-1-0.44727-1-1c0-1.10254-0.89746-2-2-2s-2,0.89746-2,2
		c0,0.55273-0.44727,1-1,1s-1-0.44727-1-1c0-2.20605,1.79395-4,4-4s4,1.79395,4,4C29,13.55273,28.55273,14,28,14z"/>
	<path d="M39.29297,36.29297l-2,2c-0.39061,0.39061-0.39062,1.02338-0.00005,1.41401
		c0.37149,0.37154,1.02781,0.38636,1.41412,0.00005l2-2c0.39062-0.39062,0.39062-1.02344,0-1.41406
		S39.68359,35.90234,39.29297,36.29297z"/>
	<path d="M37.70703,34.70703l2-2c0.39062-0.39062,0.39062-1.02344,0-1.41406s-1.02344-0.39062-1.41406,0l-2,2
		c-0.39062,0.39062-0.39062,1.02342-0.00002,1.41405C36.67924,35.09332,37.32138,35.09268,37.70703,34.70703z"/>
	<path d="M33.29297,39.29297l-2,2c-0.39062,0.39062-0.39062,1.02343,0,1.41406c0.37571,0.37571,1.02262,0.39145,1.41407,0l2-2
		c0.39062-0.39062,0.39062-1.02344,0-1.41406S33.68359,38.90234,33.29297,39.29297z"/>
	<path d="M24.29297,31.29297l-2,2c-0.39062,0.39062-0.39062,1.02344,0.00001,1.41407c0.38601,0.386,1.02803,0.38601,1.41405-0.00001
		c0.00006-0.00006,2-2,2-2c0.39062-0.39062,0.39062-1.02344,0-1.41406S24.68359,30.90234,24.29297,31.29297z"/>
	<path d="M10.29297,31.29297l-2,2c-0.39062,0.39062-0.39062,1.02343,0,1.41406c0.37579,0.37579,1.02252,0.39154,1.41406,0l2-2
		c0.39062-0.39062,0.39062-1.02344,0-1.41406S10.68359,30.90234,10.29297,31.29297z"/>
	<path d="M16.29297,39.29297l-2,2c-0.39062,0.39062-0.39062,1.02342-0.00001,1.41405
		c0.38641,0.38643,1.02814,0.38595,1.41408,0.00002l2-2c0.39062-0.39062,0.39062-1.02344,0-1.41406
		S16.68359,38.90234,16.29297,39.29297z"/>
	<circle cx="8" cy="40" r="3"/>
	<circle cx="16" cy="35" r="3"/>
	<circle cx="23" cy="40" r="3"/>
	<circle cx="31" cy="35" r="3"/>
</g>
</svg>
