<?xml version="1.0" encoding="utf-8"?>
<!-- Generator: Adobe Illustrator 27.3.1, SVG Export Plug-In . SVG Version: 6.00 Build 0)  -->
<svg version="1.1" id="Glyph" xmlns="http://www.w3.org/2000/svg" xmlns:xlink="http://www.w3.org/1999/xlink" x="0px" y="0px"
	 viewBox="0 0 48 48" enable-background="new 0 0 48 48" xml:space="preserve">
<g>
	<path d="M17.61328,12.9375L11.22559,24l6.3877,11.0625h12.77344L36.77441,24l-6.3877-11.0625H17.61328z M29.76855,23.04004
		c0,0-7.98929,9.58724-7.99999,9.60009c-0.29634,0.35561-0.81104,0.45958-1.22169,0.25148
		c-0.41504-0.21094-0.62988-0.68164-0.5166-1.13428l1.78809-7.15283c0,0-3.18307-1.27332-3.18944-1.27588
		c-0.52777-0.21113-0.7768-0.83748-0.53419-1.35303l3-6.3999C21.25879,15.22412,21.6123,15,22,15c0,0,5.98241,0,5.99996,0
		c0.77182,0,1.25934,0.87386,0.84769,1.52979l-2.36621,3.78564c0,0,2.87621,1.15039,2.8896,1.15574
		C29.99077,21.71904,30.19538,22.52785,29.76855,23.04004z"/>
	<path d="M24,5C13.52344,5,5,13.52344,5,24s8.52344,19,19,19s19-8.52344,19-19S34.47656,5,24,5z M31.83008,36.5625
		c-0.17871,0.30957-0.50879,0.5-0.86621,0.5H17.03613c-0.35742,0-0.6875-0.19043-0.86621-0.5L9.20508,24.5
		c-0.17871-0.30957-0.17871-0.69043,0-1l6.96484-12.0625c0.17871-0.30957,0.50879-0.5,0.86621-0.5h13.92773
		c0.35742,0,0.6875,0.19043,0.86621,0.5L38.79492,23.5c0.17871,0.30957,0.17871,0.69043,0,1L31.83008,36.5625z"/>
	<path d="M24.0498,21.11035c-0.09277-0.28174-0.05469-0.58936,0.10254-0.84033L26.19531,17h-3.55957l-2.28027,4.86475
		l3.01562,1.20654c0.46484,0.18604,0.7207,0.68604,0.59863,1.17139l-0.93945,3.75879l4.32031-5.18408l-2.72168-1.08936
		C24.35352,21.61816,24.1416,21.39209,24.0498,21.11035z"/>
</g>
</svg>
