<?xml version="1.0" encoding="utf-8"?>
<!-- Generator: Adobe Illustrator 27.3.1, SVG Export Plug-In . SVG Version: 6.00 Build 0)  -->
<svg version="1.1" id="Glyph" xmlns="http://www.w3.org/2000/svg" xmlns:xlink="http://www.w3.org/1999/xlink" x="0px" y="0px"
	 viewBox="0 0 48 48" enable-background="new 0 0 48 48" xml:space="preserve">
<g>
	<path d="M41,35H7c-1.10254,0-2,0.89697-2,2v4c0,1.10303,0.89746,2,2,2h34c1.10254,0,2-0.89697,2-2v-4
		C43,35.89697,42.10254,35,41,35z"/>
	<circle cx="35" cy="13" r="1"/>
	<path d="M29,15.48535V18c0,0.55225,0.44727,1,1,1h2.51465c0,0,1.77832,1.77832,1.77838,1.77832
		c0.3869,0.3869,1.0274,0.3866,1.414,0L37.48535,19H40c0.55273,0,1-0.44775,1-1v-2.51465l1.77832-1.77832
		c0.39062-0.39062,0.39062-1.02344,0-1.41406L41,10.51465V8c0-0.55225-0.44727-1-1-1h-2.51465l-1.77832-1.77832
		c-0.39062-0.39062-1.02344-0.39062-1.41406,0L32.51465,7H30c-0.55273,0-1,0.44775-1,1v2.51465l-1.77832,1.77832
		c-0.39062,0.39062-0.39062,1.02344,0,1.41406L29,15.48535z M35,10c1.6543,0,3,1.3457,3,3s-1.3457,3-3,3s-3-1.3457-3-3
		S33.3457,10,35,10z"/>
	<path d="M38.66406,24.74756c0.41309-0.36719,0.4502-0.99902,0.08301-1.41211s-0.99902-0.44922-1.41113-0.08301l-1.5,1.3335
		c-0.59375,0.52783-0.93457,1.28613-0.93457,2.08105c0,0.79443,0.34082,1.55273,0.93457,2.08057
		c0.22852,0.20361,0.2627,0.4541,0.2627,0.58545c0,0.13184-0.03418,0.38232-0.2627,0.58594l-1.5,1.3335
		c-0.41309,0.36719-0.4502,0.99902-0.08301,1.41211c0.3476,0.39105,1.00262,0.44623,1.41113,0.08301
		c0.00104-0.00092,1.5-1.3335,1.5-1.3335c0.59375-0.52783,0.93457-1.28613,0.93457-2.08105
		c0-0.79443-0.34082-1.55273-0.93457-2.08057c-0.22852-0.20361-0.2627-0.4541-0.2627-0.58545
		c0-0.13184,0.03418-0.38232,0.2627-0.58594L38.66406,24.74756z"/>
	<path d="M33.66406,24.74756c0.41309-0.36719,0.4502-0.99902,0.08301-1.41211s-0.99902-0.44922-1.41113-0.08301l-1.5,1.3335
		c-0.59375,0.52783-0.93457,1.28613-0.93457,2.08105c0,0.79443,0.34082,1.55273,0.93457,2.08057
		c0.22852,0.20361,0.2627,0.4541,0.2627,0.58545c0,0.13184-0.03418,0.38232-0.2627,0.58594l-1.5,1.3335
		c-0.41309,0.36719-0.4502,0.99902-0.08301,1.41211c0.34546,0.38867,1.00446,0.44452,1.41113,0.08301
		c0.00171-0.00153,1.5-1.3335,1.5-1.3335c0.59375-0.52783,0.93457-1.28613,0.93457-2.08105
		c0-0.79443-0.34082-1.55273-0.93457-2.08057c-0.22852-0.20361-0.2627-0.4541-0.2627-0.58545
		c0-0.13184,0.03418-0.38232,0.2627-0.58594L33.66406,24.74756z"/>
	<path d="M25.66406,32.74756c0.00201-0.00177,1.5-1.3335,1.5-1.3335c0.59375-0.52783,0.93457-1.28613,0.93457-2.08105
		c0-0.79443-0.34082-1.55273-0.93457-2.08057c-0.22852-0.20361-0.2627-0.4541-0.2627-0.58545
		c0-0.13184,0.03418-0.38232,0.2627-0.58594l1.5-1.3335c0.41309-0.36719,0.4502-0.99902,0.08301-1.41211
		s-0.99902-0.44922-1.41113-0.08301l-1.5,1.3335c-0.59375,0.52783-0.93457,1.28613-0.93457,2.08105
		c0,0.79443,0.34082,1.55273,0.93457,2.08057c0.22852,0.20361,0.2627,0.4541,0.2627,0.58545
		c0,0.13184-0.03418,0.38232-0.2627,0.58594l-1.5,1.3335c-0.41309,0.36719-0.4502,0.99896-0.08301,1.41205
		C24.59906,33.05396,25.25665,33.10968,25.66406,32.74756z"/>
	<path d="M20.66406,32.74756l1.5-1.3335c0.59375-0.52783,0.93457-1.28613,0.93457-2.08105
		c0-0.79443-0.34082-1.55273-0.93457-2.08057c-0.22852-0.20361-0.2627-0.4541-0.2627-0.58545
		c0-0.13184,0.03418-0.38232,0.2627-0.58594l1.5-1.3335c0.41309-0.36719,0.4502-0.99902,0.08301-1.41211
		c-0.36621-0.41309-1-0.44922-1.41113-0.08301l-1.5,1.3335c-0.59375,0.52783-0.93457,1.28613-0.93457,2.08105
		c0,0.79443,0.34082,1.55273,0.93457,2.08057c0.22852,0.20361,0.2627,0.4541,0.2627,0.58545
		c0,0.13184-0.03418,0.38232-0.2627,0.58594l-1.5,1.3335c-0.41309,0.36719-0.4502,0.99896-0.08301,1.41205
		C19.60559,33.06134,20.24957,33.1153,20.66406,32.74756z"/>
	<path d="M15.66406,32.74756l1.5-1.3335c0.59375-0.52783,0.93457-1.28613,0.93457-2.08105
		c0-0.79443-0.34082-1.55273-0.93457-2.08057c-0.22852-0.20361-0.2627-0.4541-0.2627-0.58545
		c0-0.13184,0.03418-0.38232,0.2627-0.58594l1.5-1.3335c0.41309-0.36719,0.4502-0.99902,0.08301-1.41211s-1-0.44922-1.41113-0.08301
		l-1.5,1.3335c-0.59375,0.52783-0.93457,1.28613-0.93457,2.08105c0,0.79443,0.34082,1.55273,0.93457,2.08057
		c0.22852,0.20361,0.2627,0.4541,0.2627,0.58545c0,0.13184-0.03418,0.38232-0.2627,0.58594l-1.5,1.3335
		c-0.41309,0.36719-0.4502,0.99902-0.08301,1.41211C14.61505,33.07239,15.25641,33.10986,15.66406,32.74756z"/>
	<path d="M10.66406,32.74756l1.5-1.3335c0.59375-0.52783,0.93457-1.28613,0.93457-2.08105
		c0-0.79443-0.34082-1.55273-0.93457-2.08057c-0.22852-0.20361-0.2627-0.4541-0.2627-0.58545
		c0-0.13184,0.03418-0.38232,0.2627-0.58594l1.5-1.3335c0.41309-0.36719,0.4502-0.99902,0.08301-1.41211
		s-0.99902-0.44922-1.41113-0.08301l-1.5,1.3335c-0.59375,0.52783-0.93457,1.28613-0.93457,2.08105
		c0,0.79443,0.34082,1.55273,0.93457,2.08057c0.22852,0.20361,0.2627,0.4541,0.2627,0.58545
		c0,0.13184-0.03418,0.38232-0.2627,0.58594l-1.5,1.3335c-0.41309,0.36719-0.4502,0.99896-0.08307,1.41205
		C9.60394,33.05945,10.25293,33.1123,10.66406,32.74756z"/>
</g>
</svg>
