<?xml version="1.0" encoding="utf-8"?>
<!-- Generator: Adobe Illustrator 27.3.1, SVG Export Plug-In . SVG Version: 6.00 Build 0)  -->
<svg version="1.1" id="Glyph" xmlns="http://www.w3.org/2000/svg" xmlns:xlink="http://www.w3.org/1999/xlink" x="0px" y="0px"
	 viewBox="0 0 64 64" enable-background="new 0 0 64 64" xml:space="preserve">
<g>
	<path d="M20,37.25C20,43.72852,25.3833,49,32,49c6.61719,0,12-5.27148,12-11.75c0-7.29883-9.28125-18.58594-12-21.73633
		C29.28125,18.66406,20,29.95117,20,37.25z M36.0918,23.34863c0.23535,0.27344,0.30469,0.65332,0.18066,0.99316l-2.10742,5.7959
		c0,0,3.70374-0.46204,3.71094-0.46289c0.8418-0.10504,1.43115,0.86951,0.94336,1.56543c0,0-9.29126,13.27264-9.33337,13.33276
		c-0.57996,0.82849-1.94574,0.30676-1.81067-0.70483l1.15479-8.65918c0,0-2.659,0.44324-2.66553,0.44434
		c-0.71088,0.11847-1.3241-0.56885-1.12598-1.26074l2.6665-9.33398c0.10254-0.36035,0.39795-0.63281,0.76514-0.70605l6.6665-1.33301
		C35.49023,22.94922,35.85547,23.07422,36.0918,23.34863z"/>
	<path d="M29.83545,33.01367c0.62274-0.1037,1.2431,0.46289,1.15576,1.11816c0,0.00006-0.79102,5.93359-0.79102,5.93359
		l5.68945-8.12695l-3.09912,0.38672c-0.34814,0.03711-0.68945-0.09668-0.90576-0.36914
		c-0.21729-0.27148-0.27686-0.6377-0.1582-0.96484l2.05859-5.66211l-4.32471,0.86523L27.396,33.41992
		C27.396,33.41992,29.83453,33.01379,29.83545,33.01367z"/>
	<path d="M56.04199,28.00098c-1.33887-0.05566-2.05859-0.98242-2.28613-1.83008c-0.22656-0.84863-0.06738-2.01074,1.06445-2.72852
		c0.45215-0.28711,0.59766-0.88086,0.33008-1.34473l-3-5.19531c-0.26758-0.46484-0.85156-0.63672-1.33008-0.38574
		c-1.18848,0.62207-2.27246,0.17676-2.89355-0.44336c-0.62109-0.62109-1.06348-1.70703-0.44336-2.89355
		c0.24902-0.47559,0.07812-1.06152-0.38574-1.33008l-5.19531-3c-0.46387-0.26758-1.05664-0.12109-1.34473,0.33008
		c-0.7168,1.12988-1.87891,1.28809-2.72852,1.06445c-0.84766-0.22754-1.77441-0.94727-1.83008-2.28613
		C35.97656,7.42285,35.53613,7,35,7h-6c-0.53613,0-0.97705,0.42285-0.99902,0.95801
		c-0.05566,1.33887-0.98193,2.05859-1.83008,2.28613c-0.84912,0.22559-2.01123,0.06641-2.72852-1.06445
		c-0.28711-0.45117-0.87891-0.59766-1.34424-0.33008l-5.19629,3c-0.46436,0.26855-0.63477,0.85449-0.38623,1.33008
		c0.62109,1.18555,0.17871,2.27246-0.44189,2.89355c-0.62158,0.62109-1.7085,1.06348-2.89502,0.44336
		c-0.47656-0.25098-1.06152-0.0791-1.32959,0.38574l-3,5.19531c-0.26807,0.46387-0.12207,1.05762,0.33057,1.34473
		c1.13135,0.7168,1.2915,1.87988,1.06396,2.72754c-0.22705,0.84863-0.94678,1.77539-2.28516,1.83105
		C7.42285,28.02344,7,28.46387,7,29v6c0,0.53613,0.42285,0.97656,0.9585,0.99902c1.33838,0.05566,2.05811,0.98242,2.28516,1.83105
		c0.22754,0.84766,0.06738,2.01074-1.06396,2.72754c-0.45264,0.28711-0.59863,0.88086-0.33057,1.34473l3,5.19531
		c0.26807,0.46484,0.85303,0.63672,1.32959,0.38574c1.18799-0.62012,2.27344-0.17773,2.89502,0.44336
		c0.62061,0.62109,1.06299,1.70801,0.44189,2.89355c-0.24854,0.47559-0.07813,1.06152,0.38623,1.33008l5.19629,3
		c0.46533,0.26953,1.05713,0.12207,1.34424-0.33008c0.71729-1.13086,1.87988-1.29004,2.72852-1.06445
		c0.84814,0.22754,1.77441,0.94727,1.83008,2.28613C28.02295,56.57715,28.46387,57,29,57h6
		c0.53613,0,0.97656-0.42285,0.99902-0.95801c0.05566-1.33887,0.98242-2.05859,1.83008-2.28613
		c0.84863-0.22559,2.01074-0.06738,2.72852,1.06445c0.28809,0.45215,0.88086,0.59961,1.34473,0.33008l5.19531-3
		c0.46387-0.26855,0.63477-0.85449,0.38574-1.33008c-0.62012-1.18652-0.17773-2.27246,0.44336-2.89355
		s1.70508-1.06543,2.89355-0.44336c0.47852,0.25098,1.0625,0.0791,1.33008-0.38574l3-5.19531
		c0.26758-0.46387,0.12207-1.05762-0.33008-1.34473c-1.13184-0.71777-1.29102-1.87988-1.06445-2.72852
		c0.22754-0.84766,0.94727-1.77441,2.28613-1.83008C56.57715,35.97656,57,35.53613,57,35v-6
		C57,28.46387,56.57715,28.02344,56.04199,28.00098z M32,51c-7.71973,0-14-6.16797-14-13.75
		c0-9.28125,12.71973-23.33008,13.26123-23.92383c0.37891-0.41602,1.09863-0.41602,1.47754,0
		C33.28027,13.91992,46,27.96875,46,37.25C46,44.83203,39.71973,51,32,51z"/>
</g>
</svg>
