<?xml version="1.0" encoding="UTF-8"?>
<svg xmlns="http://www.w3.org/2000/svg" version="1.1" viewBox="0 0 64 64">
  <!-- Generator: Adobe Illustrator 28.7.1, SVG Export Plug-In . SVG Version: 1.2.0 Build 142)  -->
  <g>
    <g id="Glyph">
      <g>
        <path d="M39,30h-8c-1.10254,0-2,.89697-2,2s.89746,2,2,2h8c1.10254,0,2-.89697,2-2s-.89746-2-2-2Z"/>
        <path d="M31,53c0,2.20996,1.78998,4,4,4s4-1.79004,4-4v-17h-8v17Z"/>
        <path d="M55,30h-8c-1.10254,0-2,.89697-2,2s.89746,2,2,2h8c1.10254,0,2-.89697,2-2s-.89746-2-2-2Z"/>
        <path d="M47,53c0,2.20996,1.78998,4,4,4s4-1.79004,4-4v-17h-8v17Z"/>
        <path d="M53.90997,28c-1.00995-11.75-10.89996-21-22.90997-21h-1c-12.67999,0-23,10.32001-23,23v1c0,5.48004,4.82197,9,10,9,4.96002,0,9-4.04004,9-9v-3c0-1.65002,1.34998-3,3-3s3,1.34998,3,3h6c0-4.96002-4.03998-9-9-9s-9,4.03998-9,9v3c0,1.64996-1.34998,3-3,3h-1c-1.65002,0-3-1.35004-3-3v-1c0-9.37,7.63-17,17-17h1c8.69,0,15.89001,6.56,16.88,15h6.02997Z"/>
      </g>
    </g>
  </g>
</svg>