<?xml version="1.0" encoding="UTF-8"?>
<svg xmlns="http://www.w3.org/2000/svg" version="1.1" viewBox="0 0 48 48">
  <!-- Generator: Adobe Illustrator 28.7.1, SVG Export Plug-In . SVG Version: 1.2.0 Build 142)  -->
  <g>
    <g id="Glyph">
      <g>
        <path d="M16.09333,35h3.1517c-.45356-3.05896-2.94483-5.47943-6.09327-5.9201v3.06207c1.43991.36365,2.56734,1.45923,2.94157,2.85803Z"/>
        <ellipse cx="12.12251" cy="36" rx="2.0585" ry="2"/>
        <path d="M8.1517,37h-3.1517c.45356,3.05896,2.94483,5.47943,6.09327,5.9201v-3.06207c-1.43991-.36365-2.56734-1.45923-2.94157-2.85803Z"/>
        <path d="M11.09327,32.14197v-3.06207c-3.14843.44067-5.6397,2.86115-6.09327,5.9201h3.1517c.37422-1.3988,1.50166-2.49438,2.94157-2.85803Z"/>
        <path d="M16.09333,37c-.37422,1.3988-1.50166,2.49438-2.94157,2.85803v3.06207c3.14843-.44067,5.6397-2.86115,6.09327-5.9201h-3.1517Z"/>
        <path d="M41.97075,16c.56846,0,1.02925-.44775,1.02925-1v-1c0-1.10461-.92164-2-2.0585-2h-2.0585c-1.13686,0-2.0585.89539-2.0585,2v1c0,.55225.46079,1,1.02925,1h1.02925v4h-20.58499v-4h1.02925c.56846,0,1.02925-.44775,1.02925-1v-1c0-1.10461-.92164-2-2.0585-2h-2.0585c-1.13686,0-2.0585.89539-2.0585,2v1c0,.55225.46079,1,1.02925,1h1.02925v4h-1.02925c-.56846,0-1.02925.44769-1.02925,1v1c0,.55225.46079,1,1.02925,1h26.76049c.56846,0,1.02925-.44775,1.02925-1v-1c0-.55231-.46079-1-1.02925-1h-1.02925v-4h1.02925Z"/>
        <path d="M34.766,9c0-2.20917-1.84321-4-4.117-4h-1.02925v13h5.14625v-9Z"/>
        <path d="M30.75191,25l.23677,2h-4.79634l.23677-2h-6.1961l-.64843,5.67999c1.13215,1.48999,1.80119,3.33002,1.80119,5.32001,0,2.57996-1.12191,4.89996-2.91279,6.54999.02061.03998.05145.08002.08236.12.19556.21002.48372.33002.77194.33002h4.117c.52493,0,.9675-.38,1.01895-.89001l.36028-3.10999h7.53405l.36028,3.10999c.05145.51001.49402.89001,1.01895.89001h4.117c.28822,0,.57638-.12.77194-.33002.18526-.21002.28822-.5.24701-.77997l-1.92469-16.89001h-6.1961ZM25.96593,29h5.24915l.33967,3h-5.92849l.33967-3ZM25.04989,37l.34997-3h6.3813l.34997,3h-7.08124Z"/>
        <path d="M27.56126,5h-1.02925c-2.27378,0-4.117,1.79083-4.117,4v9h5.14625V5Z"/>
      </g>
    </g>
  </g>
</svg>