<?xml version="1.0" encoding="utf-8"?>
<!-- Generator: Adobe Illustrator 27.3.1, SVG Export Plug-In . SVG Version: 6.00 Build 0)  -->
<svg version="1.1" id="Glyph" xmlns="http://www.w3.org/2000/svg" xmlns:xlink="http://www.w3.org/1999/xlink" x="0px" y="0px"
	 viewBox="0 0 48 48" enable-background="new 0 0 48 48" xml:space="preserve">
<g>
	<circle cx="18" cy="35" r="2"/>
	<path d="M23,28.76025V10c0-2.75684-2.24316-5-5-5s-5,2.24316-5,5v18.76025C11.1123,30.27441,10,32.56934,10,35
		c0,4.41113,3.58887,8,8,8s8-3.58887,8-8C26,32.56934,24.8877,30.27441,23,28.76025z M18,39c-2.20557,0-4-1.79443-4-4
		c0-1.85828,1.27972-3.41071,3-3.85797V12c0-0.55225,0.44775-1,1-1s1,0.44775,1,1v19.14203c1.72028,0.44727,3,1.99969,3,3.85797
		C22,37.20557,20.20557,39,18,39z"/>
	<path d="M6,11h4c0.55225,0,1-0.44775,1-1s-0.44775-1-1-1H6c-0.55225,0-1,0.44775-1,1S5.44775,11,6,11z"/>
	<path d="M10,13H8c-0.55225,0-1,0.44775-1,1s0.44775,1,1,1h2c0.55225,0,1-0.44775,1-1S10.55225,13,10,13z"/>
	<path d="M11,18c0-0.55225-0.44775-1-1-1H6c-0.55225,0-1,0.44775-1,1s0.44775,1,1,1h4C10.55225,19,11,18.55225,11,18z"/>
	<path d="M11,22c0-0.55225-0.44775-1-1-1H8c-0.55225,0-1,0.44775-1,1s0.44775,1,1,1h2C10.55225,23,11,22.55225,11,22z"/>
	<path d="M42,13h-1.58594l1.29297-1.29297c0.39062-0.39062,0.39062-1.02344,0-1.41406s-1.02344-0.39062-1.41406,0L37.58594,13
		h-0.7702C36.51367,12.15283,35.84717,11.48633,35,11.18427v-0.7702l2.70703-2.70703c0.39062-0.39062,0.39062-1.02344,0-1.41406
		s-1.02344-0.39062-1.41406,0L35,7.58594V6c0-0.55225-0.44775-1-1-1s-1,0.44775-1,1v1.58594l-1.29297-1.29297
		c-0.39062-0.39062-1.02344-0.39062-1.41406,0s-0.39062,1.02344,0,1.41406L33,10.41406v0.7702
		C32.15283,11.48633,31.48633,12.15283,31.18427,13h-0.7702l-2.70703-2.70703c-0.39062-0.39062-1.02344-0.39062-1.41406,0
		s-0.39062,1.02344,0,1.41406L27.58594,13H26c-0.55225,0-1,0.44775-1,1s0.44775,1,1,1h1.58594l-1.29297,1.29297
		c-0.39056,0.39056-0.39062,1.02325-0.00018,1.41388c0.36627,0.36646,1.0246,0.38983,1.41425,0.00018L30.41406,15h0.77026
		c0.30206,0.84717,0.96851,1.51361,1.81567,1.81567v0.77026l-2.70703,2.70703c-0.39062,0.39062-0.39062,1.02344,0,1.41406
		s1.02344,0.39062,1.41406,0L33,20.41406V22c0,0.55225,0.44775,1,1,1s1-0.44775,1-1v-1.58594c0,0,1.29089,1.29083,1.29297,1.29297
		c0.36987,0.36981,1.02161,0.3924,1.41406,0c0.39062-0.39062,0.39062-1.02344,0-1.41406L35,17.58594v-0.7702
		c0.84717-0.30206,1.51367-0.96857,1.81573-1.81573h0.7702c0,0,2.6944,2.69434,2.70697,2.70697
		c0.36658,0.36658,1.02289,0.3913,1.41412,0.00006c0.39062-0.39062,0.39062-1.02344,0-1.41406L40.41406,15H42
		c0.55225,0,1-0.44775,1-1S42.55225,13,42,13z M34,15c-0.55127,0-1-0.44873-1-1s0.44873-1,1-1s1,0.44873,1,1S34.55127,15,34,15z"/>
</g>
</svg>
