<?xml version="1.0" encoding="UTF-8"?>
<svg xmlns="http://www.w3.org/2000/svg" version="1.1" viewBox="0 0 64 64">
  <!-- Generator: Adobe Illustrator 28.7.1, SVG Export Plug-In . SVG Version: 1.2.0 Build 142)  -->
  <g>
    <g id="Glyph">
      <g>
        <path d="M29,24c-.84766,0-1.60156.53613-1.87402,1.3335-.1582.46191-.62598.74023-1.1084.66309-1.12012.00342-2.01758.90039-2.01758,2.00342,0,.22314.04102.44141.12695.66846.11523.30713.07227.65137-.11426.9209s-.49414.43066-.82227.43066c-.05078,0-.19727-.01416-.24805-.02148-1.04492.00146-1.94238.89844-1.94238,2.00146s.89746,2,2,2c.02734-.01123.1123-.02002.19043-.02002.32812,0,.63574.16113.82227.43066s.22949.61377.11426.9209c-.08594.22705-.12695.44531-.12695.66846,0,1.10303.89746,2,2,2,.05371-.00879.1084-.01318.16211-.01318.4248,0,.82324.26953.96387.67969.27246.79736,1.02637,1.3335,1.87402,1.3335,1.10254,0,2-.89697,2-2v-12c0-1.10303-.89746-2-2-2Z"/>
        <path d="M41,30c-.02734.01123-.1123.02002-.19043.02002-.32812,0-.63574-.16113-.82227-.43066s-.22949-.61377-.11426-.9209c.08594-.22705.12695-.44531.12695-.66846,0-1.10303-.89746-2-2-2-.47949.07764-.96777-.20459-1.12598-.6665-.27246-.79736-1.02637-1.3335-1.87402-1.3335-1.10254,0-2,.89697-2,2v12c0,1.10303.89746,2,2,2,.84766,0,1.60156-.53613,1.87402-1.3335.1582-.4624.62402-.74023,1.1084-.66309,1.12012-.00342,2.01758-.90039,2.01758-2.00342,0-.22314-.04102-.44141-.12695-.66846-.11523-.30713-.07227-.65137.11426-.9209s.49414-.43066.82227-.43066c.05078,0,.19727.01416.24805.02148,1.04492-.00146,1.94238-.89844,1.94238-2.00146s-.89746-2-2-2Z"/>
        <path d="M52,25c1.6543,0,3-1.3457,3-3v-1.18427c1.1615-.41412,2-1.51379,2-2.81573,0-1.6543-1.3457-3-3-3s-3,1.3457-3,3c0,1.30194.8385,2.40155,2,2.81567v1.18433c0,.55127-.44824,1-1,1h-3v-5c0-1.6543-1.3457-3-3-3v-3c0-.55127.44824-1,1-1h4.18433c.41412,1.1615,1.51373,2,2.81567,2,1.6543,0,3-1.3457,3-3s-1.3457-3-3-3c-1.30194,0-2.40161.8385-2.81573,2h-4.18427c-1.6543,0-3,1.3457-3,3v3h-4v-5c0-.55225-.44727-1-1-1s-1,.44775-1,1v5h-5v-2.18427c1.1615-.41412,2-1.51379,2-2.81573,0-1.6543-1.3457-3-3-3s-3,1.3457-3,3c0,1.30194.8385,2.40155,2,2.81567v2.18433h-5v-5c0-.55225-.44727-1-1-1s-1,.44775-1,1v5h-4v-3c0-1.6543-1.3457-3-3-3h-4.18427c-.41412-1.1615-1.51379-2-2.81573-2-1.6543,0-3,1.3457-3,3s1.3457,3,3,3c1.30194,0,2.40161-.8385,2.81573-2h4.18427c.55176,0,1,.44873,1,1v3c-1.6543,0-3,1.3457-3,3v5h-3c-.55176,0-1-.44873-1-1v-1.18427c1.1615-.41412,2-1.51379,2-2.81573,0-1.6543-1.3457-3-3-3s-3,1.3457-3,3c0,1.30194.8385,2.40155,2,2.81567v1.18433c0,1.6543,1.3457,3,3,3h3v2h-5c-.55273,0-1,.44775-1,1s.44727,1,1,1h5v2h-5c-.55273,0-1,.44775-1,1s.44727,1,1,1h5v2h-5c-.55273,0-1,.44775-1,1s.44727,1,1,1h5v2h-3c-1.6543,0-3,1.3457-3,3v1.18427c-1.1615.41412-2,1.51379-2,2.81573,0,1.6543,1.3457,3,3,3s3-1.3457,3-3c0-1.30194-.8385-2.40161-2-2.81573v-1.18427c0-.55127.44824-1,1-1h3v5c0,1.6543,1.3457,3,3,3v3c0,.55127-.44824,1-1,1h-4.18427c-.41412-1.1615-1.51379-2-2.81573-2-1.6543,0-3,1.3457-3,3s1.3457,3,3,3c1.30194,0,2.40161-.8385,2.81573-2h4.18427c1.6543,0,3-1.3457,3-3v-3h4v5c0,.55225.44727,1,1,1s1-.44775,1-1v-5h5v2.18427c-1.1615.41412-2,1.51379-2,2.81573,0,1.6543,1.3457,3,3,3s3-1.3457,3-3c0-1.30194-.8385-2.40161-2-2.81573v-2.18427h5v5c0,.55225.44727,1,1,1s1-.44775,1-1v-5h4v3c0,1.6543,1.3457,3,3,3h4.18433c.41412,1.1615,1.51373,2,2.81567,2,1.6543,0,3-1.3457,3-3s-1.3457-3-3-3c-1.30194,0-2.40161.8385-2.81573,2h-4.18427c-.55176,0-1-.44873-1-1v-3c1.6543,0,3-1.3457,3-3v-5h3c.55176,0,1,.44873,1,1v1.18427c-1.1615.41412-2,1.51379-2,2.81573,0,1.6543,1.3457,3,3,3s3-1.3457,3-3c0-1.30194-.8385-2.40161-2-2.81573v-1.18427c0-1.6543-1.3457-3-3-3h-3v-2h5c.55273,0,1-.44775,1-1s-.44727-1-1-1h-5v-2h5c.55273,0,1-.44775,1-1s-.44727-1-1-1h-5v-2h5c.55273,0,1-.44775,1-1s-.44727-1-1-1h-5v-2h3ZM41.99805,35.87402c.00098.04199.00195.08398.00195.12598,0,2.0459-1.54395,3.73828-3.52832,3.97217-.69434,1.23633-2.01367,2.02783-3.47168,2.02783-1.2005,0-2.2663-.54236-3-1.3822-.7337.83984-1.7995,1.3822-3,1.3822-1.45801,0-2.77734-.7915-3.47168-2.02783-1.98438-.23389-3.52832-1.92627-3.52832-3.97217,0-.04199.00098-.08398.00195-.12598-1.72461-.44434-3.00195-2.0127-3.00195-3.87402s1.27734-3.42969,3.00195-3.87402c-.00098-.04199-.00195-.08398-.00195-.12598,0-2.0459,1.54395-3.73828,3.52832-3.97217.69434-1.23633,2.01367-2.02783,3.47168-2.02783,1.2005,0,2.2663.54236,3,1.3822.7337-.83984,1.7995-1.3822,3-1.3822,1.45801,0,2.77734.7915,3.47168,2.02783,1.98438.23389,3.52832,1.92627,3.52832,3.97217,0,.04199-.00098.08398-.00195.12598,1.72461.44434,3.00195,2.0127,3.00195,3.87402s-1.27734,3.42969-3.00195,3.87402Z"/>
      </g>
    </g>
  </g>
</svg>