<?xml version="1.0" encoding="UTF-8"?>
<svg xmlns="http://www.w3.org/2000/svg" version="1.1" viewBox="0 0 48 48">
  <!-- Generator: Adobe Illustrator 28.7.1, SVG Export Plug-In . SVG Version: 1.2.0 Build 142)  -->
  <g>
    <g id="Glyph">
      <g>
        <rect x="24.00005" y="24.5" width="4" height="4"/>
        <path d="M34.00005,25.5v2h7.60077c-.17963-.69385-.41846-1.36224-.7132-2h-6.88757Z"/>
        <path d="M13.00005,14.5h9v-4h-9c-1.10455,0-2,.89539-2,2,0,1.10455.89545,2,2,2Z"/>
        <path d="M28.00005,9.5c0-1.10461-.89545-2-2-2s-2,.89539-2,2v7h4v-7Z"/>
        <path d="M41.00005,12.5c0-1.10461-.89545-2-2-2h-9v4h9c1.10455,0,2-.89545,2-2Z"/>
        <path d="M40.50267,35.33246l-3.50262,1.16754h-3v-2h2.91797c1.4502,0,2.82715-.62891,3.77734-1.72461.79401-.91559,1.21674-2.0799,1.21655-3.27539h-8.91187c-.55225,0-1-.44727-1-1v-4c0-.55273.44775-1,1-1h6.71075c-2.20044-3.03668-5.76886-5-9.71075-5h-9c-1.6543,0-3,1.3457-3,3v1h-6.2793l-.77197-2.31641c-.13623-.4082-.51807-.68359-.94873-.68359h-4c-.33203,0-.64209.16504-.82812.43945s-.22363.62402-.10059.93164l1.85156,4.62891-1.85156,4.62891c-.12305.30762-.08545.65723.10059.93164s.49609.43945.82812.43945h4c.43066,0,.8125-.27539.94873-.68359l.77197-2.31641h6.2793v3c0,1.6543,1.3457,3,3,3h2v2h-6.10266c-1.04785,0-1.89734.84949-1.89734,1.89734v.20526c0,1.04791.84949,1.8974,1.89734,1.8974h20.10266l4.70264-1.56757c.77478-.25824,1.29736-.98334,1.29736-1.79999,0-1.29504-1.26874-2.20953-2.49738-1.79999ZM22.00005,29.5v-6c0-.55273.44775-1,1-1h6c.55225,0,1,.44727,1,1v6c0,.55273-.44775,1-1,1h-6c-.55225,0-1-.44727-1-1ZM32.00005,36.5h-7v-2h7v2Z"/>
      </g>
    </g>
  </g>
</svg>