<?xml version="1.0" encoding="UTF-8"?>
<svg xmlns="http://www.w3.org/2000/svg" version="1.1" viewBox="0 0 64 64">
  <!-- Generator: Adobe Illustrator 28.7.1, SVG Export Plug-In . SVG Version: 1.2.0 Build 142)  -->
  <g>
    <g id="Glyph">
      <g>
        <path d="M45.56625,45.45532c-.00336.00067-7.78003,1.64001-7.78003,1.64001-.04999.40997-.15002.82001-.28998,1.22003-.84003,2.41998-3.13,4.04999-5.71002,4.04999-.51001,0-1.02002-.07001-1.52002-.20001l-5.94-1.56c-.52997-.14001-.84998-.69-.70996-1.22003.13995-.52997.69-.85999,1.21997-.70996l5.94,1.56c.33002.08997.66998.13,1.01001.13,1.7149,0,3.42761-1.2077,3.86871-2.88751.38086-1.4502-.03998-3.1297-1.1687-4.14252-.39001-.34998-.84003-.62-1.35999-.79999l-7.11005-2.46997c-.85999-.29004-1.77997-.35004-2.66998-.17004l-4.78998,1c0,.01001,2.45996,11.75,2.45996,11.75.11005.5.14001,1.01001.09003,1.51001,2.81.59998,5.66998.91003,8.53998.91003,2.79999,0,5.60004-.29004,8.35004-.87006l9.00995-1.87994c.9151-.20117,1.69525-.77435,2.19519-1.52991.49927-.75452.71906-1.69092.51483-2.62018-.40448-1.84039-2.28339-3.10345-4.14996-2.70996Z"/>
        <path d="M16.60165,41.31061c-.33936-1.61865-1.93115-2.66064-3.55127-2.3208l-1.95752.41016c-1.61914.33887-2.66016,1.93213-2.3208,3.55127,0,0,2.45807,11.73328,2.46045,11.74463.32452,1.54895,1.98468,2.64722,3.55127,2.32129l1.95752-.41016c1.61914-.33887,2.66016-1.93213,2.3208-3.55127l-2.46045-11.74512Z"/>
        <path d="M34.06113,31.96393l5.7251,1.63574v-7.67432h-12v7.67432l5.7251-1.63574c.08984-.02588.18262-.03857.2749-.03857s.18506.0127.2749.03857Z"/>
        <path d="M20.78622,25.92536c-.54999,0-1,.45001-1,1v11.66998l3.15002-.65997c.47998-.09003.94995-.14001,1.42999-.14001.77997,0,1.54999.13,2.28998.38l7.13,2.46997c.75.26001,1.44.67004,2.03998,1.20001.94.84998,1.57001,1.98999,1.83002,3.22998,1.28998-.26996,7.5-1.57996,7.5-1.57996.35999-.07001.72998-.11005,1.09998-.11005.53003,0,1.04004.08002,1.53003.23004v-16.69c0-.54999-.45001-1-1-1h-5v9c0,.31396-.14746.60938-.39795.79834-.17529.13232-.38721.20166-.60205.20166-.0918,0-.18457-.0127-.2749-.03857l-6.7251-1.92139-6.7251,1.92139c-.30127.08691-.62646.02637-.87695-.16309-.25049-.18896-.39795-.48438-.39795-.79834v-9h-5Z"/>
        <path d="M54.29208,15.4195h-2.82812c-.55225,0-1,.44775-1,1s.44775,1,1,1h.41406l-3.96991,3.96991c-1.55219-1.41669-3.2923-2.58331-5.16797-3.46722l2.14392-5.1759.15851.38269c.20334.49094.81499.74459,1.30664.54102.51025-.21143.75244-.79639.54102-1.30664l-1.08252-2.61328c-.10156-.24512-.29639-.43945-.54102-.54102-.24512-.10156-.52051-.10156-.76562,0l-2.61279,1.08252c-.51025.21143-.75244.79639-.54102,1.30664s.79639.75098,1.30664.54102l.38251-.15845-2.14496,5.17828c-1.94153-.69611-3.99481-1.10687-6.10522-1.20581v-5.61383l.29297.29297c.37338.37338,1.02036.3937,1.41406,0,.39062-.39062.39062-1.02344,0-1.41406l-2-2c-.39062-.39062-1.02344-.39062-1.41406,0l-2,2c-.39062.39062-.39062,1.02344,0,1.41406s1.02344.39062,1.41406,0l.29297-.29297v5.61383c-2.11041.09894-4.1637.5097-6.10522,1.20581l-2.14496-5.17828.38251.15845c.51074.20947,1.09521-.03125,1.30664-.54102.21143-.51025-.03076-1.09521-.54102-1.30664l-2.61279-1.08252c-.24512-.10156-.52051-.10156-.76562,0-.24463.10156-.43945.2959-.54102.54102l-1.08252,2.61328c-.21142.51025.03076,1.0952.541,1.30663.48423.20065,1.09193-.02356,1.30666-.54101l.15851-.38269,2.14392,5.1759c-1.87567.88391-3.61578,2.05054-5.16797,3.46722l-3.96991-3.96991h.41406c.55225,0,1-.44775,1-1s-.44775-1-1-1h-2.82812c-.55225,0-1,.44775-1,1v2.82812c0,.55225.44775,1,1,1s1-.44775,1-1v-.41406l3.96875,3.96875c-.27472.30316-.54242.6145-.80127.93555-.34668.42969-.2793,1.05908.15088,1.40576.4292.34717,1.05957.2793,1.40576-.15088,2.02124-2.5069,4.59363-4.41541,7.4754-5.61401.01166-.00433.02374-.00232.03534-.00708.01404-.0058.02264-.01801.03625-.02435,2.26105-.92944,4.71106-1.42194,7.23474-1.42194,5.70749,0,11.20244,2.61987,14.78172,7.06736.33006.41012.97339.50093,1.40578.1509.43018-.34668.49756-.97607.15088-1.40576-.25885-.32104-.52655-.63239-.80127-.93555l3.96875-3.96875v.41406c0,.55225.44775,1,1,1s1-.44775,1-1v-2.82812c0-.55225-.44775-1-1-1Z"/>
      </g>
    </g>
  </g>
</svg>