<?xml version="1.0" encoding="UTF-8"?>
<svg id="Glyph" xmlns="http://www.w3.org/2000/svg" version="1.1" viewBox="0 0 48 48">
  <polygon points="29 34 30.03168 34 29 33.18939 29 34" fill="#000" stroke-width="0"/>
  <path d="M15,33c0,.55176.44873,1,1,1h11v-2h-11c-.55127,0-1,.44824-1,1Z" fill="#000" stroke-width="0"/>
  <path d="M28.17999,30h3.82001c1.65002,0,3,1.34998,3,3,0,.70001-.25,1.33997-.65002,1.84998l2.65002,2.08002v-18.92999H12.90997l15.27002,12ZM29.73999,21.28998l.37-.73999c.23999-.48999.85004-.69,1.34003-.44.48999.23999.69.84003.44,1.34003l-.35999.72998c-.19.37-.12006.82001.17999,1.10999.89996.91003,1.12,2.28003.54999,3.41998,0,0-.36938.73883-.37.74005-.24121.48236-.8595.69611-1.34003.44-.48999-.24005-.69-.84003-.44-1.34003l.35999-.72998c.19-.37.12006-.82001-.17999-1.11005-.89996-.90997-1.12-2.27997-.54999-3.41998Z" fill="#000" stroke-width="0"/>
  <path d="M33,33c0-.55176-.44824-1-1-1h-1.2771l2.04926,1.61017c.13483-.17047.22784-.37628.22784-.61017Z" fill="#000" stroke-width="0"/>
  <path d="M32,36h-16c-1.6543,0-3-1.3457-3-3s1.3457-3,3-3h8.94067l-13.94067-10.95325v18.95325h24.12268l-2.61127-2.0517c-.16699.02893-.3363.0517-.51141.0517Z" fill="#000" stroke-width="0"/>
  <path d="M40,9h-2.98999c0-2.21002-1.79004-4-4-4-2.20001,0-4,1.78998-4,4h2c0-1.10004.89996-2,2-2,1.10999,0,2,.89996,2,2h-4c0,1.09998.89996,2,2,2,.56,0,1,.45001,1,1s-.44,1-1,1c-2.20001,0-4-1.79004-4-4h-10.01001c0-2.21002-1.78998-4-4-4s-4,1.78998-4,4h2c0-1.10004.90002-2,2-2s2,.89996,2,2h-4c0,1.09998.90002,2,2,2,.54999,0,1,.45001,1,1s-.45001,1-1,1c-2.21002,0-4-1.79004-4-4h-3c-1.65002,0-3,1.34998-3,3v28c0,1.64996,1.34998,3,3,3h32c1.65002,0,3-1.35004,3-3V12c0-1.65002-1.34998-3-3-3ZM39,39c0,.53998-.42999.96997-.96002.98999.02002.01001.01001.01001-.02997.01001H10c-.54999,0-1-.45001-1-1v-22c0-.54999.45001-1,1-1h28c.54999,0,1,.45001,1,1v22Z" fill="#000" stroke-width="0"/>
</svg>