<?xml version="1.0" encoding="utf-8"?>
<!-- Generator: Adobe Illustrator 27.3.1, SVG Export Plug-In . SVG Version: 6.00 Build 0)  -->
<svg version="1.1" id="Glyph" xmlns="http://www.w3.org/2000/svg" xmlns:xlink="http://www.w3.org/1999/xlink" x="0px" y="0px"
	 viewBox="0 0 48 48" enable-background="new 0 0 48 48" xml:space="preserve">
<g>
	<polygon points="21.3877,37 26.61572,37 24.00049,29.16113 	"/>
	<circle cx="24" cy="24" r="1"/>
	<path d="M24,5C13.52344,5,5,13.52344,5,24s8.52344,19,19,19s19-8.52344,19-19S34.47656,5,24,5z M14.80762,34.60645
		c-0.38623,0.38623-1.02832,0.38574-1.41406,0C10.56445,31.77783,9.00635,28.01074,9.00635,24s1.55811-7.77783,4.38721-10.60645
		c0.39062-0.39062,1.02344-0.39062,1.41406,0s0.39062,1.02344,0,1.41406C12.35645,17.25879,11.00635,20.52344,11.00635,24
		s1.3501,6.74121,3.80127,9.19238C15.19824,33.58301,15.19824,34.21576,14.80762,34.60645z M17.63574,31.77832
		c-0.38635,0.38635-1.02814,0.38593-1.41406,0c-4.28857-4.28906-4.28857-11.26758,0-15.55664
		c0.39062-0.39062,1.02344-0.39062,1.41406,0c0.39062,0.39014,0.39062,1.02344,0,1.41406
		c-3.50879,3.50928-3.50879,9.21924,0,12.72852C18.02637,30.75488,18.02637,31.38818,17.63574,31.77832z M19.05029,19.05029
		c0.39062-0.39062,1.02344-0.39062,1.41406,0s0.39062,1.02344,0,1.41406c-1.94922,1.94971-1.94922,5.12158,0,7.07129
		c0.39062,0.39062,0.39062,1.02338,0,1.414c-0.37531,0.37537-1.02216,0.39197-1.41406,0.00006
		C16.3208,26.2207,16.3208,21.7793,19.05029,19.05029z M28.23535,38.16895C27.86035,38.68945,27.25391,39,26.61279,39h-5.22559
		c-0.64111,0-1.24756-0.31055-1.62256-0.83105c-0.375-0.52002-0.47705-1.19385-0.27441-1.80225l3.22278-9.66827
		C21.7038,26.21478,21,25.19189,21,24c0-1.6543,1.3457-3,3-3s3,1.3457,3,3c0,1.19189-0.7038,2.21484-1.71301,2.69849l3.22278,9.6687
		C28.7124,36.9751,28.61035,37.64893,28.23535,38.16895z M28.24268,29.23931c-0.25704-0.00001-0.51402-0.09659-0.70703-0.2896
		c-0.39062-0.39062-0.39062-1.02344,0-1.41406c1.94922-1.94971,1.94922-5.12158,0-7.07129
		c-0.39062-0.39062-0.39062-1.02344,0-1.41406s1.02344-0.39062,1.41406,0c2.72948,2.729,2.72949,7.17039,0.00002,9.89939
		C28.75656,29.14283,28.49959,29.23931,28.24268,29.23931z M31.07125,32.06575c-0.2558,0.00048-0.51301-0.09345-0.707-0.28743
		c-0.39062-0.39014-0.39062-1.02344,0-1.41406c3.50879-3.50928,3.50879-9.21924,0-12.72852
		c-0.39062-0.39062-0.39062-1.02393,0-1.41406c0.39062-0.39062,1.02344-0.39062,1.41406,0
		c4.28857,4.28906,4.28857,11.26756,0.00002,15.55662C31.58918,31.96748,31.33094,32.06527,31.07125,32.06575z M34.60645,34.60645
		c-0.37169,0.37158-1.02717,0.38689-1.41406,0c-0.39062-0.39062-0.39062-1.02344,0-1.41406
		c2.45117-2.45117,3.80127-5.71582,3.80127-9.19238s-1.3501-6.74121-3.80127-9.19238c-0.39062-0.39062-0.39062-1.02344,0-1.41406
		s1.02344-0.39062,1.41406,0c2.8291,2.82861,4.38721,6.5957,4.38721,10.60645
		C38.99365,28.01072,37.43557,31.77779,34.60645,34.60645z"/>
</g>
</svg>
