<?xml version="1.0" encoding="UTF-8"?>
<svg xmlns="http://www.w3.org/2000/svg" version="1.1" viewBox="0 0 64 64">
  <!-- Generator: Adobe Illustrator 28.7.1, SVG Export Plug-In . SVG Version: 1.2.0 Build 142)  -->
  <g>
    <g id="Glyph">
      <g>
        <path d="M32,39.33594c-1.75977,1.62451-4,4.18311-4,5.66406,0,2.20557,1.79395,4,4,4s4-1.79443,4-4c0-1.48389-2.23926-4.0415-4-5.66406Z"/>
        <path d="M32,33c-6.06543,0-11,4.93457-11,11s4.93457,11,11,11,11-4.93457,11-11-4.93457-11-11-11ZM32,51c-3.30859,0-6-2.69141-6-6,0-3.13379,4.80566-7.29834,5.35352-7.7627.37305-.31641.91992-.31641,1.29297,0,.54785.46436,5.35352,4.62891,5.35352,7.7627,0,3.30859-2.69141,6-6,6Z"/>
        <path d="M9,56c0,.55225.44727,1,1,1h6c.55273,0,1-.44775,1-1v-5h-8v5Z"/>
        <path d="M17.5,46h-9c-.82843,0-1.5.67157-1.5,1.5s.67157,1.5,1.5,1.5h9c.82843,0,1.5-.67157,1.5-1.5s-.67157-1.5-1.5-1.5Z"/>
        <path d="M9,29v15h8v-15h2v-8h-2c-4.41113,0-8,3.58887-8,8Z"/>
        <path d="M47,56c0,.55225.44727,1,1,1h6c.55273,0,1-.44775,1-1v-5h-8v5Z"/>
        <path d="M55.5,46h-9c-.82843,0-1.5.67157-1.5,1.5s.67157,1.5,1.5,1.5h9c.82843,0,1.5-.67157,1.5-1.5s-.67157-1.5-1.5-1.5Z"/>
        <path d="M47,44h8v-15c0-4.41113-3.58887-8-8-8h-2v8h2v15Z"/>
        <rect x="26" y="15" width="12" height="2"/>
        <path d="M42,17c-.55231,0-1,.44769-1,1v14c0,.55225.44769,1,1,1s1-.44775,1-1v-14c0-.55231-.44769-1-1-1Z"/>
        <path d="M22,33c.55231,0,1-.44775,1-1v-14c0-.55231-.44769-1-1-1s-1,.44769-1,1v14c0,.55225.44769,1,1,1Z"/>
        <rect x="29" y="11" width="6" height="2"/>
        <rect x="25" y="19" width="14" height="12"/>
        <path d="M26,9h12c.55231,0,1-.44775,1-1,0-.55231-.44769-1-1-1h-12c-.55231,0-1,.44769-1,1,0,.55225.44769,1,1,1Z"/>
      </g>
    </g>
  </g>
</svg>