<?xml version="1.0" encoding="UTF-8"?>
<svg xmlns="http://www.w3.org/2000/svg" version="1.1" viewBox="0 0 64 64">
  <!-- Generator: Adobe Illustrator 28.7.1, SVG Export Plug-In . SVG Version: 1.2.0 Build 142)  -->
  <g>
    <g id="Glyph">
      <g>
        <polygon points="25.09491 41 38.90509 41 38.6051 38 25.3949 38 25.09491 41"/>
        <rect x="25" y="19" width="14" height="2"/>
        <polygon points="26.8949 23 26.59491 26 37.40509 26 37.1051 23 26.8949 23"/>
        <path d="M53,20v-1h-8v1c0,1.6543,1.3457,3,3,3v11.18427c-1.1615.41412-2,1.51379-2,2.81573v1h6v-1c0-1.30194-.8385-2.40161-2-2.81573v-11.18427c1.6543,0,3-1.3457,3-3Z"/>
        <polygon points="24.59491 46 39.40509 46 39.1051 43 24.8949 43 24.59491 46"/>
        <polygon points="25.59491 36 38.40509 36 38.1051 33 25.8949 33 25.59491 36"/>
        <polygon points="26.09491 31 37.90509 31 37.6051 28 26.3949 28 26.09491 31"/>
        <path d="M34,11c0-1.10461-.89545-2-2-2s-2,.89539-2,2v1h4v-1Z"/>
        <path d="M9.29297,22.70703c.18756.18756.44202.29297.70728.29297h1.99976v21.18427c-1.1615.41412-2,1.51379-2,2.81573v4h6v-4c0-1.30194-.8385-2.40161-2-2.81573v-21.18427c1.10455,0,2-.89545,2-2v-12c0-1.10461-.89545-2-2-2h-4c-.26514,0-.51941.10529-.70685.29279l-2.00018,2.00018c-.18756.18756-.29297.44202-.29297.70728v9.99976c0,.26508.10535.51935.29279.70685l2.00018,2.00018Z"/>
        <rect x="7" y="53" width="50" height="4" rx="1" ry="1"/>
        <path d="M57,15.5c0-.82843-.67157-1.5-1.5-1.5H18v3h37.5c.82843,0,1.5-.67157,1.5-1.5Z"/>
        <rect x="44" y="45" width="10" height="6"/>
        <path d="M56,41.5c0-.82843-.67157-1.5-1.5-1.5h-11c-.82843,0-1.5.67157-1.5,1.5s.67157,1.5,1.5,1.5h11c.82843,0,1.5-.67157,1.5-1.5Z"/>
        <polygon points="24.09491 51 39.90509 51 39.6051 48 24.3949 48 24.09491 51"/>
      </g>
    </g>
  </g>
</svg>