<?xml version="1.0" encoding="UTF-8"?>
<svg xmlns="http://www.w3.org/2000/svg" version="1.1" viewBox="0 0 64 64">
  <!-- Generator: Adobe Illustrator 28.7.1, SVG Export Plug-In . SVG Version: 1.2.0 Build 142)  -->
  <g>
    <g id="Glyph">
      <g>
        <path d="M32,56.96359c5.21002,0,9-8.41003,9-20h-18c0,11.58997,3.78998,20,9,20Z"/>
        <path d="M42,30.96359h-20c-1.10303,0-2,.89697-2,2s.89697,2,2,2h20c1.10303,0,2-.89697,2-2s-.89697-2-2-2Z"/>
        <path d="M42.98999,25.12356l-.64001,3.85999c-.12-.00995-.22998-.01996-.34998-.01996h-20c-.12,0-.22998.01001-.34998.01996l-.64001-3.85999c-.04004-.28998.03998-.58002.22998-.81.19-.21997.47003-.34998.76001-.34998h20c.28998,0,.57001.13.76001.34998.19.22998.27002.52002.22998.81Z"/>
        <path d="M40.78003,21.96359c.13995-.64001.21997-1.31.21997-2,0-1.62-.83002-3.60999-2.54999-6.08002-.23004-.33002-.64001-.48999-1.04004-.40002-.38995.08002-.69995.40002-.76996.80005l-.07001.38995c-.16003.91003-.60999,1.73004-1.25,2.35004.15997-2.12-.21002-4.28003-1.08002-6.23004l-1.39996-3.15997c-.14001-.29999-.41003-.51001-.73004-.58002-.32001-.06-.64996.04004-.88.26001-1.38,1.33002-8.22998,8.16003-8.22998,12.65002,0,.69.08002,1.35999.21997,2h17.56006Z"/>
      </g>
    </g>
  </g>
</svg>