<?xml version="1.0" encoding="UTF-8"?>
<svg id="Glyph" xmlns="http://www.w3.org/2000/svg" version="1.1" viewBox="0 0 48 48">
  <rect x="15" y="17" width="18.00049" height="2" fill="#000" stroke-width="0"/>
  <path d="M36.02637,9.97168c-3.21777-3.20605-7.48828-4.97168-12.02637-4.97168-9.37402,0-17,7.62598-17,17v6c0,.29132.12872.54779.32721.73047.00653.00665.00745.01617.01459.02246l16,14c.18848.16504.42285.24707.6582.24707s.46973-.08203.6582-.24707l16-14c.00543-.00476.00189-.01208.00659-.01703.20264-.18292.33521-.44104.33521-.7359v-6c0-4.5376-1.76562-8.80859-4.97363-12.02832ZM9.04218,27.58301c.2052-1.45581,1.44629-2.58301,2.95782-2.58301,1.6543,0,3,1.3457,3,3,0,.17523.05695.33154.13599.47467,0,.00714-.00818.01434-.00415.02142l5.04596,8.83044-11.13562-9.74353ZM23,38.23462l-5.97723-10.46014c.11761-1.54749,1.40015-2.77448,2.97723-2.77448,1.6543,0,3,1.3457,3,3v10.23462ZM15,21c-1.10254,0-2-.89697-2-2v-2c0-1.10303.89746-2,2-2h18c1.10254,0,2,.89697,2,2v2c0,1.10303-.89746,2-2,2H15ZM25,28c0-1.6543,1.3457-3,3-3,1.57709,0,2.85962,1.22699,2.97723,2.77448l-5.97723,10.46014v-10.23462ZM27.8222,37.32654l5.04596-8.83044c.0166-.02899.01959-.04755.02954-.07141.06171-.12994.10229-.27118.10229-.42468,0-1.6543,1.3457-3,3-3,1.51154,0,2.75262,1.1272,2.95782,2.58301l-11.13562,9.74353Z" fill="#000" stroke-width="0"/>
</svg>