<?xml version="1.0" encoding="UTF-8"?>
<svg xmlns="http://www.w3.org/2000/svg" version="1.1" viewBox="0 0 64 64">
  <!-- Generator: Adobe Illustrator 28.7.1, SVG Export Plug-In . SVG Version: 1.2.0 Build 142)  -->
  <g>
    <g id="Glyph">
      <g>
        <path d="M25.00001,35h-4c-.52783,0-.96533.41064-.99805.9375l-1,16c-.01709.27539.08008.5459.26904.74707s.45312.31543.729.31543h6c.27588,0,.54004-.11426.729-.31543s.28613-.47168.26904-.74707l-1-16c-.03271-.52686-.47021-.9375-.99805-.9375Z"/>
        <path d="M35.00001,35h-4c-.52783,0-.96533.41064-.99805.9375l-1,16c-.01709.27539.08008.5459.26904.74707s.45312.31543.729.31543h6c.27588,0,.54004-.11426.729-.31543s.28613-.47168.26904-.74707l-1-16c-.03271-.52686-.47021-.9375-.99805-.9375Z"/>
        <path d="M45.00001,35h-4c-.52783,0-.96533.41064-.99805.9375l-1,16c-.01709.27539.08008.5459.26904.74707s.45312.31543.729.31543h6c.27588,0,.54004-.11426.729-.31543s.28613-.47168.26904-.74707l-1-16c-.03271-.52686-.47021-.9375-.99805-.9375Z"/>
        <path d="M55.99806,35.9375c-.03271-.52686-.47021-.9375-.99805-.9375h-4c-.52783,0-.96533.41064-.99805.9375l-1,16c-.01709.27539.08008.5459.26904.74707s.45312.31543.729.31543h6c.27588,0,.54004-.11426.729-.31543s.28613-.47168.26904-.74707l-1-16Z"/>
        <circle cx="14.00001" cy="18" r="1"/>
        <path d="M21.00001,30V14c0-1.65002-1.34998-3-3-3h-8c-1.65002,0-3,1.34998-3,3v16c0,1.64996,1.34998,3,3,3h8c1.65002,0,3-1.35004,3-3ZM14.00001,29c-1.65002,0-3-1.35004-3-3s1.34998-3,3-3,3,1.34998,3,3-1.34998,3-3,3ZM14.00001,21c-1.65002,0-3-1.35004-3-3s1.34998-3,3-3,3,1.34998,3,3-1.34998,3-3,3Z"/>
        <circle cx="14.00001" cy="26" r="1"/>
        <path d="M17.00001,51v-16h-6v16c-.54999,0-1,.45001-1,1s.45001,1,1,1h6c.54999,0,1-.45001,1-1s-.45001-1-1-1Z"/>
      </g>
    </g>
  </g>
</svg>