<?xml version="1.0" encoding="UTF-8"?>
<svg xmlns="http://www.w3.org/2000/svg" version="1.1" viewBox="0 0 64 64">
  <!-- Generator: Adobe Illustrator 28.7.1, SVG Export Plug-In . SVG Version: 1.2.0 Build 142)  -->
  <g>
    <g id="Glyph">
      <g>
        <path d="M7,41.72988v1.46002c0,5.84998,12.88,9,25,9s25-3.15002,25-9v-1.46002c-4.33002,4.41003-14.96002,6.46002-25,6.46002s-20.66998-2.04999-25-6.46002Z"/>
        <path d="M35.9996,36.16452c1.03344-.0049,2.06703-.39133,2.83042-1.14467l10.31-10.31-5.66003-5.65997s-10.29283,10.29283-10.30998,10.30998c-2.44281,2.44281-.61947,6.82101,2.82959,6.80466Z"/>
        <path d="M54.39001,21.5699c2.46222-2.01822,2.6841-5.90595.41-8.17996-2.25827-2.25818-6.16937-2.07269-8.18002.40994l-2.5,3.04999,7.22003,7.22003,3.04999-2.5Z"/>
        <path d="M19.38379,37.94039c.86914-.24561,1.65723-.6499,2.16113-1.10986.42188-.38477.46289-.63477.4541-.66846-.04492-.15674-.58398-.396-1.47266-.396-.4707,0-1.04004.06738-1.68555.25049-1.86328.52686-2.68359,1.53906-2.61523,1.77881.06738.23975,1.29688.67383,3.1582.14502Z"/>
        <circle cx="27" cy="40.1899" r="1"/>
        <path d="M32,46.1899c12.12,0,25-3.15002,25-9,0-3.35999-4.26001-5.84003-10.19-7.33002l-6.57,6.57c-2.29469,2.29469-6.1965,2.30372-8.47998,0-1.14001-1.13-1.76001-2.64001-1.76001-4.23999,0-1.48999.53998-2.90002,1.53998-4-11.97998.07996-24.53998,3.21997-24.53998,9,0,5.84998,12.88,9,25,9ZM32.03027,40.94722c.13281-.53564.6748-.86572,1.21191-.72754l.50195.12549c1.94922.48682,4.02832.12793,5.70117-.9873.46094-.30811,1.08105-.18213,1.38672.27734.30664.45947.18262,1.08057-.27734,1.38672-1.51465,1.00977-3.28906,1.53564-5.08203,1.53564-.74023,0-1.4834-.08984-2.21289-.27197l-.50195-.12549c-.53613-.13379-.8623-.67676-.72754-1.21289ZM27,37.1899c1.6543,0,3,1.3457,3,3s-1.3457,3-3,3-3-1.3457-3-3,1.3457-3,3-3ZM18.2959,34.09175c2.74216-.77392,5.16108-.12013,5.62696,1.5254.63479,2.24243-2.28355,3.76451-3.99423,4.24806-1.70034.4806-4.99527.71499-5.62784-1.5259-.46484-1.64648,1.25293-3.47217,3.99512-4.24756Z"/>
      </g>
    </g>
  </g>
</svg>