<?xml version="1.0" encoding="UTF-8"?>
<svg xmlns="http://www.w3.org/2000/svg" version="1.1" viewBox="0 0 64 64">
  <!-- Generator: Adobe Illustrator 28.7.1, SVG Export Plug-In . SVG Version: 1.2.0 Build 142)  -->
  <g>
    <g id="Glyph">
      <g>
        <path d="M32,16c-8.82227,0-16,7.17773-16,16s7.17773,16,16,16,16-7.17773,16-16-7.17773-16-16-16ZM18.37695,28.77051c1.49365-6.3418,7.09619-10.77051,13.62305-10.77051s12.12939,4.42871,13.62305,10.77051c.12695.53809-.20605,1.07617-.74366,1.20313-.53094.12097-1.07708-.21141-1.20263-.74414-1.28027-5.43457-6.08203-9.22949-11.67676-9.22949s-10.39648,3.79492-11.67676,9.22949c-.12695.53711-.66846.86523-1.20264.74414-.5376-.12695-.87061-.66504-.74365-1.20312ZM45.62305,35.22949c-1.49365,6.3418-7.09619,10.77051-13.62305,10.77051s-12.12939-4.42871-13.62305-10.77051c-.12695-.53809.20605-1.07617.74365-1.20312.53418-.12109,1.07568.20703,1.20264.74414,1.28027,5.43457,6.08203,9.22949,11.67676,9.22949s10.39648-3.79492,11.67676-9.22949c.12646-.53711.66504-.86523,1.20264-.74414.5376.12695.87061.66504.74365,1.20312Z"/>
        <path d="M56,27h-2.58002c-.54999-2.35999-1.46997-4.58002-2.72998-6.60999l1.82001-1.82001c.39001-.39001.39001-1.03003,0-1.42004l-5.66003-5.65997c-.38995-.39001-1.02997-.39001-1.41998,0l-1.82001,1.82001c-2.02997-1.26001-4.25-2.17999-6.60999-2.73004v-2.57996c0-.54999-.45001-1-1-1h-8c-.54999,0-1,.45001-1,1v2.57996c-2.35999.55005-4.58002,1.47003-6.60999,2.73004l-1.82001-1.82001c-.39001-.39001-1.03003-.39001-1.41998,0l-5.66003,5.65997c-.39001.39001-.39001,1.03003,0,1.42004l1.82001,1.82001c-1.26001,2.02997-2.17999,4.25-2.72998,6.60999h-2.58002c-.54999,0-1,.45001-1,1v8c0,.54999.45001,1,1,1h2.58002c.54999,2.35999,1.46997,4.57996,2.72998,6.60999l-1.82001,1.82001c-.39001.39001-.39001,1.02997,0,1.41998l5.66003,5.66003c.38995.38995,1.02997.38995,1.41998,0l1.82001-1.82001c2.02997,1.26001,4.25,2.17999,6.60999,2.72998v2.58002c0,.54999.45001,1,1,1h8c.54999,0,1-.45001,1-1v-2.58002c1.46002-.34998,2.88-.83002,4.21997-1.45001-.13995-.63-.21997-1.28998-.21997-1.96997,0-.93469.1441-1.83649.41016-2.685-2.74225,1.69135-5.95856,2.685-9.41016,2.685-9.92529,0-18-8.0752-18-18s8.07471-18,18-18,18,8.0752,18,18c0,3.45154-.99365,6.66785-2.68506,9.41016.84851-.26605,1.75031-.41016,2.68506-.41016.67999,0,1.34003.07996,1.96997.21997.62006-1.33997,1.10004-2.76001,1.45001-4.21997h2.58002c.54999,0,1-.45001,1-1v-8c0-.54999-.45001-1-1-1Z"/>
        <path d="M50,43c-3.85974,0-7,3.14026-7,7s3.14026,7,7,7,7-3.14026,7-7-3.14026-7-7-7ZM53.70703,48.70703l-4,4c-.19531.19531-.45117.29297-.70703.29297s-.51172-.09766-.70703-.29297l-2-2c-.39062-.39062-.39062-1.02344,0-1.41406s1.02344-.39062,1.41406,0l1.29297,1.29297,3.29297-3.29297c.39062-.39062,1.02344-.39062,1.41406,0s.39062,1.02344,0,1.41406Z"/>
      </g>
    </g>
  </g>
</svg>