<?xml version="1.0" encoding="utf-8"?>
<!-- Generator: Adobe Illustrator 27.3.1, SVG Export Plug-In . SVG Version: 6.00 Build 0)  -->
<svg version="1.1" id="Glyph" xmlns="http://www.w3.org/2000/svg" xmlns:xlink="http://www.w3.org/1999/xlink" x="0px" y="0px"
	 viewBox="0 0 48 48" enable-background="new 0 0 48 48" xml:space="preserve">
<g>
	<path d="M27.53564,21.87891l-1.41455-1.41455l-1.41406,1.41406c-0.39062,0.39062-1.02344,0.39062-1.41406,0l-1.41406-1.41406
		l-1.41455,1.41455l1.41406,1.41406c0.39062,0.39062,0.39062,1.02344,0,1.41406l-1.41406,1.41406l1.41455,1.41406l1.41406-1.41406
		c0.19531-0.19531,0.45117-0.29297,0.70703-0.29297s0.51172,0.09766,0.70703,0.29297l1.41406,1.41406l1.41455-1.41406
		l-1.41406-1.41406c-0.39062-0.39062-0.39062-1.02344,0-1.41406L27.53564,21.87891z"/>
	<path d="M19.57764,16.33936L15.15479,24l4.42285,7.66016h8.84473L32.84521,24l-4.42285-7.66064H19.57764z M29.65674,22.58594
		L28.24268,24c0,0,1.41339,1.41339,1.41406,1.41406c0.38599,0.38599,0.38641,1.02765,0,1.41406c0,0-2.82587,2.82538-2.82861,2.82812
		c-0.37524,0.37512-1.02252,0.39154-1.41406,0L24,28.24219l-1.41406,1.41406c-0.39062,0.39062-1.02344,0.39062-1.41406,0
		c0,0-2.82471-2.82422-2.82861-2.82812c-0.38635-0.38629-0.38593-1.02814,0-1.41406L19.75732,24l-1.41406-1.41406
		c-0.39062-0.39062-0.39062-1.02344,0-1.41406l2.82861-2.82861c0.39062-0.39062,1.02344-0.39062,1.41406,0L24,19.75732
		l1.41406-1.41406c0.39062-0.39062,1.02344-0.39062,1.41406,0l2.82861,2.82861
		C30.04736,21.5625,30.04736,22.19531,29.65674,22.58594z"/>
	<path d="M38.94934,23h4C42.44189,13.32263,34.67737,5.55811,25,5.05066v4C32.47247,9.54712,38.45288,15.52753,38.94934,23z"/>
	<path d="M23,9.05066v-4C13.32263,5.55811,5.55811,13.32263,5.05066,23h4C9.54712,15.52753,15.52753,9.54712,23,9.05066z"/>
	<path d="M25,38.94934v4C34.67737,42.44189,42.44189,34.67737,42.94934,25h-4C38.45288,32.47284,32.47247,38.45288,25,38.94934z"/>
	<path d="M9.05066,25h-4C5.55811,34.67737,13.32263,42.44189,23,42.94934v-4C15.52753,38.45288,9.54712,32.47284,9.05066,25z"/>
	<path d="M37,24c0-7.16846-5.83154-13-13-13s-13,5.83154-13,13c0,7.16797,5.83154,13,13,13S37,31.16797,37,24z M28.99951,33.66016
		h-9.99902c-0.35742,0-0.6875-0.19043-0.86621-0.5L13.13379,24.5c-0.17822-0.30957-0.17822-0.69043,0-1l5.00049-8.66064
		c0.17871-0.30957,0.50879-0.5,0.86621-0.5h9.99902c0.35742,0,0.6875,0.19043,0.86621,0.5L34.86621,23.5
		c0.17822,0.30957,0.17822,0.69043,0,1l-5.00049,8.66016C29.68701,33.46973,29.35693,33.66016,28.99951,33.66016z"/>
</g>
</svg>
