<?xml version="1.0" encoding="UTF-8"?>
<svg id="Glyph" xmlns="http://www.w3.org/2000/svg" version="1.1" viewBox="0 0 64 64">
  <path d="M12,26.41406v7.58594c0,1.6543,1.3457,3,3,3h3v1h28v-1h3c1.6543,0,3-1.3457,3-3v-7.58594l1.70703-1.70703c.1875-.1875.29297-.44189.29297-.70703v-2c0-.55225-.44775-1-1-1s-1,.44775-1,1v1.58594l-1,1-1-1v-1.58594c0-.55225-.44775-1-1-1s-1,.44775-1,1v2c0,.26514.10547.51953.29297.70703l1.70703,1.70703v7.58594c0,.55127-.44873,1-1,1h-3v-1c0-1.10461-.89545-2-2-2h-24c-1.10455,0-2,.89539-2,2v1h-3c-.55127,0-1-.44873-1-1v-7.58594l1.70703-1.70703c.1875-.1875.29297-.44189.29297-.70703v-2c0-.55225-.44775-1-1-1s-1,.44775-1,1v1.58594l-1,1-1-1v-1.58594c0-.55225-.44775-1-1-1s-1,.44775-1,1v2c0,.26514.10547.51953.29297.70703l1.70703,1.70703ZM37,34h2c.55225,0,1,.44775,1,1s-.44775,1-1,1h-2c-.55225,0-1-.44775-1-1s.44775-1,1-1ZM31,34h2c.55225,0,1,.44775,1,1s-.44775,1-1,1h-2c-.55225,0-1-.44775-1-1s.44775-1,1-1ZM25,34h2c.55225,0,1,.44775,1,1s-.44775,1-1,1h-2c-.55225,0-1-.44775-1-1s.44775-1,1-1Z" fill="#000" stroke-width="0"/>
  <path d="M20,22.81567v-7.63141c-1.1615.41412-2,1.51379-2,2.81573v2c0,1.30194.8385,2.40155,2,2.81567Z" fill="#000" stroke-width="0"/>
  <circle cx="14" cy="46" r="1" fill="#000" stroke-width="0"/>
  <path d="M39,12h-14c-1.65002,0-3,1.34998-3,3v8c0,1.64996,1.34998,3,3,3h14c1.65002,0,3-1.35004,3-3v-8c0-1.65002-1.34998-3-3-3ZM29,18h-2c-.54999,0-1-.45001-1-1s.45001-1,1-1h2c.54999,0,1,.45001,1,1s-.45001,1-1,1ZM33,22h-2c-.54999,0-1-.45001-1-1s.45001-1,1-1h2c.54999,0,1,.45001,1,1s-.45001,1-1,1ZM37,18h-2c-.54999,0-1-.45001-1-1s.45001-1,1-1h2c.54999,0,1,.45001,1,1s-.45001,1-1,1Z" fill="#000" stroke-width="0"/>
  <circle cx="23" cy="46" r="1" fill="#000" stroke-width="0"/>
  <rect x="26" y="28" width="12" height="2" fill="#000" stroke-width="0"/>
  <path d="M46,20v-2c0-1.30194-.8385-2.40161-2-2.81573v7.63147c1.1615-.41412,2-1.51379,2-2.81573Z" fill="#000" stroke-width="0"/>
  <path d="M51,40H13c-3.30859,0-6,2.69141-6,6s2.69141,6,6,6h38c3.30859,0,6-2.69141,6-6s-2.69141-6-6-6ZM14,49c-1.6543,0-3-1.3457-3-3s1.3457-3,3-3,3,1.3457,3,3-1.3457,3-3,3ZM23,49c-1.6543,0-3-1.3457-3-3s1.3457-3,3-3,3,1.3457,3,3-1.3457,3-3,3ZM32,49c-1.6543,0-3-1.3457-3-3s1.3457-3,3-3,3,1.3457,3,3-1.3457,3-3,3ZM41,49c-1.6543,0-3-1.3457-3-3s1.3457-3,3-3,3,1.3457,3,3-1.3457,3-3,3ZM50,49c-1.6543,0-3-1.3457-3-3s1.3457-3,3-3,3,1.3457,3,3-1.3457,3-3,3Z" fill="#000" stroke-width="0"/>
  <circle cx="50" cy="46" r="1" fill="#000" stroke-width="0"/>
  <circle cx="32" cy="46" r="1" fill="#000" stroke-width="0"/>
  <circle cx="41" cy="46" r="1" fill="#000" stroke-width="0"/>
</svg>