<?xml version="1.0" encoding="UTF-8"?>
<svg xmlns="http://www.w3.org/2000/svg" version="1.1" viewBox="0 0 48 48">
  <!-- Generator: Adobe Illustrator 28.7.1, SVG Export Plug-In . SVG Version: 1.2.0 Build 142)  -->
  <g>
    <g id="Glyph">
      <g>
        <path d="M12.93905,23.7523l7.50911-7.50911-3.6596-1.21989c-.35994-.11998-.74991-.02996-1.01984.24002l-4.23948,4.23948c-.77994.77988-.77994,2.04974,0,2.82962l1.4098,1.41987Z"/>
        <path d="M31.7568,27.55183l-7.50911,7.50911,1.41981,1.4098c.38997.38997.89992.58996,1.40987.58996.5199,0,1.02984-.19999,1.41981-.58996l4.23948-4.23948c.26999-.26999.35994-.65989.23996-1.0199l-1.21982-3.65954Z"/>
        <path d="M22.13796,14.56339l4.67943-4.68944-1.53979-.50995c-.36-.11998-.75992-.02002-1.02991.23996l-2.81967,2.82968c-.39442.39442-.39418,1.02557-.00006,1.41975l.71.71Z"/>
        <path d="M38.12603,21.1826l-4.67943,4.68944.69993.69993c.39393.39387,1.02612.39229,1.41981,0,.00348-.00348,2.82968-2.81967,2.82968-2.81967.25992-.26999.35994-.66996.23996-1.02991l-.50995-1.53979Z"/>
        <path d="M42.92417,5.99026c-.04003-.48725-.42719-.87441-.91444-.91444-.57055-.04705-4.70641-.33968-7.48714.66179l7.7398,7.7398c1.00153-2.78086.70884-6.91696.66179-7.48714Z"/>
        <polygon points="24.25203 32.23218 38.39254 18.09141 34.15178 13.85065 34.15031 13.84967 34.14934 13.84821 29.90857 9.60744 15.76781 23.74797 24.25203 32.23218"/>
        <polygon points="36.2714 13.14248 39.80638 16.67746 41.22027 15.26357 41.22051 15.26332 37.68554 11.72834 36.2714 13.14248"/>
        <path d="M14.18213,25.33347c-.78091.78097-.78091,2.04718,0,2.82809l5.6563,5.65625c.78091.78097,2.04712.78097,2.82803,0l.17173-.17167-8.48433-8.48434-.17173.17167Z"/>
        <path d="M10.5257,36.23177v.24265c0,.55218.4477.99988.99988.99988h.24265c2.4272,0,4.72496-.81466,6.59851-2.30032l-5.54072-5.54072c-1.48566,1.87356-2.30032,4.17132-2.30032,6.59852Z"/>
        <polygon points="36.27164 10.31445 32.73667 6.77947 32.73642 6.77972 31.32253 8.19361 34.85751 11.72859 36.27164 10.31445"/>
        <circle cx="21.99796" cy="40.00036" r="2.99964"/>
        <circle cx="14.9988" cy="40.00036" r=".99988"/>
        <circle cx="7.99964" cy="34.00107" r=".99988"/>
        <circle cx="7.99964" cy="26.00203" r="2.99964"/>
      </g>
    </g>
  </g>
</svg>