<?xml version="1.0" encoding="utf-8"?>
<!-- Generator: Adobe Illustrator 28.3.0, SVG Export Plug-In . SVG Version: 6.00 Build 0)  -->
<svg version="1.1" id="Glyph" xmlns="http://www.w3.org/2000/svg" xmlns:xlink="http://www.w3.org/1999/xlink" x="0px" y="0px"
	 viewBox="0 0 48 48" enable-background="new 0 0 48 48" xml:space="preserve">
<g>
	<path d="M24.94238,22.12305C24.77734,19.52344,24.32422,17.96289,24,17.29297c-0.32422,0.66992-0.77734,2.23047-0.94238,4.83008
		c-0.03223,0.50195-0.43262,0.90234-0.93457,0.93457C19.52344,23.22266,17.96289,23.67578,17.29297,24
		c0.66992,0.32422,2.23047,0.77734,4.83008,0.94238c0.50195,0.03223,0.90234,0.43262,0.93457,0.93457
		c0.16504,2.59961,0.61816,4.16016,0.94238,4.83008c0.32422-0.66992,0.77734-2.23047,0.94238-4.83008
		c0.03223-0.50195,0.43262-0.90234,0.93457-0.93457c2.59961-0.16504,4.16016-0.61816,4.83008-0.94238
		c-0.66992-0.32422-2.23047-0.77734-4.83008-0.94238C25.375,23.02539,24.97461,22.625,24.94238,22.12305z"/>
	<path d="M24,13c-6.06543,0-11,4.93457-11,11s4.93457,11,11,11s11-4.93457,11-11S30.06543,13,24,13z M28.29297,18.29297
		c0,0,0.99664-0.99664,1-1c0.37933-0.37939,1.05194-0.36218,1.41406,0c0.39062,0.39062,0.39062,1.02344,0,1.41406l-1,1
		c-0.39062,0.39062-1.02344,0.39062-1.41406,0S27.90234,18.68359,28.29297,18.29297z M17.29297,17.29297
		c0.39062-0.39062,1.02344-0.39062,1.41406,0l1,1c0.39062,0.39062,0.39062,1.02344,0,1.41406s-1.02344,0.39062-1.41406,0
		c0,0-0.99664-0.99664-1-1C16.91364,18.32764,16.93079,17.65509,17.29297,17.29297z M19.70703,29.70703c0,0-0.99664,0.99664-1,1
		c-0.37933,0.37933-1.05194,0.36212-1.41406,0c-0.39062-0.39062-0.39062-1.02344,0-1.41406l1-1
		c0.39062-0.39062,1.02344-0.39062,1.41406,0S20.09766,29.31641,19.70703,29.70703z M30.70703,30.70703
		c-0.39062,0.39062-1.02344,0.39062-1.41406,0l-1-1c-0.39062-0.39062-0.39062-1.02344,0-1.41406s1.02344-0.39062,1.41406,0
		c0,0,0.99664,0.99664,1,1C31.08636,29.6723,31.06921,30.34485,30.70703,30.70703z M33,24
		c0,1.94434-3.51758,2.62988-6.12891,2.87109C26.62988,29.48242,25.94434,33,24,33s-2.62988-3.51758-2.87109-6.12891
		C18.51758,26.62988,15,25.94434,15,24s3.51758-2.62988,6.12891-2.87109C21.37012,18.51758,22.05566,15,24,15
		s2.62988,3.51758,2.87109,6.12891C29.48242,21.37012,33,22.05566,33,24z"/>
	<path d="M40,23h2.94934c-0.23511-4.48395-2.02356-8.5528-4.84723-11.68793l-2.0813,2.0813
		c-0.39087,0.39087-1.02338,0.39087-1.41418,0c-0.39087-0.39081-0.39087-1.02338,0-1.41418l2.0813-2.0813
		C33.5528,7.07422,29.48389,5.28577,25,5.05066V8c0,0.55273-0.44727,1-1,1s-1-0.44727-1-1V5.05066
		c-4.48389,0.23511-8.5528,2.02356-11.68793,4.84723l2.0813,2.0813c0.39087,0.39081,0.39087,1.02338,0,1.41418
		c-0.39081,0.39087-1.02332,0.39087-1.41418,0l-2.0813-2.0813C7.07422,14.4472,5.28577,18.51605,5.05066,23H8
		c0.55273,0,1,0.44727,1,1s-0.44727,1-1,1H5.05066c0.23511,4.48389,2.02356,8.5528,4.84723,11.68793l2.0813-2.08136
		c0.39087-0.39081,1.02338-0.39081,1.41418,0c0.39087,0.39087,0.39087,1.02338,0,1.41425l-2.0813,2.0813
		C14.4472,40.92578,18.51605,42.71423,23,42.94934V40c0-0.55273,0.44727-1,1-1s1,0.44727,1,1v2.94934
		c4.48395-0.23511,8.5528-2.02356,11.68793-4.84723l-2.0813-2.0813c-0.39087-0.39087-0.39087-1.02338,0-1.41425
		c0.39081-0.39081,1.02332-0.39081,1.41418,0l2.0813,2.08136C40.92578,33.5528,42.71423,29.48389,42.94934,25H40
		c-0.55273,0-1-0.44727-1-1S39.44727,23,40,23z M24,37c-7.16797,0-13-5.83203-13-13s5.83203-13,13-13s13,5.83203,13,13
		S31.16797,37,24,37z"/>
</g>
</svg>
