<?xml version="1.0" encoding="UTF-8"?>
<svg xmlns="http://www.w3.org/2000/svg" version="1.1" viewBox="0 0 64 64">
  <!-- Generator: Adobe Illustrator 28.7.1, SVG Export Plug-In . SVG Version: 1.2.0 Build 142)  -->
  <g>
    <g id="Glyph">
      <g>
        <path d="M15,49c-2.21002,0-4,1.78998-4,4s1.78998,4,4,4,4-1.79004,4-4-1.78998-4-4-4ZM15,54c-.54999,0-1-.45001-1-1s.45001-1,1-1,1,.45001,1,1-.45001,1-1,1Z"/>
        <path d="M37,49c-2.21002,0-4,1.78998-4,4s1.78998,4,4,4,4-1.79004,4-4-1.78998-4-4-4ZM37,54c-.54999,0-1-.45001-1-1s.45001-1,1-1,1,.45001,1,1-.45001,1-1,1Z"/>
        <circle cx="49" cy="14" r="2"/>
        <path d="M49,25c.27002,0,.53003-.10999.71002-.29999.66998-.68005,6.50995-6.74005,6.50995-10.48004,0-3.97998-3.23999-7.21997-7.21997-7.21997s-7.21997,3.23999-7.21997,7.21997c0,3.73999,5.83997,9.79999,6.50995,10.48004.17999.19.44.29999.71002.29999ZM45,14c0-2.21002,1.78998-4,4-4s4,1.78998,4,4-1.78998,4-4,4-4-1.79004-4-4Z"/>
        <path d="M54.45001,22.31c-1.32001,1.70001-2.63,3.09998-3.31,3.78998-.56.57001-1.34003.90002-2.14001.90002s-1.58002-.33002-2.14001-.90002c-.67999-.69-1.98999-2.08997-3.31-3.78998-1.60999.91998-2.54999,2.23999-2.54999,3.69,0,2.79999,3.51001,5,8,5s8-2.20001,8-5c0-1.45001-.94-2.77002-2.54999-3.69Z"/>
        <rect x="41" y="37" width="4" height="2"/>
        <path d="M45,35h-10v-8h2c.27002,0,.52002.10999.71002.28998l7,7c.17999.19.28998.44.28998.71002Z"/>
        <path d="M39,40v-3h-5c-.54999,0-1-.45001-1-1v-9h-2v16h14v-2h-5c-.54999,0-1-.45001-1-1ZM36,41h-2c-.54999,0-1-.45001-1-1s.45001-1,1-1h2c.54999,0,1,.45001,1,1s-.45001,1-1,1Z"/>
        <path d="M7,52c0,.54999.45001,1,1,1h1c0-3.31,2.69-6,6-6s6,2.69,6,6h10c0-3.31,2.69-6,6-6s6,2.69,6,6h1c.54999,0,1-.45001,1-1v-7H7v7Z"/>
        <path d="M29,25H8c-.54999,0-1,.45001-1,1v17h22v-18ZM14,39c0,.54999-.45001,1-1,1s-1-.45001-1-1v-9h-1c-.54999,0-1-.45001-1-1s.45001-1,1-1h2c.54999,0,1,.45001,1,1v10ZM20,39c0,.54999-.45001,1-1,1s-1-.45001-1-1v-9h-1c-.54999,0-1-.45001-1-1s.45001-1,1-1h2c.54999,0,1,.45001,1,1v10ZM26,39c0,.54999-.45001,1-1,1s-1-.45001-1-1v-9h-1c-.54999,0-1-.45001-1-1s.45001-1,1-1h2c.54999,0,1,.45001,1,1v10Z"/>
      </g>
    </g>
  </g>
</svg>