<?xml version="1.0" encoding="UTF-8"?>
<svg xmlns="http://www.w3.org/2000/svg" version="1.1" viewBox="0 0 48 48">
  <!-- Generator: Adobe Illustrator 28.7.1, SVG Export Plug-In . SVG Version: 1.2.0 Build 142)  -->
  <g>
    <g id="Glyph">
      <g>
        <path d="M24,18c-2.71045,0-5,1.37402-5,3,0,1.4212,1.74945,2.64948,4,2.93646v-1.93646h-1c-.55225,0-1-.44727-1-1s.44775-1,1-1h4c.55225,0,1,.44727,1,1s-.44775,1-1,1h-1v1.93646c2.25055-.28699,4-1.51526,4-2.93646,0-1.62598-2.28955-3-5-3Z"/>
        <path d="M24,5c-6.61707,0-12,5.38342-12,12s5.38293,12,12,12,12-5.38342,12-12-5.38293-12-12-12ZM20,9c1.6543,0,3,1.3457,3,3s-1.3457,3-3,3-3-1.3457-3-3,1.3457-3,3-3ZM24,26c-3.92529,0-7-2.19629-7-5s3.07471-5,7-5,7,2.19629,7,5-3.07471,5-7,5ZM28,15c-1.6543,0-3-1.3457-3-3s1.3457-3,3-3,3,1.3457,3,3-1.3457,3-3,3Z"/>
        <circle cx="28" cy="12" r="1"/>
        <circle cx="20" cy="12" r="1"/>
        <path d="M15.46002,5.90997c-1.03003-.58997-2.22003-.90997-3.46002-.90997-3.85999,0-7,3.14001-7,7,0,3.20001,2.15997,5.90997,5.10999,6.73999-.07001-.57001-.10999-1.15002-.10999-1.73999,0-4.51001,2.14001-8.53003,5.46002-11.09003Z"/>
        <path d="M36,5c-1.23999,0-2.42999.32001-3.46002.90997,3.32001,2.56,5.46002,6.58002,5.46002,11.09003,0,.58997-.03998,1.16998-.10999,1.73999,2.95001-.83002,5.10999-3.53998,5.10999-6.73999,0-3.85999-3.14001-7-7-7Z"/>
        <path d="M32,31c1.20001,0,2.31.39996,3.23999,1.09998.04004-1.25-.13-2.51001-.52997-3.73999l-.55005-1.72998c-2.56,2.69-6.16998,4.37-10.15997,4.37s-7.59998-1.67999-10.15997-4.37l-.55005,1.72998c-.38995,1.22998-.57001,2.48999-.52997,3.73999.92999-.70001,2.03998-1.09998,3.23999-1.09998,3.31,0,6,3.14001,6,7,0,1.70001-.52002,3.26996-1.39001,4.47998,1.08002.34998,2.21002.52002,3.39001.52002s2.31-.17004,3.39001-.52002c-.87-1.21002-1.39001-2.77997-1.39001-4.47998,0-3.85999,2.69-7,6-7Z"/>
        <ellipse cx="32" cy="38" rx="4" ry="5"/>
        <ellipse cx="16" cy="38" rx="4" ry="5"/>
      </g>
    </g>
  </g>
</svg>