<?xml version="1.0" encoding="UTF-8"?>
<svg xmlns="http://www.w3.org/2000/svg" version="1.1" viewBox="0 0 48 48">
  <!-- Generator: Adobe Illustrator 28.7.1, SVG Export Plug-In . SVG Version: 1.2.0 Build 142)  -->
  <g>
    <g id="Glyph">
      <g>
        <path d="M13.04999,23.77225c-.02997-.32001-.04999-.65997-.04999-1v-5c-1.65686,0-3,1.34314-3,3s1.34314,3,3,3h.04999Z"/>
        <path d="M35,17.77225v5c0,.34003-.02002.67999-.04999,1h.04999c1.65686,0,3-1.34314,3-3s-1.34314-3-3-3Z"/>
        <path d="M12,36.11228v6c0,.54999.45001,1,1,1h10v-4.60712l-7.71405-8.31323c-1.97021,1.2337-3.28595,3.42914-3.28595,5.92035ZM17,37.11228h2c.55273,0,1,.44775,1,1s-.44727,1-1,1h-2c-.55273,0-1-.44775-1-1s.44727-1,1-1Z"/>
        <path d="M32.68085,30.17368l-7.68085,8.32935v4.60925h10c.54999,0,1-.45001,1-1v-6c0-2.50476-1.33118-4.7088-3.31915-5.9386ZM31,39.11228h-2c-.55273,0-1-.44775-1-1s.44727-1,1-1h2c.55273,0,1,.44775,1,1s-.44727,1-1,1Z"/>
        <path d="M24.72998,33.68228c-.23999.06-.47998.08997-.72998.08997s-.48999-.02997-.72998-.08997c-.90295-.22357-1.95905-.59503-3.0412-1.10468l3.76923,4.06201,3.72406-4.03864c-1.06494.49756-2.10284.86108-2.99213,1.0813Z"/>
        <path d="M16.61023,14.11228h17.06488c1.47028,0,2.62183-1.36493,2.25665-2.89679-.19885-.83435-.88666-1.46436-1.71417-1.69-2.67017-.72821-10.75806-2.93402-16.40021-4.47278-2.93268-.79987-5.81738,1.40948-5.81738,4.44934,0,2.54614,2.06409,4.61023,4.61023,4.61023Z"/>
        <path d="M15,22.77536c0,6.70361,8.39941,8.88086,8.75781,8.97021.0791.02002.16113.02979.24219.02979s.16309-.00977.24219-.02979c.3584-.08936,8.75781-2.2666,8.75781-8.97021v-6.66309H15v6.66309Z"/>
      </g>
    </g>
  </g>
</svg>