<?xml version="1.0" encoding="utf-8"?>
<!-- Generator: Adobe Illustrator 27.3.1, SVG Export Plug-In . SVG Version: 6.00 Build 0)  -->
<svg version="1.1" id="Glyph" xmlns="http://www.w3.org/2000/svg" xmlns:xlink="http://www.w3.org/1999/xlink" x="0px" y="0px"
	 viewBox="0 0 48 48" enable-background="new 0 0 48 48" xml:space="preserve">
<g>
	<circle cx="8" cy="8" r="3"/>
	<path d="M43,22.5c0-2.67004-1.60999-5.02002-4.02002-6.01001C38.98999,16.32996,39,16.16998,39,16c0-2.76001-2.23999-5-5-5
		c-0.40997,0-0.82001,0.04999-1.21997,0.14996C31.94,7.60999,28.75,5,25,5c-3.67999,0-6.84998,2.51996-7.73999,6H17
		c-3.85999,0-7,3.14001-7,7c0,0.33997,0.02002,0.66998,0.07001,1H10c-1.32001,0-2.58002,0.51996-3.53998,1.46997
		C5.52002,21.41998,5,22.67999,5,24c0,2.76001,2.23999,5,5,5h8.34003l2.94-6.27002C21.78003,21.67999,22.84003,21,24,21h6
		c1.09003,0,2.09998,0.58997,2.62,1.54999c0.53003,0.95001,0.5,2.10999-0.07001,3.03998l-1.09998,1.76001L32.10999,27.62
		C32.78003,27.88,33.32001,28.38,33.65002,29H36.5c1.73999,0,3.37-0.67999,4.59998-1.90002C42.32001,25.87,43,24.23999,43,22.5z"/>
	<path d="M7.17725,35.43164C6.52246,36.37988,5,38.72168,5,40c0,1.6543,1.3457,3,3,3s3-1.3457,3-3
		c0-1.27832-1.52246-3.62012-2.17725-4.56836C8.44971,34.89062,7.55029,34.89062,7.17725,35.43164z"/>
	<path d="M15.17725,31.43164C14.52246,32.37988,13,34.72168,13,36c0,1.6543,1.3457,3,3,3s3-1.3457,3-3
		c0-1.27832-1.52246-3.62012-2.17725-4.56836C16.44971,30.89062,15.55029,30.89062,15.17725,31.43164z"/>
	<path d="M31.17725,35.43164C30.52246,36.37988,29,38.72168,29,40c0,1.6543,1.3457,3,3,3s3-1.3457,3-3
		c0-1.27832-1.52246-3.62012-2.17725-4.56836C32.44971,34.89062,31.55029,34.89062,31.17725,35.43164z"/>
	<path d="M39.17725,31.43164C38.52246,32.37988,37,34.72168,37,36c0,1.6543,1.3457,3,3,3s3-1.3457,3-3
		c0-1.27832-1.52246-3.62012-2.17725-4.56836C40.44971,30.89062,39.55029,30.89062,39.17725,31.43164z"/>
	<path d="M31.96302,30.15672c-0.07524-0.29695-0.28156-0.56068-0.59144-0.68504l-2.88965-1.15625l2.36621-3.78516
		c0.19238-0.30859,0.20264-0.69727,0.02637-1.01465C30.69824,23.19727,30.36377,23,30,23h-6
		c-0.3877,0-0.74072,0.22461-0.90527,0.5752c0,0-2.9944,6.38845-2.99999,6.40037c-0.24242,0.51719,0.00514,1.14151,0.53417,1.35353
		l3.18945,1.27539l-1.78857,7.15332c-0.11279,0.45215,0.10156,0.92285,0.51768,1.13384
		c0.41194,0.2094,0.92418,0.10466,1.2206-0.25103c0.00023-0.00027,7.99498-9.59359,8-9.59961
		C31.98244,30.78378,32.03825,30.45364,31.96302,30.15672z"/>
</g>
</svg>
