<?xml version="1.0" encoding="UTF-8"?>
<svg id="Glyph" xmlns="http://www.w3.org/2000/svg" version="1.1" viewBox="0 0 48 48">
  <path d="M29.00684,35v-1h-3c-.55273,0-1-.44727-1-1v-1h-3c-.55273,0-1-.44727-1-1v-1h-3c-.55273,0-1-.44727-1-1v-1h-3c-.55273,0-1-.44727-1-1v-1h-2v12h22v-2h-3c-.55273,0-1-.44727-1-1Z" fill="#000" stroke-width="0"/>
  <path d="M11.01001,24h3c.54999,0,1,.45001,1,1v1h3c.54999,0,1,.45001,1,1v1h3c.54999,0,1,.45001,1,1v1h3c.54999,0,1,.45001,1,1v1h3c.54999,0,1,.45001,1,1v1h3c.54999,0,1,.45001,1,1v3h2v-20H11.01001v6ZM27.29999,24.28998c.39001-.39001,1.02002-.39001,1.41003,0l2.37,2.37c.13995-.39001.5-.65997.92999-.65997.54999,0,1,.45001,1,1v2c0,.54999-.45001,1-1,1h-2c-.56,0-1-.45001-1-1,0-.42999.27002-.79004.64996-.92999l-2.35999-2.36005c-.39001-.38995-.39001-1.02997,0-1.41998ZM19.28998,20.28998c.39001-.39001,1.03003-.39001,1.42004,0l2.35999,2.37c.14001-.39001.5-.65997.92999-.65997.54999,0,1,.45001,1,1v2c0,.54999-.45001,1-1,1h-2c-.54999,0-1-.45001-1-1,0-.42999.27002-.79004.65997-.92999l-2.37-2.36005c-.38995-.38995-.38995-1.02997,0-1.41998Z" fill="#000" stroke-width="0"/>
  <path d="M40.01001,9h-2.98999c0-2.21002-1.79004-4-4-4s-4,1.78998-4,4h2c0-1.10004.89996-2,2-2,1.09998,0,2,.89996,2,2h-4c0,1.09998.89996,2,2,2,.54999,0,1,.45001,1,1s-.45001,1-1,1c-2.21002,0-4-1.79004-4-4h-10.01001c0-2.21002-1.79999-4-4-4-2.21002,0-4,1.78998-4,4h2c0-1.10004.89001-2,2-2,1.09998,0,2,.89996,2,2h-4c0,1.09998.89001,2,2,2,.54999,0,1,.45001,1,1s-.45001,1-1,1c-2.21002,0-4-1.79004-4-4h-3c-1.66003,0-3,1.34998-3,3v28c0,1.64996,1.33997,3,3,3h32c1.64996,0,3-1.35004,3-3V12c0-1.65002-1.35004-3-3-3ZM39.01001,39c0,.54999-.45001,1-1,1H10.01001c-.56,0-1-.45001-1-1v-22c0-.54999.44-1,1-1h28c.54999,0,1,.45001,1,1v22Z" fill="#000" stroke-width="0"/>
</svg>