<?xml version="1.0" encoding="UTF-8"?>
<svg xmlns="http://www.w3.org/2000/svg" version="1.1" viewBox="0 0 48 48">
  <!-- Generator: Adobe Illustrator 28.7.1, SVG Export Plug-In . SVG Version: 1.2.0 Build 142)  -->
  <g>
    <g id="Glyph">
      <g>
        <path d="M15,30c-2.86743,0-5.20001,2.33252-5.20001,5.20001v2.59998c0,2.86743,2.33258,5.20001,5.20001,5.20001s5.20001-2.33258,5.20001-5.20001v-2.59998c0-2.86749-2.33258-5.20001-5.20001-5.20001Z"/>
        <path d="M24.67999,5.26001c-.25-.22003-.58002-.31-.89996-.24005-2.55023.57214-5.16187.87555-7.78003.94019v22.11353c2.45563.34314,4.51404,1.92554,5.52002,4.09631l3.46997-26.03998c.04004-.32001-.07001-.65002-.31-.87Z"/>
        <path d="M14,28.07367V5.96014c-2.61816-.06464-5.2298-.36804-7.78003-.94019-.31995-.06995-.64996.02002-.89996.24005-.23999.21997-.35004.54999-.31.87l3.46997,26.03998c1.00598-2.17078,3.06439-3.75317,5.52002-4.09631Z"/>
        <path d="M38.20001,12.79999v-2.59998c0-2.86749-2.33258-5.20001-5.20001-5.20001s-5.20001,2.33252-5.20001,5.20001v2.59998c0,2.86743,2.33258,5.20001,5.20001,5.20001s5.20001-2.33258,5.20001-5.20001Z"/>
        <path d="M26.47998,15.83002s-3.46259,25.98431-3.46997,26.03986c-.04541.34094.08759.65387.31549.86407.2301.21228.55688.31989.89447.24609,2.55023-.57214,5.16187-.87555,7.78003-.94019v-22.11353c-2.45563-.34314-4.51404-1.92554-5.52002-4.09631Z"/>
        <path d="M39.52002,15.83002c-1.00598,2.17078-3.06439,3.75317-5.52002,4.09631v22.11353c2.61816.06464,5.2298.36804,7.78003.94019.31995.06995.64996-.02002.89996-.24005.23999-.21997.35004-.54999.31-.87l-3.46997-26.03998Z"/>
      </g>
    </g>
  </g>
</svg>