<?xml version="1.0" encoding="UTF-8"?>
<svg xmlns="http://www.w3.org/2000/svg" version="1.1" viewBox="0 0 64 64">
  <!-- Generator: Adobe Illustrator 28.7.1, SVG Export Plug-In . SVG Version: 1.2.0 Build 142)  -->
  <g>
    <g id="Glyph">
      <g>
        <rect x="12" y="39" width="4" height="3"/>
        <rect x="12" y="29" width="4" height="3"/>
        <rect x="12" y="34" width="4" height="3"/>
        <rect x="12" y="44" width="4" height="3"/>
        <path d="M7,27.6875v24.375c0,.51819.41791.9375.93335.9375h2.06665v-28.35028c-1.82629.74548-3,1.7489-3,3.03778Z"/>
        <rect x="12" y="49" width="4" height="4"/>
        <path d="M21,23c-.99774,0-2.00494.03619-3,.10138v29.89862h16.06665c.51544,0,.93335-.41931.93335-.9375v-24.375c0-3.22083-7.25702-4.6875-14-4.6875Z"/>
        <path d="M12,27h4v-3.72369c-1.43201.16394-2.78705.40631-4,.72174v3.00195Z"/>
        <path d="M47,42c2.75684,0,5-2.24316,5-5,0-1.9082-2.81592-5.88477-5-8.47461-2.18359,2.59082-5,6.56836-5,8.47461,0,2.75684,2.24316,5,5,5Z"/>
        <path d="M27,18.29999v3.08002c4.69.62,10,2.21997,10,6.31v24.37c0,.33002-.04999.64996-.15997.94h19.15997c.54999,0,1-.45001,1-1V18.29999c-3.39001,2.27997-10.34998,2.70001-15,2.70001s-11.60999-.42004-15-2.70001ZM47.74414,26.33203c.64062.71387,6.25586,7.0752,6.25586,10.66797,0,3.85938-3.14014,7-7,7s-7-3.14062-7-7c0-3.59277,5.61523-9.9541,6.25586-10.66797.37891-.42188,1.10938-.42188,1.48828,0Z"/>
        <path d="M42,19c7.22461,0,15-1.25159,15-4s-7.77539-4-15-4-15,1.25153-15,4,7.77539,4,15,4Z"/>
      </g>
    </g>
  </g>
</svg>