<?xml version="1.0" encoding="UTF-8"?>
<svg xmlns="http://www.w3.org/2000/svg" version="1.1" viewBox="0 0 64 64">
  <!-- Generator: Adobe Illustrator 28.7.1, SVG Export Plug-In . SVG Version: 1.2.0 Build 142)  -->
  <g>
    <g id="Glyph">
      <g>
        <path d="M28.84711,27h11.18964l-3.26428-2.79785c-.90039-.77539-2.05518-1.20215-3.25244-1.20215h-5.3396l.66669,4Z"/>
        <path d="M26.81958,27l-.66669-4h-4.67291c-1.19727,0-2.35205.42676-3.25098,1.20068l-.8692.74506,2.05426,2.05426h7.40552Z"/>
        <path d="M52,35c0-.54999.45001-1,1-1h4c0-2.76001-2.23999-5-5-5H19c-.27002,0-.52002-.10999-.71002-.29004l-2.44995-2.45996-3.21002,2.75h-2.63c-1.65002,0-3,1.34998-3,3v2h4c.54999,0,1,.45001,1,1s-.45001,1-1,1h-4v2c0,1.64996,1.34998,3,3,3h2c0-3.31,2.69-6,6-6s6,2.69,6,6h17c0-3.31,2.69-6,6-6s6,2.69,6,6h1c1.65002,0,3-1.35004,3-3v-2h-4c-.54999,0-1-.45001-1-1ZM27,37h-1c-.54999,0-1-.45001-1-1s.45001-1,1-1h1c.54999,0,1,.45001,1,1s-.45001,1-1,1ZM30,35h-1c-.54999,0-1-.45001-1-1s.45001-1,1-1h1c.54999,0,1,.45001,1,1s-.45001,1-1,1ZM33,37h-1c-.54999,0-1-.45001-1-1s.45001-1,1-1h1c.54999,0,1,.45001,1,1s-.45001,1-1,1ZM36,35h-1c-.54999,0-1-.45001-1-1s.45001-1,1-1h1c.54999,0,1,.45001,1,1s-.45001,1-1,1ZM39,37h-1c-.54999,0-1-.45001-1-1s.45001-1,1-1h1c.54999,0,1,.45001,1,1s-.45001,1-1,1Z"/>
        <path d="M18,37c-2.21002,0-4,1.78998-4,4s1.78998,4,4,4,4-1.79004,4-4-1.78998-4-4-4ZM18,42c-.54999,0-1-.45001-1-1s.45001-1,1-1,1,.45001,1,1-.45001,1-1,1Z"/>
        <path d="M47,37c-2.21002,0-4,1.78998-4,4s1.78998,4,4,4,4-1.79004,4-4-1.78998-4-4-4ZM47,42c-.54999,0-1-.45001-1-1s.45001-1,1-1,1,.45001,1,1-.45001,1-1,1Z"/>
        <path d="M30,20c0-.54999-.45001-1-1-1h-4c-.38,0-.72998.20996-.89001.54999l-.71997,1.45001h6.60999v-1Z"/>
      </g>
    </g>
  </g>
</svg>