<?xml version="1.0" encoding="UTF-8"?>
<svg xmlns="http://www.w3.org/2000/svg" version="1.1" viewBox="0 0 64 64">
  <!-- Generator: Adobe Illustrator 28.7.1, SVG Export Plug-In . SVG Version: 1.2.0 Build 142)  -->
  <g>
    <g id="Glyph">
      <g>
        <path d="M55.06,27.09373c.29999-.46002.45001-.98999.45001-1.54999,0-.81-.32001-1.56-.88-2.12l-15.56-15.56c-1.13-1.13-3.10999-1.13-4.23999,0L15.70001,26.98375h38.29999c.35999,0,.71997.03998,1.06.10999Z"/>
        <rect x="46" y="42.98375" width="6" height="2"/>
        <path d="M18,34.98375h-4c-.55127,0-1,.44824-1,1v3h5v-4Z"/>
        <path d="M13,45.98375c0,.55176.44873,1,1,1h10c.55127,0,1-.44824,1-1v-5h-12v5ZM21,42.98375h1c.55225,0,1,.44727,1,1s-.44775,1-1,1h-1c-.55225,0-1-.44727-1-1s.44775-1,1-1ZM16,42.98375h1c.55225,0,1,.44727,1,1s-.44775,1-1,1h-1c-.55225,0-1-.44727-1-1s.44775-1,1-1Z"/>
        <polygon points="15.8197 48.98375 15.41974 50.98375 22.58026 50.98375 22.1803 48.98375 15.8197 48.98375"/>
        <path d="M24,34.98375h-4v4h5v-3c0-.55176-.44873-1-1-1Z"/>
        <path d="M54,28.98375h-13v3c0,.55273-.44775,1-1,1s-1-.44727-1-1v-3H10c-1.6543,0-3,1.3457-3,3v22c0,1.6543,1.3457,3,3,3h29v-3c0-.55273.44775-1,1-1s1,.44727,1,1v3h13c1.6543,0,3-1.3457,3-3v-22c0-1.6543-1.3457-3-3-3ZM27,45.98375c0,1.58057-1.2323,2.86554-2.78461,2.97821l.76508,3.8255c.1084.54199-.24268,1.06836-.7842,1.17676-.53612.11036-1.06001-.25892-1.17673-.78418l-.03925-.19629h-7.96057l-.03925.19629c-.10607.53054-.64674.8933-1.17676.78418-.5415-.1084-.89258-.63477-.78418-1.17676l.76508-3.8255c-1.55231-.11267-2.78461-1.39764-2.78461-2.97821v-10c0-1.6543,1.3457-3,3-3h10c1.6543,0,3,1.3457,3,3v10ZM36,38.98375h-4c-.55225,0-1-.44727-1-1s.44775-1,1-1h4c.55225,0,1,.44727,1,1s-.44775,1-1,1ZM36,34.98375h-6c-.55225,0-1-.44727-1-1s.44775-1,1-1h6c.55225,0,1,.44727,1,1s-.44775,1-1,1ZM41,49.98375c0,.55273-.44775,1-1,1s-1-.44727-1-1v-2c0-.55273.44775-1,1-1s1,.44727,1,1v2ZM41,43.98375c0,.55273-.44775,1-1,1s-1-.44727-1-1v-2c0-.55273.44775-1,1-1s1,.44727,1,1v2ZM41,37.98375c0,.55273-.44775,1-1,1s-1-.44727-1-1v-2c0-.55273.44775-1,1-1s1,.44727,1,1v2ZM53,50.98375h-8c-.55225,0-1-.44727-1-1s.44775-1,1-1h8c.55225,0,1,.44727,1,1s-.44775,1-1,1ZM54,45.98375c0,.55273-.44775,1-1,1h-8c-.55225,0-1-.44727-1-1v-4c0-.55273.44775-1,1-1h8c.55225,0,1,.44727,1,1v4ZM54,37.98375c0,.55273-.44775,1-1,1h-8c-.55225,0-1-.44727-1-1v-4c0-.55273.44775-1,1-1h8c.55225,0,1,.44727,1,1v4Z"/>
        <rect x="46" y="34.98375" width="6" height="2"/>
      </g>
    </g>
  </g>
</svg>