<?xml version="1.0" encoding="UTF-8"?>
<svg id="Glyph" xmlns="http://www.w3.org/2000/svg" version="1.1" viewBox="0 0 48 48">
  <circle cx="18" cy="23" r="1" fill="#000" stroke-width="0"/>
  <path d="M11,38h26v-20H11v20ZM26.01001,24.85999c.07001-.48999.48999-.85999.98999-.85999h.20001c-.10999-.31-.19-.65002-.19-1,0-1.65002,1.34998-3,3-3,1.65997,0,3,1.34998,3,3,0,.34998-.07001.69-.17999,1h.16998c.5,0,.91998.37.98999.85999l1,7c.04004.28998-.03998.58002-.22998.79999-.19.21002-.47003.34003-.76001.34003h-1v2c0,.54999-.45001,1-1,1s-1-.45001-1-1v-3c0-.54999.45001-1,1-1h.84998l-.71997-5h-4.26001l-.71997,5h.84998c.54999,0,1,.45001,1,1v3c0,.54999-.45001,1-1,1s-1-.45001-1-1v-2h-1c-.28998,0-.57001-.13-.76001-.34003-.19-.21997-.27002-.51001-.22998-.79999l1-7ZM13,27c0-1.38.95001-2.54004,2.21997-2.88-.13995-.35004-.21997-.72998-.21997-1.12,0-1.65002,1.34998-3,3-3s3,1.34998,3,3c0,.39001-.08002.76996-.21997,1.12,1.26996.33997,2.21997,1.5,2.21997,2.88v3c0,.54999-.45001,1-1,1h-1v4c0,.54999-.45001,1-1,1s-1-.45001-1-1v-5c0-.54999.45001-1,1-1h1v-2c0-.54999-.45001-1-1-1h-4c-.54999,0-1,.45001-1,1v2h1c.54999,0,1,.45001,1,1v5c0,.54999-.45001,1-1,1s-1-.45001-1-1v-4h-1c-.54999,0-1-.45001-1-1v-3Z" fill="#000" stroke-width="0"/>
  <circle cx="30.01367" cy="23" r="1" fill="#000" stroke-width="0"/>
  <path d="M40,9h-2.98999c0-2.21002-1.79004-4-4-4-2.20001,0-4,1.78998-4,4h2c0-1.10004.89996-2,2-2,1.10999,0,2,.89996,2,2h-4c0,1.09998.89996,2,2,2,.56,0,1,.45001,1,1s-.44,1-1,1c-2.20001,0-4-1.79004-4-4h-10.01001c0-2.21002-1.78998-4-4-4s-4,1.78998-4,4h2c0-1.10004.90002-2,2-2s2,.89996,2,2h-4c0,1.09998.90002,2,2,2,.54999,0,1,.45001,1,1s-.45001,1-1,1c-2.21002,0-4-1.79004-4-4h-3c-1.65002,0-3,1.34998-3,3v28c0,1.64996,1.34998,3,3,3h32c1.65002,0,3-1.35004,3-3V12c0-1.65002-1.34998-3-3-3ZM39,39c0,.54999-.45001,1-1,1H10c-.54999,0-1-.45001-1-1v-22c0-.54999.45001-1,1-1h28c.54999,0,1,.45001,1,1v22Z" fill="#000" stroke-width="0"/>
</svg>