<?xml version="1.0" encoding="UTF-8"?>
<svg xmlns="http://www.w3.org/2000/svg" version="1.1" viewBox="0 0 64 64">
  <!-- Generator: Adobe Illustrator 28.7.1, SVG Export Plug-In . SVG Version: 1.2.0 Build 142)  -->
  <g>
    <g id="Glyph">
      <g>
        <polygon points="18.08423 32.62085 17.06055 49 18.13757 49 28.84961 40.07324 18.08423 32.62085"/>
        <polygon points="29.76929 38.27765 28.9314 24.87073 19.3042 31.03223 29.76929 38.27765"/>
        <polygon points="18.29138 29.3067 28.78876 22.58844 28.68945 21 18.81055 21 18.29138 29.3067"/>
        <path d="M57,13c0,2.20996-1.78998,4-4,4h-20.5v-8h20.5c2.21002,0,4,1.78998,4,4Z"/>
        <path d="M48.5,19v1c0,1.64001-1.32001,2.96997-2.95001,2.98999.15002.81.64001,1.46002,1.07001,1.89001.57001.56.88,1.32001.88,2.12,0,1.64996-1.34998,3-3,3s-3-1.35004-3-3c0-.54999.45001-1,1-1s1,.45001,1,1,.45001,1,1,1,1-.45001,1-1c0-.27002-.09998-.52002-.28998-.71002-.98004-.97998-1.53003-2.10999-1.66003-3.28998h-.04999c-1.65002,0-3-1.35004-3-3v-1h8Z"/>
        <rect x="17.5" y="7" width="13" height="12" rx="1" ry="1"/>
        <rect x="12.5" y="9" width="3" height="8"/>
        <path d="M10.5,19V7h-3c-.55225,0-1,.44727-1,1v10c0,.55273.44775,1,1,1h3Z"/>
        <path d="M57.5,56c0,.54999-.45001,1-1,1H8.5c-.54999,0-1-.45001-1-1s.45001-1,1-1h6v-4h18v4h24c.54999,0,1,.45001,1,1Z"/>
        <polygon points="29.98517 41.73108 21.26239 49 30.43945 49 29.98517 41.73108"/>
      </g>
    </g>
  </g>
</svg>