<?xml version="1.0" encoding="UTF-8"?>
<svg id="Glyph" xmlns="http://www.w3.org/2000/svg" version="1.1" viewBox="0 0 64 64">
  <circle cx="32" cy="46" r="1" style="fill: #000; stroke-width: 0px;"/>
  <circle cx="32" cy="22" r="1" style="fill: #000; stroke-width: 0px;"/>
  <path d="M32,41c-2.75684,0-5,2.24316-5,5s2.24316,5,5,5,5-2.24316,5-5-2.24316-5-5-5ZM32,49c-1.6543,0-3-1.3457-3-3s1.3457-3,3-3,3,1.3457,3,3-1.3457,3-3,3Z" style="fill: #000; stroke-width: 0px;"/>
  <path d="M37,22c0-2.75684-2.24316-5-5-5s-5,2.24316-5,5,2.24316,5,5,5,5-2.24316,5-5ZM29,22c0-1.6543,1.3457-3,3-3s3,1.3457,3,3-1.3457,3-3,3-3-1.3457-3-3Z" style="fill: #000; stroke-width: 0px;"/>
  <path d="M44,7h-24c-1.6543,0-3,1.3457-3,3v44c0,1.6543,1.3457,3,3,3h24c1.6543,0,3-1.3457,3-3V10c0-1.6543-1.3457-3-3-3ZM32,53c-3.85938,0-7-3.14014-7-7s3.14062-7,7-7,7,3.14014,7,7-3.14062,7-7,7ZM42,47c-.55273,0-1-.44775-1-1,0-4.9624-4.03711-9-9-9s-9,4.0376-9,9c0,.55225-.44727,1-1,1s-1-.44775-1-1c0-6.06543,4.93457-11,11-11s11,4.93457,11,11c0,.55225-.44727,1-1,1ZM25,22c0-3.85986,3.14062-7,7-7s7,3.14014,7,7-3.14062,7-7,7-7-3.14014-7-7ZM42,23c-.55273,0-1-.44775-1-1,0-4.9624-4.03711-9-9-9s-9,4.0376-9,9c0,.55225-.44727,1-1,1s-1-.44775-1-1c0-6.06543,4.93457-11,11-11s11,4.93457,11,11c0,.55225-.44727,1-1,1Z" style="fill: #000; stroke-width: 0px;"/>
  <path d="M52.61328,31h-2c-.55273,0-1,.44775-1,1s.44727,1,1,1h2c.55273,0,1-.44775,1-1s-.44727-1-1-1Z" style="fill: #000; stroke-width: 0px;"/>
  <path d="M49.99901,28.34028c.08623.00077.17351-.00988.25978-.03315l1.93164-.51758c.5332-.14307.84961-.69141.70703-1.22461-.1416-.53369-.68945-.85156-1.22461-.70703l-1.93163.51758c-1.09452.29327-.878,1.9546.25779,1.96479Z" style="fill: #000; stroke-width: 0px;"/>
  <path d="M52.19043,36.21045l-1.93164-.51758c-.53125-.14209-1.08203.17383-1.22461.70703s.17383,1.08154.70703,1.22461l1.93164.51758c.51299.13745,1.0833-.17712,1.22461-.70703.14258-.5332-.17383-1.08154-.70703-1.22461Z" style="fill: #000; stroke-width: 0px;"/>
  <path d="M13.38672,33c.55273,0,1-.44775,1-1s-.44727-1-1-1h-2c-.55273,0-1,.44775-1,1s.44727,1,1,1h2Z" style="fill: #000; stroke-width: 0px;"/>
  <path d="M14.25879,26.37549l-1.93164-.51758c-.53223-.14404-1.08203.17334-1.22461.70703-.14258.5332.17383,1.08154.70703,1.22461,0,0,1.93164.51758,1.93169.51759.52781.1423,1.08435-.18126,1.22456-.70704.14258-.5332-.17383-1.08154-.70703-1.22461Z" style="fill: #000; stroke-width: 0px;"/>
  <path d="M13.74121,35.69287l-1.93164.51758c-.5332.14306-.8496.69139-.70704,1.22459.14012.52406.70149.84812,1.22461.70705l1.93164-.51758c.5332-.14307.84961-.69141.70703-1.22461s-.69043-.84961-1.22461-.70703Z" style="fill: #000; stroke-width: 0px;"/>
</svg>