<?xml version="1.0" encoding="UTF-8"?>
<svg xmlns="http://www.w3.org/2000/svg" version="1.1" viewBox="0 0 64 64">
  <!-- Generator: Adobe Illustrator 28.7.1, SVG Export Plug-In . SVG Version: 1.2.0 Build 142)  -->
  <g>
    <g id="Glyph">
      <g>
        <rect x="51" y="33" width="4" height="10"/>
        <rect x="19" y="33" width="2" height="10"/>
        <path d="M9,31h5c.55273,0,1,.44775,1,1v12c0,.55225-.44727,1-1,1h-5v2h16v-15c0-.55225.44727-1,1-1h12c.55273,0,1,.44775,1,1v15h16v-2h-5c-.55273,0-1-.44775-1-1v-12c0-.55225.44727-1,1-1h5v-2H9v2ZM41,32c0-.55225.44727-1,1-1h4c.55273,0,1,.44775,1,1v12c0,.55225-.44727,1-1,1h-4c-.55273,0-1-.44775-1-1v-12ZM17,32c0-.55225.44727-1,1-1h4c.55273,0,1,.44775,1,1v12c0,.55225-.44727,1-1,1h-4c-.55273,0-1-.44775-1-1v-12Z"/>
        <rect x="43" y="33" width="2" height="10"/>
        <rect x="7" y="25" width="50" height="2"/>
        <rect x="7" y="49" width="50" height="2"/>
        <path d="M16,57c2.41443,0,4.43427-1.7207,4.89893-4h-9.79785c.46466,2.2793,2.4845,4,4.89893,4Z"/>
        <path d="M32,57c2.41443,0,4.43427-1.7207,4.89893-4h-9.79785c.46466,2.2793,2.4845,4,4.89893,4Z"/>
        <path d="M46,10c0,.54999-.45001,1-1,1h-7v1c0,.54999-.45001,1-1,1h-4.59003l-3,3,3,3h5.59003c.54999,0,1,.45001,1,1v3h-14v-3c0-.54999.45001-1,1-1h3.59003l-2.30005-2.29004c-.38995-.38995-.38995-1.02997,0-1.41998l2.30005-2.28998h-2.59003c-.54999,0-1-.45001-1-1v-1h-7c-.54999,0-1-.45001-1-1s.45001-1,1-1h7v-1c0-.54999.45001-1,1-1h10c.54999,0,1,.45001,1,1v1h7c.54999,0,1,.45001,1,1Z"/>
        <path d="M48,57c2.41443,0,4.43427-1.7207,4.89893-4h-9.79785c.46466,2.2793,2.4845,4,4.89893,4Z"/>
        <rect x="27" y="33" width="10" height="14"/>
        <rect x="9" y="33" width="4" height="10"/>
      </g>
    </g>
  </g>
</svg>