<?xml version="1.0" encoding="UTF-8"?>
<svg id="Glyph" xmlns="http://www.w3.org/2000/svg" version="1.1" viewBox="0 0 48 48">
  <path d="M10,37.06879h3.01001c0-2.21002,1.79999-4,4-4,2.20996,0,4,1.78998,4,4h5.98999c0-2.21002,1.78998-4,4-4s4,1.78998,4,4h3c.54999,0,1-.45001,1-1v-4c0-.54999-.45001-1-1-1h-13v-14.69861l3.7464,1.00385c.03442.4397.15564.87048.38251,1.26361.40137.69379,1.04779,1.19037,1.8222,1.3974,1.51385.40479,3.25989-.57404,3.67389-2.12054.42871-1.59766-.52246-3.24609-2.12109-3.6748-.77344-.20654-1.58203-.10059-2.27637.2998-.39331.22711-.71375.53967-.96332.90295l-9.99701-2.67865c-.03448-.43976-.15601-.87067-.38342-1.26385-.40039-.69385-1.04785-1.19043-1.8213-1.39746-1.59271-.42773-3.24505.5224-3.6748,2.12146-.67566,2.51422,2.13782,4.67615,4.39844,3.37415.39276-.22711.71326-.53949.96301-.90277l4.29602,1.15106c-.0174.07361-.04517,15.22241-.04517,15.22241h-13c-.54999,0-1,.45001-1,1v4c0,.54999.45001,1,1,1Z" fill="#000" stroke-width="0"/>
  <path d="M15,26.06879c0-1.65002-1.34998-3-3-3s-3,1.34998-3,3v3h6v-3Z" fill="#000" stroke-width="0"/>
  <path d="M33.01001,26.06879v3h6v-3c0-1.65002-1.34003-3-3-3-1.65002,0-3,1.34998-3,3Z" fill="#000" stroke-width="0"/>
  <path d="M42,41H6c-.55273,0-1,.44775-1,1s.44727,1,1,1h36c.55273,0,1-.44775,1-1s-.44727-1-1-1Z" fill="#000" stroke-width="0"/>
  <circle cx="31" cy="37.06879" r="2" fill="#000" stroke-width="0"/>
  <circle cx="17.01001" cy="37.06879" r="2" fill="#000" stroke-width="0"/>
</svg>