<?xml version="1.0" encoding="UTF-8"?>
<svg xmlns="http://www.w3.org/2000/svg" version="1.1" viewBox="0 0 64 64">
  <!-- Generator: Adobe Illustrator 28.7.1, SVG Export Plug-In . SVG Version: 1.2.0 Build 142)  -->
  <g>
    <g id="Glyph">
      <g>
        <circle cx="37.63519" cy="54" r="3"/>
        <path d="M55.63519,31h-26c-.54999,0-1,.45001-1,1v13h28v-13c0-.54999-.45001-1-1-1ZM36.63519,42c0,.54999-.45001,1-1,1s-1-.45001-1-1v-5h-1c-.54999,0-1-.45001-1-1s.45001-1,1-1h2c.54999,0,1,.45001,1,1v6ZM44.63519,42c0,.54999-.45001,1-1,1s-1-.45001-1-1v-5h-1c-.54999,0-1-.45001-1-1s.45001-1,1-1h2c.54999,0,1,.45001,1,1v6ZM52.63519,42c0,.54999-.45001,1-1,1s-1-.45001-1-1v-5h-1c-.54999,0-1-.45001-1-1s.45001-1,1-1h2c.54999,0,1,.45001,1,1v6Z"/>
        <path d="M28.63519,53c0,.54999.45001,1,1,1h3c0-2.76001,2.23999-5,5-5s5,2.23999,5,5h13c.54999,0,1-.45001,1-1v-6h-28v6Z"/>
        <path d="M47.63519,29h6v-6H9.63519v33c0,.54999.45001,1,1,1h4c.54999,0,1-.45001,1-1v-29h32v2Z"/>
        <path d="M32.1391,7.13623c-.31055-.18164-.69727-.18164-1.00781,0L7.36481,21h48.54077l-23.76648-13.86377Z"/>
      </g>
    </g>
  </g>
</svg>