<?xml version="1.0" encoding="UTF-8"?>
<svg xmlns="http://www.w3.org/2000/svg" version="1.1" viewBox="0 0 64 64">
  <!-- Generator: Adobe Illustrator 28.7.1, SVG Export Plug-In . SVG Version: 1.2.0 Build 142)  -->
  <g>
    <g id="Glyph">
      <g>
        <path d="M36,21.5v1h-12v-1c0-.54999.45001-1,1-1h10c.54999,0,1,.45001,1,1Z"/>
        <path d="M57,9.5v6c0,.54999-.45001,1-1,1h-21c-.54999,0-1,.45001-1,1v1h-8v-5c0-2.76001,2.23999-5,5-5h25c.54999,0,1,.45001,1,1Z"/>
        <path d="M45,28.5v12c0,.54999-.45001,1-1,1h-1v-14h1c.54999,0,1,.45001,1,1Z"/>
        <path d="M49,31.5v6c0,.54999-.45001,1-1,1h-1v-8h1c.54999,0,1,.45001,1,1Z"/>
        <path d="M9,26.5v16h-1c-.54999,0-1-.45001-1-1v-14c0-.54999.45001-1,1-1h1Z"/>
        <path d="M27,30.5h-10v8h10v-8ZM20,35.5c-.54999,0-1-.45001-1-1s.45001-1,1-1,1,.45001,1,1-.45001,1-1,1ZM24,35.5c-.54999,0-1-.45001-1-1s.45001-1,1-1,1,.45001,1,1-.45001,1-1,1Z"/>
        <rect x="29" y="30.5" width="6" height="8"/>
        <path d="M14,44.5h24c1.65002,0,3-1.35004,3-3v-14c0-1.65002-1.34998-3-3-3H14c-1.65002,0-3,1.34998-3,3v14c0,1.64996,1.34998,3,3,3ZM15,29.5c0-.54999.45001-1,1-1h20c.54999,0,1,.45001,1,1v10c0,.54999-.45001,1-1,1h-20c-.54999,0-1-.45001-1-1v-10Z"/>
        <path d="M14.57416,49.5h22.85162c-.83929-.87067-1.44867-1.89642-1.85754-3h-19.13654c-.40887,1.10327-1.01819,2.12903-1.85754,3Z"/>
        <path d="M57,54.5c0,.54999-.45001,1-1,1H8c-.54999,0-1-.45001-1-1s.45001-1,1-1h4v-2h28v2h16c.54999,0,1,.45001,1,1Z"/>
      </g>
    </g>
  </g>
</svg>