<?xml version="1.0" encoding="UTF-8"?>
<svg xmlns="http://www.w3.org/2000/svg" version="1.1" viewBox="0 0 64 64">
  <!-- Generator: Adobe Illustrator 28.7.1, SVG Export Plug-In . SVG Version: 1.2.0 Build 142)  -->
  <g>
    <g id="Glyph">
      <g>
        <path d="M22,30.00098c-.0083-.30664-.42432-1.17676-1-2.14746-.57617.9707-.9917,1.8418-1,2.14746,0,.55078.44873.99902,1,.99902s.99951-.44824,1-.99902Z"/>
        <path d="M42,14v1H12v-1c0-1.65002,1.34998-3,3-3h24c1.65002,0,3,1.34998,3,3Z"/>
        <path d="M33,8v1h-12v-1c0-.54999.45001-1,1-1h10c.54999,0,1,.45001,1,1Z"/>
        <path d="M29,35c-4.41113,0-8,3.58887-8,8s3.58887,8,8,8,8-3.58887,8-8-3.58887-8-8-8ZM22.29297,42.70703c-.39062-.39062-.39062-1.02344,0-1.41406s1.02344-.39062,1.41406,0l.43237.43237c.58636-2.69769,2.98969-4.72534,5.8606-4.72534h2c.55225,0,1,.44727,1,1s-.44775,1-1,1h-2c-1.54883,0-2.87988.89392-3.54413,2.18475.38837-.25818.90863-.23431,1.25116.10822.39062.39062.39062,1.02344,0,1.41406l-2,2c-.19531.19531-.45117.29297-.70703.29297s-.51172-.09766-.70703-.29297l-2-2ZM35.70703,44.70703c-.36295.36291-1.02207.39198-1.41406,0l-.43237-.43237c-.58636,2.69769-2.98969,4.72534-5.8606,4.72534h-2c-.55225,0-1-.44727-1-1s.44775-1,1-1h2c1.54883,0,2.87988-.89392,3.54413-2.18475-.38837.25818-.90863.23431-1.25116-.10822-.39062-.39062-.39062-1.02344,0-1.41406l2-2c.39062-.39062,1.02344-.39062,1.41406,0l2,2c.39053.39053.39062,1.02313,0,1.41406Z"/>
        <path d="M47,19c0,1.09998-.90002,2-2,2H9c-1.09998,0-2-.90002-2-2,0-1.10004.90002-2,2-2h36c1.09998,0,2,.89996,2,2Z"/>
        <path d="M56,27h-6v6h1v23c0,.55273.44775,1,1,1h4c.55225,0,1-.44727,1-1v-28c0-.55273-.44775-1-1-1Z"/>
        <path d="M10,23v3h4c.54999,0,1,.45001,1,1s-.45001,1-1,1h-4v2h4c.54999,0,1,.45001,1,1s-.45001,1-1,1h-4v2h4c.54999,0,1,.45001,1,1s-.45001,1-1,1h-4v2h4c.54999,0,1,.45001,1,1s-.45001,1-1,1h-4v2h4c.54999,0,1,.45001,1,1s-.45001,1-1,1h-4v2h4c.54999,0,1,.45001,1,1s-.45001,1-1,1h-4v2h4c.54999,0,1,.45001,1,1s-.45001,1-1,1h-4v2c0,1.64996,1.34998,3,3,3h28c1.65002,0,3-1.35004,3-3v-31H10ZM18,30c0-1.28003,1.52002-3.62,2.17999-4.57001.37-.53998,1.27002-.53998,1.64001,0,.65997.95001,2.17999,3.28998,2.17999,4.57001,0,1.64996-1.34998,3-3,3s-3-1.35004-3-3ZM29,53c-5.51001,0-10-4.48999-10-10s4.48999-10,10-10,10,4.48999,10,10-4.48999,10-10,10ZM37,33c-1.65002,0-3-1.35004-3-3,0-1.28003,1.52002-3.62,2.17999-4.57001.37-.53998,1.27002-.53998,1.64001,0,.65997.95001,2.17999,3.28998,2.17999,4.57001,0,1.64996-1.34998,3-3,3Z"/>
        <path d="M36,30.00098c0,.55078.44873.99902,1,.99902s.99951-.44824,1-.99902c-.0083-.30664-.42432-1.17676-1-2.14746-.57617.9707-.9917,1.8418-1,2.14746Z"/>
        <path d="M48,25v10c0,.54999-.45001,1-1,1h-1v-12h1c.54999,0,1,.45001,1,1Z"/>
      </g>
    </g>
  </g>
</svg>