<?xml version="1.0" encoding="utf-8"?>
<!-- Generator: Adobe Illustrator 27.3.1, SVG Export Plug-In . SVG Version: 6.00 Build 0)  -->
<svg version="1.1" id="Glyph" xmlns="http://www.w3.org/2000/svg" xmlns:xlink="http://www.w3.org/1999/xlink" x="0px" y="0px"
	 viewBox="0 0 64 64" enable-background="new 0 0 64 64" xml:space="preserve">
<g>
	<path d="M49.7002,45.36621c-1.29492-0.74707-2.90527-0.74609-4.2002,0c-1.91113,1.10156-4.28711,1.10254-6.2002,0
		c-1.29492-0.74707-2.90527-0.74609-4.2002,0C34.14355,45.91797,33.07129,46.19336,32,46.19385
		c-1.07227,0-2.14355-0.27588-3.09961-0.82764c-1.29492-0.74707-2.90527-0.74805-4.2002,0
		c-1.91211,1.10156-4.28809,1.10254-6.2002,0c-1.29395-0.74658-2.9043-0.74756-4.2002,0c-1.91211,1.10352-4.28613,1.10352-6.2002,0
		L7,44.73175v3.69055l2.09961,1.21149c1.29492,0.74707,2.90527,0.74805,4.2002,0c1.91113-1.10254,4.28711-1.10352,6.2002,0
		c1.29395,0.74658,2.9043,0.74756,4.2002,0c1.91211-1.10352,4.28613-1.10352,6.2002,0c1.2959,0.74805,2.90527,0.74805,4.19922,0
		c1.91211-1.10254,4.28809-1.10352,6.2002,0c1.2959,0.74805,2.90625,0.74707,4.2002,0c1.91016-1.10254,4.28613-1.10352,6.2002,0
		c1.2959,0.74805,2.90625,0.74707,4.2002,0L57,48.4223v-3.69055l-1.09961,0.63446
		C53.98828,46.46875,51.6123,46.46973,49.7002,45.36621z"/>
	<path d="M56.48438,36.12549c-0.31641-0.17725-0.70605-0.16602-1.01465,0.02637l-2.40039,1.50049
		c-1.13477,0.71045-2.60254,0.70947-3.73926,0c-1.7793-1.11328-4.0791-1.11279-5.86035-0.00049
		c-1.13574,0.71045-2.60352,0.71143-3.73926,0c-1.78125-1.1123-4.08105-1.11328-5.86035,0
		c-1.13672,0.71094-2.60352,0.71045-3.74023,0.00049c-1.7793-1.11328-4.0791-1.11426-5.86035,0
		c-1.13574,0.71045-2.60352,0.70996-3.73926-0.00049c-1.78027-1.1123-4.08008-1.11328-5.86035,0
		c-1.13574,0.71045-2.60352,0.71045-3.73926,0l-2.40039-1.5c-0.30957-0.19238-0.69922-0.2041-1.01465-0.02637
		C7.19727,36.30176,7,36.63672,7,37v5.4223l2.09961,1.21149c1.29492,0.74707,2.90527,0.74805,4.2002,0
		c1.91113-1.10254,4.28711-1.10352,6.2002,0c1.29395,0.74658,2.9043,0.74756,4.2002,0c1.91211-1.10352,4.28613-1.10352,6.2002,0
		c1.2959,0.74805,2.90527,0.74805,4.19922,0c1.91211-1.10254,4.28809-1.10352,6.2002,0c1.2959,0.74805,2.90625,0.74707,4.2002,0
		c1.91016-1.10254,4.28613-1.10352,6.2002,0c1.2959,0.74805,2.90625,0.74707,4.2002,0L57,42.4223V37
		C57,36.63672,56.80273,36.30176,56.48438,36.12549z"/>
	<path d="M49.7002,51.36621c-1.29492-0.74707-2.90527-0.74609-4.2002,0c-1.91113,1.10156-4.28711,1.10254-6.2002,0
		c-1.29492-0.74707-2.90527-0.74609-4.2002,0C34.14355,51.91797,33.07129,52.19336,32,52.19385
		c-1.07227,0-2.14355-0.27588-3.09961-0.82764c-1.29492-0.74707-2.90527-0.74805-4.2002,0
		c-1.91211,1.10156-4.28809,1.10254-6.2002,0c-1.29395-0.74658-2.9043-0.74756-4.2002,0c-1.91211,1.10352-4.28613,1.10352-6.2002,0
		L7,50.73175V56c0,0.55225,0.44727,1,1,1h48c0.55273,0,1-0.44775,1-1v-5.26825l-1.09961,0.63446
		C53.98828,52.46875,51.6123,52.46973,49.7002,51.36621z"/>
	<path d="M17.10999,34.83997c0.16003-0.01001,0.33002-0.01996,0.48999-0.01996c1.42004,0,2.80005,0.38995,3.99005,1.13995
		c0.48785,0.3075,1.13214,0.30743,1.62,0c1.19-0.75,2.57001-1.13995,3.98999-1.13995S30,35.20996,31.19,35.95996
		c0.48889,0.3056,1.13013,0.30872,1.62012-0.00006c1.18994-0.75,2.56995-1.13989,3.98987-1.13989
		c1.41998,0,2.79999,0.38995,3.98999,1.13995c0.48303,0.30188,1.13593,0.30505,1.62018-0.00012
		c1.19-0.74994,2.56989-1.13983,3.98987-1.13983c0.15997,0,0.32996,0.00995,0.48999,0.01996C46.34998,32.07996,43.90997,30,41,30H23
		C20.09003,30,17.65002,32.07996,17.10999,34.83997z"/>
	<path d="M26,26c-1.29999,0-2.40997,0.83997-2.82001,2h5.64001C28.40997,26.83997,27.29999,26,26,26z"/>
	<path d="M38,26c-1.29999,0-2.40997,0.83997-2.82001,2h5.64001C40.40997,26.83997,39.29999,26,38,26z"/>
	<path d="M28,19c0.55176,0,1-0.44873,1-1v-4c0-0.55127-0.44824-1-1-1s-1,0.44873-1,1v4C27,18.55127,27.44824,19,28,19z"/>
	<path d="M14,25h36c0.55273,0,1-0.44775,1-1V8c0-0.55225-0.44727-1-1-1H14c-0.55273,0-1,0.44775-1,1v16
		C13,24.55225,13.44727,25,14,25z M43,12c0-0.55225,0.44727-1,1-1s1,0.44775,1,1v5c0,0.55225-0.44727,1-1,1s-1-0.44775-1-1V12z
		 M44,19c0.55231,0,1,0.44769,1,1c0,0.55225-0.44769,1-1,1s-1-0.44775-1-1C43,19.44769,43.44769,19,44,19z M40,12
		c0-0.55225,0.44727-1,1-1s1,0.44775,1,1v5c0,0.55225-0.44727,1-1,1s-1-0.44775-1-1V12z M41,19c0.55231,0,1,0.44769,1,1
		c0,0.55225-0.44769,1-1,1s-1-0.44775-1-1C40,19.44769,40.44769,19,41,19z M35,17c-1.6543,0-3-1.3457-3-3s1.3457-3,3-3s3,1.3457,3,3
		c0,0.55225-0.44727,1-1,1s-1-0.44775-1-1c0-0.55127-0.44824-1-1-1s-1,0.44873-1,1s0.44824,1,1,1c1.6543,0,3,1.3457,3,3
		s-1.3457,3-3,3s-3-1.3457-3-3c0-0.55225,0.44727-1,1-1s1,0.44775,1,1c0,0.55127,0.44824,1,1,1s1-0.44873,1-1S35.55176,17,35,17z
		 M25,14c0-1.6543,1.3457-3,3-3s3,1.3457,3,3v4c0,1.6543-1.3457,3-3,3s-3-1.3457-3-3V14z M21,17c-1.6543,0-3-1.3457-3-3
		s1.3457-3,3-3s3,1.3457,3,3c0,0.55225-0.44727,1-1,1s-1-0.44775-1-1c0-0.55127-0.44824-1-1-1s-1,0.44873-1,1s0.44824,1,1,1
		c1.6543,0,3,1.3457,3,3s-1.3457,3-3,3s-3-1.3457-3-3c0-0.55225,0.44727-1,1-1s1,0.44775,1,1c0,0.55127,0.44824,1,1,1s1-0.44873,1-1
		S21.55176,17,21,17z"/>
</g>
</svg>
