<?xml version="1.0" encoding="utf-8"?>
<!-- Generator: Adobe Illustrator 28.2.0, SVG Export Plug-In . SVG Version: 6.00 Build 0)  -->
<svg version="1.1" id="Glyph" xmlns="http://www.w3.org/2000/svg" xmlns:xlink="http://www.w3.org/1999/xlink" x="0px" y="0px"
	 viewBox="0 0 64 64" enable-background="new 0 0 64 64" xml:space="preserve">
<g>
	<path d="M56,55H8c-0.55225,0-1,0.44727-1,1s0.44775,1,1,1h48c0.55225,0,1-0.44727,1-1S56.55225,55,56,55z"/>
	<path d="M35,53h4.53998l-2.79999-17.85999C35.48999,36.29999,33.83002,37,32,37s-3.48999-0.70001-4.73999-1.85999l-1.25,7.94995
		c0.70996,0.12,1.39996,0.37,2.02997,0.73999c1.31,0.76001,2.26001,2,2.70001,3.43005C33.20001,48,35,50.29999,35,53z"/>
	<path d="M53.41998,38.89996l-1.5,2.60004c-0.27997,0.47998-0.92999,0.62-1.37,0.37c-0.04999-0.04004-14.71997-8.5-14.71997-8.5
		c-0.04004-0.02002-0.06-0.06-0.09003-0.08002C34.82001,34.32996,33.48999,35,32,35s-2.82001-0.67004-3.73999-1.71002
		c-0.03003,0.02002-0.04999,0.06-0.09003,0.08002l-14.71997,8.5c-0.48004,0.27002-1.10999,0.07001-1.37-0.37
		c0-0.01001-1.5-2.60004-1.5-2.60004C10.34998,38.5,10.41998,38,10.75,37.67999l8.89001-8.60004
		c0.20996-0.18994,0.46997-0.28998,0.76001-0.26996c0.27997,0.01001,0.52997,0.14001,0.70996,0.35999L24.44,33.20996L27.16998,31.63
		c0.04004-0.02002,0.08002-0.02002,0.11005-0.04004C27.10999,31.08997,27,30.56,27,30c0-2.42004,1.72998-4.44,4.02002-4.90002
		C31.02002,25.06,31,25.03998,31,25v-3.15002l-5.15997-0.85999c-0.28003-0.04999-0.52002-0.21002-0.68005-0.44
		c-0.14996-0.23999-0.19995-0.52002-0.12994-0.78998l3-12C28.14001,7.31,28.53998,7,29,7h3c0.54999,0,1,0.45001,1,1v17
		c0,0.03998-0.02002,0.06-0.02002,0.09998C35.27002,25.56,37,27.57996,37,30c0,0.56-0.10999,1.08997-0.28003,1.59998
		c0.03003,0.01001,0.07001,0.01001,0.11005,0.03003L39.56,33.20996l3.33002-4.03998
		c0.17999-0.21997,0.42999-0.34998,0.70996-0.35999c0.28003-0.02002,0.55005,0.08002,0.76001,0.26996L53.25,37.67999
		C53.58002,38,53.65002,38.5,53.41998,38.89996z"/>
	<path d="M8,16h12c1.6543,0,3-1.3457,3-3s-1.3457-3-3-3h-3c-0.55225,0-1,0.44727-1,1s0.44775,1,1,1h3c0.55127,0,1,0.44824,1,1
		s-0.44873,1-1,1H8c-0.55225,0-1,0.44727-1,1S7.44775,16,8,16z"/>
	<path d="M8,24h7c1.6543,0,3-1.3457,3-3s-1.3457-3-3-3h-3c-0.55225,0-1,0.44727-1,1s0.44775,1,1,1h3c0.55127,0,1,0.44824,1,1
		s-0.44873,1-1,1H8c-0.55225,0-1,0.44727-1,1S7.44775,24,8,24z"/>
	<path d="M8,12h5c0.55225,0,1-0.44727,1-1s-0.44775-1-1-1H8c-0.55225,0-1,0.44727-1,1S7.44775,12,8,12z"/>
	<path d="M27.02002,45.54999C26.40997,45.19,25.71002,45,25,45c-1.90002,0-3.48999,1.32996-3.90002,3.10999
		c-0.08997,0.02002-0.17999,0.03998-0.26996,0.07001C20.09003,47.42999,19.08002,47,18,47c-1.44,0-2.76001,0.78998-3.46002,2.02997
		C12.54999,49.26001,11,50.95001,11,53h22c0-2.21002-1.78998-4-4-4C29,47.57996,28.23999,46.26001,27.02002,45.54999z"/>
	<circle cx="48.3916" cy="16" r="1"/>
	<path d="M40.21826,17.64648c-0.36572,0.25098-0.52295,0.71191-0.38623,1.13379s0.52686,0.68945,0.97852,0.69141
		c0.68066-0.03027,1.27783,0.28125,1.6709,0.82227s0.48975,1.21289,0.26562,1.84277
		c-0.14844,0.41797-0.00391,0.88379,0.35449,1.14355c0.35986,0.2627,0.84668,0.25488,1.19775-0.0166
		c0.53027-0.40723,1.20068-0.52344,1.83447-0.31641c0.63623,0.20703,1.10938,0.69336,1.29834,1.33496
		C47.55762,24.70801,47.94824,25,48.3916,25s0.83398-0.29199,0.95947-0.71777c0.18896-0.6416,0.66211-1.12793,1.29785-1.33496
		c0.6377-0.20703,1.30518-0.0918,1.83496,0.31738c0.35156,0.26953,0.83936,0.27637,1.19775,0.01562
		c0.35889-0.26074,0.50293-0.72656,0.354-1.14355c-0.22412-0.62988-0.12695-1.30078,0.26562-1.8418
		c0.39307-0.54199,0.99902-0.8623,1.67139-0.82324c0.46729,0.01855,0.8418-0.26953,0.97852-0.69141
		s-0.02051-0.88281-0.38623-1.13379C56.01318,17.26855,55.69727,16.66895,55.69727,16s0.31592-1.26855,0.86768-1.64648
		c0.36572-0.25098,0.52295-0.71191,0.38623-1.13379c-0.13721-0.4209-0.50537-0.68945-0.97852-0.69141
		c-0.68604,0.04102-1.27832-0.28125-1.67139-0.82324c-0.39258-0.54102-0.48975-1.21191-0.26562-1.8418
		c0.14893-0.41699,0.00488-0.88281-0.354-1.14355c-0.35742-0.26074-0.84521-0.25391-1.19775,0.01562
		c-0.52979,0.4082-1.19873,0.52441-1.83496,0.31738c-0.63574-0.20703-1.10889-0.69336-1.29785-1.33496
		C49.22559,7.29199,48.83496,7,48.3916,7s-0.83398,0.29199-0.95947,0.71777c-0.18896,0.6416-0.66211,1.12793-1.29834,1.33496
		c-0.6333,0.20801-1.30322,0.09082-1.83447-0.31641c-0.35205-0.27148-0.83887-0.27832-1.19775-0.0166
		c-0.3584,0.25977-0.50293,0.72559-0.35449,1.14355c0.22412,0.62988,0.12744,1.30176-0.26562,1.84277
		s-1.00342,0.86719-1.6709,0.82227c-0.46387,0.00586-0.84131,0.27051-0.97852,0.69141
		c-0.13672,0.42188,0.02051,0.88281,0.38623,1.13379c0.55176,0.37793,0.86768,0.97754,0.86768,1.64648
		S40.77002,17.26855,40.21826,17.64648z M48.3916,13c1.6543,0,3,1.3457,3,3s-1.3457,3-3,3s-3-1.3457-3-3S46.7373,13,48.3916,13z"/>
</g>
</svg>
