<?xml version="1.0" encoding="UTF-8"?>
<svg xmlns="http://www.w3.org/2000/svg" version="1.1" viewBox="0 0 64 64">
  <!-- Generator: Adobe Illustrator 28.7.1, SVG Export Plug-In . SVG Version: 1.2.0 Build 142)  -->
  <g>
    <g id="Outline">
      <g>
        <path d="M53.5,28c1.65002,0,3-1.35004,3-3,0-1.16003-.66998-2.16003-1.63-2.66003-.01001-1.06-.23999-2.01001-.71997-2.83997-1.55005-2.67999-5.33002-3.79004-10.62-3.10004-.73004.09003-1.48004.23004-2.25.39001-.64001-1.95001-1.42004-3.67999-2.29004-5.12.32001-.47998.51001-1.04999.51001-1.66998,0-1.65002-1.34998-3-3-3-.63,0-1.21002.20001-1.69.52997-.75-.34998-1.52002-.52997-2.31-.52997-3.63,0-6.79999,3.82001-8.79999,9.82001-1.51001-.32001-2.96002-.51001-4.31-.57001-.33002-1.29004-1.5-2.25-2.89001-2.25-1.65002,0-3,1.34998-3,3,0,.06.01001.10999.02002.16998-1.17999.54999-2.08002,1.32001-2.67004,2.33002-.79999,1.39001-.94995,3.07001-.42999,5,.62,2.32996,2.21002,4.90997,4.51001,7.5-2.29999,2.58997-3.89001,5.16998-4.51001,7.5-.51996,1.92999-.37,3.60999.42999,5,.69,1.19,1.80005,2.07001,3.3106,2.62021.51637.18719,1.09085-.0842,1.27943-.60025.19-.51996-.08002-1.08997-.59998-1.27997-1.05005-.38-1.81-.97003-2.25-1.73999-.53003-.92004-.61005-2.09003-.24005-3.48004.53003-2,1.94-4.25995,3.97003-6.56,1.59998,1.60004,3.45001,3.18005,5.5,4.69.27997,2.57001.72998,4.97003,1.31,7.14001-1.62.32001-3.16998.51001-4.56.51001h-.07001c-.54999,0-1,.45001-1,1s.44,1,1,1h.07001c1.57001,0,3.31-.22003,5.14001-.59998,1.98999,5.98999,5.15997,9.79999,8.78998,9.79999,1.57001,0,3.09998-.71002,4.46002-2.06.16998.03998.34998.06.53998.06,1.65002,0,3-1.35004,3-3,0-.60004-.17999-1.15002-.47998-1.60999.45996-.99005.88995-2.04004,1.26996-3.18005.76001.16003,1.51001.30005,2.24005.39001,1.02997.13,2,.20001,2.90997.20001,3.76001,0,6.46002-1.14001,7.71002-3.29999.79999-1.39001.94995-3.07001.42999-5-.62-2.33002-2.21002-4.91003-4.51001-7.5,1.21002-1.35999,2.21997-2.72003,3-4.04004.14001.02002.27997.04004.42999.04004ZM40.96002,24.29999c-.96002-.62-1.94-1.23999-2.96002-1.83002-1.02002-.57996-2.04999-1.12-3.08002-1.64001,1.70001-.67999,3.37-1.23999,4.98999-1.66998.43005,1.60004.79004,3.33002,1.05005,5.14001ZM36.5,9c.54999,0,1,.45001,1,1s-.45001,1-1,1-1-.45001-1-1,.45001-1,1-1ZM32.5,9c.38,0,.75.07001,1.12.20001-.07001.25995-.12.51996-.12.79999,0,1.64996,1.34998,3,3,3,.29999,0,.59003-.06.87-.14001.73999,1.23999,1.40002,2.71997,1.96002,4.39001-2.21002.57996-4.51001,1.40997-6.84003,2.44-2.33002-1.02002-4.64001-1.84003-6.83997-2.42004,1.75995-5.20996,4.34998-8.26996,6.84998-8.26996ZM25.08002,19.15997c1.60999.42999,3.27997.98999,4.98999,1.66998-1.03003.52002-2.04999,1.06006-3.07001,1.64001-1.02002.59003-2.01001,1.21002-2.96997,1.84003.25995-1.85999.62-3.58002,1.04999-5.15002ZM16.5,16c.54999,0,1,.45001,1,1s-.45001,1-1,1-1-.45001-1-1,.45001-1,1-1ZM21.59998,35.45996c-1.42999-1.13-2.75-2.28998-3.90997-3.45996,1.15997-1.17004,2.47998-2.33002,3.90997-3.46002-.06,1.13-.09998,2.28003-.09998,3.46002s.03998,2.32996.09998,3.45996ZM21.82001,25.84998c-2.04999,1.51001-3.90002,3.09003-5.5,4.69-2.03003-2.29999-3.44-4.56-3.97003-6.56-.37-1.39001-.28998-2.56.24005-3.47998.35999-.62.92999-1.12,1.69995-1.48999.54004.59998,1.33002.98999,2.21002.98999,1.21002,0,2.25-.73004,2.72998-1.76001,1.22003.03998,2.52002.20001,3.90002.47998-.58002,2.17004-1.03003,4.56-1.31,7.13ZM24.03003,39.69c.95996.63,1.94995,1.25,2.96997,1.83997,1.02002.58002,2.03998,1.12,3.07001,1.64001-1.71002.67999-3.38,1.25-4.98999,1.66998-.42999-1.57001-.79004-3.28998-1.04999-5.14996ZM37.5,53c-.54999,0-1-.45001-1-1s.45001-1,1-1,1,.45001,1,1-.45001,1-1,1ZM38.39001,49.14996c-.28003-.08997-.58002-.14996-.89001-.14996-1.65002,0-3,1.34998-3,3,0,.70996.26001,1.35999.66998,1.87-.85999.75-1.76001,1.13-2.66998,1.13-2.5,0-5.09003-3.06-6.84998-8.25,2.20996-.59003,4.51996-1.41003,6.84998-2.44,2.33002,1.02997,4.63,1.85999,6.83002,2.44-.28003.85999-.60004,1.64996-.94,2.39996ZM39.90997,44.83997c-1.60999-.41998-3.27997-.98999-4.97998-1.66998,1.03003-.52002,2.04999-1.06,3.07001-1.64001,1.01001-.58997,1.98999-1.20001,2.95001-1.82996-.26001,1.81-.60004,3.53998-1.04004,5.13995ZM41.46002,33.96997c-.03003,1.04999-.11005,2.08002-.20001,3.10004-1.35004.94995-2.77002,1.85999-4.26001,2.71997-1.48999.87-3,1.64001-4.5,2.33002-1.5-.69-3.01001-1.46002-4.5-2.33002-1.48999-.85999-2.92999-1.77997-4.28003-2.73999-.13995-1.59998-.21997-3.28998-.21997-5.04999s.08002-3.45001.21997-5.04999c1.35004-.96002,2.79004-1.88,4.28003-2.74005,1.48999-.87,3-1.63995,4.48999-2.32996,1.51001.69,3.02002,1.45996,4.51001,2.32996,1.48999.86005,2.91998,1.77002,4.27002,2.73004.08997,1.01001.15997,2.04999.19,3.08997.01996.54004.45996.97003,1,.97003h.02997c.56-.02002.98999-.48004.97003-1.03003-.02002-.47998-.04004-.95996-.07001-1.42999,1.44,1.13,2.76001,2.29999,3.92999,3.47003-1.16998,1.17999-2.48999,2.34998-3.94,3.47998.02997-.47998.06-.96002.08002-1.46002.01996-.54999-.42004-1.01001-.97003-1.02997-.53998-.04004-1.01001.41998-1.02997.96997ZM52.65002,40.01996c.37,1.39001.28998,2.56-.24005,3.48004-1.09998,1.90997-4.23999,2.69-8.62,2.12-.63-.08002-1.26996-.19-1.91998-.32001.59003-2.19,1.02002-4.59998,1.28998-7.13,2.06-1.51001,3.92004-3.09003,5.52002-4.70001,2.03003,2.29004,3.44,4.56,3.97003,6.54999ZM51.29999,27.02997c-.67999,1.15002-1.56,2.33002-2.60999,3.52002-1.59998-1.60999-3.46002-3.19-5.52002-4.70001-.27997-2.53998-.72998-4.95001-1.32001-7.14001.66003-.13,1.31-.25,1.94-.32996,4.37-.57001,7.52002.20996,8.63,2.13.26001.44.40002.96997.44,1.56-1.34998.29999-2.35999,1.5-2.35999,2.92999,0,.77997.31,1.48999.79999,2.02997ZM52.5,25c0-.54999.45001-1,1-1s1,.45001,1,1-.45001,1-1,1-1-.45001-1-1Z"/>
        <path d="M34.5,28c-.17676,0-.35303.01172-.52832.03613-.69629-1.23438-2.01416-2.03613-3.47168-2.03613-2.20557,0-4,1.79395-4,4,0,.70508.19043,1.39355.54541,2-.35498.60645-.54541,1.29492-.54541,2,0,2.20605,1.79443,4,4,4,1.45752,0,2.77539-.80176,3.47168-2.03613.17529.02441.35156.03613.52832.03613,2.20557,0,4-1.79395,4-4s-1.79443-4-4-4ZM33.75635,33.85254c-.26416-.10742-.5625-.09473-.81836.0332-.25537.12695-.44434.35742-.51904.63379-.23584.87109-1.0249,1.48047-1.91895,1.48047-1.10303,0-2-.89746-2-2,0-.48535.18506-.95703.52148-1.33105.34229-.37988.34229-.95801,0-1.33789-.33643-.37402-.52148-.8457-.52148-1.33105,0-1.10254.89697-2,2-2,.89404,0,1.68311.60938,1.91895,1.48047.07471.27637.26367.50684.51904.63379.25586.12891.5542.1416.81836.0332,1.33105-.53223,2.74365.50195,2.74365,1.85254s-1.41211,2.38477-2.74365,1.85254Z"/>
        <path d="M45.5,49c-1.6543,0-3,1.3457-3,3s1.3457,3,3,3,3-1.3457,3-3-1.3457-3-3-3ZM45.5,53c-.55127,0-1-.44824-1-1s.44873-1,1-1,1,.44824,1,1-.44873,1-1,1Z"/>
        <path d="M12.5,51c-.33838,0-.67676.06055-1,.17773-.32324-.11719-.66162-.17773-1-.17773-1.6543,0-3,1.3457-3,3s1.3457,3,3,3c.33838,0,.67676-.06055,1-.17773.32324.11719.66162.17773,1,.17773,1.6543,0,3-1.3457,3-3s-1.3457-3-3-3ZM12.00342,54.8584c-.15527-.09082-.32959-.13574-.50342-.13574s-.34814.04492-.50342.13574c-.68848.40137-1.49658-.1377-1.49658-.8584.00049-.71973.80859-1.25781,1.49658-.8584.31055.18164.69629.18164,1.00684,0,.68896-.40039,1.49658.13867,1.49658.8584,0,.7207-.80713,1.25977-1.49658.8584Z"/>
        <path d="M20.5,49c-1.6543,0-3,1.3457-3,3s1.3457,3,3,3,3-1.3457,3-3-1.3457-3-3-3ZM20.5,53c-.55127,0-1-.44824-1-1s.44873-1,1-1,1,.44824,1,1-.44873,1-1,1Z"/>
      </g>
    </g>
  </g>
</svg>