<?xml version="1.0" encoding="UTF-8"?>
<svg xmlns="http://www.w3.org/2000/svg" version="1.1" viewBox="0 0 48 48">
  <!-- Generator: Adobe Illustrator 28.7.1, SVG Export Plug-In . SVG Version: 1.2.0 Build 142)  -->
  <g>
    <g id="Outline">
      <g>
        <path d="M37.94727,17.05225c-1.15039-1.14941-3.09473-1.1499-4.24414.00049l-2.86584,2.86584-.76611-1.72406c.79297-.92511,1.37183-2.01245,1.67554-3.19452h4.2533c.55225,0,1-.44775,1-1,0-1.87842-.72998-3.63672-2.04932-4.94434-1.31396-1.32568-3.07227-2.05566-4.95068-2.05566h-.72626c-1.40973-1.24066-3.25269-2-5.27374-2s-3.86401.75934-5.27374,2h-.72626c-1.87842,0-3.63672.72998-4.94434,2.04932-1.32568,1.31396-2.05566,3.07227-2.05566,4.95068,0,.55225.44775,1,1,1h4.2533c.30371,1.18207.88257,2.26941,1.67554,3.19452l-.76611,1.72406-2.86584-2.86584c-1.14941-1.15039-3.09375-1.1499-4.24414.00049-1.1626,1.16211-1.16455,3.06396,0,4.24365l4.49866,4.49823-3.46545,7.79865c-.11426.25781-.11475.55176-.00098.80957s.33105.45605.59863.54541c1.41602.47253,2.85834.85699,4.31641,1.16107v3.8902c0,1.6543,1.3457,3,3,3s3-1.3457,3-3v-3.12006c.66626.03387,1.33295.05707,2,.05707s1.33374-.02319,2-.05707v3.12006c0,1.6543,1.3457,3,3,3s3-1.3457,3-3v-3.8902c1.45807-.30408,2.90039-.68854,4.31641-1.16107.26758-.08936.48486-.2876.59863-.54541s.11328-.55176-.00098-.80957l-3.46545-7.79865,4.50354-4.50262c1.15918-1.1748,1.15723-3.07666-.00488-4.24023ZM34.90137,13h-2.90137c0-1.41809-.37476-2.74872-1.02466-3.90497.96637.18951,1.85223.66003,2.56079,1.37518.70459.69775,1.17285,1.57324,1.36523,2.52979ZM29.90967,12h-.98389c-2.16455,0-3.92578-1.76123-3.92578-3.92578v-.98389c2.50714.42328,4.48639,2.40253,4.90967,4.90967ZM23,7.09033v.98389c0,2.16455-1.76123,3.92578-3.92578,3.92578h-.98389c.42328-2.50714,2.40253-4.48639,4.90967-4.90967ZM13.09912,13c.19238-.95703.66162-1.8335,1.37109-2.53613.70374-.71039,1.58838-1.17969,2.5545-1.3689-.64996,1.15625-1.02472,2.48688-1.02472,3.90503h-2.90088ZM11.47168,19.88721c-.39697-.40186-.39893-1.02539-.00488-1.41992.37793-.37695,1.03906-.37744,1.41602-.00049l3.40985,3.40985-.87115,1.96039-3.94983-3.94983ZM20,40c0,.55127-.44873,1-1,1s-1-.44873-1-1v-3.52734c.66437.10266,1.33148.18451,2,.25287v3.27448ZM30,40c0,.55127-.44873,1-1,1s-1-.44873-1-1v-3.27448c.66852-.06836,1.33563-.15021,2-.25287v3.52734ZM13.36768,33.38477l6.12567-13.78455c.04468.03052.0838.06683.12921.09656.45996.30176,1.08154.17334,1.38428-.28955.30225-.46191.17285-1.08154-.28955-1.38428-1.41693-.92725-2.34851-2.3877-2.62366-4.02295h.98059c2.05145,0,3.86169-1.0484,4.92578-2.63684,1.06409,1.58844,2.87433,2.63684,4.92578,2.63684h.98059c-.27515,1.63525-1.20673,3.0957-2.62366,4.02295-.4624.30273-.5918.92236-.28955,1.38428.29779.45514.9295.58746,1.38428.28955.04541-.02972.08453-.06604.12921-.09656l6.12567,13.78455c-6.89746,2.07031-14.36719,2.07031-21.26465,0ZM36.5332,19.88281l-3.95465,3.95428-.87122-1.96045,3.40985-3.40985c.37695-.37695,1.03857-.37695,1.41553,0,.39453.39453.39258,1.01855.00049,1.41602Z"/>
        <circle cx="24" cy="20" r="1"/>
      </g>
    </g>
  </g>
</svg>