<?xml version="1.0" encoding="UTF-8"?>
<svg xmlns="http://www.w3.org/2000/svg" version="1.1" viewBox="0 0 64 64">
  <!-- Generator: Adobe Illustrator 28.7.1, SVG Export Plug-In . SVG Version: 1.2.0 Build 142)  -->
  <g>
    <g id="Outline">
      <g>
        <path d="M34,18c2.20557,0,4-2.24316,4-5s-1.79443-5-4-5-4,2.24316-4,5,1.79443,5,4,5ZM34,10c1.08398,0,2,1.37402,2,3s-.91602,3-2,3-2-1.37402-2-3,.91602-3,2-3Z"/>
        <path d="M26,15c1.68213,0,3-1.75684,3-4s-1.31787-4-3-4-3,1.75684-3,4,1.31787,4,3,4ZM26,9c.40771,0,1,.7793,1,2s-.59229,2-1,2-1-.7793-1-2,.59229-2,1-2Z"/>
        <path d="M19,17c1.68213,0,3-1.75684,3-4s-1.31787-4-3-4-3,1.75684-3,4,1.31787,4,3,4ZM19,11c.40771,0,1,.7793,1,2s-.59229,2-1,2-1-.7793-1-2,.59229-2,1-2Z"/>
        <path d="M13,14c-1.68213,0-3,1.75684-3,4s1.31787,4,3,4,3-1.75684,3-4-1.31787-4-3-4ZM13,20c-.40771,0-1-.7793-1-2s.59229-2,1-2,1,.7793,1,2-.59229,2-1,2Z"/>
        <path d="M51,31h-6c-.54999,0-1,.45001-1,1s.45001,1,1,1h6c.54999,0,1,.45001,1,1v20c0,.54999-.45001,1-1,1h-10v-2h1c2.76001,0,5-2.23999,5-5v-2c0-.54999-.45001-1-1-1h-2c-1.13,0-2.15997.39001-3,1.02997v-1.13l1.12-1.12c1.95001-1.95001,1.95001-5.12,0-7.07001l-1.40997-1.41998c-.39001-.39001-1.03003-.39001-1.42004,0l-1.40997,1.41998c-1.95001,1.95001-1.95001,5.12,0,7.07001l1.12,1.12v1.13c-.84003-.63995-1.87-1.02997-3-1.02997h-2c-.54999,0-1,.45001-1,1v2c0,2.76001,2.23999,5,5,5h1v2h-10c-.54999,0-1-.45001-1-1v-20c0-.54999.45001-1,1-1h12c.54999,0,1-.45001,1-1s-.45001-1-1-1h-7.71997l.21997-.5c1.35999-3,1.12-6.44-.66998-9.21002-1.79004-2.77997-4.79999-4.44-8.07001-4.44-.44,0-.85004.03003-1.23999.08002-2.57001.32001-4.87,1.62-6.45001,3.66998-1.59003,2.04999-2.27002,4.60004-1.92999,7.16003l1.21997,9.37c.06.5.48999.87.98999.87.04004,0,.09003,0,.13-.01001.55005-.07001.92999-.57001.86005-1.12l-1.22003-9.37c-.27002-2.03003.28003-4.04999,1.53003-5.67004,1.25995-1.62994,3.06995-2.65997,5.12-2.91998.32001-.03998.63995-.06.98999-.06,2.58002,0,4.96997,1.32001,6.39001,3.52002,1.42999,2.22998,1.63,4.89001.52997,7.31l-.48999,1.08002c-.03998.07996-.07001.15997-.09998.23999h-2.09003c-1.65002,0-3,1.34998-3,3v20c0,.29999.06.58997.14001.87-.44.08002-.88.13-1.34003.13-2.09998,0-4.06-.94-5.38-2.57001s-1.82996-3.75-1.38995-5.81l.34998-1.60004c.27997-1.31995.40997-2.67999.38-4.03998-.01001-.56-.5-1.02002-1.02002-.97998-.56.01001-.98999.46997-.97998,1.01996.02997,1.21002-.09003,2.41003-.34003,3.58002l-.34998,1.60004c-.56,2.65997.08997,5.38995,1.79999,7.48999,1.70001,2.09998,4.22998,3.31,6.92999,3.31.92999,0,1.83002-.15002,2.70001-.42004.44.26001.95001.42004,1.5.42004h22c1.65002,0,3-1.35004,3-3v-20c0-1.65002-1.34998-3-3-3ZM39,51h-1c-1.65002,0-3-1.35004-3-3v-1h1c1.65002,0,3,1.34998,3,3v1ZM44,47h1v1c0,1.64996-1.34998,3-3,3h-1v-1c0-1.65002,1.34998-3,3-3ZM40,43.07001l-.71002-.71002c-1.16998-1.16998-1.16998-3.07001,0-4.23999l.71002-.71002.71002.71002c1.16998,1.16998,1.16998,3.07001,0,4.23999l-.71002.71002Z"/>
      </g>
    </g>
  </g>
</svg>