<?xml version="1.0" encoding="UTF-8"?>
<svg xmlns="http://www.w3.org/2000/svg" version="1.1" viewBox="0 0 64 64">
  <!-- Generator: Adobe Illustrator 28.7.1, SVG Export Plug-In . SVG Version: 1.2.0 Build 142)  -->
  <g>
    <g id="Outline">
      <g>
        <path d="M52,21c-2.20557,0-4,1.79395-4,4,0,1.00549.38544,1.91437,1,2.6178v8.3822c0,.55176-.44873,1-1,1h-11.91309c-1.00195,0-1.93311.49707-2.4917,1.3291l-7.53174,11.22852c-.18604.27734-.49609.44238-.83008.44238h-4.6156c-.70349-.61462-1.61243-1-2.6178-1-2.20557,0-4,1.79395-4,4s1.79443,4,4,4c1.00537,0,1.91431-.38538,2.6178-1h6.74548c1.00195,0,1.93311-.49707,2.4917-1.3291l7.53125-11.22754c.18604-.27734.49658-.44336.83057-.44336h13.7832c1.6543,0,3-1.3457,3-3v-12.3822c.61456-.70343,1-1.6123,1-2.6178,0-2.20605-1.79443-4-4-4ZM52,23c1.10303,0,2,.89746,2,2s-.89697,2-2,2-2-.89746-2-2,.89697-2,2-2ZM16,53c0-1.10254.89697-2,2-2s2,.89746,2,2-.89697,2-2,2-2-.89746-2-2ZM52,41h-13.7832c-1.00195,0-1.93311.49707-2.4917,1.3291l-7.53125,11.22754c-.18604.27734-.49658.44336-.83057.44336h-5.50525c.08356-.32153.14197-.65265.14197-1s-.05841-.67847-.14197-1h3.37537c1.00244,0,1.93359-.49707,2.49121-1.3291l7.53174-11.22754c.18604-.27734.49658-.44336.83057-.44336h11.91309c1.6543,0,3-1.3457,3-3v-7.14203c.32153.08356.65271.14203,1,.14203s.67847-.05847,1-.14203v11.14203c0,.55176-.44873,1-1,1Z"/>
        <path d="M51.3999,18.7998c.17773.13379.38916.2002.6001.2002s.42236-.06641.6001-.2002c.4502-.33789,4.3999-3.39844,4.3999-6.7998,0-2.75684-2.24316-5-5-5s-5,2.24316-5,5c0,3.40137,3.94971,6.46191,4.3999,6.7998ZM52,9c1.6543,0,3,1.3457,3,3,0,1.70801-1.81885,3.66992-3,4.70703-1.18115-1.03711-3-2.99902-3-4.70703,0-1.6543,1.3457-3,3-3Z"/>
        <circle cx="52" cy="12" r="1"/>
        <path d="M18,47c.27344,0,.53467-.1123.72363-.30957.41943-.43945,10.27637-10.83496,10.27637-16.69043,0-6.06543-4.93457-11-11-11s-11,4.93457-11,11c0,5.85547,9.85693,16.25098,10.27637,16.69043.18896.19727.4502.30957.72363.30957ZM18,21c4.9624,0,9,4.03711,9,9,0,3.86328-5.94434,11.18164-9,14.5332-3.05566-3.35059-9-10.66602-9-14.5332,0-4.96289,4.0376-9,9-9Z"/>
        <path d="M19,36v-2.14203c1.3988-.36359,2.49438-1.45898,2.85803-2.85797h2.14197c.55225,0,1-.44727,1-1s-.44775-1-1-1h-2.14197c-.36365-1.39899-1.45923-2.49438-2.85803-2.85797v-2.14203c0-.55273-.44775-1-1-1s-1,.44727-1,1v2.14203c-1.3988.36359-2.49438,1.45898-2.85803,2.85797h-2.14197c-.55225,0-1,.44727-1,1s.44775,1,1,1h2.14197c.36365,1.39899,1.45923,2.49438,2.85803,2.85797v2.14203c0,.55273.44775,1,1,1s1-.44727,1-1ZM16,30c0-1.10254.89697-2,2-2s2,.89746,2,2-.89697,2-2,2-2-.89746-2-2Z"/>
        <path d="M29,14c4.9624,0,9,4.03711,9,9,0,.55273.44775,1,1,1s1-.44727,1-1c0-6.06543-4.93457-11-11-11-.55225,0-1,.44727-1,1s.44775,1,1,1Z"/>
        <path d="M29,18c2.75684,0,5,2.24316,5,5,0,.55273.44775,1,1,1s1-.44727,1-1c0-3.85938-3.14014-7-7-7-.55225,0-1,.44727-1,1s.44775,1,1,1Z"/>
        <path d="M29,22c.55127,0,1,.44824,1,1,0,.55273.44775,1,1,1s1-.44727,1-1c0-1.6543-1.3457-3-3-3-.55225,0-1,.44727-1,1s.44775,1,1,1Z"/>
      </g>
    </g>
  </g>
</svg>