<?xml version="1.0" encoding="UTF-8"?>
<svg id="Outline" xmlns="http://www.w3.org/2000/svg" version="1.1" viewBox="0 0 48 48">
  <path d="M42,41h-24v-1c0-1.6543-1.3457-3-3-3h-1V14c0-2.75684,2.24316-5,5-5v4h-2c-.55225,0-1,.44727-1,1s.44775,1,1,1h2v3.76495c-1.82629,1.46753-3,3.71539-3,6.23505,0,4.41113,3.58887,8,8,8s8-3.58887,8-8c0-2.51965-1.17371-4.76752-3-6.23505v-3.76495h2c.55273,0,1-.44727,1-1s-.44727-1-1-1h-2v-4h1.18433c.41412,1.1615,1.51373,2,2.81567,2,1.6543,0,3-1.3457,3-3s-1.3457-3-3-3c-1.30194,0-2.40161.8385-2.81573,2h-11.18427c-3.85986,0-7,3.14062-7,7v23h-1c-1.6543,0-3,1.3457-3,3v1h-2c-.55225,0-1,.44727-1,1s.44775,1,1,1h36c.55273,0,1-.44727,1-1s-.44727-1-1-1ZM33,7c.55176,0,1,.44824,1,1s-.44824,1-1,1-1-.44824-1-1,.44824-1,1-1ZM21,9h6v4h-6v-4ZM21,15h6v2.58899c-.92743-.37683-1.93884-.58899-3-.58899s-2.07257.21216-3,.58899v-2.58899ZM24,19c3.30859,0,6,2.69141,6,6s-2.69141,6-6,6-6-2.69141-6-6,2.69141-6,6-6ZM16,41h-6v-1c0-.55176.44873-1,1-1h4c.55127,0,1,.44824,1,1v1Z" fill="#000" stroke-width="0"/>
  <path d="M25.41309,27.82709c.35785.35791,1.03125.38287,1.41406.00006.39062-.39062.39062-1.02344,0-1.41406l-1.82715-1.82715v-2.58594c0-.55273-.44775-1-1-1s-1,.44727-1,1v3c0,.26562.10547.51953.29297.70703,0,0,2.11194,2.11194,2.12012,2.12006Z" fill="#000" stroke-width="0"/>
</svg>