<?xml version="1.0" encoding="utf-8"?>
<!-- Generator: Adobe Illustrator 27.3.1, SVG Export Plug-In . SVG Version: 6.00 Build 0)  -->
<svg version="1.1" id="Outline" xmlns="http://www.w3.org/2000/svg" xmlns:xlink="http://www.w3.org/1999/xlink" x="0px" y="0px"
	 viewBox="0 0 48 48" enable-background="new 0 0 48 48" xml:space="preserve">
<g>
	<circle cx="18" cy="28" r="1"/>
	<path d="M25,7c3.15623,0,5.78415,2.46531,5.98242,5.61275c0.04621,0.73354,0.87506,1.17047,1.50782,0.79741
		C32.94336,13.1416,33.46484,13,34,13c1.6543,0,3,1.3457,3,3c0,0.30125-0.04296,0.5986-0.12791,0.88423
		c-0.16127,0.54224,0.17114,1.12226,0.71971,1.25689C39.59863,18.63428,41,20.42676,41,22.5
		c0,1.20361-0.46777,2.3335-1.31738,3.18262C38.83398,26.53223,37.70312,27,36.5,27H22c-0.55273,0-1,0.44727-1,1s0.44727,1,1,1h14.5
		c1.73828,0,3.37109-0.67578,4.59668-1.90332C42.32422,25.87109,43,24.23828,43,22.5c0-2.67334-1.61426-5.02393-4.02344-6.00684
		C38.99219,16.33008,39,16.16504,39,16c0-2.75684-2.24316-5-5-5c-0.41406,0-0.82324,0.05127-1.21973,0.15088
		C31.94238,7.61133,28.75098,5,25,5c-3.68457,0-6.85352,2.52051-7.73926,6.00439C17.1748,11.00146,17.08789,11,17,11
		c-3.85938,0-7,3.14014-7,7c0,0.3374,0.02441,0.6709,0.07227,1H10c-1.32324,0-2.57812,0.51758-3.54199,1.46777
		C5.51758,21.42139,5,22.67578,5,24c0,2.75684,2.24316,5,5,5h4c0.55273,0,1-0.44727,1-1s-0.44727-1-1-1h-4c-1.6543,0-3-1.3457-3-3
		c0-0.79541,0.31348-1.55127,0.87207-2.11768C8.44922,21.31348,9.20508,21,10,21c0,0,1.34607,0,1.3496,0
		c0.68019,0,1.17322-0.70402,0.93946-1.34229C12.09766,19.13086,12,18.57324,12,18c0-2.75684,2.24316-5,5-5
		c0.32127,0,0.61325,0.02685,0.86812,0.07958c0.56409,0.1167,1.1239-0.2846,1.19437-0.85546C19.43457,9.24609,21.9873,7,25,7z"/>
	<path d="M22,14c0.55273,0,1-0.44775,1-1c0-1.10303,0.89746-2,2-2s2,0.89697,2,2c0,0.55225,0.44727,1,1,1s1-0.44775,1-1
		c0-2.20557-1.79395-4-4-4s-4,1.79443-4,4C21,13.55225,21.44727,14,22,14z"/>
	<path d="M33,33h-3c-0.55273,0-1,0.44727-1,1s0.44727,1,1,1h2v2h-2c-0.55273,0-1,0.44727-1,1v4c0,0.55273,0.44727,1,1,1h3
		c0.55273,0,1-0.44727,1-1s-0.44727-1-1-1h-2v-2h2c0.55273,0,1-0.44727,1-1v-4C34,33.44727,33.55273,33,33,33z"/>
	<path d="M25,33h-2c-1.10254,0-2,0.89746-2,2v6c0,1.10254,0.89746,2,2,2h2c1.10254,0,2-0.89746,2-2v-6
		C27,33.89746,26.10254,33,25,33z M23,41v-6h2l0.00195,6H23z"/>
	<path d="M15.16992,35c0.79492,0,1.55078,0.31348,2.12793,0.88184c0.39355,0.3877,1.02637,0.38184,1.41406-0.00977
		c0.3877-0.39355,0.38379-1.02637-0.00977-1.41406C17.74805,33.51758,16.49316,33,15.16992,33c-2.75684,0-5,2.24316-5,5
		s2.24316,5,5,5c1.32324,0,2.57812-0.51758,3.53223-1.45801c0.39355-0.3877,0.39746-1.02051,0.00977-1.41406
		c-0.38672-0.39258-1.01953-0.39746-1.41406-0.00977C16.7207,40.68652,15.96484,41,15.16992,41c-1.6543,0-3-1.3457-3-3
		S13.51562,35,15.16992,35z"/>
	<circle cx="8" cy="32" r="1"/>
	<path d="M40,30c-1.6543,0-3,1.3457-3,3s1.3457,3,3,3s3-1.3457,3-3S41.6543,30,40,30z M40,34c-0.55176,0-1-0.44824-1-1
		s0.44824-1,1-1s1,0.44824,1,1S40.55176,34,40,34z"/>
	<path d="M38,37c-1.6543,0-3,1.3457-3,3s1.3457,3,3,3s3-1.3457,3-3S39.6543,37,38,37z M38,41c-0.55176,0-1-0.44824-1-1
		s0.44824-1,1-1s1,0.44824,1,1S38.55176,41,38,41z"/>
</g>
</svg>
