<?xml version="1.0" encoding="UTF-8"?>
<svg id="Outline" xmlns="http://www.w3.org/2000/svg" version="1.1" viewBox="0 0 64 64">
  <path d="M50,32c-1.6543,0-3,1.3457-3,3s1.3457,3,3,3,3-1.3457,3-3-1.3457-3-3-3ZM50,36c-.55176,0-1-.44824-1-1s.44824-1,1-1,1,.44824,1,1-.44824,1-1,1Z" fill="#000" stroke-width="0"/>
  <path d="M42,32c-1.6543,0-3,1.3457-3,3s1.3457,3,3,3,3-1.3457,3-3-1.3457-3-3-3ZM42,36c-.55176,0-1-.44824-1-1s.44824-1,1-1,1,.44824,1,1-.44824,1-1,1Z" fill="#000" stroke-width="0"/>
  <path d="M34,32c-1.6543,0-3,1.3457-3,3s1.3457,3,3,3,3-1.3457,3-3-1.3457-3-3-3ZM34,36c-.55176,0-1-.44824-1-1s.44824-1,1-1,1,.44824,1,1-.44824,1-1,1Z" fill="#000" stroke-width="0"/>
  <path d="M50,28h-3v-9c0-.54999-.45001-1-1-1h-14c-.54999,0-1,.45001-1,1v9h-2v-11c0-1.65002-1.34998-3-3-3H10c-1.65002,0-3,1.34998-3,3v24c0,.54999.45001,1,1,1h7v7c0,.54999.45001,1,1,1h4c.54999,0,1-.45001,1-1v-3h22v3c0,.54999.45001,1,1,1h4c.54999,0,1-.45001,1-1v-7h1c3.85999,0,7-3.14001,7-7s-3.14001-7-7-7ZM37,20h4v2.60999l-1.67999-.56c-.10999-.03003-.21002-.04999-.32001-.04999s-.21002.01996-.32001.04999l-1.67999.56v-2.60999ZM33,20h2v4c0,.32001.15002.62.41998.81.26001.19.59003.23999.90002.14001l2.67999-.90002,2.67999.90002c.28377.0953.64484.05509.90002-.14001.26996-.19.41998-.48999.41998-.81v-4h2v8h-12v-8ZM19,48h-2v-6h2v6ZM9,40v-23c0-.54999.45001-1,1-1h16c.54999,0,1,.45001,1,1v23H9ZM43,44h-22v-2h22v2ZM47,48h-2v-6h2v6ZM50,40h-21v-10h21c2.76001,0,5,2.23999,5,5s-2.23999,5-5,5Z" fill="#000" stroke-width="0"/>
  <path d="M12,24h12c.55273,0,1-.44727,1-1v-4c0-.55273-.44727-1-1-1h-12c-.55273,0-1,.44727-1,1v4c0,.55273.44727,1,1,1ZM13,20h10v2h-10v-2Z" fill="#000" stroke-width="0"/>
  <path d="M12,32h4c.55273,0,1-.44727,1-1v-4c0-.55273-.44727-1-1-1h-4c-.55273,0-1,.44727-1,1v4c0,.55273.44727,1,1,1ZM13,28h2v2h-2v-2Z" fill="#000" stroke-width="0"/>
  <path d="M24,26h-4c-.55273,0-1,.44727-1,1v4c0,.55273.44727,1,1,1h4c.55273,0,1-.44727,1-1v-4c0-.55273-.44727-1-1-1ZM23,30h-2v-2h2v2Z" fill="#000" stroke-width="0"/>
  <path d="M12,34c-.55273,0-1,.44727-1,1v2c0,.55273.44727,1,1,1s1-.44727,1-1v-2c0-.55273-.44727-1-1-1Z" fill="#000" stroke-width="0"/>
  <path d="M17,37v-2c0-.55273-.44727-1-1-1s-1,.44727-1,1v2c0,.55273.44727,1,1,1s1-.44727,1-1Z" fill="#000" stroke-width="0"/>
  <path d="M20,34c-.55273,0-1,.44727-1,1v2c0,.55273.44727,1,1,1s1-.44727,1-1v-2c0-.55273-.44727-1-1-1Z" fill="#000" stroke-width="0"/>
  <path d="M24,34c-.55273,0-1,.44727-1,1v2c0,.55273.44727,1,1,1s1-.44727,1-1v-2c0-.55273-.44727-1-1-1Z" fill="#000" stroke-width="0"/>
  <path d="M50,25h3.58594l-.29297.29297c-.39062.39062-.39062,1.02344,0,1.41407.38587.38587,1.02941.38464,1.41406,0l2-2c.39062-.39062.39062-1.02344,0-1.41406l-2-2c-.39062-.39062-1.02344-.39062-1.41406,0s-.39062,1.02344,0,1.41406l.29297.29297h-3.58594c-.55273,0-1,.44727-1,1s.44727,1,1,1Z" fill="#000" stroke-width="0"/>
</svg>