<?xml version="1.0" encoding="UTF-8"?>
<svg xmlns="http://www.w3.org/2000/svg" version="1.1" viewBox="0 0 64 64">
  <!-- Generator: Adobe Illustrator 28.7.1, SVG Export Plug-In . SVG Version: 1.2.0 Build 142)  -->
  <g>
    <g id="Outline">
      <g>
        <path d="M50,40h-1.29999c2.15997-1.39001,4.29999-3.62,4.29999-7v-5.76001l1.89001-3.78998c.14001-.27002.14996-.58002.02997-.85004s-.34998-.46997-.63-.56l-5.28998-1.58002v-9.45996c0-2.21002-1.78998-4-4-4H11c-2.21002,0-4,1.78998-4,4v42c0,2.20996,1.78998,4,4,4h45c.54999,0,1-.45001,1-1v-9c0-3.85999-3.14001-7-7-7ZM51,33c0,4.59998-5.73999,6.57996-7,6.95996-1.26001-.38-7-2.35999-7-6.95996v-2.95001c1.83002,1.84998,4.34998,2.95001,7,2.95001s5.16998-1.10004,7-2.95001v2.95001ZM37.84003,28h12.31995c-1.46997,1.87-3.75,3-6.15997,3s-4.69-1.13-6.15997-3ZM52.57001,23.62l-1.19,2.38h-14.76001l-1.19-2.38,8.57001-2.58002,8.57001,2.58002ZM31,55H11c-1.09998,0-2-.90002-2-2V11c0-1.10004.90002-2,2-2h34c1.09998,0,2,.89996,2,2v8.85999l-2.71002-.82001c-.19-.04999-.38995-.04999-.57996,0l-10,3c-.28003.09003-.51001.28998-.63.56s-.11005.58002.02997.85004l1.89001,3.78998v5.76001c0,3.38,2.14001,5.60999,4.29999,7h-1.29999c-3.85999,0-7,3.14001-7,7v8ZM43,55h-10v-8c0-2.76001,2.23999-5,5-5h1.41998l3.58002,6.26996v6.73004ZM41.71997,42h4.56006l-2.28003,3.97998-2.28003-3.97998ZM55,55h-10v-6.73004l3.58002-6.26996h1.41998c2.76001,0,5,2.23999,5,5v8Z"/>
        <path d="M16,11h-4c-.55225,0-1,.44727-1,1v4c0,.55273.44775,1,1,1h4c.55225,0,1-.44727,1-1v-4c0-.55273-.44775-1-1-1ZM15,15h-2v-2h2v2Z"/>
        <path d="M20,13h24c.55225,0,1-.44727,1-1s-.44775-1-1-1h-24c-.55225,0-1,.44727-1,1s.44775,1,1,1Z"/>
        <path d="M20,17h24c.55225,0,1-.44727,1-1s-.44775-1-1-1h-24c-.55225,0-1,.44727-1,1s.44775,1,1,1Z"/>
        <path d="M16,20h-4c-.55225,0-1,.44727-1,1v4c0,.55273.44775,1,1,1h4c.55225,0,1-.44727,1-1v-4c0-.55273-.44775-1-1-1ZM15,24h-2v-2h2v2Z"/>
        <path d="M20,22h10c.55225,0,1-.44727,1-1s-.44775-1-1-1h-10c-.55225,0-1,.44727-1,1s.44775,1,1,1Z"/>
        <path d="M20,26h10c.55225,0,1-.44727,1-1s-.44775-1-1-1h-10c-.55225,0-1,.44727-1,1s.44775,1,1,1Z"/>
        <path d="M16,29h-4c-.55225,0-1,.44727-1,1v4c0,.55273.44775,1,1,1h4c.55225,0,1-.44727,1-1v-4c0-.55273-.44775-1-1-1ZM15,33h-2v-2h2v2Z"/>
        <path d="M20,31h10c.55225,0,1-.44727,1-1s-.44775-1-1-1h-10c-.55225,0-1,.44727-1,1s.44775,1,1,1Z"/>
        <path d="M20,35h10c.55225,0,1-.44727,1-1s-.44775-1-1-1h-10c-.55225,0-1,.44727-1,1s.44775,1,1,1Z"/>
        <path d="M16,38h-4c-.55225,0-1,.44727-1,1v4c0,.55273.44775,1,1,1h4c.55225,0,1-.44727,1-1v-4c0-.55273-.44775-1-1-1ZM15,42h-2v-2h2v2Z"/>
        <path d="M31,39c0-.55273-.44775-1-1-1h-10c-.55225,0-1,.44727-1,1s.44775,1,1,1h10c.55225,0,1-.44727,1-1Z"/>
        <path d="M28,42h-8c-.55225,0-1,.44727-1,1s.44775,1,1,1h8c.55225,0,1-.44727,1-1s-.44775-1-1-1Z"/>
      </g>
    </g>
  </g>
</svg>