<?xml version="1.0" encoding="utf-8"?>
<!-- Generator: Adobe Illustrator 27.3.1, SVG Export Plug-In . SVG Version: 6.00 Build 0)  -->
<svg version="1.1" id="Outline" xmlns="http://www.w3.org/2000/svg" xmlns:xlink="http://www.w3.org/1999/xlink" x="0px" y="0px"
	 viewBox="0 0 64 64" enable-background="new 0 0 64 64" xml:space="preserve">
<g>
	<path d="M49.76855,40.99414c-0.53418-0.11914-1.07324,0.21875-1.19434,0.75684C46.85352,49.42773,39.88281,55,32,55
		c-9.37402,0-17-7.62598-17-17c0-10.11914,13.7002-25.10156,17-28.5625c2.91211,3.05371,13.92676,15.08301,16.47266,24.85449
		c0.13965,0.53516,0.69043,0.85156,1.21973,0.71582c0.53418-0.13965,0.85547-0.68555,0.71582-1.21973
		C47.34473,22.03027,33.30371,7.88867,32.70703,7.29297c-0.39062-0.39062-1.02344-0.39062-1.41406,0
		C30.5459,8.04004,13,25.72656,13,38c0,10.47656,8.52344,19,19,19c8.81055,0,16.60156-6.22949,18.52539-14.81152
		C50.64648,41.64941,50.30762,41.11426,49.76855,40.99414z"/>
	<path d="M31.25488,13.19043c-2.15527,2.40527-4.14453,4.82324-5.91309,7.1875C19.96289,27.56738,17,33.8252,17,38
		c0,8.27148,6.72852,15,15,15s15-6.72852,15-15c0-4.1748-2.96289-10.43262-8.3418-17.62207
		c-1.76855-2.36426-3.75781-4.78223-5.91309-7.1875C32.36426,12.7666,31.63574,12.7666,31.25488,13.19043z M45,38
		c0,7.16797-5.83203,13-13,13s-13-5.83203-13-13c0-3.74512,2.82129-9.57812,7.94336-16.4248
		C28.47168,19.5332,30.16895,17.44824,32,15.36426c1.83105,2.08398,3.52832,4.16895,5.05664,6.21094
		C42.17871,28.42188,45,34.25488,45,38z"/>
	<path d="M34,38v1.14197c-0.36316,0.09436-0.70374,0.23834-1.01929,0.42468l-0.80884-0.80884
		c-0.39062-0.39062-1.02344-0.39062-1.41406,0s-0.39062,1.02344,0,1.41406l0.80884,0.80884
		C31.38031,41.29626,31.23633,41.63684,31.14197,42H30c-0.55273,0-1,0.44727-1,1s0.44727,1,1,1h1.14197
		c0.09436,0.36316,0.23834,0.70374,0.42468,1.01929l-0.80884,0.80884c-0.39062,0.39062-0.39062,1.02338,0,1.414
		c0.37164,0.3717,1.02026,0.39386,1.41406,0.00006l0.80884-0.80884c0.31555,0.18634,0.65613,0.33032,1.01929,0.42468V48
		c0,0.55273,0.44727,1,1,1s1-0.44727,1-1v-1.14197c0.36316-0.09436,0.70374-0.23834,1.01929-0.42468
		c0,0,0.80853,0.80853,0.80884,0.80884c0.37231,0.37231,1.01898,0.39508,1.41406,0c0.39062-0.39062,0.39062-1.02344,0-1.41406
		l-0.80884-0.80884c0.18634-0.31555,0.33032-0.65613,0.42468-1.01929H40c0.55273,0,1-0.44727,1-1s-0.44727-1-1-1h-1.14197
		c-0.09436-0.36316-0.23834-0.70374-0.42468-1.01929l0.80884-0.80884c0.39062-0.39062,0.39062-1.02344,0-1.41406
		s-1.02344-0.39062-1.41406,0l-0.80884,0.80884C36.70374,39.38031,36.36316,39.23633,36,39.14197V38c0-0.55273-0.44727-1-1-1
		S34,37.44727,34,38z M37,43c0,1.10254-0.89746,2-2,2s-2-0.89746-2-2s0.89746-2,2-2S37,41.89746,37,43z"/>
	<path d="M32.85803,31c-0.09436-0.36316-0.23834-0.70374-0.42468-1.01929l0.80884-0.80884
		c0.39062-0.39062,0.39062-1.02344,0-1.41406s-1.02344-0.39062-1.41406,0l-0.80884,0.80884
		C30.70374,28.38031,30.36316,28.23633,30,28.14197V27c0-0.55273-0.44727-1-1-1s-1,0.44727-1,1v1.14197
		c-0.36316,0.09436-0.70374,0.23834-1.01929,0.42468l-0.80884-0.80884c-0.39062-0.39062-1.02344-0.39062-1.41406,0
		s-0.39062,1.02344,0,1.41406l0.80884,0.80884C25.38031,30.29626,25.23633,30.63684,25.14197,31H24c-0.55273,0-1,0.44727-1,1
		s0.44727,1,1,1h1.14197c0.09436,0.36316,0.23834,0.70374,0.42468,1.01929l-0.80884,0.80884
		c-0.39056,0.39056-0.39062,1.02325-0.00012,1.41388c0.36786,0.3681,1.02515,0.38916,1.41418,0.00018l0.80884-0.80884
		c0.31555,0.18634,0.65613,0.33032,1.01929,0.42468V37c0,0.55273,0.44727,1,1,1s1-0.44727,1-1v-1.14197
		c0.36316-0.09436,0.70374-0.23834,1.01929-0.42468l0.80884,0.80884c0.38684,0.38678,1.02881,0.38519,1.41406,0
		c0.39062-0.39062,0.39062-1.02344,0-1.41406l-0.80884-0.80884c0.18634-0.31555,0.33032-0.65613,0.42468-1.01929H34
		c0.55273,0,1-0.44727,1-1s-0.44727-1-1-1H32.85803z M29,34c-1.10254,0-2-0.89746-2-2s0.89746-2,2-2s2,0.89746,2,2
		S30.10254,34,29,34z"/>
	<path d="M25,39c-1.6543,0-3,1.3457-3,3s1.3457,3,3,3s3-1.3457,3-3S26.6543,39,25,39z M25,43c-0.55176,0-1-0.44824-1-1
		s0.44824-1,1-1s1,0.44824,1,1S25.55176,43,25,43z"/>
	<path d="M39,36c1.6543,0,3-1.3457,3-3s-1.3457-3-3-3s-3,1.3457-3,3S37.3457,36,39,36z M39,32c0.55176,0,1,0.44824,1,1
		s-0.44824,1-1,1s-1-0.44824-1-1S38.44824,32,39,32z"/>
	<circle cx="37" cy="27" r="1"/>
	<circle cx="33" cy="25" r="1"/>
	<circle cx="31" cy="21" r="1"/>
	<circle cx="50" cy="38" r="1"/>
</g>
</svg>
