<?xml version="1.0" encoding="UTF-8"?>
<svg id="Outline" xmlns="http://www.w3.org/2000/svg" version="1.1" viewBox="0 0 48 48">
  <path d="M36.31738,25.41211l-7.98492-7.97485c-.64392-1.68048-1.72302-3.1441-3.10657-4.24908l6.48114-6.48114c.39062-.39062.39062-1.02344,0-1.41406s-1.02344-.39062-1.41406,0l-6.79034,6.79034c-1.35522-.68726-2.88208-1.08331-4.50262-1.08331s-3.1474.39606-4.50262,1.08331l-6.79034-6.79034c-.39062-.39062-1.02344-.39062-1.41406,0s-.39062,1.02344,0,1.41406l6.48114,6.48114c-2.29626,1.83386-3.77411,4.65137-3.77411,7.81183v12c0,5.51367,4.48633,10,10,10,2.06342,0,3.9826-.62885,5.57697-1.70416,1.47864.7887,3.07794,1.19928,4.67596,1.19928,2.57324,0,5.12207-1.00195,7.06543-2.93945,3.8877-3.89844,3.8877-10.24316-.00098-14.14355ZM19,13c1.0603,0,2.07086.21191,2.99774.5882l-1.7124,1.7124c-.39111-.18713-.82361-.3006-1.28534-.3006s-.89423.11346-1.28534.3006l-1.7124-1.7124c.92688-.37628,1.93744-.5882,2.99774-.5882ZM20,18c0,.55127-.44824,1-1,1s-1-.44873-1-1,.44824-1,1-1,1,.44873,1,1ZM19,41c-4.41113,0-8-3.58887-8-8v-12c0-2.60944,1.2616-4.92401,3.20068-6.38525l2.09991,2.09991c-.18713.39111-.3006.82361-.3006,1.28534,0,1.6543,1.3457,3,3,3s3-1.3457,3-3c0-.46173-.11346-.89423-.3006-1.28534l2.09991-2.09991c1.93909,1.46124,3.20068,3.77582,3.20068,6.38525v12c0,4.41113-3.58887,8-8,8ZM34.9043,38.1416c-2.32721,2.31866-5.73914,2.96094-8.67725,1.75067.48846-.51202.91998-1.07629,1.29205-1.68237.54761.15936,1.11493.24615,1.685.24615,1.58887,0,3.17969-.60449,4.29688-1.7334,2.3125-2.33594,2.30859-6.14258-.01465-8.49023l-4.48633-4.47717v-2.75525c0-.02441-.00348-.04797-.00366-.07239l5.90601,5.89856c3.11133,3.12012,3.11133,8.19727.00195,11.31543ZM28.40265,36.37115c.37964-1.05518.59735-2.18689.59735-3.37115v-6.41949l3.06934,3.06305c1.55078,1.56738,1.55469,4.11133.00977,5.67285-.93567.94519-2.37042,1.3241-3.67645,1.05475Z" fill="#000" stroke-width="0"/>
  <path d="M24,23h-10c-.55273,0-1,.44775-1,1v9c0,3.30859,2.69141,6,6,6s6-2.69141,6-6v-9c0-.55225-.44727-1-1-1ZM19,37c-1.8587,0-3.41095-1.27948-3.85803-3h7.71606c-.44708,1.72052-1.99933,3-3.85803,3ZM23,32h-8v-2h8v2ZM23,28h-8v-3h8v3Z" fill="#000" stroke-width="0"/>
</svg>