<?xml version="1.0" encoding="utf-8"?>
<!-- Generator: Adobe Illustrator 27.3.1, SVG Export Plug-In . SVG Version: 6.00 Build 0)  -->
<svg version="1.1" id="Outline" xmlns="http://www.w3.org/2000/svg" xmlns:xlink="http://www.w3.org/1999/xlink" x="0px" y="0px"
	 viewBox="0 0 64 64" enable-background="new 0 0 64 64" xml:space="preserve">
<g>
	<circle cx="28" cy="38" r="1"/>
	<circle cx="31" cy="41" r="1"/>
	<circle cx="35" cy="36" r="1"/>
	<circle cx="36" cy="29" r="1"/>
	<path d="M45.87598,49.14453C44.6416,41.75,44.6416,34.25,45.87598,26.854l3.11035-18.68994
		c0.04883-0.29004-0.0332-0.58643-0.22363-0.81055C48.57324,7.12939,48.29395,7,48,7H29c-0.55273,0-1,0.44775-1,1s0.44727,1,1,1
		h17.82031l-2.91699,17.52539C42.6582,33.9834,42.63281,41.54395,43.82617,49H20.17383
		c1.19336-7.45996,1.16699-15.01855-0.07715-22.47412L17.17969,9H21c0.55273,0,1-0.44775,1-1s-0.44727-1-1-1h-5
		c-0.29395,0-0.57324,0.12939-0.7627,0.35352c-0.19043,0.22412-0.27246,0.52051-0.22363,0.81055l3.11035,18.69043
		C19.3584,34.25,19.3584,41.75,18.12305,49.15137C18.07751,49.43616,18,49.71161,18,50v6c0,0.55273,0.44727,1,1,1h26
		c0.55273,0,1-0.44727,1-1c0,0,0-5.97748,0-5.99994c0-0.0531-0.00256-0.10602-0.00708-0.15875
		C45.97284,49.60699,45.91461,49.37585,45.87598,49.14453z M44,55H20v-4h24V55z"/>
	<path d="M21.82324,24.71631l0.25,1.47754c1.08691,6.53656,1.26953,13.16345,0.54297,19.69562
		C22.55219,46.46521,23.03418,47,23.61035,47c0,0,16.74835,0,16.77924,0c0.58777,0,1.05872-0.52783,0.9942-1.11035
		c-0.72656-6.53223-0.54395-13.15918,0.54297-19.69641c0.11755-0.7088,0.42755-1.69-0.44727-2.04822
		c-2.20215-0.90479-4.40332-1.29004-6.5498-1.14258c-1.20801,0.08447-2.06934,0.31299-2.90137,0.53418
		c-0.63965,0.16943-1.2998,0.34521-2.1748,0.47412c-2.18353,0.32422-4.40619,0.18359-6.7948-0.42969
		C22.39148,23.40979,21.70361,23.9986,21.82324,24.71631z M30.14648,25.98926c0.98535-0.14551,1.73438-0.34424,2.39453-0.51953
		c0.81055-0.21484,1.50977-0.40088,2.52734-0.47217c1.59863-0.1084,3.24707,0.13184,4.91113,0.71533l-0.02539,0.15332
		C38.89844,32.21387,38.67285,38.64551,39.28125,45h-14.5625c0.6084-6.35547,0.38281-12.78613-0.67285-19.13672l-0.00293-0.01807
		C26.14062,26.23145,28.18848,26.28076,30.14648,25.98926z"/>
	<path d="M30,35c1.6543,0,3-1.3457,3-3s-1.3457-3-3-3s-3,1.3457-3,3S28.3457,35,30,35z M30,31c0.55176,0,1,0.44873,1,1
		s-0.44824,1-1,1s-1-0.44873-1-1S29.44824,31,30,31z"/>
	<path d="M29,22c2.02246,0,3.66699-1.64502,3.66699-3.6665c0-3.04639-2.83887-5.91992-2.95996-6.04053
		c-0.39062-0.39062-1.02344-0.39062-1.41406,0c-0.12109,0.12061-2.95996,2.99414-2.95996,6.04053
		C25.33301,20.35498,26.97754,22,29,22z M29.00098,14.52393c0.75098,0.96436,1.66602,2.45898,1.66602,3.80957
		C30.66699,19.25244,29.91895,20,29,20s-1.66699-0.74756-1.66699-1.6665C27.33301,16.98975,28.25,15.4917,29.00098,14.52393z"/>
	<path d="M40,16c0-2.34668-2.05859-4.47266-2.29297-4.70703c-0.39062-0.39062-1.02344-0.39062-1.41406,0
		C36.05859,11.52734,34,13.65332,34,16c0,1.6543,1.3457,3,3,3S40,17.6543,40,16z M36,16c0-0.82959,0.50977-1.75586,1-2.43896
		c0.49023,0.68311,1,1.60938,1,2.43896c0,0.55127-0.44824,1-1,1S36,16.55127,36,16z"/>
	<circle cx="25" cy="8" r="1"/>
</g>
</svg>
