<?xml version="1.0" encoding="UTF-8"?>
<svg xmlns="http://www.w3.org/2000/svg" version="1.1" viewBox="0 0 48 48">
  <!-- Generator: Adobe Illustrator 28.7.1, SVG Export Plug-In . SVG Version: 1.2.0 Build 142)  -->
  <g>
    <g id="Outline">
      <g>
        <path d="M14,24h-2v-5c0-.54999-.45001-1-1-1s-1,.45001-1,1v5h-2c-1.65002,0-3,1.34998-3,3,0,1.29999.84003,2.39996,2,2.82001v9.17999c0,2.20996,1.78998,4,4,4s4-1.79004,4-4v-9.17999c1.15997-.42004,2-1.52002,2-2.82001,0-1.65002-1.34998-3-3-3ZM13,39c0,1.09998-.90002,2-2,2s-2-.90002-2-2v-5h4v5ZM13,32h-4v-2h4v2ZM14,28h-6c-.54999,0-1-.45001-1-1s.45001-1,1-1h6c.54999,0,1,.45001,1,1s-.45001,1-1,1Z"/>
        <path d="M40,24h-2V8c0-1.63-1.37-3-3-3-1.65002,0-3,1.34998-3,3v6c0,.52997-.21002,1.02997-.59003,1.40997-.37994.38-.87994.59003-1.40997.59003-1.09998,0-2-.90002-2-2v-5.5c0-1.92999-1.57001-3.5-3.5-3.5s-3.5,1.57001-3.5,3.5v13c0,.39996-.15997.77997-.44,1.06-.27997.27997-.65997.44-1.06.44-.83002,0-1.5-.67004-1.5-1.5v-12.5c0-2.17004-1.83002-4-4-4-2.21002,0-4,1.78998-4,4v2c0,.54999.45001,1,1,1s1-.45001,1-1v-2c0-1.10004.90002-2,2-2,1.08002,0,2,.91998,2,2v12.5c0,1.92999,1.57001,3.5,3.5,3.5.91998,0,1.83002-.37,2.47998-1.02002.65002-.65002,1.02002-1.56,1.02002-2.47998v-13c0-.83002.66998-1.5,1.5-1.5.81,0,1.5.69,1.5,1.5v5.5c0,2.20996,1.78998,4,4,4,1.07001,0,2.07001-.42004,2.83002-1.17004.75-.75995,1.16998-1.75995,1.16998-2.82996v-6c0-.54999.45001-1,1-1,.53003,0,1,.46997,1,1v16h-2c-1.65002,0-3,1.34998-3,3,0,1.29999.84003,2.39996,2,2.82001v9.17999c0,2.20996,1.78998,4,4,4s4-1.79004,4-4v-9.17999c1.15997-.42004,2-1.52002,2-2.82001,0-1.65002-1.34998-3-3-3ZM39,39c0,1.09998-.90002,2-2,2s-2-.90002-2-2v-5h4v5ZM39,32h-4v-2h4v2ZM40,28h-6c-.54999,0-1-.45001-1-1s.45001-1,1-1h6c.54999,0,1,.45001,1,1s-.45001,1-1,1Z"/>
        <circle cx="11" cy="15" r="1"/>
      </g>
    </g>
  </g>
</svg>