<?xml version="1.0" encoding="UTF-8"?>
<svg xmlns="http://www.w3.org/2000/svg" version="1.1" viewBox="0 0 64 64">
  <!-- Generator: Adobe Illustrator 28.7.1, SVG Export Plug-In . SVG Version: 1.2.0 Build 142)  -->
  <g>
    <g id="Outline">
      <path d="M56.71002,47.19125l-2.20001-2.19c1.28998-1.94,1.08002-4.58997-.63-6.29999l-5.66003-5.65002c-3.26996-3.26996-8.44995-3.48999-11.97998-.66998l-2.83002-2.83002,18.40002-18.39996c.39001-.39001.39001-1.02002,0-1.41003-.39001-.38995-1.02002-.38995-1.40997,0l-18.40002,18.40002L13.59998,9.74123c-.38995-.38995-1.01996-.38995-1.40997,0-.39001.39001-.39001,1.02002,0,1.41003l18.40002,18.39996-2.83002,2.83002c-3.53003-2.82001-8.71002-2.59998-11.97998.66998l-5.66003,5.65002c-1.71002,1.71002-1.91998,4.35999-.63,6.29999l-2.20001,2.19c-.38995.39001-.38995,1.02002,0,1.41003l5.66003,5.65997c.20001.20001.45001.28998.70996.28998.25,0,.51001-.08997.70001-.28998l2.83002-2.83002c.39001-.38995.39001-1.01996,0-1.40997l-.70001-.71002,7.07001-7.07001,3.53003,3.53003c.19995.20001.44995.29999.70996.29999.25,0,.51001-.09998.71002-.29999,3.27002-3.27002,3.47998-8.44.65997-11.97003l2.83002-2.82996,2.83002,2.82996c-2.82001,3.53003-2.61005,8.70001.65997,11.97003.20001.20001.46002.29999.71002.29999.26001,0,.51001-.09998.70996-.29999l3.53003-3.53003,7.07001,7.07001-.70001.71002c-.39001.39001-.39001,1.02002,0,1.40997l2.83002,2.83002c.19.20001.45001.28998.70001.28998.25995,0,.50995-.08997.70996-.28998l5.66003-5.65997c.38995-.39001.38995-1.02002,0-1.41003ZM11.53998,40.12124l4.95001-4.95001,2.82001,2.83002-7.07001,7.07001-.70001-.71002c-1.16998-1.16998-1.16998-3.06995,0-4.23999ZM13.65997,52.14126l-4.25-4.23999,1.42004-1.41998,4.23999,4.23999-1.41003,1.41998ZM15.07001,47.90127l-1.41003-1.41998,7.07001-7.07001,1.41003,1.41998-7.07001,7.07001ZM27.75,43.60128l-9.79999-9.80005c2.73999-2.04999,6.64996-1.82996,9.14001.66003,2.48999,2.48999,2.70996,6.39996.65997,9.14001ZM52.46002,40.12124c1.16998,1.17004,1.16998,3.07001,0,4.23999l-.70001.71002-7.07001-7.07001,2.82001-2.83002,4.95001,4.95001ZM36.25,43.60128c-2.04999-2.74005-1.83002-6.65002.65997-9.14001,1.36005-1.35999,3.16003-2.04999,4.95001-2.04999,1.47003,0,2.95001.46997,4.19,1.38995l-9.79999,9.80005ZM41.85999,40.83126l1.41003-1.41998,7.07001,7.07001-1.41003,1.41998-7.07001-7.07001ZM50.34003,52.14126l-1.41003-1.41998,4.23999-4.23999,1.42004,1.41998-4.25,4.23999Z"/>
    </g>
  </g>
</svg>