<?xml version="1.0" encoding="UTF-8"?>
<svg xmlns="http://www.w3.org/2000/svg" version="1.1" viewBox="0 0 64 64">
  <!-- Generator: Adobe Illustrator 28.7.1, SVG Export Plug-In . SVG Version: 1.2.0 Build 142)  -->
  <g>
    <g id="Outline">
      <g>
        <path d="M38.32242,52.65997l-4.52002-9.04999-3.91998-7.84998v-5.76001c0-.54999-.45001-1-1-1s-1,.45001-1,1v6c0,.15997.03998.31.10999.45001l3.27002,6.54999h-5.56c-.41998-1.16003-1.52002-2-2.82001-2s-2.40002.83997-2.82001,2h-5.56l3.27002-6.54999c.07001-.14001.10999-.29004.10999-.45001v-15h10v5c0,.54999.45001,1,1,1s1-.45001,1-1v-5h1c.54999,0,1-.45001,1-1s-.45001-1-1-1H14.88242c-.54999,0-1,.45001-1,1s.45001,1,1,1h1v14.76001l-3.91998,7.84998-4.52002,9.04999c-.46997.92999-.42999,2.02002.12,2.91003.54999.89996,1.51001,1.42999,2.56,1.42999h25.52002c1.04999,0,2.01001-.53003,2.56-1.42999.54999-.89001.58997-1.98004.12-2.91003ZM22.88242,43c.54999,0,1,.45001,1,1s-.45001,1-1,1-1-.45001-1-1,.45001-1,1-1ZM36.50242,54.51996c-.08997.15002-.34998.48004-.85999.48004H10.12241c-.51001,0-.77002-.33002-.85999-.48004-.08002-.13995-.26001-.50995-.03998-.95996l4.27997-8.56h6.56c.41998,1.15997,1.52002,2,2.82001,2s2.40002-.84003,2.82001-2h6.56l4.27997,8.56c.22003.45001.04004.82001-.03998.95996Z"/>
        <path d="M16.88242,47c-1.6543,0-3,1.3457-3,3s1.3457,3,3,3,3-1.3457,3-3-1.3457-3-3-3ZM16.88242,51c-.55176,0-1-.44873-1-1s.44824-1,1-1,1,.44873,1,1-.44824,1-1,1Z"/>
        <circle cx="23.88242" cy="52" r="1"/>
        <circle cx="26.88242" cy="49" r="1"/>
        <path d="M55.88242,7h-18c-.54999,0-1,.45001-1,1v12c0,.54999.45001,1,1,1h1v24c0,4.40997,3.59003,8,8,8s8-3.59003,8-8v-24h1c.54999,0,1-.45001,1-1v-12c0-.54999-.45001-1-1-1ZM52.88242,45c0,3.31-2.69,6-6,6s-6-2.69-6-6v-24h12v24ZM54.88242,15h-9c-.54999,0-1,.45001-1,1s.45001,1,1,1h9v2h-16v-2h3c.54999,0,1-.45001,1-1s-.45001-1-1-1h-3v-6h16v6Z"/>
        <path d="M43.88242,33h6c.55273,0,1-.44775,1-1v-8c0-.55225-.44727-1-1-1h-6c-.55273,0-1,.44775-1,1v8c0,.55225.44727,1,1,1ZM44.88242,25h4v6h-4v-6Z"/>
      </g>
    </g>
  </g>
</svg>