<?xml version="1.0" encoding="UTF-8"?>
<svg id="Outline" xmlns="http://www.w3.org/2000/svg" version="1.1" viewBox="0 0 64 64">
  <path d="M21,41.00205h22c1.65002,0,3-1.35004,3-3v-18c0-1.31-.84998-2.41003-2.02002-2.82001v-1.08002c0-.54999-.44995-1-1-1-1.94,0-3.13995-1.62-3.13995-3.13,0-.53998.14996-1.07996.42999-1.57996.26996-.47003.10999-1.08002-.37-1.36005l-3.29004-1.89996c-.47998-.27002-1.08997-.11005-1.37.37-.57001.97998-1.58002,1.57001-2.70996,1.57001-1.14001,0-2.15002-.59003-2.71002-1.57001-.13-.23004-.35004-.40002-.60999-.47003-.26001-.07001-.53003-.02997-.76001.10004l-3.29004,1.89996c-.47998.28003-.63995.89001-.37,1.36005.29004.50995.42999,1.02997.42999,1.56995,0,1.51001-1.19995,3.14001-3.13995,3.14001-.54999,0-1,.45001-1,1v.90002h-.08002c-1.65002,0-3,1.34998-3,3v18c0,1.64996,1.34998,3,3,3ZM27.21997,11.96202c0-.56-.08997-1.10999-.27997-1.64996l1.71997-.98999c.96002,1.10999,2.35004,1.75,3.87006,1.75,1.50995,0,2.89996-.64001,3.85999-1.75l1.72998,1c-.17999.52997-.27997,1.08997-.27997,1.64996,0,2.48004,1.77997,4.56,4.12994,5.03003h-4.53998c-.46997-2.28003-2.48999-4-4.89996-4s-4.43005,1.71997-4.90002,4h-4.53998c2.34998-.47003,4.12994-2.54999,4.12994-5.04004ZM37,19.00205v7.38l-4.54999-2.27002c-.14001-.07001-.29999-.10999-.45001-.10999s-.31.03998-.45001.10999l-4.54999,2.27002v-7.38h10ZM29.71002,17.00205c.41998-1.16003,1.51996-2,2.82001-2s2.39996.83997,2.81995,2h-5.63995ZM20,20.00205c0-.54999.45001-1,1-1h4v9c0,.34998.17999.66998.46997.84998.30005.17999.67004.20001.98004.04004l5.54999-2.77002s5.54388,2.76697,5.54999,2.77002c.6402.31952,1.45001-.14447,1.45001-.89001v-9h4c.54999,0,1,.45001,1,1v18c0,.54999-.45001,1-1,1h-22c-.54999,0-1-.45001-1-1v-18Z" fill="#000" stroke-width="0"/>
  <path d="M14,47.00205c-1.6543,0-3,1.3457-3,3s1.3457,3,3,3,3-1.3457,3-3-1.3457-3-3-3ZM14,51.00205c-.55127,0-1-.44873-1-1s.44873-1,1-1,1,.44873,1,1-.44873,1-1,1Z" fill="#000" stroke-width="0"/>
  <path d="M23,47.00205c-1.6543,0-3,1.3457-3,3s1.3457,3,3,3,3-1.3457,3-3-1.3457-3-3-3ZM23,51.00205c-.55127,0-1-.44873-1-1s.44873-1,1-1,1,.44873,1,1-.44873,1-1,1Z" fill="#000" stroke-width="0"/>
  <path d="M50,47.00205c-1.6543,0-3,1.3457-3,3s1.3457,3,3,3,3-1.3457,3-3-1.3457-3-3-3ZM50,51.00205c-.55127,0-1-.44873-1-1s.44873-1,1-1,1,.44873,1,1-.44873,1-1,1Z" fill="#000" stroke-width="0"/>
  <path d="M41,47.00205c-1.6543,0-3,1.3457-3,3s1.3457,3,3,3,3-1.3457,3-3-1.3457-3-3-3ZM41,51.00205c-.55127,0-1-.44873-1-1s.44873-1,1-1,1,.44873,1,1-.44873,1-1,1Z" fill="#000" stroke-width="0"/>
  <path d="M32,47.00205c-1.6543,0-3,1.3457-3,3s1.3457,3,3,3,3-1.3457,3-3-1.3457-3-3-3ZM32,51.00205c-.55127,0-1-.44873-1-1s.44873-1,1-1,1,.44873,1,1-.44873,1-1,1Z" fill="#000" stroke-width="0"/>
  <path d="M50,43.00205H14c-3.85986,0-7,3.14014-7,7s3.14014,7,7,7h36c3.85986,0,7-3.14014,7-7s-3.14014-7-7-7ZM50,55.00205H14c-2.75684,0-5-2.24316-5-5s2.24316-5,5-5h36c2.75684,0,5,2.24316,5,5s-2.24316,5-5,5Z" fill="#000" stroke-width="0"/>
</svg>