<?xml version="1.0" encoding="UTF-8"?>
<svg xmlns="http://www.w3.org/2000/svg" version="1.1" viewBox="0 0 64 64">
  <!-- Generator: Adobe Illustrator 28.7.1, SVG Export Plug-In . SVG Version: 1.2.0 Build 142)  -->
  <g>
    <g id="Outline">
      <g>
        <path d="M56,29c.54999,0,1-.45001,1-1v-4c0-.54999-.45001-1-1-1h-8v-2h.15997c1.66003,0,4.64001-.29999,6.59003-2.25,2.77002-2.77002,2.21002-7.60999,2.19-7.82001-.06-.45001-.41998-.81-.87-.87-.21002-.02002-5.04999-.57001-7.82001,2.19-.09003.08997-.16998.19-.25.28998v-2.53998c0-.54999-.45001-1-1-1-.41998,0-.77002.26001-.91998.62-.11005-.12-.21002-.25-.33002-.37-2.77002-2.77002-7.60999-2.21002-7.82001-2.19-.45001.06-.81.41998-.87.87-.02002.21002-.58002,5.04999,2.19,7.82001,1.95001,1.95001,4.92999,2.25,6.59003,2.25h.15997v5h-28v-2h.15997c1.66003,0,4.64001-.29999,6.59003-2.25,2.77002-2.77002,2.21002-7.60999,2.19-7.82001-.06-.45001-.41998-.81-.87-.87-.21002-.02002-5.04999-.57001-7.82001,2.19-.09003.08997-.16998.19-.25.28998v-2.53998c0-.54999-.45001-1-1-1-.41998,0-.77002.26001-.91998.62-.11005-.12-.21002-.25-.33002-.37-2.77002-2.77002-7.60999-2.21002-7.82001-2.19-.45001.06-.81.41998-.87.87-.02002.21002-.58002,5.04999,2.19,7.82001,1.95001,1.95001,4.92999,2.25,6.59003,2.25h.15997v5h-8c-.54999,0-1,.45001-1,1v4c0,.54999.45001,1,1,1h1v22.17999c-1.15997.41998-2,1.52002-2,2.82001,0,1.64996,1.34998,3,3,3h44c1.65002,0,3-1.35004,3-3,0-1.29999-.84003-2.40002-2-2.82001v-22.17999h1ZM49.66998,13.66998c1.5-1.51001,4.04004-1.67999,5.33002-1.66998.02002,1.46997-.26001,3.91998-1.66998,5.32996-1.19,1.19-3.01001,1.54004-4.37,1.63.94-1.04999,2.06-1.96997,3.31-2.67999.47998-.27997.63995-.88995.37-1.37-.28003-.47998-.89001-.64001-1.37-.37-1.13.65002-2.17004,1.46002-3.10004,2.35999.21002-1.15997.65002-2.38995,1.5-3.22998ZM41.72998,13.27997c1.26001.72003,2.38,1.64001,3.33002,2.70001-1.42999-.09998-3.25-.51001-4.39001-1.65002-1.51001-1.5-1.67999-4.02997-1.66998-5.32996,1.46997-.04004,3.91998.26001,5.33002,1.66998.88.87,1.29999,2.09998,1.5,3.22998-.92999-.89996-1.97003-1.70996-3.10004-2.35999-.47998-.27002-1.08997-.10999-1.37.37-.26996.48004-.10999,1.09003.37,1.37ZM19.66998,13.66998c1.5-1.51001,4.04004-1.67999,5.33002-1.66998.02002,1.46997-.26001,3.91998-1.66998,5.32996-1.19,1.19-3.01001,1.54004-4.37,1.63.94-1.04999,2.06-1.96997,3.31-2.67999.47998-.27997.63995-.88995.37-1.37-.28003-.47998-.89001-.64001-1.37-.37-1.13.65002-2.17004,1.46002-3.10004,2.35999.21002-1.15997.65002-2.38995,1.5-3.22998ZM11.72998,13.27997c1.26001.72003,2.38,1.64001,3.33002,2.70001-1.42999-.08997-3.25-.5-4.39001-1.65002-1.51001-1.5-1.67999-4.02997-1.66998-5.32996,1.46997-.04004,3.91998.26001,5.33002,1.66998.88.87,1.29999,2.09998,1.5,3.22998-.92999-.89996-1.97003-1.70996-3.10004-2.35999-.47998-.27002-1.08997-.10999-1.37.37-.26996.48004-.10999,1.09003.37,1.37ZM54,55H10c-.54999,0-1-.45001-1-1s.45001-1,1-1h44c.54999,0,1,.45001,1,1s-.45001,1-1,1ZM20,35c-3.85999,0-7,3.14001-7,7v9h-2v-22h42v22h-26v-9c0-3.85999-3.14001-7-7-7ZM25,42v9h-10v-9c0-2.76001,2.23999-5,5-5s5,2.23999,5,5ZM9,27v-2h46v2H9Z"/>
        <circle cx="18" cy="46" r="1"/>
        <path d="M32,49h16c1.6543,0,3-1.3457,3-3v-12c0-1.6543-1.3457-3-3-3h-16c-1.6543,0-3,1.3457-3,3v12c0,1.6543,1.3457,3,3,3ZM41,33h7c.55176,0,1,.44824,1,1v5h-8v-6ZM41,41h8v5c0,.55176-.44824,1-1,1h-7v-6ZM31,34c0-.55176.44824-1,1-1h7v6h-8v-5ZM31,41h8v6h-7c-.55176,0-1-.44824-1-1v-5Z"/>
      </g>
    </g>
  </g>
</svg>