<?xml version="1.0" encoding="UTF-8"?>
<svg id="Outline" xmlns="http://www.w3.org/2000/svg" version="1.1" viewBox="0 0 48 48">
  <path d="M38.96002,21.13c-.21002-3.67004-1.73004-7.10004-4.36005-9.73999-1.95996-1.95001-4.38995-3.31006-7.04999-3.96002-.17999-.45001-.42999-.87-.76996-1.22998-.72003-.76001-1.73004-1.20001-2.78003-1.20001s-2.06.44-2.78003,1.20001c-.33997.35999-.58997.77997-.76996,1.22998-2.66003.64996-5.09003,2.01001-7.06,3.96002-2.62,2.63995-4.14001,6.06995-4.35004,9.73999-1.73999.42999-3.03998,2-3.03998,3.87,0,2.20996,1.78998,4,4,4,0,7.71997,6.28003,14,14,14s14-6.28003,14-14c2.21002,0,4-1.79004,4-4,0-1.87-1.29999-3.44-3.03998-3.87ZM27.78003,9.56c2.02997.63,3.88995,1.72998,5.40997,3.25,2.21997,2.21997,3.53998,5.09998,3.77002,8.19h-9.90002l.72003-11.44ZM22.67999,7.57001c.69-.74005,1.95001-.74005,2.64001,0,.34998.37.52997.85999.48999,1.35999l-.75,12.07001h-2.12l-.75-12.07001c-.03998-.5.14001-.98999.48999-1.35999ZM14.81,12.81c1.52002-1.52002,3.38-2.62,5.40997-3.25l.72003,11.44h-9.90002c.23004-3.09003,1.55005-5.97003,3.77002-8.19ZM24,41c-6.62,0-12-5.38-12-12h2c.38,0,.72998-.21002.89001-.54999l.72998-1.45001h16.76001l.72998,1.45001c.16003.33997.51001.54999.89001.54999h2c0,6.62-5.38,12-12,12ZM38,27h-3.38l-.72998-1.45001c-.16003-.34003-.51001-.54999-.89001-.54999H15c-.38,0-.72998.20996-.89001.54999l-.72998,1.45001h-3.38c-1.09998,0-2-.90002-2-2,0-1.10004.90002-2,2-2h28c1.09998,0,2,.89996,2,2,0,1.09998-.90002,2-2,2Z" fill="#000" stroke-width="0"/>
</svg>