<?xml version="1.0" encoding="utf-8"?>
<!-- Generator: Adobe Illustrator 27.3.1, SVG Export Plug-In . SVG Version: 6.00 Build 0)  -->
<svg version="1.1" id="Outline" xmlns="http://www.w3.org/2000/svg" xmlns:xlink="http://www.w3.org/1999/xlink" x="0px" y="0px"
	 viewBox="0 0 48 48" enable-background="new 0 0 48 48" xml:space="preserve">
<g>
	<circle cx="22" cy="19" r="1"/>
	<path d="M23,28.76123V23c0-0.55225-0.44775-1-1-1s-1,0.44775-1,1v6.25977c0,0.32568,0.15869,0.63135,0.42578,0.81836
		C23.0376,31.20947,24,33.04932,24,35c0,3.30859-2.69141,6-6,6s-6-2.69141-6-6c0-1.95068,0.9624-3.79053,2.57422-4.92188
		C14.84131,29.89111,15,29.58545,15,29.25977V10c0-1.6543,1.3457-3,3-3s3,1.3457,3,3v5c0,0.55225,0.44775,1,1,1s1-0.44775,1-1v-5
		c0-2.75684-2.24316-5-5-5s-5,2.24316-5,5v18.76123C11.1123,30.28027,10,32.5752,10,35c0,4.41113,3.58887,8,8,8s8-3.58887,8-8
		C26,32.5752,24.8877,30.28027,23,28.76123z"/>
	<path d="M18,11c-0.55225,0-1,0.44775-1,1v19.14203C15.27972,31.58929,14,33.14172,14,35c0,2.20557,1.79443,4,4,4s4-1.79443,4-4
		c0-1.85828-1.27972-3.41071-3-3.85797V12C19,11.44775,18.55225,11,18,11z M20,35c0,1.10303-0.89697,2-2,2s-2-0.89697-2-2
		s0.89697-2,2-2S20,33.89697,20,35z"/>
	<path d="M6,11h4c0.55225,0,1-0.44775,1-1s-0.44775-1-1-1H6c-0.55225,0-1,0.44775-1,1S5.44775,11,6,11z"/>
	<path d="M10,13H8c-0.55225,0-1,0.44775-1,1s0.44775,1,1,1h2c0.55225,0,1-0.44775,1-1S10.55225,13,10,13z"/>
	<path d="M11,18c0-0.55225-0.44775-1-1-1H6c-0.55225,0-1,0.44775-1,1s0.44775,1,1,1h4C10.55225,19,11,18.55225,11,18z"/>
	<path d="M11,22c0-0.55225-0.44775-1-1-1H8c-0.55225,0-1,0.44775-1,1s0.44775,1,1,1h2C10.55225,23,11,22.55225,11,22z"/>
	<path d="M40.70703,14.36426l-1.77832-1.77832v-2.51465c0-0.55225-0.44775-1-1-1h-2.51465l-1.77832-1.77832
		c-0.375-0.375-1.03906-0.375-1.41406,0l-1.77783,1.77832h-2.51514c-0.55225,0-1,0.44775-1,1v2.51465l-1.77783,1.77832
		c-0.39062,0.39062-0.39062,1.02344,0,1.41406l1.77783,1.77783v2.51514c0,0.55225,0.44775,1,1,1h2.51514
		c0,0,1.77649,1.77649,1.77783,1.77783c0.37506,0.37506,1.02142,0.39258,1.41406,0l1.77832-1.77783h2.51465c0.55225,0,1-0.44775,1-1
		v-2.51514c0,0,1.7774-1.77692,1.77832-1.77783C41.09308,15.3924,41.09308,14.75031,40.70703,14.36426z M37.22168,16.43506
		c-0.1875,0.1875-0.29297,0.44189-0.29297,0.70703v1.9292H35c-0.26514,0-0.51953,0.10547-0.70703,0.29297l-1.36426,1.36377
		l-1.36377-1.36377c-0.1875-0.1875-0.44189-0.29297-0.70703-0.29297h-1.9292v-1.9292c0-0.26514-0.10547-0.51953-0.29297-0.70703
		l-1.36377-1.36377l1.36377-1.36426c0.1875-0.1875,0.29297-0.44189,0.29297-0.70703v-1.92871h1.9292
		c0.26514,0,0.51953-0.10547,0.70703-0.29297l1.36377-1.36426l1.36426,1.36426c0.1875,0.1875,0.44189,0.29297,0.70703,0.29297
		h1.92871V13c0,0.26514,0.10547,0.51953,0.29297,0.70703l1.36426,1.36426L37.22168,16.43506z"/>
	<path d="M33,12c-1.6543,0-3,1.3457-3,3s1.3457,3,3,3s3-1.3457,3-3S34.6543,12,33,12z M33,16c-0.55127,0-1-0.44873-1-1
		s0.44873-1,1-1s1,0.44873,1,1S33.55127,16,33,16z"/>
</g>
</svg>
