<?xml version="1.0" encoding="utf-8"?>
<!-- Generator: Adobe Illustrator 28.2.0, SVG Export Plug-In . SVG Version: 6.00 Build 0)  -->
<svg version="1.1" id="Outline" xmlns="http://www.w3.org/2000/svg" xmlns:xlink="http://www.w3.org/1999/xlink" x="0px" y="0px"
	 viewBox="0 0 64 64" enable-background="new 0 0 64 64" xml:space="preserve">
<g>
	<path d="M16,21c-0.55225,0-1,0.44775-1,1v3h-2v-3c0-0.55225-0.44775-1-1-1s-1,0.44775-1,1v8c0,0.55225,0.44775,1,1,1s1-0.44775,1-1
		v-3h2v3c0,0.55225,0.44775,1,1,1s1-0.44775,1-1v-8C17,21.44775,16.55225,21,16,21z"/>
	<path d="M22,23h-2c-0.55225,0-1,0.44775-1,1s0.44775,1,1,1h1v1h-1c-0.55225,0-1,0.44775-1,1v3c0,0.55225,0.44775,1,1,1h2
		c0.55225,0,1-0.44775,1-1s-0.44775-1-1-1h-1v-1h1c0.55225,0,1-0.44775,1-1v-3C23,23.44775,22.55225,23,22,23z"/>
	<path d="M56,27H45c-0.40997,0-0.78003,0.25-0.92999,0.63l-3.94,9.84998l-4.90002,5.88C35.08002,43.53998,35,43.76996,35,44v2h-2
		c-0.54999,0-1-0.45001-1-1v-6c0-1.65002-1.34998-3-3-3h-2V16c0-1.65002-1.34998-3-3-3h-0.08002C23.42999,9.60999,20.52002,7,17,7
		s-6.42999,2.60999-6.91998,6H10c-1.65002,0-3,1.34998-3,3v25c0,0.54999,0.45001,1,1,1s1-0.45001,1-1v-6h16v19
		c0,0.54999-0.45001,1-1,1H10c-0.54999,0-1-0.45001-1-1v-5c0-0.54999-0.45001-1-1-1s-1,0.45001-1,1v5c0,1.64996,1.34998,3,3,3h14
		c1.65002,0,3-1.35004,3-3V38h2c0.54999,0,1,0.45001,1,1v6c0,1.64996,1.34998,3,3,3h2v2c0,0.54999,0.45001,1,1,1h4v2
		c0,2.20996,1.78998,4,4,4s4-1.79004,4-4v-2h8c0.54999,0,1-0.45001,1-1V28C57,27.45001,56.54999,27,56,27z M17,9
		c2.40997,0,4.44,1.71997,4.90002,4h-9.80005C12.56,10.71997,14.59003,9,17,9z M25,33H9V19h16V33z M25,17H9v-1
		c0-0.54999,0.45001-1,1-1h14c0.54999,0,1,0.45001,1,1V17z M46,53c0,1.09998-0.90002,2-2,2s-2-0.90002-2-2v-2h4V53z M55,43h-6v-1
		c0-0.54999-0.45001-1-1-1h-5c-0.31,0-0.60999,0.14996-0.79999,0.39996l-3,4c-0.23004,0.30005-0.26001,0.71002-0.09003,1.05005
		C39.27002,46.78998,39.62,47,40,47h8c0.54999,0,1-0.45001,1-1v-1h6v4H37v-4.64001L41.46997,39H55V43z M47,43v2h-5l1.5-2H47z M55,37
		H42.47998l3.20001-8H55V37z"/>
	<path d="M22,53c0.55225,0,1-0.44775,1-1V38c0-0.55225-0.44775-1-1-1H12c-0.55225,0-1,0.44775-1,1v14c0,0.55225,0.44775,1,1,1H22z
		 M13,39h8v12h-8V39z"/>
	<circle cx="8" cy="45" r="1"/>
</g>
</svg>
