<?xml version="1.0" encoding="UTF-8"?>
<svg xmlns="http://www.w3.org/2000/svg" version="1.1" viewBox="0 0 64 64">
  <!-- Generator: Adobe Illustrator 28.7.1, SVG Export Plug-In . SVG Version: 1.2.0 Build 142)  -->
  <g>
    <g id="Outline">
      <g>
        <path d="M42.89453,26.55273c-.16943-.33887-.51562-.55273-.89453-.55273h-6.21924l2.18945-8.75781c.07471-.29883.00732-.61523-.18213-.85742-.18945-.24316-.47998-.38477-.78809-.38477h-10c-.44629,0-.83887.2959-.96143.72559l-5,17.5c-.08643.30176-.02588.62598.16309.87695.18896.25.48438.39746.79834.39746h6.28027s-2.26074,11.30371-2.26076,11.30378c-.20319,1.01419,1.15889,1.62749,1.78029.79583l15-20c.22754-.30273.26416-.70801.09473-1.04688ZM28.84521,42.87305l1.63525-8.17676c.05908-.29395-.01709-.59863-.20703-.83008s-.47363-.36621-.77344-.36621h-6.17432l4.42871-15.5h7.96484l-2.18945,8.75781c-.07471.29883-.00732.61523.18213.85742.18945.24316.47998.38477.78809.38477h5.5l-11.15479,14.87305Z"/>
        <path d="M51.02002,15.79102c-.35889-.41992-.99072-.46973-1.40967-.11035-.41992.3584-.46973.98926-.11084,1.40918,3.54688,4.15137,5.50049,9.44629,5.50049,14.91016,0,12.68262-10.31787,23-23,23s-23-10.31738-23-23,10.31787-23,23-23c4.09863,0,8.12451,1.09668,11.64209,3.1709.47461.2793,1.08838.12305,1.36914-.35352.28076-.47559.12256-1.08887-.35352-1.36914-3.82471-2.25586-8.20166-3.44824-12.65771-3.44824-13.78516,0-25,11.21484-25,25s11.21484,25,25,25,25-11.21484,25-25c0-5.94043-2.12354-11.69629-5.97998-16.20898Z"/>
        <path d="M51,32c0,.55273.44775,1,1,1s1-.44727,1-1c0-11.5791-9.42041-21-21-21-.55225,0-1,.44727-1,1s.44775,1,1,1c10.47656,0,19,8.52344,19,19Z"/>
        <path d="M13,32c0-.55273-.44775-1-1-1s-1,.44727-1,1c0,11.5791,9.42041,21,21,21,.55225,0,1-.44727,1-1s-.44775-1-1-1c-10.47656,0-19-8.52344-19-19Z"/>
        <path d="M48.19293,14.25769c.35504-.42303.2998-1.05383-.12323-1.40881-.4231-.35498-1.05383-.2998-1.40881.12323-.35504.4231-.29987,1.05383.12323,1.40887.4231.35498,1.05383.2998,1.40881-.12329Z"/>
      </g>
    </g>
  </g>
</svg>