<?xml version="1.0" encoding="UTF-8"?>
<svg xmlns="http://www.w3.org/2000/svg" version="1.1" viewBox="0 0 64 64">
  <!-- Generator: Adobe Illustrator 28.7.1, SVG Export Plug-In . SVG Version: 1.2.0 Build 142)  -->
  <g>
    <g id="Outline">
      <g>
        <path d="M56.41998,18.08998l-24-11c-.26996-.12-.57001-.12-.83997,0L7.58002,18.08998c-.35004.16003-.58002.52002-.58002.91003v37c0,.54999.45001,1,1,1h48c.54999,0,1-.45001,1-1V19.00002c0-.39001-.22998-.75-.58002-.91003ZM50,55.00002H14v-24h36v24ZM55,55.00002h-3v-25c0-.54999-.45001-1-1-1H13c-.54999,0-1,.45001-1,1v25h-3V19.64003l23-10.54004,23,10.54004v35.35999Z"/>
        <path d="M18.5,21.00002h-6c-.55273,0-1,.44727-1,1v4c0,.55273.44727,1,1,1h6c.55273,0,1-.44727,1-1v-4c0-.55273-.44727-1-1-1ZM17.5,25.00002h-4v-2h4v2Z"/>
        <path d="M29.5,21.00002h-6c-.55273,0-1,.44727-1,1v4c0,.55273.44727,1,1,1h6c.55273,0,1-.44727,1-1v-4c0-.55273-.44727-1-1-1ZM28.5,25.00002h-4v-2h4v2Z"/>
        <path d="M34.5,27.00002h6c.55273,0,1-.44727,1-1v-4c0-.55273-.44727-1-1-1h-6c-.55273,0-1,.44727-1,1v4c0,.55273.44727,1,1,1ZM35.5,23.00002h4v2h-4v-2Z"/>
        <path d="M45.5,27.00002h6c.55273,0,1-.44727,1-1v-4c0-.55273-.44727-1-1-1h-6c-.55273,0-1,.44727-1,1v4c0,.55273.44727,1,1,1ZM46.5,23.00002h4v2h-4v-2Z"/>
        <path d="M45,33.00002h-26c-1.6543,0-3,1.3457-3,3v14c0,1.6543,1.3457,3,3,3h26c1.6543,0,3-1.3457,3-3v-14c0-1.6543-1.3457-3-3-3ZM46,50.00002c0,.55176-.44824,1-1,1h-26c-.55176,0-1-.44824-1-1v-14c0-.55176.44824-1,1-1h26c.55176,0,1,.44824,1,1v14Z"/>
        <path d="M22,37.00002c-.55273,0-1,.44727-1,1v10c0,.55273.44727,1,1,1s1-.44727,1-1v-10c0-.55273-.44727-1-1-1Z"/>
        <path d="M27,37.00002c-.55273,0-1,.44727-1,1v10c0,.55273.44727,1,1,1s1-.44727,1-1v-10c0-.55273-.44727-1-1-1Z"/>
        <path d="M32,37.00002c-.55273,0-1,.44727-1,1v10c0,.55273.44727,1,1,1s1-.44727,1-1v-10c0-.55273-.44727-1-1-1Z"/>
        <path d="M37,37.00002c-.55273,0-1,.44727-1,1v10c0,.55273.44727,1,1,1s1-.44727,1-1v-10c0-.55273-.44727-1-1-1Z"/>
        <path d="M42,37.00002c-.55273,0-1,.44727-1,1v10c0,.55273.44727,1,1,1s1-.44727,1-1v-10c0-.55273-.44727-1-1-1Z"/>
      </g>
    </g>
  </g>
</svg>