<?xml version="1.0" encoding="utf-8"?>
<!-- Generator: Adobe Illustrator 27.3.1, SVG Export Plug-In . SVG Version: 6.00 Build 0)  -->
<svg version="1.1" id="Outline" xmlns="http://www.w3.org/2000/svg" xmlns:xlink="http://www.w3.org/1999/xlink" x="0px" y="0px"
	 viewBox="0 0 48 48" enable-background="new 0 0 48 48" xml:space="preserve">
<g>
	<circle cx="22" cy="19" r="1"/>
	<path d="M23,28.76123V23c0-0.55225-0.44775-1-1-1s-1,0.44775-1,1v6.25977c0,0.32568,0.15869,0.63135,0.42578,0.81836
		C23.0376,31.20947,24,33.04932,24,35c0,3.30859-2.69141,6-6,6s-6-2.69141-6-6c0-1.95068,0.9624-3.79053,2.57422-4.92188
		C14.84131,29.89111,15,29.58545,15,29.25977V10c0-1.6543,1.3457-3,3-3s3,1.3457,3,3v5c0,0.55225,0.44775,1,1,1s1-0.44775,1-1v-5
		c0-2.75684-2.24316-5-5-5s-5,2.24316-5,5v18.76123C11.1123,30.28027,10,32.5752,10,35c0,4.41113,3.58887,8,8,8s8-3.58887,8-8
		C26,32.5752,24.8877,30.28027,23,28.76123z"/>
	<path d="M18,11c-0.55225,0-1,0.44775-1,1v19.14203C15.27972,31.58929,14,33.14172,14,35c0,2.20557,1.79443,4,4,4s4-1.79443,4-4
		c0-1.85828-1.27972-3.41071-3-3.85797V12C19,11.44775,18.55225,11,18,11z M20,35c0,1.10303-0.89697,2-2,2s-2-0.89697-2-2
		s0.89697-2,2-2S20,33.89697,20,35z"/>
	<path d="M6,11h4c0.55225,0,1-0.44775,1-1s-0.44775-1-1-1H6c-0.55225,0-1,0.44775-1,1S5.44775,11,6,11z"/>
	<path d="M10,13H8c-0.55225,0-1,0.44775-1,1s0.44775,1,1,1h2c0.55225,0,1-0.44775,1-1S10.55225,13,10,13z"/>
	<path d="M11,18c0-0.55225-0.44775-1-1-1H6c-0.55225,0-1,0.44775-1,1s0.44775,1,1,1h4C10.55225,19,11,18.55225,11,18z"/>
	<path d="M11,22c0-0.55225-0.44775-1-1-1H8c-0.55225,0-1,0.44775-1,1s0.44775,1,1,1h2C10.55225,23,11,22.55225,11,22z"/>
	<path d="M42,13h-1.58594l1.29297-1.29297c0.39062-0.39062,0.39062-1.02344,0-1.41406s-1.02344-0.39062-1.41406,0L37.58594,13
		h-0.7702C36.51367,12.15283,35.84717,11.48633,35,11.18427v-0.7702l2.70703-2.70703c0.39062-0.39062,0.39062-1.02344,0-1.41406
		s-1.02344-0.39062-1.41406,0L35,7.58594V6c0-0.55225-0.44775-1-1-1s-1,0.44775-1,1v1.58594l-1.29297-1.29297
		c-0.39062-0.39062-1.02344-0.39062-1.41406,0s-0.39062,1.02344,0,1.41406L33,10.41406v0.7702
		C32.15283,11.48633,31.48633,12.15283,31.18427,13h-0.7702l-2.70703-2.70703c-0.39062-0.39062-1.02344-0.39062-1.41406,0
		s-0.39062,1.02344,0,1.41406L27.58594,13H26c-0.55225,0-1,0.44775-1,1s0.44775,1,1,1h1.58594l-1.29297,1.29297
		c-0.39062,0.39062-0.39062,1.02344,0,1.41407c0.38588,0.38587,1.0285,0.38556,1.41406,0L30.41406,15h0.77026
		c0.30206,0.84717,0.96851,1.51361,1.81567,1.81567v0.77026l-2.70703,2.70703c-0.39062,0.39062-0.39062,1.02344,0,1.41406
		s1.02344,0.39062,1.41406,0L33,20.41406V22c0,0.55225,0.44775,1,1,1s1-0.44775,1-1v-1.58594c0,0,1.2911,1.2911,1.29296,1.29297
		c0.3742,0.3742,1.02344,0.39063,1.41407,0s0.39062-1.02344,0-1.41406L35,17.58594v-0.7702
		c0.84717-0.30206,1.51367-0.96857,1.81573-1.81573h0.7702c0,0,2.70351,2.70351,2.70703,2.70703
		c0.37314,0.37314,1.02573,0.38834,1.41407,0c0.39062-0.39062,0.39062-1.02344,0-1.41406L40.41406,15H42c0.55225,0,1-0.44775,1-1
		S42.55225,13,42,13z M34,15c-0.55127,0-1-0.44873-1-1s0.44873-1,1-1s1,0.44873,1,1S34.55127,15,34,15z"/>
</g>
</svg>
