<?xml version="1.0" encoding="UTF-8"?>
<svg xmlns="http://www.w3.org/2000/svg" version="1.1" viewBox="0 0 48 48">
  <!-- Generator: Adobe Illustrator 28.7.1, SVG Export Plug-In . SVG Version: 1.2.0 Build 142)  -->
  <g>
    <g id="Outline">
      <g>
        <path d="M39,5H9c-.54999,0-1,.45001-1,1s.45001,1,1,1h1v8c0,.25.09003.47998.25.65997l5.72998,6.44c-2.44,2.20001-3.97998,5.37-3.97998,8.90002,0,6.62,5.38,12,12,12s12-5.38,12-12c0-3.53003-1.53998-6.70001-3.97998-8.90002l5.72998-6.44c.15997-.17999.25-.40997.25-.65997V7h1c.54999,0,1-.45001,1-1s-.45001-1-1-1ZM21,7h2v3c0,.54999.45001,1,1,1s1-.45001,1-1v-3h2v12.39001c-.65002-.16003-1.31-.28003-2-.34003v-5.04999c0-.54999-.45001-1-1-1s-1,.45001-1,1v5.04999c-.69.06-1.34998.17999-2,.34003V7ZM12,14.62v-7.62h7v13.10999c-.5.21997-.96997.47998-1.42999.78003l-5.57001-6.27002ZM34,31c0,5.51001-4.48999,10-10,10s-10-4.48999-10-10,4.48999-10,10-10,10,4.48999,10,10ZM36,14.62l-5.57001,6.27002c-.46002-.30005-.92999-.56006-1.42999-.78003V7h7v7.62Z"/>
        <path d="M16,9c-.55273,0-1,.44727-1,1v5c0,.55273.44727,1,1,1s1-.44727,1-1v-5c0-.55273-.44727-1-1-1Z"/>
        <path d="M33,16c.55273,0,1-.44727,1-1v-5c0-.55273-.44727-1-1-1s-1,.44727-1,1v5c0,.55273.44727,1,1,1Z"/>
        <path d="M26.98242,26.89551l-1.49414-3.09668c-.27832-.57617-.84863-.93457-1.48828-.93457-.64062,0-1.21094.3584-1.48828.93457l-1.49414,3.09668-3.40723.46289c-.63379.08789-1.15039.51953-1.34766,1.12793-.19824.6084-.0332,1.26074.42871,1.7041l2.48242,2.37695-.61133,3.38477c-.11328.62891.1377,1.25293.65528,1.62988s1.18945.41992,1.75391.11914l3.02832-1.62793s3.03027,1.62891,3.03032,1.62893c.55764.29753,1.2404.25187,1.75191-.12014.51758-.37695.76855-1.00098.65527-1.63086l-.61132-3.38379,2.48242-2.37793c.46191-.44238.62695-1.09473.42871-1.70312-.19727-.6084-.71387-1.04004-1.34863-1.12793l-3.40625-.46289ZM27.05469,31.49414c-.24219.23242-.35254.57031-.29297.90039l.5791,3.2041-2.86719-1.54102c-.29688-.1582-.65039-.1582-.94727,0l-2.86719,1.54102.5791-3.2041c.05957-.33008-.05079-.66797-.29297-.90039l-2.35059-2.25098,3.22461-.43848c.33203-.0459.62012-.25488.76562-.55664l1.41504-2.93164,1.41504,2.93164c.14551.30176.43359.51074.76562.55664l3.22461.43848-2.35059,2.25098Z"/>
      </g>
    </g>
  </g>
</svg>