<?xml version="1.0" encoding="UTF-8"?>
<svg xmlns="http://www.w3.org/2000/svg" version="1.1" viewBox="0 0 48 48">
  <!-- Generator: Adobe Illustrator 28.7.1, SVG Export Plug-In . SVG Version: 1.2.0 Build 142)  -->
  <g>
    <g id="Outline">
      <g>
        <path d="M41,22c0-4.54004-1.77002-8.81-4.96997-12.03003-3.22003-3.20001-7.49005-4.96997-12.03003-4.96997-9.37,0-17,7.63-17,17,0,.28998.13.54999.33002.72998,0,.01001,0,.02002.01001.02002l14,12.25h-1.34003c-1.65002,0-3,1.34998-3,3v2c0,1.64996,1.34998,3,3,3h2c.54999,0,1-.45001,1-1s-.45001-1-1-1h-2c-.54999,0-1-.45001-1-1v-2c0-.54999.45001-1,1-1h8c.54999,0,1,.45001,1,1v2c0,.54999-.45001,1-1,1h-2c-.54999,0-1,.45001-1,1s.45001,1,1,1h2c1.65002,0,3-1.35004,3-3v-2c0-1.65002-1.34998-3-3-3h-1.34003s14.10004-12.37,14.11005-12.38c.13995-.16998.22998-.38.22998-.62ZM9.03998,21.57996c.21002-1.44995,1.45001-2.57996,2.96002-2.57996,1.65002,0,3,1.34998,3,3,0,.14996.03998.28998.09998.41998.01001.03003.02002.04999.03003.08002l5.04999,8.82996-11.14001-9.75ZM23,32.22998l-5.97998-10.46002c.12-1.53998,1.39996-2.76996,2.97998-2.76996,1.65002,0,3,1.34998,3,3v10.22998ZM24,19c-.90997-1.21002-2.37-2-4-2s-3.09003.78998-4,2c-.90997-1.21002-2.37-2-4-2-.84003,0-1.64001.20996-2.34003.57996,1.90002-6.12,7.61005-10.57996,14.34003-10.57996,4,0,7.77002,1.56,10.60999,4.39001,1.76001,1.75995,3.03003,3.87994,3.73004,6.18994-.70001-.37-1.49005-.57996-2.34003-.57996-1.63,0-3.09003.78998-4,2-.90997-1.21002-2.37-2-4-2s-3.09003.78998-4,2ZM25,32.22998v-10.22998c0-1.65002,1.34998-3,3-3,1.58002,0,2.85999,1.22998,2.97998,2.76996l-5.97998,10.46002ZM27.82001,31.32996l5.04999-8.82996c.01001-.03003.02002-.04999.03003-.08002.06-.13.09998-.27002.09998-.41998,0-1.65002,1.34998-3,3-3,1.51001,0,2.75,1.13,2.96002,2.57996l-11.14001,9.75Z"/>
        <path d="M33.20508,14.21973c.39062-.3916.38867-1.02441-.00195-1.41406-2.46387-2.4541-5.73242-3.80566-9.20312-3.80566-3.93457,0-7.61816,1.76074-10.10547,4.8291-.3476.42963-.28125,1.05939.1474,1.40717.40283.32684,1.0575.28156,1.40729-.1474,2.10449-2.59863,5.22168-4.08887,8.55078-4.08887,2.93848,0,5.70508,1.14453,7.79102,3.22168.39258.39258,1.02539.39062,1.41406-.00195Z"/>
      </g>
    </g>
  </g>
</svg>