<?xml version="1.0" encoding="UTF-8"?>
<svg xmlns="http://www.w3.org/2000/svg" version="1.1" viewBox="0 0 48 48">
  <!-- Generator: Adobe Illustrator 28.7.1, SVG Export Plug-In . SVG Version: 1.2.0 Build 142)  -->
  <g>
    <g id="Outline">
      <g>
        <path d="M16,30c-.55225,0-1,.44727-1,1v2.69727l-2.16797-3.25195c-.24463-.36719-.70117-.53223-1.12158-.40234-.42188.12793-.71045.5166-.71045.95703v6c0,.55273.44775,1,1,1s1-.44727,1-1v-2.69727l2.16797,3.25195c.24046.36069.70674.52934,1.12158.40234.42188-.12793.71045-.5166.71045-.95703v-6c0-.55273-.44775-1-1-1Z"/>
        <path d="M34,25c-1.03064,0-2.01721.1828-2.94019.50317l-1.95129-4.10217c2.34796-1.62579,3.89148-4.33502,3.89148-7.401,0-.84668-.11719-1.68555-.34863-2.49414-.15137-.53125-.70557-.83398-1.23633-.6875-.53076.15234-.83838.70605-.68652,1.23633.18018.63086.27148,1.28516.27148,1.94531,0,2.62592-1.45544,4.91632-3.60046,6.11389-.00305.0014-.00635.00085-.0094.00232-.0094.00446-.01483.01324-.02405.01801-.99957.55072-2.14642.86578-3.36609.86578s-2.36652-.31506-3.36609-.86578c-.00922-.00476-.01465-.01355-.02405-.01801-.00305-.00146-.00641-.00092-.00946-.00232-2.14502-1.19763-3.6004-3.48804-3.6004-6.11389,0-3.85938,3.14014-7,7-7,.65869,0,1.31348.0918,1.94678.27148.52686.15234,1.08398-.15625,1.23535-.68848.15088-.53125-.15723-1.08398-.68848-1.23535-.81055-.23047-1.6499-.34766-2.49365-.34766-4.9624,0-9,4.03711-9,9,0,3.06598,1.54352,5.77521,3.89148,7.401l-1.95129,4.10217c-.92297-.32037-1.90955-.50317-2.94019-.50317-4.9624,0-9,4.03711-9,9s4.0376,9,9,9c4.62408,0,8.44153-3.50653,8.94104-8h2.11792c.49951,4.49347,4.31696,8,8.94104,8,4.9624,0,9-4.03711,9-9s-4.0376-9-9-9ZM14,41c-3.85986,0-7-3.14062-7-7s3.14014-7,7-7,7,3.14062,7,7-3.14014,7-7,7ZM22.94104,33c-.31134-2.8006-1.91479-5.21033-4.1969-6.63379l1.91113-4.01776c1.03534.41632,2.16229.65155,3.34473.65155s2.30939-.23523,3.34473-.65155l1.91113,4.01776c-2.2821,1.42346-3.88556,3.83319-4.1969,6.63379h-2.11792ZM34,41c-3.85986,0-7-3.14062-7-7s3.14014-7,7-7,7,3.14062,7,7-3.14014,7-7,7Z"/>
        <path d="M36,30c-.55225,0-1,.44727-1,1v2.69727l-2.16797-3.25195c-.24512-.36719-.70068-.53223-1.12158-.40234-.42188.12793-.71045.5166-.71045.95703v6c0,.55273.44775,1,1,1s1-.44727,1-1v-2.69727l2.16797,3.25195c.24062.36093.70648.52942,1.12158.40234.42188-.12793.71045-.5166.71045-.95703v-6c0-.55273-.44775-1-1-1Z"/>
        <path d="M26,10c-.55225,0-1,.44727-1,1v2.69727l-2.16797-3.25195c-.24463-.36621-.70068-.53223-1.12158-.40234-.42188.12793-.71045.5166-.71045.95703v6c0,.55273.44775,1,1,1s1-.44727,1-1v-2.69727l2.16797,3.25195c.24062.36093.70652.52941,1.12158.40235.42188-.12793.71045-.5166.71045-.95703v-6c0-.55273-.44775-1-1-1Z"/>
        <path d="M30.36395,9.05023c.3905-.3905.3905-1.02368,0-1.41418-.3905-.39056-1.02368-.39056-1.41418,0-.39056.3905-.39056,1.02368,0,1.41418.3905.3905,1.02368.3905,1.41418,0Z"/>
      </g>
    </g>
  </g>
</svg>