<?xml version="1.0" encoding="utf-8"?>
<!-- Generator: Adobe Illustrator 27.3.1, SVG Export Plug-In . SVG Version: 6.00 Build 0)  -->
<svg version="1.1" id="Outline" xmlns="http://www.w3.org/2000/svg" xmlns:xlink="http://www.w3.org/1999/xlink" x="0px" y="0px"
	 viewBox="0 0 48 48" enable-background="new 0 0 48 48" xml:space="preserve">
<g>
	<path d="M13.39355,13.39355C10.56445,16.22217,9.00635,19.98926,9.00635,24c0,4.01073,1.55809,7.7778,4.38717,10.60641
		c0.37399,0.37393,1.02492,0.38922,1.4141,0.00004c0.39062-0.39062,0.39062-1.02344,0-1.41406
		C12.35645,30.74121,11.00635,27.47656,11.00635,24s1.3501-6.74121,3.80127-9.19238c0.39062-0.39062,0.39062-1.02344,0-1.41406
		S13.78418,13.00293,13.39355,13.39355z"/>
	<path d="M16.22168,16.22168c-4.28857,4.28906-4.28857,11.26758,0,15.55664c0.38637,0.38637,1.0282,0.38585,1.41406,0
		c0.39062-0.39014,0.39062-1.02344,0-1.41406c-3.50879-3.50928-3.50879-9.21924,0-12.72852
		c0.39062-0.39062,0.39062-1.02393,0-1.41406C17.24512,15.83105,16.6123,15.83105,16.22168,16.22168z"/>
	<path d="M20.46436,19.05029c-0.39062-0.39062-1.02344-0.39062-1.41406,0c-2.72948,2.729-2.72949,7.17039-0.00002,9.89939
		c0.37533,0.37527,1.02214,0.39196,1.41409,0.00002c0.39062-0.39062,0.39062-1.02344,0-1.41406
		c-1.94922-1.94971-1.94922-5.12158,0-7.07129C20.85498,20.07373,20.85498,19.44092,20.46436,19.05029z"/>
	<path d="M33.19238,33.19238c-0.39062,0.39062-0.39062,1.02343-0.00001,1.41405c0.37511,0.37512,1.02144,0.39264,1.41407,0.00001
		c2.8291-2.82861,4.38721-6.5957,4.38721-10.60645s-1.55811-7.77783-4.38721-10.60645c-0.39062-0.39062-1.02344-0.39062-1.41406,0
		s-0.39062,1.02344,0,1.41406c2.45117,2.45117,3.80127,5.71582,3.80127,9.19238S35.64355,30.74121,33.19238,33.19238z"/>
	<path d="M30.36426,16.22168c-0.39062,0.39014-0.39062,1.02344,0,1.41406c3.50879,3.50928,3.50879,9.21924,0,12.72852
		c-0.39062,0.39062-0.39062,1.0239-0.00002,1.41404c0.37552,0.37508,1.02157,0.39253,1.41408,0.00002
		c4.28857-4.28906,4.28857-11.26758,0-15.55664C31.3877,15.83105,30.75488,15.83105,30.36426,16.22168z"/>
	<path d="M27.53564,28.94971c0.37431,0.37431,1.02438,0.38968,1.41406,0c2.72949-2.729,2.72949-7.17041,0-9.89941
		c-0.39062-0.39062-1.02344-0.39062-1.41406,0s-0.39062,1.02344,0,1.41406c1.94922,1.94971,1.94922,5.12158,0,7.07129
		C27.14504,27.92625,27.14502,28.55903,27.53564,28.94971z"/>
	<path d="M11.97919,11.97919c0.3905-0.39056,0.3905-1.02368,0-1.41425c-0.3905-0.3905-1.02368-0.3905-1.41425,0
		c-0.3905,0.39056-0.3905,1.02368,0,1.41425C10.95551,12.36969,11.58868,12.36969,11.97919,11.97919z"/>
	<g>
		<path d="M28.50977,36.36719l-3.22278-9.6687C26.2962,26.21484,27,25.19189,27,24c0-1.6543-1.3457-3-3-3s-3,1.3457-3,3
			c0,1.19189,0.7038,2.21478,1.71301,2.69843c0,0-3.21807,9.65417-3.22278,9.66827C19.08073,37.59522,20.06475,39,21.38721,39
			c0,0,5.21942,0,5.22559,0C27.95349,39,28.93323,37.63763,28.50977,36.36719z M24,23c0.55127,0,1,0.44873,1,1s-0.44873,1-1,1
			s-1-0.44873-1-1S23.44873,23,24,23z M21.3877,37l2.61279-7.83887L26.61572,37H21.3877z"/>
		<path d="M24,5c-3.59717,0-7.10156,1.01465-10.13477,2.93506c-0.4668,0.29492-0.60547,0.91309-0.31006,1.37939
			c0.29346,0.4668,0.91113,0.60693,1.37939,0.31006C17.64746,7.90771,20.78223,7,24,7c9.37402,0,17,7.62598,17,17s-7.62598,17-17,17
			S7,33.37402,7,24c0-3.21777,0.90771-6.35254,2.62451-9.06543c0.29541-0.46631,0.15674-1.08447-0.31006-1.37939
			c-0.46777-0.29688-1.08496-0.15625-1.37939,0.31006C6.01465,16.89844,5,20.40283,5,24c0,10.47656,8.52344,19,19,19
			s19-8.52344,19-19S34.47656,5,24,5z"/>
	</g>
</g>
</svg>
