<?xml version="1.0" encoding="UTF-8"?>
<svg xmlns="http://www.w3.org/2000/svg" version="1.1" viewBox="0 0 64 64">
  <!-- Generator: Adobe Illustrator 28.7.1, SVG Export Plug-In . SVG Version: 1.2.0 Build 142)  -->
  <g>
    <g id="Outline">
      <g>
        <path d="M25,7c-8.72998,0-18,2.45001-18,7v36c0,4.54999,9.27002,7,18,7s18-2.45001,18-7V14c0-4.54999-9.27002-7-18-7ZM41,50c0,2.08997-6.09003,5-16,5s-16-2.91003-16-5v-2.67999c3.19,2.40997,9.72998,3.67999,16,3.67999s12.81-1.27002,16-3.67999v2.67999ZM41,44c0,2.08997-6.09003,5-16,5s-16-2.91003-16-5v-20.67999c3.19,2.40997,9.72998,3.67999,16,3.67999s12.81-1.27002,16-3.67999v20.67999ZM41,20c0,2.08997-6.09003,5-16,5s-16-2.91003-16-5v-2.67999c3.19,2.40997,9.72998,3.67999,16,3.67999s12.81-1.27002,16-3.67999v2.67999ZM25,19c-9.90997,0-16-2.91003-16-5s6.09003-5,16-5,16,2.90997,16,5-6.09003,5-16,5Z"/>
        <path d="M17,17c2.24316,0,4-1.31787,4-3s-1.75684-3-4-3-4,1.31787-4,3,1.75684,3,4,3ZM17,13c1.2207,0,2,.59229,2,1s-.7793,1-2,1-2-.59229-2-1,.7793-1,2-1Z"/>
        <path d="M24.25586,29.33203c-.64062.71387-6.25586,7.0752-6.25586,10.66797,0,3.85986,3.14014,7,7,7s7-3.14014,7-7c0-3.59277-5.61523-9.9541-6.25586-10.66797-.37891-.42285-1.10938-.42285-1.48828,0ZM30,40c0,2.75684-2.24316,5-5,5s-5-2.24316-5-5c0-1.90625,2.81641-5.88379,5-8.4751,2.18408,2.58984,5,6.56641,5,8.4751Z"/>
        <path d="M24.00049,40.03174c-.01709-.55225-.48291-.99268-1.03076-.96826-.55225.01709-.98535.479-.96826,1.03076.05127,1.62939,1.36816,2.90576,2.99854,2.90576.55225,0,1-.44775,1-1s-.44775-1-1-1c-.53418,0-.98291-.43457-.99951-.96826Z"/>
        <path d="M51.74414,7.33203c-.37891-.42285-1.10938-.42285-1.48828,0-.53809.59961-5.25586,5.94531-5.25586,9.00146,0,3.30859,2.69141,6,6,6s6-2.69141,6-6c0-3.05615-4.71777-8.40186-5.25586-9.00146ZM51,20.3335c-2.20557,0-4-1.79443-4-4,0-1.51025,2.21631-4.66504,4-6.80322,1.78369,2.13818,4,5.29297,4,6.80322,0,2.20557-1.79443,4-4,4Z"/>
      </g>
    </g>
  </g>
</svg>