<?xml version="1.0" encoding="UTF-8"?>
<svg xmlns="http://www.w3.org/2000/svg" version="1.1" viewBox="0 0 64 64">
  <!-- Generator: Adobe Illustrator 28.7.1, SVG Export Plug-In . SVG Version: 1.2.0 Build 142)  -->
  <g>
    <g id="Outline">
      <g>
        <path d="M56.97016,30.63877c.01001-.05005.03003-.09003.03003-.14001v-6c0-1.65002-1.34998-3-3-3v-8h1c.54999,0,1-.45001,1-1s-.45001-1-1-1h-4c-.54999,0-1,.45001-1,1s.45001,1,1,1h1v8h-2v-2c0-2.21002-1.78998-4-4-4s-4,1.78998-4,4v2c-1.65002,0-3,1.34998-3,3v5h-1c-.31,0-.60999.14996-.79999.39996l-2.70001,3.60004h-2.5v-3c0-2.41003-1.71997-4.42999-4-4.90002v-1.09998c0-1.65002-1.34998-3-3-3h-8c-1.65002,0-3,1.34998-3,3v1.09998c-2.28003.47003-4,2.48999-4,4.90002v3h-2c-.32001,0-.62.14996-.81.41998-.19.26001-.23999.59003-.14001.90002l3.41998,10.25995c-1.06.08002-2.09998.43005-3.02997,1.04004-.27002.19-.44.5-.44.83997v4.54004c0,.37.20001.70996.53003.88.31995.17999.71997.15997,1.02997-.05005,1.47998-.98999,3.40002-.98999,4.88,0,.34003.23004.77997.23004,1.12,0,1.47998-.98999,3.40002-.98999,4.88,0,.34003.23004.77997.23004,1.12,0,1.47998-.98999,3.40002-.98999,4.88,0,.34003.23004.77997.23004,1.12,0,1.47998-.98999,3.40002-.98999,4.88,0,.34003.23004.77997.23004,1.12,0,1.47998-.98999,3.40002-.98999,4.88,0,.34003.23004.77997.23004,1.12,0,1.47998-.98999,3.40002-.98999,4.88,0,.34003.23004.77997.23004,1.12,0,1.47998-.98999,3.40002-.98999,4.88,0,.34003.23004.77997.23004,1.12,0,1.47998-.98999,3.40002-.98999,4.88,0,.16998.11005.37.17004.56.17004.15997,0,.32001-.04004.46997-.12.33002-.17004.53003-.51001.53003-.88v-4.54004c0-.33997-.16998-.64996-.44-.83997-.96997-.64001-2.07001-.98999-3.16998-1.06l3.57996-14.32001c.01001-.03003,0-.07001,0-.09998ZM44.00019,19.49876c0-1.10004.90002-2,2-2s2,.89996,2,2v2h-4v-2ZM29.82019,29.49876h-5.64001c.41998-1.16003,1.52002-2,2.82001-2s2.40002.83997,2.82001,2ZM30.00019,31.49876v2h-6v-2h6ZM16.00019,24.49876c0-.54999.45001-1,1-1h8c.54999,0,1,.45001,1,1v1.09998c-2.28003.47003-4,2.48999-4,4.90002v3h-2v-3c0-2.41003-1.71997-4.42999-4-4.90002v-1.09998ZM15.00019,27.49876c1.29999,0,2.40002.83997,2.82001,2h-5.64001c.41998-1.16003,1.52002-2,2.82001-2ZM12.00019,31.49876h6v2h-6v-2ZM55.00019,47.52872v2.38c-1.64001-.53998-3.45001-.39996-5,.42999-.94-.5-1.96997-.75-3-.75s-2.06.25-3,.75c-1.88-1-4.12-1-6,0-1.88-1-4.12-1-6,0-1.88-1-4.12-1-6,0-1.88-1-4.12-1-6,0-1.88-1-4.12-1-6,0-1.54999-.82996-3.35999-.96997-5-.42999v-2.38c1.40997-.72998,3.09998-.63995,4.44.26001.34003.22003.77997.22003,1.12,0,1.47998-1,3.40002-1,4.88,0,.34003.22003.77997.22003,1.12,0,1.47998-1,3.40002-1,4.88,0,.34003.22003.77997.22003,1.12,0,1.47998-1,3.40002-1,4.88,0,.34003.22003.77997.22003,1.12,0,1.47998-1,3.40002-1,4.88,0,.34003.22003.77997.22003,1.12,0,1.47998-1,3.40002-1,4.88,0,.34003.22003.77997.22003,1.12,0,1.47998-1,3.40002-1,4.88,0,.34003.22003.77997.22003,1.12,0,1.34003-.89996,3.03003-.98999,4.44-.26001ZM51.27021,45.29874c-.44.12-.86005.27997-1.27002.48999-1.88-1-4.12-1-6,0-1.88-1-4.12-1-6,0-1.88-1-4.12-1-6,0-1.88-1-4.12-1-6,0-1.88-1-4.12-1-6,0-1.88-1-4.12-1-6,0-.44-.22998-.89001-.39996-1.35999-.52002l-3.25-9.76996h25.60999c.31,0,.60999-.15002.79999-.40002l2.70001-3.59998h16.21997l-3.44995,13.79999ZM55.00019,29.49876h-14v-5c0-.54999.45001-1,1-1h12c.54999,0,1,.45001,1,1v5Z"/>
        <path d="M16.00019,37.49876c-1.6543,0-3,1.3457-3,3s1.3457,3,3,3,3-1.3457,3-3-1.3457-3-3-3ZM16.00019,41.49876c-.55176,0-1-.44873-1-1s.44824-1,1-1,1,.44873,1,1-.44824,1-1,1Z"/>
        <path d="M24.00019,37.49876c-1.6543,0-3,1.3457-3,3s1.3457,3,3,3,3-1.3457,3-3-1.3457-3-3-3ZM24.00019,41.49876c-.55176,0-1-.44873-1-1s.44824-1,1-1,1,.44873,1,1-.44824,1-1,1Z"/>
        <path d="M32.00019,37.49876c-1.6543,0-3,1.3457-3,3s1.3457,3,3,3,3-1.3457,3-3-1.3457-3-3-3ZM32.00019,41.49876c-.55176,0-1-.44873-1-1s.44824-1,1-1,1,.44873,1,1-.44824,1-1,1Z"/>
        <path d="M37.00019,40.49876c0,1.6543,1.3457,3,3,3s3-1.3457,3-3-1.3457-3-3-3-3,1.3457-3,3ZM40.00019,39.49876c.55176,0,1,.44873,1,1s-.44824,1-1,1-1-.44873-1-1,.44824-1,1-1Z"/>
        <path d="M48.00019,43.49876c1.6543,0,3-1.3457,3-3s-1.3457-3-3-3-3,1.3457-3,3,1.3457,3,3,3ZM48.00019,39.49876c.55176,0,1,.44873,1,1s-.44824,1-1,1-1-.44873-1-1,.44824-1,1-1Z"/>
        <circle cx="52.00019" cy="26.49876" r="1"/>
        <circle cx="48.00019" cy="26.49876" r="1"/>
        <circle cx="44.00019" cy="26.49876" r="1"/>
      </g>
    </g>
  </g>
</svg>