<?xml version="1.0" encoding="UTF-8"?>
<svg xmlns="http://www.w3.org/2000/svg" version="1.1" viewBox="0 0 64 64">
  <!-- Generator: Adobe Illustrator 28.7.1, SVG Export Plug-In . SVG Version: 1.2.0 Build 142)  -->
  <g>
    <g id="Outline">
      <g>
        <path d="M17.83203,30.55469l2-3c.20459-.30664.22363-.70117.0498-1.02637-.17432-.3252-.51318-.52832-.88184-.52832h-2.13135l.96338-1.44531c.30615-.45947.18213-1.08057-.27734-1.38672-.46045-.30762-1.08057-.18213-1.38672.27734l-2,3c-.20459.30664-.22363.70117-.0498,1.02637.17432.3252.51318.52832.88184.52832h2.13135l-.96338,1.44531c-.30615.45947-.18213,1.08057.27751,1.38683.45395.30294,1.08319.17758,1.38655-.27745Z"/>
        <path d="M56,19c.54999,0,1-.45001,1-1v-8c0-1.65002-1.34998-3-3-3h-20c-1.65002,0-3,1.34998-3,3v20c0,1.64996,1.34998,3,3,3h9v3.5c0,1.92999-1.57001,3.5-3.5,3.5-3.03003,0-5.5,2.46997-5.5,5.5v1.5c0,4.40997-3.59003,8-8,8s-8-3.59003-8-8v-12.07001c3.94-.48999,7-3.85999,7-7.92999v-6.17999c1.15997-.42004,2-1.52002,2-2.82001,0-1.65002-1.34998-3-3-3v-5c0-1.65002-1.34998-3-3-3s-3,1.34998-3,3v5h-2v-5c0-1.65002-1.34998-3-3-3s-3,1.34998-3,3v5c-1.65002,0-3,1.34998-3,3,0,1.29999.84003,2.39996,2,2.82001v6.17999c0,4.07001,3.06,7.44,7,7.92999v12.07001c0,5.51001,4.48999,10,10,10s10-4.48999,10-10v-1.5c0-1.92999,1.57001-3.5,3.5-3.5,3.03003,0,5.5-2.47003,5.5-5.5v-3.5h9c1.65002,0,3-1.35004,3-3v-4c0-.54999-.45001-1-1-1s-1,.45001-1,1v4c0,.54999-.45001,1-1,1h-20c-.54999,0-1-.45001-1-1V10c0-.54999.45001-1,1-1h20c.54999,0,1,.45001,1,1v8c0,.54999.45001,1,1,1ZM20,10c0-.54999.45001-1,1-1s1,.45001,1,1v5h-2v-5ZM12,10c0-.54999.45001-1,1-1s1,.45001,1,1v5h-2v-5ZM9,18c0-.54999.45001-1,1-1h14c.54999,0,1,.45001,1,1s-.45001,1-1,1h-14c-.54999,0-1-.45001-1-1ZM11,27v-6h12v6c0,3.31-2.69,6-6,6s-6-2.69-6-6Z"/>
        <path d="M35,20c0,4.9624,4.0376,9,9,9s9-4.0376,9-9-4.0376-9-9-9-9,4.0376-9,9ZM51,20c0,3.85986-3.14014,7-7,7s-7-3.14014-7-7,3.14014-7,7-7,7,3.14014,7,7Z"/>
        <path d="M41,17c-.55225,0-1,.44775-1,1v4c0,.55225.44775,1,1,1s1-.44775,1-1v-4c0-.55225-.44775-1-1-1Z"/>
        <path d="M47,23c.55225,0,1-.44775,1-1v-4c0-.55225-.44775-1-1-1s-1,.44775-1,1v4c0,.55225.44775,1,1,1Z"/>
        <circle cx="56" cy="22" r="1"/>
      </g>
    </g>
  </g>
</svg>