<?xml version="1.0" encoding="UTF-8"?>
<svg id="Outline" xmlns="http://www.w3.org/2000/svg" version="1.1" viewBox="0 0 64 64">
  <path d="M14,39c-1.6543,0-3,1.3457-3,3s1.3457,3,3,3,3-1.3457,3-3-1.3457-3-3-3ZM14,43c-.55176,0-1-.44824-1-1s.44824-1,1-1,1,.44824,1,1-.44824,1-1,1Z" fill="#000" stroke-width="0"/>
  <path d="M23,39c-1.6543,0-3,1.3457-3,3s1.3457,3,3,3,3-1.3457,3-3-1.3457-3-3-3ZM23,43c-.55176,0-1-.44824-1-1s.44824-1,1-1,1,.44824,1,1-.44824,1-1,1Z" fill="#000" stroke-width="0"/>
  <path d="M50,39c-1.6543,0-3,1.3457-3,3s1.3457,3,3,3,3-1.3457,3-3-1.3457-3-3-3ZM50,43c-.55176,0-1-.44824-1-1s.44824-1,1-1,1,.44824,1,1-.44824,1-1,1Z" fill="#000" stroke-width="0"/>
  <path d="M41,39c-1.6543,0-3,1.3457-3,3s1.3457,3,3,3,3-1.3457,3-3-1.3457-3-3-3ZM41,43c-.55176,0-1-.44824-1-1s.44824-1,1-1,1,.44824,1,1-.44824,1-1,1Z" fill="#000" stroke-width="0"/>
  <path d="M32,39c-1.6543,0-3,1.3457-3,3s1.3457,3,3,3,3-1.3457,3-3-1.3457-3-3-3ZM32,43c-.55176,0-1-.44824-1-1s.44824-1,1-1,1,.44824,1,1-.44824,1-1,1Z" fill="#000" stroke-width="0"/>
  <path d="M50,35h-10v-9c0-.54999-.45001-1-1-1h-14c-.54999,0-1,.45001-1,1v9h-10c-3.85999,0-7,3.14001-7,7s3.14001,7,7,7h1v7c0,.54999.45001,1,1,1h4c.54999,0,1-.45001,1-1v-7h22v7c0,.54999.45001,1,1,1h4c.54999,0,1-.45001,1-1v-7h1c3.85999,0,7-3.14001,7-7s-3.14001-7-7-7ZM30,27h4v2.60999l-1.67999-.56c-.10999-.03003-.21002-.04999-.32001-.04999s-.21002.01996-.32001.04999l-1.67999.56v-2.60999ZM26,27h2v4c0,.32001.15002.62.41998.81.26001.19.59003.23999.90002.14001l2.67999-.90002s2.66998.90002,2.67999.90002c.62.20996,1.32001-.27002,1.32001-.95001v-4h2v8h-12v-8ZM19,55h-2v-6h2v6ZM47,55h-2v-6h2v6ZM50,47H14c-2.76001,0-5-2.23999-5-5s2.23999-5,5-5h36c2.76001,0,5,2.23999,5,5s-2.23999,5-5,5Z" fill="#000" stroke-width="0"/>
  <path d="M56,7H8c-.54999,0-1,.45001-1,1v4c0,.54999.45001,1,1,1h5v1c0,1.64996,1.34998,3,3,3h2v2.58997l-1.71002,1.70001c-.17999.19-.28998.44-.28998.71002v2c0,.54999.45001,1,1,1s1-.45001,1-1v-1.59003l1-1,1,1v1.59003c0,.54999.45001,1,1,1s1-.45001,1-1v-2c0-.27002-.10999-.52002-.28998-.71002l-1.71002-1.70001v-2.58997h2c1.65002,0,3-1.35004,3-3v-1h14v1c0,1.64996,1.34998,3,3,3h2v2.58997l-1.71002,1.70001c-.17999.19-.28998.44-.28998.71002v2c0,.54999.45001,1,1,1s1-.45001,1-1v-1.59003l1-1,1,1v1.59003c0,.54999.45001,1,1,1s1-.45001,1-1v-2c0-.27002-.10999-.52002-.28998-.71002l-1.71002-1.70001v-2.58997h2c1.65002,0,3-1.35004,3-3v-1h5c.54999,0,1-.45001,1-1v-4c0-.54999-.45001-1-1-1ZM23,14c0,.54999-.45001,1-1,1h-6c-.54999,0-1-.45001-1-1v-1h8v1ZM49,14c0,.54999-.45001,1-1,1h-6c-.54999,0-1-.45001-1-1v-1h8v1ZM55,11H9v-2h46v2Z" fill="#000" stroke-width="0"/>
  <path d="M42,30c0,.55225.44727,1,1,1h3.58594l-.29296.29296c-.61549.61549-.15756,1.70704.70703,1.70704.25586,0,.51172-.09766.70703-.29297l2-2c.39062-.39062.39062-1.02344,0-1.41406l-2-2c-.39062-.39062-1.02344-.39062-1.41406,0s-.39062,1.02344,0,1.41406l.29297.29297h-3.58594c-.55273,0-1,.44775-1,1Z" fill="#000" stroke-width="0"/>
  <path d="M14,30c0,.55225.44727,1,1,1h3.58594l-.29297.29297c-.39057.39057-.39062,1.02327-.00016,1.4139.36202.36218,1.03019.38418,1.41422.00016l2-2c.39062-.39062.39062-1.02344,0-1.41406l-2-2c-.39062-.39062-1.02344-.39062-1.41406,0s-.39062,1.02344,0,1.41406l.29297.29297h-3.58594c-.55273,0-1,.44775-1,1Z" fill="#000" stroke-width="0"/>
</svg>