<?xml version="1.0" encoding="UTF-8"?>
<svg xmlns="http://www.w3.org/2000/svg" version="1.1" viewBox="0 0 48 48">
  <!-- Generator: Adobe Illustrator 28.7.1, SVG Export Plug-In . SVG Version: 1.2.0 Build 142)  -->
  <g>
    <g id="Outline">
      <g>
        <path d="M40,15h-12c-1.65002,0-3,1.34998-3,3,0,1.29999.84003,2.39996,2,2.82001v2.17999c0,.54999.45001,1,1,1s1-.45001,1-1v-2h10v2h-2c-.54999,0-1,.45001-1,1s.45001,1,1,1h2v2h-2c-.54999,0-1,.45001-1,1s.45001,1,1,1h2v2h-2c-.54999,0-1,.45001-1,1s.45001,1,1,1h2v2h-2c-.54999,0-1,.45001-1,1s.45001,1,1,1h1.90002c-.47003,2.27997-2.49005,4-4.90002,4-1.58002,0-3.06-.75-3.98999-2.01001-.06-.15002-.10004-.29999-.17999-.45001l-.61005-1.08997c-.13995-.46002-.21997-.95001-.21997-1.45001v-5c0-.54999-.45001-1-1-1s-1,.45001-1,1v2.45001l-5.40002-9.71002v-6.91998c1.17004-.42004,2-1.52002,2-2.82001,0-1.65002-1.33997-3-3-3h-6c-1.64996,0-3,1.34998-3,3,0,1.29999.84003,2.39996,2,2.82001v6.91998l-8.21997,14.79999c-.52002.94-.51001,2.06.03998,2.97998.54004.93005,1.51001,1.48004,2.58002,1.48004h19.20001c1.06,0,2.01996-.54004,2.56-1.44,1.20996.90997,2.69,1.44,4.23999,1.44,3.85999,0,7-3.14001,7-7v-15.17999c1.15997-.42004,2-1.52002,2-2.82001,0-1.65002-1.34998-3-3-3ZM14.59998,13h6c.56,0,1,.45001,1,1s-.44,1-1,1h-6c-.54999,0-1-.45001-1-1s.45001-1,1-1ZM28.07001,40.51001c-.09003.14996-.35004.48999-.87.48999H8c-.51001,0-.77002-.34003-.85999-.48999-.09003-.15002-.26001-.54004-.01001-1l8.34998-15.02002c.08002-.15002.12-.32001.12-.48999v-7h4v7c0,.16998.05005.33997.13.48999l8.35004,15.02002c.25.45996.07001.84998-.01001,1ZM40,19h-12c-.54999,0-1-.45001-1-1s.45001-1,1-1h12c.54999,0,1,.45001,1,1s-.45001,1-1,1Z"/>
        <circle cx="12" cy="38" r="1"/>
        <path d="M20,31c0-1.6543-1.3457-3-3-3s-3,1.3457-3,3,1.3457,3,3,3,3-1.3457,3-3ZM17,32c-.55127,0-1-.44873-1-1s.44873-1,1-1,1,.44873,1,1-.44873,1-1,1Z"/>
        <circle cx="21" cy="35" r="1"/>
        <circle cx="20" cy="38" r="1"/>
        <circle cx="16" cy="37" r="1"/>
        <circle cx="24" cy="38" r="1"/>
        <circle cx="28" cy="27" r="1"/>
      </g>
    </g>
  </g>
</svg>