<?xml version="1.0" encoding="UTF-8"?>
<svg id="Outline" xmlns="http://www.w3.org/2000/svg" version="1.1" viewBox="0 0 48 48">
  <path d="M40,8h-3.12836c-.44714-1.72028-1.99927-3-3.85797-3s-3.41083,1.27972-3.85797,3h-10.29773c-.44727-1.72028-1.99969-3-3.85797-3s-3.41071,1.27972-3.85797,3h-3.14203c-1.6543,0-3,1.3457-3,3v29c0,1.6543,1.3457,3,3,3h32c1.6543,0,3-1.3457,3-3V11c0-1.6543-1.3457-3-3-3ZM33.01367,7c.73676,0,1.37476.40509,1.7218,1h-3.4436c.34705-.59491.98505-1,1.7218-1ZM15,7c.73712,0,1.375.40509,1.72186,1h-3.44373c.34686-.59491.98474-1,1.72186-1ZM41,40c0,.55127-.44824,1-1,1H8c-.55127,0-1-.44873-1-1V11c0-.55127.44873-1,1-1h3.14203c.44727,1.72028,1.99969,3,3.85797,3,.55225,0,1-.44775,1-1s-.44775-1-1-1c-.73712,0-1.375-.40509-1.72186-1h15.87756c.44714,1.72028,1.99927,3,3.85797,3,.55273,0,1-.44775,1-1s-.44727-1-1-1c-.73676,0-1.37476-.40509-1.7218-1h8.70813c.55176,0,1,.44873,1,1v29Z" fill="#000" stroke-width="0"/>
  <path d="M38,15H10c-.55225,0-1,.44775-1,1v22c0,.55225.44775,1,1,1h28c.55273,0,1-.44775,1-1v-22c0-.55225-.44727-1-1-1ZM37,37H11v-20h26v20Z" fill="#000" stroke-width="0"/>
  <path d="M16,28.84204v5.15796c0,.55225.44775,1,1,1s1-.44775,1-1v-5.15796c.66229-.19,1.27039-.54932,1.73535-1.07593.69189-.78418,1.01465-1.82959.88477-2.86719l-.37988-3.03857c-.20361-1.63086-1.59668-2.86035-3.24023-2.86035s-3.03662,1.22949-3.24023,2.86035l-.37988,3.03857c-.12988,1.0376.19287,2.08301.88477,2.86719.46497.52661,1.073.88593,1.73535,1.07593ZM15.36426,25.14697l.37988-3.03857c.0791-.63184.61865-1.1084,1.25586-1.1084s1.17676.47656,1.25586,1.1084l.37988,3.03857c.05957.47607-.08252.93604-.3999,1.29541-.63477.71875-1.83691.71875-2.47168,0-.31738-.35938-.45947-.81934-.3999-1.29541Z" fill="#000" stroke-width="0"/>
  <path d="M29,28v6c0,.55225.44727,1,1,1s1-.44775,1-1v-6c2.20605,0,4-1.79443,4-4v-4c0-.55225-.44727-1-1-1s-1,.44775-1,1v4c0,1.10303-.89746,2-2,2v-6c0-.55225-.44727-1-1-1s-1,.44775-1,1v6c-1.10254,0-2-.89697-2-2v-4c0-.55225-.44727-1-1-1s-1,.44775-1,1v4c0,2.20557,1.79395,4,4,4Z" fill="#000" stroke-width="0"/>
</svg>