<?xml version="1.0" encoding="UTF-8"?>
<svg xmlns="http://www.w3.org/2000/svg" version="1.1" viewBox="0 0 64 64">
  <!-- Generator: Adobe Illustrator 28.7.1, SVG Export Plug-In . SVG Version: 1.2.0 Build 142)  -->
  <g>
    <g id="Outline">
      <g>
        <circle cx="19" cy="30" r="1"/>
        <circle cx="51" cy="18.70709" r="1"/>
        <circle cx="31" cy="18" r="1"/>
        <path d="M54,29v-5c0-.03003-.02002-.06-.02002-.09003,1.80005-1.03998,3.02002-2.97998,3.02002-5.20001,0-3.31-2.69-6-6-6-2.17999,0-4.08002,1.17004-5.14001,2.91003l-9.87-.94c-1.08002-1.62-2.90997-2.67999-4.98999-2.67999-3.31,0-6,2.69-6,6,0,.10999.01001.21997.02002.32996l-5.69,5.69c-.11005-.00995-.22003-.01996-.33002-.01996-2.96997,0-5.42999,2.16998-5.90997,5h-.09003c-3.31,0-6,2.69-6,6v5c0,2.96997,2.16998,5.42999,5,5.90997v1.27002c-1.15997.41998-2,1.52002-2,2.82001v1h-2c-.54999,0-1,.45001-1,1v4c0,.54999.45001,1,1,1h48c.54999,0,1-.45001,1-1v-4c0-.54999-.45001-1-1-1h-28v-1c0-1.29999-.84003-2.40002-2-2.82001v-3.17999c0-1.65002-1.34998-3-3-3v-6.54004c1.21997-1.09998,2-2.69,2-4.45996,0-.10999-.01001-.22003-.02002-.33002l5.69-5.69c.11005.01001.22003.02002.33002.02002,1.92999,0,3.64001-.92004,4.73999-2.33002l9.81-.46997c.52002,1.13995,1.39001,2.08997,2.47003,2.70996,0,.03003-.02002.06-.02002.09003v5c-1.65002,0-3,1.34998-3,3v4c0,.21997.07001.42999.20001.59998l2.79999,3.72998v3.67004c0,.20001.06.39001.16998.54999l2,3c.17999.27997.5.45001.83002.45001s.65002-.17004.83002-.45001l2-3c.10999-.15997.16998-.34998.16998-.54999v-3.67004l2.79999-3.72998c.13-.16998.20001-.38.20001-.59998v-4c0-1.65002-1.34998-3-3-3ZM9,40v-5c0-2.21002,1.78998-4,4-4h.09003c.22998,1.37.91998,2.57001,1.90997,3.45996v6.54004c-1.60999,0-2.90997,1.26996-2.98999,2.85999-1.72003-.44-3.01001-2-3.01001-3.85999ZM55,53v2H9v-2h46ZM26,50v1h-14v-1c0-.54999.45001-1,1-1h12c.54999,0,1,.45001,1,1ZM24,44v3h-10v-3c0-.54999.45001-1,1-1h8c.54999,0,1,.45001,1,1ZM17,41v-5.35004c.63.22003,1.29999.35004,2,.35004s1.37-.13,2-.35004v5.35004h-4ZM19,34c-2.21002,0-4-1.79004-4-4s1.78998-4,4-4,4,1.78998,4,4-1.78998,4-4,4ZM24.40997,27.41998c-.58997-1.23999-1.58997-2.23999-2.82996-2.83002l4.01001-4.01001c.58997,1.24005,1.58997,2.24005,2.82996,2.83002l-4.01001,4.01001ZM31,22c-2.21002,0-4-1.79004-4-4s1.78998-4,4-4,4,1.78998,4,4-1.78998,4-4,4ZM45.03003,19.22998l-8.26001.39001c.14996-.52002.22998-1.06.22998-1.62,0-.42004-.03998-.83002-.13-1.23004l8.23999.79004c-.07001.37-.10999.75-.10999,1.14996,0,.17004.01001.34003.03003.52002ZM47,18.70996c0-2.20996,1.78998-4,4-4s4,1.79004,4,4c0,2.20001-1.78998,4-4,4s-4-1.79999-4-4ZM52,25v4h-2v-4h2ZM52,43.70001l-1,1.5-1-1.5v-2.70001h2v2.70001ZM55,35.66998l-2.5,3.33002h-3l-2.5-3.33002v-3.66998c0-.54999.45001-1,1-1h6c.54999,0,1,.45001,1,1v3.66998Z"/>
        <path d="M10.46484,12.46143c.94238-.94238,2.19824-1.46143,3.53516-1.46143s2.59277.51904,3.53516,1.46143c.19531.19531.45117.29297.70703.29297s.51172-.09766.70703-.29297c.39062-.39014.39062-1.02344,0-1.41406-1.32031-1.32031-3.07812-2.04736-4.94922-2.04736s-3.62891.72705-4.94922,2.04736c-.39062.39062-.39062,1.02393,0,1.41406.39062.39062,1.02344.39062,1.41406,0Z"/>
        <path d="M16.12109,15.29053c.39062-.39062.39062-1.02393,0-1.41455-1.13086-1.13184-3.11133-1.13184-4.24219,0-.39062.39062-.39062,1.02393,0,1.41455.39062.38965,1.02344.39014,1.41406-.00049.37695-.37695,1.03711-.37695,1.41406,0,.19531.19531.45117.29297.70703.29297s.51172-.09766.70703-.29248Z"/>
        <circle cx="14.07104" cy="17.99707" r="1"/>
      </g>
    </g>
  </g>
</svg>