<?xml version="1.0" encoding="UTF-8"?>
<svg xmlns="http://www.w3.org/2000/svg" version="1.1" viewBox="0 0 64 64">
  <!-- Generator: Adobe Illustrator 28.7.1, SVG Export Plug-In . SVG Version: 1.2.0 Build 142)  -->
  <g>
    <g id="Outline">
      <g>
        <path d="M54.96997,37.16998c.01001-.06.03003-.10999.03003-.16998v-6c0-9.65002-7.63-17.52002-17.16998-17.96002-.40002-1.17999-1.51001-2.03998-2.83002-2.03998h-6c-1.32001,0-2.42999.85999-2.83002,2.03998-9.53998.44-17.16998,8.31-17.16998,17.96002v6c0,.06.02002.10999.03003.16998-1.17004.40997-2.03003,1.52002-2.03003,2.83002v4c0,1.64996,1.34998,3,3,3h3v3c0,1.64996,1.34998,3,3,3h10c.33002,0,.65002-.17004.83002-.45001l2.66998-4c.57001-.84998,1.47998-1.34003,2.5-1.34003s1.92999.49005,2.5,1.33002l2.66998,4.01001c.17999.27997.5.45001.83002.45001h10c1.65002,0,3-1.35004,3-3v-3h3c1.65002,0,3-1.35004,3-3v-4c0-1.31-.85999-2.42004-2.03003-2.83002ZM29,13h6c.54999,0,1,.45001,1,1s-.45001,1-1,1h-6c-.54999,0-1-.45001-1-1s.45001-1,1-1ZM13,45h-3c-.54999,0-1-.45001-1-1v-4c0-.54999.45001-1,1-1h3v6ZM48,31h-24c-.54999,0-1,.45001-1,1s.45001,1,1,1h24c.54999,0,1,.45001,1,1v1h-9c-.54999,0-1,.45001-1,1s.45001,1,1,1h9v13c0,.54999-.45001,1-1,1h-9.46002l-2.38-3.57001c-.92999-1.39001-2.48999-2.22003-4.15997-2.22003s-3.22998.83002-4.15997,2.23004l-2.38,3.56h-9.46002c-.54999,0-1-.45001-1-1v-13h21c.54999,0,1-.45001,1-1s-.45001-1-1-1H15v-1c0-.54999.45001-1,1-1h4c.54999,0,1-.45001,1-1s-.45001-1-1-1h-4c-1.65002,0-3,1.34998-3,3v3h-2v-6c0-8.54999,6.75-15.54004,15.20001-15.96002.41998,1.14001,1.51001,1.96002,2.79999,1.96002h6c1.28998,0,2.38-.82001,2.79999-1.96002,8.45001.41998,15.20001,7.41003,15.20001,15.96002v6h-2v-3c0-1.65002-1.34998-3-3-3ZM55,44c0,.54999-.45001,1-1,1h-3v-6h3c.54999,0,1,.45001,1,1v4Z"/>
        <path d="M25.29297,39.29297l-8,8c-.39062.39062-.39062,1.02341-.00002,1.41404.37129.37131,1.01877.39534,1.41408.00002l8-8c.39062-.39062.39062-1.02344,0-1.41406s-1.02344-.39062-1.41406,0Z"/>
        <path d="M18,44c.25586,0,.51172-.09766.70703-.29297l3-3c.39062-.39062.39062-1.02344,0-1.41406s-1.02344-.39062-1.41406,0l-2.99996,2.99996c-.61033.61033-.15509,1.70707.70699,1.70707Z"/>
        <path d="M25.29297,44.29297l-3,3c-.39062.39062-.39062,1.02344.00001,1.41407.38706.38705,1.0286.38544,1.41405-.00001l3-3c.39062-.39062.39062-1.02344,0-1.41406s-1.02344-.39062-1.41406,0Z"/>
        <path d="M38.70703,39.29297c-.39062-.39062-1.02344-.39062-1.41406,0s-.39062,1.02344,0,1.41406l8,8c.37083.37083,1.01978.39428,1.41406,0,.39062-.39062.39062-1.02344,0-1.41406l-8-8Z"/>
        <path d="M43.70703,39.29297c-.39062-.39062-1.02344-.39062-1.41406,0s-.39062,1.02344,0,1.41406l2.99998,2.99998c.3805.3805,1.03537.37873,1.41408.00002.39062-.39062.39062-1.02344,0-1.41406l-3-3Z"/>
        <path d="M38.70703,44.29297c-.39062-.39062-1.02344-.39062-1.41406,0s-.39062,1.02344,0,1.41406l3,3c.37072.37072,1.01907.395,1.41407,0,.39062-.39062.39062-1.02344,0-1.41406l-3-3Z"/>
      </g>
    </g>
  </g>
</svg>