<?xml version="1.0" encoding="UTF-8"?>
<svg id="Outline" xmlns="http://www.w3.org/2000/svg" version="1.1" viewBox="0 0 64 64">
  <path d="M56.32025,47.76795l-7.28998-2.42999c-.72003-.23999-1.45001-.40997-2.18005-.52002,1.39001-2.10999,2.15002-4.57996,2.15002-7.14996,0-.54999-.45001-1-1-1h-15v-4h11c.54999,0,1-.45001,1-1v-12c0-3.28003-1.22998-6.28003-3.25-8.57001-.04999-.07001-.10999-.14001-.17999-.19-2.36999-2.59003-5.76-4.22998-9.53997-4.23999-.38541-.00102-.7748.22596-.94001.57996-.0002.00043-13.73004,29.42004-13.73004,29.42004h-1.35999c-.54999,0-1,.45001-1,1,0,2.57001.76001,5.03998,2.15002,7.14996-.73004.11005-1.46002.28003-2.18005.52002l-7.28998,2.42999c-.52002.16998-.79999.73999-.63,1.26001.17999.52002.73999.81,1.27002.63l7.27997-2.42999c2.79004-.91998,5.77002-.71002,8.40002.59998l2.19,1.09003c1.82001.91998,3.81,1.37,5.81,1.37s3.98999-.45001,5.81-1.37l2.19-1.09003c2.63-1.31,5.60999-1.51996,8.40002-.59998l7.27997,2.42999c.53003.17999,1.09003-.10999,1.27002-.63.16998-.52002-.10999-1.09003-.63-1.26001ZM33.00024,8.70795c1.96002.17999,3.77002.89001,5.29999,1.96002h-5.29999v-1.96002ZM33.00024,12.66797h7.46997c.74005.89001,1.34003,1.89996,1.77002,3h-9.23999v-3ZM33.00024,17.66797h9.81c.12.64996.19,1.32001.19,2v1h-10v-3ZM33.00024,22.66797h10v3h-10v-3ZM33.00024,27.66797h10v3h-10v-3ZM31.00024,12.17798v24.48999h-11.42999l11.42999-24.48999ZM44.47021,44.68793c-1.83997.06-3.66998.5-5.35999,1.35004l-2.19,1.09998c-3.07996,1.54004-6.76001,1.54004-9.83997,0l-2.19-1.09998c-1.69-.85004-3.52002-1.29004-5.35999-1.35999-1.42004-1.70001-2.29004-3.80005-2.49005-6.01001h29.92004c-.20001,2.20996-1.07001,4.31-2.49005,6.01996Z" style="fill: #000; stroke-width: 0px;"/>
  <path d="M56.31665,54.80762l-7.28418-2.42773c-3.29395-1.09961-6.81934-.84961-9.92578.7041l-2.1875,1.09375c-3.08008,1.54102-6.7583,1.54102-9.83838,0l-2.1875-1.09375c-3.10596-1.55273-6.63232-1.80469-9.9248-.7041l-7.28467,2.42773c-.52393.17383-.80713.74023-.63232,1.26465.1748.52344.73828.80762,1.26514.63184l7.28467-2.42773c2.78711-.92871,5.76953-.71777,8.39746.59668l2.1875,1.09375c1.82031.91016,3.81689,1.36523,5.81396,1.36523,1.99609,0,3.99316-.45508,5.81348-1.36523l2.1875-1.09375c2.62891-1.31445,5.6123-1.52637,8.39844-.59668l7.28418,2.42773c.52832.17578,1.08984-.1084,1.26465-.63184.1748-.52441-.1084-1.09082-.63184-1.26465Z" style="fill: #000; stroke-width: 0px;"/>
</svg>