<?xml version="1.0" encoding="utf-8"?>
<!-- Generator: Adobe Illustrator 27.3.1, SVG Export Plug-In . SVG Version: 6.00 Build 0)  -->
<svg version="1.1" id="Outline" xmlns="http://www.w3.org/2000/svg" xmlns:xlink="http://www.w3.org/1999/xlink" x="0px" y="0px"
	 viewBox="0 0 64 64" enable-background="new 0 0 64 64" xml:space="preserve">
<g>
	<path d="M32.70703,7.29297c-0.39062-0.39062-1.02344-0.39062-1.41406,0C30.5459,8.04004,13,25.72705,13,38
		c0,8.81104,6.229,16.60205,14.81104,18.52539c0.54053,0.12354,1.07422-0.21777,1.19434-0.75684
		c0.12109-0.53906-0.21777-1.07373-0.75684-1.19434C20.57178,52.85352,15,45.88281,15,38c0-10.11963,13.7002-25.10156,17-28.56299
		C35.2998,12.89844,49,27.88037,49,38c0,7.88281-5.57178,14.85352-13.24854,16.57422
		c-0.53906,0.12061-0.87793,0.65527-0.75684,1.19434c0.11993,0.53381,0.66101,0.87689,1.19434,0.75684
		C44.771,54.60205,51,46.81104,51,38C51,25.72705,33.4541,8.04004,32.70703,7.29297z"/>
	<path d="M47,38c0-4.17529-2.96289-10.43408-8.34229-17.62305c-1.77197-2.36768-3.76123-4.78564-5.91309-7.1875
		c-0.37891-0.42285-1.11035-0.42285-1.48926,0c-2.15186,2.40186-4.14111,4.81982-5.91309,7.1875
		C19.96289,27.56592,17,33.82471,17,38c0,8.271,6.729,15,15,15S47,46.271,47,38z M26.94385,21.5752
		c1.53076-2.04541,3.22852-4.13086,5.05615-6.21143c1.82764,2.08057,3.52539,4.16602,5.05615,6.21143
		c5.08521,6.79578,7.89917,12.59106,7.94,16.33997c-3.9021-1.13489-7.64789-1.44403-11.1485-0.90344
		c-0.87549,0.13477-1.59277,0.29736-2.28613,0.4541c-1.14307,0.2583-2.13037,0.48145-3.59619,0.53467
		c-2.89264,0.09998-5.82941-0.56586-8.74237-1.96259C19.97089,32.35358,22.64191,27.32422,26.94385,21.5752z M19.00751,38.14856
		c2.99719,1.33124,6.03186,1.9519,9.02863,1.85095c1.6543-0.06006,2.77734-0.31396,3.96631-0.58301
		c0.66016-0.14941,1.34326-0.30371,2.15039-0.42822c3.3269-0.51538,6.9187-0.18109,10.68347,0.96918
		C43.88739,46.19806,38.50146,51,32,51C24.88165,51,19.08826,45.24817,19.00751,38.14856z"/>
	<path d="M31,32c0-0.77112-0.30054-1.46802-0.78027-2C30.69946,29.46802,31,28.77112,31,28c0-1.6543-1.3457-3-3-3s-3,1.3457-3,3
		c0,0.55225,0.44775,1,1,1s1-0.44775,1-1c0-0.55127,0.44873-1,1-1s1,0.44873,1,1s-0.44873,1-1,1c-0.55225,0-1,0.44775-1,1
		s0.44775,1,1,1c0.55127,0,1,0.44873,1,1s-0.44873,1-1,1s-1-0.44873-1-1c0-0.55225-0.44775-1-1-1s-1,0.44775-1,1
		c0,1.6543,1.3457,3,3,3S31,33.6543,31,32z"/>
	<path d="M32.58594,34.6001C33.16895,34.86523,33.78271,35,34.5,35c1.92969,0,3.5-1.57031,3.5-3.5
		c0-0.93799-0.36328-1.81738-1.02295-2.47705S35.43799,28,34.5,28h-0.11279l0.3335-1H37c0.55225,0,1-0.44775,1-1s-0.44775-1-1-1h-3
		c-0.43066,0-0.8125,0.27539-0.94873,0.68359l-1,3c-0.10156,0.30518-0.05029,0.64014,0.1377,0.90088
		C32.37695,29.8457,32.67871,30,33,30h1.5c0.40381,0,0.78125,0.15527,1.06299,0.43701S36,31.09619,36,31.5
		c0,0.82715-0.67285,1.5-1.58984,1.5c-0.33984,0-0.6748-0.07422-0.99609-0.22021c-0.50244-0.22803-1.0957-0.00684-1.32422,0.49609
		C31.86084,33.77832,32.08301,34.37158,32.58594,34.6001z"/>
	<path d="M34.55469,41.16797c-0.46045-0.30762-1.08057-0.18213-1.38672,0.27734l-4,6
		c-0.30609,0.45935-0.18219,1.0802,0.27698,1.38647c0.42804,0.28546,1.07849,0.18536,1.38708-0.2771l4-6
		C35.13818,42.09521,35.01416,41.47412,34.55469,41.16797z"/>
	<circle cx="34" cy="48" r="1"/>
	<circle cx="32" cy="56" r="1"/>
	<circle cx="30" cy="42" r="1"/>
</g>
</svg>
