<?xml version="1.0" encoding="UTF-8"?>
<svg id="Outline" xmlns="http://www.w3.org/2000/svg" version="1.1" viewBox="0 0 64 64">
  <path d="M48.02002,45.41998c1.28998-2.08002,1.97998-4.46002,1.97998-6.96002v-2.45996c0-.54999-.45001-1-1-1h-3v-3c0-1.29999-.84003-2.40002-2-2.82001v-15.21002c1.21002-.90997,2-2.33997,2-3.96997v-2c0-.54999-.45001-1-1-1h-8c-.54999,0-1,.45001-1,1v2c0,1.63.78998,3.06,2,3.96997v15.21002c-1.15997.41998-2,1.52002-2,2.82001v3h-3c-.54999,0-1,.45001-1,1v2.45996c0,2.26001.58002,4.45001,1.65997,6.41003-2.98999.84998-5.62,2.27997-7.52997,4.19-.73999-.04004-1.45001-.06-2.13-.06-8.23999,0-17,2.45001-17,7,0,.54999.45001,1,1,1h48c.54999,0,1-.45001,1-1,0-4.57001-3.64001-8.54999-8.97998-10.58002ZM38,9h6v1c0,1.64996-1.34998,3-3,3s-3-1.35004-3-3v-1ZM42,14.89996v14.10004h-2v-14.10004c.32001.06.65997.10004,1,.10004s.67999-.04004,1-.10004ZM38,32c0-.54999.45001-1,1-1h4c.54999,0,1,.45001,1,1v3h-6v-3ZM34,37h14v1.45996c0,2.29004-.67999,4.47003-1.96002,6.34003-1.88-.51001-3.90997-.79999-6.03998-.79999-1.47998,0-2.91998.14001-4.31.39996-1.09998-1.78998-1.69-3.82996-1.69-5.94v-1.45996ZM9.37,55c1.47003-2.04999,7.25-4,14.63-4,.78003,0,1.59003.02997,2.46997.07996.30005.01001.59003-.09998.79004-.31995,2.77997-2.98004,7.53998-4.76001,12.73999-4.76001,7.76001,0,14.16998,3.95001,14.92999,9H9.37Z" fill="#000" stroke-width="0"/>
  <circle cx="46" cy="50" r="1" fill="#000" stroke-width="0"/>
  <circle cx="42" cy="49" r="1" fill="#000" stroke-width="0"/>
  <circle cx="39" cy="51" r="1" fill="#000" stroke-width="0"/>
  <circle cx="43" cy="52" r="1" fill="#000" stroke-width="0"/>
</svg>