<?xml version="1.0" encoding="UTF-8"?>
<svg id="Outline" xmlns="http://www.w3.org/2000/svg" version="1.1" viewBox="0 0 64 64">
  <path d="M30.62402,17.66455l.26855-1.60889c.37695-2.25977-.25684-4.55762-1.7373-6.30566-1.48047-1.74756-3.64355-2.75-5.93359-2.75-2.29102,0-4.4541,1.00244-5.93457,2.75049-1.48047,1.74756-2.11426,4.0459-1.7373,6.30518l.26855,1.60889c.26758,1.60547.40332,3.24414.40332,4.87012v18.93066c0,1.62598-.13574,3.26465-.40332,4.87012l-.26855,1.60889c-.37695,2.25928.25684,4.55762,1.7373,6.30518,1.48047,1.74805,3.64355,2.75049,5.93457,2.75049,2.29004,0,4.45312-1.00244,5.93359-2.75,1.48047-1.74805,2.11426-4.0459,1.7373-6.30566l-.26855-1.60889c-.2666-1.60156-.40234-3.24023-.40234-4.87012v-18.93066c0-1.62988.13574-3.26855.40234-4.87012ZM28.65137,46.66455l.26855,1.60889c.2793,1.67822-.19043,3.38525-1.29004,4.68359-1.10059,1.29834-2.70703,2.04297-4.4082,2.04297-1.70215,0-3.30859-.74463-4.40919-2.04297-1.0996-1.29834-1.56933-3.00537-1.29003-4.68359l.26855-1.60889c.28613-1.71387.43066-3.46338.43066-5.19922v-18.93066c0-1.73584-.14453-3.48535-.43066-5.19922l-.26855-1.60889c-.2793-1.67822.19043-3.38525,1.29003-4.68359,1.10059-1.29834,2.70704-2.04297,4.40919-2.04297,1.70117,0,3.30762.74463,4.4082,2.04297,1.09961,1.29834,1.56934,3.00537,1.29004,4.68359l-.26855,1.60889c-.28516,1.70996-.42969,3.45947-.42969,5.19922v18.93066c0,1.73975.14453,3.48926.42969,5.19922Z" style="fill: #000; stroke-width: 0px;"/>
  <path d="M23.22168,25c-1.6543,0-3,1.3457-3,3v8c0,1.6543,1.3457,3,3,3s3-1.3457,3-3v-8c0-1.6543-1.3457-3-3-3ZM23.22168,27c.55176,0,1,.44873,1,1v1h-2v-1c0-.55127.44824-1,1-1ZM23.22168,37c-.55176,0-1-.44873-1-1v-5h2v5c0,.55127-.44824,1-1,1Z" style="fill: #000; stroke-width: 0px;"/>
  <path d="M48.18164,17.66455l.26855-1.60889c.37695-2.25928-.25684-4.55762-1.7373-6.30518-1.48047-1.74805-3.64355-2.75049-5.93457-2.75049-2.29004,0-4.45312,1.00244-5.93359,2.75-1.48047,1.74805-2.11426,4.0459-1.7373,6.30566l.26855,1.60889c.2666,1.60156.40234,3.24023.40234,4.87012v18.93066c0,1.62988-.13574,3.26855-.40234,4.87012l-.26855,1.60889c-.37695,2.25977.25684,4.55762,1.7373,6.30566,1.48047,1.74756,3.64355,2.75,5.93359,2.75,2.29102,0,4.4541-1.00244,5.93457-2.75049,1.48047-1.74756,2.11426-4.0459,1.7373-6.30518l-.26855-1.60889c-.26758-1.60547-.40332-3.24414-.40332-4.87012v-18.93066c0-1.62598.13574-3.26465.40332-4.87012ZM46.20898,46.66455l.26855,1.60889c.2793,1.67822-.19043,3.38525-1.29005,4.68359-1.10058,1.29834-2.70702,2.04297-4.40917,2.04297-1.70117,0-3.30762-.74463-4.4082-2.04297-1.09961-1.29834-1.56934-3.00537-1.29004-4.68359l.26855-1.60889c.28516-1.70996.42969-3.45947.42969-5.19922v-18.93066c0-1.73975-.14453-3.48926-.42969-5.19922l-.26855-1.60889c-.2793-1.67822.19043-3.38525,1.29004-4.68359,1.10059-1.29834,2.70703-2.04297,4.4082-2.04297,1.70215,0,3.30859.74463,4.40917,2.04297,1.09962,1.29834,1.56935,3.00537,1.29005,4.68359l-.26855,1.60889c-.28613,1.71387-.43066,3.46338-.43066,5.19922v18.93066c0,1.73584.14453,3.48535.43066,5.19922Z" style="fill: #000; stroke-width: 0px;"/>
  <path d="M40.77832,25c-1.6543,0-3,1.3457-3,3v8c0,1.6543,1.3457,3,3,3s3-1.3457,3-3v-8c0-1.6543-1.3457-3-3-3ZM40.77832,27c.55176,0,1,.44873,1,1v1h-2v-1c0-.55127.44824-1,1-1ZM40.77832,37c-.55176,0-1-.44873-1-1v-5h2v5c0,.55127-.44824,1-1,1Z" style="fill: #000; stroke-width: 0px;"/>
  <path d="M10,7c-1.6543,0-3,1.3457-3,3v10c0,1.30194.8385,2.40155,2,2.81567v28.18433h-1c-.55273,0-1,.44775-1,1s.44727,1,1,1h1v3c0,.55225.44727,1,1,1s1-.44775,1-1v-3h1c.55273,0,1-.44775,1-1s-.44727-1-1-1h-1v-28.18427c1.1615-.41412,2-1.51379,2-2.81573v-10c0-1.6543-1.3457-3-3-3ZM11,20c0,.55127-.44824,1-1,1s-1-.44873-1-1v-10c0-.55127.44824-1,1-1s1,.44873,1,1v10Z" style="fill: #000; stroke-width: 0px;"/>
  <path d="M57,20v-10c0-1.6543-1.3457-3-3-3s-3,1.3457-3,3v10c0,1.30194.8385,2.40155,2,2.81567v28.18433h-1c-.55273,0-1,.44775-1,1s.44727,1,1,1h1v3c0,.55225.44727,1,1,1s1-.44775,1-1v-3h1c.55273,0,1-.44775,1-1s-.44727-1-1-1h-1v-28.18427c1.1615-.41412,2-1.51379,2-2.81573ZM53,10c0-.55127.44824-1,1-1s1,.44873,1,1v10c0,.55127-.44824,1-1,1s-1-.44873-1-1v-10Z" style="fill: #000; stroke-width: 0px;"/>
</svg>