<?xml version="1.0" encoding="UTF-8"?>
<svg xmlns="http://www.w3.org/2000/svg" version="1.1" viewBox="0 0 64 64">
  <!-- Generator: Adobe Illustrator 28.7.1, SVG Export Plug-In . SVG Version: 1.2.0 Build 142)  -->
  <g>
    <g id="Outline">
      <g>
        <path d="M53.44,33.70752l-5.82001-.64996-3.16998-5.54999c-.53003-.93005-1.53003-1.51001-2.60999-1.51001h-8.84003v-2c0-2.21002-1.78998-4-4-4H11c-2.21002,0-4,1.78998-4,4v23c0,1.64996,1.34998,3,3,3h2.09998c.47003,2.27997,2.49005,4,4.90002,4s4.42999-1.72003,4.90002-4h19.19995c.47003,2.27997,2.49005,4,4.90002,4s4.42999-1.72003,4.90002-4h3.09998c1.65002,0,3-1.35004,3-3v-9.31c0-2.04999-1.53003-3.76001-3.56-3.98004ZM17,51.99756c-1.65002,0-3-1.35004-3-3s1.34998-3,3-3,3,1.34998,3,3-1.34998,3-3,3ZM31,47.99756h-9.09998c-.47003-2.28003-2.49005-4-4.90002-4s-4.42999,1.71997-4.90002,4h-2.09998c-.54999,0-1-.45001-1-1v-5h22v6ZM31,39.99756H9v-16c0-1.10004.90002-2,2-2h18c1.09998,0,2,.89996,2,2v16ZM46,51.99756c-1.65002,0-3-1.35004-3-3s1.34998-3,3-3,3,1.34998,3,3-1.34998,3-3,3ZM55,41.99756h-2v-2h2v2ZM55,37.99756h-2c-1.09998,0-2,.89996-2,2v2c0,1.09998.90002,2,2,2h2v3c0,.54999-.45001,1-1,1h-3.09998c-.47003-2.28003-2.49005-4-4.90002-4s-4.42999,1.71997-4.90002,4h-8.09998v-20h8.84003c.35999,0,.69.19.87.51001l3.41998,5.98999c.15997.26996.44.45996.76001.48999l6.32996.71002c1.02002.10999,1.78003.96997,1.78003,1.98999v.31Z"/>
        <path d="M41.55078,30.50635c-.17676-.31445-.50977-.50879-.87109-.50879h-4.67969c-.55273,0-1,.44727-1,1v6c0,.55273.44727,1,1,1h8.05957c.35547,0,.68359-.18848.86328-.49512s.18262-.68652.00781-.99609l-3.37988-6ZM37,35.99756v-4h3.0957l2.25293,4h-5.34863Z"/>
        <circle cx="46" cy="48.99756" r="1"/>
        <circle cx="17" cy="48.99756" r="1"/>
        <path d="M12,23.99756c-.55273,0-1,.44727-1,1v12c0,.55273.44727,1,1,1s1-.44727,1-1v-12c0-.55273-.44727-1-1-1Z"/>
        <path d="M16,23.99756c-.55273,0-1,.44727-1,1v12c0,.55273.44727,1,1,1s1-.44727,1-1v-12c0-.55273-.44727-1-1-1Z"/>
        <path d="M20,23.99756c-.55273,0-1,.44727-1,1v12c0,.55273.44727,1,1,1s1-.44727,1-1v-12c0-.55273-.44727-1-1-1Z"/>
        <path d="M24,23.99756c-.55273,0-1,.44727-1,1v12c0,.55273.44727,1,1,1s1-.44727,1-1v-12c0-.55273-.44727-1-1-1Z"/>
        <path d="M28,23.99756c-.55273,0-1,.44727-1,1v12c0,.55273.44727,1,1,1s1-.44727,1-1v-12c0-.55273-.44727-1-1-1Z"/>
        <path d="M33.56445,14.6333c3.50977-3.50977,9.21869-3.50977,12.72845-.00006.3717.37164,1.02759.3866,1.41412.00006.39062-.39062.39062-1.02344,0-1.41406-4.28906-4.28906-11.26758-4.28906-15.55664,0-.39062.39062-.39062,1.02344,0,1.41406s1.02344.39062,1.41406,0Z"/>
        <path d="M44.87891,17.4624c.39062-.39062.39062-1.02344,0-1.41406-1.32031-1.32031-3.07812-2.04785-4.9502-2.04785s-3.62891.72754-4.94922,2.04785c-.39062.39062-.39062,1.02344,0,1.41406.37561.37561,1.02112.39288,1.41406,0,.94238-.94238,2.19824-1.46191,3.53516-1.46191,1.33789,0,2.59375.51953,3.53613,1.46191.39062.39062,1.02344.39062,1.41406,0Z"/>
        <path d="M42.0498,20.29053c.39062-.39062.39062-1.02344,0-1.41406-1.16992-1.16992-3.07227-1.16992-4.24219,0-.39062.39062-.39062,1.02344,0,1.41406s1.02344.39062,1.41406,0,1.02344-.39062,1.41406,0c.38586.38586,1.0285.38556,1.41406,0Z"/>
        <circle cx="40" cy="22.99756" r="1"/>
      </g>
    </g>
  </g>
</svg>