<?xml version="1.0" encoding="UTF-8"?>
<svg xmlns="http://www.w3.org/2000/svg" version="1.1" viewBox="0 0 64 64">
  <!-- Generator: Adobe Illustrator 28.7.1, SVG Export Plug-In . SVG Version: 1.2.0 Build 142)  -->
  <g>
    <g id="Outline">
      <g>
        <path d="M46,48c3.85986,0,7-3.14062,7-7,0-3.59277-5.61523-9.9541-6.25586-10.66797-.37891-.42188-1.10938-.42188-1.48828,0-.64062.71387-6.25586,7.0752-6.25586,10.66797,0,3.85938,3.14014,7,7,7ZM46,32.52539c2.18408,2.58984,5,6.56641,5,8.47461,0,2.75684-2.24316,5-5,5s-5-2.24316-5-5c0-1.90625,2.81641-5.88379,5-8.47461Z"/>
        <path d="M42,15c-7.21997,0-15,1.56-15,5v5.26001c-1.63-.17004-3.33002-.26001-5-.26001-7.21997,0-15,1.56-15,5v26c0,.54999.45001,1,1,1h48c.54999,0,1-.45001,1-1V20c0-3.44-7.78003-5-15-5ZM11,55h-2v-25c0-.35004.67999-.88,2-1.40002v26.40002ZM17,55h-4v-3h4v3ZM17,50h-4v-3h4v3ZM17,45h-4v-3h4v3ZM17,40h-4v-3h4v3ZM17,35h-4v-3h4v3ZM17,30h-4v-2.03003c1.10999-.27997,2.44-.52997,4-.70001v2.73004ZM35,55h-16v-27.91003c.94-.06,1.94-.08997,3-.08997,8.58002,0,13,2.09998,13,3v25ZM55,55h-18v-25c0-2.31-3.51001-3.77002-8-4.48004v-2.84998c2.78003,1.59003,8.02002,2.33002,13,2.33002s10.21997-.73999,13-2.33002v32.33002ZM42,23c-8.58002,0-13-2.10004-13-3,0-.90002,4.41998-3,13-3s13,2.09998,13,3c0,.89996-4.41998,3-13,3Z"/>
      </g>
    </g>
  </g>
</svg>