<?xml version="1.0" encoding="UTF-8"?>
<svg id="Outline" xmlns="http://www.w3.org/2000/svg" version="1.1" viewBox="0 0 48 48">
  <path d="M9,33c0,1.6543,1.3457,3,3,3s3-1.3457,3-3-1.3457-3-3-3-3,1.3457-3,3ZM13,33c0,.55127-.44873,1-1,1s-1-.44873-1-1,.44873-1,1-1,1,.44873,1,1Z" fill="#000" stroke-width="0"/>
  <path d="M20,36c1.6543,0,3-1.3457,3-3s-1.3457-3-3-3-3,1.3457-3,3,1.3457,3,3,3ZM20,32c.55127,0,1,.44873,1,1s-.44873,1-1,1-1-.44873-1-1,.44873-1,1-1Z" fill="#000" stroke-width="0"/>
  <path d="M28,36c1.6543,0,3-1.3457,3-3s-1.3457-3-3-3-3,1.3457-3,3,1.3457,3,3,3ZM28,32c.55127,0,1,.44873,1,1s-.44873,1-1,1-1-.44873-1-1,.44873-1,1-1Z" fill="#000" stroke-width="0"/>
  <path d="M36,36c1.6543,0,3-1.3457,3-3s-1.3457-3-3-3-3,1.3457-3,3,1.3457,3,3,3ZM36,32c.55127,0,1,.44873,1,1s-.44873,1-1,1-1-.44873-1-1,.44873-1,1-1Z" fill="#000" stroke-width="0"/>
  <path d="M37,18c0,.54999.45001,1,1,1h4c.54999,0,1-.45001,1-1v-6c0-.54999-.45001-1-1-1h-4c-.54999,0-1,.45001-1,1h-9v-1c0-1.65002-1.34998-3-3-3h-4c-1.65002,0-3,1.34998-3,3v1h-1c-.54999,0-1,.45001-1,1v7h-.56c-1.28998,0-2.44.82001-2.84003,2.04999l-1.32996,3.98999c-3.52002.37-6.27002,3.35004-6.27002,6.96002,0,3.85999,3.14001,7,7,7h24c3.85999,0,7-3.14001,7-7,0-3.60999-2.75-6.59003-6.27002-6.96002l-1.32996-3.98999c-.40002-1.22998-1.55005-2.04999-2.84003-2.04999h-2.56v-2h7ZM39,13h2v4h-2v-4ZM30,14h7v2h-7v-2ZM20,11c0-.54999.45001-1,1-1h4c.54999,0,1,.45001,1,1v1h-6v-1ZM18,18h3c.54999,0,1-.45001,1-1s-.45001-1-1-1h-3v-2h10v6h-10v-2ZM36,28c2.76001,0,5,2.23999,5,5s-2.23999,5-5,5H12c-2.76001,0-5-2.23999-5-5s2.23999-5,5-5h24ZM32.56,22c.42999,0,.81.26996.95001.67999l1.09998,3.32001H13.39001l1.09998-3.32001c.14001-.41003.52002-.67999.95001-.67999h17.12Z" fill="#000" stroke-width="0"/>
</svg>