<?xml version="1.0" encoding="UTF-8"?>
<svg xmlns="http://www.w3.org/2000/svg" version="1.1" viewBox="0 0 48 48">
  <!-- Generator: Adobe Illustrator 28.7.1, SVG Export Plug-In . SVG Version: 1.2.0 Build 142)  -->
  <g>
    <g id="Outline">
      <g>
        <path d="M20,37c4.9624,0,9-4.0376,9-9s-4.0376-9-9-9-9,4.0376-9,9,4.0376,9,9,9ZM20,21c3.85986,0,7,3.14014,7,7s-3.14014,7-7,7-7-3.14014-7-7,3.14014-7,7-7Z"/>
        <path d="M17.0293,28.96484l-.354,1.52002c-.12158.52392.08105,1.06639.51609,1.38231.41926.30446,1.01594.33888,1.47316.06203l1.33545-.80566,1.33496.80566c.45947.27783,1.03857.25342,1.47363-.06201.43506-.31592.6377-.8584.51611-1.3833l-.354-1.51904,1.17871-1.02051c.40674-.35156.56201-.90967.396-1.42139-.1665-.51172-.62061-.87158-1.15527-.91699l-1.5542-.13281s-.60645-1.43701-.60693-1.4375c-.20947-.49463-.69189-.81494-1.229-.81494s-1.01953.32031-1.22949.81543l-.60645,1.43701-1.55322.13281c-.53564.04541-.98975.40527-1.15625.91699-.16602.51172-.01074,1.06982.39551,1.4209l1.1792,1.021ZM18.93604,27.41455c.36963-.03174.69141-.26562.83594-.60742l.22803-.54053.22803.54053c.14453.3418.46631.57568.83594.60742l.58447.0498-.44336.38379c-.28027.24268-.40332.62109-.31934.98291l.1333.57129-.50244-.30273c-.31534-.19-.71831-.19087-1.0332,0l-.50244.30273.1333-.57129c.08398-.36182-.03906-.74023-.31934-.98291l-.44336-.38379.58447-.0498Z"/>
        <path d="M40,33.6236V8.5c0-1.92969-1.57031-3.5-3.5-3.5s-3.5,1.57031-3.5,3.5v2.5c0,.55127-.44873,1-1,1s-1-.44873-1-1c0-3.30859-2.69141-6-6-6s-6,2.69141-6,6v2.0354c-2.16394.14532-4.28241.75812-6.18066,1.79761-.48438.26514-.66211.87305-.39648,1.35742.26514.48438.87305.66211,1.35742.39648,1.896-1.03809,4.04688-1.58691,6.21973-1.58691,7.16846,0,13,5.83154,13,13s-5.83154,13-13,13-13-5.83154-13-13c0-2.17285.54883-4.32373,1.58691-6.21973.26562-.48438.08789-1.09229-.39648-1.35742-.48584-.26562-1.09277-.08838-1.35742.39648-1.19922,2.18994-1.83301,4.67285-1.83301,7.18066,0,8.271,6.729,15,15,15s15-6.729,15-15c0-7.93347-6.1955-14.43085-14-14.94934v-2.05066c0-2.20557,1.79443-4,4-4s4,1.79443,4,4c0,1.6543,1.3457,3,3,3s3-1.3457,3-3v-2.5c0-.82715.67285-1.5,1.5-1.5s1.5.67285,1.5,1.5v25.1236c-.85645.99243-3,3.64893-3,5.3764,0,2.20557,1.79443,4,4,4s4-1.79443,4-4c0-1.72748-2.14355-4.38397-3-5.3764ZM39,41c-1.10303,0-2-.89697-2-2,0-.63721.93945-2.12549,1.99951-3.45117,1.06299,1.33252,2.00049,2.83154,2.00049,3.45117,0,1.10303-.89697,2-2,2Z"/>
        <path d="M10.80762,18.80762c.3905-.39056.3905-1.02368,0-1.41425-.3905-.3905-1.02368-.3905-1.41425,0-.3905.39056-.3905,1.02368,0,1.41425.39056.3905,1.02374.3905,1.41425,0Z"/>
      </g>
    </g>
  </g>
</svg>