<?xml version="1.0" encoding="UTF-8"?>
<svg id="Outline" xmlns="http://www.w3.org/2000/svg" version="1.1" viewBox="0 0 64 64">
  <path d="M52.37,25.07045l-20-8c-.23999-.09003-.5-.09003-.73999,0l-9.63,3.84998v-2.91998c0-.54999-.45001-1-1-1h-6c-.54999,0-1,.45001-1,1v6.12l-2.37.95001c-.38.14996-.63.51996-.63.92999v30c0,.54999.45001,1,1,1h40c.54999,0,1-.45001,1-1v-30c0-.41003-.25-.78003-.63-.92999ZM16,19.00045h4v2.71997l-4,1.60004v-4.32001ZM26.98999,55.00045c.47003-2.28003,2.48999-4,4.90002-4s4.42999,1.71997,4.89996,4h-9.79999ZM42.89001,55.00045h-4.08002c-.48999-3.39001-3.40002-6-6.91998-6s-6.42999,2.60999-6.92004,6h-4.07996v-1.10004c2.25-.45996,3.94-2.44995,3.94-4.82996,0-.52002-.09003-1.04004-.26001-1.55005l3.64001-2.08997c.91998,1.04999,2.23999,1.64996,3.67999,1.64996s2.76001-.59998,3.67999-1.64996l3.64001,2.09998c-.16003.5-.25,1.02002-.25,1.54004,0,2.38,1.69,4.35999,3.92999,4.82996v1.10004ZM47,55.00045h-2.10999v-2c0-.54999-.45001-1-1-1-1.81,0-2.92999-1.52002-2.92999-2.92999,0-.51001.13-1,.39996-1.46002.27002-.47998.10999-1.09003-.37-1.37l-5.20001-3c-.22998-.13-.5-.16998-.75995-.09998-.26001.06995-.48004.23999-.61005.46997-.51996.91998-1.46997,1.46997-2.52997,1.46997s-2.01001-.54999-2.53003-1.46997c-.13-.22998-.34998-.40002-.60999-.46997-.26001-.06006-.53003-.03003-.76001.09998l-5.20001,3c-.22998.14001-.39996.34998-.46997.60999-.06.26001-.03003.53003.09998.76001.27002.46997.41003.96002.41003,1.46002,0,1.40997-1.12,2.92999-2.94,2.92999-.54999,0-1,.45001-1,1v2h-1.89001v-16h30v16ZM47,37.00045h-30v-2h30v2ZM47,33.00045h-30v-2h30v2ZM51,55.00045h-2v-25c0-.54999-.45001-1-1-1H16c-.54999,0-1,.45001-1,1v25h-2v-28.32001l19-7.60004,19,7.60004v28.32001Z" fill="#000" stroke-width="0"/>
  <path d="M14.73779,13.71285l.36767.73486c.55695,1.11316,2.37984.28585,1.78906-.89453l-.36768-.73438c-.18555-.37158-.11279-.81787.18018-1.11133.90283-.90234,1.12598-2.27637.55518-3.41943l-.36768-.73486c-.24707-.49463-.84863-.69531-1.3418-.44727-.49414.24756-.69434.84814-.44727,1.3418l.36768.73438c.18555.37158.11279.81787-.18018,1.11133-.90283.90234-1.12598,2.27637-.55518,3.41943Z" fill="#000" stroke-width="0"/>
  <path d="M19.16309,13.71285l.36767.73486c.23626.47222.87004.68315,1.3418.44727.49414-.24756.69434-.84814.44727-1.3418l-.36768-.73438c-.18555-.37158-.11279-.81787.18018-1.11133.90283-.90234,1.12598-2.27637.55517-3.41943l-.36767-.73486c-.24805-.49463-.84814-.69531-1.3418-.44727-.49414.24756-.69434.84814-.44727,1.3418l.36768.73438c.18555.37158.11279.81787-.18018,1.11133-.90283.90234-1.12598,2.27637-.55518,3.41943Z" fill="#000" stroke-width="0"/>
  <path d="M29,24.00045c0,1.6543,1.3457,3,3,3s3-1.3457,3-3-1.3457-3-3-3-3,1.3457-3,3ZM33,24.00045c0,.55127-.44873,1-1,1s-1-.44873-1-1,.44873-1,1-1,1,.44873,1,1Z" fill="#000" stroke-width="0"/>
</svg>