<?xml version="1.0" encoding="utf-8"?>
<!-- Generator: Adobe Illustrator 27.3.1, SVG Export Plug-In . SVG Version: 6.00 Build 0)  -->
<svg version="1.1" id="Outline" xmlns="http://www.w3.org/2000/svg" xmlns:xlink="http://www.w3.org/1999/xlink" x="0px" y="0px"
	 viewBox="0 0 64 64" enable-background="new 0 0 64 64" xml:space="preserve">
<g>
	<path d="M37.67999,42.04999C35.14001,42.89996,33.13,44.71997,32,47.01996c-1.13-2.29999-3.14001-4.12-5.67999-4.96997
		c-0.53003-0.16998-1.09003,0.10999-1.27002,0.63c-0.16998,0.52997,0.10999,1.08997,0.63,1.27002
		c3.17999,1.06,5.32001,4.01996,5.32001,7.37V55H15.89001l-2.48004-11.79004c-0.82996-3.91998-0.28998-8.04999,1.5-11.63
		c2.72003-5.43994,2.80005-11.72998,0.23004-17.23999l-3.15002-6.76001c-0.23999-0.5-0.83002-0.71997-1.33002-0.48999
		c-0.5,0.23999-0.71997,0.83002-0.48999,1.33002l3.16003,6.76001c2.31,4.96002,2.23999,10.60999-0.21002,15.5
		C11.13,34.66998,10.53003,39.26996,11.45001,43.63l2.64996,12.57996C14.20001,56.66998,14.60999,57,15.08002,57H36
		c0.54999,0,1-0.45001,1-1s-0.45001-1-1-1h-3v-3.67999c0-3.35004,2.14001-6.31,5.32001-7.37
		c0.52002-0.18005,0.79999-0.74005,0.63-1.27002C38.77002,42.15997,38.21002,41.88,37.67999,42.04999z"/>
	<path d="M53.82666,8.42285c0.2334-0.5,0.01709-1.0957-0.4834-1.3291c-0.49951-0.23242-1.0957-0.0166-1.3291,0.4834
		l-3.15527,6.76172c-2.57324,5.51367-2.48828,11.79688,0.23291,17.23926c1.7915,3.58398,2.32373,7.7168,1.49854,11.63672
		L48.10889,55H44c-0.55225,0-1,0.44727-1,1s0.44775,1,1,1h4.92041c0.47266,0,0.88135-0.33105,0.97852-0.79395l2.64844-12.5791
		c0.91797-4.36035,0.32617-8.95703-1.6665-12.94336c-2.44678-4.89258-2.52295-10.54199-0.20947-15.49902L53.82666,8.42285z"/>
	<path d="M31.29297,24.29297c-0.14795,0.14746-3.62646,3.66797-3.62646,7.37402C27.6665,34.05664,29.61035,36,32,36
		s4.3335-1.94336,4.3335-4.33301c0-3.70605-3.47852-7.22656-3.62646-7.37402C32.31641,23.90234,31.68359,23.90234,31.29297,24.29297
		z M32,34c-1.28662,0-2.3335-1.04688-2.3335-2.33301c0-1.98535,1.43799-4.05859,2.33643-5.16016
		c0.98975,1.21777,2.33057,3.28809,2.33057,5.16016C34.3335,32.95312,33.28662,34,32,34z"/>
	<path d="M32,20c-5.51416,0-10,4.48633-10,10s4.48584,10,10,10s10-4.48633,10-10S37.51416,20,32,20z M32,38
		c-4.41113,0-8-3.58887-8-8s3.58887-8,8-8s8,3.58887,8,8S36.41113,38,32,38z"/>
	<circle cx="40" cy="56" r="1"/>
</g>
</svg>
