<?xml version="1.0" encoding="UTF-8"?>
<svg id="Outline" xmlns="http://www.w3.org/2000/svg" version="1.1" viewBox="0 0 64 64">
  <path d="M50.36377,13.63574c-.00696-.00696-.01648-.00897-.02362-.01569-1.62811-1.61804-3.86902-2.62006-6.34015-2.62006s-4.71204,1.00201-6.34015,2.62006c-.00714.00671-.01666.00873-.03931.03925-1.61829,1.62805-2.62054,3.86914-2.62054,6.3407,0,.55273.44775,1,1,1h2c.55225,0,1-.44727,1-1s-.44775-1-1-1h-.92871c.1701-1.18384.64264-2.26898,1.32904-3.18506l.64948.6499c.38641.38641,1.02856.38593,1.41455,0,.39062-.38965.39062-1.02344.00049-1.41406l-.6524-.65283c.91559-.68616,2.00433-1.14899,3.18756-1.31934v.92139c0,.55273.44775,1,1,1s1-.44727,1-1v-.92139c1.18323.17035,2.27197.63318,3.18756,1.31934l-.6524.65283c-.39014.39062-.39014,1.02435.00043,1.414.37494.37402,1.02423.39044,1.41461.00006l.64948-.6499c.6864.91608,1.15894,2.00122,1.32904,3.18506h-.92871c-.55225,0-1,.44727-1,1s.44775,1,1,1h2c.55225,0,1-.44727,1-1,0-2.47156-1.00226-4.71265-2.63623-6.36426Z" fill="#000" stroke-width="0"/>
  <path d="M47.39355,18.08105c-.50781-.22168-1.0957.0166-1.31299.52539l-1.88989,4.41284c-.06427-.00415-.12537-.01929-.19067-.01929-1.6543,0-3,1.3457-3,3s1.3457,3,3,3,3-1.3457,3-3c0-.8692-.37732-1.64655-.96991-2.19489l1.88934-4.41156c.21729-.50781-.01807-1.0957-.52588-1.3125ZM44,27c-.55127,0-1-.44824-1-1s.44873-1,1-1,1,.44824,1,1-.44873,1-1,1Z" fill="#000" stroke-width="0"/>
  <path d="M44,7c-7.16797,0-13,5.83154-13,13,0,.34027.02527.67432.05109,1.00806l-2.72101-.9519c-.21289-.0752-.44727-.0752-.66016,0l-20,7c-.40137.14014-.66992.51904-.66992.94385v21c0,.4248.26855.80371.66992.94385l6.23047,2.18018c.10938.03809.2207.05664.33008.05664.41309,0,.7998-.2583.94434-.67041.18164-.521-.09277-1.09131-.61426-1.27393l-5.56055-1.9458v-1.90302s10.68359,3.56122,10.68365,3.56122c.63446.20941,1.31635-.27667,1.31635-.94873v-4c0-.43066-.27539-.8125-.68359-.94873l-11.31641-3.77216v-1.8916s10.68359,3.56122,10.68372,3.56122c.51917.17303,1.09137-.11292,1.26453-.63232.1748-.52393-.1084-1.09033-.63184-1.26514l-11.31641-3.77216v-6.86975l18,6.30017v18.88098l-4.90039-1.71454c-.52148-.18262-1.09082.09277-1.27441.61377-.18164.521.09277,1.09131.61426,1.27393l6.23047,2.18018c.21436.07568.44562.07422.66016,0l20-7c.40137-.14014.66992-.51904.66992-.94385v-17.00293c4.69293-1.96326,8-6.59998,8-11.99707,0-7.16846-5.83203-13-13-13ZM19,45.7207v1.89209l-10-3.33362v-1.89166l10,3.33319ZM28,33.94043l-16.97302-5.94037,16.97302-5.94049,3.43024,1.19983c.8172,3.14746,2.77527,5.83655,5.41815,7.58533l-8.84839,3.0957ZM47,44.27917l-10,3.33362v-1.89209l10-3.33319v1.89166ZM47,36.27911l-11.31641,3.77216c-.52338.17474-.80658.74109-.6319,1.26495.16278.48804.74823.80463,1.26471.63251l10.68359-3.56122v1.8916l-11.31641,3.77216c-.4082.13623-.68359.51807-.68359.94873v3.99994c0,.66663.68933,1.15582,1.31641.94879l10.68359-3.56122v1.90302l-18,6.29993v-18.8808l10.29803-3.60327c1.46045.56934,3.04254.89362,4.70197.89362,1.034,0,2.0351-.13422,3-.3634v3.64252ZM44,31c-6.06543,0-11-4.93457-11-11s4.93457-11,11-11,11,4.93457,11,11-4.93457,11-11,11Z" fill="#000" stroke-width="0"/>
  <circle cx="18" cy="52.5" r="1" fill="#000" stroke-width="0"/>
</svg>