<?xml version="1.0" encoding="UTF-8"?><svg id="Glyph" xmlns="http://www.w3.org/2000/svg" viewBox="0 0 64 64"><path d="M54.06,4.94c-1.7-1.7-5.12-1.09-9.91,1.76-.18,.11-.3,.28-.38,.46-5.44-2.27-11.95-1.19-16.38,3.24-4.43,4.43-5.5,10.94-3.24,16.38-.18,.08-.35,.2-.46,.38-2.85,4.78-3.46,8.21-1.76,9.91,.65,.65,1.53,.94,2.59,.94,2.1,0,4.9-1.18,7.95-3.08,5.39,2.14,11.77,1.04,16.13-3.32,4.36-4.36,5.46-10.74,3.32-16.13,2.87-4.58,4.07-8.61,2.13-10.54Zm-30.71,30.71c-.71-.71-.4-3.14,1.79-6.96,.62,1.04,1.36,2.03,2.26,2.92,.35,.35,.72,.68,1.09,.99,2.52-1.33,6.65-4.02,11.87-9.24,5.25-5.25,7.93-9.38,9.24-11.87-.31-.38-.64-.74-.99-1.09-.89-.89-1.88-1.64-2.92-2.26,3.82-2.18,6.25-2.5,6.96-1.79,.83,.83,.27,3.41-1.78,6.98,0,0,0,0,0-.01-.88,1.55-2.2,3.55-4.07,5.88-.16,.2-.31,.39-.47,.59-.16,.2-.35,.41-.52,.61-.28,.33-.56,.67-.86,1.01-.18,.21-.39,.42-.57,.63-.31,.34-.61,.68-.93,1.02-.53,.56-1.08,1.13-1.66,1.71s-1.14,1.12-1.69,1.64c-2.74,2.58-5.33,4.62-7.63,6.15-.18,.12-.36,.23-.53,.34-.21,.14-.43,.27-.63,.4-.29,.18-.57,.34-.84,.5-3.64,2.1-6.26,2.69-7.1,1.85Z"/><circle cx="8" cy="8" r="4"/><circle cx="9" cy="22" r="2"/><circle cx="41" cy="45" r="2"/><circle cx="58" cy="38" r="2"/><path d="M11.2,53.47c.24-.35,.5-.83,.58-1.25,.25-1.31-.01-2.62-.46-3.87-.16-.48-.38-.95-.5-1.44-1.73,1.46-2.82,3.65-2.82,6.09,0,.66,.08,1.3,.23,1.91,.56-.1,2.2-.33,2.97-1.44Z"/><path d="M15.28,54.74c1.39-.44,1.69-.64,1.78-1.15,.04-.2-.04-.67-.21-1.03-.04-.09-.09-.17-.15-.26-.44-.72-1.36-2.23-.92-4.24,.23-1.05,.68-2.04,1.33-2.98-.37-.05-.74-.09-1.12-.09-1.22,0-2.37,.28-3.4,.77l.16,.67c.06,.23,.15,.45,.23,.67,.08,.21,.16,.41,.23,.62,.64,1.77,.82,3.38,.53,4.87-.16,.85-.63,1.63-.9,2.01-1.08,1.57-2.94,2.03-3.88,2.21,.47,.86,1.09,1.63,1.83,2.26,.42-1.24,1.16-2.35,2.21-3.25,.68-.57,1.49-.83,2.27-1.08Z"/><path d="M19.19,45.66c-.71,.84-1.22,1.77-1.45,2.83-.34,1.57,.67,2.63,.93,3.22,.27,.58,.5,1.48,.36,2.24-.49,2.67-3.6,2.44-4.73,3.4-.88,.74-1.52,1.72-1.77,2.86,1.05,.51,2.23,.79,3.47,.79,4.42,0,8-3.58,8-8,0-3.29-1.98-6.11-4.81-7.34Z"/><path d="M36.5,55h-.5v-.5c0-.55-.45-1-1-1s-1,.45-1,1v.5h-.5c-.55,0-1,.45-1,1s.45,1,1,1h.5v.5c0,.55,.45,1,1,1s1-.45,1-1v-.5h.5c.55,0,1-.45,1-1s-.45-1-1-1Z"/><path d="M12,31h-.5c-.55,0-1,.45-1,1s.45,1,1,1h.5v.5c0,.55,.45,1,1,1s1-.45,1-1v-.5h.5c.55,0,1-.45,1-1s-.45-1-1-1h-.5v-.5c0-.55-.45-1-1-1s-1,.45-1,1v.5Z"/><path d="M57.5,55h-.5v-.5c0-.55-.45-1-1-1s-1,.45-1,1v.5h-.5c-.55,0-1,.45-1,1s.45,1,1,1h.5v.5c0,.55,.45,1,1,1s1-.45,1-1v-.5h.5c.55,0,1-.45,1-1s-.45-1-1-1Z"/></svg>