<?xml version="1.0" encoding="UTF-8"?><svg id="Glyph" xmlns="http://www.w3.org/2000/svg" viewBox="0 0 64 64"><circle cx="14" cy="54" r="2"/><circle cx="32" cy="54" r="2"/><path d="M58,37h-14v3c0,.55-.45,1-1,1H21c-.55,0-1-.45-1-1v-6c0-.55-.45-1-1-1h-3v-11h-4v11h-3c-.55,0-1,.45-1,1v3h-2c-1.1,0-2,.9-2,2v11c0,1.1,.9,2,2,2h1.29c-.19,.63-.29,1.3-.29,2,0,3.86,3.14,7,7,7s7-3.14,7-7c0-.7-.11-1.37-.29-2h4.59c-.19,.63-.29,1.3-.29,2,0,3.86,3.14,7,7,7s7-3.14,7-7c0-.7-.11-1.37-.29-2h4.59c-.19,.63-.29,1.3-.29,2,0,3.86,3.14,7,7,7s7-3.14,7-7c0-.7-.11-1.37-.29-2h1.29c1.1,0,2-.9,2-2v-11c0-1.1-.9-2-2-2ZM14,59c-2.76,0-5-2.24-5-5s2.24-5,5-5,5,2.24,5,5-2.24,5-5,5Zm18,0c-2.76,0-5-2.24-5-5s2.24-5,5-5,5,2.24,5,5-2.24,5-5,5Zm18,0c-2.76,0-5-2.24-5-5s2.24-5,5-5,5,2.24,5,5-2.24,5-5,5Z"/><circle cx="50" cy="54" r="2"/><path d="M42.27,28.43l-1.41,6.57h9.29l-.8-3.74c-2.48-.15-4.89-1.06-6.84-2.62-.08-.07-.15-.14-.23-.21Z"/><path d="M43.75,27.07h0c4.33,3.47,10.65,2.78,14.13-1.55l.42-.52-7.06-5.66,2.69-3.35s.05,0,.07,0c1.1,0,2-.9,2-2s-.9-2-2-2-2,.9-2,2c0,.33,.09,.64,.23,.91l-2.55,3.18-7.06-5.66-.42,.52c-3.47,4.33-2.78,10.65,1.55,14.13Z"/><rect x="12" y="4" width="4" height="2"/><path d="M6,20H22c.55,0,1-.45,1-1V9c0-.55-.45-1-1-1H6c-.55,0-1,.45-1,1v10c0,.55,.45,1,1,1ZM14,12c1.1,0,2,.9,2,2s-.9,2-2,2-2-.9-2-2,.9-2,2-2Z"/></svg>