<?xml version="1.0" encoding="UTF-8"?><svg id="Glyph" xmlns="http://www.w3.org/2000/svg" viewBox="0 0 64 64"><path d="M56.7,21.3l.78,2.9c.14,.53-.18,1.08-.71,1.22l-1.93,.52c-.54,.14-1.08-.18-1.23-.71l-4.14-15.45c-.14-.54,.18-1.09,.71-1.23l1.93-.52c.53-.14,1.08,.18,1.23,.71l.78,2.9c2.14-.57,4.32,.69,4.89,2.83l.52,1.93c.57,2.13-.7,4.33-2.83,4.9Z"/><circle cx="33" cy="28" r="2"/><path d="M15.99,23.92l-7.73,2.07c-.29-1.07-1.38-1.7-2.45-1.41-1.07,.29-1.7,1.38-1.41,2.45l1.55,5.8c.29,1.07,1.38,1.7,2.45,1.41h0c1.07-.29,1.7-1.38,1.41-2.45l7.73-2.07-1.55-5.8Z"/><path d="M51.42,24.79l-3.62-13.53-16.42,4.4c-.53,.14-.85,.69-.71,1.23l1.39,5.19c-.68,.11-1.32,.32-1.9,.63l-1.16-4.34-10.63,2.85c-.53,.14-.85,.69-.7,1.22l2.07,7.73c.14,.53,.69,.85,1.22,.7l6.16-1.65c.21,1,.67,1.91,1.3,2.66l-6.5,24.12h4.14l2.42-9h9.01l2.42,9h4.14l-6.5-24.12c.87-1.02,1.4-2.33,1.42-3.77l12.43-3.32Zm-18.42,7.21c-2.21,0-4-1.79-4-4s1.79-4,4-4,4,1.79,4,4-1.79,4-4,4Zm-3.97,13l2.99-11.09c.32,.05,.65,.09,.98,.09s.66-.03,.98-.09l2.99,11.09h-7.94Z"/></svg>