<?xml version="1.0" encoding="UTF-8"?><svg id="Glyph" xmlns="http://www.w3.org/2000/svg" viewBox="0 0 64 64"><path d="M22.64,52H12c0,1.1,.9,2,2,2h9.23l-.1-.29c-.19-.56-.35-1.13-.49-1.71Z"/><path d="M40.87,53.71l-.1,.29h9.23c1.1,0,2-.9,2-2h-10.64c-.14,.58-.3,1.15-.49,1.71Z"/><rect x="56" y="42" width="4" height="10" rx="1" ry="1"/><path d="M52,38c0-1.1-.9-2-2-2h-2c-1.1,0-2,.9-2,2v1.56l-4-1.78v8.97c0,1.09-.08,2.18-.24,3.25h12.24v-6.89l-2-.89v-4.22Zm-4,0h2v6h-2v-6Z"/><rect x="4" y="42" width="4" height="10" rx="1" ry="1"/><path d="M36.39,11.18l-1.93-5.81c-.28-.82-1.04-1.37-1.9-1.37h-1.12c-.86,0-1.62,.55-1.9,1.37l-1.93,5.81c2.87,.81,5.91,.81,8.78,0Z"/><path d="M37.03,13.08l-.09,.03c-1.61,.45-3.27,.68-4.93,.68s-3.33-.23-4.93-.68l-.09-.03-.92,2.76c-1.36,4.08-2.05,8.35-2.05,12.65v18.26c0,2.15,.35,4.29,1.03,6.32l.52,1.55c.27,.82,1.04,1.37,1.9,1.37h-.44l-1,4h12l-1-4h-.44c.86,0,1.63-.55,1.9-1.37l.52-1.55c.68-2.04,1.03-4.17,1.03-6.32V28.49c0-4.3-.69-8.57-2.05-12.65l-.92-2.76Zm-3.03,29.92h-4v-9c0-1.1,.9-2,2-2s2,.9,2,2v9Zm-4,2h4v3c0,1.1-.9,2-2,2s-2-.9-2-2v-3Z"/><path d="M22,46.75v-8.97l-4,1.78v-1.56c0-1.1-.9-2-2-2h-2c-1.1,0-2,.9-2,2v4.22l-2,.89v6.89h12.24c-.16-1.07-.24-2.16-.24-3.25Zm-8-8.75h2v6h-2v-6s0,0,0,0Z"/></svg>