<?xml version="1.0" encoding="UTF-8"?><svg id="Glyph" xmlns="http://www.w3.org/2000/svg" viewBox="0 0 64 64"><path d="M61,32c0-2.23-.43-4.41-1.29-6.46-.21-.51-.8-.75-1.31-.54-.51,.21-.75,.8-.54,1.31,.76,1.81,1.14,3.73,1.14,5.69,0,10.83-11.61,19-27,19-.79,0-1.58-.02-2.33-.06-.54-.03-1.02,.39-1.05,.94-.03,.55,.39,1.02,.94,1.05,.79,.04,1.62,.07,2.45,.07,16.53,0,29-9.03,29-21Z"/><path d="M15.02,49.12c.36,0,.71-.19,.89-.53,.26-.49,.07-1.09-.42-1.35-6.67-3.52-10.49-9.07-10.49-15.24,0-2.81,.77-5.47,2.29-7.92,.29-.47,.15-1.09-.32-1.38-.47-.29-1.09-.15-1.38,.32-1.72,2.77-2.59,5.79-2.59,8.98,0,6.93,4.21,13.13,11.55,17.01,.15,.08,.31,.12,.47,.12Z"/><path d="M15,31c-.55,0-1,.45-1,1,0,5.86,7.91,10.44,18,10.44,1.76,0,3.5-.14,5.17-.43,.54-.09,.91-.61,.82-1.15s-.61-.91-1.15-.82c-1.56,.27-3.19,.4-4.83,.4-8.67,0-16-3.87-16-8.44,0-.55-.45-1-1-1Z"/><path d="M18.24,27.75c.49-.44,1.06-.86,1.7-1.24,.47-.29,.62-.9,.33-1.38-.29-.47-.9-.62-1.38-.33-.73,.45-1.4,.94-1.98,1.45-.41,.37-.45,1-.08,1.41,.2,.22,.47,.34,.75,.34,.24,0,.47-.08,.66-.25Z"/><circle cx="10" cy="7" r="3"/><path d="M42.1,23.3c-2.86-1.11-6.33-1.75-10.1-1.75-2.52,0-4.96,.29-7.24,.87-.54,.13-.86,.68-.73,1.21,.13,.54,.68,.86,1.21,.73,2.13-.53,4.4-.8,6.76-.8,3.36,0,6.51,.58,9.12,1.56,.16-.69,.51-1.31,.98-1.81Z"/><path d="M41.77,38.65c-.51,.21-.75,.8-.54,1.31,.16,.38,.53,.62,.92,.62,.13,0,.26-.02,.38-.08,4.75-1.96,7.47-5.06,7.47-8.5,0-1.49-.52-2.9-1.45-4.17-.32,.63-.79,1.17-1.38,1.55,.53,.83,.83,1.7,.83,2.61,0,2.55-2.33,5.04-6.23,6.65Z"/><circle cx="45" cy="26.04" r="2"/><path d="M10.1,19.22c.35,.43,.98,.49,1.41,.15,5.07-4.1,12.35-6.36,20.49-6.36,1.72,0,3.4,.11,5.03,.31,0-.1-.03-.2-.03-.3,0-.6,.14-1.16,.38-1.67-1.75-.22-3.54-.34-5.38-.34-8.6,0-16.32,2.42-21.75,6.81-.43,.35-.5,.98-.15,1.41Z"/><path d="M55.23,22.03c.2,.23,.48,.36,.77,.36,.23,0,.46-.08,.64-.24,.42-.36,.48-.99,.12-1.41-2.83-3.37-6.93-5.98-11.76-7.65-.01,.7-.22,1.35-.55,1.92,4.45,1.55,8.2,3.94,10.79,7.01Z"/><circle cx="41" cy="13.01" r="2"/><path d="M32,48.44c13.68,0,24-7.07,24-16.44,0-5.81-3.89-10.86-10.67-13.84-.51-.22-1.1,0-1.32,.51-.22,.51,0,1.1,.51,1.32,6.02,2.65,9.47,7.03,9.47,12.01,0,8.23-9.46,14.44-22,14.44-1.03,0-2.03-.06-3.02-.14,0,.07,.02,.13,.02,.19,0,.65-.17,1.25-.44,1.79,1.12,.1,2.27,.16,3.44,.16Z"/><path d="M10,32c0-8.23,9.46-14.44,22-14.44,.55,0,1-.45,1-1s-.45-1-1-1c-13.68,0-24,7.07-24,16.44,0,6.63,5.16,12.1,13.02,14.74,0-.08-.02-.16-.02-.24,0-.62,.15-1.2,.41-1.73-6.91-2.38-11.41-7.09-11.41-12.77Z"/><circle cx="25" cy="46.5" r="2"/><circle cx="16" cy="58" r="2"/><path d="M41.71,56h-.5v-.5c0-.55-.45-1-1-1s-1,.45-1,1v.5h-.5c-.55,0-1,.45-1,1s.45,1,1,1h.5v.5c0,.55,.45,1,1,1s1-.45,1-1v-.5h.5c.55,0,1-.45,1-1s-.45-1-1-1Z"/><path d="M51.5,9h.5v.5c0,.55,.45,1,1,1s1-.45,1-1v-.5h.5c.55,0,1-.45,1-1s-.45-1-1-1h-.5v-.5c0-.55-.45-1-1-1s-1,.45-1,1v.5h-.5c-.55,0-1,.45-1,1s.45,1,1,1Z"/><path d="M57.5,54.5h-.5v-.5c0-.55-.45-1-1-1s-1,.45-1,1v.5h-.5c-.55,0-1,.45-1,1s.45,1,1,1h.5v.5c0,.55,.45,1,1,1s1-.45,1-1v-.5h.5c.55,0,1-.45,1-1s-.45-1-1-1Z"/><circle cx="32" cy="32" r="5"/></svg>