<?xml version="1.0" encoding="UTF-8"?><svg id="Glyph" xmlns="http://www.w3.org/2000/svg" viewBox="0 0 64 64"><path d="M32,42c6.04,0,11.47-1.7,15.3-4.42-4.66,.94-9.99,1.42-15.3,1.42s-10.63-.48-15.3-1.42c3.83,2.72,9.26,4.42,15.3,4.42h0Z"/><path d="M47,20.41v-2.41c0-8.27-6.73-15-15-15s-15,6.73-15,15v2.41c-7.81,1.6-13,4.4-13,7.59,0,4.97,12.54,9,28,9s28-4.03,28-9c0-3.2-5.19-6-13-7.59Zm-15-15.41c7.17,0,13,5.83,13,13v4.72c-3.71,.8-8.18,1.28-13,1.28s-9.28-.47-13-1.28v-4.72c0-7.17,5.83-13,13-13ZM13.85,30.62h-.01c-.06,.01-.12,.02-.18,.02-.47,0-.89-.34-.98-.82-.1-.54,.26-1.06,.8-1.16,.54-.1,1.06,.25,1.17,.8,.1,.54-.26,1.06-.8,1.16Zm4.96,1.27c-.06,0-.12,0-.19-.02-.54-.1-.9-.62-.8-1.17,.1-.54,.62-.9,1.17-.8h0c.54,.11,.9,.63,.8,1.17-.09,.48-.51,.82-.98,.82Zm5.25,.73h-.1c-.55-.06-.95-.55-.9-1.09,.05-.56,.54-.96,1.09-.9,.55,.05,.95,.54,.9,1.09-.05,.52-.49,.9-.99,.9Zm5.28,.34h-.03c-.55-.02-.98-.48-.97-1.03,.02-.55,.48-.99,1.03-.97,.56,.02,.99,.48,.97,1.03,0,.54-.46,.97-1,.97Zm5.33,0h-.03c-.54,0-.98-.43-1-.97,0-.55,.42-1.01,.97-1.03,.56-.02,1.02,.42,1.03,.97,.02,.55-.41,1.01-.97,1.03Zm5.36-.34s-.06,.01-.09,.01c-.51,0-.95-.39-1-.91-.05-.55,.35-1.04,.9-1.09,.54-.06,1.03,.35,1.09,.9,.05,.55-.35,1.04-.9,1.09Zm5.34-.75h-.01c-.06,.01-.12,.02-.18,.02-.47,0-.89-.34-.98-.82-.1-.54,.26-1.06,.8-1.16,.54-.1,1.06,.25,1.17,.8,.1,.54-.26,1.06-.8,1.16Zm5.15-1.26h-.01c-.06,.01-.12,.02-.18,.02-.47,0-.89-.34-.98-.82-.1-.54,.26-1.06,.8-1.16,.54-.1,1.06,.25,1.17,.8,.1,.54-.26,1.06-.8,1.16Z"/><path d="M50.31,54.78c-.16-.53-.72-.83-1.25-.66-.53,.16-.83,.72-.66,1.25l1.2,3.93c.13,.43,.53,.71,.96,.71,.1,0,.2-.01,.29-.04,.53-.16,.83-.72,.66-1.25l-1.2-3.93Z"/><path d="M49.11,50.85l-.45-1.47c-.16-.53-.72-.83-1.25-.66-.53,.16-.83,.72-.66,1.25l.45,1.47c.13,.43,.53,.71,.96,.71,.1,0,.2-.01,.29-.04,.53-.16,.83-.72,.66-1.25Z"/><path d="M47.54,45.73l-1.14-3.72c-.16-.53-.72-.83-1.25-.66-.53,.16-.83,.72-.66,1.25l1.14,3.72c.13,.43,.53,.71,.96,.71,.1,0,.2-.01,.29-.04,.53-.16,.83-.72,.66-1.25Z"/><path d="M41.29,50.87c-.12-.54-.65-.87-1.19-.76-.54,.12-.88,.65-.76,1.19l.81,3.67c.1,.47,.52,.78,.98,.78,.07,0,.14,0,.22-.02,.54-.12,.88-.65,.76-1.19l-.81-3.67Z"/><path d="M39.63,48.02c.54-.12,.88-.65,.76-1.19l-.29-1.29c-.12-.54-.66-.87-1.19-.76-.54,.12-.88,.65-.76,1.19l.29,1.29c.1,.47,.52,.78,.98,.78,.07,0,.15,0,.22-.02Z"/><path d="M14.94,54.11c-.52-.17-1.09,.14-1.25,.66l-1.2,3.93c-.16,.53,.14,1.09,.66,1.25,.1,.03,.2,.04,.29,.04,.43,0,.82-.28,.96-.71l1.2-3.93c.16-.53-.14-1.09-.66-1.25Z"/><path d="M16.59,48.71c-.53-.16-1.09,.13-1.25,.66l-.45,1.47c-.16,.53,.13,1.09,.66,1.25,.1,.03,.2,.04,.29,.04,.43,0,.82-.28,.96-.71l.45-1.47c.16-.53-.13-1.09-.66-1.25Z"/><path d="M18.84,41.34c-.53-.17-1.09,.14-1.25,.66l-1.14,3.72c-.16,.53,.14,1.09,.66,1.25,.1,.03,.2,.04,.29,.04,.43,0,.82-.28,.96-.71l1.14-3.72c.16-.53-.14-1.09-.66-1.25Z"/><path d="M23.9,50.11c-.54-.11-1.07,.22-1.19,.76l-.81,3.67c-.12,.54,.22,1.07,.76,1.19,.07,.02,.15,.02,.22,.02,.46,0,.87-.32,.98-.78l.81-3.67c.12-.54-.22-1.07-.76-1.19Z"/><path d="M25.09,44.77c-.54-.11-1.07,.22-1.19,.76l-.29,1.29c-.12,.54,.22,1.07,.76,1.19,.07,.02,.15,.02,.22,.02,.46,0,.87-.32,.98-.78l.29-1.29c.12-.54-.22-1.07-.76-1.19Z"/><path d="M32,46c-.55,0-1,.45-1,1v5c0,.55,.45,1,1,1s1-.45,1-1v-5c0-.55-.45-1-1-1Z"/><path d="M32,56c-.55,0-1,.45-1,1v2c0,.55,.45,1,1,1s1-.45,1-1v-2c0-.55-.45-1-1-1Z"/></svg>