<?xml version="1.0" encoding="UTF-8"?><svg id="Glyph" xmlns="http://www.w3.org/2000/svg" viewBox="0 0 64 64"><path d="M54.54,6l-3.35,2.18,1.09,1.68-3.98,2.58c-2.49-3.5-6.06-6.17-10.24-7.5,3.57,3.77,5.94,10.81,5.94,19.06v2h8v-2c0-2.16-.35-4.23-.98-6.17l4.53-2.94,1.09,1.68,3.35-2.18-5.45-8.39Z"/><path d="M20,24c0-8.25,2.37-15.29,5.94-19.06-8.08,2.57-13.94,10.13-13.94,19.06v2h8v-2Z"/><path d="M22,26h20v-2c0-11.05-4.48-20-10-20s-10,8.95-10,20v2Z"/><path d="M54,56v-22H10v22c-1.1,0-2,.9-2,2v2H56v-2c0-1.1-.9-2-2-2Zm-9.5-13h4v4h-4v-4Zm-19.5-5h14v3h-14v-3Zm-9.5,5h4v4h-4v-4Zm9.5,13v-13h14v13h-14Z"/><path d="M54,29c0-.55-.45-1-1-1H11c-.55,0-1,.45-1,1v3H54v-3Z"/></svg>