<?xml version="1.0" encoding="UTF-8"?><svg id="Glyph" xmlns="http://www.w3.org/2000/svg" viewBox="0 0 64 64"><g><path d="M59.02,24.71c-1.26,.25-3.34,.82-5.13-.14-.79-.43-1.9-1.32-2.81-1.32-1.14-.01-2.46,.88-3.34,.13-1.64-1.38,.45-3.86,1.03-4.31,2.63-2.05,4.65-2.07,6.67-2.38-.81-1.24-1.71-2.41-2.7-3.5l-1.31,.26c-.18,.03-.45,.07-.79,.12-1.29,.18-4.29,.6-5.87,1.65-1.67,1.12-3.05,2.5-4.08,3.58-1.76,1.87-3.64,3.67-5.56,5.34-.81,.71-2.36,1.7-6.35,1.86-.5,.02-1.17,.03-1.95,.03-2.45,0-9.24-.13-11.28-.74-1.69-.51-3.18-1.36-4.61-2.17-1.48-.85-2.87-1.64-4.24-1.91l-.51-.09c-1.41,3.34-2.19,7.02-2.19,10.88,0,3.59,.68,7.02,1.92,10.18l.42-.08c5.14-1,10.43-1.75,15.73-2.23l.31-.03c1.49-.14,2.89-.27,4.11-.74,2.03-.8,3.63-2.59,5.33-4.48,1.78-1.98,3.62-4.03,6.2-5.26,2.72-1.31,5.76-1.42,8.63-1.42h.55c4.16,0,8.38,.12,12.55,.35-.16-1.22-.41-2.41-.73-3.58Zm-41.02,11.29c-2.76,0-5-1.34-5-3s2.24-3,5-3,5,1.34,5,3-2.24,3-5,3Z"/><path d="M49.34,53.23c-2.32,.35-4.7,.53-7.07,.53-4.17,0-8.32-.54-12.33-1.61-.38-.1-.76-.21-1.14-.31-1.68-.47-3.27-.91-4.8-.91-.11,0-.22,0-.33,0-1.23,.06-2.5,.43-3.85,.82-.49,.14-.99,.29-1.48,.42-1.55,.42-3.17,.7-4.83,.85,4.93,4.35,11.4,6.99,18.5,6.99s13.54-2.63,18.47-6.96c-.38,.06-.76,.13-1.13,.19Z"/></g><path d="M59.94,30.3c-4.43-.25-8.86-.37-13.29-.36-2.65,0-5.39,.08-7.77,1.22-4.62,2.21-6.9,7.93-11.67,9.8-1.57,.61-3.28,.74-4.96,.9-5.22,.48-10.4,1.21-15.53,2.2,1.25,2.61,2.88,4.99,4.83,7.07,2.12-.06,4.23-.35,6.28-.9,1.9-.5,3.78-1.21,5.75-1.3,2.34-.1,4.61,.68,6.87,1.28,6.04,1.61,12.41,1.97,18.59,1.04,1.33-.2,2.65-.45,3.97-.74,4.34-4.93,6.99-11.41,6.99-18.51,0-.57-.02-1.14-.06-1.7Zm-14.94,13.7c-2.21,0-4-1.12-4-2.5s1.79-2.5,4-2.5,4,1.12,4,2.5-1.79,2.5-4,2.5Z"/><path d="M59.04,24.71h-.02c-.05-.21-.11-.42-.17-.64,.07,.21,.13,.42,.19,.64Z"/><path d="M32,4c-10.87,0-20.29,6.2-24.93,15.25,3.15,.6,5.85,3.16,9.05,4.12,1.81,.54,9.85,.74,12.58,.63,3.48-.14,4.61-.92,5.12-1.37,1.9-1.65,3.71-3.39,5.42-5.2,1.34-1.42,2.75-2.76,4.42-3.87,2.34-1.56,6.45-1.9,7.39-2.08-5-4.64-11.69-7.48-19.05-7.48Zm-5,14c-2.76,0-5-1.34-5-3s2.24-3,5-3,5,1.34,5,3-2.24,3-5,3Z"/><path d="M49.34,53.23c-2.32,.35-4.7,.53-7.07,.53-4.17,0-8.32-.54-12.33-1.61-.38-.1-.76-.21-1.14-.31-1.68-.47-3.27-.91-4.8-.91-.11,0-.22,0-.33,0-1.23,.06-2.5,.43-3.85,.82-.49,.14-.99,.29-1.48,.42-1.56,.42-3.18,.7-4.84,.85,4.94,4.35,11.42,6.99,18.51,6.99s13.53-2.63,18.46-6.96c-.37,.06-.75,.13-1.12,.19Z"/></svg>