<?xml version="1.0" encoding="UTF-8"?><svg id="Glyph" xmlns="http://www.w3.org/2000/svg" viewBox="0 0 64 64"><path d="M46.37,29.02c-1.28,1.58-3.51,2.1-5.53,1.92-2.02-.18-3.94-.94-5.89-1.5-3.78-1.08-7.76-1.4-11.66-.94-2.5,.29-5.02,.92-7.07,2.38-2.23,1.57-3.72,3.96-5.64,5.89-1.52,1.53-3.34,2.73-5.31,3.58-.83-2.64-1.27-5.44-1.27-8.35,0-6.26,2.06-12.04,5.52-16.7,3.81-.65,7.74-.57,11.51,.26,6.33,1.38,12.16,4.79,18.59,5.57,2.18,.26,4.58,.29,6.23,1.74,1.71,1.5,1.96,4.39,.52,6.15Z"/><path d="M52.47,12.9c-3.11-.29-6.33,.92-9.51,.76-1.97-.1-3.87-.73-5.75-1.32-4.71-1.46-9.47-2.72-14.29-3.76-1.44-.31-2.89-.6-4.36-.67-.26-.01-.53-.02-.79-.02,4.17-2.47,9.04-3.89,14.23-3.89,8.08,0,15.36,3.42,20.47,8.9Z"/><path d="M48.66,47.54c-2.17-.11-4.25-.81-6.34-1.4-4.75-1.34-9.62-2.14-14.48-2.94-2.15-.36-4.44-.7-6.43,.2-1.11,.51-2.03,1.36-2.97,2.14-2.31,1.94-4.91,3.52-7.68,4.7,1.97,2.3,4.32,4.27,6.93,5.82l1.42-.63c2.38-1.06,5.25-1.72,8.77-2.02,1.4-.12,2.82-.18,4.23-.18,4.44,0,8.9,.58,13.24,1.71l1.93,.51c3.68-2.41,6.77-5.64,8.97-9.46-2.45,.97-4.98,1.69-7.59,1.55Z"/><path d="M44.84,56.88c-3.85,1.99-8.21,3.12-12.84,3.12-4.32,0-8.42-.98-12.08-2.74,2.52-1.12,5.36-1.62,8.13-1.86,5.63-.47,11.33,.05,16.79,1.48Z"/><g><path d="M59.47,37.42c-.06,.33-.13,.65-.21,.97,.08-.32,.15-.64,.21-.97Z"/><path d="M52.28,14.89c-.27-.03-.55-.04-.82-.04-1.14,0-2.34,.19-3.61,.38-1.38,.21-2.81,.44-4.29,.44-.23,0-.47,0-.7-.02-2.11-.11-4.05-.72-5.93-1.31l-.32-.1c-4.7-1.46-9.45-2.71-14.11-3.71-1.31-.28-2.7-.56-4.03-.63-.25,0-.47-.02-.69-.02h-2.94c-1.23,.95-2.37,2-3.43,3.15,1.07-.11,2.15-.17,3.22-.17,2.31,0,4.61,.25,6.84,.74,2.9,.63,5.68,1.66,8.37,2.66,3.42,1.27,6.65,2.46,10.03,2.88,.3,.04,.61,.07,.92,.1,2.11,.22,4.5,.46,6.39,2.12,2.54,2.23,2.88,6.31,.75,8.92-1.38,1.71-3.69,2.69-6.32,2.69-.32,0-.63-.01-.94-.04-1.72-.15-3.3-.65-4.82-1.13-.48-.15-.96-.3-1.44-.44-2.48-.71-5.05-1.07-7.63-1.07-1.08,0-2.17,.06-3.24,.19-2.66,.31-4.67,.97-6.14,2.02-1.22,.86-2.22,2.05-3.29,3.32-.66,.78-1.34,1.59-2.09,2.35-1.67,1.68-3.66,3.03-5.94,4.01l-.12,.05c.9,2.29,2.09,4.43,3.53,6.38l.51-.22c2.63-1.12,5.04-2.6,7.18-4.39l.41-.34c.85-.72,1.82-1.53,3.01-2.08,1.13-.51,2.37-.76,3.81-.76,1.28,0,2.52,.19,3.78,.4,4.86,.8,9.85,1.62,14.69,2.99l.98,.28c1.71,.5,3.32,.96,4.92,1.05,.19,0,.37,.01,.55,.01h0c1.79,0,3.71-.44,6.2-1.43l2.11-.83c.69-1.55,1.23-3.18,1.63-4.87-1.43,.43-4.07,1.08-6.86,1.08-.72,0-1.46-.04-2.19-.14-.63-.1-1.2-.18-1.73-.26-3.28-.49-4.92-.74-9.04-.24-.54,.06-1.04-.33-1.11-.87-.07-.55,.32-1.05,.87-1.12,4.39-.53,6.23-.25,9.57,.25,.53,.08,1.1,.17,1.73,.25,4.28,.62,9.11-1.16,9.16-1.18,0,0,.03,0,.04,0,.21-1.37,.31-2.77,.31-4.19,0-6.36-2.12-12.22-5.69-16.92l-2.02-.19Z"/><path d="M59.68,36.26s0,.05-.01,.08c0-.03,.01-.05,.01-.08Z"/></g></svg>