<?xml version="1.0" encoding="UTF-8"?><svg id="Glyph" xmlns="http://www.w3.org/2000/svg" viewBox="0 0 64 64"><path d="M29.83,24.75l-1.54,1.54c-.39,.39-.39,1.02,0,1.41,.2,.2,.45,.29,.71,.29s.51-.1,.71-.29l1.54-1.54c.39-.39,.39-1.02,0-1.41s-1.02-.39-1.41,0Z"/><path d="M33.71,23.29c.26,0,.51-.1,.71-.29L51.71,5.71c.39-.39,.39-1.02,0-1.41s-1.02-.39-1.41,0l-17.29,17.29c-.39,.39-.39,1.02,0,1.41,.2,.2,.45,.29,.71,.29Z"/><path d="M23,26c.26,0,.51-.1,.71-.29l6.75-6.75c.39-.39,.39-1.02,0-1.41s-1.02-.39-1.41,0l-6.75,6.75c-.39,.39-.39,1.02,0,1.41,.2,.2,.45,.29,.71,.29Z"/><path d="M33.96,15.46l1.5-1.5c.39-.39,.39-1.02,0-1.41s-1.02-.39-1.41,0l-1.5,1.5c-.39,.39-.39,1.02,0,1.41,.2,.2,.45,.29,.71,.29s.51-.1,.71-.29Z"/><path d="M37.25,11.75c.26,0,.51-.1,.71-.29l5.75-5.75c.39-.39,.39-1.02,0-1.41s-1.02-.39-1.41,0l-5.75,5.75c-.39,.39-.39,1.02,0,1.41,.2,.2,.45,.29,.71,.29Z"/><path d="M49.25,16.75c-.39-.39-1.02-.39-1.41,0l-14.54,14.54c-.39,.39-.39,1.02,0,1.41,.2,.2,.45,.29,.71,.29s.51-.1,.71-.29l14.54-14.54c.39-.39,.39-1.02,0-1.41Z"/><path d="M54.76,12.24c.26,0,.51-.1,.71-.29l3.24-3.24c.39-.39,.39-1.02,0-1.41s-1.02-.39-1.41,0l-3.24,3.24c-.39,.39-.39,1.02,0,1.41,.2,.2,.45,.29,.71,.29Z"/><path d="M43.96,29.04c-.39-.39-1.02-.39-1.41,0l-3.26,3.26c-.39,.39-.39,1.02,0,1.41,.2,.2,.45,.29,.71,.29s.51-.1,.71-.29l3.26-3.26c.39-.39,.39-1.02,0-1.41Z"/><path d="M55.49,17.51c-.39-.39-1.02-.39-1.41,0l-7.61,7.61c-.39,.39-.39,1.02,0,1.41,.2,.2,.45,.29,.71,.29s.51-.1,.71-.29l7.61-7.61c.39-.39,.39-1.02,0-1.41Z"/><path d="M58.29,13.29l-1.28,1.28c-.39,.39-.39,1.02,0,1.41,.2,.2,.45,.29,.71,.29s.51-.1,.71-.29l1.28-1.28c.39-.39,.39-1.02,0-1.41s-1.02-.39-1.41,0Z"/><path d="M45.04,35.55l-3.74,3.74c-.39,.39-.39,1.02,0,1.41,.2,.2,.45,.29,.71,.29s.51-.1,.71-.29l3.74-3.74c.39-.39,.39-1.02,0-1.41s-1.02-.39-1.41,0Z"/><path d="M58.29,22.29l-9.77,9.77c-.39,.39-.39,1.02,0,1.41,.2,.2,.45,.29,.71,.29s.51-.1,.71-.29l9.77-9.77c.39-.39,.39-1.02,0-1.41s-1.02-.39-1.41,0Z"/><polygon points="29.26 34.74 19.89 37.92 11.95 32 12.08 41.9 4 47.61 13.45 50.55 16.39 60 22.1 51.92 32 52.05 26.08 44.11 29.26 34.74"/></svg>