<?xml version="1.0" encoding="UTF-8"?><svg id="Glyph" xmlns="http://www.w3.org/2000/svg" viewBox="0 0 64 64"><path d="M28,12c-1.1,0-2,.9-2,2v18c0,1.1,.9,2,2,2s2-.9,2-2V14c0-1.1-.9-2-2-2Z"/><path d="M57,20c-.89,0-1.67,.39-2.22,1h-3.78v-1c0-1.1-.9-2-2-2s-2,.9-2,2v1h-4v-3c0-1.1-.9-2-2-2s-2,.9-2,2v3h-3v-4c0-1.1-.9-2-2-2h-2V31h2c1.1,0,2-.9,2-2v-4h3v3c0,1.1,.9,2,2,2s2-.9,2-2v-3h4v1c0,1.1,.9,2,2,2s2-.9,2-2v-1h3.78c.55,.61,1.34,1,2.22,1,1.66,0,3-1.34,3-3s-1.34-3-3-3Z"/><path d="M24,14H12c-2.21,0-4,1.79-4,4v1h-2c-1.1,0-2,.9-2,2v4c0,1.1,.9,2,2,2h2v1c0,2.21,1.79,4,4,4h-1l-2.66,17.7c-.18,1.21,.76,2.3,1.98,2.3h8.82c.49,0,.92-.36,.99-.85l.27-1.78c.12-.82-.28-1.64-1-2.04l-1.27-.71c-.73-.41-1.13-1.22-1-2.04l1.14-7.57h2.43c1.47,0,2.75-1.1,2.97-2.55l.52-3.44c.04-.24-.04-.47-.16-.67V14Zm-5,4h2c.55,0,1,.45,1,1s-.45,1-1,1h-2c-.55,0-1-.45-1-1s.45-1,1-1Zm0,4h2c.55,0,1,.45,1,1s-.45,1-1,1h-2c-.55,0-1-.45-1-1s.45-1,1-1Zm0,4h2c.55,0,1,.45,1,1s-.45,1-1,1h-2c-.55,0-1-.45-1-1s.45-1,1-1Zm-8-3c0-1.1,.9-2,2-2s2,.9,2,2-.9,2-2,2-2-.9-2-2Zm9.68,12h-2.13l.45-3h2.99l-.32,2.15c-.07,.49-.5,.85-.99,.85Z"/></svg>