<?xml version="1.0" encoding="UTF-8"?><svg id="Glyph" xmlns="http://www.w3.org/2000/svg" viewBox="0 0 64 64"><path d="M20.75,40.13c-3.3-3.05-4.31-2.1-8.01-4.65-3.14-2.17-4.1-6.28-5.1-9.96-.36-1.3-.96-2.57-1.68-3.82C10.06,11.33,20.18,4,32,4c1.11,0,2.21,.06,3.28,.19-.06,1.9,.3,4.17,.72,5.77,.77,2.9,1.08,7.05-1.5,9.14-1.48,1.19-5.94,2.7-6.47,7.5-.41,3.75,1.35,6.7,1.88,10.19,.36,2.41,2.02,7.99-.01,9.13-2.9,1.63-4.49-.45-4.98-.93-.93-.92-3.49-4.24-4.17-4.86Z"/><path d="M36.13,53.85c1.37,1.42,1.52,3.73,2.52,5.35-2.13,.52-4.36,.8-6.65,.8-6.99,0-13.39-2.57-18.29-6.81,.58-.72,1.29-1.14,2.1-1.4,2.44-.79,6.14,1.83,7.42,2.04,2.2,.37,4.4-.5,6.58-1.02,2.18-.52,4.77-.57,6.32,1.04Z"/><path d="M12.24,51.84c.77-.91,1.73-1.55,2.95-1.95,.5-.16,1.05-.25,1.63-.25,1.96,0,3.99,.96,5.48,1.66,.46,.21,1.08,.51,1.28,.56,.22,.04,.47,.06,.75,.06,1.09,0,2.27-.32,3.53-.67,.5-.14,.99-.27,1.49-.39,1.05-.25,2.07-.38,3.01-.38,2.16,0,3.97,.68,5.21,1.98,1.11,1.15,1.59,2.57,2.02,3.83,.24,.71,.47,1.38,.76,1.86l.3,.48c3.14-1.02,6.04-2.58,8.59-4.58-.86-.7-1.66-1.43-2.36-2.21-3.19-3.6-4.41-8.22-3.18-12.06,.45-1.4,1.16-2.59,1.84-3.73,.35-.58,.68-1.13,.96-1.68,.46-.91,1.41-2.81,.92-3.69-.04-.06-.27-.23-.54-.23-.14,0-.27,.02-.41,.03-.28,.02-.58,.04-.88,.04-1,0-1.84-.23-2.58-.72-3.41-2.24-.96-6.47,.5-8.99,.46-.79,.89-1.54,1.11-2.08,1.46-3.65,1.82-6.57,1.14-9.44l-.45-1.92c-2.48-1.34-5.18-2.31-8.03-2.86-.02,1.74,.33,3.73,.65,4.94,1.31,4.95,.52,9.03-2.18,11.21-.41,.33-.9,.63-1.47,.97-1.76,1.06-3.96,2.37-4.27,5.2-.22,1.97,.3,3.7,.9,5.7,.37,1.25,.76,2.55,.97,3.97,.06,.43,.17,.97,.3,1.57,.72,3.55,1.61,7.97-1.3,9.6-1.03,.58-2.06,.87-3.06,.87-2.28,0-3.68-1.47-4.2-2.02l-.09-.09c-.55-.54-1.42-1.6-2.34-2.72-.61-.74-1.54-1.87-1.78-2.1-1.59-1.47-2.46-1.82-3.66-2.3-1.04-.42-2.32-.93-4.14-2.18-3.57-2.47-4.72-6.73-5.73-10.48l-.16-.6c-.15-.54-.36-1.11-.64-1.71-.69,2.44-1.07,5.01-1.07,7.67,0,7.75,3.15,14.77,8.24,19.84Z"/><path d="M60,32c0,8.23-3.55,15.63-9.2,20.76-.87-.68-1.69-1.43-2.44-2.26-2.42-2.73-3.87-6.63-2.76-10.11,.59-1.84,1.81-3.4,2.68-5.12,.87-1.73,1.82-3.88,.88-5.57-.39-.7-1.33-1.3-2.37-1.26-.8,.03-1.8,.26-2.68-.32-2.49-1.63,1.35-6.12,2.37-8.65,1.41-3.52,2.1-6.96,1.23-10.65,7.42,5.04,12.29,13.54,12.29,23.18Z"/></svg>