<?xml version="1.0" encoding="UTF-8"?><svg id="Glyph" xmlns="http://www.w3.org/2000/svg" viewBox="0 0 64 64"><path d="M32,54c-6.83,0-13.05-2.65-17.69-6.97l-3.37,5.05c5.63,4.93,13.01,7.92,21.06,7.92s15.42-2.99,21.05-7.92l-3.36-5.05c-4.64,4.32-10.86,6.97-17.69,6.97Z"/><path d="M58,20V12c0-.55-.45-1-1-1s-1,.45-1,1v8h-1.38c-2.49-7.03-8.16-12.57-15.29-14.85l-1.17,7.02c.98,.05,1.96,.09,2.93,.15,1.26,.09,2.47,.57,3.42,1.4,3.98,3.48,6.49,8.6,6.49,14.29,0,3.52-.96,6.82-2.64,9.65-.96,1.63-2.69,2.64-4.58,2.81-3.78,.35-7.73,.54-11.79,.54s-8-.19-11.79-.54c-1.88-.17-3.61-1.19-4.58-2.81-1.68-2.83-2.64-6.13-2.64-9.65,0-5.69,2.51-10.81,6.49-14.29,.95-.83,2.16-1.31,3.42-1.4,.96-.07,1.95-.11,2.93-.15l-1.17-7.02c-7.13,2.29-12.8,7.82-15.29,14.85h-3.38c-1.1,0-2,.9-2,2v9c0,.55,.45,1,1,1h3.34c1.91,11.35,11.77,20,23.66,20s21.76-8.65,23.66-20h3.34c.55,0,1-.45,1-1v-9c0-1.1-.9-2-2-2Z"/><path d="M32,12c1.4,0,2.78,.03,4.15,.07l1.25-7.48c-1.74-.39-3.55-.59-5.4-.59s-3.66,.2-5.4,.59l1.25,7.48c1.37-.04,2.75-.07,4.15-.07Z"/><path d="M45.71,25.17c.06,.29,.11,.59,.15,.89,.07,.5,.5,.86,.99,.86,.05,0,.09,0,.14,0,.55-.08,.93-.58,.85-1.13-.05-.34-.11-.68-.18-1.01-.11-.54-.64-.89-1.18-.78s-.89,.64-.78,1.18Z"/><path d="M44.08,17.52c-.36-.42-1-.46-1.41-.1-.42,.36-.46,.99-.1,1.41,.79,.91,1.46,1.92,2,3,.17,.35,.53,.56,.9,.56,.15,0,.3-.03,.44-.1,.5-.24,.7-.84,.46-1.34-.61-1.24-1.38-2.39-2.28-3.43Z"/></svg>