<?xml version="1.0" encoding="UTF-8"?><svg id="Glyph" xmlns="http://www.w3.org/2000/svg" viewBox="0 0 64 64"><path d="M15.5,40.19c-.39,0-.75-.22-.92-.6-3.91-8.96-.24-19.63,8.37-24.29,2.48-1.35,5.16-2.11,7.96-2.27,.57-.02,1.02,.39,1.06,.94,.03,.55-.39,1.02-.94,1.05-2.5,.14-4.9,.83-7.12,2.03-7.7,4.17-10.99,13.72-7.49,21.73,.22,.51-.01,1.1-.52,1.32-.13,.06-.27,.08-.4,.08Z"/><path d="M32.02,51c-3.31,0-6.62-.86-9.54-2.55-.48-.28-.64-.89-.37-1.37,.28-.48,.89-.64,1.37-.37,4.07,2.35,8.97,2.92,13.44,1.56,.53-.16,1.09,.14,1.25,.67,.16,.53-.14,1.09-.67,1.25-1.79,.54-3.64,.81-5.49,.81Z"/><path d="M32.07,60.99c-7.43,0-14.76-2.84-20.24-8.14-.4-.38-.41-1.02-.02-1.41,.38-.4,1.02-.41,1.41-.02,7.36,7.12,18.32,9.47,27.94,5.99,.52-.18,1.09,.08,1.28,.6,.19,.52-.08,1.09-.6,1.28-3.17,1.15-6.48,1.71-9.77,1.71Z"/><path d="M40,32l2.81-3.05c.26-.29,.11-.75-.27-.83l-4.07-.81,.48-4.12c.04-.39-.35-.67-.7-.51l-3.78,1.73-2.04-3.62c-.19-.34-.68-.34-.87,0l-2.04,3.62-3.78-1.73c-.35-.16-.75,.13-.7,.51l.48,4.12-4.07,.81c-.38,.08-.53,.54-.27,.83l2.81,3.06-2.81,3.05c-.26,.29-.11,.75,.27,.83l4.07,.81-.48,4.12c-.04,.39,.35,.67,.7,.51l3.78-1.73,2.04,3.62c.19,.34,.68,.34,.87,0l2.04-3.62,3.78,1.73c.35,.16,.75-.13,.7-.51l-.48-4.12,4.07-.81c.38-.08,.53-.54,.27-.83l-2.81-3.06Zm-8,4c-2.21,0-4-1.79-4-4s1.79-4,4-4,4,1.79,4,4-1.79,4-4,4Z"/><g><path d="M9.88,16.51c-.62-.29-1.16-.71-1.61-1.21-5.2,7.37-6.82,16.97-3.74,26.02,.14,.42,.53,.68,.95,.68,.11,0,.22-.02,.32-.05,.52-.18,.8-.75,.62-1.27-2.86-8.4-1.36-17.31,3.45-24.16Z"/><path d="M26.82,3.46c-3.02,.55-5.92,1.57-8.64,3.05-1,.54-1.95,1.14-2.87,1.78,.5,.45,.92,.99,1.21,1.61,.84-.58,1.7-1.14,2.61-1.64,2.53-1.37,5.24-2.33,8.04-2.84,.54-.1,.9-.62,.81-1.16s-.62-.91-1.16-.8Z"/></g><circle cx="12" cy="12" r="3"/><circle cx="44.77" cy="51" r="3"/><g><path d="M49.21,48.74c4.01-4.1,6.45-9.54,6.76-15.48,.03-.55-.39-1.02-.95-1.05-.54-.03-1.02,.39-1.05,.95-.29,5.36-2.45,10.28-6.02,14.02,.52,.43,.95,.96,1.26,1.57Z"/><path d="M11.99,41.12c-2.7-5.93-2.64-12.83,.23-18.74,.24-.5,.03-1.1-.46-1.34-.5-.24-1.1-.03-1.34,.46-3.15,6.5-3.2,14.09-.18,20.59,.48-.47,1.09-.8,1.76-.98Z"/><path d="M40.02,52.47c-4.55,1.79-9.52,2.03-14.28,.62-3.68-1.09-6.92-3.09-9.51-5.77-.4,.55-.93,.98-1.55,1.27,2.85,2.99,6.43,5.21,10.49,6.41,2.26,.67,4.57,1,6.87,1,3.06,0,6.1-.6,8.97-1.77-.44-.51-.78-1.11-.98-1.77Z"/></g><circle cx="13" cy="44.97" r="2"/><g><path d="M52.75,14.71c.39-.55,.92-.99,1.54-1.28-3.64-4.38-8.49-7.59-14.08-9.24-.53-.16-1.09,.15-1.24,.68-.16,.53,.15,1.09,.68,1.24,5.2,1.54,9.72,4.53,13.11,8.61Z"/><path d="M58.46,20.16c-.52,.41-1.14,.7-1.83,.81,4.62,10.31,2.33,22.58-5.9,30.49-.4,.38-.41,1.02-.03,1.41,.2,.2,.46,.31,.72,.31s.5-.09,.69-.28c8.83-8.49,11.3-21.68,6.35-32.74Z"/></g><circle cx="56" cy="17.03" r="2"/><g><path d="M47.61,25.28c.56-.36,1.21-.58,1.91-.62-.24-.58-.51-1.15-.81-1.71-2.09-3.86-5.48-6.89-9.54-8.54-.51-.21-1.1,.04-1.3,.55-.21,.51,.04,1.09,.55,1.3,3.63,1.48,6.66,4.19,8.53,7.64,.24,.45,.46,.91,.66,1.38Z"/><path d="M49.77,32.63c-.27,0-.53-.03-.79-.08-.08,2.48-.7,4.94-1.86,7.21-.25,.49-.06,1.09,.43,1.35,.15,.08,.3,.11,.46,.11,.36,0,.71-.2,.89-.54,1.33-2.6,2.02-5.42,2.08-8.25-.38,.12-.79,.21-1.21,.21Z"/></g><circle cx="49.77" cy="28.63" r="2"/><g><path d="M49.33,15.39c-2.92-3.05-6.52-5.17-10.38-6.34,0,.7-.21,1.35-.54,1.92,3.52,1.07,6.81,3.01,9.47,5.8,.2,.21,.46,.31,.72,.31,.25,0,.5-.09,.69-.28,.4-.38,.41-1.02,.03-1.41Z"/><path d="M30.95,9c0-.33,.05-.65,.13-.96-3.6,.13-7.2,1.06-10.52,2.86-.49,.26-.67,.87-.4,1.36s.87,.67,1.36,.4c3.02-1.64,6.31-2.49,9.59-2.62-.09-.33-.16-.68-.16-1.04Z"/></g><circle cx="34.95" cy="9" r="2"/></svg>