<?xml version="1.0" encoding="UTF-8"?><svg id="Glyph" xmlns="http://www.w3.org/2000/svg" viewBox="0 0 64 64"><path d="M39.5,27.79c-.54,.23-1.13,.35-1.75,.35-2.49,0-4.5-2.01-4.5-4.5,0-1.58,.82-2.97,2.05-3.77-3.3-3.61-8.03-5.87-13.3-5.87-9.94,0-18,8.06-18,18s8.06,18,18,18,18-8.06,18-18c0-1.45-.17-2.86-.5-4.21Zm-27.84-2.26c0-1.66,1.34-3,3-3s3,1.34,3,3-1.35,3-3,3-3-1.35-3-3Zm6,18.3c-2.21,0-4-1.79-4-4s1.79-4,4-4,4,1.79,4,4-1.79,4-4,4Zm8.26-18.91c-1.11,0-2-.9-2-2s.89-2,2-2,2,.89,2,2-.9,2-2,2Zm4.61,12.37c-1.11,0-2-.89-2-2s.89-2,2-2,2,.9,2,2-.9,2-2,2Z"/><path d="M53.85,32l5.88-6.39c.55-.6,.24-1.57-.56-1.73l-8.51-1.7,1-8.62c.09-.81-.73-1.41-1.47-1.07l-7.89,3.61-4.25-7.56c-.4-.71-1.42-.71-1.82,0l-3.66,6.51c2.87,1.79,5.27,4.28,6.92,7.25,4.39,1.06,7.65,5,7.65,9.71s-3.26,8.65-7.65,9.71c-1.65,2.96-4.05,5.45-6.92,7.25l3.66,6.51c.4,.71,1.42,.71,1.82,0l4.25-7.56,7.89,3.61c.74,.34,1.57-.26,1.47-1.07l-1-8.62,8.51-1.7c.8-.16,1.12-1.13,.56-1.73l-5.88-6.39Z"/></svg>