<?xml version="1.0" encoding="UTF-8"?><svg id="Glyph" xmlns="http://www.w3.org/2000/svg" viewBox="0 0 64 64"><path d="M37.42,4.62c3.97,4.15,6.58,12.84,6.58,23.38v2h9.59l-15,15h-2.53l6.86-14.57c.06-.14,.09-.29,.09-.43h-1v-2c0-13.25-4.48-24-10-24s-10,10.75-10,24v2h-1c0,.14,.03,.29,.1,.43l6.86,14.57h-2.54l-15-15h9.59v-2c0-10.54,2.61-19.23,6.58-23.38C15.94,7.08,8,16.61,8,28v2c0,.26,.1,.51,.29,.71l14.75,14.75c-.08,.12-.14,.25-.16,.4l-.45,3.14h19.14l-.45-3.14c-.02-.15-.08-.28-.16-.4l14.75-14.75c.2-.2,.29-.45,.29-.71v-2c0-11.39-7.94-20.92-18.58-23.38Zm-14.32,25.38h17.79l-7.06,15h-3.67l-7.06-15Z"/><path d="M22.14,51l-.98,6.86c-.09,.6,.38,1.14,.99,1.14h19.69c.61,0,1.08-.54,.99-1.14l-.98-6.86H22.14Zm12.86,5h-6c-.55,0-1-.45-1-1s.45-1,1-1h6c.55,0,1,.45,1,1s-.45,1-1,1Z"/></svg>