<?xml version="1.0" encoding="UTF-8"?><svg id="Glyph" xmlns="http://www.w3.org/2000/svg" viewBox="0 0 64 64"><path d="M53.72,57.75c-.44-3.53-2.83-6.5-6.18-7.68l-4.87-1.72c-1.6-.56-2.67-2.08-2.67-3.77v-1.26c-2.76,1.97-5.59,3.1-8,3.1s-5.17-1.1-8-3.12v1.29c0,1.7-1.07,3.21-2.67,3.77l-4.87,1.72c-3.35,1.18-5.74,4.16-6.18,7.68-.15,1.19,.78,2.25,1.98,2.25H51.73c1.2,0,2.13-1.05,1.98-2.25Z"/><path d="M32,4c-9.86,0-20.31,6.56-17.64,20.21,2.53,12.91,12.4,20.21,17.64,20.21s15.11-7.3,17.64-20.21c2.67-13.65-7.78-20.21-17.64-20.21Zm-10.78,19.46c-2.42-1.83-2.62-4.17-1.32-5.89,1.3-1.72,3.69-2.74,6.11-.91,2.42,1.83,3.96,5.82,2.66,7.53-1.3,1.72-5.03,1.09-7.45-.74Zm9.88,7.82l-1,2c-.18,.35-.53,.55-.9,.55-.15,0-.3-.03-.45-.11-.49-.25-.69-.85-.45-1.34l1-2c.25-.49,.85-.69,1.34-.45,.49,.25,.69,.85,.45,1.34Zm4.14,2.45c-.14,.07-.3,.11-.45,.11-.37,0-.72-.2-.9-.55l-1-2c-.25-.49-.05-1.09,.45-1.34,.5-.25,1.09-.05,1.34,.45l1,2c.25,.49,.05,1.09-.45,1.34Zm7.54-10.27c-2.42,1.83-6.15,2.46-7.45,.74-1.3-1.72,.24-5.7,2.66-7.53s4.82-.81,6.11,.91c1.3,1.72,1.1,4.06-1.32,5.89Z"/></svg>