<?xml version="1.0" encoding="UTF-8"?><svg id="Glyph" xmlns="http://www.w3.org/2000/svg" viewBox="0 0 64 64"><circle cx="19.54" cy="49.3" r="2"/><circle cx="21" cy="39.57" r="3"/><path d="M52,30.9c1.92-2.02,4-7.58,4.66-14.3,.66-6.71,1.28-8.83,3.34-12.6-6.68,1.23-11.36,2.9-14.48,8.23-3.12,5.33-7.15,7.05-12.7,9.66,.4-1.71-.38-6.16-.38-6.16,0,0-3.75,3.83-8.44,5.28-4.68,1.45-9.16,4.08-12.77,8.19-1.61,1.59-1.91,3.23-2.08,4.21-.1,.54-.11,.59-.29,.83-2.6,3.4-2.95,6.39-3.17,8.37-.06,.48-.13,1.15-.17,1.27-2.74,3.62-1.38,7.98,1.19,10.69,.14,.15,.32,.35,.54,.59,1.89,2.11,3.47,3.77,5.28,4.38,.96,.32,1.78,.47,2.67,.47,.58,0,2.17-.26,3.64-.15,.66,.05,1.48,.12,2.52,.12,.54,0,1.13-.02,1.8-.06,3.58-.25,6.46-1.41,8.73-2.81h0c3.27-1.61,4.74-2.98,12.45-5.46,3.88-1.25,7.44-5.85,8.12-9.58-1.82,.88-6.92,.52-6.92,.52,0,0,3.97-1.41,6.28-4.29,2.31-2.88,5.28-3.94,6.06-7.39,0,0-3.37,.48-5.86,0Zm-29.13,25.02c-3.01,.21-4.26-.26-5.86-.09-1.6,.17-2.03,.31-3.21-.08-1.18-.4-3.35-3.04-4.19-3.93-.84-.89-2.57-3.33-.9-5.53s.03-5.31,3.33-9.62c1.54-2.01,.59-3.22,2.01-4.62,1.04-1.02,2.81-.46,4.85-.58,2.04-.12,5.25,.55,7.77,2.88,1.73,1.6,4.24,1.7,6.45,3.06-3.16,1.97-5.1,5.39-5.1,9.14,0,2.45,.85,4.85,2.39,6.76-1.89,1.29-4.36,2.38-7.53,2.61Zm12.43-7.46c-.46,.49-1.51,2.05-3.32,3.64-1.24-1.52-1.98-3.45-1.98-5.55,0-3.39,1.92-6.32,4.72-7.79,.39,.43,.76,.95,1.1,1.56,2.47,4.49,.45,7.09-.52,8.14Z"/></svg>