<?xml version="1.0" encoding="UTF-8"?><svg id="Glyph" xmlns="http://www.w3.org/2000/svg" viewBox="0 0 64 64"><path d="M59.22,25.45c-.84,.36-1.75,.55-2.72,.55-3.87,0-7-3.13-7-7,0-2.46,1.27-4.63,3.19-5.87-5.12-5.61-12.5-9.13-20.69-9.13-15.46,0-28,12.54-28,28s12.54,28,28,28c6.85,0,13.12-2.47,17.99-6.55-1.19-.69-1.99-1.97-1.99-3.45,0-2.21,1.79-4,4-4,1.33,0,2.5,.64,3.23,1.64,3.01-4.46,4.77-9.85,4.77-15.64,0-2.26-.27-4.45-.78-6.55ZM15,21c0-1.66,1.34-3,3-3s3,1.34,3,3-1.34,3-3,3-3-1.34-3-3Zm10,31c-4.42,0-8-3.58-8-8s3.58-8,8-8,8,3.58,8,8-3.58,8-8,8Zm10-24c-1.1,0-2-.9-2-2s.9-2,2-2,2,.9,2,2-.9,2-2,2Zm1.5-13.5c-1.1,0-2-.9-2-2s.9-2,2-2,2,.9,2,2-.9,2-2,2Zm8.5,23.5c-1.66,0-3-1.34-3-3s1.34-3,3-3,3,1.34,3,3-1.34,3-3,3Z"/></svg>