<?xml version="1.0" encoding="UTF-8"?><svg id="Glyph" xmlns="http://www.w3.org/2000/svg" viewBox="0 0 64 64"><path d="M56.5,19h-3.44c-2.27-6.55-7.51-11.72-14.11-13.89l-1.08,6.48c.86,.04,1.73,.08,2.57,.14,1.17,.08,2.29,.53,3.17,1.3,3.69,3.23,6.03,7.98,6.03,13.27,0,3.27-.89,6.33-2.45,8.96-.89,1.51-2.5,2.45-4.25,2.61-3.51,.33-7.17,.5-10.94,.5s-7.43-.17-10.94-.5c-1.75-.16-3.36-1.1-4.25-2.61-1.56-2.63-2.45-5.69-2.45-8.96,0-5.28,2.33-10.04,6.03-13.27,.88-.77,2-1.21,3.17-1.3,.85-.06,1.71-.09,2.57-.14l-1.08-6.48c-6.6,2.17-11.84,7.33-14.11,13.89h-3.44c-1.1,0-2,.9-2,2v8c0,1.1,.9,2,2,2h2.72c2.16,10.04,11.09,17.57,21.78,17.57s19.62-7.53,21.78-17.57h2.72c1.1,0,2-.9,2-2v-8c0-1.1-.9-2-2-2Z"/><path d="M32,52.57c8.06,0,15.28-3.64,20.11-9.38,.64-.76,.62-1.88-.04-2.63l-.25-.28c-4.4,6.22-11.65,10.28-19.83,10.28s-15.42-4.07-19.83-10.28l-.25,.28c-.66,.74-.68,1.86-.04,2.63,4.83,5.74,12.06,9.38,20.11,9.38Z"/><path d="M32,11.43c1.3,0,2.58,.03,3.86,.07l1.16-6.95c-1.62-.36-3.3-.55-5.01-.55s-3.4,.19-5.01,.55l1.16,6.95c1.27-.04,2.56-.07,3.86-.07Z"/><path d="M53.26,44.91c-5.38,6.14-13.09,9.66-21.26,9.66s-15.87-3.52-21.26-9.66l-.22,.25c-1.63,1.83-2.53,4.19-2.53,6.64v8.2h8v-4H48v4h8v-8.2c0-2.45-.9-4.81-2.53-6.64l-.22-.25Z"/><path d="M24.94,14.63c-.55,.03-.97,.5-.94,1.06,.03,.55,.5,.96,1.05,.94,4.62-.26,9.27-.26,13.89,0,.02,0,.04,0,.06,0,.53,0,.97-.41,1-.94,.03-.55-.39-1.02-.94-1.06-4.69-.27-9.42-.27-14.11,0Z"/></svg>