<?xml version="1.0" encoding="UTF-8"?><svg id="Glyph" xmlns="http://www.w3.org/2000/svg" viewBox="0 0 64 64"><path d="M27.15,33.13c-3.12-2.9-7.11-3.73-9.64-3.58-2.53,.15-4.63-.45-6.02,.71-1.11,.94-.77,1.94-2.01,3.02-1.18,1.03-2.15,.86-2.7,2.7-.62,2.07,2.6,4.8,2.23,6.69-.38,1.88-2.08,2.54-4.15,5.27-2.06,2.72,.08,5.76,1.13,6.86,1.04,1.1,3.74,4.38,5.2,4.88,1.47,.5,2,.32,3.99,.11,1.98-.22,3.54,.37,7.27,.11,9.73-.69,14.23-7.97,15.43-9.26,1.21-1.3,3.72-4.53,.66-10.1-3.06-5.58-8.27-4.51-11.39-7.41Zm-12.15,20.87c-1.1,0-2-.9-2-2s.9-2,2-2,2,.9,2,2-.9,2-2,2Zm2-12c-1.66,0-3-1.34-3-3s1.34-3,3-3,3,1.34,3,3-1.34,3-3,3Zm11,10c-1.66,0-3-1.34-3-3s1.34-3,3-3,3,1.34,3,3-1.34,3-3,3Z"/><path d="M29.83,24.75l-1.54,1.54c-.39,.39-.39,1.02,0,1.41,.2,.2,.45,.29,.71,.29s.51-.1,.71-.29l1.54-1.54c.39-.39,.39-1.02,0-1.41s-1.02-.39-1.41,0Z"/><path d="M33.01,22.99c.2,.2,.45,.29,.71,.29s.51-.1,.71-.29L51.71,5.71c.39-.39,.39-1.02,0-1.41s-1.02-.39-1.41,0l-17.29,17.29c-.39,.39-.39,1.02,0,1.41Z"/><path d="M23,26c.26,0,.51-.1,.71-.29l6.75-6.75c.39-.39,.39-1.02,0-1.41s-1.02-.39-1.41,0l-6.75,6.75c-.39,.39-.39,1.02,0,1.41,.2,.2,.45,.29,.71,.29Z"/><path d="M33.25,15.75c.26,0,.51-.1,.71-.29l1.5-1.5c.39-.39,.39-1.02,0-1.41s-1.02-.39-1.41,0l-1.5,1.5c-.39,.39-.39,1.02,0,1.41,.2,.2,.45,.29,.71,.29Z"/><path d="M37.25,11.75c.26,0,.51-.1,.71-.29l5.75-5.75c.39-.39,.39-1.02,0-1.41s-1.02-.39-1.41,0l-5.75,5.75c-.39,.39-.39,1.02,0,1.41,.2,.2,.45,.29,.71,.29Z"/><path d="M47.83,16.75l-14.54,14.54c-.39,.39-.39,1.02,0,1.41,.2,.2,.45,.29,.71,.29s.51-.1,.71-.29l14.54-14.54c.39-.39,.39-1.02,0-1.41s-1.02-.39-1.41,0Z"/><path d="M54.76,12.24c.26,0,.51-.1,.71-.29l3.24-3.24c.39-.39,.39-1.02,0-1.41-.39-.39-1.02-.39-1.41,0l-3.24,3.24c-.39,.39-.39,1.02,0,1.41,.2,.2,.45,.29,.71,.29Z"/><path d="M43.96,29.03c-.39-.39-1.02-.39-1.41,0l-3.26,3.26c-.39,.39-.39,1.02,0,1.41,.2,.2,.45,.29,.71,.29s.51-.1,.71-.29l3.26-3.26c.39-.39,.39-1.02,0-1.41Z"/><path d="M55.49,17.51c-.39-.39-1.02-.39-1.41,0l-7.61,7.61c-.39,.39-.39,1.02,0,1.41,.2,.2,.45,.29,.71,.29s.51-.1,.71-.29l7.61-7.61c.39-.39,.39-1.02,0-1.41Z"/><path d="M58.29,13.29l-1.28,1.28c-.39,.39-.39,1.02,0,1.41,.2,.2,.45,.29,.71,.29s.51-.1,.71-.29l1.28-1.28c.39-.39,.39-1.02,0-1.41s-1.02-.39-1.41,0Z"/><path d="M45.04,35.55l-3.74,3.74c-.39,.39-.39,1.02,0,1.41,.2,.2,.45,.29,.71,.29s.51-.1,.71-.29l3.74-3.74c.39-.39,.39-1.02,0-1.41s-1.02-.39-1.41,0Z"/><path d="M58.29,22.29l-9.77,9.77c-.39,.39-.39,1.02,0,1.41,.2,.2,.45,.29,.71,.29s.51-.1,.71-.29l9.77-9.77c.39-.39,.39-1.02,0-1.41s-1.02-.39-1.41,0Z"/></svg>