<?xml version="1.0" encoding="UTF-8"?><svg id="Glyph" xmlns="http://www.w3.org/2000/svg" viewBox="0 0 64 64"><circle cx="8" cy="56" r="4"/><circle cx="14" cy="36" r="3"/><circle cx="34" cy="51" r="3"/><circle cx="42" cy="34" r="2"/><circle cx="38" cy="19" r="2"/><circle cx="58" cy="13" r="2"/><path d="M38.03,23l2.01,7.54c.57-.33,1.23-.53,1.93-.53l-2.01-7.54c-.57,.33-1.23,.53-1.93,.53Z"/><path d="M8.74,50.05c.68,.08,1.32,.28,1.92,.58l2.9-9.67c-.69-.06-1.33-.26-1.92-.57l-2.9,9.67Z"/><path d="M35.18,46.15c.67,.16,1.27,.46,1.81,.86l4.28-9.09c-.68-.13-1.29-.44-1.8-.87l-4.28,9.09Z"/><path d="M18.93,36.65l19.29-1.38c-.14-.4-.23-.82-.23-1.27,0-.25,.03-.49,.07-.72l-19.28,1.38c.12,.43,.21,.88,.21,1.35,0,.22-.04,.44-.07,.65Z"/><path d="M55.42,9.97l-3.68-2.58c-.24,.64-.64,1.2-1.15,1.63l3.68,2.58c.24-.64,.64-1.2,1.15-1.63Z"/><path d="M54.59,15.07c-.34-.56-.55-1.21-.58-1.92l-12.61,3.78c.34,.56,.55,1.21,.58,1.92l12.61-3.78Z"/><path d="M29.01,50.94l-15.39,2.96c.23,.61,.36,1.27,.38,1.96l15.39-2.96c-.24-.59-.38-1.23-.38-1.91,0-.02,0-.04,0-.06Z"/><circle cx="48" cy="6" r="2"/><path d="M10.5,13h.5v.5c0,.55,.45,1,1,1s1-.45,1-1v-.5h.5c.55,0,1-.45,1-1s-.45-1-1-1h-.5v-.5c0-.55-.45-1-1-1s-1,.45-1,1v.5h-.5c-.55,0-1,.45-1,1s.45,1,1,1Z"/><path d="M20.5,24h.5v.5c0,.55,.45,1,1,1s1-.45,1-1v-.5h.5c.55,0,1-.45,1-1s-.45-1-1-1h-.5v-.5c0-.55-.45-1-1-1s-1,.45-1,1v.5h-.5c-.55,0-1,.45-1,1s.45,1,1,1Z"/><path d="M28.5,8h.5v.5c0,.55,.45,1,1,1s1-.45,1-1v-.5h.5c.55,0,1-.45,1-1s-.45-1-1-1h-.5v-.5c0-.55-.45-1-1-1s-1,.45-1,1v.5h-.5c-.55,0-1,.45-1,1s.45,1,1,1Z"/><path d="M50.5,55h-.5v-.5c0-.55-.45-1-1-1s-1,.45-1,1v.5h-.5c-.55,0-1,.45-1,1s.45,1,1,1h.5v.5c0,.55,.45,1,1,1s1-.45,1-1v-.5h.5c.55,0,1-.45,1-1s-.45-1-1-1Z"/><path d="M59.5,39h-.5v-.5c0-.55-.45-1-1-1s-1,.45-1,1v.5h-.5c-.55,0-1,.45-1,1s.45,1,1,1h.5v.5c0,.55,.45,1,1,1s1-.45,1-1v-.5h.5c.55,0,1-.45,1-1s-.45-1-1-1Z"/><path d="M54.78,24.73h-.5v-.5c0-.55-.45-1-1-1s-1,.45-1,1v.5h-.5c-.55,0-1,.45-1,1s.45,1,1,1h.5v.5c0,.55,.45,1,1,1s1-.45,1-1v-.5h.5c.55,0,1-.45,1-1s-.45-1-1-1Z"/></svg>