<?xml version="1.0" encoding="UTF-8"?><svg id="Glyph" xmlns="http://www.w3.org/2000/svg" viewBox="0 0 64 64"><path d="M38.16,53.4c-3.68-2.13-7.42-4.84-11.1-8.05-.42-.36-1.05-.32-1.41,.1-.36,.42-.32,1.05,.1,1.41,3.78,3.3,7.62,6.08,11.41,8.27,.16,.09,.33,.13,.5,.13,.35,0,.68-.18,.87-.5,.28-.48,.11-1.09-.37-1.37Z"/><path d="M58.86,45.28c-.17-.52-.73-.81-1.26-.64-.52,.17-.81,.73-.64,1.26,1.56,4.8,1.35,8.52-.59,10.46-2.36,2.36-7.3,2.15-13.55-.59-.5-.22-1.1,0-1.32,.52-.22,.51,0,1.1,.52,1.32,3.64,1.59,6.88,2.39,9.58,2.39,2.6,0,4.7-.74,6.18-2.22,2.54-2.54,2.91-6.86,1.08-12.5Z"/><path d="M39.13,20.63l1.41-1.41c-1.54-1.45-3.11-2.82-4.69-4.1-.43-.35-1.06-.28-1.41,.15-.35,.43-.28,1.06,.15,1.4,1.53,1.24,3.05,2.56,4.54,3.96Z"/><path d="M43.37,24.87c5.12,5.48,9.28,11.35,11.86,16.75,.17,.36,.53,.57,.9,.57,.14,0,.29-.03,.43-.1,.5-.24,.71-.83,.47-1.33-2.67-5.6-6.97-11.66-12.25-17.3l-1.41,1.41Z"/><path d="M31.02,13.95c.18,.13,.38,.19,.58,.19,.31,0,.62-.15,.81-.42,.32-.45,.22-1.07-.23-1.4-.55-.39-1.1-.77-1.64-1.14-.46-.31-1.08-.19-1.39,.27-.31,.46-.19,1.08,.27,1.39,.53,.36,1.06,.73,1.6,1.11Z"/><path d="M19.23,40.09c.24,0,.48-.09,.67-.26,.41-.37,.44-1.01,.06-1.41C8.42,25.78,3,12.26,7.63,7.63c2.91-2.91,9.78-1.84,17.92,2.8,.48,.27,1.09,.11,1.36-.37,.27-.48,.11-1.09-.37-1.36C17.31,3.44,9.9,2.54,6.22,6.22c-5.57,5.57-.41,19.67,12.27,33.54,.2,.22,.47,.33,.74,.33Z"/><path d="M29.35,42.28c-.36,.42-.3,1.05,.12,1.41,7.41,6.26,15.39,10.31,20.32,10.31,1.45,0,2.52-.34,3.2-1.02,1.6-1.6,1.31-5.46-.78-10.32-.88-2.04-2.03-4.19-3.44-6.37-.3-.47-.92-.6-1.38-.3-.46,.3-.6,.92-.3,1.38,1.34,2.09,2.45,4.14,3.28,6.08,2.3,5.35,1.65,7.67,1.2,8.11-.27,.27-.94,.43-1.78,.43-3.67,0-10.98-3.04-19.03-9.84-.42-.36-1.05-.3-1.41,.12Z"/><path d="M37.14,22.62C27.8,13.97,18.86,10.01,14.22,10.01c-1.45,0-2.53,.34-3.2,1.01-1.41,1.41-1.34,4.72,.19,8.85,.19,.52,.77,.79,1.29,.59,.52-.19,.78-.76,.59-1.28-1.65-4.43-1.03-6.37-.66-6.74,.27-.27,.94-.43,1.79-.43,4.26,0,12.6,3.78,21.51,12.02l1.41-1.41Z"/><path d="M46.07,32.44c-1.42-1.89-2.99-3.75-4.69-5.58l-1.42,1.42c1.64,1.76,3.15,3.55,4.52,5.37,.2,.26,.49,.39,.8,.39,.21,0,.42-.06,.6-.2,.44-.33,.53-.96,.19-1.4Z"/><path d="M13.87,23.39c-.48,.27-.66,.87-.4,1.36,.27,.49,.55,.98,.84,1.47,.19,.31,.52,.49,.86,.49,.17,0,.35-.05,.51-.14,.47-.28,.63-.9,.35-1.37-.28-.47-.55-.94-.81-1.41-.27-.48-.88-.66-1.36-.4Z"/><path d="M17.67,31.22c1.5,2,3.16,3.99,4.95,5.92l1.41-1.41c-1.72-1.87-3.32-3.78-4.76-5.71-.33-.44-.95-.53-1.4-.2-.44,.33-.53,.95-.2,1.4Z"/><path d="M39.66,41.86c1.39,.6,2.8-.82,2.2-2.22-1.28-2.98-3.62-6.3-6.63-9.46l-2.5,2.5c-.19,.2-.45,.29-.7,.29s-.52-.09-.71-.29c-.39-.39-.39-1.02,0-1.41l2.49-2.5c-3.62-3.47-6.99-5.56-9.47-6.63-1.39-.6-2.8,.82-2.2,2.22,1.28,2.97,3.63,6.3,6.64,9.45L11.29,51.29c-.39,.39-.39,1.02,0,1.41,.2,.2,.45,.29,.71,.29s.51-.1,.71-.29l17.49-17.49c3.62,3.46,6.99,5.57,9.47,6.64Z"/><path d="M35.23,30.18L52.71,12.71c.39-.39,.39-1.03,0-1.42s-1.03-.39-1.42,0l-17.48,17.48c.24,.23,.48,.46,.72,.7,.23,.24,.47,.47,.7,.71Z"/></svg>