<?xml version="1.0" encoding="UTF-8"?><svg id="Glyph" xmlns="http://www.w3.org/2000/svg" viewBox="0 0 64 64"><path d="M39.64,30.22l-1.51-1.51,3.2-3.2-2.83-2.83-3.2,3.2-7.55-7.55c-.78-.78-2.05-.78-2.83,0l-.46,.46-1.41-1.41c-.78-.78-2.05-.78-2.83,0l-2.83,2.83c-.78,.78-.78,2.05,0,2.83l1.41,1.41-.46,.46c-.78,.78-.78,2.05,0,2.83l7.55,7.55-3.2,3.2,2.83,2.83,3.2-3.2,1.51,1.51,9.41-9.41Z"/><path d="M43.41,40.59l-2.83-2.83,2.59-2.59c.39-.39,.39-1.02,0-1.41l-2.12-2.12-9.41,9.41,2.12,2.12c.39,.39,1.02,.39,1.41,0l2.59-2.59,2.83,2.83,2.83-2.83Z"/><path d="M59.68,42.71l-.71-.71c-4.69-4.69-12.28-4.69-16.97,0-4.69,4.69-4.69,12.28,0,16.97l.71,.71,7.78-7.78,3.02,3.02c-.18,.67-.01,1.4,.51,1.92,.78,.78,2.05,.78,2.83,0,.78-.78,.78-2.05,0-2.83-.52-.52-1.26-.69-1.93-.51l-3.02-3.02,7.78-7.78Z"/><path d="M7.76,46.34l-3.47,3.47c-.39,.39-.39,1.02,0,1.41l3.54,3.54,4.17-4.18-4.24-4.24Z"/><path d="M9.25,56.18l3.53,3.53c.39,.39,1.02,.39,1.41,0l3.47-3.47-4.24-4.24-4.17,4.18Z"/><path d="M23.38,39.2l-3.53-3.53c-.39-.4-1.02-.4-1.41,0l-3.47,3.47,4.24,4.24,4.17-4.18Z"/><path d="M24.8,40.62l-4.17,4.18,4.23,4.23,3.47-3.47c.4-.39,.4-1.02,0-1.41l-3.53-3.53Z"/><rect x="10.39" y="41.86" width="6.18" height="6" transform="translate(-27.77 22.67) rotate(-45)"/><rect x="16.05" y="47.52" width="6.18" height="6" transform="translate(-30.11 28.33) rotate(-45)"/><path d="M54.76,7.83l-3.54-3.54c-.39-.39-1.02-.39-1.41,0l-3.34,3.35,4.24,4.24,4.05-4.05Z"/><path d="M59.71,12.78l-3.54-3.54-4.05,4.05,4.24,4.24,3.35-3.34c.39-.39,.39-1.02,0-1.41Z"/><path d="M39.2,23.38l4.05-4.04-4.24-4.24-3.34,3.34c-.4,.39-.4,1.02,0,1.41l3.53,3.53Z"/><path d="M40.62,24.8l3.53,3.53c.39,.4,1.02,.4,1.41,0l3.34-3.34-4.24-4.24-4.04,4.05Z"/><rect x="41.58" y="10.49" width="6.55" height="6" transform="translate(3.6 35.67) rotate(-45)"/><rect x="47.24" y="16.15" width="6.55" height="6" transform="translate(1.26 41.33) rotate(-45)"/></svg>