<?xml version="1.0" encoding="UTF-8"?><svg id="Glyph" xmlns="http://www.w3.org/2000/svg" viewBox="0 0 64 64"><path d="M44.74,48.47c-.95-2.61-2.69-5.07-4.26-6.94,2.69-1.64,5.48-3.54,8.31-5.65,1.16,3.51,.66,7.67-4.05,12.59Z"/><path d="M28.12,15.21c-2.11,2.83-4.01,5.62-5.65,8.31-1.87-1.57-4.33-3.31-6.94-4.26,4.92-4.71,9.08-5.21,12.59-4.05Z"/><path d="M59.37,16.37c-2.44-1.03-10.71-9.3-11.74-11.74,3.35-.71,6.84-.83,10.33-.32,.9,.13,1.6,.83,1.73,1.73,.51,3.49,.39,6.98-.32,10.33Z"/><path d="M35.52,42.08c-.99,.55-1.99,1.06-3,1.54-.46,.22-1,.12-1.36-.24l-10.55-10.55c-.35-.35-.45-.89-.23-1.35,.48-1,.99-2.01,1.53-3.01l13.6,13.6Z"/><path d="M58.59,18.22c-2.95-1.24-11.57-9.86-12.81-12.81l-.12-.28c-6.03,1.71-11.47,5.33-15.4,10.53-2.55,3.38-5.12,7.13-7.35,11l14.42,14.42c3.86-2.22,7.62-4.8,11-7.35,5.2-3.92,8.82-9.37,10.53-15.4l-.28-.12Zm-11.16,4.01c-1.56,1.56-4.09,1.56-5.66,0-1.56-1.56-1.56-4.09,0-5.66,1.56-1.56,4.09-1.56,5.66,0s1.56,4.09,0,5.66Z"/><path d="M17.63,46.78s-.05-.05-.08-.08c1.22,1.36,.97,3.54-.38,4.77-2.22,2.02-5.29,2.44-6.59,2.53-.34,.02-.61-.25-.59-.59,.09-1.34,.54-4.61,2.77-6.85,1.31-1.31,3.44-1.28,4.72,.07-2.32-2.39-6.13-2.41-8.47-.07-4.04,4.04-4.85,9.94-5.01,12.36-.04,.61,.46,1.11,1.07,1.07,2.33-.16,7.88-.91,11.89-4.56,2.45-2.23,2.9-6.2,.67-8.65Z"/><polygon points="19.29 34.34 15.99 36.69 27.31 48.01 29.66 44.71 19.29 34.34"/></svg>