<svg fill="#000000" xmlns="http://www.w3.org/2000/svg"  viewBox="0 0 32 32" width="32px" height="32px"><path d="M 6 4 C 4.894531 4 4 4.894531 4 6 C 4 7.105469 4.894531 8 6 8 C 6.617188 8 7.164063 7.71875 7.53125 7.28125 C 7.933594 7.472656 8.230469 7.75 8.4375 8.09375 C 5.707031 10.625 4 14.394531 4 18.1875 C 4 21.511719 5.425781 24.082031 7.65625 25.6875 C 9.886719 27.292969 12.851563 28 16 28 C 19.15625 28 22.113281 27.273438 24.34375 25.65625 C 26.574219 24.039063 28 21.464844 28 18.1875 C 28 14.910156 26.652344 11.664063 24.5 9.1875 C 24.191406 8.835938 23.871094 8.507813 23.53125 8.1875 C 23.738281 7.804688 24.03125 7.488281 24.46875 7.28125 C 24.835938 7.71875 25.382813 8 26 8 C 27.105469 8 28 7.105469 28 6 C 28 4.894531 27.105469 4 26 4 C 25.125 4 24.398438 4.5625 24.125 5.34375 C 23.234375 5.675781 22.507813 6.242188 22 6.96875 C 20.242188 5.757813 18.199219 5 16 5 C 13.777344 5 11.730469 5.722656 9.96875 6.90625 C 9.460938 6.203125 8.742188 5.667969 7.875 5.34375 C 7.601563 4.5625 6.875 4 6 4 Z M 16 7 C 18.65625 7 21.152344 8.375 23 10.5 C 24.847656 12.625 26 15.464844 26 18.1875 C 26 20.910156 24.925781 22.746094 23.15625 24.03125 C 21.386719 25.316406 18.84375 26 16 26 C 13.148438 26 10.613281 25.332031 8.84375 24.0625 C 7.074219 22.792969 6 20.964844 6 18.1875 C 6 12.621094 10.566406 7 16 7 Z M 16 9 C 12.675781 9 10 11.675781 10 15 C 10 18.324219 12.675781 21 16 21 C 19.324219 21 22 18.324219 22 15 C 22 11.675781 19.324219 9 16 9 Z M 16 11 C 18.277344 11 20 12.722656 20 15 C 20 17.277344 18.277344 19 16 19 C 13.722656 19 12 17.277344 12 15 C 12 12.722656 13.722656 11 16 11 Z M 16 13 C 14.898438 13 14 13.898438 14 15 C 14 16.101563 14.898438 17 16 17 C 17.101563 17 18 16.101563 18 15 C 18 14.800781 18.007813 14.605469 17.90625 14.40625 C 17.804688 14.804688 17.398438 15 17 15 C 16.398438 15 16 14.601563 16 14 C 16 13.601563 16.195313 13.195313 16.59375 13.09375 C 16.394531 12.992188 16.199219 13 16 13 Z M 12 22 L 12 24 L 20 24 L 20 22 Z"/></svg>