<svg fill="#000000" xmlns="http://www.w3.org/2000/svg"  viewBox="0 0 32 32" width="32px" height="32px"><path d="M 25 3 C 24.449219 3 24 3.449219 24 4 C 24 4.550781 24.449219 5 25 5 C 25.550781 5 26 4.550781 26 4 C 26 3.449219 25.550781 3 25 3 Z M 16 5 C 15.449219 5 15 5.449219 15 6 C 15 6.550781 15.449219 7 16 7 C 16.550781 7 17 6.550781 17 6 C 17 5.449219 16.550781 5 16 5 Z M 23 5 C 22.449219 5 22 5.449219 22 6 C 22 6.550781 22.449219 7 23 7 C 23.550781 7 24 6.550781 24 6 C 24 5.449219 23.550781 5 23 5 Z M 20.78125 6.78125 L 14.28125 13.28125 L 15.71875 14.71875 L 22.21875 8.21875 Z M 14 7 C 13.449219 7 13 7.449219 13 8 C 13 8.550781 13.449219 9 14 9 C 14.550781 9 15 8.550781 15 8 C 15 7.449219 14.550781 7 14 7 Z M 27 8 C 26.449219 8 26 8.449219 26 9 C 26 9.550781 26.449219 10 27 10 C 27.550781 10 28 9.550781 28 9 C 28 8.449219 27.550781 8 27 8 Z M 12 8.59375 L 5.40625 15.1875 C 2.234375 18.359375 2.234375 23.421875 5.40625 26.59375 C 8.578125 29.765625 13.640625 29.765625 16.8125 26.59375 L 22.21875 21.21875 L 20.78125 19.78125 L 15.40625 25.1875 C 12.976563 27.617188 9.242188 27.617188 6.8125 25.1875 C 4.382813 22.757813 4.382813 19.023438 6.8125 16.59375 L 13.40625 10 Z M 25 10 C 24.449219 10 24 10.449219 24 11 C 24 11.550781 24.449219 12 25 12 C 25.550781 12 26 11.550781 26 11 C 26 10.449219 25.550781 10 25 10 Z M 22.6875 11.90625 L 17.28125 17.28125 L 18.71875 18.71875 L 24.09375 13.3125 Z M 27 14 C 26.449219 14 26 14.449219 26 15 C 26 15.550781 26.449219 16 27 16 C 27.550781 16 28 15.550781 28 15 C 28 14.449219 27.550781 14 27 14 Z M 25 16 C 24.449219 16 24 16.449219 24 17 C 24 17.550781 24.449219 18 25 18 C 25.550781 18 26 17.550781 26 17 C 26 16.449219 25.550781 16 25 16 Z M 10.71875 16.09375 L 10.53125 16.15625 L 8.75 16.875 L 8.375 17 L 8.1875 17.375 L 7.28125 19.28125 L 7.125 19.59375 L 7.25 19.96875 L 7.4375 20.6875 L 7.21875 21.15625 L 7.0625 21.46875 L 7.125 21.78125 C 7.222656 22.269531 7.417969 22.667969 7.59375 23.03125 C 7.769531 23.394531 7.9375 23.6875 7.9375 23.6875 L 8.09375 23.96875 L 8.375 24.09375 L 9.6875 24.71875 L 10.03125 24.875 L 11.0625 24.53125 L 11.90625 24.6875 L 12.34375 24.75 L 12.6875 24.5 L 14.6875 23 L 14.84375 22.90625 L 14.9375 22.75 C 14.9375 22.75 15.140625 22.429688 15.375 22 C 15.609375 21.570313 15.910156 21.078125 16 20.4375 L 16.03125 20.15625 L 15.9375 19.90625 L 14.9375 17.5 L 14.5 16.53125 L 13.65625 16.9375 C 13.628906 16.921875 13.621094 16.925781 13.59375 16.90625 C 13.441406 16.800781 13.414063 16.640625 13.46875 16.90625 L 13.3125 16.09375 Z M 23 18 C 22.449219 18 22 18.449219 22 19 C 22 19.550781 22.449219 20 23 20 C 23.550781 20 24 19.550781 24 19 C 24 18.449219 23.550781 18 23 18 Z M 11.09375 18.09375 L 11.9375 18.09375 C 12.121094 18.296875 12.300781 18.449219 12.46875 18.5625 C 12.792969 18.785156 13.09375 18.90625 13.09375 18.90625 L 13.28125 19 L 13.375 19 L 13.90625 20.34375 C 13.847656 20.511719 13.773438 20.761719 13.625 21.03125 C 13.484375 21.289063 13.433594 21.40625 13.375 21.5 L 11.84375 22.65625 L 11.1875 22.53125 L 10.9375 22.46875 L 10.6875 22.5625 L 10.15625 22.71875 L 9.53125 22.4375 C 9.476563 22.335938 9.449219 22.3125 9.375 22.15625 C 9.28125 21.960938 9.246094 21.84375 9.1875 21.6875 L 9.40625 21.25 L 9.5625 20.90625 L 9.46875 20.53125 L 9.25 19.78125 L 9.84375 18.59375 Z"/></svg>