<svg fill="#000000" xmlns="http://www.w3.org/2000/svg"  viewBox="0 0 32 32" width="32px" height="32px"><path d="M 22.25 1.9375 C 20.792969 1.949219 19.296875 2.597656 17.90625 3.90625 C 17.390625 3.625 16.816406 3.46875 16.25 3.46875 C 15.359375 3.46875 14.457031 3.824219 13.78125 4.5 L 12.46875 5.8125 C 11.316406 5.859375 10.164063 6.304688 9.28125 7.1875 L 8.59375 7.90625 L 4 12.5 L 3.28125 13.1875 L 5.9375 15.84375 L 1.59375 20.1875 L 2.28125 20.90625 L 11.09375 29.71875 L 11.8125 30.40625 L 12.5 29.71875 L 16.1875 26 L 18.8125 28.625 L 19.5 27.90625 L 24.8125 22.59375 C 25.671875 21.734375 26.125 20.640625 26.1875 19.53125 L 27.5 18.21875 C 28.609375 17.109375 28.773438 15.414063 28.0625 14.09375 C 29.539063 12.488281 30.207031 10.738281 30.03125 9.0625 C 29.847656 7.324219 28.863281 5.777344 27.5 4.46875 C 26.160156 3.183594 24.632813 2.183594 22.90625 1.96875 C 22.691406 1.941406 22.46875 1.9375 22.25 1.9375 Z M 22.25 3.9375 C 22.386719 3.9375 22.519531 3.953125 22.65625 3.96875 C 23.753906 4.105469 24.933594 4.792969 26.09375 5.90625 C 27.230469 7 27.914063 8.171875 28.03125 9.28125 C 28.148438 10.390625 27.769531 11.558594 26.46875 12.90625 C 25.132813 14.234375 24.027344 14.574219 22.9375 14.4375 C 21.839844 14.300781 20.660156 13.582031 19.5 12.46875 L 19.375 12.34375 C 18.3125 11.285156 17.652344 10.183594 17.53125 9.125 C 17.40625 8.019531 17.746094 6.847656 19.09375 5.5 C 20.273438 4.320313 21.28125 3.925781 22.25 3.9375 Z M 16.25 5.40625 C 16.359375 5.40625 16.453125 5.4375 16.5625 5.46875 C 16.222656 5.984375 15.957031 6.503906 15.78125 7.03125 C 15.472656 6.753906 15.128906 6.53125 14.78125 6.34375 L 15.21875 5.90625 C 15.542969 5.582031 15.894531 5.40625 16.25 5.40625 Z M 21.40625 5.40625 L 19.3125 7.5 L 24.59375 12.8125 L 26.6875 10.6875 C 26.6875 10.6875 25.695313 8.699219 24.59375 7.5 C 23.492188 6.300781 21.40625 5.40625 21.40625 5.40625 Z M 12.65625 7.75 C 13.339844 7.75 14.023438 8.023438 14.59375 8.59375 L 15.59375 9.59375 C 15.855469 11.234375 16.800781 12.667969 18.09375 13.90625 C 19.367188 15.128906 20.8125 16.097656 22.4375 16.375 L 23.15625 17.0625 L 23.40625 17.3125 C 24.542969 18.449219 24.542969 20.050781 23.40625 21.1875 L 21.4375 23.15625 L 20.25 22 L 21.3125 20.90625 L 19.90625 19.5 L 15.8125 23.59375 C 15.523438 23.6875 15.296875 23.90625 15.1875 24.1875 C 15.175781 24.21875 15.164063 24.25 15.15625 24.28125 L 14.09375 25.34375 C 13.859375 24.707031 13.5 24 12.90625 23.40625 C 12.367188 22.867188 11.71875 22.519531 11.125 22.28125 L 12.5 20.90625 L 11.09375 19.5 L 9.71875 20.875 C 9.480469 20.28125 9.132813 19.632813 8.59375 19.09375 C 8 18.5 7.292969 18.140625 6.65625 17.90625 L 7.78125 16.78125 C 7.800781 16.773438 7.824219 16.761719 7.84375 16.75 L 7.9375 16.6875 C 8.050781 16.613281 8.144531 16.519531 8.21875 16.40625 C 8.242188 16.375 8.261719 16.34375 8.28125 16.3125 L 12.5 12.09375 L 11.09375 10.6875 L 10 11.78125 L 8.8125 10.5 L 10.71875 8.59375 C 11.289063 8.023438 11.972656 7.75 12.65625 7.75 Z M 7.375 11.9375 L 8.59375 13.1875 L 7.34375 14.4375 L 6.125 13.1875 Z M 14.4375 14 L 12.6875 15.78125 L 16.21875 19.3125 L 17.96875 17.53125 Z M 26.53125 15.4375 C 26.660156 15.898438 26.515625 16.359375 26.09375 16.78125 L 25.6875 17.1875 C 25.507813 16.828125 25.308594 16.472656 25.03125 16.15625 C 25.53125 15.988281 26.039063 15.753906 26.53125 15.4375 Z M 5 19.5625 C 5.417969 19.640625 6.585938 19.898438 7.1875 20.5 C 7.71875 21.03125 7.96875 21.957031 8.09375 22.5 L 7.40625 23.1875 L 4.40625 20.1875 Z M 18.8125 23.40625 L 20.03125 24.5625 L 18.8125 25.8125 L 17.625 24.625 Z M 9.5 23.90625 C 10.042969 24.03125 10.96875 24.28125 11.5 24.8125 C 12.101563 25.414063 12.359375 26.582031 12.4375 27 L 11.8125 27.59375 L 8.8125 24.59375 Z"/></svg>