<svg fill="#000000" xmlns="http://www.w3.org/2000/svg"  viewBox="0 0 32 32" width="32px" height="32px"><path d="M 16 3 C 9.660156 3 4.472656 7.851563 4 14 C 2.90625 14 2 14.90625 2 16 L 2 19 C 2 20.082031 2.890625 20.984375 3.96875 21 L 4 25 L 4 25.53125 L 4.4375 25.84375 C 4.4375 25.84375 9.171875 29 16 29 C 22.828125 29 27.5625 25.84375 27.5625 25.84375 L 28 25.53125 L 28 21 C 29.09375 21 30 20.09375 30 19 L 30 16 C 30 14.90625 29.09375 14 28 14 L 27.9375 14 C 27.425781 7.890625 22.320313 3 16 3 Z M 16 5 C 21.574219 5 26 9.515625 26 15 L 26 24.375 C 25.417969 24.742188 21.742188 27 16 27 C 10.257813 27 6.582031 24.742188 6 24.375 L 5.96875 21 L 6 21 L 6 14 C 6.46875 8.957031 10.730469 5 16 5 Z M 16 8 C 12.75 8 10.496094 8.761719 9.03125 10.03125 C 7.566406 11.300781 7 13.027344 7 14.625 L 7 18.03125 C 7 19.921875 7.933594 21.566406 9.53125 22.5625 C 11.128906 23.558594 13.3125 24 16 24 C 18.6875 24 20.871094 23.558594 22.46875 22.5625 C 24.066406 21.566406 25 19.921875 25 18.03125 L 25 14.625 C 25 13.046875 24.429688 11.304688 22.96875 10.03125 C 21.507813 8.757813 19.25 8 16 8 Z M 16 10 C 18.9375 10 20.664063 10.699219 21.65625 11.5625 C 22.648438 12.425781 23 13.492188 23 14.625 L 23 18 L 18 18 C 17.96875 18 17.9375 18 17.90625 18 C 17.355469 18.027344 16.925781 18.496094 16.953125 19.046875 C 16.980469 19.597656 17.449219 20.027344 18 20 L 22.40625 20 C 22.160156 20.316406 21.824219 20.582031 21.40625 20.84375 C 20.289063 21.542969 18.457031 22 16 22 C 13.542969 22 11.710938 21.542969 10.59375 20.84375 C 9.476563 20.144531 9 19.324219 9 18.03125 L 9 14.625 C 9 13.464844 9.355469 12.386719 10.34375 11.53125 C 11.332031 10.675781 13.0625 10 16 10 Z"/></svg>