<svg fill="#000000" xmlns="http://www.w3.org/2000/svg"  viewBox="0 0 32 32" width="32px" height="32px"><path d="M 25 2 A 2 2 0 0 0 23.095703 4.6074219 C 20.538519 7.4205292 17.981161 10.233602 15.423828 13.046875 A 2 2 0 0 0 15 13 A 2 2 0 0 0 13.251953 15.96875 C 12.845599 16.645728 12.439561 17.322962 12.033203 18 A 2 2 0 0 0 12 18 A 2 2 0 0 0 10.271484 19 L 7.7324219 19 A 2 2 0 0 0 6 18 A 2 2 0 0 0 4.609375 21.435547 C 4.2223344 22.983706 3.8362305 24.532035 3.4492188 26.080078 A 2 2 0 0 0 4 30 A 2 2 0 0 0 5.390625 26.564453 C 5.777679 25.016288 6.1637612 23.467969 6.5507812 21.919922 A 2 2 0 0 0 7.7285156 21 L 10.267578 21 A 2 2 0 0 0 12 22 A 2 2 0 0 0 13.748047 19.03125 C 14.154355 18.354229 14.560491 17.677072 14.966797 17 A 2 2 0 0 0 15 17 A 2 2 0 0 0 15.998047 16.732422 C 17.331973 17.504794 18.666176 18.276386 20 19.048828 A 2 2 0 0 0 22 21 A 2 2 0 0 0 23.859375 18.271484 L 26.677734 14.826172 A 2 2 0 0 0 27 14.853516 A 2 2 0 0 0 27.59375 10.945312 C 27.181212 9.1191796 26.768044 7.2930905 26.355469 5.4667969 A 2 2 0 0 0 25 2 z M 8.5 6 A 1.5 1.5 0 0 0 8.5 9 A 1.5 1.5 0 0 0 8.5 6 z M 24.449219 6.09375 C 24.847755 7.8578718 25.246027 9.6223464 25.644531 11.386719 A 2 2 0 0 0 25.130859 13.558594 L 22.296875 17.021484 A 2 2 0 0 0 22 17 A 2 2 0 0 0 20.958984 17.294922 C 19.638593 16.530884 18.31851 15.766172 16.998047 15.001953 A 2 2 0 0 0 16.904297 14.392578 C 19.41909 11.626276 21.934352 8.8602748 24.449219 6.09375 z M 4 12 A 1 1 0 0 0 4 14 A 1 1 0 0 0 4 12 z M 28 20 A 1 1 0 0 0 28 22 A 1 1 0 0 0 28 20 z M 19 26 A 1 1 0 0 0 19 28 A 1 1 0 0 0 19 26 z"/></svg>