<svg fill="#000000" xmlns="http://www.w3.org/2000/svg"  viewBox="0 0 32 32" width="32px" height="32px"><path d="M 21.5 4 C 20.068681 4 18.810677 4.5594777 17.734375 5.3496094 L 17.675781 5.2519531 L 4.4863281 13.142578 L 5.5136719 14.857422 L 15.302734 9.0019531 C 15.181626 9.4962734 15 9.9694432 15 10.5 C 15 11.923741 15.555343 13.174813 16.337891 14.248047 L 5.2929688 25.292969 L 6.7070312 26.707031 L 17.751953 15.662109 C 18.825187 16.444658 20.076258 17 21.5 17 C 22.030557 17 22.503726 16.818374 22.998047 16.697266 L 17.142578 26.486328 L 18.857422 27.513672 L 26.748047 14.324219 L 26.650391 14.265625 C 27.440526 13.189319 28 11.931318 28 10.5 C 28 6.9219948 25.078008 4 21.5 4 z M 21.5 6 C 23.997128 6 26 8.0028731 26 10.5 C 26 12.997127 23.997128 15 21.5 15 C 20.620471 15 19.851135 14.684926 19.160156 14.253906 L 22.707031 10.707031 L 21.292969 9.2929688 L 17.746094 12.839844 C 17.315075 12.148864 17 11.379529 17 10.5 C 17 8.0028731 19.002872 6 21.5 6 z"/></svg>