<svg fill="#000000" xmlns="http://www.w3.org/2000/svg"  viewBox="0 0 32 32" width="32px" height="32px"><path d="M 16 4 A 1 1 0 0 0 16 6 A 1 1 0 0 0 16 4 z M 11.8125 4.828125 A 1 1 0 0 0 11.8125 6.828125 A 1 1 0 0 0 11.8125 4.828125 z M 20.1875 4.828125 A 1 1 0 0 0 20.1875 6.828125 A 1 1 0 0 0 20.1875 4.828125 z M 8.2226562 7.2226562 A 1 1 0 0 0 8.2226562 9.2226562 A 1 1 0 0 0 8.2226562 7.2226562 z M 23.777344 7.2226562 A 1 1 0 0 0 23.777344 9.2226562 A 1 1 0 0 0 23.777344 7.2226562 z M 16 8 C 11.593562 8 8 11.593562 8 16 C 8 20.406438 11.593562 24 16 24 C 20.406438 24 24 20.406438 24 16 C 24 11.593562 20.406438 8 16 8 z M 16.935547 10.080078 C 17.685655 10.196743 18.387942 10.448625 19.017578 10.814453 L 18.867188 10.832031 L 18.978516 12.085938 L 18.308594 11.794922 L 17.771484 12.263672 L 17.861328 13.560547 L 19.224609 13.136719 L 20.902344 13.673828 L 20.478516 14.455078 L 19.449219 13.830078 L 18.353516 13.986328 L 17.279297 14.792969 L 16.675781 16.671875 L 17.882812 17.679688 C 17.882812 17.679688 19.136125 17.455078 19.203125 17.455078 C 19.270125 17.455078 19.716797 18.595703 19.716797 18.595703 L 18.861328 21.279297 C 18.011909 21.738614 17.03768 22 16 22 C 15.742565 22 15.49088 21.97838 15.242188 21.947266 L 14.751953 21.103516 L 15.421875 18.597656 L 12.894531 16.695312 L 10.566406 16.695312 L 10.021484 15.582031 C 10.025297 15.526303 10.023988 15.469351 10.029297 15.414062 L 11.642578 14.123047 L 14.148438 12.9375 L 13.771484 11.28125 L 14.845703 11.035156 L 15.359375 11.751953 L 17.238281 11.394531 L 16.935547 10.080078 z M 14.484375 10.199219 L 14.351562 10.253906 L 14.300781 10.246094 C 14.361094 10.228442 14.423277 10.21502 14.484375 10.199219 z M 5.828125 10.8125 A 1 1 0 0 0 5.828125 12.8125 A 1 1 0 0 0 5.828125 10.8125 z M 26.171875 10.8125 A 1 1 0 0 0 26.171875 12.8125 A 1 1 0 0 0 26.171875 10.8125 z M 5 15 A 1 1 0 0 0 5 17 A 1 1 0 0 0 5 15 z M 27 15 A 1 1 0 0 0 27 17 A 1 1 0 0 0 27 15 z M 10.068359 16.863281 L 10.412109 17.255859 L 10.412109 18.179688 C 10.249903 17.761727 10.133917 17.321338 10.068359 16.863281 z M 10.785156 18.970703 L 11.574219 19.849609 L 12.314453 19.849609 L 13.689453 21.541016 C 12.457428 21.029546 11.438421 20.119479 10.785156 18.970703 z M 5.828125 19.1875 A 1 1 0 0 0 5.828125 21.1875 A 1 1 0 0 0 5.828125 19.1875 z M 26.171875 19.1875 A 1 1 0 0 0 26.171875 21.1875 A 1 1 0 0 0 26.171875 19.1875 z M 8.2226562 22.777344 A 1 1 0 0 0 8.2226562 24.777344 A 1 1 0 0 0 8.2226562 22.777344 z M 23.777344 22.777344 A 1 1 0 0 0 23.777344 24.777344 A 1 1 0 0 0 23.777344 22.777344 z M 11.8125 25.171875 A 1 1 0 0 0 11.8125 27.171875 A 1 1 0 0 0 11.8125 25.171875 z M 20.1875 25.171875 A 1 1 0 0 0 20.1875 27.171875 A 1 1 0 0 0 20.1875 25.171875 z M 16 26 A 1 1 0 0 0 16 28 A 1 1 0 0 0 16 26 z"/></svg>