<svg fill="#000000" xmlns="http://www.w3.org/2000/svg"  viewBox="0 0 32 32" width="32px" height="32px"><path d="M 15.394531 27.9375 C 19.375 27.601563 23.1875 25.621094 25.53125 22.351563 C 27.492188 19.621094 28.460938 16.273438 28.832031 12.964844 C 28.855469 12.757813 29.0625 10 29 10 L 27.902344 10 C 27.894531 9.980469 27.886719 9.957031 27.886719 9.957031 L 27.882813 10 L 27 10 C 27 12.769531 26.554688 17.65625 23.839844 21.300781 C 19.226563 26.855469 13.363281 26.3125 11.230469 24.140625 C 10.386719 23.28125 9.96875 22.222656 9.96875 21.03125 C 9.964844 18.898438 10.710938 16.332031 13.304688 13.671875 C 14.804688 12.125 16.503906 13.472656 14.804688 15.222656 C 14.703125 15.320313 12.96875 17.15625 12.96875 19.34375 C 12.96875 22.125 15.03125 23 16.25 23 C 21.375 23 24.25 17.296875 24.820313 12.890625 C 25.160156 10.265625 24.90625 7.503906 22.976563 5.511719 C 21.253906 3.730469 18.296875 3.796875 16.050781 4.308594 C 13.394531 4.917969 10.953125 6.335938 9.03125 8.253906 C 5.070313 12.207031 3 18.164063 3 22 L 4.101563 22 C 4.105469 22.019531 4.113281 22.042969 4.113281 22.042969 L 4.121094 22 L 5 22 C 5 18.65625 6.90625 13.199219 10.445313 9.667969 C 11.488281 8.625 12.621094 7.8125 13.820313 7.214844 C 16.683594 6.117188 19.332031 6.320313 20.644531 7.65625 C 21.539063 8.574219 22 9.78125 22 11.15625 C 22 13.378906 21.34375 15.753906 18.84375 18.316406 C 17.347656 19.863281 15.421875 18.523438 17.113281 16.769531 C 18.417969 15.417969 18.9375 13.25 18.9375 12 C 18.9375 11.253906 18.625 9.011719 16.328125 9.011719 C 14.3125 9.011719 12.355469 10.414063 11.15625 11.6875 C 8.140625 14.734375 7.015625 18.390625 6.96875 21.148438 C 6.941406 22.777344 7.550781 24.464844 8.578125 25.742188 C 9.796875 27.253906 11.496094 27.863281 13.398438 27.96875 C 14.0625 28.003906 14.730469 27.992188 15.394531 27.9375 Z"/></svg>