<svg fill="#000000" xmlns="http://www.w3.org/2000/svg"  viewBox="0 0 32 32" width="32px" height="32px"><path d="M 11 3 C 9.6379007 3 8.6625415 4.0180336 8.3027344 5.2714844 L 4 8.5 L 4 14.333984 L 6.4765625 17.634766 C 5.6451657 18.170715 5 18.94679 5 20 L 5 25 L 6.3691406 25 C 6.2503319 25.340961 6 25.645765 6 26 C 6 26.722222 6.2353472 27.457882 6.7519531 28.039062 C 7.268559 28.620244 8.0833335 29 9 29 C 9.9166665 29 10.731441 28.620244 11.248047 28.039062 C 11.764653 27.457881 12 26.722222 12 26 C 12 25.645765 11.749668 25.340961 11.630859 25 L 13.369141 25 C 13.250332 25.340961 13 25.645765 13 26 C 13 26.722222 13.235347 27.457882 13.751953 28.039062 C 14.268559 28.620244 15.083334 29 16 29 C 16.916666 29 17.731441 28.620244 18.248047 28.039062 C 18.764653 27.457881 19 26.722222 19 26 C 19 25.645765 18.749668 25.340961 18.630859 25 L 20.369141 25 C 20.250332 25.340961 20 25.645765 20 26 C 20 26.722222 20.235347 27.457882 20.751953 28.039062 C 21.268559 28.620244 22.083334 29 23 29 C 23.916666 29 24.731441 28.620244 25.248047 28.039062 C 25.764653 27.457881 26 26.722222 26 26 C 26 25.645765 25.749668 25.340961 25.630859 25 L 27 25 L 27 24 L 27 20 C 27 18.35503 25.64497 17 24 17 L 23.796875 17 C 23.281986 13.084606 20.052135 10 16 10 C 12.058517 10 8.9162765 12.927154 8.265625 16.6875 L 6 13.666016 L 6 9.5 L 8.6347656 7.5234375 C 9.1707146 8.3548343 9.9467905 9 11 9 L 12 9 L 12 7 L 11 7 C 10.43497 7 10 6.5650302 10 6 C 10 5.4349698 10.43497 5 11 5 L 12 5 L 12 3 L 11 3 z M 16 12 C 18.970243 12 21.30902 14.174659 21.798828 17 L 10.201172 17 C 10.69098 14.174659 13.029757 12 16 12 z M 8 19 L 24 19 C 24.56503 19 25 19.43497 25 20 L 25 23 L 23 23 L 16 23 L 9 23 L 7 23 L 7 20 C 7 19.43497 7.4349698 19 8 19 z M 9 25 C 9.4166663 25 9.6018927 25.120244 9.7519531 25.289062 C 9.9020136 25.457881 10 25.722222 10 26 C 10 26.277778 9.9020136 26.542118 9.7519531 26.710938 C 9.6018927 26.879756 9.4166663 27 9 27 C 8.5833337 27 8.3981073 26.879756 8.2480469 26.710938 C 8.0979864 26.542119 8 26.277778 8 26 C 8 25.722222 8.0979864 25.457882 8.2480469 25.289062 C 8.3981073 25.120244 8.5833337 25 9 25 z M 16 25 C 16.416666 25 16.601893 25.120244 16.751953 25.289062 C 16.902014 25.457881 17 25.722222 17 26 C 17 26.277778 16.90201 26.542118 16.751953 26.710938 C 16.601893 26.879756 16.416666 27 16 27 C 15.583334 27 15.398107 26.879756 15.248047 26.710938 C 15.097986 26.542119 15 26.277778 15 26 C 15 25.722222 15.097986 25.457882 15.248047 25.289062 C 15.398107 25.120244 15.583334 25 16 25 z M 23 25 C 23.416666 25 23.601893 25.120244 23.751953 25.289062 C 23.902014 25.457881 24 25.722222 24 26 C 24 26.277778 23.90201 26.542118 23.751953 26.710938 C 23.601893 26.879756 23.416666 27 23 27 C 22.583334 27 22.398107 26.879756 22.248047 26.710938 C 22.097986 26.542119 22 26.277778 22 26 C 22 25.722222 22.097986 25.457882 22.248047 25.289062 C 22.398107 25.120244 22.583334 25 23 25 z"/></svg>