<svg fill="#000000" xmlns="http://www.w3.org/2000/svg"  viewBox="0 0 32 32" width="32px" height="32px"><path d="M 16 3 C 13.078125 3 10.464844 3.980469 8.3125 5.59375 L 7.625 6.09375 L 8 6.84375 C 7.980469 6.804688 8 6.800781 8 7 C 8 7.554688 7.554688 8 7 8 C 6.800781 8 6.804688 7.980469 6.84375 8 L 6.09375 7.625 L 5.59375 8.3125 C 3.980469 10.464844 3 13.078125 3 16 C 3 20.976563 5.796875 25.421875 10.03125 27.59375 L 10.6875 27.9375 L 11.21875 27.40625 C 11.5 27.125 11.734375 27 12 27 C 12.464844 27 12.953125 27.445313 13 27.90625 L 13.09375 28.6875 L 13.84375 28.78125 C 14.53125 28.878906 15.203125 29 16 29 C 22.695313 29 28.148438 24.015625 28.90625 17.53125 L 28.96875 16.75 L 28.28125 16.46875 C 28.25 16.457031 28 16.15625 28 16 C 28 15.84375 28.25 15.542969 28.28125 15.53125 L 28.96875 15.25 L 28.90625 14.46875 C 28.148438 7.984375 22.695313 3 16 3 Z M 15.15625 5.03125 C 15.679688 5.378906 17.1875 6.503906 18.5625 8.71875 L 18.84375 9.1875 L 19.59375 9.1875 C 20.058594 9.1875 20.40625 9.535156 20.40625 10 C 20.40625 10.265625 20.339844 10.347656 20 10.6875 L 19.5625 11.125 L 19.75 11.71875 C 19.828125 11.957031 19.941406 12.355469 20.0625 12.71875 L 20.25 13.28125 L 20.84375 13.375 C 20.980469 13.398438 21 13.4375 21 13.59375 C 21 13.695313 20.945313 13.761719 20.84375 13.8125 L 20.3125 14.09375 L 20.3125 14.6875 C 20.3125 15.253906 20.40625 15.765625 20.40625 16 C 20.40625 19.117188 19.535156 21.546875 18.53125 23.1875 L 18.25 23.65625 L 18.5 24.15625 C 18.601563 24.355469 18.59375 24.328125 18.59375 24.40625 C 18.59375 24.628906 18.628906 24.59375 18.40625 24.59375 L 17.625 24.59375 L 17.3125 24.96875 C 16.402344 26.074219 15.617188 26.667969 15.21875 26.9375 C 15 26.910156 14.792969 26.875 14.5625 26.84375 C 14.082031 25.804688 13.195313 25 12 25 C 11.410156 25 10.933594 25.230469 10.5 25.5 C 7.210938 23.585938 5 20.023438 5 16 C 5 13.726563 5.753906 11.742188 6.9375 10 C 6.949219 10 6.988281 10 7 10 C 8.644531 10 10 8.644531 10 7 C 10 6.988281 10 6.949219 10 6.9375 C 11.527344 5.902344 13.230469 5.191406 15.15625 5.03125 Z M 18.3125 5.25 C 22.734375 6.1875 26.0625 9.757813 26.78125 14.28125 C 26.328125 14.738281 26 15.304688 26 16 C 26 16.695313 26.328125 17.261719 26.78125 17.71875 C 26.070313 22.210938 22.78125 25.75 18.40625 26.71875 C 18.480469 26.636719 18.550781 26.585938 18.625 26.5 C 19.691406 26.367188 20.59375 25.5 20.59375 24.40625 C 20.59375 24.136719 20.503906 24.011719 20.4375 23.8125 C 21.535156 21.878906 22.40625 19.28125 22.40625 16 C 22.40625 15.59375 22.371094 15.328125 22.34375 15.0625 C 22.710938 14.671875 23 14.1875 23 13.59375 C 23 12.832031 22.511719 12.214844 21.875 11.8125 C 21.855469 11.742188 21.804688 11.671875 21.78125 11.59375 C 22.105469 11.164063 22.40625 10.667969 22.40625 10 C 22.40625 8.613281 21.304688 7.554688 19.96875 7.34375 C 19.421875 6.527344 18.851563 5.832031 18.3125 5.25 Z M 13.71875 8.34375 C 12.421875 8.335938 11.230469 9.203125 10.84375 10.5 C 10.367188 12.085938 11.445313 13.625 12.90625 14.0625 L 13.5 12.15625 C 12.960938 11.996094 12.625 11.507813 12.75 11.09375 C 12.90625 10.574219 13.410156 10.277344 13.90625 10.375 L 14.28125 8.40625 C 14.09375 8.367188 13.902344 8.34375 13.71875 8.34375 Z M 8.71875 15.78125 C 7.574219 16.273438 6.84375 17.5625 7.40625 18.78125 C 7.414063 18.785156 7.402344 18.804688 7.40625 18.8125 C 7.414063 18.828125 7.429688 18.828125 7.4375 18.84375 C 7.964844 19.957031 9.28125 20.648438 10.5 20.125 L 9.71875 18.28125 C 9.566406 18.347656 9.320313 18.234375 9.21875 18 L 9.21875 17.96875 L 9.1875 17.9375 C 9.207031 17.972656 9.265625 17.726563 9.5 17.625 Z M 13.1875 19.09375 C 11.972656 20.003906 11.515625 21.78125 12.5 23.09375 C 13.410156 24.308594 15.1875 24.796875 16.5 23.8125 L 15.3125 22.1875 C 15.023438 22.402344 14.382813 22.289063 14.09375 21.90625 C 13.878906 21.617188 14.023438 20.976563 14.40625 20.6875 Z"/></svg>