<svg fill="#000000" xmlns="http://www.w3.org/2000/svg"  viewBox="0 0 32 32" width="32px" height="32px"><path d="M 16 4 C 12.145666 4 9 7.1456661 9 11 L 9 11.554688 C 7.686761 11.781705 6.5281952 12.068724 5.59375 12.425781 C 4.9131895 12.685827 4.3425141 12.974821 3.8769531 13.359375 C 3.4113921 13.743929 3 14.302397 3 15 C 3 15.954685 3.6889473 16.589177 4.4335938 17.029297 C 5.1782401 17.469417 6.1276192 17.805847 7.2714844 18.091797 C 8.4643078 18.389986 9.875137 18.619575 11.423828 18.775391 L 7.125 26.513672 L 8.875 27.486328 L 13.621094 18.941406 C 14.067936 18.963216 14.537621 18.965243 15 18.974609 L 15 28 L 17 28 L 17 18.974609 C 17.462379 18.965243 17.932064 18.963216 18.378906 18.941406 L 23.125 27.486328 L 24.875 26.513672 L 20.576172 18.775391 C 22.124863 18.619575 23.535692 18.389986 24.728516 18.091797 C 25.872381 17.805847 26.82176 17.469417 27.566406 17.029297 C 28.311053 16.589177 29 15.954685 29 15 C 29 14.317393 28.605238 13.763837 28.154297 13.382812 C 27.703355 13.001789 27.149022 12.716717 26.492188 12.458984 C 25.540196 12.085436 24.356655 11.785066 23 11.550781 L 23 11 C 23 7.1456661 19.854334 4 16 4 z M 16 6 C 18.773666 6 21 8.2263339 21 11 L 21 12.429688 C 20.20242 12.62302 18.476442 13 16 13 C 13.537704 13 11.821142 12.62789 11.017578 12.433594 L 11 12.273438 L 11 11 C 11 8.2263339 13.226334 6 16 6 z M 23 13.587891 C 24.111361 13.797721 25.067622 14.047959 25.761719 14.320312 C 26.290259 14.527705 26.674504 14.752602 26.863281 14.912109 C 26.924201 14.963583 26.932523 14.976807 26.953125 15 C 26.953125 15 26.951172 15.001953 26.951172 15.001953 C 26.897114 15.059671 26.783769 15.16778 26.548828 15.306641 C 26.078943 15.584364 25.269947 15.893465 24.242188 16.150391 C 22.186668 16.664241 19.245948 17 16 17 C 12.754052 17 9.8133322 16.664241 7.7578125 16.150391 C 6.7300527 15.893465 5.9210567 15.584364 5.4511719 15.306641 C 5.2162295 15.167779 5.1009324 15.057718 5.046875 15 C 5.0688401 14.975151 5.081461 14.957328 5.1503906 14.900391 C 5.3518609 14.733976 5.7555293 14.504298 6.3085938 14.292969 C 6.9953473 14.030556 7.9266373 13.792099 9 13.589844 L 9 13.988281 L 9.7265625 14.195312 C 9.7265625 14.195312 12.531906 15 16 15 C 19.468094 15 22.273437 14.195314 22.273438 14.195312 L 23 13.988281 L 23 13.587891 z"/></svg>