<svg fill="#000000" xmlns="http://www.w3.org/2000/svg"  viewBox="0 0 32 32" width="32px" height="32px"><path d="M 16 5 C 10.101563 5 5.265625 9.71875 5.03125 15.5625 C 3.644531 16.714844 2.550781 17.832031 1.84375 18.96875 C 1.121094 20.132813 0.757813 21.433594 1.28125 22.59375 C 1.289063 22.609375 1.304688 22.609375 1.3125 22.625 C 1.753906 23.621094 2.707031 24.234375 3.8125 24.53125 C 4.933594 24.835938 6.292969 24.882813 7.8125 24.75 C 8.230469 24.714844 8.679688 24.660156 9.125 24.59375 C 10.984375 26.070313 13.421875 27 16 27 C 21.835938 27 26.640625 22.382813 26.96875 16.625 C 27.308594 16.34375 27.636719 16.0625 27.9375 15.78125 C 29.058594 14.742188 29.910156 13.726563 30.4375 12.6875 C 30.964844 11.648438 31.1875 10.480469 30.71875 9.46875 C 30.1875 8.328125 28.988281 7.710938 27.625 7.4375 C 26.308594 7.175781 24.738281 7.183594 22.9375 7.46875 C 21.027344 5.929688 18.613281 5 16 5 Z M 16 7 C 19.058594 7 21.773438 8.515625 23.4375 10.875 C 23.417969 10.914063 23.429688 10.925781 23.40625 10.96875 C 23.171875 11.378906 22.675781 11.933594 22 12.53125 C 20.644531 13.722656 18.519531 15.074219 16 16.1875 C 13.476563 17.304688 11.039063 18.011719 9.25 18.21875 C 8.417969 18.316406 7.738281 18.277344 7.28125 18.1875 C 7.109375 17.484375 7 16.804688 7 16 C 7 11.046875 11.046875 7 16 7 Z M 25.21875 9.28125 C 26 9.253906 26.703125 9.296875 27.25 9.40625 C 28.261719 9.609375 28.738281 9.953125 28.90625 10.3125 C 29.039063 10.601563 29.023438 11.0625 28.65625 11.78125 C 28.289063 12.5 27.566406 13.378906 26.5625 14.3125 C 24.550781 16.183594 21.402344 18.210938 17.6875 19.875 C 13.976563 21.535156 10.355469 22.511719 7.625 22.75 C 6.257813 22.867188 5.121094 22.804688 4.34375 22.59375 C 3.566406 22.382813 3.242188 22.089844 3.125 21.8125 L 3.125 21.78125 L 3.09375 21.78125 C 2.9375 21.449219 2.988281 20.90625 3.53125 20.03125 C 3.8125 19.578125 4.234375 19.070313 4.75 18.53125 C 4.769531 18.585938 4.789063 18.632813 4.8125 18.6875 C 4.820313 18.691406 4.808594 18.710938 4.8125 18.71875 C 4.816406 18.726563 4.808594 18.742188 4.8125 18.75 C 5.164063 19.523438 5.933594 19.941406 6.71875 20.125 C 7.523438 20.3125 8.425781 20.308594 9.46875 20.1875 C 11.554688 19.945313 14.136719 19.183594 16.8125 18 C 19.492188 16.816406 21.742188 15.414063 23.3125 14.03125 C 24.097656 13.339844 24.71875 12.679688 25.125 11.96875 C 25.503906 11.304688 25.695313 10.503906 25.4375 9.75 C 25.421875 9.734375 25.414063 9.710938 25.40625 9.6875 C 25.394531 9.65625 25.417969 9.625 25.40625 9.59375 L 25.375 9.625 C 25.328125 9.503906 25.28125 9.386719 25.21875 9.28125 Z M 24.6875 18.34375 C 23.648438 22.164063 20.140625 25 16 25 C 14.566406 25 13.164063 24.613281 11.9375 24 C 14.003906 23.480469 16.230469 22.734375 18.5 21.71875 L 18.65625 21.65625 C 20.890625 20.648438 22.933594 19.527344 24.6875 18.34375 Z"/></svg>