<svg fill="#000000" xmlns="http://www.w3.org/2000/svg"  viewBox="0 0 32 32" width="32px" height="32px"><path d="M 13 3.9375 L 6.84375 6 L 4 6 L 4 17 L 6 17 L 6 18.1875 C 4.839844 18.601563 4 19.699219 4 21 L 4 23 L 10 23 L 10 21 C 10 19.699219 9.160156 18.601563 8 18.1875 L 8 17 L 10 17 L 10 7.0625 L 13 6.0625 L 18 7.71875 L 18 11.1875 C 17.6875 11.074219 17.351563 11 17 11 C 15.347656 11 14 12.347656 14 14 C 14 15.652344 15.347656 17 17 17 C 18.371094 17 19.519531 16.070313 19.875 14.8125 L 26 17.625 L 26 19 L 11 19 L 11 21 L 26 21 L 26 22 L 11 22 L 11 24 L 28 24 L 28 16.375 L 20 12.65625 L 20 6.28125 Z M 6 8 L 8 8 L 8 15 L 6 15 Z M 17 13 C 17.550781 13 18 13.449219 18 14 C 18 14.550781 17.550781 15 17 15 C 16.449219 15 16 14.550781 16 14 C 16 13.449219 16.449219 13 17 13 Z M 7 20 C 7.550781 20 8 20.449219 8 21 L 6 21 C 6 20.449219 6.449219 20 7 20 Z M 4 24 C 4 25.300781 5.578125 27.824219 6.0625 28.5625 L 6.375 29 L 7.625 29 L 7.9375 28.5625 C 8.023438 28.4375 10 25.457031 10 24 L 8 24 C 7.988281 24.335938 7.535156 25.304688 7 26.25 C 6.421875 25.234375 6.003906 24.3125 6 24 Z"/></svg>