<svg fill="#000000" xmlns="http://www.w3.org/2000/svg"  viewBox="0 0 30 30" width="30px" height="30px"><path d="M 17.472656 1.9921875 L 7.0214844 2.0429688 C 5.9114844 2.0429688 5.0214844 2.9329687 5.0214844 4.0429688 L 5.0214844 10.503906 C 5.3314844 10.313906 5.6617188 10.132188 6.0117188 9.9921875 C 9.0117188 11.992188 11.011719 13.992187 12.011719 19.992188 C 13.011719 20.992188 14.011719 21.992187 14.011719 23.992188 C 14.011719 25.072187 13.151328 26.723437 12.361328 28.023438 L 22.972656 27.992188 C 24.072656 27.992188 24.972656 27.092187 24.972656 25.992188 L 24.972656 9.4921875 C 24.972656 9.2221875 24.861641 8.9732031 24.681641 8.7832031 L 18.181641 2.2832031 C 17.991641 2.1032031 17.732656 1.9921875 17.472656 1.9921875 z M 16.972656 3.8925781 L 23.0625 9.9921875 L 17.972656 9.9921875 C 17.422656 9.9921875 16.972656 9.5421875 16.972656 8.9921875 L 16.972656 3.8925781 z M 6.0019531 11.992188 C 6.0019531 11.992188 2.0019531 14.662109 2.0019531 20.662109 C 2.0019531 20.772109 2.0117188 20.872422 2.0117188 20.982422 C 1.3217188 21.542422 0.011953125 22.723594 0.001953125 23.683594 L 0.001953125 23.732422 C 0.031953125 24.952422 1.2128906 27.332031 1.2128906 27.332031 L 3.4121094 24.582031 L 4.0019531 25.992188 L 8.0019531 25.992188 L 8.5917969 24.582031 L 10.792969 27.332031 C 10.792969 27.332031 12.001953 24.903359 12.001953 23.693359 C 12.001953 22.733359 10.682188 21.542422 9.9921875 20.982422 C 9.9921875 20.872422 10.001953 20.772109 10.001953 20.662109 C 10.001953 14.662109 6.0019531 11.992188 6.0019531 11.992188 z M 6.0019531 16.662109 C 6.7419531 16.662109 7.3320313 17.262188 7.3320312 17.992188 C 7.3320312 18.732188 6.7419531 19.332031 6.0019531 19.332031 C 5.2619531 19.332031 4.671875 18.732187 4.671875 17.992188 C 4.671875 17.262187 5.2619531 16.662109 6.0019531 16.662109 z M 4.1328125 27.992188 C 4.5728125 29.052187 6.0019531 30.003906 6.0019531 30.003906 C 6.0019531 30.003906 7.4410938 29.062188 7.8710938 27.992188 L 4.1328125 27.992188 z"/></svg>