<?xml version="1.0"?><svg fill="#000000" xmlns="http://www.w3.org/2000/svg"  viewBox="0 0 30 30" width="30px" height="30px">    <path d="M 17.728516 2.9882812 A 1.0001 1.0001 0 0 0 16.916016 3.4472656 C 16.916016 3.4472656 16.320826 4.3858319 15.792969 6 L 9 6 A 1.0001 1.0001 0 0 0 7.9863281 7 L 7 7 A 2 2 0 0 0 5.0351562 8.6230469 L 4.1621094 11.212891 A 2 2 0 0 0 4 12 A 2 2 0 0 0 4.5644531 13.392578 C 4.5867569 13.417602 6 15.007851 6 16 C 6 17.614 4 18.953 4 21 C 4 22.594 4.1586094 23.711469 4.3496094 24.480469 C 4.5706094 25.370469 5.3573906 26 6.2753906 26 L 9.6289062 26 C 10.491906 26 11.269203 25.450906 11.533203 24.628906 C 11.771203 23.882906 12 22.928 12 22 C 12 19.065 11.715219 18.54975 11.449219 17.46875 C 11.393964 17.244333 11.391614 17.023629 11.412109 16.808594 A 1.0003905 1.0003905 0 0 0 12.800781 15.400391 L 12.623047 15.164062 C 12.859738 15.064703 13.116267 15 13.392578 15 L 15.503906 15 C 16.072193 17.238043 16.917969 18.554688 16.917969 18.554688 A 1.0001 1.0001 0 1 0 18.582031 17.445312 C 18.582031 17.445312 17 15.10978 17 11.007812 C 17 6.9058459 18.583984 4.5527344 18.583984 4.5527344 A 1.0001 1.0001 0 0 0 17.728516 2.9882812 z M 20.978516 5.9882812 A 1.0001 1.0001 0 0 0 20.166016 6.4472656 C 20.166016 6.4472656 19 8.2408124 19 11.003906 C 19 13.767 20.167969 15.554687 20.167969 15.554688 A 1.0001 1.0001 0 1 0 21.832031 14.445312 C 21.832031 14.445312 21 13.232812 21 11.003906 C 21 8.7750005 21.833984 7.5527344 21.833984 7.5527344 A 1.0001 1.0001 0 0 0 20.978516 5.9882812 z M 27 9 A 2 2 0 0 0 25.269531 10 L 23.123047 10 C 23.054047 10.267 23 10.602953 23 11.001953 C 23 11.399953 23.053094 11.734 23.121094 12 L 25.271484 12 A 2 2 0 0 0 27 13 A 2 2 0 0 0 29 11 A 2 2 0 0 0 27 9 z"/></svg>