<svg fill="#000000" xmlns="http://www.w3.org/2000/svg"  viewBox="0 0 32 32" width="32px" height="32px"><path d="M 15.59375 3 L 15.3125 3.2402344 C 15.3125 3.2402344 11.998047 6.0986024 11.998047 11 L 11.998047 16 L 10 16 L 10 18 L 6 18 L 6 8 L 4 8 L 4 15 L 3 15 L 3 26 L 5 26 L 6 26 L 6 24.427734 L 10 25.882812 L 10 29 L 12 29 L 12 26.609375 L 13 26.972656 L 13 29 L 15 29 L 15 27.701172 L 16 28.064453 L 17 27.701172 L 17 29 L 19 29 L 19 26.972656 L 20 26.609375 L 20 29 L 22 29 L 22 25.882812 L 26 24.427734 L 26 26 L 27 26 L 28 26 L 29 26 L 29 15 L 28 15 L 28 8 L 26 8 L 26 18 L 22 18 L 22 16 L 20 16 L 20 11 C 20 6.0977051 16.679688 3.2402344 16.679688 3.2402344 L 16.398438 3 L 15.59375 3 z M 15.998047 5.5214844 C 16.720129 6.3055854 18 7.9333679 18 11 L 18 16 L 17 16 L 17 12 L 15 12 L 15 16 L 13.998047 16 L 13.998047 11 C 13.998047 7.9320548 15.277591 6.3052085 15.998047 5.5214844 z M 12 18 L 20 18 L 20 22 L 22 22 L 22 20 L 26 20 L 26 22.300781 L 16 25.935547 L 6 22.300781 L 6 20 L 10 20 L 10 22 L 12 22 L 12 18 z M 13 19 C 13 20.657 14.343 22 16 22 C 17.657 22 19 20.657 19 19 L 17 19 C 17 19.552 16.552 20 16 20 C 15.448 20 15 19.552 15 19 L 13 19 z"/></svg>