<?xml version="1.0"?><svg fill="#000000" xmlns="http://www.w3.org/2000/svg"  viewBox="0 0 30 30" width="30px" height="30px">    <path d="M 4 3 C 3.448 3 3 3.448 3 4 L 3 10.091797 C 2.4187503 10.298487 2 10.848122 2 11.5 C 2 12.328 2.672 13 3.5 13 L 5 13 L 5 17 L 3.5 17 C 2.672 17 2 17.672 2 18.5 C 2 19.151878 2.4187503 19.701513 3 19.908203 L 3 26 C 3 26.552 3.448 27 4 27 L 5.6679688 27 C 6.5329688 27 7.3744062 26.718219 8.0664062 26.199219 L 15 21 L 9 21 L 12 19 L 23 19 C 25.056757 19 27.839889 16.67608 28.363281 16.224609 A 1.5 1.5 0 0 0 28.560547 16.058594 A 1.5 1.5 0 0 0 28.568359 16.052734 L 28.568359 16.050781 A 1.5 1.5 0 0 0 29 15 A 1.5 1.5 0 0 0 28.457031 13.845703 C 28.457031 13.845703 25.267 11 23 11 L 12 11 L 9 9 L 15 9 L 8.0664062 3.8007812 C 7.3734062 3.2817813 6.5329688 3 5.6679688 3 L 4 3 z M 24 13 L 25.105469 13.552734 C 25.653469 13.826734 26 14.387 26 15 C 26 15.613 25.653469 16.173266 25.105469 16.447266 L 24 17 L 24 13 z"/></svg>