<svg fill="#000000" xmlns="http://www.w3.org/2000/svg"  viewBox="0 0 30 30" width="30px" height="30px"><path d="M24,4H6C4.895,4,4,4.895,4,6v18c0,1.105,0.895,2,2,2h18c1.105,0,2-0.895,2-2V6C26,4.895,25.105,4,24,4z M11,7	c0.552,0,1,0.448,1,1c0,0.552-0.448,1-1,1s-1-0.448-1-1C10,7.448,10.448,7,11,7z M12.667,20.667L11.5,23l-1.167-2.333L8,19.5	l2.333-1.167L11.5,16l1.167,2.333L15,19.5L12.667,20.667z M17.667,14.667L17,16l-0.667-1.333L15,14l1.333-0.667L17,12l0.667,1.333	L19,14L17.667,14.667z M20,10c0-0.552,0.448-1,1-1s1,0.448,1,1c0,0.552-0.448,1-1,1S20,10.552,20,10z M22,21c-0.552,0-1-0.448-1-1	c0-0.552,0.448-1,1-1s1,0.448,1,1C23,20.552,22.552,21,22,21z"/></svg>