<?xml version="1.0" encoding="UTF-8"?>
<svg xmlns="http://www.w3.org/2000/svg" viewBox="0 0 1000 1000" width="1000" height="1000">
  <metadata>
    <rdf:RDF xmlns:rdf="http://www.w3.org/1999/02/22-rdf-syntax-ns#"
             xmlns:dc="http://purl.org/dc/elements/1.1/">
      <rdf:Description>
        <dc:creator>TPV Studio Vectorization Pipeline</dc:creator>
        <dc:date>2025-11-10T17:02:59.171Z</dc:date>
        <dc:description>Installer-ready playground surface design</dc:description>
        <dc:identifier>Job 13ce705e-ecfd-4a56-840f-1be1bdd764e3</dc:identifier>
        <dc:format>Surface: 5000mm × 5000mm</dc:format>
      </rdf:Description>
    </rdf:RDF>
  </metadata>
  <title>TPV Playground Surface Design</title>
  <desc>Vector design for thermoplastic installation</desc>

  <!-- Background Layer -->
  <rect width="1000" height="1000" fill="#120101" />

  <!-- Color Group 1: #120101 (2 regions) -->
  <g id="color-group-1" fill="#120101" stroke="none">
    <polygon id="region-1-1" points="0.00,0.00 330.06,0.06 752.50,628.00 772.00,523.50 823.50,443.00 863.60,408.50 901.50,388.00 952.50,372.00 1000.00,369.00 1000.00,1000.00 379.00,1000.00 453.48,916.58 457.14,892.24 494.32,853.22 505.17,825.27 537.00,793.50 595.84,704.74 614.00,619.50 610.00,556.50 596.00,504.50 545.41,416.89 471.50,352.00 389.50,315.00 288.50,302.00 192.50,320.00 114.82,361.32 49.00,424.50 0.50,514.00 0.00,0.00" />
    <polygon id="region-1-2" points="8.50,729.00 390.50,729.00 393.00,735.50 384.00,774.50 371.80,803.30 355.00,829.50 335.58,852.48 306.50,876.00 279.50,891.00 239.50,904.00 204.50,907.00 148.70,899.84 113.38,881.72 81.50,860.00 51.69,829.41 32.53,801.97 9.00,753.50 5.00,732.50 8.50,729.00" />
  </g>

  <!-- Color Group 2: #000608 (3 regions) -->
  <g id="color-group-2" fill="#000608" stroke="none">
    <polygon id="region-2-1" points="332.00,0.00 907.94,0.40 865.13,29.43 837.16,71.26 828.00,113.50 833.11,158.59 853.81,201.49 896.50,239.00 945.50,256.00 986.38,253.00 1000.00,280.88 1000.00,338.63 984.38,369.13 937.50,374.00 887.50,392.00 847.00,419.00 820.00,445.00 802.18,463.88 772.00,517.50 759.00,557.50 752.50,628.00 510.68,266.22 504.00,255.50 506.87,248.29 505.91,246.69 500.18,249.12 332.00,0.00 837.84,48.36 822.84,77.55 819.88,86.96 823.96,86.32 826.50,87.00 827.50,89.00 827.50,89.00 826.00,86.00 446.52,149.64 819.00,150.00 819.24,156.36 819.66,156.33 820.68,149.88 445.76,158.04 850.00,212.00 850.75,221.00 856.09,224.86 866.27,226.58 787.77,243.83 537.00,293.00 574.68,352.96 931.68,371.72 603.00,390.00 792.00,400.50 850.18,407.87 840.54,415.61 836.29,420.36 837.43,422.12 837.75,422.00 837.25,420.00 783.00,420.00 675.00,422.00 623.11,426.36 627.33,433.08 629.58,435.33 629.86,433.11 678.04,433.06 774.12,435.18 776.12,439.43 684.04,445.81 677.25,452.75 755.75,460.25 794.98,465.74 794.94,469.22 795.36,469.40 796.24,466.28 765.01,472.29 701.67,487.43 672.11,496.36 676.33,499.08 678.43,499.20 678.41,496.72 700.80,495.86 768.00,497.00 773.25,500.00 774.46,501.78 773.38,503.34 773.74,503.70 775.54,502.86 752.47,504.44 704.53,508.44 690.17,519.83 709.39,538.61 718.50,549.06 717.50,551.18 717.78,551.46 719.34,549.90 718.34,551.84 714.78,557.28 718.50,567.50 735.00,590.00" />
    <polygon id="region-2-2" points="197.50,416.00 215.47,439.03 376.00,695.50 390.97,720.13 391.74,726.78 386.05,728.53 374.13,727.59 368.51,726.34 369.17,724.78 373.63,723.63 381.88,722.88 385.98,721.85 385.95,720.55 384.95,719.93 382.98,719.98 381.00,716.38 378.00,705.50 363.18,687.12 358.00,673.50 348.00,663.50 347.00,656.50 333.18,639.12 319.62,612.88 315.18,610.12 305.82,590.08 298.45,588.52 296.75,586.63 299.00,582.50 288.56,564.14 282.30,559.20 281.70,552.80 278.55,551.23 276.38,551.53 274.13,553.18 273.77,551.61 276.07,544.43 245.00,494.50 239.50,487.00 229.38,481.38 226.18,478.48 226.54,476.44 227.66,475.56 229.56,475.86 230.63,475.38 231.00,473.50 224.00,467.00 214.48,445.42 213.00,443.61 211.88,443.58 210.64,444.74 211.27,448.66 215.02,458.67 215.01,461.92 214.12,462.82 212.36,462.46 211.61,460.09 212.00,453.50 205.22,447.48 202.00,433.00 199.00,431.88 198.09,430.35 198.27,428.04 199.27,428.42 201.09,431.47 202.75,432.63 204.25,431.88 204.50,430.00 203.00,425.50 199.12,423.82 195.28,426.58 194.25,429.88 194.75,434.63 194.00,436.78 192.00,436.33 190.50,436.95 189.00,439.50 191.25,445.50 191.00,447.44 189.02,447.31 188.16,451.50 188.44,460.02 187.29,464.33 184.71,464.43 183.81,462.49 185.00,456.50 184.25,453.88 183.30,453.16 181.89,453.50 180.88,455.92 179.96,462.70 173.62,472.68 171.13,475.13 170.00,472.50 173.87,464.83 174.24,462.21 172.39,462.08 166.10,470.89 150.00,497.50 149.50,503.00 146.26,505.16 146.56,506.36 149.32,507.32 150.67,508.67 150.58,511.28 143.86,514.96 140.74,513.85 140.17,516.18 141.11,521.58 139.69,523.96 135.90,523.32 132.70,525.73 128.82,533.92 125.37,535.87 124.30,540.75 124.56,553.46 126.87,557.69 126.86,559.22 125.30,559.46 123.27,557.69 120.75,553.89 118.46,552.36 116.38,553.08 115.50,554.96 115.84,557.99 113.86,560.81 107.42,564.72 101.00,574.50 102.50,577.50 101.25,580.50 97.75,584.50 96.75,587.88 98.25,590.63 96.75,591.63 92.25,590.88 87.25,595.25 79.00,609.50 80.50,617.00 79.63,620.63 75.50,624.00 69.00,624.50 53.00,649.50 54.10,655.40 52.35,658.40 46.00,661.50 32.82,684.92 28.45,688.36 27.50,692.38 28.50,698.13 27.25,700.00 23.75,698.00 21.75,702.00 21.00,717.00 12.50,725.00 8.38,724.25 7.30,725.42 7.90,728.28 6.40,728.90 1.00,726.50 197.50,416.00 224.97,464.12 233.34,479.12 231.78,477.04 192.25,511.00 76.00,616.00 74.50,617.50 74.50,618.50 75.50,619.50 76.00,619.00 76.00,616.00" />
    <polygon id="region-2-3" points="128.00,889.00 156.51,904.59 189.50,918.00 224.50,928.00 273.50,935.00 317.50,935.00 367.50,928.00 407.50,916.00 448.16,896.06 456.00,898.50 459.00,908.50 427.00,949.50 379.00,997.50 379.00,999.38 378.21,1000.09 375.83,1000.36 373.71,998.96 373.25,997.88 374.00,996.00 383.41,989.11 389.50,980.00 393.04,979.34 396.00,973.00 419.00,952.50 419.50,949.85 420.92,948.52 423.44,947.64 424.94,945.79 425.41,942.95 426.80,941.80 429.12,942.32 433.59,937.44 443.50,922.00 450.02,918.12 452.26,912.41 451.22,909.77 447.65,908.31 447.10,906.46 449.58,904.23 450.61,902.62 450.19,901.62 444.74,903.34 434.25,907.78 429.74,910.80 431.20,912.40 431.58,913.65 430.86,914.55 428.75,914.50 423.50,913.00 419.50,916.00 413.92,915.82 411.20,919.18 398.00,922.00 396.13,925.00 393.75,925.75 390.25,925.25 388.11,925.66 387.33,926.98 385.33,927.48 380.50,927.00 374.50,931.00 364.50,931.00 361.50,935.00 348.50,934.00 304.50,939.00 303.00,940.50 300.60,940.45 294.89,938.81 288.78,940.68 240.50,934.00 234.82,935.52 229.50,931.00 216.50,931.00 203.16,924.94 196.50,926.00 191.67,920.43 180.50,917.00 176.50,919.00 163.24,910.96 157.74,908.96 155.58,910.32 153.50,909.25 151.50,905.75 149.07,904.68 146.23,906.03 144.85,905.28 144.95,902.43 142.61,900.70 135.43,899.79 128.00,889.00" />
  </g>

  <!-- Color Group 3: #180f00 (2 regions) -->
  <g id="color-group-3" fill="#180f00" stroke="none">
    <polygon id="region-3-1" points="288.50,302.00 343.50,305.00 404.50,320.00 466.50,349.00 513.50,384.00 555.04,429.66 586.00,480.50 608.00,545.50 614.00,600.50 607.00,670.50 586.64,722.34 537.00,793.50 505.17,825.27 495.62,850.72 455.50,898.00 445.50,897.00 383.50,924.00 317.50,935.00 273.50,935.00 224.50,928.00 168.63,907.38 163.63,902.13 204.50,907.00 239.50,904.00 279.50,891.00 306.50,876.00 336.00,851.50 362.00,819.50 383.61,775.71 393.32,734.22 392.00,722.50 376.00,695.50 198.50,416.00 1.00,725.50 7.00,730.50 9.25,745.50 7.50,748.00 0.00,740.50 0.00,514.50 40.71,435.81 85.78,383.68 146.50,341.00 225.46,310.16 288.50,302.00" />
    <polygon id="region-3-2" points="908.50,0.00 1000.00,0.00 999.62,189.00 995.00,253.00 981.50,256.00 945.50,256.00 923.50,251.00 896.50,239.00 876.84,225.46 857.92,206.78 843.82,185.48 833.00,159.50 829.00,141.50 828.00,113.50 830.00,96.50 839.18,67.28 856.59,38.89 872.50,23.00 885.50,13.00 908.50,0.00" />
  </g>

  <!-- Color Group 4: #01060a (4 regions) -->
  <g id="color-group-4" fill="#01060a" stroke="none">
    <polygon id="region-4-1" points="197.50,424.00 203.00,425.50 205.00,431.50 202.00,436.50 205.00,446.50 211.57,452.13 211.22,459.53 212.22,462.01 214.47,462.02 215.20,459.15 214.00,450.50 211.00,447.50 210.40,445.67 211.20,444.01 212.20,443.51 214.00,444.50 222.64,459.06 224.00,467.00 228.26,468.62 232.56,475.28 233.63,478.13 232.88,479.38 231.25,478.75 228.75,476.25 227.17,476.23 226.51,478.69 229.74,481.81 240.43,487.47 275.21,542.89 277.00,547.50 273.85,552.15 273.85,553.02 277.00,551.00 280.32,552.02 281.55,553.86 281.94,558.36 286.70,560.80 298.49,580.81 296.40,585.90 298.20,588.15 305.70,589.80 315.06,609.64 319.32,611.78 333.00,638.50 347.00,656.50 348.00,663.50 358.00,673.50 363.00,686.50 378.00,705.50 381.00,716.38 382.78,719.85 384.35,719.55 385.35,720.18 385.78,721.73 381.88,722.88 373.63,723.63 369.23,724.87 368.69,726.61 372.31,727.74 380.11,728.25 327.75,728.63 215.25,728.88 159.50,727.75 160.50,725.25 157.88,724.00 148.50,724.00 146.76,725.59 148.26,726.84 152.42,728.28 118.13,729.00 45.38,729.00 8.48,727.99 7.44,725.96 8.31,724.96 12.50,725.00 21.48,716.32 21.87,701.83 23.75,698.00 27.25,700.00 28.50,698.13 27.50,692.38 28.50,688.25 33.00,684.50 46.26,661.16 52.41,658.31 54.10,655.39 53.00,649.50 58.60,638.70 68.52,628.82 68.88,625.58 70.63,624.38 75.50,624.00 79.63,620.63 80.50,617.00 79.50,612.00 79.86,608.99 82.44,607.46 88.11,594.74 92.25,590.88 96.75,591.63 98.25,590.38 96.75,587.13 97.59,584.11 100.77,581.32 102.02,578.57 101.00,574.50 106.70,565.40 113.67,560.97 115.84,557.99 115.51,554.96 116.38,553.08 118.46,552.36 121.00,554.00 124.00,558.00 126.08,559.78 127.24,559.34 127.06,557.98 124.76,554.54 123.86,537.76 128.82,534.12 132.70,525.78 135.90,523.37 139.69,524.11 141.11,521.73 140.17,516.23 140.74,513.85 143.86,514.96 148.90,512.20 150.49,510.29 150.30,508.30 148.92,507.03 146.34,506.48 146.00,505.68 148.82,504.12 150.00,497.50 163.82,479.12 170.00,464.50 173.98,462.25 173.98,464.25 170.00,472.50 171.35,475.08 173.06,474.49 176.82,470.12 179.00,457.50 181.63,454.13 183.13,453.97 185.04,456.86 183.51,461.84 184.38,463.68 187.14,464.04 188.39,459.92 188.13,451.31 189.04,446.97 191.12,446.89 191.37,445.02 189.00,439.50 190.88,436.88 192.38,436.25 194.13,436.75 194.50,435.38 193.00,430.50 196.38,425.63 197.69,425.89 198.06,429.67 199.34,431.77 201.54,432.19 201.48,431.05 199.16,428.35 187.00,446.25 165.00,484.75 154.64,504.24 155.92,504.72 156.42,503.97 156.14,501.99 178.25,502.25 222.75,504.75 244.56,507.22 243.68,509.66 244.16,511.00 246.00,511.24 246.62,510.15 246.02,507.73 249.29,511.64 256.43,521.88 259.58,527.82 258.74,529.46 259.16,530.37 260.84,530.55 261.80,529.88 262.04,528.36 261.62,527.45 260.54,527.15 261.50,529.75 264.50,535.25 265.61,538.60 264.83,539.80 265.56,540.64 267.80,541.12 268.19,540.52 266.00,538.00 260.00,538.75 257.86,539.86 257.58,541.58 257.75,541.52 258.37,539.68 221.01,546.82 108.00,571.00 106.50,574.00 107.00,574.75 109.00,574.25 109.50,573.25 108.50,571.75 106.24,576.33 100.96,592.32 91.54,603.48 89.28,607.24 91.04,607.32 91.69,606.27 91.23,604.09 145.50,603.00 254.50,603.00 308.50,604.25 307.50,606.75 307.75,607.75 309.25,607.25 309.75,606.00 309.25,604.00 250.25,609.50 74.00,629.00 72.50,631.82 72.99,632.62 74.97,632.34 75.64,631.34 75.00,629.62 136.76,629.82 260.92,631.94 322.94,634.23 322.82,636.69 323.80,638.28 325.88,639.00 326.20,637.71 324.76,634.41 260.28,633.57 69.00,636.00 66.27,637.20 65.71,638.27 66.41,639.61 67.32,639.21 68.44,637.07 71.75,636.75 77.25,638.25 75.25,641.50 65.75,646.50 61.67,648.19 63.68,645.76 270.92,654.94 340.06,659.14 340.18,661.42 341.16,662.76 343.00,663.16 343.20,661.96 341.04,657.76 47.00,670.00 45.08,671.20 44.83,672.20 45.61,673.40 46.72,673.68 48.16,673.04 48.67,671.98 48.25,670.50 46.03,673.01 42.01,679.51 40.75,682.82 42.25,682.94 42.85,682.46 42.55,681.38 124.80,688.13 372.00,710.00 372.72,711.68 372.98,711.62 373.02,710.38 373.28,711.57 373.76,715.19 289.00,718.00 34.00,721.00 30.20,723.96 20.30,723.99 17.00,724.75 17.00,726.25 25.44,726.79 42.32,726.37 50.82,725.62 50.94,724.54 46.75,723.25 38.25,721.75 42.25,721.50 58.75,722.50 65.79,723.31 63.37,723.93 62.87,724.93 65.00,727.00 76.25,726.25 79.30,725.26 77.20,723.04 67.00,723.00 55.75,723.75 52.25,724.50 52.75,725.50 54.62,725.58 57.86,724.74 57.61,724.24 53.87,724.08 54.25,724.00 58.75,724.00 60.91,724.62 60.73,725.86 60.73,725.86 60.91,724.62 74.50,724.00 101.50,724.00 114.91,724.62 114.73,725.86 114.73,725.86 114.91,724.62 115.41,724.62 116.23,725.86 116.73,725.86 116.91,724.62 117.41,724.62 118.23,725.86 118.73,725.86 118.91,724.62 119.41,724.62 120.23,725.86 120.73,725.86 120.91,724.62 121.41,724.62 122.23,725.86 122.73,725.86 122.91,724.62 123.85,724.58 125.55,725.74 126.05,725.74 125.35,724.58 134.50,724.00 153.50,724.00 162.91,724.62 162.73,725.86 162.73,725.86 162.91,724.62 163.41,724.62 164.23,725.86 164.73,725.86 164.91,724.62 165.41,724.62 166.23,725.86 166.73,725.86 166.91,724.62 167.41,724.62 168.23,725.86 168.73,725.86 168.91,724.62 169.41,724.62 170.23,725.86 170.73,725.86 170.91,724.62 171.41,724.62 172.23,725.86 172.73,725.86 172.91,724.62 189.50,724.50 222.50,725.50 239.00,725.50 239.00,724.50 235.50,724.00 225.00,724.00" />
    <polygon id="region-4-2" points="0.50,752.00 10.50,763.00 15.24,763.86 20.31,776.34 21.05,781.16 19.14,782.47 19.89,783.72 25.00,785.50 47.00,823.50 81.50,860.00 123.50,886.00 136.50,900.00 142.88,900.75 144.98,902.41 144.93,905.23 146.46,906.02 149.58,904.78 151.98,905.87 153.66,909.29 155.50,910.25 157.50,908.75 162.52,910.48 174.57,917.93 191.61,920.49 195.88,925.82 229.50,931.00 232.50,935.00 302.50,941.00 349.30,933.80 361.50,935.00 364.50,931.00 395.50,926.00 398.00,922.00 413.50,916.00 425.14,912.84 429.16,914.46 430.13,913.75 429.38,911.25 434.13,907.75 444.38,903.25 448.55,902.87 446.65,906.62 447.53,909.00 451.18,910.00 447.32,918.52 430.28,942.58 426.32,942.52 423.25,945.60 417.98,954.88 388.30,980.80 373.50,1000.00 0.00,1000.00 0.00,774.50 2.25,770.00 2.11,767.76 -0.56,765.54 0.23,755.38 1.63,755.50 3.88,762.50 4.50,766.50 3.50,767.50 3.50,767.50 4.50,766.50 7.86,769.11 13.58,775.33 16.83,777.36 17.61,775.20 17.25,774.09 15.75,774.03 15.75,783.25 17.25,801.75 18.02,809.71 18.06,807.13 22.56,808.38 36.00,816.00 36.30,818.46 36.74,818.42 37.42,816.70 38.35,818.22 39.53,822.98 41.00,825.44 42.76,825.60 43.45,824.82 43.07,823.10 46.64,827.47 57.92,843.16 60.35,843.61 60.80,842.72 60.08,840.64 58.79,839.45 56.93,839.15 58.00,841.25 62.00,845.75 64.30,847.47 64.90,846.41 69.40,849.91 77.80,857.97 81.50,862.78 80.50,864.34 80.75,865.09 82.25,865.03 82.75,864.25 82.25,862.75 87.25,866.44 97.75,875.32 103.60,879.28 104.80,878.32 107.05,879.13 110.35,881.71 111.61,883.58 110.83,884.74 111.11,884.70 112.45,883.46 114.90,884.42 118.46,887.58 120.44,888.56 121.04,886.76 358.76,904.94 437.31,911.60 435.93,912.80 435.95,913.87 437.37,914.81 438.50,914.21 439.34,912.07 375.32,913.50 246.44,918.50 182.98,922.08 184.94,924.24 184.94,924.24 182.98,922.08 237.03,921.46 347.09,922.38 359.59,927.13 274.53,935.71 232.24,940.56 232.72,941.68 232.72,941.68 232.00,940.00" />
    <polygon id="region-4-3" points="484.50,226.00 497.25,244.00 502.08,249.78 503.82,249.12 504.56,246.26 505.56,245.45 507.06,245.74 507.87,246.53 508.00,248.50 504.00,252.50 504.00,255.50 510.00,261.50 510.54,265.76 514.82,267.88 515.26,271.77 507.55,261.63 484.00,227.34 484.50,226.00" />
    <polygon id="region-4-4" points="539.50,308.00 543.04,308.66 548.00,319.50 559.00,332.50 559.00,334.50 563.53,340.17 564.33,344.53 560.70,340.36 549.00,323.50 549.00,321.50 541.00,312.50 539.50,308.00" />
  </g>
</svg>