<?xml version="1.0" encoding="UTF-8"?><svg id="a" xmlns="http://www.w3.org/2000/svg" viewBox="0 0 610.43 815.88"><defs><style>.b{fill:#fff;}.c{fill:#a59c99;}.d{fill:#9ad6f5;}.e{fill:none;}</style></defs><g><path class="e" d="M183.4,79.53c-1.46,5.53-2.99,10.78-4.73,16.09l-2.26,7.28h14.35l-2.26-7.28c-1.75-5.31-3.28-10.56-4.81-16.09h-.29Z"/><path class="e" d="M178.23,21.07c-3.79,0-7.08,2.55-7.9,7.74h14.74c0-4.53-1.98-7.74-6.83-7.74Z"/><path class="e" d="M220.88,21.07c-3.79,0-7.08,2.55-7.9,7.74h14.73c0-4.53-1.98-7.74-6.83-7.74Z"/><path class="e" d="M251.85,118.41c3.42,0,6.19-1.67,9.61-4.73v-9.83c-11.8,1.46-15.87,4.37-15.87,8.88,0,4.01,2.77,5.68,6.26,5.68Z"/><path class="e" d="M332.47,90.81c-4.95,0-9.47,4-10.19,11h18.93c0-7.14-3.2-11-8.74-11Z"/><path class="e" d="M343.12,44.86c4.94,0,7.49-4.53,7.49-11.61s-2.55-11.61-7.49-11.61-7.49,4.53-7.49,11.61,2.47,11.61,7.49,11.61Z"/><path class="e" d="M282.29,104.65c0,8.45,3.57,13.54,9.76,13.54,3.28,0,6.12-1.6,9.03-4.88v-18.5c-2.99-2.69-5.68-3.71-8.59-3.71-5.68,0-10.19,5.46-10.19,13.54Z"/><polygon class="d" points="153.87 43.46 132.63 43.46 132.63 0 120.53 0 120.53 53.67 153.87 53.67 153.87 43.46"/><path class="d" d="M179.39,54.66c4.86,0,10.29-1.73,14.49-4.61l-4.03-7.33c-2.96,1.81-5.76,2.72-8.81,2.72-5.43,0-9.55-2.72-10.62-8.64h24.45c.25-.99,.49-3.21,.49-5.35,0-11.11-5.76-19.59-17.37-19.59-9.8,0-19.26,8.15-19.26,21.4s8.97,21.4,20.66,21.4Zm-1.15-33.59c4.86,0,6.83,3.21,6.83,7.74h-14.74c.82-5.19,4.12-7.74,7.9-7.74Z"/><path class="d" d="M222.03,54.66c4.86,0,10.29-1.73,14.49-4.61l-4.03-7.33c-2.96,1.81-5.76,2.72-8.81,2.72-5.43,0-9.55-2.72-10.62-8.64h24.45c.25-.99,.49-3.21,.49-5.35,0-11.11-5.76-19.59-17.37-19.59-9.8,0-19.26,8.15-19.26,21.4s8.97,21.4,20.66,21.4Zm-1.15-33.59c4.86,0,6.83,3.21,6.83,7.74h-14.73c.82-5.19,4.12-7.74,7.9-7.74Z"/><path class="d" d="M274.71,34c0-5.27-.99-13.09-1.56-18.27h.33l4.28,12.76,7.65,20.5h6.67l7.66-20.5,4.36-12.76h.33c-.58,5.19-1.56,13.01-1.56,18.27v19.67h11.03V0h-13.17l-8.48,23.87c-1.07,3.13-1.98,6.59-3.05,9.88h-.33c-1.07-3.29-2.06-6.75-3.13-9.88L277.1,0h-13.25V53.67h10.87v-19.67Z"/><path class="d" d="M343.12,54.66c10.29,0,19.84-7.82,19.84-21.4s-9.55-21.4-19.84-21.4-19.92,7.82-19.92,21.4,9.55,21.4,19.92,21.4Zm0-33.01c4.94,0,7.49,4.53,7.49,11.61s-2.55,11.61-7.49,11.61-7.49-4.53-7.49-11.61,2.47-11.61,7.49-11.61Z"/><path class="d" d="M383.54,54.66c5.6,0,9.38-2.55,12.84-6.67h.25l.91,5.68h9.88V12.84h-12.1v27c-2.39,3.21-4.2,4.53-7.24,4.53-3.54,0-5.1-1.89-5.1-7.74V12.84h-12.1v25.35c0,10.21,3.79,16.46,12.68,16.46Z"/><path class="d" d="M430.13,26.09c2.64-2.55,4.53-3.95,7.57-3.95,3.46,0,5.02,1.81,5.02,7.74v23.79h12.1V28.32c0-10.21-3.79-16.46-12.68-16.46-5.51,0-9.63,2.88-13.09,6.17h-.33l-.82-5.19h-9.88V53.67h12.1V26.09Z"/><path class="d" d="M466.77,38.85c0,9.47,3.95,15.81,14.08,15.81,3.95,0,6.91-.82,9.06-1.48l-1.89-8.81c-1.07,.41-2.55,.82-3.87,.82-3.21,0-5.27-1.89-5.27-6.5V22.31h9.8V12.84h-9.8V1.98h-10.04l-1.4,10.86-6.26,.49v8.97h5.6v16.55Z"/><path class="d" d="M180.26,74.58l-16.17,47.77h6.19l4.59-14.56h17.4l4.52,14.56h6.48l-16.17-47.77h-6.85Zm10.49,28.33h-14.35l2.26-7.28c1.75-5.31,3.28-10.56,4.73-16.09h.29c1.53,5.53,3.06,10.78,4.81,16.09l2.26,7.28Z"/><path class="d" d="M224.1,91.03c2.84,0,5.02,1.31,7.06,3.13l3.06-3.93c-2.48-2.26-5.68-4.15-10.34-4.15-9.1,0-17.04,6.77-17.04,18.64s7.21,18.5,16.6,18.5c4.22,0,8.23-1.67,11.43-4.51l-2.62-4c-2.18,1.97-5.02,3.57-8.3,3.57-6.48,0-10.92-5.46-10.92-13.55s4.66-13.69,11.07-13.69Z"/><path class="d" d="M239.76,113.17c0,6.33,4.44,10.05,10.34,10.05,4.44,0,8.37-2.33,11.72-5.1h.22l.51,4.22h4.95v-21.7c0-8.81-3.64-14.56-12.31-14.56-5.68,0-10.63,2.48-13.91,4.59l2.33,4.15c2.77-1.89,6.48-3.79,10.56-3.79,5.83,0,7.28,4.37,7.28,8.88-15.07,1.68-21.7,5.53-21.7,13.25Zm21.7-9.32v9.83c-3.42,3.06-6.19,4.73-9.61,4.73s-6.26-1.67-6.26-5.68c0-4.51,4.08-7.43,15.87-8.88Z"/><path class="d" d="M276.1,104.72c0,11.8,5.75,18.5,14.64,18.5,4.15,0,7.94-2.33,10.7-5.02h.22l.51,4.15h4.95v-51.85h-6.04v13.62l.29,6.04c-3.13-2.55-5.83-4.08-9.91-4.08-8.08,0-15.36,7.14-15.36,18.64Zm24.98-9.9v18.5c-2.91,3.28-5.75,4.88-9.03,4.88-6.19,0-9.76-5.1-9.76-13.54s4.52-13.54,10.19-13.54c2.91,0,5.61,1.02,8.59,3.71Z"/><path class="d" d="M333.42,123.22c4.8,0,8.59-1.68,11.65-3.64l-2.11-3.93c-2.62,1.67-5.46,2.77-8.81,2.77-6.77,0-11.36-4.81-11.8-12.31h23.89c.15-.87,.22-2.18,.22-3.42,0-10.12-5.1-16.6-14.13-16.6-8.08,0-15.88,7.06-15.88,18.64s7.5,18.5,16.97,18.5Zm-.95-32.41c5.53,0,8.74,3.86,8.74,11h-18.93c.73-6.99,5.24-11,10.19-11Z"/><path class="d" d="M404.06,122.35v-22.43c0-9.03-3.5-13.84-10.78-13.84-4.3,0-7.94,2.77-11.65,6.77-1.46-4.22-4.37-6.77-9.76-6.77-4.22,0-7.94,2.62-11,5.97h-.22l-.51-5.1h-4.95v35.39h5.97v-25.63c3.28-3.64,6.26-5.46,8.88-5.46,4.51,0,6.63,2.84,6.63,9.47v21.63h5.97v-25.63c3.28-3.64,6.12-5.46,8.88-5.46,4.44,0,6.55,2.84,6.55,9.47v21.63h5.97Z"/><path class="d" d="M423.87,125.04c-1.46,4.37-4,7.57-8.01,7.57-.87,0-1.97-.29-2.69-.51l-1.16,4.73c1.16,.44,2.55,.73,4.15,.73,7.14,0,10.78-5.32,13.25-12.31l13.33-38.3h-5.83l-6.34,19.59c-.95,3.13-1.97,6.77-2.99,9.98h-.29c-1.09-3.28-2.33-6.92-3.42-9.98l-7.21-19.59h-6.19l14.2,35.46-.8,2.62Z"/></g><g><g><path class="d" d="M604.52,452.03h-66.06v1.7c0,19.44-15.81,35.25-35.25,35.25h-197.22v320.88h0v.41h0v-.41c23.36-1.31,299.25-55.46,298.61-302.42-.04-13.83-.07-33.04-.08-55.4Z"/><polygon class="d" points="305.22 415.72 305.22 415.72 305.22 410.41 305.22 410.41 305.22 415.72 305.22 415.72 305.22 415.72"/><path class="d" d="M305.99,483.97h197.22c16.68,0,30.25-13.57,30.25-30.25v-1.7h0v-1.06c0-16.68-13.57-30.25-30.25-30.25h-198.01v-5h0v-5.31h-.07V187.41c0-3.96-.78-7.74-2.2-11.19-4.38-10.35-14.63-17.61-26.56-17.61H5.82s.13,184.57,.07,293.73l67.92,.07h5v1.31c0,16.68,13.57,30.25,30.25,30.25h196.94Z"/></g><path class="c" d="M610.43,152.98H334.06c-11.66,0-22.38,5.79-28.84,15.53-6.46-9.74-17.18-15.53-28.83-15.53H0l.02,5.82c0,1.84,.13,185.5,.07,293.41,0,22.36-.04,41.58-.07,55.39-.21,78.35,26.88,145.34,80.51,199.13,75.34,75.53,183.08,103.93,218.88,108.62v.53h11.62v-.53c35.8-4.69,143.53-33.09,218.86-108.62,53.64-53.77,80.73-120.77,80.53-199.13-.03-11.23-.05-26.03-.07-43.18v-12.21c-.08-107.91,.07-291.56,.07-293.41v-5.82ZM6.33,159.3H276.38c11.41,0,21.66,6.79,26.1,17.3,1.43,3.5,2.16,7.2,2.16,11v223.01l.07,.5v4.31H109.06c-19.71,0-35.75,16.04-35.75,35.75v.56H6.4c.06-105.19-.07-281.69-.08-292.43ZM79.31,451.16c0-16.4,13.34-29.75,29.75-29.75H503.22c16.4,0,29.75,13.34,29.75,29.75v2.75c0,16.4-13.34,29.75-29.75,29.75H109.06c-16.4,0-29.75-13.34-29.75-29.75v-2.75Zm227.19,38.5h196.72c19.71,0,35.75-16.04,35.75-35.75v-1.2h65.06c.02,22.15,.05,41.18,.08,54.9,.15,56.47-14.33,107.26-43.02,150.98-23.29,35.48-55.94,66.41-97.05,91.92-71.37,44.3-145.07,58-157.54,58.98V489.66Z"/><g><path class="b" d="M403.43,366.19l47.16-25.72,47.92,24.27-9.88-52.8,37.89-38.08-53.27-6.92-24.5-47.81-23.04,48.53-53.04,8.53,39.03,36.91-8.28,53.08Zm-21.04-87l46.37-7.46,20.14-42.43,21.42,41.8,46.58,6.05-33.13,33.29,8.64,46.17-41.9-21.22-41.24,22.49,7.24-46.41-34.13-32.27Z"/><path class="b" d="M127.97,576.19c-.89-.89-2.34-.89-3.23,0-.89,.89-.89,2.34,0,3.24l59.45,59.45c.89,.89,2.34,.89,3.23,0,.89-.89,.89-2.34,0-3.23l-59.45-59.45Z"/><path class="b" d="M235.92,674.16h0l-1.75-5.32-4.17-12.71h0l-8.28-25.21c-.1-.38-.3-.74-.6-1.04h0l-1.37-1.37h0v-.02l-84.62-84.61h0l-7.16-7.17c-3.98-3.98-9.23-5.97-14.47-5.97s-10.49,1.99-14.47,5.97l-3.45,3.45c-3.98,3.98-5.97,9.23-5.97,14.47s1.99,10.49,5.97,14.47l93.13,93.13c.25,.26,.57,.47,.94,.59l.52-1.6h0l-.52,1.6,25.18,8.25s.03,.01,.04,.02h0l11.01,3.6,7.04,2.3s.07,.02,.1,.03c.46,.16,.96,.18,1.46,.02,1.2-.39,1.85-1.69,1.46-2.89h0Zm-137.12-108.28c-3.09-3.09-4.63-7.16-4.63-11.24s1.54-8.15,4.63-11.24l3.45-3.45c3.09-3.09,7.16-4.63,11.24-4.63s8.15,1.54,11.24,4.63h0l5.54,5.54-25.92,25.92-5.54-5.54Zm90.17,90.17l-81.39-81.39,25.92-25.92,81.39,81.39-25.92,25.92Zm3.55,2.92l25.29-25.29,7.36,22.42-10.23,10.22-22.43-7.35Zm27.31,8.95l6.95-6.95,1.27,3.87,2.13,6.47-10.35-3.39Z"/><path class="b" d="M197.73,625.34l-59.45-59.45c-.89-.89-2.34-.89-3.23,0-.89,.89-.89,2.34,0,3.23l59.45,59.45c.89,.89,2.34,.89,3.23,0,.89-.89,.89-2.34,0-3.23Z"/><path class="b" d="M114.02,350.75c1.61-3.95,2-7.79,1.74-11.2h0c-.02-.3-.04-.6-.07-.89-.62-5.64-3.11-10.06-4.55-11.39,1.43,1.33,3.92,5.75,4.55,11.39,.03,.29,.05,.59,.07,.89l4.57,5.21,1.53,1.75,1.75-1.53,10-8.76h0l.09-.08c.18-.14,.36-.28,.53-.41h0c1.76-1.38,3.55-2.74,5.36-4.09,.02-.3,.05-.59,.06-.89-.01,.3-.04,.59-.06,.89,6.9-5.12,14.14-10.01,21.42-14.92,.38-.25,.75-.51,1.12-.76,.05,1.64-.15,3.33-.59,5.05-1.42,5.56-5.14,11.33-9.84,16.19-4.73,4.89-10.39,8.81-15.69,10.67-1.23,.43-2.43,.75-3.58,.94,3-3.53,6.61-9.34,7.16-17.18-1.81,1.34-3.6,2.71-5.36,4.09-2.27,8.68-8.67,13.35-8.69,13.36l-3.93,2.91,4.73,1.21c3.39,.86,7.25,.44,11.21-.95,5.98-2.1,12.29-6.44,17.49-11.81,5.22-5.4,9.37-11.89,10.99-18.27,.79-3.11,.99-6.2,.44-9.15,21.22-14.39,42.23-29.6,56.15-52.38,4.25-6.96,8.09-15.12,9.87-22.1,1.61-6.32,1.55-11.85-1.28-15.16l-.04-.04c-2.91-3.23-8.39-4.02-14.86-3.25-7.16,.85-15.75,3.58-23.2,6.88-24.41,10.81-42.25,29.64-59.3,48.79h0c-2.85-.93-5.94-1.14-9.12-.76-6.54,.77-13.52,4.04-19.55,8.5-6.01,4.45-11.14,10.13-14.01,15.79-1.9,3.75-2.83,7.52-2.41,10.99l.57,4.85,3.4-3.51s5.49-5.75,14.39-6.86c-.13,.12-.25,.25-.37,.37h0l-.03,.03-10.17,8.91-1.75,1.53,1.53,1.75,3.84,4.38c-2.25-.5-4.77-.74-7.52-.5-9.82,.84-23.76,24.34-23.8,24.41l-3.77,6.31,6.71-3,3.02-1.35-13.73,17.24-7.09,8.91,10.01-5.43,15.4-8.36-3.21,3.91-3.22,3.92,5.07-.13c2.83-.07,14.37-2.32,23.52-6.5,5.77-2.63,10.73-6.09,12.5-10.41Zm106.3-91.79l-.62-.71,.62,.71,3.5-3.06-3.5,3.06Zm-3.44-34.27c5.02-.6,9.07-.21,10.84,1.72,1.69,2.01,1.53,6.07,.28,10.97-1.26,4.95-3.65,10.56-6.5,15.88l-21.21-24.21c-1.08,.41-2.15,.84-3.21,1.28,1.06-.44,2.12-.87,3.21-1.28h0c5.64-2.12,11.52-3.76,16.59-4.36Zm-21.88,6.52c.24-.1,.49-.2,.73-.31l23.34,26.64,.03-.06s-.02,.04-.03,.06c-.14,.23-.27,.46-.4,.68-14.6,23.89-37.64,39.42-60.25,54.66-8.86,5.97-17.65,11.89-25.87,18.26l1.44,1.64,.7,.8c.08-.49,.15-.98,.21-1.48-.06,.5-.13,1-.21,1.48h0c-.12,.71-.26,1.4-.43,2.07h0c.17-.66,.32-1.35,.43-2.07l-.7-.8-1.44-1.64-10.58-12.07-7.57-8.64-4.45-5.08-.69-.78c-.48,.02-.94,.07-1.4,.11,.46-.04,.92-.09,1.4-.11l-.85-.96-1.29,1.13,1.29-1.13,.85,.96h0l.69,.78,4.45,5.08-3.01-3.43c7.39-7.31,14.42-15.25,21.5-23.24,18.07-20.41,36.49-41.21,62.1-52.55Zm-101.13,73.6c.34-1.12,.81-2.27,1.4-3.43,2.54-5,7.17-10.11,12.64-14.15,5.44-4.03,11.64-6.95,17.35-7.63,1.76-.21,3.47-.19,5.09,.08-.3,.34-.6,.68-.9,1.02-5.82,6.58-11.61,13.11-17.6,19.28,.3,.02,.59,.03,.89,.06h0c-.3-.03-.6-.04-.89-.06-7.84-.48-14.07,2.33-17.97,4.84Zm13.21-.06h0s.04,0,.05,0h-.05Zm-1.28,1.25l-.8,.77,.73,.83-.73-.83,.8-.77Zm2.19,4.18l-.77-.87,.77,.87,10.49,11.97,10.48,11.96,1.54,1.76,.16,.18-.16-.18-1.54-1.76-6.68,5.85-20.97-23.93,6.68-5.85Zm.09,14.82c-1.5-.94-3.39-1.91-5.64-2.64-.18-.06-.38-.11-.56-.17,.19,.06,.38,.11,.56,.17,2.24,.73,4.14,1.7,5.64,2.64Zm-24.49,37.11l6.88-8.37,7.54-9.17-10.44,5.66-15.83,8.59,12.57-15.78,5.93-7.45-8.69,3.89-4.57,2.05c4.39-6.4,11.29-15.27,16.03-15.67,3.03-.26,5.73,.18,7.98,.92,3.51,1.14,5.93,2.94,6.97,3.91,.03,.03,.06,.08,.09,.11l-5.18-5.91,5.18,5.91,.3,.34h0c.96,1.27,2.28,4.2,2.71,8.05,.32,2.93,.07,6.32-1.36,9.81-1.25,3.06-5.32,5.76-10.14,7.95-5.37,2.45-11.52,4.19-15.99,5.17Z"/><path class="b" d="M186.85,273.94c3.18,.21,6.45-.79,9.03-3.06,2.59-2.27,4.01-5.37,4.22-8.55,.21-3.18-.79-6.44-3.06-9.03-2.27-2.59-5.37-4.01-8.55-4.22-3.18-.21-6.44,.79-9.03,3.06-2.59,2.27-4.01,5.37-4.22,8.55-.21,3.18,.79,6.45,3.06,9.03,2.27,2.59,5.37,4.01,8.55,4.22Zm-6.98-12.95c.13-2,1.02-3.94,2.65-5.36,1.62-1.42,3.67-2.05,5.66-1.92,1.99,.13,3.94,1.02,5.36,2.65,1.42,1.62,2.05,3.67,1.92,5.66-.13,1.99-1.02,3.94-2.65,5.36-1.62,1.42-3.67,2.05-5.66,1.92-2-.13-3.94-1.02-5.36-2.65-1.42-1.62-2.05-3.67-1.92-5.66Z"/><path class="b" d="M161.79,294.64c2.84,.19,5.75-.71,8.06-2.73,2.31-2.02,3.58-4.79,3.77-7.63,.19-2.84-.71-5.75-2.73-8.06-2.02-2.31-4.79-3.58-7.63-3.77-2.84-.19-5.75,.71-8.06,2.73-2.31,2.02-3.58,4.79-3.77,7.63-.19,2.84,.71,5.75,2.73,8.06,2.02,2.31,4.79,3.58,7.63,3.77Zm-5.72-11.52c.11-1.65,.85-3.26,2.19-4.44,1.34-1.18,3.04-1.7,4.69-1.59,1.65,.11,3.26,.85,4.44,2.19,1.18,1.34,1.7,3.04,1.59,4.69-.11,1.65-.85,3.26-2.19,4.44-1.34,1.18-3.04,1.7-4.69,1.59-1.65-.11-3.26-.85-4.44-2.19-1.18-1.34-1.7-3.04-1.59-4.69Z"/><path class="b" d="M129.99,303.05c-.16,2.45,.61,4.95,2.35,6.95,1.74,1.99,4.13,3.08,6.58,3.25,2.45,.16,4.95-.61,6.94-2.36,1.99-1.74,3.08-4.13,3.25-6.57,.16-2.45-.61-4.96-2.35-6.95-1.74-1.99-4.13-3.08-6.58-3.25-2.45-.16-4.96,.61-6.94,2.35-1.99,1.74-3.08,4.13-3.25,6.58Zm6.31-3.08c1.02-.9,2.32-1.29,3.57-1.21,1.26,.08,2.49,.65,3.39,1.67,.9,1.02,1.29,2.32,1.21,3.57-.08,1.26-.65,2.49-1.67,3.38-1.02,.9-2.32,1.3-3.58,1.21-1.26-.08-2.49-.65-3.38-1.67-.9-1.03-1.3-2.32-1.21-3.58,.08-1.26,.65-2.49,1.67-3.38Z"/><path class="b" d="M506.77,537.61h-16.73c-.35-2-.79-3.97-1.32-5.91v-.03s-.03-.07-.04-.11c0-.02-.02-.04-.02-.06-.01-.03-.03-.06-.04-.09-.01-.02-.02-.05-.04-.07-.01-.03-.03-.05-.04-.08-.02-.03-.03-.05-.05-.08-.01-.02-.03-.04-.04-.06-.02-.03-.04-.05-.06-.08-.02-.02-.03-.04-.05-.05-.02-.02-.04-.05-.07-.07-.02-.02-.04-.04-.06-.05-.02-.02-.05-.04-.07-.06-.02-.02-.05-.04-.07-.05-.02-.02-.04-.03-.07-.05-.03-.02-.06-.03-.08-.05-.02-.01-.04-.03-.06-.04-.03-.02-.06-.03-.09-.05-.02,0-.04-.02-.06-.03-.03-.01-.06-.03-.1-.04-.02,0-.05-.02-.07-.03-.03,0-.06-.02-.09-.03-.03,0-.05-.01-.08-.02-.03,0-.05-.01-.08-.02-.03,0-.07-.01-.1-.02h-.07s-.07-.01-.11-.01c-.01,0-.02,0-.03,0h-74.72s-.08,0-.12,0h-.06s-.07,.02-.11,.02c-.02,0-.05,0-.07,.01-.03,0-.06,.02-.1,.02l-.08,.02s-.05,.02-.08,.03c-.03,0-.06,.02-.08,.03-.03,0-.05,.02-.07,.03l-.08,.04s-.05,.03-.07,.04c-.02,.02-.05,.03-.07,.04-.03,.02-.05,.04-.08,.05-.02,.02-.04,.03-.06,.05-.03,.02-.05,.04-.08,.07l-.05,.05s-.05,.05-.07,.08c-.01,.02-.03,.03-.04,.05-.02,.03-.04,.05-.06,.08-.01,.02-.03,.04-.04,.06-.02,.03-.03,.05-.05,.08-.01,.02-.03,.05-.04,.07l-.04,.07s-.03,.06-.04,.09c0,.02-.02,.04-.03,.06-.01,.04-.02,.07-.03,.11,0,0,0,.02,0,.03-.53,1.94-.97,3.91-1.32,5.91h-16.73c-1,0-1.81,.79-1.81,1.75v20.84c0,7.12,2.87,13.82,8.07,18.86,5.2,5.04,12.12,7.81,19.48,7.81h1.29c2.12,2.91,4.48,5.51,7.06,7.75,3.47,3.02,7.24,5.32,11.22,6.85v14.88c-6.78,1.56-12.41,6.38-14.74,12.88h-.29c-5.14,0-9.33,4.05-9.33,9.03v21.42c-4.23,.07-7.65,3.43-7.65,7.55v8.52c0,.97,.81,1.75,1.81,1.75h84.09c1,0,1.81-.78,1.81-1.75v-8.52c0-4.12-3.42-7.47-7.65-7.55v-21.42c0-4.98-4.18-9.03-9.33-9.03h-.29c-1.02-2.83-2.7-5.43-4.91-7.57-2.75-2.66-6.14-4.48-9.83-5.32v-14.87c3.99-1.54,7.76-3.83,11.22-6.85,2.57-2.24,4.94-4.83,7.06-7.75h1.29c7.36,0,14.28-2.78,19.48-7.81,5.2-5.04,8.07-11.73,8.07-18.86v-20.84c0-.97-.81-1.75-1.81-1.75Zm-112.48,22.6v-19.09h14.39c-.35,2.85-.53,5.74-.53,8.66,0,6.08,.77,12.05,2.29,17.74,1.47,5.51,3.62,10.66,6.37,15.29,.11,.18,.22,.37,.33,.55-12.7-.54-22.86-10.71-22.86-23.14Zm89.73,102.98h1.66c2.3,0,4.18,1.81,4.18,4.04v6.77h-80.47v-6.77c0-2.23,1.87-4.04,4.18-4.04h70.45Zm-7.52-30.44c3.15,0,5.71,2.48,5.71,5.53v21.41h-65.16v-21.41c0-3.04,2.56-5.53,5.71-5.53h53.75Zm-7.76-8.59c1.52,1.47,2.73,3.2,3.58,5.09h-45.39c2.66-5.94,8.78-9.91,15.61-9.91h14.17c4.54,0,8.82,1.71,12.03,4.82Zm-27.34-8.33v-13.17c2.7,.7,5.45,1.06,8.22,1.06s5.53-.35,8.22-1.06v13.17h-16.45Zm36.07-31.88c-.13,.13-.23,.28-.31,.45-4.78,6.75-10.99,11.79-18.11,14.23h0c-3.06,1.05-6.24,1.58-9.43,1.58s-6.37-.53-9.43-1.58h0c-7.12-2.44-13.32-7.48-18.11-14.23-.08-.16-.19-.31-.31-.45-6.27-9.08-10.01-21.15-10.01-34.16,0-5.44,.65-10.77,1.92-15.87h71.87c1.27,5.1,1.92,10.43,1.92,15.87,0,13.01-3.74,25.08-10.01,34.16Zm27.49-23.73c0,12.43-10.16,22.6-22.86,23.14,.11-.18,.23-.37,.33-.55,2.76-4.63,4.9-9.77,6.38-15.29,1.52-5.69,2.29-11.66,2.29-17.74,0-2.92-.18-5.81-.53-8.66h14.39v19.09Z"/><path class="b" d="M465.65,553.58h-11.31l-3.49-10.41c-.17-.52-.67-.87-1.23-.87s-1.06,.35-1.23,.87l-3.49,10.41h-11.31c-.56,0-1.06,.35-1.23,.87-.17,.52,.02,1.08,.47,1.4l9.15,6.44-3.49,10.41c-.17,.52,.02,1.08,.47,1.4,.45,.32,1.07,.32,1.52,0l9.15-6.44,9.15,6.44c.23,.16,.49,.24,.76,.24s.53-.08,.76-.24c.45-.32,.64-.88,.47-1.4l-3.49-10.41,9.15-6.44c.45-.32,.64-.88,.47-1.4-.17-.52-.67-.87-1.23-.87Zm-10.67,7.21c-.45,.32-.64,.88-.47,1.4l2.55,7.61-6.69-4.71c-.23-.16-.49-.24-.76-.24s-.53,.08-.76,.24l-6.69,4.71,2.56-7.61c.17-.52-.02-1.08-.47-1.4l-6.69-4.71h8.27c.56,0,1.06-.35,1.23-.87l2.56-7.61,2.55,7.61c.17,.52,.67,.87,1.23,.87h8.27l-6.69,4.71Z"/><path class="b" d="M139.61,434.35h-9.22l-5.44,17.4-.12,.38-5.06,16.18h7.81l2.08-8.07h10.37l2.08,8.07h8.13l-5.06-16.18-.12-.38-5.44-17.4Zm-8.39,19.9l.57-2.12,.1-.38,.17-.63c.94-3.39,1.82-7.35,2.66-10.94h.21c.89,3.54,1.82,7.55,2.76,10.94l.16,.63,.1,.38,.53,2.12h-7.24Z"/><path class="b" d="M178.95,440.35c2.45,0,4.27,1.15,5.99,2.71l4.06-4.9c-2.29-2.34-5.83-4.43-10.21-4.43-8.59,0-16.04,6.56-16.04,17.81,0,.07,0,.14,0,.21,0,.13,.01,.25,.01,.38,.25,11.02,7.32,16.81,15.76,16.81,4.43,0,8.18-1.72,10.99-5l-4.06-4.79c-1.67,1.77-3.85,3.18-6.62,3.18-4.79,0-7.95-3.74-8.21-10.19,0-.12,0-.25-.01-.38,0-.16-.01-.31-.01-.47,0-6.82,3.7-10.94,8.33-10.94Z"/><path class="b" d="M204.16,452.13c-7.89,1.32-11.29,4.19-11.29,9,0,4.37,2.97,7.81,7.71,7.81,2.92,0,5.31-1.36,7.5-3.28h.21l.52,2.66h6.25v-14.79c0-.48-.01-.94-.04-1.39,0-.13-.02-.25-.03-.38-.52-6.7-4.09-9.9-10.19-9.9-4.06,0-7.76,1.41-11.04,3.39l2.76,5.05c2.5-1.46,4.64-2.34,6.83-2.34,2.81,0,3.91,1.46,4.06,3.75-.16,.02-.3,.04-.46,.05-.98,.11-1.91,.23-2.78,.38Zm3.24,8.68c-1.35,1.35-2.5,2.19-4.22,2.19-1.82,0-2.97-.78-2.97-2.45,0-1.98,1.77-3.54,7.19-4.27v4.53Z"/><path class="b" d="M244.79,451.76c-.13-6.15-2.54-9.9-8.01-9.9-3.49,0-6.1,1.82-8.28,3.91h-.21l-.52-3.28h-6.25v25.84h7.66v-17.45c1.67-1.62,2.86-2.5,4.79-2.5s2.85,.84,3.11,3.39c.01,.12,.02,.25,.03,.38,.02,.35,.04,.72,.04,1.13v15.05h7.66v-16.04s0-.09,0-.14c0-.13,0-.25,0-.38Z"/><path class="b" d="M271.95,434.35h-9.58v33.97h10c8.67,0,14.84-4.16,16.29-12.95,0-.01,0-.03,0-.04,.21-1.29,.32-2.67,.32-4.15,0-11.67-6.67-16.83-17.03-16.83Zm9.13,18.11c0,.07,0,.14,0,.21-.45,6.98-4.17,9.45-9.59,9.45h-1.46v-21.57h1.46c5.78,0,9.64,2.5,9.64,10.63,0,.45-.02,.87-.04,1.28Z"/><path class="b" d="M305.92,441.85c-.93,0-1.84,.11-2.73,.3,0,0-.01,0-.02,0-5.41,1.19-9.86,5.86-9.86,13.24,0,1.13,.11,2.2,.31,3.21,.03,.13,.06,.25,.09,.38,.92,4.11,3.4,7.06,6.56,8.63,.25,.13,.51,.25,.77,.36,.69,.29,1.4,.51,2.13,.67h.02c.75,.17,1.52,.26,2.3,.29,.14,0,.29,.02,.43,.02,6.51,0,12.55-4.95,12.55-13.54,0-.15-.02-.29-.02-.44-.21-8.32-6.14-13.11-12.54-13.11Zm0,20.89c-1.11,0-2.01-.35-2.73-1,0,0-.01,0-.02-.01-1.33-1.21-1.99-3.43-1.99-6.33s.66-5.13,1.99-6.33h.02c.72-.66,1.62-1.01,2.73-1.01,3.12,0,4.74,2.87,4.74,7.35s-1.62,7.34-4.74,7.34Z"/><path class="b" d="M351.24,449.2l-4.38-1.77c-2.92-1.2-5.16-1.93-5.16-4.01,0-1.93,1.67-3.07,4.32-3.07s4.79,.99,7.03,2.71l3.91-4.85c-2.92-2.92-7.03-4.48-10.94-4.48-7.08,0-12.09,4.48-12.09,10.11,0,3.7,1.87,6.27,4.27,7.92,.81,.55,1.67,1,2.55,1.36l4.43,1.87c2.97,1.25,4.9,1.93,4.9,4.06s-1.56,3.28-4.74,3.28c-2.81,0-5.94-1.46-8.39-3.54l-4.38,5.26c3.44,3.23,8.13,4.9,12.55,4.9,8.13,0,12.81-4.9,12.81-10.52,0-2.9-.96-5.05-2.62-6.67-1.09-1.06-2.47-1.89-4.1-2.55Z"/><path class="b" d="M375.26,462.75c-3.33,0-5.78-2.87-5.78-7.35,0-1.38,.22-2.61,.64-3.65,.94-2.33,2.84-3.7,5.4-3.7,1.2,0,2.24,.47,3.49,1.51l3.59-4.95c-1.93-1.62-4.38-2.76-7.55-2.76-6.05,0-11.49,3.57-13.01,9.9-.27,1.13-.43,2.34-.43,3.65,0,8.6,5.57,13.54,12.76,13.54,2.81,0,5.99-.83,8.54-3.07l-3.02-5c-1.35,1.04-2.97,1.87-4.64,1.87Z"/><path class="b" d="M395.12,451.75v-.88c1.67-1.62,2.86-2.5,4.79-2.5s2.85,.83,3.11,3.38c.05,.45,.07,.95,.07,1.51v15.05h7.66v-16.04c0-.18,0-.35-.01-.52-.13-6.14-2.54-9.9-8.01-9.9-3.49,0-6.04,1.82-7.97,3.54l.37-4.64v-8.96h-7.66v36.52h7.66v-16.57Z"/><path class="b" d="M428.3,441.85c-5.57,0-10.75,3.57-12.19,9.9-.26,1.13-.41,2.34-.41,3.65,0,8.6,6.04,13.54,12.61,13.54s12.55-4.95,12.55-13.54c0-1.3-.15-2.52-.41-3.65-1.45-6.33-6.62-9.9-12.14-9.9Zm0,20.89c-3.18,0-4.74-2.87-4.74-7.35,0-1.38,.15-2.61,.45-3.65,.67-2.33,2.09-3.7,4.29-3.7s3.6,1.37,4.28,3.7c.3,1.04,.46,2.27,.46,3.65,0,4.48-1.61,7.35-4.74,7.35Z"/><path class="b" d="M457.22,441.85c-5.57,0-10.75,3.57-12.19,9.9-.26,1.13-.41,2.34-.41,3.65,0,8.6,6.04,13.54,12.61,13.54s12.55-4.95,12.55-13.54c0-1.3-.15-2.52-.41-3.65-1.45-6.33-6.62-9.9-12.14-9.9Zm0,20.89c-3.18,0-4.74-2.87-4.74-7.35,0-1.38,.15-2.61,.45-3.65,.67-2.33,2.09-3.7,4.29-3.7s3.6,1.37,4.28,3.7c.3,1.04,.46,2.27,.46,3.65,0,4.48-1.61,7.35-4.74,7.35Z"/><path class="b" d="M482.7,431.8h-7.66v28.49c0,5.21,1.77,8.65,7.03,8.65,1.72,0,3.02-.26,3.85-.62l-.94-5.68c-.42,.1-.62,.1-.94,.1-.62,0-1.35-.52-1.35-2.14v-28.81Z"/></g></g></svg>