<?xml version="1.0" encoding="UTF-8"?>
<svg xmlns="http://www.w3.org/2000/svg"
     viewBox="0 0 10000 10000"
     width="10000mm"
     height="10000mm"
     data-tpv-mode="geometric"
     data-seed="35992.02247896889">
  <title>Calm flowing ribbons</title>
  <desc>TPV Studio Geometric Design - Generated 2025-11-12T13:43:47.319Z</desc>

  <!-- Metadata -->
  <metadata>
    <tpv:design xmlns:tpv="http://rosehill.group/tpv">
      <tpv:mode>geometric</tpv:mode>
      <tpv:brief>Calm flowing ribbons</tpv:brief>
      <tpv:palette>#56a8a0,#78c4a0,#93acf0,#5c9fb1</tpv:palette>
      <tpv:seed>35992.02247896889</tpv:seed>
      <tpv:canvas width="10000" height="10000" unit="mm"/>
    </tpv:design>
  </metadata>

  <!-- Design layers -->
  <g id="design">
    <rect id="bg" x="0" y="0" width="10000" height="10000" fill="#56a8a0"/>
    <path id="band-0" class="geometric-band" fill="#78c4a0" d="M -95.63,5642.21 C 154.37,5682.54 91.33,5672.86 404.37,5722.88 C 926.10,5806.26 1121.21,5885.36 1447.84,5889.63 C 1992.21,5896.75 2219.41,5946.30 2536.58,5903.87 C 3065.21,5833.14 3285.92,5818.25 3593.84,5762.42 C 4107.02,5669.37 4326.75,5643.35 4620.21,5576.33 C 5109.31,5464.63 5320.08,5382.14 5598.42,5352.93 C 6062.30,5304.24 6244.69,5250.42 6526.18,5255.56 C 6995.34,5264.12 7179.26,5243.91 7464.50,5272.68 C 7939.90,5320.64 8122.51,5314.53 8415.30,5368.60 C 8903.29,5458.71 9241.28,5521.20 9391.28,5548.82 C 9641.28,5594.85 9891.28,5640.89 9891.28,5640.89 L 10108.72,4460.05 C 9858.72,4414.01 9915.93,4424.40 9608.72,4367.98 C 9096.71,4273.95 8899.46,4211.66 8584.70,4179.92 C 8060.10,4127.00 7854.01,4079.52 7535.50,4074.09 C 7004.66,4065.05 6795.48,4022.27 6473.82,4056.01 C 5937.70,4112.24 5708.12,4099.03 5401.58,4168.48 C 4890.69,4284.22 4671.88,4346.99 4379.79,4399.95 C 3892.98,4488.22 3688.99,4537.81 3406.16,4576.49 C 2934.79,4640.95 2736.79,4708.99 2463.42,4705.41 C 2007.79,4699.44 1839.12,4740.27 1552.16,4693.48 C 1073.90,4615.50 745.63,4561.72 595.63,4537.52 C 345.63,4497.18 95.63,4456.85 95.63,4456.85 Z"/>
    <path id="band-1" class="geometric-band" fill="#93acf0" d="M 5126.77,169.43 C 5236.55,419.43 5220.74,386.75 5346.33,669.43 C 5555.65,1140.57 5736.11,1351.97 5764.97,1611.70 C 5813.08,2044.58 5919.51,2212.72 5861.18,2477.47 C 5763.97,2918.71 5800.98,3084.67 5666.75,3359.95 C 5443.04,3818.74 5445.45,3978.69 5219.33,4277.54 C 4842.45,4775.62 4631.52,4952.50 4465.58,5273.70 C 4189.01,5809.03 4004.12,6010.16 3912.45,6344.36 C 3759.66,6901.36 3579.71,7114.31 3606.87,7458.36 C 3652.14,8031.78 3559.95,8286.20 3697.41,8605.20 C 3926.51,9136.87 4090.15,9518.54 4155.60,9668.54 C 4264.70,9918.54 4373.79,10168.54 4373.79,10168.54 L 5146.25,9831.46 C 5037.16,9581.46 5052.43,9612.46 4928.07,9331.46 C 4720.80,8863.13 4533.93,8650.74 4513.53,8394.80 C 4479.54,7968.22 4370.52,7807.44 4445.55,7541.64 C 4570.61,7098.64 4551.40,6934.44 4695.67,6655.64 C 4936.11,6190.97 4948.98,6027.45 5176.55,5726.30 C 5555.84,5224.38 5777.17,5047.18 5935.13,4722.46 C 6198.39,4181.26 6389.31,3975.31 6461.65,3640.05 C 6582.22,3081.29 6740.33,2862.81 6702.78,2522.53 C 6640.21,1955.42 6715.52,1705.62 6577.63,1388.30 C 6347.82,859.43 6183.88,480.57 6118.01,330.57 C 6008.23,80.57 5898.45,-169.43 5898.45,-169.43 Z"/>
  </g>
</svg>