<?xml version="1.0" encoding="UTF-8"?><svg id="Glyph" xmlns="http://www.w3.org/2000/svg" viewBox="0 0 64 64"><path d="m36,56.72v-5.31c-1.47-.63-2.79-1.4-4-2.36-1.21.95-2.53,1.73-4,2.36v5.31c-1.05,1.8-2.42,2.79-4,3.28h16c-1.77-.94-3.17-2.01-4-3.28Z"/><path d="m47.79,43.9c-.87-.53-1.64-1.06-2.33-1.58-2.09-.08-4.04-.38-5.8-.95-1.34,1.46-3.1,2.68-5.25,3.62-.25.11-.53.17-.81.17-.04,0-.07,0-.11,0-3.28-.17-6.29-1.47-8.96-3.85-1.81.6-3.82.93-5.98,1.01-.69.52-1.47,1.05-2.34,1.58-3.41,2.08-7.07,2.38-7.07,2.38,0,0,3.89,2.47,7.86,1.72,3.93-.74,7-3,7-3l-2,6c3.64-.56,7.08-1.76,10-4.61,2.92,2.85,6.36,4.05,10,4.61l-2-6s3.07,2.26,7,3c3.97.75,7.86-1.72,7.86-1.72,0,0-3.66-.3-7.07-2.38Z"/><path d="m44.72,33.76c-.94-.1-1.86-.25-2.72-.48v1.72c0,.61-.28,1.19-.76,1.57-.36.28-.8.43-1.24.43-.15,0-.3-.02-.45-.05-2.99-.69-5.52-2.02-7.55-3.96-2.03,1.94-4.56,3.26-7.55,3.96-.15.03-.3.05-.45.05-.45,0-.89-.15-1.24-.43-.48-.38-.76-.96-.76-1.57v-1.72c-.86.23-1.77.38-2.72.48-1.65,2.51-3.47,4.13-6.28,6.24,4.77.7,8.77.36,12-1,2.72,2.77,5.6,4.01,8.6,4.16,2.33-1.03,4.16-2.4,5.4-4.16,3.23,1.36,7.23,1.7,12,1-2.81-2.11-4.64-3.73-6.28-6.24Z"/><path d="m41.67,26.22s-.01,0-.02,0c-1.92,0-3.57-.25-5.02-.76-1.3,1.47-2.96,2.64-5.06,3.57-.26.11-.53.17-.81.17-.26,0-.51-.05-.75-.15-.5-.2-.9-.6-1.1-1.11-.41-1.03-.87-1.87-1.38-2.54-1.48.55-3.19.81-5.17.81,0,0-.01,0-.02,0-1.69,2.11-3.88,4-6.33,5.78,3.2-.19,6.44-.35,8-2v5c3.62-.84,6.17-2.61,8-5,1.83,2.39,4.38,4.16,8,5v-5c1.56,1.65,4.8,1.81,8,2-2.45-1.78-4.64-3.66-6.33-5.78Z"/><path d="m40.28,20.41c-.33.02-.67.03-1,.03h0c-2.67,0-4.91-.59-7.28-1.35-2.37.76-4.61,1.35-7.28,1.35-.33,0-.67-.01-1-.03-1.24,1.23-2.85,2.42-4.72,3.59,3.39.41,6.54.36,9-1,1.18,1.03,2.07,2.48,2.76,4.2,2.57-1.14,4.17-2.59,5.24-4.2,2.46,1.36,5.61,1.41,9,1-1.86-1.17-3.48-2.36-4.72-3.59Z"/><path d="m38.18,14.1c-.64.11-1.24.17-1.8.17h0c-1.7,0-3.16-.47-4.38-1.41-1.21.94-2.68,1.41-4.38,1.41-.56,0-1.17-.06-1.8-.17-1.32,1.43-2.94,2.73-4.82,3.9,4.45,1.04,7.74.05,11-1.01,3.26,1.06,6.55,2.05,11,1.01-1.88-1.18-3.5-2.47-4.82-3.9Z"/><path d="m32,4c-2.24,2.92-4.08,5.05-8.37,7.5,3.43,1.11,6.4,1.36,8.37-1.56,1.97,2.92,4.94,2.66,8.37,1.56-4.29-2.45-6.13-4.58-8.37-7.5Z"/></svg>