<?xml version="1.0" encoding="UTF-8"?><svg id="Glyph" xmlns="http://www.w3.org/2000/svg" viewBox="0 0 64 64"><path d="m25.14,28.95c-1.51,1.08-3.35,1.71-5.35,1.71-.25,0-.49-.02-.73-.04-.75,1.63-2.39,2.76-4.3,2.76-2.63,0-4.76-2.13-4.76-4.75,0-.82.23-1.58.59-2.26-.77-.49-1.28-1.34-1.28-2.32s.51-1.84,1.28-2.33c0-.09-.01-.18-.01-.28,0-4.56,3.31-8.34,7.67-9.08.25-1.03,1.07-1.85,2.12-2.06-.01.07-.01.13-.01.2,0,.43.05.85.14,1.26-1.67,1.24-2.71,3.22-2.71,5.39,0,1.27.36,2.47.98,3.49.63,1.03,1.53,1.88,2.6,2.46,0,2.6,1.55,4.84,3.77,5.85Z"/><path d="m55.29,30.88c.15.34.24.72.24,1.12,0,1.53-1.24,2.76-2.77,2.76-.59,0-1.14-.19-1.59-.51-.55.21-1.12.36-1.72.44-.64.58-1.49.95-2.44.95-1.6,0-2.95-1.04-3.43-2.49-1.76-1.31-2.97-3.32-3.21-5.62.66.27,1.37.42,2.1.42,1.72,0,3.29-.79,4.33-2.08h.21c3.78,0,6.9-2.93,7.19-6.63.8.49,1.33,1.36,1.33,2.36,0,.36-.08.7-.2,1.01.71,1.2,1.12,2.6,1.12,4.09s-.42,2.96-1.16,4.18Z"/><path d="m34.86,56.95v-5.24c0-1.84-.37-3.66-1.1-5.36l-.47-1.1c-1.74-4.08-1.37-8.75.95-12.51,1.98.4,4.02.32,5.96-.22-.57-.79-1.03-1.66-1.34-2.58-1.05.13-2.12.14-3.17,0,.32-.83.55-1.7.7-2.58-.51.06-1.01.1-1.53.1-.62,0-1.24-.06-1.86-.15-.46,1.51-1.16,2.94-2.12,4.21l-.27.36s-.03.04-.04.06l-2.7-1.88c-.18-.12-.34-.27-.51-.4-.96.89-2.08,1.6-3.3,2.11.1.08.18.17.28.25l4.36,3.44c-1.13,3.19-1.07,6.73.3,9.93l.75,1.77c.72,1.69,1.1,3.52,1.1,5.36v4.11c-1.22,1.65-2.59,2.85-4.17,3.35l4.17.02h4l3.79-.02c-1.41-.36-2.67-1.35-3.79-3.05Z"/><path d="m47.79,13.52c.16-.4.26-.83.26-1.29,0-1.91-1.55-3.46-3.46-3.46-.26,0-.51.03-.75.09-1.92-2.92-5.22-4.85-8.97-4.85-2.99,0-5.69,1.22-7.64,3.19-.41-.16-.85-.26-1.31-.26-1.97,0-3.56,1.59-3.56,3.56,0,.81.28,1.55.74,2.15-1.91.61-3.31,2.38-3.31,4.5,0,2.29,1.63,4.21,3.79,4.64-.13.42-.22.85-.22,1.31,0,2.45,1.99,4.44,4.44,4.44,1.76,0,3.27-1.03,3.99-2.52.97.29,2,.45,3.07.45,1.68,0,3.26-.39,4.67-1.08.64.94,1.71,1.55,2.93,1.55,1.49,0,2.77-.92,3.29-2.23.4.1.82.16,1.25.16,2.88,0,5.22-2.34,5.22-5.22,0-2.61-1.93-4.76-4.44-5.14Z"/></svg>