<?xml version="1.0" encoding="UTF-8"?><svg id="Glyph" xmlns="http://www.w3.org/2000/svg" viewBox="0 0 64 64"><path d="m47.5,39c-1.27,0-2.39-.68-3-1.7-.61,1.02-1.73,1.7-3,1.7-1.93,0-3.5-1.57-3.5-3.5v-1.54c-1.54-.22-2.76-1.45-2.96-3-.8-.1-1.51-.47-2.04-1.02-.62-.63-1-1.49-1-2.44v-1.54c-.79-.11-1.5-.49-2.03-1.05-.09.78-.44,1.49-.97,2.03v8.56c0,1.93-1.57,3.5-3.5,3.5-.99,0-1.89-.41-2.53-1.08-.2,1.73-1.68,3.08-3.47,3.08-1.27,0-2.39-.68-3-1.7-.35.59-.88,1.07-1.5,1.36v3.25c0,.83.67,1.5,1.5,1.5s1.5-.67,1.5-1.5v6.59c0,.83.67,1.5,1.5,1.5s1.5-.67,1.5-1.5v-3.95c0,.82.67,1.5,1.5,1.5s1.5-.68,1.5-1.5v3.95c0,.83.67,1.5,1.5,1.5s1.5-.67,1.5-1.5v-5.27c0,.83.67,1.5,1.5,1.5s1.5-.67,1.5-1.5v2.63c0,.83.67,1.5,1.5,1.5s1.5-.67,1.5-1.5v-8.36c0,.83.67,1.5,1.5,1.5s1.5-.67,1.5-1.5v5c0,.83.67,1.5,1.5,1.5s1.5-.67,1.5-1.5v-3c0,.83.67,1.5,1.5,1.5s1.5-.67,1.5-1.5v3c0,.83.67,1.5,1.5,1.5s1.5-.67,1.5-1.5v-4c0,.83.67,1.5,1.5,1.5s1.5-.67,1.5-1.5v2c0,.83.67,1.5,1.5,1.5s1.5-.67,1.5-1.5v-6.55l-.03-.03c-.2,1.73-1.68,3.08-3.47,3.08Z"/><path d="m37,56.72v-8.77c-.78-.11-1.48-.47-2-1.01v.92c0,1.93-1.57,3.5-3.5,3.5-.98,0-1.86-.41-2.5-1.06v6.41c-1.05,1.8-2.42,2.79-4,3.28h16c-1.77-.94-3.17-2.01-4-3.28Z"/><path d="m15,34.5c0,.83.67,1.5,1.5,1.5s1.5-.67,1.5-1.5v3c0,.83.67,1.5,1.5,1.5s1.5-.67,1.5-1.5v-4c0,.83.67,1.5,1.5,1.5s1.5-.67,1.5-1.5v2c0,.83.67,1.5,1.5,1.5s1.5-.67,1.5-1.5v-7.54c-.16.03-.33.04-.5.04-1.27,0-2.39-.68-3-1.7-.61,1.02-1.73,1.7-3,1.7-1.93,0-3.5-1.57-3.5-3.5v-1.54c-1.69-.24-3-1.7-3-3.46v-1.56c-.73.36-1.4.82-2,1.36-1.84,1.64-3,4.04-3,6.7v6.5c0,.83.67,1.5,1.5,1.5s1.5-.67,1.5-1.5v5c0,.83.67,1.5,1.5,1.5s1.5-.67,1.5-1.5v-3Z"/><path d="m38.5,29.3c-.35.59-.87,1.06-1.49,1.35.07.76.71,1.35,1.49,1.35s1.42-.59,1.49-1.35c-.62-.29-1.14-.76-1.49-1.35Z"/><path d="m52.36,17.64c-.12-.12-.24-.23-.36-.34-.31-.28-.65-.55-1-.78v8.98c0,1.93-1.57,3.5-3.5,3.5-.99,0-1.89-.41-2.53-1.08-.2,1.73-1.68,3.08-3.47,3.08-.54,0-1.04-.12-1.5-.34v4.84c0,.83.67,1.5,1.5,1.5s1.5-.67,1.5-1.5v-3c0,.83.67,1.5,1.5,1.5s1.5-.67,1.5-1.5v3c0,.83.67,1.5,1.5,1.5s1.5-.67,1.5-1.5v-4c0,.83.67,1.5,1.5,1.5s1.5-.67,1.5-1.5v2c0,.83.67,1.5,1.5,1.5s1.5-.67,1.5-1.5v-9.5c0-2.48-1.01-4.74-2.64-6.36Z"/><path d="m17.5,21c.83,0,1.5-.67,1.5-1.5v5c0,.83.67,1.5,1.5,1.5s1.5-.67,1.5-1.5v-3c0,.83.67,1.5,1.5,1.5s1.5-.67,1.5-1.5v3c0,.83.67,1.5,1.5,1.5s1.5-.67,1.5-1.5v-4c0,.83.67,1.5,1.5,1.5s1.5-.67,1.5-1.5v2c0,.83.67,1.5,1.5,1.5s1.5-.67,1.5-1.5v5c0,.83.67,1.5,1.5,1.5s1.5-.67,1.5-1.5v-3c0,.83.67,1.5,1.5,1.5s1.5-.67,1.5-1.5v3c0,.83.67,1.5,1.5,1.5s1.5-.67,1.5-1.5v-4c0,.83.67,1.5,1.5,1.5s1.5-.67,1.5-1.5v2c0,.83.67,1.5,1.5,1.5s1.5-.67,1.5-1.5v-9.5c0-2.48-1.01-4.74-2.64-6.36-.12-.12-.24-.23-.36-.34-.86-.78-1.88-1.39-3-1.78-.94-.34-1.95-.52-3-.52s-2.06.18-3,.52c-1.12.39-2.14,1-3,1.78-1.84,1.64-3,4.04-3,6.7v-4.5c0-2.07-.84-3.94-2.2-5.3-.25-.25-.52-.48-.8-.68-.87-.67-1.89-1.14-3-1.37-.48-.1-.99-.15-1.5-.15s-1.02.05-1.5.15c-1.11.23-2.13.7-3,1.37-1.82,1.35-3,3.53-3,5.98v8c0,.83.67,1.5,1.5,1.5Z"/><path d="m39.99,30.65h.01s0-.15,0-.15c0,.05,0,.1-.01.15Z"/></svg>