<?xml version="1.0" encoding="UTF-8"?><svg id="Glyph" xmlns="http://www.w3.org/2000/svg" viewBox="0 0 64 64"><path d="m27,13l-2,4,5-3c.18,1.88.92,3.14,2,4.04.36-1.29.97-2.63,2-4.04,1,1.35,2.34,2,4,2l-1-3c2.03,1.07,4.92,1.14,8,1-6.39-3.01-10.95-6.31-13-10-2.05,3.69-6.61,6.99-13,10,3.08.14,5.97.07,8-1Z"/><path d="m22.69,26.65c-.15.77-.59,1.44-1.31,2,2.03.14,3.95-.29,5.69-1.59.24.6.47,1.19.71,1.77,1.85-.46,3.25-1.27,4.23-2.39.98,1.12,2.38,1.93,4.23,2.39.23-.58.47-1.17.71-1.77,1.74,1.31,3.66,1.74,5.69,1.59-.72-.57-1.16-1.23-1.31-2,2.68.6,5.74.11,8.92-.74-6.4-1.1-12.54-2.22-16.97-3.48l-.06-2.81c-.18.14-.38.26-.61.33-.2.06-.4.09-.6.09-.43,0-.85-.14-1.21-.41l-.06,2.8c-4.42,1.26-10.56,2.38-16.97,3.48,3.18.85,6.24,1.34,8.92.74Z"/><path d="m54.03,38.45c-6.5-.3-12.98-.98-20.51-3.8l-.1-4.71c-.51-.24-.99-.51-1.43-.82-.44.31-.92.58-1.43.82l-.1,4.71c-7.52,2.82-14.01,3.5-20.51,3.8,1.93,1.27,3.86,2.64,5.89,2.04l-.26,2.27c2.28-.49,4.03-1.32,5.11-2.57.13.82-.06,1.68-.42,2.57,2.45-.7,4.45-1.68,5.75-3.07l-.21,2.16c1.68-.15,3.06-.73,3.79-2.24.67,1.13,1.41,2.2,2.4,3,.56-1.21,1.22-2.34,2.4-3,.73,1.51,2.11,2.09,3.79,2.24l-.21-2.16c1.3,1.39,3.3,2.37,5.75,3.07-.36-.89-.55-1.75-.42-2.57,1.07,1.25,2.83,2.08,5.11,2.57l-.26-2.27c2.03.6,3.95-.77,5.89-2.04Z"/><path d="m34,56.72l-.28-13.1c-.28.48-.73.83-1.27.95-.15.03-.3.05-.45.05-.46,0-.9-.16-1.27-.45-.16-.13-.31-.28-.46-.42l-.28,12.97c-1.05,1.8-2.42,2.79-4,3.28h12c-1.77-.94-3.17-2.01-4-3.28Z"/></svg>