<?xml version="1.0" encoding="UTF-8"?><svg id="Glyph" xmlns="http://www.w3.org/2000/svg" viewBox="0 0 64 64"><path d="m40.85,9.72c.56.37,1.06.81,1.52,1.29.2-.02.4-.06.61-.06,1.63,0,3.14.74,4.13,1.97,2.22.08,4.31,1.03,5.83,2.62.04,0,.09,0,.13,0,1.2,0,2.3.4,3.19,1.07,0-.5-.11-1.01-.37-1.47-.42-.76-1.13-1.25-1.91-1.44.79-.93.98-2.28.35-3.41-.75-1.34-2.36-1.87-3.75-1.3-.84-.69-1.79-1.22-2.79-1.58-.03-.44-.14-.87-.37-1.28-.81-1.45-2.64-1.96-4.08-1.16-.34.19-.63.45-.87.74-.92-.95-2.39-1.21-3.6-.53-.48.27-.84.65-1.1,1.08,1.55.53,2.74,1.84,3.08,3.47Z"/><path d="m27.62,11.64c0,.61.16,1.17.42,1.68-.84.45-1.42,1.32-1.42,2.34,0,1.35,1.01,2.46,2.32,2.63.04.28.1.56.17.83-.31.43-.49.96-.49,1.54,0,1.47,1.19,2.67,2.67,2.67.29,0,.56-.06.83-.14,1.09.7,2.38,1.11,3.78,1.11.1,0,.21-.01.31-.02-.79-.93-1.26-2.13-1.26-3.44,0-2,1.1-3.75,2.75-4.65.02-1.88,1.04-3.52,2.54-4.45-.4-.32-.83-.6-1.3-.83,0-.09.03-.17.03-.26,0-1.47-1.19-2.67-2.67-2.67-.93,0-1.75.48-2.23,1.2-.68-.76-1.65-1.25-2.75-1.25-2.04,0-3.69,1.65-3.69,3.69Z"/><path d="m58.06,26.17c.57-.55.94-1.31.94-2.17,0-1.53-1.15-2.78-2.63-2.96,0-.07.02-.13.02-.19,0-1.83-1.48-3.31-3.31-3.31-.33,0-.64.06-.95.15-1.17-1.68-3.1-2.78-5.3-2.78-.27,0-.53.02-.79.05-.5-1.19-1.68-2.02-3.05-2.02-1.83,0-3.31,1.48-3.31,3.31,0,.46.1.9.27,1.3-1.69.15-3.02,1.55-3.02,3.28s1.21,3.01,2.79,3.26c-.02.14-.04.27-.04.41,0,1.83,1.48,3.31,3.31,3.31.18,0,.36-.02.53-.05.32,1.31,1.34,2.34,2.65,2.68.27,1.81,1.29,3.38,2.75,4.37-.05.22-.08.46-.08.69,0,1.83,1.48,3.31,3.31,3.31,1.34,0,2.5-.8,3.02-1.96.26.08.54.13.82.13,1.66,0,3-1.34,3-3,0-.68-.23-1.29-.61-1.79.39-.83.61-1.75.61-2.72,0-1.22-.35-2.34-.94-3.32Z"/><path d="m43.87,40.37c1.41-.43,2.75-1.01,4.03-1.71-.61-.83-1-1.84-1.04-2.94-.28-.26-.54-.53-.78-.82-1.43.83-2.95,1.51-4.55,1.99l-.32.1,1.86-2.57c.54-.75,1.03-1.53,1.47-2.34-.02-.06-.04-.11-.06-.16-.95-.49-1.73-1.24-2.27-2.16-.31-.05-.6-.12-.89-.22-.51,1.02-1.1,2-1.77,2.92l-3.99,5.53h-1.56l-1.05-1.2c-1.36-1.56-2.49-3.29-3.38-5.14l1.58-.71c2.15-.96,3.9-2.61,5-4.67-.08,0-.17.01-.25.01-1.09,0-2.17-.2-3.19-.59-1.04,1.28-2.37,2.32-3.9,3.01l-.37.17c-.28-.85-.5-1.72-.69-2.6-.64,2.11-2.44,3.71-4.68,4.01-.12.31-.28.6-.43.9.78,2.45,1.95,4.75,3.49,6.82l-1.12.55c-2.09-.96-3.99-2.28-5.61-3.89-1.28.79-2.76,1.27-4.33,1.34,1.98,2.54,4.55,4.56,7.51,5.87l2.43,1.07v13.79c-1.05,1.8-2.42,2.79-4,3.28h24c-1.77-.94-3.17-2.01-4-3.28v-15.48l2.87-.88Z"/><path d="m15.75,17.11c.34-.07.68-.11,1.03-.11,1.71,0,3.23.83,4.17,2.12.44-.11.9-.17,1.36-.17,1.74,0,3.29.79,4.34,2.02,0-.1-.03-.2-.03-.3,0-.37.04-.74.13-1.1-1.29-.84-2.13-2.29-2.13-3.9,0-1.12.4-2.17,1.1-2.99-.07-.34-.1-.68-.1-1.03,0-2.22,1.27-4.13,3.13-5.07-.49-.35-1.09-.57-1.74-.57-.87,0-1.65.38-2.19.97-.42-1.15-1.51-1.97-2.81-1.97-1.53,0-2.78,1.15-2.96,2.64-1.01.4-1.94.96-2.74,1.67-.39-.19-.83-.31-1.3-.31-1.66,0-3,1.34-3,3,0,.4.08.77.22,1.12-.98.27-1.76,1.01-2.07,1.97.38-.08.76-.13,1.16-.13,1.76,0,3.39.83,4.44,2.16Z"/><path d="m21.57,28.26c.24.05.49.07.74.07,2.04,0,3.69-1.65,3.69-3.69s-1.65-3.69-3.69-3.69c-.92,0-1.74.35-2.39.9-.16-1.6-1.49-2.85-3.13-2.85-.73,0-1.39.26-1.93.67-.43-1.56-1.85-2.72-3.55-2.72-2.04,0-3.69,1.65-3.69,3.69,0,.14.03.26.04.4-.12-.02-.25-.04-.37-.04-1.47,0-2.67,1.19-2.67,2.67,0,.73.3,1.4.77,1.88-.24.43-.39.92-.39,1.46,0,1.29.82,2.38,1.97,2.81-.82.67-1.35,1.69-1.35,2.84,0,2.04,1.65,3.69,3.69,3.69,1.64,0,3.02-1.08,3.5-2.57.59.16,1.21.25,1.85.25,3.45,0,6.31-2.49,6.91-5.76Z"/></svg>