<?xml version="1.0" encoding="UTF-8"?><svg id="Glyph" xmlns="http://www.w3.org/2000/svg" viewBox="0 0 64 64"><path d="m50.5,19c-.18,0-.35.03-.52.05,0-.03,0-.07,0-.1,1.15-.22,2.03-1.23,2.03-2.45s-.88-2.24-2.05-2.45c-.21-1.16-1.23-2.05-2.45-2.05-.82,0-1.54.4-2,1.01-.46-.61-1.18-1.01-2-1.01-1.23,0-2.25.89-2.46,2.06-.18-.04-.36-.06-.54-.06-1.38,0-2.5,1.12-2.5,2.5,0,.19.02.37.06.54-1.72.22-3.06,1.67-3.06,3.46,0,1.93,1.57,3.5,3.5,3.5.55,0,1.05-.14,1.51-.36.08,1.31,1.15,2.36,2.49,2.36.64,0,1.22-.25,1.66-.64.35.96,1.26,1.64,2.34,1.64,1.01,0,1.88-.61,2.27-1.47.51.29,1.09.47,1.73.47,1.93,0,3.5-1.57,3.5-3.5s-1.57-3.5-3.5-3.5Z"/><path d="m40.12,27.31c-.54-.34-1.01-.78-1.36-1.31-.09,0-.18,0-.26,0-.46,0-.9-.06-1.32-.17-.42.39-.85.76-1.31,1.1l-2.49,1.85-.41-7.69c-.04-.78,0-1.56.08-2.34-.19-.06-.37-.14-.55-.23-.61.31-1.29.47-2,.47-.18,0-.37-.01-.55-.04,0,.02,0,.04,0,.07-.02.5-.04,1,0,1.51l.25,4.69-2.05-2.64c-.78.69-1.74,1.16-2.81,1.32.14.16.28.31.41.48l3.97,5.11c-2.36,12.14-3.28,23.16.29,30.51h3c2.62-7.16,2.22-17.03.67-27.7l4.74-3.52c.61-.45,1.18-.94,1.7-1.48Z"/><path d="m36.1,15.57c.38-1.78,1.81-3.18,3.62-3.5.81-1.26,2.21-2.07,3.78-2.07.7,0,1.38.17,2,.48.07-.04.15-.06.22-.1-.41-.82-1.25-1.38-2.22-1.38-.46,0-.89.13-1.26.35-.36-.46-.83-.84-1.38-1.07.09-.25.14-.51.14-.78,0-1.38-1.12-2.5-2.5-2.5-.45,0-.87.13-1.23.34-1.03-.84-2.34-1.34-3.77-1.34-.88,0-1.72.19-2.47.54-.42-.33-.95-.54-1.53-.54-1,0-1.86.59-2.26,1.44-.84-.67-2.06-.56-2.76.26-.61.72-.62,1.73-.1,2.46-.62.16-1.18.44-1.66.83-.11-.19-.25-.36-.42-.51-.85-.72-2.11-.62-2.82.22-.09.1-.16.21-.22.33.08,0,.16-.03.24-.03.32,0,.64.04.94.13.35-.09.7-.13,1.06-.13,2.38,0,4.34,1.86,4.49,4.21,1.79.5,3.2,1.9,3.75,3.66.24.08.49.13.76.13.82,0,1.54-.4,2-1.01.42.56,1.06.92,1.79.98.49-.58,1.1-1.07,1.8-1.41Z"/><path d="m24.5,15c-.36,0-.7.07-1.02.17-.02-.03-.03-.07-.05-.1.35-.43.57-.97.57-1.57,0-1.38-1.12-2.5-2.5-2.5-.41,0-.79.1-1.13.28-.24-.17-.54-.28-.87-.28-.54,0-1.01.29-1.28.72-.45-.44-1.05-.72-1.72-.72-1.25,0-2.27.91-2.46,2.1-.17-.07-.35-.1-.54-.1-.83,0-1.5.67-1.5,1.5,0,.19.04.37.1.54-1.19.19-2.1,1.21-2.1,2.46,0,1.01.61,1.88,1.47,2.27-.29.51-.47,1.09-.47,1.73,0,1.93,1.57,3.5,3.5,3.5.68,0,1.32-.2,1.86-.54.28.33.68.54,1.14.54.54,0,1.01-.28,1.27-.71.45.44,1.05.71,1.73.71,1.38,0,2.5-1.12,2.5-2.5,0-.34-.07-.66-.19-.95.5.28,1.07.45,1.69.45,1.93,0,3.5-1.57,3.5-3.5s-1.57-3.5-3.5-3.5Z"/></svg>