<?xml version="1.0" encoding="UTF-8"?><svg id="Glyph" xmlns="http://www.w3.org/2000/svg" viewBox="0 0 64 64"><path d="m34.69,16.4s.05.07.07.11c.41-.67,1.01-1.21,1.74-1.55.12-.26.28-.51.46-.74.35-1.82,1.91-3.21,3.81-3.3.52-.69,1.3-1.17,2.19-1.33-.34-.93-1.23-1.59-2.27-1.59-.06,0-.11.01-.17.02.11-.27.17-.57.17-.88,0-1.34-1.09-2.43-2.44-2.43-.63,0-1.2.25-1.63.64-.99-.68-2.19-1.08-3.48-1.08-1.1,0-2.12.31-3.01.81-.37-.23-.81-.37-1.29-.37-1.34,0-2.44,1.09-2.44,2.43,0,.05.01.1.02.15-.54.38-.9,1-.9,1.71,0,0,0,0,0,.01-.66.03-1.25.32-1.67.76.31.19.61.4.85.68,1.76.21,3.18,1.55,3.52,3.27,1.11.6,1.91,1.69,2.1,2.99.44.64,1.17,1.07,2,1.07.94,0,1.75-.54,2.15-1.32.07-.02.14-.05.21-.07Z"/><path d="m13.44,20.24c.1,0,.19-.02.28-.03-.06.2-.1.4-.1.62,0,.35.09.67.25.96.58-.41,1.27-.68,2.02-.73.62-.79,1.59-1.3,2.68-1.3.62,0,1.22.17,1.73.47.4-.16.83-.25,1.27-.25.99,0,1.88.42,2.51,1.1.37.05.71.16,1.04.3-.01-.17-.04-.33-.09-.48.27.13.58.21.9.21,1.15,0,2.08-.93,2.08-2.08,0-.16-.02-.32-.06-.47.27-.35.43-.78.43-1.25,0-1.15-.93-2.08-2.08-2.08-.05,0-.1.01-.15.01.09-.23.15-.49.15-.75,0-1.15-.93-2.08-2.08-2.08-.23,0-.45.05-.65.11-.12-.72-.74-1.27-1.5-1.27-.6,0-1.11.35-1.36.85-.15-.02-.3-.03-.45-.04-.2-.61-.77-1.06-1.44-1.06-.84,0-1.52.68-1.52,1.52,0,.06.01.12.02.18,0,0-.02,0-.03.01-.32-.2-.69-.32-1.1-.32-1.15,0-2.08.93-2.08,2.08,0,.04.01.08.01.13-.46.32-.77.85-.77,1.46,0,0,0,0,0,0-1.11.05-1.99.95-1.99,2.07s.93,2.08,2.08,2.08Z"/><path d="m27.39,27.58c0-1.06-.86-1.92-1.92-1.92-.05,0-.09.01-.13.01.08-.22.13-.45.13-.69,0-1.06-.86-1.92-1.92-1.92-.21,0-.41.04-.6.11-.11-.66-.69-1.17-1.38-1.17-.55,0-1.03.32-1.26.79-.14-.02-.28-.03-.41-.04-.18-.56-.71-.97-1.33-.97-.78,0-1.41.63-1.41,1.41,0,.06.01.11.02.17,0,0-.02,0-.03.01-.29-.18-.64-.3-1.01-.3-1.06,0-1.92.86-1.92,1.92,0,.04,0,.08.01.12-.43.3-.71.79-.71,1.35,0,0,0,0,0,0-1.02.04-1.84.88-1.84,1.91s.86,1.92,1.92,1.92c.09,0,.17-.01.26-.03-.06.18-.1.37-.1.57,0,1.06.86,1.92,1.92,1.92.56,0,1.06-.24,1.41-.62.27.72.97,1.24,1.79,1.24.74,0,1.38-.43,1.7-1.04.06-.01.11-.04.17-.05.31.64.96,1.09,1.73,1.09,1.06,0,1.92-.86,1.92-1.92,0-.19-.04-.38-.09-.55.25.12.53.2.83.2,1.06,0,1.92-.86,1.92-1.92,0-.15-.02-.3-.05-.44.24-.32.4-.72.4-1.16Z"/><path d="m40.2,33.18c-.12-.06-.24-.13-.35-.19-.58.56-1.31,1.13-2.26,1.62-1.48.76-3.06,1.06-4.08,1.18l-.12-4.9,2.07-1.38c1.63-1.09,2.91-2.6,3.74-4.34-.68-.23-1.27-.63-1.74-1.15-1.03,1.56-2.45,2.83-4.13,3.68l-.17-8c-.27.05-.54.09-.82.09-.51,0-1-.09-1.47-.25l-.03,1.24-1.03-.52c-.27.85-.8,1.58-1.51,2.09l2.47,1.65-.21,9.81c-1.02-.45-2-1.01-2.91-1.65-.45.38-.98.67-1.57.81-.08.18-.17.36-.27.52.88.84,1.83,1.6,2.88,2.24l1.81,1.1-.49,19.88c-1.05,1.8-2.42,2.79-4,3.28h12c-1.77-.94-3.17-2.01-4-3.28l-.43-17.97c1.17-.17,3.21-.59,5.23-1.63,1.13-.58,1.95-1.29,2.57-2.01-.55-.52-.97-1.18-1.17-1.93Z"/><path d="m38.51,20.69c-.06.2-.1.4-.1.62,0,1.14.93,2.07,2.07,2.07.44,0,.84-.14,1.18-.38.71-.77,1.7-1.27,2.82-1.32.65-.86,1.67-1.41,2.82-1.41.68,0,1.32.19,1.87.54.43-.19.91-.29,1.4-.29.59,0,1.14.16,1.63.41.34-.37.56-.86.56-1.41,0-.16-.02-.32-.06-.47.26-.35.43-.78.43-1.25,0-1.14-.93-2.07-2.07-2.07-.05,0-.1.01-.15.01.09-.23.15-.49.15-.75,0-1.14-.93-2.07-2.07-2.07-.23,0-.45.04-.65.11-.12-.72-.74-1.27-1.49-1.27-.6,0-1.11.35-1.36.85-.15-.02-.3-.03-.45-.04-.2-.61-.76-1.05-1.44-1.05-.84,0-1.52.68-1.52,1.52,0,.06.01.12.02.18,0,0-.02,0-.03.01-.32-.2-.69-.32-1.09-.32-1.14,0-2.07.93-2.07,2.07,0,.04.01.08.01.12-.46.32-.77.85-.77,1.46,0,0,0,0,0,0-1.1.05-1.98.95-1.98,2.06s.93,2.07,2.07,2.07c.1,0,.19-.02.28-.03Z"/><path d="m56.91,28.6c0-1.15-.94-2.09-2.09-2.09-.05,0-.1.01-.15.01.09-.24.15-.49.15-.76,0-1.15-.94-2.09-2.09-2.09-.23,0-.45.05-.66.12-.12-.72-.75-1.28-1.51-1.28-.6,0-1.12.35-1.37.86-.15-.02-.3-.03-.45-.04-.2-.61-.77-1.06-1.45-1.06-.85,0-1.53.69-1.53,1.53,0,.06.01.12.02.18,0,0-.02,0-.03.01-.32-.2-.7-.32-1.1-.32-1.15,0-2.09.94-2.09,2.09,0,.04.01.08.01.13-.47.32-.77.86-.77,1.47,0,0,0,0,0,0-1.11.05-2,.96-2,2.08s.94,2.09,2.09,2.09c.1,0,.19-.02.28-.03-.06.2-.11.41-.11.62,0,1.15.94,2.09,2.09,2.09.61,0,1.15-.26,1.53-.68.3.79,1.06,1.35,1.95,1.35.81,0,1.5-.46,1.85-1.13.06-.01.12-.04.18-.06.34.7,1.05,1.19,1.88,1.19,1.15,0,2.09-.94,2.09-2.09,0-.21-.04-.41-.1-.6.27.13.58.21.9.21,1.15,0,2.09-.94,2.09-2.09,0-.16-.02-.32-.06-.48.27-.35.43-.78.43-1.26Z"/></svg>