<?xml version="1.0" encoding="UTF-8"?><svg id="Glyph" xmlns="http://www.w3.org/2000/svg" viewBox="0 0 64 64"><path d="m20.93,17.13c1.75-.53,3.44-.82,5.03-.82,1.42,0,2.66.21,3.72.54-1.74-1.72-4.21-3.59-7.59-4.85-7.71-2.88-15.75,3.5-15.75,3.5,0,0,5.33-.51,13.33,1.33.44.1.85.2,1.26.3Z"/><path d="m43.29,15.82c-6.16-2.16-9.78,3.22-10.74,4.92-.06-.05-.12-.11-.18-.17.11-.76.38-2.17,1.01-4.15,1.65-1.61,4-3.1,7.1-3.1,1.14,0,2.3.21,3.47.62.05.02.1.04.15.06,6.25-1.5,7.9-1.99,7.9-1.99,0,0-6.23-6.28-13.5-2.99-1.71.77-2.95,2.3-3.86,4.01.01-.02.02-.05.03-.07,1.91-4.55,3.33-8.97,3.33-8.97,0,0-4.07,2.62-6,6.43-.56,1.11-.9,2.19-1.08,3.21-.99-2.26-2.65-4.68-5.45-6.73-4.54-3.31-12.77-2.9-12.77-2.9,0,0,3.73,2.34,7.9,5.52.75.14,1.48.34,2.18.6,3.49,1.31,6.1,3.2,7.98,5-.08,2.09.45,3.81.91,4.89-1.72-1.23-5.2-2.7-10.8-.79-7.66,2.62-8.17,12.23-8.17,12.23,0,0,2.22-3.35,9.39-6.98,4.13-2.09,7.11-2.85,8.9-3.12l-1,38.64h4l-1-38.77h-.73s.01,0,.02,0h0s0,0,0,0h0s0,0,0,0c0,0,0,0,0,0,.47-.02.71,0,.71,0,0,0-.07-.09-.2-.24,1.39-.61,5.41-2.11,9.41-1,4.94,1.37,9.79,7.41,9.79,7.41,0,0-1.44-9.03-8.71-11.58Z"/></svg>