<?xml version="1.0" encoding="UTF-8"?><svg id="Glyph" xmlns="http://www.w3.org/2000/svg" viewBox="0 0 64 64"><path d="m39.92,17.84c0-.55.12-1.09.35-1.58-.22-.49-.35-1.03-.35-1.59,0-1.17.52-2.25,1.39-2.96.22-.55.57-1.03,1.02-1.41-.64-.47-1.41-.76-2.26-.76-.53,0-1.03.11-1.49.3-.29-.19-.63-.3-1-.3-.45,0-.86.17-1.18.44-.34-.39-.83-.65-1.38-.65-.98,0-1.76.76-1.83,1.72-.58.21-.99.76-1.02,1.4-.67.28-1.14.94-1.14,1.7,0,.68.37,1.27.92,1.58-.55.32-.92.91-.92,1.59,0,1.01.82,1.83,1.83,1.83.94,0,1.71-.71,1.82-1.62.32.15.68.24,1.06.24.78,0,1.47-.36,1.94-.91.24.73.92,1.26,1.73,1.26.19,0,.36-.03.53-.08,0-.07-.02-.13-.02-.2Z"/><path d="m57.08,13.89c-.21,0-.41.04-.61.11.13-.25.22-.53.22-.84,0-1.01-.83-1.83-1.84-1.83-.31,0-.6.08-.85.22-.71-.9-1.8-1.49-3.04-1.49-.53,0-1.03.11-1.49.3-.29-.19-.63-.3-1-.3-.45,0-.86.17-1.18.44-.34-.39-.83-.65-1.38-.65-.98,0-1.76.76-1.83,1.72-.58.21-.99.76-1.02,1.4-.67.28-1.14.94-1.14,1.7,0,.68.37,1.27.92,1.58-.55.32-.92.91-.92,1.59,0,1.01.82,1.83,1.83,1.83.94,0,1.71-.71,1.82-1.62.32.15.68.24,1.06.24.78,0,1.47-.36,1.94-.91.24.73.92,1.26,1.73,1.26.62,0,1.15-.3,1.49-.76.28,1.1,1.28,1.91,2.47,1.91,1.31,0,2.38-.99,2.53-2.26.09.02.19.03.29.03,1.02,0,1.84-.82,1.84-1.83s-.82-1.84-1.84-1.84Z"/><path d="m15.6,13.74s-.03.02-.05.03c.23-.04.45-.07.68-.07.34,0,.67.05.99.13.49-.22,1.02-.34,1.57-.34.76,0,1.47.23,2.08.62.6-1.34,1.94-2.27,3.48-2.27.54,0,1.08.12,1.57.34.32-.09.66-.13.99-.13.38,0,.75.06,1.11.17.45-.11.91-.17,1.38-.17.73,0,1.44.15,2.11.41-.29-.64-.93-1.09-1.68-1.09-.21,0-.41.04-.61.11.13-.25.22-.53.22-.84,0-1.01-.83-1.83-1.84-1.83-.31,0-.6.08-.85.22-.71-.9-1.8-1.49-3.04-1.49-.53,0-1.03.11-1.49.3-.29-.19-.63-.3-1-.3-.45,0-.86.17-1.18.44-.34-.39-.83-.65-1.38-.65-.98,0-1.76.76-1.83,1.72-.58.21-.99.76-1.02,1.4-.67.28-1.14.94-1.14,1.7,0,.68.37,1.27.92,1.58Z"/><path d="m37.31,19.49c-.48.18-.99.27-1.5.28-.71.85-1.77,1.38-2.94,1.38-2.11,0-3.83-1.72-3.83-3.83,0-.55.12-1.09.35-1.58-.22-.49-.35-1.03-.35-1.59,0-.02,0-.04,0-.05-.39.04-.77.12-1.12.26-.29-.19-.63-.3-1-.3-.45,0-.86.17-1.18.44-.34-.39-.83-.65-1.38-.65-.98,0-1.76.76-1.83,1.72-.1.04-.18.09-.27.15.04.08.08.15.11.23.45.38.81.86,1.03,1.41.87.72,1.39,1.79,1.39,2.96,0,.56-.12,1.1-.35,1.59.05.1.07.22.11.33.17.04.34.06.53.06.78,0,1.47-.36,1.94-.91.24.73.92,1.26,1.73,1.26.62,0,1.15-.3,1.49-.76.28,1.1,1.28,1.91,2.47,1.91,1.31,0,2.38-.99,2.53-2.26.09.02.19.03.29.03,1.02,0,1.84-.82,1.84-1.83,0-.07-.01-.15-.02-.22-.01,0-.03-.01-.04-.02Z"/><path d="m13.53,26.23c-.82.75-1.9,1.2-3.08,1.2-1.64,0-3.09-.89-3.89-2.22-.17.29-.28.63-.28.99,0,.34.1.66.25.94-.18-.06-.37-.1-.57-.1-1.08,0-1.96.88-1.96,1.96s.88,1.96,1.96,1.96c.86,0,1.58-.57,1.84-1.34.26.77.99,1.34,1.85,1.34.99,0,1.8-.74,1.93-1.69.35.51.94.84,1.6.84,1.08,0,1.96-.88,1.96-1.96,0-.96-.7-1.75-1.61-1.92Z"/><path d="m7.63,19.54c.21,0,.41.04.61.11-.13-.25-.22-.53-.22-.84,0-1.01.83-1.83,1.84-1.83.31,0,.6.08.85.22.71-.9,1.8-1.49,3.04-1.49.53,0,1.03.11,1.49.3.29-.19.63-.3,1-.3.45,0,.86.17,1.18.44.34-.39.83-.65,1.38-.65.98,0,1.76.76,1.83,1.72.58.21.99.76,1.02,1.4.67.28,1.14.94,1.14,1.7,0,.68-.37,1.27-.92,1.58.55.32.92.91.92,1.59,0,1.01-.82,1.83-1.83,1.83-.94,0-1.71-.71-1.82-1.62-.32.15-.68.24-1.06.24-.78,0-1.47-.36-1.94-.91-.24.73-.92,1.26-1.73,1.26-.62,0-1.15-.3-1.49-.76-.28,1.1-1.28,1.91-2.47,1.91-1.31,0-2.38-.99-2.53-2.26-.09.02-.19.03-.29.03-1.02,0-1.84-.82-1.84-1.83s.82-1.84,1.84-1.84Z"/><path d="m38.47,33.91l6.76.2c-.19-.43-.3-.9-.3-1.4,0-.4.08-.79.21-1.15l-6.22-.37,8.19-6.14,2.95-4.42c-.68-.04-1.31-.25-1.86-.61-.12.04-.24.07-.36.1l-2.46,3.11-.1.07-2.02-1.67c-.75-.1-1.43-.41-1.97-.88-.37-.19-.73-.42-1.03-.71-.27.06-.55.09-.83.09-.03,0-.05,0-.08,0-.04.35-.12.69-.24,1,.21.43.48.83.84,1.16l2.89,2.73-9.07,6.36c-.74.52-1.24,1.33-1.37,2.23l-.98,6.82-8.36-4.91-.17-.68,4.68-5.47c.42-.49.71-1.07.85-1.69l.7-3.07c-.12.01-.24.04-.36.04-.71,0-1.37-.2-1.95-.54l-.55,2.12c-.17.65-.5,1.25-.96,1.73l-3.27,3.45-1.02-4.09s-.03,0-.04,0c-1.17,0-2.23-.53-2.94-1.38-.41,0-.81-.08-1.2-.2l1.62,1.41.21,1.1-1.57.58c-.33,1.86-1.94,3.28-3.89,3.28-.27,0-.53-.03-.78-.09.83.35,1.75.43,2.63.2l4.16-1.08.89,4.81c.17.92.73,1.72,1.54,2.19l9.32,5.47-.77,5.38-.17,7.72c-1.05,1.8-2.42,2.79-4,3.28h12c-1.77-.94-3.17-2.01-4-3.28l-.17-7.72,1.26-12.14c.18-1.71,1.65-3,3.37-2.95Z"/><path d="m59.11,29.53c-.17,0-.33.03-.49.09.1-.2.18-.43.18-.68,0-.81-.67-1.47-1.48-1.47-.25,0-.48.06-.68.18-.57-.72-1.45-1.2-2.44-1.2-.43,0-.83.09-1.2.24-.23-.15-.51-.24-.8-.24-.36,0-.69.14-.95.35-.27-.31-.67-.52-1.11-.52-.79,0-1.42.61-1.47,1.38-.47.17-.8.61-.82,1.13-.54.22-.92.75-.92,1.37,0,.55.3,1.02.74,1.27-.44.26-.74.73-.74,1.28,0,.81.66,1.47,1.47,1.47.76,0,1.38-.57,1.46-1.3.26.12.55.19.85.19.63,0,1.18-.29,1.56-.73.19.59.74,1.01,1.39,1.01.5,0,.92-.24,1.2-.61.23.88,1.03,1.54,1.99,1.54,1.05,0,1.91-.8,2.03-1.82.07.02.15.02.23.02.82,0,1.48-.66,1.48-1.47s-.66-1.48-1.48-1.48Z"/></svg>