<?xml version="1.0" encoding="UTF-8"?><svg id="Glyph" xmlns="http://www.w3.org/2000/svg" viewBox="0 0 64 64"><path d="m43.48,16.48c-4.3-.95-8.53,1.59-10.79,3.31-.67-2.46-2.71-7.35-8.44-8.77-9-2.23-14.77,4.56-14.77,4.56,0,0,7.12-1.25,12.23.26,6.34,1.87,9.29,5.38,9.29,5.38-1.4,5.86-2.61,13.43-2.56,22.28.04,6.28.7,11.84,1.56,16.5h7.52c-2.91-4-4.66-10.3-4.99-16.82-.44-8.61-.22-15.75.47-21.95,0,0-.01-.1-.04-.25,2.16-.15,5.88-.06,9.9,1.63,6.85,2.87,9.14,7.03,9.14,7.03,0,0,.55-11.15-8.52-13.15Z"/><path d="m32.88,15.14c.56.94.99,1.88,1.29,2.72,1.43-1.27,3.3-2.7,5.54-3.84,7-3.56,12.3-3.77,12.3-3.77,0,0-6.46-4.77-14.23-.77-2.36,1.22-3.9,2.95-4.9,4.73-.2-1.56-.68-3.29-1.66-5.11-2.14-3.99-7.82-5.31-8.12-5.37.15.21,1.97,2.78,3.71,6.05,2.95,1.25,4.84,3.33,6.07,5.36Z"/><path d="m18.6,17.26c-5.43,3.79-5.43,12.38-5.43,12.38,0,0,4.45-5.85,9.92-7.85,1.57-.58,3.06-.87,4.38-.98-1.37-.99-3.47-2.2-6.33-3.05-.75-.22-1.6-.39-2.54-.5Z"/></svg>