<?xml version="1.0" encoding="UTF-8"?><svg id="Glyph" xmlns="http://www.w3.org/2000/svg" viewBox="0 0 64 64"><path d="m34,56.72l-.23-10.72h-3.11c-.14.1-.29.18-.43.26l-.22,10.46c-1.05,1.8-2.42,2.79-4,3.28h12c-1.77-.94-3.17-2.01-4-3.28Z"/><path d="m52,34.5c0-1.52-.97-2.8-2.32-3.28.8-.64,1.32-1.61,1.32-2.72,0-1.26-.67-2.35-1.66-2.97.41-.57.66-1.27.66-2.03,0-1.26-.67-2.35-1.66-2.97.41-.57.66-1.27.66-2.03,0-1.88-1.49-3.41-3.36-3.49.22-.46.36-.97.36-1.51,0-1.93-1.57-3.5-3.5-3.5-.52,0-1.01.12-1.46.33-.04-.03-.08-.07-.12-.1.05-.23.08-.47.08-.72,0-1.93-1.57-3.5-3.5-3.5-.61,0-1.18.17-1.68.45-.45-1.41-1.76-2.45-3.32-2.45s-2.87,1.03-3.32,2.45c-.5-.28-1.07-.45-1.68-.45-1.88,0-3.41,1.49-3.49,3.36-.46-.22-.97-.36-1.51-.36-1.93,0-3.5,1.57-3.5,3.5,0,.61.17,1.18.45,1.68-1.41.45-2.45,1.76-2.45,3.32,0,.89.34,1.69.89,2.31l-.16.68c-1.03.61-1.73,1.72-1.73,3,0,.71.21,1.36.57,1.91l-.05.2c-.92.63-1.53,1.69-1.53,2.89,0,.62.17,1.19.45,1.69l-.25,1.06c-1.29.52-2.2,1.77-2.2,3.25,0,.89.34,1.7.9,2.32l-.55,2.35c-.58,2.47,1.29,4.83,3.83,4.83h.88c.24,1.69,1.69,3,3.45,3s3.21-1.31,3.45-3h.11c.63.62,1.49,1,2.44,1s1.81-.38,2.44-1h6.41c.56,1.18,1.76,2,3.15,2,.98,0,1.86-.41,2.5-1.06.64.65,1.52,1.06,2.5,1.06,1.43,0,2.66-.86,3.2-2.1,2.07-.47,3.46-2.56,2.95-4.73l-.39-1.66c1.03-.61,1.73-1.72,1.73-3.01Z"/></svg>