<?xml version="1.0" encoding="UTF-8"?><svg id="Glyph" xmlns="http://www.w3.org/2000/svg" viewBox="0 0 64 64"><path d="m32,7.63c1.76,0,3.12.64,4.08,1.43.22-.34.36-.7.36-1.06,0-2.11-2.71-.64-2.71-.64,0,0,.64-2.98-1.73-3.36-2.37.38-1.73,3.36-1.73,3.36,0,0-2.71-1.47-2.71.64,0,.36.14.72.36,1.06.97-.79,2.32-1.43,4.08-1.43Z"/><path d="m24.79,14.18c.62-.86,1.52-1.45,2.7-1.45.03,0,.13,0,.16,0,1.09.05,1.94.54,2.57,1.12.65-.34,1.25-.51,1.77-.51s1.12.17,1.77.51c.63-.57,1.48-1.06,2.57-1.12.03,0,.13,0,.16,0,1.18,0,2.08.59,2.7,1.45.08-.02.17-.03.25-.05.48-.62.66-1.32.35-2.13-.95-2.42-3.88,0-3.88,0,0,0-1.04-2.37-3.93-2.37s-3.93,2.37-3.93,2.37c0,0-2.93-2.42-3.88,0-.31.8-.13,1.51.35,2.13.08.02.17.03.25.05Z"/><path d="m24.09,19.5c.89-.92,2.29-1.99,4.02-2.11.12,0,.23-.01.34-.01,1.46,0,2.67.6,3.55,1.25.88-.66,2.09-1.25,3.55-1.25.11,0,.23,0,.34.01,1.72.11,3.12,1.19,4.02,2.11.39-.11.84-.19,1.3-.23.29-.55.4-1.17.26-1.88-.56-2.76-3.28-.42-3.28-.42,0,0-.3-2.3-1.74-2.23-1.44.07-2.22,1.83-2.22,1.83,0,0-1.5-1.22-2.22-1.22s-2.22,1.22-2.22,1.22c0,0-.78-1.76-2.22-1.83-1.44-.07-1.74,2.23-1.74,2.23,0,0-2.72-2.33-3.28.42-.14.71-.03,1.33.26,1.88.46.04.9.12,1.3.23Z"/><path d="m20.63,24.04c.28-.06.56-.09.86-.09,1.4,0,2.83.63,3.94,1.29.5-.72,1.15-1.45,1.97-1.94.52-.31,1.11-.47,1.73-.47,1.08,0,2.08.5,2.87,1.05.78-.56,1.78-1.05,2.87-1.05.62,0,1.21.16,1.73.47.82.49,1.47,1.22,1.97,1.94,1.11-.66,2.54-1.29,3.94-1.29.3,0,.58.04.86.09.01-.07.03-.15.04-.22.39-4.31-4.11-1.94-4.11-1.94,0,0-1.56-2.37-3.53-2.49-2.15-.14-3.69,1.93-3.76,2.03-.07-.1-1.61-2.17-3.76-2.03-1.97.13-3.53,2.49-3.53,2.49,0,0-4.5-2.37-4.11,1.94,0,.08.02.15.04.22Z"/><path d="m21.36,29.9c.79,0,1.51.14,2.11.32.67-.66,1.62-1.33,2.83-1.48.17-.02.34-.03.5-.03.84,0,1.55.25,2.13.59.94-.78,2.01-1.4,3.06-1.4s2.13.62,3.06,1.4c.58-.34,1.3-.59,2.13-.59.16,0,.33,0,.5.03,1.21.15,2.16.82,2.83,1.48.6-.18,1.32-.32,2.11-.32.68,0,1.32.11,1.94.3.49-1.05.54-2.23-.38-3.44-1.87-2.44-6.33,1.44-6.33,1.44,0,0-.85-2.31-2.3-3.18-1.45-.87-3.57,1.54-3.57,1.54,0,0-2.12-2.41-3.57-1.54-1.45.87-2.3,3.18-2.3,3.18,0,0-4.46-3.89-6.33-1.44-.93,1.21-.87,2.39-.38,3.44.61-.2,1.26-.3,1.94-.3Z"/><path d="m19.05,35.9c.93,0,1.8.28,2.55.66.52-1,1.32-1.97,2.55-2.42.48-.18.97-.27,1.45-.27,1.35,0,2.38.66,3.12,1.46.98-.91,2.13-1.66,3.28-1.66s2.3.75,3.28,1.66c.74-.8,1.77-1.46,3.12-1.46.48,0,.97.09,1.45.27,1.23.46,2.03,1.42,2.55,2.42.75-.38,1.63-.66,2.55-.66.63,0,1.24.14,1.79.4.13-.98-.03-1.96-.75-2.8-2.57-3-6.08-.87-6.08-.87,0,0-.99-1.73-2.46-1.92-1.47-.18-2.46,1.28-2.46,1.28,0,0-1.9-2.11-2.99-2.11s-2.99,2.11-2.99,2.11c0,0-.99-1.47-2.46-1.28-1.47.18-2.46,1.92-2.46,1.92,0,0-3.52-2.13-6.08.87-.72.84-.88,1.82-.75,2.8.56-.26,1.16-.4,1.79-.4Z"/><path d="m18.07,41.81c1.77,0,3.33.71,4.42,1.4,1.12-.97,2.83-2.09,4.75-2.09,1.94,0,3.61,1.16,4.77,2.26,1.15-1.11,2.82-2.26,4.76-2.26,1.93,0,3.63,1.11,4.76,2.09,1.09-.69,2.64-1.4,4.42-1.4.53,0,1.05.07,1.56.2.24-.96.17-1.95-.46-2.89-2.1-3.11-5.7.7-5.7.7,0,0-.38-3.14-2.18-3.81-2.38-.89-3.58,2.68-3.58,2.68,0,0-2.21-3.02-3.57-3.02s-3.57,3.02-3.57,3.02c0,0-1.19-3.57-3.58-2.68-1.8.67-2.18,3.81-2.18,3.81,0,0-3.6-3.81-5.7-.7-.64.94-.7,1.93-.46,2.89.51-.13,1.03-.2,1.56-.2Z"/><path d="m16.68,47.18c1.21,0,2.38.43,3.31.92.63-.81,1.57-1.55,2.9-1.75.31-.04.6-.06.89-.06,1.96,0,3.52.94,4.59,1.99.92-.52,2.13-1.01,3.52-1.08.09,0,.19,0,.28,0,1.38,0,2.58.49,3.48,1.03,1.07-1.02,2.61-1.93,4.54-1.93.29,0,.59.02.89.06,1.34.19,2.27.94,2.9,1.75.94-.49,2.1-.92,3.31-.92.79,0,1.51.18,2.17.52.36-.96.35-1.88-.41-2.58-3.58-3.31-7.74.76-7.74.76,0,0-2.2-2.74-4.57-2.74-2.54,0-4.76,3.33-4.76,3.33,0,0-2.22-3.33-4.76-3.33-2.37,0-4.57,2.74-4.57,2.74,0,0-4.16-4.06-7.74-.76-.76.7-.77,1.62-.41,2.58.65-.33,1.38-.52,2.17-.52Z"/><path d="m50,51c-2.11-4.1-6.74,0-6.74,0,0,0-.62-2.4-2.45-2.67-3.12-.45-4.81,2.67-4.81,2.67,0,0-1.78-1.91-4-1.8s-4,1.8-4,1.8c0,0-1.69-3.11-4.81-2.67-1.82.26-2.45,2.67-2.45,2.67,0,0-4.63-4.1-6.74,0-3.41,6.64,7.44,8.92,7.44,8.92l10.56.08,10.56-.08s10.85-2.28,7.44-8.92Z"/></svg>