<?xml version="1.0" encoding="UTF-8"?><svg id="Glyph" xmlns="http://www.w3.org/2000/svg" viewBox="0 0 64 64"><path d="m55.1,30.07c.57-1.2.9-2.53.9-3.94,0-5.09-4.12-9.21-9.21-9.21-3.26,0-6.12,1.7-7.75,4.25-2.43.38-4.3,2.47-4.3,5.01s1.9,4.66,4.36,5.01c1.64,2.48,4.45,4.13,7.64,4.15.83,1.59,2.48,2.69,4.4,2.69,2.75,0,4.98-2.23,4.98-4.98,0-1.12-.38-2.15-1.01-2.98Z"/><path d="m39.92,34.96c-.42.35-.86.67-1.35.93l-4.95,2.58-.18-8.44c-.32.02-.65.05-.98.05-.63,0-1.26-.05-1.88-.14l-.11,5.03-5.63-1.61c-.05,1.04-.34,2.03-.82,2.89l6.39,1.83-.4,18.65c-1.05,1.8-2.42,2.79-4,3.28h12c-1.77-.94-3.17-2.01-4-3.28l-.32-14.91,6.82-3.55c.83-.43,1.55-1.03,2.15-1.73-.98-.39-1.9-.92-2.74-1.57Z"/><path d="m32.74,26.17c0-3.2,2.1-5.92,5.1-6.79,1.64-2.18,3.99-3.65,6.61-4.21-.44-6.24-5.64-11.17-11.99-11.17s-11.88,5.25-12.02,11.77c-.26.2-.5.43-.73.66,4.06,1.65,6.93,5.64,6.93,10.29,0,.36-.02.71-.06,1.06.49-.15.96-.34,1.4-.58,1.39.56,2.89.87,4.48.87.19,0,.38-.02.56-.03-.17-.6-.28-1.22-.28-1.87Z"/><path d="m24.63,26.72c0-5.03-4.08-9.11-9.11-9.11s-9.08,4.05-9.1,9.05c-1.42.66-2.42,2.09-2.42,3.77,0,2.3,1.86,4.16,4.16,4.16.73,0,1.4-.2,1.99-.53,1.31.96,2.89,1.58,4.61,1.73.83,1.08,2.11,1.78,3.57,1.78,2.5,0,4.52-2.02,4.52-4.52,0-.28-.03-.56-.08-.83,1.16-1.53,1.86-3.43,1.86-5.5Z"/></svg>