<?xml version="1.0" encoding="UTF-8"?><svg id="Glyph" xmlns="http://www.w3.org/2000/svg" viewBox="0 0 64 64"><path d="m49.01,32.01c-.09,0-.17.02-.26.03-.43-2.56-2.65-4.5-5.33-4.5-2.06,0-3.86,1.15-4.77,2.85-.14-.01-.28-.04-.42-.04-2.22,0-4.01,1.8-4.01,4.01s1.8,4.01,4.01,4.01c.89,0,1.71-.3,2.38-.8.82.5,1.78.8,2.81.8,1.32,0,2.54-.48,3.48-1.27.54.55,1.29.88,2.12.88,1.65,0,2.99-1.34,2.99-2.99s-1.34-2.99-2.99-2.99Z"/><path d="m34,56.72l-.38-17.83c-.54.05-1.07.08-1.62.08-.12,0-.24-.02-.36-.02-.35.56-.78,1.07-1.29,1.49l-.35,16.28c-1.05,1.8-2.42,2.79-4,3.28h12c-1.77-.94-3.17-2.01-4-3.28Z"/><path d="m10.63,26.42c0,1.13.4,2.15,1.04,2.98,1.27-3.31,4.49-5.64,8.18-5.64,4.01,0,7.46,2.75,8.47,6.51,1.86.56,3.32,2.03,3.9,3.88.11-3,2.4-5.45,5.35-5.76,1.39-1.78,3.53-2.84,5.84-2.84,2.92,0,5.46,1.69,6.66,4.21.82-.87,1.33-2.03,1.33-3.32,0-1.36-.57-2.58-1.47-3.46.72-.59,1.19-1.47,1.19-2.47,0-1.69-1.3-3.05-2.95-3.18-1.48-7.58-8.16-13.3-16.17-13.3s-14.71,5.74-16.18,13.34c-.2-.04-.4-.06-.61-.06-1.77,0-3.21,1.44-3.21,3.21,0,.75.27,1.43.69,1.97-1.25.88-2.06,2.32-2.06,3.96Z"/><path d="m26.63,32.01s-.02,0-.03,0c-.26-3.5-3.18-6.26-6.75-6.26s-6.5,2.77-6.75,6.28c-.07,0-.14-.02-.22-.02-1.76,0-3.18,1.42-3.18,3.18s1.42,3.18,3.18,3.18c.89,0,1.7-.37,2.27-.96,1.22,1.17,2.87,1.9,4.69,1.9,1.36,0,2.63-.41,3.69-1.1.71.94,1.82,1.55,3.09,1.55,2.14,0,3.87-1.73,3.87-3.87s-1.73-3.87-3.87-3.87Z"/></svg>