<?xml version="1.0" encoding="UTF-8"?><svg id="Glyph" xmlns="http://www.w3.org/2000/svg" viewBox="0 0 64 64"><path d="m51.95,24.71l-.26.25c-1.26,1.24-2.91,2-4.68,2.13l-1.16.09.9-3.98c-.42.05-.85.09-1.28.09-.24,0-.48,0-.72-.03-.66.88-1.57,1.54-2.61,1.9l-1.3,5.96c-.51,2.35-2.27,4.23-4.59,4.89l-3.42.98-6.37-4.19,2.93-2.53c.27-.24.51-.5.74-.78-1.17-.05-2.27-.43-3.19-1.07l-2.79,2.41c-.52-.73-.88-1.57-1.02-2.47l-.08-.52c-.64.12-1.28.19-1.94.19-.15,0-.29,0-.44,0-.34.54-.78,1.01-1.28,1.4l.06.9c.12,1.76,1.06,3.36,2.53,4.33l5.77,3.79-6.86,1.97c-1.68.48-3.1,1.62-3.94,3.15l-8.97,16.43h21.42c-3.91-.94-7.01-2.55-9.32-4.81l1.54-5.78c.55-2.06,2.07-3.72,4.07-4.46l14.27-5.24c2.08-.76,3.64-2.54,4.13-4.7l1.09-4.84,3.01-.4c1.63-.22,3.15-.97,4.31-2.13l1.25-1.25c-.72-.42-1.33-1-1.8-1.69Z"/><path d="m30.7,23.15c-.26.03-.52.05-.78.05-3.6,0-6.53-2.93-6.53-6.53,0-2.44,1.35-4.57,3.35-5.69-1.51-1.31-3.47-2.1-5.62-2.1-3.38,0-6.29,1.96-7.7,4.8-.3-.11-.62-.18-.96-.18-1.49,0-2.7,1.21-2.7,2.7,0,.22.03.43.08.63-1.89.62-3.27,2.38-3.27,4.47,0,2.61,2.12,4.73,4.73,4.73.46,0,.89-.08,1.3-.2.32,1.6,1.73,2.81,3.42,2.81s3.06-1.18,3.41-2.74c.55.11,1.11.17,1.68.17,2,0,3.83-.69,5.29-1.83.35,1.88,2,3.31,3.98,3.31,1.69,0,3.14-1.04,3.75-2.51-1.36-.14-2.59-.82-3.44-1.86Z"/><path d="m57.86,18.43c.4-.51.65-1.15.65-1.86,0-1.06-.55-1.99-1.37-2.53.04-.16.06-.33.06-.5,0-1.29-1.05-2.34-2.34-2.34-.12,0-.23.02-.35.03.22-.33.35-.72.35-1.15,0-1.15-.94-2.09-2.09-2.09-.04,0-.08,0-.12.01-1.53-2.34-4.18-3.89-7.18-3.89-2.26,0-4.32.88-5.85,2.31-.22-.06-.44-.09-.68-.09-1.53,0-2.77,1.24-2.77,2.77,0,.23.04.45.09.67-.5-.21-1.05-.33-1.63-.33-1.82,0-3.36,1.15-3.96,2.76-.25-.04-.49-.08-.75-.08-2.5,0-4.53,2.03-4.53,4.53s2.03,4.53,4.53,4.53c.62,0,1.21-.13,1.75-.35.42,1.27,1.6,2.2,3.01,2.2,1.11,0,2.09-.57,2.66-1.44.57,1.11,1.72,1.87,3.05,1.87,1.52,0,2.8-1,3.26-2.37.59.13,1.2.2,1.82.2,1.4,0,2.73-.34,3.9-.94.51.3,1.11.49,1.75.49.29,0,.56-.05.82-.11.24.42.6.75,1.05.93.02,1.92,1.57,3.46,3.49,3.46s3.49-1.56,3.49-3.49c0-1.44-.87-2.67-2.11-3.2Z"/></svg>