<?xml version="1.0" encoding="UTF-8"?><svg id="Glyph" xmlns="http://www.w3.org/2000/svg" viewBox="0 0 64 64"><circle cx="17.63" cy="21.72" r="9.72"/><path d="m32.23,55.04h0c-.88-3.47-1.8-8.15-1.59-11.97.12-2.23.61-4.64,1.3-7.03,3.51-.53,6.62-2.37,8.9-4.14-.66-.57-1.24-1.24-1.72-1.98-1.72,1.13-3.85,2.27-6.13,2.86.58-1.62,1.21-3.19,1.83-4.64-1.85-.02-3.61-.42-5.2-1.14-1.28,2.89-2.55,6.18-3.42,9.5-1.13-1.43-2.06-2.99-2.86-4.54-.81.45-1.68.81-2.59,1.06,1.12,2.48,2.63,4.99,4.67,7.13-.13.82-.24,1.64-.3,2.44-.39,5.12-.32,9.2-.13,12.12h0c-.4,2.39-1.99,3.99-4.01,5.29h16.83c-1.96-.96-3.81-2.62-5.57-4.96Z"/><path d="m37.64,24.91c0-4.79,3.67-8.74,8.35-9.2.01-.21.03-.43.03-.65,0-6.12-4.96-11.07-11.07-11.07-5.08,0-9.35,3.42-10.65,8.09,3.06,2.12,5.06,5.65,5.06,9.64,0,.93-.12,1.83-.33,2.7,1.71,1.09,3.74,1.72,5.92,1.72.95,0,1.86-.13,2.74-.35-.03-.29-.04-.58-.04-.88Z"/><circle cx="46.88" cy="24.91" r="7.24"/></svg>