<?xml version="1.0" encoding="UTF-8"?><svg id="Glyph" xmlns="http://www.w3.org/2000/svg" viewBox="0 0 64 64"><path d="m40.21,50.85c2.47-.44,4.41-2.3,5.02-4.69h-3.16c-.45.89-1.29,1.54-2.31,1.72l-.77.14v-1.86h-14v2.08l-2.02-.43c-.95-.2-1.74-.82-2.17-1.65h-3.17c.6,2.3,2.44,4.1,4.79,4.6l2.56.55v5.41c-1.05,1.8-2.42,2.79-4,3.28h22c-1.77-.94-3.17-2.01-4-3.28v-5.65l1.21-.22Z"/><path d="m49.01,44.16H14.99c-2.79,0-4.72-2.8-3.72-5.41l10.63-27.79c1.6-4.19,5.62-6.95,10.1-6.95h0c4.48,0,8.5,2.77,10.1,6.95l10.63,27.79c1,2.61-.93,5.41-3.72,5.41Z"/></svg>