<?xml version="1.0" encoding="UTF-8"?><svg id="Glyph" xmlns="http://www.w3.org/2000/svg" viewBox="0 0 64 64"><path d="m20,47l1,2v9l-1,2h5c0-.3.07-.61.21-.89l.79-1.58v-9.06l-.73-1.47h-5.27Z"/><polygon points="21 43 20 45 25.27 45 26 43.53 26 35.93 21 40.35 21 43"/><path d="m45,45l-1-2v-8l.67-1.34c0,.08,0,.16,0,.24,1.9.35,3.93-.15,5.49-1.53,1.56-1.38,2.29-3.34,2.17-5.27-1.9-.35-3.93.15-5.49,1.53-1.31,1.17-2.03,2.75-2.15,4.37h-5.95l-.74,1.47v9.06l.74,1.47h6.26Z"/><polygon points="45 31 44 29 44 26.35 38 21.05 38 29.53 38.74 31 45 31"/><path d="m46.84,42.63c-1.31,1.17-2.03,2.75-2.15,4.37h-5.95l-.74,1.47v9.06l.79,1.58c.14.28.21.59.21.89h6l-1-2v-9l.67-1.34c0,.08,0,.16,0,.24,1.9.35,3.93-.15,5.49-1.53,1.56-1.38,2.29-3.34,2.17-5.27-1.9-.35-3.93.15-5.49,1.53Z"/><polygon points="37 47 27 47 28 49 28 58 27 60 37 60 36 58 36 49 37 47"/><path d="m37,33h-9.69c-.12-1.62-.84-3.2-2.15-4.37-1.56-1.38-3.59-1.87-5.49-1.53-.12,1.93.61,3.89,2.17,5.27,1.56,1.38,3.59,1.87,5.49,1.53,0-.08,0-.16,0-.24l.67,1.34v8l-1,2h10l-1-2v-8l1-2Z"/><path d="m37,19h-9.69c-.12-1.62-.84-3.2-2.15-4.37-1.56-1.38-3.59-1.87-5.49-1.53-.12,1.93.61,3.89,2.17,5.27,1.56,1.38,3.59,1.87,5.49,1.53,0-.08,0-.16,0-.24l.67,1.34v8l-1,2h10l-1-2v-8l1-2Z"/><polygon points="37 4 27 4 28 6 28 15 27 17 37 17 36 15 36 6 37 4"/></svg>