<?xml version="1.0" encoding="UTF-8"?><svg id="Glyph" xmlns="http://www.w3.org/2000/svg" viewBox="0 0 64 64"><path d="m40.75,44.4c-.89.37-1.83.68-2.83.92-1.06,1.88-2.66,2.89-4.08,3.44l-.06-2.82c-.58.04-1.17.05-1.77.05h0c-.58,0-1.17-.04-1.77-.07l-.05,2.47c-.97-.69-2.04-1.63-3.05-2.78-.04,0-.08,0-.13-.01-1.25-.19-2.44-.55-3.55-1.03,1.72,3.53,3.95,5.96,6.66,7.26l-.1,4.89c-1.05,1.8-2.42,2.79-4,3.28h12c-1.77-.94-3.17-2.01-4-3.28l-.1-4.83c3.71-1.06,6-3.56,6.85-7.49Z"/><path d="m41.93,15.74c.11-.91.1-1.86-.05-2.83-.69-4.65-4.55-8.35-9.23-8.85-6.32-.67-11.66,4.26-11.66,10.44,0,.69.07,1.36.19,2.01.48,2.47-.17,4.98-1.59,7.06-1.59,2.33-2.55,5.13-2.6,8.15-.11,5.98,4.39,11,10.3,11.91,10.28,1.58,19.7-1.82,19.7-11.63,0-3.49-1.2-6.7-3.2-9.25-1.55-1.97-2.17-4.52-1.87-7.01Z"/></svg>