<?xml version="1.0" encoding="UTF-8"?><svg id="Glyph" xmlns="http://www.w3.org/2000/svg" viewBox="0 0 64 64"><path d="m55.42,21.59l-6.49,7.9c-.47.68-1.16,1.15-1.94,1.4l-2.93-2.32c-.56-.56-1.35-1.39-1.48-2.17l-1.14-4.47-1.91.32.72,4.34c.23,1.39.88,2.66,1.88,3.66l1.43,1.43-2.26.5c-1.37.3-2.58,1.01-3.52,2.05l-4.16,4.61-.43-20.11,7.59-2.71c1.4-.5,2.62-1.39,3.57-2.64l6.31-8.25-1.8-1.24-4.42,5.2-5.66-3.39-1,1.67,4.81,3.91-.38.45c-.55.72-1.48,1.35-2.33,1.66l-6.75,2.23-.06-2.98-2.06-2.64-.2,9.3-4.51-1.82c-.49-.24-1.59-.86-1.97-1.26l-6.92-6.52-1.42,1.33,6.31,6.76c.63.67,1.37,1.22,2.19,1.62l6.25,3.04-.12,5.79-7.56-2.29c-1.02-.36-2.14-1.09-3.12-2.06l-3.39-3.97-1.52.95,2.54,4.06c.52.83,1.2,1.54,1.98,2.11l-2.07,1.91c-.74.63-1.66,1.34-2.63,1.34l-5.51.05-.34,2.15h5.23c1.68,0,3.31-.6,4.59-1.7l3-2.57,8.71,3.07-.14,6.52-2.82-.45c-.38-.06-1.44-.53-1.75-.78l-3.5-2.23-1.1,1.48,3.04,2.57c.72.58,1.58.97,2.49,1.11l3.59.55-.36,16.66c-1.05,1.8-2.42,2.79-4,3.28h12c-1.77-.94-3.17-2.01-4-3.28l-.29-13.53,6.3-7.3c.52-.57,1.19-.97,1.94-1.13l5.11-1.41c1.64-.36,3.07-1.32,4.03-2.7l6.14-7.79-1.81-1.27Z"/></svg>