<?xml version="1.0" encoding="UTF-8"?><svg id="Glyph" xmlns="http://www.w3.org/2000/svg" viewBox="0 0 64 64"><path d="m22.09,21.96c-.57,0-1.1.16-1.57.43-.64-1.66-2.23-2.84-4.11-2.84s-3.46,1.17-4.1,2.81c-.45-.25-.96-.4-1.52-.4-1.77,0-3.21,1.44-3.21,3.21s1.44,3.21,3.21,3.21h11.3c1.77,0,3.21-1.44,3.21-3.21s-1.44-3.21-3.21-3.21Z"/><path d="m44.27,24.6c-.06-.95.11-2.03.97-2.78,1.71-1.48,3.58-1.83,4.97-3h-5.2c-1.34.51-2.57,1.03-3.16,1.88-.46.66-.77,1.26-.97,1.79-2.03-1.02-3.99-1.96-4.58-3.87-.3-.97-.51-1.84-.66-2.61h-2.71c.08,1.17.2,2.44.37,3.45,1.23,7.39,8.97,6.06,8.59,10.27-.22,2.47-5.18,2.9-10.12,4.25-.96-.81-2.31-1.75-3.77-2.23-1.99-.65-3.98-.58-6.87-.58-.89,0-1.6-.34-2.16-.8h-3.42c.57,1.32,1.85,2.88,4.71,3.18,3.12.33,4.49,1.96,5.09,3.24-1.4,1.04-2.51,2.38-3.08,4.18-.22.69-.35,1.37-.43,2.03h6.27c.09-.25.19-.5.3-.75,1.99-4.34,8.6-7.02,8.88-7.13.51-.21,1.09.05,1.3.56.2.51-.05,1.09-.56,1.3-.06.02-6.05,2.46-7.76,6.02h6.78s0-.04.01-.06c1.45-4.34,9.99-8.72,9.19-14.67-.22-1.63-.98-2.77-1.99-3.67Z"/><path d="m39.15,13.62c0-2.87,2.34-5.21,5.21-5.21.2,0,.39.01.58.03.08-.11.18-.21.27-.31-.08,0-.16-.02-.24-.02-.15,0-.3.02-.44.04-.66-1.33-2.02-2.25-3.61-2.25-.84,0-1.61.25-2.26.69-.84-1.68-2.56-2.85-4.57-2.85-2.12,0-3.94,1.29-4.72,3.12-.7-.59-1.6-.96-2.59-.96-1.74,0-3.2,1.1-3.78,2.63-.44-.26-.95-.42-1.5-.42-1.63,0-2.95,1.32-2.95,2.95s1.32,2.95,2.95,2.95h17.69c-.01-.13-.04-.26-.04-.39Z"/><path d="m55.65,10.41c-.57,0-1.1.16-1.57.43-.64-1.66-2.23-2.84-4.11-2.84s-3.46,1.17-4.1,2.81c-.45-.25-.96-.4-1.52-.4-1.77,0-3.21,1.44-3.21,3.21s1.44,3.21,3.21,3.21h11.3c1.77,0,3.21-1.44,3.21-3.21s-1.44-3.21-3.21-3.21Z"/><rect x="17" y="57" width="6" height="3"/><rect x="41" y="57" width="6" height="3"/><rect x="14" y="49.58" width="36" height="7.42"/><rect x="12" y="45" width="40" height="2.58"/></svg>