<?xml version="1.0" encoding="UTF-8"?><svg id="Glyph" xmlns="http://www.w3.org/2000/svg" viewBox="0 0 64 64"><path d="m38.5,56.72v-13.72l.25-.51c-.52-.07-1.01-.24-1.46-.48-.61.34-1.31.52-2.03.52-.56,0-1.12-.12-1.63-.33-.51.22-1.07.33-1.63.33s-1.12-.12-1.63-.33c-.51.22-1.07.33-1.63.33-.72,0-1.42-.19-2.03-.52-.48.27-1.02.43-1.57.5l.36.5v13.72c-1.05,1.8-2.42,2.79-4,3.28h21c-1.77-.94-3.17-2.01-4-3.28Z"/><path d="m60,30.3c0-.95-.32-1.82-.84-2.53.29-.38.47-.84.47-1.36,0-.88-.51-1.63-1.25-2,.04-.22.07-.45.07-.68,0-1.65-.94-3.07-2.3-3.79.14-.29.22-.61.22-.96,0-1.23-1-2.24-2.23-2.24-.06,0-.11.02-.16.02-.42-1.64-1.77-2.89-3.46-3.16,0-.03.01-.05.01-.07,0-1.24-1-2.24-2.24-2.24-.21,0-.4.03-.6.09-.73-1.27-2.07-2.13-3.63-2.16-.24-.97-1.12-1.7-2.16-1.7-.27,0-.52.06-.75.14-.77-.74-1.81-1.19-2.97-1.19-.23,0-.45.03-.67.06-.37-.73-1.12-1.25-2-1.25-.14,0-.28.02-.41.04-.78-.81-1.88-1.32-3.1-1.32s-2.32.51-3.1,1.32c-.13-.02-.27-.04-.41-.04-.88,0-1.63.52-2,1.25-.22-.03-.44-.06-.67-.06-1.16,0-2.2.45-2.97,1.19-.23-.08-.48-.14-.75-.14-1.04,0-1.92.73-2.16,1.7-1.56.03-2.9.89-3.63,2.16-.2-.06-.39-.09-.6-.09-1.24,0-2.24,1-2.24,2.24,0,.02.01.04.01.07-1.69.27-3.04,1.52-3.46,3.16-.05,0-.1-.02-.16-.02-1.23,0-2.23,1.01-2.23,2.24,0,.35.08.67.22.96-1.36.72-2.3,2.14-2.3,3.79,0,.23.03.46.07.68-.74.37-1.25,1.12-1.25,2,0,.52.18.98.47,1.36-.52.71-.84,1.58-.84,2.53,0,1.95,1.3,3.58,3.08,4.12-.29.49-.47,1.06-.47,1.67,0,1.42.91,2.62,2.18,3.07v5.93c0,.55.45,1,1,1s1-.45,1-1v-5.74h.11c.38.7,1.11,1.18,1.95,1.18.41,0,.78-.12,1.11-.31v2.5c0,.74-.15,1.46-.44,2.15-.4.93-.6,1.92-.6,2.94v3.2c0,.55.45,1,1,1s1-.45,1-1v-3.2c0-.74.15-1.46.44-2.15.4-.93.6-1.92.6-2.94v-2.4c.27.12.57.21.89.21.83,0,1.53-.46,1.92-1.13v2.16c0,1.13.05,2.26.14,3.38.09,1.06.13,2.15.13,3.22v2.29c0,.55.45,1,1,1s1-.45,1-1v-2.29c0-1.13-.05-2.26-.14-3.38-.09-1.06-.13-2.15-.13-3.22v-1.04s.03,0,.05,0c.83,0,1.55-.46,1.93-1.14.38.68,1.1,1.14,1.93,1.14s1.58-.48,1.95-1.18h.15c.38.7,1.11,1.18,1.95,1.18.65,0,1.22-.28,1.63-.72.41.44.98.72,1.63.72s1.22-.28,1.63-.72c.41.44.98.72,1.63.72.85,0,1.58-.48,1.95-1.18h.15c.38.7,1.11,1.18,1.95,1.18s1.55-.46,1.93-1.14c.38.68,1.1,1.14,1.93,1.14.02,0,.03,0,.05,0v1.04c0,1.07-.04,2.15-.13,3.22-.09,1.12-.14,2.26-.14,3.38v2.29c0,.55.45,1,1,1s1-.45,1-1v-2.29c0-1.07.04-2.15.13-3.22.09-1.12.14-2.26.14-3.38v-2.16c.38.67,1.09,1.13,1.92,1.13.32,0,.61-.09.89-.21v2.4c0,1.02.2,2,.6,2.94.29.68.44,1.4.44,2.15v3.2c0,.55.45,1,1,1s1-.45,1-1v-3.2c0-1.02-.2-2-.6-2.94-.29-.68-.44-1.4-.44-2.15v-2.5c.33.19.7.31,1.11.31.85,0,1.58-.48,1.95-1.18h.11v5.74c0,.55.45,1,1,1s1-.45,1-1v-5.93c1.27-.44,2.18-1.64,2.18-3.07,0-.61-.18-1.18-.47-1.67,1.78-.54,3.08-2.17,3.08-4.12Z"/></svg>