<?xml version="1.0" encoding="UTF-8"?><svg id="Glyph" xmlns="http://www.w3.org/2000/svg" viewBox="0 0 64 64"><path d="m36,56.72v-6.33c-.32-.08-.62-.18-.9-.3-.74.5-1.77.94-3.1.94s-2.37-.44-3.1-.94c-.28.12-.58.22-.9.3v6.33c-1.05,1.8-2.42,2.79-4,3.28h16c-1.77-.94-3.17-2.01-4-3.28Z"/><path d="m48.28,44.37c-.04-.59-1.68-4.29-3.3-7.82-.11.05-.2.1-.31.14-.29.1-.6.15-.93.15-.5,0-1.04-.13-1.54-.31-.54.59-1.28,1.12-2.22,1.26-.25.04-.49.05-.71.05-.6,0-1.13-.11-1.59-.28-.55.47-1.28.89-2.23,1.06-.29.05-.58.08-.88.08-1,0-1.9-.29-2.58-.6-.67.3-1.58.6-2.58.6-.3,0-.59-.03-.88-.08-.95-.17-1.68-.59-2.23-1.06-.46.17-.99.28-1.59.28-.23,0-.46-.02-.71-.05-.94-.14-1.68-.67-2.22-1.26-.5.18-1.04.31-1.54.31-.33,0-.64-.05-.93-.15-.11-.04-.21-.1-.31-.14-1.61,3.52-3.25,7.22-3.3,7.82-.08,1.17.22,1.73,1.12,2.23s2.53-.45,2.53-.45c0,0,1.02,1.46,2.2,1.66,1.77.3,2.98-.93,2.98-.93,0,0,.68,1.23,1.92,1.57,1.24.34,2.69-.84,2.69-.84,0,0,.93,1.41,2.83,1.41s2.83-1.41,2.83-1.41c0,0,1.46,1.18,2.69.84,1.24-.34,1.92-1.57,1.92-1.57,0,0,1.22,1.24,2.98.93,1.18-.2,2.2-1.66,2.2-1.66,0,0,1.63.96,2.53.45s1.2-1.06,1.12-2.23Z"/><path d="m20,34.81c.72.25,2.5-.8,2.5-.8,0,0,.74,1.66,1.81,1.82,1.55.23,2.45-.89,2.45-.89,0,0,.59,1.46,2.13,1.73,1.57.28,3.1-.84,3.1-.84,0,0,1.53,1.12,3.1.84,1.54-.28,2.13-1.73,2.13-1.73,0,0,.91,1.12,2.45.89,1.07-.16,1.81-1.82,1.81-1.82,0,0,1.79,1.05,2.5.8,1.46-.51,1.73-1.67,1.4-3.01-.19-.76-2.34-4.59-4.17-7.76-.05,0-.09.01-.15.01h0c-.27,0-.53-.02-.77-.05-.55.5-1.33,1.05-2.33,1.34-.35.1-.72.15-1.1.15-.69,0-1.35-.17-1.92-.4-.71.66-1.68,1.11-2.87,1.11h-.17c-1.19,0-2.16-.45-2.87-1.11-.57.23-1.23.4-1.92.4-.38,0-.75-.05-1.1-.15-1-.29-1.78-.83-2.33-1.34-.24.03-.51.05-.77.05-.06,0-.1-.01-.15-.01-1.83,3.17-3.98,7-4.17,7.76-.33,1.34-.06,2.5,1.4,3.01Z"/><path d="m24.41,21.82s.8,1.21,2.16,1.6c1.42.4,3.1-.98,3.1-.98,0,0,.46,1.83,2.33,1.77,1.86.06,2.33-1.77,2.33-1.77,0,0,1.68,1.39,3.1.98,1.37-.39,2.16-1.6,2.16-1.6,0,0,2.93.91,2.88-.86-.03-.95-1.87-4.08-3.57-6.8-.71.29-1.42.29-1.73.29h0c-.44,0-.88-.04-1.25-.09-.67.48-1.69.97-2.98.97-.31,0-.62-.03-.92-.08-.31.06-.62.08-.92.08-1.29,0-2.31-.5-2.98-.97-.38.05-.82.09-1.26.09-.31,0-1.02,0-1.74-.29-1.7,2.72-3.54,5.85-3.57,6.8-.06,1.77,2.88.86,2.88.86Z"/><path d="m28.69,12.24s1.29,1.57,3.31.96c2.02.61,3.31-.96,3.31-.96,0,0,3.58.82,3.29-.71-.29-1.53-4.65-7.53-6.61-7.53s-6.32,6.01-6.61,7.53c-.29,1.53,3.29.71,3.29.71Z"/></svg>