<?xml version="1.0" encoding="UTF-8"?><svg id="Glyph" xmlns="http://www.w3.org/2000/svg" viewBox="0 0 64 64"><path d="m47.95,30.17l.86-4.02-2.24-.5-2,9c-.32,1.44-1.26,2.63-2.59,3.27l-8.41,4.05.1-18,4.34-7.36,3.24-1.54c1.17-.62,2.12-1.56,2.77-2.71l4.08-7.37-1.87-.97-4.17,6.97c-.37.65-1.34,1.43-2,1.78l-3.03,1.62-3.54-4.86-1.65,1.34c.05-.06.11-.11.16-.17-.5-1.08-1.51-1.89-2.77-2.05-1.26-.16-2.45.37-3.19,1.29.5,1.08,1.51,1.89,2.77,2.05,1.18.15,2.28-.31,3.03-1.12l3.39,5.41-4.23,6.73-.35,11.75-6.23-3.3c-.38-.19-1.14-.67-1.42-.99l-6.34-6.87-1.68,1.48,4.27,4.84-5.08,1.47c-1.24.37-2.51.74-3.72.3l-2.84-.83-.68,2.06,2.2.8c1,.37,2.06.55,3.12.55.87,0,1.73-.12,2.56-.37l6.31-1.85.22.25c.53.6,1.17,1.09,1.89,1.46l7.33,3.7-.57,19.26c-1.05,1.8-2.42,2.79-4,3.28h12c-1.77-.94-3.17-2.01-4-3.28l-.34-11.52,9.01-4.7c2.16-1.04,3.7-2.98,4.22-5.32l.39-1.81,6.84-2.65-.44-1.89-5.72,1.33Z"/><path d="m19.1,21.1c.3-1.24-.1-2.47-.93-3.32-1.13.37-2.04,1.29-2.34,2.53-.3,1.24.1,2.47.93,3.32,1.13-.37,2.04-1.29,2.34-2.53Z"/><path d="m8.59,27.52c-.28-1.24-1.19-2.17-2.31-2.56-.84.83-1.26,2.06-.98,3.3s1.19,2.17,2.31,2.56c.84-.83,1.26-2.06.98-3.3Z"/><path d="m45.26,10.15c.33,1.14,1.22,2.09,2.44,2.43,1.23.34,2.47,0,3.35-.81-.33-1.14-1.22-2.09-2.44-2.43-1.23-.34-2.47,0-3.35.81Z"/><path d="m54.97,22.94c-1.13.37-2.04,1.29-2.34,2.53-.3,1.24.1,2.47.93,3.32,1.13-.37,2.04-1.29,2.34-2.53s-.1-2.47-.93-3.32Z"/><path d="m49.23,36.5c-1.26-.16-2.45.37-3.19,1.29.5,1.08,1.51,1.89,2.77,2.05s2.45-.37,3.19-1.29c-.5-1.08-1.51-1.89-2.77-2.05Z"/></svg>