<svg fill="#000000" xmlns="http://www.w3.org/2000/svg"  viewBox="0 0 48 48" width="24px" height="24px"><path d="M 11.5 5 C 8.4802259 5 6 7.4802259 6 10.5 C 6 12.414955 7.5850452 14 9.5 14 L 11.5 14 C 15.660499 14 19 17.339501 19 21.5 L 19 26.054688 C 18.064288 25.44703 16.966539 25.075034 15.789062 25.015625 C 15.134844 22.709315 13.005489 21 10.5 21 L 5.5 21 C 2.4802259 21 0 23.480226 0 26.5 C 0 28.414955 1.5850452 30 3.5 30 L 12.5 30 C 13.870969 30 15.062561 29.181843 15.634766 28.017578 C 17.52266 28.108439 19 29.626345 19 31.539062 L 19 35.5 C 19 36.23225 18.755255 37.541945 18.191406 38.470703 C 17.627557 39.399461 16.955465 40 15.5 40 A 1.50015 1.50015 0 0 0 15.5 43 L 22.056641 43 L 32.5 43 A 1.50015 1.50015 0 0 0 32.5 40 C 31.044535 40 30.372443 39.399461 29.808594 38.470703 C 29.244745 37.541945 29 36.23225 29 35.5 L 29 34.5 C 29 30.339501 32.339501 27 36.5 27 L 44.5 27 C 46.414955 27 48 25.414955 48 23.5 C 48 20.480226 45.519774 18 42.5 18 L 29.5 18 C 29.445897 18 29.393589 18.006231 29.339844 18.007812 C 30.155968 15.666826 32.368997 14 35 14 L 38.5 14 C 40.414955 14 42 12.414955 42 10.5 C 42 7.4802259 39.519774 5 36.5 5 L 11.5 5 z M 11.5 8 L 36.5 8 C 37.898226 8 39 9.1017741 39 10.5 C 39 10.795045 38.795045 11 38.5 11 L 35 11 L 11.5 11 L 9.5 11 C 9.2049548 11 9 10.795045 9 10.5 C 9 9.1017741 10.101774 8 11.5 8 z M 18.828125 14 L 28.318359 14 C 27.042768 15.418289 26.2087 17.234861 26.039062 19.240234 C 24.7989 20.25179 24 21.788442 24 23.5 C 24 25.414955 25.585045 27 27.5 27 L 29.171875 27 C 27.218832 28.908772 26 31.565636 26 34.5 L 26 35.5 C 26 36.759977 26.29244 38.436971 27.232422 40 L 22.056641 40 L 20.767578 40 C 21.70756 38.436971 22 36.759977 22 35.5 L 22 29.5 L 22 21.5 C 22 18.565636 20.781168 15.908772 18.828125 14 z M 29.5 21 L 42.5 21 C 43.898226 21 45 22.101774 45 23.5 C 45 23.795045 44.795045 24 44.5 24 L 36.5 24 L 27.5 24 C 27.204955 24 27 23.795045 27 23.5 C 27 22.101774 28.101774 21 29.5 21 z M 5.5 24 L 10.5 24 C 11.898226 24 13 25.101774 13 26.5 C 13 26.795045 12.795045 27 12.5 27 L 3.5 27 C 3.2049548 27 3 26.795045 3 26.5 C 3 25.101774 4.1017741 24 5.5 24 z"/></svg>