<svg fill="#000000" xmlns="http://www.w3.org/2000/svg"  viewBox="0 0 50 50" width="50px" height="50px"><path d="M 45.017578 3 A 1.0001 1.0001 0 0 0 44.533203 3.1152344 C 44.533203 3.1152344 43.545746 3.6357788 42.449219 4.1367188 C 41.900955 4.3871887 41.326225 4.6319569 40.859375 4.796875 C 40.392525 4.9617931 39.929572 4.9831585 40.125 5.0078125 C 33.041331 4.1115246 22.88819 7.6977473 14.292969 16.292969 C 9.3756746 21.210768 5.5238735 26.160532 3.7695312 30.888672 C 2.0151892 35.616812 2.5198145 40.298158 6.3203125 43.837891 C 10.360406 47.599835 15.247077 48.106791 20.095703 46.34375 C 24.944329 44.580709 29.87417 40.692186 34.71875 35.695312 C 43.58076 26.555124 46.012566 17.427702 44.992188 8.8808594 C 45.013928 9.0613687 45.020428 8.5676791 45.105469 8.0917969 C 45.190719 7.6147605 45.314888 7.0232246 45.443359 6.4511719 C 45.700302 5.3070664 45.96875 4.2460938 45.96875 4.2460938 A 1.0001 1.0001 0 0 0 45.017578 3 z M 33.884766 10.007812 C 34.435766 9.9438125 34.929188 10.335766 34.992188 10.884766 C 35.056188 11.433766 34.662281 11.929187 34.113281 11.992188 C 26.742281 12.847188 10.882891 28.389578 8.9628906 35.267578 C 8.8408906 35.710578 8.438 36 8 36 C 7.911 36 7.8214687 35.987891 7.7304688 35.962891 C 7.1984687 35.814891 6.8861562 35.263422 7.0351562 34.732422 C 9.1811563 27.042422 25.592766 10.969812 33.884766 10.007812 z M 36.021484 14 C 36.277234 14.0055 36.531156 14.108641 36.722656 14.306641 C 37.104656 14.705641 37.090406 15.338703 36.691406 15.720703 L 12.691406 38.720703 C 12.497406 38.906703 12.249 39 12 39 C 11.737 39 11.474344 38.895406 11.277344 38.691406 C 10.895344 38.292406 10.909594 37.659344 11.308594 37.277344 L 35.308594 14.277344 C 35.508094 14.086344 35.765734 13.9945 36.021484 14 z M 39.833984 16.013672 C 39.962031 15.992203 40.096219 15.995094 40.230469 16.027344 C 40.768469 16.154344 41.100656 16.692469 40.972656 17.230469 C 39.035656 25.382469 25.831359 40.877469 15.193359 42.980469 C 15.127359 42.993469 15.062047 43 14.998047 43 C 14.530047 43 14.113531 42.670359 14.019531 42.193359 C 13.912531 41.652359 14.264641 41.125578 14.806641 41.017578 C 24.604641 39.081578 37.245344 24.268578 39.027344 16.767578 C 39.123344 16.364828 39.449844 16.078078 39.833984 16.013672 z"/></svg>