<svg fill="#000000" xmlns="http://www.w3.org/2000/svg"  viewBox="0 0 48 48" width="24px" height="24px"><path d="M 17 3 C 13.913537 3 11.2854 4.8024192 9.9550781 7.3808594 C 6.5515978 8.3016808 4 11.320354 4 15 C 4 15.574703 4.1473144 16.105114 4.2636719 16.644531 C 2.9312359 18.074381 2 19.899873 2 22 C 2 24.935934 3.6405978 27.441906 6.0136719 28.832031 C 6.0120632 28.891519 6 28.939174 6 29 C 6 33.400585 9.599415 37 14 37 C 15.785113 37 17.345039 36.28515 18.677734 35.291016 C 18.780321 35.374921 18.894072 35.443663 19 35.523438 L 19 37.5 C 19 38.23225 18.755255 39.541945 18.191406 40.470703 C 17.627557 41.399461 16.955465 42 15.5 42 A 1.50015 1.50015 0 0 0 15.5 45 L 32.5 45 A 1.50015 1.50015 0 0 0 32.5 42 C 31.044535 42 30.372443 41.399461 29.808594 40.470703 C 29.244745 39.541945 29 38.23225 29 37.5 L 29 34.654297 C 29.633537 34.864536 30.297451 35 31 35 C 33.027211 35 34.737457 34.001177 36.017578 32.615234 C 36.664531 32.786057 37.298029 33 38 33 C 42.400585 33 46 29.400585 46 25 C 46 23.300317 45.352005 21.797673 44.443359 20.5 C 45.352005 19.202327 46 17.699683 46 16 C 46 11.87186 42.794549 8.5642829 38.769531 8.15625 C 37.513568 6.2768793 35.419505 5 33 5 C 32.302661 5 31.690745 5.2518924 31.056641 5.4433594 C 29.775021 4.0262525 28.052771 3 26 3 C 24.325346 3 22.885791 3.7209131 21.677734 4.7089844 C 20.345039 3.7148502 18.785113 3 17 3 z M 17 6 C 18.440026 6 19.717381 6.6039381 20.632812 7.5742188 A 1.50015 1.50015 0 0 0 22.890625 7.4882812 C 23.625737 6.5796012 24.733806 6 26 6 C 27.425685 6 28.655857 6.7378772 29.369141 7.8515625 A 1.50015 1.50015 0 0 0 31.279297 8.3945312 C 31.807528 8.1414513 32.384216 8 33 8 C 34.56597 8 35.898411 8.890878 36.560547 10.1875 A 1.50015 1.50015 0 0 0 37.896484 11.005859 C 38.074342 11.005859 38.107857 11 38 11 C 40.779415 11 43 13.220585 43 16 C 43 17.350975 42.468269 18.558698 41.601562 19.460938 A 1.50015 1.50015 0 0 0 41.601562 21.539062 C 42.468269 22.441303 43 23.649025 43 25 C 43 27.779415 40.779415 30 38 30 C 37.343892 30 36.724405 29.870777 36.144531 29.638672 A 1.50015 1.50015 0 0 0 34.335938 30.203125 C 33.618048 31.286154 32.404741 32 31 32 C 30.151613 32 29.380317 31.739995 28.732422 31.292969 A 1.50015 1.50015 0 0 0 26.548828 31.837891 C 26.484332 31.96223 26.408576 32.07898 26.332031 32.195312 A 1.50015 1.50015 0 0 0 26.207031 32.376953 C 25.481375 33.358594 24.325745 34 23 34 C 22.408439 34 21.85414 33.868099 21.353516 33.640625 A 1.50015 1.50015 0 0 0 21.082031 33.492188 C 20.626707 33.240312 20.217415 32.915667 19.890625 32.511719 A 1.50015 1.50015 0 0 0 17.632812 32.425781 C 16.717381 33.396064 15.440026 34 14 34 C 11.220585 34 9 31.779415 9 29 C 9 28.768698 9.0241266 28.52199 9.0644531 28.25 A 1.50015 1.50015 0 0 0 8.1386719 26.638672 C 6.301886 25.900115 5 24.115858 5 22 C 5 20.453226 5.6930691 19.090063 6.7890625 18.169922 A 1.50015 1.50015 0 0 0 7.25 16.552734 C 7.0884616 16.061163 7 15.541694 7 15 C 7 12.49485 8.8211252 10.451991 11.205078 10.070312 A 1.50015 1.50015 0 0 0 12.359375 9.1464844 C 13.095521 7.3053501 14.881926 6 17 6 z M 26.5 10 A 1.5 1.5 0 0 0 26.5 13 A 1.5 1.5 0 0 0 26.5 10 z M 18.5 11 A 1.5 1.5 0 0 0 18.5 14 A 1.5 1.5 0 0 0 18.5 11 z M 11.5 14 A 1.5 1.5 0 0 0 11.5 17 A 1.5 1.5 0 0 0 11.5 14 z M 37.5 14 A 1.5 1.5 0 0 0 37.5 17 A 1.5 1.5 0 0 0 37.5 14 z M 24.5 17 A 1.5 1.5 0 0 0 24.5 20 A 1.5 1.5 0 0 0 24.5 17 z M 32.5 18 A 1.5 1.5 0 0 0 32.5 21 A 1.5 1.5 0 0 0 32.5 18 z M 17.5 20 A 1.5 1.5 0 0 0 17.5 23 A 1.5 1.5 0 0 0 17.5 20 z M 10.5 21 A 1.5 1.5 0 0 0 10.5 24 A 1.5 1.5 0 0 0 10.5 21 z M 38.5 24 A 1.5 1.5 0 0 0 38.5 27 A 1.5 1.5 0 0 0 38.5 24 z M 30.5 25 A 1.5 1.5 0 0 0 30.5 28 A 1.5 1.5 0 0 0 30.5 25 z M 14.5 27 A 1.5 1.5 0 0 0 14.5 30 A 1.5 1.5 0 0 0 14.5 27 z M 23.5 27 A 1.5 1.5 0 0 0 23.5 30 A 1.5 1.5 0 0 0 23.5 27 z M 26 36.300781 L 26 37.5 C 26 38.759977 26.29244 40.436971 27.232422 42 L 20.767578 42 C 21.70756 40.436971 22 38.759977 22 37.5 L 22 36.90625 C 22.324015 36.963092 22.656199 37 23 37 C 24.078569 37 25.093237 36.746657 26 36.300781 z"/></svg>