<svg fill="#000000" xmlns="http://www.w3.org/2000/svg"  viewBox="0 0 48 48" width="24px" height="24px"><path d="M 33.5 2.0273438 C 33.068 2.0273438 32.636063 2.1961563 32.351562 2.5351562 C 32.123562 2.8061562 28.838609 6.76 26.224609 12 C 27.108609 12.495 27.962203 13.034281 28.783203 13.613281 C 30.382203 10.361281 32.303953 7.5623125 33.501953 5.9453125 C 35.854953 9.1173125 41 16.834578 41 23.642578 C 41 26.672578 40.561344 29.058031 39.902344 30.957031 C 40.213344 33.710031 39.824781 36.022609 39.300781 37.724609 C 41.712781 35.260609 44 30.989578 44 23.642578 C 44 13.781578 35.030438 2.9891562 34.648438 2.5351562 C 34.363937 2.1961563 33.932 2.0273438 33.5 2.0273438 z M 5.4804688 8 A 1.50015 1.50015 0 0 0 4.0058594 9.6308594 C 4.0058594 9.6308594 4.365623 13.787076 5.7148438 18.914062 C 7.0640643 24.041051 9.3626212 30.216137 13.558594 34.412109 C 19.571085 40.424601 25.108971 42.046772 29.150391 41.998047 C 31.270957 41.972483 32.983107 41.4818 34.146484 41.019531 C 34.817827 43.00788 35.007813 44.658203 35.007812 44.658203 A 1.500551 1.500551 0 1 0 37.992188 44.341797 C 37.992188 44.341797 37.726131 41.849145 36.617188 39.052734 C 37.13561 38.010032 37.964515 35.931648 37.998047 33.150391 C 38.046767 29.108971 36.424601 23.571085 30.412109 17.558594 C 26.216137 13.362621 20.041051 11.064064 14.914062 9.7148438 C 9.787076 8.365623 5.6308594 8.0058594 5.6308594 8.0058594 A 1.50015 1.50015 0 0 0 5.4804688 8 z M 7.234375 11.234375 C 8.7959165 11.442611 11.051638 11.801718 14.150391 12.617188 C 19.020154 13.898717 24.769988 16.15866 28.291016 19.679688 C 33.853524 25.242196 35.037072 29.878404 34.998047 33.115234 C 34.98792 33.95526 34.901193 34.665597 34.783203 35.277344 C 27.933878 23.10194 15.224609 16.1875 15.224609 16.1875 A 1.50015 1.50015 0 0 0 14.509766 15.990234 A 1.50015 1.50015 0 0 0 13.775391 18.8125 C 13.775391 18.8125 26.952965 26.200184 32.978516 38.275391 C 32.207908 38.600064 30.977306 38.975597 29.115234 38.998047 C 25.878404 39.037077 21.242195 37.853524 15.679688 32.291016 C 12.158659 28.769988 9.8987169 23.020154 8.6171875 18.150391 C 7.8017181 15.051638 7.4426111 12.795917 7.234375 11.234375 z"/></svg>