<svg fill="#000000" xmlns="http://www.w3.org/2000/svg"  viewBox="0 0 50 50" width="50px" height="50px"><path d="M 25.328125 2 C 22.596125 2 20.283969 3.7543437 19.542969 6.1523438 C 18.282969 5.1513437 16.844359 4.8877812 15.693359 5.0507812 C 12.930359 5.4387813 11 7.7669375 11 10.710938 C 11 12.389938 11.863969 14.659172 13.792969 15.951172 C 15.189969 16.887172 17.670781 17.655266 21.675781 16.197266 C 22.872781 17.479266 24.824516 18.25 26.978516 18.25 L 27.001953 18.25 C 28.374554 18.245876 29.632226 17.938797 30.675781 17.394531 C 30.28978 18.581125 29.454167 20.175103 27.611328 20.953125 A 1.0004596 1.0004596 0 0 0 27.234375 21.232422 C 24.681828 20.821168 22.166558 21.000963 19.818359 21.800781 C 18.628746 20.092113 16.667668 19 14.5 19 C 12.111 19 9.9513125 20.306703 8.8203125 22.345703 C 8.2433125 22.117703 7.628 22 7 22 C 4.243 22 2 24.243 2 27 C 2 29.757 4.2429063 32 7.0039062 32 L 11.349609 31.984375 C 11.523261 34.069649 12.522559 35.810342 14 36.873047 C 19.252 40.652047 26.3125 34.0785 27.1875 37.4375 C 27.564533 38.886322 25.836123 40.736036 23.6875 42 L 15 42 C 14.621 42 14.275469 42.213734 14.105469 42.552734 C 13.936469 42.891734 13.971219 43.296609 14.199219 43.599609 L 17.199219 47.599609 C 17.388219 47.851609 17.686 48 18 48 L 36 48 C 36.314 48 36.611781 47.851609 36.800781 47.599609 L 39.800781 43.599609 C 40.028781 43.296609 40.063531 42.891734 39.894531 42.552734 C 39.724531 42.213734 39.379 42 39 42 L 31.371094 42 C 32.276363 40.954146 32.763244 39.999177 32.916016 38.210938 C 33.051016 36.641937 32.474016 35.336937 31.166016 34.335938 C 25.439016 29.952938 20.811437 37.376422 15.773438 34.857422 C 14.552587 34.245606 14.177284 32.935073 14.058594 31.974609 L 21.003906 31.949219 C 21.049906 31.949219 21.096578 31.945453 21.142578 31.939453 C 23.341578 31.622453 25 29.714 25 27.5 C 25 25.548159 23.743031 23.899175 22.001953 23.277344 C 25.08782 22.651486 28.447374 23.167884 31.726562 24.753906 C 31.268087 25.563289 31 26.498957 31 27.5 C 31 30.532 33.411 33 36.375 33 L 43.25 33 C 45.869 33 48 30.820578 48 28.142578 C 48 25.464578 45.869 23.285156 43.25 23.285156 C 42.299 23.285156 41.383375 23.580141 40.609375 24.119141 C 39.605375 22.801141 38.053 22 36.375 22 C 35.122827 22 33.971334 22.444386 33.056641 23.181641 C 32.026651 22.653479 30.986628 22.22324 29.943359 21.886719 C 31.823829 20.438979 32.54385 18.3602 32.820312 17.117188 C 33.857099 17.705676 35.121385 17.977828 36.472656 17.869141 C 38.218656 17.726141 39.727672 17.000797 40.513672 15.966797 C 42.593672 15.724797 44 14.162 44 12 C 44 9.622 42.2535 7.829125 39.9375 7.828125 C 39.7455 7.828125 39.553281 7.8412344 39.363281 7.8652344 L 39.363281 7.8007812 C 39.363281 4.6027813 36.656125 2 33.328125 2 C 31.833125 2 30.425125 2.5285625 29.328125 3.4765625 C 28.232125 2.5285625 26.824125 2 25.328125 2 z"/></svg>