<svg fill="#000000" xmlns="http://www.w3.org/2000/svg"  viewBox="0 0 48 48" width="24px" height="24px"><path d="M 42.470703 3.9863281 A 1.50015 1.50015 0 0 0 41.439453 4.4394531 L 40.009766 5.8671875 C 38.462027 4.6640079 36.943201 4.129373 35.654297 4.0234375 C 34.053094 3.891834 32.824287 4.3854028 32.369141 4.5839844 C 32.122283 4.691391 31.255957 4.838841 30.078125 4.96875 C 28.900293 5.098659 27.393734 5.2671568 25.671875 5.6914062 C 22.228156 6.5399052 17.926897 8.4402904 13.412109 12.955078 C 9.2611791 17.106009 7.53321 21.514836 6.6699219 25.287109 C 5.8066337 29.059383 5.6586263 32.254888 4.9921875 33.810547 C 4.6647439 34.574968 4.174841 35.918114 4.0351562 37.490234 C 3.8954715 39.062355 4.1334262 41.000614 5.5664062 42.433594 C 6.9997644 43.866952 8.9375351 44.104687 10.509766 43.964844 C 12.081996 43.825001 13.425436 43.335331 14.189453 43.007812 C 15.74526 42.341692 18.94081 42.193382 22.712891 41.330078 C 26.484972 40.466774 30.893075 38.739209 35.044922 34.587891 C 39.55973 30.073082 41.460233 25.771823 42.308594 22.328125 C 42.732774 20.606276 42.901302 19.099633 43.03125 17.921875 C 43.161198 16.744117 43.30857 15.879533 43.416016 15.632812 L 43.414062 15.632812 C 43.611579 15.179721 44.108151 13.948505 43.976562 12.345703 C 43.870793 11.056921 43.336005 9.5379162 42.132812 7.9902344 L 43.560547 6.5605469 A 1.50015 1.50015 0 0 0 42.470703 3.9863281 z M 34.791016 7.0117188 C 34.97898 6.9967607 35.184579 6.9952921 35.408203 7.0136719 C 36.302701 7.0871909 37.503514 7.4644516 39.019531 8.9804688 C 40.536036 10.496533 40.914869 11.697599 40.988281 12.591797 C 41.061691 13.485995 40.813547 14.090687 40.664062 14.433594 C 40.228009 15.434875 40.178005 16.422977 40.048828 17.59375 C 39.919651 18.764523 39.767804 20.102099 39.396484 21.609375 C 38.653845 24.623927 37.07002 28.320605 32.923828 32.466797 C 29.219675 36.170478 25.478138 37.620054 22.042969 38.40625 C 18.6078 39.192446 15.537005 39.167122 13.007812 40.25 C 12.453829 40.487481 11.322411 40.880655 10.244141 40.976562 C 9.1658703 41.072471 8.278095 40.899189 7.6894531 40.310547 C 7.1014328 39.722527 6.9276222 38.834239 7.0234375 37.755859 C 7.1192528 36.67748 7.5124436 35.546765 7.75 34.992188 C 8.8335612 32.462846 8.8075382 29.392508 9.59375 25.957031 C 10.379962 22.521555 11.830134 18.779241 15.533203 15.076172 C 19.679415 10.92996 23.376094 9.3462668 26.390625 8.6035156 C 27.897891 8.2321401 29.235551 8.078341 30.40625 7.9492188 C 31.576949 7.8200965 32.565264 7.7715308 33.566406 7.3359375 L 33.566406 7.3339844 C 33.822091 7.2223838 34.227123 7.0565928 34.791016 7.0117188 z M 25.484375 10.984375 A 1.50015 1.50015 0 0 0 24.439453 13.560547 L 25.439453 14.560547 A 1.50015 1.50015 0 1 0 27.560547 12.439453 L 26.560547 11.439453 A 1.50015 1.50015 0 0 0 25.484375 10.984375 z M 32.484375 12.984375 A 1.50015 1.50015 0 0 0 31.439453 15.560547 L 32.439453 16.560547 A 1.50015 1.50015 0 1 0 34.560547 14.439453 L 33.560547 13.439453 A 1.50015 1.50015 0 0 0 32.484375 12.984375 z M 20.484375 15.984375 A 1.50015 1.50015 0 0 0 19.439453 18.560547 L 20.439453 19.560547 A 1.50015 1.50015 0 1 0 22.560547 17.439453 L 21.560547 16.439453 A 1.50015 1.50015 0 0 0 20.484375 15.984375 z M 27.484375 17.984375 A 1.50015 1.50015 0 0 0 26.439453 20.560547 L 27.439453 21.560547 A 1.50015 1.50015 0 1 0 29.560547 19.439453 L 28.560547 18.439453 A 1.50015 1.50015 0 0 0 27.484375 17.984375 z M 34.484375 19.984375 A 1.50015 1.50015 0 0 0 33.439453 22.560547 L 34.439453 23.560547 A 1.50015 1.50015 0 1 0 36.560547 21.439453 L 35.560547 20.439453 A 1.50015 1.50015 0 0 0 34.484375 19.984375 z M 15.484375 20.984375 A 1.50015 1.50015 0 0 0 14.439453 23.560547 L 15.439453 24.560547 A 1.50015 1.50015 0 1 0 17.560547 22.439453 L 16.560547 21.439453 A 1.50015 1.50015 0 0 0 15.484375 20.984375 z M 22.484375 22.984375 A 1.50015 1.50015 0 0 0 21.439453 25.560547 L 22.439453 26.560547 A 1.50015 1.50015 0 1 0 24.560547 24.439453 L 23.560547 23.439453 A 1.50015 1.50015 0 0 0 22.484375 22.984375 z M 29.484375 24.984375 A 1.50015 1.50015 0 0 0 28.439453 27.560547 L 29.439453 28.560547 A 1.50015 1.50015 0 1 0 31.560547 26.439453 L 30.560547 25.439453 A 1.50015 1.50015 0 0 0 29.484375 24.984375 z M 17.484375 27.984375 A 1.50015 1.50015 0 0 0 16.439453 30.560547 L 17.439453 31.560547 A 1.50015 1.50015 0 1 0 19.560547 29.439453 L 18.560547 28.439453 A 1.50015 1.50015 0 0 0 17.484375 27.984375 z M 12.5 28 L 12.5 31 A 1.50015 1.50015 0 1 0 12.5 28 z M 24.484375 29.984375 A 1.50015 1.50015 0 0 0 23.439453 32.560547 L 24.439453 33.560547 A 1.50015 1.50015 0 1 0 26.560547 31.439453 L 25.560547 30.439453 A 1.50015 1.50015 0 0 0 24.484375 29.984375 z M 12.5 34 A 1.50015 1.50015 0 1 0 12.5 37 L 12.5 34 z M 18.5 34 L 18.5 37 A 1.50015 1.50015 0 1 0 18.5 34 z"/></svg>