<svg fill="#000000" xmlns="http://www.w3.org/2000/svg"  viewBox="0 0 48 48" width="24px" height="24px"><path d="M 8.5683594 4.9765625 A 1.50015 1.50015 0 0 0 7.5996094 5.3007812 C 7.5996094 5.3007812 3 8.7 3 14.5 A 1.50015 1.50015 0 0 0 4.5 16 L 5.6054688 16 C 4.6277877 17.596648 4 19.141898 4 20.5 C 4 22.75 4.6582031 24.169922 4.6582031 24.169922 A 1.50015 1.50015 0 0 0 6.2460938 24.980469 C 6.2460938 24.980469 8.3931474 24.600954 10.478516 23.025391 C 10.766835 23.5005 11.153297 23.989279 11.623047 24.447266 C 10.566512 24.949934 8.9128521 25.998782 8.1132812 27.925781 C 7.8922812 28.458781 7.9968125 29.071953 8.3828125 29.501953 C 8.6718125 29.823953 9.081 30 9.5 30 C 9.641 30 9.782875 29.980453 9.921875 29.939453 C 10.839951 29.671514 11.980928 29.319267 13 28.257812 L 13 32.095703 C 12.845077 32.150654 12.695636 32.222088 12.5625 32.328125 C 12.4575 32.412125 10 34.414 10 37.5 C 10 38.076 10.330609 38.602563 10.849609 38.851562 C 11.056609 38.950563 11.279 39 11.5 39 C 11.834 39 12.1665 38.888875 12.4375 38.671875 C 12.615292 38.52974 12.809003 38.356083 13 38.189453 L 13 41.5 A 1.50015 1.50015 0 1 0 16 41.5 L 16 25.517578 C 16.876739 25.132452 18.116269 24.466354 19.261719 23.308594 C 19.467096 23.693289 19.406192 23.710459 19.681641 24.132812 C 19.774271 24.274846 19.896568 24.422903 19.998047 24.568359 C 19.995273 25.046634 19.955078 31.894447 19.955078 41.5 A 1.50015 1.50015 0 1 0 22.955078 41.5 C 22.955077 33.500363 22.980866 29.608549 22.992188 27.400391 C 23.533311 27.680367 24.126251 27.889967 24.787109 27.984375 A 1.50015 1.50015 0 0 0 25.771484 27.787109 C 25.771484 27.787109 26.331208 27.424254 27 26.734375 L 27 31.5 L 27 41.5 A 1.50015 1.50015 0 1 0 30 41.5 L 30 31.5 L 30 23.445312 C 31.450474 24.378644 32.870486 24.998624 34 25.380859 L 34 41.5 A 1.50015 1.50015 0 1 0 37 41.5 L 37 25.912109 A 1.50015 1.50015 0 0 0 37.787109 25.271484 C 37.918011 25.053315 38.037083 24.825367 38.150391 24.591797 C 38.40751 26.022307 39.032157 26.691178 40.279297 27.494141 L 40.667969 27.748047 C 40.918969 27.915047 41.209 28 41.5 28 C 41.743 28 41.985031 27.941266 42.207031 27.822266 C 42.694031 27.562266 43 27.053 43 26.5 C 43 23.4 41.221922 21.683203 40.169922 21.158203 C 39.895203 21.021139 39.591703 20.985112 39.296875 21.025391 C 39.384415 20.620997 39.466192 20.218893 39.537109 19.835938 C 39.649156 19.230887 39.624879 19.220111 39.693359 18.736328 C 40.70998 19.13012 42.006053 19.5 43.5 19.5 A 1.50015 1.50015 0 0 0 45 18 C 45 13.8125 44.21088 10.739114 43.392578 8.6933594 C 42.574276 6.647605 41.638672 5.5234375 41.638672 5.5234375 A 1.50015 1.50015 0 0 0 40.451172 4.984375 A 1.50015 1.50015 0 0 0 39.361328 7.4765625 C 39.361328 7.4765625 39.925724 8.102395 40.607422 9.8066406 C 41.159564 11.186995 41.634795 13.399666 41.832031 16.142578 C 40.458708 15.778398 39.332031 15.251953 39.332031 15.251953 A 1.50015 1.50015 0 0 0 37.005859 16.363281 C 37.005859 16.363281 36.886867 17.674591 36.587891 19.289062 C 36.35731 20.534198 35.932333 21.711732 35.527344 22.712891 C 34.303793 22.452185 31.987303 21.810023 29.662109 19.533203 C 29.661104 19.532219 29.661162 19.530282 29.660156 19.529297 A 1.50015 1.50015 0 0 0 28.476562 18.978516 A 1.50015 1.50015 0 0 0 27.025391 20.205078 C 26.574185 22.21112 25.817556 23.481962 25.203125 24.25 C 24.884806 24.647899 24.868002 24.60343 24.701172 24.746094 C 24.074231 24.488815 23.431853 23.995338 22.861328 23.355469 A 1.50015 1.50015 0 0 0 22.419922 22.794922 C 22.345304 22.692401 22.263661 22.599983 22.193359 22.492188 C 21.361635 21.216877 20.910156 19.988281 20.910156 19.988281 A 1.50015 1.50015 0 0 0 18.158203 19.830078 C 17.181913 21.782658 15.196846 22.596287 14.554688 22.837891 C 12.80432 21.985452 12.480469 20.253906 12.480469 20.253906 A 1.50015 1.50015 0 0 0 9.828125 19.5625 C 9.006552 20.589466 7.9823676 21.19451 7.1542969 21.554688 C 7.0776754 21.187462 7 21.292076 7 20.5 C 7 19.31922 7.4939038 17.67563 9.5722656 15.548828 A 1.50015 1.50015 0 0 0 8.5 13 L 6.28125 13 C 6.9586758 9.7383565 9.4003906 7.6992188 9.4003906 7.6992188 A 1.50015 1.50015 0 0 0 8.5683594 4.9765625 z M 17.431641 6.0019531 C 17.180266 6.0132031 16.931938 6.0886094 16.710938 6.2246094 C 16.268937 6.4976094 16 6.98 16 7.5 C 16 10.541 16.541297 11.375141 18.279297 12.494141 L 18.667969 12.748047 C 18.918969 12.915047 19.209 13 19.5 13 C 19.743 13 19.985031 12.941266 20.207031 12.822266 C 20.694031 12.562266 21 12.053 21 11.5 C 21 8.4 19.221922 6.6832031 18.169922 6.1582031 C 17.937422 6.0422031 17.683016 5.9907031 17.431641 6.0019531 z M 32.427734 8.0019531 C 32.161359 8.0148281 31.897969 8.0984531 31.667969 8.2519531 C 31.517969 8.3519531 28 10.74 28 14.5 C 28 15.053 28.305969 15.562266 28.792969 15.822266 C 29.014969 15.941266 29.257 16 29.5 16 C 29.791 16 30.081031 15.915047 30.332031 15.748047 C 31.880031 14.716047 34 13.303 34 9.5 C 34 8.947 33.694031 8.4377344 33.207031 8.1777344 C 32.962531 8.0467344 32.694109 7.9890781 32.427734 8.0019531 z"/></svg>