<svg fill="#000000" xmlns="http://www.w3.org/2000/svg"  viewBox="0 0 48 48" width="24px" height="24px"><path d="M 31.390625 3.0058594 C 28.477295 2.874043 25.946484 3.5078906 24.177734 4.8847656 C 23.217734 5.6327656 22.153219 6.8636875 21.699219 8.8046875 C 15.905219 5.3296875 11.557516 6.4607344 9.3535156 7.5527344 C 5.4935156 9.4637344 3 13.761953 3 18.501953 C 3 19.093953 3.3486719 19.628141 3.8886719 19.869141 C 4.4276719 20.111141 5.06 20.014141 5.5 19.619141 C 6.959 18.313141 9.9798281 17.028953 12.923828 16.626953 C 10.002828 17.840953 7.3398438 19.917266 5.9648438 22.697266 C 4.8058438 25.041266 3.7164531 29.828547 9.4394531 35.560547 C 9.8694531 35.992547 10.512219 36.120719 11.074219 35.886719 C 11.634219 35.655719 12 35.107953 12 34.501953 C 12 30.687953 13.557594 28.267625 16.183594 26.515625 C 15.498594 25.763625 15.069531 24.784172 15.019531 23.701172 C 12.641531 25.199172 10.394031 27.433812 9.4570312 30.882812 C 8.1540312 28.868813 7.4443437 26.467344 8.6523438 24.027344 C 10.522344 20.244344 16.080781 17.96275 19.800781 18.46875 C 20.403781 18.54875 20.992875 18.255469 21.296875 17.730469 C 21.600875 17.204469 21.5585 16.547406 21.1875 16.066406 C 20.0865 14.636406 18.277125 13.767734 15.953125 13.552734 C 13.027125 13.282734 9.3313125 14.086469 6.4453125 15.480469 C 7.1543125 13.160469 8.6646406 11.239234 10.681641 10.240234 C 13.881641 8.6562344 17.932844 9.5263594 22.089844 12.693359 C 22.558844 13.049359 23.192984 13.099313 23.708984 12.820312 C 24.227984 12.541313 24.535141 11.985438 24.494141 11.398438 C 24.364141 9.5084375 24.863531 8.1519531 26.019531 7.2519531 C 27.250531 6.2929531 29.228969 5.8822969 31.542969 6.0292969 C 29.855969 7.3512969 28.481281 9.0375938 27.738281 10.183594 C 27.407281 10.694594 27.417625 11.357422 27.765625 11.857422 C 28.113625 12.357422 28.732172 12.594891 29.326172 12.462891 C 30.636172 12.166891 35.141672 11.394781 38.138672 13.800781 C 39.242672 14.687781 40.029141 15.925 40.494141 17.5 C 33.237141 12.227 29.232141 15.218766 28.494141 15.884766 C 28.081141 16.255766 27.907969 16.822328 28.042969 17.361328 C 28.176969 17.899328 28.596766 18.321078 29.134766 18.455078 C 30.358766 18.761078 36.044328 22.216422 35.986328 27.982422 C 35.966328 29.909422 35.263672 31.831609 33.888672 33.724609 C 33.665672 30.661609 32.985547 26.866328 30.935547 24.111328 C 30.770547 25.304328 30.144375 26.340922 29.234375 27.044922 C 30.758375 29.968922 31 34.148953 31 37.501953 C 31 38.098953 31.353437 38.637953 31.898438 38.876953 C 32.444437 39.112953 33.081531 39.006563 33.519531 38.601562 C 37.111531 35.275562 38.950281 31.712625 38.988281 28.015625 C 39.037281 23.246625 36.124391 19.580609 33.400391 17.474609 C 34.763391 17.642609 36.63775 18.337266 39.09375 20.197266 C 39.63975 20.610266 40.676281 21.682469 41.363281 22.480469 C 41.770281 22.956469 42.432578 23.125203 43.017578 22.908203 C 43.605578 22.691203 43.996047 22.133813 43.998047 21.507812 C 44.017047 16.978813 42.678531 13.598891 40.019531 11.462891 C 37.701531 9.6018906 34.904406 9.1015625 32.566406 9.1015625 L 32.5625 9.1015625 C 33.8715 7.8895625 35.325891 7.0019531 36.462891 7.0019531 C 36.475891 7.0009531 36.489 7.0009531 36.5 7.0019531 C 37.233 7.0019531 37.860469 6.4691406 37.980469 5.7441406 C 38.100469 5.0141406 37.669797 4.3052187 36.966797 4.0742188 C 35.025422 3.4393437 33.138623 3.0849492 31.390625 3.0058594 z M 19.5 21 A 2.5 2.5 0 0 0 19.5 26 A 2.5 2.5 0 0 0 19.5 21 z M 26.5 21 A 2.5 2.5 0 0 0 26.5 26 A 2.5 2.5 0 0 0 26.5 21 z M 22.5 27 A 2.5 2.5 0 0 0 22.5 32 A 2.5 2.5 0 0 0 22.5 27 z M 18.076172 30.267578 C 14.911172 36.097578 10.265453 41.596453 9.4394531 42.439453 C 9.0104531 42.868453 8.8802812 43.513219 9.1132812 44.074219 C 9.3462813 44.635219 9.894 45 10.5 45 L 21 45 C 21.339 45 21.667594 44.886781 21.933594 44.675781 C 23.449594 43.470781 24.768969 37.805406 25.667969 32.691406 C 24.853969 33.499406 23.735 34 22.5 34 C 22.462 34 22.426672 33.989281 22.388672 33.988281 C 21.676672 37.637281 20.873437 40.847953 20.273438 42.001953 L 13.720703 42.001953 C 15.418703 39.892953 17.826531 36.68325 19.894531 33.15625 C 18.950531 32.48125 18.282172 31.455578 18.076172 30.267578 z"/></svg>