<svg fill="#000000" xmlns="http://www.w3.org/2000/svg"  viewBox="0 0 50 50" width="50px" height="50px"><path d="M 24.75 1.34375 C 24.214844 1.449219 23.859375 1.984375 22.8125 3.40625 C 20.945313 5.941406 17.464844 10.660156 13.1875 12.59375 C 12.375 12.960938 11.878906 13.722656 11.9375 14.5625 C 12.019531 15.75 14.625 17.566406 18.15625 17.34375 C 19.265625 18.894531 21.21875 19.46875 22.6875 19.46875 C 23.59375 19.46875 24.417969 19.292969 25.0625 18.9375 C 27.285156 19.96875 30.933594 19.332031 32 17.34375 C 32.3125 17.390625 32.621094 17.40625 32.9375 17.40625 C 35.613281 17.40625 37.988281 15.65625 38.0625 14.5625 C 38.121094 13.71875 37.625 12.914063 36.8125 12.5625 C 33.195313 10.988281 29.472656 6.203125 27.46875 3.625 C 26.03125 1.777344 25.675781 1.34375 25 1.34375 C 24.914063 1.34375 24.828125 1.328125 24.75 1.34375 Z M 16.15625 19.28125 C 13.296875 21.964844 10.21875 24.039063 8.0625 25.0625 C 7.074219 25.53125 6.460938 26.488281 6.53125 27.46875 C 6.589844 28.261719 8.734375 31.9375 14 31.9375 C 14.359375 31.9375 14.71875 31.910156 15.09375 31.875 C 16.660156 33.257813 18.789063 34.0625 21.03125 34.0625 C 22.523438 34.0625 23.9375 33.703125 25.0625 33.0625 C 28.386719 34.554688 32.125 34.101563 34.5 31.96875 C 34.894531 32 35.28125 32.03125 35.65625 32.03125 C 41.273438 32.03125 43.402344 28.410156 43.46875 27.4375 C 43.535156 26.449219 42.949219 25.546875 41.9375 25.0625 C 39.730469 24.023438 36.601563 21.976563 33.78125 19.375 C 33.5 19.402344 33.222656 19.40625 32.9375 19.40625 L 32.90625 19.40625 C 31.664063 20.652344 29.679688 21.40625 27.5 21.40625 C 26.660156 21.40625 25.863281 21.316406 25.125 21.09375 C 24.382813 21.355469 23.550781 21.46875 22.6875 21.46875 C 21.003906 21.46875 18.820313 20.90625 17.25 19.375 C 16.878906 19.363281 16.515625 19.328125 16.15625 19.28125 Z M 10.71875 33.5 C 7.984375 35.777344 5.335938 37.582031 3.125 38.625 C 1.9375 39.191406 1.261719 40.242188 1.34375 41.40625 C 1.417969 42.421875 3.761719 46.40625 9.5625 46.40625 C 10.136719 46.40625 10.730469 46.359375 11.34375 46.28125 C 13.859375 47.972656 16.929688 48.875 20.25 48.875 C 21.863281 48.875 23.445313 48.675781 25 48.25 C 26.664063 48.675781 28.257813 48.875 29.71875 48.875 C 32.59375 48.875 35.082031 48.082031 37.3125 46.4375 C 37.65625 46.457031 37.972656 46.472656 38.3125 46.46875 C 43.707031 46.46875 48.382813 43.738281 48.65625 41.46875 C 48.796875 40.320313 48.082031 39.183594 46.84375 38.59375 C 44.292969 37.398438 41.636719 35.679688 39.0625 33.59375 C 38.050781 33.867188 36.921875 34.03125 35.65625 34.03125 C 35.492188 34.03125 35.324219 34.035156 35.15625 34.03125 C 33.472656 35.273438 31.34375 35.9375 29.09375 35.9375 C 27.773438 35.9375 26.433594 35.703125 25.15625 35.25 C 23.921875 35.777344 22.5 36.0625 21.03125 36.0625 C 18.597656 36.0625 16.289063 35.308594 14.4375 33.9375 C 14.285156 33.941406 14.148438 33.9375 14 33.9375 C 12.789063 33.9375 11.6875 33.78125 10.71875 33.5 Z"/></svg>