<svg fill="#000000" xmlns="http://www.w3.org/2000/svg"  viewBox="0 0 50 50" width="50px" height="50px"><path d="M 23.59375 2.28125 C 23.207031 2.28125 22.835938 2.28125 22.46875 2.3125 C 22.457031 2.3125 22.449219 2.308594 22.4375 2.3125 C 22.40625 2.316406 22.375 2.339844 22.34375 2.34375 C 21.46875 2.421875 20.644531 2.5625 19.90625 2.8125 C 17.84375 3.132813 15.484375 4.441406 12.71875 6.75 C -1.589844 18.691406 2.066406 33.273438 3.625 39.5 C 4.046875 41.179688 3.917969 42.371094 3.8125 43.25 C 3.703125 44.15625 3.570313 45.007813 4.25 45.6875 C 4.613281 46.050781 5.082031 46.21875 5.65625 46.21875 C 5.890625 46.21875 6.175781 46.199219 6.5 46.15625 C 7.433594 46.035156 8.832031 46.003906 10.375 46.40625 C 12.511719 46.964844 16.484375 48 20.9375 48 C 28.921875 48 36.289063 44.679688 42.84375 38.125 C 45.753906 35.214844 47.527344 31.875 47.78125 28.8125 C 48.136719 26.878906 48.011719 24.613281 47.4375 22.28125 C 46.347656 17.835938 43.832031 13.488281 40.34375 10 C 35.582031 5.238281 29.160156 2.28125 23.59375 2.28125 Z M 23.59375 4.28125 C 27.554688 4.28125 33.648438 6.144531 38.90625 11.40625 C 42.023438 14.523438 44.316406 18.398438 45.375 22.34375 L 45.34375 22.34375 C 45.949219 24.769531 45.601563 25.628906 45.34375 25.9375 C 45.273438 26.023438 45.054688 26.296875 44.3125 26.25 C 43.757813 26.210938 43.289063 26.640625 43.25 27.1875 C 43.171875 28.296875 42.136719 29.042969 41.1875 29.125 C 40.660156 29.167969 39.722656 29.019531 39.375 27.59375 C 39.269531 27.148438 38.863281 26.816406 38.40625 26.8125 C 37.917969 26.828125 37.554688 27.121094 37.4375 27.5625 C 37.25 28.292969 36.761719 28.769531 36.03125 28.96875 C 34.914063 29.273438 33.445313 28.878906 32.5625 28 C 32.054688 27.496094 31.527344 26.613281 31.875 25.3125 C 31.996094 24.855469 31.796875 24.371094 31.375 24.15625 C 30.953125 23.941406 30.453125 24.066406 30.15625 24.4375 C 29.757813 24.9375 29.199219 25.105469 28.5 25 C 27.011719 24.773438 25.335938 23.292969 24.6875 21.625 C 24.351563 20.753906 24.164063 19.472656 25.125 18.28125 C 25.398438 17.941406 25.429688 17.457031 25.1875 17.09375 C 24.945313 16.730469 24.480469 16.570313 24.0625 16.6875 C 22.554688 17.117188 21.488281 16.367188 20.84375 15.65625 C 19.699219 14.390625 19.160156 12.34375 19.65625 11.09375 C 19.917969 10.433594 20.449219 10.09375 21.25 10.03125 C 21.652344 10 22 9.726563 22.125 9.34375 C 22.25 8.960938 22.117188 8.546875 21.8125 8.28125 C 20.667969 7.28125 20.167969 6.351563 20.375 5.6875 C 20.574219 5.046875 21.515625 4.460938 22.59375 4.3125 C 22.917969 4.285156 23.246094 4.28125 23.59375 4.28125 Z M 32.875 11.84375 C 32.566406 11.855469 32.308594 11.972656 32.125 12.15625 C 31.386719 12.894531 32.074219 14.792969 33.6875 16.40625 C 35.300781 18.019531 37.230469 18.738281 37.96875 18 C 38.707031 17.261719 37.988281 15.363281 36.375 13.75 C 35.164063 12.539063 33.796875 11.808594 32.875 11.84375 Z"/></svg>