<svg fill="#000000" xmlns="http://www.w3.org/2000/svg"  viewBox="0 0 48 48" width="24px" height="24px"><path d="M 20.5 3 C 17.266465 3 14.604877 5.1182711 13.560547 8.0058594 C 13.539368 8.0056621 13.52127 8 13.5 8 C 9.3754991 8 6 11.375499 6 15.5 C 6 16.300218 6.1543572 17.058272 6.3886719 17.78125 C 3.8220824 18.975279 2 21.497499 2 24.5 C 2 28.624501 5.3754991 32 9.5 32 C 10.675887 32 11.750962 31.651842 12.744141 31.166016 C 12.873543 31.297116 13.010893 31.420097 13.146484 31.544922 A 1.50015 1.50015 0 0 0 13.722656 32.283203 C 13.722656 32.283203 14.360305 32.724866 15.181641 33.257812 C 16.500946 34.115271 18 35.314224 18 37.5 C 18 38.23225 17.755255 39.541945 17.191406 40.470703 C 16.627557 41.399461 15.955465 42 14.5 42 A 1.50015 1.50015 0 0 0 14.5 45 L 33.5 45 A 1.50015 1.50015 0 0 0 33.5 42 C 32.044535 42 31.372443 41.399461 30.808594 40.470703 C 30.244745 39.541945 30 38.23225 30 37.5 C 30 35.314874 31.497387 34.115218 32.816406 33.257812 C 33.636997 32.724736 34.277344 32.283203 34.277344 32.283203 A 1.5001681 1.5001681 0 0 0 34.833984 31.5625 C 34.976326 31.432073 35.120306 31.303348 35.255859 31.166016 C 36.249038 31.651842 37.324113 32 38.5 32 C 42.624501 32 46 28.624501 46 24.5 C 46 21.497499 44.177918 18.975279 41.611328 17.78125 C 41.845643 17.058272 42 16.300218 42 15.5 C 42 11.375499 38.624501 8 34.5 8 C 34.47873 8 34.460633 8.0056594 34.439453 8.0058594 C 33.395126 5.1182705 30.733535 3 27.5 3 C 26.219748 3 25.054874 3.400584 24 3.96875 C 22.945126 3.400584 21.780252 3 20.5 3 z M 20.5 6 C 21.484606 6 22.37846 6.3134466 23.123047 6.8496094 A 1.50015 1.50015 0 0 0 24.876953 6.8496094 C 25.62154 6.3134466 26.515394 6 27.5 6 C 29.770385 6 31.615787 7.6589231 31.941406 9.8242188 A 1.50015 1.50015 0 0 0 33.691406 11.078125 C 33.969392 11.028088 34.236542 11 34.5 11 C 37.003499 11 39 12.996501 39 15.5 C 39 16.355789 38.759237 17.142173 38.341797 17.830078 A 1.50015 1.50015 0 0 0 39.345703 20.082031 C 41.42492 20.476895 43 22.287968 43 24.5 C 43 27.003499 41.003499 29 38.5 29 C 37.533913 29 36.654301 28.699542 35.919922 28.183594 A 1.50015 1.50015 0 0 0 33.845703 28.527344 C 33.465527 29.048936 33.000707 29.501539 32.478516 29.876953 C 32.4615 29.888695 32.24702 30.029538 32.181641 30.074219 C 31.261116 30.655967 30.177057 31 29 31 C 27.455418 31 26.069694 30.42048 25.001953 29.462891 A 1.50015 1.50015 0 0 0 22.998047 29.462891 C 21.930306 30.42048 20.544582 31 19 31 C 17.822943 31 16.738884 30.655967 15.818359 30.074219 C 15.752991 30.029501 15.538496 29.888709 15.521484 29.876953 C 14.999293 29.501539 14.534473 29.048936 14.154297 28.527344 A 1.50015 1.50015 0 0 0 12.080078 28.183594 C 11.345699 28.699542 10.466087 29 9.5 29 C 6.9965009 29 5 27.003499 5 24.5 C 5 22.287968 6.5750804 20.476895 8.6542969 20.082031 A 1.50015 1.50015 0 0 0 9.6582031 17.830078 C 9.2407628 17.142173 9 16.355789 9 15.5 C 9 12.996501 10.996501 11 13.5 11 C 13.763458 11 14.030608 11.028085 14.308594 11.078125 A 1.50015 1.50015 0 0 0 16.058594 9.8242188 C 16.384213 7.658918 18.229615 6 20.5 6 z M 24 32.314453 C 25.179163 33.123515 26.514953 33.728564 27.988281 33.925781 C 27.406256 34.907864 27 36.085984 27 37.5 C 27 38.759977 27.29244 40.436971 28.232422 42 L 19.767578 42 C 20.70756 40.436971 21 38.759977 21 37.5 C 21 36.085984 20.593747 34.907864 20.011719 33.925781 C 21.485047 33.728564 22.820837 33.123515 24 32.314453 z"/></svg>