<svg fill="#000000" xmlns="http://www.w3.org/2000/svg"  viewBox="0 0 50 50" width="50px" height="50px"><path d="M 39.84375 1 C 39.582031 1.042969 39.34375 1.214844 39.1875 1.4375 C 37.144531 4.328125 33.214844 5.242188 28.6875 6.3125 C 22.5 7.777344 14.800781 9.601563 9.65625 17.5625 C 5.972656 23.230469 7.113281 27.953125 8.71875 30.90625 C 10.882813 34.894531 15.148438 37.867188 18.46875 38.75 C 13.609375 42.878906 8.617188 45.265625 4.5625 44.125 C 4.027344 43.976563 3.492188 44.3125 3.34375 44.84375 C 3.195313 45.375 3.5 45.914063 4.03125 46.0625 C 4.886719 46.300781 5.757813 46.40625 6.65625 46.40625 C 10.972656 46.40625 15.695313 43.777344 20.15625 39.875 C 20.050781 39.574219 19.980469 39.28125 19.90625 39 C 19.472656 38.96875 18.984375 38.875 18.5 38.75 C 25.53125 32.773438 32.253906 23.179688 35.375 15.34375 C 35.578125 14.832031 36.144531 14.578125 36.65625 14.78125 C 37.167969 14.984375 37.421875 15.550781 37.21875 16.0625 C 34.335938 23.296875 27.609375 33.355469 20.15625 39.875 C 21.136719 42.679688 23.660156 46 30.09375 46 C 33.289063 46 38.316406 44.050781 41.96875 38.5625 C 45.269531 33.601563 49.550781 22.21875 40.9375 1.625 C 40.796875 1.289063 40.484375 1.039063 40.125 1 C 40.03125 0.988281 39.929688 0.984375 39.84375 1 Z"/></svg>