<svg fill="#000000" xmlns="http://www.w3.org/2000/svg"  viewBox="0 0 50 50" width="50px" height="50px"><path d="M 34.96875 1 C 34.695313 0.953125 34.40625 1.023438 34.1875 1.1875 C 31.59375 3.132813 30.378906 4.558594 29.0625 6.71875 C 27.53125 5.390625 25.984375 4.535156 24.34375 4.125 C 24.074219 4.058594 23.796875 4.097656 23.5625 4.25 C 23.328125 4.402344 23.171875 4.660156 23.125 4.9375 C 22.816406 6.785156 22.71875 9.234375 22.625 11.59375 C 22.558594 13.242188 22.460938 15.359375 22.28125 16.5 C 22 16.195313 21.667969 15.785156 21.375 15.4375 C 19.730469 13.5 17.25 10.59375 14.09375 10.3125 C 13.558594 10.265625 13.074219 10.628906 13 11.15625 C 12.796875 12.566406 12.761719 13.894531 12.875 15.03125 C 12.460938 14.871094 11.996094 14.671875 11.59375 14.5 C 9.957031 13.796875 8.085938 13 6.59375 13 C 6.3125 13 6.035156 13.132813 5.84375 13.34375 C 5.65625 13.554688 5.566406 13.8125 5.59375 14.09375 C 5.773438 15.832031 6.617188 17.757813 7.28125 19.3125 C 7.574219 19.996094 7.972656 20.9375 8.03125 21.28125 C 7.714844 22.039063 6.136719 22.429688 4.625 22.71875 C 4.304688 22.78125 4.007813 22.984375 3.875 23.28125 C 3.742188 23.578125 3.773438 23.9375 3.9375 24.21875 C 5.800781 27.367188 8.800781 28.976563 11.1875 30.03125 C 9.746094 30.378906 8.277344 31.214844 7.375 33.1875 C 7.261719 33.4375 7.273438 33.714844 7.375 33.96875 C 7.476563 34.222656 7.683594 34.429688 7.9375 34.53125 C 9.730469 35.25 9.679688 35.367188 9.15625 36.75 C 8.980469 37.21875 8.777344 37.746094 8.625 38.375 C 8.539063 38.730469 8.667969 39.097656 8.9375 39.34375 C 9.207031 39.589844 9.5625 39.679688 9.90625 39.5625 C 11.421875 39.054688 13.742188 39.417969 15.5625 40.3125 C 21.683594 34.261719 28.050781 24.859375 30.21875 16.75 C 30.363281 16.214844 30.941406 15.890625 31.46875 16.03125 C 32.003906 16.175781 32.300781 16.714844 32.15625 17.25 C 29.90625 25.667969 23.519531 35.179688 17.21875 41.46875 C 18.726563 43.019531 19.933594 45.714844 20 46.5625 C 20.027344 46.902344 20.230469 47.214844 20.53125 47.375 C 20.679688 47.453125 20.835938 47.5 21 47.5 C 21.164063 47.5 21.320313 47.457031 21.46875 47.375 C 23.503906 46.257813 24.222656 44.429688 24.6875 43.21875 C 24.757813 43.03125 24.832031 42.8125 24.90625 42.625 C 24.941406 42.671875 24.964844 42.734375 25 42.78125 C 25.558594 43.566406 26.269531 44.535156 27.25 45.65625 C 27.449219 45.886719 27.726563 46.019531 28.03125 46 C 28.335938 45.984375 28.632813 45.839844 28.8125 45.59375 C 30.792969 42.835938 30.289063 40.652344 29.65625 39.15625 C 30.128906 39.398438 30.605469 39.671875 31.125 39.96875 C 32.964844 41.015625 35.285156 42.320313 38.4375 42.875 C 38.9375 42.964844 39.445313 42.574219 39.59375 42.09375 C 39.894531 41.121094 40.367188 39.539063 39.9375 37.6875 C 41.199219 38.140625 42.828125 38.65625 44.65625 38.65625 C 45.445313 38.65625 46.199219 38.570313 46.9375 38.375 C 47.390625 38.257813 47.707031 37.816406 47.6875 37.34375 C 47.539063 33.941406 45.390625 32.140625 43.96875 30.9375 C 43.773438 30.773438 43.542969 30.589844 43.34375 30.40625 C 44.15625 29.914063 45.226563 29.230469 46.1875 28.34375 C 46.550781 28.007813 46.589844 27.441406 46.3125 27.03125 C 44.402344 24.203125 40.628906 23.609375 38.125 23.21875 C 37.789063 23.167969 37.40625 23.121094 37.09375 23.0625 C 37.363281 22.714844 37.769531 22.257813 38.125 21.84375 C 39.785156 19.917969 42.292969 17 44.3125 12.71875 C 44.449219 12.433594 44.429688 12.121094 44.28125 11.84375 C 44.132813 11.566406 43.875 11.359375 43.5625 11.3125 C 43.179688 11.253906 42.824219 11.183594 42.5 11.125 C 41.316406 10.914063 40.121094 10.753906 38.28125 10.90625 C 38.21875 7.945313 37.816406 4.625 35.625 1.4375 C 35.472656 1.210938 35.238281 1.042969 34.96875 1 Z M 17.21875 41.46875 C 17.015625 41.261719 16.804688 41.066406 16.59375 40.90625 C 16.273438 40.683594 15.933594 40.496094 15.5625 40.3125 C 12.847656 42.996094 10.183594 45.007813 7.96875 45.96875 C 6.976563 46.402344 5.574219 46.800781 4.65625 46.3125 C 4.171875 46.050781 3.574219 46.230469 3.3125 46.71875 C 3.050781 47.207031 3.230469 47.832031 3.71875 48.09375 C 4.292969 48.402344 4.9375 48.53125 5.65625 48.53125 C 6.570313 48.53125 7.613281 48.304688 8.75 47.8125 C 11.25 46.726563 14.226563 44.457031 17.21875 41.46875 Z"/></svg>