<svg fill="#000000" xmlns="http://www.w3.org/2000/svg"  viewBox="0 0 50 50" width="50px" height="50px"><path d="M 25 0 C 25 0 19.398438 5.492188 19.5 19.59375 L 19.5 20.40625 C 12.699219 11.507813 4 9 4 9 C 4 9 4.292969 18.269531 10.65625 27.75 C 4.085938 26.058594 0 27.90625 0 27.90625 C 0 27.90625 2.707031 34.601563 11.40625 37.5 C 9.007813 38.898438 7.601563 40.398438 7.5 40.5 L 5 43 C 6.703125 43.546875 7.753906 44 14 44 C 15.699219 44 16.9375 43.804688 18.4375 43.40625 C 20.835938 42.765625 22.699219 41.988281 24.0625 41.09375 C 24.394531 46.0625 26.125 49.46875 26.125 49.46875 C 26.265625 49.828125 26.597656 50.078125 26.984375 50.105469 C 27.371094 50.132813 27.738281 49.9375 27.929688 49.601563 C 28.117188 49.261719 28.097656 48.847656 27.875 48.53125 C 27.875 48.53125 26.417969 45.617188 26.09375 41.1875 C 27.441406 42.039063 29.253906 42.792969 31.5625 43.40625 C 33.0625 43.804688 34.300781 44 36 44 C 42.246094 44 43.296875 43.546875 45 43 L 42.5 40.5 C 42.398438 40.398438 40.992188 38.898438 38.59375 37.5 C 47.292969 34.601563 50 27.90625 50 27.90625 C 50 27.90625 45.914063 26.058594 39.34375 27.75 C 45.707031 18.269531 46 9 46 9 C 46 9 37.300781 11.507813 30.5 20.40625 L 30.5 19.59375 C 30.601563 5.492188 25 0 25 0 Z"/></svg>