<svg fill="#000000" xmlns="http://www.w3.org/2000/svg"  viewBox="0 0 50 50" width="50px" height="50px"><path d="M 42 3.03125 C 41.75 3.011719 41.460938 3.050781 41.15625 3.15625 C 40.285156 3.457031 39.484375 4.714844 40.4375 5.84375 C 41.015625 6.53125 42.550781 9.195313 41 11.65625 C 41.21875 11.875 41.484375 12.167969 41.8125 12.53125 C 44.828125 9.363281 43.894531 5.0625 43.5 4.15625 C 43.269531 3.628906 42.753906 3.085938 42 3.03125 Z M 25.15625 5.6875 C 22.011719 5.6875 19.171875 6.925781 16.8125 9.34375 C 16.679688 9.464844 16.242188 9.949219 16.21875 10.96875 C 16.152344 13.90625 19.628906 18.941406 26.25 25.5625 C 32.804688 32.117188 37.832031 35.59375 40.78125 35.59375 C 41.855469 35.59375 42.363281 35.152344 42.46875 35.03125 C 44.964844 32.445313 46.1875 29.464844 46.09375 26.1875 C 45.894531 18.976563 39.417969 12.898438 39.1875 12.6875 C 38.917969 12.402344 32.453125 5.6875 25.15625 5.6875 Z M 14.625 13.3125 C 7.457031 19.664063 0.894531 29.371094 5.90625 41.65625 L 5.9375 41.6875 C 5.875 41.828125 5.734375 42.078125 5.625 42.25 C 5.09375 43.085938 4.085938 44.65625 5.3125 46.3125 C 5.835938 47.015625 6.550781 47.375 7.375 47.375 C 8.078125 47.375 8.753906 47.109375 9.34375 46.875 C 9.757813 46.710938 10.191406 46.53125 10.53125 46.5625 C 12.914063 47.277344 15.210938 47.625 17.53125 47.625 C 24.972656 47.625 31.890625 44.058594 38.125 37.0625 C 34.761719 35.851563 30.386719 32.542969 24.84375 27 C 19.09375 21.25 15.71875 16.726563 14.625 13.3125 Z"/></svg>