<svg fill="#000000" xmlns="http://www.w3.org/2000/svg"  viewBox="0 0 50 50" width="50px" height="50px"><path d="M 38.5625 8.582031 C 35.957031 8.582031 30.773438 11.109375 25 19.480469 C 17.582031 30.230469 19.917969 39.417969 22 40 C 22.113281 40.023438 22.230469 40.03125 22.351563 40.03125 C 23.554688 40.03125 25 39 25 39 C 25 39 28.285156 40.257813 32.34375 40.257813 C 36.257813 40.257813 40.898438 39.085938 44 34.480469 C 46.363281 30.972656 46.976563 27.792969 47 25 C 47.066406 16.851563 40 12 40 12 C 40 12 40.5 9.25 40 9 C 39.699219 8.738281 39.210938 8.582031 38.5625 8.582031 Z M 15.523438 9.007813 C 12.058594 9.007813 8.597656 10.324219 5.960938 12.960938 C 0.6875 18.234375 0.6875 26.816406 5.960938 32.089844 L 8.914063 35.039063 C 11.503906 37.628906 14.953125 39.003906 18.472656 39.003906 C 18.570313 39.003906 18.667969 38.992188 18.765625 38.988281 C 18.738281 38.917969 18.707031 38.847656 18.675781 38.773438 C 18.15625 37.328125 17.863281 35.421875 17.945313 33.203125 C 17.664063 33.085938 17.355469 33 17 33 C 15.996094 33 14.621094 33.359375 13.625 32.359375 C 12.386719 31.121094 13.992188 29.796875 12.613281 28.417969 C 11.238281 27.042969 10.125 28.867188 8.578125 27.316406 C 7.199219 25.941406 8 24.917969 8 24 C 8 23.046875 6.101563 21.898438 7.5 20.5 C 9.605469 18.394531 12.359375 23.640625 14.5 21.5 C 16.640625 19.359375 11.4375 16.5625 13.5 14.5 C 14.8125 13.1875 15.957031 15 17 15 C 17.921875 15 18.992188 14.238281 20.324219 15.570313 C 21.871094 17.121094 20.046875 18.230469 21.421875 19.609375 C 21.6875 19.871094 21.953125 20.027344 22.214844 20.109375 C 22.570313 19.523438 22.945313 18.9375 23.355469 18.34375 C 24.414063 16.804688 25.441406 15.472656 26.4375 14.3125 L 25.085938 12.960938 C 22.449219 10.324219 18.988281 9.007813 15.523438 9.007813 Z M 35.90625 14.003906 C 36.296875 13.96875 36.6875 14.164063 36.878906 14.527344 C 37.140625 15.015625 36.957031 15.621094 36.472656 15.878906 C 35.078125 16.628906 31 19.613281 28.917969 24.398438 C 28.753906 24.777344 28.382813 25 28 25 C 27.863281 25 27.730469 24.972656 27.601563 24.917969 C 27.09375 24.695313 26.863281 24.105469 27.082031 23.597656 C 29.3125 18.484375 33.582031 15.160156 35.527344 14.117188 C 35.648438 14.050781 35.777344 14.015625 35.90625 14.003906 Z M 39.96875 17 C 41.097656 16.917969 42.871094 19.308594 43.289063 20.269531 C 43.507813 20.777344 43.277344 21.367188 42.769531 21.585938 C 42.640625 21.640625 42.503906 21.671875 42.375 21.671875 C 41.984375 21.671875 41.617188 21.445313 41.453125 21.066406 C 41.105469 20.261719 40.101563 19.210938 39.734375 18.964844 C 39.324219 18.851563 39.015625 18.480469 39 18.03125 C 38.984375 17.476563 39.417969 17.015625 39.96875 17 Z M 36 20 C 36.253906 20 36.511719 20.097656 36.707031 20.292969 C 36.769531 20.355469 38.203125 21.816406 37.996094 24.089844 C 37.949219 24.609375 37.515625 25 37 25 C 36.972656 25 36.941406 25 36.910156 24.996094 C 36.359375 24.945313 35.953125 24.460938 36.003906 23.910156 C 36.125 22.582031 35.300781 21.714844 35.292969 21.707031 C 34.902344 21.316406 34.902344 20.683594 35.292969 20.292969 C 35.488281 20.097656 35.746094 20 36 20 Z M 40.828125 24.015625 C 41.210938 23.949219 41.609375 24.105469 41.835938 24.449219 C 41.882813 24.519531 42.992188 26.246094 42.328125 28.429688 C 42.199219 28.863281 41.804688 29.140625 41.375 29.140625 C 41.277344 29.140625 41.179688 29.125 41.082031 29.097656 C 40.554688 28.9375 40.257813 28.378906 40.417969 27.847656 C 40.800781 26.582031 40.183594 25.582031 40.15625 25.542969 C 39.867188 25.078125 40 24.457031 40.464844 24.160156 C 40.578125 24.085938 40.703125 24.039063 40.828125 24.015625 Z M 33.410156 26.457031 C 33.941406 26.390625 34.453125 26.777344 34.519531 27.320313 C 34.53125 27.410156 34.769531 29.441406 33.210938 31.113281 C 33.015625 31.324219 32.746094 31.433594 32.480469 31.433594 C 32.238281 31.433594 31.992188 31.34375 31.796875 31.160156 C 31.394531 30.785156 31.371094 30.152344 31.75 29.75 C 32.648438 28.78125 32.539063 27.613281 32.53125 27.5625 C 32.476563 27.015625 32.867188 26.523438 33.410156 26.457031 Z M 37.308594 30.628906 C 37.695313 30.636719 38.0625 30.878906 38.214844 31.265625 C 38.550781 32.121094 37.773438 34.710938 36.683594 35.730469 C 36.492188 35.910156 36.246094 36 36 36 C 35.734375 36 35.464844 35.894531 35.269531 35.683594 C 34.890625 35.28125 34.914063 34.648438 35.316406 34.269531 C 35.855469 33.769531 36.285156 32.296875 36.300781 31.824219 C 36.207031 31.359375 36.457031 30.878906 36.917969 30.699219 C 37.042969 30.648438 37.175781 30.625 37.308594 30.628906 Z"/></svg>