<svg fill="#000000" xmlns="http://www.w3.org/2000/svg"  viewBox="0 0 50 50" width="50px" height="50px"><path d="M 36.53125 0.90625 C 34.175781 0.90625 32.148438 1.898438 31.28125 3.4375 C 31.125 3.671875 30.917969 3.972656 30.71875 4.3125 C 30.304688 5.023438 29.554688 6.375 29.125 6.59375 C 28.867188 6.703125 28.175781 6.414063 27.5 6.125 C 26.578125 5.730469 25.449219 5.25 24.125 5.25 C 22.597656 5.25 21.179688 5.886719 19.8125 7.1875 C 17.546875 9.320313 18.175781 12.359375 18.59375 14.375 C 18.707031 14.925781 18.855469 15.644531 18.84375 16 C 17.457031 16 13.441406 16.042969 11.96875 19.84375 C 11.089844 22.113281 12.496094 23.785156 13.625 25.125 C 14.367188 26.007813 15.0625 26.824219 15 27.65625 C 14.988281 27.886719 14.9375 27.96875 14.9375 27.96875 C 14.828125 28.0625 14.289063 28.101563 13.96875 28.125 C 12.957031 28.199219 11.589844 28.3125 10.625 29.59375 C 8.769531 31.941406 8.796875 33.976563 9.15625 35.28125 C 9.867188 37.863281 12.304688 39.679688 14.28125 40.53125 C 21.554688 34.074219 29.535156 22.753906 32.25 13.3125 C 32.402344 12.78125 32.933594 12.472656 33.46875 12.625 C 34 12.777344 34.308594 13.34375 34.15625 13.875 C 31.527344 23.011719 23.863281 34.46875 16.25 41.4375 L 16.3125 41.46875 C 17.953125 42.5 19.542969 43 21.1875 43 C 22.898438 43 24.363281 42.433594 25.3125 42 C 27.296875 41.089844 27.992188 39.570313 28.5 38.46875 C 28.699219 38.035156 28.871094 37.667969 29.0625 37.4375 C 29.464844 36.960938 29.9375 36.78125 30.78125 36.78125 C 31.148438 36.78125 31.550781 36.8125 31.9375 36.84375 C 32.394531 36.882813 32.84375 36.9375 33.3125 36.9375 C 34.5625 36.9375 36.402344 36.691406 37.90625 34.59375 C 39.78125 31.980469 38.988281 30 38.40625 28.5625 C 37.933594 27.398438 37.726563 26.757813 38.15625 25.9375 C 38.300781 25.8125 38.941406 25.679688 39.375 25.59375 C 41.140625 25.25 44.09375 24.671875 45.25 20.8125 C 46.25 17.730469 44.160156 15.578125 42.78125 14.15625 C 42.351563 13.714844 41.96875 13.296875 41.78125 13 C 41.570313 12.632813 41.332031 11.085938 42.03125 9.59375 C 43.109375 7.078125 42.765625 3.542969 40.34375 1.96875 C 39.304688 1.289063 37.960938 0.90625 36.53125 0.90625 Z M 16.25 41.4375 L 14.6875 40.71875 C 14.558594 40.671875 14.414063 40.589844 14.28125 40.53125 C 10.199219 44.15625 6.347656 46.257813 3.75 45.625 C 3.214844 45.496094 2.664063 45.839844 2.53125 46.375 C 2.398438 46.910156 2.714844 47.429688 3.25 47.5625 C 3.6875 47.667969 4.148438 47.71875 4.625 47.71875 C 7.917969 47.71875 12.085938 45.25 16.25 41.4375 Z"/></svg>