<svg fill="#000000" xmlns="http://www.w3.org/2000/svg"  viewBox="0 0 50 50" width="50px" height="50px"><path d="M 15 2 C 9.867188 2 4 7.035156 4 13 C 4 13 8.769531 9 14 9 C 18.167969 9 22 12 22 12 C 15.234375 11.195313 5 13.871094 5 23 C 5 29.753906 8 34 8 34 C 8 34 11.132813 17.078125 25 15 C 38.382813 16.171875 41 35 41 35 C 41 35 45 30.128906 45 23 C 45 14.285156 37.449219 12 27 12 C 27 12 31.652344 9 37 9 C 42.820313 9 48 14 48 14 C 48 14 44.804688 2 37 2 C 30 2 25 8 25 8 C 25 8 21 2 15 2 Z M 25.0625 17.015625 C 24.683594 17.078125 24.320313 17.152344 23.960938 17.238281 C 23.125 43.285156 5.640625 47 5.640625 47 L 20.722656 47 C 20.722656 47 32.085938 33.570313 28.128906 17.785156 C 27.1875 17.402344 26.167969 17.132813 25.0625 17.015625 Z"/></svg>