<svg fill="#000000" xmlns="http://www.w3.org/2000/svg"  viewBox="0 0 50 50" width="50px" height="50px"><path d="M 25.4375 0.96875 C 21.132813 0.96875 19.15625 4.832031 17.25 8.5625 C 15.414063 12.15625 13.535156 15.890625 9.59375 17.1875 C 2.632813 19.476563 0.601563 25.203125 1.03125 29.8125 C 1.0625 30.136719 1.300781 32.164063 2.5625 34.3125 C 3.515625 33.960938 4.328125 33.664063 4.34375 33.65625 C 13.148438 29.910156 23.632813 23.683594 26.375 8.78125 C 26.476563 8.226563 27.011719 7.863281 27.5625 7.96875 C 28.117188 8.070313 28.476563 8.601563 28.375 9.15625 C 25.421875 25.191406 13.699219 31.882813 5.125 35.53125 C 5.0625 35.554688 4.511719 35.765625 3.8125 36.03125 C 4.253906 36.523438 4.753906 37 5.34375 37.4375 C 6.730469 38.46875 8.886719 39.03125 11.5625 39.03125 C 17.21875 39.03125 25.21875 36.527344 29.4375 31.03125 C 35.097656 23.660156 37.238281 15.738281 35.34375 9.3125 C 34.230469 5.53125 31.789063 2.722656 28.625 1.59375 C 27.472656 1.183594 26.425781 0.96875 25.4375 0.96875 Z M 34.15625 27.40625 C 33.246094 29.035156 32.191406 30.660156 30.96875 32.25 C 29.988281 33.527344 28.816406 34.636719 27.53125 35.625 C 31.792969 37.351563 36.367188 38.039063 41.40625 37.65625 C 41.980469 37.613281 42.457031 38.03125 42.5 38.59375 C 42.542969 39.15625 42.125 39.644531 41.5625 39.6875 C 40.617188 39.757813 39.675781 39.78125 38.75 39.78125 C 34.042969 39.78125 29.605469 38.84375 25.53125 37 C 21.796875 39.285156 17.4375 40.550781 13.65625 40.90625 C 15.363281 42.917969 17.6875 45.039063 20.65625 46.28125 C 25.019531 48.109375 29.292969 49.03125 33.1875 49.03125 C 36.945313 49.03125 40.34375 48.175781 43.15625 46.46875 C 46.527344 44.425781 48.625 41.316406 48.90625 37.96875 C 49.5 30.988281 44.316406 29.875 39.28125 28.78125 C 37.554688 28.40625 35.78125 28.015625 34.15625 27.40625 Z"/></svg>