<svg fill="#000000" xmlns="http://www.w3.org/2000/svg"  viewBox="0 0 50 50" width="50px" height="50px"><path d="M11.154 20.296c-.489.222-.874.632-1.012 1.13-.689 2.493-.921 5.002-.699 7.494 5.265-.77 9.955-1.811 14.062-2.973C17.896 23.953 13.817 21.866 11.154 20.296zM43.857 21.426c-.144-.521-.56-.946-1.082-1.158-2.723 1.569-6.892 3.667-12.574 5.676 4.164 1.175 8.945 2.223 14.354 2.981C44.779 26.431 44.547 23.921 43.857 21.426zM37.731 9.676c-.715-1.533-1.382-2.775-2.191-3.921-.27-.382-.65-.621-1.103-.69-.121-.019-.242-.011-.363-.005-1.321.731-2.803 1.477-4.46 2.209C32.034 8.155 34.746 8.974 37.731 9.676zM19.93 5.06c-.122-.006-.245-.014-.368.005-.452.07-.833.309-1.104.691-.773 1.096-1.416 2.278-2.096 3.718 2.886-.655 5.504-1.416 7.848-2.24C22.629 6.512 21.207 5.778 19.93 5.06zM45 33c0-.291-.12-.711-.347-1.091-2.968 2.567-7.642 5.842-14.485 8.631 2.759.882 5.784 1.655 9.073 2.274C42.562 40.22 45 36.22 45 33zM9.387 31.839C9.13 32.236 9 32.691 9 33c0 3.229 2.45 7.242 5.785 9.834 3.424-.626 6.544-1.408 9.362-2.296C17.422 37.784 12.609 34.522 9.387 31.839zM39.912 19.534c-4.761-.798-9.042-1.852-12.823-3.016-3.84 1.18-8.211 2.245-13.101 3.043 3.001 1.609 7.279 3.573 12.867 5.374C32.498 23.12 36.849 21.146 39.912 19.534zM26.924 6.213c1.607-.649 3.052-1.318 4.371-1.984C30.088 3.029 28.544 2 27 2c-1.548 0-3.096 1.034-4.304 2.237C23.979 4.899 25.377 5.565 26.924 6.213zM27.154 41.68c-3.432 1.209-7.337 2.274-11.746 3.085.086.17.201.328.362.449C18.328 47.141 21.791 48 27 48s8.672-.859 11.23-2.787c.168-.127.289-.292.374-.472C34.352 43.937 30.54 42.884 27.154 41.68zM42.922 30.71c-6.2-.938-11.55-2.235-16.077-3.65-4.443 1.389-9.647 2.67-15.628 3.618 3.46 2.768 8.689 6.134 15.963 8.834C34.649 36.764 39.745 33.359 42.922 30.71zM42.218 17.867c-.21-1.748-.611-3.583-1.357-5.156-.188-.396-.527-.676-.955-.788-.383-.101-.77-.055-1.134.062-2.317 1.113-5.082 2.291-8.291 3.418C34.014 16.378 37.937 17.232 42.218 17.867zM18.283 11.081c2.515 1.109 5.459 2.253 8.807 3.316 3.216-1.02 6.045-2.114 8.476-3.182-3.234-.836-6.113-1.805-8.658-2.827C24.377 9.365 21.507 10.286 18.283 11.081zM14.094 11.922c-.428.112-.768.392-.954.788-.746 1.574-1.148 3.41-1.358 5.159 4.363-.631 8.344-1.488 11.913-2.469-3.265-1.146-6.073-2.343-8.433-3.471-.008.02-.016.037-.025.057C14.871 11.867 14.48 11.821 14.094 11.922z"/></svg>