<svg fill="#000000" xmlns="http://www.w3.org/2000/svg"  viewBox="0 0 50 50" width="50px" height="50px"><path d="M 23.84375 1.0625 C 23.761719 1.074219 23.703125 1.09375 23.625 1.125 C 22.660156 1.519531 17.789063 3.585938 16.6875 5.34375 C 16.066406 6.332031 15.863281 7.488281 16.125 8.625 C 16.386719 9.761719 17.074219 10.753906 18.0625 11.375 C 18.738281 11.796875 19.46875 12 20.25 12 C 21.65625 12 23.015625 11.316406 24 10.09375 C 25.023438 8.824219 25.019531 6.195313 25 3.1875 L 25 2.03125 C 25 1.699219 24.839844 1.402344 24.5625 1.21875 C 24.355469 1.078125 24.085938 1.027344 23.84375 1.0625 Z M 48.84375 1.0625 C 48.761719 1.074219 48.703125 1.09375 48.625 1.125 C 47.660156 1.519531 42.789063 3.585938 41.6875 5.34375 C 41.066406 6.332031 40.863281 7.484375 41.125 8.625 C 41.386719 9.761719 42.074219 10.753906 43.0625 11.375 C 43.734375 11.796875 44.46875 12 45.25 12 C 46.65625 12 48.015625 11.316406 49 10.09375 C 50.023438 8.824219 50.019531 6.199219 50 3.1875 L 50 2.03125 C 50 1.699219 49.835938 1.402344 49.5625 1.21875 C 49.351563 1.078125 49.085938 1.027344 48.84375 1.0625 Z M 34.875 11.0625 C 34.792969 11.074219 34.703125 11.09375 34.625 11.125 C 33.660156 11.519531 28.789063 13.585938 27.6875 15.34375 C 27.066406 16.332031 26.863281 17.484375 27.125 18.625 C 27.386719 19.761719 28.074219 20.753906 29.0625 21.375 C 29.734375 21.796875 30.46875 22 31.25 22 C 32.65625 22 34.015625 21.316406 35 20.09375 C 36.023438 18.824219 36.019531 16.199219 36 13.1875 L 36 12.03125 C 36 11.699219 35.835938 11.402344 35.5625 11.21875 C 35.351563 11.078125 35.117188 11.027344 34.875 11.0625 Z M 11 27 C 8.230469 27.007813 4.742188 27.875 0.625 29.5625 C 0.28125 29.703125 0.0351563 30.007813 0 30.375 C -0.0351563 30.742188 0.128906 31.105469 0.4375 31.3125 C 1.316406 31.902344 1.914063 33.714844 2.53125 35.625 C 3.8125 39.585938 5.5625 45 12 45 C 15.015625 45 17.6875 43.785156 19.125 41.75 C 19.34375 41.441406 19.511719 41.136719 19.65625 40.8125 C 17.1875 36.96875 12.871094 34.195313 7.25 33.0625 C 6.707031 32.953125 6.359375 32.414063 6.46875 31.875 C 6.578125 31.335938 7.113281 30.984375 7.65625 31.09375 C 13.292969 32.230469 17.738281 34.875 20.5625 38.5625 C 21.613281 37.863281 22.25 36.617188 22.25 35.125 C 22.25 31.753906 18.773438 27 11 27 Z M 20.5625 38.5625 C 20.414063 38.660156 20.257813 38.738281 20.09375 38.8125 C 20.113281 39.453125 19.953125 40.152344 19.65625 40.8125 C 21.179688 43.183594 22 45.945313 22 49 C 22 49.554688 22.449219 50 23 50 C 23.550781 50 24 49.554688 24 49 C 24 48.15625 23.953125 47.332031 23.84375 46.53125 C 23.925781 44.195313 24.589844 42.070313 25.75 40.375 C 25.554688 39.449219 25.601563 38.539063 25.90625 37.8125 C 25.886719 37.792969 25.863281 37.769531 25.84375 37.75 C 24.476563 39.058594 23.457031 40.738281 22.84375 42.65625 C 22.273438 41.183594 21.519531 39.8125 20.5625 38.5625 Z M 25.84375 37.75 C 26.023438 37.578125 26.214844 37.410156 26.40625 37.25 C 29.085938 35.03125 32.738281 34.277344 37 35.09375 C 37.441406 35.179688 37.742188 35.589844 37.65625 36.03125 C 37.570313 36.472656 37.128906 36.773438 36.6875 36.6875 C 32.921875 35.96875 29.730469 36.601563 27.4375 38.5 C 26.792969 39.035156 26.234375 39.667969 25.75 40.375 C 25.832031 40.761719 25.953125 41.152344 26.125 41.53125 C 27.078125 43.621094 29.039063 44.8125 31.53125 44.8125 C 36.273438 44.8125 38.953125 41.332031 40.71875 39.03125 C 41.363281 38.1875 41.976563 37.410156 42.4375 37.125 C 42.636719 37.003906 42.773438 36.792969 42.8125 36.5625 C 42.851563 36.332031 42.769531 36.089844 42.625 35.90625 C 40.503906 33.21875 38.113281 30.1875 31 30.1875 C 28.355469 30.1875 24.375 31.871094 24.375 34.4375 C 24.375 35.988281 25.089844 37.039063 25.84375 37.75 Z"/></svg>