<svg fill="#000000" xmlns="http://www.w3.org/2000/svg"  viewBox="0 0 50 50" width="50px" height="50px"><path d="M 36.5 0.03125 C 36.199219 0.03125 35.910156 0.128906 35.71875 0.375 L 32.90625 4 L 28 4 C 27.445313 4 27 4.449219 27 5 L 27 9.90625 L 23.375 12.71875 C 23.132813 12.90625 23 13.191406 23 13.5 C 23 13.808594 23.132813 14.089844 23.375 14.28125 L 27 17.09375 L 27 22 C 27 22.550781 27.445313 23 28 23 L 32.90625 23 L 35.71875 26.625 C 35.90625 26.871094 36.191406 27 36.5 27 C 36.808594 27 37.09375 26.871094 37.28125 26.625 L 40.09375 23 L 45 23 C 45.554688 23 46 22.550781 46 22 L 46 17.09375 L 49.625 14.28125 C 49.871094 14.09375 50 13.808594 50 13.5 C 50 13.191406 49.871094 12.910156 49.625 12.71875 L 46 9.90625 L 46 5 C 46 4.449219 45.554688 4 45 4 L 40.09375 4 L 37.28125 0.375 C 37.089844 0.128906 36.800781 0.03125 36.5 0.03125 Z M 36.5 8 C 39.535156 8 42 10.460938 42 13.5 C 42 16.539063 39.535156 19 36.5 19 C 33.464844 19 31 16.539063 31 13.5 C 31 10.460938 33.464844 8 36.5 8 Z M 11.09375 27 C 8.371094 27 4.882813 27.851563 0.71875 29.5625 C 0.378906 29.703125 0.132813 30.042969 0.09375 30.40625 C 0.0546875 30.769531 0.226563 31.105469 0.53125 31.3125 C 1.359375 31.882813 1.933594 33.65625 2.53125 35.53125 C 3.800781 39.523438 5.527344 45 12 45 C 15.015625 45 17.585938 43.828125 19.0625 41.8125 C 19.300781 41.488281 19.496094 41.15625 19.65625 40.8125 C 17.195313 36.988281 12.914063 34.238281 7.3125 33.09375 C 6.769531 32.984375 6.421875 32.449219 6.53125 31.90625 C 6.640625 31.367188 7.144531 31.015625 7.6875 31.125 C 13.296875 32.269531 17.714844 34.894531 20.53125 38.5625 C 21.617188 37.875 22.3125 36.617188 22.3125 35.09375 C 22.3125 31.730469 18.820313 27 11.09375 27 Z M 20.53125 38.5625 C 20.394531 38.648438 20.273438 38.746094 20.125 38.8125 C 20.136719 39.464844 19.964844 40.144531 19.65625 40.8125 C 21.179688 43.179688 22 45.953125 22 49 C 22 49.554688 22.449219 50 23 50 C 23.550781 50 24 49.554688 24 49 C 24 48.449219 23.953125 47.910156 23.90625 47.375 C 23.957031 47.253906 24 47.136719 24 47 C 24 44.667969 24.609375 42.53125 25.6875 40.8125 C 25.386719 39.761719 25.382813 38.671875 25.71875 37.8125 C 25.683594 37.78125 25.660156 37.753906 25.625 37.71875 C 24.335938 38.984375 23.363281 40.59375 22.75 42.40625 C 22.191406 41.027344 21.4375 39.742188 20.53125 38.5625 Z M 25.625 37.71875 C 25.832031 37.519531 26.027344 37.308594 26.25 37.125 C 28.976563 34.863281 32.734375 34.085938 37.09375 34.90625 C 37.636719 35.007813 37.976563 35.550781 37.875 36.09375 C 37.773438 36.636719 37.261719 36.980469 36.71875 36.875 C 32.960938 36.167969 29.785156 36.785156 27.53125 38.65625 C 26.808594 39.253906 26.199219 39.996094 25.6875 40.8125 C 25.761719 41.078125 25.820313 41.335938 25.9375 41.59375 C 26.875 43.664063 28.898438 44.90625 31.34375 44.90625 L 31.5 44.90625 C 36.367188 44.90625 39.058594 41.371094 40.84375 39.03125 C 41.480469 38.203125 42.074219 37.414063 42.5 37.15625 C 42.746094 37.007813 42.917969 36.722656 42.96875 36.4375 C 43.019531 36.152344 42.898438 35.820313 42.71875 35.59375 C 40.558594 32.921875 38.117188 29.90625 31 29.90625 C 28.261719 29.90625 24.1875 31.796875 24.1875 34.40625 C 24.1875 35.929688 24.867188 36.960938 25.625 37.71875 Z"/></svg>