<svg fill="#000000" xmlns="http://www.w3.org/2000/svg"  viewBox="0 0 50 50" width="50px" height="50px"><path d="M 25 4 A 9 3 0 0 0 25 10 A 9 3 0 0 0 25 4 z M 14 7 L 14 16 L 8.2597656 20.099609 C 7.4697656 20.669609 7 21.579062 7 22.539062 L 7 28 L 5 31 L 0 34 L 4.0898438 33.300781 L 7 32 L 6 34 L 2 40 L 8.3300781 34.570312 C 8.7700781 34.200313 9.09 33.710156 9.25 33.160156 L 12 24 L 18 21 L 18 27 L 13 32 C 12.95 32.05 11.190625 37.400078 10.390625 39.830078 C 10.140625 40.580078 10.200781 41.399375 10.550781 42.109375 L 13 47 L 11.550781 41.050781 L 14 36 L 15.550781 41.009766 L 15.550781 41.070312 C 15.560781 41.130313 15.590625 41.190469 15.640625 41.230469 L 18.300781 43.429688 L 16.199219 40.890625 L 16 33 L 20.599609 28.880859 C 21.089609 28.450859 21.469453 27.899297 21.689453 27.279297 L 24 21 L 26 26 L 24 32 L 20.619141 36.220703 C 20.229141 36.710703 20.090234 37.360937 20.240234 37.960938 L 21.779297 44.039062 L 21 47 L 23 44.039062 L 22 38 L 25.949219 34.900391 L 28 37 L 28 49 L 30.699219 37.310547 C 30.889219 36.480547 30.720469 35.600391 30.230469 34.900391 L 28.369141 32.269531 L 31.289062 28.029297 C 31.749063 27.359297 32 26.57 32 25.75 L 32 21 L 36 25 L 33.400391 31.949219 C 33.140391 32.629219 33.140391 33.370781 33.400391 34.050781 L 36 41 L 34.390625 45.480469 L 37 41 L 35.849609 34.009766 L 40 28 L 41.660156 32.150391 C 41.890156 32.720391 42.280781 33.209063 42.800781 33.539062 C 44.760781 34.829062 49.680234 37.970156 49.990234 38.160156 L 44.380859 32.150391 L 42.210938 23.789062 C 42.070938 23.269063 41.799922 22.799922 41.419922 22.419922 L 36 17 L 36 7 C 36 10.69 30.07 12 25 12 C 19.93 12 14 10.69 14 7 z"/></svg>