<svg fill="#000000" xmlns="http://www.w3.org/2000/svg"  viewBox="0 0 48 48" width="24px" height="24px"><path d="M 24 3 C 17.917806 3 12.910798 7.2526189 11.505859 12.916016 C 6.5659608 14.761341 3 19.43341 3 25 C 3 32.161738 8.8382615 38 16 38 L 22.5 38 L 22.5 43.5 A 1.50015 1.50015 0 1 0 25.5 43.5 L 25.5 36.746094 A 1.50015 1.50015 0 0 0 25.5 36.259766 L 25.5 32.621094 L 33.560547 24.560547 A 1.50015 1.50015 0 1 0 31.439453 22.439453 L 25.5 28.378906 L 25.5 28.220703 A 1.50015 1.50015 0 0 0 25.5 27.808594 L 25.5 12.5 A 1.50015 1.50015 0 1 0 22.5 12.5 L 22.5 24.378906 L 16.560547 18.439453 A 1.50015 1.50015 0 1 0 14.439453 20.560547 L 22.5 28.621094 L 22.5 31.810547 A 1.50015 1.50015 0 0 0 22.5 32.214844 L 22.5 35 L 16 35 C 10.459738 35 6 30.540262 6 25 C 6 20.464974 9.0056822 16.66199 13.119141 15.425781 L 14.003906 15.160156 L 14.164062 14.25 C 14.991775 9.5628203 19.059694 6 24 6 C 28.940306 6 33.008226 9.5628203 33.835938 14.25 L 33.996094 15.160156 L 34.880859 15.425781 C 38.994317 16.66199 42 20.464974 42 25 C 42 30.540262 37.540262 35 32 35 L 29 35 A 1.50015 1.50015 0 1 0 29 38 L 32 38 C 39.161738 38 45 32.161738 45 25 C 45 19.43341 41.43404 14.761341 36.494141 12.916016 C 35.089202 7.2526189 30.082194 3 24 3 z"/></svg>