<svg fill="#000000" xmlns="http://www.w3.org/2000/svg"  viewBox="0 0 48 48" width="24px" height="24px"><path d="M 29.5 3 C 26.957604 3 24.742359 4.3030205 23.386719 6.2519531 C 22.234562 5.5301126 20.95427 5 19.5 5 C 15.522764 5 12.313193 8.1615541 12.083984 12.083984 C 7.6095765 12.314429 4 15.970668 4 20.5 L 4 33.5 L 4 36.5 A 1.50015 1.50015 0 1 0 7 36.5 L 7 33.5 C 7 32.653501 7.6535009 32 8.5 32 C 9.3464991 32 10 32.653501 10 33.5 L 10 38.5 A 1.50015 1.50015 0 1 0 13 38.5 L 13 33.5 L 13 32 C 13 30.877657 13.877657 30 15 30 C 16.122343 30 17 30.877657 17 32 L 17 35.5 L 17 37.5 C 17 38.23225 16.755255 39.541945 16.191406 40.470703 C 15.627557 41.399461 14.955465 42 13.5 42 A 1.50015 1.50015 0 0 0 13.5 45 L 22.056641 45 L 34.5 45 A 1.50015 1.50015 0 0 0 34.5 42 C 33.044535 42 32.372443 41.399461 31.808594 40.470703 C 31.244745 39.541945 31 38.23225 31 37.5 L 31 36.5 L 31 35 L 31 31 C 31 29.877657 31.877657 29 33 29 C 34.122343 29 35 29.877657 35 31 L 35 34.5 L 35 36.5 A 1.50015 1.50015 0 1 0 38 36.5 L 38 34.5 C 38 33.653501 38.653501 33 39.5 33 C 40.346499 33 41 33.653501 41 34.5 L 41 38.5 A 1.50015 1.50015 0 1 0 44 38.5 L 44 34.5 L 44 19.5 C 44 15.354673 40.93948 12.040766 37 11.304688 L 37 10.5 C 37 6.3754991 33.624501 3 29.5 3 z M 29.5 6 C 32.003499 6 34 7.9965009 34 10.5 L 34 12.253906 A 1.50015 1.50015 0 0 0 34.435547 13.576172 A 1.50015 1.50015 0 0 0 34.443359 13.583984 A 1.50015 1.50015 0 0 0 34.462891 13.603516 A 1.50015 1.50015 0 0 0 35.585938 14.017578 C 38.598429 14.065856 41 16.475237 41 19.5 L 41 30.279297 C 40.527904 30.109157 40.027452 30 39.5 30 C 38.921753 30 38.375143 30.131304 37.865234 30.333984 C 37.523058 27.914212 35.508161 26 33 26 C 30.256343 26 28 28.256343 28 31 L 28 31.205078 C 27.672186 31.116801 27.353755 31 27 31 C 26.437348 31 25.902126 31.121583 25.414062 31.335938 C 24.641901 29.954538 23.180916 29 21.5 29 C 20.716507 29 19.988386 29.223331 19.34375 29.582031 C 18.484432 28.053525 16.864256 27 15 27 C 13.135744 27 11.515568 28.053525 10.65625 29.582031 C 10.011614 29.223331 9.2834928 29 8.5 29 C 7.9725476 29 7.4720958 29.109157 7 29.279297 L 7 20.5 C 7 17.444657 9.444657 15 12.5 15 L 13.5 15 A 1.50015 1.50015 0 0 0 15 13.5 L 15 12.5 C 15 9.9965009 16.996501 8 19.5 8 C 20.805235 8 21.958377 8.5487285 22.785156 9.4335938 A 1.50015 1.50015 0 0 0 25.287109 8.9335938 C 25.923324 7.2235317 27.553497 6 29.5 6 z M 21.5 32 C 22.346499 32 23 32.653501 23 33.5 L 23 35 L 23 37.5 A 1.50015 1.50015 0 1 0 26 37.5 L 26 35 C 26 34.429282 26.429282 34 27 34 C 27.570718 34 28 34.429282 28 35 L 28 36.5 L 28 37.5 C 28 38.759977 28.29244 40.436971 29.232422 42 L 22.056641 42 L 18.767578 42 C 19.70756 40.436971 20 38.759977 20 37.5 L 20 35.5 L 20 33.5 C 20 32.653501 20.653501 32 21.5 32 z"/></svg>