<svg id="Layer_2" data-name="Layer 2" xmlns="http://www.w3.org/2000/svg" viewBox="0 0 128 128">
  <title>01 Colosseum</title>
  <g>
    <path d="M19,76a6,6,0,0,1,12,0v7h9V76a6,6,0,0,1,12,0v7h9V76a6,6,0,0,1,12,0v7H89.209l-2.6285-6.6455-4.4423-.3653-4.1571-5.0335-3.9149-2.2268L72.8739,66H11V83h8Z"/>
    <path d="M21,51a6,6,0,0,1,12,0v7h9V51a6,6,0,0,1,12,0v7H72.0657l-3.054-6.538-4.3664-1.904L61.7628,42H11V58H21Z"/>
    <path d="M11,91v21h5V101a6,6,0,0,1,12,0v11h9V101a6,6,0,0,1,12,0v11h9V101a6,6,0,0,1,12,0v11h9V101a6,6,0,0,1,12,0v11h9V101a6,6,0,0,1,12,0v11h5V91Z"/>
    <rect x="8" y="60" width="73" height="4"/>
    <path d="M75.0563,66l.5765,1.3193,3.6563,2.08,3.854,4.666,4.84.398L91.36,83H95V76a6,6,0,0,1,12,0v7h10V66Z"/>
    <polygon points="64 40 8 40 8 36 63 36 64 40"/>
    <path d="M55.1036,31.3107l-4.0929-2.2786L49,24H11V34H56.7646ZM19,31a2,2,0,1,1,2-2A2,2,0,0,1,19,31Zm12,0a2,2,0,1,1,2-2A2,2,0,0,1,31,31Zm12,0a2,2,0,1,1,2-2A2,2,0,0,1,43,31Z"/>
    <rect x="8" y="85" width="112" height="4"/>
    <rect x="83" y="60" width="37" height="4"/>
  </g>
</svg>
