<svg id="Layer_2" data-name="Layer 2" xmlns="http://www.w3.org/2000/svg" viewBox="0 0 128 128">
  <title>02 Pisa Tower</title>
  <g>
    <path d="M75.4744,94.5725l4.8907,1.04,4.1583-19.5633L45.3975,67.7324,41.2392,87.2956l4.8907,1.04,2.9109-13.6942A3,3,0,0,1,54.91,75.8884L51.9988,89.5826,57.8677,90.83l2.9108-13.6942a3,3,0,0,1,3.5582-2.3108h0a3,3,0,0,1,2.3107,3.5582L63.7366,92.0776l5.8689,1.2474,2.9108-13.6942a3,3,0,1,1,5.8689,1.2475Z"/>
    <path d="M46.8528,60.8857l4.8907,1.0395L54.6544,48.231a3,3,0,1,1,5.8689,1.2474L57.6124,63.1726l5.869,1.2474,2.9108-13.6941a3,3,0,0,1,5.8688,1.2474L69.35,65.6674l5.8689,1.2475L78.13,53.2208A3,3,0,0,1,81.6881,50.91h0a3,3,0,0,1,2.3107,3.5581L81.0881,68.1622l4.8907,1.04L90.137,49.6392,51.0111,41.3227Z"/>
    <path d="M52.4664,34.4756l4.8908,1.0395L60.268,21.821a3,3,0,0,1,5.8689,1.2474L63.2261,36.7626,69.095,38.01l2.9108-13.6942a3,3,0,1,1,5.8688,1.2475L74.9639,39.2576l5.8688,1.2474,2.9108-13.6941a3,3,0,1,1,5.8689,1.2474L86.7016,41.7525l4.8907,1.04,4.1583-19.5632L56.6248,14.9126Z"/>
    <path d="M84,119H78.4623l3.1715-14.9395-44.99-9.563L31.4326,119H25a1,1,0,0,0,0,2H84a1,1,0,0,0,0-2ZM68.58,105.37a6.4971,6.4971,0,0,1,5,7.71L72.3224,119H59.0331l1.8369-8.62A6.5064,6.5064,0,0,1,68.58,105.37Zm-28.25.64a6.4978,6.4978,0,1,1,12.71,2.71L50.8619,119H37.563Z"/>
    <rect x="57.9705" y="69.3663" width="4" height="52" transform="translate(-45.7803 134.1986) rotate(-78)"/>
    <rect x="64.1881" y="45.4672" width="3" height="46" transform="translate(-14.9403 118.4847) rotate(-78)"/>
    <rect x="69.8018" y="19.0572" width="3" height="46" transform="translate(15.3392 103.0567) rotate(-78)"/>
    <polygon points="89.943 16.883 90.827 12.726 65.395 7.321 64.511 11.477 54.73 9.398 54.106 12.332 99.101 21.896 99.725 18.962 89.943 16.883"/>
  </g>
</svg>
