<svg id="Layer_2" data-name="Layer 2" xmlns="http://www.w3.org/2000/svg" viewBox="0 0 128 128">
  <title>03 Louvre</title>
  <g>
    <polygon points="73.614 60.268 80.733 69.802 87.599 60.606 80.481 51.072 73.614 60.268"/>
    <polygon points="79.485 71.473 72.367 61.939 65.248 71.473 72.367 81.007 79.485 71.473"/>
    <polygon points="71.119 82.679 64 73.145 56.881 82.679 64 92.213 71.119 82.679"/>
    <polygon points="55.633 84.35 49.17 93.006 62.124 93.042 55.633 84.35"/>
    <polygon points="95.966 71.812 88.847 62.277 88.847 62.277 81.981 71.473 89.1 81.007 95.966 71.812"/>
    <polygon points="87.852 82.679 80.733 73.144 73.614 82.679 80.733 92.213 87.852 82.679"/>
    <polygon points="72.367 84.35 65.869 93.052 78.891 93.089 72.367 84.35"/>
    <polygon points="62.752 71.473 55.633 61.939 48.515 71.473 55.633 81.007 62.752 71.473"/>
    <polygon points="15.301 94.222 22.167 103.418 29.285 93.884 22.419 84.688 22.419 84.688 15.301 94.222 15.301 94.222"/>
    <polygon points="37.652 82.679 30.786 73.483 23.667 83.017 30.533 92.213 37.652 82.679"/>
    <polygon points="72.367 58.597 79.233 49.401 79.233 49.401 72.114 39.867 72.114 39.867 65.248 49.063 72.367 58.597"/>
    <polygon points="40.148 82.679 47.267 92.213 54.385 82.679 47.267 73.145 40.148 82.679"/>
    <polygon points="24.228 104 36.839 104 30.533 95.555 24.228 104"/>
    <polygon points="14.053 95.894 8 104 20.106 104 14.053 95.894 14.053 95.894"/>
    <polygon points="64 47.391 70.866 38.196 64 29 57.134 38.196 64 47.391"/>
    <polygon points="112.699 94.222 112.699 94.222 105.581 84.688 105.581 84.688 98.714 93.884 105.833 103.418 112.699 94.222"/>
    <polygon points="56.881 60.268 64 69.802 71.119 60.268 64 50.734 56.881 60.268"/>
    <polygon points="113.947 95.894 107.895 104 120 104 113.947 95.894"/>
    <polygon points="104.333 83.017 97.214 73.483 90.348 82.679 97.467 92.213 104.333 83.017"/>
    <polygon points="91.161 104 103.772 104 97.467 95.555 91.161 104"/>
    <polygon points="55.968 39.757 48.767 49.401 48.767 49.401 55.633 58.597 62.752 49.063 55.886 39.867 55.968 39.757"/>
    <polygon points="47.267 69.802 54.385 60.268 47.519 51.072 47.519 51.072 40.401 60.606 47.267 69.802"/>
    <polygon points="38.9 81.007 46.019 71.473 39.153 62.278 39.153 62.278 32.034 71.812 38.9 81.007"/>
    <polygon points="89.1 84.35 81.981 93.884 89.1 103.418 96.219 93.884 89.1 84.35"/>
    <polygon points="46.019 93.884 38.9 84.35 31.781 93.884 38.9 103.418 46.019 93.884"/>
  </g>
</svg>
