<svg id="Layer_2" data-name="Layer 2" xmlns="http://www.w3.org/2000/svg" viewBox="0 0 128 128">
  <title>04 Eifel Towel</title>
  <g>
    <path d="M46.7511,81a190.2337,190.2337,0,0,1-23.47,39h16.17A249.1926,249.1926,0,0,0,56.6159,81Z"/>
    <rect x="44" y="74" width="40" height="5"/>
    <path d="M56.933,50A164.0684,164.0684,0,0,1,50.44,72h8.9168A154.0178,154.0178,0,0,0,63.761,50Z"/>
    <path d="M64.239,50a154.0178,154.0178,0,0,0,4.4038,22H77.56A164.0684,164.0684,0,0,1,71.067,50Z"/>
    <polygon points="74 48 54 48 53 45 75 45 74 48"/>
    <path d="M60.32,28q-.6864,7.7313-1.9815,15H69.6611Q68.3728,35.7282,67.68,28Z"/>
    <polygon points="69 22 69 17 66 17 66 8 62 8 62 17 59 17 59 22 57 22 57 26 71 26 71 22 69 22"/>
    <path d="M70.29,83.9549a21.2645,21.2645,0,0,0-12.5769-.0076q-1.3545,3.9189-2.9107,7.9092a16.25,16.25,0,0,1,18.3926-.0079Q71.6329,87.8613,70.29,83.9549Z"/>
    <path d="M81.2489,81H71.3841a249.1926,249.1926,0,0,0,17.1641,39h16.1706A190.23,190.23,0,0,1,81.2489,81Z"/>
  </g>
</svg>
