<svg id="Layer_2" data-name="Layer 2" xmlns="http://www.w3.org/2000/svg" viewBox="0 0 128 128">
  <title>05 Taj Mahal</title>
  <g>
    <rect x="49" y="60" width="30" height="4"/>
    <path d="M44,113h9V91.6526C54,83.3052,59.625,77.0105,64,74c4.375,3.0106,10,9.3053,11,17.6527V113h8V66H44Z"/>
    <path d="M24,113H42V73H24Zm5-29.0909a8.67,8.67,0,0,1,4-5.8636,8.67,8.67,0,0,1,4,5.8636V89H29Zm0,17a8.67,8.67,0,0,1,4-5.8636,8.67,8.67,0,0,1,4,5.8636V106H29Z"/>
    <path d="M8,113H22V77H8Zm3-26.0909a8.67,8.67,0,0,1,4-5.8636,8.67,8.67,0,0,1,4,5.8636V92H11Zm0,16a8.67,8.67,0,0,1,4-5.8636,8.67,8.67,0,0,1,4,5.8636V108H11Z"/>
    <path d="M105,77v36h14V77Zm11,31h-8v-5.0909a8.67,8.67,0,0,1,4-5.8636,8.67,8.67,0,0,1,4,5.8636Zm0-16h-8V86.9091a8.67,8.67,0,0,1,4-5.8636,8.67,8.67,0,0,1,4,5.8636Z"/>
    <path d="M85,113h18V73H85Zm5-29.0909a8.67,8.67,0,0,1,4-5.8636,8.67,8.67,0,0,1,4,5.8636V89H90Zm0,17a8.67,8.67,0,0,1,4-5.8636,8.67,8.67,0,0,1,4,5.8636V106H90Z"/>
    <path d="M88.0154,41.8334C87.5,33.1666,77.9377,29.4067,73.25,28.25A16.1277,16.1277,0,0,1,65,23.296V13a1,1,0,0,0-2,0V23.296a16.1277,16.1277,0,0,1-8.25,4.954c-4.6877,1.1567-14.25,4.9166-14.7654,13.5834C39.3506,52.4921,44.5,54.25,48.5,56a5.4044,5.4044,0,0,1,2.6964,2H76.8036A5.4044,5.4044,0,0,1,79.5,56C83.5,54.25,88.6494,52.4921,88.0154,41.8334Z"/>
    <rect x="26" y="68" width="14" height="3"/>
    <rect x="87" y="68" width="14" height="3"/>
    <path d="M27.0374,65c.86.3762,1.0644.7482,1.0885,1h9.4149c.0241-.2518.2285-.6238,1.0884-1,1.4957-.6544,3.4212-1.3117,3.1842-5.2973-.1927-3.2408-3.7684-4.6467-5.5212-5.0792a5.8537,5.8537,0,0,1-3.4589-2.3371,5.8533,5.8533,0,0,1-3.4588,2.3371c-1.7529.4325-5.3285,1.8384-5.5212,5.0792C23.6162,63.6883,25.5417,64.3456,27.0374,65Z"/>
    <path d="M97.6255,54.6235a5.8533,5.8533,0,0,1-3.4588-2.3371,5.8537,5.8537,0,0,1-3.4589,2.3371c-1.7528.4325-5.3285,1.8384-5.5212,5.0792C84.95,63.6883,86.8751,64.3456,88.3708,65c.86.3762,1.0643.7482,1.0884,1h9.4149c.0241-.2518.2286-.6238,1.0885-1,1.4957-.6544,3.4212-1.3117,3.1841-5.2973C102.954,56.4619,99.3784,55.056,97.6255,54.6235Z"/>
  </g>
</svg>
