<svg id="Layer_2" data-name="Layer 2" xmlns="http://www.w3.org/2000/svg" viewBox="0 0 128 128">
  <title>06 Pyramid</title>
  <g>
    <polygon points="46.614 56.607 59.303 104 82 104 46.614 56.607"/>
    <polygon points="73.579 38.93 90.502 104.094 120.351 104.257 73.579 38.93"/>
    <path d="M51.3423,82H42a1,1,0,0,1,0-2h8.8069L44.238,55.467,17.7067,91H27a1,1,0,0,1,0,2H16.2134L8,104H57.2329ZM34,93H31a1,1,0,0,1,0-2h3a1,1,0,0,1,0,2Zm4-11H35a1,1,0,0,1,0-2h3a1,1,0,0,1,0,2Z"/>
    <path d="M78.2832,65H69a1,1,0,0,1,0-2h8.7639l-6.297-24.2463L54.194,63.4169,63.5894,76H70a1,1,0,0,1,0,2H65.0826L84.542,104.0617l3.8913.0212ZM65,65H62a1,1,0,0,1,0-2h3a1,1,0,0,1,0,2Z"/>
  </g>
</svg>
