<svg id="Layer_2" data-name="Layer 2" xmlns="http://www.w3.org/2000/svg" viewBox="0 0 128 128">
  <title>08 Sphinx</title>
  <g>
    <path d="M91,90a1,1,0,0,1,0-2h9.6882L98.26,75.24A11.6868,11.6868,0,0,0,88,66.1V76.32L69.96,84.05,70.09,74h-.35l-2.67,4H60.93l-2.67-4h-.35l.13,10.05L40,76.32V66.1a11.6868,11.6868,0,0,0-10.26,9.14L28.6438,81H36a1,1,0,0,1,0,2H28.2632L26.17,94H37.12a6.0008,6.0008,0,0,1,5.69,4.1l3.3,9.9H81.89l3.3-9.9A6.0008,6.0008,0,0,1,90.88,94h10.95l-.7613-4ZM43,83H40a1,1,0,0,1,0-2h3a1,1,0,0,1,0,2ZM60,96H50a1,1,0,0,1,0-2H60a1,1,0,0,1,0,2Zm8,0H65a1,1,0,0,1,0-2h3a1,1,0,0,1,0,2Zm19-6H84a1,1,0,0,1,0-2h3a1,1,0,0,1,0,2Z"/>
    <g>
      <path d="M76,45.783V24a4,4,0,0,0-4-4H66V18H62v2H56a4,4,0,0,0-4,4V45.783a4,4,0,0,0,1.88,3.392l5.0176,3.136L59.085,48h9.83l.1874,4.311L74.12,49.175A4,4,0,0,0,76,45.783ZM55,31a1,1,0,0,1,1-1h4a.9993.9993,0,0,1,.707.293l1,1a1,1,0,1,1-1.414,1.414L59.5859,32H56A1,1,0,0,1,55,31ZM69.4473,43.8945l-2,1A1,1,0,0,1,67,45H61a1,1,0,0,1-.4473-.1055l-2-1a1,1,0,0,1,.8946-1.789L61.2363,43h5.5274l1.789-.8945a1,1,0,0,1,.8946,1.789ZM72,32H68.4141l-.7071.707a1,1,0,0,1-1.414-1.414l1-1A.9993.9993,0,0,1,68,30h4a1,1,0,0,1,0,2Z"/>
      <path d="M52.82,50.8706A5.9648,5.9648,0,0,1,50,45.7832V39H49a2,2,0,0,1-2-2V32a2,2,0,0,1,2-2h1V24a5.9688,5.9688,0,0,1,1.5405-4H48.31a4,4,0,0,0-3.4648,2.0011L31,46l6.3688,4.0529A10,10,0,0,1,42,58.4894V75l14,6-.3875-28.3839Z"/>
      <path d="M83.1545,22.0011A4,4,0,0,0,79.69,20H76.46A5.9688,5.9688,0,0,1,78,24v6h1a2,2,0,0,1,2,2v5a2,2,0,0,1-2,2H78v6.7832a5.9661,5.9661,0,0,1-2.8193,5.0874l-2.7932,1.7455L72,81l14-6V58.4894a10,10,0,0,1,4.6312-8.4365L97,46Z"/>
    </g>
    <polygon points="68 73 67 50 61 50 60 73 62 76 66 76 68 73"/>
    <path d="M20.0381,100.7251a1,1,0,0,1,1.9238.55L20.04,108H31.96l-1.9214-6.7251a1,1,0,0,1,1.9238-.55L34.0405,108H44l-3.0884-9.265A4,4,0,0,0,37.1169,96H14.8831a4,4,0,0,0-3.7947,2.735L8,108h9.9594Z"/>
    <path d="M96.0381,100.7251a1,1,0,0,1,1.9238.55L96.0406,108h11.9188l-1.9213-6.7251a1,1,0,0,1,1.9238-.55L110.04,108H120l-3.0884-9.265A4,4,0,0,0,113.1169,96H90.8831a4,4,0,0,0-3.7947,2.735L84,108h9.96Z"/>
  </g>
</svg>
