<svg id="Layer_2" data-name="Layer 2" xmlns="http://www.w3.org/2000/svg" viewBox="0 0 128 128">
  <title>11 Liberty Statue</title>
  <g>
    <path d="M78.6621,107.77a13.5959,13.5959,0,0,1-5.5176-.9624l-1.3657-.646.938-5.6274-1.5942-1.3218c-.2105.4336-.7,1.4214-.7,1.4214l-3.7906,1.2637a21.0633,21.0633,0,0,1-3.1792.7754l-.0815.0136-2.4937.2066-2.4023,5.7651-.9263.2647a32.1426,32.1426,0,0,1-8.105.9658,34.1829,34.1829,0,0,1-3.5777-.1962A26.0514,26.0514,0,0,1,42,120H55.4619a28.5364,28.5364,0,0,0,8.7173-13.2588,1,1,0,0,1,1.9072.6016A30.3633,30.3633,0,0,1,58.399,120H81a62.8733,62.8733,0,0,1-1.9324-12.2418C78.933,107.7609,78.7956,107.77,78.6621,107.77Z"/>
    <path d="M50.66,30.94,58,33.598V34H70v-.4051L77.34,30.94a1,1,0,1,0-.68-1.88L70,31.47V30h-.8818l2.7763-5.5527a1,1,0,0,0-1.789-.8946L66.8818,30H65V22a1,1,0,0,0-2,0v8H61.1182l-3.2237-6.4473a1,1,0,0,0-1.789.8946L58.8818,30H58v1.4714L51.34,29.06a1,1,0,0,0-.68,1.88Z"/>
    <path d="M31.7512,18.4329c1.6172.0539,4.0264-.302,5.184-3.8755C37.6244,12.43,37,8,37,8c-2,4-5.679,3.1269-7,6C29.2346,15.6647,30.2412,18.3826,31.7512,18.4329Z"/>
    <path d="M40.3134,40.94,35.7386,27.2159,34.7656,35H32.5l2.353,9.4119a19.2554,19.2554,0,0,0,4.289,8.1228l2.5033,2.8161,2.8431-7.3923A19.247,19.247,0,0,1,40.3134,40.94Z"/>
    <polygon points="34 25 36 25 36 21 27 21 27 25 29 25 30 33 33 33 34 25"/>
    <path d="M78.0805,66.1188l3.3533-5.8076a15.4265,15.4265,0,0,0-4.8456-5.9234,7.0119,7.0119,0,0,1,.7433,2.5829Z"/>
    <path d="M83.8032,77.2944a2.9783,2.9783,0,0,1,.3-2.2773l2.5977-4.499a3,3,0,0,1,4.0971-1.0987l2.0229,1.1678,1.808-3.1315-11.2584-6.5-5.0035,8.6664.7932,9.6874,6.4687,3.7347,1.5938-2.7606-2.0218-1.1679A2.9776,2.9776,0,0,1,83.8032,77.2944Z"/>
    <rect x="85.6854" y="72.5269" width="7.1961" height="4.9641" rx="1" transform="translate(-20.3178 114.8266) rotate(-60.0002)"/>
    <path d="M47.4412,68.1617c3.5695-2.3886,5.644-5.6867,6.5783-10.358a1,1,0,1,1,1.961.3926c-1.0845,5.4227-3.664,9.2963-8.02,12.0026l-.5,14.9948.585-.5024A95.3115,95.3115,0,0,0,63,68c6-9,7-15.625,7-15.625l-3.46-.4325-.3663-4.03.5094-.2547A6,6,0,0,0,70,42.2918V42l2.3162-.7721A1,1,0,0,0,73,40.2792V38a1,1,0,0,0-1-1H70V36H58v1H56a1,1,0,0,0-1,1v2.2792a1,1,0,0,0,.6838.9487L58,42v.2918a6,6,0,0,0,3.3167,5.3665l.5094.2547-.3093,3.4016-9.5182-1.19a31.1024,31.1024,0,0,1-2.07,10.2468,1,1,0,0,1-1.8574-.7432A29.3517,29.3517,0,0,0,50,50v-.75L47,47,42,60Z"/>
    <path d="M78.1015,90.8839l-.5352-6.5374c-1.622,4.5265-4.0819,9.9053-5.5519,13.0076l1.083.8977.2708-1.6244a1,1,0,0,1,1.9726.3291l-.5781,3.4673v0L74,105s3.2465,1.5366,9.1232.2683L79.5747,96.88A19.4635,19.4635,0,0,1,78.1015,90.8839Z"/>
    <path d="M61.7438,100.814,63.12,100.7A34.8582,34.8582,0,0,0,69,99s1.31-2.73,1.41-2.95c2.15-4.56,6.05-13.23,6.7-17.33L75.94,64.48c-1.72,7.49-5.7,17.17-8.15,22.77a.9991.9991,0,0,1-.92.6,1.14,1.14,0,0,1-.4-.08.992.992,0,0,1-.51-1.32c2.83-6.46,7.72-18.42,8.68-25.89.25-1.58.44-2.96.57-4.16v-.03a5.0958,5.0958,0,0,0-3.25-3.61c-.12.77-1.37,7.46-7.3,16.35a96.5906,96.5906,0,0,1-15.31,17.1l-1.98,1.7-.19,5.7a20.081,20.081,0,0,1-3.04,9.96L42,107a32.0159,32.0159,0,0,0,15,0l2.5-6L62,95a1,1,0,1,1,1.8457.7695Z"/>
  </g>
</svg>
