<svg id="Layer_2" data-name="Layer 2" xmlns="http://www.w3.org/2000/svg" viewBox="0 0 128 128">
  <title>12 Borobudur</title>
  <g>
    <path d="M103,106h10v-4H15v5H25a1,1,0,0,1,0,2H15v3h98v-4H103a1,1,0,0,1,0-2Zm-71,3H29a1,1,0,0,1,0-2h3a1,1,0,0,1,0,2Zm67-1H96a1,1,0,0,1,0-2h3a1,1,0,0,1,0,2Z"/>
    <rect x="8" y="114" width="112" height="6"/>
    <rect x="12" y="94" width="104" height="6"/>
    <path d="M92.1585,75.4887,91.0874,48.8481A20,20,0,0,0,71.1206,30H71V25H67L66,8H62L61,25H57v5H55.8794A20,20,0,0,0,35.9126,48.8481L34.8415,75.4887A6.8242,6.8242,0,0,1,32.83,80H94.17A6.8242,6.8242,0,0,1,92.1585,75.4887ZM77.39,37.8663l4.4187,4.4186L77.39,46.7035l-4.4186-4.4186Zm-6.186,9.7209,4.4186,4.4186-4.4186,4.4186-4.4186-4.4186Zm-7.07-.8837-4.4186-4.4186,4.4186-4.4186,4.4186,4.4186Zm-7.3372.8837,4.4186,4.4186-4.4186,4.4186-4.4186-4.4186Zm-6.186-9.7209,4.4186,4.4186-4.4186,4.4186-4.4187-4.4186Zm-6.1861,9.7209,4.4186,4.4186-4.4186,4.4186-4.4186-4.4186Zm0,27.8372-4.4186-4.4186,4.4186-4.4186,4.4186,4.4186Zm1.7674-14.14,4.4187-4.4186,4.4186,4.4186-4.4186,4.4186Zm10.6047,14.14-4.4186-4.4186,4.4186-4.4186,4.4186,4.4186Zm2.9186-14.14,4.4186-4.4186,4.4186,4.4186-4.4186,4.4186Zm11.4884,14.14-4.4186-4.4186,4.4186-4.4186,4.4186,4.4186Zm1.7674-14.14L77.39,56.8663l4.4187,4.4186L77.39,65.7035Zm10.6047,14.14L79.157,71.0058l4.4186-4.4186,4.4186,4.4186Zm0-19L79.157,52.0058l4.4186-4.4186,4.4186,4.4186Z"/>
    <path d="M107.1228,84.8054A4,4,0,0,0,103.3053,82H24.6947a4,4,0,0,0-3.8175,2.8054L18.6259,92h90.7482Z"/>
  </g>
</svg>
