<svg id="Layer_2" data-name="Layer 2" xmlns="http://www.w3.org/2000/svg" viewBox="0 0 128 128">
  <title>13 Pagoda</title>
  <g>
    <rect x="36" y="100.0005" width="10" height="13.9995"/>
    <path d="M78,114V100.0005H50V114h8v-4a6,6,0,0,1,12,0v4Z"/>
    <rect x="82" y="100.0005" width="10" height="13.9995"/>
    <path d="M64,98H96a20.387,20.387,0,0,0,13-4c-9,1-14.1027-1.5905-18-7H37c-3.8973,5.4095-9,8-18,7a20.387,20.387,0,0,0,13,4Z"/>
    <path d="M41,85H87V81H41Z"/>
    <path d="M64,79H87.273a14.8273,14.8273,0,0,0,9.4547-2.9092C91,76,89.4711,74.9342,86.6366,71H41.3634C38.5289,74.9342,37,76,31.2723,76.0909A14.8273,14.8273,0,0,0,40.727,79Z"/>
    <path d="M41,69H87V65H41Z"/>
    <path d="M64,63H87.273a14.8273,14.8273,0,0,0,9.4547-2.9092C91,60,89.4711,58.9342,86.6366,55H41.3634C38.5289,58.9342,37,60,31.2723,60.0909A14.8273,14.8273,0,0,0,40.727,63Z"/>
    <path d="M64,47H87.273a14.8273,14.8273,0,0,0,9.4547-2.9092C91,44,89.4711,42.9342,86.6366,39H41.3634C38.5289,42.9342,37,44,31.2723,44.0909A14.8273,14.8273,0,0,0,40.727,47Z"/>
    <path d="M64,31H82.4889A11.7785,11.7785,0,0,0,90,28.689c-9.7236-.3573-19.875-3.2572-25-11.0768V8a1,1,0,0,0-2,0v9.6122c-5.125,7.82-15.2764,10.72-25,11.0768A11.7785,11.7785,0,0,0,45.5111,31Z"/>
    <rect x="24" y="116" width="80" height="4"/>
    <path d="M41,53H87V49H41Z"/>
    <path d="M47,37H81V33H47Z"/>
  </g>
</svg>
