<svg id="Layer_2" data-name="Layer 2" xmlns="http://www.w3.org/2000/svg" viewBox="0 0 128 128">
  <title>15 Christ the Redeemer</title>
  <g>
    <polygon points="81.003 34 81.931 50.244 104 46 110 34 81.003 34"/>
    <path d="M54.7,25.6065,54.1667,32H59V30.6162A9.93,9.93,0,0,1,54.7,25.6065Z"/>
    <path d="M69,30.6167V32h4.8333l-.5328-6.3934A9.93,9.93,0,0,1,69,30.6167Z"/>
    <polygon points="12.168 32 8 33 8 39 12.52 40 18 40 18.764 40 15.301 33.074 12.168 32"/>
    <polygon points="115.832 32 112.699 33.074 109.236 40 110 40 115.48 40 120 39 120 33 115.832 32"/>
    <rect x="47" y="99" width="34" height="4"/>
    <rect x="42" y="105" width="44" height="15"/>
    <path d="M46.2058,42.6923c-6.3861-3.13-7.2678-7.736-7.3113-7.9877L38.7747,34H18l6,12,21.1987,4.0767Z"/>
    <path d="M47,72c7.9366,5.8415,20,5,33,8l-.3447-7.9282L71.9092,76.498l.8579-33.4373A40.0638,40.0638,0,0,1,59.3809,45.439H59.38a35.0591,35.0591,0,0,1-4.6936-.3192c-.1356,6.0374-.0381,12.0015.31,17.7855l.2227,3.7031-7.4548-4.287Z"/>
    <path d="M48.1116,43.515,46,59l7,4.0256c-.3621-6.0165-.4519-12.097-.3054-18.2331A28.4434,28.4434,0,0,1,48.1116,43.515Z"/>
    <path d="M54,43a36.9946,36.9946,0,0,0,18.822-2.0854L73,34H67V29.412l.5776-.2888A8,8,0,0,0,72,21.9677v-.389l3.0884-1.0294A1.3335,1.3335,0,0,0,76,19.2843V16.2454a1.3333,1.3333,0,0,0-1.3333-1.3334H72V13.8081a5.5627,5.5627,0,0,0-5.5627-5.5627H61.5627A5.5627,5.5627,0,0,0,56,13.8081V14.912H53.3333A1.3333,1.3333,0,0,0,52,16.2454v3.0389a1.3335,1.3335,0,0,0,.9116,1.265L56,21.5787v.389a8,8,0,0,0,4.4224,7.1555L61,29.412V34H40.8035l.0628.3678S42,41,54,43Z"/>
    <polygon points="74 73 81 69 79 34 75 34 74 73"/>
    <path d="M70.2334,85.5752a.9825.9825,0,0,1,1.06.9355L71.9492,97h4.9995l-.4021-15.6791c-3.2715-.6266-6.476-1.0592-9.5984-1.4767-5.4907-.7346-10.771-1.4421-15.3756-3.1764L51.0513,97h4.8559l.95-15.6294a1,1,0,1,1,1.9961.1211L57.9106,97h5.2906V82.7642a1,1,0,1,1,2,0V97h4.7441l-.6474-10.3643A1.0005,1.0005,0,0,1,70.2334,85.5752Z"/>
  </g>
</svg>
