<svg id="Layer_2" data-name="Layer 2" xmlns="http://www.w3.org/2000/svg" viewBox="0 0 128 128">
  <title>16 Monas</title>
  <g>
    <polygon points="71 33 57 33 55 28 73 28 71 33"/>
    <rect x="24" y="95" width="80" height="5"/>
    <polygon points="94 115 64 115 34 115 32 120 64 120 96 120 94 115"/>
    <path d="M28.1777,102c5.656,2.9213,10.4567,6.4091,13.5916,11H60v-5h8v5H86.2307c3.1349-4.5909,7.9356-8.0787,13.5916-11Z"/>
    <path d="M67.719,26A21.9935,21.9935,0,0,0,69,20c0-3-5-12-5-12s-5,9-5,12a21.9935,21.9935,0,0,0,1.281,6Z"/>
    <polygon points="59.258 35 57.075 93 70.925 93 68.742 35 59.258 35"/>
  </g>
</svg>
