<svg id="Layer_2" data-name="Layer 2" xmlns="http://www.w3.org/2000/svg" viewBox="0 0 128 128">
  <title>17 Big Ben</title>
  <g>
    <path d="M50.0505,78a13.895,13.895,0,0,0,1.3675,5.1093h0l0,0a14.0523,14.0523,0,0,0,4.7334,5.4838h0a15.0914,15.0914,0,0,0,1.7388.9884l0,0h0A13.895,13.895,0,0,0,63,90.95h0a9.855,9.855,0,0,0,2,0,13.895,13.895,0,0,0,5.1093-1.3675h0l0,0a15.3971,15.3971,0,0,0,1.7388-.9884h0a14.0768,14.0768,0,0,0,3.745-3.745h0a15.2486,15.2486,0,0,0,.9884-1.7388l0,0h0A13.895,13.895,0,0,0,77.95,78h0a9.8872,9.8872,0,0,0,0-2h0a13.895,13.895,0,0,0-1.3675-5.1093h0l0,0a14.0544,14.0544,0,0,0-4.7334-5.4838h0a15.2486,15.2486,0,0,0-1.7388-.9884l0,0h0A13.895,13.895,0,0,0,65,63.0505h0a9.8872,9.8872,0,0,0-2,0h0a13.895,13.895,0,0,0-5.1093,1.3675h0l0,0a15.0858,15.0858,0,0,0-1.7388.9884h0A14.0531,14.0531,0,0,0,51.4182,70.89l0,0h0A13.895,13.895,0,0,0,50.0505,76h0a9.8872,9.8872,0,0,0,0,2Zm3.1028-6.1075,1.34.7735a1,1,0,0,0,1-1.7324l-1.3443-.7761a12.057,12.057,0,0,1,3.0086-3.0086l.7761,1.3443a1,1,0,1,0,1.7324-1l-.7735-1.34A11.9062,11.9062,0,0,1,63,65.0505V66.6a1,1,0,0,0,2,0v-1.55a11.9062,11.9062,0,0,1,4.1075,1.1028l-.7735,1.34a1,1,0,1,0,1.7324,1l.7761-1.3443a12.057,12.057,0,0,1,3.0086,3.0086l-1.3443.7761a1,1,0,0,0,1,1.7324l1.34-.7735A11.9062,11.9062,0,0,1,75.95,76H74.4a1,1,0,0,0,0,2h1.55a11.9062,11.9062,0,0,1-1.1028,4.1075l-1.34-.7735a1,1,0,0,0-1,1.7324l1.3442.7761a12.0579,12.0579,0,0,1-3.0085,3.0085l-.7761-1.3442a1,1,0,1,0-1.7324,1l.7735,1.34A11.9062,11.9062,0,0,1,65,88.95V87.4a1,1,0,0,0-2,0v1.55a11.9062,11.9062,0,0,1-4.1075-1.1028l.7735-1.34a1,1,0,1,0-1.7324-1l-.7761,1.3442a12.057,12.057,0,0,1-3.0086-3.0086l1.3443-.776a1,1,0,0,0-1-1.7324l-1.34.7735A11.9062,11.9062,0,0,1,52.0505,78H53.6a1,1,0,0,0,0-2h-1.55A11.9062,11.9062,0,0,1,53.1533,71.8925Z"/>
    <path d="M63.5317,78.0142a1.0005,1.0005,0,0,0,1.08.0254l5.7232-3.49a1,1,0,1,0-1.0411-1.708l-5.1752,3.1558-3.1094-2.0992A1,1,0,0,0,59.89,75.5557Z"/>
    <polygon points="87 50 83 43 64 43 45 43 41 50 64 50 87 50"/>
    <path d="M64,33H81L65,16.0588V8a1,1,0,0,0-2,0v8.0588L47,33Z"/>
    <path d="M45,120h7V107a2,2,0,0,1,4,0v13h6V107a2,2,0,0,1,4,0v13h6V107a2,2,0,0,1,4,0v13h7V101H45Z"/>
    <path d="M83,52H45v3H41V99H87V55H83Zm0,43.3478H45V58.6522H83Z"/>
    <path d="M51,41H77V35H51Zm20-4a1,1,0,0,1,2,0v2a1,1,0,0,1-2,0Zm-4,0a1,1,0,0,1,2,0v2a1,1,0,0,1-2,0Zm-4,0a1,1,0,0,1,2,0v2a1,1,0,0,1-2,0Zm-4,0a1,1,0,0,1,2,0v2a1,1,0,0,1-2,0Zm-4,0a1,1,0,0,1,2,0v2a1,1,0,0,1-2,0Z"/>
  </g>
</svg>
