<svg id="Layer_2" data-name="Layer 2" xmlns="http://www.w3.org/2000/svg" viewBox="0 0 128 128">
  <title>18 Sydney Opera House</title>
  <g>
    <path d="M38.7,82H26.31a24.4191,24.4191,0,0,1,6.66-11.03Z"/>
    <path d="M32.02,69.15A26.4118,26.4118,0,0,0,24.21,82H20.32L8,67.41a23.2159,23.2159,0,0,1,7.18-3.82,22.8762,22.8762,0,0,1,13.94-.02Z"/>
    <path d="M120.1,55.72,107.92,82h-6.21L90.06,63.11a27.5329,27.5329,0,0,1,30.04-7.39Z"/>
    <path d="M55.7,63.5A50.88,50.88,0,0,0,43.94,82H40.95L23.3,48.04a34.9881,34.9881,0,0,1,30.5,3.52Z"/>
    <path d="M56.1,65.96,58.66,82H46.06A48.4034,48.4034,0,0,1,56.1,65.96Z"/>
    <path d="M88.55,62.63,64.67,82H60.68L52.72,32.11A34.973,34.973,0,0,1,88.55,62.63Z"/>
    <path d="M99.36,82H67.84C96.61,58.6666,86.7151,66.6914,88.85,64.96Z"/>
    <rect x="8" y="94" width="112" height="5"/>
    <polygon points="22 84 22 92 67 92 67 88 74 88 74 92 78 92 78 88 85 88 85 92 107 92 107 84 22 84"/>
  </g>
</svg>
