<svg id="Layer_2" data-name="Layer 2" xmlns="http://www.w3.org/2000/svg" viewBox="0 0 128 128">
  <title>19 Petronas Tower</title>
  <g>
    <path d="M41,21H36.5V17H35V8a1,1,0,0,0-2,0v9H31.5v4H27v7H41Zm-9,4a1,1,0,0,1-2,0V24a1,1,0,0,1,2,0Zm3,0a1,1,0,0,1-2,0V24a1,1,0,0,1,2,0Zm3,0a1,1,0,0,1-2,0V24a1,1,0,0,1,2,0Z"/>
    <path d="M43,30H25V43H43ZM31,39a1,1,0,0,1-2,0V38a1,1,0,0,1,2,0Zm0-5a1,1,0,0,1-2,0V33a1,1,0,0,1,2,0Zm4,5a1,1,0,0,1-2,0V38a1,1,0,0,1,2,0Zm0-5a1,1,0,0,1-2,0V33a1,1,0,0,1,2,0Zm4,5a1,1,0,0,1-2,0V38a1,1,0,0,1,2,0Zm0-5a1,1,0,0,1-2,0V33a1,1,0,0,1,2,0Z"/>
    <path d="M46,45H22V58H46ZM27,55a1,1,0,0,1-2,0V54a1,1,0,0,1,2,0Zm0-5a1,1,0,0,1-2,0V49a1,1,0,0,1,2,0Zm4,5a1,1,0,0,1-2,0V54a1,1,0,0,1,2,0Zm0-5a1,1,0,0,1-2,0V49a1,1,0,0,1,2,0Zm4,5a1,1,0,0,1-2,0V54a1,1,0,0,1,2,0Zm0-5a1,1,0,0,1-2,0V49a1,1,0,0,1,2,0Zm4,5a1,1,0,0,1-2,0V54a1,1,0,0,1,2,0Zm0-5a1,1,0,0,1-2,0V49a1,1,0,0,1,2,0Zm4,5a1,1,0,0,1-2,0V54a1,1,0,0,1,2,0Zm0-5a1,1,0,0,1-2,0V49a1,1,0,0,1,2,0Z"/>
    <path d="M101,21H96.5V17H95V8a1,1,0,0,0-2,0v9H91.5v4H87v7h14Zm-9,4a1,1,0,0,1-2,0V24a1,1,0,0,1,2,0Zm3,0a1,1,0,0,1-2,0V24a1,1,0,0,1,2,0Zm3,0a1,1,0,0,1-2,0V24a1,1,0,0,1,2,0Z"/>
    <path d="M103,30H85V43h18ZM91,39a1,1,0,0,1-2,0V38a1,1,0,0,1,2,0Zm0-5a1,1,0,0,1-2,0V33a1,1,0,0,1,2,0Zm4,5a1,1,0,0,1-2,0V38a1,1,0,0,1,2,0Zm0-5a1,1,0,0,1-2,0V33a1,1,0,0,1,2,0Zm4,5a1,1,0,0,1-2,0V38a1,1,0,0,1,2,0Zm0-5a1,1,0,0,1-2,0V33a1,1,0,0,1,2,0Z"/>
    <path d="M106,45H82V58h24ZM87,55a1,1,0,0,1-2,0V54a1,1,0,0,1,2,0Zm0-5a1,1,0,0,1-2,0V49a1,1,0,0,1,2,0Zm4,5a1,1,0,0,1-2,0V54a1,1,0,0,1,2,0Zm0-5a1,1,0,0,1-2,0V49a1,1,0,0,1,2,0Zm4,5a1,1,0,0,1-2,0V54a1,1,0,0,1,2,0Zm0-5a1,1,0,0,1-2,0V49a1,1,0,0,1,2,0Zm4,5a1,1,0,0,1-2,0V54a1,1,0,0,1,2,0Zm0-5a1,1,0,0,1-2,0V49a1,1,0,0,1,2,0Zm4,5a1,1,0,0,1-2,0V54a1,1,0,0,1,2,0Zm0-5a1,1,0,0,1-2,0V49a1,1,0,0,1,2,0Z"/>
    <path d="M80,60v5H48V60H20v60H48V85.2188L60.3234,71h7.3532L80,85.2188V120h28V60ZM27,112a1,1,0,0,1-2,0v-1a1,1,0,0,1,2,0Zm0-5a1,1,0,0,1-2,0v-1a1,1,0,0,1,2,0Zm0-5a1,1,0,0,1-2,0v-1a1,1,0,0,1,2,0Zm0-5a1,1,0,0,1-2,0V96a1,1,0,0,1,2,0Zm0-5a1,1,0,0,1-2,0V91a1,1,0,0,1,2,0Zm0-5a1,1,0,0,1-2,0V86a1,1,0,0,1,2,0Zm0-5a1,1,0,0,1-2,0V81a1,1,0,0,1,2,0Zm0-5a1,1,0,0,1-2,0V76a1,1,0,0,1,2,0Zm0-5a1,1,0,0,1-2,0V71a1,1,0,0,1,2,0Zm0-5a1,1,0,0,1-2,0V66a1,1,0,0,1,2,0Zm4,45a1,1,0,0,1-2,0v-1a1,1,0,0,1,2,0Zm0-5a1,1,0,0,1-2,0v-1a1,1,0,0,1,2,0Zm0-5a1,1,0,0,1-2,0v-1a1,1,0,0,1,2,0Zm0-5a1,1,0,0,1-2,0V96a1,1,0,0,1,2,0Zm0-5a1,1,0,0,1-2,0V91a1,1,0,0,1,2,0Zm0-5a1,1,0,0,1-2,0V86a1,1,0,0,1,2,0Zm0-5a1,1,0,0,1-2,0V81a1,1,0,0,1,2,0Zm0-5a1,1,0,0,1-2,0V76a1,1,0,0,1,2,0Zm0-5a1,1,0,0,1-2,0V71a1,1,0,0,1,2,0Zm0-5a1,1,0,0,1-2,0V66a1,1,0,0,1,2,0Zm4,45a1,1,0,0,1-2,0v-1a1,1,0,0,1,2,0Zm0-5a1,1,0,0,1-2,0v-1a1,1,0,0,1,2,0Zm0-5a1,1,0,0,1-2,0v-1a1,1,0,0,1,2,0Zm0-5a1,1,0,0,1-2,0V96a1,1,0,0,1,2,0Zm0-5a1,1,0,0,1-2,0V91a1,1,0,0,1,2,0Zm0-5a1,1,0,0,1-2,0V86a1,1,0,0,1,2,0Zm0-5a1,1,0,0,1-2,0V81a1,1,0,0,1,2,0Zm0-5a1,1,0,0,1-2,0V76a1,1,0,0,1,2,0Zm0-5a1,1,0,0,1-2,0V71a1,1,0,0,1,2,0Zm0-5a1,1,0,0,1-2,0V66a1,1,0,0,1,2,0Zm4,45a1,1,0,0,1-2,0v-1a1,1,0,0,1,2,0Zm0-5a1,1,0,0,1-2,0v-1a1,1,0,0,1,2,0Zm0-5a1,1,0,0,1-2,0v-1a1,1,0,0,1,2,0Zm0-5a1,1,0,0,1-2,0V96a1,1,0,0,1,2,0Zm0-5a1,1,0,0,1-2,0V91a1,1,0,0,1,2,0Zm0-5a1,1,0,0,1-2,0V86a1,1,0,0,1,2,0Zm0-5a1,1,0,0,1-2,0V81a1,1,0,0,1,2,0Zm0-5a1,1,0,0,1-2,0V76a1,1,0,0,1,2,0Zm0-5a1,1,0,0,1-2,0V71a1,1,0,0,1,2,0Zm0-5a1,1,0,0,1-2,0V66a1,1,0,0,1,2,0Zm4,45a1,1,0,0,1-2,0v-1a1,1,0,0,1,2,0Zm0-5a1,1,0,0,1-2,0v-1a1,1,0,0,1,2,0Zm0-5a1,1,0,0,1-2,0v-1a1,1,0,0,1,2,0Zm0-5a1,1,0,0,1-2,0V96a1,1,0,0,1,2,0Zm0-5a1,1,0,0,1-2,0V91a1,1,0,0,1,2,0Zm0-5a1,1,0,0,1-2,0V86a1,1,0,0,1,2,0Zm0-5a1,1,0,0,1-2,0V81a1,1,0,0,1,2,0Zm0-5a1,1,0,0,1-2,0V76a1,1,0,0,1,2,0Zm0-5a1,1,0,0,1-2,0V71a1,1,0,0,1,2,0Zm0-5a1,1,0,0,1-2,0V66a1,1,0,0,1,2,0Zm5,15.165V71h9.6766ZM70.3233,71H80V82.1649ZM87,112a1,1,0,0,1-2,0v-1a1,1,0,0,1,2,0Zm0-5a1,1,0,0,1-2,0v-1a1,1,0,0,1,2,0Zm0-5a1,1,0,0,1-2,0v-1a1,1,0,0,1,2,0Zm0-5a1,1,0,0,1-2,0V96a1,1,0,0,1,2,0Zm0-5a1,1,0,0,1-2,0V91a1,1,0,0,1,2,0Zm0-5a1,1,0,0,1-2,0V86a1,1,0,0,1,2,0Zm0-5a1,1,0,0,1-2,0V81a1,1,0,0,1,2,0Zm0-5a1,1,0,0,1-2,0V76a1,1,0,0,1,2,0Zm0-5a1,1,0,0,1-2,0V71a1,1,0,0,1,2,0Zm0-5a1,1,0,0,1-2,0V66a1,1,0,0,1,2,0Zm4,45a1,1,0,0,1-2,0v-1a1,1,0,0,1,2,0Zm0-5a1,1,0,0,1-2,0v-1a1,1,0,0,1,2,0Zm0-5a1,1,0,0,1-2,0v-1a1,1,0,0,1,2,0Zm0-5a1,1,0,0,1-2,0V96a1,1,0,0,1,2,0Zm0-5a1,1,0,0,1-2,0V91a1,1,0,0,1,2,0Zm0-5a1,1,0,0,1-2,0V86a1,1,0,0,1,2,0Zm0-5a1,1,0,0,1-2,0V81a1,1,0,0,1,2,0Zm0-5a1,1,0,0,1-2,0V76a1,1,0,0,1,2,0Zm0-5a1,1,0,0,1-2,0V71a1,1,0,0,1,2,0Zm0-5a1,1,0,0,1-2,0V66a1,1,0,0,1,2,0Zm4,45a1,1,0,0,1-2,0v-1a1,1,0,0,1,2,0Zm0-5a1,1,0,0,1-2,0v-1a1,1,0,0,1,2,0Zm0-5a1,1,0,0,1-2,0v-1a1,1,0,0,1,2,0Zm0-5a1,1,0,0,1-2,0V96a1,1,0,0,1,2,0Zm0-5a1,1,0,0,1-2,0V91a1,1,0,0,1,2,0Zm0-5a1,1,0,0,1-2,0V86a1,1,0,0,1,2,0Zm0-5a1,1,0,0,1-2,0V81a1,1,0,0,1,2,0Zm0-5a1,1,0,0,1-2,0V76a1,1,0,0,1,2,0Zm0-5a1,1,0,0,1-2,0V71a1,1,0,0,1,2,0Zm0-5a1,1,0,0,1-2,0V66a1,1,0,0,1,2,0Zm4,45a1,1,0,0,1-2,0v-1a1,1,0,0,1,2,0Zm0-5a1,1,0,0,1-2,0v-1a1,1,0,0,1,2,0Zm0-5a1,1,0,0,1-2,0v-1a1,1,0,0,1,2,0Zm0-5a1,1,0,0,1-2,0V96a1,1,0,0,1,2,0Zm0-5a1,1,0,0,1-2,0V91a1,1,0,0,1,2,0Zm0-5a1,1,0,0,1-2,0V86a1,1,0,0,1,2,0Zm0-5a1,1,0,0,1-2,0V81a1,1,0,0,1,2,0Zm0-5a1,1,0,0,1-2,0V76a1,1,0,0,1,2,0Zm0-5a1,1,0,0,1-2,0V71a1,1,0,0,1,2,0Zm0-5a1,1,0,0,1-2,0V66a1,1,0,0,1,2,0Zm4,45a1,1,0,0,1-2,0v-1a1,1,0,0,1,2,0Zm0-5a1,1,0,0,1-2,0v-1a1,1,0,0,1,2,0Zm0-5a1,1,0,0,1-2,0v-1a1,1,0,0,1,2,0Zm0-5a1,1,0,0,1-2,0V96a1,1,0,0,1,2,0Zm0-5a1,1,0,0,1-2,0V91a1,1,0,0,1,2,0Zm0-5a1,1,0,0,1-2,0V86a1,1,0,0,1,2,0Zm0-5a1,1,0,0,1-2,0V81a1,1,0,0,1,2,0Zm0-5a1,1,0,0,1-2,0V76a1,1,0,0,1,2,0Zm0-5a1,1,0,0,1-2,0V71a1,1,0,0,1,2,0Zm0-5a1,1,0,0,1-2,0V66a1,1,0,0,1,2,0Z"/>
  </g>
</svg>
