<svg id="Layer_2" data-name="Layer 2" xmlns="http://www.w3.org/2000/svg" viewBox="0 0 128 128">
  <title>20 Forbidden City</title>
  <g>
    <path d="M75,79v6H53V79H8v25H37V97a5,5,0,0,1,10,0v7H59V97a5,5,0,0,1,10,0v7H80V97a5,5,0,0,1,10,0v7h30V79Z"/>
    <path d="M104,71V59.9512c-.3594.0141-.71.0488-1.0752.0488h-77.85c-.3655,0-.7158-.0347-1.0752-.0488V71h8V68a5,5,0,0,1,10,0v3H59V68a5,5,0,0,1,10,0v3H86V68a5,5,0,0,1,10,0v3Z"/>
    <path d="M64,58h38.7556A20.6224,20.6224,0,0,0,118.5,51.4542C107.6,53.0905,101.42,48.8516,96.7,40H31.3c-4.72,8.8516-10.9,13.09-21.8,11.4542A20.6224,20.6224,0,0,0,25.2444,58Z"/>
    <path d="M64,32H87.273a14.8273,14.8273,0,0,0,9.4547-2.9092C91,29,89.4711,27.9342,86.6366,24H86V20H82v4H46V20H42v4h-.6366C38.5289,27.9342,37,29,31.2723,29.0909A14.8273,14.8273,0,0,0,40.727,32Z"/>
    <rect x="16" y="73" width="96" height="4"/>
    <rect x="41" y="34" width="46" height="4"/>
  </g>
</svg>
