<svg id="Layer_2" data-name="Layer 2" xmlns="http://www.w3.org/2000/svg" viewBox="0 0 128 128">
  <title>21 Basil Cathedral</title>
  <g>
    <path d="M17.8194,103.8026a44.4338,44.4338,0,0,0,3.8224-4.689,46.9738,46.9738,0,0,1-3.37-5.9213,49.47,49.47,0,0,1-3.7979,5.801A47.2314,47.2314,0,0,0,17.8194,103.8026Z"/>
    <path d="M19.12,105.37A35.71,35.71,0,0,0,22.77,109h1.14A33.72,33.72,0,0,0,27,105.97v-.19a46.0727,46.0727,0,0,1-4.14-4.91A45.07,45.07,0,0,1,19.12,105.37Z"/>
    <path d="M10.4135,95.6331a8.3663,8.3663,0,0,0-1.38,4.2042,19.6109,19.6109,0,0,0,.0081,2.3719,42.2942,42.2942,0,0,0,3.0274-3.3766C11.4521,97.7532,10.9082,96.6839,10.4135,95.6331Z"/>
    <path d="M31,93.6V90.8586c-.4444-.16-.8691-.3-1.2353-.4-.1949-.0533-.38-.1155-.5643-.1783C29.74,91.3845,30.3383,92.4962,31,93.6Z"/>
    <path d="M13.1619,100.6462a42.1063,42.1063,0,0,1-3.7306,3.9476,6.4383,6.4383,0,0,0,2.8728,3.9557,29.364,29.364,0,0,0,4.1119-3.3276A49.4994,49.4994,0,0,1,13.1619,100.6462Z"/>
    <path d="M27.9,92.1611a45.5983,45.5983,0,0,1-3.8272,6.9695A46.0944,46.0944,0,0,0,27,102.83V96h3.1425C29.3282,94.7361,28.5714,93.4483,27.9,92.1611Z"/>
    <path d="M17.2568,90.8577c-.0111-.0284-.0191-.0558-.03-.0841a14.9651,14.9651,0,0,0-5.401,3.163c.4568,1.0345.9806,2.0988,1.5666,3.1733A46.3215,46.3215,0,0,0,17.2568,90.8577Z"/>
    <path d="M17.72,106.77A31.5328,31.5328,0,0,1,15.13,109h4.7C19.11,108.3,18.4,107.55,17.72,106.77Z"/>
    <path d="M26.7256,89.7291c-.1543-.3488-.3009-.6955-.4426-1.0406A10.2682,10.2682,0,0,1,25,87.4772V81a1,1,0,0,0-2,0v6.4788a10.1572,10.1572,0,0,1-3.0319,2.3148c-.17.3786-.3379.7572-.5213,1.1365A42.5473,42.5473,0,0,0,22.85,97.3246,41.1119,41.1119,0,0,0,26.7256,89.7291Z"/>
    <rect x="16" y="111" width="11" height="9"/>
    <rect x="29" y="98" width="32" height="22"/>
    <rect x="76" y="108" width="16" height="12"/>
    <path d="M73.1641,108.2729c-2.62-1.2558-6.5791-3.1533-6.128-11.5429.333-6.1992,5.7315-9.8506,10.6719-11.2007a7.6653,7.6653,0,0,0,2.0487-.9L79.2416,76H64.9405a14.985,14.985,0,0,1-5.0938,3.5752l-.4268.2129c-.1569.0787-.2944.1539-.42.2267V96h4v24H74V108.723a3.9676,3.9676,0,0,0-.5322-.3041Z"/>
    <path d="M94.8359,108.2729l-.3027.146a3.7532,3.7532,0,0,0-.5332.3069V120h21V102H100.5339C99.468,106.0458,96.7836,107.3394,94.8359,108.2729Z"/>
    <path d="M65.1111,25h3.7778a4.7223,4.7223,0,0,0,0-9.4445H68V8a1,1,0,0,0-2,0v7.5555h-.8889a4.7223,4.7223,0,0,0,0,9.4445Z"/>
    <path d="M66.28,74H82V69H67.775A14.9471,14.9471,0,0,1,66.28,74Z"/>
    <path d="M47.3125,65.4805A29.0591,29.0591,0,0,0,42.76,70.3271c-1.8944,2.7493-.3567,5.9923.7187,7.6729h4.2374a7.8412,7.8412,0,0,1-.35-5.2622c.68-2.1113,2.7051-3.9229,4.85-5.8408,2.2217-1.9873,4.52-4.0425,4.7764-6.1206.3468-2.8076-1.1351-7.2747-2.1632-9.9467-.6385-.2387-1.2341-.4314-1.7584-.58-.1407-.04-.2666-.0931-.4034-.1367.4613,2.7008.7608,6.144-.0529,8.62C51.7178,61.4624,49.5781,63.4141,47.3125,65.4805Z"/>
    <path d="M58.9766,61.0215c-.3477,2.8232-2.93,5.1328-5.4278,7.3662-1.8506,1.6558-3.7656,3.3677-4.2783,4.9629A6.39,6.39,0,0,0,49.9047,78h2.9459a9.2908,9.2908,0,0,1,3.1758-7.0112c3.0185-2.6294,4.9746-5.77,5.3681-8.6158.2663-1.9378-.8708-6.2171-1.7419-9.0565A20.9944,20.9944,0,0,0,57.37,51.959C58.3317,54.7663,59.3,58.4076,58.9766,61.0215Z"/>
    <path d="M41.8662,60.7241c-3.8271,2.7017-7.7851,5.4956-7.67,10.0405.0625,2.46,1.2851,3.77,2.4678,5.0357a9.9614,9.9614,0,0,1,1.695,2.2h2.7951c-1.1821-2.2331-2.22-5.6456-.0409-8.8076a30.6065,30.6065,0,0,1,4.8515-5.19c2.0655-1.8842,4.0166-3.664,4.7491-5.8945.8145-2.4778.277-6.3279-.2542-8.9155a13.6045,13.6045,0,0,1-1.5742-.9827c.05,2.5493-.2873,5.6949-1.863,8.0291C45.9326,57.8535,43.957,59.248,41.8662,60.7241Z"/>
    <path d="M65.9535,63.8334a12.5978,12.5978,0,0,0-3.55-8.1714c.6585,2.52,1.2039,5.2972.9717,6.984-.458,3.3184-2.6572,6.9087-6.0342,9.8506A7.36,7.36,0,0,0,54.8541,78h3.67C62.0137,76.25,66.5066,74.4921,65.9535,63.8334Z"/>
    <path d="M28.9641,76.6663c-1.3569-2.3038-3.9839-8.006-.7141-13.491a16.8884,16.8884,0,0,1,7.1367-6.51,11.4284,11.4284,0,0,0,4.4766-3.6469A12.4865,12.4865,0,0,0,41.9,47.6008,13.4233,13.4233,0,0,1,36.9294,50.25c-4.09,1.1567-12.4332,4.9166-12.8829,13.5834C23.6216,72.0217,26.1755,74.9521,28.9641,76.6663Z"/>
    <path d="M41.5361,54.1143a13.35,13.35,0,0,1-5.167,4.2929,14.9837,14.9837,0,0,0-6.4,5.7925c-3.4473,5.7817,1.2373,12.2715,1.2851,12.3364L32.3379,78h3.6077c-.2171-.26-.46-.5306-.7435-.8345a8.9685,8.9685,0,0,1-3.0058-6.35c-.1416-5.6133,4.6592-9.0024,8.5166-11.7251,1.9375-1.3676,3.7666-2.66,4.6514-3.97,1.6925-2.5068,1.6409-6.3836,1.4024-8.7783-.2876-.3091-.5516-.61-.7667-.8815V38a1,1,0,0,0-2,0v5.79c.0033.1377.0037.2665.0078.4087A15.5208,15.5208,0,0,1,41.5361,54.1143Z"/>
    <path d="M112,100V86H92v.0883c4.403,1.6652,8.669,5.1528,8.9639,10.6417a20.1309,20.1309,0,0,1-.0766,3.27Zm-8-9h4v5h-4Z"/>
    <path d="M67.95,63.73a31.679,31.679,0,0,1,0,3.27H78.5728L70.0057,26.8993A6.7094,6.7094,0,0,1,68.8887,27H65.1113c-.1888,0-.3745-.0131-.5594-.0284L59.1681,50.66C63.7791,53.3019,67.6337,57.6142,67.95,63.73Z"/>
    <path d="M33,96H57V80H33Zm17-9h4v5H50Zm-7,0h4v5H43Zm-7,0h4v5H36Z"/>
    <path d="M77.7937,104.0862c-.7173.6824-1.454,1.3161-2.2025,1.9138h3.9937Q78.6729,105.0861,77.7937,104.0862Z"/>
    <path d="M82.489,106h.8748a38.0365,38.0365,0,0,0,3.292-3.34,45.6455,45.6455,0,0,1-3.7209-4.4876,45.4107,45.4107,0,0,1-3.7274,4.4981A38.0368,38.0368,0,0,0,82.489,106Z"/>
    <path d="M81.7115,96.4114A47.4207,47.4207,0,0,1,78.3607,90.5a48.4527,48.4527,0,0,1-3.8085,5.8227,46.6967,46.6967,0,0,0,3.35,4.7927A44.524,44.524,0,0,0,81.7115,96.4114Z"/>
    <path d="M98.8052,100.54a16.8919,16.8919,0,0,0,.1616-3.7027,8.6214,8.6214,0,0,0-2.7387-5.8465,40.913,40.913,0,0,1-2.1015,4.4178A41.0089,41.0089,0,0,0,98.8052,100.54Z"/>
    <path d="M72.5888,105.7224a28.969,28.969,0,0,0,3.9038-3.1738A48.94,48.94,0,0,1,73.23,97.9778a41.5324,41.5324,0,0,1-3.7106,3.9205A6.4308,6.4308,0,0,0,72.5888,105.7224Z"/>
    <path d="M88.0642,104.0752c-.5889.6705-1.1929,1.31-1.8049,1.9248h3.997C89.51,105.4021,88.7792,104.7573,88.0642,104.0752Z"/>
    <path d="M94.6035,89.6633a16.6856,16.6856,0,0,0-4.8388-2.205c-.233-.0637-.4568-.136-.6747-.2131A44.4631,44.4631,0,0,0,92.8221,93.63,36.77,36.77,0,0,0,94.6035,89.6633Z"/>
    <path d="M87.9689,89.4715A45.981,45.981,0,0,1,84.16,96.4124a44.9575,44.9575,0,0,0,3.7949,4.6835A47.145,47.145,0,0,0,91.75,95.5644,47.8855,47.8855,0,0,1,87.9689,89.4715Z"/>
    <path d="M69.0332,96.8373a18.7681,18.7681,0,0,0,.04,2.7468,41.7421,41.7421,0,0,0,3.0646-3.4232c-.6507-1.14-1.2489-2.2935-1.7783-3.4475A8.3684,8.3684,0,0,0,69.0332,96.8373Z"/>
    <path d="M98.1927,102.676a41.6557,41.6557,0,0,1-5.1368-5.41,49.6373,49.6373,0,0,1-3.6943,5.2628A28.4236,28.4236,0,0,0,93.6813,106h1.2329A6.6545,6.6545,0,0,0,98.1927,102.676Z"/>
    <path d="M79.5344,88.223a43.3831,43.3831,0,0,0,3.3974,6.3685,41.924,41.924,0,0,0,3.8639-7.5489q-.31-.7059-.5849-1.4092A10.2041,10.2041,0,0,1,85,84.4793V78a1,1,0,0,0-2,0v6.48a10.101,10.101,0,0,1-2.7641,2.1826C80.0126,87.1831,79.7845,87.702,79.5344,88.223Z"/>
    <path d="M77.3412,88.1608c-.05-.1277-.0922-.2517-.1405-.3785A14.9078,14.9078,0,0,0,71.7831,90.98c.492,1.1535,1.0538,2.3113,1.679,3.4582A46.6573,46.6573,0,0,0,77.3412,88.1608Z"/>
    <path d="M99.8926,73.292c-2.5752,1.8149-5.2383,3.6914-5.1631,6.6577a4.6625,4.6625,0,0,0,1.6484,3.332c.2162.2314.4284.4708.6319.7183h2.5189a5.6449,5.6449,0,0,1,.5016-5.314,22.1394,22.1394,0,0,1,3.4453-3.71c1.4668-1.35,2.7334-2.5147,3.25-3.9971a6.1607,6.1607,0,0,0-.1367-4.48c-.125-.3979-.25-.7993-.3555-1.2187-.0463-.1859-.1144-.4538-.1918-.7563a9.509,9.509,0,0,1-1.0507-.6087c-.0836,2.0309-.3884,4.5279-1.3063,6.0012A13.64,13.64,0,0,1,99.8926,73.292Z"/>
    <path d="M108.6143,71.6372c-.6817,1.9566-2.1885,3.3428-3.7842,4.8106a20.5971,20.5971,0,0,0-3.1533,3.373,4.0849,4.0849,0,0,0,.02,4.1792h2.5865a5.26,5.26,0,0,1,.0894-2.7515c.501-1.5571,1.95-2.8525,3.4834-4.2241,1.5166-1.3559,3.084-2.7578,3.25-4.102a9.8924,9.8924,0,0,0-1.4043-6.0284l-.1992-.3969c-.1026-.2068-.2467-.5132-.4034-.852-.2627-.1023-.5167-.1954-.7573-.2758.0526.1759.1.3569.1549.53A8.09,8.09,0,0,1,108.6143,71.6372Z"/>
    <path d="M98.835,68.4355a9.19,9.19,0,0,1-3.7559,3.1709,10.0894,10.0894,0,0,0-4.3535,3.9043c-2.3115,3.876.8515,8.27.8838,8.3135L91.74,84h2.5953A6.0971,6.0971,0,0,1,92.73,80.0005c-.1016-4.0357,3.2881-6.4243,6.0117-8.3433a12.5879,12.5879,0,0,0,3.2461-2.7983,11.8166,11.8166,0,0,0,.9963-4.9436H103v-.542c.0112-.4217.0168-.8309.0134-1.1983L103,62.1592V57a1,1,0,0,0-2,0v6.9153h.0238C100.8882,64.9438,100.3779,65.9569,98.835,68.4355Z"/>
    <path d="M113.0908,73.1675c-.2578,2.0893-2.1094,3.7456-3.9,5.3476-1.2675,1.1333-2.5781,2.3057-2.9131,3.3462A3.57,3.57,0,0,0,106.3439,84h6.3077c2.1632-1.1642,4.3574-3.02,4.03-9.3276a9.473,9.473,0,0,0-4.627-7.5089A10.875,10.875,0,0,1,113.0908,73.1675Z"/>
    <path d="M89.0068,74.4863A11.9257,11.9257,0,0,1,94.1045,69.86a7.3922,7.3922,0,0,0,3.0332-2.481,15.1607,15.1607,0,0,0,1.8433-3.4441,9.313,9.313,0,0,1-2.6359,1.22c-2.8658.81-8.7117,3.445-9.0268,9.5177a13.3561,13.3561,0,0,0,.7592,5.9213A8.3029,8.3029,0,0,1,89.0068,74.4863Z"/>
  </g>
</svg>
