<svg id="Layer_2" data-name="Layer 2" xmlns="http://www.w3.org/2000/svg" viewBox="0 0 128 128">
  <title>22 Moai</title>
  <g>
    <path d="M31.3026,54.1044l3.7313.4527h.0489L33.2434,69.7593A10.0354,10.0354,0,0,0,43.2061,81H84.7939a10.0354,10.0354,0,0,0,9.9627-11.2407L92.9172,54.5571h.0489l3.7313-.4527a2.5087,2.5087,0,0,0,2.1883-2.7928L96.77,33.8777a2.509,2.509,0,0,0-2.7927-2.1884l-3.7314.4528h-.041L89.46,25.98l-.0476.02H68.0188l.0336.25L74.3691,31H82a1,1,0,0,1,0,2H74.0352a.9971.9971,0,0,1-.6006-.2007l-5.0082-3.766L70.8,46.6956,74,50.4783v6.3043L69,53H59l-5,3.7826V50.4783l3.2-3.7827,2.3735-17.6623-5.0082,3.766A.9971.9971,0,0,1,53.9648,33H46a1,1,0,0,1,0-2h7.6309l6.3167-4.75.0336-.25H38.5378l-.7431,6.1421h-.041l-3.7314-.4528A2.509,2.509,0,0,0,31.23,33.8777L29.1143,51.3116A2.5087,2.5087,0,0,0,31.3026,54.1044ZM61,56h6a1,1,0,0,1,0,2H61a1,1,0,0,1,0-2ZM53.41,66.6768l3.7627-2.5088A1.0005,1.0005,0,0,1,57.7275,64h12.545a1.0005,1.0005,0,0,1,.5546.168L74.59,66.6768a1,1,0,1,1-1.1093,1.664L69.97,66H58.03L54.52,68.3408a1,1,0,1,1-1.1093-1.664Z"/>
    <path d="M29.5425,108.2571q6.9909-1.0765,13.9975-1.7183L41.6875,94.8623a1,1,0,1,1,1.9746-.3135l1.8745,11.8148q9.222-.7711,18.4048-.784,9.22,0,18.521.7924l1.8755-11.8232a1,1,0,1,1,1.9746.3135l-1.8536,11.6849q6.9974.6486,13.9979,1.7186l1.967-19.2771a10.8,10.8,0,0,0-5.924-10.92c-.22.3012-.4493.5973-.699.8791A12.0448,12.0448,0,0,1,84.7939,83H43.2061a12.0448,12.0448,0,0,1-9.0069-4.0522c-.2524-.2848-.4841-.5839-.7065-.8886a10.8111,10.8111,0,0,0-5.9165,10.9295Z"/>
    <path d="M15,113v7h98v-7A224.1916,224.1916,0,0,0,15,113Z"/>
    <path d="M89,24l.21-.09-.8567-7.08A10.0352,10.0352,0,0,0,78.39,8H49.61a10.0352,10.0352,0,0,0-9.9627,8.83L38.78,24H89Z"/>
  </g>
</svg>
