<svg id="Layer_2" data-name="Layer 2" xmlns="http://www.w3.org/2000/svg" viewBox="0 0 128 128">
  <title>23 Merlion</title>
  <g>
    <path d="M56.6,60.8a11.6755,11.6755,0,0,1,2.134,4.8848l.3709-.39A36.0514,36.0514,0,0,0,68.999,45H52.0442A27.769,27.769,0,0,0,49.3286,55.85,15.5917,15.5917,0,0,1,56.6,60.8Z"/>
    <path d="M46.99,63.97v.02c0-.01-.01-.02-.01-.03A.01.01,0,0,0,46.99,63.97Z"/>
    <path d="M70.52,81.81c-7.36.74-13.79,2.47-17.46,7.16L43,82a43.9081,43.9081,0,0,0-1.92-14.72C38.78,60.01,35,57,35,57s5.11.91,8.16,2.83a11.16,11.16,0,0,1,3.75,4l.03.06a19.8635,19.8635,0,0,1,1.61,8.01v.15a.9966.9966,0,0,0,.98,1.02h.02a1.0054,1.0054,0,0,0,1-.98v-.15a24.1,24.1,0,0,0-4.37-13.67L46,57s6,1,9,5a10.8353,10.8353,0,0,1,1.73,8.59c-2.37,5.07-4.4,6.99-5.32,7.65a1.0033,1.0033,0,0,0,1.17,1.63c1.3-.94,3.54-3.2,6.03-8.58C60.85,72.55,61.24,75.06,61,77c0,0,1.21-.92,4.07,0C68.48,78.1,70.52,81.81,70.52,81.81Z"/>
    <path d="M78.9443,78.2422h-.0009a35.4225,35.4225,0,0,1-4.1807-.2564l-4.4141-.5273,3.3223-2.9531q.249-.2212.4941-.48a23.3972,23.3972,0,0,1-14.9541-5.8716l-.2453-.2224c.0073.4507,0,.8837-.0281,1.2717a6.7677,6.7677,0,0,1,4.0117,5.3911,9.9045,9.9045,0,0,1,2.7334.501c4.1231,1.3247,6.49,5.57,6.5889,5.75l1.4531,2.6494-3.0068.3023c-1.4639.1472-2.8183.3319-4.0807.5525a7.99,7.99,0,1,1-13.4992,7.1021L43,84.4327V95a15.9553,15.9553,0,0,0,6.184,12.6188C52.0823,108.3329,55.8855,109,63.6309,109h.7382c7.5664,0,11.4209-.497,14.0656-1.0961A15.9587,15.9587,0,0,0,85,95V77.6141A28.75,28.75,0,0,1,78.9443,78.2422ZM52,100a1,1,0,0,1-1-1,1,1,0,0,0-2,0,1,1,0,0,1-2,0,3,3,0,0,1,6,0A1,1,0,0,1,52,100Zm11,6a1,1,0,0,1-1-1,1,1,0,0,0-2,0,1,1,0,0,1-2,0,1,1,0,0,0-2,0,1,1,0,0,1-2,0,2.9987,2.9987,0,0,1,5-2.2344A2.9987,2.9987,0,0,1,64,105,1,1,0,0,1,63,106ZM76,84a3.0033,3.0033,0,0,1,3,3,1,1,0,0,1-2,0,1,1,0,0,0-2,0,1,1,0,0,1-2,0A3.0033,3.0033,0,0,1,76,84Zm-4,20a1,1,0,0,1-1-1,1,1,0,0,0-2,0,1,1,0,0,1-2,0,3,3,0,0,1,6,0A1,1,0,0,1,72,104Zm9-8a1,1,0,0,1-1-1,1,1,0,0,0-2,0,1,1,0,0,1-2,0,1,1,0,0,0-2,0,1,1,0,0,1-2,0,2.9987,2.9987,0,0,1,5-2.2344A2.9987,2.9987,0,0,1,82,95,1,1,0,0,1,81,96Z"/>
    <path d="M89.91,107.7656C80,108,83,111,64.3694,111c-.116,0-.2481-.0032-.3694-.0042-.1213.001-.2534.0042-.3694.0042C47,111,48,108,38.09,107.7656A40.6206,40.6206,0,0,0,24,110v10h80V110A40.6206,40.6206,0,0,0,89.91,107.7656Z"/>
    <path d="M69.2881,43a160.416,160.416,0,0,0,.706-19.44c-.0009-1.7959-.0029-3.6473.0059-5.56H56a4,4,0,0,0-4,4v1a4,4,0,0,1-4,4H47a4,4,0,0,0-4,4v2.2782A.7219.7219,0,0,0,43.7218,34h.653a1.8286,1.8286,0,0,0,1.6812-1.3308A1.0005,1.0005,0,0,1,47,32h4a1,1,0,0,1,1,1v5a1,1,0,0,1-1,1H47.6252a1.8286,1.8286,0,0,1-1.6812-1.3308A1.0005,1.0005,0,0,0,45,37H43.7218A.7219.7219,0,0,0,43,37.7218V39a4,4,0,0,0,4,4ZM61,23h4a1,1,0,0,1,0,2H61a1,1,0,0,1,0-2Z"/>
    <path d="M93,24V72c-4.97,3.49-10.96,4.84-18,4a14.3628,14.3628,0,0,0,2.99-4C84.12,60.51,84.76,35.11,82,25a1.0112,1.0112,0,0,0-1.23-.7.994.994,0,0,0-.7,1.23c2.7182,9.9641,1.7507,36.4975-4.4095,46.5113C69.6384,72.0069,64.5571,70.3008,60.55,66.67,73.14,53.43,71.9,39.58,72,18V13.5a2.5,2.5,0,0,0-5,0V16H59V14a6.0047,6.0047,0,0,1,6-6H77A15.9955,15.9955,0,0,1,93,24Z"/>
  </g>
</svg>
