<svg id="Layer_2" data-name="Layer 2" xmlns="http://www.w3.org/2000/svg" viewBox="0 0 128 128">
  <title>24 Aztec Pyramid</title>
  <g>
    <rect x="53" y="25" width="22" height="5"/>
    <polygon points="55.034 32 55.025 40.992 61.025 40.998 61.03 35.998 67.03 36.003 67.025 41.003 73.025 41.009 73.034 32 55.034 32"/>
    <g>
      <polygon points="73.859 62.009 87.006 62.022 87.01 57.022 72.589 57.008 73.859 62.009"/>
      <polygon points="72.081 55.008 82.012 55.017 82.017 50.017 70.811 50.007 72.081 55.008"/>
      <polygon points="75.637 69.011 91.999 69.027 92.004 64.027 74.367 64.01 75.637 69.011"/>
      <polygon points="70.302 48.006 78.019 48.013 78.023 43.014 69.032 43.005 70.302 48.006"/>
      <polygon points="113.978 92.047 81.48 92.017 82.75 97.018 113.973 97.047 113.978 92.047"/>
      <polygon points="58.97 42.996 50.023 42.987 50.019 47.987 57.7 47.994 58.97 42.996"/>
      <polygon points="77.415 76.013 97.993 76.032 97.997 71.032 76.145 71.012 77.415 76.013"/>
      <polygon points="82.973 106.018 66.969 43.003 61.032 42.998 45.036 105.983 82.973 106.018"/>
      <polygon points="79.193 83.015 103.986 83.038 103.991 78.038 77.923 78.013 79.193 83.015"/>
      <polygon points="80.972 90.016 107.979 90.041 107.984 85.042 79.701 85.015 80.972 90.016"/>
      <polygon points="48.306 84.986 19.984 84.959 19.979 89.959 47.036 89.984 48.306 84.986"/>
      <polygon points="46.529 91.984 13.978 91.954 13.973 96.954 45.259 96.983 46.529 91.984"/>
      <polygon points="57.192 49.994 46.017 49.984 46.012 54.984 55.923 54.993 57.192 49.994"/>
      <polygon points="83.258 99.018 85.036 106.02 119.964 106.053 119.971 99.053 83.258 99.018"/>
      <polygon points="44.751 98.982 6.971 98.947 6.965 105.947 42.974 105.981 44.751 98.982"/>
      <polygon points="50.083 77.987 23.991 77.963 23.986 82.963 48.814 82.986 50.083 77.987"/>
      <polygon points="55.415 56.992 41.01 56.979 41.006 61.979 54.146 61.991 55.415 56.992"/>
      <polygon points="53.638 63.991 36.004 63.974 35.999 68.974 52.368 68.99 53.638 63.991"/>
      <polygon points="51.86 70.989 29.997 70.969 29.993 75.968 50.591 75.988 51.86 70.989"/>
    </g>
  </g>
</svg>
