<svg id="Layer_2" data-name="Layer 2" xmlns="http://www.w3.org/2000/svg" viewBox="0 0 128 128">
  <title>25 Great Wall</title>
  <g>
    <path d="M76,82V64H71a1,1,0,0,1,0-2h5V55H63.76l-9,8H52v9h5a1,1,0,0,1,0,2H52v8ZM64,62h3a1,1,0,0,1,0,2H64a1,1,0,0,1,0-2ZM61,72h3a1,1,0,0,1,0,2H61a1,1,0,0,1,0-2Z"/>
    <polygon points="110 26 110 31 104 31 104 26 94 26 94 31 88 31 88 26 78 26 78 31 78 34 78 37 120 37 120 34 120 31 120 26 110 26"/>
    <path d="M78,94H52v5h8a1,1,0,0,1,0,2H52v9h68v-8H87Zm-11,7H64a1,1,0,0,1,0-2h3a1,1,0,0,1,0,2Z"/>
    <polygon points="115 97 109 97 109 92 102 92 102 97 96 97 96 92 90.8 92 81.8 84 75 84 75 89 69 89 69 84 62 84 62 89 56 89 56 84 52 84 52 92 78.76 92 87.76 100 120 100 120 92 115 92 115 97"/>
    <polygon points="40 55 34 55 34 50 24 50 24 55 18 55 18 50 8 50 8 55 8 58 8 61 50 61 50 58 50 55 50 50 40 50 40 55"/>
    <path d="M78,71H89a1,1,0,0,1,0,2H78v9h4.56l9,8H120V82H110a1,1,0,0,1,0-2h10V62H110a1,1,0,0,1,0-2h10V39H78Zm29,10a1,1,0,0,1-1,1h-3a1,1,0,0,1,0-2h3A1,1,0,0,1,107,81ZM93,46h11V56H93Zm0,25h3a1,1,0,0,1,0,2H93a1,1,0,0,1,0-2Z"/>
    <path d="M8,103H18a1,1,0,0,1,0,2H8v5H50V89H40a1,1,0,0,1,0-2H50V63H8ZM37,88a1,1,0,0,1-1,1H33a1,1,0,0,1,0-2h3A1,1,0,0,1,37,88ZM23,70H34V80H23Zm-1,33h3a1,1,0,0,1,0,2H22a1,1,0,0,1,0-2Z"/>
    <polygon points="63 53 76 53 76 42 72 42 72 47 66 47 66 42 59.2 42 52 48.4 52 61 54 61 63 53"/>
  </g>
</svg>
