<?xml version="1.0" encoding="UTF-8"?>
<svg xmlns="http://www.w3.org/2000/svg" version="1.1" viewBox="0 0 48 48">
  <!-- Generator: Adobe Illustrator 28.7.1, SVG Export Plug-In . SVG Version: 1.2.0 Build 142)  -->
  <g>
    <g id="Glyph">
      <g>
        <path d="M25,19v-3c0-.55176-.44824-1-1-1s-1,.44824-1,1v3c0,.55176.44824,1,1,1s1-.44824,1-1Z"/>
        <rect x="35" y="16" width="2" height="2"/>
        <rect x="11" y="16" width="2" height="2"/>
        <path d="M40,5H8c-1.65002,0-3,1.34998-3,3v32c0,1.64996,1.34998,3,3,3h32c1.65002,0,3-1.35004,3-3V8c0-1.65002-1.34998-3-3-3ZM13,40c-.54999,0-1-.45001-1-1s.45001-1,1-1,1,.45001,1,1-.45001,1-1,1ZM17,40c-.54999,0-1-.45001-1-1s.45001-1,1-1,1,.45001,1,1-.45001,1-1,1ZM27,40h-6c-.54999,0-1-.45001-1-1s.45001-1,1-1h6c.54999,0,1,.45001,1,1s-.45001,1-1,1ZM31,40c-.54999,0-1-.45001-1-1s.45001-1,1-1,1,.45001,1,1-.45001,1-1,1ZM35,40c-.54999,0-1-.45001-1-1s.45001-1,1-1,1,.45001,1,1-.45001,1-1,1ZM39,34c0,.54999-.45001,1-1,1H10c-.54999,0-1-.45001-1-1V10c0-.54999.45001-1,1-1h28c.54999,0,1,.45001,1,1v24Z"/>
        <path d="M11,14h3c.54999,0,1,.45001,1,1v1h6c0-1.65002,1.34998-3,3-3s3,1.34998,3,3h6v-1c0-.54999.45001-1,1-1h3v-3H11v3Z"/>
        <rect x="20" y="28" width="8" height="5"/>
        <path d="M33,19v-1h-6v1c0,1.29999-.84003,2.39996-2,2.82001v1.17999c0,.54999-.45001,1-1,1s-1-.45001-1-1v-1.17999c-1.15997-.42004-2-1.52002-2-2.82001v-1h-6v1c0,.54999-.45001,1-1,1h-3v13h7v-5c0-1.10004.90002-2,2-2h8c1.09998,0,2,.89996,2,2v5h7v-13h-3c-.54999,0-1-.45001-1-1Z"/>
      </g>
    </g>
  </g>
</svg>