<?xml version="1.0" encoding="UTF-8"?>
<svg id="Glyph" xmlns="http://www.w3.org/2000/svg" version="1.1" viewBox="0 0 48 48">
  <path d="M22,8h-1v-2c0-.55273-.44727-1-1-1s-1,.44727-1,1v2h-8v-2c0-.55273-.44727-1-1-1s-1,.44727-1,1v2h-1c-1.6543,0-3,1.3457-3,3v20c0,1.6543,1.3457,3,3,3v2h14v-2c1.6543,0,3-1.3457,3-3V11c0-1.6543-1.3457-3-3-3ZM21.00195,27.99902c-1.71289,1.29004-3.84473,2.00098-6.00195,2.00098s-4.28906-.71094-6.00195-2.00098c-.44141-.33203-.5293-.95898-.19727-1.40039.33105-.44043.95898-.5293,1.40039-.19727,1.36816,1.03125,3.07324,1.59863,4.79883,1.59863s3.43066-.56738,4.79883-1.59863c.44141-.33203,1.06934-.24316,1.40039.19727.33203.44141.24414,1.06836-.19727,1.40039ZM12.60449,18.79688c-.44141.33301-1.06738.24512-1.40137-.19238-.33398-.44043-.24805-1.06738.19238-1.40137,2.07422-1.57422,5.13477-1.57422,7.20898,0,.44037.33392.52637.96082.19238,1.40137-.32202.42462-.97803.51276-1.40137.19238-1.37305-1.04297-3.41797-1.04297-4.79102,0ZM16,21c0,.55225-.44769,1-1,1s-1-.44775-1-1c0-.55231.44769-1,1-1s1,.44769,1,1ZM11.20312,23.39551c.33398-.43848.95996-.52637,1.40137-.19238,1.37305,1.04297,3.41797,1.04297,4.79102,0,.44043-.33398,1.06641-.24609,1.40137.19238.33398.44043.24805,1.06738-.19238,1.40137-1.03711.78711-2.28418,1.20312-3.60449,1.20312s-2.56738-.41602-3.60449-1.20312c-.44043-.33398-.52637-.96094-.19238-1.40137ZM21.19922,15.40131c-.31836.42334-.96002.52997-1.40039.19733-1.36816-1.03125-3.07324-1.59863-4.79883-1.59863s-3.43066.56738-4.79883,1.59863c-.44043.33301-1.06836.24316-1.40039-.19727-.33203-.44141-.24414-1.06836.19727-1.40039,1.71289-1.29004,3.84473-2.00098,6.00195-2.00098s4.28906.71094,6.00195,2.00098c.44141.33203.5293.95892.19727,1.40033Z" fill="#000" stroke-width="0"/>
  <path d="M10,42c0,.54999.45001,1,1,1h8c.54999,0,1-.45001,1-1v-4h-10v4Z" fill="#000" stroke-width="0"/>
  <path d="M40,23h-10c-1.6543,0-3,1.3457-3,3v9h16v-9c0-1.6543-1.3457-3-3-3ZM37,28h-1v3c0,.55273-.44727,1-1,1s-1-.44727-1-1v-3h-1c-.55273,0-1-.44727-1-1s.44727-1,1-1h4c.55273,0,1,.44727,1,1s-.44727,1-1,1Z" fill="#000" stroke-width="0"/>
  <path d="M27,40c0,1.6543,1.3457,3,3,3h4v-6h-7v3Z" fill="#000" stroke-width="0"/>
  <path d="M36,43h4c1.6543,0,3-1.3457,3-3v-3h-7v6Z" fill="#000" stroke-width="0"/>
</svg>