<?xml version="1.0" encoding="UTF-8"?>
<svg xmlns="http://www.w3.org/2000/svg" version="1.1" viewBox="0 0 64 64">
  <!-- Generator: Adobe Illustrator 28.7.1, SVG Export Plug-In . SVG Version: 1.2.0 Build 142)  -->
  <g>
    <g id="Glyph">
      <g>
        <path d="M15.05032,57.05007c2.21002,0,4-1.79004,4-4h-8c0,2.20996,1.78998,4,4,4Z"/>
        <path d="M33.05032,57.05007c2.21002,0,4-1.79004,4-4h-8c0,2.20996,1.78998,4,4,4Z"/>
        <path d="M30.3688,36.25716c1.24908-.31824,2.47998-.73218,3.68152-1.24225v-13.96484h-9v15.97461c1.02234-.03998,2.0423-.14075,3.05536-.30334l1.99591-5.98767c.1748-.52344.73828-.80762,1.26514-.63184.52393.17383.80713.74023.63232,1.26465l-1.63025,4.89069Z"/>
        <path d="M18.32369,36.39247c1.5575.35767,3.13922.57013,4.72662.6322v-15.97461h-9v13.96484c.76819.32611,1.54883.61072,2.33807.8584l1.7132-5.13965c.17432-.52344.73828-.80762,1.26514-.63184.52393.17383.80713.74023.63232,1.26465l-1.67535,5.026Z"/>
        <path d="M34.05032,44.05007c0-.54999-.45001-1-1-1H15.05032c-.54999,0-1,.45001-1,1v7h20v-7ZM19.05032,48.05007h-2c-.54999,0-1-.45001-1-1s.45001-1,1-1h2c.54999,0,1,.45001,1,1s-.45001,1-1,1ZM25.05032,48.05007h-2c-.54999,0-1-.45001-1-1s.45001-1,1-1h2c.54999,0,1,.45001,1,1s-.45001,1-1,1ZM31.05032,48.05007h-2c-.54999,0-1-.45001-1-1s.45001-1,1-1h2c.54999,0,1,.45001,1,1s-.45001,1-1,1Z"/>
        <path d="M36.05032,35.67006c0,.39001-.22998.75-.59003.90997-3.62,1.65002-7.51996,2.47003-11.40997,2.47003s-7.78998-.82001-11.40997-2.47003c-.36005-.15997-.59003-.51996-.59003-.90997v-15.62c0-.54999.45001-1,1-1h20.94c.09003-.62.38-1.19.84003-1.65002l1.92999-1.92999c.14996-.15997.32001-.28998.5-.40997-.07001-.01001-.14001-.01001-.21002-.01001H11.05032c-1.65002,0-3,1.34998-3,3v30c0,1.64996,1.34998,3,3,3h1v-7c0-1.65002,1.34998-3,3-3h18c1.65002,0,3,1.34998,3,3v7h1c1.65002,0,3-1.35004,3-3v-21.19l-4-4v12.81Z"/>
        <path d="M55.7637,18.93971l-2.72217-3.81055.68652-.68652c1.45361-1.45312,1.45361-3.81836,0-5.27148-1.40723-1.4082-3.86377-1.40918-5.271,0l-.68701.68652-3.81006-2.72168c-.39893-.28418-.94336-.23828-1.28857.10645l-1.92871,1.92871c-.39062.39062-.39062,1.02344,0,1.41406l3.24414,3.24414-2.83643,3.78125-1.82471-.91309c-.38623-.19336-.8501-.11719-1.1543.1875l-1.92871,1.92871c-.39062.39062-.39062,1.02344,0,1.41406l6.42871,6.42871c.19531.19531.45117.29297.70703.29297s.51172-.09766.70703-.29297l1.92871-1.92871c.30469-.30469.37988-.76953.1875-1.1543l-.91309-1.8252,3.78174-2.83594,3.24365,3.24414c.1875.1875.44189.29297.70703.29297s.51953-.10547.70703-.29297l1.92871-1.92871c.3457-.3457.39062-.89062.10693-1.28809Z"/>
      </g>
    </g>
  </g>
</svg>