<?xml version="1.0" encoding="UTF-8"?>
<svg xmlns="http://www.w3.org/2000/svg" version="1.1" viewBox="0 0 48 48">
  <!-- Generator: Adobe Illustrator 28.7.1, SVG Export Plug-In . SVG Version: 1.2.0 Build 142)  -->
  <g>
    <g id="Glyph">
      <g>
        <rect x="15" y="13" width="5" height="2"/>
        <rect x="5" y="39" width="18" height="4" rx="1" ry="1"/>
        <rect x="8" y="13" width="5" height="2"/>
        <path d="M20,17h-12v16h12v-16ZM15,30c0,.55225-.44727,1-1,1s-1-.44775-1-1v-10c0-.55225.44727-1,1-1s1,.44775,1,1v10Z"/>
        <polygon points="19.2804 37 19.7804 35 8.2196 35 8.7196 37 19.2804 37"/>
        <path d="M14.64648,5.2373c-.37305-.31641-.91992-.31641-1.29297,0-.43646.36993-3.56866,3.08807-4.82715,5.7627h10.94727c-1.25848-2.67462-4.39069-5.39276-4.82715-5.7627Z"/>
        <rect x="27" y="35" width="14" height="2"/>
        <path d="M41,19h-14c-1.10455,0-2,.89539-2,2v10c0,1.10455.89545,2,2,2h14c1.10455,0,2-.89545,2-2v-10c0-1.10461-.89545-2-2-2ZM31,30c0,.55225-.44727,1-1,1s-1-.44775-1-1v-8c0-.55225.44727-1,1-1s1,.44775,1,1v8Z"/>
        <rect x="25" y="39" width="18" height="4" rx="1" ry="1"/>
        <path d="M34.55469,5.16797c-.33594-.22363-.77344-.22363-1.10938,0-3.97699,2.65149-6.36285,7.06335-6.43225,11.83203h13.97388c-.0694-4.76868-2.45526-9.18054-6.43225-11.83203Z"/>
      </g>
    </g>
  </g>
</svg>