<?xml version="1.0" encoding="utf-8"?>
<!-- Generator: Adobe Illustrator 27.3.1, SVG Export Plug-In . SVG Version: 6.00 Build 0)  -->
<svg version="1.1" id="Glyph" xmlns="http://www.w3.org/2000/svg" xmlns:xlink="http://www.w3.org/1999/xlink" x="0px" y="0px"
	 viewBox="0 0 64 64" enable-background="new 0 0 64 64" xml:space="preserve">
<g>
	<path d="M20.95166,37.3877c0.11426,0.52832,0.17236,1.06836,0.17236,1.6123s-0.05811,1.08398-0.17236,1.6123l2.15021-1.07562
		c-0.20966-0.32806-0.20966-0.7453,0-1.07336L20.95166,37.3877z"/>
	<path d="M31.9707,35.05859c-1.18164,0-4.12549,0.39746-6.79932,3.94141c2.67383,3.54395,5.61768,3.94141,6.79932,3.94141
		c3.27393,0,5.64209-2.43262,6.79541-3.94141C37.61279,37.49121,35.24463,35.05859,31.9707,35.05859z M35,40
		c-0.55231,0-1-0.44775-1-1c0-0.55231,0.44769-1,1-1s1,0.44769,1,1C36,39.55225,35.55231,40,35,40z"/>
	<path d="M24.03271,28.00049c2.60645,0.08594,4.3623,0.3335,6.06006,0.57275c1.28027,0.18066,2.48926,0.35107,3.95947,0.42822
		c4.24677,0.22614,8.69067-0.46735,13.22882-2.04712c-0.94061-0.93451-2.02893-1.73651-3.24786-2.34985H19.9668
		c-1.81781,0.91467-3.35022,2.24292-4.51886,3.8208C18.31311,28.05566,21.19128,27.90436,24.03271,28.00049z"/>
	<path d="M14,18h36c1.65686,0,3-1.34314,3-3s-1.34314-3-3-3H14c-1.65686,0-3,1.34314-3,3S12.34314,18,14,18z"/>
	<path d="M35.6543,31.04395c-0.57227,0-1.14111-0.01514-1.70801-0.04541c-1.55664-0.08154-2.80811-0.25781-4.13281-0.44482
		c-1.64551-0.23193-3.34717-0.47217-5.84619-0.5542c-3.25226-0.10651-6.56158,0.11322-9.83746,0.63574
		c-0.86768,1.86115-1.28754,3.92542-1.14203,6.01807c0.30762,4.41699,3.00928,8.3623,7.06982,10.34668h23.88477
		c4.06055-1.98438,6.76221-5.92969,7.06982-10.34668c0.20172-2.90125-0.67871-5.74847-2.3454-8.07135
		C44.23346,30.21185,39.8667,31.04395,35.6543,31.04395z M40.82617,39.56348c-1.104,1.61719-4.17578,5.37793-8.85547,5.37793
		c-1.3692,0-4.60822-0.40668-7.62091-3.79248c0,0-4.90253,2.45166-4.90259,2.45166
		c-0.88708,0.44342-1.82843-0.61725-1.28217-1.44531C18.79248,41.2041,19.12402,40.11328,19.12402,39
		c0-1.11316-0.33148-2.2038-0.95874-3.15491c-0.55121-0.83569,0.38702-1.89209,1.28198-1.44568l4.9024,2.45166
		c3.0127-3.38605,6.25183-3.79248,7.62103-3.79248c4.67969,0,7.75146,3.76074,8.85547,5.37793
		C41.05811,38.77637,41.05811,39.22363,40.82617,39.56348z M43,42c-0.55231,0-1-0.44775-1-1c0-0.55231,0.44769-1,1-1s1,0.44769,1,1
		C44,41.55225,43.55231,42,43,42z M46,40c-0.55231,0-1-0.44775-1-1c0-0.55231,0.44769-1,1-1s1,0.44769,1,1
		C47,39.55225,46.55231,40,46,40z M46,37c-1.6543,0-3-1.3457-3-3s1.3457-3,3-3s3,1.3457,3,3S47.6543,37,46,37z"/>
	<circle cx="46" cy="34" r="1"/>
	<path d="M49.534,20H14.466c-4.97876,3.74298-7.89813,9.81787-7.46356,16.06934C7.4873,43.04199,12.04932,49.2666,18.625,51.92676
		C18.74414,51.97559,18.87158,52,19,52h26c0.12842,0,0.25586-0.02441,0.375-0.07324
		c6.57568-2.66016,11.1377-8.88477,11.62256-15.85742C57.43213,29.81787,54.51276,23.74298,49.534,20z M53.00732,36.79199
		c-0.36279,5.21289-3.58691,9.85449-8.41406,12.11328C44.46045,48.96777,44.31592,49,44.16943,49H19.83057
		c-0.14648,0-0.29102-0.03223-0.42383-0.09473c-4.82715-2.25879-8.05127-6.90039-8.41406-12.11328
		c-0.40625-5.84082,2.93262-11.50244,8.30811-14.08887c0.13525-0.06494,0.28369-0.09863,0.43359-0.09863h24.53125
		c0.1499,0,0.29834,0.03369,0.43359,0.09863C50.07471,25.28955,53.41357,30.95117,53.00732,36.79199z"/>
</g>
</svg>
