<?xml version="1.0" encoding="UTF-8"?>
<svg xmlns="http://www.w3.org/2000/svg" version="1.1" viewBox="0 0 64 64">
  <!-- Generator: Adobe Illustrator 28.7.1, SVG Export Plug-In . SVG Version: 1.2.0 Build 142)  -->
  <g>
    <g id="Glyph">
      <g>
        <path d="M47.82001,9c-.41003-1.16003-1.52002-2-2.82001-2H15c-1.65002,0-3,1.34998-3,3v40c0,1.29999.84003,2.40997,2,2.82001V14c0-2.76001,2.23999-5,5-5h28.82001Z"/>
        <polygon points="26 41 26.00073 40.9964 26 39 22 39 22 43 26.00146 43 26.00073 41.00366 26 41"/>
        <circle cx="34" cy="24" r="2"/>
        <polygon points="36 41 36.00073 40.9964 36 39 32 39 32 43 36.00146 43 36.00073 41.00366 36 41"/>
        <path d="M36.81006,28.86523c.8335-.48047,1.78613-.6084,2.68359-.37988l1.13721-1.9707c-.64551-.66309-1.01221-1.55176-1.01221-2.51465s.3667-1.85156,1.01221-2.51465l-1.13721-1.9707c-.89795.22949-1.84912.10059-2.68359-.37988-.83447-.48242-1.42139-1.24414-1.67285-2.13477h-2.27441c-.25146.89062-.83838,1.65234-1.67285,2.13477-.83301.48047-1.78516.60742-2.68359.37988l-1.13721,1.9707c.64551.66309,1.01221,1.55176,1.01221,2.51465s-.3667,1.85156-1.01221,2.51465l1.13721,1.9707c.89941-.22754,1.8501-.09961,2.68359.37988.83447.48242,1.42139,1.24414,1.67285,2.13477h2.27441c.25146-.89062.83838-1.65234,1.67285-2.13477ZM30,24c0-2.20605,1.79443-4,4-4s4,1.79395,4,4-1.79443,4-4,4-4-1.79395-4-4Z"/>
        <rect x="42" y="39" width="4.00073" height="4"/>
        <polygon points="44 56.44012 51.02588 50 44 50 44 56.44012"/>
        <path d="M49,11h-30c-1.6543,0-3,1.3457-3,3v40c0,1.6543,1.3457,3,3,3h23v-8c0-.55273.44775-1,1-1h9V14c0-1.6543-1.3457-3-3-3ZM48,43c0,1.10254-.89697,2-2,2h-4c-1.10303,0-2-.89746-2-2v-1h-2v1c0,1.10254-.89697,2-2,2h-4c-1.10303,0-2-.89746-2-2v-1h-2v1c0,1.10254-.89697,2-2,2h-4c-1.10303,0-2-.89746-2-2v-4c0-1.10254.89697-2,2-2h4c1.10303,0,2,.89746,2,2v1h2v-1c0-1.10254.89697-2,2-2h1v-4h-1c-.55225,0-1-.44727-1-1,0-.58496-.30273-1.10938-.80957-1.40234-.50684-.29102-1.11133-.29199-1.61816.00098-.23047.13086-.50342.16602-.75928.09961-.25635-.06836-.47461-.23633-.60742-.46582l-2-3.46484c-.13232-.22949-.16846-.50293-.09961-.75879.06836-.25586.23633-.47461.46582-.60742.50684-.29199.80957-.81641.80957-1.40137s-.30273-1.10938-.80957-1.40137c-.22949-.13281-.39746-.35156-.46582-.60742-.06885-.25586-.03271-.5293.09961-.75879l2-3.46484c.13281-.22949.35107-.39746.60742-.46582.25586-.06934.52881-.03223.75928.09961.50684.29297,1.11133.29199,1.61816.00098.50684-.29297.80957-.81738.80957-1.40234,0-.55273.44775-1,1-1h4c.55225,0,1,.44727,1,1,0,.58496.30273,1.10938.80957,1.40234.50684.29102,1.11133.29199,1.61816-.00098.22949-.13184.50244-.16895.75928-.09961.25635.06836.47461.23633.60742.46582l2,3.46484c.13232.22949.16846.50293.09961.75879-.06836.25586-.23633.47461-.46582.60742-.50684.29199-.80957.81641-.80957,1.40137s.30273,1.10938.80957,1.40137c.22949.13281.39746.35156.46582.60742.06885.25586.03271.5293-.09961.75879l-2,3.46484c-.13281.22949-.35107.39746-.60742.46582-.25684.06641-.52979.03125-.75928-.09961-.50684-.29297-1.11133-.29199-1.61816-.00098-.50684.29297-.80957.81738-.80957,1.40234,0,.55273-.44775,1-1,1h-1v4h1c1.10303,0,2,.89746,2,2v1h2v-1c0-1.10254.89697-2,2-2h4c1.10303,0,2,.89746,2,2v4Z"/>
      </g>
    </g>
  </g>
</svg>