<?xml version="1.0" encoding="UTF-8"?>
<svg xmlns="http://www.w3.org/2000/svg" version="1.1" viewBox="0 0 64 64">
  <!-- Generator: Adobe Illustrator 28.7.1, SVG Export Plug-In . SVG Version: 1.2.0 Build 142)  -->
  <g>
    <g id="Glyph">
      <g>
        <path d="M46,21c3.85999,0,7-3.14001,7-7s-3.14001-7-7-7-7,3.14001-7,7,3.14001,7,7,7ZM44,13h1v-1c0-.54999.45001-1,1-1s1,.45001,1,1v1h1c.54999,0,1,.45001,1,1s-.45001,1-1,1h-1v1c0,.54999-.45001,1-1,1s-1-.45001-1-1v-1h-1c-.54999,0-1-.45001-1-1s.45001-1,1-1Z"/>
        <path d="M46,43c-3.85999,0-7,3.14001-7,7s3.14001,7,7,7,7-3.14001,7-7-3.14001-7-7-7ZM48,51h-4c-.54999,0-1-.45001-1-1s.45001-1,1-1h4c.54999,0,1,.45001,1,1s-.45001,1-1,1Z"/>
        <path d="M24.21191,40.61523c-.18945-.24268-.25684-.55908-.18213-.85791l.68945-2.75732h-1.96484l-1.42871,5h1.67432c.2998,0,.5835.13428.77344.36621.18994.23145.26611.53613.20703.83008l-.13525.67676,2.15479-2.87305h-1c-.30811,0-.59863-.14209-.78809-.38477Z"/>
        <path d="M24.31641,32.94873c-1.31982.43994-2.70117.66162-4.08496.66162-.84619,0-1.69336-.08301-2.52832-.25l-.70312-.14062v17.78027h14v-18.1803l-1.09521-.21912c-1.85889-.37061-3.79053-.25-5.58838.34814ZM28.7998,40.6001l-5.99997,7.99997c-.2594.34587-.79406.49701-1.20803.31302-.42627-.19092-.66406-.65137-.57227-1.10938l.76074-3.80371h-1.78027c-.31396,0-.60938-.14746-.79834-.39795s-.24951-.5752-.16309-.87695l2-7c.12256-.4292.51514-.7251.96143-.7251h4c.30811,0,.59863.14209.78809.38477s.25684.55908.18213.85791l-.68945,2.75732h1.71924c.37891,0,.7251.21387.89453.55273s.13281.74414-.09473,1.04736Z"/>
        <path d="M23,24v2h2v-2c0-.42871.27002-.79443.64893-.93652l-1.64893-1.64941-1.64893,1.64941c.37891.14209.64893.50781.64893.93652Z"/>
        <path d="M34,11H14c-1.6543,0-3,1.3457-3,3v40c0,1.6543,1.3457,3,3,3h20c1.6543,0,3-1.3457,3-3V14c0-1.6543-1.3457-3-3-3ZM33,52c0,.55225-.44775,1-1,1h-16c-.55225,0-1-.44775-1-1V16c0-.55225.44775-1,1-1h16c.55225,0,1,.44775,1,1v36Z"/>
        <path d="M17,31.1803l1.09521.21912c1.85986.37256,3.7915.25098,5.58838-.34814,2.12744-.7085,4.41357-.85156,6.61328-.41162l.70312.14062v-13.78027h-14v14.1803ZM19.29297,23.29297l4-4c.39062-.39062,1.02344-.39062,1.41406,0l4,4c.28613.28613.37158.71582.2168,1.08984-.15479.37354-.51953.61719-.92383.61719h-1v2c0,.55225-.44775,1-1,1h-4c-.55225,0-1-.44775-1-1v-2h-1c-.4043,0-.76904-.24365-.92383-.61719-.15479-.37402-.06934-.80371.2168-1.08984Z"/>
        <path d="M31,9h2v-1c0-.55225-.44775-1-1-1h-16c-.55225,0-1,.44775-1,1v1h16Z"/>
      </g>
    </g>
  </g>
</svg>