<?xml version="1.0" encoding="UTF-8"?>
<svg xmlns="http://www.w3.org/2000/svg" version="1.1" viewBox="0 0 64 64">
  <!-- Generator: Adobe Illustrator 28.7.1, SVG Export Plug-In . SVG Version: 1.2.0 Build 142)  -->
  <g>
    <g id="Glyph">
      <g>
        <path d="M53,11.17999v38.82001c0,2.76001-2.23999,5-5,5h-27c.41003,1.15997,1.52002,2,2.82001,2h28.17999c1.65002,0,3-1.35004,3-3V14c0-1.29999-.84003-2.41003-2-2.82001Z"/>
        <path d="M12,7c-1.65686,0-3,1.34314-3,3v11h6v-11c0-1.65686-1.34314-3-3-3Z"/>
        <path d="M16,53h32c1.65002,0,3-1.35004,3-3V10c0-1.65002-1.34998-3-3-3H16c.63.82996,1,1.87,1,3v40c0,1.13-.37,2.16998-1,3ZM47,48h-18c-.55273,0-1-.44727-1-1s.44727-1,1-1h18c.55273,0,1,.44727,1,1s-.44727,1-1,1ZM47,42h-18c-.55273,0-1-.44727-1-1s.44727-1,1-1h18c.55273,0,1,.44727,1,1s-.44727,1-1,1ZM47,36h-18c-.55273,0-1-.44727-1-1s.44727-1,1-1h18c.55273,0,1,.44727,1,1s-.44727,1-1,1ZM47,30h-18c-.55273,0-1-.44727-1-1s.44727-1,1-1h18c.55273,0,1,.44727,1,1s-.44727,1-1,1ZM21,12h26c.55273,0,1,.44727,1,1s-.44727,1-1,1h-26c-.55273,0-1-.44727-1-1s.44727-1,1-1ZM21,17h26c.55273,0,1,.44727,1,1s-.44727,1-1,1h-26c-.55273,0-1-.44727-1-1s.44727-1,1-1ZM21,22h26c.55273,0,1,.44727,1,1s-.44727,1-1,1h-26c-.55273,0-1-.44727-1-1s.44727-1,1-1ZM23.73145,38.26367l-2.03809-.61133c-1.0127-.30469-1.69336-1.21875-1.69336-2.27637,0-1.18176.86877-2.15631,2-2.33795v-1.03802c0-.55273.44727-1,1-1s1,.44727,1,1v1h1c.55273,0,1,.44727,1,1s-.44727,1-1,1h-2.62402c-.20703,0-.37598.16895-.37598.37598,0,.16504.11035.31348.26855.36035l2.03809.61133c1.0127.30469,1.69336,1.21875,1.69336,2.27637,0,1.18182-.86877,2.15631-2,2.33801v1.03796c0,.55273-.44727,1-1,1s-1-.44727-1-1v-1h-1c-.55273,0-1-.44727-1-1s.44727-1,1-1h2.62402c.20703,0,.37598-.16895.37598-.37598,0-.16504-.11035-.31348-.26855-.36035Z"/>
        <path d="M9,50c0,1.65686,1.34314,3,3,3s3-1.34314,3-3v-11h-6v11Z"/>
      </g>
    </g>
  </g>
</svg>