<?xml version="1.0" encoding="utf-8"?>
<!-- Generator: Adobe Illustrator 27.3.1, SVG Export Plug-In . SVG Version: 6.00 Build 0)  -->
<svg version="1.1" id="Glyph" xmlns="http://www.w3.org/2000/svg" xmlns:xlink="http://www.w3.org/1999/xlink" x="0px" y="0px"
	 viewBox="0 0 48 48" enable-background="new 0 0 48 48" xml:space="preserve">
<g>
	<path d="M36,14h-2c-0.55225,0-1,0.44727-1,1s0.44775,1,1,1h2c0.55225,0,1-0.44727,1-1S36.55225,14,36,14z"/>
	<path d="M38,14c0.55225,0,1-0.44727,1-1v-2c0-0.55273-0.44775-1-1-1s-1,0.44727-1,1v2C37,13.55273,37.44775,14,38,14z"/>
	<path d="M42,14h-2c-0.55225,0-1,0.44727-1,1s0.44775,1,1,1h2c0.55225,0,1-0.44727,1-1S42.55225,14,42,14z"/>
	<path d="M38,16c-0.55225,0-1,0.44727-1,1v2c0,0.55273,0.44775,1,1,1s1-0.44727,1-1v-2C39,16.44727,38.55225,16,38,16z"/>
	<path d="M23,13.51001V10c0-0.54999-0.45001-1-1-1h-2V8c0-0.55176,0.44873-1,1-1h11c0.55127,0,1,0.44824,1,1v3
		c0,0.55273,0.44775,1,1,1s1-0.44727,1-1V8c0-1.6543-1.3457-3-3-3H21c-1.6543,0-3,1.3457-3,3v1h-2c-0.54999,0-1,0.45001-1,1v3.51001
		C16.28003,13.17999,17.62,13,19,13S21.71997,13.17999,23,13.51001z"/>
	<circle cx="19" cy="29" r="5"/>
	<path d="M19,15c-7.7196,0-14,6.27991-14,14c0,7.72003,6.2804,14,14,14s14-6.27997,14-14C33,21.27991,26.7196,15,19,15z M9,30
		c-0.55225,0-1-0.44727-1-1c0-6.06543,4.93457-11,11-11c0.55225,0,1,0.44727,1,1s-0.44775,1-1,1c-4.9624,0-9,4.03711-9,9
		C10,29.55273,9.55225,30,9,30z M12,29c0-3.85938,3.14014-7,7-7s7,3.14062,7,7s-3.14014,7-7,7S12,32.85938,12,29z M30,29
		c0,6.06543-4.93457,11-11,11c-0.55225,0-1-0.44727-1-1s0.44775-1,1-1c4.9624,0,9-4.03711,9-9c0-0.55273,0.44775-1,1-1
		S30,28.44727,30,29z"/>
</g>
</svg>
