<?xml version="1.0" encoding="UTF-8"?>
<svg xmlns="http://www.w3.org/2000/svg" version="1.1" viewBox="0 0 64 64">
  <!-- Generator: Adobe Illustrator 28.7.1, SVG Export Plug-In . SVG Version: 1.2.0 Build 142)  -->
  <g>
    <g id="Glyph">
      <g>
        <rect x="34" y="43.5" width="22" height="6" rx="2" ry="2"/>
        <rect x="36" y="39.5" width="18" height="2"/>
        <path d="M50,14.5h-7c-3.85986,0-7,3.14062-7,7v4.75781c0,3.00293,1.16943,5.8252,3.29297,7.94922.39062.39062.39062,1.02338.00006,1.414-.37488.37488-1.02332.39087-1.41412.00006-2.40979-2.4093-3.76312-5.58582-3.86011-8.9776-.65631,1.35736-1.0188,2.84155-1.0188,4.35651,0,1.81641.49414,3.60059,1.42871,5.1582l.80505,1.3418h19.44397c1.52002-3.04712,2.32227-6.41077,2.32227-9.83105v-6.16895c0-3.85938-3.14014-7-7-7ZM52,22.5h-10c-.55225,0-1-.44727-1-1s.44775-1,1-1h10c.55225,0,1,.44727,1,1s-.44775,1-1,1Z"/>
        <rect x="8" y="43.5" width="22" height="6" rx="2" ry="2"/>
        <rect x="10" y="39.5" width="18" height="2"/>
        <path d="M26.12109,35.62109c-.39081.39081-1.03925.37482-1.41412-.00006-.39056-.39062-.39056-1.02338.00006-1.414,2.12354-2.12402,3.29297-4.94629,3.29297-7.94922v-4.75781c0-3.85938-3.14014-7-7-7h-7c-3.85986,0-7,3.14062-7,7v6.16895c0,3.42029.80225,6.78394,2.32227,9.83105h19.44397l.80505-1.3418c.93457-1.55762,1.42871-3.3418,1.42871-5.1582,0-1.51495-.36249-2.99915-1.0188-4.35651-.09698,3.39178-1.45032,6.5683-3.86011,8.9776ZM22,22.5h-10c-.55225,0-1-.44727-1-1s.44775-1,1-1h10c.55225,0,1,.44727,1,1s-.44775,1-1,1Z"/>
      </g>
    </g>
  </g>
</svg>