<?xml version="1.0" encoding="UTF-8"?>
<svg xmlns="http://www.w3.org/2000/svg" version="1.1" viewBox="0 0 64 64">
  <!-- Generator: Adobe Illustrator 28.7.1, SVG Export Plug-In . SVG Version: 1.2.0 Build 142)  -->
  <g>
    <g id="Glyph">
      <g>
        <path d="M18,13v2c0,.41357.25488.78467.64062.93359l5.35938,2.06128v-4.99487h-6Z"/>
        <rect x="29" y="37" width="2" height="8"/>
        <path d="M45.35938,15.93359c.38574-.14893.64062-.52002.64062-.93359v-2h-6v4.99487l5.35938-2.06128Z"/>
        <path d="M46,11v-3c0-.55225-.44727-1-1-1h-26c-.55273,0-1,.44775-1,1v3h28Z"/>
        <rect x="33" y="37" width="2" height="8"/>
        <path d="M35.23999,25.32996c.47003-.65997.76001-1.45996.76001-2.32996,0-1.17999-.52002-2.22003-1.33002-2.96002l3.33002-1.27997v-5.76001h-12v5.76001l3.33002,1.27997c-.81.73999-1.33002,1.78003-1.33002,2.96002,0,.87.28998,1.66998.76001,2.32996-7.27002,1.5-12.76001,7.96002-12.76001,15.67004,0,8.82001,7.17999,16,16,16s16-7.17999,16-16c0-7.71002-5.48999-14.17004-12.76001-15.67004ZM32,53c-6.62,0-12-5.38-12-12s5.38-12,12-12,12,5.38,12,12-5.38,12-12,12Z"/>
        <path d="M32,31c-5.51001,0-10,4.48999-10,10s4.48999,10,10,10,10-4.48999,10-10-4.48999-10-10-10ZM38,45c.54999,0,1,.45001,1,1s-.45001,1-1,1h-12c-.54999,0-1-.45001-1-1s.45001-1,1-1h1v-8h-1c-.54999,0-1-.45001-1-1s.45001-1,1-1h12c.54999,0,1,.45001,1,1s-.45001,1-1,1h-1v8h1Z"/>
      </g>
    </g>
  </g>
</svg>