<?xml version="1.0" encoding="UTF-8"?>
<svg xmlns="http://www.w3.org/2000/svg" version="1.1" viewBox="0 0 64 64">
  <!-- Generator: Adobe Illustrator 28.7.1, SVG Export Plug-In . SVG Version: 1.2.0 Build 142)  -->
  <g>
    <g id="Glyph">
      <g>
        <path d="M14.5,53c2.21002,0,4-1.79004,4-4h-8c0,2.20996,1.78998,4,4,4Z"/>
        <path d="M32.5,53c2.21002,0,4-1.79004,4-4h-8c0,2.20996,1.78998,4,4,4Z"/>
        <path d="M33.5,40c0-.55176-.44824-1-1-1H14.5c-.55176,0-1,.44824-1,1v7h20v-7ZM18.5,44h-2c-.55273,0-1-.44727-1-1s.44727-1,1-1h2c.55273,0,1,.44727,1,1s-.44727,1-1,1ZM24.5,44h-2c-.55273,0-1-.44727-1-1s.44727-1,1-1h2c.55273,0,1,.44727,1,1s-.44727,1-1,1ZM30.5,44h-2c-.55273,0-1-.44727-1-1s.44727-1,1-1h2c.55273,0,1,.44727,1,1s-.44727,1-1,1Z"/>
        <path d="M13.5,30.96484c.76831.32617,1.54913.61084,2.3385.85858l1.71326-5.13983c.1748-.52344.73633-.80762,1.26465-.63184.52344.17383.80664.74023.63184,1.26465l-1.67529,5.02594c1.55762.35773,3.13947.57019,4.72705.63226v-15.97461h-9v13.96484Z"/>
        <path d="M36.5,11H10.5c-1.6543,0-3,1.3457-3,3v30c0,1.6543,1.3457,3,3,3h1v-7c0-1.6543,1.3457-3,3-3h18c1.6543,0,3,1.3457,3,3v7h1c1.6543,0,3-1.3457,3-3V14c0-1.6543-1.3457-3-3-3ZM35.5,31.61719c0,.39258-.22949.74805-.58594.91016-3.62695,1.64844-7.52051,2.47266-11.41406,2.47266s-7.78711-.82422-11.41406-2.47266c-.35645-.16211-.58594-.51758-.58594-.91016v-15.61719c0-.55273.44727-1,1-1h22c.55273,0,1,.44727,1,1v15.61719Z"/>
        <path d="M24.5,32.97461c1.02252-.03998,2.04272-.14087,3.05591-.30347l1.99585-5.98755c.1748-.52344.73633-.80762,1.26465-.63184.52344.17383.80664.74023.63184,1.26465l-1.63025,4.89081c1.24927-.3183,2.48029-.73224,3.68201-1.24237v-13.96484h-9v15.97461Z"/>
        <path d="M56.5,52c0,.54999-.45001,1-1,1h-12c-.54999,0-1-.45001-1-1s.45001-1,1-1h2v-11c0-.54999.45001-1,1-1h2v-12.09003c-2.83002-.47998-5-2.94-5-5.90997,0-3.31,2.69-6,6-6s6,2.69,6,6c0,2.96997-2.16998,5.42999-5,5.90997v12.09003h2c.54999,0,1,.45001,1,1v11h2c.54999,0,1,.45001,1,1Z"/>
      </g>
    </g>
  </g>
</svg>