<?xml version="1.0" encoding="UTF-8"?>
<svg xmlns="http://www.w3.org/2000/svg" version="1.1" viewBox="0 0 64 64">
  <!-- Generator: Adobe Illustrator 28.7.1, SVG Export Plug-In . SVG Version: 1.2.0 Build 142)  -->
  <g>
    <g id="Glyph">
      <g>
        <path d="M16,42c-2.21002,0-4,1.78998-4,4s1.78998,4,4,4,4-1.79004,4-4-1.78998-4-4-4ZM16,47c-.54999,0-1-.45001-1-1s.45001-1,1-1,1,.45001,1,1-.45001,1-1,1Z"/>
        <path d="M48,42c-2.21002,0-4,1.78998-4,4s1.78998,4,4,4,4-1.79004,4-4-1.78998-4-4-4ZM48,47c-.54999,0-1-.45001-1-1s.45001-1,1-1,1,.45001,1,1-.45001,1-1,1Z"/>
        <path d="M56.71002,27.28998l-7-7c-.19-.17999-.44-.28998-.71002-.28998h-2v8h10c0-.27002-.10999-.52002-.28998-.71002Z"/>
        <path d="M51,33v-3h-5c-.54999,0-1-.45001-1-1v-9h-2v16h14v-2h-5c-.54999,0-1-.45001-1-1ZM48,34h-2c-.54999,0-1-.45001-1-1s.45001-1,1-1h2c.54999,0,1,.45001,1,1s-.45001,1-1,1Z"/>
        <rect x="53" y="30" width="4" height="2"/>
        <path d="M41,14H8c-.54999,0-1,.45001-1,1v21h34V14ZM14,32c0,.54999-.45001,1-1,1s-1-.45001-1-1v-13h-1c-.54999,0-1-.45001-1-1s.45001-1,1-1h2c.54999,0,1,.45001,1,1v14ZM22,32c0,.54999-.45001,1-1,1s-1-.45001-1-1v-13h-1c-.54999,0-1-.45001-1-1s.45001-1,1-1h2c.54999,0,1,.45001,1,1v14ZM30,32c0,.54999-.45001,1-1,1s-1-.45001-1-1v-13h-1c-.54999,0-1-.45001-1-1s.45001-1,1-1h2c.54999,0,1,.45001,1,1v14ZM38,32c0,.54999-.45001,1-1,1s-1-.45001-1-1v-13h-1c-.54999,0-1-.45001-1-1s.45001-1,1-1h2c.54999,0,1,.45001,1,1v14Z"/>
        <path d="M7,45c0,.54999.45001,1,1,1h2c0-3.31,2.69-6,6-6s6,2.69,6,6h20c0-3.31,2.69-6,6-6s6,2.69,6,6h2c.54999,0,1-.45001,1-1v-7H7v7Z"/>
      </g>
    </g>
  </g>
</svg>