<?xml version="1.0" encoding="UTF-8"?>
<svg xmlns="http://www.w3.org/2000/svg" version="1.1" viewBox="0 0 64 64">
  <!-- Generator: Adobe Illustrator 28.7.1, SVG Export Plug-In . SVG Version: 1.2.0 Build 142)  -->
  <g>
    <g id="Glyph">
      <g>
        <ellipse cx="34.5" cy="13" rx="4" ry="5"/>
        <path d="M26.5,15c1.68213,0,3-1.75684,3-4s-1.31787-4-3-4-3,1.75684-3,4,1.31787,4,3,4Z"/>
        <path d="M19.5,17c1.68213,0,3-1.75684,3-4s-1.31787-4-3-4-3,1.75684-3,4,1.31787,4,3,4Z"/>
        <path d="M13.5,14c-1.68213,0-3,1.75684-3,4s1.31787,4,3,4,3-1.75684,3-4-1.31787-4-3-4Z"/>
        <path d="M30.5,31h3.28003l.21997-.48999c1.46997-3.23004,1.09003-6.86005-1.01001-9.72003-2.09998-2.85999-5.45996-4.29999-8.96997-3.85999-2.57001.32001-4.86005,1.62-6.45001,3.66998-1.58002,2.04999-2.27002,4.59003-1.94,7.16003l1.51001,11.51996c.22998,1.78003.15997,3.57001-.22003,5.32001l-.33997,1.60004c-.57001,2.64996.07996,5.37994,1.77997,7.48999,1.71002,2.09998,4.23999,3.31,6.94,3.31.39001,0,.77002-.02002,1.15002-.07001-.60004-.82001-.95001-1.84003-.95001-2.92999v-18c0-2.76001,2.23999-5,5-5Z"/>
        <path d="M45.5,49v-1h-1c-1.6543,0-3,1.3457-3,3v1h1c1.6543,0,3-1.3457,3-3Z"/>
        <path d="M41.20703,39.12109l-.70703-.70703-.70703.70703c-1.16943,1.16992-1.16943,3.07324,0,4.24316l.70703.70703.70703-.70703c1.16943-1.16992,1.16943-3.07324,0-4.24316Z"/>
        <path d="M36.5,48h-1v1c0,1.6543,1.3457,3,3,3h1v-1c0-1.6543-1.3457-3-3-3Z"/>
        <path d="M50.5,33h-20c-1.6543,0-3,1.3457-3,3v18c0,1.6543,1.3457,3,3,3h9v-3h-1c-2.75684,0-5-2.24316-5-5v-2c0-.55273.44775-1,1-1h2c1.12994,0,2.16174.39099,3,1.02557v-1.12616l-1.12109-1.12109c-1.94922-1.94922-1.94922-5.12207,0-7.07129l1.41406-1.41406c.39062-.39062,1.02344-.39062,1.41406,0l1.41406,1.41406c1.94922,1.94922,1.94922,5.12207,0,7.07129l-1.12109,1.12109v1.12616c.83826-.63458,1.87006-1.02557,3-1.02557h2c.55225,0,1,.44727,1,1v2c0,2.75684-2.24316,5-5,5h-1v3h9c1.6543,0,3-1.3457,3-3v-18c0-1.6543-1.3457-3-3-3Z"/>
      </g>
    </g>
  </g>
</svg>