<?xml version="1.0" encoding="UTF-8"?>
<svg xmlns="http://www.w3.org/2000/svg" version="1.1" viewBox="0 0 64 64">
  <!-- Generator: Adobe Illustrator 28.7.1, SVG Export Plug-In . SVG Version: 1.2.0 Build 142)  -->
  <g>
    <g id="Glyph">
      <g>
        <path d="M48,7c-3.85999,0-7,3.14001-7,7s3.14001,7,7,7,7-3.14001,7-7-3.14001-7-7-7ZM51.71002,12.70996l-4,4c-.20001.19-.45001.29004-.71002.29004s-.51001-.10004-.71002-.29004l-2-2c-.38995-.38995-.38995-1.02997,0-1.41998.39001-.39001,1.03003-.39001,1.42004,0l1.28998,1.29999,3.28998-3.29999c.39001-.39001,1.03003-.39001,1.42004,0,.38995.39001.38995,1.03003,0,1.41998Z"/>
        <polygon points="33.13281 12 26.86719 12 25.15332 24 34.84668 24 33.13281 12"/>
        <path d="M37,29c0,.54999-.45001,1-1,1h-12c-.54999,0-1-.45001-1-1v-3h-14v30c0,.54999.45001,1,1,1h40c.54999,0,1-.45001,1-1v-30h-14v3ZM38.51001,43.14001c.34998.20996.53998.59998.47998,1-.64001,4.47998-4.53998,7.85999-9.06,7.85999h-.92999s0,1,0,1.00008c-.00007.8569-1.101,1.3189-1.71002.70988l-4-4c-.38995-.38995-.38995-1.02997,0-1.41998l4-4c.29004-.27997.72003-.37,1.09003-.21002.38.15002.62.52002.62.92004v1h2.28003c1.53998,0,3.06-.51001,4.28998-1.42999l1.83002-1.37c.31995-.24005.75995-.27002,1.10999-.06ZM36.71002,39.70996l-4,4c-.29004.28003-.72003.37-1.09003.21002-.38-.15002-.62-.52002-.62-.91998v-1h-2.28003c-1.53998,0-3.06.51001-4.28998,1.42999,0,0-1.83002,1.37-1.83002,1.37-.33176.23962-.75578.25925-1.10998.05999-.34998-.21002-.53998-.59998-.47998-1,.64001-4.47998,4.53998-7.85999,9.06-7.85999h.92999v-1c0-.40002.23999-.77002.62-.92004.37-.15997.79999-.06995,1.09003.21002l4,4c.38995.39001.38995,1.03003,0,1.41998Z"/>
        <path d="M50.66998,24l-.51996-1.26001c-.69.16998-1.41003.26001-2.15002.26001-4.96002,0-9-4.04004-9-9,0-.69.08002-1.35999.21997-2h-4.06995l1.71997,12h13.79999Z"/>
        <path d="M24.84668,12h-9.84668c-.40332,0-.76758.24316-.92285.61523l-4.74365,11.38477h13.79889l1.71429-12Z"/>
        <rect x="25" y="26" width="10" height="2"/>
        <path d="M32,38h-1.92871c-2.47363,0-4.70703,1.29199-5.99609,3.2666,1.40039-.82227,3.01562-1.2666,4.64258-1.2666h3.28223c.42871,0,.79492.26953.93652.64941l1.64941-1.64941-1.64941-1.64941c-.1416.37988-.50781.64941-.93652.64941Z"/>
        <path d="M28,48c-.42871,0-.79492-.26953-.93652-.64941l-1.64941,1.64941,1.64941,1.64941c.1416-.37988.50781-.64941.93652-.64941h1.92871c2.47363,0,4.70703-1.29199,5.99609-3.2666-1.40039.82227-3.01562,1.2666-4.64258,1.2666h-3.28223Z"/>
      </g>
    </g>
  </g>
</svg>