<?xml version="1.0" encoding="UTF-8"?>
<svg xmlns="http://www.w3.org/2000/svg" version="1.1" viewBox="0 0 48 48">
  <!-- Generator: Adobe Illustrator 28.7.1, SVG Export Plug-In . SVG Version: 1.2.0 Build 142)  -->
  <g>
    <g id="Glyph">
      <g>
        <circle cx="15" cy="40" r="3"/>
        <circle cx="33" cy="40" r="3"/>
        <polygon points="33.76428 21 34.09766 19 13.90234 19 14.23572 21 33.76428 21"/>
        <polygon points="15.23584 27 32.76416 27 33.43091 23 14.56909 23 15.23584 27"/>
        <rect x="5" y="10" width="38" height="3" rx="1" ry="1"/>
        <path d="M36,5c-1.20001,0-2.27002.53998-3,1.38-.72998-.84003-1.79999-1.38-3-1.38s-2.27002.53998-3,1.38c-.72998-.84003-1.79999-1.38-3-1.38s-2.27002.53998-3,1.38c-.72998-.84003-1.79999-1.38-3-1.38s-2.27002.53998-3,1.38c-.72998-.84003-1.79999-1.38-3-1.38-1.86255,0-3.4129,1.27728-3.8587,3h31.71741c-.4458-1.72272-1.99615-3-3.8587-3Z"/>
        <path d="M39,33H9c-1.10455,0-2,.89539-2,2v2c0,1.09998.90002,2,2,2h1.09998c.46002-2.28003,2.48004-4,4.90002-4s4.44,1.71997,4.90002,4h8.19995c.46002-2.28003,2.48004-4,4.90002-4s4.44,1.71997,4.90002,4h1.09998c1.09998,0,2-.90002,2-2v-2c0-1.10461-.89545-2-2-2Z"/>
        <path d="M38.17999,31l2.66998-16H7.15002l2.66998,16h28.35999ZM11.9585,17.35352c.18994-.22412.46924-.35352.76318-.35352h22.55664c.29395,0,.57324.12939.76318.35352.18994.22461.27148.521.22314.81104l-1.66699,10c-.08008.48193-.49756.83545-.98633.83545H14.38867c-.48877,0-.90625-.35352-.98633-.83545l-1.66699-10c-.04834-.29004.0332-.58643.22314-.81104Z"/>
      </g>
    </g>
  </g>
</svg>