<?xml version="1.0" encoding="UTF-8"?>
<svg xmlns="http://www.w3.org/2000/svg" version="1.1" viewBox="0 0 64 64">
  <!-- Generator: Adobe Illustrator 28.7.1, SVG Export Plug-In . SVG Version: 1.2.0 Build 142)  -->
  <g>
    <g id="Glyph">
      <g>
        <path d="M32,27c5.51416,0,10-4.48584,10-10s-4.48584-10-10-10-10,4.48584-10,10,4.48584,10,10,10ZM32.73193,18.26318l-2.03857-.61084c-1.01318-.3042-1.69336-1.21924-1.69336-2.27637,0-1.18134.86908-2.15625,2-2.33795v-1.03802c0-.55225.44775-1,1-1s1,.44775,1,1v1h1c.55225,0,1,.44775,1,1s-.44775,1-1,1h-2.62402c-.20752,0-.37598.16846-.37598.37598,0,.16748.10791.3125.26807.36084l2.03857.61084c1.01318.3042,1.69336,1.21924,1.69336,2.27637,0,1.18134-.86908,2.15625-2,2.33795v1.03802c0,.55225-.44775,1-1,1s-1-.44775-1-1v-1h-1c-.55225,0-1-.44775-1-1s.44775-1,1-1h2.62402c.20752,0,.37598-.16846.37598-.37598,0-.16748-.10791-.3125-.26807-.36084Z"/>
        <path d="M11,22c0,.55225.44775,1,1,1h4c.55225,0,1-.44775,1-1v-5h2c.36377,0,.69824-.19727.87451-.51514s.16602-.70654-.02637-1.01465l-5-8c-.36621-.58496-1.33008-.58496-1.69629,0l-5,8c-.19238.30811-.20264.69678-.02637,1.01465s.51074.51514.87451.51514h2v5Z"/>
        <path d="M55.84814,15.47021l-5-8c-.36621-.58496-1.33008-.58496-1.69629,0l-5,8c-.19238.30811-.20264.69678-.02637,1.01465s.51074.51514.87451.51514h2v5c0,.55225.44775,1,1,1h4c.55225,0,1-.44775,1-1v-5h2c.36377,0,.69824-.19727.87451-.51514s.16602-.70654-.02637-1.01465Z"/>
        <path d="M51,29H17c-1.10455,0-2,.89539-2,2,0,1.10455.89545,2,2,2h34c1.10455,0,2-.89545,2-2,0-1.10461-.89545-2-2-2Z"/>
        <path d="M49,53H15c-1.10455,0-2,.89539-2,2,0,1.10455.89545,2,2,2h34c1.10455,0,2-.89545,2-2,0-1.10461-.89545-2-2-2Z"/>
        <path d="M11,43c0,1.10455.89545,2,2,2h34c1.10455,0,2-.89545,2-2,0-1.10461-.89545-2-2-2H13c-1.10455,0-2,.89539-2,2Z"/>
        <path d="M47,51c1.10455,0,2-.89545,2-2,0-1.10461-.89545-2-2-2H13c-1.10455,0-2,.89539-2,2,0,1.10455.89545,2,2,2h34Z"/>
        <path d="M51,35H17c-1.10455,0-2,.89539-2,2,0,1.10455.89545,2,2,2h34c1.10455,0,2-.89545,2-2,0-1.10461-.89545-2-2-2Z"/>
      </g>
    </g>
  </g>
</svg>