<?xml version="1.0" encoding="UTF-8"?>
<svg xmlns="http://www.w3.org/2000/svg" version="1.1" viewBox="0 0 64 64">
  <!-- Generator: Adobe Illustrator 28.7.1, SVG Export Plug-In . SVG Version: 1.2.0 Build 142)  -->
  <g>
    <g id="Glyph">
      <g>
        <path d="M50,44c-2.21002,0-4,1.78998-4,4s1.78998,4,4,4,4-1.79004,4-4-1.78998-4-4-4ZM50,49c-.54999,0-1-.45001-1-1s.45001-1,1-1,1,.45001,1,1-.45001,1-1,1Z"/>
        <path d="M16,44c-2.21002,0-4,1.78998-4,4s1.78998,4,4,4,4-1.79004,4-4-1.78998-4-4-4ZM16,49c-.54999,0-1-.45001-1-1s.45001-1,1-1,1,.45001,1,1-.45001,1-1,1Z"/>
        <path d="M31,44c-2.21002,0-4,1.78998-4,4s1.78998,4,4,4,4-1.79004,4-4-1.78998-4-4-4ZM31,49c-.54999,0-1-.45001-1-1s.45001-1,1-1,1,.45001,1,1-.45001,1-1,1Z"/>
        <path d="M21.78998,27.45001l5.66003-5.66003c-2.07001-.53998-3.70001-2.16998-4.23999-4.23999l-5.66003,5.65997c2.07001.54004,3.70001,2.17004,4.23999,4.24005Z"/>
        <circle cx="16" cy="29" r="4"/>
        <circle cx="29" cy="16" r="4"/>
        <path d="M41,13h-6.81c.52002.88.81,1.89996.81,3,0,1.09998-.28998,2.12-.81,3h6.81c.54999,0,1-.45001,1-1v-4c0-.54999-.45001-1-1-1Z"/>
        <path d="M7,46c0,.54999.45001,1,1,1h2.09003c.46997-2.84003,2.94-5,5.90997-5s5.44,2.15997,5.90997,5h3.18005c.46997-2.84003,2.94-5,5.90997-5s5.44,2.15997,5.90997,5h4.09003v-7H7v6Z"/>
        <path d="M20.51001,32.94c-1.09003,1.26001-2.71002,2.06-4.51001,2.06s-3.41998-.79999-4.51001-2.06l-1.27002,5.06h11.56006l-1.27002-5.06Z"/>
        <polygon points="47 23.51874 47 31 56.35156 31 47 23.51874"/>
        <path d="M46,33c-.54999,0-1-.45001-1-1v-9h-2v24h1.09003c.46997-2.84003,2.94-5,5.90997-5s5.44,2.15997,5.90997,5h.09003c.54999,0,1-.45001,1-1v-13h-11ZM48,37h-2c-.54999,0-1-.45001-1-1s.45001-1,1-1h2c.54999,0,1,.45001,1,1s-.45001,1-1,1Z"/>
      </g>
    </g>
  </g>
</svg>