<?xml version="1.0" encoding="UTF-8"?>
<svg xmlns="http://www.w3.org/2000/svg" version="1.1" viewBox="0 0 48 48">
  <!-- Generator: Adobe Illustrator 28.7.1, SVG Export Plug-In . SVG Version: 1.2.0 Build 142)  -->
  <g>
    <g id="Glyph">
      <path d="M33.10107,25c.46466,2.2793,2.4845,4,4.89893,4,2.75684,0,5-2.24316,5-5s-2.24316-5-5-5c-2.41443,0-4.43427,1.7207-4.89893,4h-1.17053c-.18298-1.45752-.75873-2.79163-1.6189-3.89758l3.21729-3.21729c.98102.6991,2.17725,1.11487,3.47107,1.11487,3.30859,0,6-2.69141,6-6s-2.69141-6-6-6-6,2.69141-6,6c0,1.29382.41577,2.49005,1.11487,3.47107l-3.21729,3.21729c-1.3551-1.05396-3.05194-1.68835-4.89758-1.68835s-3.54248.6344-4.89758,1.68835l-3.21729-3.21729c.6991-.98102,1.11487-2.17725,1.11487-3.47107,0-3.30859-2.69141-6-6-6s-6,2.69141-6,6,2.69141,6,6,6c1.29382,0,2.49005-.41577,3.47107-1.11487l3.21729,3.21729c-.86017,1.10596-1.43591,2.44006-1.6189,3.89758h-1.17053c-.46466-2.2793-2.4845-4-4.89893-4-2.75684,0-5,2.24316-5,5s2.24316,5,5,5c2.41443,0,4.43427-1.7207,4.89893-4h1.17053c.18298,1.45752.75873,2.79163,1.6189,3.89758l-3.21729,3.21729c-.98102-.6991-2.17725-1.11487-3.47107-1.11487-3.30859,0-6,2.69141-6,6s2.69141,6,6,6,6-2.69141,6-6c0-1.29382-.41577-2.49005-1.11487-3.47107l3.21729-3.21729c1.3551,1.05396,3.05194,1.68835,4.89758,1.68835s3.54248-.6344,4.89758-1.68835l3.21729,3.21729c-.6991.98102-1.11487,2.17725-1.11487,3.47107,0,3.30859,2.69141,6,6,6s6-2.69141,6-6-2.69141-6-6-6c-1.29382,0-2.49005.41577-3.47107,1.11487l-3.21729-3.21729c.86017-1.10596,1.43591-2.44006,1.6189-3.89758h1.17053ZM27.20703,23.20703l-3,3c-.19531.19531-.45117.29297-.70703.29297s-.51172-.09766-.70703-.29297l-2-2c-.39062-.39062-.39062-1.02344,0-1.41406s1.02344-.39062,1.41406,0l1.29297,1.29297,2.29297-2.29297c.39062-.39062,1.02344-.39062,1.41406,0s.39062,1.02344,0,1.41406Z"/>
    </g>
  </g>
</svg>