<?xml version="1.0" encoding="UTF-8"?>
<svg id="Glyph" xmlns="http://www.w3.org/2000/svg" version="1.1" viewBox="0 0 64 64">
  <path d="M50,25h3.58594l-.29297.29297c-.3905.3905-.39062,1.02304-.00037,1.4137.35685.35721,1.02721.38757,1.41443.00037l2-2c.39062-.39062.39062-1.02344,0-1.41406l-2-2c-.39062-.39062-1.02344-.39062-1.41406,0s-.39062,1.02344,0,1.41406l.29297.29297h-3.58594c-.55273,0-1,.44727-1,1s.44727,1,1,1Z" fill="#000" stroke-width="0"/>
  <rect x="20" y="28" width="2" height="2" fill="#000" stroke-width="0"/>
  <path d="M24,14h-14c-1.65997,0-3,1.33997-3,3v24c0,.54999.45001,1,1,1h19v-25c0-1.66003-1.34003-3-3-3ZM12,37c0,.54999-.45001,1-1,1s-1-.45001-1-1v-2c0-.54999.45001-1,1-1s1,.45001,1,1v2ZM16,37c0,.54999-.45001,1-1,1s-1-.45001-1-1v-2c0-.54999.45001-1,1-1s1,.45001,1,1v2ZM16,31c0,.54999-.45001,1-1,1h-4c-.54999,0-1-.45001-1-1v-4c0-.54999.45001-1,1-1h4c.54999,0,1,.45001,1,1v4ZM20,37c0,.54999-.45001,1-1,1s-1-.45001-1-1v-2c0-.54999.45001-1,1-1s1,.45001,1,1v2ZM24,37c0,.54999-.45001,1-1,1s-1-.45001-1-1v-2c0-.54999.45001-1,1-1s1,.45001,1,1v2ZM24,31c0,.54999-.45001,1-1,1h-4c-.54999,0-1-.45001-1-1v-4c0-.54999.45001-1,1-1h4c.54999,0,1,.45001,1,1v4ZM24,23c0,.54999-.45001,1-1,1h-12c-.54999,0-1-.45001-1-1v-4c0-.54999.45001-1,1-1h12c.54999,0,1,.45001,1,1v4Z" fill="#000" stroke-width="0"/>
  <path d="M39,21c.10645,0,.21387.01758.31641.05176l1.68359.56055v-3.6123h-4v3.6123l1.68359-.56055c.10254-.03418.20996-.05176.31641-.05176Z" fill="#000" stroke-width="0"/>
  <rect x="12" y="28" width="2" height="2" fill="#000" stroke-width="0"/>
  <path d="M47,19c0-.55273-.44727-1-1-1h-3v5c0,.32128-.15429.62303-.41502.81151-.27592.19946-.58319.21628-.90138.13673l-2.68359-.89453-2.68359.89453c-.30566.10254-.64062.05078-.90137-.13672-.26074-.18848-.41504-.49023-.41504-.81152v-5h-3c-.55273,0-1,.44727-1,1v7h16v-7Z" fill="#000" stroke-width="0"/>
  <rect x="12" y="20" width="10" height="2" fill="#000" stroke-width="0"/>
  <path d="M49,44v5c0,.54999-.45001,1-1,1h-4c-.54999,0-1-.45001-1-1v-1h-22v1c0,.54999-.45001,1-1,1h-4c-.54999,0-1-.45001-1-1v-5h6v2h22v-2h6Z" fill="#000" stroke-width="0"/>
  <path d="M50,28h-21v14h21c3.85999,0,7-3.14001,7-7s-3.14001-7-7-7ZM34,38c-1.65002,0-3-1.35004-3-3s1.34998-3,3-3,3,1.34998,3,3-1.34998,3-3,3ZM42,38c-1.65002,0-3-1.35004-3-3s1.34998-3,3-3,3,1.34998,3,3-1.34998,3-3,3ZM50,38c-1.65002,0-3-1.35004-3-3s1.34998-3,3-3,3,1.34998,3,3-1.34998,3-3,3Z" fill="#000" stroke-width="0"/>
  <circle cx="42" cy="35" r="1" fill="#000" stroke-width="0"/>
  <circle cx="50" cy="35" r="1" fill="#000" stroke-width="0"/>
  <circle cx="34" cy="35" r="1" fill="#000" stroke-width="0"/>
</svg>