<?xml version="1.0" encoding="utf-8"?>
<!-- Generator: Adobe Illustrator 27.3.1, SVG Export Plug-In . SVG Version: 6.00 Build 0)  -->
<svg version="1.1" id="Glyph" xmlns="http://www.w3.org/2000/svg" xmlns:xlink="http://www.w3.org/1999/xlink" x="0px" y="0px"
	 viewBox="0 0 48 48" enable-background="new 0 0 48 48" xml:space="preserve">
<g>
	<path d="M9,27c1.6543,0,3-1.3457,3-3c0-1.42383-1.76953-3.21191-2.31201-3.72559c-0.38574-0.36621-0.99023-0.36621-1.37598,0
		C7.76953,20.78809,6,22.57617,6,24C6,25.6543,7.3457,27,9,27z"/>
	<path d="M39.37073,7.21509C38.93225,7.08899,38.47845,7,38,7h-5v3c0,0.55225-0.44727,1-1,1s-1-0.44775-1-1V7h-2v3
		c0,0.55225-0.44727,1-1,1s-1-0.44775-1-1V7h-2v3c0,0.55225-0.44775,1-1,1s-1-0.44775-1-1V7h-2v3c0,0.55225-0.44775,1-1,1
		s-1-0.44775-1-1V7h-2v10h12.58551L39.37073,7.21509z"/>
	<path d="M12,19h2c0.55231,0,1-0.44775,1-1V6c0-0.55231-0.44769-1-1-1h-2c-0.55231,0-1,0.44769-1,1v12
		C11,18.55225,11.44769,19,12,19z"/>
	<path d="M38,17c2.75684,0,5-2.24316,5-5c0-1.52783-0.70367-2.88092-1.78723-3.79883L32.4137,17H38z"/>
	<path d="M42,29H12c-0.55225,0-1,0.44775-1,1c0,1.10303-0.89697,2-2,2s-2-0.89697-2-2c0-0.55225-0.44775-1-1-1s-1,0.44775-1,1v12
		c0,0.55225,0.44775,1,1,1h36c0.55273,0,1-0.44775,1-1V30C43,29.44775,42.55273,29,42,29z"/>
</g>
</svg>
