<?xml version="1.0" encoding="UTF-8"?>
<svg id="Glyph" xmlns="http://www.w3.org/2000/svg" version="1.1" viewBox="0 0 64 64">
  <path d="M49,15c0-1.10303-.89746-2-2-2h-6c-1.10254,0-2,.89697-2,2v1h10v-1Z" fill="#000" stroke-width="0"/>
  <path d="M38.54004,18l-.86621,1.31934c5.42188.90918,7.23047.90918,12.65234,0l-.86621-1.31934h-10.91992Z" fill="#000" stroke-width="0"/>
  <path d="M39,21.55469v.44531c0,2.75684,2.24316,5,5,5s5-2.24316,5-5v-.44531c-1.96613.29639-3.48853.44824-5,.44824s-3.03387-.15186-5-.44824Z" fill="#000" stroke-width="0"/>
  <path d="M44,7c-7.16797,0-13,5.83154-13,13s5.83203,13,13,13,13-5.83154,13-13-5.83203-13-13-13ZM52.91107,20.44043c-.1275.29437-.39081.52991-.7392.59082-.4101.07172-.79578.138-1.17188.20178v.76697c0,3.85986-3.14062,7-7,7s-7-3.14014-7-7v-.76697c-.3761-.06378-.76178-.13007-1.17188-.20178-.33203-.05762-.6123-.27881-.74609-.58789-.13379-.30859-.10254-.66455.08203-.9458l1.83594-2.79651v-1.70105c0-2.20557,1.79395-4,4-4h6c2.20605,0,4,1.79443,4,4v1.70105s1.8324,2.79114,1.83594,2.79651c.19434.29602.20251.6488.07513.94287Z" fill="#000" stroke-width="0"/>
  <polygon points="19 45.7207 7 41.72095 7 43.61267 19 47.61279 19 45.7207" fill="#000" stroke-width="0"/>
  <polygon points="37 47.61279 49 43.61267 49 41.72095 37 45.7207 37 47.61279" fill="#000" stroke-width="0"/>
  <path d="M29.01001,20.29999l-.67999-.23999c-.21002-.08002-.45001-.08002-.66003,0l-19.66455,6.88257,19.99457,6.99786,6.55707-2.29486c-3.31592-2.69434-5.46271-6.77319-5.54706-11.34558Z" fill="#000" stroke-width="0"/>
  <path d="M7,35.61261l13.31641,4.43866c.52344.1748.80664.74115.63184,1.26508-.16608.49786-.73975.80731-1.26465.63239l-12.68359-4.22772v1.8916l13.31641,4.43866c.4082.13623.68359.51807.68359.94873v3.99988c0,.67041-.68701,1.15668-1.31641.94885l-12.68359-4.22772v3.27899c0,.41998.27002.79999.66998.94l19.33002,7.06v-21.29065l-20-6.99988v6.90314Z" fill="#000" stroke-width="0"/>
  <path d="M36.62225,33.04163l-7.62225,2.66772v21.29065l19.33002-7.06c.39996-.14001.66998-.52002.66998-.94v-3.27899s-12.68359,4.22772-12.68365,4.22772c-.63953.21112-1.31635-.27155-1.31635-.94873v-4c0-.43066.27539-.8125.68359-.94873l13.31641-4.43866v-1.8916s-12.63641,4.21198-12.68347,4.22766c-.49579.16528-1.08893-.10474-1.26477-.63226-.1748-.52393.1084-1.09033.63184-1.26514l13.31641-4.43866v-1.4726c-1.56.56-3.23999.85999-5,.85999-2.68256,0-5.19629-.71912-7.37775-1.95837Z" fill="#000" stroke-width="0"/>
</svg>