<?xml version="1.0" encoding="UTF-8"?>
<svg id="Glyph" xmlns="http://www.w3.org/2000/svg" version="1.1" viewBox="0 0 64 64">
  <path d="M41.10388,26.94762L22.01392,7.85765c-1.13-1.13-3.11005-1.13-4.23999,0l-9.90002,9.89996c-.57001.56-.88,1.32001-.88,2.12,0,.80005.31,1.55005.88,2.12l19.08997,19.09003c.59003.59003,1.35004.88,2.12006.88.76996,0,1.53998-.28998,2.12-.88l9.89996-9.90002c1.17004-1.16998,1.17004-3.06995,0-4.23999ZM25.179,18.09335c-.34625.35849-.9192.49009-1.38512.02431l-3.89996-3.90002-2.83002,2.83002c-.39001.38995-1.02002.38995-1.41003,0-.38995-.39001-.38995-1.02002,0-1.41003l3.53003-3.53998c.38-.37,1.03998-.37,1.41998,0l4.60003,4.60998c.44088.44183.32133,1.02723-.02492,1.38572Z" style="fill: #000; stroke-width: 0px;"/>
  <path d="M48.9339,43.26762l-8.53003-8.52997-5.64996,5.64996,8.52997,8.53003c.35004-1.34003,1.05005-2.57001,2.07001-3.58002,1.01001-1.02002,2.23999-1.71997,3.58002-2.07001Z" style="fill: #000; stroke-width: 0px;"/>
  <path d="M55.24878,46.74718c-1.1333-1.1333-2.64014-1.75732-4.24268-1.75732s-3.10938.62402-4.24268,1.75732-1.75732,2.64014-1.75732,4.24268.62402,3.10938,1.75732,4.24268,2.64014,1.75732,4.24268,1.75732,3.10938-.62402,4.24268-1.75732,1.75732-2.64014,1.75732-4.24268-.62402-3.10938-1.75732-4.24268Z" style="fill: #000; stroke-width: 0px;"/>
  <path d="M19.9939,47.97765c0,2.40326.76611,4.66278,2.16827,6.53601,1.73895-1.64203,2.83173-3.96136,2.83173-6.53601s-1.09277-4.89398-2.83173-6.53601c-1.40216,1.87323-2.16827,4.13275-2.16827,6.53601Z" style="fill: #000; stroke-width: 0px;"/>
  <path d="M20.56598,40.23936c-1.34198-.79608-2.90192-1.26172-4.57208-1.26172s-3.2301.46564-4.57208,1.26172c1.66309,2.21722,2.57208,4.89276,2.57208,7.73828s-.909,5.521-2.57208,7.73828c1.34198.79608,2.90186,1.26172,4.57208,1.26172s3.2301-.46564,4.57208-1.26172c-1.66309-2.21729-2.57208-4.89276-2.57208-7.73828s.909-5.52106,2.57208-7.73828Z" style="fill: #000; stroke-width: 0px;"/>
  <path d="M9.82562,41.44164c-1.73895,1.64203-2.83173,3.96136-2.83173,6.53601s1.09277,4.89398,2.83173,6.53601c1.40216-1.87323,2.16827-4.13275,2.16827-6.53601s-.76611-4.66278-2.16827-6.53601Z" style="fill: #000; stroke-width: 0px;"/>
</svg>