<?xml version="1.0" encoding="UTF-8"?>
<svg xmlns="http://www.w3.org/2000/svg" version="1.1" viewBox="0 0 64 64">
  <!-- Generator: Adobe Illustrator 28.7.1, SVG Export Plug-In . SVG Version: 1.2.0 Build 142)  -->
  <g>
    <g id="Glyph">
      <g>
        <path d="M16,37c-1.65002,0-3,1.34998-3,3s1.34998,3,3,3,3-1.35004,3-3c0-.82001-.34003-1.58002-.88-2.12-.53998-.54004-1.29999-.88-2.12-.88Z"/>
        <path d="M16,45c-2.76001,0-5-2.23999-5-5s2.23999-5,5-5c1.02002,0,1.96997.31,2.76001.82001l2.84998-2.85004c-1.53998-1.22998-3.48999-1.96997-5.60999-1.96997-4.96002,0-9,4.03998-9,9s4.03998,9,9,9c4.62,0,8.45001-3.51001,8.94-8h-4.03998c-.46002,2.27997-2.48004,4-4.90002,4Z"/>
        <path d="M20.90002,39h4.03998c-.19-1.73004-.87-3.32001-1.90997-4.60999l-2.85004,2.84998c.34003.52997.59003,1.12.72003,1.76001Z"/>
        <path d="M48,43c1.65002,0,3-1.35004,3-3s-1.34998-3-3-3c-1.61926,0-3,1.37805-3,3,0,1.64996,1.34998,3,3,3Z"/>
        <path d="M48,31c-.40997,0-.81.02997-1.20001.07996l.98004,3.93005c.06995-.01001.14996-.01001.21997-.01001,2.76001,0,5,2.23999,5,5s-2.23999,5-5,5-5-2.23999-5-5c0-1.98999,1.15997-3.70001,2.84003-4.51001l-.98004-3.91998c-3.41998,1.26996-5.85999,4.57001-5.85999,8.42999,0,4.95996,4.03998,9,9,9s9-4.04004,9-9-4.03998-9-9-9Z"/>
        <path d="M44.21002,20.73999l1.75995-.45001c1.20001-.29999,2.03003-1.37,2.03003-2.59998,0-.38.31-.69.69-.69h2.31c.54999,0,1-.45001,1-1s-.45001-1-1-1h-2.31c-1.47998,0-2.69,1.20996-2.69,2.69,0,.31-.21002.57996-.52002.65997l-2.72998.69c-.53003.14001-.84998.67999-.71997,1.21002l.37543,1.50183-13.36102,7.5155-.46729-1.24561c-.008-.02246-.01508-.04382-.02472-.0658l-1.10901-2.95593h1.55658c.55273,0,1-.44775,1-1s-.44727-1-1-1h-6c-.55273,0-1,.44775-1,1s.44727,1,1,1h2.30695l1.16577,3.10724-4.86273,4.86273c.53003.42004,1,.89001,1.42004,1.42004l4.21753-4.21753,2.41553,6.43835c.01489.03973.04138.07068.06061.1073-.78137.5437-1.35077,1.36035-1.59009,2.30902-.04559-.00641-.0863-.02716-.13361-.02716h-3.06c.03998.32996.06.65997.06,1,0,.33997-.02002.66998-.06,1h3.06c.0473,0,.08801-.02075.13361-.02716.35614,1.41193,1.45819,2.51917,2.86639,2.88519v3.14197h-1c-.55273,0-1,.44775-1,1s.44727,1,1,1h4c.55273,0,1-.44775,1-1s-.44727-1-1-1h-1v-3.14197c1.72052-.4472,3-1.99969,3-3.85803,0-.82721-.25244-1.59662-.6842-2.23517.03772-.0329.08447-.04968.1178-.08905l8.45422-9.99438.97217,3.88861c.62-.24005,1.27002-.40002,1.94-.49005l-2.58997-10.33997ZM43.23633,25.354l-9.33008,11.02979c-.02399.02838-.03119.06354-.05145.09363-.55701-.29468-1.18188-.47742-1.8548-.47742-.15137,0-.29504.0282-.44208.04468-.01007-.04547-.005-.09113-.02179-.13599l-1.78082-4.74652,13.15314-7.39856.38605,1.54437c-.01782.01807-.0415.02637-.05817.04602Z"/>
      </g>
    </g>
  </g>
</svg>