<?xml version="1.0" encoding="UTF-8"?>
<svg id="Glyph" xmlns="http://www.w3.org/2000/svg" version="1.1" viewBox="0 0 48 48">
  <rect x="11" y="35" width="4" height="2" fill="#000" stroke-width="0"/>
  <rect x="33" y="17" width="4" height="2" fill="#000" stroke-width="0"/>
  <path d="M40,25c1.6543,0,3-1.3457,3-3v-8c0-1.6543-1.3457-3-3-3h-2.98633v-5c0-.55225-.44727-1-1-1s-1,.44775-1,1v5H13v-5c0-.55225-.44775-1-1-1s-1,.44775-1,1v5h-3c-1.6543,0-3,1.3457-3,3v8c0,1.6543,1.3457,3,3,3h3v4h-3c-1.6543,0-3,1.3457-3,3v8c0,1.6543,1.3457,3,3,3h32c1.6543,0,3-1.3457,3-3v-8c0-1.6543-1.3457-3-3-3h-2.98633v-4h2.98633ZM21,15h7c.55273,0,1,.44775,1,1s-.44727,1-1,1h-7c-.55225,0-1-.44775-1-1s.44775-1,1-1ZM21,19h7c.55273,0,1,.44775,1,1s-.44727,1-1,1h-7c-.55225,0-1-.44775-1-1s.44775-1,1-1ZM35.01367,25v4H13v-4h22.01367ZM9.29297,18.70703c-.39062-.39062-.39062-1.02344,0-1.41406l2-2c.39062-.39062,1.02344-.39062,1.41406,0s.39062,1.02344,0,1.41406l-.29297.29297h4.58594c.55225,0,1,.44775,1,1s-.44775,1-1,1h-4.58594l.29297.29297c.39062.39062.39062,1.02344,0,1.41406-.19531.19531-.45117.29297-.70703.29297s-.51172-.09766-.70703-.29297l-2-2ZM17,38c0,.55225-.44775,1-1,1h-6c-.55225,0-1-.44775-1-1v-4c0-.55225.44775-1,1-1h6c.55225,0,1,.44775,1,1v4ZM27,39h-7c-.55225,0-1-.44775-1-1s.44775-1,1-1h7c.55273,0,1,.44775,1,1s-.44727,1-1,1ZM27,35h-7c-.55225,0-1-.44775-1-1s.44775-1,1-1h7c.55273,0,1,.44775,1,1s-.44727,1-1,1ZM38.70703,35.29297c.39062.39062.39062,1.02344,0,1.41406l-2,2c-.19531.19531-.45117.29297-.70703.29297s-.51172-.09766-.70703-.29297c-.39062-.39062-.39062-1.02344,0-1.41406l.29297-.29297h-4.58594c-.55273,0-1-.44775-1-1s.44727-1,1-1h4.58594l-.29297-.29297c-.39062-.39062-.39062-1.02344,0-1.41406s1.02344-.39062,1.41406,0l2,2ZM32,21c-.55273,0-1-.44775-1-1v-4c0-.55225.44727-1,1-1h6c.55273,0,1,.44775,1,1v4c0,.55225-.44727,1-1,1h-6Z" fill="#000" stroke-width="0"/>
</svg>