<?xml version="1.0" encoding="utf-8"?>
<!-- Generator: Adobe Illustrator 27.3.1, SVG Export Plug-In . SVG Version: 6.00 Build 0)  -->
<svg version="1.1" id="Glyph" xmlns="http://www.w3.org/2000/svg" xmlns:xlink="http://www.w3.org/1999/xlink" x="0px" y="0px"
	 viewBox="0 0 64 64" enable-background="new 0 0 64 64" xml:space="preserve">
<g>
	<circle cx="39" cy="33" r="1"/>
	<circle cx="35" cy="43" r="2"/>
	<circle cx="29" cy="32" r="2"/>
	<circle cx="25" cy="42" r="1"/>
	<path d="M32.70703,7.29297c-0.39062-0.39062-1.02344-0.39062-1.41406,0C30.5459,8.04004,13,25.72656,13,38
		c0,10.47656,8.52344,19,19,19s19-8.52344,19-19C51,25.72656,33.4541,8.04004,32.70703,7.29297z M32,53c-8.27148,0-15-6.72852-15-15
		c0-4.1748,2.96289-10.43262,8.3418-17.62207c1.76855-2.36426,3.75781-4.78223,5.91309-7.1875
		c0.38086-0.42383,1.10938-0.42383,1.49023,0c2.15527,2.40527,4.14453,4.82324,5.91309,7.1875C44.03711,27.56738,47,33.8252,47,38
		C47,46.27148,40.27148,53,32,53z"/>
	<path d="M37.05664,21.5752C35.52832,19.5332,33.83105,17.44824,32,15.36426c-1.83105,2.08398-3.52832,4.16895-5.05664,6.21094
		C21.82129,28.42188,19,34.25488,19,38c0,7.16797,5.83203,13,13,13s13-5.83203,13-13
		C45,34.25488,42.17871,28.42188,37.05664,21.5752z M37,26c0.55231,0,1,0.44769,1,1c0,0.55225-0.44769,1-1,1s-1-0.44775-1-1
		C36,26.44769,36.44769,26,37,26z M33,24c0.55231,0,1,0.44769,1,1c0,0.55225-0.44769,1-1,1s-1-0.44775-1-1
		C32,24.44769,32.44769,24,33,24z M31,20c0.55231,0,1,0.44769,1,1c0,0.55225-0.44769,1-1,1s-1-0.44775-1-1
		C30,20.44769,30.44769,20,31,20z M25,45c-1.6543,0-3-1.3457-3-3s1.3457-3,3-3s3,1.3457,3,3S26.6543,45,25,45z M28,37v-1.14197
		c-0.36316-0.09436-0.70374-0.23834-1.01929-0.42468l-0.80884,0.80884c-0.19531,0.19531-0.45117,0.29297-0.70703,0.29297
		s-0.51172-0.09766-0.70703-0.29297c-0.39062-0.39062-0.39062-1.02344,0-1.41406l0.80884-0.80884
		C25.38031,33.70374,25.23633,33.36316,25.14197,33H24c-0.55273,0-1-0.44727-1-1s0.44727-1,1-1h1.14197
		c0.09436-0.36316,0.23834-0.70374,0.42468-1.01929l-0.80884-0.80884c-0.39062-0.39062-0.39062-1.02344,0-1.41406
		s1.02344-0.39062,1.41406,0l0.80884,0.80884c0.31555-0.18634,0.65613-0.33032,1.01929-0.42468V27c0-0.55273,0.44727-1,1-1
		s1,0.44727,1,1v1.14197c0.36316,0.09436,0.70374,0.23834,1.01929,0.42468l0.80884-0.80884
		c0.39062-0.39062,1.02344-0.39062,1.41406,0s0.39062,1.02344,0,1.41406l-0.80884,0.80884
		c0.18634,0.31555,0.33032,0.65613,0.42468,1.01929H34c0.55273,0,1,0.44727,1,1s-0.44727,1-1,1h-1.14197
		c-0.09436,0.36316-0.23834,0.70374-0.42468,1.01929l0.80884,0.80884c0.39056,0.39056,0.39062,1.02325,0.00018,1.41388
		c-0.38861,0.38879-1.02808,0.38629-1.41425,0.00018l-0.80884-0.80884C30.70374,35.61969,30.36316,35.76367,30,35.85803V37
		c0,0.55273-0.44727,1-1,1S28,37.55273,28,37z M40,44h-1.14197c-0.09436,0.36316-0.23834,0.70374-0.42468,1.01929l0.80884,0.80884
		c0.39056,0.39056,0.39062,1.02325,0.00012,1.41388c-0.36694,0.36713-1.01489,0.39948-1.41418,0.00018l-0.80884-0.80884
		C36.70374,46.61969,36.36316,46.76367,36,46.85803V48c0,0.55273-0.44727,1-1,1s-1-0.44727-1-1v-1.14197
		c-0.36316-0.09436-0.70374-0.23834-1.01929-0.42468c0,0-0.80847,0.80847-0.80884,0.80884
		c-0.36511,0.36511-1.01361,0.40039-1.41406,0c-0.39062-0.39062-0.39062-1.02344,0-1.41406l0.80884-0.80884
		C31.38031,44.70374,31.23633,44.36316,31.14197,44H30c-0.55273,0-1-0.44727-1-1s0.44727-1,1-1h1.14197
		c0.09436-0.36316,0.23834-0.70374,0.42468-1.01929l-0.80884-0.80884c-0.39062-0.39062-0.39062-1.02344,0-1.41406
		s1.02344-0.39062,1.41406,0l0.80884,0.80884c0.31555-0.18634,0.65613-0.33032,1.01929-0.42468V38c0-0.55273,0.44727-1,1-1
		s1,0.44727,1,1v1.14197c0.36316,0.09436,0.70374,0.23834,1.01929,0.42468l0.80884-0.80884
		c0.39062-0.39062,1.02344-0.39062,1.41406,0s0.39062,1.02344,0,1.41406l-0.80884,0.80884
		c0.18634,0.31555,0.33032,0.65613,0.42468,1.01929H40c0.55273,0,1,0.44727,1,1S40.55273,44,40,44z M39,36c-1.6543,0-3-1.3457-3-3
		s1.3457-3,3-3s3,1.3457,3,3S40.6543,36,39,36z"/>
</g>
</svg>
