<?xml version="1.0" encoding="UTF-8"?>
<svg id="Glyph" xmlns="http://www.w3.org/2000/svg" version="1.1" viewBox="0 0 64 64">
  <path d="M8,29h3.09003c-.06-.32001-.09003-.66003-.09003-1,0-1.10004.28998-2.12.81-3h-3.81c-.54999,0-1,.45001-1,1v2c0,.54999.45001,1,1,1Z" fill="#000" stroke-width="0"/>
  <path d="M56,25h-3.81c.52002.88.81,1.89996.81,3,0,.33997-.03003.67999-.09003,1h3.09003c.54999,0,1-.45001,1-1v-2c0-.54999-.45001-1-1-1Z" fill="#000" stroke-width="0"/>
  <polygon points="49 15 55.49988 15 53.99988 13 49 13 49 15" fill="#000" stroke-width="0"/>
  <rect x="43" y="13" width="4" height="2" fill="#000" stroke-width="0"/>
  <path d="M47,22c1.21997,0,2.35999.35999,3.31,1h5.69v-2h-3c-.54999,0-1-.45001-1-1s.45001-1,1-1h3v-2h-14c-.54999,0-1-.45001-1-1v-4c0-.54999.45001-1,1-1h10.5l-2.69995-3.59998c-.1889-.25183-.48529-.40002-.80005-.40002h-9c-.55231,0-1,.44769-1,1v15h4.69c.95001-.64001,2.09003-1,3.31-1Z" fill="#000" stroke-width="0"/>
  <path d="M13,28c0,2.20557,1.79443,4,4,4s4-1.79443,4-4-1.79443-4-4-4-4,1.79443-4,4ZM18,28c0,.55225-.44769,1-1,1s-1-.44775-1-1c0-.55231.44769-1,1-1s1,.44769,1,1Z" fill="#000" stroke-width="0"/>
  <path d="M47,24c-2.20557,0-4,1.79443-4,4s1.79443,4,4,4,4-1.79443,4-4-1.79443-4-4-4ZM47,29c-.55231,0-1-.44775-1-1,0-.55231.44769-1,1-1s1,.44769,1,1c0,.55225-.44769,1-1,1Z" fill="#000" stroke-width="0"/>
  <path d="M17,22c.70001,0,1.37.12,2,.34998v-12.34998c0-.55231-.44769-1-1-1h-2v4c0,.55225-.44775,1-1,1h-4c-.55225,0-1-.44775-1-1v-4h-2c-.54999,0-1,.45001-1,1v13h6.69c.95001-.64001,2.09003-1,3.31-1Z" fill="#000" stroke-width="0"/>
  <rect x="12" y="9" width="2" height="3" fill="#000" stroke-width="0"/>
  <path d="M37,9h-16v14h16v-14ZM34,21h-5c-.55225,0-1-.44775-1-1s.44775-1,1-1h5c.55225,0,1,.44775,1,1s-.44775,1-1,1Z" fill="#000" stroke-width="0"/>
  <path d="M56,45h-5v-5c0-.26514-.10547-.51953-.29297-.70703l-3-3c-.1875-.1875-.44189-.29297-.70703-.29297h-12.18427c-.30206-.84717-.96857-1.51367-1.81573-1.81573v-5.18427h8.09003c-.06-.32001-.09003-.66003-.09003-1,0-1.10004.28998-2.12.81-3h-19.62c.52002.88.81,1.89996.81,3,0,.33997-.03003.67999-.09003,1h8.09003v5.18427c-.84717.30206-1.51367.96857-1.81573,1.81573h-12.18427c-.26514,0-.51953.10547-.70703.29297l-3,3c-.1875.1875-.29297.44189-.29297.70703v5h-5c-.55225,0-1,.44775-1,1v10c0,.55225.44775,1,1,1h12c.55225,0,1-.44775,1-1v-10c0-.55225-.44775-1-1-1h-5v-4.58594l2.41406-2.41406h11.77026c.30206.84717.96851,1.51361,1.81567,1.81567v5.18433h-5c-.55225,0-1,.44775-1,1v10c0,.55225.44775,1,1,1h12c.55225,0,1-.44775,1-1v-10c0-.55225-.44775-1-1-1h-5v-5.18427c.84717-.30206,1.51367-.96857,1.81573-1.81573h11.7702l2.41406,2.41406v4.58594h-5c-.55225,0-1,.44775-1,1v10c0,.55225.44775,1,1,1h12c.55225,0,1-.44775,1-1v-10c0-.55225-.44775-1-1-1ZM32,38c-.55127,0-1-.44873-1-1s.44873-1,1-1,1,.44873,1,1-.44873,1-1,1Z" fill="#000" stroke-width="0"/>
</svg>