<?xml version="1.0" encoding="UTF-8"?>
<svg id="Glyph" xmlns="http://www.w3.org/2000/svg" version="1.1" viewBox="0 0 48 48">
  <path d="M7.5,19h14c1.10455,0,2-.89545,2-2V7c0-1.10461-.89545-2-2-2H7.5c-1.10455,0-2,.89539-2,2v10c0,1.10455.89545,2,2,2ZM9.5,7h10c.55225,0,1,.44727,1,1s-.44775,1-1,1h-10c-.55225,0-1-.44727-1-1s.44775-1,1-1ZM9.5,11h10c.55225,0,1,.44727,1,1s-.44775,1-1,1h-10c-.55225,0-1-.44727-1-1s.44775-1,1-1ZM9.5,15h10c.55225,0,1,.44727,1,1s-.44775,1-1,1h-10c-.55225,0-1-.44727-1-1s.44775-1,1-1Z" fill="#000" stroke-width="0"/>
  <circle cx="17.5" cy="31" r="6" fill="#000" stroke-width="0"/>
  <path d="M10.5,34.85999c-.15997-.28003-.29999-.57001-.40997-.87l-3.18005,2.47998c-.82996.64001-1.33997,1.60999-1.39996,2.65002-.07001,1.04999.32001,2.07001,1.06,2.81.67999.69,1.60999,1.07001,2.58002,1.07001.06995,0,.14996,0,.22998-.01001,1.03998-.06,2.01001-.57001,2.65002-1.40002l2.01996-2.58997.46002-.59003c-1.71002-.67999-3.13-1.95001-4.01001-3.54999Z" fill="#000" stroke-width="0"/>
  <path d="M40.5,13.18427v19.81573h2v-17c0-1.30194-.8385-2.40161-2-2.81573Z" fill="#000" stroke-width="0"/>
  <polygon points="34.5 42.40997 41.90997 35 34.5 35 34.5 42.40997" fill="#000" stroke-width="0"/>
  <path d="M15.68433,41c.41412,1.1615,1.51373,2,2.81567,2h14v-2H15.68433Z" fill="#000" stroke-width="0"/>
  <path d="M38.5,12c0-1.65002-1.34998-3-3-3h-10v8c0,2.20996-1.78998,4-4,4h-11v6.14001c1.35999-2.47003,3.98999-4.14001,7-4.14001,2.02002,0,3.85999.76001,5.27002,2h10.72998c.54999,0,1,.45001,1,1s-.45001,1-1,1h-9.08002c.36005.62.63,1.28998.82001,2h8.26001c.54999,0,1,.45001,1,1s-.45001,1-1,1h-8c0,.69-.09998,1.35999-.26001,2h4.26001c.54999,0,1,.45001,1,1s-.45001,1-1,1h-5.08002c-1.38995,2.39001-3.96997,4-6.91998,4h15v-5c0-.54999.45001-1,1-1h5V12ZM33.5,23h-4c-.54999,0-1-.45001-1-1s.45001-1,1-1h4c.54999,0,1,.45001,1,1s-.45001,1-1,1ZM33.5,19h-4c-.54999,0-1-.45001-1-1s.45001-1,1-1h4c.54999,0,1,.45001,1,1s-.45001,1-1,1ZM33.5,15h-4c-.54999,0-1-.45001-1-1s.45001-1,1-1h4c.54999,0,1,.45001,1,1s-.45001,1-1,1Z" fill="#000" stroke-width="0"/>
</svg>