<?xml version="1.0" encoding="UTF-8"?>
<svg xmlns="http://www.w3.org/2000/svg" version="1.1" viewBox="0 0 64 64">
  <!-- Generator: Adobe Illustrator 28.7.1, SVG Export Plug-In . SVG Version: 1.2.0 Build 142)  -->
  <g>
    <g id="Glyph">
      <g>
        <path d="M48.5,39c-1.10455,0-2,.89539-2,2v14c0,1.10455.89545,2,2,2s2-.89545,2-2v-14c0-1.10461-.89545-2-2-2Z"/>
        <path d="M30.5,39c-1.10455,0-2,.89539-2,2v14c0,1.10455.89545,2,2,2s2-.89545,2-2v-14c0-1.10461-.89545-2-2-2Z"/>
        <rect x="34.5" y="45" width="10" height="6"/>
        <path d="M54.5,41c-1.10455,0-2,.89539-2,2v10c0,1.10455.89545,2,2,2s2-.89545,2-2v-10c0-1.10461-.89545-2-2-2Z"/>
        <path d="M24.5,41c-1.10455,0-2,.89539-2,2v10c0,1.10455.89545,2,2,2s2-.89545,2-2v-10c0-1.10461-.89545-2-2-2Z"/>
        <path d="M17.18359,18.65869c4.55664-2.17578,10.07617-2.17578,14.63281,0l2.8291-5.65869H14.354l2.82959,5.65869Z"/>
        <path d="M34.5,43h4.41998c1.67004-2.67004,2.58002-5.79004,2.58002-9,0-4.42999-1.69-8.59003-4.76001-11.78003l3.98999-7.97998c.79004-1.56.71002-3.38-.20996-4.87-.92004-1.47998-2.52002-2.37-4.26001-2.37H12.73999c-1.73999,0-3.33997.89001-4.26001,2.37-.91998,1.48999-1,3.31-.20996,4.87l3.98999,7.97998c-3.07001,3.19-4.76001,7.35004-4.76001,11.78003,0,7.35999,4.70001,13.84998,11.69,16.14996.09998.03003.20001.05005.31.05005.07001,0,.13-.01001.20001-.02002l.79999-.16003v-7.01996c0-2.21002,1.78998-4,4-4,.82001,0,1.59003.25,2.22998.67999.54004-1.56,2.02002-2.67999,3.77002-2.67999,2.21002,0,4,1.78998,4,4v2ZM33.15002,20.45996c-.12.24005-.34003.43005-.60004.51001-.26001.08002-.53998.04999-.77997-.07996-4.44-2.47003-10.10004-2.47003-14.5401,0-.23596.12579-.5235.15881-.77991.07996-.26001-.07996-.48004-.26996-.60004-.51001l-4.00995-8.00995c-.15002-.31-.14001-.68005.04999-.98004.17999-.28998.5-.46997.84998-.46997h23.52002c.34998,0,.66998.17999.84998.46997.19.29999.20001.67004.04999.98004l-4.00995,8.00995Z"/>
      </g>
    </g>
  </g>
</svg>