<?xml version="1.0" encoding="UTF-8"?>
<svg xmlns="http://www.w3.org/2000/svg" version="1.1" viewBox="0 0 64 64">
  <!-- Generator: Adobe Illustrator 28.7.1, SVG Export Plug-In . SVG Version: 1.2.0 Build 142)  -->
  <g>
    <g id="Glyph">
      <g>
        <path d="M17,42c-2.21002,0-4,1.78998-4,4s1.78998,4,4,4,4-1.79004,4-4-1.78998-4-4-4ZM17,47c-.54999,0-1-.45001-1-1s.45001-1,1-1,1,.45001,1,1-.45001,1-1,1Z"/>
        <path d="M50,42c-2.21002,0-4,1.78998-4,4s1.78998,4,4,4,4-1.79004,4-4-1.78998-4-4-4ZM50,47c-.54999,0-1-.45001-1-1s.45001-1,1-1,1,.45001,1,1-.45001,1-1,1Z"/>
        <rect x="32" y="20" width="2" height="12"/>
        <path d="M46,15c0-.54999-.45001-1-1-1H10c-1.65002,0-3,1.34998-3,3v1h12c.54999,0,1,.45001,1,1v14c0,.54999-.45001,1-1,1h-4c-.54999,0-1-.45001-1-1v-13h-7v16h34v-2h-10c-.54999,0-1-.45001-1-1v-14c0-.54999.45001-1,1-1h4c.54999,0,1,.45001,1,1v13h5v-13c0-.42999.28003-.81.67999-.95001l4.32001-1.44v-1.60999ZM28,33c0,.54999-.45001,1-1,1h-4c-.54999,0-1-.45001-1-1v-14c0-.54999.45001-1,1-1h4c.54999,0,1,.45001,1,1v14Z"/>
        <rect x="24" y="20" width="2" height="12"/>
        <path d="M46,31c-.54999,0-1-.45001-1-1v-9h-2v24h1.09003c.46997-2.84003,2.94-5,5.90997-5s5.44,2.15997,5.90997,5h.09003c.54999,0,1-.45001,1-1v-13h-11ZM48,35h-2c-.54999,0-1-.45001-1-1s.45001-1,1-1h2c.54999,0,1,.45001,1,1s-.45001,1-1,1Z"/>
        <polygon points="47 21.51923 47 29 56.35095 29 47 21.51923"/>
        <rect x="16" y="20" width="2" height="12"/>
        <path d="M7,44c0,.54999.45001,1,1,1h3.09003c.46997-2.84003,2.94-5,5.90997-5s5.44,2.15997,5.90997,5h18.09003v-7H7v6Z"/>
      </g>
    </g>
  </g>
</svg>