<?xml version="1.0" encoding="UTF-8"?>
<svg id="Glyph" xmlns="http://www.w3.org/2000/svg" version="1.1" viewBox="0 0 64 64">
  <path d="M16.00044,44.5c-2.20557,0-4,1.79395-4,4s1.79443,4,4,4,4-1.79395,4-4-1.79443-4-4-4ZM16.00044,49.5c-.55231,0-1-.44775-1-1,0-.55231.44769-1,1-1s1,.44769,1,1c0,.55225-.44769,1-1,1Z" fill="#000" stroke-width="0"/>
  <path d="M48.00044,44.5c-2.21002,0-4,1.78998-4,4s1.78998,4,4,4,4-1.79004,4-4-1.78998-4-4-4ZM48.00044,49.5c-.54999,0-1-.45001-1-1s.45001-1,1-1,1,.45001,1,1-.45001,1-1,1Z" fill="#000" stroke-width="0"/>
  <path d="M56.71046,27.78998l-2.28998-2.28998h-9.42004v6h12v-3c0-.27002-.10999-.52002-.28998-.71002Z" fill="#000" stroke-width="0"/>
  <rect x="53.00044" y="37.5" width="4" height="2" fill="#000" stroke-width="0"/>
  <path d="M39.00044,20.5v11h4v-7c0-.55225.44775-1,1-1h8.42004l-3.71002-3.71002c-.19-.17999-.44-.28998-.71002-.28998h-8c-.54999,0-1,.45001-1,1Z" fill="#000" stroke-width="0"/>
  <path d="M52.00044,35.5h5v-2h-18v5H8.00044c-.54999,0-1,.45001-1,1v6c0,.54999.45001,1,1,1h2.34998c.81-2.33002,3.04004-4,5.65002-4s4.84003,1.66998,5.65002,4h14.34998c.54999,0,1-.45001,1-1v-1h2v1c0,.54999.45001,1,1,1h2.34998c.81-2.33002,3.04004-4,5.65002-4s4.84003,1.66998,5.65002,4h2.34998c.54999,0,1-.45001,1-1v-4h-5c-.54999,0-1-.45001-1-1v-4c0-.54999.45001-1,1-1ZM39.00044,42.5h-2v-2h2v2ZM46.00044,37.5h-2c-.54999,0-1-.45001-1-1s.45001-1,1-1h2c.54999,0,1,.45001,1,1s-.45001,1-1,1Z" fill="#000" stroke-width="0"/>
  <rect x="25.00044" y="24.5" width="2" height="8" fill="#000" stroke-width="0"/>
  <polygon points="18.00044 32.5 18.00044 24.5 14.23335 24.5 16.01118 32.5 18.00044 32.5" fill="#000" stroke-width="0"/>
  <rect x="20.00044" y="24.5" width="3" height="8" fill="#000" stroke-width="0"/>
  <path d="M37.00044,36.5v-19h7c.54999,0,1-.45001,1-1v-4c0-.54999-.45001-1-1-1h-12c-.42999,0-.81.27997-.95001.67999l-2.76996,8.32001H8.00044c-.29999,0-.59003.14001-.78003.37-.18994.23999-.25995.54999-.19995.84998l3.28998,14.78003h26.69ZM12.21046,22.87c.19-.22998.46997-.37.77997-.37h19.01001c.54999,0,1,.45001,1,1v10c0,.54999-.45001,1-1,1H15.21046c-.47003,0-.88-.33002-.98004-.78003l-2.21997-10c-.07001-.29999.01001-.60999.20001-.84998Z" fill="#000" stroke-width="0"/>
  <rect x="29.00044" y="24.5" width="2" height="8" fill="#000" stroke-width="0"/>
</svg>