<?xml version="1.0" encoding="UTF-8"?>
<svg id="Glyph" xmlns="http://www.w3.org/2000/svg" version="1.1" viewBox="0 0 64 64">
  <path d="M25,49c-4.63367,0-8.69751-2.44446-11-6.1037v14.1037h22v-14.1037c-2.30249,3.65924-6.36633,6.1037-11,6.1037Z" fill="#000" stroke-width="0"/>
  <path d="M25,25c-6.07001,0-11,4.92999-11,11s4.92999,11,11,11,11-4.92999,11-11-4.92999-11-11-11ZM29.89001,33.45001l-4.99994,9.99989c-.18909.37819-.68021.6302-1.12005.52007-.45001-.09998-.77002-.51001-.77002-.96997v-6h-2c-.31,0-.59998-.14001-.78998-.38-.19-.25-.25-.56-.17999-.85999l2-8c.10999-.45001.50995-.76001.96997-.76001h4c.29999,0,.58002.13.77002.37.19.22998.26996.52997.20996.83002l-.76001,3.79999h1.78003c.34998,0,.66998.17999.84998.46997.18005.29999.20001.67004.04004.98004Z" fill="#000" stroke-width="0"/>
  <path d="M25.22656,33.63379c-.18994-.23145-.26611-.53613-.20703-.83008l.76074-3.80371h-1.99951l-1.5,6h1.71924c.55225,0,1,.44727,1,1v2.76367l2.38184-4.76367h-1.38184c-.2998,0-.5835-.13477-.77344-.36621Z" fill="#000" stroke-width="0"/>
  <path d="M7,54c0,1.6543,1.3457,3,3,3h2V17h-5v37Z" fill="#000" stroke-width="0"/>
  <path d="M14,29.10345c2.30249-3.65924,6.36633-6.10345,11-6.10345s8.69751,2.44421,11,6.10345v-12.10345H14v12.10345Z" fill="#000" stroke-width="0"/>
  <path d="M43,10c0-1.6543-1.3457-3-3-3H10c-1.6543,0-3,1.3457-3,3v5h36v-5ZM12,12c-.55231,0-1-.44775-1-1,0-.55231.44769-1,1-1s1,.44769,1,1c0,.55225-.44769,1-1,1ZM34,12c-.55231,0-1-.44775-1-1,0-.55231.44769-1,1-1s1,.44769,1,1c0,.55225-.44769,1-1,1ZM38,12c-.55231,0-1-.44775-1-1,0-.55231.44769-1,1-1s1,.44769,1,1c0,.55225-.44769,1-1,1Z" fill="#000" stroke-width="0"/>
  <path d="M56,35h-1v-2c0-.55225-.44727-1-1-1s-1,.44775-1,1v2h-2v-2c0-.55225-.44727-1-1-1s-1,.44775-1,1v2h-1c-.55273,0-1,.44727-1,1v4c0,2.41443,1.7207,4.43427,4,4.89893v2.10107c0,1.6543-1.3457,3-3,3h-5V17h-5v40h2c1.6543,0,3-1.3457,3-3v-2h5c2.75684,0,5-2.24316,5-5v-2.10107c2.2793-.46466,4-2.4845,4-4.89893v-4c0-.55273-.44727-1-1-1Z" fill="#000" stroke-width="0"/>
</svg>