<?xml version="1.0" encoding="UTF-8"?>
<svg xmlns="http://www.w3.org/2000/svg" version="1.1" viewBox="0 0 64 64">
  <!-- Generator: Adobe Illustrator 28.7.1, SVG Export Plug-In . SVG Version: 1.2.0 Build 142)  -->
  <g>
    <g id="Glyph">
      <g>
        <path d="M32,21c3.85999,0,7-3.14001,7-7s-3.14001-7-7-7-7,3.14001-7,7,3.14001,7,7,7ZM29.10999,13.54999l2-4c.23999-.48999.84003-.69,1.34003-.44.48999.23999.69.84003.44,1.34003l-1.27002,2.54999h2.38c.34998,0,.66998.17999.84998.46997.18005.29999.20001.67004.04004.98004,0,0-1.98718,3.97443-1.99994,3.99988-.23438.46875-.87311.68896-1.34009.44012-.48999-.24005-.69-.84003-.44-1.34003l1.27002-2.54999h-2.38c-.34998,0-.66998-.17999-.84998-.47003-.18005-.29999-.20001-.66998-.04004-.97998Z"/>
        <rect x="27" y="39" width="4" height="2"/>
        <path d="M54,39h-4v1c0,1.65997-1.34003,3-3,3h-4c-.54999,0-1-.45001-1-1v-2c0-1.66003,1.34003-3,3-3h9c0-.54999-.21997-1.04999-.59003-1.41003-.35999-.37-.85999-.58997-1.40997-.58997H12c-1.09998,0-2,.89996-2,2h9c1.65997,0,3,1.33997,3,3v2c0,.54999-.45001,1-1,1h-4c-1.65997,0-3-1.34003-3-3v-1h-4v6h44v-6ZM39,42c0,.54999-.45001,1-1,1h-12c-.54999,0-1-.45001-1-1v-4c0-.54999.45001-1,1-1h12c.54999,0,1,.45001,1,1v4Z"/>
        <rect x="33" y="39" width="4" height="2"/>
        <path d="M55,47H9c-1.10455,0-2,.89539-2,2,0,1.09998.90002,2,2,2h46c1.09998,0,2-.90002,2-2,0-1.10461-.89545-2-2-2Z"/>
        <path d="M37.14203,33h7.71594c-.44714-1.72028-1.99927-3-3.85797-3s-3.41083,1.27972-3.85797,3Z"/>
        <path d="M20,41v-1c0-.55127-.44824-1-1-1h-3v1c0,.55127.44824,1,1,1h3Z"/>
        <path d="M41,28c2.96997,0,5.42999,2.16998,5.90997,5h3.93005l-1.63-9.37c-.19-1.5-1.47003-2.63-2.98004-2.63h-8.58997c-1.29999,1.06-2.90002,1.75-4.64001,1.94v2.06h2c.54999,0,1,.45001,1,1s-.45001,1-1,1h-6c-.54999,0-1-.45001-1-1s.45001-1,1-1h2v-2.06c-1.73999-.19-3.34003-.88-4.64001-1.94h-8.58997c-1.51001,0-2.79004,1.13-2.97003,2.57996l-1.64001,9.42004h21.93005c.47998-2.83002,2.94-5,5.90997-5Z"/>
        <path d="M44,54c0,1.6543,1.3457,3,3,3h4c1.6543,0,3-1.3457,3-3v-1h-10v1Z"/>
        <path d="M10,54c0,1.6543,1.3457,3,3,3h4c1.6543,0,3-1.3457,3-3v-1h-10v1Z"/>
        <path d="M44,40v1h3c.55176,0,1-.44873,1-1v-1h-3c-.55176,0-1,.44873-1,1Z"/>
      </g>
    </g>
  </g>
</svg>