<?xml version="1.0" encoding="UTF-8"?>
<svg id="Glyph" xmlns="http://www.w3.org/2000/svg" version="1.1" viewBox="0 0 64 64">
  <circle cx="17" cy="47" r="2" style="fill: #000; stroke-width: 0px;"/>
  <path d="M20.87,46h6.08002c-.28003-2.85004-1.78003-5.35999-3.95001-7l-3.59998,4.79999c.70996.53998,1.23999,1.31,1.46997,2.20001Z" style="fill: #000; stroke-width: 0px;"/>
  <path d="M17,51c-2.21002,0-4-1.79004-4-4s1.78998-4,4-4c.15997,0,.32001.01001.47998.02997l3.80005-5.06c-1.29004-.62-2.75-.96997-4.28003-.96997-5.51001,0-10,4.48999-10,10s4.48999,10,10,10c5.16998,0,9.45001-3.96002,9.95001-9h-6.08002c-.44,1.72998-2.01001,3-3.87,3Z" style="fill: #000; stroke-width: 0px;"/>
  <circle cx="47" cy="47" r="2" style="fill: #000; stroke-width: 0px;"/>
  <path d="M47,37c-1.09003,0-2.15002.17999-3.13.51001l2.75,5.50995c.13-.00995.25-.01996.38-.01996,2.21002,0,4,1.78998,4,4s-1.78998,4-4,4-4-1.79004-4-4c0-1.37.69-2.58002,1.73999-3.29999l-2.70001-5.38c-3.00995,1.72998-5.03998,4.96997-5.03998,8.67999,0,5.51001,4.48999,10,10,10s10-4.48999,10-10-4.48999-10-10-10Z" style="fill: #000; stroke-width: 0px;"/>
  <path d="M41,31.76996v-3.76996h4c.55127,0,1,.44873,1,1s-.44873,1-1,1h-1c-.55225,0-1,.44775-1,1s.44775,1,1,1h1c1.6543,0,3-1.3457,3-3s-1.3457-3-3-3h-7c-.55225,0-1,.44775-1,1s.44775,1,1,1h1v3h-11v-2h1c.55225,0,1-.44775,1-1s-.44775-1-1-1h-4c-.55225,0-1,.44775-1,1s.44775,1,1,1h1v2.66705l-4.71997,6.30292c.60999.28003,1.18994.63,1.71997,1.03003l3.65308-4.87079,3.95691,11.87079h-3.65997c.02997.32996.04999.65997.04999,1,0,.33997-.02002.66998-.04999,1h5.04999c.35229,0,.72888-.23803.8949-.55798l7.07416-13.26398,2.07092,4.14197c.58002-.33002,1.19-.61005,1.83002-.81l-2.87-5.74005ZM38.33331,33l-6.11896,11.47308-3.82434-11.47308h9.9433Z" style="fill: #000; stroke-width: 0px;"/>
  <path d="M32,25c4.9624,0,9-4.0376,9-9s-4.0376-9-9-9-9,4.0376-9,9,4.0376,9,9,9ZM29.2002,15.3999l3-4c.33203-.44043.95752-.53223,1.3999-.19971.44189.33105.53125.95801.19971,1.3999l-1.7998,2.3999h2c.37891,0,.7251.21387.89453.55273s.13281.74414-.09473,1.04736l-3,4c-.31479.41972-.95384.53456-1.39991.19971-.44189-.33105-.53125-.95801-.19971-1.3999l1.7998-2.3999h-2c-.37891,0-.7251-.21387-.89453-.55273s-.13281-.74414.09473-1.04736Z" style="fill: #000; stroke-width: 0px;"/>
</svg>