<?xml version="1.0" encoding="UTF-8"?>
<svg xmlns="http://www.w3.org/2000/svg" version="1.1" viewBox="0 0 64 64">
  <!-- Generator: Adobe Illustrator 28.7.1, SVG Export Plug-In . SVG Version: 1.2.0 Build 142)  -->
  <g>
    <g id="Glyph">
      <g>
        <path d="M47.9248,16.51074c-.09277-.28125-.05469-.58936.10254-.84033l1.66797-2.67041h-2.80957l-1.90527,4.06494,2.51562,1.00635c.46484.18604.7207.68604.59863,1.17139l-.68945,2.75879,3.32031-3.98389-2.22168-.88867c-.27539-.11035-.4873-.33643-.5791-.61816Z"/>
        <path d="M53,7h-10c-2.21002,0-4,1.78998-4,4v6c-2.21002,0-4-1.79004-4-4,0-3.31-2.69-6-6-6-2.98999,0-5.46997,2.20001-5.91998,5.07001-3.42999.44995-6.08002,3.38-6.08002,6.92999v3h-1c-.54999,0-1,.45001-1,1s.45001,1,1,1h4v3c0,.54999.45001,1,1,1s1-.45001,1-1v-3h4v3c0,.54999.45001,1,1,1s1-.45001,1-1v-3h4c.54999,0,1-.45001,1-1s-.45001-1-1-1h-1v-3c0-3.48004-2.56-6.37-5.89001-6.90002.41003-1.77002,2-3.09998,3.89001-3.09998,2.21002,0,4,1.78998,4,4,0,3.31,2.69,6,6,6v8c0,2.20996,1.78998,4,4,4h10c2.21002,0,4-1.79004,4-4V11c0-2.21002-1.78998-4-4-4ZM53.14001,18.23999l-7,8.40002c-.30438.36835-.79901.44629-1.22003.25-.40997-.21002-.63-.68005-.51001-1.13l1.53003-6.16003-2.69-1.07001c-.52466-.20984-.76727-.84265-.53003-1.34998,0-.00006,2.62006-5.60004,2.62006-5.60004.16998-.35999.51996-.57996.90997-.57996h5.25c.35999,0,.70001.20001.88.51996.16998.31.15997.70001-.03003,1.01001l-1.98999,3.19s2.38928.94971,2.39001.95001c.59985.2384.82837,1.04803.39001,1.57001Z"/>
        <path d="M43,49c-2.20544,0-4,1.79449-4,4s1.79456,4,4,4,4-1.79456,4-4-1.79456-4-4-4ZM43,54c-.55231,0-1-.44775-1-1,0-.55231.44769-1,1-1s1,.44769,1,1c0,.55225-.44769,1-1,1Z"/>
        <path d="M21,49c-2.20544,0-4,1.79449-4,4s1.79456,4,4,4,4-1.79456,4-4-1.79456-4-4-4ZM21,54c-.55231,0-1-.44775-1-1,0-.55231.44769-1,1-1s1,.44769,1,1c0,.55225-.44769,1-1,1Z"/>
        <polygon points="30 37 30 41 39.58594 41 35.58594 37 30 37"/>
        <polygon points="18.61816 41 28 41 28 37 20.61816 37 18.61816 41"/>
        <path d="M52,46c0-.54999.45001-1,1-1h3.90002c-.46002-2.28003-2.48004-4-4.90002-4h-4.09998l-9.63-9.17999c-.56-.52002-1.31-.82001-2.07001-.82001h-17.90002c-1.19,0-2.26001.70001-2.73999,1.77997l-3.65002,8.22003h-1.90997c-1.65002,0-3,1.34998-3,3v2h4c.54999,0,1,.45001,1,1s-.45001,1-1,1h-4v2c0,1.64996,1.34998,3,3,3h5c0-3.31,2.69-6,6-6s6,2.69,6,6h10c0-3.31,2.69-6,6-6s6,2.69,6,6h5c1.65002,0,3-1.35004,3-3v-3h-4c-.54999,0-1-.45001-1-1ZM15,47c-.54999,0-1-.45001-1-1s.45001-1,1-1,1,.45001,1,1-.45001,1-1,1ZM33,47h-3c-.54999,0-1-.45001-1-1s.45001-1,1-1h3c.54999,0,1,.45001,1,1s-.45001,1-1,1ZM42.91998,42.38c-.14996.38-.51996.62-.91998.62h-25c-.34998,0-.66998-.17999-.84998-.47003-.18005-.29999-.20001-.66998-.04004-.97998l3-6c.17004-.34003.51001-.54999.89001-.54999h16c.27002,0,.52002.10999.71002.28998l6,6c.27997.28998.37.72003.20996,1.09003ZM49,47c-.54999,0-1-.45001-1-1s.45001-1,1-1,1,.45001,1,1-.45001,1-1,1Z"/>
      </g>
    </g>
  </g>
</svg>