<?xml version="1.0" encoding="utf-8"?>
<!-- Generator: Adobe Illustrator 27.3.1, SVG Export Plug-In . SVG Version: 6.00 Build 0)  -->
<svg version="1.1" id="Glyph" xmlns="http://www.w3.org/2000/svg" xmlns:xlink="http://www.w3.org/1999/xlink" x="0px" y="0px"
	 viewBox="0 0 64 64" enable-background="new 0 0 64 64" xml:space="preserve">
<g>
	<path d="M52.80029,52.19336c-1.07227,0-2.14404-0.27539-3.1001-0.82715c-1.29688-0.74902-2.90625-0.74805-4.2002,0
		c-1.91211,1.10352-4.28711,1.10352-6.2002,0c-1.29492-0.74805-2.90479-0.74902-4.19971,0
		c-1.91211,1.10352-4.28809,1.10352-6.2002,0c-1.29492-0.74805-2.90479-0.74902-4.19971,0c-1.9126,1.10352-4.28857,1.10352-6.2002,0
		c-1.29492-0.74805-2.9043-0.74902-4.2002,0c-1.9126,1.10352-4.28809,1.10352-6.19971,0L7,50.73145V56c0,0.55273,0.44775,1,1,1h48
		c0.55225,0,1-0.44727,1-1v-5.26874l-1.10059,0.63495C54.94385,51.91797,53.87207,52.19336,52.80029,52.19336z"/>
	<path d="M52.80029,46.19336c-1.07227,0-2.14404-0.27539-3.1001-0.82715c-1.29688-0.74902-2.90625-0.74805-4.2002,0
		c-1.91211,1.10254-4.28711,1.10449-6.2002,0c-1.29492-0.74805-2.90479-0.74902-4.19971,0
		c-1.91211,1.10352-4.28809,1.10352-6.2002,0c-1.29492-0.74805-2.90479-0.74902-4.19971,0c-1.9126,1.10449-4.28857,1.10254-6.2002,0
		c-1.29492-0.74805-2.9043-0.74902-4.2002,0c-1.9126,1.10449-4.28809,1.10254-6.19971,0L7,44.73145v3.6911l2.09961,1.21124
		c1.29492,0.74707,2.9043,0.74707,4.2002,0c1.9126-1.10352,4.28857-1.10352,6.2002,0c1.29395,0.74707,2.90332,0.74707,4.2002,0
		c1.9126-1.10352,4.28809-1.10352,6.19971,0c1.29492,0.74805,2.90527,0.74805,4.2002,0c1.9126-1.10352,4.28809-1.10352,6.19971,0
		c1.2959,0.74707,2.90527,0.74707,4.2002,0c1.91162-1.10352,4.28662-1.10352,6.2002,0c1.29443,0.74707,2.9043,0.74707,4.19971,0
		L57,48.42249v-3.69122l-1.10059,0.63495C54.94385,45.91797,53.87207,46.19336,52.80029,46.19336z"/>
	<path d="M56.48486,36.125c-0.31885-0.1748-0.70654-0.16699-1.01465,0.02734l-2.40039,1.5c-1.13574,0.70898-2.604,0.70898-3.73975,0
		c-1.78027-1.11328-4.08008-1.11328-5.86035,0c-1.13574,0.70898-2.60303,0.70898-3.73975,0
		c-1.78027-1.11328-4.08008-1.11328-5.86035,0c-1.13574,0.70898-2.60352,0.70898-3.73926,0
		c-1.78027-1.11328-4.08057-1.11328-5.86084,0c-1.13574,0.70898-2.60352,0.70898-3.73926,0
		c-1.78027-1.11328-4.08057-1.11328-5.85986,0c-1.13574,0.70996-2.60303,0.70996-3.74072,0l-2.3999-1.5
		C8.22168,35.95898,7.83447,35.9502,7.51514,36.125C7.19727,36.30176,7,36.63672,7,37v5.42255l2.09961,1.21124
		c1.29492,0.74707,2.9043,0.74707,4.2002,0c1.9126-1.10352,4.28857-1.10352,6.2002,0c1.29395,0.74707,2.90332,0.74707,4.2002,0
		c1.9126-1.10352,4.28809-1.10352,6.19971,0c1.29492,0.74805,2.90527,0.74805,4.2002,0c1.9126-1.10352,4.28809-1.10352,6.19971,0
		c1.2959,0.74707,2.90527,0.74707,4.2002,0c1.91162-1.10352,4.28662-1.10352,6.2002,0c1.29443,0.74707,2.9043,0.74707,4.19971,0
		L57,42.42249V37C57,36.63672,56.80273,36.30176,56.48486,36.125z"/>
	<path d="M9,17h2v7c0,0.55273,0.44775,1,1,1h4c0.55225,0,1-0.44727,1-1v-7c0,0,1.99109,0,2,0
		c0.77454,0,1.25671-0.87494,0.84814-1.53027l-5-8c-0.36621-0.58398-1.33008-0.58398-1.69629,0c0,0-4.98407,7.97443-4.99994,7.99994
		C7.74084,16.12738,8.22626,17,9,17z"/>
	<path d="M45,17h2v7c0,0.55273,0.44775,1,1,1h4c0.55225,0,1-0.44727,1-1v-7c0,0,1.99005,0,1.99994,0
		c0.7757,0,1.25842-0.87231,0.84821-1.53027l-5-8c-0.36621-0.58398-1.33008-0.58398-1.69629,0c0,0-4.96564,7.94495-4.99982,7.99969
		C43.74451,16.12146,44.23871,17,45,17z"/>
	<path d="M31.19,35.95996c0.23999,0.15002,0.52002,0.22003,0.81,0.22003s0.57001-0.07001,0.81-0.22003
		c0.06104-0.03845,0.12799-0.06494,0.19-0.1015V29c0-0.55273,0.44775-1,1-1h1.1958L32,22.88672L28.8042,28H30
		c0.55225,0,1,0.44727,1,1v6.85846C31.06201,35.89502,31.12897,35.92151,31.19,35.95996z"/>
	<path d="M17.27002,34.82996c0.10999-0.00995,0.21997-0.00995,0.32996-0.00995c1.42004,0,2.80005,0.38995,3.99005,1.13995
		c0.05664,0.0354,0.12164,0.05188,0.18237,0.07849C21.26892,34.76501,21,33.39819,21,32
		c0-6.9873,7.17676-15.59082,10.26221-18.96484c0.18896-0.20703,0.45654-0.3252,0.7373-0.3252H32
		c0.28027,0,0.54785,0.11816,0.7373,0.32422C35.82275,16.40137,43,24.99121,43,32c0,1.39819-0.26892,2.76501-0.7724,4.03845
		c0.06073-0.02661,0.12573-0.04309,0.18237-0.07849c1.19-0.75,2.57001-1.13995,3.99005-1.13995c0.10999,0,0.21997,0,0.32996,0.00995
		C46.90997,33.91998,47,32.96997,47,32C47,20.69,33.27002,7.81,32.67999,7.26996c-0.38-0.35999-0.97998-0.35999-1.35999,0
		C30.72998,7.81,17,20.69,17,32C17,32.96997,17.09003,33.91998,17.27002,34.82996z"/>
	<path d="M40.21613,35.65344C40.72388,34.51447,41,33.27429,41,32c0-5.89746-6.16455-13.5752-8.99902-16.79297
		C29.1665,18.43066,23,26.12207,23,32c0,1.27429,0.27612,2.51447,0.78387,3.65344c1.05237-0.53888,2.21619-0.83344,3.41614-0.83344
		c0.61267,0,1.21423,0.08673,1.79999,0.22949V30c0,0-1.99658,0-2,0c-0.77246,0-1.25842-0.87213-0.84814-1.53027l5-8
		c0.36621-0.58398,1.33008-0.58398,1.69629,0c0,0,4.97577,7.96124,4.99994,7.99982C38.25824,29.12585,37.77008,30,37,30h-2v5.0495
		c0.58575-0.14276,1.18732-0.22949,1.79999-0.22949C37.99994,34.82001,39.16376,35.11456,40.21613,35.65344z"/>
</g>
</svg>
