<?xml version="1.0" encoding="UTF-8"?>
<svg xmlns="http://www.w3.org/2000/svg" version="1.1" viewBox="0 0 48 48">
  <!-- Generator: Adobe Illustrator 28.7.1, SVG Export Plug-In . SVG Version: 1.2.0 Build 142)  -->
  <g>
    <g id="Glyph">
      <g>
        <path d="M42.66492,38.44537L26.81494,6.74078c-.53662-1.07318-1.61523-1.74017-2.81494-1.74017s-2.27832.66699-2.81494,1.74017l-15.84998,31.70459c-.49121.98242-.43994,2.12787.1377,3.06244s1.57861,1.49219,2.67725,1.49219h31.69995c1.09863,0,2.09961-.55762,2.67725-1.49219s.62891-2.08002.1377-3.06244ZM24,39.00006c-4.41107,0-7.99994-3.58881-7.99994-7.99988,0-3.34991,2.07202-6.22113,4.99994-7.41089v-2.58893c0-1.10254.89697-2,2-2v-1c0-1.65424,1.3457-2.99994,3-2.99994.55225,0,1,.44727,1,1s-.44775,1-1,1c-.55127,0-1,.44824-1,.99994v1c1.10303,0,2,.89746,2,2v2.58893c2.92792,1.18976,4.99994,4.06097,4.99994,7.41089,0,4.41107-3.58887,7.99988-7.99994,7.99988Z"/>
        <path d="M24,25.00031c-3.30859,0-5.99994,2.69135-5.99994,5.99988s2.69135,5.99988,5.99994,5.99988,5.99994-2.69135,5.99994-5.99988-2.69135-5.99988-5.99994-5.99988ZM24,35.00012c-2.20557,0-4-1.79395-4-3.99994,0-.55273.44775-1,1-1s1,.44727,1,1c0,1.10254.89697,1.99994,2,1.99994.55225,0,1,.44727,1,1s-.44775,1-1,1Z"/>
        <path d="M25,23.06976v-2.0694h-2v2.0694c.32837-.0412.66064-.06946,1-.06946s.67163.02826,1,.06946Z"/>
        <path d="M6.09583,7.72125c.65576.82031.94434,1.8457.81201,2.88666-.13232,1.04199-.66748,1.96289-1.50781,2.59277-.44189.33105-.53125.95795-.19971,1.39935.33154.44238.95898.53223,1.3999.2002l1.09229-.81934c1.3584-1.01752,3.25684-1.01752,4.61517,0,0,0,1.09192.81909,1.09229.81934.42365.31781,1.0686.24316,1.3999-.2002.33154-.44141.24219-1.0683-.19971-1.39935-.84033-.62988-1.37543-1.55078-1.50781-2.59271-.19183-1.51044.64911-2.94183,1.68848-3.98242.34521-.43158.27539-1.06049-.15576-1.40521-.43164-.34668-1.06006-.27637-1.40576.15527-.7948,1.03107-1.8855,1.71283-3.21918,1.71283-1.33441,0-2.40955-.70166-3.21924-1.71283-.3457-.43164-.97461-.50195-1.40576-.15527-.43115.34473-.50098.97363-.15576,1.40521l.87646,1.0957Z"/>
        <path d="M34.09564,7.72125c.65576.82031.94434,1.8457.81201,2.88666-.13232,1.04199-.66748,1.96289-1.50781,2.59277-.44189.33105-.53125.95795-.19971,1.39935.33105.44238.95801.53223,1.3999.2002l1.09229-.81934c1.35834-1.01752,3.25677-1.01752,4.61517,0,0,0,1.09082.81824,1.09229.81934.422.31659,1.07007.24121,1.3999-.2002.33154-.44141.24219-1.0683-.19971-1.39935-.84033-.62988-1.37549-1.55078-1.50781-2.59277-.13232-1.04095.15625-2.06635.81201-2.88666,0,0,.87451-1.09375.87646-1.0957.34521-.43158.27539-1.06049-.15576-1.40521-.43115-.34668-1.05957-.27637-1.40576.15527-.81799,1.02155-1.86798,1.71283-3.21918,1.71283-1.33643,0-2.40887-.70074-3.21924-1.71283-.34619-.43164-.97559-.50195-1.40576-.15527-.43115.34473-.50098.97363-.15576,1.40521l.87646,1.0957Z"/>
      </g>
    </g>
  </g>
</svg>