<?xml version="1.0" encoding="UTF-8"?>
<svg xmlns="http://www.w3.org/2000/svg" version="1.1" viewBox="0 0 64 64">
  <!-- Generator: Adobe Illustrator 28.7.1, SVG Export Plug-In . SVG Version: 1.2.0 Build 142)  -->
  <g>
    <g id="Glyph">
      <g>
        <path d="M37.08344,46.63147c.5755-4.7323,4.27405-8.63214,8.96881-9.45966,2.52362-.44482,4.914-.0011,6.94775,1.04248v-5.21429c0-2.20917-1.79083-4-4-4h-24.32422l-.99609-2.47754c-.60449-1.53223-2.06152-2.52246-3.70996-2.52246h-8.96973c-2.20917,0-4,1.79083-4,4v25c0,2.20911,1.79083,4,4,4h30.69525c-3.17767-2.23291-5.13153-6.0954-4.61182-10.36853Z"/>
        <path d="M48,39c-4.96228,0-9,4.03766-9,9s4.03772,9,9,9,9-4.03772,9-9-4.03772-9-9-9ZM53.70703,48.70703l-2.99994,2.99994c-.38293.38293-1.03387.38031-1.41412.00006-.39062-.39062-.39062-1.02344,0-1.41406l1.29297-1.29297h-7.58594c-.55273,0-1-.44727-1-1s.44727-1,1-1h7.58594l-1.29297-1.29297c-.39062-.39062-.39062-1.02344,0-1.41406s1.02344-.39062,1.41406,0l3,3c.39062.39062.39062,1.02344,0,1.41406Z"/>
        <path d="M25.53998,25.78998l.49005,1.21002h21.96997V11c0-2.21002-1.78998-4-4-4h-28c-2.21002,0-4,1.78998-4,4v11h7.96997c2.48004,0,4.66003,1.48999,5.57001,3.78998ZM43,23h-15c-.55273,0-1-.44727-1-1s.44727-1,1-1h15c.55273,0,1,.44727,1,1s-.44727,1-1,1ZM17,11h26c.55273,0,1,.44727,1,1s-.44727,1-1,1h-26c-.55273,0-1-.44727-1-1s.44727-1,1-1ZM16,17c0-.55273.44727-1,1-1h26c.55273,0,1,.44727,1,1s-.44727,1-1,1h-26c-.55273,0-1-.44727-1-1Z"/>
      </g>
    </g>
  </g>
</svg>