<?xml version="1.0" encoding="UTF-8"?>
<svg id="Glyph" xmlns="http://www.w3.org/2000/svg" version="1.1" viewBox="0 0 48 48">
  <path d="M12,19c3.85974,0,7-3.14026,7-7s-3.14026-7-7-7-7,3.14026-7,7,3.14026,7,7,7ZM8.79297,10.79297c.39062-.39062,1.02344-.39062,1.41406,0l1.29297,1.29297,2.29297-2.29297c.39062-.39062,1.02344-.39062,1.41406,0s.39062,1.02344,0,1.41406l-3,3c-.19531.19531-.45117.29297-.70703.29297s-.51172-.09766-.70703-.29297l-2-2c-.39062-.39062-.39062-1.02344,0-1.41406Z" fill="#000" stroke-width="0"/>
  <polygon points="30.06879 31 37.93121 31 37.0741 19 30.9259 19 30.06879 31" fill="#000" stroke-width="0"/>
  <rect x="7" y="29" width="18" height="2" fill="#000" stroke-width="0"/>
  <path d="M26,25H6c-.55231,0-1,.44769-1,1,0,.55225.44769,1,1,1h20c.55231,0,1-.44775,1-1,0-.55231-.44769-1-1-1Z" fill="#000" stroke-width="0"/>
  <path d="M31,17h6c1.10455,0,2-.89545,2-2,0-1.10461-.89545-2-2-2h-6c-1.10455,0-2,.89539-2,2,0,1.10455.89545,2,2,2Z" fill="#000" stroke-width="0"/>
  <path d="M18.07001,23h7.85999l-.85999-12h-4.13c.03998.32996.06.65997.06,1,0,2.45996-.98999,4.67999-2.59003,6.31l-.33997,4.69Z" fill="#000" stroke-width="0"/>
  <path d="M41,33h-14v10h3v-7c0-.55231.44769-1,1-1h8c.55231,0,1,.44769,1,1v7h2c.55231,0,1-.44775,1-1v-7c0-1.10461-.89545-2-2-2Z" fill="#000" stroke-width="0"/>
  <rect x="32" y="37" width="6" height="6" fill="#000" stroke-width="0"/>
  <rect x="14" y="37" width="4" height="6" fill="#000" stroke-width="0"/>
  <path d="M25,9c1.09998,0,2-.90002,2-2,0-1.10004-.90002-2-2-2h-6c-.37,0-.71997.09998-1.02002.27997,1.12,1,1.98999,2.28003,2.5,3.72003h4.52002Z" fill="#000" stroke-width="0"/>
  <path d="M7,42c0,.55225.44775,1,1,1h4v-7c0-.55225.44775-1,1-1h6c.55225,0,1,.44775,1,1v7h5v-10H7v9Z" fill="#000" stroke-width="0"/>
</svg>