<?xml version="1.0" encoding="UTF-8"?>
<svg xmlns="http://www.w3.org/2000/svg" version="1.1" viewBox="0 0 64 64">
  <!-- Generator: Adobe Illustrator 28.7.1, SVG Export Plug-In . SVG Version: 1.2.0 Build 142)  -->
  <g>
    <g id="Glyph">
      <g>
        <path d="M25.57227,13.10632c.47842.27631.64251.88744.36638,1.36592-.24876.43104-.90097.63534-1.36638.36651l-2.55182-1.47339c-.44678.95605-.76556,1.97931-.91302,3.05249-.49512,3.59863.72363,7.08008,3.34375,9.55078.90009.84857,1.58423,1.88147,2.01672,3.00391h11.08051c.44586-1.12811,1.15491-2.18481,2.10297-3.10254,2.15918-2.08984,3.34863-4.89453,3.34863-7.89746,0-1.60748-.35925-3.17639-1.02002-4.60742l-2.5521,1.47355c-.43725.25246-1.08988.11262-1.36636-.36613-.27637-.47852-.1123-1.08984.36621-1.36621l2.55151-1.47314c-.47461-.67297-1.02075-1.29974-1.64429-1.85791-1.76532-1.58075-3.99622-2.52985-6.33496-2.7478v2.94507c0,.55273-.44727,1-1,1s-1-.44727-1-1v-2.94482c-.08344.00726-.16656.005-.25.01416-3.15125.34814-5.94354,2.09802-7.72296,4.59491l2.54523,1.46954ZM32,24.97253c-.55231,0-1-.44775-1-1,0-.55231.44769-1,1-1s1,.44769,1,1c0,.55225-.44769,1-1,1ZM36,23.97253c0,.55225-.44769,1-1,1s-1-.44775-1-1c0-.55231.44769-1,1-1s1,.44769,1,1ZM31,15.1568v-1.18427c0-.55273.44727-1,1-1s1,.44727,1,1v1.18427c1.1615.41412,2,1.51379,2,2.81573,0,1.6543-1.3457,3-3,3s-3-1.3457-3-3c0-1.30194.8385-2.40161,2-2.81573ZM29,22.97253c.55231,0,1,.44769,1,1,0,.55225-.44769,1-1,1s-1-.44775-1-1c0-.55231.44769-1,1-1Z"/>
        <rect x="7" y="34.97253" width="4" height="22" rx="1" ry="1"/>
        <rect x="13" y="39.97253" width="6" height="12"/>
        <circle cx="32" cy="17.97253" r="1"/>
        <path d="M31,46.97351c0,.55078.44922.99902,1,.99902.55176,0,1-.44824,1-1-.00781-.30469-.42383-1.17578-1-2.14648-.5752.9707-.99121,1.84082-1,2.14746Z"/>
        <rect x="45" y="39.97253" width="6" height="12"/>
        <path d="M40,34.97253h-16c-1.65002,0-3,1.34998-3,3v16c0,1.64996,1.34998,3,3,3h16c1.65002,0,3-1.35004,3-3v-16c0-1.65002-1.34998-3-3-3ZM32,52.97253c-3.85999,0-7-3.14001-7-7s3.14001-7,7-7,7,3.14001,7,7-3.14001,7-7,7Z"/>
        <rect x="53" y="34.97253" width="4" height="22" rx="1" ry="1"/>
        <path d="M32,40.97253c-2.75684,0-5,2.24316-5,5s2.24316,5,5,5,5-2.24316,5-5-2.24316-5-5-5ZM32,49.97253c-1.6543,0-3-1.3457-3-3,0-1.27832,1.52246-3.62012,2.17676-4.56836.375-.54102,1.27148-.54102,1.64648,0,.6543.94824,2.17676,3.29004,2.17676,4.56836,0,1.6543-1.3457,3-3,3Z"/>
        <path d="M40,31.97253v1h-16v-1c0-.54999.45001-1,1-1h14c.54999,0,1,.45001,1,1Z"/>
      </g>
    </g>
  </g>
</svg>