<?xml version="1.0" encoding="UTF-8"?>
<svg id="Glyph" xmlns="http://www.w3.org/2000/svg" version="1.1" viewBox="0 0 64 64">
  <polygon points="40.00266 36.50346 42.99094 27.30521 35.16672 21.62015 27.3425 27.30521 30.33078 36.50346 40.00266 36.50346" style="fill: #000; stroke-width: 0px;"/>
  <path d="M36.16672,19.87467l8.22351,5.97485,4.14368-.92004,3.60968-9.40326c-2.16498-2.62488-4.92834-4.73602-8.07581-6.13458l-7.90106,5.7406v4.74243Z" style="fill: #000; stroke-width: 0px;"/>
  <path d="M20.87643,26.86356l-7.44763,6.03101c.56299,3.62317,2.01245,6.95703,4.1203,9.77118l9.38623-.98633,1.60846-4.20319-3.14813-9.68951-4.51923-.92316Z" style="fill: #000; stroke-width: 0px;"/>
  <path d="M41.83688,8.54008c-2.10504-.67133-4.34546-1.03662-6.67017-1.03662s-4.56512.3653-6.67017,1.03662l6.67017,4.84619,6.67017-4.84619Z" style="fill: #000; stroke-width: 0px;"/>
  <path d="M44.94144,27.77555l-3.15179,9.70068,1.60846,4.20319,9.38623.98633c2.04645-2.73218,3.46741-5.95575,4.06403-9.45691l-7.82794-6.33899-4.07898.9057Z" style="fill: #000; stroke-width: 0px;"/>
  <path d="M53.55112,17.44035l-3.08215,8.02893,6.65216,5.38641c.02728-.44769.04559-.89777.04559-1.35223,0-4.4519-1.33319-8.59644-3.6156-12.06311Z" style="fill: #000; stroke-width: 0px;"/>
  <path d="M40.04105,38.50346h-9.74866l-1.56042,4.0777,3.90601,8.77252c.83044.09552,1.67316.14978,2.52875.14978s1.6983-.05426,2.52875-.14978l3.90601-8.77252-1.56042-4.0777Z" style="fill: #000; stroke-width: 0px;"/>
  <path d="M40.06607,50.94669c4.35156-.99396,8.21454-3.27917,11.16364-6.43317l-7.92822-.83331-3.23541,7.26648Z" style="fill: #000; stroke-width: 0px;"/>
  <path d="M19.10373,44.51353c2.9491,3.15399,6.81207,5.43921,11.16364,6.43317l-3.23541-7.26648-7.92822.83331Z" style="fill: #000; stroke-width: 0px;"/>
  <path d="M25.93539,25.85526l8.23132-5.98059v-4.74243l-7.90106-5.7406c-3.29639,1.46472-6.16656,3.71539-8.37439,6.51434l3.45978,9.01282,4.58435.93646Z" style="fill: #000; stroke-width: 0px;"/>
  <path d="M19.42014,25.46928l-2.91583-7.5957c-2.11194,3.37677-3.33759,7.36194-3.33759,11.62988,0,.33826.01038.67407.02557,1.00867l6.22784-5.04285Z" style="fill: #000; stroke-width: 0px;"/>
  <circle cx="8.33341" cy="55.17008" r="1" style="fill: #000; stroke-width: 0px;"/>
  <path d="M17.37375,46.29642c-.39062-.39062-1.02344-.39062-1.41406,0l-5.5,5.5c-.39062.39056-.39062,1.02338-.00006,1.414.37091.37097,1.02838.3858,1.41412.00006l5.5-5.5c.39062-.39062.39062-1.02344,0-1.41406Z" style="fill: #000; stroke-width: 0px;"/>
  <path d="M18.88742,50.64408c-.38232-.39941-1.01562-.41016-1.41357-.02783l-4.3335,4.1665c-.39844.38275-.41064,1.01556-.02789,1.41351.35529.36932,1.02673.40015,1.41364.02789l4.3335-4.1665c.39844-.38281.41064-1.01562.02783-1.41357Z" style="fill: #000; stroke-width: 0px;"/>
  <path d="M8.52609,50.22416l4.3335-4.1665c.39844-.38281.41064-1.01562.02783-1.41357-.38184-.39893-1.01514-.40967-1.41357-.02783l-4.3335,4.1665c-.39844.38281-.41064,1.01562-.02777,1.41364.37811.39404,1.02057.40588,1.41351.02777Z" style="fill: #000; stroke-width: 0px;"/>
  <path d="M7.83334,44.49613c.25189.00024.50372-.09015.69275-.27197l4.3335-4.1665c.39844-.38281.41064-1.01562.02783-1.41357-.38184-.39844-1.01514-.41016-1.41357-.02783,0,0-4.32422,4.15753-4.3335,4.1665-.63733.61279-.18719,1.71252.69299,1.71338Z" style="fill: #000; stroke-width: 0px;"/>
  <path d="M23.47385,50.61625l-4.3335,4.1665c-.39844.38281-.41064,1.01562-.02783,1.41357.36664.38116,1.01727.40912,1.41357.02783l4.3335-4.1665c.39844-.38281.41064-1.01562.02783-1.41357-.38281-.39941-1.01514-.41016-1.41357-.02783Z" style="fill: #000; stroke-width: 0px;"/>
</svg>