<?xml version="1.0" encoding="UTF-8"?>
<svg xmlns="http://www.w3.org/2000/svg" version="1.1" viewBox="0 0 64 64">
  <!-- Generator: Adobe Illustrator 28.7.1, SVG Export Plug-In . SVG Version: 1.2.0 Build 142)  -->
  <g>
    <g id="Glyph">
      <g>
        <circle cx="18" cy="51" r="1"/>
        <path d="M18,45c-3.31,0-6,2.69-6,6s2.69,6,6,6,6-2.69,6-6-2.69-6-6-6ZM18,54c-1.65002,0-3-1.35004-3-3s1.34998-3,3-3,3,1.34998,3,3-1.34998,3-3,3Z"/>
        <circle cx="43" cy="51" r="1"/>
        <path d="M43,45c-3.31,0-6,2.69-6,6s2.69,6,6,6,6-2.69,6-6-2.69-6-6-6ZM43,54c-1.65002,0-3-1.35004-3-3s1.34998-3,3-3,3,1.34998,3,3-1.34998,3-3,3Z"/>
        <path d="M21,24v7h2v-7c0-.55127-.44873-1-1-1s-1,.44873-1,1Z"/>
        <path d="M43,43c.34003,0,.66998.01996,1,.06v-4.06h-12.00146c-.29688,0-.57849-.1319-.76855-.35999l-4.69995-5.64001H9c-1.10455,0-2,.89539-2,2v11c0,1.64996,1.34998,3,3,3h.25c.90002-3.45001,4.03003-6,7.75-6s6.84998,2.54999,7.75,6h9.5c.90002-3.45001,4.03003-6,7.75-6ZM13,38c0,.54999-.45001,1-1,1s-1-.45001-1-1v-2c0-.54999.45001-1,1-1s1,.45001,1,1v2ZM17,38c0,.54999-.45001,1-1,1s-1-.45001-1-1v-2c0-.54999.45001-1,1-1s1,.45001,1,1v2ZM21,38c0,.54999-.45001,1-1,1s-1-.45001-1-1v-2c0-.54999.45001-1,1-1s1,.45001,1,1v2Z"/>
        <path d="M38.71997,37h-6.25l-4.69995-5.64001c-.19-.22998-.47003-.35999-.77002-.35999h-2v-7c0-1.65002-1.34998-3-3-3s-3,1.34998-3,3v7h-3V10c0-1.65002,1.34998-3,3-3h7.56c1.28998,0,2.44.82001,2.84003,2.04999l9.31995,27.95001Z"/>
        <path d="M56,35h-8v-14c0-.54999-.45001-1-1-1s-1,.45001-1,1v8h-2v-8c0-.54999-.45001-1-1-1s-1,.45001-1,1v16h2v-2h2v1c0,.54999.45001,1,1,1h9c.54999,0,1-.45001,1-1s-.45001-1-1-1ZM46,33h-2v-2h2v2Z"/>
      </g>
    </g>
  </g>
</svg>