<?xml version="1.0" encoding="UTF-8"?>
<svg id="Glyph" xmlns="http://www.w3.org/2000/svg" version="1.1" viewBox="0 0 64 64">
  <circle cx="18" cy="51" r="1" fill="#000" stroke-width="0"/>
  <path d="M18,45c-3.31,0-6,2.69-6,6s2.69,6,6,6,6-2.69,6-6-2.69-6-6-6ZM18,54c-1.65002,0-3-1.35004-3-3s1.34998-3,3-3,3,1.34998,3,3-1.34998,3-3,3Z" fill="#000" stroke-width="0"/>
  <path d="M31.09998,32.23999l1.40002,1.67999c.58002.69,1.41998,1.08002,2.31,1.08002h4.25l-8.65997-25.95001c-.40002-1.22998-1.55005-2.04999-2.84003-2.04999h-8.56c-1.65002,0-3,1.34998-3,3v19h8.19c2.67999,0,5.20001,1.17999,6.90997,3.23999Z" fill="#000" stroke-width="0"/>
  <path d="M56,30h-11v-13c0-.55273-.44775-1-1-1s-1,.44727-1,1v20h-8.19c-1.48999,0-2.89001-.66003-3.84003-1.79999l-1.39996-1.68005c-1.34003-1.59998-3.29999-2.51996-5.38-2.51996h-14.19c-1.65002,0-3,1.34998-3,3v12c0,1.64996,1.34998,3,3,3h.25c.90002-3.45001,4.03003-6,7.75-6s6.84998,2.54999,7.75,6h13.78998c1.09003-1.23004,2.69-2,4.46002-2,.34003,0,.67999.02997,1,.08997v-15.08997h11c.55225,0,1-.44727,1-1s-.44775-1-1-1ZM25,39c0,.54999-.45001,1-1,1h-12c-.54999,0-1-.45001-1-1v-4c0-.54999.45001-1,1-1h12c.54999,0,1,.45001,1,1v4ZM33,44c0,.54999-.45001,1-1,1s-1-.45001-1-1v-2c0-.54999.45001-1,1-1s1,.45001,1,1v2ZM37,44c0,.54999-.45001,1-1,1s-1-.45001-1-1v-2c0-.54999.45001-1,1-1s1,.45001,1,1v2ZM41,44c0,.54999-.45001,1-1,1s-1-.45001-1-1v-2c0-.54999.45001-1,1-1s1,.45001,1,1v2Z" fill="#000" stroke-width="0"/>
  <path d="M44,49c-2.21002,0-4,1.78998-4,4s1.78998,4,4,4,4-1.79004,4-4-1.78998-4-4-4ZM44,54c-.54999,0-1-.45001-1-1s.45001-1,1-1,1,.45001,1,1-.45001,1-1,1Z" fill="#000" stroke-width="0"/>
  <path d="M55,25c0-.54999-.45001-1-1-1h-6c-.54999,0-1,.45001-1,1v3h8v-3Z" fill="#000" stroke-width="0"/>
  <rect x="13" y="36" width="10" height="2" fill="#000" stroke-width="0"/>
</svg>