<?xml version="1.0" encoding="UTF-8"?>
<svg xmlns="http://www.w3.org/2000/svg" version="1.1" viewBox="0 0 64 64">
  <!-- Generator: Adobe Illustrator 28.7.1, SVG Export Plug-In . SVG Version: 1.2.0 Build 142)  -->
  <g>
    <g id="Glyph">
      <g>
        <path d="M41.19238,37.12021l-1.07617-1.07666c.13525-.28418.25586-.5752.36133-.87305h1.52246c.55225,0,1-.44775,1-1v-1h4v3c0,.55225.44775,1,1,1s1-.44775,1-1v-8c0-.55225-.44775-1-1-1s-1,.44775-1,1v3h-4v-1c0-.55225-.44775-1-1-1h-1.52246c-.10547-.29785-.22607-.58887-.36133-.87305l1.07617-1.07666c.39062-.39062.39062-1.02344,0-1.41406l-2.82861-2.82861c-.39062-.39062-1.02344-.39062-1.41406,0l-1.07666,1.07617c-.28418-.13525-.5752-.25586-.87305-.36133v-1.52246c0-.55225-.44775-1-1-1h-4c-.55225,0-1,.44775-1,1v1.52246c-.29785.10547-.58887.22607-.87305.36133l-1.07666-1.07617c-.39062-.39062-1.02344-.39062-1.41406,0l-2.82861,2.82861c-.39062.39062-.39062,1.02344,0,1.41406l1.07617,1.07666c-.13525.28418-.25586.5752-.36133.87305h-1.52246c-.55225,0-1,.44775-1,1v1h-4v-3c0-.55225-.44775-1-1-1s-1,.44775-1,1v8c0,.55225.44775,1,1,1s1-.44775,1-1v-3h4v1c0,.55225.44775,1,1,1h1.52246c.10547.29785.22607.58887.36133.87305l-1.07617,1.07666c-.39062.39062-.39062,1.02344,0,1.41406l2.82861,2.82861c.39062.39062,1.02344.39062,1.41406,0l1.07666-1.07617c.28418.13525.5752.25586.87305.36133v1.52246c0,.55225.44775,1,1,1h4c.55225,0,1-.44775,1-1v-1.52246c.29785-.10547.58887-.22607.87305-.36133l1.07666,1.07617c.39062.39062,1.02344.39062,1.41406,0l2.82861-2.82861c.39062-.39062.39062-1.02344,0-1.41406ZM32,37.1705c-2.75684,0-5-2.24316-5-5s2.24316-5,5-5,5,2.24316,5,5-2.24316,5-5,5Z"/>
        <circle cx="32" cy="32.1705" r="3"/>
        <path d="M23.99969,10.51126l-7.60565-3.2597c-.25195-.1084-.53613-.1084-.78809,0l-7.60565,3.2597,7.99969,3.42828,7.99969-3.42828Z"/>
        <path d="M7.60596,21.66074l7.39404,3.16901v-9.14307l-8-3.42847v8.48358c0,.3999.23828.76172.60596.91895Z"/>
        <path d="M17,24.82974l7.39404-3.16901c.36768-.15723.60596-.51904.60596-.91895v-8.48358l-8,3.42847v9.14307Z"/>
        <path d="M55.99969,10.51126l-7.60565-3.2597c-.25195-.1084-.53613-.1084-.78809,0l-7.60565,3.2597,7.99969,3.42828,7.99969-3.42828Z"/>
        <path d="M49,15.68668v9.14307l7.39404-3.16901c.36768-.15723.60596-.51904.60596-.91895v-8.48358l-8,3.42847Z"/>
        <path d="M39.60596,21.66074l7.39404,3.16901v-9.14307l-8-3.42847v8.48358c0,.3999.23828.76172.60596.91895Z"/>
        <path d="M16.39404,39.25156c-.25195-.1084-.53613-.1084-.78809,0l-7.60565,3.2597,7.99969,3.42828,7.99969-3.42828-7.60565-3.2597Z"/>
        <path d="M17,56.82974l7.39404-3.16901c.36768-.15723.60596-.51904.60596-.91895v-8.48358l-8,3.42847v9.14307Z"/>
        <path d="M7,52.74179c0,.3999.23828.76172.60596.91895l7.39404,3.16901v-9.14307l-8-3.42847v8.48358Z"/>
        <path d="M48.39404,39.25156c-.25195-.1084-.53613-.1084-.78809,0l-7.60565,3.2597,7.99969,3.42828,7.99969-3.42828-7.60565-3.2597Z"/>
        <path d="M39,52.74179c0,.3999.23828.76172.60596.91895l7.39404,3.16901v-9.14307l-8-3.42847v8.48358Z"/>
        <path d="M49,56.82974l7.39404-3.16901c.36768-.15723.60596-.51904.60596-.91895v-8.48358l-8,3.42847v9.14307Z"/>
      </g>
    </g>
  </g>
</svg>