<?xml version="1.0" encoding="UTF-8"?>
<svg xmlns="http://www.w3.org/2000/svg" version="1.1" viewBox="0 0 48 48">
  <!-- Generator: Adobe Illustrator 28.7.1, SVG Export Plug-In . SVG Version: 1.2.0 Build 142)  -->
  <g>
    <g id="Glyph">
      <g>
        <path d="M40.18182,27.96967c.58344,0,1.00177.26605,1.25037.48987.27612.24866.67334.31104,1.0105.15967.33899-.15045.55731-.48712.55731-.85779v-8.24628c0-1.55402-1.26416-2.81818-2.81818-2.81818h-6.69733c.08026-.30457.12158-.62018.12158-.93939,0-2.07239-1.68567-3.75757-3.75757-3.75757s-3.75763,1.68518-3.75763,3.75757c0,.31921.04132.63483.12158.93939h-6.69733c-1.55402,0-2.81818,1.26416-2.81818,2.81818v6.69775c-.30499-.08069-.62061-.12201-.93939-.12201-2.0719,0-3.75757,1.68524-3.75757,3.75757s1.68567,3.75757,3.75757,3.75757c.31879,0,.6344-.04126.93939-.12201v6.69781c0,1.55402,1.26416,2.81818,2.81818,2.81818h8.24634c.37103,0,.70728-.21832.85815-.5578.15094-.3385.08807-.7348-.16003-1.01001-.31604-.35138-.48987-.79443-.48987-1.25037,0-1.03577.84259-1.87878,1.87878-1.87878,1.03613,0,1.87878.84302,1.87878,1.87878,0,.45593-.17389.89899-.48993,1.25037-.24811.27521-.31097.67151-.16003,1.01001.15088.33948.48712.5578.85822.5578h8.24628c1.55402,0,2.81818-1.26416,2.81818-2.81818v-8.24634c0-.37061-.21832-.70728-.55731-.85773-.33667-.15137-.73346-.08899-1.0105.15961-.2486.22388-.66693.48987-1.25037.48987-1.03619,0-1.87878-.84302-1.87878-1.87878,0-1.03571.84259-1.87878,1.87878-1.87878Z"/>
        <path d="M14.70001,19.51996c0-2.65997,2.15997-4.81995,4.82001-4.81995h3.47998v-6.70001c0-1.65002-1.34998-3-3-3h-12c-1.65002,0-3,1.34998-3,3v3.77997c0,.39001.22998.75.59003.91003.35999.15997.78998.09998,1.07996-.17004.26001-.23999.71002-.51996,1.33002-.51996,1.09998,0,2,.89996,2,2,0,1.09998-.90002,2-2,2-.62,0-1.07001-.28003-1.33002-.52002-.28998-.27002-.71997-.33002-1.07996-.16998-.36005.15997-.59003.51996-.59003.90997v3.78003c0,1.64996,1.34998,3,3,3h6.70001v-3.48004Z"/>
      </g>
    </g>
  </g>
</svg>