<?xml version="1.0" encoding="UTF-8"?>
<svg xmlns="http://www.w3.org/2000/svg" version="1.1" viewBox="0 0 64 64">
  <!-- Generator: Adobe Illustrator 28.7.1, SVG Export Plug-In . SVG Version: 1.2.0 Build 142)  -->
  <g>
    <g id="Glyph">
      <g>
        <path d="M14,48.6001h30v-20H14v20ZM28.35352,31.8374c.37305-.31641.91992-.31641,1.29297,0,.54785.46387,5.35352,4.62793,5.35352,7.7627,0,3.30859-2.69141,6-6,6s-6-2.69141-6-6c0-3.13477,4.80566-7.29883,5.35352-7.7627Z"/>
        <rect x="13" y="13.6001" width="14" height="4"/>
        <path d="M29,43.6001c2.20557,0,4-1.79395,4-4,0-1.48438-2.23975-4.04199-3.99951-5.66406-1.76025,1.62402-4.00049,4.18262-4.00049,5.66406,0,2.20605,1.79443,4,4,4Z"/>
        <path d="M36.17175,14.18585c-.37512-.37506-.88379-.58575-1.41425-.58575h-1.75751c0-2.75684-2.24316-5-5-5H12c-2.76141,0-5,2.23859-5,5v37.7998c0,2.20911,1.79083,4,4,4h36c2.20917,0,4-1.79089,4-4v-21.55731c0-.53046-.21069-1.03918-.58582-1.41425l-14.24243-14.24249ZM11,12.6001c0-.55273.44775-1,1-1h16c.55225,0,1,.44727,1,1v6c0,.55273-.44775,1-1,1H12c-.55225,0-1-.44727-1-1v-6ZM11,23.6001c0-.55273.44775-1,1-1h21c.55225,0,1,.44727,1,1s-.44775,1-1,1H12c-.55225,0-1-.44727-1-1ZM46,49.6001c0,.55273-.44775,1-1,1H13c-.55225,0-1-.44727-1-1v-22c0-.55273.44775-1,1-1h32c.55225,0,1,.44727,1,1v22Z"/>
        <path d="M49.59216,21.60632l-6.25354-6.25354c-.87067-.87073-2.28156-.87323-3.15533-.00562l-.01111.01105,9.41449,9.41449c.87805-.87201.88049-2.29138.00549-3.16638Z"/>
        <path d="M54,10.6001h-3.83008c-.26807,0-.5249.10742-.71289.29883l-3.8681,3.87604,4.23651,4.23651,2.41821-2.41138h1.75635c1.6543,0,3-1.3457,3-3s-1.3457-3-3-3Z"/>
      </g>
    </g>
  </g>
</svg>