<?xml version="1.0" encoding="UTF-8"?>
<svg xmlns="http://www.w3.org/2000/svg" version="1.1" viewBox="0 0 64 64">
  <!-- Generator: Adobe Illustrator 28.7.1, SVG Export Plug-In . SVG Version: 1.2.0 Build 142)  -->
  <g>
    <g id="Glyph">
      <g>
        <path d="M20,37.17038c0-2.21002-1.78998-4-4-4s-4,1.78998-4,4,1.78998,4,4,4,4-1.79004,4-4ZM15,37.17038c0-.54999.45001-1,1-1s1,.45001,1,1-.45001,1-1,1-1-.45001-1-1Z"/>
        <path d="M48,33.17038c-2.21002,0-4,1.78998-4,4s1.78998,4,4,4,4-1.79004,4-4-1.78998-4-4-4ZM48,38.17038c-.54999,0-1-.45001-1-1s.45001-1,1-1,1,.45001,1,1-.45001,1-1,1Z"/>
        <path d="M32.39404,41.25143c-.25195-.10742-.53613-.10742-.78809,0l-6.6059,2.83112,6.99994,2.99994,6.99994-2.99994-6.6059-2.83112Z"/>
        <path d="M33,56.82962l6.39404-2.7403c.36768-.15723.60596-.51855.60596-.91895v-7.34082l-7,3.00006v8Z"/>
        <path d="M24,53.17038c0,.40039.23828.76172.60596.91895l6.39404,2.7403v-8l-7-3.00006v7.34082Z"/>
        <path d="M45.70703,43.46335c-.39062-.39062-1.02344-.39062-1.41406,0l-2,2c-.39062.39062-.39062,1.02344,0,1.41406s1.02344.39062,1.41406,0l.29297-.29297v3.58594c0,.55273.44775,1,1,1s1-.44727,1-1v-3.58594l.29297.29297c.36517.36517,1.02871.38535,1.41406,0,.39062-.39062.39062-1.02344,0-1.41406l-2-2Z"/>
        <path d="M20.29297,47.46335l-.29297.29297v-3.58594c0-.55273-.44775-1-1-1s-1,.44727-1,1v3.58594l-.29297-.29297c-.39062-.39062-1.02344-.39062-1.41406,0s-.39062,1.02344,0,1.41406l2,2c.19531.19531.45117.29297.70703.29297s.51172-.09766.70703-.29297l2-2c.39062-.39062.39062-1.02344,0-1.41406s-1.02344-.39062-1.41406,0Z"/>
        <rect x="53" y="21.17038" width="4" height="2"/>
        <path d="M56.71002,18.46036l-7-7c-.19-.17999-.44-.28998-.71002-.28998h-2v8h10c0-.27002-.10999-.52002-.28998-.71002Z"/>
        <path d="M7,36.17038c0,.54999.45001,1,1,1h2c0-3.31,2.69-6,6-6s6,2.69,6,6h20c0-3.31,2.69-6,6-6s6,2.69,6,6h2c.54999,0,1-.45001,1-1v-7H7v7Z"/>
        <path d="M51,24.17038v-3h-5c-.54999,0-1-.45001-1-1v-9h-2v16h14v-2h-5c-.54999,0-1-.45001-1-1ZM48,25.17038h-2c-.54999,0-1-.45001-1-1s.45001-1,1-1h2c.54999,0,1,.45001,1,1s-.45001,1-1,1Z"/>
        <path d="M41,7.17038H10c-1.65002,0-3,1.34998-3,3v17h34V7.17038ZM14,23.17038c0,.54999-.45001,1-1,1s-1-.45001-1-1v-11h-1c-.54999,0-1-.45001-1-1s.45001-1,1-1h2c.54999,0,1,.45001,1,1v12ZM22,23.17038c0,.54999-.45001,1-1,1s-1-.45001-1-1v-11h-1c-.54999,0-1-.45001-1-1s.45001-1,1-1h2c.54999,0,1,.45001,1,1v12ZM30,23.17038c0,.54999-.45001,1-1,1s-1-.45001-1-1v-11h-1c-.54999,0-1-.45001-1-1s.45001-1,1-1h2c.54999,0,1,.45001,1,1v12ZM38,23.17038c0,.54999-.45001,1-1,1s-1-.45001-1-1v-11h-1c-.54999,0-1-.45001-1-1s.45001-1,1-1h2c.54999,0,1,.45001,1,1v12Z"/>
      </g>
    </g>
  </g>
</svg>