<?xml version="1.0" encoding="UTF-8"?>
<svg xmlns="http://www.w3.org/2000/svg" version="1.1" viewBox="0 0 64 64">
  <!-- Generator: Adobe Illustrator 28.7.1, SVG Export Plug-In . SVG Version: 1.2.0 Build 142)  -->
  <g>
    <g id="Glyph">
      <g>
        <path d="M40,33h-7c-.55176,0-1,.44824-1,1v5h8v-6Z"/>
        <path d="M50,46v-5h-8v6h7c.55176,0,1-.44824,1-1Z"/>
        <path d="M50,34c0-.55176-.44824-1-1-1h-7v6h8v-5Z"/>
        <path d="M33,47h7v-6h-8v5c0,.55176.44824,1,1,1Z"/>
        <path d="M20,37c-2.75684,0-5,2.24316-5,5v9h10v-9c0-2.75684-2.24316-5-5-5ZM18,47c-.55231,0-1-.44775-1-1,0-.55231.44769-1,1-1s1,.44769,1,1c0,.55225-.44769,1-1,1Z"/>
        <path d="M57,55c0,1.09998-.90002,2-2,2H9c-1.09998,0-2-.90002-2-2,0-1.10004.90002-2,2-2h46c1.09998,0,2,.89996,2,2Z"/>
        <path d="M56,23h-8v-2h.15997c1.66003,0,4.64001-.29999,6.59003-2.25,2.77002-2.77002,2.21002-7.60999,2.19-7.82001-.06-.45001-.41998-.81-.87-.87-.21002-.02002-5.04999-.57001-7.82001,2.19-.09003.08997-.16998.19-.25.27997v-2.52997c0-.54999-.45001-1-1-1-.41998,0-.77002.25-.91998.62-.11005-.13-.21002-.25-.33002-.37-2.77002-2.77002-7.60999-2.21002-7.82001-2.19-.45001.06-.81.41998-.87.87-.02002.21002-.58002,5.04999,2.19,7.82001,1.95001,1.95001,4.92999,2.25,6.59003,2.25h.15997v5h-28v-2h.15997c1.66003,0,4.64001-.29999,6.59003-2.25,2.77002-2.77002,2.21002-7.60999,2.19-7.82001-.06-.45001-.41998-.81-.87-.87-.21002-.02002-5.04999-.57001-7.82001,2.19-.09003.08997-.16998.19-.25.27997v-2.52997c0-.54999-.45001-1-1-1-.41998,0-.77002.25-.91998.62-.11005-.13-.21002-.25-.33002-.37-2.77002-2.77002-7.60999-2.21002-7.82001-2.19-.45001.06-.81.41998-.87.87-.02002.21002-.58002,5.04999,2.19,7.82001,1.95001,1.95001,4.92999,2.25,6.59003,2.25h.15997v5h-8c-.54999,0-1,.45001-1,1v2c0,.54999.45001,1,1,1h48c.54999,0,1-.45001,1-1v-2c0-.54999-.45001-1-1-1ZM48,17.07996c.96997-.97998,2.06-1.84998,3.27002-2.53998.47998-.27002,1.08997-.10999,1.37.37.26996.48004.10999,1.09003-.37,1.37-1.71002.97003-3.17004,2.32001-4.27002,3.88v-3.08002ZM18,17.07996c.96997-.97998,2.06-1.84998,3.27002-2.53998.47998-.27002,1.08997-.10999,1.37.37.26996.48004.10999,1.09003-.37,1.37-1.71002.97003-3.17004,2.32001-4.27002,3.88v-3.08002ZM16,17.15997c-1.09998-1.56-2.56-2.90997-4.27002-3.88-.47998-.27997-.63995-.88995-.37-1.37.28003-.47998.89001-.64001,1.37-.37,1.21002.69,2.30005,1.56,3.27002,2.53998v3.08002ZM46,17.15997c-1.09998-1.56-2.56-2.90997-4.27002-3.88-.47998-.27997-.63995-.88995-.37-1.37.28003-.47998.89001-.64001,1.37-.37,1.21002.69,2.30005,1.56,3.27002,2.53998v3.08002Z"/>
        <path d="M9,29v22h4v-9c0-3.85999,3.14001-7,7-7s7,3.14001,7,7v9h28v-22H9ZM52,46c0,1.64996-1.34998,3-3,3h-16c-1.65002,0-3-1.35004-3-3v-12c0-1.65002,1.34998-3,3-3h16c1.65002,0,3,1.34998,3,3v12Z"/>
      </g>
    </g>
  </g>
</svg>