<?xml version="1.0" encoding="utf-8"?>
<!-- Generator: Adobe Illustrator 28.2.0, SVG Export Plug-In . SVG Version: 6.00 Build 0)  -->
<svg version="1.1" id="Glyph" xmlns="http://www.w3.org/2000/svg" xmlns:xlink="http://www.w3.org/1999/xlink" x="0px" y="0px"
	 viewBox="0 0 64 64" enable-background="new 0 0 64 64" xml:space="preserve">
<g>
	<path d="M50.09618,35.46939v0.51001c0,5.26001-2.10999,10.14996-5.94,13.77997c-3.82001,3.63-8.82001,5.47003-14.09003,5.19
		c-9.54999-0.51001-17.42999-8.38-17.93994-17.92999c-0.28003-5.27002,1.56-10.27997,5.18994-14.09998
		c3.63-3.83002,8.52002-5.94,13.78003-5.94c0.54999,0,1-0.45001,1-1s-0.45001-1-1-1c-5.81,0-11.21997,2.32996-15.23999,6.56
		c-4,4.22998-6.04004,9.76001-5.72998,15.58002c0.56,10.56,9.26996,19.26996,19.82996,19.82996
		c0.39001,0.02002,0.77002,0.03003,1.15002,0.03003c5.39996,0,10.47998-2.02002,14.42999-5.77002
		c4.22998-4.01001,6.56-9.41998,6.56-15.22998v-0.51001c0-4.39001-0.47998-8.72998-1.44-12.97998
		c-0.59998,0.26996-1.26001,0.44-1.94,0.47998C49.63616,27.05935,50.09618,31.24936,50.09618,35.46939z"/>
	<path d="M53.59618,19.1694c0.56-1.79999,0.34998-3.77002-0.57001-5.41003c-1.53998-2.73999-3.97998-4.94-6.84998-6.20001
		L45.14617,7.1094c-0.37-0.17004-0.79999-0.09003-1.08997,0.19c-0.29004,0.27997-0.39001,0.70996-0.24005,1.07996l0.83002,2.14001
		c0.48004,1.22998,0.27002,2.64001-0.53998,3.69c-1.40002,1.81-1.51001,4.32001-0.27002,6.26001
		c0.82001,1.28998,2.16003,2.16998,3.66003,2.42999c0.31,0.04999,0.60999,0.08002,0.90997,0.08002c0.09998,0,0.21002,0,0.31-0.01001
		c-0.41998-1.91003-0.95001-3.79999-1.57001-5.66998c-0.16998-0.53003,0.10999-1.09003,0.63-1.27002
		c0.53003-0.16998,1.09003,0.10999,1.27002,0.63c0.64001,1.91998,1.17999,3.85999,1.60999,5.83002
		C52.01617,21.8594,53.1162,20.68936,53.59618,19.1694z"/>
	<path d="M31.09618,18.9794c-4.98792,0-9.46661,2.17236-12.57916,5.6051l1.81354,3.62634
		c0.19727,0.39551,0.62988,0.61182,1.05859,0.53955l4.05273-0.67578c0.48242-0.08008,0.98145-0.04053,1.44336,0.11377
		l4.74121,1.58008c0.25195,0.08398,0.52441,0.06543,0.76367-0.0542l4.2207-2.11035c0.96289-0.479,2.1123-0.4082,3.00586,0.1875
		l1.26465,0.84277c0.24414,0.16309,0.54492,0.21094,0.83008,0.12988l4.14551-1.18463
		C42.92669,22.45083,37.41405,18.9794,31.09618,18.9794z"/>
	<path d="M42.66064,39.26114l-1.25586,3.14014c-0.35645,0.8916-1.12598,1.56299-2.05859,1.79639l-2.04688,0.51172
		c-0.2373,0.05908-0.47949,0.08838-0.7207,0.08838c-0.67578,0-1.34473-0.22803-1.87988-0.65576l-3.31738-2.65381
		c-0.28125-0.22461-0.66602-0.27979-0.99609-0.14746l-3.2373,1.29492c-0.6582,0.26416-1.3916,0.28516-2.0625,0.06104
		l-4.43262-1.47754c-0.27734-0.0918-0.5791-0.05957-0.83203,0.09131l-3.88055,2.32867
		c2.80756,5.53217,8.539,9.34027,15.15594,9.34027c8.92004,0,16.24207-6.90918,16.93182-15.65497l-4.71405,1.34686
		C43.01904,38.75576,42.77392,38.97647,42.66064,39.26114z"/>
	<path d="M46.76916,29.39846l-4.50891,1.28845c-0.84668,0.2417-1.75586,0.10059-2.48828-0.38867l-1.26465-0.84277
		c-0.29785-0.19873-0.68164-0.22217-1.00195-0.0625l-4.2207,2.11035c-0.42285,0.21143-0.87988,0.31787-1.33887,0.31787
		c-0.31934,0-0.63965-0.05127-0.95215-0.15527l-4.74219-1.58057c-0.15527-0.05176-0.31934-0.06396-0.48145-0.03809l-4.05273,0.67578
		c-1.30469,0.21582-2.58203-0.43213-3.17578-1.61816l-1.40277-2.80469c-1.91284,2.74976-3.04254,6.08301-3.04254,9.6792
		c0,2.04205,0.38043,3.99231,1.04346,5.80768l3.65283-2.19196c0.75293-0.45117,1.66211-0.5498,2.49219-0.27344l4.43262,1.47754
		c0.22363,0.07422,0.46777,0.06885,0.68848-0.02051l3.2373-1.29492c1.00098-0.40088,2.14648-0.22998,2.9873,0.44238l3.31738,2.65381
		c0.24121,0.19287,0.56543,0.26562,0.86719,0.18896l2.04688-0.51172c0.31055-0.07764,0.56738-0.30127,0.68555-0.59863
		l1.25586-3.14014c0.3418-0.85498,1.0752-1.51709,1.96191-1.77002l5.2934-1.51239
		C47.9688,33.17642,47.53088,31.2059,46.76916,29.39846z"/>
</g>
</svg>
