<?xml version="1.0" encoding="UTF-8"?>
<svg id="Glyph" xmlns="http://www.w3.org/2000/svg" version="1.1" viewBox="0 0 64 64">
  <rect x="7" y="8" width="50" height="8" rx="3" ry="3" style="fill: #000; stroke-width: 0px;"/>
  <path d="M51,18v1c0,.54999-.45001,1-1,1h-3.40997l-4.59003,4.58997v-4.58997h-2c-.54999,0-1-.45001-1-1v-1h12Z" style="fill: #000; stroke-width: 0px;"/>
  <path d="M25,18v1c0,.54999-.45001,1-1,1h-2v4.58997l-4.59003-4.58997h-3.40997c-.54999,0-1-.45001-1-1v-1h12Z" style="fill: #000; stroke-width: 0px;"/>
  <path d="M48,32.3949v-5.98083l-5.97418,5.97418c-5.18036,1.32837-9.02582,6.02319-9.02582,11.61176,0,6.6167,5.38281,12,12,12s12-5.3833,12-12c0-5.57928-3.83264-10.2677-9-11.6051ZM45,52c-4.41113,0-8-3.58887-8-8s3.58887-8,8-8,8,3.58887,8,8-3.58887,8-8,8Z" style="fill: #000; stroke-width: 0px;"/>
  <circle cx="45" cy="44" r="6" style="fill: #000; stroke-width: 0px;"/>
  <polygon points="42 29.58594 48 23.58594 48 21.41406 42 27.41406 42 29.58594" style="fill: #000; stroke-width: 0px;"/>
  <circle cx="19" cy="44" r="6" style="fill: #000; stroke-width: 0px;"/>
  <path d="M21.97418,32.38824l-5.97418-5.97418v5.98083c-5.16736,1.3374-9,6.02582-9,11.6051,0,6.6167,5.38281,12,12,12s12-5.3833,12-12c0-5.58856-3.84546-10.28339-9.02582-11.61176ZM19,52c-4.41113,0-8-3.58887-8-8s3.58887-8,8-8,8,3.58887,8,8-3.58887,8-8,8Z" style="fill: #000; stroke-width: 0px;"/>
  <polygon points="22 29.58594 22 27.41406 16 21.41406 16 23.58594 22 29.58594" style="fill: #000; stroke-width: 0px;"/>
</svg>