<?xml version="1.0" encoding="utf-8"?>
<!-- Generator: Adobe Illustrator 28.3.0, SVG Export Plug-In . SVG Version: 6.00 Build 0)  -->
<svg version="1.1" id="Glyph" xmlns="http://www.w3.org/2000/svg" xmlns:xlink="http://www.w3.org/1999/xlink" x="0px" y="0px"
	 viewBox="0 0 48 48" enable-background="new 0 0 48 48" xml:space="preserve">
<g>
	<path d="M38.97656,16.49316C38.99219,16.33008,39,16.16504,39,16c0-2.75684-2.24316-5-5-5
		c-0.41406,0-0.82324,0.05078-1.21973,0.15039C31.94238,7.61133,28.75098,5,25,5c-3.68555,0-6.85449,2.52051-7.73926,6.00488
		C17.1748,11.00195,17.08789,11,17,11c-3.85938,0-7,3.14062-7,7c0,0.33691,0.02441,0.6709,0.07227,1H10
		c-1.32324,0-2.57812,0.51758-3.54199,1.46777C5.51758,21.42188,5,22.67676,5,24c0,2.75684,2.24316,5,5,5h26.5
		c1.73828,0,3.37109-0.67578,4.59668-1.90332C42.32422,25.87109,43,24.23828,43,22.5
		C43,19.82617,41.38574,17.47559,38.97656,16.49316z M28,14c-0.55273,0-1-0.44727-1-1c0-1.10254-0.89746-2-2-2s-2,0.89746-2,2
		c0,0.55273-0.44727,1-1,1s-1-0.44727-1-1c0-2.20605,1.79395-4,4-4s4,1.79395,4,4C29,13.55273,28.55273,14,28,14z M34,24
		c-0.55231,0-1-0.44775-1-1c0-0.55231,0.44769-1,1-1s1,0.44769,1,1C35,23.55225,34.55231,24,34,24z M38,24c-0.55231,0-1-0.44775-1-1
		c0-0.55231,0.44769-1,1-1s1,0.44769,1,1C39,23.55225,38.55231,24,38,24z"/>
	<path d="M10.12109,36.46484L9.28534,37.3006C8.89423,37.11346,8.46173,37,8,37c-1.6543,0-3,1.3457-3,3s1.3457,3,3,3s3-1.3457,3-3
		c0-0.46173-0.11346-0.89423-0.3006-1.28534l0.83575-0.83575c0.39062-0.39062,0.39062-1.02344,0-1.41406
		S10.51172,36.07422,10.12109,36.46484z"/>
	<path d="M18.12109,31.46484l-0.83575,0.83575C16.89423,32.11346,16.46173,32,16,32c-1.6543,0-3,1.3457-3,3s1.3457,3,3,3
		s3-1.3457,3-3c0-0.46173-0.11346-0.89423-0.3006-1.28534l0.83575-0.83575c0.39062-0.39062,0.39062-1.02344,0-1.41406
		S18.51172,31.07422,18.12109,31.46484z"/>
	<path d="M25.12109,36.46484l-0.83575,0.83575C23.89423,37.11346,23.46173,37,23,37c-1.6543,0-3,1.3457-3,3s1.3457,3,3,3
		s3-1.3457,3-3c0-0.46173-0.11346-0.89423-0.3006-1.28534l0.83575-0.83575c0.39062-0.39062,0.39062-1.02344,0-1.41406
		S25.51172,36.07422,25.12109,36.46484z"/>
	<path d="M33.12109,31.46484l-0.83575,0.83575C31.89423,32.11346,31.46173,32,31,32c-1.6543,0-3,1.3457-3,3s1.3457,3,3,3
		s3-1.3457,3-3c0-0.46173-0.11346-0.89423-0.3006-1.28534l0.83575-0.83575c0.39062-0.39062,0.39062-1.02344,0-1.41406
		S33.51172,31.07422,33.12109,31.46484z"/>
</g>
</svg>
