<?xml version="1.0" encoding="UTF-8"?>
<svg id="Glyph" xmlns="http://www.w3.org/2000/svg" version="1.1" viewBox="0 0 64 64">
  <path d="M16,22c0-1.66003-1.34003-3-3-3s-3,1.33997-3,3v2h6v-2Z" style="fill: #000; stroke-width: 0px;"/>
  <path d="M13,33c.83002,0,1.58002-.34003,2.12-.88.53998-.54004.88-1.29004.88-2.12v-4h-6v4c0,1.65997,1.34003,3,3,3Z" style="fill: #000; stroke-width: 0px;"/>
  <circle cx="24" cy="12" r="5" style="fill: #000; stroke-width: 0px;"/>
  <path d="M56,45h-3.34967l-7.93011-17.85199c1.12372-.72449,1.66895-2.14203,1.2298-3.46802-.25-.76001-.79004-1.37-1.51001-1.72998-.71002-.36005-1.53003-.42004-2.28998-.16003l-5.60004,1.87-7.67999-6.64001c-1.26001,1.23004-2.97998,1.98004-4.87,1.98004-1.85999,0-3.56-.73004-4.81-1.92999-.75,1.00995-1.19,2.25-1.19,3.57001v15.35999c0,.38.21997.72998.56.89996l10.88,5.28003c.34003.16998.56.52002.56.89996v6.92004c0,.35199.07251.68549.18524,1h-1.18524c-1.6543,0-3,1.3457-3,3,0,.55176-.44873,1-1,1h-7.39648c.34375-.14941.6618-.36017.93646-.63l4.57001-4.58002c.56-.56.89001-1.33002.89001-2.13v-5.89996l-6-2.91003v7.15002c0,.26001-.09998.51996-.29999.70001l-3.41003,3.41998c-1.16998,1.16998-1.16998,3.08002,0,4.25.27466.26984.59283.48059.93768.63h-7.22766c-.55225,0-1,.44727-1,1s.44775,1,1,1h17c1.6543,0,3-1.3457,3-3,0-.55176.44873-1,1-1h10c.26514,0,.51953-.10547.70703-.29297l5.70703-5.70703h10.58594c.55225,0,1-.44727,1-1s-.44775-1-1-1ZM45,45c-.26514,0-.51953.10547-.70703.29297l-5.70703,5.70703h-2.77118c.11273-.31451.18524-.64801.18524-1v-8.84003c0-.92999-.44-1.82001-1.16998-2.38l-6.83002-5.26996v-6.91003l7.23999,3.52002c.23999.10999.51001.13.75.03998l6.86517-2.28271,7.60608,17.12274h-5.46124Z" style="fill: #000; stroke-width: 0px;"/>
</svg>