<?xml version="1.0" encoding="UTF-8"?>
<svg xmlns="http://www.w3.org/2000/svg" version="1.1" viewBox="0 0 64 64">
  <!-- Generator: Adobe Illustrator 28.7.1, SVG Export Plug-In . SVG Version: 1.2.0 Build 142)  -->
  <g>
    <g id="Glyph">
      <g>
        <rect x="35" y="13" width="12" height="6" rx="2" ry="2"/>
        <path d="M23,24c-1.10455,0-2,.89539-2,2v26c0,1.10455.89545,2,2,2s2-.89545,2-2v-26c0-1.10461-.89545-2-2-2Z"/>
        <path d="M47,24c-1.10455,0-2,.89539-2,2v26c0,1.10455.89545,2,2,2s2-.89545,2-2v-26c0-1.10461-.89545-2-2-2Z"/>
        <path d="M35,24c-1.10455,0-2,.89539-2,2v26c0,1.10455.89545,2,2,2s2-.89545,2-2v-26c0-1.10461-.89545-2-2-2Z"/>
        <path d="M39,52c0,1.10455.89545,2,2,2s2-.89545,2-2v-31h-4v31Z"/>
        <rect x="7" y="21" width="6" height="36" rx="1" ry="1"/>
        <rect x="51" y="21" width="6" height="36" rx="1" ry="1"/>
        <path d="M29,24c-1.10455,0-2,.89539-2,2v26c0,1.10455.89545,2,2,2s2-.89545,2-2v-26c0-1.10461-.89545-2-2-2Z"/>
        <path d="M17,24c-1.10455,0-2,.89539-2,2v26c0,1.10455.89545,2,2,2s2-.89545,2-2v-26c0-1.10461-.89545-2-2-2Z"/>
        <path d="M43.97021,7.75781c-.11133-.44531-.51123-.75781-.97021-.75781h-4c-.45898,0-.85889.3125-.97021.75781l-.81055,3.24219h7.56152l-.81055-3.24219Z"/>
      </g>
    </g>
  </g>
</svg>