<?xml version="1.0" encoding="UTF-8"?>
<svg id="Glyph" xmlns="http://www.w3.org/2000/svg" version="1.1" viewBox="0 0 48 48">
  <path d="M40,10H14c-1.65002,0-3,1.34998-3,3v1h23c2.76001,0,5,2.23999,5,5v11h1c1.65002,0,3-1.35004,3-3v-14c0-1.65002-1.34998-3-3-3Z" fill="#000" stroke-width="0"/>
  <path d="M34,16H8c-1.65002,0-3,1.34998-3,3v14c0,1.64996,1.34998,3,3,3h1v-3c0-1.85022,1.02203-3.45062,2.52002-4.31531-.32758-.48065-.52002-1.06036-.52002-1.68469,0-1.6543,1.3457-3,3-3s3,1.3457,3,3c0,.62433-.19244,1.20404-.52002,1.68469,1.49799.86469,2.52002,2.46509,2.52002,4.31531v3h15c1.65002,0,3-1.35004,3-3v-14c0-1.65002-1.34998-3-3-3ZM30,25c0,.55273-.44775,1-1,1h-6c-.55225,0-1-.44727-1-1s.44775-1,1-1h6c.55225,0,1,.44727,1,1ZM15,21c-.55225,0-1-.44727-1-1s.44775-1,1-1h12c.55225,0,1,.44727,1,1s-.44775,1-1,1h-12ZM32,30h-9c-.55225,0-1-.44727-1-1s.44775-1,1-1h9c.55225,0,1,.44727,1,1s-.44775,1-1,1Z" fill="#000" stroke-width="0"/>
  <path d="M14,30c-1.6543,0-3,1.3457-3,3v3h6v-3c0-1.6543-1.3457-3-3-3Z" fill="#000" stroke-width="0"/>
  <circle cx="14" cy="27" r="1" fill="#000" stroke-width="0"/>
</svg>