<?xml version="1.0" encoding="UTF-8"?>
<svg xmlns="http://www.w3.org/2000/svg" version="1.1" viewBox="0 0 64 64">
  <!-- Generator: Adobe Illustrator 28.7.1, SVG Export Plug-In . SVG Version: 1.2.0 Build 142)  -->
  <g>
    <g id="Glyph">
      <g>
        <path d="M51,23v-13c0-1.6543-1.3457-3-3-3H16c-1.6543,0-3,1.3457-3,3v13h38ZM39,11c0-.46387.31934-.86621.77051-.97363.44629-.10352.91699.11133,1.12402.52637l2.10547,4.21094v-3.76367c0-.55273.44727-1,1-1s1,.44727,1,1c0,0,0,7.98772,0,8-.00001,1.01246-1.43791,1.3605-1.89453.44727l-2.10547-4.21094v3.76367c0,.55273-.44727,1-1,1s-1-.44727-1-1v-8ZM31,13c0-1.6543,1.3457-3,3-3s3,1.3457,3,3c0,.55273-.44727,1-1,1s-1-.44727-1-1c0-.55176-.44824-1-1-1s-1,.44824-1,1v4c0,.55176.44824,1,1,1s1-.44824,1-1c-.55273,0-1-.44727-1-1s.44727-1,1-1h1c.55273,0,1,.44727,1,1v1c0,1.6543-1.3457,3-3,3s-3-1.3457-3-3v-4ZM27,11c0-.55273.44727-1,1-1s1,.44727,1,1v8c0,.55273-.44727,1-1,1s-1-.44727-1-1v-8ZM22,16c-1.6543,0-3-1.3457-3-3s1.3457-3,3-3h2c.55273,0,1,.44727,1,1s-.44727,1-1,1h-2c-.55176,0-1,.44824-1,1s.44824,1,1,1c1.6543,0,3,1.3457,3,3s-1.3457,3-3,3h-2c-.55273,0-1-.44727-1-1s.44727-1,1-1h2c.55176,0,1-.44824,1-1s-.44824-1-1-1Z"/>
        <path d="M18.18433,55c.41412,1.1615,1.51373,2,2.81567,2h22c1.30194,0,2.40161-.8385,2.81573-2h-27.63141Z"/>
        <path d="M13,25v25c0,1.64996,1.34998,3,3,3h32c1.65002,0,3-1.35004,3-3v-25H13ZM31,29c0-.54999.45001-1,1-1s1,.45001,1,1v2c0,.54999-.45001,1-1,1s-1-.45001-1-1v-2ZM31,35c0-.54999.45001-1,1-1s1,.45001,1,1v2c0,.54999-.45001,1-1,1s-1-.45001-1-1v-2ZM22,34h5v-5c0-.54999.45001-1,1-1s1,.45001,1,1v6c0,.54999-.45001,1-1,1h-6c-.54999,0-1-.45001-1-1s.45001-1,1-1ZM22,38h2c.54999,0,1,.45001,1,1s-.45001,1-1,1h-2c-.54999,0-1-.45001-1-1s.45001-1,1-1ZM18,50c-.54999,0-1-.45001-1-1s.45001-1,1-1,1,.45001,1,1-.45001,1-1,1ZM18,30c-.54999,0-1-.45001-1-1s.45001-1,1-1,1,.45001,1,1-.45001,1-1,1ZM29,49c0,.54999-.45001,1-1,1s-1-.45001-1-1v-5h-5c-.54999,0-1-.45001-1-1s.45001-1,1-1h6c.54999,0,1,.45001,1,1v6ZM30,40h-2c-.54999,0-1-.45001-1-1s.45001-1,1-1h2c.54999,0,1,.45001,1,1s-.45001,1-1,1ZM33,49c0,.54999-.45001,1-1,1s-1-.45001-1-1v-2c0-.54999.45001-1,1-1s1,.45001,1,1v2ZM33,43c0,.54999-.45001,1-1,1s-1-.45001-1-1v-2c0-.54999.45001-1,1-1s1,.45001,1,1v2ZM33,39c0-.54999.45001-1,1-1h2c.54999,0,1,.45001,1,1s-.45001,1-1,1h-2c-.54999,0-1-.45001-1-1ZM42,44h-5v5c0,.54999-.45001,1-1,1s-1-.45001-1-1v-6c0-.54999.45001-1,1-1h6c.54999,0,1,.45001,1,1s-.45001,1-1,1ZM42,40h-2c-.54999,0-1-.45001-1-1s.45001-1,1-1h2c.54999,0,1,.45001,1,1s-.45001,1-1,1ZM42,36h-6c-.54999,0-1-.45001-1-1v-6c0-.54999.45001-1,1-1s1,.45001,1,1v5h5c.54999,0,1,.45001,1,1s-.45001,1-1,1ZM46,50c-.54999,0-1-.45001-1-1s.45001-1,1-1,1,.45001,1,1-.45001,1-1,1ZM46,30c-.54999,0-1-.45001-1-1s.45001-1,1-1,1,.45001,1,1-.45001,1-1,1Z"/>
      </g>
    </g>
  </g>
</svg>