<?xml version="1.0" encoding="UTF-8"?>
<svg xmlns="http://www.w3.org/2000/svg" version="1.1" viewBox="0 0 64 64">
  <!-- Generator: Adobe Illustrator 28.7.1, SVG Export Plug-In . SVG Version: 1.2.0 Build 142)  -->
  <g>
    <g id="Glyph">
      <g>
        <rect x="10" y="38.99945" width="10" height="18" rx="1" ry="1"/>
        <rect x="22" y="32.99945" width="10" height="24" rx="1" ry="1"/>
        <rect x="34" y="24.99945" width="10" height="32" rx="1" ry="1"/>
        <rect x="47" y="16.99945" width="10" height="40" rx="1" ry="1"/>
        <path d="M27,21.99945c0-5.51367-4.48633-10-10-10s-10,4.48633-10,10,4.48633,10,10,10,10-4.48633,10-10ZM16,26.99945v-1h-1c-.55273,0-1-.44727-1-1s.44727-1,1-1h2.62402c.20703,0,.37598-.16895.37598-.37598,0-.16504-.11035-.31348-.26855-.36035l-2.03809-.61133c-1.0127-.30469-1.69336-1.21875-1.69336-2.27637,0-1.18176.86877-2.15631,2-2.33795v-1.03802c0-.55273.44727-1,1-1s1,.44727,1,1v1h1c.55273,0,1,.44727,1,1s-.44727,1-1,1h-2.62402c-.20703,0-.37598.16895-.37598.37598,0,.16504.11035.31348.26855.36035l2.03809.61133c1.0127.30469,1.69336,1.21875,1.69336,2.27637,0,1.18182-.86877,2.15631-2,2.33801v1.03796c0,.55273-.44727,1-1,1s-1-.44727-1-1Z"/>
        <path d="M45.2002,7.02484l-9.19238,2.12109c-.35449.08203-.63672.34961-.73633.69922-.10059.34961-.00293.72559.25391.98242l1.41406,1.41406-7.07129,7.07129c-.39062.39062-.39062,1.02344,0,1.41406l2.82812,2.8291c.1875.1875.44141.29297.70703.29297s.51953-.10547.70703-.29297l7.07129-7.07129,1.41504,1.41406c.25781.25781.63379.35547.98242.25391.34961-.09961.61719-.38184.69922-.73633l2.12109-9.19238c.07715-.33594-.02344-.6875-.26758-.93164s-.59961-.3418-.93164-.26758Z"/>
      </g>
    </g>
  </g>
</svg>