<?xml version="1.0" encoding="UTF-8"?>
<svg xmlns="http://www.w3.org/2000/svg" version="1.1" viewBox="0 0 48 48">
  <!-- Generator: Adobe Illustrator 28.7.1, SVG Export Plug-In . SVG Version: 1.2.0 Build 142)  -->
  <g>
    <g id="Glyph">
      <g>
        <path d="M5,11c0,1.10455.89545,2,2,2h6v-4h-6c-1.10455,0-2,.89539-2,2Z"/>
        <path d="M41,9h-6v4h6c1.10455,0,2-.89545,2-2,0-1.10461-.89545-2-2-2Z"/>
        <path d="M25,29h5v-6.58594l2.70703-2.70703c.18756-.18762.29297-.44202.29297-.70728v-.99976h-8v11Z"/>
        <path d="M23,29v-11h-8v1c0,.26508.10535.51935.29279.70685l2.70721,2.70721v6.58594h5Z"/>
        <path d="M30,5h-1v8c0,.55273-.44727,1-1,1h-8c-.55273,0-1-.44727-1-1V5h-1c-1.65686,0-3,1.34314-3,3v8h18v-8c0-1.65686-1.34314-3-3-3Z"/>
        <rect x="21" y="5" width="6" height="7"/>
        <path d="M21,39c0,.19727.05859.39062.16797.55469l2,3c.18555.27832.49805.44531.83203.44531s.64648-.16699.83203-.44531l2-3c.10938-.16406.16797-.35742.16797-.55469v-8h-6v8Z"/>
      </g>
    </g>
  </g>
</svg>