<?xml version="1.0" encoding="UTF-8"?>
<svg xmlns="http://www.w3.org/2000/svg" version="1.1" viewBox="0 0 64 64">
  <!-- Generator: Adobe Illustrator 28.7.1, SVG Export Plug-In . SVG Version: 1.2.0 Build 142)  -->
  <g>
    <g id="Glyph">
      <g>
        <path d="M31,49h10v-13c0-.55228-.44772-1-1-1h-8c-.55228,0-1,.44772-1,1v13Z"/>
        <path d="M31,52c0,2.76001,2.23999,5,5,5s5-2.23999,5-5v-1h-10v1Z"/>
        <path d="M50,29c-.54999,0-1,.45001-1,1v3h6v-3c0-.54999-.45001-1-1-1h-1.02533c-.52582-12.2196-10.62793-22-22.97467-22-12.68213,0-23,10.31787-23,23v19c0,4.41113,3.58887,8,8,8s8-3.58887,8-8v-22c0-3.30859,2.69141-6,6-6s6,2.69141,6,6v2h-1c-.54999,0-1,.45001-1,1v3h6v-3c0-.54999-.45001-1-1-1h-1v-2c0-4.41113-3.58887-8-8-8s-8,3.58887-8,8v22c0,3.30859-2.69141,6-6,6s-6-2.69141-6-6v-19c0-11.57959,9.42041-21,21-21,11.24207,0,20.42212,8.88611,20.94934,20h-.94934Z"/>
        <path d="M47,36v13.01001l10-.02002v-12.98999c0-.55228-.44772-1-1-1h-8c-.55228,0-1,.44772-1,1Z"/>
        <path d="M47,52c0,2.76001,2.23999,5,5,5s5-2.23999,5-5v-1.01001l-10,.02002v.98999Z"/>
      </g>
    </g>
  </g>
</svg>