<?xml version="1.0" encoding="utf-8"?>
<!-- Generator: Adobe Illustrator 27.3.1, SVG Export Plug-In . SVG Version: 6.00 Build 0)  -->
<svg version="1.1" id="Glyph" xmlns="http://www.w3.org/2000/svg" xmlns:xlink="http://www.w3.org/1999/xlink" x="0px" y="0px"
	 viewBox="0 0 48 48" enable-background="new 0 0 48 48" xml:space="preserve">
<g>
	<path d="M42,32H30c-0.19727,0-0.39062,0.05859-0.55469,0.16797L26.69727,34h-5.39453l-2.74805-1.83203
		C18.39062,32.05859,18.19727,32,18,32H6c-0.55273,0-1,0.44727-1,1v2c0,2.75684,2.24316,5,5,5h28c2.75684,0,5-2.24316,5-5v-2
		C43,32.44727,42.55273,32,42,32z"/>
	<path d="M13,26h22V12H13V26z M20,14h12c0.55273,0,1,0.44727,1,1s-0.44727,1-1,1H20c-0.55273,0-1-0.44727-1-1S19.44727,14,20,14z
		 M20,18h12c0.55273,0,1,0.44727,1,1s-0.44727,1-1,1H20c-0.55273,0-1-0.44727-1-1S19.44727,18,20,18z M20,22h12
		c0.55273,0,1,0.44727,1,1s-0.44727,1-1,1H20c-0.55273,0-1-0.44727-1-1S19.44727,22,20,22z M15,15c0-0.55273,0.44727-1,1-1
		s1,0.44727,1,1v4c0,0.55273-0.44727,1-1,1s-1-0.44727-1-1V15z M16,22c0.55231,0,1,0.44769,1,1c0,0.55225-0.44769,1-1,1
		s-1-0.44775-1-1C15,22.44769,15.44769,22,16,22z"/>
	<path d="M19.65997,30.5l2.25,1.5h4.18005l2.25-1.5C28.83002,30.16998,29.40997,30,30,30h11V11c0-1.65002-1.34998-3-3-3H10
		c-1.65002,0-3,1.34998-3,3v19h11C18.59003,30,19.16998,30.16998,19.65997,30.5z M11,27V11c0-0.55273,0.44727-1,1-1h24
		c0.55273,0,1,0.44727,1,1v16c0,0.55273-0.44727,1-1,1H12C11.44727,28,11,27.55273,11,27z"/>
</g>
</svg>
