<?xml version="1.0" encoding="UTF-8"?>
<svg xmlns="http://www.w3.org/2000/svg" version="1.1" viewBox="0 0 48 48">
  <!-- Generator: Adobe Illustrator 28.7.1, SVG Export Plug-In . SVG Version: 1.2.0 Build 142)  -->
  <g>
    <g id="Glyph">
      <g>
        <path d="M12,31h6.27826c.34692-.59479.98474-1,1.72174-1h3v-2h-3c-.737,0-1.37482-.40521-1.72174-1h-6.27826c0,.55273-.44775,1-1,1h-6v2h6c.55225,0,1,.44727,1,1Z"/>
        <path d="M36,27h-6.27826c-.34692.59479-.98474,1-1.72174,1h-3v2h3c.737,0,1.37482.40521,1.72174,1h6.27826c0-.55273.44775-1,1-1h6v-2h-6c-.55225,0-1-.44727-1-1Z"/>
        <rect x="12" y="33" width="6" height="2"/>
        <rect x="5" y="32" width="5" height="4"/>
        <rect x="38" y="32" width="5" height="4"/>
        <rect x="5" y="22" width="5" height="4"/>
        <rect x="12" y="23" width="6" height="2"/>
        <path d="M41.56384,16.83307c-3.8985-1.28723-6.56384-4.92694-6.56384-9.08307v-1.75c0-.55231-.44769-1-1-1h-6c-.55231,0-1,.44769-1,1v1.87988c0,.96191-.31396,1.87305-.90967,2.63672-.30457.39178-.6759.71356-1.09033.97363v8.50977h3c.737,0,1.37482.40521,1.72174,1h6.27826c0-.55273.44775-1,1-1h6v-1.25073c0-.88696-.59393-1.63812-1.43616-1.9162ZM28,17c-.55231,0-1-.44775-1-1,0-.55231.44769-1,1-1s1,.44769,1,1c0,.55225-.44769,1-1,1Z"/>
        <rect x="20" y="22" width="8" height="4"/>
        <rect x="20" y="32" width="8" height="4"/>
        <path d="M18.27826,37h-6.27826c0,.55273-.44775,1-1,1h-6v2c0,1.65686,1.34314,3,3,3h11c2.20917,0,4-1.79089,4-4v-1h-3c-.737,0-1.37482-.40521-1.72174-1Z"/>
        <path d="M36,37h-6.27826c-.34692.59479-.98474,1-1.72174,1h-3v1c0,2.20911,1.79083,4,4,4h11c1.65686,0,3-1.34314,3-3v-2h-6c-.55225,0-1-.44727-1-1Z"/>
        <path d="M12,21h6.27826c.34692-.59479.98474-1,1.72174-1h3v-8.51031c-.41455-.26019-.78613-.58209-1.09131-.97504-.59473-.76172-.90869-1.67285-.90869-2.63477v-1.87988c0-.55231-.44769-1-1-1h-6c-.55231,0-1,.44769-1,1v1.75c0,4.15613-2.66534,7.79584-6.56384,9.08307-.84222.27808-1.43616,1.02924-1.43616,1.9162v1.25073h6c.55225,0,1,.44727,1,1ZM20,15c.55231,0,1,.44769,1,1,0,.55225-.44769,1-1,1s-1-.44775-1-1c0-.55231.44769-1,1-1Z"/>
        <rect x="38" y="22" width="5" height="4"/>
        <rect x="30" y="23" width="6" height="2"/>
        <rect x="30" y="33" width="6" height="2"/>
      </g>
    </g>
  </g>
</svg>