<?xml version="1.0" encoding="UTF-8"?>
<svg xmlns="http://www.w3.org/2000/svg" version="1.1" viewBox="0 0 64 64">
  <!-- Generator: Adobe Illustrator 28.7.1, SVG Export Plug-In . SVG Version: 1.2.0 Build 142)  -->
  <g>
    <g id="Glyph">
      <g>
        <path d="M56,22.99961h-4c-.55225,0-1,.44775-1,1s.44775,1,1,1h4c.55225,0,1-.44775,1-1s-.44775-1-1-1Z"/>
        <path d="M49.32185,14.98873c.17151.00411.34429-.03414.49846-.12292l3.46436-2c.47852-.27637.64209-.8877.36621-1.36621-.27734-.479-.88721-.64355-1.36621-.36621l-3.46431,1.99997c-.87593.50568-.47557,1.83197.5015,1.85536Z"/>
        <path d="M53.28467,35.1334l-3.46436-2c-.47998-.27637-1.09033-.11182-1.36621.36621-.27588.47852-.1123,1.08984.36621,1.36621l3.46431,1.99997c.43544.25138,1.09167.10857,1.36626-.36618.27588-.47852.1123-1.08984-.36621-1.36621Z"/>
        <path d="M13,23.99961c0-.55225-.44775-1-1-1h-4c-.55225,0-1,.44775-1,1s.44775,1,1,1h4c.55225,0,1-.44775,1-1Z"/>
        <path d="M10.71533,12.86582s3.46436,2,3.46471,2.0002c.47353.27243,1.09219.10827,1.36586-.36642.27587-.47851.1123-1.08984-.36621-1.36621l-3.46436-2c-.47998-.27734-1.08984-.11279-1.36621.36621-.27588.47852-.1123,1.08984.36621,1.36621Z"/>
        <path d="M14.17969,33.1334l-3.46436,2c-.47852.27637-.64209.8877-.36614,1.36634.27541.47602.88933.64135,1.36614.36609l3.46436-2c.47852-.27637.64209-.8877.36621-1.36621-.27686-.47803-.88721-.64258-1.36621-.36621Z"/>
        <path d="M39,46.99961h-14c-.55231,0-1,.44769-1,1,0,.55225.44769,1,1,1h14c.55231,0,1-.44775,1-1,0-.55231-.44769-1-1-1Z"/>
        <path d="M39,42.99961h-14c-.55231,0-1,.44769-1,1,0,.55225.44769,1,1,1h14c.55231,0,1-.44775,1-1,0-.55231-.44769-1-1-1Z"/>
        <path d="M33,40.99961v-2.73975c0-.73975.28076-1.48193.75098-1.98486l4.94189-5.27539h-3.27881l-1.70703,1.70703c-.2373.23779-.57812.34033-.9082.27246-.3291-.06738-.60254-.2959-.72754-.60791l-1.29395-3.23535-.94531,1.41846c-.18555.27832-.49756.44531-.83203.44531h-3.69287l4.94141,5.2749c.48828.56787.75146,1.27979.75146,1.98535v2.73975h2Z"/>
        <path d="M43.72754,11.69248c-3.39795-3.23877-7.85059-4.8916-12.56445-4.67285-8.4873.40723-15.5708,7.36426-16.12598,15.83789-.44287,6.75879,3.15527,13.13379,9.16553,16.24072.79358.41028,1.36627,1.09857,1.63092,1.90137h3.16644v-2.73975c0-.23193-.08984-.4751-.24072-.65088l-6.48926-6.92578c-.27246-.29102-.34619-.71582-.1875-1.08154.15869-.36523.51904-.60205.91748-.60205h5.46484l1.70312-2.55469c.20605-.30811.56445-.47217.93555-.43994.36963.03857.68701.27832.8252.62305l1.43652,3.59229.92773-.92773c.1875-.1875.44189-.29297.70703-.29297h6c.39844,0,.75879.23682.91748.60205.15869.36572.08496.79053-.1875,1.08154q-6.5293,6.97021-6.5415,6.98193c-.10156.10938-.18848.36377-.18848.59473v2.73975h3.16364c.26056-.80151.82452-1.4848,1.6059-1.88721,5.69336-2.93018,9.23047-8.7207,9.23047-15.11279,0-4.6958-1.87256-9.06641-5.27246-12.30713ZM36.7998,16.5997l-5.9999,7.99987c-.34298.4573-1.04715.51215-1.48321.09631-.4763-.45422-.26876-1.02969-.15772-1.5898.20536-1.03583.4142-2.07099.6213-3.10648h-1.78027c-.31396,0-.60938-.14746-.79834-.39795s-.24951-.5752-.16309-.87695l2-7c.12256-.4292.51514-.7251.96143-.7251h4c.30811,0,.59863.14209.78809.38477s.25684.55908.18213.85791l-.68945,2.75732h1.71924c.37891,0,.7251.21387.89453.55273s.13281.74414-.09473,1.04736Z"/>
        <path d="M32.21191,16.61484c-.18945-.24268-.25684-.55908-.18213-.85791l.68945-2.75732h-1.96484l-1.42871,5h1.67432c.2998,0,.5835.13428.77344.36621.18994.23145.26611.53613.20703.83008l-.13525.67676,2.15479-2.87305h-1c-.30811,0-.59863-.14209-.78809-.38477Z"/>
        <path d="M27,51.99961c0,2.75684,2.24316,5,5,5s5-2.24316,5-5v-1h-10v1Z"/>
      </g>
    </g>
  </g>
</svg>