<?xml version="1.0" encoding="UTF-8"?>
<svg xmlns="http://www.w3.org/2000/svg" version="1.1" viewBox="0 0 64 64">
  <!-- Generator: Adobe Illustrator 28.7.1, SVG Export Plug-In . SVG Version: 1.2.0 Build 142)  -->
  <g>
    <g id="Glyph">
      <g>
        <path d="M57,38c0,.54999-.45001,1-1,1h-1v4.67999c0,3.96997-2.84003,7.32001-6.75,7.97998-5.39001.89001-10.82001,1.34003-16.25,1.34003s-10.85999-.45001-16.25-1.34003c-3.90997-.65997-6.75-4.01001-6.75-7.97998v-4.67999h-1c-.54999,0-1-.45001-1-1s.45001-1,1-1h18c.54999,0,1,.45001,1,1s-.45001,1-1,1h-1v2.67999c0,.54999.45001,1,1,1h12c.54999,0,1-.45001,1-1v-2.67999h-1c-.54999,0-1-.45001-1-1s.45001-1,1-1h18c.54999,0,1,.45001,1,1Z"/>
        <circle cx="32" cy="23" r="6"/>
        <path d="M31.37012,38.77637c.18359.14893.40625.22363.62988.22363s.44629-.07471.62988-.22363c.46484-.37646,11.37012-9.29932,11.37012-15.77637,0-6.6167-5.38281-12-12-12s-12,5.3833-12,12c0,6.47705,10.90527,15.3999,11.37012,15.77637ZM24,23c0-4.41113,3.58887-8,8-8s8,3.58887,8,8-3.58887,8-8,8-8-3.58887-8-8Z"/>
      </g>
    </g>
  </g>
</svg>