<?xml version="1.0" encoding="UTF-8"?>
<svg xmlns="http://www.w3.org/2000/svg" version="1.1" viewBox="0 0 64 64">
  <!-- Generator: Adobe Illustrator 28.7.1, SVG Export Plug-In . SVG Version: 1.2.0 Build 142)  -->
  <g>
    <g id="Glyph">
      <g>
        <path d="M49.07391,22.21783c-4.82281-3.36102-10.81775-5.21783-17.07391-5.21783s-12.2511,1.85681-17.07391,5.21783c1.32538.94122,2.44696,2.14435,3.29913,3.53351,4.21442-1.97052,8.95142-3.02087,13.77478-3.02087s9.56036,1.05035,13.77478,3.02087c.85217-1.38916,1.97375-2.59229,3.29913-3.53351Z"/>
        <path d="M49.07391,41.78217c-1.32538-.94122-2.44696-2.14435-3.29913-3.53351-4.21442,1.97052-8.95142,3.02087-13.77478,3.02087s-9.56036-1.05035-13.77478-3.02087c-.85217,1.38916-1.97375,2.59229-3.29913,3.53351,4.82281,3.36102,10.81775,5.21783,17.07391,5.21783s12.2511-1.85681,17.07391-5.21783Z"/>
        <path d="M44.87,27.53998c-3.94-1.83002-8.35999-2.81-12.87-2.81s-8.92999.97998-12.87,2.81c.56,1.38.87,2.88.87,4.46002s-.31,3.07996-.87,4.45996c3.94,1.83002,8.35999,2.81,12.87,2.81s8.92999-.97998,12.87-2.81c-.56-1.38-.87-2.88-.87-4.45996s.31-3.08002.87-4.46002ZM30.71002,35.28998c.38994.39001.38995,1.03.00003,1.41995-.37597.376-1.01748.38248-1.42007.00003l-2.28998-2.29999v1.59003c0,.54999-.45001,1-1,1s-1-.45001-1-1v-8c0-.54999.45001-1,1-1s1,.45001,1,1v1.58997l2.28998-2.29999c.39001-.39001,1.03003-.39001,1.42004,0,.38995.39001.38995,1.03003,0,1.41998l-3.30005,3.29004,3.30005,3.28998ZM37,35v-2c-.54999,0-1-.45001-1-1s.45001-1,1-1h1c.54999,0,1,.45001,1,1v4c0,.54999-.45001,1-1,1h-4c-.54999,0-1-.45001-1-1v-8c0-.54999.45001-1,1-1h4c.54999,0,1,.45001,1,1s-.45001,1-1,1h-3v6h2Z"/>
        <path d="M18,32c0-5.15308-3.91901-9.40662-8.93298-9.94122-1.32678,3.04889-2.06702,6.40961-2.06702,9.94122s.74023,6.89233,2.06702,9.94122c5.01398-.53461,8.93298-4.78815,8.93298-9.94122Z"/>
        <path d="M50.97455,42.88232c-5.2793,3.93878-11.98206,6.11768-18.97455,6.11768s-13.69525-2.17889-18.97455-6.11768c-.95532.44299-1.97638.76154-3.04681.94031,4.22485,7.83783,12.51044,13.17737,22.02136,13.17737s17.79651-5.33954,22.02136-13.17737c-1.07043-.17877-2.09149-.49731-3.04681-.94031Z"/>
        <path d="M57,32c0-3.53162-.74023-6.89233-2.06702-9.94122-5.01398.53461-8.93298,4.78815-8.93298,9.94122s3.91901,9.40662,8.93298,9.94122c1.32678-3.04889,2.06702-6.40961,2.06702-9.94122Z"/>
        <path d="M13.02545,21.11768c5.2793-3.93878,11.98206-6.11768,18.97455-6.11768s13.69525,2.17889,18.97455,6.11768c.95532-.44299,1.97638-.76154,3.04681-.94031-4.22485-7.83783-12.51044-13.17737-22.02136-13.17737s-17.79651,5.33954-22.02136,13.17737c1.07043.17877,2.09149.49731,3.04681.94031Z"/>
      </g>
    </g>
  </g>
</svg>