<?xml version="1.0" encoding="UTF-8"?>
<svg xmlns="http://www.w3.org/2000/svg" version="1.1" viewBox="0 0 48 48">
  <!-- Generator: Adobe Illustrator 28.7.1, SVG Export Plug-In . SVG Version: 1.2.0 Build 142)  -->
  <g>
    <g id="Glyph">
      <g>
        <path d="M16,21.39001l-3.45001,1.71997c-.33997.16998-.54999.51001-.54999.89001v6c0,1.09998.90002,2,2,2h2.16998c-.10999-.32001-.16998-.66003-.16998-1v-9.60999Z"/>
        <path d="M35.45001,23.10999l-3.45001-1.71997v9.60999c0,.33997-.06.67999-.16998,1h2.16998c1.09998,0,2-.90002,2-2v-6c0-.38-.21002-.72003-.54999-.89001Z"/>
        <rect x="18" y="17" width="12" height="13"/>
        <polygon points="19.38184 34 28.61816 34 29.61816 32 18.38184 32 19.38184 34"/>
        <rect x="18" y="13" width="5" height="2"/>
        <rect x="25" y="13" width="5" height="2"/>
        <path d="M23.12061,42.53418c.25253.25325.50011.46582.87939.46582.37474,0,.63142-.21713.8794-.46582,1.77386-1.77423,2.82782-4.06647,3.05542-6.53418h-7.86963c.22754,2.46796,1.28156,4.76074,3.05542,6.53418Z"/>
        <path d="M24.64648,5.2373c-.37305-.31641-.91992-.31641-1.29297,0-.43646.36957-3.56903,3.08759-4.82739,5.7627h10.94775c-1.25836-2.67511-4.39093-5.39313-4.82739-5.7627Z"/>
      </g>
    </g>
  </g>
</svg>