<?xml version="1.0" encoding="UTF-8"?>
<svg id="Glyph" xmlns="http://www.w3.org/2000/svg" version="1.1" viewBox="0 0 48 48">
  <path d="M18,41.00001c0,1.09998.90002,2,2,2h8c1.09998,0,2-.90002,2-2v-2h-12v2Z" fill="#000" stroke-width="0"/>
  <path d="M12,31.00001v5c0,.55225.44769,1,1,1h3v-8.60999l-3.45001,1.71997c-.33997.15997-.54999.51001-.54999.89001Z" fill="#000" stroke-width="0"/>
  <path d="M35.45001,30.10999l-3.45001-1.71997v8.60999h3c.55231,0,1-.44775,1-1v-5c0-.38-.21002-.73004-.54999-.89001Z" fill="#000" stroke-width="0"/>
  <path d="M14,21.00001v4c0,.54999.45001,1,1,1h1v-6.60999l-1.45001.71997c-.33997.15997-.54999.51001-.54999.89001Z" fill="#000" stroke-width="0"/>
  <path d="M34,25.00001v-4c0-.38-.21002-.73004-.54999-.89001l-1.45001-.71997v6.60999h1c.54999,0,1-.45001,1-1Z" fill="#000" stroke-width="0"/>
  <rect x="18" y="13.00001" width="5" height="2" fill="#000" stroke-width="0"/>
  <rect x="25" y="13.00001" width="5" height="2" fill="#000" stroke-width="0"/>
  <path d="M18,37.00001h12v-20h-12v20ZM23,20.00001c0-.54999.45001-1,1-1s1,.45001,1,1v14c0,.54999-.45001,1-1,1s-1-.45001-1-1v-14Z" fill="#000" stroke-width="0"/>
  <path d="M24.65002,5.24c-.38-.32001-.92004-.32001-1.30005,0-.43011.36639-3.56281,3.08643-4.82257,5.76001h10.94519c-1.25977-2.67358-4.39246-5.39362-4.82257-5.76001Z" fill="#000" stroke-width="0"/>
</svg>