<?xml version="1.0" encoding="UTF-8"?>
<svg xmlns="http://www.w3.org/2000/svg" version="1.1" viewBox="0 0 48 48">
  <!-- Generator: Adobe Illustrator 28.7.1, SVG Export Plug-In . SVG Version: 1.2.0 Build 142)  -->
  <g>
    <g id="Glyph">
      <path d="M37,31c-1.29382,0-2.49005.41577-3.47107,1.11487l-2.50391-2.50391c1.23267-1.54022,1.97498-3.48926,1.97498-5.61096s-.74231-4.07086-1.97498-5.61102l3.68103-3.6814c.6084.35925,1.29706.56488,2.02197.56488,1.06836,0,2.07275-.41602,2.82812-1.17188,1.55957-1.55957,1.55957-4.09766,0-5.65723-1.55957-1.55859-4.09717-1.55859-5.65674,0-1.31348,1.3139-1.50629,3.31671-.60663,4.84937l-3.68182,3.68219c-1.29462-1.03613-2.8783-1.72327-4.61096-1.91589v-2.20056c.68378-.17627,1.31573-.51764,1.82812-1.03033.75537-.75488,1.17188-1.75977,1.17188-2.82812s-.4165-2.07324-1.17188-2.82812c-1.51074-1.51172-4.14551-1.51172-5.65625,0-.75537.75488-1.17188,1.75977-1.17188,2.82812s.4165,2.07324,1.17188,2.82812c.51239.5127,1.14435.85406,1.82812,1.03033v2.20056c-1.73273.19263-3.31641.87982-4.61096,1.91595l-2.50391-2.50391c.6991-.98102,1.11487-2.17725,1.11487-3.47107,0-3.30859-2.69141-6-6-6s-6,2.69141-6,6,2.69141,6,6,6c1.29382,0,2.49005-.41577,3.47107-1.11487l2.50391,2.50391c-1.23267,1.54022-1.97498,3.48926-1.97498,5.61096s.74231,4.07086,1.97498,5.61102l-3.68964,3.69c-1.52234-.85956-3.57416-.6698-4.84149.59839-1.55957,1.55957-1.55957,4.09766,0,5.65723.77979.7793,1.80371,1.16895,2.82812,1.16895s2.04883-.38965,2.82861-1.16895c1.31348-1.3139,1.50629-3.31671.60663-4.84937l3.68182-3.68219c1.29462,1.03613,2.8783,1.72327,4.61096,1.91589v2.23267c-.67828.16608-1.31903.48883-1.82812.99823-.75537.75488-1.17188,1.75977-1.17188,2.82812s.4165,2.07324,1.17188,2.82812c.75537.75586,1.75977,1.17188,2.82812,1.17188s2.07275-.41602,2.82812-1.17188c.75537-.75488,1.17188-1.75977,1.17188-2.82812s-.4165-2.07324-1.17188-2.82812c-.50909-.5094-1.14978-.83215-1.82812-.99823v-2.23267c1.73273-.19263,3.31641-.87982,4.61096-1.91595l2.50391,2.50391c-.6991.98102-1.11487,2.17725-1.11487,3.47107,0,3.30859,2.69141,6,6,6s6-2.69141,6-6-2.69141-6-6-6ZM21,24c0,.55273-.44775,1-1,1s-1-.44727-1-1c0-2.75684,2.24316-5,5-5,.55225,0,1,.44727,1,1s-.44775,1-1,1c-1.6543,0-3,1.3457-3,3ZM24,29c-.55225,0-1-.44727-1-1s.44775-1,1-1c1.6543,0,3-1.3457,3-3,0-.55273.44775-1,1-1s1,.44727,1,1c0,2.75684-2.24316,5-5,5Z"/>
    </g>
  </g>
</svg>