<?xml version="1.0" encoding="UTF-8"?>
<svg xmlns="http://www.w3.org/2000/svg" version="1.1" viewBox="0 0 64 64">
  <!-- Generator: Adobe Illustrator 28.7.1, SVG Export Plug-In . SVG Version: 1.2.0 Build 142)  -->
  <g>
    <g id="Glyph">
      <g>
        <path d="M22,31.99994c0-3.27277,1.58765-6.17456,4.02557-8h-10.15204c-.36279,1.40332-1.46973,2.51074-2.87354,2.87305v10.25391c1.40381.3623,2.51074,1.46973,2.87354,2.87305h10.15204c-2.43793-1.82544-4.02557-4.72723-4.02557-8ZM20,33.99994c0,.55273-.44775,1-1,1s-1-.44727-1-1v-4c0-.55273.44775-1,1-1s1,.44727,1,1v4Z"/>
        <path d="M32,23.99994c-4.41113,0-8,3.58887-8,8s3.58887,8,8,8,8-3.58887,8-8-3.58887-8-8-8ZM31.26807,30.73627l2.03857.61133c1.01318.30469,1.69336,1.21875,1.69336,2.27637,0,1.18176-.86908,2.15625-2,2.33795v1.03802c0,.55273-.44775,1-1,1s-1-.44727-1-1v-1h-1c-.55225,0-1-.44727-1-1s.44775-1,1-1h2.62402c.20752,0,.37598-.16895.37598-.37598,0-.16504-.11035-.31348-.26807-.36035l-2.03857-.61133c-1.01318-.30469-1.69336-1.21875-1.69336-2.27637,0-1.18176.86908-2.15625,2-2.33795v-1.03802c0-.55273.44775-1,1-1s1,.44727,1,1v1h1c.55225,0,1,.44727,1,1s-.44775,1-1,1h-2.62402c-.20752,0-.37598.16895-.37598.37598,0,.16504.11035.31348.26807.36035Z"/>
        <path d="M48.12646,23.99994h-10.15204c2.43793,1.82544,4.02557,4.72723,4.02557,8s-1.58765,6.17456-4.02557,8h10.15204c.36279-1.40332,1.46973-2.51074,2.87354-2.87305v-10.25391c-1.40381-.3623-2.51074-1.46973-2.87354-2.87305ZM46,33.99994c0,.55273-.44775,1-1,1s-1-.44727-1-1v-4c0-.55273.44775-1,1-1s1,.44727,1,1v4Z"/>
        <path d="M11.55273,12.89448l8,4c.30957.1543.67822.13867.97314-.04395.29443-.18262.47412-.50391.47412-.85059v-1h21c.55127,0,1,.44824,1,1v1h6v-1c0-3.85938-3.14014-7-7-7h-21v-1c0-.34668-.17969-.66797-.47412-.85059-.29492-.18262-.66357-.19824-.97314-.04395l-8,4c-.33887.16992-.55273.51562-.55273.89453s.21387.72461.55273.89453Z"/>
        <path d="M55,18.99994H9c-1.10455,0-2,.89539-2,2v22c0,1.10455.89545,2,2,2h46c1.10455,0,2-.89545,2-2v-22c0-1.10461-.89545-2-2-2ZM53,37.99994c0,.55273-.44775,1-1,1-1.10303,0-2,.89746-2,2,0,.55273-.44775,1-1,1H15c-.55225,0-1-.44727-1-1,0-1.10254-.89697-2-2-2-.55225,0-1-.44727-1-1v-12c0-.55273.44775-1,1-1,1.10303,0,2-.89746,2-2,0-.55273.44775-1,1-1h34c.55225,0,1,.44727,1,1,0,1.10254.89697,2,2,2,.55225,0,1,.44727,1,1v12Z"/>
        <path d="M52.44727,51.10541l-8-4c-.31006-.1543-.67871-.13867-.97314.04395s-.47412.50391-.47412.85059v1h-21c-.55127,0-1-.44824-1-1v-1h-6v1c0,3.85938,3.14014,7,7,7h21v1c0,.34668.17969.66797.47412.85059.16064.09961.34326.14941.52588.14941.15283,0,.30615-.03516.44727-.10547l8-4c.33887-.16992.55273-.51562.55273-.89453s-.21387-.72461-.55273-.89453Z"/>
      </g>
    </g>
  </g>
</svg>