<?xml version="1.0" encoding="UTF-8"?>
<svg xmlns="http://www.w3.org/2000/svg" version="1.1" viewBox="0 0 64 64">
  <!-- Generator: Adobe Illustrator 28.7.1, SVG Export Plug-In . SVG Version: 1.2.0 Build 142)  -->
  <g>
    <g id="Glyph">
      <g>
        <path d="M54,18H10c-1.65685,0-3,1.34315-3,3v22c0,1.65685,1.34315,3,3,3h44c1.65685,0,3-1.34315,3-3v-22c0-1.65685-1.34315-3-3-3ZM53,38c0,.55225-.44775,1-1,1-1.10303,0-2,.89697-2,2,0,.55225-.44775,1-1,1H15c-.55225,0-1-.44775-1-1,0-1.10303-.89697-2-2-2-.55225,0-1-.44775-1-1v-12c0-.55225.44775-1,1-1,1.10303,0,2-.89697,2-2,0-.55225.44775-1,1-1h34c.55225,0,1,.44775,1,1,0,1.10303.89697,2,2,2,.55225,0,1,.44775,1,1v12Z"/>
        <path d="M24,32c0,4.41113,3.58887,8,8,8s8-3.58887,8-8-3.58887-8-8-8-8,3.58887-8,8ZM32.73193,33.26318l-2.03857-.61084c-1.01318-.3042-1.69336-1.21924-1.69336-2.27637,0-1.18134.86908-2.15625,2-2.33795v-1.03802c0-.55225.44775-1,1-1s1,.44775,1,1v1h1c.55225,0,1,.44775,1,1s-.44775,1-1,1h-2.62402c-.20752,0-.37598.16846-.37598.37598,0,.16748.10791.3125.26807.36084l2.03857.61084c1.01318.3042,1.69336,1.21924,1.69336,2.27637,0,1.18134-.86908,2.15625-2,2.33795v1.03802c0,.55225-.44775,1-1,1s-1-.44775-1-1v-1h-1c-.55225,0-1-.44775-1-1s.44775-1,1-1h2.62402c.20752,0,.37598-.16846.37598-.37598,0-.16748-.10791-.3125-.26807-.36084Z"/>
        <path d="M22,32c0-3.27295,1.58752-6.17462,4.02533-8h-10.15179c-.36279,1.40381-1.46973,2.51074-2.87354,2.87354v10.25293c1.40381.36279,2.51074,1.46973,2.87354,2.87354h10.15179c-2.43781-1.82538-4.02533-4.72705-4.02533-8ZM20,34c0,.55225-.44775,1-1,1s-1-.44775-1-1v-4c0-.55225.44775-1,1-1s1,.44775,1,1v4Z"/>
        <path d="M48.12646,24h-10.15179c2.43781,1.82538,4.02533,4.72705,4.02533,8s-1.58752,6.17462-4.02533,8h10.15179c.36279-1.40381,1.46973-2.51074,2.87354-2.87354v-10.25293c-1.40381-.36279-2.51074-1.46973-2.87354-2.87354ZM46,34c0,.55225-.44775,1-1,1s-1-.44775-1-1v-4c0-.55225.44775-1,1-1s1,.44775,1,1v4Z"/>
      </g>
    </g>
  </g>
</svg>