<?xml version="1.0" encoding="UTF-8"?>
<svg xmlns="http://www.w3.org/2000/svg" version="1.1" viewBox="0 0 64 64">
  <!-- Generator: Adobe Illustrator 28.7.1, SVG Export Plug-In . SVG Version: 1.2.0 Build 142)  -->
  <g>
    <g id="Glyph">
      <g>
        <path d="M36.88995,40.4809c.22064-.76227.41638-1.5769.57776-2.4455-.47589.30432-.96472.60278-1.46771.89331-.50073.28912-1.00446.56305-1.50922.82471.8147.28931,1.61713.53296,2.39917.72748Z"/>
        <path d="M27.11005,23.5191c-.22064.76227-.41632,1.57684-.5777,2.44543.47589-.30432.96466-.60278,1.46765-.89325.50073-.28912,1.00446-.56305,1.50922-.82471-.8147-.28931-1.61713-.53296-2.39917-.72748Z"/>
        <path d="M22.21631,32c.5484.57043,1.15387,1.14526,1.82318,1.71747-.02551-.56421-.03949-1.13666-.03949-1.71747s.01398-1.15326.03949-1.71747c-.66931.5722-1.27478,1.14703-1.82318,1.71747Z"/>
        <path d="M36.23859,21.62646c-1.16504-2.9068-2.74457-4.62646-4.23859-4.62646s-3.07355,1.71967-4.23859,4.62646c1.37531.35272,2.79944.84033,4.23859,1.45117,1.43915-.61084,2.86328-1.09845,4.23859-1.45117Z"/>
        <path d="M41.78351,32.00018c-.54834-.57037-1.15375-1.14514-1.823-1.71735.02551.56415.03949,1.13647.03949,1.71716,0,.58081-.01398,1.15326-.03949,1.71753.66925-.57214,1.27466-1.14703,1.823-1.71735Z"/>
        <path d="M34.49078,24.24658c.50476.26166,1.00848.53558,1.50922.82471.50299.29053.99182.58899,1.46771.89331-.16138-.86859-.35712-1.68323-.57776-2.4455-.78204.19452-1.58447.43817-2.39917.72748Z"/>
        <path d="M32,25.26135c-.99988.45599-2.00433.96747-3,1.54236-1.0174.5874-1.96063,1.20044-2.83722,1.82611-.10352,1.07196-.16278,2.19537-.16278,3.37018s.05927,2.29822.16278,3.37018c.87659.62567,1.81982,1.23871,2.83722,1.82611.99567.57489,2.00012,1.08636,3,1.54236.99988-.45599,2.00433-.96747,3-1.54236,1.0174-.5874,1.96063-1.20044,2.83722-1.82611.10352-1.07196.16278-2.19537.16278-3.37018,0-1.17474-.05927-2.29803-.16278-3.36993-.87665-.62573-1.81982-1.23883-2.83722-1.82635-.99567-.57489-2.00012-1.08636-3-1.54236Z"/>
        <path d="M26.53235,38.03546c.16138.86859.35706,1.68317.5777,2.44543.78204-.19452,1.58447-.43817,2.39917-.72748-.50476-.26166-1.00848-.53558-1.50922-.82471-.50299-.29047-.99176-.58893-1.46765-.89325Z"/>
        <path d="M39.43359,23.05078c-.19019.02118-.38843.05737-.58258.08569.38239,1.35187.67737,2.82849.87201,4.40485,1.26514.9549,2.39441,1.94678,3.37244,2.95178,1.94037-2.46619,2.6427-4.69794,1.89478-5.9931-.71289-1.23633-2.73535-1.76367-5.55664-1.44922Z"/>
        <path d="M39.72302,36.45868c-.19464,1.57635-.48962,3.05298-.87201,4.40485.19415.02832.3924.06451.58258.08569,2.82422.31543,4.84375-.21289,5.55664-1.44922.74792-1.2951.04547-3.52679-1.89496-5.99292-.97803,1.00494-2.10724,1.99677-3.37225,2.9516Z"/>
        <path d="M24.27698,27.54132c.19464-1.57635.48962-3.05298.87201-4.40485-.19415-.02832-.3924-.06451-.58267-.0857-1.71406-.19114-4.54111-.31065-5.55655,1.44923-.74792,1.29517-.04559,3.52692,1.89478,5.9931.97803-1.005,2.1073-1.99689,3.37244-2.95178Z"/>
        <path d="M20.90454,33.5069c-1.94037,2.46619-2.6427,4.69794-1.89478,5.9931.71289,1.23535,2.73242,1.7627,5.55664,1.44922.19019-.02118.38843-.05737.58258-.08569-.38239-1.35187-.67737-2.82849-.87201-4.40485-1.26514-.9549-2.39441-1.94678-3.37244-2.95178Z"/>
        <path d="M27.76141,42.37354c1.16504,2.9068,2.74457,4.62646,4.23859,4.62646s3.07355-1.71967,4.23859-4.62646c-1.37531-.35272-2.79944-.84033-4.23859-1.45117-1.43915.61084-2.86328,1.09845-4.23859,1.45117Z"/>
        <path d="M32,7c-13.78998,0-25,11.20996-25,25s11.21002,25,25,25,25-11.21002,25-25S45.78998,7,32,7ZM32,53c-11.58002,0-21-9.42004-21-21,0-.54999.45001-1,1-1s1,.45001,1,1c0,10.47998,8.52002,19,19,19,.54999,0,1,.45001,1,1s-.45001,1-1,1ZM46.71997,40.5c-1.44951,2.51095-4.93959,2.7616-7.50995,2.44-.32001-.04004-.65002-.09003-.99005-.15002-1.44995,3.81-3.67999,6.21002-6.21997,6.21002s-4.77002-2.40002-6.21997-6.21002c-.34003.06-.67004.10999-.99011.15003-2.57256.32186-6.05759.07575-7.50989-2.44001-1.27002-2.20001-.31006-5.33002,2.26996-8.5-2.58002-3.17004-3.53998-6.29999-2.26996-8.5,1.13995-1.98004,3.81-2.85004,7.50995-2.44.32001.03998.65002.08997.99005.14996,1.44995-3.81,3.67999-6.20996,6.21997-6.20996s4.77002,2.39996,6.21997,6.20996c.34003-.06.67004-.10999.99005-.14996,3.69995-.41003,6.37.45996,7.50995,2.44,1.27002,2.20001.31006,5.32996-2.26996,8.5,2.58,3.16996,3.53996,6.29994,2.26996,8.5ZM52,33c-.54999,0-1-.45001-1-1,0-10.48004-8.52002-19-19-19-.54999,0-1-.45001-1-1s.45001-1,1-1c11.58002,0,21,9.41998,21,21,0,.54999-.45001,1-1,1Z"/>
      </g>
    </g>
  </g>
</svg>