<?xml version="1.0" encoding="utf-8"?>
<!-- Generator: Adobe Illustrator 28.2.0, SVG Export Plug-In . SVG Version: 6.00 Build 0)  -->
<svg version="1.1" id="Glyph" xmlns="http://www.w3.org/2000/svg" xmlns:xlink="http://www.w3.org/1999/xlink" x="0px" y="0px"
	 viewBox="0 0 64 64" enable-background="new 0 0 64 64" xml:space="preserve">
<g>
	<path d="M48,46.65674c-1.4624,0-2.85303-0.46875-4-1.33496c-1.14697,0.86621-2.5376,1.33496-4,1.33496
		c-1.46289,0-2.85352-0.46875-4.00049-1.33496c-2.35938,1.77539-5.63965,1.77539-7.99902,0
		c-1.14697,0.86621-2.5376,1.33496-4.00049,1.33496c-1.4624,0-2.85303-0.46875-4-1.33496c-1.14697,0.86621-2.5376,1.33496-4,1.33496
		c-1.50439,0-2.93213-0.49609-4.09766-1.41016l-4.86523,3.09668C7.02533,48.35077,7.01202,48.35297,7,48.35992v3.02216
		l4.55273-2.27637c0.38623-0.19434,0.85059-0.11621,1.1543,0.1875c1.81543,1.81641,4.77051,1.81641,6.58594,0
		c0.39062-0.39062,1.02344-0.39062,1.41406,0c1.81543,1.81641,4.77051,1.81641,6.58594,0c0.39062-0.39062,1.02344-0.39062,1.41406,0
		c1.81543,1.81641,4.77051,1.81641,6.58594,0c0.39062-0.39062,1.02344-0.39062,1.41406,0c1.81543,1.81641,4.77051,1.81641,6.58594,0
		c0.39062-0.39062,1.02344-0.39062,1.41406,0c1.81543,1.81641,4.77051,1.81641,6.58594,0
		c0.3042-0.30371,0.76904-0.38086,1.1543-0.1875L57,51.38208v-3.7644l-4.83984-2.41992
		C50.9834,46.14307,49.53125,46.65674,48,46.65674z"/>
	<path d="M56.44727,41.10571l-4-2c-0.38623-0.19434-0.8501-0.11719-1.1543,0.1875C50.41064,40.17505,49.24121,40.6604,48,40.6604
		s-2.41064-0.48535-3.29297-1.36719c-0.39062-0.39062-1.02344-0.39062-1.41406,0C42.41064,40.17505,41.24121,40.6604,40,40.6604
		s-2.41064-0.48535-3.29297-1.36719c-0.39062-0.39062-1.02344-0.39062-1.41406,0C34.41064,40.17505,33.24121,40.6604,32,40.6604
		s-2.41064-0.48535-3.29297-1.36719c-0.39062-0.39062-1.02344-0.39062-1.41406,0C26.41064,40.17505,25.24121,40.6604,24,40.6604
		s-2.41064-0.48535-3.29297-1.36719c-0.39062-0.39062-1.02344-0.39062-1.41406,0C18.41064,40.17505,17.24121,40.6604,16,40.6604
		s-2.41064-0.48535-3.29297-1.36719c-0.30371-0.30371-0.76807-0.38184-1.1543-0.1875l-4,2C7.21387,41.27563,7,41.62134,7,42.00024
		v3.99554l4.46289-2.84003c0.39648-0.25,0.9126-0.19531,1.24414,0.13672c1.81543,1.81641,4.77051,1.81641,6.58594,0
		c0.39062-0.39062,1.02344-0.39062,1.41406,0c1.81543,1.81641,4.77051,1.81641,6.58594,0c0.39062-0.39062,1.02344-0.39062,1.41406,0
		c1.81543,1.81641,4.77051,1.81641,6.58594,0c0.39062-0.39062,1.02344-0.39062,1.41406,0c1.81543,1.81641,4.77051,1.81641,6.58594,0
		c0.375-0.375,1.03906-0.375,1.41406,0c0.87939,0.87988,2.04883,1.36426,3.29297,1.36426s2.41357-0.48438,3.29297-1.36426
		c0.3042-0.30371,0.76904-0.38086,1.1543-0.1875L57,45.38135v-3.3811C57,41.62134,56.78613,41.27563,56.44727,41.10571z"/>
	<path d="M48,52.65747c-1.4624,0-2.85303-0.46875-4-1.33496c-1.14697,0.86621-2.5376,1.33496-4,1.33496
		c-1.46289,0-2.85352-0.46875-4.00049-1.33496c-2.35938,1.77539-5.63965,1.77539-7.99902,0
		c-1.14697,0.86621-2.5376,1.33496-4.00049,1.33496c-1.4624,0-2.85303-0.46875-4-1.33496c-1.14697,0.86621-2.5376,1.33496-4,1.33496
		c-1.53125,0-2.9834-0.51367-4.16016-1.45898L7,53.61841v2.38184c0,0.55273,0.44775,1,1,1h48c0.55225,0,1-0.44727,1-1v-2.38184
		l-4.83984-2.41992C50.9834,52.1438,49.53125,52.65747,48,52.65747z"/>
	<path d="M32,31.00024c3.30859,0,6-2.69141,6-6s-2.69141-6-6-6s-6,2.69141-6,6S28.69141,31.00024,32,31.00024z M29.16797,24.44556
		l2-3c0.30664-0.45996,0.92676-0.58301,1.38672-0.27734c0.45947,0.30664,0.5835,0.92676,0.27734,1.38672l-0.96338,1.44531H34
		c0.36865,0,0.70752,0.20312,0.88184,0.52832c0.17383,0.3252,0.15479,0.71973-0.0498,1.02637c0,0-1.99194,2.98792-1.99998,2.99996
		c-0.7137,1.07054-2.38142-0.03162-1.66409-1.10934l0.96338-1.44531H30c-0.36865,0-0.70752-0.20312-0.88184-0.52832
		C28.94434,25.14673,28.96338,24.7522,29.16797,24.44556z"/>
	<path d="M32,37.00024c6.6167,0,12-5.38281,12-12c0-6.4082-10.83398-17.25098-11.29492-17.70898
		c-0.39062-0.38867-1.01953-0.38867-1.41016,0C30.83398,7.74927,20,18.59204,20,25.00024C20,31.61743,25.3833,37.00024,32,37.00024z
		 M32,17.00024c4.41113,0,8,3.58887,8,8s-3.58887,8-8,8s-8-3.58887-8-8S27.58887,17.00024,32,17.00024z"/>
	<path d="M13.70703,25.70728L14,25.41431v5.58594c0,0.55273,0.44775,1,1,1s1-0.44727,1-1v-5.58594
		c0,0,0.29177,0.29177,0.29296,0.29296c0.35692,0.35692,1.02893,0.38513,1.41407,0c0.39062-0.39062,0.39062-1.02344,0-1.41406l-2-2
		c-0.39062-0.39062-1.02344-0.39062-1.41406,0l-2,2c-0.39062,0.39062-0.39062,1.02344,0,1.41406S13.31641,26.0979,13.70703,25.70728
		z"/>
	<path d="M48.29297,31.70728c0.19531,0.19531,0.45117,0.29297,0.70703,0.29297s0.51172-0.09766,0.70703-0.29297l2-2
		c0.39062-0.39062,0.39062-1.02344,0-1.41406s-1.02344-0.39062-1.41406,0L50,28.58618v-5.58594c0-0.55273-0.44775-1-1-1
		s-1,0.44727-1,1v5.58594l-0.29297-0.29297c-0.39062-0.39062-1.02344-0.39062-1.41406,0s-0.39062,1.02344,0,1.41406
		L48.29297,31.70728z"/>
</g>
</svg>
