<?xml version="1.0" encoding="UTF-8"?>
<svg xmlns="http://www.w3.org/2000/svg" version="1.1" viewBox="0 0 64 64">
  <!-- Generator: Adobe Illustrator 28.7.1, SVG Export Plug-In . SVG Version: 1.2.0 Build 142)  -->
  <g>
    <g id="Glyph">
      <g>
        <path d="M56.55518,51.67803c-1.97852-1.15839-4.4873-1.25604-6.55518-.2912-1.87891-.87708-4.12109-.87708-6,0-1.87891-.87708-4.12109-.87708-6,0-1.87891-.87708-4.12109-.87708-6,0-1.87891-.87708-4.12109-.87708-6,0-1.87891-.87708-4.12109-.87708-6,0-1.87891-.87708-4.12109-.87708-6,0-2.06836-.96484-4.57715-.86719-6.55518.2912-.27783.16278-.44482.4364-.44482.72931v3.98621c0,.32373.20312.62097.52832.77344.32617.15369.72021.13531,1.02686-.04413,1.48535-.86938,3.4043-.86938,4.88965,0,.33594.19696.77441.19696,1.11035,0,1.48535-.86938,3.4043-.86938,4.88965,0,.33594.19696.77441.19696,1.11035,0,1.48535-.86938,3.4043-.86938,4.88965,0,.33594.19696.77441.19696,1.11035,0,1.48535-.86938,3.4043-.86938,4.88965,0,.33594.19696.77441.19696,1.11035,0,1.48535-.86938,3.4043-.86938,4.88965,0,.33594.19696.77441.19696,1.11035,0,1.48535-.86938,3.4043-.86938,4.88965,0,.33594.19696.77441.19696,1.11035,0,1.48535-.86938,3.4043-.86938,4.88965,0,.33594.19696.77441.19696,1.11035,0,1.48535-.86938,3.4043-.86938,4.88965,0,.16748.09808.36084.14777.55518.14777.16162,0,.32373-.0343.47168-.10364.3252-.15247.52832-.44971.52832-.77344v-3.98621c0-.29291-.16699-.56653-.44482-.72931Z"/>
        <polygon points="29.95477 15.72906 22.04517 15.72906 21.29517 19.72906 30.70483 19.72906 29.95477 15.72906"/>
        <polygon points="31.07983 21.72906 20.92017 21.72906 20.1701 25.72906 31.8299 25.72906 31.07983 21.72906"/>
        <path d="M32,27.72906h-12c-1.10455,0-2,.89539-2,2h16c0-1.10461-.89545-2-2-2Z"/>
        <path d="M24,34.72906c0-.55231.44769-1,1-1h14c.55231,0,1,.44769,1,1v3h10v-4c0-1.10461-.89545-2-2-2H16c-1.10455,0-2,.89539-2,2v4h10v-3Z"/>
        <path d="M56,34.72906c-.54999,0-1,.45001-1,1v4H9v-4c0-.54999-.45001-1-1-1s-1,.45001-1,1v6c0,1.09998.90002,2,2,2h46c1.09998,0,2-.90002,2-2v-6c0-.54999-.45001-1-1-1Z"/>
        <rect x="38" y="27.72906" width="8" height="2"/>
        <rect x="26" y="35.72906" width="12" height="2"/>
        <path d="M17,48.72906c1.02002,0,2.03998.16998,3,.5.64001-.22003,1.32001-.37,2-.44v-3.06h-9v3.22998c.34003.06.66998.16003,1,.27002.96002-.33002,1.97998-.5,3-.5Z"/>
        <path d="M47,48.72906c1.02002,0,2.03998.16998,3,.5.33002-.10999.65997-.21002,1-.27002v-3.22998h-9v3.06c.67999.07001,1.35999.21997,2,.44.96002-.33002,1.97998-.5,3-.5Z"/>
        <path d="M47.2168,20.92632l4.7832-4.7832v1.58594c0,.55225.44775,1,1,1s1-.44775,1-1v-4c0-.4043-.24365-.76904-.61719-.92383-.375-.15479-.80371-.06982-1.08984.2168l-6.70703,6.70703h-6.58594c-.55225,0-1,.44775-1,1v5h11.61816l-2.40137-4.80273Z"/>
        <path d="M29.13574,11.36138c-.17676-.9458-1.00342-1.63232-1.96582-1.63232h-.16992v-2c0-.55225-.44775-1-1-1s-1,.44775-1,1v2h-.16992c-.9624,0-1.78906.68652-1.96582,1.63184l-.44403,2.36816h7.15948l-.44397-2.36768Z"/>
      </g>
    </g>
  </g>
</svg>