<?xml version="1.0" encoding="UTF-8"?>
<svg xmlns="http://www.w3.org/2000/svg" version="1.1" viewBox="0 0 64 64">
  <!-- Generator: Adobe Illustrator 28.7.1, SVG Export Plug-In . SVG Version: 1.2.0 Build 142)  -->
  <g>
    <g id="Glyph">
      <g>
        <path d="M51,35V10c0-1.6543-1.3457-3-3-3H16c-1.6543,0-3,1.3457-3,3v25h38ZM43.44727,22.10547c.49414.24707.69434.84766.44727,1.3418l-1.89453,3.78906v3.76367c0,.55225-.44727,1-1,1s-1-.44775-1-1v-3.76367l-1.89453-3.78906c-.24707-.49414-.04688-1.09473.44727-1.3418.49316-.24707,1.09375-.04688,1.3418.44727l1.10547,2.21143,1.10547-2.21143c.24707-.49414.84766-.69434,1.3418-.44727ZM37,11c0-.55225.44727-1,1-1h4c.55273,0,1,.44775,1,1s-.44727,1-1,1h-3v2h3c.55273,0,1,.44775,1,1s-.44727,1-1,1h-3v2h3c.55273,0,1,.44775,1,1s-.44727,1-1,1h-4c-.55273,0-1-.44775-1-1v-8ZM36,25v6c0,.55225-.44727,1-1,1s-1-.44775-1-1v-2h-2v2c0,.55225-.44727,1-1,1s-1-.44775-1-1v-6c0-1.6543,1.3457-3,3-3s3,1.3457,3,3ZM29,11c0-.46387.31934-.8667.77051-.97314.44629-.1084.91699.11084,1.12402.52588l2.10547,4.21143v-3.76416c0-.55225.44727-1,1-1s1,.44775,1,1v7.99997c0,.52492-.4706,1.00003-1,1.00003-.37207,0-.72266-.2085-.89453-.55273l-2.10547-4.21143v3.76416c0,.55225-.44727,1-1,1s-1-.44775-1-1v-8ZM21,13c0-1.6543,1.3457-3,3-3s3,1.3457,3,3v4c0,1.6543-1.3457,3-3,3s-3-1.3457-3-3v-4ZM20.87598,22.00781c.55078-.07227,1.04785.32031,1.11621.86816l.59082,4.72266.52246-1.0459c.33984-.67773,1.44922-.67773,1.78906,0l.52246,1.0459.59082-4.72266c.06836-.54785.5625-.94043,1.11621-.86816.54785.06836.93652.56836.86816,1.11621l-1,7.99997c-.05946.47572-.5105.87601-.99219.87601-.37402,0-.72266-.20996-.89453-.55273l-1.10547-2.21143-1.10547,2.21143c-.19727.39404-.62402.61133-1.06348.53857-.43457-.07471-.76856-.42432-.82324-.86182l-1-8c-.06836-.54785.32031-1.04785.86816-1.11621Z"/>
        <path d="M18.18433,55c.41412,1.1615,1.51373,2,2.81567,2h22c1.30194,0,2.40161-.8385,2.81573-2h-27.63141Z"/>
        <path d="M24,18c.55176,0,1-.44873,1-1v-4c0-.55127-.44824-1-1-1s-1,.44873-1,1v4c0,.55127.44824,1,1,1Z"/>
        <path d="M32,25v2h2v-2c0-.55127-.44824-1-1-1s-1,.44873-1,1Z"/>
        <path d="M13,37v13c0,1.64996,1.34998,3,3,3h32c1.65002,0,3-1.35004,3-3v-13H13ZM18,50c-.54999,0-1-.45001-1-1s.45001-1,1-1,1,.45001,1,1-.45001,1-1,1ZM18,42c-.54999,0-1-.45001-1-1s.45001-1,1-1,1,.45001,1,1-.45001,1-1,1ZM40.71002,45.70996s-3.99721,3.99721-4.00004,4.00004c-.29368.29364-.71297.35882-1.08998.20998-.38-.15002-.61999-.52002-.61999-.91998v-1h-11c-.54999,0-1-.45001-1-1v-4c0-.54999.45001-1,1-1h11v-1c0-.40002.23999-.77002.62-.92004.37-.15997.79999-.06995,1.09003.21002l4,4c.38995.39001.38995,1.03003,0,1.41998ZM46,50c-.54999,0-1-.45001-1-1s.45001-1,1-1,1,.45001,1,1-.45001,1-1,1ZM46,42c-.54999,0-1-.45001-1-1s.45001-1,1-1,1,.45001,1,1-.45001,1-1,1Z"/>
        <path d="M36,44h-11v2h11c.42871,0,.79492.27002.93652.64893l1.64941-1.64893-1.64941-1.64893c-.1416.37891-.50781.64893-.93652.64893Z"/>
      </g>
    </g>
  </g>
</svg>