<?xml version="1.0" encoding="UTF-8"?>
<svg xmlns="http://www.w3.org/2000/svg" version="1.1" viewBox="0 0 64 64">
  <!-- Generator: Adobe Illustrator 28.7.1, SVG Export Plug-In . SVG Version: 1.2.0 Build 142)  -->
  <g>
    <g id="Glyph">
      <g>
        <path d="M53.85999,21.74002c-1.39996.89996-3.07001,1.42999-4.85999,1.42999-4.38,0-8.03998-3.15002-8.84003-7.29999l-3.76996-1.62006c-.25-.10999-.53003-.10999-.78003,0l-19.59998,8.40002,19.98999,8.57001,19.98999-8.57001-2.13-.90997Z"/>
        <path d="M37,32.96872v23.86035l19.39355-8.31042c.36816-.15723.60645-.51855.60645-.91895v-23.20081l-20,8.56982Z"/>
        <path d="M35,32.97v23.85999l-19.39001-8.31c-.37-.15997-.60999-.52002-.60999-.91998v-2.42999h12c1.65002,0,3-1.35004,3-3,0-1.38-.94-2.54999-2.21997-2.89001.13995-.34003.21997-.71997.21997-1.10999,0-.53003-.14001-1.03003-.38-1.47003.83002-.53998,1.38-1.46997,1.38-2.52997,0-1.65002-1.34998-3-3-3h-11v-6.77002l20,8.57001Z"/>
        <path d="M49,21.17001c3.85999,0,7-3.14001,7-7s-3.14001-7-7-7-7,3.14001-7,7,3.14001,7,7,7ZM45.28998,13.45999c.39001-.39001,1.03003-.39001,1.42004,0l1.28998,1.29999,3.28998-3.29999c.39001-.39001,1.03003-.39001,1.42004,0,.38995.39001.38995,1.03003,0,1.41998l-4,4c-.20001.19-.45001.29004-.71002.29004s-.51001-.10004-.71002-.29004l-2-2c-.38995-.38995-.38995-1.02997,0-1.41998Z"/>
        <path d="M22,42.17001c0-.55273-.44727-1-1-1h-10c-.55273,0-1,.44727-1,1s.44727,1,1,1h10c.55273,0,1-.44727,1-1Z"/>
        <path d="M16,38.17001c0-.55273-.44727-1-1-1h-7c-.55273,0-1,.44727-1,1s.44727,1,1,1h7c.55273,0,1-.44727,1-1Z"/>
        <path d="M11,35.17001h4c.55273,0,1-.44727,1-1s-.44727-1-1-1h-4c-.55273,0-1,.44727-1,1s.44727,1,1,1Z"/>
        <path d="M24,42.17001c0,.55273.44727,1,1,1h2c.55273,0,1-.44727,1-1s-.44727-1-1-1h-2c-.55273,0-1,.44727-1,1Z"/>
        <path d="M19,39.17001h6c.55273,0,1-.44727,1-1s-.44727-1-1-1h-6c-.55273,0-1,.44727-1,1s.44727,1,1,1Z"/>
        <path d="M26,33.17001h-7c-.55273,0-1,.44727-1,1s.44727,1,1,1h7c.55273,0,1-.44727,1-1s-.44727-1-1-1Z"/>
      </g>
    </g>
  </g>
</svg>