<?xml version="1.0" encoding="UTF-8"?>
<svg xmlns="http://www.w3.org/2000/svg" version="1.1" viewBox="0 0 64 64">
  <!-- Generator: Adobe Illustrator 28.7.1, SVG Export Plug-In . SVG Version: 1.2.0 Build 142)  -->
  <g>
    <g id="Glyph">
      <g>
        <path d="M16,15c1.10455,0,2-.89545,2-2v-4c0-1.10461-.89545-2-2-2s-2,.89539-2,2v4c0,1.10455.89545,2,2,2Z"/>
        <path d="M36,15c1.10455,0,2-.89545,2-2v-4c0-1.10461-.89545-2-2-2s-2,.89539-2,2v4c0,1.10455.89545,2,2,2Z"/>
        <rect x="21" y="26" width="2" height="2"/>
        <rect x="12" y="26" width="2" height="2"/>
        <rect x="30" y="26" width="2" height="2"/>
        <rect x="12" y="44" width="2" height="2"/>
        <rect x="12" y="35" width="2" height="2"/>
        <path d="M45,33v-11H7v26c0,1.64996,1.34998,3,3,3h9v-13c0-2.76001,2.23999-5,5-5h21ZM16,47c0,.55273-.44775,1-1,1h-4c-.55225,0-1-.44727-1-1v-4c0-.55273.44775-1,1-1h4c.55225,0,1,.44727,1,1v4ZM16,38c0,.55273-.44775,1-1,1h-4c-.55225,0-1-.44727-1-1v-4c0-.55273.44775-1,1-1h4c.55225,0,1,.44727,1,1v4ZM16,29c0,.55273-.44775,1-1,1h-4c-.55225,0-1-.44727-1-1v-4c0-.55273.44775-1,1-1h4c.55225,0,1,.44727,1,1v4ZM37,25c0-.55273.44775-1,1-1h4c.55225,0,1,.44727,1,1v4c0,.55273-.44775,1-1,1h-4c-.55225,0-1-.44727-1-1v-4ZM28,25c0-.55273.44775-1,1-1h4c.55225,0,1,.44727,1,1v4c0,.55273-.44775,1-1,1h-4c-.55225,0-1-.44727-1-1v-4ZM20,30c-.55225,0-1-.44727-1-1v-4c0-.55273.44775-1,1-1h4c.55225,0,1,.44727,1,1v4c0,.55273-.44775,1-1,1h-4Z"/>
        <path d="M45,14c0-1.65002-1.34998-3-3-3h-2v2c0,2.20996-1.78998,4-4,4s-4-1.79004-4-4v-2h-12v2c0,2.20996-1.78998,4-4,4s-4-1.79004-4-4v-2h-2c-1.65002,0-3,1.34998-3,3v6h38v-6Z"/>
        <rect x="39" y="26" width="2" height="2"/>
        <circle cx="47" cy="46" r="1"/>
        <circle cx="31" cy="46" r="1"/>
        <path d="M54,35h-30c-1.65686,0-3,1.34314-3,3v16c0,1.65686,1.34314,3,3,3h30c1.65686,0,3-1.34314,3-3v-16c0-1.65686-1.34314-3-3-3ZM28.87354,40c-.36279,1.40332-1.46973,2.51074-2.87354,2.87305v6.25391c1.40381.3623,2.51074,1.46973,2.87354,2.87305h5.12646c.55225,0,1,.44727,1,1s-.44775,1-1,1h-6c-.55225,0-1-.44727-1-1,0-1.10254-.89697-2-2-2-.55225,0-1-.44727-1-1v-8c0-.55273.44775-1,1-1,1.10303,0,2-.89746,2-2,0-.55273.44775-1,1-1h6c.55225,0,1,.44727,1,1s-.44775,1-1,1h-5.12646ZM34,46c0,1.6543-1.3457,3-3,3s-3-1.3457-3-3,1.3457-3,3-3,3,1.3457,3,3ZM38.26807,44.73633l2.03857.61133c1.01318.30469,1.69336,1.21875,1.69336,2.27637,0,1.18176-.86908,2.15625-2,2.33795v1.03802c0,.55273-.44775,1-1,1s-1-.44727-1-1v-1h-1c-.55225,0-1-.44727-1-1s.44775-1,1-1h2.62402c.20752,0,.37598-.16895.37598-.37598,0-.16504-.11035-.31348-.26807-.36035l-2.03857-.61133c-1.01318-.30469-1.69336-1.21875-1.69336-2.27637,0-1.18176.86908-2.15625,2-2.33795v-1.03802c0-.55273.44775-1,1-1s1,.44727,1,1v1h1c.55225,0,1,.44727,1,1s-.44775,1-1,1h-2.62402c-.20752,0-.37598.16895-.37598.37598,0,.16504.11035.31348.26807.36035ZM54,50c0,.55273-.44775,1-1,1-1.10303,0-2,.89746-2,2,0,.55273-.44775,1-1,1h-6c-.55225,0-1-.44727-1-1s.44775-1,1-1h5.12646c.36279-1.40332,1.46973-2.51074,2.87354-2.87305v-6.25391c-1.40381-.3623-2.51074-1.46973-2.87354-2.87305h-5.12646c-.55225,0-1-.44727-1-1s.44775-1,1-1h6c.55225,0,1,.44727,1,1,0,1.10254.89697,2,2,2,.55225,0,1,.44727,1,1v8ZM44,46c0-1.6543,1.3457-3,3-3s3,1.3457,3,3-1.3457,3-3,3-3-1.3457-3-3Z"/>
      </g>
    </g>
  </g>
</svg>