<?xml version="1.0" encoding="UTF-8"?>
<svg xmlns="http://www.w3.org/2000/svg" version="1.1" viewBox="0 0 64 64">
  <!-- Generator: Adobe Illustrator 28.7.1, SVG Export Plug-In . SVG Version: 1.2.0 Build 142)  -->
  <g>
    <g id="Glyph">
      <g>
        <path d="M44,39c0-.55176-.44824-1-1-1h-1v2h1c.55176,0,1-.44824,1-1Z"/>
        <path d="M43,42h-1v2h1c.55176,0,1-.44824,1-1s-.44824-1-1-1Z"/>
        <path d="M30,31h18c.55228,0,1-.44772,1-1v-14c0-.55228-.44772-1-1-1h-18c-.55228,0-1,.44772-1,1v14c0,.55228.44772,1,1,1ZM39.16992,18c1.32324,0,2.57812.51758,3.53223,1.45801.39355.3877.39746,1.02051.00977,1.41406-.3877.39258-1.02051.39844-1.41406.00977-.57715-.56836-1.33301-.88184-2.12793-.88184-1.6543,0-3,1.3457-3,3s1.3457,3,3,3c.79492,0,1.55078-.31348,2.12793-.88184.39453-.38867,1.02734-.38184,1.41406.00977.3877.39355.38379,1.02637-.00977,1.41406-.9541.94043-2.20898,1.45801-3.53223,1.45801-2.75684,0-5-2.24316-5-5s2.24316-5,5-5Z"/>
        <path d="M15,34v14c0,.55.45,1,1,1h18c.55228,0,1-.44772,1-1v-14c0-.55228-.44772-1-1-1h-18c-.55228,0-1,.44772-1,1ZM26,46h-6c-.54999,0-1-.45001-1-1v-8c0-.54999.45001-1,1-1s1,.45001,1,1v7h5c.54999,0,1,.45001,1,1s-.45001,1-1,1ZM31,45c0,.54999-.45001,1-1,1s-1-.45001-1-1v-2c0-.54999.45001-1,1-1s1,.45001,1,1v2ZM30,40c-.54999,0-1-.45001-1-1s.45001-1,1-1,1,.45001,1,1-.45001,1-1,1Z"/>
        <path d="M51,39c-.55176,0-1,.44824-1,1v1h1c.55176,0,1-.44824,1-1s-.44824-1-1-1Z"/>
        <path d="M37,34v14c0,.55228.44772,1,1,1h18c.55,0,1-.45,1-1v-14c0-.55228-.44772-1-1-1h-18c-.55228,0-1,.44772-1,1ZM46,43c0,1.64996-1.34998,3-3,3h-2c-.54999,0-1-.45001-1-1v-8c0-.54999.45001-1,1-1h2c1.65002,0,3,1.34998,3,3,0,.76996-.29999,1.46997-.78003,2,.48004.52997.78003,1.22998.78003,2ZM51,43h-.71997c.34998.58997.97998,1,1.71997,1,.54999,0,1,.45001,1,1s-.45001,1-1,1c-2.21002,0-4-1.79004-4-4v-2c0-1.65002,1.34998-3,3-3s3,1.34998,3,3-1.34998,3-3,3Z"/>
        <path d="M8,15c-.55,0-1,.45-1,1v14c0,.55228.44772,1,1,1h18c.55228,0,1-.44772,1-1v-14c0-.55228-.44772-1-1-1H8ZM16,27c0,.54999-.45001,1-1,1s-1-.45001-1-1v-3h-2v3c0,.54999-.45001,1-1,1s-1-.45001-1-1v-8c0-.54999.45001-1,1-1s1,.45001,1,1v3h2v-3c0-.54999.45001-1,1-1s1,.45001,1,1v8ZM23,22c.54999,0,1,.45001,1,1s-.45001,1-1,1h-3v3c0,.54999-.45001,1-1,1s-1-.45001-1-1v-8c0-.54999.45001-1,1-1h4c.54999,0,1,.45001,1,1s-.45001,1-1,1h-3v2h3Z"/>
      </g>
    </g>
  </g>
</svg>