<?xml version="1.0" encoding="UTF-8"?>
<svg xmlns="http://www.w3.org/2000/svg" version="1.1" viewBox="0 0 64 64">
  <!-- Generator: Adobe Illustrator 28.7.1, SVG Export Plug-In . SVG Version: 1.2.0 Build 142)  -->
  <g>
    <g id="Glyph">
      <g>
        <path d="M18,15c.25586,0,.51172-.09766.70703-.29297l1-.99951c.45605-.45605.70703-1.0625.70703-1.70752s-.25098-1.25146-.70703-1.70752c-.10547-.10547-.12109-.22852-.12109-.29248s.01562-.18701.12109-.29297l1-1c.39062-.39062.39062-1.02344,0-1.41406s-1.02344-.39062-1.41406,0l-1,.99951c-.45605.45605-.70703,1.0625-.70703,1.70752s.25098,1.25146.70703,1.70752c.10547.10547.12109.22852.12109.29248s-.01562.18701-.12109.29297l-1,1c-.39062.39062-.39062,1.02344,0,1.41406.19531.19531.45117.29297.70703.29297Z"/>
        <path d="M23,15c.25586,0,.51172-.09766.70703-.29297l1-.99951c.45605-.45605.70703-1.0625.70703-1.70752s-.25098-1.25146-.70703-1.70752c-.10547-.10547-.12109-.22852-.12109-.29248s.01562-.18701.12109-.29297l1-1c.39062-.39062.39062-1.02344,0-1.41406s-1.02344-.39062-1.41406,0l-1,.99951c-.45605.45605-.70703,1.0625-.70703,1.70752s.25098,1.25146.70703,1.70752c.10547.10547.12109.22852.12109.29248s-.01562.18701-.12109.29297l-1,1c-.39062.39062-.39062,1.02344,0,1.41406.19531.19531.45117.29297.70703.29297Z"/>
        <polygon points="26.91162 24 15.08832 24 14.33838 29 27.66156 29 26.91162 24"/>
        <path d="M32,43h3v2h-1v6h21v-5c0-.55231-.44769-1-1-1h-1v-5h-8v1h-2v-5h-8v5h-3c0-1.10461-.89545-2-2-2H11c-1.10455,0-2,.89539-2,2v10h23v-8ZM43,43h2v2h-2v-2ZM28.5,47c0,.55225-.44727,1-1,1h-14c-.55273,0-1-.44775-1-1v-4c0-.55225.44727-1,1-1h14c.55273,0,1,.44775,1,1v4Z"/>
        <rect x="19.5" y="44" width="2" height="2"/>
        <rect x="14.5" y="44" width="3" height="2"/>
        <rect x="23.5" y="44" width="3" height="2"/>
        <polygon points="27.96155 31 14.03839 31 13.13849 37 28.86151 37 27.96155 31"/>
        <path d="M26.11719,18.70361c-.14551-.97119-.99609-1.70361-1.97852-1.70361h-6.27734c-.98242,0-1.83301.73242-1.97852,1.70312l-.49451,3.29688h11.22333l-.49445-3.29639Z"/>
        <path d="M40,30.14197v-2.14197c0-.55127.44824-1,1-1h6c.55176,0,1,.44873,1,1v6.14197c-1.72052.4472-3,1.99969-3,3.85803h8c0-1.85834-1.27948-3.41083-3-3.85803v-6.14197c0-1.6543-1.3457-3-3-3h-6c-1.6543,0-3,1.3457-3,3v2.14197c-1.72052.4472-3,1.99969-3,3.85803h8c0-1.85834-1.27948-3.41083-3-3.85803Z"/>
        <rect x="7" y="53" width="50" height="4" rx="1" ry="1"/>
      </g>
    </g>
  </g>
</svg>