<?xml version="1.0" encoding="UTF-8"?>
<svg xmlns="http://www.w3.org/2000/svg" version="1.1" viewBox="0 0 48 48">
  <!-- Generator: Adobe Illustrator 28.7.1, SVG Export Plug-In . SVG Version: 1.2.0 Build 142)  -->
  <g>
    <g id="Glyph">
      <g>
        <rect x="28" y="34" width="12" height="3"/>
        <rect x="8" y="11" width="12" height="3"/>
        <path d="M41,39h-14c-1.10455,0-2,.89539-2,2,0,1.10455.89545,2,2,2h14c1.10455,0,2-.89545,2-2,0-1.10461-.89545-2-2-2Z"/>
        <path d="M23,7c0-1.10461-.89545-2-2-2H7c-1.10455,0-2,.89539-2,2,0,1.10455.89545,2,2,2h14c1.10455,0,2-.89545,2-2Z"/>
        <path d="M28,31v1h12v-3c0-6.06543-4.93457-11-11-11h-8c-.55127,0-1-.44824-1-1v-1h-12v3c0,6.06543,4.93457,11,11,11h8c.55127,0,1,.44824,1,1Z"/>
      </g>
    </g>
  </g>
</svg>