<?xml version="1.0" encoding="UTF-8"?>
<svg xmlns="http://www.w3.org/2000/svg" version="1.1" viewBox="0 0 64 64">
  <!-- Generator: Adobe Illustrator 28.7.1, SVG Export Plug-In . SVG Version: 1.2.0 Build 142)  -->
  <g>
    <g id="Glyph">
      <g>
        <path d="M48,13.00127c.54999,0,1,.45001,1,1v5.41998l1.66998-1.67999c2.34003-2.34003,2.34003-6.14001,0-8.47998l-1.95996-1.97003c-.39001-.39001-1.03003-.39001-1.42004,0l-1.95996,1.97003c-2.34003,2.33997-2.34003,6.13995,0,8.47998l1.66998,1.67999v-5.41998c0-.54999.45001-1,1-1Z"/>
        <path d="M50,39.00127c3.85999,0,7-3.14001,7-7v-2c0-.54999-.45001-1-1-1h-2c-1.96002,0-3.72998.81-5,2.10999v-3.10999h1c2.76001,0,5-2.23999,5-5v-2c0-.54999-.45001-1-1-1h-2c-1.13,0-2.15997.39001-3,1.02997v-1.60999l-.28998.28998c-.20001.19-.45001.29004-.71002.29004s-.51001-.10004-.71002-.29004l-.28998-.28998v1.60999c-.84003-.63995-1.87-1.02997-3-1.02997h-2c-.54999,0-1,.45001-1,1v2c0,2.76001,2.23999,5,5,5h1v3.10999c-1.27002-1.29999-3.03998-2.10999-5-2.10999h-2c-.54999,0-1,.45001-1,1v2c0,3.85999,3.14001,7,7,7h1v4.43335c-.11896.05316-.2392.10291-.35449.16577-.93164-1.00439-2.25391-1.59912-3.64551-1.59912s-2.71387.59473-3.64551,1.59912c-1.48828-.81201-3.35938-.79004-4.85449.08936-1.06665-.6275-2.31879-.80908-3.5-.56573v-5.12274h1c2.76001,0,5-2.23999,5-5v-2c0-.54999-.45001-1-1-1h-2c-1.13,0-2.15997.39001-3,1.02997v-2.60999l-.28998.28998c-.20001.19-.45001.29004-.71002.29004s-.51001-.10004-.71002-.29004l-.28998-.28998v2.60999c-.84003-.63995-1.87-1.02997-3-1.02997h-2c-.54999,0-1,.45001-1,1v2c0,2.76001,2.23999,5,5,5h1v5.43744c-1.39764-.61871-3.02661-.56232-4.35449.16168-.93164-1.00439-2.25391-1.59912-3.64551-1.59912-1.09882,0-2.14581.38171-3,1.03223v-4.61224l-.28998.28998c-.20001.19-.45001.29004-.71002.29004s-.51001-.10004-.71002-.29004l-.28998-.28998v4.69049c-.32654-.06757-.65942-.11047-1-.11047-2.75684,0-5,2.24316-5,5,0,.36963.04199.7373.125,1.09619-1.78613.3999-3.125,1.99854-3.125,3.90381,0,2.20557,1.79395,4,4,4h42c2.20605,0,4-1.79443,4-4,0-1.90527-1.33887-3.50391-3.125-3.90381.08301-.35889.125-.72656.125-1.09619,0-2.75684-2.24316-5-5-5v-4h1Z"/>
        <path d="M30,22.00127c.54999,0,1,.45001,1,1v5.41998l1.66998-1.67999c2.34003-2.34003,2.34003-6.14001,0-8.47998l-1.95996-1.97003c-.39001-.39001-1.03003-.39001-1.42004,0l-1.95996,1.97003c-2.34003,2.33997-2.34003,6.13995,0,8.47998l1.66998,1.67999v-5.41998c0-.54999.45001-1,1-1Z"/>
        <path d="M17,32.00127c.54999,0,1,.45001,1,1v5.41998l1.66998-1.67999c2.34003-2.34003,2.34003-6.14001,0-8.47998l-1.95996-1.97003c-.39001-.39001-1.03003-.39001-1.42004,0l-1.95996,1.97003c-2.34003,2.33997-2.34003,6.13995,0,8.47998l1.66998,1.67999v-5.41998c0-.54999.45001-1,1-1Z"/>
      </g>
    </g>
  </g>
</svg>