<?xml version="1.0" encoding="UTF-8"?>
<svg id="Glyph" xmlns="http://www.w3.org/2000/svg" version="1.1" viewBox="0 0 48 48">
  <circle cx="36" cy="37" r="1" fill="#000" stroke-width="0"/>
  <path d="M17,12c0-1.30194-.8385-2.40161-2-2.81573v-3.18427c0-.55273-.44727-1-1-1s-1,.44727-1,1v3.18427c-1.1615.41412-2,1.51379-2,2.81573v1h6v-1Z" fill="#000" stroke-width="0"/>
  <rect x="19" y="24" width="6" height="2" fill="#000" stroke-width="0"/>
  <path d="M28,20h-12c-.55176,0-1,.44824-1,1v16c0,.55176.44824,1,1,1h12c.55176,0,1-.44824,1-1v-16c0-.55176-.44824-1-1-1ZM18,36c-.55231,0-1-.44775-1-1,0-.55231.44769-1,1-1s1,.44769,1,1c0,.55225-.44769,1-1,1ZM18,32c-.55231,0-1-.44775-1-1,0-.55231.44769-1,1-1s1,.44769,1,1c0,.55225-.44769,1-1,1ZM22,36c-.55231,0-1-.44775-1-1,0-.55231.44769-1,1-1s1,.44769,1,1c0,.55225-.44769,1-1,1ZM22,32c-.55231,0-1-.44775-1-1,0-.55231.44769-1,1-1s1,.44769,1,1c0,.55225-.44769,1-1,1ZM26,36c-.55231,0-1-.44775-1-1,0-.55231.44769-1,1-1s1,.44769,1,1c0,.55225-.44769,1-1,1ZM26,32c-.55231,0-1-.44775-1-1,0-.55231.44769-1,1-1s1,.44769,1,1c0,.55225-.44769,1-1,1ZM27,27c0,.55273-.44727,1-1,1h-8c-.55273,0-1-.44727-1-1v-4c0-.55273.44727-1,1-1h8c.55273,0,1,.44727,1,1v4Z" fill="#000" stroke-width="0"/>
  <circle cx="36" cy="29" r="1" fill="#000" stroke-width="0"/>
  <path d="M37,12c0-1.30194-.8385-2.40161-2-2.81573v-3.18427c0-.55273-.44727-1-1-1s-1,.44727-1,1v3.18427c-1.1615.41412-2,1.51379-2,2.81573v1h6v-1Z" fill="#000" stroke-width="0"/>
  <path d="M41,15H7c-1.10455,0-2,.89539-2,2v24c0,1.10455.89545,2,2,2h34c1.10455,0,2-.89545,2-2v-24c0-1.10461-.89545-2-2-2ZM10,38c-.55231,0-1-.44775-1-1,0-.55231.44769-1,1-1s1,.44769,1,1c0,.55225-.44769,1-1,1ZM10,34c-.55231,0-1-.44775-1-1,0-.55231.44769-1,1-1s1,.44769,1,1c0,.55225-.44769,1-1,1ZM10,30c-.55231,0-1-.44775-1-1,0-.55231.44769-1,1-1s1,.44769,1,1c0,.55225-.44769,1-1,1ZM10,26c-.55231,0-1-.44775-1-1,0-.55231.44769-1,1-1s1,.44769,1,1c0,.55225-.44769,1-1,1ZM10,22c-.55231,0-1-.44775-1-1,0-.55231.44769-1,1-1s1,.44769,1,1c0,.55225-.44769,1-1,1ZM31,37c0,1.6543-1.3457,3-3,3h-12c-1.6543,0-3-1.3457-3-3v-16c0-1.6543,1.3457-3,3-3h12c1.6543,0,3,1.3457,3,3v16ZM36,40c-1.6543,0-3-1.3457-3-3s1.3457-3,3-3,3,1.3457,3,3-1.3457,3-3,3ZM36,32c-1.6543,0-3-1.3457-3-3s1.3457-3,3-3,3,1.3457,3,3-1.3457,3-3,3ZM36,24c-1.6543,0-3-1.3457-3-3s1.3457-3,3-3,3,1.3457,3,3-1.3457,3-3,3Z" fill="#000" stroke-width="0"/>
  <circle cx="36" cy="21" r="1" fill="#000" stroke-width="0"/>
</svg>