<?xml version="1.0" encoding="utf-8"?>
<!-- Generator: Adobe Illustrator 27.3.1, SVG Export Plug-In . SVG Version: 6.00 Build 0)  -->
<svg version="1.1" id="Glyph" xmlns="http://www.w3.org/2000/svg" xmlns:xlink="http://www.w3.org/1999/xlink" x="0px" y="0px"
	 viewBox="0 0 48 48" enable-background="new 0 0 48 48" xml:space="preserve">
<g>
	<path d="M26.5235,25.60901l2.52533,3.23669c0.39062-0.4043,0.72949-0.85449,1.0127-1.34473
		c0.28418-0.49219,0.50488-1.01074,0.65918-1.55176l-4.07214-0.57031C26.60797,25.45642,26.57043,25.53564,26.5235,25.60901z"/>
	<circle cx="24" cy="24" r="1"/>
	<path d="M17.27881,25.94922c0.15527,0.54102,0.37549,1.05957,0.65918,1.55078c0.2832,0.49121,0.62256,0.94141,1.01318,1.3457
		l2.5257-3.23602c-0.04706-0.07355-0.08466-0.15295-0.12531-0.23065L17.27881,25.94922z"/>
	<path d="M36.94934,23h6C42.44189,13.32263,34.67737,5.55811,25,5.05066v6C31.36993,11.53912,36.46088,16.6297,36.94934,23z"/>
	<path d="M22.32764,17.20459l1.5412,3.80865C23.91327,21.01129,23.95508,21,24,21s0.08679,0.01129,0.13123,0.01324l1.54163-3.80865
		C24.58105,16.93311,23.41846,16.93311,22.32764,17.20459z"/>
	<path d="M35,24c0-6.06543-4.93457-11-11-11c-6.06488,0-10.99908,4.93384-10.99994,10.99847
		c0,0.00073,0.00043,0.00128,0.00043,0.00201c0,0.00067-0.00037,0.00116-0.00037,0.00183C13.00134,30.06659,17.93536,35,24,35
		C30.06543,35,35,30.06543,35,24z M29.5293,31.09277c-0.41852,0.32416-1.05969,0.26202-1.40039-0.1748l-3.18707-4.08417
		C24.64386,26.93323,24.33093,27,24,27c-0.33099,0-0.64386-0.06677-0.94183-0.1662c0,0-3.18439,4.08014-3.18756,4.08417
		c-0.32538,0.41687-0.9646,0.51361-1.40039,0.1748c-0.92188-0.71387-1.68359-1.58594-2.26465-2.59277
		s-0.95605-2.10254-1.11377-3.25684c-0.07471-0.5459,0.30615-1.0498,0.85205-1.12598l5.11676-0.71667
		c0.13184-0.64722,0.47986-1.21057,0.95581-1.63379l-1.94318-4.80188c-0.20703-0.51074,0.03857-1.09229,0.54883-1.30078
		c2.15771-0.88086,4.60059-0.88086,6.75586,0c0.51074,0.2085,0.75586,0.79004,0.54883,1.30078l-1.94318,4.80188
		c0.47595,0.42322,0.82404,0.98651,0.95581,1.63373l5.11627,0.71674c0.5459,0.07617,0.92676,0.57959,0.85254,1.125
		c-0.1582,1.1543-0.53223,2.25098-1.11426,3.25781C31.21387,29.50586,30.45215,30.37793,29.5293,31.09277z"/>
	<path d="M25,36.94934v6C34.67737,42.44189,42.44189,34.67737,42.94934,25h-6C36.46088,31.36993,31.36993,36.46088,25,36.94934z"/>
	<path d="M11.05066,25h-6C5.55811,34.67737,13.32263,42.44189,23,42.94934v-6C16.6297,36.46088,11.53912,31.36993,11.05066,25z"/>
	<path d="M23,11.05066v-6C13.32251,5.55811,5.55786,13.32294,5.05066,23.00049h6C11.53882,16.63,16.62952,11.53906,23,11.05066z"/>
</g>
</svg>
