<?xml version="1.0" encoding="utf-8"?>
<!-- Generator: Adobe Illustrator 28.3.0, SVG Export Plug-In . SVG Version: 6.00 Build 0)  -->
<svg version="1.1" id="Glyph" xmlns="http://www.w3.org/2000/svg" xmlns:xlink="http://www.w3.org/1999/xlink" x="0px" y="0px"
	 viewBox="0 0 48 48" enable-background="new 0 0 48 48" xml:space="preserve">
<g>
	<path d="M38.97607,16.49316C38.99219,16.32959,39,16.16504,39,16c0-2.75684-2.24316-5-5-5
		c-0.41406,0-0.82373,0.05127-1.22021,0.15088C31.94238,7.61133,28.75146,5,25,5c-3.68457,0-6.854,2.521-7.73926,6.00439
		C17.1748,11.00146,17.08789,11,17,11c-3.85986,0-7,3.14014-7,7c0,0.3374,0.02393,0.67139,0.07178,1c0,0-0.07159,0-0.07178,0
		c-2.72528,0-5,2.27643-5,5c0,2.75684,2.24316,5,5,5c0,0,26.48138,0,26.5,0c3.54633,0,6.5-2.95667,6.5-6.5
		C43,19.82666,41.38623,17.47607,38.97607,16.49316z M34,24c-0.55231,0-1-0.44775-1-1c0-0.55231,0.44769-1,1-1s1,0.44769,1,1
		C35,23.55225,34.55231,24,34,24z M38,24c-0.55231,0-1-0.44775-1-1c0-0.55231,0.44769-1,1-1s1,0.44769,1,1
		C39,23.55225,38.55231,24,38,24z"/>
	<path d="M8.03003,17.27997c0.32996-4.22998,3.60999-7.64996,7.76996-8.20001C16.21997,8.08997,16.78998,7.19,17.5,6.39996
		C16.21997,5.51996,14.66998,5,13,5c-4.40997,0-8,3.58997-8,8c0,1.82001,0.62,3.51001,1.65002,4.85999
		C7.09003,17.60999,7.54999,17.41998,8.03003,17.27997z"/>
	<path d="M11.17725,35.43164C10.52246,36.37939,9,38.72168,9,40c0,1.6543,1.3457,3,3,3s3-1.3457,3-3
		c0-1.27832-1.52246-3.62061-2.17725-4.56836C12.44971,34.89062,11.55029,34.89062,11.17725,35.43164z"/>
	<path d="M19.17725,31.43164C18.52246,32.37939,17,34.72168,17,36c0,1.6543,1.3457,3,3,3s3-1.3457,3-3
		c0-1.27832-1.52246-3.62061-2.17725-4.56836C20.44971,30.89062,19.55029,30.89062,19.17725,31.43164z"/>
	<path d="M27.17725,35.43164C26.52246,36.37939,25,38.72168,25,40c0,1.6543,1.3457,3,3,3s3-1.3457,3-3
		c0-1.27832-1.52246-3.62061-2.17725-4.56836C28.44971,34.89062,27.55029,34.89062,27.17725,35.43164z"/>
	<path d="M35.17725,31.43164C34.52246,32.37939,33,34.72168,33,36c0,1.6543,1.3457,3,3,3s3-1.3457,3-3
		c0-1.27832-1.52246-3.62061-2.17725-4.56836C36.44971,30.89062,35.55029,30.89062,35.17725,31.43164z"/>
</g>
</svg>
