<?xml version="1.0" encoding="utf-8"?>
<!-- Generator: Adobe Illustrator 27.3.1, SVG Export Plug-In . SVG Version: 6.00 Build 0)  -->
<svg version="1.1" id="Glyph" xmlns="http://www.w3.org/2000/svg" xmlns:xlink="http://www.w3.org/1999/xlink" x="0px" y="0px"
	 viewBox="0 0 64 64" enable-background="new 0 0 64 64" xml:space="preserve">
<g>
	<path d="M14.11719,26.77344c0.45074,0.67767,1.51959,0.53296,1.78027-0.23242C17.78613,20.97363,22.36328,16.8252,28,15.48145
		c0,0,0,0.5166,0,0.51855c0,0.78662,0.90021,1.26691,1.55469,0.83203l6-4C35.83301,12.64648,36,12.33398,36,12
		s-0.16699-0.64648-0.44531-0.83203l-6-4c-0.30566-0.2041-0.70215-0.22363-1.02637-0.0498C28.20312,7.29199,28,7.63086,28,8v1.35352
		c-7.18066,1.25586-13.34473,5.84863-16.60547,12.42188c-0.15918,0.32031-0.13477,0.7002,0.0625,0.99805
		C11.45703,22.77344,14.10522,26.75537,14.11719,26.77344z"/>
	<path d="M56.87042,28.53387C56.70544,28.22626,56.38885,28,56,28h-1.35352c-1.25586-7.18066-5.84863-13.34473-12.42188-16.60547
		c-0.32129-0.16113-0.7002-0.13477-0.99805,0.0625c0,0-3.9939,2.65613-4,2.66016c-0.68103,0.45288-0.5387,1.51764,0.23242,1.78027
		C43.02637,17.78613,47.1748,22.36328,48.51855,28H48c-0.36914,0-0.70801,0.20312-0.88184,0.52832s-0.15527,0.71973,0.0498,1.02637
		c0,0,3.99207,5.98804,4,5.99994c0.39093,0.58643,1.27441,0.58447,1.66406,0.00006c0,0,3.98975-5.98462,4-6
		C57.04877,29.22955,57.03522,28.84113,56.87042,28.53387z"/>
	<path d="M49.88281,37.22656c-0.4527-0.68066-1.51733-0.53967-1.78027,0.23242C46.21387,43.02637,41.63672,47.1748,36,48.51855
		c0,0,0-0.5163,0-0.51855c0-0.77795-0.90851-1.26147-1.55469-0.83203l-6,4C28.16699,51.35352,28,51.66602,28,52
		s0.16699,0.64648,0.44531,0.83203l6,4C35.0932,57.26392,36,56.77985,36,56v-1.35352
		c7.18066-1.25586,13.34473-5.84863,16.60547-12.42188c0.15918-0.32031,0.13477-0.7002-0.0625-0.99805
		C52.54297,41.22656,49.89246,37.24109,49.88281,37.22656z"/>
	<path d="M26.54102,48.10254C20.97363,46.21387,16.8252,41.63672,15.48145,36c0,0,0.51764,0,0.51855,0
		c0.78406,0,1.26984-0.90009,0.83203-1.55469l-4-6c-0.37109-0.55664-1.29297-0.55664-1.66406,0c0,0-3.99341,5.99011-4,6
		C6.73151,35.09998,7.21613,36,8,36h1.35352c1.25586,7.18066,5.84863,13.34473,12.42194,16.60547
		c0.32031,0.16016,0.70105,0.13373,0.99799-0.0625c0,0,3.98718-2.65167,3.99994-2.66016
		C27.45435,49.42993,27.31018,48.36444,26.54102,48.10254z"/>
	<path d="M32.66406,19.25293c-0.3584-0.32031-0.89551-0.33984-1.27832-0.04199S22,26.60742,22,35c0,5.51367,4.48633,10,10,10
		s10-4.48633,10-10C42,27.63574,33.0459,19.5918,32.66406,19.25293z M32,41c-3.30859,0-6-2.69141-6-6c0-0.55273,0.44727-1,1-1
		s1,0.44727,1,1c0,2.20605,1.79395,4,4,4c0.55273,0,1,0.44727,1,1S32.55273,41,32,41z"/>
</g>
</svg>
