<?xml version="1.0" encoding="utf-8"?>
<!-- Generator: Adobe Illustrator 28.2.0, SVG Export Plug-In . SVG Version: 6.00 Build 0)  -->
<svg version="1.1" id="Glyph" xmlns="http://www.w3.org/2000/svg" xmlns:xlink="http://www.w3.org/1999/xlink" x="0px" y="0px"
	 viewBox="0 0 64 64" enable-background="new 0 0 64 64" xml:space="preserve">
<g>
	<rect x="43" y="37" width="6" height="4"/>
	<path d="M44,47.25V57h7V47h-7.05042C43.97125,47.08185,44,47.16132,44,47.25z"/>
	<path d="M35,57h7v-9.75c0-0.08868,0.02881-0.16815,0.05048-0.25H35V57z"/>
	<rect x="35" y="37" width="6" height="4"/>
	<path d="M56,31h-1v-6c0-0.4043-0.24316-0.76904-0.61719-0.92383c-0.37402-0.1543-0.80273-0.06982-1.08984,0.2168L48,29.58594V25
		c0-0.4043-0.24316-0.76904-0.61719-0.92383c-0.37402-0.1543-0.80371-0.06982-1.08984,0.2168L41,29.58594V25
		c0-0.4043-0.24316-0.76904-0.61719-0.92383c-0.37305-0.1543-0.80371-0.06982-1.08984,0.2168L32.58594,31H8
		c-0.55273,0-1,0.44775-1,1v24c0,0.55225,0.44727,1,1,1h25V46c0-0.55225,0.44727-1,1-1h18c0.55273,0,1,0.44775,1,1v11h3
		c0.55273,0,1-0.44775,1-1V43H34c-0.55273,0-1-0.44775-1-1v-6c0-0.55225,0.44727-1,1-1h23v-3C57,31.44775,56.55273,31,56,31z
		 M17.00098,50.60986h-2.55957c-1.2373,0-2.34766-0.64062-2.96875-1.71387c-0.62305-1.07471-0.62598-2.3584-0.00879-3.43359
		l0.62128-1.09381l-0.94745,0.15778c-0.5459,0.08936-1.05957-0.27734-1.15039-0.82178
		c-0.09082-0.54492,0.27734-1.06006,0.82227-1.15088l3-0.5c0.48242-0.08154,0.96777,0.21045,1.11719,0.68506
		c0,0,0.83059,2.631,0.833,2.63866c0.16338,0.51754-0.13632,1.09197-0.65243,1.25493
		c-0.51947,0.16546-1.0891-0.1334-1.25381-0.65237c0,0-0.13745-0.43494-0.13745-0.43494l-0.51587,0.90857
		c-0.25977,0.45312-0.25781,0.99023,0.00293,1.44043c0.25977,0.44824,0.72266,0.71582,1.23828,0.71582h2.55957
		c0.55273,0,1,0.44775,1,1S17.55371,50.60986,17.00098,50.60986z M18.75,36.72705L16.93945,39.896
		c-0.27441,0.47803-0.88574,0.64648-1.36426,0.37207c-0.47949-0.27393-0.64648-0.88477-0.37207-1.36426l1.81055-3.16992
		C17.63574,34.64795,18.75293,34,20.00195,34c1.24805,0,2.36523,0.64795,2.9873,1.73291l1.81055,3.1709
		c0.0473,0.0827,0.06451,0.17194,0.08624,0.26001l0.37958-0.89478c0.21582-0.5083,0.80762-0.74512,1.31152-0.5293
		c0.50879,0.21582,0.74609,0.80322,0.53027,1.31152c0,0-1.1457,2.69765-1.14843,2.70409
		c-0.19257,0.45342-0.74239,0.71093-1.21485,0.56446l-2.88867-0.88916c-0.52832-0.16211-0.82422-0.72168-0.66211-1.25
		c0.16309-0.52637,0.7207-0.82373,1.25-0.66113l0.49139,0.15112l-1.68182-2.94458C20.99219,36.27148,20.52441,36,20.00195,36
		C19.47852,36,19.01074,36.27148,18.75,36.72705z M28.53027,48.896c-0.62109,1.07324-1.73145,1.71387-2.96875,1.71387h-2.12256
		l0.33252,0.31445c0.40137,0.37939,0.41992,1.0122,0.04004,1.41357c-0.3643,0.38491-1.0108,0.42143-1.41309,0.03956
		l-2.04688-1.93506c-0.20215-0.19043-0.31543-0.45557-0.31348-0.73242c0.00195-0.27734,0.11816-0.54102,0.32129-0.729
		l2.29688-2.12012c0.40624-0.37402,1.04004-0.34863,1.41309,0.05664c0.375,0.40576,0.34961,1.03857-0.05566,1.41309l-0.30267,0.2793
		h1.85052c0.51562,0,0.97852-0.26758,1.23828-0.71582c0.26074-0.4502,0.26269-0.9873,0.00488-1.43652l-0.7627-1.34375
		c-0.27344-0.47998-0.1045-1.09033,0.375-1.36328c0.48242-0.27295,1.0918-0.104,1.36328,0.37598l0.76074,1.33984
		C29.15625,46.5376,29.15332,47.82129,28.53027,48.896z"/>
	<rect x="51" y="37" width="6" height="4"/>
	<path d="M14,19h5c0.55273,0,1-0.44775,1-1c0-0.40869,0.24609-0.76074,0.59863-0.91602C21.31445,18.25537,22.59766,19,24,19
		c1.45703,0,2.77539-0.80176,3.47168-2.03613c0.02051,0.00293,0.04102,0.00586,0.06152,0.0083C28.2334,18.2085,29.55176,19,31,19
		c1.45703,0,2.77441-0.80176,3.47168-2.03564c0.67871,0.09277,1.37109,0.00586,2.03906-0.26123
		c1.15332-0.46143,2.03027-1.43945,2.34375-2.61523c0.333-1.24072,0.08496-2.52393-0.67969-3.521
		c-0.66797-0.87061-1.63672-1.41699-2.70801-1.54004C34.76562,7.79102,33.44824,7,32,7c-1.45703,0-2.77539,0.80176-3.47168,2.03613
		c-0.34961-0.04785-0.70703-0.04785-1.05664,0C26.77539,7.80176,25.45703,7,24,7c-1.43555,0-2.74609,0.78027-3.45117,2H18
		c-2.75684,0-5,2.24316-5,5v4C13,18.55225,13.44727,19,14,19z"/>
	<rect x="12" y="27" width="8" height="2"/>
	<path d="M22,22c0-0.55225-0.44727-1-1-1H11c-0.55273,0-1,0.44775-1,1v3h12V22z"/>
</g>
</svg>
