<?xml version="1.0" encoding="UTF-8"?>
<svg xmlns="http://www.w3.org/2000/svg" version="1.1" viewBox="0 0 64 64">
  <!-- Generator: Adobe Illustrator 28.7.1, SVG Export Plug-In . SVG Version: 1.2.0 Build 142)  -->
  <g>
    <g id="Glyph">
      <g>
        <path d="M30.59766,18c-2.20117-2.16895-5.70898-5-7.59766-5s-5.39648,2.83105-7.59766,5c2.20117,2.16895,5.70898,5,7.59766,5s5.39648-2.83105,7.59766-5ZM20,18c0-1.6543,1.3457-3,3-3s3,1.3457,3,3-1.3457,3-3,3-3-1.3457-3-3Z"/>
        <path d="M55,8H9c-1.10455,0-2,.89539-2,2v26h50V10c0-1.10461-.89545-2-2-2ZM13.27441,17.3125c.6123-.64648,6.08691-6.3125,9.72559-6.3125s9.11328,5.66602,9.72559,6.3125c.36621.38574.36621.98926,0,1.375-.6123.64648-6.08691,6.3125-9.72559,6.3125s-9.11328-5.66602-9.72559-6.3125c-.36621-.38574-.36621-.98926,0-1.375ZM52,33H12c-.55273,0-1-.44727-1-1s.44727-1,1-1h40c.55273,0,1,.44727,1,1s-.44727,1-1,1ZM52,29H12c-.55273,0-1-.44727-1-1s.44727-1,1-1h40c.55273,0,1,.44727,1,1s-.44727,1-1,1ZM52,24h-16c-.55273,0-1-.44727-1-1s.44727-1,1-1h16c.55273,0,1,.44727,1,1s-.44727,1-1,1ZM52,19h-16c-.55273,0-1-.44727-1-1s.44727-1,1-1h16c.55273,0,1,.44727,1,1s-.44727,1-1,1ZM52,14h-16c-.55273,0-1-.44727-1-1s.44727-1,1-1h16c.55273,0,1,.44727,1,1s-.44727,1-1,1Z"/>
        <circle cx="23" cy="18" r="1"/>
        <path d="M7,40c0,1.10455.89545,2,2,2h38v-1c0-.55273.44727-1,1-1s1,.44727,1,1v1h2v-1c0-.55273.44727-1,1-1s1,.44727,1,1v1h2c1.10455,0,2-.89545,2-2v-2H7v2Z"/>
        <path d="M39,50h-14c-2.76141,0-5,2.23859-5,5,0,.55225.44769,1,1,1h22c.55231,0,1-.44775,1-1,0-2.76141-2.23859-5-5-5Z"/>
        <rect x="25" y="44" width="14" height="4"/>
      </g>
    </g>
  </g>
</svg>