<?xml version="1.0" encoding="utf-8"?>
<!-- Generator: Adobe Illustrator 28.2.0, SVG Export Plug-In . SVG Version: 6.00 Build 0)  -->
<svg version="1.1" id="Glyph" xmlns="http://www.w3.org/2000/svg" xmlns:xlink="http://www.w3.org/1999/xlink" x="0px" y="0px"
	 viewBox="0 0 64 64" enable-background="new 0 0 64 64" xml:space="preserve">
<g>
	<rect x="51" y="35" width="6" height="4"/>
	<path d="M28,44v-1h-1c-2.75684,0-5,2.24316-5,5v1h1C25.75684,49,28,46.75684,28,44z"/>
	<rect x="43" y="35" width="6" height="4"/>
	<rect x="35" y="35" width="6" height="4"/>
	<path d="M56,29h-1v-6c0-0.4043-0.24316-0.76953-0.61719-0.92383c-0.37402-0.15625-0.80273-0.06934-1.08984,0.2168L48,27.58594V23
		c0-0.4043-0.24316-0.76953-0.61719-0.92383c-0.37402-0.15625-0.80371-0.06934-1.08984,0.2168L41,27.58594V23
		c0-0.4043-0.24316-0.76953-0.61719-0.92383c-0.37305-0.15625-0.80371-0.06934-1.08984,0.2168L32.58594,29H8
		c-0.55273,0-1,0.44727-1,1v26c0,0.55273,0.44727,1,1,1h12v-6h-1c-3.85938,0-7-3.14062-7-7v-2c0-0.55273,0.44727-1,1-1h2
		c2.54761,0,4.77539,1.37299,6,3.41339C22.22461,42.37299,24.45239,41,27,41h2c0.55273,0,1,0.44727,1,1v2c0,3.85938-3.14062,7-7,7
		h-1v6h11V44c0-0.55273,0.44727-1,1-1h18c0.55273,0,1,0.44727,1,1v13h3c0.55273,0,1-0.44727,1-1V41H34c-0.55273,0-1-0.44727-1-1v-6
		c0-0.55273,0.44727-1,1-1h23v-3C57,29.44727,56.55273,29,56,29z"/>
	<path d="M15,43h-1v1c0,2.75684,2.24316,5,5,5h1v-1C20,45.24316,17.75684,43,15,43z"/>
	<rect x="35" y="45" width="7" height="12"/>
	<rect x="44" y="45" width="7" height="12"/>
	<path d="M32,23c4.40997,0,8-3.59003,8-8c0-4.41003-3.59003-8-8-8s-8,3.58997-8,8C24,19.40997,27.59003,23,32,23z
		 M29.16998,14.45001l2-3c0.29999-0.46002,0.92004-0.59003,1.38-0.28003c0.46002,0.29999,0.59003,0.91998,0.28003,1.38L31.87,14H34
		c0.37,0,0.71002,0.20001,0.88,0.52997c0.17999,0.32001,0.15997,0.72003-0.04999,1.02002c0,0-1.99689,2.99536-2,3
		c-0.28528,0.42792-0.92438,0.60175-1.38,0.27997c-0.46002-0.29999-0.59003-0.91998-0.28003-1.37994L32.13,16H30
		c-0.37,0-0.71002-0.20001-0.88-0.53003C28.94,15.14996,28.96002,14.75,29.16998,14.45001z"/>
	<path d="M22,20c0-0.55273-0.44727-1-1-1H11c-0.55273,0-1,0.44727-1,1v3h12V20z"/>
	<rect x="12" y="25" width="8" height="2"/>
</g>
</svg>
