<?xml version="1.0" encoding="UTF-8"?>
<svg xmlns="http://www.w3.org/2000/svg" version="1.1" viewBox="0 0 64 64">
  <!-- Generator: Adobe Illustrator 28.7.1, SVG Export Plug-In . SVG Version: 1.2.0 Build 142)  -->
  <g>
    <g id="Glyph">
      <g>
        <circle cx="18" cy="48" r="2"/>
        <path d="M18,41c-3.85999,0-7,3.14001-7,7s3.14001,7,7,7,7-3.14001,7-7-3.14001-7-7-7ZM18,52c-2.21002,0-4-1.79004-4-4s1.78998-4,4-4,4,1.78998,4,4-1.78998,4-4,4Z"/>
        <circle cx="47.5" cy="45.5" r="4.5"/>
        <path d="M47.5,36c-5.23999,0-9.5,4.26001-9.5,9.5s4.26001,9.5,9.5,9.5,9.5-4.26001,9.5-9.5-4.26001-9.5-9.5-9.5ZM47.5,52c-3.58002,0-6.5-2.92004-6.5-6.5s2.91998-6.5,6.5-6.5,6.5,2.91998,6.5,6.5-2.91998,6.5-6.5,6.5Z"/>
        <path d="M20,22c0-1.6543,1.3457-3,3-3s3,1.3457,3,3v7h1c.29688,0,.57812.13184.76855.35986l4.7002,5.64014h6.21637l-9.28082-23.94873c-.40918-1.22705-1.55273-2.05127-2.8457-2.05127h-7.55859c-1.6543,0-3,1.3457-3,3v17h4v-7Z"/>
        <path d="M22,22v7h2v-7c0-.55127-.44824-1-1-1s-1,.44873-1,1Z"/>
        <path d="M39.76001,37h-7.76147c-.29688,0-.57849-.1319-.76855-.35999l-4.69995-5.64001H9c-1.10455,0-2,.89539-2,2v11c0,1.32996.88,2.45996,2.08002,2.84998.56-4.41998,4.34998-7.84998,8.91998-7.84998,4.62,0,8.45001,3.51001,8.94,8h9.15997c-.06995-.48999-.09998-.98999-.09998-1.5,0-3.35999,1.45001-6.39001,3.76001-8.5ZM13,36c0,.54999-.45001,1-1,1s-1-.45001-1-1v-2c0-.54999.45001-1,1-1s1,.45001,1,1v2ZM17,36c0,.54999-.45001,1-1,1s-1-.45001-1-1v-2c0-.54999.45001-1,1-1s1,.45001,1,1v2ZM21,36c0,.54999-.45001,1-1,1s-1-.45001-1-1v-2c0-.54999.45001-1,1-1s1,.45001,1,1v2Z"/>
      </g>
    </g>
  </g>
</svg>