<?xml version="1.0" encoding="UTF-8"?>
<svg id="Glyph" xmlns="http://www.w3.org/2000/svg" version="1.1" viewBox="0 0 64 64">
  <circle cx="34.99997" cy="21.00013" r="2" style="fill: #000; stroke-width: 0px;"/>
  <path d="M56.51462,38.14271l-4.46973-2.68164.95215-12.38379c.01367-.18164-.02148-.3623-.10254-.52441l-3-6c-.04785-.0957-.11133-.18359-.1875-.25977l-2.85449-2.85449-1.92383-4.80957c-.12598-.31445-.40137-.54297-.73242-.60938l-5-1c-.28223-.05664-.56934.00977-.7959.18066l-3.81934,2.86328-9.77734,1.95605c-.15625.03125-.30371.09961-.42871.19922l-5,4c-.18848.15137-.31543.36523-.3584.60254l-1.88965,10.3877-6.40137,1.8291c-.38867.11133-.67285.44531-.71875.84766l-3,26c-.0332.2832.05664.56641.24707.7793.18945.21289.46094.33496.74609.33496h48c.55273,0,1-.44727,1-1v-17c0-.35156-.18457-.67676-.48535-.85742ZM39.99997,16.00013h2c.55273,0,1,.44727,1,1s-.44727,1-1,1h-2c-.55273,0-1-.44727-1-1s.44727-1,1-1ZM32.99997,13.00013h2c.55273,0,1,.44727,1,1s-.44727,1-1,1h-2c-.55273,0-1-.44727-1-1s.44727-1,1-1ZM20.99997,31.00013h2c.55273,0,1,.44727,1,1s-.44727,1-1,1h-2c-.55273,0-1-.44727-1-1s.44727-1,1-1ZM16.99997,37.00013h2c.55273,0,1,.44727,1,1s-.44727,1-1,1h-2c-.55273,0-1-.44727-1-1s.44727-1,1-1ZM16.99997,50.00013h-2c-.55273,0-1-.44727-1-1s.44727-1,1-1h2c.55273,0,1,.44727,1,1s-.44727,1-1,1ZM29.99997,51.00013h-2c-.55273,0-1-.44727-1-1s.44727-1,1-1h2c.55273,0,1,.44727,1,1s-.44727,1-1,1ZM39.99997,33.41419v18.58594c0,1.6543-1.3457,3-3,3s-3-1.3457-3-3v-8.38184l-.89453.44727c-1.36426.68262-2.96875.53809-4.18848-.37793l-1.82324-1.36719-2.88672,2.88672c-1.2168,1.2168-3.19727,1.2168-4.41406,0s-1.2168-3.19727,0-4.41406l6.20703-6.20703v-3.17188l-2.70703-2.70703c-.1875-.1875-.29297-.44141-.29297-.70703v-9c0-1.6543,1.3457-3,3-3s3,1.3457,3,3v2.58594l2.41406,2.41406h.96796c-.83978-.7337-1.38202-1.7995-1.38202-3,0-2.20605,1.79395-4,4-4s4,1.79395,4,4c0,1.2005-.54224,2.2663-1.38202,3h1.38202c.26562,0,.51953.10547.70703.29297l2.29297,2.29297,1.79297-1.79297c1.2168-1.2168,3.19727-1.2168,4.41406,0s1.2168,3.19727,0,4.41406l-5.5,5.5c-.39062.39062-1.02344.39062-1.41406,0l-1.29297-1.29297ZM46.99997,37.00013c0,.55273-.44727,1-1,1h-2c-.55273,0-1-.44727-1-1s.44727-1,1-1h2c.55273,0,1,.44727,1,1ZM41.99997,44.00013c0-.55273.44727-1,1-1h2c.55273,0,1,.44727,1,1s-.44727,1-1,1h-2c-.55273,0-1-.44727-1-1ZM45.99997,50.00013h-2c-.55273,0-1-.44727-1-1s.44727-1,1-1h2c.55273,0,1,.44727,1,1s-.44727,1-1,1ZM49.99997,44.00013h-2c-.55273,0-1-.44727-1-1s.44727-1,1-1h2c.55273,0,1,.44727,1,1s-.44727,1-1,1Z" style="fill: #000; stroke-width: 0px;"/>
  <path d="M46.79294,27.7931c.4375-.4375.4375-1.14844,0-1.58594s-1.14844-.4375-1.58594,0l-2.5,2.5c-.39062.39062-1.02344.39062-1.41406,0l-2.70703-2.70703h-7.58594c-.26562,0-.51953-.10547-.70703-.29297l-3-3c-.1875-.1875-.29297-.44141-.29297-.70703v-3c0-.55176-.44824-1-1-1s-1,.44824-1,1v8.58594l2.70703,2.70703c.1875.1875.29297.44141.29297.70703v4c0,.26562-.10547.51953-.29297.70703l-6.5,6.5c-.4375.4375-.4375,1.14844,0,1.58594s1.14844.4375,1.58594,0l3.5-3.5c.35059-.35352.90918-.39258,1.30664-.09277l2.5166,1.8877c.60938.45703,1.41309.53027,2.09473.18848l2.34179-1.17089c.28585-.14293.67813-.13925.97267.04394.29492.18262.47461.50391.47461.85059v10c0,.55176.44824,1,1,1s1-.44824,1-1v-21c0-.4043.24316-.76953.61719-.92383.37402-.15527.80371-.06934,1.08984.2168l2.29297,2.29297,4.79297-4.79297Z" style="fill: #000; stroke-width: 0px;"/>
</svg>