<?xml version="1.0" encoding="UTF-8"?>
<svg xmlns="http://www.w3.org/2000/svg" version="1.1" viewBox="0 0 48 48">
  <!-- Generator: Adobe Illustrator 28.7.1, SVG Export Plug-In . SVG Version: 1.2.0 Build 142)  -->
  <g>
    <g id="Glyph">
      <g>
        <path d="M20.30007,35.66663h-2.19464c-.41351,0-.77301-.28552-.87323-.69373l-.21796-.89075c-.30145-1.22546-1.37854-2.08215-2.61957-2.08215h-5.21893c-1.28278,0-2.39636.9292-2.64771,2.21021l-1.51044,7.69318c-.05316.26947.01538.54877.18634.76093s.42627.33569.69611.33569h14.40002c1.48883,0,2.69995-1.23358,2.69995-2.75v-1.83337c0-1.51642-1.21112-2.75-2.69995-2.75ZM10.8594,39.19629c-.09473.47559-.5127.80371-.97949.80371-.06494,0-.13086-.00586-.19727-.01953-.5415-.1084-.89258-.63477-.78418-1.17676l.3999-2c.10791-.54199.63281-.89551,1.17676-.78418.5415.1084.89258.63477.78418,1.17676l-.3999,2Z"/>
        <path d="M41.44485,30.29718c-.17303-1.30969-1.29156-2.29718-2.60193-2.29718h-4.14771c-1.16553,0-2.20374.78931-2.52417,1.9198l-1.28174,4.5238-1.40564.70825c-.29651.14996-.48364.45496-.48364.78931v6.17645c0,.48773.39178.88239.875.88239h12.25c.25208,0,.49219-.10944.65839-.30072.1662-.1922.24225-.44635.20892-.698l-1.54749-11.7041ZM38.70706,36.70703l-3,3c-.19531.19531-.45117.29297-.70703.29297s-.51172-.09766-.70703-.29297c-.39062-.39062-.39062-1.02344,0-1.41406l3-3c.39062-.39062,1.02344-.39062,1.41406,0s.39062,1.02344,0,1.41406Z"/>
        <path d="M30.25003,29.38c.56-1.98999,2.39001-3.38,4.45001-3.38h4.14001c.04999,0,.10999,0,.15997.01001v-2.01001c0-.04004,0-.07001-.01001-.10999l-1.79999-16.22003c-.15997-1.52002-1.44-2.66998-2.97998-2.66998h-14.67999c-1.35004,0-2.54004.90997-2.89001,2.20996l-1.51001,5.51001,4.58002,4.57001c.17999.19.28998.44.28998.71002v5.58997l3.5,3.5,3.78998-3.79999c.39001-.39001,1.03003-.39001,1.42004,0,.38995.39001.38995,1.03003,0,1.41998l-4.5,4.5c-.20001.19-.45001.29004-.71002.29004s-.51001-.10004-.71002-.29004l-4.5-4.5c-.17999-.19-.28998-.44-.28998-.70996v-5.59003l-3.46997-3.46997-.40002,1.45001c-.03003.12-.08002.21997-.15002.31995l-4.41998,6.19c-.37.51001-.56,1.11005-.56,1.74005v5.37c.06-.01001.12-.01001.17999-.01001h5.21002c2.16998,0,4.03998,1.47998,4.57001,3.59998l.00995.07001h1.33002c2.59003,0,4.70001,2.13,4.70001,4.75v1.83002c0,1.01996-.32001,1.96997-.88,2.75h3.02002c-.09003-.28003-.14001-.57001-.14001-.88v-6.17999c0-1.09003.60999-2.08002,1.58002-2.57001l.62-.32001,1.04999-3.66998ZM33.00003,23c-.54999,0-1-.45001-1-1s.45001-1,1-1,1,.45001,1,1-.45001,1-1,1ZM24.00003,10c.54999,0,1,.45001,1,1s-.45001,1-1,1-1-.45001-1-1,.45001-1,1-1ZM28.79,19.20996l-3.19995-3.20996h-3.59003c-.54999,0-1-.45001-1-1s.45001-1,1-1h4c.27002,0,.52002.10999.71002.28998l2.78998,2.79999,2.09003-2.08997-1.30005-1.29004c-.38995-.38995-.38995-1.02997,0-1.41998l2-2c.39001-.39001,1.03003-.39001,1.42004,0,.38995.39001.38995,1.03003,0,1.41998l-1.30005,1.29004,1.30005,1.28998c.38995.39001.38995,1.03003,0,1.41998l-3.5,3.5c-.20001.19-.45001.29004-.71002.29004s-.51001-.10004-.71002-.29004Z"/>
      </g>
    </g>
  </g>
</svg>