<?xml version="1.0" encoding="UTF-8"?>
<svg xmlns="http://www.w3.org/2000/svg" version="1.1" viewBox="0 0 64 64">
  <!-- Generator: Adobe Illustrator 28.7.1, SVG Export Plug-In . SVG Version: 1.2.0 Build 142)  -->
  <g>
    <g id="Glyph">
      <g>
        <path d="M51,23v-13c0-1.6543-1.3457-3-3-3H16c-1.6543,0-3,1.3457-3,3v13h38ZM39,11c0-.46387.31934-.86621.77051-.97363.44629-.10352.91699.11133,1.12402.52637l2.10547,4.21094v-3.76367c0-.55273.44727-1,1-1s1,.44727,1,1c0,0,0,7.98703,0,8.00006,0,.54259-.46045.99994-1,.99994-.37207,0-.72266-.20801-.89453-.55273l-2.10547-4.21094v3.76367c0,.55273-.44727,1-1,1s-1-.44727-1-1v-8ZM31,13c0-1.6543,1.3457-3,3-3s3,1.3457,3,3c0,.55273-.44727,1-1,1s-1-.44727-1-1c0-.55176-.44824-1-1-1s-1,.44824-1,1v4c0,.55176.44824,1,1,1s1-.44824,1-1c-.55273,0-1-.44727-1-1s.44727-1,1-1h1c.55273,0,1,.44727,1,1v1c0,1.6543-1.3457,3-3,3s-3-1.3457-3-3v-4ZM27,11c0-.55273.44727-1,1-1s1,.44727,1,1v8c0,.55273-.44727,1-1,1s-1-.44727-1-1v-8ZM22,16c-1.6543,0-3-1.3457-3-3s1.3457-3,3-3h2c.55273,0,1,.44727,1,1s-.44727,1-1,1h-2c-.55176,0-1,.44824-1,1s.44824,1,1,1c1.6543,0,3,1.3457,3,3s-1.3457,3-3,3h-2c-.55273,0-1-.44727-1-1s.44727-1,1-1h2c.55176,0,1-.44824,1-1s-.44824-1-1-1Z"/>
        <path d="M18.18433,55c.41412,1.1615,1.51373,2,2.81567,2h22c1.30194,0,2.40161-.8385,2.81573-2h-27.63141Z"/>
        <path d="M13,25v25c0,1.64996,1.34998,3,3,3h32c1.65002,0,3-1.35004,3-3v-25H13ZM18,50c-.54999,0-1-.45001-1-1s.45001-1,1-1,1,.45001,1,1-.45001,1-1,1ZM18,30c-.54999,0-1-.45001-1-1s.45001-1,1-1,1,.45001,1,1-.45001,1-1,1ZM25.98999,43.12s-.60999,2.27997-.61001,2.28005c-.14053.49101-.75152.82528-1.22001.69993l-2.27997-.60999c-.53003-.14001-.84998-.69-.71002-1.22003.15002-.52997.70001-.84998,1.23004-.70996l.08997.02997c-.22998-.58997-.41998-1.19995-.53998-1.83997-.12-.62-.17999-1.27002-.17999-1.92004,0-3.71997,2.01996-7.12994,5.26996-8.90997.49005-.26001,1.09003-.09003,1.36005.40002.25995.47998.08997,1.08997-.40002,1.35999-2.60999,1.41998-4.22998,4.16998-4.22998,7.14996,0,.52002.04999,1.04004.14996,1.55005.06.33997.15002.65997.26001.98999.22003-.38.66003-.59003,1.10004-.47003.53998.14001.84998.69.70996,1.22003ZM41.15625,46.92774c-.54132.1787-1.04929-.19687-1.21625-.69776l-.03003-.09998c-.39996.51001-.83997.97998-1.32996,1.39996-1.84003,1.59003-4.20001,2.47003-6.64001,2.47003-1.87,0-3.69-.51001-5.27002-1.47003-.46997-.28998-.63-.89996-.33997-1.37.28998-.47998.89996-.63,1.38-.33997,1.25995.76996,2.72998,1.17999,4.22998,1.17999,1.96002,0,3.84998-.71002,5.33002-1.98999.26001-.22003.51001-.47003.73999-.72003-.44-.01001-.84003-.27997-.96002-.72998-.14001-.53003.16998-1.08002.71002-1.22003,0,0,2.14996-.57996,2.15997-.57996,0,0,.10875-.02968.11031-.0301.51841-.14102,1.09284.20072,1.22972.71009.00014.00054.60814,2.26311.61,2.27.1307.48651-.23469,1.05958-.71376,1.21774ZM42.09998,40.02997c0,.54999-.44,1-1,1-.54999,0-1-.45001-1-1v-.20001c0-3.47998-2.19995-6.57996-5.47998-7.70996-.33002-.10999-.65997-.20001-1-.27002.22003.38.17999.85998-.14001,1.19-.37243.38409-1.03811.38188-1.41999,0,0,0-1.56-1.56-1.58003-1.58003-.19736-.22206-.37999-.4792-.37999-.78996,0-.27002.11005-.52002.30005-.71002l1.65997-1.66998c.39001-.39001,1.03003-.39001,1.41998,0,.39001.39001.39001,1.03003,0,1.41998l-.07001.07001c.64001.09003,1.27002.23999,1.87006.45001,4.07996,1.41003,6.81995,5.27002,6.81995,9.59998v.20001ZM46,50c-.54999,0-1-.45001-1-1s.45001-1,1-1,1,.45001,1,1-.45001,1-1,1ZM46,30c-.54999,0-1-.45001-1-1s.45001-1,1-1,1,.45001,1,1-.45001,1-1,1Z"/>
      </g>
    </g>
  </g>
</svg>