<?xml version="1.0" encoding="UTF-8"?>
<svg id="Glyph" xmlns="http://www.w3.org/2000/svg" version="1.1" viewBox="0 0 48 48">
  <path d="M40,37c-1.30194,0-2.40161.8385-2.81573,2H10.82941c-.41412-1.1615-1.51379-2-2.81573-2-1.6543,0-3,1.3457-3,3s1.3457,3,3,3c1.30194,0,2.40161-.8385,2.81573-2h26.35492c.41412,1.1615,1.51373,2,2.81567,2,1.6543,0,3-1.3457,3-3s-1.3457-3-3-3Z" fill="#000" stroke-width="0"/>
  <path d="M8.01367,35c1.30194,0,2.40161-.8385,2.81573-2h26.35492c.41412,1.1615,1.51373,2,2.81567,2,1.6543,0,3-1.3457,3-3s-1.3457-3-3-3c-1.30194,0-2.40161.8385-2.81573,2H10.82941c-.41412-1.1615-1.51379-2-2.81573-2-1.6543,0-3,1.3457-3,3s1.3457,3,3,3Z" fill="#000" stroke-width="0"/>
  <path d="M23,11h-4c-.55127,0-1,.44824-1,1v1h5v-2Z" fill="#000" stroke-width="0"/>
  <path d="M30,12c0-.55176-.44873-1-1-1h-4v2h5v-1Z" fill="#000" stroke-width="0"/>
  <path d="M19,21h10c.55127,0,1-.44824,1-1v-5h-12v5c0,.55176.44873,1,1,1ZM27,17c.55231,0,1,.44769,1,1,0,.55225-.44769,1-1,1s-1-.44775-1-1c0-.55231.44769-1,1-1ZM21,17c.55231,0,1,.44769,1,1,0,.55225-.44769,1-1,1s-1-.44775-1-1c0-.55231.44769-1,1-1Z" fill="#000" stroke-width="0"/>
  <path d="M15,27h5.69727s2.73792,1.82526,2.74805,1.83197c.31024.20685.78137.21936,1.10938.00006l2.74805-1.83203h5.69727c1.6543,0,3-1.3457,3-3V8c0-1.6543-1.3457-3-3-3H15c-1.6543,0-3,1.3457-3,3v16c0,1.6543,1.3457,3,3,3ZM16,12c0-1.6543,1.3457-3,3-3h10c1.6543,0,3,1.3457,3,3v8c0,1.6543-1.3457,3-3,3h-10c-1.6543,0-3-1.3457-3-3v-8Z" fill="#000" stroke-width="0"/>
</svg>