<?xml version="1.0" encoding="UTF-8"?>
<svg xmlns="http://www.w3.org/2000/svg" version="1.1" viewBox="0 0 64 64">
  <!-- Generator: Adobe Illustrator 28.7.1, SVG Export Plug-In . SVG Version: 1.2.0 Build 142)  -->
  <g>
    <g id="Glyph">
      <g>
        <path d="M25,44h-1.18066l-.83887-4.19629c-.09375-.4668-.50391-.80371-.98047-.80371h-3c-.55273,0-1,.44727-1,1v4.13281l-5.31543.75879-.73633-2.20801c-.13574-.4082-.51758-.68359-.94824-.68359h-3c-.55273,0-1,.44727-1,1v10c0,.55273.44727,1,1,1h3c.43066,0,.8125-.27539.94824-.68359l.73633-2.20801,5.31543.75879v4.13281c0,.55273.44727,1,1,1h3c.47656,0,.88672-.33691.98047-.80371l.83887-4.19629h1.18066c2.20605,0,4-1.79395,4-4s-1.79395-4-4-4Z"/>
        <circle cx="50" cy="14" r="1"/>
        <path d="M50,25c.28003,0,.54999-.12.73999-.33002.64001-.71997,6.26001-7.08002,6.26001-10.66998,0-3.85999-3.14001-7-7-7s-7,3.14001-7,7c0,3.58997,5.62,9.95001,6.26001,10.66998.19.21002.45996.33002.73999.33002ZM47,14c0-1.65002,1.34998-3,3-3s3,1.34998,3,3-1.34998,3-3,3-3-1.35004-3-3Z"/>
        <path d="M18.85644,35c-.55273,0-1,.44727-1,1s.44727,1,1,1h4c.55273,0,1-.44727,1-1s-.44727-1-1-1h-4Z"/>
        <path d="M18.28711,25h4c.55273,0,1-.44727,1-1s-.44727-1-1-1h-4c-.55273,0-1,.44727-1,1s.44727,1,1,1Z"/>
        <path d="M14,35c-.87988,0-1.74414-.23145-2.5-.66895-.47656-.27832-1.08887-.11426-1.36621.36426-.27734.47754-.11426,1.08984.36426,1.36621,1.05957.61426,2.27051.93848,3.50195.93848h.85645c.55273,0,1-.44727,1-1s-.44727-1-1-1h-.85645Z"/>
        <path d="M42.28711,25h3.71289c.55273,0,1-.44727,1-1s-.44727-1-1-1h-3.71289c-.55273,0-1,.44727-1,1s.44727,1,1,1Z"/>
        <path d="M26.28711,25h4c.55273,0,1-.44727,1-1s-.44727-1-1-1h-4c-.55273,0-1,.44727-1,1s.44727,1,1,1Z"/>
        <path d="M34.28711,25h4c.55273,0,1-.44727,1-1s-.44727-1-1-1h-4c-.55273,0-1,.44727-1,1s.44727,1,1,1Z"/>
        <path d="M47.85644,36c0-.55273-.44727-1-1-1h-4c-.55273,0-1,.44727-1,1s.44727,1,1,1h4c.55273,0,1-.44727,1-1Z"/>
        <path d="M44,47h-4c-.55273,0-1,.44727-1,1s.44727,1,1,1h4c.55273,0,1-.44727,1-1s-.44727-1-1-1Z"/>
        <path d="M55.03223,38.58203c.39941-.38086.41406-1.01465.0332-1.41406-1.08008-1.13281-2.52637-1.87793-4.07129-2.09961-.5459-.07715-1.05371.30176-1.13184.84863s.30176,1.05371.84863,1.13184c1.10249.15722,2.13467.69038,2.90712,1.49989.3789.39708,1.01823.40936,1.41417.03332Z"/>
        <path d="M51.63574,46.72656c-.52344.18164-1.07422.27344-1.63574.27344h-2c-.55273,0-1,.44727-1,1s.44727,1,1,1h2c.78516,0,1.55566-.12891,2.29004-.38281.52148-.18066.79883-.75.61816-1.27246-.18164-.52148-.75-.79688-1.27246-.61816Z"/>
        <path d="M55.875,40.43359c-.5498.05371-.95117.54395-.89746,1.09277.01562.15625.02246.31445.02246.47461.00098.96094-.27344,1.89551-.79199,2.70117-.29883.46387-.16504,1.08301.29987,1.38188.46128.29668,1.08552.15963,1.38177-.29985.72754-1.12891,1.11133-2.43848,1.11035-3.78418,0-.22559-.01074-.44824-.03223-.66895-.05371-.54883-.53711-.94531-1.09277-.89746Z"/>
        <path d="M8.42779,33.22799c.69726.00643,1.1851-.72648.92767-1.37058-.23535-.58887-.35547-1.21387-.35547-1.85742,0-.48145.06738-.95605.20117-1.41016.15527-.53027-.14844-1.08496-.67871-1.24121-.5293-.15527-1.08594.14844-1.24121.67871-.18652.63672-.28125,1.30078-.28125,1.97266,0,.89936.16795,1.77432.49994,2.60143.1536.38268.53369.62291.92785.62657Z"/>
        <path d="M39.85644,36c0-.55273-.44727-1-1-1h-4c-.55273,0-1,.44727-1,1s.44727,1,1,1h4c.55273,0,1-.44727,1-1Z"/>
        <path d="M31.85644,36c0-.55273-.44727-1-1-1h-4c-.55273,0-1,.44727-1,1s.44727,1,1,1h4c.55273,0,1-.44727,1-1Z"/>
        <path d="M10.52162,26.1074c.20205.00028.40549-.05923.57994-.1826.84766-.60547,1.84668-.9248,2.89844-.9248,0,0,.28711,0,.28735,0,.5442-.00013.99976-.45309.99976-1,0-.55273-.44727-1-1-1h-.2959c-1.46183,0-2.86214.44819-4.05155,1.29575-.77323.551-.36312,1.81032.58197,1.81165Z"/>
        <path d="M36,47h-4c-.55273,0-1,.44727-1,1s.44727,1,1,1h4c.55273,0,1-.44727,1-1s-.44727-1-1-1Z"/>
      </g>
    </g>
  </g>
</svg>