<?xml version="1.0" encoding="UTF-8"?>
<svg xmlns="http://www.w3.org/2000/svg" version="1.1" viewBox="0 0 64 64">
  <!-- Generator: Adobe Illustrator 28.7.1, SVG Export Plug-In . SVG Version: 1.2.0 Build 142)  -->
  <g>
    <g id="Glyph">
      <g>
        <path d="M25,26.18427v-3.09393c-2.50714.42328-4.48639,2.40253-4.90967,4.90967h3.09393c.30206-.84717.96857-1.51367,1.81573-1.81573Z"/>
        <circle cx="26" cy="29" r="1"/>
        <path d="M27,31.81573v3.09393c2.50714-.42328,4.48639-2.40253,4.90967-4.90967h-3.09393c-.30206.84717-.96857,1.51367-1.81573,1.81573Z"/>
        <path d="M23.18433,30h-3.09399c.42328,2.50714,2.40253,4.48639,4.90967,4.90967v-3.09399c-.84717-.30206-1.51361-.96851-1.81567-1.81567Z"/>
        <path d="M27,23.09033v3.09393c.84717.30206,1.51367.96857,1.81573,1.81573h3.09393c-.42328-2.50714-2.40253-4.48639-4.90967-4.90967Z"/>
        <path d="M14,25c.55127,0,1-.44824,1-1v-4c0-.55176-.44873-1-1-1s-1,.44824-1,1v4c0,.55176.44873,1,1,1Z"/>
        <path d="M15,34c0-.55176-.44873-1-1-1s-1,.44824-1,1v4c0,.55176.44873,1,1,1s1-.44824,1-1v-4Z"/>
        <path d="M46.40625,53.10938c.37097.5564.99542.89062,1.66412.89062h3.92963c1.10455,0,2-.89545,2-2v-1h-9l1.40625,2.10938Z"/>
        <rect x="38" y="22" width="8" height="2"/>
        <path d="M54,10H10c-1.65686,0-3,1.34314-3,3v33c0,1.65686,1.34314,3,3,3h44c1.65686,0,3-1.34314,3-3V13c0-1.65686-1.34314-3-3-3ZM53,42c0,1.6543-1.3457,3-3,3H16c-1.6543,0-3-1.3457-3-3v-1.18433c-1.1615-.41412-2-1.51373-2-2.81567v-4c0-1.30194.8385-2.40161,2-2.81573v-4.36859c-1.1615-.41412-2-1.51373-2-2.81567v-4c0-1.30194.8385-2.40161,2-2.81573v-1.18427c0-1.6543,1.3457-3,3-3h34c1.6543,0,3,1.3457,3,3v26Z"/>
        <path d="M50,15H16c-.55127,0-1,.44824-1,1v1.18427c1.1615.41412,2,1.51379,2,2.81573v4c0,1.30194-.8385,2.40161-2,2.81573v4.36853c1.1615.41412,2,1.51379,2,2.81573v4c0,1.30194-.8385,2.40161-2,2.81573v1.18427c0,.55176.44873,1,1,1h34c.55127,0,1-.44824,1-1v-26c0-.55176-.44873-1-1-1ZM26,37c-4.41113,0-8-3.58887-8-8s3.58887-8,8-8,8,3.58887,8,8-3.58887,8-8,8ZM37,38c-.55231,0-1-.44775-1-1,0-.55231.44769-1,1-1s1,.44769,1,1c0,.55225-.44769,1-1,1ZM37,34c-.55231,0-1-.44775-1-1,0-.55231.44769-1,1-1s1,.44769,1,1c0,.55225-.44769,1-1,1ZM37,30c-.55231,0-1-.44775-1-1,0-.55231.44769-1,1-1s1,.44769,1,1c0,.55225-.44769,1-1,1ZM42,38c-.55231,0-1-.44775-1-1,0-.55231.44769-1,1-1s1,.44769,1,1c0,.55225-.44769,1-1,1ZM42,34c-.55231,0-1-.44775-1-1,0-.55231.44769-1,1-1s1,.44769,1,1c0,.55225-.44769,1-1,1ZM42,30c-.55231,0-1-.44775-1-1,0-.55231.44769-1,1-1s1,.44769,1,1c0,.55225-.44769,1-1,1ZM47,38c-.55231,0-1-.44775-1-1,0-.55231.44769-1,1-1s1,.44769,1,1c0,.55225-.44769,1-1,1ZM47,34c-.55231,0-1-.44775-1-1,0-.55231.44769-1,1-1s1,.44769,1,1c0,.55225-.44769,1-1,1ZM47,30c-.55231,0-1-.44775-1-1,0-.55231.44769-1,1-1s1,.44769,1,1c0,.55225-.44769,1-1,1ZM48,25c0,.55273-.44775,1-1,1h-10c-.55225,0-1-.44727-1-1v-4c0-.55273.44775-1,1-1h10c.55225,0,1,.44727,1,1v4Z"/>
        <path d="M10,52c0,1.10455.89545,2,2,2h3.92963c.6687,0,1.29315-.33423,1.66412-.89062l1.40625-2.10938h-9v1Z"/>
      </g>
    </g>
  </g>
</svg>