<?xml version="1.0" encoding="UTF-8"?>
<svg id="Glyph" xmlns="http://www.w3.org/2000/svg" version="1.1" viewBox="0 0 64 64">
  <path d="M8.32001,49.98999l7.27997-2.42999c1.33002-.44,2.70001-.62,4.05005-.54004,1.5.07001,2.97998.46002,4.34998,1.14001l2.19,1.09003c1.82001.91998,3.81,1.37,5.81,1.37s3.98999-.45001,5.81-1.37l2.19-1.09003c1.39001-.67999,2.85999-1.08002,4.35999-1.14996,1.35004-.07001,2.72003.10999,4.04004.54999l7.27997,2.42999c.53003.17999,1.09003-.10999,1.27002-.63.16998-.52002-.10999-1.09003-.63-1.26001l-7.28998-2.42999c-1.02002-.34003-2.05005-.54999-3.10004-.64001,1.31-2.02997,2.07001-4.45001,2.07001-7.02997,0-.54999-.45001-1-1-1h-14v-2h13c.55225,0,1-.44727,1-1v-4c0-7.93347-6.1955-14.43085-14-14.94934v-7.05066c0-.4043-.24365-.76904-.61719-.92383-.375-.15527-.80371-.06982-1.08984.2168l-6,6c-.19873.19873-.30469.47168-.29199.75244s.14307.54297.35889.72266l5.64014,4.7002v17.53174h-14c-.54999,0-1,.45001-1,1,0,2.57996.76001,5,2.07001,7.02997-1.04999.09003-2.08002.29999-3.10004.64001l-7.28998,2.42999c-.52002.16998-.79999.73999-.63,1.26001.17999.52002.73999.81,1.27002.63ZM33.96777,28.39941l-.96777,1.742v-10.28296l.96777,1.74164c1.18213,2.12891,1.18213,4.6709,0,6.79932Z" style="fill: #000; stroke-width: 0px;"/>
  <path d="M56.31641,55.13965l-7.28467-2.42773c-3.29443-1.10059-6.81836-.84863-9.9248.7041l-2.1875,1.09375c-3.08008,1.54102-6.75879,1.54102-9.83887,0l-2.1875-1.09375c-3.10645-1.55273-6.63135-1.80371-9.9248-.7041l-7.28467,2.42773c-.52393.17383-.80713.74023-.63232,1.26465.17432.52344.73877.80859,1.26514.63184l7.28467-2.42773c2.78662-.92871,5.76904-.71777,8.39746.59668l2.1875,1.09375c1.82031.91016,3.81689,1.36523,5.81396,1.36523,1.99658,0,3.99414-.45508,5.81396-1.36523l2.1875-1.09375c2.62744-1.31445,5.61133-1.52539,8.39746-.59668l7.28467,2.42773c.52686.17676,1.09082-.1084,1.26514-.63184.1748-.52441-.1084-1.09082-.63232-1.26465Z" style="fill: #000; stroke-width: 0px;"/>
</svg>