<?xml version="1.0" encoding="UTF-8"?>
<svg id="Glyph" xmlns="http://www.w3.org/2000/svg" version="1.1" viewBox="0 0 64 64">
  <path d="M37.06653,23.09003c.32861-.41071.53345-.92432.53345-1.49005v-3.20001c0-1.32343-1.07654-2.39996-2.39996-2.39996h-6.40002c-1.32343,0-2.39996,1.07654-2.39996,2.39996v3.20001c0,.56573.20483,1.07935.53345,1.49005-3.35425.5163-5.93347,3.41345-5.93347,6.90997v16c0,2.76001,2.23999,5,5,5v-1c0-.23004.01001-.46002.03998-.69-1.17999-.35004-2.03998-1.45001-2.03998-2.73999,0-4.41003,3.59003-8,8-8s8,3.58997,8,8c0,1.28998-.85999,2.38995-2.03998,2.73999.02997.22998.03998.45996.03998.69v1c2.76001,0,5-2.23999,5-5v-16c0-3.49652-2.57922-6.39368-5.93347-6.90997ZM35,37h-6c-.54999,0-1-.45001-1-1s.45001-1,1-1h6c.54999,0,1,.45001,1,1s-.45001,1-1,1ZM35,33h-6c-.54999,0-1-.45001-1-1s.45001-1,1-1h6c.54999,0,1,.45001,1,1s-.45001,1-1,1ZM35,29h-6c-.54999,0-1-.45001-1-1s.45001-1,1-1h6c.54999,0,1,.45001,1,1s-.45001,1-1,1Z" style="fill: #000; stroke-width: 0px;"/>
  <path d="M32,40.57141c-3.30853,0-6,2.69147-6,6,0,.47144.38574.85712.85712.85712h1.46625c-.20715.48285-.32336,1.01355-.32336,1.57147v4c0,2.20605,1.79395,4,4,4s4-1.79395,4-4v-4c0-.55792-.11621-1.08862-.32336-1.57147h1.46625c.47137,0,.85712-.38568.85712-.85712,0-3.30853-2.69147-6-6-6Z" style="fill: #000; stroke-width: 0px;"/>
  <path d="M21,21c0,.54999.45001,1,1,1h3v-9c0-.27002-.10999-.52002-.28998-.71002l-1.76001-1.76001c.02997-.16998.04999-.34998.04999-.52997,0-1.65002-1.34998-3-3-3s-3,1.34998-3,3,1.34998,3,3,3c.71997,0,1.38-.27002,1.89001-.69l1.10999,1.09998v2.59003h-1c-.54999,0-1,.45001-1,1v1h-3c-.54999,0-1,.45001-1,1s.45001,1,1,1h3v1Z" style="fill: #000; stroke-width: 0px;"/>
  <path d="M46,18h-3v-1c0-.54999-.45001-1-1-1h-1v-2.59003l1.10999-1.09998c.51001.41998,1.17004.69,1.89001.69,1.65002,0,3-1.35004,3-3s-1.34998-3-3-3-3,1.34998-3,3c0,.17999.02002.35999.04999.52997l-1.76001,1.76001c-.17999.19-.28998.44-.28998.71002v9h3c.54999,0,1-.45001,1-1v-1h3c.54999,0,1-.45001,1-1s-.45001-1-1-1Z" style="fill: #000; stroke-width: 0px;"/>
</svg>