<?xml version="1.0" encoding="UTF-8"?>
<svg xmlns="http://www.w3.org/2000/svg" version="1.1" viewBox="0 0 64 64">
  <!-- Generator: Adobe Illustrator 28.7.1, SVG Export Plug-In . SVG Version: 1.2.0 Build 142)  -->
  <g>
    <g id="Glyph">
      <g>
        <rect x="16" y="12" width="6" height="6"/>
        <path d="M50,7H14c-2.20605,0-4,1.79395-4,4v12h44v-12c0-2.20605-1.79395-4-4-4ZM24,19c0,.55273-.44727,1-1,1h-8c-.55273,0-1-.44727-1-1v-8c0-.55273.44727-1,1-1h8c.55273,0,1,.44727,1,1v8ZM49,20h-22c-.55273,0-1-.44727-1-1s.44727-1,1-1h22c.55273,0,1,.44727,1,1s-.44727,1-1,1ZM49,16h-22c-.55273,0-1-.44727-1-1s.44727-1,1-1h22c.55273,0,1,.44727,1,1s-.44727,1-1,1ZM49,12h-22c-.55273,0-1-.44727-1-1s.44727-1,1-1h22c.55273,0,1,.44727,1,1s-.44727,1-1,1Z"/>
        <path d="M31,25H10v14h21v-14ZM15,27h8c.55273,0,1,.44727,1,1s-.44727,1-1,1h-8c-.55273,0-1-.44727-1-1s.44727-1,1-1ZM28,37h-13c-.55273,0-1-.44727-1-1s.44727-1,1-1h13c.55273,0,1,.44727,1,1s-.44727,1-1,1ZM28,33h-13c-.55273,0-1-.44727-1-1s.44727-1,1-1h13c.55273,0,1,.44727,1,1s-.44727,1-1,1Z"/>
        <path d="M33,39h21v-14h-21v14ZM36,27h8c.55273,0,1,.44727,1,1s-.44727,1-1,1h-8c-.55273,0-1-.44727-1-1s.44727-1,1-1ZM36,31h13c.55273,0,1,.44727,1,1s-.44727,1-1,1h-13c-.55273,0-1-.44727-1-1s.44727-1,1-1ZM36,35h13c.55273,0,1,.44727,1,1s-.44727,1-1,1h-13c-.55273,0-1-.44727-1-1s.44727-1,1-1Z"/>
        <path d="M10,53c0,2.20605,1.79395,4,4,4h36c2.20605,0,4-1.79395,4-4v-12H10v12ZM48,45c0-.55273.44727-1,1-1s1,.44727,1,1v8c0,.55273-.44727,1-1,1s-1-.44727-1-1v-8ZM42,45c0-.55273.44727-1,1-1s1,.44727,1,1v8c0,.55273-.44727,1-1,1s-1-.44727-1-1v-8ZM38,45c0-.55273.44727-1,1-1s1,.44727,1,1v8c0,.55273-.44727,1-1,1s-1-.44727-1-1v-8ZM32,45c0-.55273.44727-1,1-1s1,.44727,1,1v8c0,.55273-.44727,1-1,1s-1-.44727-1-1v-8ZM28,45c0-.55273.44727-1,1-1s1,.44727,1,1v8c0,.55273-.44727,1-1,1s-1-.44727-1-1v-8ZM24,45c0-.55273.44727-1,1-1s1,.44727,1,1v8c0,.55273-.44727,1-1,1s-1-.44727-1-1v-8ZM18,45c0-.55273.44727-1,1-1s1,.44727,1,1v8c0,.55273-.44727,1-1,1s-1-.44727-1-1v-8ZM14,45c0-.55273.44727-1,1-1s1,.44727,1,1v8c0,.55273-.44727,1-1,1s-1-.44727-1-1v-8Z"/>
      </g>
    </g>
  </g>
</svg>