<?xml version="1.0" encoding="utf-8"?>
<!-- Generator: Adobe Illustrator 28.3.0, SVG Export Plug-In . SVG Version: 6.00 Build 0)  -->
<svg version="1.1" id="Glyph" xmlns="http://www.w3.org/2000/svg" xmlns:xlink="http://www.w3.org/1999/xlink" x="0px" y="0px"
	 viewBox="0 0 48 48" enable-background="new 0 0 48 48" xml:space="preserve">
<g>
	<path d="M38.97607,16.49316C38.99219,16.33008,39,16.16504,39,16c0-2.75684-2.24316-5-5-5
		c-0.41406,0-0.82373,0.05078-1.22021,0.15039C31.94287,7.61133,28.75146,5,25,5c-3.68457,0-6.854,2.52051-7.73926,6.00488
		C17.1748,11.00195,17.08789,11,17,11c-3.85986,0-7,3.14062-7,7c0,0.33691,0.02393,0.6709,0.07178,1c0,0-0.07166,0-0.07178,0
		c-2.72059,0-5,2.28529-5,5c0,2.75684,2.24316,5,5,5c0,0,26.48545,0,26.49999,0C40.04111,29,43,26.03575,43,22.5
		C43,19.82715,41.38623,17.47559,38.97607,16.49316z M28,14c-0.55225,0-1-0.44727-1-1c0-1.10254-0.89697-2-2-2s-2,0.89746-2,2
		c0,0.55273-0.44775,1-1,1s-1-0.44727-1-1c0-2.20605,1.79443-4,4-4s4,1.79395,4,4C29,13.55273,28.55225,14,28,14z M34,24
		c-0.55231,0-1-0.44775-1-1c0-0.55231,0.44769-1,1-1s1,0.44769,1,1C35,23.55225,34.55231,24,34,24z M38,24c-0.55231,0-1-0.44775-1-1
		c0-0.55231,0.44769-1,1-1s1,0.44769,1,1C39,23.55225,38.55231,24,38,24z"/>
	<path d="M7.17725,35.43164C6.52246,36.37988,5,38.72168,5,40c0,1.6543,1.3457,3,3,3s3-1.3457,3-3
		c0-1.27832-1.52246-3.62012-2.17725-4.56836C8.44971,34.89062,7.55029,34.89062,7.17725,35.43164z"/>
	<path d="M14.17725,31.43164C13.52246,32.37988,12,34.72168,12,36c0,1.6543,1.3457,3,3,3s3-1.3457,3-3
		c0-1.27832-1.52246-3.62012-2.17725-4.56836C15.44971,30.89062,14.55029,30.89062,14.17725,31.43164z"/>
	<path d="M21.17725,34.43164C20.52246,35.37988,19,37.72168,19,39c0,1.6543,1.3457,3,3,3s3-1.3457,3-3
		c0-1.27832-1.52246-3.62012-2.17725-4.56836C22.44971,33.89062,21.55029,33.89062,21.17725,34.43164z"/>
	<path d="M38,36h-2.58569l1.82837-1.82812c0.39062-0.39062,0.39062-1.02344,0-1.41406s-1.02344-0.39062-1.41406,0L34,34.58618V32
		c0-0.55273-0.44775-1-1-1s-1,0.44727-1,1v2.58618l-1.82861-1.82837c-0.39062-0.39062-1.02344-0.39062-1.41406,0
		s-0.39062,1.02344,0,1.41406L30.58569,36H28c-0.55225,0-1,0.44727-1,1s0.44775,1,1,1h2.58569l-1.82837,1.82812
		c-0.39061,0.39061-0.39062,1.02339-0.00004,1.41402c0.37366,0.3737,1.02524,0.3889,1.4141,0.00004L32,39.41382V42
		c0,0.55273,0.44775,1,1,1s1-0.44727,1-1v-2.58618c0,0,1.82547,1.82523,1.82861,1.82837c0.37103,0.37098,1.02794,0.38614,1.41407,0
		c0.39062-0.39062,0.39062-1.02344,0-1.41406L35.41431,38H38c0.55225,0,1-0.44727,1-1S38.55225,36,38,36z"/>
</g>
</svg>
