<?xml version="1.0" encoding="utf-8"?>
<!-- Generator: Adobe Illustrator 28.3.0, SVG Export Plug-In . SVG Version: 6.00 Build 0)  -->
<svg version="1.1" id="Glyph" xmlns="http://www.w3.org/2000/svg" xmlns:xlink="http://www.w3.org/1999/xlink" x="0px" y="0px"
	 viewBox="0 0 48 48" enable-background="new 0 0 48 48" xml:space="preserve">
<g>
	<circle cx="26" cy="34" r="1"/>
	<circle cx="23" cy="32" r="1"/>
	<circle cx="26" cy="42" r="1"/>
	<circle cx="23" cy="40" r="1"/>
	<circle cx="6" cy="31" r="1"/>
	<circle cx="9" cy="34" r="1"/>
	<circle cx="7" cy="38" r="1"/>
	<circle cx="9" cy="42" r="1"/>
	<circle cx="42" cy="31" r="1"/>
	<circle cx="40" cy="34" r="1"/>
	<circle cx="42" cy="38" r="1"/>
	<circle cx="40" cy="42" r="1"/>
	<path d="M21,36h-2.58618l1.82837-1.82861c0.39062-0.39062,0.39062-1.02393,0-1.41406c-0.39062-0.39062-1.02344-0.39062-1.41406,0
		L17,34.58569V32c0-0.55225-0.44727-1-1-1s-1,0.44775-1,1v2.58569l-1.82812-1.82837c-0.39062-0.39062-1.02344-0.39062-1.41406,0
		c-0.39062,0.39014-0.39062,1.02344,0,1.41406L13.58618,36H11c-0.55273,0-1,0.44775-1,1s0.44727,1,1,1h2.58618l-1.82837,1.82861
		c-0.39061,0.39061-0.39062,1.02388-0.00004,1.41402c0.36556,0.36514,1.01348,0.40065,1.4141,0.00004L15,39.41431V42
		c0,0.55225,0.44727,1,1,1s1-0.44775,1-1v-2.58569c0,0,1.82812,1.82837,1.82815,1.82839
		c0.38882,0.38879,1.02473,0.38881,1.41404-0.00002c0.39062-0.39014,0.39062-1.02344,0-1.41406L18.41382,38H21
		c0.55273,0,1-0.44775,1-1S21.55273,36,21,36z"/>
	<path d="M38,36h-2.58618l1.82837-1.82861c0.39062-0.39062,0.39062-1.02393,0-1.41406c-0.39062-0.39062-1.02344-0.39062-1.41406,0
		L34,34.58569V32c0-0.55225-0.44727-1-1-1s-1,0.44775-1,1v2.58569l-1.82812-1.82837c-0.39062-0.39062-1.02344-0.39062-1.41406,0
		c-0.39062,0.39014-0.39062,1.02344,0,1.41406L30.58618,36H28c-0.55273,0-1,0.44775-1,1s0.44727,1,1,1h2.58618l-1.82837,1.82861
		c-0.3906,0.3906-0.39062,1.02385-0.00007,1.41399c0.389,0.3886,1.02597,0.38824,1.41413,0.00007L32,39.41431V42
		c0,0.55225,0.44727,1,1,1s1-0.44775,1-1v-2.58569c0,0,1.81924,1.81948,1.82809,1.82833
		c0.36112,0.36117,1.02197,0.39216,1.4141,0.00003c0.39062-0.39014,0.39062-1.02344,0-1.41406L35.41382,38H38
		c0.55273,0,1-0.44775,1-1S38.55273,36,38,36z"/>
	<path d="M10,29c0,0,26.48285,0,26.49999,0C40.04607,29,43,26.04324,43,22.5c0-2.67334-1.61426-5.02393-4.02344-6.00684
		C38.99219,16.33008,39,16.16504,39,16c0-2.75684-2.24316-5-5-5c-0.41406,0-0.82324,0.05127-1.21973,0.15088
		C31.94238,7.61133,28.75098,5,25,5c-3.68457,0-6.85352,2.52051-7.73926,6.00439C17.1748,11.00146,17.08789,11,17,11
		c-3.85938,0-7,3.14014-7,7c0,0.3374,0.02441,0.6709,0.07227,1c0,0-0.07212,0-0.07227,0c-2.72539,0-5,2.27748-5,5
		C5,26.75684,7.24316,29,10,29z M38,22c0.55231,0,1,0.44769,1,1c0,0.55225-0.44769,1-1,1s-1-0.44775-1-1
		C37,22.44769,37.44769,22,38,22z M34,22c0.55231,0,1,0.44769,1,1c0,0.55225-0.44769,1-1,1s-1-0.44775-1-1
		C33,22.44769,33.44769,22,34,22z M25,9c2.20605,0,4,1.79443,4,4c0,0.55225-0.44727,1-1,1s-1-0.44775-1-1c0-1.10303-0.89746-2-2-2
		s-2,0.89697-2,2c0,0.55225-0.44727,1-1,1s-1-0.44775-1-1C21,10.79443,22.79395,9,25,9z"/>
</g>
</svg>
