<?xml version="1.0" encoding="UTF-8"?>
<svg xmlns="http://www.w3.org/2000/svg" version="1.1" viewBox="0 0 64 64">
  <!-- Generator: Adobe Illustrator 28.7.1, SVG Export Plug-In . SVG Version: 1.2.0 Build 142)  -->
  <g>
    <g id="Glyph">
      <g>
        <path d="M31,10v6h-12v5h-6v-10c0-.54999.45001-1,1-1h17Z"/>
        <path d="M45,19c1.10303,0,2-.89746,2-2,0-.6377-.93994-2.12598-2-3.45215-1.06006,1.32617-2,2.81445-2,3.45215,0,1.10254.89697,2,2,2Z"/>
        <path d="M25,35v17c0,.15997-.03998.31-.10999.45001l-2,4c-.16003.33997-.51001.54999-.89001.54999s-.72998-.21002-.89001-.54999l-2-4c-.07001-.14001-.10999-.29004-.10999-.45001v-17h6Z"/>
        <path d="M24,23H8c-.54999,0-1,.45001-1,1v9h18v-9c0-.54999-.45001-1-1-1ZM12,29c-.54999,0-1-.45001-1-1s.45001-1,1-1,1,.45001,1,1-.45001,1-1,1ZM16,29c-.54999,0-1-.45001-1-1s.45001-1,1-1,1,.45001,1,1-.45001,1-1,1ZM20,29c-.54999,0-1-.45001-1-1s.45001-1,1-1,1,.45001,1,1-.45001,1-1,1Z"/>
        <path d="M7,35v17c0,.15527.03613.30859.10547.44727l2,4c.16943.33887.51562.55273.89453.55273s.7251-.21387.89453-.55273l2-4c.06934-.13867.10547-.29199.10547-.44727v-17h-6Z"/>
        <path d="M54,7h-18c-1.65002,0-3,1.34998-3,3v24c0,1.64996,1.34998,3,3,3h18c1.65002,0,3-1.35004,3-3V10c0-1.65002-1.34998-3-3-3ZM44.26001,11.32996c.37-.41998,1.10999-.41998,1.47998,0,.54999.61005,3.26001,3.73004,3.26001,5.67004,0,2.20996-1.78998,4-4,4s-4-1.79004-4-4c0-1.94,2.71002-5.06,3.26001-5.67004ZM53,32c0,.54999-.45001,1-1,1h-14c-.54999,0-1-.45001-1-1v-1c0-4.41003,3.59003-8,8-8s8,3.58997,8,8v1Z"/>
        <path d="M45,25c-3.30859,0-6,2.69141-6,6h5v-3c0-.55273.44775-1,1-1s1,.44727,1,1v3h5c0-3.30859-2.69141-6-6-6Z"/>
      </g>
    </g>
  </g>
</svg>