<?xml version="1.0" encoding="UTF-8"?>
<svg xmlns="http://www.w3.org/2000/svg" version="1.1" viewBox="0 0 64 64">
  <!-- Generator: Adobe Illustrator 28.7.1, SVG Export Plug-In . SVG Version: 1.2.0 Build 142)  -->
  <g>
    <g id="Glyph">
      <g>
        <rect x="31.40065" y="18" width="4" height="5"/>
        <rect x="43.40065" y="18" width="4" height="5"/>
        <rect x="31.40065" y="37" width="4" height="5"/>
        <rect x="31.40065" y="31" width="4" height="4"/>
        <path d="M16.21651,39.76172c-.14307,1.19061.78656,2.23828,1.98578,2.23828h5.19836v-5h-6.85144s-.17279,1.43085-.3327,2.76172Z"/>
        <rect x="37.40065" y="31" width="4" height="4"/>
        <rect x="31.40065" y="25" width="4" height="4"/>
        <rect x="37.40065" y="18" width="4" height="5"/>
        <rect x="25.40065" y="37" width="4" height="5"/>
        <path d="M56.58479,39.76172c-.15991-1.33087-.3327-2.76172-.3327-2.76172h-6.85144v5h5.19836c1.19922,0,2.12885-1.04767,1.98578-2.23828Z"/>
        <polygon points="16.79921 35 23.40065 35 23.40065 31 17.29921 31 16.79921 35"/>
        <rect x="37.40065" y="37" width="4" height="5"/>
        <rect x="43.40065" y="37" width="4" height="5"/>
        <rect x="37.40065" y="25" width="4" height="4"/>
        <polygon points="54.75209 25 49.40065 25 49.40065 29 55.25209 29 54.75209 25"/>
        <path d="M45.40065,51c0-1.10461-.89545-2-2-2h-14c-1.10455,0-2,.89539-2,2v1h18v-1Z"/>
        <polygon points="17.54921 29 23.40065 29 23.40065 25 18.04921 25 17.54921 29"/>
        <rect x="25.40065" y="54" width="22" height="3" rx="1" ry="1"/>
        <path d="M18.70521,19.75189l-.40601,3.24811h5.10144v-5h-2.71088c-1.00867,0-1.85944.75104-1.98456,1.75189Z"/>
        <path d="M54.09608,19.75189c-.12512-1.00085-.97589-1.75189-1.98456-1.75189h-2.71088v5h5.10144l-.40601-3.24811Z"/>
        <rect x="25.40065" y="25" width="4" height="4"/>
        <rect x="25.40065" y="31" width="4" height="4"/>
        <rect x="25.40065" y="18" width="4" height="5"/>
        <rect x="32.40065" y="44" width="8" height="3"/>
        <polygon points="55.50209 31 49.40065 31 49.40065 35 56.00209 35 55.50209 31"/>
        <rect x="43.40065" y="25" width="4" height="4"/>
        <rect x="43.40065" y="31" width="4" height="4"/>
        <circle cx="13.40065" cy="13" r="6"/>
        <path d="M31.40065,15c.25586,0,.51172-.09766.70703-.29297.39062-.39062.39062-1.02344,0-1.41406l-6-6c-.39062-.39062-1.02344-.39062-1.41406,0s-.39062,1.02344,0,1.41406l6,6c.19531.19531.45117.29297.70703.29297Z"/>
        <path d="M46.69362,7.29297l-6,6c-.39062.39062-.39062,1.02344,0,1.41406.19531.19531.45117.29297.70703.29297s.51172-.09766.70703-.29297l6-6c.39062-.39062.39062-1.02344,0-1.41406s-1.02344-.39062-1.41406,0Z"/>
        <path d="M36.40065,15c.55225,0,1-.44727,1-1v-6c0-.55273-.44775-1-1-1s-1,.44727-1,1v6c0,.55273.44775,1,1,1Z"/>
      </g>
    </g>
  </g>
</svg>