<?xml version="1.0" encoding="UTF-8"?>
<svg xmlns="http://www.w3.org/2000/svg" version="1.1" viewBox="0 0 64 64">
  <!-- Generator: Adobe Illustrator 28.7.1, SVG Export Plug-In . SVG Version: 1.2.0 Build 142)  -->
  <g>
    <g id="Glyph">
      <g>
        <path d="M34.19287,16.70703c.19531.19531.45117.29297.70703.29297s.51172-.09766.70703-.29297l3.29297-3.29297,3.29297,3.29297c.19531.19531.45117.29297.70703.29297s.51172-.09766.70703-.29297l6.39307-6.39307v.68604c0,.55225.44775,1,1,1s1-.44775,1-1v-3c0-.55225-.44775-1-1-1h-3c-.55225,0-1,.44775-1,1s.44775,1,1,1h.48584l-5.58594,5.58594-2.58594-2.58594,1.68604-1.68604v.68604c0,.55225.44775,1,1,1s1-.44775,1-1v-3c0-.55225-.44775-1-1-1h-3c-.55225,0-1,.44775-1,1s.44775,1,1,1h.48584l-5.58594,5.58594-4.09277-4.09277c-.39062-.39062-1.02344-.39062-1.41406,0s-.39062,1.02344,0,1.41406l4.7998,4.7998Z"/>
        <path d="M18,36c0-.54999-.45001-1-1-1h-6c-.54999,0-1,.45001-1,1v1h8v-1Z"/>
        <rect x="42" y="19" width="4" height="5"/>
        <polygon points="48 30 54.81549 30 53.70435 26 48 26 48 30"/>
        <rect x="42" y="26" width="4" height="4"/>
        <polygon points="34 26 28.29565 26 27.18451 30 34 30 34 26"/>
        <rect x="42" y="32" width="4" height="5"/>
        <rect x="36" y="19" width="4" height="5"/>
        <polygon points="48 37 56.76001 37 55.37 32 48 32 48 37"/>
        <rect x="36" y="32" width="4" height="5"/>
        <rect x="25" y="39" width="32" height="2"/>
        <path d="M51,19h-3v5h5.1488l-1.18542-4.26758c-.12012-.43311-.51416-.73242-.96338-.73242Z"/>
        <path d="M34,19h-3c-.44922,0-.84326.29932-.96338.73242l-1.18542,4.26758h5.1488v-5Z"/>
        <path d="M50,51h-18c-.54999,0-1,.45001-1,1v1h-3c-.55127,0-1-.44873-1-1v-2c0-1.6543-1.3457-3-3-3h-3v-5c0-1.65002-1.34998-3-3-3h-8c-1.65002,0-3,1.34998-3,3v12c0,1.64996,1.34998,3,3,3h8c1.65002,0,3-1.35004,3-3v-5h3c.55127,0,1,.44873,1,1v2c0,1.6543,1.3457,3,3,3h3v1c0,.54999.45001,1,1,1h18c.54999,0,1-.45001,1-1v-4c0-.54999-.45001-1-1-1ZM16.89001,48.45001l-1.99997,3.99995c-.22316.44633-.85547.69831-1.34005.44006-.48999-.24005-.69-.84003-.44-1.34003l1.27002-2.54999h-2.38c-.34998,0-.66998-.17999-.84998-.47003-.18005-.29999-.20001-.66998-.04004-.97998l2-4c.23999-.48999.84003-.69,1.34003-.44.48999.23999.69.84003.44,1.34003l-1.27002,2.54999h2.38c.34998,0,.66998.17999.84998.46997.18005.29999.20001.67004.04004.98004Z"/>
        <polygon points="34 32 26.62897 32 25.24005 37 34 37 34 32"/>
        <rect x="36" y="26" width="4" height="4"/>
        <rect x="34" y="47" width="14" height="2"/>
        <rect x="30" y="43" width="22" height="2"/>
      </g>
    </g>
  </g>
</svg>