<?xml version="1.0" encoding="UTF-8"?>
<svg xmlns="http://www.w3.org/2000/svg" version="1.1" viewBox="0 0 64 64">
  <!-- Generator: Adobe Illustrator 28.7.1, SVG Export Plug-In . SVG Version: 1.2.0 Build 142)  -->
  <g>
    <g id="Glyph">
      <g>
        <rect x="28" y="30" width="8" height="2"/>
        <path d="M39,14h-14c-.54999,0-1,.45001-1,1v11c0,.54999.45001,1,1,1h1v1h12v-1h1c.54999,0,1-.45001,1-1v-11c0-.54999-.45001-1-1-1ZM36,23c0,.54999-.45001,1-1,1h-6c-.54999,0-1-.45001-1-1v-4c0-.54999.45001-1,1-1h6c.54999,0,1,.45001,1,1v4Z"/>
        <rect x="30" y="20" width="4" height="2"/>
        <path d="M41,35v3h-18v-3c0-.54999.45001-1,1-1h16c.54999,0,1,.45001,1,1Z"/>
        <path d="M57,18v4c0,.54999-.45001,1-1,1h-14v-6h14c.54999,0,1,.45001,1,1Z"/>
        <path d="M38,40v5c0,.29999-.14001.58997-.38.77997l-2.77002,2.22003h.15002c.54999,0,1,.45001,1,1s-.45001,1-1,1h-6c-.54999,0-1-.45001-1-1s.45001-1,1-1h.15002l-2.77002-2.22003c-.23999-.19-.38-.47998-.38-.77997v-5h5v2c0,.54999.45001,1,1,1s1-.45001,1-1v-2h5Z"/>
        <path d="M22,17h-14c-.55273,0-1,.44727-1,1v4c0,.55273.44727,1,1,1h14v-6Z"/>
      </g>
    </g>
  </g>
</svg>