<?xml version="1.0" encoding="UTF-8"?>
<svg xmlns="http://www.w3.org/2000/svg" version="1.1" viewBox="0 0 48 48">
  <!-- Generator: Adobe Illustrator 28.7.1, SVG Export Plug-In . SVG Version: 1.2.0 Build 142)  -->
  <g>
    <g id="Glyph">
      <g>
        <path d="M41,33h-16v7c0,.55225.44769,1,1,1h15c1.10455,0,2-.89545,2-2v-4c0-1.10461-.89545-2-2-2Z"/>
        <path d="M15,25v6h18v-6c0-1.10461-.89545-2-2-2h-14c-1.10455,0-2,.89539-2,2Z"/>
        <path d="M5,35v4c0,1.10455.89545,2,2,2h15c.55231,0,1-.44775,1-1v-7H7c-1.10455,0-2,.89539-2,2Z"/>
        <path d="M6,21h15v-8H5v7c0,.55225.44775,1,1,1Z"/>
        <path d="M25.58594,7h-15.58594c-.26514,0-.51953.10547-.70703.29297l-3.70703,3.70703h16l4-4Z"/>
        <path d="M23,20.41406l3.70703-3.70703c.1875-.1875.29297-.44189.29297-.70703v-7.58594l-4,4v8Z"/>
      </g>
    </g>
  </g>
</svg>