<?xml version="1.0" encoding="UTF-8"?>
<svg id="Glyph" xmlns="http://www.w3.org/2000/svg" version="1.1" viewBox="0 0 48 48">
  <path d="M11,24h3c.54999,0,1,.45001,1,1v1h3c.54999,0,1,.45001,1,1v1h3c.54999,0,1,.45001,1,1v1h3c.54999,0,1,.45001,1,1v1h3c.54999,0,1,.45001,1,1v1h3c.54999,0,1,.45001,1,1v3h2v-20H11v6ZM27,26c0-.54999.45001-1,1-1h2c.54999,0,1,.45001,1,1,0,.42999-.27002.78998-.65997.92999l2.37,2.35999c.38995.39001.38995,1.02997,0,1.41998-.38165.38165-1.02405.37616-1.42004,0l-2.35999-2.37c-.14001.39001-.5.66003-.92999.66003-.54999,0-1-.45001-1-1v-2ZM17,21c0-.54999.45001-1,1-1h2c.54999,0,1,.45001,1,1,0,.42999-.27002.78998-.65997.92999l2.37,2.35999c.38995.39001.38995,1.03003,0,1.41998-.40021.38013-1.01984.38019-1.42004,0l-2.35999-2.37c-.14001.39001-.5.66003-.92999.66003-.54999,0-1-.45001-1-1v-2Z" fill="#000" stroke-width="0"/>
  <path d="M29,35v-1h-3c-.55225,0-1-.44775-1-1v-1h-3c-.55225,0-1-.44775-1-1v-1h-3c-.55225,0-1-.44775-1-1v-1h-3c-.55225,0-1-.44775-1-1v-1h-2v12h22v-2h-3c-.55225,0-1-.44775-1-1Z" fill="#000" stroke-width="0"/>
  <path d="M40,9h-2.98999c0-2.21002-1.79004-4-4-4-2.20001,0-4,1.78998-4,4h2c0-1.10004.89996-2,2-2,1.10999,0,2,.89996,2,2h-4c0,1.09998.89996,2,2,2,.56,0,1,.45001,1,1s-.44,1-1,1c-2.20001,0-4-1.79004-4-4h-10.01001c0-2.21002-1.78998-4-4-4s-4,1.78998-4,4h2c0-1.10004.90002-2,2-2s2,.89996,2,2h-4c0,1.09998.90002,2,2,2,.54999,0,1,.45001,1,1s-.45001,1-1,1c-2.21002,0-4-1.79004-4-4h-3c-1.65002,0-3,1.34998-3,3v28c0,1.64996,1.34998,3,3,3h32c1.65002,0,3-1.35004,3-3V12c0-1.65002-1.34998-3-3-3ZM39,39c0,.54999-.45001,1-1,1H10c-.54999,0-1-.45001-1-1v-22c0-.54999.45001-1,1-1h28c.54999,0,1,.45001,1,1v22Z" fill="#000" stroke-width="0"/>
</svg>