<?xml version="1.0" encoding="UTF-8"?>
<svg xmlns="http://www.w3.org/2000/svg" version="1.1" viewBox="0 0 64 64">
  <!-- Generator: Adobe Illustrator 28.7.1, SVG Export Plug-In . SVG Version: 1.2.0 Build 142)  -->
  <g>
    <g id="Glyph">
      <g>
        <path d="M23.59003,13.54999l-1.16003,2.32001c-.83002,1.64996-.98999,3.52002-.52002,5.23999.05005-.03998.10004-.09003.14001-.14001l1.40002-1.63c.88-1.01996,2.06-1.70996,3.34998-1.95996-.20996-.35004-.38-.71002-.51001-1.10004l-.85999-2.59998c-.13-.38-.46997-.65002-.88-.67999-.41998-.03003-.77997.19-.95996.54999Z"/>
        <path d="M23.57324,22.27148c-.66895.78027-1.64258,1.22852-2.6709,1.22852-.83985,0-1.65332-.30078-2.29102-.84668l-3.98047-3.41211c-.33301-.28711-.81445-.32324-1.18555-.08594-.37109.23438-.54492.68457-.42969,1.10742,0,0,.37207,1.36328.82031,2.96777.67346,2.40692.68182,4.94812.05603,7.3468l.14319.04773c4.72852,1.57617,9.6543,2.375,14.63965,2.375h7.04688c2.76367,0,5.53613-.30371,8.23828-.9043l6.60925-1.75116c-.64227-1.46777-1.99585-2.55518-3.69714-2.79865l-.11523-.0166c-4.5166-.64551-8.89062-2.35254-12.64941-4.93652l-3.83887-2.63867c-1.6875-1.16113-3.96875-.86328-5.30176.69238l-1.39355,1.625Z"/>
        <path d="M35.72168,35h-7.04688c-5.20117,0-10.33887-.83398-15.27246-2.47852l-.15527-.05182c-.03693.08789-.06573.17847-.10449.26569-.68066,1.5293-.09668,3.31055,1.35742,4.1416,2.43066,1.38867,5.19434,2.12305,7.99316,2.12305h14.8125c5.05469,0,9.80762-1.96875,13.38183-5.54297.18751-.1875.29297-.44141.29297-.70703v-.44537l-6.54785,1.73444c-2.88379.64062-5.80176.96094-8.71094.96094Z"/>
        <path d="M12.33002,17.5c.01996-.02002.02997-.03003.04999-.04004.46997-.29999,1.02997-.45996,1.59998-.45996.72003,0,1.41003.26001,1.96002.72998l3.90997,3.34998c-.42999-2.06995-.14996-4.21997.79004-6.10999l1.15997-2.31c.47003-.95996,1.40002-1.57001,2.42999-1.64001l-1.29999-3.37994c-.14001-.39001-.52002-.64001-.92999-.64001h-11c-.31,0-.59998.14001-.78998.38-.19.25-.25.56-.17999.85999l2.29999,9.26001Z"/>
        <rect x="25" y="47" width="14" height="4"/>
        <path d="M56.91895,55.60645l-6-14c-.15723-.36816-.51855-.60645-.91895-.60645H14c-.40039,0-.76172.23828-.91895.60645l-6,14c-.13281.30859-.10059.66309.08398.94434.18555.28027.49902.44922.83496.44922h10c.37891,0,.72461-.21387.89453-.55273l2.72363-5.44727h1.38184v-5c0-.55273.44727-1,1-1h16c.55273,0,1,.44727,1,1v5h1.38184l2.72363,5.44727c.16992.33887.51562.55273.89453.55273h10c.33594,0,.64941-.16895.83496-.44922.18457-.28125.2168-.63574.08398-.94434Z"/>
      </g>
    </g>
  </g>
</svg>