<?xml version="1.0" encoding="utf-8"?>
<!-- Generator: Adobe Illustrator 28.3.0, SVG Export Plug-In . SVG Version: 6.00 Build 0)  -->
<svg version="1.1" id="Glyph" xmlns="http://www.w3.org/2000/svg" xmlns:xlink="http://www.w3.org/1999/xlink" x="0px" y="0px"
	 viewBox="0 0 48 48" enable-background="new 0 0 48 48" xml:space="preserve">
<g>
	<path d="M41.67676,23.29373L37,18.61629v-6.616c0-0.55227-0.44775-1.00004-1-1.00004h-6.61621l-4.67676-4.67744
		c-0.375-0.37502-1.03906-0.37502-1.41406,0l-4.67676,4.67744H12c-0.55225,0-1,0.44777-1,1.00004v6.616l-4.67676,4.67744
		c-0.39062,0.39064-0.39062,1.02348,0,1.41412L11,29.38481v6.61649c0,0.55227,0.44775,1.00004,1,1.00004h6.61621
		c0,0,4.67676,4.67695,4.67688,4.67707c0.3894,0.38924,1.02539,0.38845,1.41394-0.00012l4.67676-4.67695H36
		c0.55225,0,1-0.44777,1-1.00004v-6.61649l4.67676-4.67695C42.06739,24.31721,42.06739,23.68437,41.67676,23.29373z M24,34.00121
		c-5.51416,0-10-4.48602-10-10.00042s4.48584-10.00042,10-10.00042s10,4.48603,10,10.00042S29.51416,34.00121,24,34.00121z"/>
	<circle cx="24" cy="24.00079" r="8.00017"/>
	<circle cx="40" cy="18.00054" r="1.00002"/>
	<path d="M31.7782,9.15093c0.3905-0.39058,0.3905-1.02372,0-1.4143c-0.39056-0.39052-1.02374-0.39052-1.41425,0
		c-0.3905,0.39058-0.3905,1.02372,0,1.4143C30.75446,9.54145,31.38764,9.54145,31.7782,9.15093z"/>
	<circle cx="18" cy="8.00012" r="1.00002"/>
	<path d="M7.73658,16.22227c-0.39056,0.39052-0.39056,1.02372,0,1.4143c0.3905,0.39052,1.02368,0.39052,1.41418,0
		c0.3905-0.39058,0.3905-1.02379,0-1.4143C8.76026,15.83175,8.12708,15.83175,7.73658,16.22227z"/>
	<circle cx="8" cy="30.00104" r="1.00002"/>
	<path d="M16.22181,38.85065c-0.3905,0.39052-0.3905,1.02373,0,1.41425c0.39056,0.39058,1.02374,0.39058,1.41425,0
		c0.3905-0.39052,0.3905-1.02372,0-1.41425C17.24555,38.46008,16.61237,38.46008,16.22181,38.85065z"/>
	<circle cx="30" cy="40.00146" r="1.00002"/>
	<path d="M8.29316,9.70741c0.38837,0.38814,1.02472,0.38899,1.41388-0.00018c0.39062-0.39064,0.39062-1.02348,0-1.41412l-3-3.00012
		c-0.39062-0.39064-1.02344-0.39064-1.41406,0c-0.39062,0.39064-0.39062,1.02348,0,1.41412
		C5.29297,6.7071,8.29297,9.70723,8.29316,9.70741z"/>
	<path d="M39.70704,9.70723l3-3.00013c0.39062-0.39064,0.39062-1.02348,0-1.41412c-0.39062-0.39064-1.02344-0.39064-1.41406,0
		c0,0-3,3.00012-3.00018,3.00031c-0.38812,0.38832-0.38898,1.02476,0.00018,1.41394
		C38.6836,10.09787,39.31641,10.09787,39.70704,9.70723z"/>
	<path d="M39.70704,38.29436c-0.39062-0.39064-1.02344-0.39064-1.41406,0c-0.39062,0.39064-0.39062,1.02348,0,1.41412
		c0,0,2.99445,2.99457,3,3.00013c0.36499,0.36501,1.01379,0.40028,1.41406,0c0.39062-0.39064,0.39062-1.02348,0-1.41412
		L39.70704,38.29436z"/>
	<path d="M8.29297,38.29436l-3,3.00013c-0.39062,0.39064-0.39062,1.02342-0.00006,1.41406
		c0.38977,0.38979,1.02673,0.38741,1.41412,0.00006l3-3.00013c0.39062-0.39064,0.39062-1.02348,0-1.41412
		C9.31641,37.90372,8.6836,37.90372,8.29297,38.29436z"/>
</g>
</svg>
