<?xml version="1.0" encoding="utf-8"?>
<!-- Generator: Adobe Illustrator 28.3.0, SVG Export Plug-In . SVG Version: 6.00 Build 0)  -->
<svg version="1.1" id="Glyph" xmlns="http://www.w3.org/2000/svg" xmlns:xlink="http://www.w3.org/1999/xlink" x="0px" y="0px"
	 viewBox="0 0 48 48" enable-background="new 0 0 48 48" xml:space="preserve">
<g>
	<path d="M7.29297,11.70703c0.38623,0.38623,1.02832,0.38574,1.41406,0l2-2c0.39062-0.39062,0.39062-1.02344,0-1.41406
		s-1.02344-0.39062-1.41406,0L9,8.58594V6c0-0.55225-0.44727-1-1-1S7,5.44775,7,6v2.58594L6.70703,8.29297
		c-0.39062-0.39062-1.02344-0.39062-1.41406,0s-0.39062,1.02344,0,1.41406C5.29297,9.70703,7.29187,11.70593,7.29297,11.70703z"/>
	<path d="M39.29297,11.70703C39.48828,11.90234,39.74414,12,40,12s0.51172-0.09766,0.70703-0.29297l2-2
		c0.39062-0.39062,0.39062-1.02344,0-1.41406s-1.02344-0.39062-1.41406,0L41,8.58594V6c0-0.55225-0.44727-1-1-1s-1,0.44775-1,1
		v2.58594l-0.29297-0.29297c-0.39062-0.39062-1.02344-0.39062-1.41406,0s-0.39062,1.02344,0,1.41406L39.29297,11.70703z"/>
	<path d="M40,29H8c-0.55273,0-1,0.44727-1,1v4c0,0.55273,0.44727,1,1,1h32c0.55273,0,1-0.44727,1-1v-4
		C41,29.44727,40.55273,29,40,29z"/>
	<path d="M38,37H10c-0.55273,0-1,0.44727-1,1v4c0,0.55273,0.44727,1,1,1h28c0.55273,0,1-0.44727,1-1v-4
		C39,37.44727,38.55273,37,38,37z"/>
	<circle cx="39" cy="16" r="1"/>
	<circle cx="30" cy="7" r="1"/>
	<circle cx="18" cy="7" r="1"/>
	<circle cx="9" cy="16" r="1"/>
	<path d="M16.06946,21c0.49463-3.93994,3.85876-7,7.93054-7s7.43591,3.06006,7.93054,7h8.04315L36,17.02588V11
		c0-0.55225-0.44727-1-1-1h-6.02637l-4.2666-4.26709c-0.375-0.375-1.03906-0.375-1.41406,0L19.02637,10H13c-0.55273,0-1,0.44775-1,1
		v6.02588L8.02631,21H16.06946z"/>
	<path d="M42,23H6c-0.55231,0-1,0.44769-1,1v2c0,0.55225,0.44769,1,1,1h36c0.55231,0,1-0.44775,1-1v-2
		C43,23.44769,42.55231,23,42,23z"/>
	<path d="M24,16c-2.96722,0-5.43134,2.16687-5.90967,5h11.81934C29.43134,18.16687,26.96722,16,24,16z"/>
</g>
</svg>
