<?xml version="1.0" encoding="UTF-8"?>
<svg xmlns="http://www.w3.org/2000/svg" version="1.1" viewBox="0 0 64 64">
  <!-- Generator: Adobe Illustrator 28.7.1, SVG Export Plug-In . SVG Version: 1.2.0 Build 142)  -->
  <g>
    <g id="Glyph">
      <g>
        <path d="M8.31641,38.10539c7.5332-2.51172,15.83398-2.51172,23.36719,0,3.97168,1.32422,8.14355,1.98633,12.31641,1.98633s8.34473-.66211,12.31641-1.98633c.52344-.17383.80664-.74023.63184-1.26465-.1748-.52344-.73633-.80859-1.26465-.63184-7.5332,2.51172-15.83398,2.51172-23.36719,0-7.94336-2.64844-16.68945-2.64844-24.63281,0-.52344.17383-.80664.74023-.63184,1.26465.1748.52344.7373.80859,1.26465.63184Z"/>
        <path d="M55.68359,42.2089c-7.5332,2.51172-15.83398,2.51172-23.36719,0-7.94336-2.64844-16.68945-2.64844-24.63281,0-.52344.17383-.80664.74023-.63184,1.26465.1748.52344.7373.80859,1.26465.63184,7.5332-2.51172,15.83398-2.51172,23.36719,0,3.97168,1.32422,8.14355,1.98633,12.31641,1.98633s8.34473-.66211,12.31641-1.98633c.52344-.17383.80664-.74023.63184-1.26465-.1748-.52344-.73633-.80859-1.26465-.63184Z"/>
        <path d="M55.68359,48.2089c-7.5332,2.51172-15.83398,2.51172-23.36719,0-7.94336-2.64844-16.68945-2.64844-24.63281,0-.52344.17383-.80664.74023-.63184,1.26465.1748.52344.7373.80859,1.26465.63184,7.5332-2.51172,15.83398-2.51172,23.36719,0,3.97168,1.32422,8.14355,1.98633,12.31641,1.98633s8.34473-.66211,12.31641-1.98633c.52344-.17383.80664-.74023.63184-1.26465-.1748-.52344-.73633-.80859-1.26465-.63184Z"/>
        <circle cx="42" cy="28.10441" r="4"/>
        <path d="M32.95001,34.31437c1.71997.57001,3.47998,1.01001,5.26996,1.30005l-4.97998-12.12,8.51001-5.41003c1.45001-.91998,1.96997-2.77997,1.20001-4.32001-.83002-1.65997-2.85004-2.33002-4.5-1.5l-10.48004,5.23999c-2.39996,1.19-3.41998,4.05005-2.32996,6.5l2.07001,4.66003-6.70001,3.58002c4.08002.08997,8.09998.78998,11.94,2.06995Z"/>
      </g>
    </g>
  </g>
</svg>