<?xml version="1.0" encoding="UTF-8"?>
<svg id="Glyph" xmlns="http://www.w3.org/2000/svg" version="1.1" viewBox="0 0 48 48">
  <polygon points="33 24.5 42.53003 24.5 40.53003 21.5 33 21.5 33 24.5" fill="#000" stroke-width="0"/>
  <path d="M33,26.5c-1.10254,0-2-.89697-2-2v-3c0-1.10303.89746-2,2-2h6.19666l-2.36664-3.54999c-.17999-.28003-.5-.45001-.83002-.45001h-10v20h2c0-3.31,2.69-6,6-6s6,2.69,6,6c1.65002,0,3-1.35004,3-3v-6h-10Z" fill="#000" stroke-width="0"/>
  <path d="M14,31.5c-2.20544,0-4,1.79449-4,4s1.79456,4,4,4,4-1.79456,4-4-1.79456-4-4-4ZM14,36.5c-.55231,0-1-.44775-1-1,0-.55231.44769-1,1-1s1,.44769,1,1c0,.55225-.44769,1-1,1Z" fill="#000" stroke-width="0"/>
  <path d="M34,31.5c-2.20544,0-4,1.79449-4,4s1.79456,4,4,4,4-1.79456,4-4-1.79456-4-4-4ZM34,36.5c-.55231,0-1-.44775-1-1,0-.55231.44769-1,1-1s1,.44769,1,1c0,.55225-.44769,1-1,1Z" fill="#000" stroke-width="0"/>
  <path d="M35,11.5c0-1.65002-1.34998-3-3-3s-3,1.34998-3,3v2h6v-2Z" fill="#000" stroke-width="0"/>
  <rect x="13" y="11.5" width="2" height="12" fill="#000" stroke-width="0"/>
  <path d="M20,23.5c1.65686,0,3-1.34314,3-3v-6c0-1.65686-1.34314-3-3-3h-3v12h1v2h-8v-2h1v-12h-3c-1.65686,0-3,1.34314-3,3v6c0,1.65686,1.34314,3,3,3v2h-2c-.54999,0-1,.45001-1,1v6c0,1.64996,1.34998,3,3,3,0-3.31,2.69-6,6-6s6,2.69,6,6h4v-10h-4v-2Z" fill="#000" stroke-width="0"/>
</svg>