<?xml version="1.0" encoding="UTF-8"?>
<svg id="Glyph" xmlns="http://www.w3.org/2000/svg" version="1.1" viewBox="0 0 48 48">
  <path d="M28,9.5c0-1.10461-.89545-2-2-2h-6c-1.10455,0-2,.89539-2,2v1h10v-1Z" fill="#000" stroke-width="0"/>
  <circle cx="20" cy="34.5" r="1" fill="#000" stroke-width="0"/>
  <circle cx="12" cy="34.5" r="1" fill="#000" stroke-width="0"/>
  <path d="M30,13.5c0-.55225-.44775-1-1-1h-12c-.55225,0-1,.44775-1,1v2h4c.55225,0,1,.44775,1,1s-.44775,1-1,1h-4v3h14v-7Z" fill="#000" stroke-width="0"/>
  <circle cx="28" cy="34.5" r="1" fill="#000" stroke-width="0"/>
  <polygon points="35.38751 22.5 12.61249 22.5 11.27911 26.5 36.72089 26.5 35.38751 22.5" fill="#000" stroke-width="0"/>
  <path d="M37,28.5H11c-3.31372,0-6,2.68628-6,6s2.68628,6,6,6h26c3.31372,0,6-2.68628,6-6s-2.68628-6-6-6ZM12,37.5c-1.6543,0-3-1.3457-3-3s1.3457-3,3-3,3,1.3457,3,3-1.3457,3-3,3ZM20,37.5c-1.6543,0-3-1.3457-3-3s1.3457-3,3-3,3,1.3457,3,3-1.3457,3-3,3ZM28,37.5c-1.6543,0-3-1.3457-3-3s1.3457-3,3-3,3,1.3457,3,3-1.3457,3-3,3ZM36,37.5c-1.6543,0-3-1.3457-3-3s1.3457-3,3-3,3,1.3457,3,3-1.3457,3-3,3Z" fill="#000" stroke-width="0"/>
  <circle cx="36" cy="34.5" r="1" fill="#000" stroke-width="0"/>
  <rect x="32" y="12.5" width="6" height="6" fill="#000" stroke-width="0"/>
  <rect x="40" y="11.5" width="3" height="8" rx="1" ry="1" fill="#000" stroke-width="0"/>
</svg>