<?xml version="1.0" encoding="UTF-8"?>
<svg id="Glyph" xmlns="http://www.w3.org/2000/svg" version="1.1" viewBox="0 0 64 64">
  <path d="M18,25h28c1.6543,0,3-1.3457,3-3v-12c0-1.6543-1.3457-3-3-3h-28c-1.6543,0-3,1.3457-3,3v12c0,1.6543,1.3457,3,3,3ZM43,12c0-.55273.44727-1,1-1s1,.44727,1,1v8c0,.55273-.44727,1-1,1s-1-.44727-1-1v-8ZM35.10547,12.44727c-.24707-.49414-.04688-1.09473.44727-1.3418.49414-.24609,1.09473-.04688,1.3418.44727l1.10547,2.21094,1.10547-2.21094c.24805-.49414.84863-.69336,1.3418-.44727.49414.24707.69434.84766.44727,1.3418l-1.77637,3.55273,1.77637,3.55273c.24706.49413.04689,1.09469-.44723,1.34178-.47339.23672-1.09421.04662-1.34184-.44725l-1.10547-2.21094-1.10547,2.21094c-.23707.47414-.84892.69203-1.3418.44727-.49414-.24707-.69434-.84766-.44727-1.3418l1.77637-3.55273-1.77637-3.55273ZM27,14c0-1.6543,1.3457-3,3-3s3,1.3457,3,3v6c0,.55273-.44775,1-1,1s-1-.44727-1-1v-2h-2v2c0,.55273-.44775,1-1,1s-1-.44727-1-1v-6ZM20,11h4c.55225,0,1,.44727,1,1s-.44775,1-1,1h-1v7c0,.55273-.44775,1-1,1s-1-.44727-1-1v-7h-1c-.55225,0-1-.44727-1-1s.44775-1,1-1Z" style="fill: #000; stroke-width: 0px;"/>
  <path d="M31,14c0-.55176-.44873-1-1-1s-1,.44824-1,1v2h2v-2Z" style="fill: #000; stroke-width: 0px;"/>
  <path d="M21,45h2v-1c0-.55127-.44873-1-1-1h-2v1c0,.55127.44873,1,1,1Z" style="fill: #000; stroke-width: 0px;"/>
  <path d="M44,44v-1h-2c-.55127,0-1,.44873-1,1v1h2c.55127,0,1-.44873,1-1Z" style="fill: #000; stroke-width: 0px;"/>
  <path d="M15,51h34c1.65002,0,3-1.35004,3-3v-6c0-.20001-.06-.39001-.16998-.54999l-2.97003-4.45001H15.14001l-2.97003,4.45001c-.10999.15997-.16998.34998-.16998.54999v6c0,1.64996,1.34998,3,3,3ZM39,44c0-1.65002,1.34998-3,3-3h3c.54999,0,1,.45001,1,1v2c0,1.64996-1.34998,3-3,3h-3c-.54999,0-1-.45001-1-1v-2ZM28,41h8c.54999,0,1,.45001,1,1s-.45001,1-1,1h-8c-.54999,0-1-.45001-1-1s.45001-1,1-1ZM28,45h8c.54999,0,1,.45001,1,1s-.45001,1-1,1h-8c-.54999,0-1-.45001-1-1s.45001-1,1-1ZM18,42c0-.54999.45001-1,1-1h3c1.65002,0,3,1.34998,3,3v2c0,.54999-.45001,1-1,1h-3c-1.65002,0-3-1.35004-3-3v-2Z" style="fill: #000; stroke-width: 0px;"/>
  <path d="M12.76001,33.96997l1.70001.42004,3.20996-5.13c-.17999-.16003-.40997-.26001-.66998-.26001h-4c-.54999,0-1,.45001-1,1v3c0,.45996.31.85999.76001.96997Z" style="fill: #000; stroke-width: 0px;"/>
  <path d="M46.33002,29.26001l3.20996,5.13,1.70001-.42004c.45001-.10999.76001-.51001.76001-.96997v-3c0-.54999-.45001-1-1-1h-4c-.26001,0-.48999.09998-.66998.26001Z" style="fill: #000; stroke-width: 0px;"/>
  <path d="M56,55h-7v-2h-8v2h-18v-2h-8v2h-7c-.54999,0-1,.45001-1,1s.45001,1,1,1h48c.54999,0,1-.45001,1-1s-.45001-1-1-1Z" style="fill: #000; stroke-width: 0px;"/>
  <path d="M42,27h-20c-.34003,0-.66998.17999-.84998.46997l-4.71002,7.53003h31.12l-4.71002-7.53003c-.17999-.28998-.50995-.46997-.84998-.46997Z" style="fill: #000; stroke-width: 0px;"/>
</svg>