<?xml version="1.0" encoding="UTF-8"?>
<svg xmlns="http://www.w3.org/2000/svg" version="1.1" viewBox="0 0 64 64">
  <!-- Generator: Adobe Illustrator 28.7.1, SVG Export Plug-In . SVG Version: 1.2.0 Build 142)  -->
  <g>
    <g id="Glyph">
      <g>
        <path d="M50,44.5c-2.21002,0-4,1.78998-4,4s1.78998,4,4,4,4-1.79004,4-4-1.78998-4-4-4ZM50,49.5c-.54999,0-1-.45001-1-1s.45001-1,1-1,1,.45001,1,1-.45001,1-1,1Z"/>
        <path d="M17,45.5c-2.21002,0-4,1.78998-4,4s1.78998,4,4,4,4-1.79004,4-4-1.78998-4-4-4ZM17,50.5c-.54999,0-1-.45001-1-1s.45001-1,1-1,1,.45001,1,1-.45001,1-1,1Z"/>
        <path d="M45,21.5c0,.54999-.45001,1-1,1h-6c-.54999,0-1-.45001-1-1v-1h-2.73999l-11.88,12.71997c-1.04999-1.83997-2.84998-3.14001-4.91003-3.56l13.97003-14.84998c.19-.20001.45001-.31.72998-.31h4.83002v-3c0-.54999.45001-1,1-1s1,.45001,1,1v9h5c.54999,0,1,.45001,1,1Z"/>
        <path d="M20.98975,34.95801c-.77539-2.06836-2.78076-3.45801-4.98975-3.45801s-4.21436,1.38965-4.98975,3.45703l-1.70361,4.54297h13.38666l-1.70355-4.54199Z"/>
        <path d="M40,41.5v7h-17.09003c-.46997-2.84003-2.94-5-5.90997-5s-5.44,2.15997-5.90997,5h-3.09003c-.54999,0-1-.45001-1-1v-6h33Z"/>
        <polygon points="47 25.01917 47 32.5 56.35107 32.5 47 25.01917"/>
        <path d="M46,34.5c-.54999,0-1-.45001-1-1v-9h-3v24h2c0-3.31,2.69-6,6-6s6,2.69,6,6c.54999,0,1-.45001,1-1v-13h-11ZM48,38.5h-2c-.54999,0-1-.45001-1-1s.45001-1,1-1h2c.54999,0,1,.45001,1,1s-.45001,1-1,1Z"/>
      </g>
    </g>
  </g>
</svg>