<?xml version="1.0" encoding="UTF-8"?>
<svg id="Glyph" xmlns="http://www.w3.org/2000/svg" version="1.1" viewBox="0 0 64 64">
  <path d="M55.757,50.08499l-10.09998-10.10004-5.66003,5.66003,10.10004,10.09998c.77997.78003,1.79999,1.17004,2.82996,1.17004,1.02002,0,2.04999-.39001,2.83002-1.17004,1.54999-1.56,1.54999-4.09998,0-5.65997Z" style="fill: #000; stroke-width: 0px;"/>
  <path d="M31.13414,22.71506l1.66162-1.6629c-.55676-1.07556-1.27087-2.10345-2.11414-3.05768l-2.13318,2.13318,2.58569,2.5874Z" style="fill: #000; stroke-width: 0px;"/>
  <path d="M29.26183,16.58615c-.76831-.67761-1.57568-1.26532-2.40948-1.75256l-1.79852,1.79712,2.08105,2.0824,2.12695-2.12695Z" style="fill: #000; stroke-width: 0px;"/>
  <rect x="25.91345" y="22.04781" width="2.94543" height="3.65936" transform="translate(-8.86344 26.34781) rotate(-44.9831)" style="fill: #000; stroke-width: 0px;"/>
  <path d="M24.94817,13.90829c-1.12061-.4458-2.25073-.72736-3.35175-.82831l-.04541.04547,2.08875,2.09021,1.30841-1.30737Z" style="fill: #000; stroke-width: 0px;"/>
  <rect x="18.66422" y="15.15186" width="2.94869" height="2.95175" transform="translate(-5.86011 19.09999) rotate(-44.97735)" style="fill: #000; stroke-width: 0px;"/>
  <rect x="22.16399" y="18.65505" width="2.94713" height="2.94536" transform="translate(-7.3099 22.60048) rotate(-44.98321)" style="fill: #000; stroke-width: 0px;"/>
  <path d="M32.0529,30.6268l.72217.72217c.57379-.77472.97668-1.67267,1.21167-2.65833l-1.93384,1.93616Z" style="fill: #000; stroke-width: 0px;"/>
  <path d="M23.09013,33.59573c.8902.2887,1.76935.47089,2.62579.54565l.00696-.0069-1.58569-1.58673-1.04706,1.04797Z" style="fill: #000; stroke-width: 0px;"/>
  <path d="M18.01537,30.66074c.94965.83569,1.97821,1.55853,3.06488,2.11633l1.64288-1.64423-2.58911-2.59076-2.11865,2.11865Z" style="fill: #000; stroke-width: 0px;"/>
  <path d="M14.50468,15.90714c-.57318.7738-.97589,1.67065-1.21112,2.65503l1.93201-1.93414-.72089-.72089Z" style="fill: #000; stroke-width: 0px;"/>
  <path d="M16.63609,25.04184l-1.79376,1.79236c.49292.84515,1.07587,1.65802,1.74994,2.42151l2.12817-2.12817-2.08435-2.08569Z" style="fill: #000; stroke-width: 0px;"/>
  <rect x="25.91053" y="29.75903" width="2.95542" height="2.24292" transform="translate(-13.81505 28.42915) rotate(-45.0251)" style="fill: #000; stroke-width: 0px;"/>
  <path d="M28.74339,33.94022c.96515-.23315,1.84839-.62537,2.61072-1.18365l-.71466-.71466-1.89606,1.89832Z" style="fill: #000; stroke-width: 0px;"/>
  <path d="M18.57951,13.27054c-.97272.23309-1.87183.63947-2.65961,1.22369l.71899.71893,1.94061-1.94263Z" style="fill: #000; stroke-width: 0px;"/>
  <path d="M13.14098,21.54453l-.03918.03918c.01276.13898.01617.27484.03455.41553.12885.98828.3974,1.97266.77753,2.93469l1.30811-1.30707-2.08099-2.08234Z" style="fill: #000; stroke-width: 0px;"/>
  <rect x="15.16376" y="18.65421" width="2.9505" height="2.94713" transform="translate(-9.3582 17.65208) rotate(-44.98069)" style="fill: #000; stroke-width: 0px;"/>
  <path d="M36.66698,36.655c-.46997.46997-.96997.90997-1.47998,1.32001l4.83002,1.78998-1.92999-4.71997c-.44.56-.91003,1.09998-1.42004,1.60999Z" style="fill: #000; stroke-width: 0px;"/>
  <path d="M39.78003,22.79999c-.83002-3.60999-2.75-7-5.53003-9.78003-.91998-.90997-1.91998-1.75995-2.97998-2.47998-3.33002-2.31-7.06-3.46002-10.59003-3.46002-3.72998,0-7.22998,1.28003-9.77002,3.82001-5.83997,5.84003-4.88995,16.31,2.13,23.33002,2.09003,2.09998,4.59003,3.75,7.22003,4.75.90997.34003,1.75.59003,2.46997.75l15.44,4.90002,2.5-2.5-.13-.05005s-7.82996-2.88995-7.85004-2.89996c-.2791-.00122-.59983-.49107-.59991-.7599-.00014-.46661.07895-.86964.56-1.07011.91998-.59998,1.78998-1.29999,2.59998-2.12.84998-.84998,1.59998-1.77997,2.22008-2.78013.17784-.26598.44835-.38956.74976-.43982.4168-.06949.87305.21602,1.03016.59995l3.13,7.63.04999.13,2.22003-2.22003-4.87-15.34998ZM33.53998,33.51996c-1.75994,1.77001-4.20994,2.68005-6.90995,2.68005-2.05315,0-3.95117-.49288-5.81002-1.35004-1.79999-.83002-3.5-1.98999-4.96002-3.45001-2.59998-2.59998-4.26996-5.84998-4.70001-9.14996-.07688-.53833-.09998-1.0867-.09998-1.63,0-2.72998.91998-5.14001,2.67999-6.89001,1.92999-1.92999,4.59003-2.78998,7.43007-2.66998,2.3251,0,4.74778.90335,6.7289,2.05985,3.04048,1.7749,5.55703,4.54586,7.03103,7.76016.60004,1.34998,1.02002,2.72998,1.20001,4.10999.44,3.39001-.47998,6.42999-2.59003,8.52997Z" style="fill: #000; stroke-width: 0px;"/>
  <path d="M34.13268,25.71567l.04486-.04492c-.0127-.13849-.01611-.27393-.03436-.41418-.09686-.74194-.271-1.48199-.51099-2.21216l-1.08435,1.08533,1.58484,1.58594Z" style="fill: #000; stroke-width: 0px;"/>
  <rect x="18.66097" y="22.15323" width="2.95208" height="2.94733" transform="translate(-10.80874 21.15917) rotate(-45)" style="fill: #000; stroke-width: 0px;"/>
  <rect x="22.41007" y="25.54742" width="2.95382" height="3.66136" transform="translate(-12.3629 24.9095) rotate(-45)" style="fill: #000; stroke-width: 0px;"/>
  <rect x="29.41458" y="26.25759" width="2.94385" height="2.24244" transform="translate(-10.31406 29.84644) rotate(-44.98236)" style="fill: #000; stroke-width: 0px;"/>
</svg>