<?xml version="1.0" encoding="UTF-8"?>
<svg xmlns="http://www.w3.org/2000/svg" version="1.1" viewBox="0 0 64 64">
  <!-- Generator: Adobe Illustrator 28.7.1, SVG Export Plug-In . SVG Version: 1.2.0 Build 142)  -->
  <g>
    <g id="Glyph">
      <g>
        <circle cx="30.99997" cy="46" r="1"/>
        <path d="M33.49899,41.6748c-.30908-.17871-.49902-.50879-.49902-.86523v-15.80957c0-1.10254-.89697-2-2-2s-2,.89746-2,2v15.80957c0,.35645-.18994.68652-.49902.86523-1.54248.89355-2.50098,2.55078-2.50098,4.3252,0,2.75684,2.24316,5,5,5s5-2.24316,5-5c0-1.77441-.9585-3.43164-2.50098-4.3252ZM30.99997,49c-1.6543,0-3-1.3457-3-3s1.3457-3,3-3,3,1.3457,3,3-1.3457,3-3,3Z"/>
        <path d="M37.99997,31c0-1.04004.58002-1.98999,1.51001-2.46002l4.48999-2.23999V10c0-1.65002-1.34998-3-3-3h-20c-1.65002,0-3,1.34998-3,3v44c0,1.64996,1.34998,3,3,3h20c1.65002,0,3-1.35004,3-3v-18.29999l-4.47998-2.24005c-.94-.46997-1.52002-1.40997-1.52002-2.45996ZM30.99997,11c1.06689,0,2.0708.41602,2.82715,1.17285.39062.39062.39062,1.02344,0,1.41406s-1.02344.39062-1.41406,0c-.37842-.37891-.88037-.58691-1.41309-.58691-1.10303,0-2,.89746-2,2s.89697,2,2,2c.53271,0,1.03467-.20801,1.41309-.58691.39062-.39062,1.02344-.39062,1.41406,0s.39062,1.02344,0,1.41406c-.75635.75684-1.76025,1.17285-2.82715,1.17285-2.20557,0-4-1.79395-4-4s1.79443-4,4-4ZM22.99997,21h1c.55225,0,1,.44727,1,1s-.44775,1-1,1h-1c-.55225,0-1-.44727-1-1s.44775-1,1-1ZM22.99997,25h1c.55225,0,1,.44727,1,1s-.44775,1-1,1h-1c-.55225,0-1-.44727-1-1s.44775-1,1-1ZM22.99997,29h1c.55225,0,1,.44727,1,1s-.44775,1-1,1h-1c-.55225,0-1-.44727-1-1s.44775-1,1-1ZM22.99997,33h1c.55225,0,1,.44727,1,1s-.44775,1-1,1h-1c-.55225,0-1-.44727-1-1s.44775-1,1-1ZM21.99997,38c0-.55273.44775-1,1-1h1c.55225,0,1,.44727,1,1s-.44775,1-1,1h-1c-.55225,0-1-.44727-1-1ZM30.99997,53c-3.85986,0-7-3.14062-7-7,0-2.28809,1.13623-4.43652,3-5.73828v-15.26172c0-2.20605,1.79443-4,4-4s4,1.79395,4,4v15.26172c1.86377,1.30176,3,3.4502,3,5.73828,0,3.85938-3.14014,7-7,7Z"/>
        <path d="M45.64444,28.112c-.22119-.13696-.49768-.14868-.72986-.03296l-4.50006,2.25006c-.25415.12744-.41455.38672-.41455.6709s.1604.54346.41455.6709l4.50005,2.25006c.49235.24618,1.08546-.11595,1.08546-.67096v-4.50006c0-.26001-.13477-.50098-.35559-.63794Z"/>
      </g>
    </g>
  </g>
</svg>