<?xml version="1.0" encoding="UTF-8"?>
<svg xmlns="http://www.w3.org/2000/svg" version="1.1" viewBox="0 0 48 48">
  <!-- Generator: Adobe Illustrator 28.7.1, SVG Export Plug-In . SVG Version: 1.2.0 Build 142)  -->
  <g>
    <g id="Glyph">
      <g>
        <path d="M33,27c.6156,0,1.21564-.06409,1.80078-.17108.65356-2.1778,1.19922-5.46167,1.19922-9.82892s-.54565-7.65112-1.19922-9.82892c-.58514-.10699-1.18518-.17108-1.80078-.17108s-1.21564.06409-1.80078.17108c-.65356,2.1778-1.19922,5.46167-1.19922,9.82892s.54565,7.65112,1.19922,9.82892c.58514.10699,1.18518.17108,1.80078.17108Z"/>
        <path d="M28.9303,26.12555c-.62854-2.67902-.9303-5.9549-.9303-9.12555s.30176-6.44653.9303-9.12555c-3.48938,1.56256-5.9303,5.06134-5.9303,9.12555s2.44092,7.56299,5.9303,9.12555Z"/>
        <path d="M43,17c0-4.06421-2.44092-7.56305-5.9303-9.12561.6286,2.67902.9303,5.95496.9303,9.12561s-.3017,6.44659-.9303,9.12561c3.48938-1.56256,5.9303-5.0614,5.9303-9.12561Z"/>
        <path d="M40,36h-20.58594l5.58594-5.58594v.58594c0,.55225.44727,1,1,1s1-.44775,1-1v-3c0-.55225-.44727-1-1-1h-3c-.55273,0-1,.44775-1,1s.44727,1,1,1h.58594l-6.58594,6.58594-10.29297-10.29297c-.39062-.39062-1.02344-.39062-1.41406,0s-.39062,1.02344,0,1.41406l9.29297,9.29297h-6.58594c-1.6543,0-3,1.3457-3,3s1.3457,3,3,3h32c1.6543,0,3-1.3457,3-3s-1.3457-3-3-3Z"/>
      </g>
    </g>
  </g>
</svg>