<?xml version="1.0" encoding="UTF-8"?>
<svg id="Glyph" xmlns="http://www.w3.org/2000/svg" version="1.1" viewBox="0 0 48 48">
  <circle cx="36" cy="12" r="1" fill="#000" stroke-width="0"/>
  <path d="M36,5c-3.85986,0-7,3.14014-7,7,0,3.51477,2.60638,6.42432,5.98633,6.91803v3.08197c0,.55127-.44873,1-1,1h-4.98633v-3c0-1.6543-1.3457-3-3-3h-4c-1.6543,0-3,1.3457-3,3v3h-4.98633c-.55127,0-1-.44873-1-1v-3.07983c3.3866-.48779,6-3.4007,6-6.92017,0-3.85986-3.14014-7-7-7s-7,3.14014-7,7c0,3.51947,2.6134,6.43237,6,6.92017v3.07983c0,1.6543,1.3457,3,3,3h4.98633v3c0,1.6543,1.3457,3,3,3h4c1.6543,0,3-1.3457,3-3v-3h4.98633c1.6543,0,3-1.3457,3-3v-3.07776c3.39325-.48187,6.01367-3.39801,6.01367-6.92224,0-3.85986-3.14014-7-7-7ZM9.01367,12c0-1.6543,1.3457-3,3-3s3,1.3457,3,3-1.3457,3-3,3-3-1.3457-3-3ZM24,27c-.55231,0-1-.44775-1-1,0-.55231.44769-1,1-1s1,.44769,1,1c0,.55225-.44769,1-1,1ZM24,23c-.55231,0-1-.44775-1-1,0-.55231.44769-1,1-1s1,.44769,1,1c0,.55225-.44769,1-1,1ZM36,15c-1.6543,0-3-1.3457-3-3s1.3457-3,3-3,3,1.3457,3,3-1.3457,3-3,3Z" fill="#000" stroke-width="0"/>
  <circle cx="12.01367" cy="12" r="1" fill="#000" stroke-width="0"/>
  <path d="M21,42c0,.55225.44775,1,1,1h4c.55225,0,1-.44775,1-1v-9h-6v9Z" fill="#000" stroke-width="0"/>
</svg>