<?xml version="1.0" encoding="UTF-8"?>
<svg id="Glyph" xmlns="http://www.w3.org/2000/svg" version="1.1" viewBox="0 0 48 48">
  <path d="M42,41h-7.98633v-2h3c1.6543,0,3-1.3457,3-3s-1.3457-3-3-3h-8c-1.6543,0-3,1.3457-3,3s1.3457,3,3,3h3v2h-16.01367v-2h3c1.6543,0,3-1.3457,3-3s-1.3457-3-3-3h-8c-1.6543,0-3,1.3457-3,3s1.3457,3,3,3h3v2H6c-.55273,0-1,.44775-1,1s.44727,1,1,1h36c.55273,0,1-.44775,1-1s-.44727-1-1-1Z" fill="#000" stroke-width="0"/>
  <path d="M10,28v3h10v-3c0-2.76001-2.23999-5-5-5s-5,2.23999-5,5Z" fill="#000" stroke-width="0"/>
  <path d="M38.01001,28c0-2.76001-2.23999-5-5-5-2.75,0-5,2.23999-5,5v3h10v-3Z" fill="#000" stroke-width="0"/>
  <path d="M8,21h9V7h-4v-1c0-.55225-.44727-1-1-1s-1,.44775-1,1v1h-3c-1.6543,0-3,1.3457-3,3v8c0,1.6543,1.3457,3,3,3ZM9,11h4c.55273,0,1,.44775,1,1s-.44727,1-1,1h-1v3c0,.55225-.44727,1-1,1s-1-.44775-1-1v-3h-1c-.55273,0-1-.44775-1-1s.44727-1,1-1Z" fill="#000" stroke-width="0"/>
  <path d="M40,7h-2.98633v-1c0-.55225-.44727-1-1-1s-1,.44775-1,1v1h-16.01367v14h21c1.6543,0,3-1.3457,3-3v-8c0-1.6543-1.3457-3-3-3ZM23,11h4c.55273,0,1,.44775,1,1s-.44727,1-1,1h-4c-.55273,0-1-.44775-1-1s.44727-1,1-1ZM34,17h-11c-.55273,0-1-.44775-1-1s.44727-1,1-1h11c.55273,0,1,.44775,1,1s-.44727,1-1,1ZM39,13h-8c-.55273,0-1-.44775-1-1s.44727-1,1-1h8c.55273,0,1,.44775,1,1s-.44727,1-1,1Z" fill="#000" stroke-width="0"/>
</svg>