<?xml version="1.0" encoding="UTF-8"?>
<svg id="Glyph" xmlns="http://www.w3.org/2000/svg" version="1.1" viewBox="0 0 48 48">
  <path d="M5,36c0,1.6543,1.3457,3,3,3h15v-12H5v9ZM19,32c.55231,0,1,.44769,1,1,0,.55225-.44769,1-1,1s-1-.44775-1-1c0-.55231.44769-1,1-1ZM8.30664,32.29297l2-2c.39062-.39062,1.02344-.39062,1.41406,0s.39062,1.02344,0,1.41406l-.29297.29297h3.57227c.55273,0,1,.44775,1,1s-.44727,1-1,1h-3.57227l.29297.29297c.39062.39056.39062,1.02332.00006,1.41394-.37982.37994-1.03601.37823-1.41412.00012l-2-2c-.39062-.39062-.39062-1.02344,0-1.41406Z" fill="#000" stroke-width="0"/>
  <path d="M25,39h15c1.6543,0,3-1.3457,3-3v-9h-18v12ZM33,32h3.58594l-.29297-.29297c-.39062-.39062-.39062-1.02344,0-1.41406s1.02344-.39062,1.41406,0l2,2c.39062.39062.39062,1.02344,0,1.41406l-2,2c-.37451.37451-1.02869.38538-1.41406,0-.39062-.39062-.39062-1.02344,0-1.41406l.29297-.29297h-3.58594c-.55273,0-1-.44775-1-1s.44727-1,1-1ZM29.01367,32c.55231,0,1,.44769,1,1,0,.55225-.44769,1-1,1-.55225,0-1-.44775-1-1,0-.55231.44775-1,1-1Z" fill="#000" stroke-width="0"/>
  <path d="M40,13h-1.98633v-3c0-.55225-.44727-1-1-1s-1,.44775-1,1v3H12v-3c0-.55225-.44727-1-1-1s-1,.44775-1,1v3h-2c-1.6543,0-3,1.3457-3,3v9h38v-9c0-1.6543-1.3457-3-3-3ZM10,22c-.55231,0-1-.44775-1-1,0-.55231.44769-1,1-1s1,.44769,1,1c0,.55225-.44769,1-1,1ZM10,18c-.55231,0-1-.44775-1-1,0-.55231.44769-1,1-1s1,.44769,1,1c0,.55225-.44769,1-1,1ZM22,22h-8c-.55273,0-1-.44775-1-1s.44727-1,1-1h8c.55273,0,1,.44775,1,1s-.44727,1-1,1ZM22,18h-8c-.55273,0-1-.44775-1-1s.44727-1,1-1h8c.55273,0,1,.44775,1,1s-.44727,1-1,1ZM26,22c-.55231,0-1-.44775-1-1,0-.55231.44769-1,1-1s1,.44769,1,1c0,.55225-.44769,1-1,1ZM26,18c-.55231,0-1-.44775-1-1,0-.55231.44769-1,1-1s1,.44769,1,1c0,.55225-.44769,1-1,1ZM38,22h-8c-.55273,0-1-.44775-1-1s.44727-1,1-1h8c.55273,0,1,.44775,1,1s-.44727,1-1,1ZM38,18h-8c-.55273,0-1-.44775-1-1s.44727-1,1-1h8c.55273,0,1,.44775,1,1s-.44727,1-1,1Z" fill="#000" stroke-width="0"/>
</svg>