<?xml version="1.0" encoding="UTF-8"?>
<svg id="Glyph" xmlns="http://www.w3.org/2000/svg" version="1.1" viewBox="0 0 48 48">
  <path d="M36,41h-3.98999v-2h-6v2h-4.01001v-2h-6v2h-4c-.55273,0-1,.44775-1,1s.44727,1,1,1h24c.55273,0,1-.44775,1-1s-.44727-1-1-1Z" fill="#000" stroke-width="0"/>
  <rect x="19" y="18" width="10" height="8" fill="#000" stroke-width="0"/>
  <path d="M16,35v2h16v-2c1.6543,0,3-1.3457,3-3V15c0-1.6543-1.3457-3-3-3h-3.98633v-5h1.57227s1.70123,1.70117,1.70703,1.70703c.36194.36194,1.02985.38422,1.41406,0,.39062-.39062.39062-1.02344,0-1.41406l-2-2c-.1875-.1875-.44141-.29297-.70703-.29297h-12c-.26562,0-.51953.10547-.70703.29297l-2,2c-.39062.39062-.39062,1.02344,0,1.41406s1.02344.39062,1.41406,0l1.70703-1.70703h1.58594v5h-4c-1.6543,0-3,1.3457-3,3v17c0,1.6543,1.3457,3,3,3ZM18.01367,31c-.55225,0-1-.44775-1-1,0-.55231.44775-1,1-1,.55231,0,1,.44769,1,1,0,.55225-.44769,1-1,1ZM26,31h-4c-.55273,0-1-.44775-1-1s.44727-1,1-1h4c.55273,0,1,.44775,1,1s-.44727,1-1,1ZM30,31c-.55231,0-1-.44775-1-1,0-.55231.44769-1,1-1s1,.44769,1,1c0,.55225-.44769,1-1,1ZM22,7h4.01367v5h-4.01367v-5ZM17,17c0-.55225.44727-1,1-1h12c.55273,0,1,.44775,1,1v10c0,.55225-.44727,1-1,1h-12c-.55273,0-1-.44775-1-1v-10Z" fill="#000" stroke-width="0"/>
</svg>