<?xml version="1.0" encoding="UTF-8"?>
<svg id="Glyph" xmlns="http://www.w3.org/2000/svg" version="1.1" viewBox="0 0 64 64">
  <path d="M25,32.48047c4.42578,2.01367,9.57422,2.01367,14,0v-9.48047h-14v9.48047Z" style="fill: #000; stroke-width: 0px;"/>
  <path d="M42,13h-2.46484l-2.66669-4h1.71747l1.70702,1.70702c.36489.36489,1.01748.39661,1.41407.00001.39062-.39062.39062-1.02344,0-1.41406l-2-2c-.1875-.1875-.44189-.29297-.70703-.29297h-14c-.26514,0-.51953.10547-.70703.29297l-2,2c-.39062.39062-.39062,1.02344,0,1.41406s1.02344.39062,1.41406,0l1.70703-1.70703h1.71747l-2.66669,4h-2.46484c-1.6543,0-3,1.3457-3,3v28c0,1.6543,1.3457,3,3,3h2.52283s-3.45154,8.62891-3.45167,8.62924c-.46713,1.16901,1.38989,1.91029,1.85755.74186l1.34845-3.37109h15.44568l1.34842,3.37102c.47126,1.17813,2.34097.46669,1.85745-.74212l-3.45154-8.62891h2.52283c1.6543,0,3-1.3457,3-3v-28c0-1.6543-1.3457-3-3-3ZM29.53516,9h4.92969l2.66669,4h-10.26306l2.66669-4ZM37,18c0,.55273-.44775,1-1,1h-8c-.55225,0-1-.44727-1-1s.44775-1,1-1h8c.55225,0,1,.44727,1,1ZM24,17c.55231,0,1,.44769,1,1,0,.55225-.44769,1-1,1s-1-.44775-1-1c0-.55231.44769-1,1-1ZM23,40c0-1.6543,1.3457-3,3-3s3,1.3457,3,3-1.3457,3-3,3-3-1.3457-3-3ZM38.92285,51h-13.8457l1.59998-4h10.64575l1.59998,4ZM38,43c-1.6543,0-3-1.3457-3-3s1.3457-3,3-3,3,1.3457,3,3-1.3457,3-3,3ZM41,33.11133c0,.37891-.21387.72461-.55273.89453-2.64453,1.32227-5.5459,1.9834-8.44727,1.9834s-5.80273-.66113-8.44727-1.9834c-.33887-.16992-.55273-.51562-.55273-.89453v-11.11133c0-.55273.44775-1,1-1h16c.55225,0,1,.44727,1,1v11.11133ZM40,19c-.55231,0-1-.44775-1-1,0-.55231.44769-1,1-1s1,.44769,1,1c0,.55225-.44769,1-1,1Z" style="fill: #000; stroke-width: 0px;"/>
  <circle cx="38" cy="40" r="1" style="fill: #000; stroke-width: 0px;"/>
  <circle cx="26" cy="40" r="1" style="fill: #000; stroke-width: 0px;"/>
</svg>