<?xml version="1.0" encoding="UTF-8"?>
<svg xmlns="http://www.w3.org/2000/svg" version="1.1" viewBox="0 0 64 64">
  <!-- Generator: Adobe Illustrator 28.7.1, SVG Export Plug-In . SVG Version: 1.2.0 Build 142)  -->
  <g>
    <g id="Glyph">
      <g>
        <path d="M55.43876,38.61125c-.98999-.90997-2.33002-1.37-3.66998-1.26001l-41.94,3.48999c-1.59003.14001-2.83002,1.48999-2.83002,3.08002,0,1.70001,1.38,3.08002,3.08002,3.08002h42.08997c2.66003,0,4.83002-2.17004,4.83002-4.83002,0-1.34998-.57001-2.65002-1.56-3.56ZM51.99876,43.00127c-.54999,0-1-.45001-1-1s.45001-1,1-1,1,.45001,1,1-.45001,1-1,1Z"/>
        <path d="M51.99876,19.00127h-.81l3.02997,16.64996c-.65997-.20996-1.34998-.32001-2.06-.32001-.17999,0-.37.01001-.56.03003l-3.40997.28003-3.02002-16.64001h-3.16998c-.54999,0-1-.45001-1-1s.45001-1,1-1h9.59003l3.69995-3.71002c.39001-.39001,1.03003-.39001,1.42004,0,.38995.39001.38995,1.03003,0,1.41998l-4,4c-.19.18005-.44.29004-.71002.29004Z"/>
        <path d="M52.99876,49.00127v1c0,.54999-.45001,1-1,1H11.99876c-.54999,0-1-.45001-1-1v-1h42Z"/>
      </g>
    </g>
  </g>
</svg>