<?xml version="1.0" encoding="UTF-8"?>
<svg xmlns="http://www.w3.org/2000/svg" version="1.1" viewBox="0 0 64 64">
  <!-- Generator: Adobe Illustrator 28.7.1, SVG Export Plug-In . SVG Version: 1.2.0 Build 142)  -->
  <g>
    <g id="Glyph">
      <g>
        <path d="M37,47c0-4.46777,1.74023-8.66895,4.89941-11.8291l.63574-.63525c.1875-.1875.29297-.44189.29297-.70752,0-.26514-.10547-.51953-.29297-.70703l-2.82812-2.82812c-.39062-.39062-1.02344-.39062-1.41406,0l-3.58594,3.58594c-.71289.7124-1.69922,1.12109-2.70703,1.12109s-1.99414-.40869-2.70703-1.12109l-3.58594-3.58594c-.39062-.39062-1.02344-.39062-1.41406,0l-2.82812,2.82812c-.1875.1875-.29297.44189-.29297.70703,0,.26562.10547.52002.29297.70752l.63574.63477c3.15918,3.16064,4.89941,7.36182,4.89941,11.82959,0,3.00928-.99414,5.99219-2.7998,8.3999-.22754.30322-.26367.7085-.09473,1.04736.16992.33887.51562.55273.89453.55273h14c.37891,0,.72461-.21387.89453-.55273.16895-.33887.13281-.74414-.09473-1.04736-1.80566-2.40771-2.7998-5.39062-2.7998-8.3999Z"/>
        <path d="M50.91998,19.06c.04999-.35004.08002-.70001.08002-1.06,0-3.85999-3.14001-7-7-7-1.40002,0-2.72998.40997-3.87,1.15997-1.46002-3.09998-4.62-5.15997-8.13-5.15997s-6.66998,2.06-8.13,5.15997c-1.14001-.75-2.46997-1.15997-3.87-1.15997-3.85999,0-7,3.14001-7,7,0,.35999.03003.70996.08002,1.06-3.42999.45001-6.08002,3.39001-6.08002,6.94,0,3.85999,3.14001,7,7,7,.34003,0,.66998-.02002,1-.07001v.07001c0,3.85999,3.14001,7,7,7,.40002,0,.79999-.03003,1.17999-.10004-.65997-1.19995-1.48999-2.32001-2.48999-3.32001l-.64001-.62994c-.57001-.57001-.88-1.32001-.88-2.12006,0-.79999.31-1.56.88-2.12l2.83002-2.82996c.57001-.57001,1.32001-.88,2.12-.88s1.54999.31,2.12.88l3.59003,3.57996c.32996.34003.82001.54004,1.28998.54004s.96002-.20001,1.28998-.54004l3.59003-3.57996c.57001-.57001,1.32001-.88,2.12-.88s1.54999.31,2.12.88l2.83002,2.82996c.57001.56.88,1.32001.88,2.12,0,.80005-.31,1.55005-.88,2.12006l-.64001.63995c-1,1-1.83002,2.11005-2.48999,3.31.38.07001.77997.10004,1.17999.10004,3.85999,0,7-3.14001,7-7v-.07001c.33002.04999.65997.07001,1,.07001,3.85999,0,7-3.14001,7-7,0-3.54999-2.65002-6.48999-6.08002-6.94ZM29.29297,15.46436c.39062-.39062,1.02344-.39062,1.41406,0,.69141.69141,1.89453.69141,2.58594,0,.39062-.39062,1.02344-.39062,1.41406,0,.39062.39014.39062,1.02344,0,1.41406-.72266.72314-1.68457,1.12158-2.70703,1.12158s-1.98438-.39844-2.70703-1.12158c-.39062-.39062-.39062-1.02393,0-1.41406ZM19.29297,15.46436c.39062-.39062,1.02344-.39062,1.41406,0,.69141.69141,1.89453.69141,2.58594,0,.39062-.39062,1.02344-.39062,1.41406,0,.39062.39014.39062,1.02344,0,1.41406-.72266.72314-1.68457,1.12158-2.70703,1.12158s-1.98438-.39844-2.70703-1.12158c-.39062-.39062-.39062-1.02393,0-1.41406ZM20.70703,25.87842c-.72266.72314-1.68457,1.12158-2.70703,1.12158s-1.98438-.39844-2.70703-1.12158c-.39062-.39062-.39062-1.02393,0-1.41406.39062-.39062,1.02344-.39062,1.41406,0,.69141.69141,1.89453.69141,2.58594,0,.39062-.39062,1.02344-.39062,1.41406,0,.39062.39014.39062,1.02344,0,1.41406ZM27.70703,21.70703c-.74609.74658-1.72656,1.11963-2.70703,1.11963s-1.96094-.37305-2.70703-1.11963c-.39062-.39062-.39062-1.02344,0-1.41406s1.02344-.39062,1.41406,0c.71289.71289,1.87305.71289,2.58594,0,.39062-.39062,1.02344-.39062,1.41406,0s.39062,1.02344,0,1.41406ZM34.70703,24.70703c-.74609.74658-1.72656,1.11963-2.70703,1.11963s-1.96094-.37305-2.70703-1.11963c-.39062-.39062-.39062-1.02344,0-1.41406s1.02344-.39062,1.41406,0c.71289.71289,1.87305.71289,2.58594,0,.39062-.39062,1.02344-.39062,1.41406,0s.39062,1.02344,0,1.41406ZM40.70703,20.87842c-.72266.72314-1.68457,1.12158-2.70703,1.12158s-1.98438-.39844-2.70703-1.12158c-.39062-.39062-.39062-1.02393,0-1.41406.39062-.39062,1.02344-.39062,1.41406,0,.69141.69141,1.89453.69141,2.58594,0,.39062-.39062,1.02344-.39062,1.41406,0,.39062.39014.39062,1.02344,0,1.41406ZM48.70703,25.87842c-.72266.72314-1.68457,1.12158-2.70703,1.12158s-1.98438-.39844-2.70703-1.12158c-.39062-.39062-.39062-1.02393,0-1.41406.39062-.39062,1.02344-.39062,1.41406,0,.69141.69141,1.89453.69141,2.58594,0,.39062-.39062,1.02344-.39062,1.41406,0,.39062.39014.39062,1.02344,0,1.41406Z"/>
      </g>
    </g>
  </g>
</svg>