<?xml version="1.0" encoding="UTF-8"?>
<svg xmlns="http://www.w3.org/2000/svg" version="1.1" viewBox="0 0 64 64">
  <!-- Generator: Adobe Illustrator 28.7.1, SVG Export Plug-In . SVG Version: 1.2.0 Build 142)  -->
  <g>
    <g id="Glyph">
      <g>
        <circle cx="14" cy="44" r="1"/>
        <circle cx="38" cy="44" r="1"/>
        <path d="M35.18427,43h-18.36853c.11206.31433.18427.64764.18427,1s-.0722.68567-.18427,1h18.36859c-.11206-.31433-.18433-.64764-.18433-1s.0722-.68567.18427-1Z"/>
        <path d="M38,37v-2c1.65002,0,3-1.35004,3-3v-13c0-.27002-.10999-.52002-.28998-.71002l-5-5c-.19-.17999-.44-.28998-.71002-.28998h-8v22h9v2h-20v-2h5v-4h-12v1c0,1.64996,1.34998,3,3,3h2v2c-3.85938,0-7,3.14062-7,7s3.14062,7,7,7h24c3.85938,0,7-3.14062,7-7s-3.14062-7-7-7ZM30,18c0-.54999.45001-1,1-1h3.34003c.26996,0,.51996.10999.70996.28998l2.66003,2.66003c.17999.19.28998.44.28998.70996v5.34003c0,.54999-.45001,1-1,1h-6c-.54999,0-1-.45001-1-1v-8ZM31,29c.54999,0,1,.45001,1,1s-.45001,1-1,1-1-.45001-1-1,.45001-1,1-1ZM38,47H14c-1.6543,0-3-1.3457-3-3s1.3457-3,3-3h24c1.6543,0,3,1.3457,3,3s-1.3457,3-3,3Z"/>
        <path d="M56,27h-1.17999c-.31-.85004-.97003-1.51001-1.82001-1.82001v-1.17999c0-.54999-.45001-1-1-1s-1,.45001-1,1v1h-2v-1c0-.54999-.45001-1-1-1s-1,.45001-1,1v1h-2v-1c0-.54999-.45001-1-1-1s-1,.45001-1,1v8c0,.54999.45001,1,1,1s1-.45001,1-1v-1h2v1c0,.54999.45001,1,1,1s1-.45001,1-1v-1h2v1c0,.54999.45001,1,1,1s1-.45001,1-1v-1.17999c.84998-.31,1.51001-.97003,1.82001-1.82001h1.17999c.54999,0,1-.45001,1-1s-.45001-1-1-1Z"/>
        <path d="M20,16c0-.55273-.44727-1-1-1h-6c-.55273,0-1,.44727-1,1v1h8v-1Z"/>
        <rect x="9" y="25" width="9" height="4"/>
        <path d="M21,19h-9c-1.65002,0-3,1.34998-3,3v1h12v-4Z"/>
        <path d="M20,29h2c.54999,0,1,.45001,1,1v5h2v-16h-2v5c0,.54999-.45001,1-1,1h-2v4Z"/>
        <polygon points="36 21.07031 33.92969 19 32 19 32 25 36 25 36 21.07031"/>
      </g>
    </g>
  </g>
</svg>