<?xml version="1.0" encoding="UTF-8"?>
<svg xmlns="http://www.w3.org/2000/svg" version="1.1" viewBox="0 0 64 64">
  <!-- Generator: Adobe Illustrator 28.7.1, SVG Export Plug-In . SVG Version: 1.2.0 Build 142)  -->
  <g>
    <g id="Glyph">
      <g>
        <path d="M57,27c0-.26562-.10547-.51953-.29297-.70703l-7-7c-.1875-.1875-.44189-.29297-.70703-.29297h-2v8h10Z"/>
        <path d="M51,32v-3h-5c-.54999,0-1-.45001-1-1v-9h-2v16h14v-2h-5c-.54999,0-1-.45001-1-1ZM48,33h-2c-.54999,0-1-.45001-1-1s.45001-1,1-1h2c.54999,0,1,.45001,1,1s-.45001,1-1,1Z"/>
        <rect x="53" y="29" width="4" height="2"/>
        <path d="M15,44c0,.54999.45001,1,1,1h2c0-3.31,2.69-6,6-6s6,2.69,6,6h12c0-3.31,2.69-6,6-6s6,2.69,6,6h2c.54999,0,1-.45001,1-1v-7H15v7Z"/>
        <path d="M41,15v20H15v-2h14c1.65002,0,3-1.35004,3-3,0-1.38-.94-2.54999-2.21997-2.89001.13995-.34003.21997-.71997.21997-1.10999s-.08002-.77002-.21997-1.10999c1.27997-.34003,2.21997-1.51001,2.21997-2.89001,0-1.65002-1.34998-3-3-3h-14v-3c0-.54999.45001-1,1-1h25Z"/>
        <path d="M24,41c-2.21002,0-4,1.78998-4,4s1.78998,4,4,4,4-1.79004,4-4-1.78998-4-4-4ZM24,46c-.54999,0-1-.45001-1-1s.45001-1,1-1,1,.45001,1,1-.45001,1-1,1Z"/>
        <path d="M48,41c-2.21002,0-4,1.78998-4,4s1.78998,4,4,4,4-1.79004,4-4-1.78998-4-4-4ZM48,46c-.54999,0-1-.45001-1-1s.45001-1,1-1,1,.45001,1,1-.45001,1-1,1Z"/>
        <path d="M24,30c0-.55273-.44775-1-1-1h-12c-.55225,0-1,.44727-1,1s.44775,1,1,1h12c.55225,0,1-.44727,1-1Z"/>
        <path d="M18,26c0-.55273-.44775-1-1-1h-9c-.55225,0-1,.44727-1,1s.44775,1,1,1h9c.55225,0,1-.44727,1-1Z"/>
        <path d="M11,23h6c.55225,0,1-.44727,1-1s-.44775-1-1-1h-6c-.55225,0-1,.44727-1,1s.44775,1,1,1Z"/>
        <path d="M27,31h2c.55225,0,1-.44727,1-1s-.44775-1-1-1h-2c-.55225,0-1,.44727-1,1s.44775,1,1,1Z"/>
        <path d="M21,27h6c.55225,0,1-.44727,1-1s-.44775-1-1-1h-6c-.55225,0-1,.44727-1,1s.44775,1,1,1Z"/>
        <path d="M21,23h8c.55225,0,1-.44727,1-1s-.44775-1-1-1h-8c-.55225,0-1,.44727-1,1s.44775,1,1,1Z"/>
      </g>
    </g>
  </g>
</svg>