<?xml version="1.0" encoding="UTF-8"?>
<svg xmlns="http://www.w3.org/2000/svg" version="1.1" viewBox="0 0 64 64">
  <!-- Generator: Adobe Illustrator 28.7.1, SVG Export Plug-In . SVG Version: 1.2.0 Build 142)  -->
  <g>
    <g id="Glyph">
      <g>
        <path d="M48,7H16c-1.65002,0-3,1.34998-3,3v13h38v-13c0-1.65002-1.34998-3-3-3ZM22,14c1.65002,0,3,1.34998,3,3s-1.34998,3-3,3h-2c-.54999,0-1-.45001-1-1s.45001-1,1-1h2c.54999,0,1-.45001,1-1s-.45001-1-1-1c-1.65002,0-3-1.35004-3-3s1.34998-3,3-3h2c.54999,0,1,.45001,1,1s-.45001,1-1,1h-2c-.54999,0-1,.45001-1,1s.45001,1,1,1ZM29,19c0,.54999-.45001,1-1,1s-1-.45001-1-1v-8c0-.54999.45001-1,1-1s1,.45001,1,1v8ZM34,18c.54999,0,1-.45001,1-1-.54999,0-1-.45001-1-1s.45001-1,1-1h1c.54999,0,1,.45001,1,1v1c0,1.64996-1.34998,3-3,3s-3-1.35004-3-3v-4c0-1.65002,1.34998-3,3-3s3,1.34998,3,3c0,.54999-.45001,1-1,1s-1-.45001-1-1-.45001-1-1-1-1,.45001-1,1v4c0,.54999.45001,1,1,1ZM45,19c-.00013,1.02225-1.43164,1.36643-1.89001.45001l-2.10999-4.21002v3.76001c0,.54999-.45001,1-1,1s-1-.45001-1-1v-8c0-.46002.32001-.87.77002-.97003.44995-.10999.91998.11005,1.12.52002l2.10999,4.21002v-3.76001c0-.54999.45001-1,1-1s1,.45001,1,1c0,0,0,7.96179,0,8Z"/>
        <path d="M18.18433,55c.41412,1.1615,1.51373,2,2.81567,2h22c1.30194,0,2.40161-.8385,2.81573-2h-27.63141Z"/>
        <path d="M36,31h-8c-1.6543,0-3,1.3457-3,3v13h2v-12c0-1.10254.89697-2,2-2h7c.42871,0,.79443.26953.93652.64941l1.64941-1.64941-1.64941-1.64941c-.14209.37988-.50781.64941-.93652.64941Z"/>
        <path d="M13,25v25c0,1.64996,1.34998,3,3,3h32c1.65002,0,3-1.35004,3-3v-25H13ZM18,49c-.54999,0-1-.45001-1-1s.45001-1,1-1,1,.45001,1,1-.45001,1-1,1ZM18,29c-.54999,0-1-.45001-1-1s.45001-1,1-1,1,.45001,1,1-.45001,1-1,1ZM40.71002,32.70996l-4,4c-.29004.28003-.72003.37-1.09003.21002-.38-.15002-.62-.52002-.62-.91998v-1h-6v13c0,.54999-.45001,1-1,1h-4c-.54999,0-1-.45001-1-1v-14c0-2.76001,2.23999-5,5-5h7v-1c0-.40002.23999-.77002.62-.92004.37-.15997.79999-.06995,1.09003.21002l4,4c.38995.39001.38995,1.03003,0,1.41998ZM46,49c-.54999,0-1-.45001-1-1s.45001-1,1-1,1,.45001,1,1-.45001,1-1,1ZM46,29c-.54999,0-1-.45001-1-1s.45001-1,1-1,1,.45001,1,1-.45001,1-1,1Z"/>
      </g>
    </g>
  </g>
</svg>