<?xml version="1.0" encoding="utf-8"?>
<!-- Generator: Adobe Illustrator 27.3.1, SVG Export Plug-In . SVG Version: 6.00 Build 0)  -->
<svg version="1.1" id="Glyph" xmlns="http://www.w3.org/2000/svg" xmlns:xlink="http://www.w3.org/1999/xlink" x="0px" y="0px"
	 viewBox="0 0 48 48" enable-background="new 0 0 48 48" xml:space="preserve">
<g>
	<path d="M16,16.80176V25c0,3.37012,5.37988,7.28027,7.99951,8.84473C26.61914,32.27734,32,28.36426,32,25v-8.19824l-8-1.77734
		L16,16.80176z M23.25,23c0,1.6543-1.3457,3-3,3s-3-1.3457-3-3v-4c0-0.55273,0.44775-1,1-1s1,0.44727,1,1v4c0,0.55176,0.44873,1,1,1
		s1-0.44824,1-1v-4c0-0.55273,0.44775-1,1-1s1,0.44727,1,1V23z M25.43359,18.05176c0.52734-0.17676,1.09082,0.1084,1.26465,0.63184
		l1.05176,3.1543l1.05176-3.1543c0.1748-0.52344,0.73535-0.80859,1.26465-0.63184c0.52344,0.17383,0.80664,0.74023,0.63184,1.26465
		l-2,6C28.5625,25.72461,28.18066,26,27.75,26s-0.8125-0.27539-0.94824-0.68359l-2.00049-6
		C24.62646,18.79199,24.90967,18.22559,25.43359,18.05176z"/>
	<path d="M37.72852,18.31445v-7.04297c0-0.55273-0.44727-1-1-1h-7.04297l-4.97852-4.97852
		c-0.39062-0.39062-1.02344-0.39062-1.41406,0l-4.97852,4.97852h-7.04297c-0.55225,0-1,0.44727-1,1v7.04297l-4.97852,4.97852
		c-0.39062,0.39062-0.39062,1.02344,0,1.41406l4.97852,4.97852v7.04297c0,0.55273,0.44775,1,1,1h7.04297l4.97852,4.97852
		C23.48828,42.90234,23.74414,43,24,43s0.51172-0.09766,0.70703-0.29297l4.97852-4.97852h7.04297c0.55273,0,1-0.44727,1-1v-7.04297
		l4.97852-4.97852c0.39062-0.39062,0.39062-1.02344,0-1.41406L37.72852,18.31445z M34,25
		c0,5.40137-8.53809,10.3291-9.51221,10.87305C24.33643,35.95801,24.16797,36,24,36s-0.33643-0.04199-0.48779-0.12695
		C22.53857,35.3291,14,30.40137,14,25v-9c0-0.46875,0.32568-0.87402,0.7832-0.97656l9-2c0.14258-0.03125,0.29102-0.03125,0.43359,0
		l9,2C33.6748,15.12598,34,15.53125,34,16V25z"/>
	<circle cx="40" cy="18" r="1"/>
	<path d="M31.7782,9.15076c0.3905-0.39056,0.3905-1.02368,0-1.41425c-0.39056-0.3905-1.02374-0.3905-1.41425,0
		c-0.3905,0.39056-0.3905,1.02368,0,1.41425C30.75446,9.54126,31.38763,9.54126,31.7782,9.15076z"/>
	<circle cx="18" cy="8" r="1"/>
	<path d="M7.73657,16.2218c-0.39056,0.3905-0.39056,1.02368,0,1.41425c0.3905,0.3905,1.02368,0.3905,1.41418,0
		c0.3905-0.39056,0.3905-1.02374,0-1.41425S8.12708,15.8313,7.73657,16.2218z"/>
	<circle cx="8" cy="30" r="1"/>
	<path d="M16.2218,38.84924c-0.3905,0.3905-0.3905,1.02368,0,1.41418c0.39056,0.39056,1.02374,0.39056,1.41425,0
		c0.3905-0.3905,0.3905-1.02368,0-1.41418C17.24554,38.45868,16.61237,38.45868,16.2218,38.84924z"/>
	<circle cx="30" cy="40" r="1"/>
	<path d="M8.29309,9.70715c0.38867,0.38855,1.0257,0.38812,1.41394-0.00012c0.39062-0.39062,0.39062-1.02344,0-1.41406l-3-3
		c-0.39062-0.39062-1.02344-0.39062-1.41406,0s-0.39062,1.02344,0,1.41406C5.29297,6.70703,8.29297,9.70703,8.29309,9.70715z"/>
	<path d="M42.70703,5.29297c-0.39062-0.39062-1.02344-0.39062-1.41406,0l-3,3c-0.39056,0.39056-0.39062,1.02325-0.0001,1.4139
		c0.37988,0.37997,1.03566,0.37866,1.41417,0.00016c0.00006-0.00006,3-3,3-3C43.09766,6.31641,43.09766,5.68359,42.70703,5.29297z"
		/>
	<path d="M39.70703,38.29297c-0.39062-0.39062-1.02344-0.39062-1.41406,0s-0.39062,1.02344,0,1.41406c0,0,2.99783,2.99783,3,3
		c0.3651,0.3651,1.01361,0.40044,1.41406,0c0.39062-0.39062,0.39062-1.02344,0-1.41406L39.70703,38.29297z"/>
	<path d="M8.29297,38.29297l-3,3c-0.39062,0.39062-0.39062,1.02341-0.00003,1.41404c0.36517,0.3652,1.01368,0.40043,1.41409,0.00003
		l3-3c0.39062-0.39062,0.39062-1.02344,0-1.41406S8.68359,37.90234,8.29297,38.29297z"/>
</g>
</svg>
