<?xml version="1.0" encoding="utf-8"?>
<!-- Generator: Adobe Illustrator 27.3.1, SVG Export Plug-In . SVG Version: 6.00 Build 0)  -->
<svg version="1.1" id="Glyph" xmlns="http://www.w3.org/2000/svg" xmlns:xlink="http://www.w3.org/1999/xlink" x="0px" y="0px"
	 viewBox="0 0 64 64" enable-background="new 0 0 64 64" xml:space="preserve">
<g>
	<path d="M56.42999,40.09998c-0.34998-0.16998-0.77002-0.12-1.07001,0.13c-1.07996,0.89001-2.28998,1.5-3.58997,1.79999
		c-1.73004,0.40002-3.14001-0.01996-4.92999-0.54999C46.33002,41.32996,45.81,41.17999,45.25,41.02997
		C45.12,41,41.83002,40.14996,36.03003,40c-1.31006-0.04004-2.65002,0.02997-4,0.20996C34.54999,42.64996,36,46.01001,36,49.62V56
		c0,0.34998-0.06,0.69-0.17999,1H56c0.54999,0,1-0.45001,1-1V41C57,40.60999,56.78003,40.26001,56.42999,40.09998z M39,47
		c-0.54999,0-1-0.45001-1-1s0.45001-1,1-1s1,0.45001,1,1S39.54999,47,39,47z M42,53c-0.54999,0-1-0.45001-1-1s0.45001-1,1-1
		s1,0.45001,1,1S42.54999,53,42,53z M46,48c-0.54999,0-1-0.45001-1-1s0.45001-1,1-1s1,0.45001,1,1S46.54999,48,46,48z M52,51
		c-0.54999,0-1-0.45001-1-1s0.45001-1,1-1s1,0.45001,1,1S52.54999,51,52,51z"/>
	<path d="M28.76758,40.17529c-1.88184-1.17627-3.26953-2.99414-3.90674-5.11963l-1.25439-4.18262
		C23.09033,29.15479,21.53857,28,19.74414,28c-1.04883,0-1.91797-0.78662-2.02197-1.83008l-0.27686-2.76709
		C17.1377,20.32275,14.5708,18,11.4751,18H8c-0.55225,0-1,0.44775-1,1v30h26.96106
		C33.76373,45.38171,31.86774,42.11298,28.76758,40.17529z"/>
	<path d="M7,56c0,0.55225,0.44775,1,1,1h25c0.55225,0,1-0.44775,1-1v-5H7V56z"/>
	<path d="M23,24h21c3.30859,0,6-2.69141,6-6c0-2.23535-1.22949-4.26074-3.17383-5.29834C46.25,10.55713,44.26465,9,42,9
		c-0.88623,0-1.74463,0.23438-2.5,0.67236C38.1875,8.00146,36.1665,7,34,7c-2.38086,0-4.54541,1.18262-5.83496,3.1377
		C27.78809,10.04639,27.39844,10,27,10c-2.44434,0-4.48438,1.76318-4.91602,4.08398C19.76318,14.51562,18,16.55566,18,19
		C18,21.75684,20.24316,24,23,24z"/>
	<path d="M28.29297,26.29297C28.05811,26.52734,26,28.65332,26,31c0,1.6543,1.3457,3,3,3s3-1.3457,3-3
		c0-2.34668-2.05811-4.47266-2.29297-4.70703C29.31641,25.90234,28.68359,25.90234,28.29297,26.29297z"/>
	<path d="M36.29297,28.29297C36.05811,28.52734,34,30.65332,34,33c0,1.6543,1.3457,3,3,3s3-1.3457,3-3
		c0-2.34668-2.05811-4.47266-2.29297-4.70703C37.31641,27.90234,36.68359,27.90234,36.29297,28.29297z"/>
	<path d="M44.29297,26.29297C44.05811,26.52734,42,28.65332,42,31c0,1.6543,1.3457,3,3,3s3-1.3457,3-3
		c0-2.34668-2.05811-4.47266-2.29297-4.70703C45.31641,25.90234,44.68359,25.90234,44.29297,26.29297z"/>
	<path d="M52,39c1.6543,0,3-1.3457,3-3c0-2.34668-2.05811-4.47266-2.29297-4.70703c-0.39062-0.39062-1.02344-0.39062-1.41406,0
		C51.05811,31.52734,49,33.65332,49,36C49,37.6543,50.3457,39,52,39z"/>
</g>
</svg>
