<?xml version="1.0" encoding="utf-8"?>
<!-- Generator: Adobe Illustrator 27.3.1, SVG Export Plug-In . SVG Version: 6.00 Build 0)  -->
<svg version="1.1" id="Glyph" xmlns="http://www.w3.org/2000/svg" xmlns:xlink="http://www.w3.org/1999/xlink" x="0px" y="0px"
	 viewBox="0 0 64 64" enable-background="new 0 0 64 64" xml:space="preserve">
<g>
	<path d="M41,20c0.91895,0,1.66699-0.74756,1.66699-1.6665c0-1.35059-0.91504-2.84521-1.66602-3.80957
		c-0.75098,0.96777-1.66797,2.46582-1.66797,3.80957C39.33301,19.25244,40.08105,20,41,20z"/>
	<rect x="28" y="45" width="2" height="6"/>
	<rect x="24" y="45" width="2" height="6"/>
	<rect x="32" y="45" width="2" height="6"/>
	<rect x="36" y="45" width="2" height="6"/>
	<path d="M32,20c0.91895,0,1.66699-0.74756,1.66699-1.6665c0-1.35059-0.91504-2.84521-1.66602-3.80957
		c-0.75098,0.96777-1.66797,2.46582-1.66797,3.80957C30.33301,19.25244,31.08105,20,32,20z"/>
	<path d="M23,20c0.91895,0,1.66699-0.74756,1.66699-1.6665c0-1.35059-0.91504-2.84521-1.66602-3.80957
		c-0.75098,0.96777-1.66797,2.46582-1.66797,3.80957C21.33301,19.25244,22.08105,20,23,20z"/>
	<rect x="24" y="39" width="22" height="4"/>
	<rect x="44" y="45" width="2" height="6"/>
	<rect x="18" y="45" width="4" height="6"/>
	<rect x="40" y="45" width="2" height="6"/>
	<path d="M51.62012,10.21533l-3.7998-3c-0.31055-0.24512-0.73535-0.28418-1.08594-0.1001l-3.33398,1.75488l-3.33496-1.75488
		c-0.29102-0.15332-0.64062-0.15332-0.93164,0L35.7998,8.87012l-3.33398-1.75488c-0.29102-0.15332-0.64062-0.15332-0.93164,0
		L28.2002,8.87012l-3.33398-1.75488c-0.29102-0.15332-0.64062-0.15332-0.93164,0l-3.33496,1.75488l-3.33398-1.75488
		c-0.34961-0.18506-0.77539-0.146-1.08594,0.1001l-3.7998,3C12.14062,10.40479,12,10.69385,12,11v45c0,0.55225,0.44727,1,1,1h38
		c0.55273,0,1-0.44775,1-1V11C52,10.69385,51.85938,10.40479,51.62012,10.21533z M40.29297,12.29297
		c0.39062-0.39062,1.02344-0.39062,1.41406,0c0.12109,0.12061,2.95996,2.99414,2.95996,6.04053C44.66699,20.35498,43.02246,22,41,22
		s-3.66699-1.64502-3.66699-3.6665C37.33301,15.28711,40.17188,12.41357,40.29297,12.29297z M31.29297,12.29297
		c0.39062-0.39062,1.02344-0.39062,1.41406,0c0.12109,0.12061,2.95996,2.99414,2.95996,6.04053C35.66699,20.35498,34.02246,22,32,22
		s-3.66699-1.64502-3.66699-3.6665C28.33301,15.28711,31.17188,12.41357,31.29297,12.29297z M22.29297,12.29297
		c0.39062-0.39062,1.02344-0.39062,1.41406,0c0.12109,0.12061,2.95996,2.99414,2.95996,6.04053C26.66699,20.35498,25.02246,22,23,22
		s-3.66699-1.64502-3.66699-3.6665C19.33301,15.28711,22.17188,12.41357,22.29297,12.29297z M29,30h-4c-0.55273,0-1-0.44775-1-1
		s0.44727-1,1-1h4c0.55273,0,1,0.44775,1,1S29.55273,30,29,30z M43,32c0.55273,0,1,0.44775,1,1s-0.44727,1-1,1H25
		c-0.55273,0-1-0.44775-1-1s0.44727-1,1-1H43z M19,30c-1.6543,0-3-1.3457-3-3c0-1.30194,0.8385-2.40161,2-2.81573V24
		c0-0.55225,0.44727-1,1-1s1,0.44775,1,1v0.18427c1.1615,0.41412,2,1.51379,2,2.81573c0,0.55225-0.44727,1-1,1s-1-0.44775-1-1
		c0-0.55127-0.44824-1-1-1s-1,0.44873-1,1s0.44824,1,1,1c1.6543,0,3,1.3457,3,3c0,1.30194-0.8385,2.40161-2,2.81573V34
		c0,0.55225-0.44727,1-1,1s-1-0.44775-1-1v-0.18433C16.8385,33.40155,16,32.30194,16,31c0-0.55225,0.44727-1,1-1s1,0.44775,1,1
		c0,0.55127,0.44824,1,1,1s1-0.44873,1-1S19.55176,30,19,30z M48,52c0,0.55225-0.44727,1-1,1H17c-0.55273,0-1-0.44775-1-1V38
		c0-0.55225,0.44727-1,1-1h30c0.55273,0,1,0.44775,1,1V52z M47,30H33c-0.55273,0-1-0.44775-1-1s0.44727-1,1-1h14
		c0.55273,0,1,0.44775,1,1S47.55273,30,47,30z M47,26H25c-0.55273,0-1-0.44775-1-1s0.44727-1,1-1h22c0.55273,0,1,0.44775,1,1
		S47.55273,26,47,26z"/>
	<rect x="18" y="39" width="4" height="4"/>
</g>
</svg>
