<?xml version="1.0" encoding="utf-8"?>
<!-- Generator: Adobe Illustrator 27.3.1, SVG Export Plug-In . SVG Version: 6.00 Build 0)  -->
<svg version="1.1" id="Glyph" xmlns="http://www.w3.org/2000/svg" xmlns:xlink="http://www.w3.org/1999/xlink" x="0px" y="0px"
	 viewBox="0 0 64 64" enable-background="new 0 0 64 64" xml:space="preserve">
<g>
	<path d="M29.6665,31.66699C29.6665,32.95312,30.71338,34,32,34s2.3335-1.04688,2.3335-2.33301
		c0-1.87207-1.34082-3.94238-2.33057-5.16016C31.10449,27.6084,29.6665,29.68164,29.6665,31.66699z"/>
	<path d="M32,22c-4.41113,0-8,3.58887-8,8s3.58887,8,8,8s8-3.58887,8-8S36.41113,22,32,22z M32,36
		c-2.38965,0-4.3335-1.94336-4.3335-4.33301c0-3.70605,3.47852-7.22656,3.62646-7.37402c0.39062-0.39062,1.02344-0.39062,1.41406,0
		c0.14795,0.14746,3.62646,3.66797,3.62646,7.37402C36.3335,34.05664,34.38965,36,32,36z"/>
	<path d="M53.82666,8.42285C54.12665,7.77863,53.62463,7,52.92041,7c0,0-41.72229,0-41.84058,0
		c-0.72778,0-1.21332,0.75964-0.90649,1.42285l3.15527,6.76172c2.31348,4.95703,2.2373,10.60645-0.20947,15.49902
		c-1.99268,3.98633-2.58447,8.58301-1.6665,12.94336l2.64844,12.5791C14.19824,56.66895,14.60693,57,15.07959,57H31v-5.67578
		c0-3.35156-2.13623-6.31543-5.31641-7.37598c-0.52393-0.17383-0.80713-0.74023-0.63232-1.26465
		c0.17432-0.52344,0.73926-0.80859,1.26514-0.63184C28.86292,42.90027,30.87317,44.7226,32,47.02142
		c1.12683-2.29883,3.13708-4.12115,5.68359-4.96967c0.5249-0.17676,1.09033,0.1084,1.26514,0.63184
		c0.1748,0.52441-0.1084,1.09082-0.63232,1.26465C35.13623,45.00879,33,47.97266,33,51.32422V57h15.92041
		c0.47266,0,0.88135-0.33105,0.97852-0.79395l2.64844-12.5791c0.91797-4.36035,0.32617-8.95703-1.6665-12.94336
		c-2.44678-4.89258-2.52295-10.54199-0.20947-15.49902C50.67139,15.18457,53.78943,8.50256,53.82666,8.42285z M32,40
		c-5.51416,0-10-4.48633-10-10s4.48584-10,10-10s10,4.48633,10,10S37.51416,40,32,40z"/>
</g>
</svg>
