<?xml version="1.0" encoding="UTF-8"?>
<svg xmlns="http://www.w3.org/2000/svg" version="1.1" viewBox="0 0 64 64">
  <!-- Generator: Adobe Illustrator 28.7.1, SVG Export Plug-In . SVG Version: 1.2.0 Build 142)  -->
  <g>
    <g id="Glyph">
      <g>
        <path d="M53,50.00127h-1c0-1.10461-.89545-2-2-2h-14c-1.10455,0-2,.89539-2,2h-1c-.55273,0-1,.44775-1,1s.44727,1,1,1h20c.55273,0,1-.44775,1-1s-.44727-1-1-1Z"/>
        <polygon points="38.13 46.00127 47.86999 46.00127 45.61999 30.29124 43 28.77122 40.38 30.29124 38.13 46.00127"/>
        <polygon points="16.66998 51.00127 25.34003 51.00127 23.79999 42.39128 21 40.78123 18.20001 42.39128 16.66998 51.00127"/>
        <path d="M31,55.00127h-1c0-1.10461-.89545-2-2-2h-14c-1.10455,0-2,.89539-2,2h-1c-.54999,0-1,.45001-1,1s.45001,1,1,1h20c.56,0,1-.45001,1-1s-.44-1-1-1Z"/>
        <circle cx="21.00293" cy="35.00127" r="2.99707"/>
        <path d="M12.32001,43.48125l6.33997-3.66998.37006-.21002c-.08673-.04333-.17334-.08667-.26001-.13-.01001-.01001-.03003-.01001-.04004-.01996-1.60999-.83002-2.71997-2.51001-2.71997-4.45001,0-.20001.01001-.40002.03998-.60004l-6.72998,3.88c-1.53003.88-2.41003,2.52002-2.31,4.28003.02002.31.19.59997.45001.76996,1.43827.94028,3.33723,1.02612,4.85999.15003Z"/>
        <path d="M24,31.00127v-7.76001c0-1.76001-.97998-3.34998-2.54999-4.13-.28003-.15002-.60999-.15002-.89001,0-1.58002.78003-2.56,2.37-2.56,4.13v7.77002c.83002-.63,1.87-1.01001,3-1.01001s2.16998.37,3,1Z"/>
        <path d="M32.69,38.28125l-6.72998-3.88c.02997.20001.03998.40002.03998.60004,0,1.94-1.10999,3.63-2.72998,4.45001-.10004.06-.20001.09998-.30005.14996l.37006.21002,6.34998,3.66998c1.48446.86588,3.42366.81319,4.84997-.15003.27002-.16998.42999-.45996.45001-.76996.10999-1.76001-.77002-3.40002-2.29999-4.28003Z"/>
        <circle cx="43" cy="23.00127" r="3"/>
        <path d="M46,19.00127v-7.76001c0-1.76001-.97998-3.34998-2.54999-4.13-.28003-.15002-.62-.15002-.90002,0-1.57001.78003-2.54999,2.37-2.54999,4.13v7.76001c.83002-.63,1.87-1,3-1s2.16998.37,3,1Z"/>
        <path d="M54.69,26.28125l-6.72998-3.88c.02997.20001.03998.40002.03998.60004,0,1.95996-1.13,3.65997-2.78003,4.47998-.07996.03998-.16998.08002-.25.12l.29004.16998,6.42999,3.71002c1.49555.86291,3.41417.8197,4.84998-.15002.26001-.16998.42999-.45996.45001-.76996.10004-1.76001-.77997-3.40002-2.29999-4.28003Z"/>
        <path d="M40.78003,27.48126c-1.65002-.82001-2.78003-2.52002-2.78003-4.47998,0-.20001.01001-.40002.03998-.60004l-6.72998,3.88c-1.52002.88-2.40002,2.52002-2.29999,4.28003.02002.31.19.59998.45001.76996.76996.52002,1.65997.77002,2.53998.77002.79999,0,1.59003-.20001,2.31-.62l6.42999-3.71002.29004-.16998c-.08002-.03998-.17004-.08002-.25-.12Z"/>
        <path d="M29,13.00127h8c.55273,0,1-.44775,1-1s-.44727-1-1-1h-8c-.55176,0-1-.44873-1-1s.44824-1,1-1h1c.55273,0,1-.44775,1-1s-.44727-1-1-1h-1c-1.6543,0-3,1.3457-3,3s1.3457,3,3,3Z"/>
        <path d="M22,17.00127h8c.55273,0,1-.44775,1-1s-.44727-1-1-1h-8c-.55176,0-1-.44873-1-1s.44824-1,1-1h1c.55273,0,1-.44775,1-1s-.44727-1-1-1h-1c-1.6543,0-3,1.3457-3,3s1.3457,3,3,3Z"/>
      </g>
    </g>
  </g>
</svg>