<svg fill="#000000" xmlns="http://www.w3.org/2000/svg"  viewBox="0 0 24 24" width="24px" height="24px"><path d="M 0 6 L 0 8 L 3 8 L 3 10 L 0 10 L 0 12 L 3 12 L 5 12 L 6 12 L 6 15 C 6 15.472 4.751 16 3.75 16 C 2.749 16 2 15.472 2 15 L 0 15 C 0 16.683 1.647 18 3.75 18 C 4.852 18 5.82 17.632875 6.5 17.046875 C 7.18 17.632875 8.149 18 9.25 18 C 10.351 18 11.32 17.632875 12 17.046875 C 12.68 17.632875 13.649 18 14.75 18 C 15.851 18 16.82 17.632875 17.5 17.046875 C 18.18 17.632875 19.149 18 20.25 18 C 22.353 18 24 16.683 24 15 L 22 15 C 22 15.472 21.252 16 20.25 16 C 19.248 16 19 15.472 19 15 L 19 12 L 22 12 L 22 10 L 19 10 L 19 8 L 22 8 L 22 6 L 19 6 L 17 6 L 12 6 L 10 6 L 5 6 L 3 6 L 0 6 z M 5 8 L 10 8 L 10 10 L 5 10 L 5 8 z M 12 8 L 17 8 L 17 10 L 12 10 L 12 8 z M 8 12 L 10 12 L 12 12 L 17 12 L 17 15 C 17 15.472 16.002 16 15 16 C 13.998 16 13 15.472 13 15 L 11 15 C 11 15.472 10.251 16 9.25 16 C 8.249 16 8 15.472 8 15 L 8 12 z"/></svg>