<?xml version="1.0" encoding="UTF-8"?><svg id="Glyph" xmlns="http://www.w3.org/2000/svg" viewBox="0 0 64 64"><defs><style>.cls-1{stroke-width:0px;}</style></defs><path class="cls-1" d="m56.22,10.79h-5.58v3.85c0,1.28-1.05,2.33-2.33,2.33h-1.55c-1.28,0-2.33-1.05-2.33-2.33v-3.85h-9.32v3.85c0,1.28-1.05,2.33-2.33,2.33h-1.56c-1.28,0-2.33-1.05-2.33-2.33v-3.85h-9.32v3.85c0,1.28-1.05,2.33-2.33,2.33h-1.55c-1.28,0-2.33-1.05-2.33-2.33v-3.85h-5.58c-2.08,0-3.78,1.7-3.78,3.78v6.09h56v-6.09c0-2.08-1.7-3.78-3.78-3.78Z"/><path class="cls-1" d="m35.11,6.88c0-1.28-1.05-2.32-2.33-2.32h-1.56c-1.28,0-2.33,1.04-2.33,2.32v3.91h6.22v-3.91Z"/><path class="cls-1" d="m19.57,6.88c0-1.28-1.05-2.32-2.33-2.32h-1.55c-1.28,0-2.33,1.04-2.33,2.32v3.91h6.21v-3.91Z"/><path class="cls-1" d="m50.64,6.88c0-1.28-1.05-2.32-2.33-2.32h-1.55c-1.28,0-2.33,1.04-2.33,2.32v3.91h6.21v-3.91Z"/><path class="cls-1" d="m50.2,51.99v7.45h6.02c2.08,0,3.78-1.7,3.78-3.78v-6.02h-7.45c-1.3,0-2.35,1.05-2.35,2.35Z"/><path class="cls-1" d="m4,55.66c0,2.08,1.7,3.78,3.78,3.78h40.42s0,0,0,0v-7.45c0-2.4,1.95-4.35,4.35-4.35h7.45v-24.98H4v33Zm18.52-25.57l3.38-1.73c.18-.09.38-.11.57-.05l8.67,2.68-7.66,4.38-5.08-4c-.44-.34-.37-1.02.12-1.28Zm-7.73,9.86l2.67-1.23c.25-.11.54-.07.74.11l2.87,2.5,22.56-12.89c2.03-1.15,4.6-.44,5.76,1.59,1.15,2.03.44,4.6-1.59,5.76l-7.13,4.08-2.84,11.35c-.05.18-.16.34-.33.43l-3.43,1.94c-.43.25-.98-.04-1.03-.53l-.84-8.35-6.27,3.58c-5.22,2.2-7.6-1.36-7.6-1.36l-3.84-5.98c-.23-.35-.09-.83.29-1Z"/></svg>