<?xml version="1.0" encoding="UTF-8"?><svg id="Glyph" xmlns="http://www.w3.org/2000/svg" viewBox="0 0 64 64"><defs><style>.cls-1{stroke-width:0px;}</style></defs><path class="cls-1" d="m40.04,4h-16.05c-2.75,0-4.97,2.23-4.97,4.97v46.05c0,2.75,2.23,4.97,4.97,4.97h16.05c2.75,0,4.97-2.23,4.97-4.97V8.97c0-2.75-2.23-4.97-4.97-4.97Zm-8.04,49.19c-2.9,0-5.25-2.35-5.25-5.25s2.35-5.25,5.25-5.25,5.25,2.35,5.25,5.25-2.35,5.25-5.25,5.25Zm0-15.85c-2.9,0-5.25-2.35-5.25-5.25s2.35-5.25,5.25-5.25,5.25,2.35,5.25,5.25-2.35,5.25-5.25,5.25Zm0-16.02c-2.9,0-5.25-2.35-5.25-5.25s2.35-5.25,5.25-5.25,5.25,2.35,5.25,5.25-2.35,5.25-5.25,5.25Z"/><path class="cls-1" d="m17.01,10.06v11.87c-.64-.06-1.22-.35-1.65-.78-.49-.49-.79-1.17-.79-1.91,0-1.49-1.2-2.7-2.69-2.7h-1.17c-1.49,0-2.7-1.2-2.7-2.69v-2.57c0-.67.55-1.22,1.22-1.22h7.78Z"/><path class="cls-1" d="m17.01,26.06v11.87c-.64-.06-1.22-.35-1.65-.78-.49-.49-.79-1.17-.79-1.91,0-1.49-1.2-2.7-2.69-2.7h-1.17c-1.49,0-2.7-1.2-2.7-2.69v-2.57c0-.67.55-1.22,1.22-1.22h7.78Z"/><path class="cls-1" d="m17.01,42.06v11.87c-.64-.06-1.22-.35-1.65-.78-.49-.49-.79-1.17-.79-1.91,0-1.49-1.2-2.7-2.69-2.7h-1.17c-1.49,0-2.7-1.2-2.7-2.69v-2.57c0-.67.55-1.22,1.22-1.22h7.78Z"/><path class="cls-1" d="m55.99,11.28v2.57c0,1.49-1.21,2.69-2.7,2.69h-1.17c-1.49,0-2.69,1.21-2.69,2.7,0,.74-.3,1.42-.79,1.91-.43.43-1,.71-1.63.78v-11.87h7.76c.67,0,1.22.55,1.22,1.22Z"/><path class="cls-1" d="m55.99,27.28v2.57c0,1.49-1.21,2.69-2.7,2.69h-1.17c-1.49,0-2.69,1.21-2.69,2.7,0,.74-.3,1.42-.79,1.91-.43.43-1,.71-1.63.78v-11.87h7.76c.67,0,1.22.55,1.22,1.22Z"/><path class="cls-1" d="m55.99,43.28v2.57c0,1.49-1.21,2.69-2.7,2.69h-1.17c-1.49,0-2.69,1.21-2.69,2.7,0,.74-.3,1.42-.79,1.91-.43.43-1,.71-1.63.78v-11.87h7.76c.67,0,1.22.55,1.22,1.22Z"/></svg>