<?xml version="1.0" encoding="UTF-8"?><svg id="Glyph" xmlns="http://www.w3.org/2000/svg" viewBox="0 0 64 64"><defs><style>.cls-1{stroke-width:0px;}</style></defs><path class="cls-1" d="m21.59,49.3h3.46c.73,0,1.31-.59,1.31-1.31v-12.04h3.7l-9.79-9.79v21.83c0,.73.59,1.31,1.31,1.31Z"/><path class="cls-1" d="m35.1,14.7h-12.02c-.7,0-1.33.26-1.82.68l5.57,5.57c.16-.1.34-.18.54-.18h7.71c2.66,0,4.79,2.28,4.53,5-.2,2.1-1.89,3.7-3.93,4.03l4.64,4.64c3.14-1.81,5.33-5.09,5.4-8.92.11-5.96-4.69-10.82-10.62-10.82Z"/><path class="cls-1" d="m48.38,4H15.62c-6.42,0-11.62,5.2-11.62,11.62v32.77c0,6.42,5.2,11.62,11.62,11.62h32.77c6.42,0,11.62-5.2,11.62-11.62V15.62c0-6.42-5.2-11.62-11.62-11.62Zm-1.15,51.67h-30.46c-4.66,0-8.45-3.78-8.45-8.45v-30.46c0-1.55.42-2.99,1.15-4.24l41.99,41.99c-1.25.73-2.69,1.15-4.24,1.15Zm8.45-8.45c0,1.55-.42,3-1.15,4.24L12.53,9.48c1.25-.73,2.7-1.15,4.24-1.15h30.46c4.66,0,8.45,3.78,8.45,8.45v30.46Z"/></svg>