<?xml version="1.0" encoding="UTF-8"?><svg id="Glyph" xmlns="http://www.w3.org/2000/svg" viewBox="0 0 64 64"><defs><style>.cls-1{stroke-width:0px;}</style></defs><path class="cls-1" d="m50.59,4H13.41c-2.09,0-3.79,1.71-3.79,3.79v42.8c0,2.09,1.71,3.79,3.79,3.79h.29v3.51c0,1.17.94,2.11,2.11,2.11h5.38c1.17,0,2.11-.94,2.11-2.11v-3.51h17.4v3.51c0,1.17.94,2.11,2.11,2.11h5.38c1.17,0,2.11-.94,2.11-2.11v-3.51h.29c2.09,0,3.79-1.71,3.79-3.79V7.79c0-2.09-1.71-3.79-3.79-3.79Zm-34.15,4.72h31.12c.55,0,1,.45,1,1s-.45,1-1,1h-31.12c-.55,0-1-.45-1-1s.45-1,1-1Zm-4.82,30.86V14.94h19.38v24.64h-3.36c.11-.46.16-.92.16-1.38,0-3.46-2.81-6.27-6.27-6.27s-6.27,2.81-6.27,6.27c0,.47.05.93.16,1.38h-3.8Zm7.27,4.2c1.71,0,3.1,1.39,3.1,3.1s-1.39,3.11-3.1,3.11-3.1-1.39-3.1-3.11,1.39-3.1,3.1-3.1Zm-1.4-4.2c-.15-.45-.23-.91-.23-1.38,0-2.35,1.91-4.27,4.27-4.27s4.27,1.92,4.27,4.27c0,.47-.07.93-.23,1.38h-8.08Zm19.25,10.28h-9.48c-.55,0-1-.45-1-1s.45-1,1-1h9.48c.55,0,1,.45,1,1s-.45,1-1,1Zm0-4.08h-9.48c-.55,0-1-.45-1-1s.45-1,1-1h9.48c.55,0,1,.45,1,1s-.45,1-1,1Zm5.27,1.11c0-1.71,1.39-3.1,3.1-3.1s3.1,1.39,3.1,3.1-1.39,3.11-3.1,3.11-3.1-1.39-3.1-3.11Zm10.37-7.31h-19.38V14.94h19.38v24.64Z"/><path class="cls-1" d="m58.07,16.78h-1.69v9.52h1.69c1.06,0,1.93-.87,1.93-1.94v-5.64c0-1.07-.87-1.94-1.93-1.94Z"/><path class="cls-1" d="m4,18.72v5.64c0,1.07.87,1.94,1.93,1.94h1.69v-9.52h-1.69c-1.06,0-1.93.87-1.93,1.94Z"/><path class="cls-1" d="m37.22,37.17c.2.2.46.3.71.3s.5-.09.7-.29l11.12-10.88c.39-.39.4-1.02.02-1.41-.39-.39-1.02-.4-1.41-.02l-11.12,10.88c-.39.39-.4,1.02-.02,1.41Z"/><path class="cls-1" d="m48.24,31.01l-5,4.97c-.39.39-.39,1.02,0,1.41.2.2.45.29.71.29s.51-.1.71-.29l5-4.97c.39-.39.39-1.02,0-1.41-.39-.39-1.02-.39-1.41,0Z"/></svg>