<?xml version="1.0" encoding="UTF-8"?><svg id="Glyph" xmlns="http://www.w3.org/2000/svg" viewBox="0 0 64 64"><defs><style>.cls-1{stroke-width:0px;}</style></defs><path class="cls-1" d="m58.88,4.06H5.12c-.62,0-1.12.5-1.12,1.12v2.77c0,.62.5,1.12,1.12,1.12h39.18c-1.64,1.08-2.73,2.94-2.73,5.05,0,3.34,2.71,6.05,6.05,6.05s6.05-2.72,6.05-6.05c0-2.11-1.09-3.97-2.73-5.05h7.94c.62,0,1.12-.5,1.12-1.12v-2.77c0-.62-.5-1.12-1.12-1.12Zm-11.27,14.11c-2.23,0-4.05-1.82-4.05-4.05s1.82-4.05,4.05-4.05,4.05,1.82,4.05,4.05-1.82,4.05-4.05,4.05Z"/><path class="cls-1" d="m20.03,58.32c0,.89.72,1.61,1.61,1.61h16.57c.89,0,1.61-.72,1.61-1.61v-3.51h-19.8v3.51Z"/><path class="cls-1" d="m44.25,21.42v4.32c0,3.34-2.71,6.05-6.05,6.05h-1.19c.65-1.23,1-2.6,1-4.03v-2.15c.16-.16.27-.38.27-.62v-3.17c0-4.42-3.58-8-8-8h-1.75c-4.42,0-8,3.58-8,8v3.17c0,.25.1.47.27.62v1.83c0,1.58.42,3.08,1.13,4.38-2.93.11-5.56,1.85-6.79,4.53l-6.56,14.35c-.7,1.52-.32,3.41,1.06,4.36,1.79,1.22,4.15.51,5.01-1.37l5.39-11.91v11.03h19.8v-14.67c7.18,0,11-5.82,11-13v-3.65c-.99.43-2.07.68-3.22.68-1.2,0-2.34-.27-3.37-.75Zm-8.24,3.54v2.8c0,1.8-.71,3.49-2.01,4.74-1.29,1.26-3,1.91-4.81,1.86-3.53-.11-6.41-3.21-6.41-6.92v-2.49c2.32-.01,4.59-.61,6.61-1.74,2.02,1.13,4.29,1.73,6.61,1.74Z"/></svg>