<?xml version="1.0" encoding="UTF-8"?><svg id="Glyph" xmlns="http://www.w3.org/2000/svg" viewBox="0 0 64 64"><defs><style>.cls-1{stroke-width:0px;}</style></defs><path class="cls-1" d="m48.38,4H15.62c-6.42,0-11.62,5.2-11.62,11.62v32.77c0,6.42,5.2,11.62,11.62,11.62h32.77c6.42,0,11.62-5.2,11.62-11.62V15.62c0-6.42-5.2-11.62-11.62-11.62Zm7.29,43.45c0,4.55-3.68,8.23-8.23,8.23h-30.89c-4.55,0-8.23-3.68-8.23-8.23v-30.89c0-4.55,3.68-8.23,8.23-8.23h30.89c4.55,0,8.23,3.68,8.23,8.23v30.89Z"/><path class="cls-1" d="m41.1,13.72h-18.2c-3.52,0-6.4,2.88-6.4,6.4v18.2c0,3.52,2.88,6.4,6.4,6.4h.63l-3.21,6.27c-.25.49-.06,1.09.43,1.35.15.07.3.11.45.11.36,0,.71-.2.89-.54l1.05-2.05h17.69l1.05,2.05c.18.35.53.54.89.54.15,0,.31-.04.45-.11.49-.25.69-.85.43-1.35l-3.21-6.27h.63c3.52,0,6.4-2.88,6.4-6.4v-18.2c0-3.52-2.88-6.4-6.4-6.4Zm-22.6,6.4c0-.11.03-.22.03-.33h12.47v13.72h-12.5v-13.39Zm3.59,18.91c0-1.3,1.05-2.35,2.35-2.35s2.35,1.05,2.35,2.35-1.05,2.35-2.35,2.35-2.35-1.05-2.35-2.35Zm17.73,8.82h-15.64l1.6-3.13h12.45l1.6,3.13Zm-.26-6.47c-1.3,0-2.35-1.05-2.35-2.35s1.05-2.35,2.35-2.35,2.35,1.05,2.35,2.35-1.05,2.35-2.35,2.35Zm5.94-7.88h-12.5v-13.72h12.47c0,.11.03.22.03.33v13.39Z"/></svg>