<?xml version="1.0" encoding="UTF-8"?><svg id="Glyph" xmlns="http://www.w3.org/2000/svg" viewBox="0 0 64 64"><defs><style>.cls-1{stroke-width:0px;}</style></defs><path class="cls-1" d="m54.68,32.02l-5.08-13.94h0l-1.07-2.94c-.1-.26-.24-.51-.43-.73h0s0,0,0,0c-.12-.15-.26-.28-.41-.41-.04-.04-.09-.07-.13-.1-.14-.1-.28-.2-.43-.28-.04-.02-.08-.04-.12-.06-.15-.07-.3-.13-.45-.18-.06-.02-.13-.04-.19-.05-.15-.03-.3-.06-.45-.06-.03,0-.05-.01-.08-.01h-27.7s-.05,0-.08.01c-.15,0-.3.03-.45.06-.06.01-.13.03-.19.05-.15.05-.31.1-.45.18-.04.02-.08.04-.12.06-.15.08-.29.18-.43.28-.05.03-.09.07-.13.11-.15.13-.29.26-.41.41h0s0,0,0,0c-.18.23-.33.47-.43.73l-1.07,2.94h0l-5.08,13.94c-3.02.54-5.34,3.19-5.34,6.36v9.85c0,1.79,1.45,3.24,3.24,3.24h2.14v4.05c0,1.14.93,2.07,2.07,2.07h8.62c1.14,0,2.07-.94,2.07-2.07v-4.05h19.76v4.05c0,1.14.93,2.07,2.07,2.07h8.62c1.14,0,2.07-.94,2.07-2.07v-4.05h2.14c1.79,0,3.24-1.45,3.24-3.24v-9.85c0-3.17-2.32-5.82-5.34-6.36Zm-.55-.08c-.19-.02-.38-.03-.58-.03.2,0,.39.01.58.03Zm-6.44-17.95s-.08-.06-.11-.09c.04.03.08.06.11.09Zm-1.15-.62s-.09-.03-.14-.04c.05.01.09.02.14.04Zm-28.95-.04s-.09.02-.14.04c.05-.01.09-.03.14-.04Zm-1.17.57s-.08.06-.11.09c.04-.03.08-.06.11-.09Zm-5.98,18.02c-.2,0-.39.01-.58.03.19-.02.38-.03.58-.03Zm8.62,10.12c0,2.38-1.93,4.31-4.31,4.31s-4.31-1.93-4.31-4.31,1.93-4.31,4.31-4.31,4.31,1.93,4.31,4.31Zm.13-10.12c-.11-.41-.16-.84-.16-1.27,0-2.86,2.32-5.18,5.17-5.18s5.18,2.32,5.18,5.18c0,.42-.05.85-.16,1.27h-10.03Zm20.21,13.62h-14.82c-.55,0-1-.45-1-1s.45-1,1-1h14.82c.55,0,1,.45,1,1s-.45,1-1,1Zm0-5h-14.82c-.55,0-1-.45-1-1s.45-1,1-1h14.82c.55,0,1,.45,1,1s-.45,1-1,1Zm-8.14-8.62c.08-.42.12-.85.12-1.27,0-3.96-3.22-7.18-7.18-7.18s-7.17,3.22-7.17,7.18c0,.43.04.85.12,1.27h-5.68l5.04-13.84h30.96l5.04,13.84h-21.25Zm22.29,10.12c0,2.38-1.93,4.31-4.31,4.31s-4.31-1.93-4.31-4.31,1.93-4.31,4.31-4.31,4.31,1.93,4.31,4.31Z"/><path class="cls-1" d="m58.61,30.4c.84-.24,1.41-1,1.41-1.87v-2.71c0-1.08-.87-1.95-1.94-1.95h-4.24l2.6,7.15,2.17-.62Z"/><path class="cls-1" d="m5.39,30.4l2.17.62,2.6-7.15h-4.24c-1.07,0-1.94.87-1.94,1.95v2.71c0,.87.57,1.63,1.41,1.87Z"/><path class="cls-1" d="m39.38,8.23c-.32-1.08-1.31-1.83-2.43-1.83h-9.89c-1.13,0-2.12.74-2.43,1.83l-.88,3.03h16.53l-.88-3.03Z"/></svg>