<?xml version="1.0" encoding="UTF-8"?><svg id="Glyph" xmlns="http://www.w3.org/2000/svg" viewBox="0 0 64 64"><defs><style>.cls-1{stroke-width:0px;}</style></defs><path class="cls-1" d="m58.26,18.67c.96,0,1.74-.78,1.74-1.75v-2.37c0-.97-.78-1.75-1.74-1.75H5.74c-.96,0-1.74.78-1.74,1.75v2.37c0,.97.78,1.75,1.74,1.75h5.26v7.96h-4.2c-1.55,0-2.8,1.25-2.8,2.8v18.97c0,1.54,1.25,2.8,2.8,2.8h37.55v-24.57h-28.35v-7.96h32v7.96h-1.65v24.57h10.85c1.55,0,2.8-1.26,2.8-2.8v-18.97c0-1.55-1.25-2.8-2.8-2.8h-4.2v-7.96h5.26Zm-24.35,13.6h6.38c.56,0,1,.45,1,1s-.44,1-1,1h-2.19v9.85c0,.55-.44,1-1,1s-1-.45-1-1v-9.85h-2.19c-.55,0-1-.45-1-1s.45-1,1-1Zm-4.81,1c0-.55.45-1,1-1s1,.45,1,1v10.85c0,.55-.45,1-1,1s-1-.45-1-1v-10.85Zm-11.08.44c-.28-.47-.12-1.09.35-1.37.48-.28,1.09-.12,1.37.36l2.37,4.01,2.37-4.01c.28-.48.9-.64,1.37-.36.48.28.64.9.35,1.37l-2.93,4.96,2.93,4.96c.29.47.13,1.09-.35,1.37-.16.09-.33.14-.51.14-.34,0-.67-.18-.86-.49l-2.37-4.01-2.37,4.01c-.18.31-.52.49-.86.49-.17,0-.35-.05-.51-.14-.47-.28-.63-.9-.35-1.37l2.93-4.96-2.93-4.96Zm-1.83-.44c0,.55-.44,1-1,1h-3.38v3.43h2.38c.56,0,1,.44,1,1s-.44,1-1,1h-2.38v3.42h3.38c.56,0,1,.45,1,1s-.44,1-1,1h-4.38c-.55,0-1-.45-1-1v-10.85c0-.55.45-1,1-1h4.38c.56,0,1,.45,1,1Zm40.09,4.97c.42.32.42.95,0,1.26l-5.06,3.88c-.53.4-1.28.03-1.28-.63v-7.68c0-.65.75-1.02,1.27-.63l5.07,3.8Z"/></svg>