<?xml version="1.0" encoding="UTF-8"?><svg id="Glyph" xmlns="http://www.w3.org/2000/svg" viewBox="0 0 64 64"><defs><style>.cls-1{stroke-width:0px;}</style></defs><path class="cls-1" d="m57.04,9.5H6.96c-1.64,0-2.96,1.33-2.96,2.96v39.07c0,1.64,1.33,2.96,2.96,2.96h50.07c1.64,0,2.96-1.33,2.96-2.96V12.46c0-1.64-1.33-2.96-2.96-2.96Zm-1.36,38.79c0,1.04-.84,1.88-1.88,1.88H10.21c-1.04,0-1.88-.84-1.88-1.88V15.71c0-1.04.84-1.88,1.88-1.88h43.59c1.04,0,1.88.84,1.88,1.88v32.59Z"/><path class="cls-1" d="m39.7,21.85c0-.55-.45-1-1-1h-2.85c-.89,0-1.73.2-2.52.59-.5.24-.7.84-.45,1.34.17.35.53.56.9.56.15,0,.3-.03.44-.1.51-.25,1.06-.38,1.64-.38h2.85c.55,0,1-.45,1-1Z"/><path class="cls-1" d="m32.8,31.41c.17.1.35.15.53.15.33,0,.66-.17.85-.47.29-.47.15-1.08-.31-1.38-1.09-.69-1.74-1.86-1.74-3.15v-.2c.03-.55-.39-1.02-.95-1.05-.54,0-1.02.4-1.05.95,0,.1,0,.19,0,.29,0,1.98,1,3.79,2.67,4.84Z"/><path class="cls-1" d="m34.71,41.15h-5.01c-.55,0-1,.45-1,1s.45,1,1,1h5.01c.55,0,1-.45,1-1s-.45-1-1-1Z"/><path class="cls-1" d="m43.17,32.29s.03,0,.05,0c.53,0,.97-.42,1-.95.03-.55-.4-1.02-.95-1.05-.11,0-.21,0-.32,0h-4.74c-.55,0-1,.45-1,1s.45,1,1,1h4.74c.07,0,.15,0,.22,0Z"/><path class="cls-1" d="m46.87,32.82c-.46.31-.57.93-.26,1.39.5.74.77,1.6.77,2.5,0,.48-.08.95-.23,1.4-.17.52.11,1.09.63,1.27.11.04.21.05.32.05.42,0,.81-.26.95-.68.22-.65.33-1.34.33-2.04,0-1.3-.39-2.56-1.12-3.63-.31-.45-.93-.57-1.39-.26Z"/><path class="cls-1" d="m44.38,40.92c-.46.15-.94.23-1.43.23h-3.23c-.55,0-1,.45-1,1s.45,1,1,1h3.23c.71,0,1.4-.11,2.07-.34.52-.18.8-.75.63-1.27-.18-.52-.75-.8-1.27-.63Z"/><path class="cls-1" d="m20.28,27.75c-3.87,0-7.01,3.14-7.01,7.01,0,3.15,4.05,7.86,5.99,9.94.55.59,1.49.6,2.05.02.41-.42.9-.96,1.44-1.57h1.88c.55,0,1-.45,1-1s-.45-1-1-1h-.25c1.53-2.04,2.91-4.42,2.91-6.39,0-3.87-3.14-7.01-7.01-7.01Zm0,9.7c-1.49,0-2.7-1.21-2.7-2.7s1.21-2.7,2.7-2.7,2.7,1.21,2.7,2.7-1.21,2.7-2.7,2.7Z"/><path class="cls-1" d="m47.95,18.68c-1.4,0-2.57.91-3,2.17h-1.25c-.55,0-1,.45-1,1s.45,1,1,1h1.25c.42,1.26,1.6,2.17,3,2.17,1.75,0,3.17-1.42,3.17-3.17s-1.42-3.17-3.17-3.17Z"/></svg>