<?xml version="1.0" encoding="UTF-8"?><svg id="Glyph" xmlns="http://www.w3.org/2000/svg" viewBox="0 0 64 64"><defs><style>.cls-1{stroke-width:0px;}</style></defs><path class="cls-1" d="m46.21,4.08h-28.42c-5.21,0-9.47,4.26-9.47,9.47v28.42c0,5.21,4.26,9.47,9.47,9.47h2.22l-4.83,7.95c-.29.47-.14,1.09.33,1.37.16.1.34.15.52.15.34,0,.67-.17.86-.48l1.65-2.72h26.91l1.65,2.72c.19.31.52.48.86.48.18,0,.36-.05.52-.15.47-.29.62-.9.33-1.37l-4.83-7.95h2.22c5.21,0,9.47-4.26,9.47-9.47V13.55c0-5.21-4.26-9.47-9.47-9.47Zm-29.62,38.95c0-1.92,1.56-3.48,3.48-3.48s3.48,1.56,3.48,3.48-1.56,3.48-3.48,3.48-3.48-1.56-3.48-3.48Zm27.65,12.69h-24.48l2.59-4.27h19.29l2.59,4.27Zm-.31-9.21c-1.92,0-3.48-1.56-3.48-3.48s1.56-3.48,3.48-3.48,3.48,1.56,3.48,3.48-1.56,3.48-3.48,3.48Zm9.76-11.66H10.31V13.55c0-.17.01-.33.02-.49h43.32c.01.16.03.33.03.49v21.3Z"/><polygon class="cls-1" points="33.5 32.85 44.2 32.85 51.69 25.41 51.69 15.06 51.69 15.06 33.5 32.85"/><polygon class="cls-1" points="23.51 15.06 12.31 26.12 12.31 32.85 16.36 32.85 34.32 15.06 23.51 15.06"/></svg>