<?xml version="1.0" encoding="UTF-8"?><svg id="Glyph" xmlns="http://www.w3.org/2000/svg" viewBox="0 0 64 64"><defs><style>.cls-1{stroke-width:0px;}</style></defs><path class="cls-1" d="m9.49,23.28c.32.26.72.41,1.13.41h15.91v-9.94h-15.91c-.41,0-.81.14-1.13.41l-3.85,3.21c-.84.7-.84,2,0,2.7l3.85,3.21Zm1.35-5.56h11.34c.55,0,1,.45,1,1s-.45,1-1,1h-11.34c-.55,0-1-.45-1-1s.45-1,1-1Z"/><path class="cls-1" d="m37.47,23.69h15.91c.41,0,.81-.15,1.13-.41l3.85-3.21c.84-.7.84-2,0-2.7l-3.85-3.21c-.32-.27-.72-.41-1.13-.41h-15.91v9.94Zm4.35-5.97h11.34c.55,0,1,.45,1,1s-.45,1-1,1h-11.34c-.55,0-1-.45-1-1s.45-1,1-1Z"/><path class="cls-1" d="m26.53,28.75h-15.91c-.41,0-.81.14-1.13.41l-3.85,3.21c-.84.7-.84,2,0,2.7l3.85,3.21c.32.26.72.41,1.13.41h15.91v-9.94Zm-4.35,5.97h-11.34c-.55,0-1-.45-1-1s.45-1,1-1h11.34c.55,0,1,.45,1,1s-.45,1-1,1Z"/><path class="cls-1" d="m54.51,29.16c-.32-.27-.72-.41-1.13-.41h-15.91v9.94h15.91c.41,0,.81-.15,1.13-.41l3.85-3.21c.84-.7.84-2,0-2.7l-3.85-3.21Zm-1.35,5.56h-11.34c-.55,0-1-.45-1-1s.45-1,1-1h11.34c.55,0,1,.45,1,1s-.45,1-1,1Z"/><path class="cls-1" d="m40.7,53.08h-17.39c-2.06,0-3.73,1.67-3.73,3.73v1.87c0,.73.59,1.32,1.32,1.32h22.22c.73,0,1.32-.59,1.32-1.32v-1.87c0-2.06-1.67-3.73-3.73-3.73Z"/><path class="cls-1" d="m28.39,9.55h.14v41.53h6.95V9.55h.14c1.09,0,1.97-.88,1.97-1.97v-1.6c0-1.09-.88-1.97-1.97-1.97h-7.22c-1.09,0-1.97.88-1.97,1.97v1.6c0,1.09.88,1.97,1.97,1.97Z"/></svg>