<?xml version="1.0" encoding="UTF-8"?><svg id="Glyph" xmlns="http://www.w3.org/2000/svg" viewBox="0 0 64 64"><defs><style>.cls-1{stroke-width:0px;}</style></defs><path class="cls-1" d="m58.95,19.68l-14.63-14.63c-.67-.67-1.59-1.05-2.54-1.05h-19.56c-.95,0-1.87.38-2.54,1.05l-14.63,14.63c-.67.67-1.05,1.59-1.05,2.54v19.56c0,.95.38,1.87,1.05,2.54l14.63,14.63c.67.67,1.59,1.05,2.54,1.05h19.56c.95,0,1.87-.38,2.54-1.05l14.63-14.63c.67-.67,1.05-1.59,1.05-2.54v-19.56c0-.95-.38-1.87-1.05-2.54Zm-3.69,20.49c0,.76-.3,1.49-.84,2.03l-12.21,12.21c-.54.54-1.27.84-2.03.84h-16.34c-.76,0-1.49-.3-2.03-.84l-12.21-12.21c-.54-.54-.84-1.27-.84-2.03v-16.34c0-.76.3-1.49.84-2.03l12.21-12.21c.54-.54,1.27-.84,2.03-.84h16.34c.76,0,1.49.3,2.03.84l12.21,12.21c.54.54.84,1.27.84,2.03v16.34Z"/><path class="cls-1" d="m38.33,25.57h-3.51c-1.34,0-2.43,1.09-2.43,2.43v8c0,1.34,1.09,2.43,2.43,2.43h3.51c1.34,0,2.43-1.09,2.43-2.43v-8c0-1.34-1.09-2.43-2.43-2.43Zm.43,10.42c0,.24-.19.43-.43.43h-3.51c-.24,0-.43-.19-.43-.43v-8c0-.23.19-.43.43-.43h3.51c.24,0,.43.19.43.43v8Z"/><path class="cls-1" d="m29.99,25.57h-7.38c-.55,0-1,.45-1,1s.45,1,1,1h2.69v9.85c0,.55.45,1,1,1s1-.45,1-1v-9.85h2.69c.55,0,1-.45,1-1s-.45-1-1-1Z"/><path class="cls-1" d="m47.6,25.57h-3.37c-.55,0-1,.45-1,1v10.85c0,.55.45,1,1,1s1-.45,1-1v-3.54h2.37c2.29,0,4.16-1.86,4.16-4.16s-1.86-4.16-4.16-4.16Zm0,6.31h-2.37v-4.31h2.37c1.19,0,2.16.97,2.16,2.16s-.97,2.16-2.16,2.16Z"/><path class="cls-1" d="m18.59,31.01s-.07,0-.11,0h-3.41c-.67-.03-.81-.55-.83-.79v-1.93c.1-.59.69-.7.78-.71h4.08c.55,0,1-.45,1-1s-.45-1-1-1h-4.16c-.84.06-2.48.67-2.7,2.52,0,.04,0,.08,0,.12v2.04c.05,1.05.82,2.64,2.78,2.74h3.38c.26.05.75.21.78.76v1.8c0,.21-.04.68-.53.86h-4.73c-.55,0-1,.45-1,1s.45,1,1,1h4.88c.08,0,.17-.01.25-.03,1.79-.46,2.18-2.12,2.13-2.87v-1.8c-.08-1.93-1.73-2.62-2.59-2.72Z"/></svg>