<?xml version="1.0" encoding="UTF-8"?><svg id="Glyph" xmlns="http://www.w3.org/2000/svg" viewBox="0 0 64 64"><defs><style>.cls-1{stroke-width:0px;}</style></defs><path class="cls-1" d="m9.53,48.88v7.68c0,1.91,1.54,3.45,3.45,3.45h9.83c.82,0,1.58-.45,1.95-1.18.77-1.57,2.74-4.2,7.3-4.55,0,0,4.5-.14,7.04,4.55.39.72,1.12,1.18,1.94,1.18h9.98c1.91,0,3.45-1.54,3.45-3.45v-7.68H9.53Z"/><path class="cls-1" d="m51.02,3.99h-9.54c-.82,0-1.58.45-1.95,1.18-.78,1.57-2.74,4.2-7.3,4.55,0,0-4.5.14-7.04-4.55-.39-.72-1.13-1.19-1.94-1.19h-10.27c-1.91,0-3.46,1.55-3.46,3.46v39.44s0,0,0,0h44.94s0,0,0,0V7.44c0-1.91-1.55-3.46-3.46-3.46Zm-26.74,34.38c0,1.35-1.09,2.44-2.44,2.44s-2.44-1.09-2.44-2.44v-20.78c0-1.35,1.09-2.44,2.44-2.44s2.44,1.09,2.44,2.44v20.78Zm10.16,0c0,1.35-1.09,2.44-2.44,2.44s-2.44-1.09-2.44-2.44v-20.78c0-1.35,1.09-2.44,2.44-2.44s2.44,1.09,2.44,2.44v20.78Zm10.16,0c0,1.35-1.09,2.44-2.44,2.44s-2.44-1.09-2.44-2.44v-20.78c0-1.35,1.09-2.44,2.44-2.44s2.44,1.09,2.44,2.44v20.78Z"/></svg>