<?xml version="1.0" encoding="UTF-8"?><svg id="Glyph" xmlns="http://www.w3.org/2000/svg" viewBox="0 0 64 64"><defs><style>.cls-1{stroke-width:0px;}</style></defs><path class="cls-1" d="m55.58,38.3l-.26.26-1.33-4.08,1.92-1.92c.93-.93.96-2.43.07-3.32-.9-.9-2.4-.87-3.33.06l-.26.26-1.14-3.49c-1.86,1.87-3.93,3.92-6.12,6.02.08.09.16.17.22.27l11.06,16.56,1.06-1.06c.41-.4.55-1,.37-1.54l-.92-2.84,1.92-1.92c.93-.93.96-2.42.06-3.32-.89-.9-2.39-.87-3.32.06Z"/><path class="cls-1" d="m31.04,44.6c-3.04,2.42-5.95,4.48-8.51,5.9l6.39,8.21c.46.59,1.32.71,1.92.26l2.24-1.65c.44-.33.65-.89.53-1.43l-2.57-11.29Z"/><path class="cls-1" d="m7.89,30.18c-.54-.13-1.1.08-1.43.53l-1.65,2.23c-.45.61-.33,1.46.27,1.92l8.43,6.57c1.38-2.76,3.34-5.72,5.61-8.7l-11.23-2.55Z"/><path class="cls-1" d="m56.11,18.16s7.79-6.87,1.3-12.43c0,0-4.82-4.64-12.61,3.15,0,0-7.91,6.87-15.8,15.33-.04.04-.08.09-.12.13h0c-6.8,7.3-13.54,15.76-15.16,22,0,0-.86,3.48,2.71,4.19,0,0,7.7,1.5,39.68-32.37Zm-7.54-9.09c1.75-.67,3.73-.24,5.06,1.08,1.32,1.32,1.75,3.31,1.08,5.06-.15.4-.53.64-.93.64-.12,0-.24-.02-.36-.07-.52-.2-.77-.77-.58-1.29.39-1.01.14-2.16-.62-2.93-.77-.77-1.92-1.01-2.93-.63-.52.2-1.09-.06-1.29-.58-.2-.52.06-1.09.58-1.29Z"/><path class="cls-1" d="m40.52,36.43l10.68,15.19c.54.77,1.65.87,2.31.2l1.46-1.46-11.28-16.89c-1.04.99-2.1,1.98-3.17,2.96Z"/><path class="cls-1" d="m31.61,18.61c2.24-2.27,4.37-4.34,6.18-6.05l-3.57-1.16.27-.27c.93-.93.95-2.43.06-3.32-.9-.9-2.39-.87-3.32.06l-1.94,1.93-4.08-1.33.27-.27c.93-.93.96-2.42.06-3.32-.89-.9-2.39-.87-3.32.06l-1.92,1.93-2.84-.93c-.54-.18-1.13-.03-1.54.37l-1.06,1.06,16.47,11c.1.07.2.15.28.24Z"/><path class="cls-1" d="m12.16,12.58l15.07,10.6c1-1.08,2-2.13,2.99-3.15L13.42,8.81l-1.46,1.46c-.66.67-.57,1.77.2,2.31Z"/></svg>