<?xml version="1.0" encoding="UTF-8"?><svg id="Glyph" xmlns="http://www.w3.org/2000/svg" viewBox="0 0 64 64"><defs><style>.cls-1{stroke-width:0px;}</style></defs><path class="cls-1" d="m48.38,4H15.62c-6.42,0-11.62,5.2-11.62,11.62v32.77c0,6.42,5.2,11.62,11.62,11.62h32.77c6.42,0,11.62-5.2,11.62-11.62V15.62c0-6.42-5.2-11.62-11.62-11.62Zm7.29,43.45c0,4.55-3.68,8.23-8.23,8.23h-30.89c-4.55,0-8.23-3.68-8.23-8.23v-30.89c0-4.55,3.68-8.23,8.23-8.23h30.89c4.55,0,8.23,3.68,8.23,8.23v30.89Z"/><path class="cls-1" d="m50.12,29.11v-2.37c0-.7-.56-1.26-1.26-1.26h-4.34l-1.83-5.03c-.24-.67-1.02-1.22-1.73-1.22h-17.92c-.71,0-1.49.55-1.73,1.22l-1.83,5.03h-4.34c-.7,0-1.26.56-1.26,1.26v2.37c0,.56.37,1.05.91,1.2l2.65.76-.11.3c-1.95.34-3.45,2.06-3.45,4.11v7.37c0,1.15.94,2.09,2.1,2.09h1.38v2.92c0,.73.6,1.34,1.34,1.34h5.57c.74,0,1.34-.61,1.34-1.34v-2.92h12.78v2.92c0,.73.6,1.34,1.34,1.34h5.57c.74,0,1.34-.61,1.34-1.34v-2.92h1.38c1.16,0,2.1-.94,2.1-2.09v-7.37c0-2.05-1.5-3.77-3.45-4.11l-.11-.3,2.65-.76c.54-.15.91-.64.91-1.2Zm-29.27,11.82c-1.54,0-2.79-1.24-2.79-2.78s1.25-2.79,2.79-2.79,2.79,1.25,2.79,2.79-1.25,2.78-2.79,2.78Zm3.25-9.63c-.09-.27-.13-.56-.13-.83,0-1.66,1.35-3,3-3s2.99,1.34,2.99,3c0,.28-.04.56-.13.83h-5.73Zm12.69,9.83h-9.58c-.55,0-1-.44-1-1s.45-1,1-1h9.58c.55,0,1,.45,1,1s-.45,1-1,1Zm0-3.97h-9.58c-.55,0-1-.45-1-1s.45-1,1-1h9.58c.55,0,1,.45,1,1s-.45,1-1,1Zm-4.91-5.86c.06-.28.08-.55.08-.83,0-2.76-2.24-5-4.99-5s-5,2.24-5,5c0,.27.03.55.08.83h-2.56l3.66-10.07h17.7l3.66,10.07h-12.63Zm11.27,9.63c-1.54,0-2.79-1.24-2.79-2.78s1.25-2.79,2.79-2.79,2.79,1.25,2.79,2.79-1.25,2.78-2.79,2.78Z"/><path class="cls-1" d="m36.77,14.98c-.2-.7-.84-1.18-1.57-1.18h-6.4c-.73,0-1.37.48-1.57,1.18l-.66,2.25h10.86l-.66-2.25Z"/></svg>