<?xml version="1.0" encoding="UTF-8"?><svg id="Glyph" xmlns="http://www.w3.org/2000/svg" viewBox="0 0 64 64"><defs><style>.cls-1{stroke-width:0px;}</style></defs><path class="cls-1" d="m32.9,52.99v-8H7.1v8c-1.72.08-3.1,1.48-3.1,3.23v2.24c0,.85.69,1.55,1.55,1.55h28.9c.85,0,1.55-.69,1.55-1.55v-2.24c0-1.74-1.38-3.15-3.1-3.23Z"/><path class="cls-1" d="m23.64,12.65h-6.22c-.55,0-1,.45-1,1s.45,1,1,1h3.8s-5.57,5.57-5.57,5.57c-.39.39-.39,1.02,0,1.41.2.2.45.29.71.29s.51-.1.71-.29l5.57-5.57v3.8c0,.55.45,1,1,1s1-.45,1-1v-6.22c0-.27-.11-.52-.29-.71s-.44-.29-.71-.29Z"/><path class="cls-1" d="m57.84,13.59h-20.26v-.76c0-.98-.79-1.77-1.77-1.77h-2.91s0-3.35,0-3.35c0-2.05-1.66-3.72-3.72-3.72H10.82c-2.05,0-3.72,1.66-3.72,3.72v35.28h25.79v-18.23h2.91c.98,0,1.77-.8,1.77-1.78v-2.2l16.72,10.86c1,.65,2.34.36,2.99-.65s.36-2.34-.65-2.99l-12.49-8.11h-6.57v-2h20.26c1.19,0,2.16-.97,2.16-2.16s-.97-2.16-2.16-2.16Zm-29.54,9.05c0,1.21-.98,2.2-2.2,2.2h-12.2c-1.21,0-2.2-.98-2.2-2.2v-10.69c0-1.21.98-2.2,2.2-2.2h12.2c1.21,0,2.2.98,2.2,2.2v10.69Z"/></svg>