<?xml version="1.0" encoding="UTF-8"?><svg id="Glyph" xmlns="http://www.w3.org/2000/svg" viewBox="0 0 64 64"><defs><style>.cls-1{stroke-width:0px;}</style></defs><path class="cls-1" d="m23.1,41c-.61,0-1.11.5-1.11,1.11s.5,1.11,1.11,1.11,1.11-.5,1.11-1.11-.5-1.11-1.11-1.11Z"/><path class="cls-1" d="m40.9,41c-.61,0-1.11.5-1.11,1.11s.5,1.11,1.11,1.11,1.11-.5,1.11-1.11-.5-1.11-1.11-1.11Z"/><path class="cls-1" d="m48.38,4H15.62c-6.42,0-11.62,5.2-11.62,11.62v32.76c0,6.42,5.2,11.62,11.62,11.62h32.76c6.42,0,11.62-5.2,11.62-11.62V15.62c0-6.42-5.2-11.62-11.62-11.62Zm7.29,43.45c0,4.54-3.68,8.22-8.22,8.22h-30.9c-4.54,0-8.22-3.68-8.22-8.22v-30.9c0-4.54,3.68-8.22,8.22-8.22h30.9c4.54,0,8.22,3.68,8.22,8.22v30.9Z"/><path class="cls-1" d="m49.79,21.67h-2.6v-6.1c0-1.42-1.16-2.58-2.57-2.58h-25.24c-1.41,0-2.57,1.16-2.57,2.58v6.1h-2.6c-.67,0-1.22.55-1.22,1.22v4.02c0,.67.55,1.22,1.22,1.22h2.6v16.49c0,1.41,1.16,2.57,2.57,2.57h.2v2.6c0,.67.54,1.22,1.22,1.22h4.08c.67,0,1.21-.55,1.21-1.22v-2.6h11.82v2.6c0,.67.54,1.22,1.21,1.22h4.08c.68,0,1.22-.55,1.22-1.22v-2.6h.2c1.41,0,2.57-1.16,2.57-2.57v-16.49h2.6c.67,0,1.22-.55,1.22-1.22v-4.02c0-.67-.55-1.22-1.22-1.22Zm-28.35-5.8h21.12c.55,0,1,.45,1,1s-.45,1-1,1h-21.12c-.55,0-1-.44-1-1s.45-1,1-1Zm-2.63,21.28v-16.73h12.19v16.73h-1.33c.08-.34.12-.68.12-1.03,0-2.52-2.05-4.58-4.58-4.58s-4.57,2.06-4.57,4.58c0,.35.04.69.12,1.03h-1.95Zm4.29,8.06c-1.71,0-3.11-1.39-3.11-3.11s1.4-3.1,3.11-3.1,3.11,1.39,3.11,3.1-1.4,3.11-3.11,3.11Zm4.48-8.06h-4.73c-.14-.33-.21-.67-.21-1.03,0-1.42,1.15-2.58,2.57-2.58s2.58,1.16,2.58,2.58c0,.34-.07.68-.2,1,0,.01-.01.02-.01.03Zm7.64,7.29h-6.44c-.55,0-1-.45-1-1s.45-1,1-1h6.44c.55,0,1,.45,1,1s-.45,1-1,1Zm0-2.77h-6.44c-.55,0-1-.45-1-1s.45-1,1-1h6.44c.55,0,1,.45,1,1s-.45,1-1,1Zm5.68,3.54c-1.71,0-3.11-1.39-3.11-3.11s1.4-3.1,3.11-3.1,3.11,1.39,3.11,3.1-1.4,3.11-3.11,3.11Zm4.29-8.06h-12.19v-16.73h12.19v16.73Z"/></svg>