<?xml version="1.0" encoding="UTF-8"?><svg id="Glyph" xmlns="http://www.w3.org/2000/svg" viewBox="0 0 64 64"><defs><style>.cls-1{stroke-width:0px;}</style></defs><path class="cls-1" d="m41.58,36.46l-.96-.75c-.43-.33-1.03-.31-1.44.05l-6.14,5.33c2.48.16,4.79.93,6.8,2.15l2.11-5.48c.18-.47.03-1-.37-1.3Z"/><path class="cls-1" d="m22.47,44.43l-2.28-5.95c-.11-.27-.16-.54-.19-.81l-.2.03c-1.43.2-2.81.68-4.04,1.43-2.95,1.78-4.76,4.98-4.76,8.43v10.12c0,1.28,1.04,2.32,2.32,2.32h4.03c-.32-1.21-.5-2.48-.5-3.79,0-4.76,2.19-9,5.62-11.78Z"/><path class="cls-1" d="m21.36,55.25c-.04.32-.05.64-.05.96,0,1.33.26,2.61.7,3.79h7.18c-.32-1-.87-1.95-1.67-2.74-1.42-1.42-4.15-2.1-6.16-2.01Z"/><path class="cls-1" d="m32,53.2c-1.05,0-1.89.85-1.89,1.89s.84,1.89,1.89,1.89,1.89-.84,1.89-1.89-.84-1.89-1.89-1.89Z"/><path class="cls-1" d="m41.48,51.27c-1.79-3.42-5.36-5.75-9.48-5.75s-7.55,2.24-9.37,5.54c2.5-.37,5.52-.58,8.77-.58,3.84,0,7.36.3,10.08.79Z"/><path class="cls-1" d="m36.48,57.26c-.8.79-1.35,1.74-1.67,2.74h7.18c.44-1.18.7-2.46.7-3.79,0-.32-.02-.64-.05-.96-2.01-.09-4.74.59-6.16,2.01Z"/><path class="cls-1" d="m48.24,39.13c-1.23-.75-2.61-1.23-4.04-1.43l-.2-.03c-.03.27-.08.54-.19.81l-2.28,5.95c3.43,2.78,5.62,7.02,5.62,11.78,0,1.31-.18,2.58-.5,3.79h4.03c1.28,0,2.32-1.04,2.32-2.32v-10.12c0-3.45-1.81-6.65-4.76-8.43Z"/><path class="cls-1" d="m24.82,35.76c-.41-.36-1.01-.38-1.44-.05l-.96.75c-.4.3-.55.83-.37,1.3l2.11,5.48c2.01-1.22,4.32-1.99,6.8-2.15l-6.14-5.33Z"/><path class="cls-1" d="m19,21v1.6c0,5.48,3.26,10.24,7.89,12.3l5.11,4.44,5-4.35c1.51-.63,2.9-1.54,4.1-2.73,2.51-2.46,3.89-5.76,3.89-9.28v-2c1.66,0,3-1.34,3-3s-1.34-3-3-3h-26c-1.66,0-3,1.34-3,3s1.34,3,3,3Zm2.44-2.55c.34.68,1.03,1.11,1.79,1.11h17.53c.76,0,1.45-.43,1.79-1.11l.45-1.07v5.63c0,2.98-1.17,5.76-3.29,7.85-2.12,2.08-4.98,3.18-7.91,3.15-5.95-.11-10.79-5.22-10.79-11.4v-5.21l.44,1.06Z"/><path class="cls-1" d="m44,11c0-4.42-3.58-7-8-7h-8c-4.42,0-8,2.58-8,7v2h24v-2Z"/></svg>