<?xml version="1.0" encoding="UTF-8"?><svg id="Glyph" xmlns="http://www.w3.org/2000/svg" viewBox="0 0 64 64"><defs><style>.cls-1{stroke-width:0px;}</style></defs><path class="cls-1" d="m32.79,4.01c-15.82-.43-28.79,12.26-28.79,27.99v25.78c.01,1.23,1.01,2.22,2.24,2.22h3.08v-28c-.01-12.53,10.15-22.69,22.68-22.69s22.69,10.16,22.69,22.69v28h3.08c1.23,0,2.23-1,2.23-2.23v-25.19c0-15.26-11.96-28.15-27.21-28.57Z"/><path class="cls-1" d="m41.1,19.87h-18.2c-3.52,0-6.4,2.88-6.4,6.4v18.2c0,3.52,2.88,6.4,6.4,6.4h.64l-4.67,9.12h2.24l1.82-3.56h18.14l1.82,3.56h2.24l-4.67-9.12h.64c3.52,0,6.4-2.88,6.4-6.4v-18.2c0-3.52-2.88-6.4-6.4-6.4Zm-22.6,6.4c0-.11.03-.22.03-.33h12.47v13.72h-12.5v-13.39Zm3.59,18.91c0-1.3,1.05-2.35,2.35-2.35s2.35,1.05,2.35,2.35-1.05,2.35-2.35,2.35-2.35-1.05-2.35-2.35Zm17.96,9.26h-16.1l1.83-3.56h12.44l1.83,3.56Zm-.49-6.9c-1.3,0-2.35-1.05-2.35-2.35s1.05-2.35,2.35-2.35,2.35,1.05,2.35,2.35-1.05,2.35-2.35,2.35Zm5.94-7.88h-12.5v-13.72h12.47c0,.11.03.22.03.33v13.39Z"/></svg>