<?xml version="1.0" encoding="UTF-8"?><svg id="Glyph" xmlns="http://www.w3.org/2000/svg" viewBox="0 0 64 64"><defs><style>.cls-1{stroke-width:0px;}</style></defs><path class="cls-1" d="m29.77,41.22v-22.73h-14.06v31.59h5.87c.6-4.39,3.92-7.93,8.19-8.86Z"/><path class="cls-1" d="m29.77,16.02c0-2.82-2.29-5.1-5.1-5.1h-8.96v5.57h14.06v-.47Z"/><path class="cls-1" d="m34.23,41.22c4.27.93,7.59,4.47,8.19,8.86h5.87v-31.59h-14.06v22.73Z"/><path class="cls-1" d="m34.23,16.02v.47h14.06v-5.57h-8.96c-2.81,0-5.1,2.28-5.1,5.1Z"/><path class="cls-1" d="m11.11,3.94h-4.5c-1.44,0-2.61,1.17-2.61,2.61v44.97h9.71s0,0,0,0V6.55c0-1.44-1.17-2.61-2.61-2.61Z"/><path class="cls-1" d="m4,58.41c0,.91.74,1.65,1.65,1.65h6.41c.91,0,1.65-.74,1.65-1.65v-4.89H4v4.89Z"/><path class="cls-1" d="m57.39,3.94h-4.5c-1.44,0-2.61,1.17-2.61,2.61v44.97s0,0,0,0h9.71V6.55c0-1.44-1.17-2.61-2.61-2.61Z"/><path class="cls-1" d="m50.29,58.41c0,.91.74,1.65,1.65,1.65h6.41c.91,0,1.65-.74,1.65-1.65v-4.89h-9.71v4.89Z"/><path class="cls-1" d="m32,42.98c-4.7,0-8.51,3.81-8.51,8.51s3.81,8.51,8.51,8.51,8.51-3.81,8.51-8.51-3.81-8.51-8.51-8.51Zm4.32,8.6c-.2.2-.45.29-.71.29s-.51-.1-.71-.29l-1.9-1.9v6.04c0,.55-.45,1-1,1s-1-.45-1-1v-6.04l-1.9,1.9c-.39.39-1.02.39-1.41,0s-.39-1.02,0-1.41l3.61-3.61c.39-.39,1.02-.39,1.41,0l3.61,3.61c.39.39.39,1.02,0,1.41Z"/></svg>