<?xml version="1.0" encoding="UTF-8"?><svg id="Glyph" xmlns="http://www.w3.org/2000/svg" viewBox="0 0 64 64"><defs><style>.cls-1{stroke-width:0px;}</style></defs><path class="cls-1" d="m48.38,4H15.62c-6.42,0-11.62,5.2-11.62,11.62v32.77c0,6.42,5.2,11.62,11.62,11.62h32.77c6.42,0,11.62-5.2,11.62-11.62V15.62c0-6.42-5.2-11.62-11.62-11.62Zm7.29,43.45c0,4.55-3.68,8.23-8.23,8.23h-30.89c-4.55,0-8.23-3.68-8.23-8.23v-30.89c0-4.55,3.68-8.23,8.23-8.23h30.89c4.55,0,8.23,3.68,8.23,8.23v30.89Z"/><path class="cls-1" d="m35.1,14.7h-12.02c-1.55,0-2.81,1.25-2.81,2.81v30.48c0,.73.59,1.31,1.31,1.31h3.46c.73,0,1.31-.59,1.31-1.31v-12.04h8.39c5.85,0,10.87-4.58,10.98-10.43.11-5.96-4.69-10.82-10.62-10.82Zm-.22,15.18h-7.52c-.55,0-1-.45-1-1v-7.1c0-.55.45-1,1-1h7.71c2.66,0,4.79,2.28,4.53,5-.23,2.37-2.35,4.11-4.73,4.11Z"/></svg>