<?xml version="1.0" encoding="UTF-8"?><svg id="Glyph" xmlns="http://www.w3.org/2000/svg" viewBox="0 0 64 64"><defs><style>.cls-1{stroke-width:0px;}</style></defs><path class="cls-1" d="m13.34,43.05c3.11,0,4.79,1.54,6.02,2.67,1.06.97,1.76,1.61,3.31,1.61s2.25-.64,3.31-1.61c.76-.7,1.69-1.55,3.02-2.1v-9.12l-18.01,4.09,1.88,4.48c.15-.02.31-.02.47-.02Z"/><path class="cls-1" d="m38.01,45.72c1.06.97,1.76,1.61,3.32,1.61s2.25-.64,3.31-1.61c1.23-1.13,2.91-2.67,6.02-2.67.41,0,.8.03,1.16.08l1.69-4.69-18.51-3.98v9.17c1.33.54,2.26,1.39,3.01,2.09Z"/><path class="cls-1" d="m10.2,36.72l20.8-4.72v11.11c.31-.04.65-.06,1-.06s.69.02,1,.06v-11.13l21.2,4.56,1.04-2.88c.56-1.53-.38-3.2-1.97-3.53l-19.94-4.09c-.88-.18-1.78-.18-2.66,0l-19.78,4.06c-1.65.34-2.58,2.1-1.93,3.65l1.24,2.97Z"/><path class="cls-1" d="m58.63,49.19c-3.36-.74-3.81-4.14-7.97-4.14-4.66,0-4.67,4.28-9.33,4.28s-4.66-4.28-9.33-4.28-4.66,4.28-9.33,4.28-4.66-4.28-9.33-4.28c-4.16,0-4.61,3.4-7.97,4.14-.79.17-1.36.86-1.36,1.67v7.43c0,.94.76,1.71,1.71,1.71h52.56c.94,0,1.71-.77,1.71-1.71v-7.43c0-.81-.57-1.5-1.36-1.67Z"/><path class="cls-1" d="m32,23.91c.58,0,1.16.06,1.73.17l15.14,3.11v-13.73c0-2.06-1.69-3.75-3.75-3.75h-3.29l-2.23-4.77c-.27-.57-.84-.94-1.47-.94h-12.26c-.63,0-1.21.37-1.47.94l-2.23,4.77h-3.29c-2.06,0-3.75,1.69-3.75,3.75v13.73l15.14-3.11c.57-.12,1.15-.18,1.73-.18Zm11.69-8.91c.81,0,1.47.66,1.47,1.47v3.25c0,.81-.66,1.47-1.47,1.47h-3.25c-.81,0-1.47-.66-1.47-1.47v-3.25c0-.81.66-1.47,1.47-1.47h3.25Zm-18.5,4.72c0,.81-.66,1.47-1.47,1.47h-3.25c-.81,0-1.47-.66-1.47-1.47v-3.25c0-.81.66-1.47,1.47-1.47h3.25c.81,0,1.47.66,1.47,1.47v3.25Zm3.8,0v-3.25c0-.81.66-1.47,1.47-1.47h3.25c.81,0,1.47.66,1.47,1.47v3.25c0,.81-.66,1.47-1.47,1.47h-3.25c-.81,0-1.47-.66-1.47-1.47Z"/></svg>