<?xml version="1.0" encoding="UTF-8"?><svg id="Glyph" xmlns="http://www.w3.org/2000/svg" viewBox="0 0 64 64"><defs><style>.cls-1{stroke-width:0px;}</style></defs><path class="cls-1" d="m29.77,4.12c-8.76.98-15.88,7.95-17.03,16.69-.65,4.91.55,9.51,2.99,13.23,2.27,3.46,3.33,7.57,3.33,11.71v1.29h25.88v-1.55c0-4.16,1.26-8.19,3.49-11.7,1.9-3,3-6.54,3-10.36,0-11.47-9.93-20.62-21.67-19.31Zm2.34,33.91h-2.37v3.54c0,.55-.45,1-1,1s-1-.45-1-1v-10.85c0-.55.45-1,1-1h3.37c2.29,0,4.16,1.87,4.16,4.16s-1.86,4.16-4.16,4.16Zm10.81-14.43h-6.87c0-1.3-.62-2.44-1.57-3.18l3-4.65c.3-.46.17-1.08-.3-1.38-.46-.3-1.08-.16-1.38.3l-3.18,4.93c-.2-.03-.4-.06-.61-.06-2.23,0-4.05,1.81-4.05,4.05h-6.87c-1.27,0-2.26-1.15-2.03-2.39,1.13-6.12,6.49-10.76,12.94-10.76s11.81,4.64,12.94,10.76c.23,1.25-.76,2.39-2.03,2.39Z"/><path class="cls-1" d="m32.11,31.73h-2.37v4.31h2.37c1.19,0,2.16-.97,2.16-2.16s-.97-2.16-2.16-2.16Z"/><path class="cls-1" d="m19.06,51.46c0,1.55,1.26,2.81,2.81,2.81h3.29v4.12c0,.89.72,1.61,1.61,1.61h10.47c.89,0,1.61-.72,1.61-1.61v-4.12h3.29c1.55,0,2.81-1.26,2.81-2.82v-2.41h-25.88v2.42Z"/></svg>