<?xml version="1.0" encoding="UTF-8"?><svg id="Glyph" xmlns="http://www.w3.org/2000/svg" viewBox="0 0 64 64"><defs><style>.cls-1{stroke-width:0px;}</style></defs><path class="cls-1" d="m48.38,4H15.62c-6.42,0-11.62,5.2-11.62,11.62v32.77c0,6.42,5.2,11.62,11.62,11.62h32.77c6.42,0,11.62-5.2,11.62-11.62V15.62c0-6.42-5.2-11.62-11.62-11.62Zm7.29,43.45c0,4.55-3.68,8.23-8.23,8.23h-30.89c-4.55,0-8.23-3.68-8.23-8.23v-30.89c0-4.55,3.68-8.23,8.23-8.23h30.89c4.55,0,8.23,3.68,8.23,8.23v30.89Z"/><path class="cls-1" d="m49.67,47.71H14.33c-.55,0-1,.45-1,1s.45,1,1,1h35.33c.55,0,1-.45,1-1s-.45-1-1-1Z"/><path class="cls-1" d="m18.34,35.51s2.37,3.56,7.6,1.36l6.27-3.58.82,8.16c.06.59.7.92,1.21.63l3.21-1.82c.19-.11.33-.3.39-.51l2.82-11.3,7.13-4.08c2.03-1.15,2.74-3.73,1.59-5.76-1.15-2.03-3.73-2.74-5.76-1.59l-22.56,12.89-2.81-2.44c-.24-.21-.58-.26-.88-.13l-2.46,1.13c-.45.21-.61.76-.35,1.18l3.76,5.86Z"/><path class="cls-1" d="m27.48,23.94l7.66-4.38-8.64-2.67c-.21-.06-.43-.04-.63.06l-3.25,1.67c-.54.28-.61,1.03-.14,1.4l4.99,3.92Z"/></svg>