<?xml version="1.0" encoding="UTF-8"?><svg id="Glyph" xmlns="http://www.w3.org/2000/svg" viewBox="0 0 64 64"><defs><style>.cls-1{stroke-width:0px;}</style></defs><path class="cls-1" d="m19.21,44.74v-9.46c0-.37.1-.7.27-1-.17-.29-.27-.63-.27-1v-12.63c-2.5.1-4.6,1.96-4.95,4.45l-4.63,32.5c-.18,1.27.81,2.4,2.09,2.4h3.53c-.3-1.27-.45-2.55-.45-3.79,0-4.41,1.67-8.43,4.41-11.47Z"/><path class="cls-1" d="m54.37,57.6l-4.63-32.5c-.35-2.49-2.45-4.35-4.95-4.45v12.63c0,.37-.1.71-.27,1,.17.3.27.63.27,1v9.57c2.68,3.03,4.31,7.01,4.31,11.36,0,1.24-.14,2.52-.44,3.79h3.62c1.28,0,2.27-1.13,2.09-2.4Z"/><path class="cls-1" d="m31.95,39.05c4.11,0,7.89,1.46,10.84,3.87v-7.64h-21.58v7.56c2.94-2.36,6.68-3.79,10.74-3.79Z"/><path class="cls-1" d="m42.79,20.63h-5.16v-5.87h1.37c1.6,0,2.85-1.39,2.68-2.98l-.57-5.36c-.15-1.37-1.3-2.41-2.68-2.41h-12.96c-1.38,0-2.54,1.04-2.68,2.41l-.57,5.36c-.17,1.59,1.08,2.98,2.68,2.98h1.47v5.87h-5.16v12.65h21.59v-12.65Zm-14.42-5.87h7.26v5.87h-7.26v-5.87Z"/><path class="cls-1" d="m31.95,41.05c-8.37,0-15.15,6.79-15.15,15.16,0,1.31.18,2.58.5,3.79h4.67c-.45-1.18-.71-2.46-.71-3.79,0-.32.02-.64.05-.96,2.01-.09,4.74.59,6.16,2.01.8.79,1.35,1.74,1.68,2.74h5.61c.32-1,.88-1.95,1.67-2.74,1.42-1.42,4.15-2.1,6.16-2.01.04.31.05.63.05.96,0,1.33-.25,2.61-.7,3.79h4.67c.31-1.21.49-2.48.49-3.79,0-8.37-6.78-15.16-15.15-15.16Zm0,15.93c-1.04,0-1.89-.84-1.89-1.89s.85-1.89,1.89-1.89,1.9.85,1.9,1.89-.85,1.89-1.9,1.89Zm-.61-6.5c-3.23,0-6.23.2-8.74.55,1.83-3.29,5.33-5.51,9.35-5.51s7.68,2.32,9.46,5.72c-2.74-.47-6.24-.76-10.07-.76Z"/></svg>