<svg fill="#000000" xmlns="http://www.w3.org/2000/svg"  viewBox="0 0 24 24" width="24px" height="24px"><path d="M 3 4 C 2.448 4 2 4.448 2 5 C 2 5.552 2.448 6 3 6 L 5 6 C 5.552 6 6 5.552 6 5 C 6 4.448 5.552 4 5 4 L 3 4 z M 9 4 C 8.448 4 8 4.448 8 5 C 8 5.552 8.448 6 9 6 L 11 6 C 11.552 6 12 5.552 12 5 C 12 4.448 11.552 4 11 4 L 9 4 z M 19 4 C 18.448 4 18 4.448 18 5 C 18 5.552 18.448 6 19 6 L 21 6 C 21.552 6 22 5.552 22 5 C 22 4.448 21.552 4 21 4 L 19 4 z M 3.984375 7.9863281 A 1.0001 1.0001 0 0 0 3 9 L 3 10.271484 A 2 2 0 0 0 2 12 A 2 2 0 0 0 3 13.730469 L 3 15 A 1.0001 1.0001 0 1 0 5 15 L 5 13.728516 A 2 2 0 0 0 5.7265625 13 L 8.2695312 13 A 2 2 0 0 0 9 13.728516 L 9 15 A 1.0001 1.0001 0 1 0 11 15 L 11 13.730469 A 2 2 0 0 0 11.728516 13 L 18.269531 13 A 2 2 0 0 0 19 13.728516 L 19 15 A 1.0001 1.0001 0 1 0 21 15 L 21 13.730469 A 2 2 0 0 0 22 12 A 2 2 0 0 0 21 10.271484 L 21 9 A 1.0001 1.0001 0 0 0 19.984375 7.9863281 A 1.0001 1.0001 0 0 0 19 9 L 19 10.269531 A 2 2 0 0 0 18.271484 11 L 11.730469 11 A 2 2 0 0 0 11 10.271484 L 11 9 A 1.0001 1.0001 0 0 0 9.984375 7.9863281 A 1.0001 1.0001 0 0 0 9 9 L 9 10.269531 A 2 2 0 0 0 8.2714844 11 L 5.7285156 11 A 2 2 0 0 0 5 10.269531 L 5 9 A 1.0001 1.0001 0 0 0 3.984375 7.9863281 z M 3 18 C 2.448 18 2 18.448 2 19 C 2 19.552 2.448 20 3 20 L 5 20 C 5.552 20 6 19.552 6 19 C 6 18.448 5.552 18 5 18 L 3 18 z M 9 18 C 8.448 18 8 18.448 8 19 C 8 19.552 8.448 20 9 20 L 11 20 C 11.552 20 12 19.552 12 19 C 12 18.448 11.552 18 11 18 L 9 18 z M 19 18 C 18.448 18 18 18.448 18 19 C 18 19.552 18.448 20 19 20 L 21 20 C 21.552 20 22 19.552 22 19 C 22 18.448 21.552 18 21 18 L 19 18 z"/></svg>