<svg fill="#000000" xmlns="http://www.w3.org/2000/svg"  viewBox="0 0 24 24" width="24px" height="24px"><path d="M 3 4 C 2.448 4 2 4.448 2 5 C 2 5.552 2.448 6 3 6 L 7 6 C 7.552 6 8 5.552 8 5 C 8 4.448 7.552 4 7 4 L 3 4 z M 17 4 C 16.448 4 16 4.448 16 5 C 16 5.552 16.448 6 17 6 L 21 6 C 21.552 6 22 5.552 22 5 C 22 4.448 21.552 4 21 4 L 17 4 z M 4.984375 7.9863281 A 1.0001 1.0001 0 0 0 4 9 L 4 10.271484 A 2 2 0 0 0 3 12 A 2 2 0 0 0 4 13.728516 L 4 15 A 1.0001 1.0001 0 1 0 6 15 L 6 13.730469 A 2 2 0 0 0 6.7285156 13 L 17.269531 13 A 2 2 0 0 0 18 13.728516 L 18 15 A 1.0001 1.0001 0 1 0 20 15 L 20 13.730469 A 2 2 0 0 0 21 12 A 2 2 0 0 0 20 10.271484 L 20 9 A 1.0001 1.0001 0 0 0 18.984375 7.9863281 A 1.0001 1.0001 0 0 0 18 9 L 18 10.269531 A 2 2 0 0 0 17.271484 11 L 6.7285156 11 A 2 2 0 0 0 6 10.269531 L 6 9 A 1.0001 1.0001 0 0 0 4.984375 7.9863281 z M 3 18 C 2.448 18 2 18.448 2 19 C 2 19.552 2.448 20 3 20 L 7 20 C 7.552 20 8 19.552 8 19 C 8 18.448 7.552 18 7 18 L 3 18 z M 17 18 C 16.448 18 16 18.448 16 19 C 16 19.552 16.448 20 17 20 L 21 20 C 21.552 20 22 19.552 22 19 C 22 18.448 21.552 18 21 18 L 17 18 z"/></svg>