<svg fill="#000000" xmlns="http://www.w3.org/2000/svg"  viewBox="0 0 24 24" width="24px" height="24px"><path d="M 2 5 C 1.448 5 1 5.448 1 6 C 1 6.552 1.448 7 2 7 L 4 7 C 4.552 7 5 6.552 5 6 C 5 5.448 4.552 5 4 5 L 2 5 z M 8 5 C 7.448 5 7 5.448 7 6 C 7 6.552 7.448 7 8 7 L 10 7 C 10.552 7 11 6.552 11 6 C 11 5.448 10.552 5 10 5 L 8 5 z M 14 5 C 13.448 5 13 5.448 13 6 C 13 6.552 13.448 7 14 7 L 16 7 C 16.552 7 17 6.552 17 6 C 17 5.448 16.552 5 16 5 L 14 5 z M 20 5 C 19.448 5 19 5.448 19 6 C 19 6.552 19.448 7 20 7 L 22 7 C 22.552 7 23 6.552 23 6 C 23 5.448 22.552 5 22 5 L 20 5 z M 2.984375 8.9863281 A 1.0001 1.0001 0 0 0 2 10 L 2 10.271484 A 2 2 0 0 0 1 12 A 2 2 0 0 0 2 13.730469 L 2 14 A 1.0001 1.0001 0 1 0 4 14 L 4 13.728516 A 2 2 0 0 0 4.7265625 13 L 7.2695312 13 A 2 2 0 0 0 8 13.728516 L 8 14 A 1.0001 1.0001 0 1 0 10 14 L 10 13.730469 A 2 2 0 0 0 10.728516 13 L 13.269531 13 A 2 2 0 0 0 14 13.728516 L 14 14 A 1.0001 1.0001 0 1 0 16 14 L 16 13.730469 A 2 2 0 0 0 16.728516 13 L 19.269531 13 A 2 2 0 0 0 20 13.728516 L 20 14 A 1.0001 1.0001 0 1 0 22 14 L 22 13.730469 A 2 2 0 0 0 23 12 A 2 2 0 0 0 22 10.271484 L 22 10 A 1.0001 1.0001 0 0 0 20.984375 8.9863281 A 1.0001 1.0001 0 0 0 20 10 L 20 10.269531 A 2 2 0 0 0 19.271484 11 L 16.730469 11 A 2 2 0 0 0 16 10.271484 L 16 10 A 1.0001 1.0001 0 0 0 14.984375 8.9863281 A 1.0001 1.0001 0 0 0 14 10 L 14 10.269531 A 2 2 0 0 0 13.271484 11 L 10.730469 11 A 2 2 0 0 0 10 10.271484 L 10 10 A 1.0001 1.0001 0 0 0 8.984375 8.9863281 A 1.0001 1.0001 0 0 0 8 10 L 8 10.269531 A 2 2 0 0 0 7.2714844 11 L 4.7285156 11 A 2 2 0 0 0 4 10.269531 L 4 10 A 1.0001 1.0001 0 0 0 2.984375 8.9863281 z M 2 17 C 1.448 17 1 17.448 1 18 C 1 18.552 1.448 19 2 19 L 4 19 C 4.552 19 5 18.552 5 18 C 5 17.448 4.552 17 4 17 L 2 17 z M 8 17 C 7.448 17 7 17.448 7 18 C 7 18.552 7.448 19 8 19 L 10 19 C 10.552 19 11 18.552 11 18 C 11 17.448 10.552 17 10 17 L 8 17 z M 14 17 C 13.448 17 13 17.448 13 18 C 13 18.552 13.448 19 14 19 L 16 19 C 16.552 19 17 18.552 17 18 C 17 17.448 16.552 17 16 17 L 14 17 z M 20 17 C 19.448 17 19 17.448 19 18 C 19 18.552 19.448 19 20 19 L 22 19 C 22.552 19 23 18.552 23 18 C 23 17.448 22.552 17 22 17 L 20 17 z"/></svg>