<?xml version="1.0"?><svg fill="#000000" xmlns="http://www.w3.org/2000/svg"  viewBox="0 0 24 24" width="24px" height="24px">    <path d="M 7 4 A 1.0001 1.0001 0 0 0 6 5 L 6 10 L 2 10 C 1.45 10 1 10.45 1 11 L 1 16 C 1 16.55 1.45 17 2 17 L 3 17 C 3 15.9 3.9 15 5 15 C 6.1 15 7 15.9 7 17 L 13 17 C 13 15.9 13.9 15 15 15 C 16.1 15 17 15.9 17 17 L 19 17 C 19.11 17 19.210313 16.979219 19.320312 16.949219 C 19.470312 16.899219 23 15.67 23 11 C 23 10.45 22.55 10 22 10 L 18.15625 10 L 13.789062 4.3867188 A 1.0001 1.0001 0 0 0 13 4 L 7 4 z M 8 6 L 12.511719 6 L 15.623047 10 L 8 10 L 8 6 z M 1 19 C 1 19.07 1.0090625 19.229688 1.0390625 19.429688 C 1.1590625 19.999688 1.5002344 20.519219 1.9902344 20.949219 L 2 20.939453 C 2.18 21.099453 2.389375 21.250859 2.609375 21.380859 C 2.839375 21.500859 3.0800781 21.620938 3.3300781 21.710938 C 3.4600781 21.760938 3.5907031 21.800078 3.7207031 21.830078 C 3.8607031 21.870078 3.9908594 21.899922 4.1308594 21.919922 C 4.2408594 21.939922 4.3392187 21.960938 4.4492188 21.960938 C 4.6292187 21.990938 4.81 22 5 22 C 5.935 22 6.7944688 21.740359 7.4804688 21.318359 C 7.8014687 21.120359 8.1985313 21.120359 8.5195312 21.318359 C 9.2045312 21.740359 10.065 22 11 22 C 11.935 22 12.794469 21.740359 13.480469 21.318359 C 13.801469 21.120359 14.198531 21.120359 14.519531 21.318359 C 15.204531 21.740359 16.065 22 17 22 C 17.11 22 17.210313 22.000234 17.320312 21.990234 C 17.400313 21.980234 17.470781 21.970938 17.550781 21.960938 L 17.609375 21.960938 C 17.699375 21.950938 17.779141 21.939922 17.869141 21.919922 C 18.009141 21.899922 18.139297 21.870078 18.279297 21.830078 C 18.409297 21.800078 18.539922 21.760938 18.669922 21.710938 C 18.919922 21.620938 19.160625 21.500859 19.390625 21.380859 C 19.610625 21.250859 19.82 21.099453 20 20.939453 L 20.009766 20.949219 C 20.499766 20.519219 20.840937 19.999688 20.960938 19.429688 C 20.990937 19.229688 21 19.07 21 19 L 19.560547 19 C 19.279547 19 19.018125 19.117219 18.828125 19.324219 C 18.539125 19.641219 17.895 20 17 20 C 16.117 20 15.464875 19.632406 15.171875 19.316406 C 14.982875 19.113406 14.724266 19 14.447266 19 L 13.560547 19 C 13.279547 19 13.018125 19.117219 12.828125 19.324219 C 12.539125 19.641219 11.895 20 11 20 C 10.117 20 9.464875 19.632406 9.171875 19.316406 C 8.982875 19.113406 8.7242656 19 8.4472656 19 L 7.5605469 19 C 7.2795469 19 7.018125 19.117219 6.828125 19.324219 C 6.539125 19.641219 5.895 20 5 20 C 4.117 20 3.464875 19.632406 3.171875 19.316406 C 2.982875 19.113406 2.7242656 19 2.4472656 19 L 1 19 z"/></svg>