<?xml version="1.0"?><svg fill="#000000" xmlns="http://www.w3.org/2000/svg"  viewBox="0 0 24 24" width="24px" height="24px">    <path d="M22,18c0,0.472-0.749,1-1.75,1c-0.271,0-0.521-0.041-0.746-0.107c1.559-1.196,2.499-3.16,2.496-5.52 c-0.001-0.562,0.004-3.371,0.004-3.371l-2-0.004c0,0-0.004,2.052-0.004,3.002l-3-0.001v-5.99l1.504,0.859l0.992-1.736l-7-4 c-0.308-0.176-0.685-0.176-0.992,0l-7,4l0.992,1.736L7,7.009v5.985l-2.997-0.001L4,9.999l-2,0.003l0.004,3.372 C2,15.733,2.94,17.696,4.498,18.892C4.273,18.959,4.022,19,3.75,19C2.749,19,2,18.472,2,18H0c0,1.682,1.647,3,3.75,3 c1.102,0,2.07-0.367,2.75-0.953C7.18,20.633,8.148,21,9.25,21s2.07-0.367,2.75-0.953C12.68,20.633,13.648,21,14.75,21 s2.07-0.367,2.75-0.953C18.18,20.633,19.148,21,20.25,21c2.103,0,3.75-1.318,3.75-3H22z M9,5.866l3-1.714l3,1.714v7.132l-6-0.002 V5.866z"/></svg>