<svg fill="#000000" xmlns="http://www.w3.org/2000/svg"  viewBox="0 0 24 24" width="24px" height="24px"><path d="M 6 3 C 3.243 3 1 5.243 1 8 L 1 17 C 1 18.103 1.897 19 3 19 L 4.1621094 19 C 4.2845577 19.372969 4.476027 19.728646 4.7519531 20.039062 C 5.268559 20.620244 6.0833335 21 7 21 C 7.9166665 21 8.731441 20.620244 9.2480469 20.039062 C 9.523973 19.728646 9.7154423 19.372969 9.8378906 19 L 15.650391 19 C 15.818594 19 15.983181 18.971045 16.144531 18.929688 C 16.264962 19.328045 16.458964 19.70945 16.751953 20.039062 C 17.268559 20.620244 18.083334 21 19 21 C 19.916666 21 20.731441 20.620244 21.248047 20.039062 C 21.764653 19.457881 22 18.722222 22 18 C 22 17.663526 21.944698 17.325327 21.837891 17 L 22.484375 17 C 22.806375 17 23.054234 16.695047 22.990234 16.373047 C 22.773037 15.283237 22.000921 14.404368 20.990234 14.048828 C 20.991093 14.031975 21 14.016959 21 14 L 21 12.373047 C 21 11.323047 20.759734 10.270172 20.302734 9.3261719 L 18.208984 5 L 19 5 C 19.553 5 20 4.553 20 4 C 20 3.447 19.553 3 19 3 L 16.636719 3 C 16.622719 2.999 16.60975 3 16.59375 3 L 6 3 z M 6 5 L 8 5 L 8 8 L 3 8 C 3 6.346 4.346 5 6 5 z M 10 5 L 15.988281 5 L 18 9.1621094 L 18 11 C 18 12.657 16.657 14 15 14 L 12 14 C 12 12.895 11.105 12 10 12 L 10 5 z M 3 10 L 8 10 L 8 12 L 3 12 L 3 10 z M 7 17 C 7.4166663 17 7.6018927 17.120244 7.7519531 17.289062 C 7.9020136 17.457881 8 17.722222 8 18 C 8 18.277778 7.9020136 18.542119 7.7519531 18.710938 C 7.6018927 18.879756 7.4166663 19 7 19 C 6.5833337 19 6.3981073 18.879756 6.2480469 18.710938 C 6.0979864 18.542119 6 18.277778 6 18 C 6 17.722222 6.0979864 17.457881 6.2480469 17.289062 C 6.3981073 17.120244 6.5833337 17 7 17 z M 19 17 C 19.416666 17 19.601893 17.120244 19.751953 17.289062 C 19.902014 17.457881 20 17.722222 20 18 C 20 18.277778 19.90201 18.542119 19.751953 18.710938 C 19.601893 18.879756 19.416666 19 19 19 C 18.583334 19 18.398107 18.879756 18.248047 18.710938 C 18.097986 18.542119 18 18.277778 18 18 C 18 17.722222 18.097986 17.457881 18.248047 17.289062 C 18.398107 17.120244 18.583334 17 19 17 z"/></svg>