<svg fill="#000000" xmlns="http://www.w3.org/2000/svg"  viewBox="0 0 24 24" width="24px" height="24px"><path d="M 11 2 L 11 4 L 10.632812 4 C 9.7413106 4 9 4.7413101 9 5.6328125 L 9 8 L 6.6328125 8 C 5.7413101 8 5 8.7413101 5 9.6328125 L 5 12 L 3 12 C 2.448 12 2 12.447 2 13 C 2 16.939 7.4385937 20.458656 8.0585938 20.847656 C 8.2175938 20.946656 8.4008906 21 8.5878906 21 L 17.529297 21 C 17.963297 21 18.346469 20.719641 18.480469 20.306641 C 18.491469 20.274641 19.586656 16.964406 22.722656 13.691406 C 22.999656 13.401406 23.076922 12.976422 22.919922 12.607422 C 22.762922 12.239422 22.4 12 22 12 L 19 12 L 19 10.78125 L 22.242188 9.9707031 L 21.757812 8.0292969 L 18.75 8.78125 C 18.45991 8.3165255 17.947158 8 17.367188 8 L 15 8 L 15 5.6328125 C 15 4.7413101 14.256187 4 13.365234 4 L 13 4 L 13 2 L 11 2 z M 11 6 L 13 6 L 13 8 L 12 8 L 11 8 L 11 6 z M 7 10 L 12 10 L 17 10 L 17 12 L 7 12 L 7 10 z"/></svg>