<svg fill="#000000" xmlns="http://www.w3.org/2000/svg"  viewBox="0 0 24 24" width="24px" height="24px"><path d="M23,17.972c0-1.638-1.32-2.969-2.952-2.995C20.652,13.769,21,12.412,21,10.972c0-4.963-4.038-9-9-9s-9,4.037-9,9	c0,2.581,1.098,4.905,2.844,6.547l-1.963,2.956c-0.441,0.664,0.035,1.553,0.833,1.553c0.335,0,0.648-0.168,0.833-0.447l1.899-2.86	c1.338,0.789,2.891,1.25,4.554,1.25s3.216-0.461,4.554-1.25l1.899,2.86c0.185,0.279,0.498,0.447,0.833,0.447	c0.619,0,1.038-0.534,0.992-1.084C21.8,20.801,23,19.531,23,17.972z M5,10.972c0-3.859,3.14-7,7-7s7,3.141,7,7	c0,1.885-0.752,3.595-1.968,4.854l-2.349-3.538C14.879,11.89,15,11.447,15,10.972c0-1.654-1.346-3-3-3s-3,1.346-3,3	c0,0.474,0.121,0.917,0.318,1.317l-2.349,3.538C5.752,14.567,5,12.857,5,10.972z M12,17.972c-1.254,0-2.429-0.336-3.448-0.916	l2.225-3.351c0.374,0.168,0.786,0.267,1.223,0.267s0.848-0.098,1.223-0.267l2.225,3.351C14.429,17.636,13.254,17.972,12,17.972z"/></svg>