<svg fill="#000000" xmlns="http://www.w3.org/2000/svg"  viewBox="0 0 24 24" width="24px" height="24px"><path d="M 10.292969 1.2929688 L 6.7246094 4.8613281 L 4.3203125 4.0507812 C 4.0203125 3.9507812 3.6799219 3.9994531 3.4199219 4.1894531 C 3.1599219 4.3794531 3 4.68 3 5 L 3 6.5 C 3 7.9220398 3.3994759 9.7863248 4.2421875 11.429688 L 2.1953125 11.019531 A 1.0001 1.0001 0 0 0 1.9980469 11 A 1.0001 1.0001 0 0 0 1 12 L 1 18 C 1 19.780113 2.6869459 21 4.5 21 C 5.4428673 21 6.344865 20.664705 7 20.097656 C 7.655135 20.664705 8.5571327 21 9.5 21 C 10.442867 21 11.344865 20.664705 12 20.097656 C 12.655135 20.664705 13.557133 21 14.5 21 C 15.442867 21 16.344865 20.664705 17 20.097656 C 17.655135 20.664705 18.557133 21 19.5 21 C 21.313054 21 23 19.780113 23 18 L 23 16 A 1.0001 1.0001 0 0 0 22.195312 15.019531 L 19.673828 14.515625 L 20.949219 10.720703 C 21.119219 10.200703 20.840312 9.6292188 20.320312 9.4492188 L 8.8378906 5.5761719 L 11.707031 2.7070312 L 10.292969 1.2929688 z M 3 13.21875 L 21 16.820312 L 21 18 C 21 18.429887 20.448946 19 19.5 19 C 18.551054 19 18 18.429887 18 18 L 16 18 C 16 18.429887 15.448946 19 14.5 19 C 13.551054 19 13 18.429887 13 18 L 11 18 C 11 18.429887 10.448946 19 9.5 19 C 8.5510541 19 8 18.429887 8 18 L 6 18 C 6 18.429887 5.4489459 19 4.5 19 C 3.5510541 19 3 18.429887 3 18 L 3 13.21875 z"/></svg>