<?xml version="1.0"?><svg fill="#000000" xmlns="http://www.w3.org/2000/svg"  viewBox="0 0 24 24" width="24px" height="24px">    <path d="M 9 3 L 9 5 L 11 5 L 11 6 L 13 6 L 13 5 L 15 5 L 15 3 L 9 3 z M 8 7 C 6.9069372 7 6 7.9069372 6 9 L 6 12.142578 C 4.279832 12.589913 3 14.141562 3 16 C 3 17.141601 3.4885328 18.194038 4.296875 18.9375 C 4.1244956 18.973734 3.9440739 19 3.75 19 C 3.1869011 19 2.694455 18.824995 2.3925781 18.605469 C 2.0907013 18.385943 2 18.181158 2 18 L 0 18 C 0 18.923842 0.52342369 19.718432 1.2167969 20.222656 C 1.91017 20.72688 2.7940989 21 3.75 21 C 4.7059011 21 5.58983 20.72688 6.2832031 20.222656 C 6.3611489 20.165974 6.4268517 20.093089 6.5 20.029297 C 6.5731483 20.093089 6.6388511 20.165974 6.7167969 20.222656 C 7.41017 20.72688 8.2940989 21 9.25 21 C 10.205901 21 11.08983 20.72688 11.783203 20.222656 C 11.861149 20.165974 11.926852 20.093089 12 20.029297 C 12.073148 20.093089 12.138851 20.165974 12.216797 20.222656 C 12.91017 20.72688 13.794099 21 14.75 21 C 15.705901 21 16.58983 20.72688 17.283203 20.222656 C 17.361149 20.165974 17.426852 20.093089 17.5 20.029297 C 17.573148 20.093089 17.638851 20.165974 17.716797 20.222656 C 18.41017 20.72688 19.294099 21 20.25 21 C 21.205901 21 22.08983 20.72688 22.783203 20.222656 C 23.476576 19.718432 24 18.923842 24 18 L 22 18 C 22 18.181158 21.9093 18.385943 21.607422 18.605469 C 21.305545 18.824995 20.813099 19 20.25 19 C 20.056631 19 19.876928 18.973491 19.705078 18.9375 C 20.528284 18.18093 21 17.129488 21 16 C 21 14.141562 19.720168 12.589913 18 12.142578 L 18 9 C 18 7.9069372 17.093063 7 16 7 L 13.775391 7 L 13.478516 7.3300781 C 13.105628 7.7443976 12.591215 8 12 8 C 11.408785 8 10.894372 7.7443976 10.521484 7.3300781 L 10.224609 7 L 8 7 z M 8 9 L 9.4824219 9 C 10.173511 9.5831112 11.022197 10 12 10 C 12.977803 10 13.826489 9.5831112 14.517578 9 L 16 9 L 16 12 L 8 12 L 8 9 z"/></svg>