<svg fill="#000000" xmlns="http://www.w3.org/2000/svg"  viewBox="0 0 24 24" width="24px" height="24px"><path d="M 3 1 C 2.541 1 2.1412969 1.3128125 2.0292969 1.7578125 L 1.0292969 5.7578125 C 0.95429688 6.0568125 1.0238906 6.3722344 1.2128906 6.6152344 C 1.4018906 6.8582344 1.692 7 2 7 L 16 7 C 16.553 7 17 6.552 17 6 L 17 4 C 17 3.591 16.751094 3.2223125 16.371094 3.0703125 L 11.371094 1.0703125 C 11.253094 1.0233125 11.127 1 11 1 L 3 1 z M 4.5664062 8 C 3.8659286 8 3.2100185 8.369923 2.8496094 8.9746094 L 2.9179688 8.875 L 0.20898438 12.388672 A 1.0001 1.0001 0 0 0 0 13 L 0 19 C 0 19.831238 0.52583438 20.552603 1.2578125 20.851562 C 1.4015683 21.220664 1.6013728 21.572785 1.8769531 21.882812 C 2.4768923 22.557744 3.4166669 23 4.5 23 C 5.5833331 23 6.5231077 22.557744 7.1230469 21.882812 C 7.3452635 21.63282 7.3112134 21.290887 7.4472656 21 L 14.552734 21 C 14.688787 21.290887 14.654736 21.63282 14.876953 21.882812 C 15.476892 22.557744 16.416667 23 17.5 23 C 18.583333 23 19.523108 22.557744 20.123047 21.882812 C 20.431547 21.53575 20.652909 21.138906 20.796875 20.720703 L 22.447266 19.894531 A 1.0001 1.0001 0 0 0 23 19 L 23 14.820312 C 23 14.210045 22.609848 13.697771 22.248047 13.445312 C 21.886245 13.192854 21.526677 13.085695 21.197266 13.019531 L 21.242188 13.029297 L 17.580078 12.113281 L 15.082031 8.875 L 15.150391 8.9746094 C 14.789984 8.3698894 14.134071 8 13.433594 8 L 4.5664062 8 z M 4.5664062 10 L 8 10 L 8 12 L 3.0332031 12 L 4.5019531 10.095703 A 1.0001 1.0001 0 0 0 4.5664062 10 z M 10 10 L 13.433594 10 A 1.0001 1.0001 0 0 0 13.498047 10.095703 L 14.966797 12 L 10 12 L 10 10 z M 4.5 18 C 5.0833329 18 5.3935594 18.182744 5.6269531 18.445312 C 5.8603469 18.707881 6 19.097222 6 19.5 C 6 19.902778 5.8603469 20.292119 5.6269531 20.554688 C 5.3935594 20.817256 5.0833329 21 4.5 21 C 3.9166671 21 3.6064406 20.817256 3.3730469 20.554688 C 3.1396531 20.292119 3 19.902778 3 19.5 C 3 19.097222 3.1396531 18.707881 3.3730469 18.445312 C 3.6064406 18.182744 3.9166671 18 4.5 18 z M 17.5 18 C 18.083333 18 18.393559 18.182744 18.626953 18.445312 C 18.860347 18.707881 19 19.097222 19 19.5 C 19 19.902778 18.860347 20.292119 18.626953 20.554688 C 18.393559 20.817256 18.083333 21 17.5 21 C 16.916667 21 16.606441 20.817256 16.373047 20.554688 C 16.139653 20.292119 16 19.902778 16 19.5 C 16 19.097222 16.139653 18.707881 16.373047 18.445312 C 16.606441 18.182744 16.916667 18 17.5 18 z"/></svg>