<svg fill="#000000" xmlns="http://www.w3.org/2000/svg"  viewBox="0 0 24 24" width="24px" height="24px"><path d="M 15.923828 0.00390625 C 15.841953 0.00921875 15.759688 0.02578125 15.679688 0.05078125 C 15.529687 0.10078125 12 1.33 12 6 L 14 6 C 14 4.48 14.510781 3.4891406 15.050781 2.8691406 C 15.210781 4.2491406 15.690547 5.960625 17.060547 6.640625 C 18.510547 7.370625 19.810469 6.7794531 20.730469 5.9394531 C 21.090469 7.0694531 21.099297 8.0699219 20.779297 8.9199219 C 20.439297 9.8299219 19.75 10.410234 19.25 10.740234 L 20.509766 12.300781 C 21.239766 11.790781 22.140625 10.949922 22.640625 9.6699219 C 23.320625 7.9099219 23.070625 5.8390625 21.890625 3.5390625 C 21.720625 3.2090625 21.379766 3.01 21.009766 3 C 20.669766 2.96 20.299141 3.1995313 20.119141 3.5195312 C 20.109141 3.5395312 19.059219 5.409375 17.949219 4.859375 C 17.149219 4.449375 16.91 2.3603125 17 1.0703125 C 17.02 0.7403125 16.879375 0.4209375 16.609375 0.2109375 C 16.414375 0.0609375 16.169453 -0.01203125 15.923828 0.00390625 z M 6.6757812 8 C 5.8547813 8 5.1253125 8.4919062 4.8203125 9.2539062 L 2.7695312 14.355469 L 2.0507812 14.601562 C 0.81978125 15.000562 0 16.148406 0 17.441406 L 0 21 C 0 21.551 0.449 22 1 22 L 2.5546875 22 C 3.2480633 23.190599 4.5246084 24 6 24 C 7.4753916 24 8.7519367 23.190599 9.4453125 22 L 13.554688 22 C 14.248063 23.190599 15.524608 24 17 24 C 18.475392 24 19.751937 23.190599 20.445312 22 L 23 22 C 23.551 22 24 21.551 24 21 L 24 17.640625 C 24 16.210625 22.987844 14.980219 21.589844 14.699219 L 19.550781 14.289062 L 15.382812 9.125 C 14.808813 8.41 13.953063 8 13.039062 8 L 6.6757812 8 z M 7.015625 10 L 8.5 10 C 8.777 10 9 10.223 9 10.5 L 9 14 L 5.0703125 14 L 6.5507812 10.3125 C 6.6297812 10.1255 6.812625 10 7.015625 10 z M 11.5 10 L 13.039062 10 C 13.340063 10 13.629406 10.137094 13.816406 10.371094 L 16.746094 14 L 11 14 L 11 10.5 C 11 10.223 11.223 10 11.5 10 z M 6 18 C 7.102 18 8 18.898 8 20 C 8 21.102 7.102 22 6 22 C 4.898 22 4 21.102 4 20 C 4 18.898 4.898 18 6 18 z M 17 18 C 18.102 18 19 18.898 19 20 C 19 21.102 18.102 22 17 22 C 15.898 22 15 21.102 15 20 C 15 18.898 15.898 18 17 18 z"/></svg>