<?xml version="1.0"?><svg fill="#000000" xmlns="http://www.w3.org/2000/svg"  viewBox="0 0 24 24" width="24px" height="24px">    <path d="M 6 1 L 6 4 L 4 4 A 1.0001 1.0001 0 0 0 3 5 L 3 11 L 2 11 C 1.45 11 1 11.45 1 12 L 1 19 C 1 19.55 1.45 20 2 20 L 13.929688 20 C 18.459688 20 22.350234 16.620625 22.990234 12.140625 C 23.000234 12.090625 23 12.05 23 12 L 23 9 C 23 8.45 22.55 8 22 8 L 15 8 C 14.67 8 14.349922 8.1692188 14.169922 8.4492188 L 12.460938 11 L 11 11 L 11 7.2363281 L 11.894531 5.4472656 A 1.0001 1.0001 0 0 0 11 4 L 8 4 L 8 1 L 6 1 z M 5 6 L 9.3828125 6 L 9.1054688 6.5527344 A 1.0001 1.0001 0 0 0 9 7 L 9 11 L 5 11 L 5 6 z M 17 11 L 19 11 L 19 13 L 17 13 L 17 11 z"/></svg>