<?xml version="1.0"?><svg fill="#000000" xmlns="http://www.w3.org/2000/svg"  viewBox="0 0 24 24" width="24px" height="24px">    <path d="M 4 4 A 1.0001 1.0001 0 0 0 3 5 L 3 8.8066406 L 1.3242188 13 L 1 13 C 0.447 13 0 13.448 0 14 C 0 17.729 2.1199375 20.497281 2.2109375 20.613281 C 2.3999375 20.856281 2.691 21 3 21 L 18 21 C 18.136 21 18.270531 20.973922 18.394531 20.919922 C 18.582531 20.838922 23 18.889 23 14 C 23 13.448 22.553 13 22 13 L 20.566406 13 L 17.857422 8.4863281 A 1.0001 1.0001 0 0 0 17 8 L 16.5 8 L 13.800781 4.4003906 A 1.0001 1.0001 0 0 0 13 4 L 10 4 A 1.0001 1.0001 0 0 0 9.0292969 4.7578125 L 8.6855469 6.1347656 L 7.8945312 4.5527344 A 1.0001 1.0001 0 0 0 7 4 L 4 4 z M 5 6 L 6.3828125 6 L 8.1054688 9.4472656 A 1.0001 1.0001 0 0 0 9 10 L 16.433594 10 L 18.234375 13 L 3.4765625 13 L 4.9277344 9.3710938 A 1.0001 1.0001 0 0 0 5 9 L 5 6 z M 10.78125 6 L 12.5 6 L 14 8 L 10.28125 8 L 10.78125 6 z"/></svg>