<?xml version="1.0"?><svg fill="#000000" xmlns="http://www.w3.org/2000/svg"  viewBox="0 0 24 24" width="24px" height="24px">    <path d="M 14 3 A 2 2 0 0 0 12 5 A 2 2 0 0 0 14 7 A 2 2 0 0 0 16 5 A 2 2 0 0 0 14 3 z M 10.421875 6.9902344 C 9.7558594 6.9589844 9.0996094 7.1621094 8.5996094 7.5996094 C 7.1466094 8.7616094 5.1494375 10.872 5.0234375 14 L 3 14 C 2.45 14 2 14.45 2 15 C 2 18.5 5.2992187 20.740078 5.4492188 20.830078 C 5.6092188 20.940078 5.8 21 6 21 L 13.650391 21 L 16.769531 14 L 16.761719 14 L 17.447266 12.455078 L 18.453125 12.958984 L 19.347656 11.169922 L 12.351562 7.6738281 L 12.349609 7.6757812 L 11.599609 7.3007812 C 11.224609 7.1132812 10.821484 7.0089844 10.421875 6.9902344 z M 12.443359 9.9550781 L 15.65625 11.560547 L 14.572266 14 L 10.128906 14 C 10.275906 12.553 11.427359 11.031078 12.443359 9.9550781 z M 18.949219 14 L 15.839844 21 L 18 21 C 18.19 21 18.379062 20.939844 18.539062 20.839844 C 18.679063 20.749844 22 18.56 22 15 C 22 14.45 21.55 14 21 14 L 18.949219 14 z"/></svg>