<svg fill="#000000" xmlns="http://www.w3.org/2000/svg"  viewBox="0 0 24 24" width="24px" height="24px"><path d="M 3.8398438 3.0097656 C 3.2998438 3.0997656 2.9297656 3.6101562 3.0097656 4.1601562 L 4.7617188 15.083984 C 3.1915017 15.427234 2 16.832584 2 18.5 C 2 20.421152 3.578848 22 5.5 22 C 6.8831519 22 8.0777003 21.175306 8.6445312 20 L 14.355469 20 C 14.9223 21.175306 16.116848 22 17.5 22 C 19.421152 22 21 20.421152 21 18.5 C 21 18.197063 20.948667 17.90802 20.875 17.626953 L 22.421875 16.90625 A 1.0001 1.0001 0 0 0 22.033203 14.994141 A 1.0001 1.0001 0 0 0 21.578125 15.09375 L 19.826172 15.910156 C 19.578962 15.6877 19.302279 15.501253 19 15.355469 L 19 15 C 19 12.79 17.21 11 15 11 L 6.140625 11 L 5.8183594 9 L 13 9 A 1.0001 1.0001 0 1 0 13 7 L 5.4980469 7 L 4.9902344 3.8398438 C 4.9002344 3.2998438 4.3798438 2.9197656 3.8398438 3.0097656 z M 5.5 17 C 6.3402718 17 7 17.659728 7 18.5 C 7 19.340272 6.3402718 20 5.5 20 C 4.6597282 20 4 19.340272 4 18.5 C 4 17.659728 4.6597282 17 5.5 17 z M 17.5 17 C 18.340272 17 19 17.659728 19 18.5 C 19 19.340272 18.340272 20 17.5 20 C 16.659728 20 16 19.340272 16 18.5 C 16 17.659728 16.659728 17 17.5 17 z"/></svg>