<?xml version="1.0"?><svg fill="#000000" xmlns="http://www.w3.org/2000/svg"  viewBox="0 0 24 24" width="24px" height="24px">    <path d="M 8 3 C 7.62 3 7.269375 3.2107813 7.109375 3.5507812 L 5.109375 7.5507812 C 5.039375 7.6907813 5 7.84 5 8 L 5 12 L 5 14 C 5 14.552 5.448 15 6 15 L 4 15 A 1.0001 1.0001 0 0 0 3 16 L 3 19.890625 C 2.7578025 19.818931 2.5490631 19.719265 2.3925781 19.605469 C 2.0907013 19.385943 2 19.181158 2 19 L 0 19 C 0 19.923842 0.52342369 20.718432 1.2167969 21.222656 C 1.91017 21.72688 2.7940989 22 3.75 22 C 4.7059011 22 5.58983 21.72688 6.2832031 21.222656 C 6.3611489 21.165974 6.4268517 21.093089 6.5 21.029297 C 6.5731483 21.093089 6.6388511 21.165974 6.7167969 21.222656 C 7.41017 21.72688 8.2940989 22 9.25 22 C 10.205901 22 11.08983 21.72688 11.783203 21.222656 C 11.861149 21.165974 11.926852 21.093089 12 21.029297 C 12.073148 21.093089 12.138851 21.165974 12.216797 21.222656 C 12.91017 21.72688 13.794099 22 14.75 22 C 15.705901 22 16.58983 21.72688 17.283203 21.222656 C 17.361149 21.165974 17.426852 21.093089 17.5 21.029297 C 17.573148 21.093089 17.638851 21.165974 17.716797 21.222656 C 18.41017 21.72688 19.294099 22 20.25 22 C 21.205901 22 22.08983 21.72688 22.783203 21.222656 C 23.476576 20.718432 24 19.923842 24 19 L 22 19 C 22 19.181158 21.9093 19.385943 21.607422 19.605469 C 21.450937 19.719265 21.242198 19.818931 21 19.890625 L 21 16 A 1.0001 1.0001 0 0 0 20 15 L 18 15 C 18.552 15 19 14.552 19 14 L 19 12 L 19 8 C 19 7.84 18.960625 7.6907813 18.890625 7.5507812 L 16.890625 3.5507812 C 16.730625 3.2107813 16.38 3 16 3 L 8 3 z M 9 8 C 9.55 8 10 8.45 10 9 C 10 9.55 9.55 10 9 10 C 8.45 10 8 9.55 8 9 C 8 8.45 8.45 8 9 8 z M 15 8 C 15.55 8 16 8.45 16 9 C 16 9.55 15.55 10 15 10 C 14.45 10 14 9.55 14 9 C 14 8.45 14.45 8 15 8 z M 8 13 L 16 13 L 16 14 C 16 14.552 16.448 15 17 15 L 7 15 C 7.552 15 8 14.552 8 14 L 8 13 z M 5 17 L 19 17 L 19 19.669922 C 18.964747 19.648269 18.92387 19.628224 18.892578 19.605469 C 18.590701 19.385943 18.5 19.181158 18.5 19 L 16.5 19 C 16.5 19.181158 16.4093 19.385943 16.107422 19.605469 C 15.805545 19.824995 15.313099 20 14.75 20 C 14.186901 20 13.694455 19.824995 13.392578 19.605469 C 13.090701 19.385943 13 19.181158 13 19 L 11 19 C 11 19.181158 10.9093 19.385943 10.607422 19.605469 C 10.305545 19.824995 9.8130989 20 9.25 20 C 8.6869011 20 8.194455 19.824995 7.8925781 19.605469 C 7.5907013 19.385943 7.5 19.181158 7.5 19 L 5.5 19 C 5.5 19.181158 5.409299 19.385943 5.1074219 19.605469 C 5.0761304 19.628224 5.0352532 19.648269 5 19.669922 L 5 17 z"/></svg>