<?xml version="1.0"?><svg fill="#000000" xmlns="http://www.w3.org/2000/svg"  viewBox="0 0 24 24" width="24px" height="24px">    <path d="M 12 4 A 1.0001 1.0001 0 0 0 11.029297 4.7578125 L 9.4335938 11.138672 L 7.9492188 6.6835938 A 1.0001 1.0001 0 0 0 7 6 L 5 6 A 1.0001 1.0001 0 0 0 4 7 L 4 12 L 3 12 C 2.45 12 2 12.45 2 13 L 2 15.529297 C 2 15.729297 2.0599219 15.929844 2.1699219 16.089844 L 5.1699219 20.560547 C 5.3599219 20.830547 5.67 21 6 21 L 17.490234 21 C 17.730234 21 17.960625 20.919766 18.140625 20.759766 C 18.300625 20.629766 22 17.43 22 14 L 22 12 C 22 11.45 21.55 11 21 11 L 19 11 L 19 8.3027344 L 20.832031 5.5546875 A 1.0001 1.0001 0 0 0 20 4 L 12 4 z M 12.78125 6 L 18.130859 6 L 17.167969 7.4453125 A 1.0001 1.0001 0 0 0 17 8 L 17 11 L 15 11 C 14.84 11 14.690781 11.039375 14.550781 11.109375 L 12.759766 12 L 11.28125 12 L 12.78125 6 z M 6 8 L 6.2792969 8 L 7.6113281 12 L 6 12 L 6 8 z M 17 14 C 17.55 14 18 14.45 18 15 C 18 15.55 17.55 16 17 16 C 16.45 16 16 15.55 16 15 C 16 14.45 16.45 14 17 14 z"/></svg>