<svg fill="#000000" xmlns="http://www.w3.org/2000/svg"  viewBox="0 0 24 24" width="24px" height="24px"><path d="M23,16c-0.553,0-1,0.447-1,1c0,0.358-0.42,0.708-1,0.878v-4.16c0-1.137-0.188-2.267-0.556-3.343L18.95,6.01	C18.74,5.41,18.17,5,17.53,5H6.47C5.83,5,5.26,5.41,5.05,6.01l-1.494,4.365C3.188,11.451,3,12.58,3,13.718v4.16	C2.423,17.711,2,17.359,2,17c0-0.553-0.447-1-1-1s-1,0.447-1,1c0,1.381,1.154,2.574,2.797,2.899	c0.903,0.186,1.786,0.106,2.563-0.186c0.438-0.169,0.824-0.395,1.141-0.665C7.2,19.652,8.188,20,9.25,20	c1.061,0,2.048-0.348,2.75-0.951C12.7,19.652,13.688,20,14.75,20s2.049-0.348,2.75-0.951c0.318,0.271,0.706,0.497,1.147,0.667	C19.14,19.901,19.694,20,20.25,20c0.31,0,0.63-0.034,0.944-0.099C22.846,19.574,24,18.381,24,17C24,16.447,23.553,16,23,16z M17.17,7l1.03,3H5.8l1.03-3H17.17z M7.5,16C6.67,16,6,15.33,6,14.5C6,13.67,6.67,13,7.5,13S9,13.67,9,14.5C9,15.33,8.33,16,7.5,16z M16.5,13c0.83,0,1.5,0.67,1.5,1.5c0,0.83-0.67,1.5-1.5,1.5S15,15.33,15,14.5C15,13.67,15.67,13,16.5,13z"/></svg>