<svg fill="#000000" xmlns="http://www.w3.org/2000/svg"  viewBox="0 0 24 24" width="24px" height="24px"><path d="M 5.890625 2.4765625 L 5.75 2.6152344 C 4.777 3.5882344 4.777 5.1656719 5.75 6.1386719 L 6.9511719 7.3398438 L 8.8535156 5.4394531 L 5.890625 2.4765625 z M 13.246094 3.0078125 C 12.479814 2.9431348 11.613203 3.26375 10.939453 3.9375 C 10.181453 4.6955 9.8805 5.6954375 10.0625 6.5234375 L 5.3125 11.283203 C 4.9225 11.674203 4.9225 12.307266 5.3125 12.697266 C 5.7025 13.088266 6.3355625 13.088266 6.7265625 12.697266 L 10 9.4140625 L 13.294922 12.697266 C 13.684922 13.088266 14.316031 13.088266 14.707031 12.697266 C 15.097031 12.307266 15.097031 11.674203 14.707031 11.283203 L 11.414062 8 L 11.476562 7.9394531 C 12.305563 8.1214531 13.3045 7.8205 14.0625 7.0625 C 15.1405 5.9845 15.315125 4.4108281 14.453125 3.5488281 C 14.1295 3.2252031 13.705861 3.0466191 13.246094 3.0078125 z M 1.984375 5.9863281 A 1.0001 1.0001 0 0 0 1 7 L 1 17 C 1 17.776013 1.4608834 18.452737 2.1171875 18.783203 C 2.4670334 20.051641 3.6271474 21 5 21 C 6.2931586 21 7.3951413 20.15733 7.8125 19 L 13.1875 19 C 13.604859 20.15733 14.706841 21 16 21 C 17.293159 21 18.395141 20.15733 18.8125 19 L 20 19 C 21.093063 19 22 18.093063 22 17 L 22 12 A 1.0001 1.0001 0 0 0 21.316406 11.050781 L 19 10.279297 L 19 7 A 1.0001 1.0001 0 0 0 17.984375 5.9863281 A 1.0001 1.0001 0 0 0 17 7 L 17 11 A 1.0001 1.0001 0 0 0 17.683594 11.949219 L 20 12.720703 L 20 17 L 18.8125 17 C 18.395141 15.84267 17.293159 15 16 15 C 14.706841 15 13.604859 15.84267 13.1875 17 L 7.8125 17 C 7.3951413 15.84267 6.2931586 15 5 15 C 4.2313977 15 3.5333493 15.30413 3 15.787109 L 3 7 A 1.0001 1.0001 0 0 0 1.984375 5.9863281 z M 5 17 C 5.5641294 17 6 17.435871 6 18 C 6 18.564129 5.5641294 19 5 19 C 4.4561699 19 4.0415743 18.591188 4.0117188 18.056641 A 1.0001 1.0001 0 0 0 4.0117188 17.941406 C 4.042513 17.407841 4.456843 17 5 17 z M 16 17 C 16.54383 17 16.958426 17.408812 16.988281 17.943359 A 1.0001 1.0001 0 0 0 16.988281 18.058594 C 16.957487 18.592159 16.543157 19 16 19 C 15.435871 19 15 18.564129 15 18 C 15 17.435871 15.435871 17 16 17 z"/></svg>