<svg fill="#000000" xmlns="http://www.w3.org/2000/svg"  viewBox="0 0 24 24" width="24px" height="24px"><path d="M 6.5 3 C 4.8550302 3 3.5 4.3550302 3.5 6 L 3.5 9 L 3 9 C 1.9 9 1 9.9 1 11 L 1 16 C 1 17.1 1.9 18 3 18 L 3.1445312 18 C 3.5942636 19.715651 5.1490974 21 7 21 L 17 21 C 18.850335 21 20.4056 19.715801 20.855469 18 L 21 18 C 22.1 18 23 17.1 23 16 L 23 12 C 23 10.35 21.65 9 20 9 L 18.283203 9 L 16.482422 5.7285156 L 16.5 5.7636719 C 15.65355 4.0720203 13.919021 3 12.027344 3 L 6.5 3 z M 6.5 5 L 12.027344 5 C 13.165666 5 14.201387 5.6398547 14.710938 6.6582031 A 1.0001 1.0001 0 0 0 14.730469 6.6933594 L 15.998047 9 L 5.5 9 L 5.5 6 C 5.5 5.4349698 5.9349698 5 6.5 5 z M 7 15 L 17 15 C 18.116666 15 19 15.883334 19 17 C 19 18.116666 18.116666 19 17 19 L 7 19 C 5.882008 19 5 18.117068 5 17 C 5 15.882932 5.882008 15 7 15 z M 8 16 A 1 1 0 0 0 7 17 A 1 1 0 0 0 8 18 A 1 1 0 0 0 9 17 A 1 1 0 0 0 8 16 z M 12 16 A 1 1 0 0 0 11 17 A 1 1 0 0 0 12 18 A 1 1 0 0 0 13 17 A 1 1 0 0 0 12 16 z M 16 16 A 1 1 0 0 0 15 17 A 1 1 0 0 0 16 18 A 1 1 0 0 0 17 17 A 1 1 0 0 0 16 16 z"/></svg>