<svg fill="#000000" xmlns="http://www.w3.org/2000/svg"  viewBox="0 0 24 24" width="24px" height="24px"><path d="M 15 2 A 1.0001 1.0001 0 0 0 14.525391 2.1191406 L 1.5253906 9.1191406 A 1.0001 1.0001 0 0 0 1 10 L 1 14 A 1.0001 1.0001 0 0 0 1.1054688 14.447266 L 3.1054688 18.447266 A 1.0001 1.0001 0 0 0 4.4472656 18.894531 L 20.447266 10.894531 A 1.0001 1.0001 0 0 0 21 10 L 21 7 A 1.0001 1.0001 0 0 0 20.970703 6.7578125 L 19.970703 2.7578125 A 1.0001 1.0001 0 0 0 19 2 L 15 2 z M 17 4 L 18.21875 4 L 19 7.1230469 L 19 8 L 18 8 C 17.448 8 17 7.552 17 7 L 17 4 z M 14 7 C 14.552 7 15 7.448 15 8 C 15 8.552 14.552 9 14 9 C 13.448 9 13 8.552 13 8 C 13 7.448 13.448 7 14 7 z M 10 9 C 10.552 9 11 9.448 11 10 C 11 10.552 10.552 11 10 11 C 9.448 11 9 10.552 9 10 C 9 9.448 9.448 9 10 9 z M 6 11 C 6.552 11 7 11.448 7 12 C 7 12.552 6.552 13 6 13 C 5.448 13 5 12.552 5 12 C 5 11.448 5.448 11 6 11 z M 21.054688 13.425781 C 20.924828 13.431 20.794922 13.462484 20.669922 13.521484 L 5.4785156 20.669922 C 4.9785156 20.904922 4.765 21.5 5 22 C 5.235 22.5 5.8300781 22.714516 6.3300781 22.478516 L 21.521484 15.330078 C 22.021484 15.095078 22.235 14.5 22 14 C 21.82375 13.625 21.444266 13.410125 21.054688 13.425781 z"/></svg>