<svg fill="#000000" xmlns="http://www.w3.org/2000/svg"  viewBox="0 0 24 24" width="24px" height="24px"><path d="M 3 3 A 1.0001 1.0001 0 1 0 3 5 L 3 10.3125 C 1.257109 11.003508 8.8667927e-17 12.809721 0 14.939453 L 0 18 C 0 18.55 0.45 19 1 19 L 2.0507812 19 C 2.2981765 20.685411 3.7500665 22 5.5 22 C 7.2499335 22 8.7018235 20.685411 8.9492188 19 L 14.050781 19 C 14.298177 20.685411 15.750067 22 17.5 22 C 19.249933 22 20.701823 20.685411 20.949219 19 L 22 19 C 22.27 19 22.520937 18.890937 22.710938 18.710938 C 22.900938 18.520937 23 18.26 23 18 L 23 15.490234 C 23 12.410234 20.8 10 18 10 L 17.867188 10 L 17.152344 5 L 18 5 A 1.0001 1.0001 0 1 0 18 3 L 3 3 z M 5 5 L 15.132812 5 L 15.847656 10 L 15 10 C 14.990093 10 14.980588 10.003601 14.970703 10.003906 L 13.353516 8.0605469 L 13.707031 7.7070312 A 1.0001 1.0001 0 0 0 12.980469 5.9902344 A 1.0001 1.0001 0 0 0 12.292969 6.2929688 L 10.292969 8.2929688 A 1.0001 1.0001 0 1 0 11.707031 9.7070312 L 11.933594 9.4804688 L 13.533203 11.400391 L 12.460938 13 L 10 13 C 10 12.61 9.7701562 12.249844 9.4101562 12.089844 L 5 10.113281 L 5 5 z M 5.5 17 C 6.3402718 17 7 17.659728 7 18.5 C 7 19.340272 6.3402718 20 5.5 20 C 4.6597282 20 4 19.340272 4 18.5 C 4 17.659728 4.6597282 17 5.5 17 z M 17.5 17 C 18.340272 17 19 17.659728 19 18.5 C 19 19.340272 18.340272 20 17.5 20 C 16.659728 20 16 19.340272 16 18.5 C 16 17.659728 16.659728 17 17.5 17 z"/></svg>