<svg fill="#000000" xmlns="http://www.w3.org/2000/svg"  viewBox="0 0 24 24" width="24px" height="24px"><path d="M 15.402344 0.0390625 A 1.0001 1.0001 0 0 0 14.792969 0.2890625 L 14.353516 0.66601562 L 11.634766 2.9960938 A 1.0001 1.0001 0 1 0 12.9375 4.5136719 L 15.654297 2.1835938 L 16.09375 1.8066406 A 1.0001 1.0001 0 0 0 15.501953 0.0390625 A 1.0001 1.0001 0 0 0 15.402344 0.0390625 z M 21.728516 0.27148438 A 1.0001 1.0001 0 0 0 21.117188 0.515625 L 20.630859 0.92578125 A 1.0001 1.0001 0 0 0 20.628906 0.92578125 L 14.662109 5.9765625 A 1.0001 1.0001 0 1 0 15.953125 7.5019531 L 21.919922 2.453125 L 22.40625 2.0429688 A 1.0001 1.0001 0 0 0 21.728516 0.27148438 z M 22.480469 4.9726562 A 1.0001 1.0001 0 0 0 21.871094 5.2207031 L 21.458984 5.5761719 L 18.611328 8.015625 A 1.0001258 1.0001258 0 1 0 19.912109 9.5351562 L 22.759766 7.09375 L 23.173828 6.7382812 A 1.0001 1.0001 0 0 0 22.480469 4.9726562 z M 10 5 A 1 1 0 0 0 10 7 A 1 1 0 0 0 10 5 z M 1 8 L 1 10 L 3 10 L 3 13 L 1 13 L 1 15 L 1 20 L 1 21 L 7.5527344 21 C 7.6887866 21.290887 7.6547365 21.63282 7.8769531 21.882812 C 8.4768923 22.557744 9.4166669 23 10.5 23 C 11.583333 23 12.523108 22.557744 13.123047 21.882812 C 13.431547 21.53575 13.652909 21.138906 13.796875 20.720703 L 15.447266 19.894531 A 1.0001 1.0001 0 0 0 16 19 L 16 14.820312 C 16 13.873712 15.320385 13.045729 14.392578 12.859375 L 10.5625 12.09375 L 8.0820312 8.875 L 8.1503906 8.9746094 C 7.7899815 8.369923 7.1340713 8 6.4335938 8 L 1 8 z M 13 8 A 1 1 0 0 0 13 10 A 1 1 0 0 0 13 8 z M 5 10 L 6.4335938 10 A 1.0001 1.0001 0 0 0 6.4980469 10.095703 L 8.7382812 13 L 5 13 L 5 10 z M 17 10 A 1 1 0 0 0 17 12 A 1 1 0 0 0 17 10 z M 10.5 18 C 11.083333 18 11.393559 18.182744 11.626953 18.445312 C 11.860347 18.707881 12 19.097222 12 19.5 C 12 19.902778 11.860347 20.292119 11.626953 20.554688 C 11.393559 20.817256 11.083333 21 10.5 21 C 9.9166671 21 9.6064406 20.817256 9.3730469 20.554688 C 9.1396531 20.292119 9 19.902778 9 19.5 C 9 19.097222 9.1396531 18.707881 9.3730469 18.445312 C 9.6064406 18.182744 9.9166671 18 10.5 18 z"/></svg>