<svg fill="#000000" xmlns="http://www.w3.org/2000/svg"  viewBox="0 0 24 24" width="24px" height="24px"><path d="M 6 3 C 4.3550302 3 3 4.3550302 3 6 L 3 9 C 1.9 9 1 9.9 1 11 L 1 16 C 1 16.766657 1.4407536 17.428303 2.078125 17.763672 C 2.4382212 19.599253 4.0633761 21 6 21 L 8 21 C 9.8503351 21 11.4056 19.715801 11.855469 18 L 14.050781 18 C 14.298177 19.685411 15.750067 21 17.5 21 C 19.249933 21 20.701823 19.685411 20.949219 18 L 21 18 C 22.1 18 23 17.1 23 16 L 23 12 C 23 10.35 21.65 9 20 9 L 17.783203 9 L 15.982422 5.7285156 L 16 5.7636719 C 15.15355 4.0720203 13.419021 3 11.527344 3 L 6 3 z M 6 5 L 11.527344 5 C 12.665666 5 13.701387 5.6398547 14.210938 6.6582031 A 1.0001 1.0001 0 0 0 14.230469 6.6933594 L 15.498047 9 L 5 9 L 5 6 C 5 5.4349698 5.4349698 5 6 5 z M 6 15 L 8 15 C 9.0857729 15 9.9431944 15.837421 9.9902344 16.910156 A 1.0001 1.0001 0 0 0 9.9902344 17.091797 C 9.9422229 18.163585 9.0851086 19 8 19 L 6 19 C 4.882008 19 4 18.117068 4 17 C 4 15.882932 4.882008 15 6 15 z M 7 16 A 1 1 0 0 0 6 17 A 1 1 0 0 0 7 18 A 1 1 0 0 0 8 17 A 1 1 0 0 0 7 16 z M 17.5 16 C 18.340272 16 19 16.659728 19 17.5 C 19 18.340272 18.340272 19 17.5 19 C 16.659728 19 16 18.340272 16 17.5 C 16 16.659728 16.659728 16 17.5 16 z"/></svg>