<svg fill="#000000" xmlns="http://www.w3.org/2000/svg"  viewBox="0 0 24 24" width="24px" height="24px"><path d="M 9 3 C 7.35 3 6 4.35 6 6 L 6 8 L 5 8 C 4.45 8 4 8.45 4 9 L 4 13 L 3 13 A 1.0001 1.0001 0 0 0 2.0507812 13.683594 L 1.0507812 16.683594 A 1.0001 1.0001 0 0 0 1.0507812 17.316406 L 2.0507812 20.316406 A 1.0001 1.0001 0 0 0 3 21 L 21 21 A 1.0001 1.0001 0 0 0 21.949219 20.316406 L 22.949219 17.316406 A 1.0001 1.0001 0 0 0 22.949219 16.683594 L 21.949219 13.683594 A 1.0001 1.0001 0 0 0 21 13 L 20 13 L 20 10.220703 L 21.976562 6 L 23 6 C 23.553 6 24 5.552 24 5 C 24 4.448 23.553 4 23 4 L 21.976562 4 C 21.204563 4 20.492063 4.4532969 20.164062 5.1542969 L 18.832031 8 L 18 8 L 18 6 C 18 4.35 16.65 3 15 3 L 9 3 z M 9 5 L 15 5 C 15.55 5 16 5.45 16 6 L 16 8 L 8 8 L 8 6 C 8 5.45 8.45 5 9 5 z M 9 10 C 9.55 10 10 10.45 10 11 C 10 11.55 9.55 12 9 12 C 8.45 12 8 11.55 8 11 C 8 10.45 8.45 10 9 10 z M 15 10 C 15.55 10 16 10.45 16 11 C 16 11.55 15.55 12 15 12 C 14.45 12 14 11.55 14 11 C 14 10.45 14.45 10 15 10 z M 3.7207031 15 L 5 15 L 19 15 L 20.279297 15 L 20.945312 17 L 20.279297 19 L 3.7207031 19 L 3.0546875 17 L 3.7207031 15 z"/></svg>