<svg fill="#000000" xmlns="http://www.w3.org/2000/svg"  viewBox="0 0 24 24" width="24px" height="24px"><path d="M 6 3 A 1.0001 1.0001 0 0 0 5.1621094 4.546875 C 5.1621094 4.546875 6.8574219 7.1418826 6.8574219 11 A 1.0001 1.0001 0 0 0 8.0273438 11.986328 L 10 11.646484 L 10 15 L 7.5351562 15 L 5.8320312 12.445312 C 5.6460313 12.167312 5.334 12 5 12 L 2 12 C 1.447 12 1 12.448 1 13 L 1 16 C 1 16.334 1.1673125 16.646031 1.4453125 16.832031 L 2.5917969 17.597656 C 2.7447969 18.191656 3.1472188 19.196609 4.1992188 20.599609 C 4.3892188 20.851609 4.686 21 5 21 L 17 21 C 17.155 21 17.309266 20.963531 17.447266 20.894531 C 17.633266 20.800531 22 18.554 22 13 C 22 12.448 21.553 12 21 12 L 17 12 C 16.666 12 16.353969 12.167312 16.167969 12.445312 L 14.464844 15 L 12 15 L 12 11.300781 L 18.169922 10.236328 A 1.0001 1.0001 0 0 0 18.984375 9.0761719 C 18.612634 6.9758599 17.91852 5.5233473 17.291016 4.5898438 C 16.663511 3.6563402 16.023438 3.1835937 16.023438 3.1835938 A 1.0001 1.0001 0 0 0 15.445312 3 L 6 3 z M 7.5800781 5 L 15.025391 5 C 15.115981 5.07111 15.253378 5.145473 15.630859 5.7070312 C 16.00487 6.2634261 16.414777 7.2205782 16.744141 8.4511719 L 8.7363281 9.8320312 C 8.5490559 7.5888343 8.084256 6.0952867 7.5800781 5 z"/></svg>