<svg fill="#000000" xmlns="http://www.w3.org/2000/svg"  viewBox="0 0 24 24" width="24px" height="24px"><path d="M 4.5703125 4 C 3.8703125 4 3.2105469 4.3690625 2.8105469 5.0390625 L 0.099609375 10.560547 C 0.039609375 10.700547 8.8817842e-18 10.85 0 11 L 0 17 C 0 17.933956 0.65038279 18.718395 1.5195312 18.935547 C 2.2035134 20.16121 3.498422 21 5 21 C 6.4753916 21 7.7519367 20.190599 8.4453125 19 L 8.4804688 19 L 8.6132812 18.6875 C 8.6530812 18.602588 8.6907325 18.517716 8.7246094 18.429688 L 11.480469 12 L 7 12 C 6.65 12 6.3303906 11.819297 6.1503906 11.529297 C 5.9703906 11.229297 5.949375 10.860781 6.109375 10.550781 L 9.390625 4 L 4.5703125 4 z M 11.619141 4 L 8.6191406 10 L 13 10 C 13.34 10 13.650078 10.169219 13.830078 10.449219 C 14.020078 10.729219 14.049922 11.080625 13.919922 11.390625 L 10.660156 19 L 13.554688 19 C 14.248063 20.190599 15.524608 21 17 21 C 18.583863 21 19.942118 20.069616 20.589844 18.732422 L 22.449219 17.890625 C 22.789219 17.730625 23 17.38 23 17 L 23 12.820312 C 23 11.870312 22.320625 11.039375 21.390625 10.859375 L 17.679688 10.119141 L 15.150391 4.9707031 C 14.790391 4.3707031 14.129687 4 13.429688 4 L 11.619141 4 z M 5 15 C 6.102 15 7 15.898 7 17 C 7 18.102 6.102 19 5 19 C 3.898 19 3 18.102 3 17 C 3 15.898 3.898 15 5 15 z M 17 15 C 18.102 15 19 15.898 19 17 C 19 18.102 18.102 19 17 19 C 15.898 19 15 18.102 15 17 C 15 15.898 15.898 15 17 15 z"/></svg>