<?xml version="1.0"?><svg fill="#000000" xmlns="http://www.w3.org/2000/svg"  viewBox="0 0 24 24" width="24px" height="24px">    <path d="M 12 1.9882812 C 11.7605 1.9882812 11.520078 2.0731406 11.330078 2.2441406 L 1.1875 11.136719 C 0.8585 11.447719 1.0772969 12 1.5292969 12 L 4 12 L 4 19 C 4 19.552 4.448 20 5 20 L 8 20 C 8.552 20 9 19.552 9 19 L 9 11.085938 C 9 10.568938 9.3892969 10.139844 9.9042969 10.089844 C 10.463297 10.034844 11.145469 10 11.980469 10 C 13.340469 10 14.310937 10.270781 14.960938 10.800781 C 15.580937 11.300781 16 12.119844 16 13.089844 C 16 14.059844 15.679609 14.889219 15.099609 15.449219 C 14.349609 16.169219 13.239453 16.490234 11.939453 16.490234 C 11.649453 16.490234 11.2 16.440156 11 16.410156 L 11 19 C 11 19.552 11.448 20 12 20 L 19 20 C 19.552 20 20 19.552 20 19 L 20 12 L 22.494141 12 C 22.947141 12 23.168844 11.447719 22.839844 11.136719 L 12.669922 2.2441406 C 12.479922 2.0731406 12.2395 1.9882812 12 1.9882812 z M 12.089844 11.689453 C 11.649844 11.689453 11.16 11.770547 11 11.810547 L 11 14.650391 C 11.19 14.700391 11.599922 14.769531 11.919922 14.769531 C 13.089922 14.769531 13.820312 14.170391 13.820312 13.150391 C 13.820312 12.240391 13.189844 11.689453 12.089844 11.689453 z"/></svg>