<?xml version="1.0"?><svg fill="#000000" xmlns="http://www.w3.org/2000/svg"  viewBox="0 0 24 24" width="24px" height="24px">    <path d="M 8.5 2 C 7.296 2 6 3.408 6 6.5 L 6 8.5859375 L 2.2929688 12.292969 A 1.0001 1.0001 0 0 0 2 13 L 2 15 A 1.0001 1.0001 0 1 0 4 15 L 4 13.414062 L 6 11.414062 L 6 15 C 6 15.552 6.447 16 7 16 L 10 16 C 10.553 16 11 15.552 11 15 L 11 6.5 C 11 3.408 9.704 2 8.5 2 z M 15.5 2 C 14.296 2 13 3.408 13 6.5 L 13 15 C 13 15.552 13.447 16 14 16 L 17 16 C 17.553 16 18 15.552 18 15 L 18 11.414062 L 20 13.414062 L 20 15 A 1.0001 1.0001 0 1 0 22 15 L 22 13 A 1.0001 1.0001 0 0 0 21.707031 12.292969 L 18 8.5859375 L 18 6.5 C 18 3.408 16.704 2 15.5 2 z M 8.5 18 C 7.672 18 7 18.672 7 19.5 C 7 20.5 8.5 23 8.5 23 C 8.5 23 10 20.5 10 19.5 C 10 18.672 9.328 18 8.5 18 z M 15.5 18 C 14.672 18 14 18.672 14 19.5 C 14 20.5 15.5 23 15.5 23 C 15.5 23 17 20.5 17 19.5 C 17 18.672 16.328 18 15.5 18 z"/></svg>