<svg fill="#000000" xmlns="http://www.w3.org/2000/svg"  viewBox="0 0 24 16" width="24px" height="24px"><path d="M 7.78125 0 C 6.8690274 2.3980863e-05 6.063467 0.62879197 5.8417969 1.5136719 L 5.1992188 4.0820312 A 4 4 0 0 0 2 8 L 2 9.5 C 2 10.5 2.5263906 12 3.9003906 12 C 4.8693906 12 5.59375 11.472 5.59375 11 L 7.5292969 11 C 7.5292969 11.472 8.2536563 12 9.2226562 12 C 10.191656 12 10.916016 11.472 10.916016 11 L 12.851562 11 C 12.851562 11.472 13.574922 12 14.544922 12 C 15.514922 12 16.238281 11.472 16.238281 11 L 18.173828 11 C 18.173828 11.472 18.897187 12 19.867188 12 C 21.403188 12 21.961563 9.7886563 21.976562 9.7226562 L 22.025391 9.5058594 L 21.976562 9.2832031 C 21.928562 9.0682031 20.753 4 16.5 4 L 13.5 4 L 11.099609 0.80078125 C 10.722427 0.2978712 10.128638 0 9.5 0 L 7.78125 0 z M 7.78125 2 L 9.5 2 L 11 4 L 7.28125 4 L 7.78125 2 z M 8.9589844 6.9960938 A 1 1 0 0 1 10 7.9941406 A 1 1 0 0 1 9 8.9941406 A 1 1 0 0 1 8.9589844 6.9960938 z M 12.958984 6.9960938 A 1 1 0 0 1 14 7.9941406 A 1 1 0 0 1 13 8.9941406 A 1 1 0 0 1 12.958984 6.9960938 z M 16.958984 6.9960938 A 1 1 0 0 1 18 7.9941406 A 1 1 0 0 1 17 8.9941406 A 1 1 0 0 1 16.958984 6.9960938 z M 0 13 C 0 14.683 1.647 16 3.75 16 A 4.224 4.224 0 0 0 6.5 15.060547 A 4.224 4.224 0 0 0 9.25 16 A 4.224 4.224 0 0 0 12 15.060547 A 4.224 4.224 0 0 0 14.75 16 A 4.224 4.224 0 0 0 17.5 15.060547 A 4.224 4.224 0 0 0 20.25 16 C 22.353 16 24 14.683 24 13 L 22 13 C 22 13.472 21.252 14 20.25 14 C 19.248 14 18.5 13.472 18.5 13 L 16.5 13 C 16.5 13.472 15.752 14 14.75 14 C 13.748 14 13 13.472 13 13 L 11 13 C 11 13.472 10.251 14 9.25 14 C 8.249 14 7.5 13.472 7.5 13 L 5.5 13 C 5.5 13.472 4.751 14 3.75 14 C 2.749 14 2 13.472 2 13 L 0 13 z"/></svg>