<?xml version="1.0"?><svg fill="#000000" xmlns="http://www.w3.org/2000/svg"  viewBox="0 0 24 24" width="24px" height="24px">    <path d="M23,17h-2c0-1.005-0.385-1.914-1-2.618V4c0-0.552-0.448-1-1-1s-1,0.448-1,1v9.142C17.678,13.058,17.347,13,17,13 c-0.106,0-0.206,0.023-0.31,0.031L13.477,5H14c0.552,0,1-0.448,1-1c0-0.552-0.448-1-1-1H6C4.343,3,3,4.343,3,6v4H2 c-0.552,0-1,0.448-1,1v6.338c0,1.785,1.265,3.401,3.035,3.632c1.586,0.207,2.988-0.662,3.614-1.97h5.907c0.694,1.19,1.97,2,3.444,2 s2.75-0.81,3.444-2H23c0.552,0,1-0.448,1-1C24,17.448,23.552,17,23,17z M4.5,19C3.673,19,3,18.327,3,17.5S3.673,16,4.5,16 S6,16.673,6,17.5S5.327,19,4.5,19z M13,17h-1.795l-2.263-6.336C8.8,10.266,8.423,10,8,10H5V6c0-0.551,0.449-1,1-1h5.323l3.468,8.67 C13.713,14.387,13,15.611,13,17z M17,19c-1.103,0-2-0.897-2-2s0.897-2,2-2s2,0.897,2,2S18.103,19,17,19z"/></svg>