<?xml version="1.0"?><svg fill="#000000" xmlns="http://www.w3.org/2000/svg"  viewBox="0 0 24 24" width="24px" height="24px">    <path d="M23,11c0-0.552-0.448-1-1-1h-2.202c0.568-0.779,1.041-1.838,1.166-3.258C21.579,6.401,22,5.753,22,5c0-1.105-0.895-2-2-2 s-2,0.895-2,2c0,0.713,0.376,1.335,0.938,1.689C18.677,8.908,17.251,9.785,16.797,10H14V5c0-0.552-0.448-1-1-1H5 C4.653,4,4.332,4.18,4.149,4.474C3.967,4.769,3.951,5.137,4.105,5.447L5,7.236V11H2c-0.328,0-0.635,0.161-0.822,0.43 c-0.187,0.27-0.229,0.614-0.115,0.921l3,8C4.21,20.741,4.583,21,5,21h16c0.477,0,0.887-0.336,0.98-0.804c0,0,1.02-5.158,1.02-5.196 V11z M9.832,11.445C9.646,11.167,9.334,11,9,11H7V7c0-0.155-0.036-0.309-0.105-0.447L6.618,6H12v8h-0.465L9.832,11.445z M14,14v-2h7 v2H14z"/></svg>