<svg fill="#000000" xmlns="http://www.w3.org/2000/svg"  viewBox="0 0 24 24" width="24px" height="24px"><path d="M 13 2 A 1.0001 1.0001 0 1 0 13 4 L 14.296875 4 L 15.208984 6.5429688 L 13.837891 7 L 11 7 A 1.0001 1.0001 0 0 0 10.292969 7.2929688 L 8.5859375 9 L 6 9 L 4 9 L 3 9 A 1.0001 1.0001 0 1 0 3 11 L 4 11 L 4 12.050781 C 1.7620407 12.304527 0 14.197514 0 16.5 C 0 18.973437 2.0265633 21 4.5 21 C 6.9734367 21 9 18.973437 9 16.5 C 9 16.272263 8.9647678 16.052912 8.9316406 15.833984 L 13.195312 14.980469 A 1.0001 1.0001 0 0 0 13.986328 14.164062 L 14.886719 8.7597656 L 15.882812 8.4257812 L 17.367188 12.566406 C 15.967084 13.331825 15 14.801226 15 16.5 C 15 18.973437 17.026563 21 19.5 21 C 21.973437 21 24 18.973437 24 16.5 C 24 14.026563 21.973437 12 19.5 12 C 19.429861 12 19.364306 12.018261 19.294922 12.021484 L 17.853516 8 L 20 8 A 1.0001 1.0001 0 1 0 20 6 L 17.136719 6 L 15.941406 2.6621094 A 1.0001 1.0001 0 0 0 15 2 L 13 2 z M 11.414062 9 L 12.820312 9 L 12.126953 13.154297 L 8.1914062 13.941406 C 7.6586419 13.176759 6.8905699 12.598894 6 12.279297 L 6 11 L 9 11 A 1.0001 1.0001 0 0 0 9.7070312 10.707031 L 11.414062 9 z M 4.5 14 C 5.8925565 14 7 15.107443 7 16.5 C 7 17.892557 5.8925565 19 4.5 19 C 3.1074435 19 2 17.892557 2 16.5 C 2 15.107443 3.1074435 14 4.5 14 z M 19.5 14 C 20.892557 14 22 15.107443 22 16.5 C 22 17.892557 20.892557 19 19.5 19 C 18.107443 19 17 17.892557 17 16.5 C 17 15.107443 18.107443 14 19.5 14 z"/></svg>