<?xml version="1.0"?><svg fill="#000000" xmlns="http://www.w3.org/2000/svg"  viewBox="0 0 24 24" width="24px" height="24px">    <path d="M 19.289062 3.2890625 L 16.439453 6.140625 C 16.509453 6.180625 16.570859 6.2290625 16.630859 6.2890625 L 17.710938 7.3691406 C 17.740938 7.3991406 17.769063 7.4307031 17.789062 7.4707031 C 17.819063 7.5007031 17.839609 7.5403125 17.849609 7.5703125 L 20.710938 4.7109375 L 19.289062 3.2890625 z M 17.849609 7.5703125 L 13.710938 11.710938 L 12.289062 10.289062 L 16.439453 6.140625 C 16.289453 6.050625 16.109922 6 15.919922 6 L 12.150391 6 C 11.080391 6 10.070547 6.4101562 9.3105469 7.1601562 L 3.3496094 12.970703 C 3.1896094 13.120703 3.0905469 13.309531 3.0605469 13.519531 C 3.0405469 13.659531 2.5498437 16.759141 4.8398438 19.119141 C 6.4098438 20.729141 8.37 21 9.5 21 C 10.04 21 10.389688 20.939688 10.429688 20.929688 C 10.629687 20.899687 10.820703 20.800391 10.970703 20.650391 L 16.839844 14.679688 C 17.589844 13.919688 18 12.909609 18 11.849609 L 18 8.0800781 C 18 7.9000781 17.949609 7.7203125 17.849609 7.5703125 z"/></svg>