<?xml version="1.0"?><svg fill="#000000" xmlns="http://www.w3.org/2000/svg"  viewBox="0 0 24 24" width="24px" height="24px">    <path d="M 4.5664062 4 C 3.8664062 4 3.2095625 4.3726562 2.8515625 4.9726562 C 2.8265625 5.0146562 2.8031563 5.0575625 2.7851562 5.1015625 L 0.076171875 11.615234 C 0.025171875 11.737234 0 11.868 0 12 L 0 17 C 0 17.846 0.53039063 18.567375 1.2753906 18.859375 C 1.8073906 20.116375 3.052 21 4.5 21 C 5.891 21 7.0844375 20.178 7.6484375 19 L 14.351562 19 C 14.915563 20.178 16.109 21 17.5 21 C 18.993 21 20.261672 20.055328 20.763672 18.736328 L 22.447266 17.894531 C 22.786266 17.724531 23 17.379 23 17 L 23 13.820312 C 23 12.871313 22.324578 12.045422 21.392578 11.857422 L 17.71875 11.123047 L 15.214844 5.1015625 C 15.195844 5.0575625 15.175391 5.0146562 15.150391 4.9726562 C 14.791391 4.3726562 14.133594 4 13.433594 4 L 4.5664062 4 z M 13.421875 5.9980469 L 15.501953 11 L 12 11 L 10 11 L 10 6 L 13.421875 5.9980469 z M 12 11 A 1 1 0 0 0 13 10 A 1 1 0 0 0 12 9 A 1 1 0 0 0 11 10 A 1 1 0 0 0 12 11 z M 4.578125 6 L 8 6 L 8 11 L 6 11 L 2.4980469 11 L 4.578125 6 z M 6 11 A 1 1 0 0 0 7 10 A 1 1 0 0 0 6 9 A 1 1 0 0 0 5 10 A 1 1 0 0 0 6 11 z M 4.5 16 C 5.327 16 6 16.673 6 17.5 C 6 18.327 5.327 19 4.5 19 C 3.673 19 3 18.327 3 17.5 C 3 16.673 3.673 16 4.5 16 z M 17.5 16 C 18.327 16 19 16.673 19 17.5 C 19 18.327 18.327 19 17.5 19 C 16.673 19 16 18.327 16 17.5 C 16 16.673 16.673 16 17.5 16 z"/></svg>