<?xml version="1.0"?><svg fill="#000000" xmlns="http://www.w3.org/2000/svg"  viewBox="0 0 24 24" width="24px" height="24px">    <path d="M 6.2695312 3 C 5.9095312 3 5.570625 3.1995312 5.390625 3.5195312 L 2.7597656 8.3496094 L 1.7109375 7.2890625 C 1.3209375 6.8990625 0.6790625 6.8990625 0.2890625 7.2890625 C -0.1009375 7.6790625 -0.1009375 8.3209375 0.2890625 8.7109375 L 2 10.410156 L 2 19.5 C 2 20.33 2.67 21 3.5 21 C 4.33 21 5 20.33 5 19.5 L 4.9902344 19 L 19.009766 19 L 19 19.5 C 19 20.33 19.67 21 20.5 21 C 21.33 21 22 20.33 22 19.5 L 22 10.410156 L 23.710938 8.7109375 C 24.100938 8.3209375 24.100938 7.6790625 23.710938 7.2890625 C 23.320937 6.8990625 22.679062 6.8990625 22.289062 7.2890625 L 21.269531 8.3105469 L 18.890625 3.5507812 C 18.720625 3.2107812 18.38 3 18 3 L 6.2695312 3 z M 6.8691406 5 L 17.380859 5 L 19.779297 9.8007812 L 19.589844 10 L 14.5 10 L 9.5 10 L 4.4101562 10 L 4.2402344 9.8203125 L 6.8691406 5 z M 9.5 10 A 1.5 1.5 0 0 0 11 8.5 A 1.5 1.5 0 0 0 9.5 7 A 1.5 1.5 0 0 0 8 8.5 A 1.5 1.5 0 0 0 9.5 10 z M 14.5 10 A 1.5 1.5 0 0 0 16 8.5 A 1.5 1.5 0 0 0 14.5 7 A 1.5 1.5 0 0 0 13 8.5 A 1.5 1.5 0 0 0 14.5 10 z M 7 13 C 7.55 13 8 13.45 8 14 C 8 14.55 7.55 15 7 15 C 6.45 15 6 14.55 6 14 C 6 13.45 6.45 13 7 13 z M 17 13 C 17.55 13 18 13.45 18 14 C 18 14.55 17.55 15 17 15 C 16.45 15 16 14.55 16 14 C 16 13.45 16.45 13 17 13 z"/></svg>