<?xml version="1.0"?><svg fill="#000000" xmlns="http://www.w3.org/2000/svg"  viewBox="0 0 24 24" width="24px" height="24px">    <path d="M 12 2 C 8.6981361 2 6 4.6981361 6 8 C 6 9.7662485 6.776469 11.354918 8 12.455078 L 8 17 L 10 17 L 14 17 L 16 17 L 16 12.455078 C 17.223531 11.354918 18 9.7662485 18 8 C 18 4.6981361 15.301864 2 12 2 z M 12 4 C 14.220984 4 16 5.7790164 16 8 C 16 10.220984 14.220984 12 12 12 C 9.7790164 12 8 10.220984 8 8 C 8 5.7790164 9.7790164 4 12 4 z M 12 6 C 10.893 6 10 6.893 10 8 C 10 9.107 10.893 10 12 10 C 13.107 10 14 9.107 14 8 C 14 7.793 13.96625 7.59225 13.90625 7.40625 C 13.75925 7.75225 13.407 8 13 8 C 12.447 8 12 7.553 12 7 C 12 6.593 12.24775 6.24075 12.59375 6.09375 C 12.40775 6.03375 12.207 6 12 6 z M 2 19 C 2 19.07 2.0090625 19.229688 2.0390625 19.429688 C 2.1590625 19.999688 2.5002344 20.519219 2.9902344 20.949219 L 3 20.939453 C 3.18 21.099453 3.389375 21.250859 3.609375 21.380859 C 3.839375 21.500859 4.0800781 21.620938 4.3300781 21.710938 C 4.4600781 21.760938 4.5907031 21.800078 4.7207031 21.830078 C 4.8607031 21.870078 4.9908594 21.899922 5.1308594 21.919922 C 5.2408594 21.939922 5.3392187 21.960938 5.4492188 21.960938 C 5.6292188 21.990938 5.81 22 6 22 C 7.19 22 8.26 21.579453 9 20.939453 C 9.74 21.579453 10.81 22 12 22 C 13.19 22 14.26 21.579453 15 20.939453 C 15.74 21.579453 16.81 22 18 22 C 18.11 22 18.210313 22.000234 18.320312 21.990234 C 18.400313 21.980234 18.470781 21.970938 18.550781 21.960938 L 18.609375 21.960938 C 18.699375 21.950938 18.779141 21.939922 18.869141 21.919922 C 19.009141 21.899922 19.139297 21.870078 19.279297 21.830078 C 19.409297 21.800078 19.539922 21.760938 19.669922 21.710938 C 19.919922 21.620938 20.160625 21.500859 20.390625 21.380859 C 20.610625 21.250859 20.82 21.099453 21 20.939453 L 21.009766 20.949219 C 21.499766 20.519219 21.840937 19.999688 21.960938 19.429688 C 21.990938 19.229688 22 19.07 22 19 L 20 19 C 20 19.31 19.24 20 18 20 C 16.78 20 16 19.3 16 19 L 14 19 C 14 19.31 13.24 20 12 20 C 10.78 20 10 19.3 10 19 L 8 19 C 8 19.31 7.24 20 6 20 C 4.78 20 4 19.3 4 19 L 2 19 z"/></svg>