<?xml version="1.0"?><svg fill="#000000" xmlns="http://www.w3.org/2000/svg"  viewBox="0 0 24 24" width="24px" height="24px">    <path d="M 7.9902344 2.9902344 A 1.0001 1.0001 0 0 0 7.484375 3.1308594 L 2.6289062 5.0722656 A 1.0001 1.0001 0 0 0 2.0136719 6.1640625 L 2.8203125 11 L 2 11 C 1.45 11 1 11.45 1 12 L 1 17 C 1 17.43 1.2796875 17.809219 1.6796875 17.949219 L 4.0234375 18.730469 C 4.1458341 20.543657 5.6578556 22 7.5 22 C 8.8830877 22 10.077679 21.175299 10.644531 20 L 13.355469 20 C 13.92232 21.175299 15.116912 22 16.5 22 C 18.342145 22 19.854166 20.543657 19.976562 18.730469 L 22.320312 17.949219 C 22.720312 17.809219 23 17.43 23 17 L 23 12 C 23 11.45 22.55 11 22 11 L 21.179688 11 L 21.986328 6.1640625 A 1.0001 1.0001 0 0 0 21.371094 5.0722656 L 16.527344 3.1347656 A 1.0001 1.0001 0 0 0 15.980469 2.9902344 A 1.0001 1.0001 0 0 0 15.869141 3 L 12 3 L 8.1171875 3 A 1.0001 1.0001 0 0 0 7.9902344 2.9902344 z M 9.5957031 5 L 12 5 L 14.404297 5 C 14.178526 5.7283161 14 6.7025269 14 8 A 1.0001 1.0001 0 1 0 16 8 C 16 6.6124781 16.229098 5.745222 16.427734 5.2480469 L 19.880859 6.6289062 L 19.152344 11 L 4.8476562 11 L 4.1191406 6.6289062 L 7.5722656 5.2480469 C 7.7709028 5.745222 8 6.6124781 8 8 A 1.0001 1.0001 0 1 0 10 8 C 10 6.7025269 9.8214733 5.7283161 9.5957031 5 z M 7.5 17 C 8.3389372 17 9 17.661063 9 18.5 C 9 19.338937 8.3389372 20 7.5 20 C 6.6610628 20 6 19.338937 6 18.5 C 6 17.661063 6.6610628 17 7.5 17 z M 16.5 17 C 17.338937 17 18 17.661063 18 18.5 C 18 19.338937 17.338937 20 16.5 20 C 15.661063 20 15 19.338937 15 18.5 C 15 17.661063 15.661063 17 16.5 17 z"/></svg>