<?xml version="1.0"?><svg fill="#000000" xmlns="http://www.w3.org/2000/svg"  viewBox="0 0 24 24" width="24px" height="24px">    <path d="M 4.2734375 2.0019531 C 4.0524147 2.000322 3.9257813 2.0097656 3.9257812 2.0097656 A 1.0001 1.0001 0 0 0 3 3.0058594 L 3 3.1601562 L 4.4472656 2.265625 C 4.4472656 2.265625 3.0175708 3.3476177 3.0175781 3.3476562 C 3.0175855 3.3476948 3.0800401 3.5545988 3.0800781 3.5546875 C 3.0801538 3.5548648 3.1080473 3.6129819 3.1132812 3.6230469 C 3.1237503 3.6431769 3.1263722 3.6477887 3.1289062 3.6523438 C 3.1339762 3.6614538 3.1358519 3.6649029 3.1386719 3.6699219 C 3.1443119 3.6799599 3.1500882 3.6922705 3.1601562 3.7109375 C 3.1802933 3.7482705 3.2129701 3.8069855 3.2519531 3.8886719 C 3.3299181 4.0520448 3.4377757 4.3035459 3.5488281 4.6347656 C 3.770929 5.297205 4 6.2752896 4 7.5 C 4 9.0518444 3.7659659 10.022315 3.5625 10.576172 C 3.460767 10.8531 3.3673946 11.02724 3.3105469 11.119141 C 3.2821229 11.165091 3.2615814 11.189836 3.2558594 11.197266 A 1.0001 1.0001 0 0 0 3.2070312 11.257812 C 3.2070195 11.257829 3.4570921 11.656 3.7070312 12.054688 L 3.0097656 11.800781 L 3.0019531 11.943359 A 1.0001 1.0001 0 0 0 4.1269531 12.992188 L 11.126953 12.09375 A 1.0001 1.0001 0 0 0 12 11.101562 C 12 6.5199375 10.004112 4.0384973 7.9746094 2.9414062 C 6.4524827 2.1185881 4.9365058 2.0068464 4.2734375 2.0019531 z M 13.970703 3 A 1.0001 1.0001 0 0 0 13 4 L 13 4.171875 A 1.0001 1.0001 0 0 0 13.105469 4.6191406 C 13.109969 4.6281406 13.314376 5.0982304 13.546875 5.8691406 C 13.779374 6.6400508 14.00042 7.6463332 14 8.5 C 13.999591 9.2325789 13.815568 9.9211537 13.615234 10.433594 C 13.515067 10.689814 13.411768 10.903054 13.332031 11.048828 C 13.252291 11.194602 13.114017 11.355501 13.25 11.201172 A 1.0001 1.0001 0 0 0 13 11.861328 L 13 12 A 1.0001 1.0001 0 0 0 14.164062 12.986328 L 20.164062 11.986328 A 1.0001 1.0001 0 0 0 21 11 C 21 8.2367345 19.240935 6.2244849 17.613281 4.9589844 C 15.985628 3.6934839 14.361328 3.0683594 14.361328 3.0683594 A 1.0001 1.0001 0 0 0 13.970703 3 z M 5.4785156 4.2050781 C 5.9594273 4.3034091 6.4643002 4.3959092 7.0253906 4.6992188 C 8.3727073 5.4275395 9.6929338 6.899406 9.9140625 10.232422 L 5.5097656 10.796875 C 5.7577652 10.004613 6 9.0348842 6 7.5 C 6 6.1130816 5.7401424 5.0290494 5.4785156 4.2050781 z M 15.591797 6.0742188 C 15.95595 6.2942336 15.989772 6.2304361 16.386719 6.5390625 C 17.542158 7.4374165 18.442947 8.7014294 18.75 10.195312 L 15.564453 10.726562 C 15.779181 10.091468 15.999506 9.3843705 16 8.5 C 16.000439 7.6084592 15.782878 6.8281772 15.591797 6.0742188 z M 3.3632812 11.095703 A 1.0001 1.0001 0 0 0 3.3085938 11.142578 C 3.3198647 11.131658 3.3320742 11.119101 3.3320312 11.119141 C 3.3320223 11.119149 3.3520772 11.104403 3.3632812 11.095703 z M 3 15 C 2.735 15 2.4799687 15.104969 2.2929688 15.292969 C 2.1059687 15.480969 2 15.735 2 16 C 2 19.783 5.1137656 21.554891 6.7597656 21.962891 C 6.8387656 21.982891 6.9170469 21.992188 6.9980469 21.992188 L 15.998047 21.998047 L 16 21.998047 C 18.691 21.998047 22 18.694859 22 16.005859 C 22 15.454859 21.553 15.007813 21 15.007812 L 3 15 z"/></svg>