<?xml version="1.0"?><svg fill="#000000" xmlns="http://www.w3.org/2000/svg"  viewBox="0 0 24 24" width="24px" height="24px">    <path d="M 9 2 A 1.0001 1.0001 0 0 0 8 3 L 8 3.1542969 A 1.0001 1.0001 0 0 0 8.1347656 3.65625 C 8.143205 3.6707859 8.2245994 3.9014307 8.265625 4 L 5 4 A 1.0001 1.0001 0 0 0 4 5 L 4 5.1464844 A 1.0001 1.0001 0 0 0 4.1464844 5.6660156 C 4.3930733 6.0710806 4.7601334 6.6037955 4.9160156 7.3730469 C 5.0718979 8.1422982 5.0377241 9.0728248 4.1777344 10.3125 A 1.0001 1.0001 0 0 0 4 10.882812 L 4 11 A 1.0001 1.0001 0 0 0 5.1953125 11.980469 L 8.1230469 11.394531 C 8.1187313 11.402978 8.115682 11.41148 8.1113281 11.419922 A 1.0001 1.0001 0 0 0 8 11.878906 L 8 12 A 1.0001 1.0001 0 0 0 9.1484375 12.988281 L 13.083984 12.398438 A 1.0001 1.0001 0 0 0 14.179688 12.984375 L 19.679688 11.984375 A 1.0001 1.0001 0 0 0 20.394531 11.447266 C 20.394531 11.447266 21 10.222222 21 8.5 C 21 6.5555556 19.707031 5.2929688 19.707031 5.2929688 A 1.0001 1.0001 0 0 0 19 5 L 17.669922 5 C 17.354349 3.6485199 16.919922 2.6054687 16.919922 2.6054688 A 1.0001 1.0001 0 0 0 16 2 L 9 2 z M 10.255859 4 L 15.261719 4 C 15.353249 4.235898 15.473604 4.5725592 15.599609 5 L 14 5 A 1.0001 1.0001 0 0 0 13 6 L 13 6.1464844 A 1.0001 1.0001 0 0 0 13.146484 6.6660156 C 13.393073 7.0710806 13.760133 7.6037955 13.916016 8.3730469 C 14.024943 8.9105845 14.022122 9.533804 13.728516 10.279297 L 10.369141 10.783203 C 10.877136 9.1390183 11.054992 7.5210432 10.888672 6.1894531 C 10.753141 5.104364 10.491388 4.6455548 10.255859 4 z M 6.4511719 6 L 8.8242188 6 C 8.850343 6.1477974 8.8850608 6.2834916 8.9042969 6.4375 C 9.0095677 7.2803202 9.0167928 8.2310155 8.84375 9.2109375 L 6.6054688 9.6601562 C 6.9110078 8.6761991 7.0295825 7.7374466 6.875 6.9746094 C 6.7725239 6.468908 6.6239086 6.3702799 6.4511719 6 z M 15.451172 7 L 18.5 7 C 18.70711 7.2800033 19 7.7536361 19 8.5 C 19 9.5150614 18.789853 9.886836 18.6875 10.130859 L 15.589844 10.693359 C 15.905614 9.6969309 16.031313 8.7459845 15.875 7.9746094 C 15.772524 7.468908 15.623909 7.3702799 15.451172 7 z M 20.916016 12.994141 C 20.837688 13.000813 20.759594 13.017219 20.683594 13.042969 L 14.683594 15.052734 C 14.536594 15.101734 14.402969 15.183969 14.292969 15.292969 L 13.585938 16 L 8.4121094 15.992188 L 6.7050781 14.292969 C 6.5180781 14.105969 6.265 14 6 14 L 3 14 C 2.448 14 2 14.448 2 15 C 2 19.58 5.1128125 21.566516 6.7578125 21.978516 C 6.8378125 21.998516 6.918 22.009766 7 22.009766 L 7.0019531 22.009766 L 17.001953 22 C 17.119953 22 17.235703 21.9785 17.345703 21.9375 C 20.368703 20.8225 22 17.010234 22 13.990234 C 22 13.668234 21.844984 13.367688 21.583984 13.179688 C 21.388234 13.038687 21.151 12.974125 20.916016 12.994141 z"/></svg>