<svg fill="#000000" xmlns="http://www.w3.org/2000/svg"  viewBox="0 0 24 24" width="24px" height="24px"><path d="M 6.9980469 3 A 1.0001 1.0001 0 0 0 6.5527344 3.1054688 L 4.5527344 4.1054688 A 1.0001163 1.0001163 0 1 0 5.4472656 5.8945312 L 7.140625 5.0488281 L 11 5.8203125 L 11 8 A 1.0001 1.0001 0 1 0 13 8 L 13 5.8203125 L 16.859375 5.0488281 L 18.552734 5.8945312 A 1.0001165 1.0001165 0 1 0 19.447266 4.1054688 L 17.447266 3.1054688 A 1.0001 1.0001 0 0 0 16.804688 3.0195312 L 12 3.9804688 L 7.1953125 3.0195312 A 1.0001 1.0001 0 0 0 6.9980469 3 z M 11.984375 10.986328 A 1.0001 1.0001 0 0 0 11 12 L 11 17 L 7 17 L 7 15 A 1.0001 1.0001 0 0 0 5.984375 13.986328 A 1.0001 1.0001 0 0 0 5 15 L 5 21 A 1.0001 1.0001 0 1 0 7 21 L 7 19 L 11.832031 19 A 1.0001 1.0001 0 0 0 12.158203 19 L 17 19 L 17 21 A 1.0001 1.0001 0 1 0 19 21 L 19 15 A 1.0001 1.0001 0 0 0 17.984375 13.986328 A 1.0001 1.0001 0 0 0 17 15 L 17 17 L 13 17 L 13 12 A 1.0001 1.0001 0 0 0 11.984375 10.986328 z"/></svg>