<svg fill="#000000" xmlns="http://www.w3.org/2000/svg"  viewBox="0 0 24 24" width="24px" height="24px"><path d="M 17.154297 3.7597656 C 16.642888 3.8031666 16.147224 4.0390897 15.792969 4.4570312 L 13.177734 7.5371094 C 12.52613 8.3055529 12.304664 9.3538135 12.585938 10.320312 L 12.78125 10.988281 C 12.87458 11.307392 12.80473 11.650163 12.59375 11.90625 L 12 12.626953 L 10.625 11.474609 L 9.3984375 9.109375 A 1.0001 1.0001 0 0 0 8.5019531 8.5703125 A 1.0001 1.0001 0 0 0 7.7441406 8.9277344 L 5.3652344 11.761719 L 4.2714844 10.84375 A 1.0001 1.0001 0 0 0 3.6289062 10.599609 A 1.0001 1.0001 0 0 0 2.984375 12.375 L 4.0800781 13.294922 L 3.5019531 13.982422 C 2.7625572 14.861755 2.8822901 16.203517 3.7617188 16.941406 L 5.3945312 18.3125 C 5.3333565 18.407134 5.2475075 18.503598 5.1074219 18.605469 C 4.805545 18.824995 4.3130989 19 3.75 19 C 3.1869011 19 2.694455 18.824995 2.3925781 18.605469 C 2.0907013 18.385943 2 18.181158 2 18 L 0 18 C 0 18.923842 0.52342369 19.718432 1.2167969 20.222656 C 1.91017 20.72688 2.7940989 21 3.75 21 C 4.7059011 21 5.58983 20.72688 6.2832031 20.222656 C 6.3697863 20.159693 6.4193931 20.056094 6.5 19.984375 C 6.580607 20.056095 6.6302137 20.159693 6.7167969 20.222656 C 7.41017 20.72688 8.2940989 21 9.25 21 C 10.205901 21 11.08983 20.72688 11.783203 20.222656 C 11.869783 20.159696 11.919393 20.056094 12 19.984375 C 12.08061 20.056095 12.130214 20.159693 12.216797 20.222656 C 12.91017 20.72688 13.794099 21 14.75 21 C 15.705901 21 16.58983 20.72688 17.283203 20.222656 C 17.369783 20.159696 17.419393 20.056094 17.5 19.984375 C 17.58061 20.056095 17.630214 20.159693 17.716797 20.222656 C 18.41017 20.72688 19.294099 21 20.25 21 C 21.205901 21 22.08983 20.72688 22.783203 20.222656 C 23.476576 19.718432 24 18.923842 24 18 L 22 18 C 22 18.181158 21.9093 18.385943 21.607422 18.605469 C 21.305545 18.824995 20.813099 19 20.25 19 C 19.686901 19 19.194455 18.824995 18.892578 18.605469 C 18.590701 18.385943 18.5 18.181158 18.5 18 L 18.414062 18 L 20.158203 15.898438 C 22.974551 12.50653 22.503491 7.4428999 19.109375 4.6289062 L 18.613281 4.2167969 C 18.613281 4.2167969 18.611328 4.2167969 18.611328 4.2167969 C 18.192103 3.8649668 17.665082 3.7164178 17.154297 3.7597656 z M 17.320312 8.5917969 C 17.575312 8.5695469 17.839281 8.6447656 18.050781 8.8222656 C 18.473781 9.1772656 18.528828 9.8094219 18.173828 10.232422 C 17.818828 10.655422 17.188625 10.710469 16.765625 10.355469 C 16.342625 10.000469 16.287578 9.3683125 16.642578 8.9453125 C 16.820078 8.7338125 17.065313 8.6140469 17.320312 8.5917969 z M 8.3125 11.361328 L 8.9414062 12.572266 A 1.0001 1.0001 0 0 0 9.1855469 12.878906 L 10.726562 14.171875 L 7.7988281 17.71875 L 5.046875 15.410156 C 4.994304 15.366046 4.9905991 15.320196 5.0332031 15.269531 L 6.2089844 13.867188 A 1.0009198 1.0009198 0 0 0 6.2734375 13.791016 L 8.3125 11.361328 z"/></svg>