<svg fill="#000000" xmlns="http://www.w3.org/2000/svg"  viewBox="0 0 24 24" width="24px" height="24px"><path d="M 17.201172 3.3398438 A 1.0001 1.0001 0 0 0 16.441406 3.6933594 L 12.482422 8.3574219 A 1.0001 1.0001 0 0 0 12.285156 9.2851562 L 12.931641 11.496094 L 12 12.626953 L 10.625 11.474609 L 9.3984375 9.109375 A 1.0001 1.0001 0 0 0 8.5019531 8.5703125 A 1.0001 1.0001 0 0 0 7.7441406 8.9277344 L 5.3652344 11.761719 L 3.8339844 10.476562 L 2.5488281 12.009766 L 4.0800781 13.294922 L 2.7949219 14.826172 A 1.0001 1.0001 0 0 0 2.9179688 16.234375 L 5.3925781 18.3125 C 5.331385 18.406846 5.2470418 18.503937 5.1074219 18.605469 C 4.805545 18.824995 4.3130989 19 3.75 19 C 3.1869011 19 2.694455 18.824995 2.3925781 18.605469 C 2.0907013 18.385943 2 18.181158 2 18 L 0 18 C 0 18.923842 0.52342369 19.718432 1.2167969 20.222656 C 1.91017 20.72688 2.7940989 21 3.75 21 C 4.7059011 21 5.58983 20.72688 6.2832031 20.222656 C 6.3697863 20.159693 6.4193931 20.056094 6.5 19.984375 C 6.580607 20.056095 6.6302137 20.159693 6.7167969 20.222656 C 7.41017 20.72688 8.2940989 21 9.25 21 C 10.205901 21 11.08983 20.72688 11.783203 20.222656 C 11.869783 20.159696 11.919393 20.056094 12 19.984375 C 12.08061 20.056095 12.130214 20.159693 12.216797 20.222656 C 12.91017 20.72688 13.794099 21 14.75 21 C 15.705901 21 16.58983 20.72688 17.283203 20.222656 C 17.369783 20.159696 17.419393 20.056094 17.5 19.984375 C 17.58061 20.056095 17.630214 20.159693 17.716797 20.222656 C 18.41017 20.72688 19.294099 21 20.25 21 C 21.205901 21 22.08983 20.72688 22.783203 20.222656 C 23.476576 19.718432 24 18.923842 24 18 L 22 18 C 22 18.181158 21.9093 18.385943 21.607422 18.605469 C 21.305545 18.824995 20.813099 19 20.25 19 C 19.686901 19 19.194455 18.824995 18.892578 18.605469 C 18.590701 18.385943 18.5 18.181158 18.5 18 L 18.414062 18 L 20.158203 15.898438 C 22.974544 12.506536 22.503491 7.4428999 19.109375 4.6289062 L 18.609375 4.2148438 L 17.845703 3.5742188 A 1.0001 1.0001 0 0 0 17.201172 3.3398438 z M 17.285156 8.1796875 L 18.816406 9.4667969 L 17.53125 10.998047 L 15.998047 9.7128906 L 17.285156 8.1796875 z M 8.3125 11.359375 L 8.9414062 12.572266 A 1.0001 1.0001 0 0 0 9.1855469 12.878906 L 10.726562 14.171875 L 7.8007812 17.720703 L 4.96875 15.345703 L 8.3125 11.359375 z"/></svg>