<?xml version="1.0"?><svg fill="#000000" xmlns="http://www.w3.org/2000/svg"  viewBox="0 0 24 24" width="24px" height="24px">    <path d="M23.768,10.359c-0.222-0.266-0.563-0.399-0.909-0.349L19,10.561V7c0-0.552-0.448-1-1-1H9C8.596,6,8.231,6.244,8.076,6.617 c-0.155,0.374-0.069,0.804,0.217,1.09L10,9.414V14H6V6c0-0.265-0.105-0.52-0.293-0.707l-3-3L1.293,3.707L4,6.414V14H2 c-0.552,0-1,0.448-1,1v5c0,0.552,0.448,1,1,1h15.117c2.155,0,4.062-1.374,4.743-3.418l2.088-6.265 C24.058,10.987,23.99,10.625,23.768,10.359z M11.707,8.293L11.414,8H17v2.847l-1.142,0.163c-0.214,0.03-0.413,0.13-0.565,0.283 L12.586,14H12V9C12,8.735,11.895,8.48,11.707,8.293z"/></svg>