<?xml version="1.0"?><svg fill="#000000" xmlns="http://www.w3.org/2000/svg"  viewBox="0 0 24 24" width="24px" height="24px">    <path d="M 9 2 L 9 4 L 9.9628906 4 C 9.9794687 4.044115 10 4.0741619 10 4.1582031 L 10 6 L 8.9511719 6 C 8.5259412 6 8.1285002 6.0913322 7.7636719 6.3105469 C 7.3988435 6.5297616 7 6.9648985 7 7.5722656 L 7 10 L 4.1308594 10 C 1.8538594 10 0 11.794 0 14 C 0 16.206 1.8538594 18 4.1308594 18 L 15.130859 18 C 15.500004 18 17.821688 17.724884 20 17.060547 L 20 19 L 22 19 L 22 16.291016 C 23.160365 15.707755 24 14.95608 24 14 C 24 13.04392 23.160365 12.292245 22 11.708984 L 22 9 L 20 9 L 20 10.939453 C 18.244212 10.403976 16.443812 10.126641 15.597656 10.039062 L 13.724609 6.8535156 L 13.697266 6.8085938 C 13.256512 6.141349 12.62532 6.0050135 12 6.0019531 L 12 4.1582031 C 12 3.6488231 11.865801 3.1706306 11.582031 2.765625 C 11.298262 2.3606194 10.799978 2 10.189453 2 L 9 2 z M 9 8 L 11.978516 8 C 12.042989 8 12.080705 8.0245607 12.097656 8.0332031 L 13.251953 10 L 9 10 L 9 8 z"/></svg>