<svg fill="#000000" xmlns="http://www.w3.org/2000/svg"  viewBox="0 0 24 24" width="24px" height="24px"><path d="M 2.0195312 1.9863281 A 1.0001 1.0001 0 0 0 1.0644531 3.3535156 L 2.2460938 6.4863281 C 2.8269477 8.0263357 4.5738916 8.8150951 6.1132812 8.2324219 L 9.3535156 7.0078125 A 1.0001106 1.0001106 0 1 0 8.6464844 5.1367188 L 5.40625 6.3632812 C 4.8796398 6.5626081 4.3163336 6.3072893 4.1171875 5.7792969 L 2.9355469 2.6464844 A 1.0001 1.0001 0 0 0 2.0195312 1.9863281 z M 9.3535156 7.0078125 L 5.7617188 8.3671875 A 1.0001188 1.0001188 0 0 0 5.6699219 8.40625 C 2.9534927 9.3693327 1 11.95838 1 15 C 1 18.859 4.14 22 8 22 C 11.86 22 15 18.859 15 15 C 15 14.109 14.826484 13.259609 14.521484 12.474609 L 12.916016 14.171875 C 12.962016 14.442875 13 14.716 13 15 C 13 17.757 10.757 20 8 20 C 5.243 20 3 17.757 3 15 C 3 12.243 5.243 10 8 10 C 8.9677697 10 9.8646544 10.286971 10.628906 10.767578 L 7.2734375 14.3125 A 1.0002746 1.0002746 0 1 0 8.7265625 15.6875 L 18.017578 5.8730469 L 20.326172 5 L 22 5 A 1.0001 1.0001 0 1 0 22 3 L 20.142578 3 A 1.0001 1.0001 0 0 0 19.789062 3.0644531 L 17.207031 4.0410156 L 17.205078 4.0410156 A 1.0001 1.0001 0 0 0 17.001953 4.1171875 L 9.3535156 7.0078125 z M 13.726562 7.4941406 L 12.025391 9.2929688 C 11.64464 9.0228857 11.237782 8.7885051 10.806641 8.5976562 L 13.726562 7.4941406 z"/></svg>