<?xml version="1.0"?><svg fill="#000000" xmlns="http://www.w3.org/2000/svg"  viewBox="0 0 24 24" width="24px" height="24px">    <path d="M 10 2 A 1.0001 1.0001 0 1 0 10 4 L 6.2695312 4 C 5.9095313 4 5.5703906 4.1995313 5.4003906 4.5195312 L 2.9101562 9.0703125 L 2.5507812 8.8535156 C 2.0917813 8.5495156 1.4729687 8.6757656 1.1679688 9.1347656 C 0.86396875 9.5927656 0.98635938 10.209625 1.4433594 10.515625 L 2.0195312 10.880859 C 2.0095312 10.920859 2 10.96 2 11 L 2 18 L 2 20 C 2 20.552 2.448 21 3 21 L 3.9960938 21 C 4.5490937 21 4.9970937 20.550094 4.9960938 19.996094 L 4.9941406 19 L 19.003906 19 L 19.001953 19.996094 C 19.000953 20.549094 19.448953 21 20.001953 21 L 21 21 C 21.55 21 22 20.55 22 20 L 22 18 L 22 11 C 22 10.96 21.980703 10.930625 21.970703 10.890625 L 22.560547 10.494141 C 23.016547 10.188141 23.141891 9.5722344 22.837891 9.1152344 C 22.532891 8.6552344 21.912125 8.5309375 21.453125 8.8359375 L 21.140625 9.0390625 L 18.890625 4.5507812 C 18.730625 4.2107813 18.38 4 18 4 L 14 4 A 1.0001 1.0001 0 1 0 14 2 L 10 2 z M 6.8691406 6 L 17.380859 6 L 19.380859 10 L 4.6796875 10 L 6.8691406 6 z M 7 13 C 7.55 13 8 13.45 8 14 C 8 14.55 7.55 15 7 15 C 6.45 15 6 14.55 6 14 C 6 13.45 6.45 13 7 13 z M 17 13 C 17.55 13 18 13.45 18 14 C 18 14.55 17.55 15 17 15 C 16.45 15 16 14.55 16 14 C 16 13.45 16.45 13 17 13 z"/></svg>