<?xml version="1.0"?><svg fill="#000000" xmlns="http://www.w3.org/2000/svg"  viewBox="0 0 24 24" width="24px" height="24px">    <path d="M17,2H7C4.79,2,3,3.79,3,6v12.5C3,19.33,3.67,20,4.5,20S6,19.33,6,18.5v-0.46l2,0.93V20c0,0.55,0.45,1,1,1h1 c0,1.1,0.9,2,2,2s2-0.9,2-2h1c0.55,0,1-0.45,1-1v-1.03l2-0.93v0.46c0,0.83,0.67,1.5,1.5,1.5s1.5-0.67,1.5-1.5V6 C21,3.79,19.21,2,17,2z M8,14c-0.55,0-1-0.45-1-1s0.45-1,1-1s1,0.45,1,1S8.55,14,8,14z M14,19h-4v-2h4V19z M16,14 c-0.55,0-1-0.45-1-1s0.45-1,1-1s1,0.45,1,1S16.55,14,16,14z M19,10h-5.13l0.96-1.45c0.31-0.45,0.18-1.08-0.28-1.38 c-0.46-0.31-1.08-0.18-1.38,0.28L11.46,10H5V6c0-1.1,0.9-2,2-2h10c1.1,0,2,0.9,2,2V10z"/></svg>