<svg fill="#000000" xmlns="http://www.w3.org/2000/svg"  viewBox="0 0 24 24" width="24px" height="24px"><path d="M 5 4 C 4.45 4 4 4.45 4 5 L 4 11.609375 C 2.2234889 12.523708 1 14.3737 1 16.5 C 1 19.525721 3.4742785 22 6.5 22 C 8.6263 22 10.476292 20.776511 11.390625 19 L 16.050781 19 C 16.298177 20.685411 17.750067 22 19.5 22 C 21.421152 22 23 20.421152 23 18.5 C 23 17.116848 22.175306 15.9223 21 15.355469 L 21 10 C 21 9.45 20.55 9 20 9 L 17 9 L 17 7.5 C 17 6.5528502 17.572329 6 18 6 A 1.0001 1.0001 0 1 0 18 4 C 16.219671 4 15 5.6871498 15 7.5 L 15 9 L 12.679688 9 L 10.929688 4.6308594 C 10.779688 4.2508594 10.41 4 10 4 L 5 4 z M 6.5 13 C 8.4448413 13 10 14.555159 10 16.5 C 10 18.444841 8.4448413 20 6.5 20 C 4.5551587 20 3 18.444841 3 16.5 C 3 14.555159 4.5551587 13 6.5 13 z M 6.5 15 A 1.5 1.5 0 0 0 5 16.5 A 1.5 1.5 0 0 0 6.5 18 A 1.5 1.5 0 0 0 8 16.5 A 1.5 1.5 0 0 0 6.5 15 z M 19.5 17 C 20.340272 17 21 17.659728 21 18.5 C 21 19.340272 20.340272 20 19.5 20 C 18.659728 20 18 19.340272 18 18.5 C 18 17.659728 18.659728 17 19.5 17 z"/></svg>