<svg fill="#000000" xmlns="http://www.w3.org/2000/svg"  viewBox="0 0 24 24" width="24px" height="24px"><path d="M 19 3 C 18.447 3 18 3.448 18 4 L 18 5.2363281 C 17.495918 5.193203 16.966571 5.1447477 16.533203 5.1113281 C 15.705203 5.0473281 15 5.70125 15 6.53125 L 15 17.46875 C 15 18.29875 15.705203 18.951672 16.533203 18.888672 C 16.966882 18.8555 17.495645 18.806709 18 18.763672 L 18 20 C 18 20.553 18.447 21 19 21 C 19.553 21 20 20.553 20 20 L 20 18.574219 C 20.571489 18.510747 21.087388 18.446844 21.392578 18.384766 C 22.902578 18.078766 24 16.665391 24 15.025391 L 24 8.9746094 C 24 7.3346094 22.904531 5.9212344 21.394531 5.6152344 C 21.110752 5.5578336 20.519971 5.4985323 20 5.4394531 L 20 4 C 20 3.448 19.553 3 19 3 z M 1.4453125 5 C 0.6473125 5 1.7957857e-17 5.6473125 0 6.4453125 L 0 17.554688 C -1.4802974e-16 18.352688 0.6473125 19 1.4453125 19 L 11.554688 19 C 12.352688 19 13 18.352688 13 17.554688 L 13 6.4453125 C 13 5.6473125 12.352688 5 11.554688 5 L 1.4453125 5 z M 19 8 C 19.553 8 20 8.448 20 9 L 20 15 C 20 15.553 19.553 16 19 16 C 18.447 16 18 15.553 18 15 L 18 9 C 18 8.448 18.447 8 19 8 z"/></svg>