<svg fill="#000000" xmlns="http://www.w3.org/2000/svg"  viewBox="0 0 24 24" width="24px" height="24px"><path d="M 9.1113281 1 C 8.7688125 1.0013594 8.4427969 1.1851563 8.2792969 1.5039062 C 8.2762969 1.5099063 8.2725312 1.5154844 8.2695312 1.5214844 C 8.0195312 2.0084844 8.2398594 2.6175469 8.7558594 2.8105469 C 9.4838594 3.0815469 10.238 3.2529375 11 3.3359375 L 11 7 L 11 9.0800781 L 11 15 L 14 15 C 14.553 15 15 15.447 15 16 C 15 16.553 14.553 17 14 17 L 9 17 L 9 9.6914062 C 6.639 10.816406 5 13.216 5 16 C 5 19.859 8.141 23 12 23 C 15.859 23 19 19.859 19 16 C 19 12.481 16.386 9.5680781 13 9.0800781 L 13 3.3359375 C 13.762 3.2529375 14.516141 3.0825469 15.244141 2.8105469 C 15.760141 2.6175469 15.981469 2.0094844 15.730469 1.5214844 L 15.720703 1.5039062 C 15.501703 1.0779063 14.996922 0.89354688 14.544922 1.0605469 C 12.902922 1.6655469 11.094125 1.6655469 9.453125 1.0605469 C 9.340375 1.0190469 9.2255 0.99954688 9.1113281 1 z"/></svg>