<?xml version="1.0"?><svg fill="#000000" xmlns="http://www.w3.org/2000/svg"  viewBox="0 0 24 24" width="24px" height="24px">    <path d="M 7 4 A 1.0001 1.0001 0 0 0 6 5 L 6 9 L 3 9 C 2.57 9 2.1907813 9.2796875 2.0507812 9.6796875 L 1.0507812 12.679688 C 0.95078125 12.989687 0.99945313 13.320078 1.1894531 13.580078 C 1.2976527 13.733835 1.4444978 13.843677 1.6074219 13.914062 C 1.2293583 14.524246 1 15.234487 1 16 C 1 18.197294 2.8027056 20 5 20 C 6.634601 20 8.0478613 19.0015 8.6660156 17.585938 L 8.7890625 17.710938 C 8.9790625 17.890937 9.23 18 9.5 18 L 14.5 18 C 14.79 18 15.06 17.880156 15.25 17.660156 L 15.326172 17.572266 C 15.940948 18.995549 17.359796 20 19 20 C 21.197294 20 23 18.197294 23 16 C 23 15.234487 22.770642 14.524246 22.392578 13.914062 C 22.555502 13.843677 22.702347 13.733835 22.810547 13.580078 C 23.000547 13.320078 23.049219 12.989688 22.949219 12.679688 L 21.949219 9.6796875 C 21.809219 9.2796875 21.43 9 21 9 L 16.566406 9 L 13.857422 4.4863281 A 1.0001 1.0001 0 0 0 13 4 L 7 4 z M 8 6 L 12.433594 6 L 14.769531 9.890625 L 12.050781 13 L 10.880859 13 L 8 9.6464844 L 8 6 z M 5 14 C 6.1164141 14 7 14.883586 7 16 C 7 17.116414 6.1164141 18 5 18 C 3.8835859 18 3 17.116414 3 16 C 3 14.883586 3.8835859 14 5 14 z M 19 14 C 20.116414 14 21 14.883586 21 16 C 21 17.116414 20.116414 18 19 18 C 17.883586 18 17 17.116414 17 16 C 17 14.883586 17.883586 14 19 14 z"/></svg>