<?xml version="1.0"?><svg fill="#000000" xmlns="http://www.w3.org/2000/svg"  viewBox="0 0 24 24" width="24px" height="24px">    <path d="M22,18c0,0.472-0.749,1-1.75,1c-0.028,0-0.053-0.004-0.081-0.005l2.688-4.48c0.176-0.293,0.19-0.656,0.037-0.962l-2-4 C20.725,9.214,20.379,9,20,9h-1V7h3V5H1v2h1v7c0,0.127,0.024,0.253,0.071,0.372l1.847,4.617C3.862,18.992,3.808,19,3.75,19 C2.749,19,2,18.472,2,18H0c0,1.682,1.647,3,3.75,3c1.102,0,2.07-0.367,2.75-0.953C7.18,20.633,8.148,21,9.25,21 s2.07-0.367,2.75-0.953C12.68,20.633,13.648,21,14.75,21s2.07-0.367,2.75-0.953C18.18,20.633,19.148,21,20.25,21 c2.103,0,3.75-1.318,3.75-3H22z M17,9h-3.219l-0.5-2H17V9z M11.219,7l0.811,3.243C12.141,10.688,12.541,11,13,11h6.382l1,2H4V7 H11.219z"/></svg>