<?xml version="1.0"?><svg fill="#000000" xmlns="http://www.w3.org/2000/svg"  viewBox="0 0 24 24" width="24px" height="24px">    <path d="M22.555,10.733l-2.037-3.306C19.967,6.533,19.012,6,17.963,6H13c-0.553,0-1,0.448-1,1v3H2c-0.553,0-1,0.448-1,1s0.447,1,1,1 h10v3H8.649c-0.564-1.178-1.758-2-3.149-2s-2.585,0.822-3.149,2H2c-0.553,0-1,0.447-1,1s0.447,1,1,1h0.051 c0.245,1.692,1.691,3,3.449,3s3.204-1.308,3.449-3h5.101c0.245,1.692,1.691,3,3.449,3s3.204-1.308,3.449-3H22c0.553,0,1-0.447,1-1 v-3.693C23,11.75,22.846,11.206,22.555,10.733z M5.5,18C4.673,18,4,17.327,4,16.5S4.673,15,5.5,15S7,15.673,7,16.5S6.327,18,5.5,18z M17.5,18c-0.827,0-1.5-0.673-1.5-1.5s0.673-1.5,1.5-1.5s1.5,0.673,1.5,1.5S18.327,18,17.5,18z"/></svg>