<svg fill="#000000" xmlns="http://www.w3.org/2000/svg"  viewBox="0 0 24 24" width="24px" height="24px"><path d="M 8 4 A 1.0001 1.0001 0 0 0 7 5 L 7 8.8203125 L 5.8359375 9.0136719 C 5.3539375 9.0936719 5 9.511 5 10 L 5 11 C 5 13.722 10.633 17 12 17 C 13.367 17 19 13.722 19 11 L 19 10 C 19 9.511 18.645063 9.0936719 18.164062 9.0136719 L 17 8.8203125 L 17 5 A 1.0001 1.0001 0 0 0 16 4 L 8 4 z M 9 6 L 15 6 L 15 8.4863281 L 12.164062 8.0136719 C 12.055063 7.9946719 11.944938 7.9946719 11.835938 8.0136719 L 9 8.4863281 L 9 6 z M 1 8 L 1 20 A 1.0001 1.0001 0 0 0 2 21 L 22 21 A 1.0001 1.0001 0 0 0 23 20 L 23 8 L 21 8 L 21 17.822266 L 18.320312 15.519531 C 17.840313 16.009531 17.319063 16.449609 16.789062 16.849609 L 19.296875 19 L 4.703125 19 L 7.2109375 16.849609 C 6.6809375 16.449609 6.1596875 16.009531 5.6796875 15.519531 L 3 17.822266 L 3 8 L 1 8 z"/></svg>