<?xml version="1.0"?><svg fill="#000000" xmlns="http://www.w3.org/2000/svg"  viewBox="0 0 24 24" width="24px" height="24px">    <path d="M 3 3 A 1.0001 1.0001 0 0 0 2 4 L 2 4.3984375 A 1.0001 1.0001 0 0 0 2.0820312 4.796875 L 3.8964844 8.9707031 L 2.4355469 11.892578 L 1.8007812 12.019531 C 1.3407812 12.109531 1 12.52 1 13 C 1 17.34 3.1990625 19.609219 3.2890625 19.699219 C 3.4790625 19.889219 3.73 20 4 20 L 19 20 C 19.27 20 19.520937 19.890937 19.710938 19.710938 C 19.840937 19.570937 23 16.33 23 9 C 23 8.7 22.870859 8.4204688 22.630859 8.2304688 C 22.400859 8.0404687 22.100781 7.9595313 21.800781 8.0195312 L 20.162109 8.3476562 L 14.544922 4.1953125 A 1.0001 1.0001 0 0 0 13.824219 4.0078125 L 8.3164062 4.7089844 L 6.1738281 3.1855469 A 1.0001 1.0001 0 0 0 5.5957031 3 L 3 3 z M 4.3515625 5 L 5.2753906 5 L 7.4746094 6.5644531 A 1.0001 1.0001 0 0 0 8.1816406 6.7421875 L 13.679688 6.0429688 L 17.515625 8.8769531 L 4.9199219 11.396484 L 5.8945312 9.4472656 A 1.0001 1.0001 0 0 0 5.9179688 8.6015625 L 4.3515625 5 z M 17 11 C 17.55 11 18 11.45 18 12 C 18 12.55 17.55 13 17 13 C 16.45 13 16 12.55 16 12 C 16 11.45 16.45 11 17 11 z M 12 12 C 12.55 12 13 12.45 13 13 C 13 13.55 12.55 14 12 14 C 11.45 14 11 13.55 11 13 C 11 12.45 11.45 12 12 12 z M 7 13 C 7.55 13 8 13.45 8 14 C 8 14.55 7.55 15 7 15 C 6.45 15 6 14.55 6 14 C 6 13.45 6.45 13 7 13 z"/></svg>