<?xml version="1.0" encoding="UTF-8"?>
<svg xmlns="http://www.w3.org/2000/svg" version="1.1" viewBox="0 0 48 48">
  <!-- Generator: Adobe Illustrator 28.7.1, SVG Export Plug-In . SVG Version: 1.2.0 Build 142)  -->
  <g>
    <g id="Outline">
      <g>
        <path d="M40,23c-.55127,0-1-.44873-1-1v-1.60449c0-8.24658-6.271-15.00146-14.27637-15.37842-4.1377-.18359-8.08057,1.27051-11.07617,4.12793-2.99707,2.85938-4.64746,6.71436-4.64746,10.85498v2c0,.55127-.44873,1-1,1-.55225,0-1,.44775-1,1v6c0,.55225.44775,1,1,1h1.15338l.75043,4.48389c.72363,4.35498,4.45654,7.51611,8.87598,7.51611h3.22021c.55225,0,1-.44775,1-1s-.44775-1-1-1h-3.22021c-3.4375,0-6.34033-2.45801-6.90332-5.84521l-.69519-4.15479h.81873c.37891,0,.7251-.21387.89453-.55273l.72363-1.44727h20.76367l.72363,1.44727c.16943.33887.51562.55273.89453.55273h.81879l-.69525,4.15576c-.56299,3.38623-3.46582,5.84424-6.90332,5.84424h-3.22021c-.55225,0-1,.44775-1,1s.44775,1,1,1h3.22021c4.41943,0,8.15234-3.16113,8.87598-7.51514l.75043-4.48486h1.15338c.55225,0,1-.44775,1-1v-6c0-.55225-.44775-1-1-1ZM39,29h-2.38184l-.72363-1.44727c-.16943-.33887-.51562-.55273-.89453-.55273H13c-.37891,0-.7251.21387-.89453.55273l-.72363,1.44727h-2.38184v-4.17139c1.16406-.4126,2-1.5249,2-2.82861v-2c0-3.58887,1.43066-6.92969,4.02783-9.40771,2.5957-2.47656,6.01367-3.75732,9.60205-3.57715,6.93652.32617,12.37012,6.20361,12.37012,13.38037v1.60449c0,1.30371.83594,2.41602,2,2.82861v4.17139Z"/>
        <path d="M28.25928,15.61572c-.18213-.56055-.6582-.95654-1.24219-1.0332l-1.1499-.15234-.5-1.04688c-.25391-.53174-.77783-.8623-1.36719-.8623s-1.11328.33057-1.36719.8623l-.5,1.04688-1.1499.15234c-.58398.07666-1.06006.47266-1.24219,1.0332s-.03027,1.16064.39746,1.56689l.84082.79883-.21094,1.14111c-.10693.57959.12256,1.15479.59961,1.50098.47656.34668,1.0957.38672,1.61279.10596l1.01953-.55322,1.02002.55322c.49632.26919,1.13645.2398,1.6123-.10596.47705-.34619.70654-.92139.59961-1.50098l-.21094-1.14111.84131-.79883c.42725-.40625.5791-1.00635.39697-1.56689ZM25.25049,16.90479c-.24561.23291-.35645.57422-.29492.90674l.125.67578-.60352-.32764c-.14893-.08057-.31299-.12109-.47705-.12109s-.32812.04053-.47705.12109l-.60352.32764.125-.67578c.06152-.33252-.04932-.67383-.29492-.90674l-.49756-.47266.68066-.09033c.33545-.04395.62598-.25488.77148-.56055l.2959-.61963.2959.61963c.14551.30566.43604.5166.77148.56055l.68066.09033-.49756.47266Z"/>
        <path d="M34,23h-4.72626c1.66711-1.46722,2.72626-3.60992,2.72626-6,0-4.41113-3.58887-8-8-8s-8,3.58887-8,8c0,2.39008,1.05914,4.53278,2.72626,6h-4.72626c-.55225,0-1,.44775-1,1s.44775,1,1,1h20c.55225,0,1-.44775,1-1s-.44775-1-1-1ZM24,23c-3.30859,0-6-2.69141-6-6s2.69141-6,6-6,6,2.69141,6,6-2.69141,6-6,6Z"/>
      </g>
    </g>
  </g>
</svg>