<?xml version="1.0" encoding="UTF-8"?>
<svg xmlns="http://www.w3.org/2000/svg" version="1.1" viewBox="0 0 48 48">
  <!-- Generator: Adobe Illustrator 28.7.1, SVG Export Plug-In . SVG Version: 1.2.0 Build 142)  -->
  <g>
    <g id="Outline">
      <g>
        <path d="M43,24c0-2.25-1.64001-4.33002-4.62-5.94.51001-1.71002.66998-3.29004.44-4.65002.56-.53998.90997-1.29999.90997-2.14001,0-1.64996-1.34998-3-3-3-.83997,0-1.59998.35004-2.13995.91003-1.34003-.22003-2.92004-.04999-4.63.46002-.5-.93005-1.06-1.75-1.67999-2.44-.37006-.41003-1-.44-1.41003-.07001-.40997.37-.44,1-.07001,1.40997.45001.5.87,1.10004,1.25,1.78998-1.31.55005-2.66998,1.27002-4.04999,2.15002-1.34998-.87-2.71997-1.60999-4.04999-2.16998.39001-.67999.81-1.29004,1.25-1.78003.37-.40997.33997-1.04999-.07001-1.40997-.41003-.37-1.03998-.34003-1.41003.07001-.59998.66998-1.15997,1.5-1.66998,2.44-3.25-.97003-5.89001-.66003-7.48999.92999-1.59003,1.58997-1.90002,4.22998-.92999,7.46997-2.95001,1.59003-4.63,3.67999-4.63,5.97003,0,2.25,1.64001,4.32996,4.62,5.94-.51001,1.70996-.66998,3.28998-.44,4.64996-.56.54004-.90997,1.30005-.90997,2.14001,0,1.65002,1.34998,3,3,3,.83997,0,1.59998-.34998,2.14996-.90997.38.06.78003.09998,1.20001.09998,1.04999,0,2.20001-.19,3.42999-.56,1.60999,2.98999,3.70001,4.64001,5.95001,4.64001,2.28998,0,4.37-1.67999,5.96002-4.62,1.21997.35999,2.35999.54999,3.38.54999,1.69995,0,3.09998-.5,4.09998-1.48999,1.59003-1.59003,1.90002-4.23004.92999-7.47003,2.95001-1.58997,4.63-3.67999,4.63-5.96997ZM36.72998,10.26996c.55005,0,1,.45001,1,1,0,.55005-.44995,1-1,1-.54999,0-1-.44995-1-1,0-.54999.45001-1,1-1ZM33.75,11.08997c-.01001.06-.02002.12-.02002.17999,0,1.66003,1.34003,3,3,3,.06,0,.12-.00995.17999-.01996.05005.83997-.06995,1.82996-.37,2.94-1.31-.54004-2.77997-.98004-4.38995-1.34003-.36005-1.60999-.80005-3.08002-1.34003-4.39001,1.10999-.29999,2.09998-.41998,2.94-.37ZM32.54999,17.98999c1.22003.31,2.33002.66998,3.33002,1.09998-.54999,1.35004-1.33002,2.81-2.34998,4.34003-.02002.02002-.03003.02997-.04004.04999-.15997.23999-.32001.47998-.48999.72003v-.20001c0-2.06-.15997-4.07001-.45001-6.01001ZM24.52002,14.51001c.01996-.01001.02997-.02002.04999-.04004,1.52997-1.01996,2.98999-1.79999,4.33997-2.34998.43005,1,.79004,2.10999,1.10004,3.33002-1.94-.29004-3.95001-.45001-6.01001-.45001h-.20001c.23999-.17004.48004-.33002.72003-.48999ZM17.66998,16.88c.35004-1.77002.83002-3.38,1.40002-4.76001,1.02997.41998,2.08002.95001,3.14001,1.58002-1.56,1.13995-3.10004,2.45996-4.58002,3.92999-.03003.03998-.07001.07001-.09998.10999.04999-.28003.08997-.58002.13995-.85999ZM11.97998,11.97998c.98999-1,2.86005-1.17999,5.22003-.52997-.54004,1.31995-1,2.79999-1.35004,4.39996-1.62.35004-3.09998.79999-4.39996,1.33002-.65002-2.34003-.47003-4.21002.52997-5.20001ZM15.45001,30.01001c-1.22003-.31-2.33002-.67004-3.33002-1.10004.54999-1.34998,1.33002-2.81,2.34998-4.33997.02002-.02002.03003-.03003.04004-.05005.15997-.23999.32001-.47998.48999-.71997v.20001c0,2.06.15997,4.07001.45001,6.01001ZM15.16998,20.32001c-.51996.63-1.01001,1.25-1.46997,1.87-.64001-1.06-1.16998-2.11005-1.58002-3.12,1-.41003,2.12-.78003,3.34003-1.08002-.12.77002-.22003,1.53998-.29004,2.33002ZM7,24c0-1.45001,1.21997-2.88,3.31-4.06.54999,1.31,1.27002,2.66998,2.15002,4.03998-.88,1.38-1.61005,2.75-2.16003,4.06-2.10999-1.20001-3.29999-2.64001-3.29999-4.03998ZM11.27002,37.72998c-.55005,0-1-.45001-1-1s.44995-1,1-1c.54999,0,1,.45001,1,1s-.45001,1-1,1ZM14.25,36.90997c.01001-.06.02002-.12.02002-.17999,0-1.65997-1.34003-3-3-3-.06,0-.12.01001-.17999.02002-.05005-.84003.06995-1.83002.37-2.94,1.31.53998,2.77997.97998,4.38995,1.33997.36005,1.61005.80005,3.08002,1.34003,4.39001-1.10999.29999-2.09998.41998-2.94.37ZM17,24c0-.92004.03998-1.85999.10999-2.87.60004-.69,1.23999-1.39001,1.94-2.08002.69-.70001,1.39001-1.34003,2.08002-1.94,1.01001-.07001,1.96002-.10999,2.87-.10999,2.21997,0,4.38.19,6.44.56.37,2.06.56,4.21997.56,6.44,0,.90997-.03998,1.85999-.10999,2.87-.60004.69-1.23999,1.39001-1.94,2.08002-.69.69995-1.39001,1.33997-2.08002,1.94-1.01001.06995-1.96002.10999-2.87.10999-2.21997,0-4.38-.19-6.44-.56-.37-2.06-.56-4.22003-.56-6.44ZM17.98999,32.54999c1.94.28998,3.95001.45001,6.01001.45001h.20001c-.23999.16998-.48004.32996-.72003.48999-.01996.01001-.02997.02002-.04999.02997-1.52002,1.02002-2.98999,1.81-4.34998,2.36005-.42004-1-.78003-2.11005-1.09003-3.33002ZM24,41c-1.40997,0-2.84998-1.20001-4.06-3.32001,1.32001-.54999,2.67999-1.28003,4.06-2.16003,1.34998.87006,2.72998,1.61005,4.06,2.17004-1.17999,2.08997-2.60999,3.31-4.06,3.31ZM28.92999,35.89001c-1.02002-.43005-2.08002-.96002-3.14001-1.60004.63-.45001,1.25-.94,1.87-1.46002.80005-.06995,1.58002-.16998,2.35004-.28998-.29999,1.22003-.66998,2.35004-1.08002,3.35004ZM30.37,30.37c1.47998-1.48999,2.79999-3.02002,3.92999-4.56.64001,1.06,1.16998,2.10999,1.58002,3.12-1.37.57001-2.97998,1.04999-4.76001,1.39996h-.02997c-.27002.06006-.55005.09003-.83002.14001.03998-.02997.07001-.07001.10999-.09998ZM36.02002,36.01996c-.98999.99005-2.85004,1.18005-5.20001.53003.52997-1.29999.97998-2.77002,1.33002-4.40002,1.62-.34998,3.09998-.79999,4.39996-1.32996.65002,2.33997.47003,4.20996-.52997,5.19995ZM37.69,28.06c-.54999-1.31-1.27002-2.66998-2.15002-4.04004.88-1.37994,1.61005-2.75,2.16003-4.06,2.10999,1.20001,3.29999,2.64001,3.29999,4.04004,0,1.45001-1.21997,2.88-3.31,4.06Z"/>
        <path d="M24,29c2.75684,0,5-2.24316,5-5s-2.24316-5-5-5-5,2.24316-5,5,2.24316,5,5,5ZM24,21c1.6543,0,3,1.3457,3,3s-1.3457,3-3,3-3-1.3457-3-3,1.3457-3,3-3Z"/>
        <circle cx="24" cy="6" r="1"/>
      </g>
    </g>
  </g>
</svg>