<?xml version="1.0" encoding="UTF-8"?>
<svg id="Outline" xmlns="http://www.w3.org/2000/svg" version="1.1" viewBox="0 0 48 48">
  <path d="M42,41h-24v-1c0-1.6543-1.3457-3-3-3h-1V14c0-2.75684,2.24316-5,5-5v4h-2c-.55273,0-1,.44727-1,1s.44727,1,1,1h6v1.09033c-2.83313.47833-5,2.94244-5,5.90967,0,.55176-.44824,1-1,1-.55273,0-1,.44727-1,1v4c0,.55273.44727,1,1,1h2.10107c.46466,2.2793,2.4845,4,4.89893,4s4.43427-1.7207,4.89893-4h2.10107c.55273,0,1-.44727,1-1v-4c0-.55273-.44727-1-1-1-.55176,0-1-.44824-1-1,0-2.96722-2.16687-5.43134-5-5.90967v-1.09033h6c.55273,0,1-.44727,1-1s-.44727-1-1-1h-2v-4h1.18433c.41412,1.1615,1.51373,2,2.81567,2,1.6543,0,3-1.3457,3-3s-1.3457-3-3-3c-1.30194,0-2.40161.8385-2.81573,2h-11.18427c-3.85938,0-7,3.14062-7,7v23h-1c-1.6543,0-3,1.3457-3,3v1h-2c-.55273,0-1,.44727-1,1s.44727,1,1,1h36c.55273,0,1-.44727,1-1s-.44727-1-1-1ZM33,7c.55176,0,1,.44824,1,1s-.44824,1-1,1-1-.44824-1-1,.44824-1,1-1ZM24,31c-1.30194,0-2.40155-.8385-2.81567-2h5.63141c-.41412,1.1615-1.51379,2-2.81573,2ZM28,22c0,1.30371.83594,2.41602,2,2.8291v2.1709h-12v-2.1709c1.16406-.41309,2-1.52539,2-2.8291,0-2.20605,1.79395-4,4-4s4,1.79395,4,4ZM21,9h6v4h-6v-4ZM16,41h-6v-1c0-.55176.44824-1,1-1h4c.55176,0,1,.44824,1,1v1Z" fill="#000" stroke-width="0"/>
</svg>