<?xml version="1.0" encoding="utf-8"?>
<!-- Generator: Adobe Illustrator 27.3.1, SVG Export Plug-In . SVG Version: 6.00 Build 0)  -->
<svg version="1.1" id="Outline" xmlns="http://www.w3.org/2000/svg" xmlns:xlink="http://www.w3.org/1999/xlink" x="0px" y="0px"
	 viewBox="0 0 48 48" enable-background="new 0 0 48 48" xml:space="preserve">
<g>
	<circle cx="6" cy="28" r="1"/>
	<path d="M36,14h-2c-0.55225,0-1,0.44727-1,1s0.44775,1,1,1h2c0.55225,0,1-0.44727,1-1S36.55225,14,36,14z"/>
	<path d="M38,14c0.55225,0,1-0.44727,1-1v-2c0-0.55273-0.44775-1-1-1s-1,0.44727-1,1v2C37,13.55273,37.44775,14,38,14z"/>
	<path d="M42,14h-2c-0.55225,0-1,0.44727-1,1s0.44775,1,1,1h2c0.55225,0,1-0.44727,1-1S42.55225,14,42,14z"/>
	<path d="M38,16c-0.55225,0-1,0.44727-1,1v2c0,0.55273,0.44775,1,1,1s1-0.44727,1-1v-2C39,16.44727,38.55225,16,38,16z"/>
	<path d="M24,13.55804V10c0-0.55273-0.44775-1-1-1h-2V8c0-0.55176,0.44873-1,1-1h10c0.55127,0,1,0.44824,1,1v3
		c0,0.55273,0.44775,1,1,1s1-0.44727,1-1V8c0-1.6543-1.3457-3-3-3H22c-1.6543,0-3,1.3457-3,3v1h-2c-0.55225,0-1,0.44727-1,1v3.56165
		c-4.89069,1.37146-8.91315,5.17975-10.38965,10.19617c-0.15576,0.5293,0.14746,1.08594,0.67725,1.24121
		c0.52979,0.16113,1.08545-0.14648,1.2417-0.67676C9.14453,18.83398,14.27295,15,20,15c7.16846,0,13,5.83203,13,13
		s-5.83154,13-13,13c-5.72705,0-10.85547-3.83398-12.4707-9.32227c-0.15674-0.53027-0.71387-0.83594-1.2417-0.67676
		c-0.52979,0.15527-0.83301,0.71191-0.67725,1.24121C7.47461,38.57617,13.39209,43,20,43c8.271,0,15-6.72852,15-15
		C35,21.11542,30.33234,15.31476,24,13.55804z M18,13v-2h4v2H18z"/>
	<path d="M20,21c-3.85986,0-7,3.14062-7,7s3.14014,7,7,7s7-3.14062,7-7S23.85986,21,20,21z M20,33c-2.75684,0-5-2.24316-5-5
		s2.24316-5,5-5s5,2.24316,5,5S22.75684,33,20,33z"/>
	<path d="M19,38c0,0.55273,0.44775,1,1,1c6.06543,0,11-4.93457,11-11c0-0.55273-0.44775-1-1-1s-1,0.44727-1,1
		c0,4.96289-4.0376,9-9,9C19.44775,37,19,37.44727,19,38z"/>
	<path d="M20,17c-6.06543,0-11,4.93457-11,11c0,0.55273,0.44775,1,1,1s1-0.44727,1-1c0-4.96289,4.0376-9,9-9
		c0.55225,0,1-0.44727,1-1S20.55225,17,20,17z"/>
</g>
</svg>
