<?xml version="1.0" encoding="UTF-8"?>
<svg id="Outline" xmlns="http://www.w3.org/2000/svg" version="1.1" viewBox="0 0 64 64">
  <path d="M26.30786,11c-1.60254,0-3.04541.95166-3.67627,2.42432-.4292,1.00146-.4292,2.1499-.00049,3.15137.16256.3793.53156.60682.91965.60693.70566.00019,1.19802-.74392.91921-1.39404-.21484-.50098-.21484-1.07568,0-1.57666.31543-.73633,1.03662-1.21191,1.83789-1.21191.55225,0,1-.44775,1-1s-.44775-1-1-1Z" style="fill: #000; stroke-width: 0px;"/>
  <path d="M52.30786,18.58252c0-6.38672-5.19629-11.58252-11.58301-11.58252h-14.41699c-3.20459,0-6.09082,1.90332-7.35303,4.84863-.03821.08917-.06549.1817-.10028.27197-.50006-.09814-1.00995-.14001-1.5296-.10938-3.15869.1875-5.63281,2.91357-5.63281,6.20508,0,7.90723,2.31836,15.56396,6.70459,22.14307l.45758.68646c-1.43823.22064-2.54645,1.4552-2.54645,2.95416v10c0,1.6543,1.3457,3,3,3h26c1.6543,0,3-1.3457,3-3v-10c0-1.21307-.72687-2.25458-1.76514-2.72687l5.35693-19.64227c.27051-.99121.4082-2.01709.4082-3.04834ZM18.30786,47h9v4h-9v-4ZM46.30786,54c0,.55127-.44824,1-1,1h-26c-.55127,0-1-.44873-1-1v-1h10c.55225,0,1-.44775,1-1v-6c0-.55225-.44775-1-1-1h-10v-1c0-.55127.44873-1,1-1h26c.55176,0,1,.44873,1,1v10ZM49.96997,21.104l-5.42578,19.896h-23.31683l-1.16656-1.75c-4.1665-6.24951-6.36865-13.52295-6.36865-21.03369,0-2.19775,1.68311-4.08594,3.75195-4.20898.31348-.01837.62366.00488.9295.05725-.15851,1.388.04187,2.82391.62421,4.17468l3.43408,6.24268c.2666.48438.87451.66162,1.35791.39404.48389-.26611.66064-.87402.39404-1.35791l-3.39111-6.15479c-.64355-1.50195-.64355-3.22461,0-4.72656.94678-2.20947,3.11182-3.63672,5.51514-3.63672h14.41699c5.28418,0,9.58301,4.29883,9.58301,9.58301,0,.85303-.11328,1.70117-.33789,2.521Z" style="fill: #000; stroke-width: 0px;"/>
</svg>