<?xml version="1.0" encoding="UTF-8"?>
<svg id="Outline" xmlns="http://www.w3.org/2000/svg" version="1.1" viewBox="0 0 48 48">
  <circle cx="21" cy="33" r="1" fill="#000" stroke-width="0"/>
  <path d="M42.71002,15.19l-9.90002-9.90002c-.39001-.39001-1.02997-.39001-1.41998,0l-2.83002,2.83002c-.39001.39001-.39001,1.02997,0,1.41998l.65002.64001-11.70001,9.90997-1.89001-1.88995c-1.16998-1.16003-3.07001-1.16003-4.23999,0l-1.09003,1.08997c-.38995.39001-.38995,1.03003,0,1.41998.39001.39001,1.03003.39001,1.42004,0l1.08997-1.08997c.38-.39001,1.02002-.39001,1.40002,0l1.85999,1.85999c-1.01001,1.22998-1.60999,2.76001-1.67999,4.37-.09003,1.78003.47998,3.53003,1.57001,4.91998-.60004.93005-.95001,2.04004-.95001,3.23004v2h-1c-.54999,0-1,.45001-1,1v5c0,.54999.45001,1,1,1h14c.25,0,.46997-.10004.65002-.25.41998.14996.87.25,1.34998.25.95001,0,1.79999-.34003,2.48999-.89001.70001.56,1.58002.89001,2.51001.89001,2.21002,0,4-1.79004,4-4s-1.78998-4-4-4c-.92999,0-1.81.32996-2.51001.89001-.69-.55005-1.53998-.89001-2.48999-.89001-1.01001,0-1.90997.39001-2.62,1h-.38v-2c0-.75-.15002-1.47003-.40002-2.13.30005-.26001.60004-.54004.88-.87l10.34003-12.21002s.64001.65002.64026.65026c.39396.37412,1.02645.39305,1.41974-.00023l2.83002-2.83002c.38995-.39001.38995-1.03003,0-1.41998ZM33.70001,37.48999c.35999-.31.81-.48999,1.29999-.48999,1.09998,0,2,.89996,2,2,0,1.09998-.90002,2-2,2-.48999,0-.94-.17999-1.29999-.48999.19-.46002.29999-.97003.29999-1.51001,0-.54004-.10999-1.04999-.29999-1.51001ZM30,37c1.09998,0,2,.89996,2,2,0,1.09998-.90002,2-2,2s-2-.90002-2-2c0-1.10004.90002-2,2-2ZM15,41v-3h11.14001c-.08002.32001-.14001.64996-.14001,1,0,.72998.21002,1.40997.56,2h-11.56ZM17,36v-2c0-2.21002,1.78998-4,4-4s4,1.78998,4,4v2h-8ZM25.96002,29.70001c-.13.14996-.27002.27997-.40002.40997-1.09998-1.28998-2.73999-2.10999-4.56-2.10999-1.38,0-2.65997.47998-3.66998,1.26996-.67004-.96997-1.01001-2.12-.96002-3.31995.07001-1.47003.70001-2.80005,1.78003-3.78003h.01996v-.01001c.04004-.03998.08002-.08002.13-.12l12.33002-10.44,5.77002,5.77002-10.44,12.33002ZM39.16998,17.31l-8.47998-8.48004,1.40997-1.41998,8.49005,8.48999-1.42004,1.41003Z" fill="#000" stroke-width="0"/>
  <path d="M9,26c-2.20557,0-4,1.79395-4,4s1.79443,4,4,4,4-1.79395,4-4-1.79443-4-4-4ZM9,32c-1.10303,0-2-.89746-2-2s.89697-2,2-2,2,.89746,2,2-.89697,2-2,2Z" fill="#000" stroke-width="0"/>
</svg>