<?xml version="1.0" encoding="UTF-8"?>
<svg xmlns="http://www.w3.org/2000/svg" version="1.1" viewBox="0 0 64 64">
  <!-- Generator: Adobe Illustrator 28.7.1, SVG Export Plug-In . SVG Version: 1.2.0 Build 142)  -->
  <g>
    <g id="Outline">
      <g>
        <path d="M57,18.67871c-.00439-.37207-.21484-.71094-.54639-.87988l-21-10.69043c-.28516-.14453-.62207-.14453-.90723,0l-21,10.69043c-.33154.16895-.54199.50781-.54639.87988-.00006.00403.00146.00769.00146.01172h-.00146v21.00861c-1.43561.66998-3.0011,1.02069-4.60547,1.02069h-.39453c-.55225,0-1,.44727-1,1v5c0,4.73047,3.17676,8.94238,7.7251,10.24219.08984.02539.18262.03809.2749.03809s.18506-.0127.2749-.03809c4.38861-1.25415,7.49127-5.22125,7.70441-9.74756l11.58026,5.68311c.13867.06836.28955.10254.44043.10254s.30176-.03418.44092-.10254l21-10.30957c.34229-.16797.55908-.51562.55908-.89746v-23h-.00146c0-.00403.00153-.00769.00146-.01172ZM35,9.12207l18.84473,9.59375-5.1886,2.79425-18.99304-9.67102,5.33691-2.71698ZM43.32135,24.383l-19.15717-9.74451,3.29407-1.67694,19.05493,9.70251-3.19183,1.71893ZM21.95868,15.76135l19.21912,9.776-6.1778,3.3269-18.84473-10.14844,5.80341-2.95447ZM22,40.71973h-.39453c-2.16162,0-4.25391-.63379-6.05078-1.83203-.16797-.1123-.36133-.16846-.55469-.16846v-18.35406l19,10.23248v19.79736l-11-5.39777v-3.27753c0-.55273-.44775-1-1-1ZM21,46.71973c0,3.74707-2.45312,7.09277-6,8.23535-3.54688-1.14258-6-4.48828-6-8.23535v-4.01367c2.12402-.09863,4.17578-.71582,6-1.80371,1.82422,1.08789,3.87598,1.70508,6,1.80371v4.01367ZM36,50.39484v-19.79718l19-10.23248v20.70221l-19,9.32745Z"/>
        <path d="M52.52881,33.15137c-.29248-.18262-.65967-.20117-.96973-.04883l-7,3.4375c-.34229.16797-.55908.51562-.55908.89746v4.96484c0,.3457.17822.66602.4712.84864.29436.18375.65843.2012.96972.04882l7-3.4375c.34229-.16797.55908-.51562.55908-.89746v-4.96484c0-.3457-.17822-.66602-.47119-.84863ZM51,38.3418l-5,2.45508v-2.73633l5-2.45508v2.73633Z"/>
        <path d="M12.70703,47.0127c-.39062-.39062-1.02344-.39062-1.41406,0s-.39062,1.02344,0,1.41406l2,2c.19531.19531.45117.29297.70703.29297s.51172-.09766.70703-.29297l4-4c.39062-.39062.39062-1.02344,0-1.41406s-1.02344-.39062-1.41406,0l-3.29297,3.29297-1.29297-1.29297Z"/>
      </g>
    </g>
  </g>
</svg>