<?xml version="1.0" encoding="UTF-8"?>
<svg xmlns="http://www.w3.org/2000/svg" version="1.1" viewBox="0 0 64 64">
  <!-- Generator: Adobe Illustrator 28.7.1, SVG Export Plug-In . SVG Version: 1.2.0 Build 142)  -->
  <g>
    <g id="Outline">
      <path d="M56,41h-3V11c0-1.10004-.90002-2-2-2h-16c-1.09998,0-2,.89996-2,2v30h-2v-14c0-1.10004-.90002-2-2-2H13c-1.09998,0-2,.89996-2,2v14h-3c-.54999,0-1,.45001-1,1v12c0,.54999.45001,1,1,1h6c.54999,0,1-.45001,1-1v-5h13v5c0,.54999.45001,1,1,1h6c.54999,0,1-.45001,1-1v-5h13v5c0,.54999.45001,1,1,1h6c.54999,0,1-.45001,1-1v-12c0-.54999-.45001-1-1-1ZM41,11h4v4h-4v-4ZM35,11h4v5c0,.54999.45001,1,1,1h6c.54999,0,1-.45001,1-1v-5h4v14h-16v-14ZM45,27v4h-4v-4h4ZM35,27h4v5c0,.54999.45001,1,1,1h6c.54999,0,1-.45001,1-1v-5h4v14h-16v-14ZM19,27h4v4h-4v-4ZM13,27h4v5c0,.54999.45001,1,1,1h6c.54999,0,1-.45001,1-1v-5h4v14H13v-14ZM55,53h-4v-5c0-.54999-.45001-1-1-1h-15c-.54999,0-1,.45001-1,1v5h-4v-5c0-.54999-.45001-1-1-1h-15c-.54999,0-1,.45001-1,1v5h-4v-10h46v10Z"/>
    </g>
  </g>
</svg>