<?xml version="1.0" encoding="UTF-8"?>
<svg xmlns="http://www.w3.org/2000/svg" version="1.1" viewBox="0 0 64 64">
  <!-- Generator: Adobe Illustrator 28.7.1, SVG Export Plug-In . SVG Version: 1.2.0 Build 142)  -->
  <g>
    <g id="Outline">
      <g>
        <path d="M50,18c.54999,0,1-.45001,1-1v-7c0-1.65002-1.34998-3-3-3H16c-1.65002,0-3,1.34998-3,3v40c0,1.64996,1.34998,3,3,3h2v1c0,1.64996,1.34998,3,3,3h22c1.65002,0,3-1.35004,3-3v-1h2c1.65002,0,3-1.35004,3-3v-25c0-.54999-.45001-1-1-1s-1,.45001-1,1v10H15V10c0-.54999.45001-1,1-1h32c.54999,0,1,.45001,1,1v7c0,.54999.45001,1,1,1ZM44,54c0,.54999-.45001,1-1,1h-22c-.54999,0-1-.45001-1-1v-1h24v1ZM49,37v13c0,.54999-.45001,1-1,1H16c-.54999,0-1-.45001-1-1v-13h34Z"/>
        <path d="M24,47h11v.99998c0,.87644,1.09067,1.32341,1.70703.70705l4-4c.39062-.39062.39062-1.02344,0-1.41406l-4-4c-.28613-.28613-.71582-.37109-1.08984-.2168-.37402.15479-.61719.51953-.61719.92383v1h-11c-.55273,0-1,.44775-1,1v4c0,.55225.44727,1,1,1ZM25,43h11c.42871,0,.79492-.27002.93652-.64893l1.64941,1.64893-1.64941,1.64893c-.1416-.37891-.50781-.64893-.93652-.64893h-11v-2Z"/>
        <circle cx="46" cy="40" r="1"/>
        <circle cx="18" cy="40" r="1"/>
        <circle cx="46" cy="48" r="1"/>
        <circle cx="18" cy="48" r="1"/>
        <path d="M31.14258,11.48535l-12,20c-.18555.30908-.19043.69385-.0127,1.00732s.50977.50732.87012.50732h24c.36035,0,.69238-.19385.87012-.50732s.17285-.69824-.0127-1.00732l-12-20c-.36133-.60254-1.35352-.60254-1.71484,0ZM21.7666,31l10.2334-17.05615,10.2334,17.05615h-20.4668Z"/>
        <path d="M31,20v4c0,.55225.44727,1,1,1s1-.44775,1-1v-4c0-.55225-.44727-1-1-1s-1,.44775-1,1Z"/>
        <circle cx="32" cy="28" r="1"/>
        <circle cx="50" cy="21" r="1"/>
      </g>
    </g>
  </g>
</svg>