<?xml version="1.0" encoding="UTF-8"?>
<svg xmlns="http://www.w3.org/2000/svg" version="1.1" viewBox="0 0 64 64">
  <!-- Generator: Adobe Illustrator 28.7.1, SVG Export Plug-In . SVG Version: 1.2.0 Build 142)  -->
  <g>
    <g id="Outline">
      <g>
        <path d="M56,41c.54999,0,1-.45001,1-1v-6c0-1.65002-1.34998-3-3-3h-5v-2h3c.34998,0,.66998-.17999.84998-.47003.18005-.29999.20001-.66998.04004-.97998l-2-4c-.17004-.34003-.51001-.54999-.89001-.54999h-14s0-2,.0001-2.00001c1.15218-.17601,2.29682-.43162,3.37991-.86998,2.15997-.89001,2.62-2.02002,2.62-2.81,0-.79004-.46002-1.92004-2.62-2.81-.51001-.20001-1.09998.03998-1.31.54999-.20001.51001.03998,1.09998.54999,1.31,1.14001.45996,1.38.89001,1.38.95001s-.23998.48997-1.37993.95993c-.21586.08899-2.62007.74664-2.62007.69003v-5.96997h1c.54999,0,1-.45001,1-1v-4c0-.54999-.45001-1-1-1h-10c-.54999,0-1,.45001-1,1v4c0,.54999.45001,1,1,1h1s0,5.96997-.00014,5.96995c-.87543-.15591-1.80438-.33294-2.61985-.69999-1.13-.45996-1.38-.87-1.38-.94995,0-.06.23999-.49005,1.38-.95001.51001-.21002.75-.79999.54999-1.31-.21002-.51001-.79999-.75-1.31-.54999-2.15997.88995-2.62,2.01996-2.62,2.81,0,.78996.46001,1.91994,2.60987,2.79994,1.0869.4449,2.23214.7091,3.39013.89006v1.98999h-14c-.38,0-.71997.20996-.89001.54999l-2,4c-.15997.31-.14001.67999.04004.97998.17999.29004.5.47003.84998.47003h3v2h-5c-1.65002,0-3,1.34998-3,3v16c0,1.64996,1.34998,3,3,3h1v3c0,.54999.45001,1,1,1h40c.54999,0,1-.45001,1-1v-3h1c1.65002,0,3-1.35004,3-3v-6c0-.54999-.45001-1-1-1s-1,.45001-1,1v6c0,.54999-.45001,1-1,1H10c-.54999,0-1-.45001-1-1v-16c0-.54999.45001-1,1-1h44c.54999,0,1,.45001,1,1v6c0,.54999.45001,1,1,1ZM13,53h38v2H13v-2ZM28,9h8v2h-8v-2ZM30,19.20996v-6.20996h4v6.20996c-1.32001.09003-2.69.10004-4,0ZM34,21.23999v1.76001h-4v-1.76001c.65002.04999,1.32001.08002,2,.08002s1.34003-.03003,2-.08002ZM47,31h-30v-2h22c.54999,0,1-.45001,1-1s-.45001-1-1-1H13.62l1-2h34.76001l1,2h-7.38c-.54999,0-1,.45001-1,1s.45001,1,1,1h4v2Z"/>
        <path d="M20,35c-.55273,0-1,.44727-1,1v12c0,.55273.44727,1,1,1h24c.55273,0,1-.44727,1-1v-12c0-.55273-.44727-1-1-1h-24ZM43,47h-22v-10h22v10Z"/>
        <path d="M24,45h16c.55273,0,1-.44727,1-1v-4c0-.55273-.44727-1-1-1h-16c-.55273,0-1,.44727-1,1v4c0,.55273.44727,1,1,1ZM25,41h14v2h-14v-2Z"/>
        <path d="M11,38v8c0,1.6543,1.3457,3,3,3s3-1.3457,3-3v-8c0-1.6543-1.3457-3-3-3s-3,1.3457-3,3ZM15,38v8c0,.55176-.44824,1-1,1s-1-.44824-1-1v-8c0-.55176.44824-1,1-1s1,.44824,1,1Z"/>
        <path d="M47,38v8c0,1.6543,1.3457,3,3,3s3-1.3457,3-3v-8c0-1.6543-1.3457-3-3-3s-3,1.3457-3,3ZM51,38v8c0,.55176-.44824,1-1,1s-1-.44824-1-1v-8c0-.55176.44824-1,1-1s1,.44824,1,1Z"/>
      </g>
    </g>
  </g>
</svg>