<?xml version="1.0" encoding="utf-8"?>
<!-- Generator: Adobe Illustrator 27.3.1, SVG Export Plug-In . SVG Version: 6.00 Build 0)  -->
<svg version="1.1" id="Outline" xmlns="http://www.w3.org/2000/svg" xmlns:xlink="http://www.w3.org/1999/xlink" x="0px" y="0px"
	 viewBox="0 0 48 48" enable-background="new 0 0 48 48" xml:space="preserve">
<g>
	<circle cx="29" cy="30" r="1"/>
	<path d="M38,7H17c0-1.10004-0.90002-2-2-2h-2c-1.09998,0-2,0.89996-2,2v10c0,1.09998,0.90002,2,2,2h2c1.09998,0,2-0.90002,2-2h21
		c2.76001,0,5-2.23999,5-5S40.76001,7,38,7z M15,16c0,0,0,0,0,0.01001V17h-2V7h2V16z M17,15V9h2v1c0,0.54999,0.45001,1,1,1
		s1-0.45001,1-1V9h2v1c0,0.54999,0.45001,1,1,1s1-0.45001,1-1V9h2v1c0,0.54999,0.45001,1,1,1s1-0.45001,1-1V9h2v1
		c0,0.54999,0.45001,1,1,1s1-0.45001,1-1V9h4.59003l-6,6H17z M38,15h-3.59003l5.39001-5.39001C40.52002,10.15997,41,11.01996,41,12
		C41,13.64996,39.65002,15,38,15z"/>
	<path d="M9,27c1.6543,0,3-1.3457,3-3c0-1.42383-1.76953-3.21191-2.31201-3.72559c-0.38574-0.36621-0.99023-0.36621-1.37598,0
		C7.76953,20.78809,6,22.57617,6,24C6,25.6543,7.3457,27,9,27z M9,22.44922c0.55713,0.64355,0.98682,1.29053,1,1.55225
		C9.99902,24.55225,9.55078,25,9,25c-0.55127,0-1-0.44873-1-0.99805C8.0127,23.74121,8.44238,23.09326,9,22.44922z"/>
	<path d="M42,29h-9c-0.55273,0-1,0.44775-1,1s0.44727,1,1,1h8v10H7v-7.53662C7.58887,33.80469,8.27197,34,9,34
		c1.86035,0,3.42822-1.27686,3.87354-3H25c0.55273,0,1-0.44775,1-1s-0.44727-1-1-1H12c-0.55225,0-1,0.44775-1,1
		c0,1.10303-0.89697,2-2,2s-2-0.89697-2-2c0-0.55225-0.44775-1-1-1s-1,0.44775-1,1v12c0,0.55225,0.44775,1,1,1h36
		c0.55273,0,1-0.44775,1-1V30C43,29.44775,42.55273,29,42,29z"/>
</g>
</svg>
