<?xml version="1.0" encoding="UTF-8"?>
<svg xmlns="http://www.w3.org/2000/svg" version="1.1" viewBox="0 0 64 64">
  <!-- Generator: Adobe Illustrator 28.7.1, SVG Export Plug-In . SVG Version: 1.2.0 Build 142)  -->
  <g>
    <g id="Outline">
      <g>
        <path d="M47.66998,23.12c-.37-2.15002-1.03998-4.23999-2.01996-6.19,1.33997-.29999,2.34998-1.5,2.34998-2.92999,0-1.65002-1.34998-3-3-3h-2v-2c0-1.10004-.90002-2-2-2h-4c-1.09998,0-2,.89996-2,2v2h-16c-1.65002,0-3,1.34998-3,3,0,1.42999,1.01001,2.63,2.34998,2.92999-.97998,1.95001-1.64996,4.03998-2.01996,6.19-.01001.01001-.01001.02997-.01001.04999-.20001,1.20001-.32001,2.42999-.32001,3.65997v14.34003c0,1.22998.12,2.46002.32001,3.65997,0,.02002,0,.04004.01001.05005.37,2.14996,1.03998,4.23999,2.01996,6.19-1.33997.29999-2.34998,1.5-2.34998,2.92999,0,1.64996,1.34998,3,3,3h26c1.65002,0,3-1.35004,3-3,0-1.42999-1.01001-2.63-2.34998-2.92999.97998-1.95001,1.64996-4.04004,2.01996-6.19.01001-.01001.01001-.03003.01001-.05005.20001-1.19995.32001-2.42999.32001-3.65997v-14.34003c0-1.22998-.12-2.45996-.32001-3.65997,0-.02002,0-.03998-.01001-.04999ZM37,9h4v2h-4v-2ZM18,14c0-.54999.45001-1,1-1h26c.54999,0,1,.45001,1,1s-.45001,1-1,1h-26c-.54999,0-1-.45001-1-1ZM45.28998,21.54999c-3.60999-1.56-8.64996-2.54999-13.28998-2.54999s-9.67999.98999-13.28998,2.54999c.42999-1.58002,1.06-3.10999,1.87-4.54999h22.83997c.81,1.44,1.44,2.96997,1.87,4.54999ZM46,54c0,.54999-.45001,1-1,1h-26c-.54999,0-1-.45001-1-1s.45001-1,1-1h26c.54999,0,1,.45001,1,1ZM18.71002,46.45001c3.60999,1.56,8.64996,2.54999,13.28998,2.54999s9.67999-.98999,13.28998-2.54999c-.42999,1.57996-1.06,3.10999-1.87,4.54999h-22.83997c-.81-1.44-1.44-2.97003-1.87-4.54999ZM46,41.16998c0,.94-.07001,1.88-.21002,2.81-2.76996,1.5-8.08997,3.02002-13.78998,3.02002s-11.02002-1.52002-13.78998-3.02002c-.14001-.92999-.21002-1.87-.21002-2.81v-14.34003c0-.93994.07001-1.87994.21002-2.81,2.76996-1.5,8.08997-3.01996,13.78998-3.01996s11.02002,1.51996,13.78998,3.01996c.14001.93005.21002,1.87006.21002,2.81v14.34003Z"/>
        <path d="M32,23c-6.06543,0-11,4.93457-11,11s4.93457,11,11,11,11-4.93457,11-11-4.93457-11-11-11ZM32,43c-4.96289,0-9-4.03711-9-9s4.03711-9,9-9,9,4.03711,9,9-4.03711,9-9,9Z"/>
        <path d="M32.64648,27.2373c-.37305-.31641-.91992-.31641-1.29297,0-.54785.46387-5.35352,4.62793-5.35352,7.7627,0,3.30859,2.69141,6,6,6s6-2.69141,6-6c0-3.13477-4.80566-7.29883-5.35352-7.7627ZM32,39c-2.20605,0-4-1.79395-4-4,0-1.48145,2.24023-4.04004,4-5.66406,1.76074,1.62207,4,4.17969,4,5.66406,0,2.20605-1.79395,4-4,4Z"/>
      </g>
    </g>
  </g>
</svg>