<?xml version="1.0" encoding="UTF-8"?>
<svg id="Outline" xmlns="http://www.w3.org/2000/svg" version="1.1" viewBox="0 0 48 48">
  <path d="M10,39h6c.55225,0,1-.44775,1-1v-4c0-.55225-.44775-1-1-1h-6c-.55225,0-1,.44775-1,1v4c0,.55225.44775,1,1,1ZM11,35h4v2h-4v-2Z" fill="#000" stroke-width="0"/>
  <path d="M31,37h4.58594l-.29297.29297c-.39062.39062-.39062,1.02344,0,1.41406.3772.3772,1.02539.38867,1.41406,0l2-2c.39062-.39062.39062-1.02344,0-1.41406l-2-2c-.39062-.39062-1.02344-.39062-1.41406,0s-.39062,1.02344,0,1.41406l.29297.29297h-4.58594c-.55273,0-1,.44775-1,1s.44727,1,1,1Z" fill="#000" stroke-width="0"/>
  <path d="M20,35h7c.55273,0,1-.44775,1-1s-.44727-1-1-1h-7c-.55225,0-1,.44775-1,1s.44775,1,1,1Z" fill="#000" stroke-width="0"/>
  <path d="M20,39h7c.55273,0,1-.44775,1-1s-.44727-1-1-1h-7c-.55225,0-1,.44775-1,1s.44775,1,1,1Z" fill="#000" stroke-width="0"/>
  <path d="M40,25c1.6543,0,3-1.3457,3-3v-8c0-1.6543-1.3457-3-3-3h-2.98633v-5c0-.55225-.44727-1-1-1s-1,.44775-1,1v5H13v-5c0-.55225-.44775-1-1-1s-1,.44775-1,1v5h-3c-1.6543,0-3,1.3457-3,3v8c0,1.6543,1.3457,3,3,3h3v4h-3c-1.6543,0-3,1.3457-3,3v8c0,1.6543,1.3457,3,3,3h32c1.6543,0,3-1.3457,3-3v-8c0-1.6543-1.3457-3-3-3h-2.98633v-4h2.98633ZM40,31c.55176,0,1,.44873,1,1v8c0,.55127-.44824,1-1,1H8c-.55127,0-1-.44873-1-1v-8c0-.55127.44873-1,1-1h32ZM13,29v-4h22.01367v4H13ZM8,23c-.55127,0-1-.44873-1-1v-8c0-.55127.44873-1,1-1h32c.55176,0,1,.44873,1,1v8c0,.55127-.44824,1-1,1H8Z" fill="#000" stroke-width="0"/>
  <path d="M38,15h-6c-.55273,0-1,.44775-1,1v4c0,.55225.44727,1,1,1h6c.55273,0,1-.44775,1-1v-4c0-.55225-.44727-1-1-1ZM37,19h-4v-2h4v2Z" fill="#000" stroke-width="0"/>
  <path d="M17,17h-4.58594l.29297-.29297c.39062-.39062.39062-1.02344,0-1.41406s-1.02344-.39062-1.41406,0l-2,2c-.39062.39062-.39062,1.02344,0,1.41406l2,2c.37482.37482,1.02319.39087,1.41406,0,.39062-.39062.39062-1.02344,0-1.41406l-.29297-.29297h4.58594c.55225,0,1-.44775,1-1s-.44775-1-1-1Z" fill="#000" stroke-width="0"/>
  <path d="M28,15h-7c-.55225,0-1,.44775-1,1s.44775,1,1,1h7c.55273,0,1-.44775,1-1s-.44727-1-1-1Z" fill="#000" stroke-width="0"/>
  <path d="M28,19h-7c-.55225,0-1,.44775-1,1s.44775,1,1,1h7c.55273,0,1-.44775,1-1s-.44727-1-1-1Z" fill="#000" stroke-width="0"/>
</svg>