<?xml version="1.0" encoding="UTF-8"?>
<svg id="Outline" xmlns="http://www.w3.org/2000/svg" version="1.1" viewBox="0 0 64 64">
  <path d="M18,37c1.30194,0,2.40161-.8385,2.81573-2h3.18427c.55273,0,1-.44727,1-1s-.44727-1-1-1h-3.18427c-.41412-1.1615-1.51379-2-2.81573-2-1.6543,0-3,1.3457-3,3s1.3457,3,3,3ZM18,33c.55176,0,1,.44824,1,1s-.44824,1-1,1-1-.44824-1-1,.44824-1,1-1Z" fill="#000" stroke-width="0"/>
  <path d="M56.41895,37.0918l-12.41895-5.73181V8c0-.55225-.44727-1-1-1H8c-.55273,0-1,.44775-1,1v42c0,.55273.44727,1,1,1h8c.55273,0,1-.44727,1-1s-.44727-1-1-1h-3V13h25v20.20612l-8.41895,3.88568c-.35449.16406-.58105.51855-.58105.9082v11h-5c-.55273,0-1,.44727-1,1s.44727,1,1,1h5.77997s12.78506,5.90081,12.80107,5.9082c.23653.10917.5743.12212.83791,0l13-6c.35449-.16406.58105-.51855.58105-.9082v-12c0-.38965-.22656-.74414-.58105-.9082ZM43,42.89844l-10.61365-4.89862,6.99078-3.22626c.00952-.00391.01801-.00848.0274-.0127l3.59546-1.6593,10.61365,4.89825-10.61365,4.89862ZM39,11H12c-.55273,0-1,.44775-1,1v37h-2V9h33v22.35999l-2,.9231V12c0-.55225-.44727-1-1-1ZM31,47.56311s5.08105,2.34509,5.08125,2.34518c.49539.22797,1.09754.00723,1.32695-.48935.23145-.50098.0127-1.0957-.48926-1.32715l-5.91895-2.73181v-5.79688l11,5.0769v9.79694l-11-5.0766v-1.79724ZM44,54.43695v-9.79694l11-5.0769v5.79688l-5.91895,2.73181c-.50188.23141-.72064.826-.48936,1.32694.22682.49126.83775.71485,1.32725.48947l5.08105-2.34509v1.79724l-11,5.0766Z" fill="#000" stroke-width="0"/>
  <path d="M35,27c.55273,0,1-.44775,1-1v-10c0-.55225-.44727-1-1-1h-19c-.55273,0-1,.44775-1,1v10c0,.55225.44727,1,1,1h19ZM17,22h7.5v3h-7.5v-3ZM26.5,25v-3h7.5v3h-7.5ZM34,20h-7.5v-3h7.5v3ZM24.5,17v3h-7.5v-3h7.5Z" fill="#000" stroke-width="0"/>
  <circle cx="20" cy="50" r="1" fill="#000" stroke-width="0"/>
</svg>