<?xml version="1.0" encoding="UTF-8"?>
<svg id="Outline" xmlns="http://www.w3.org/2000/svg" version="1.1" viewBox="0 0 48 48">
  <path d="M41,21h-1v-5c0-1.29999-.84003-2.40002-2-2.82001v-2.17999h2c.54999,0,1-.45001,1-1s-.45001-1-1-1h-2v-1c0-.54999-.45001-1-1-1s-1,.45001-1,1v1h-2c-.54999,0-1,.45001-1,1s.45001,1,1,1h2v2.17999c-1.15997.41998-2,1.52002-2,2.82001v5h-.92999c-.33002,0-.65002-.17004-.83002-.45001l-.81-1.21002c-.56-.83997-1.5-1.33997-2.5-1.33997h-9.85999c-1.01001,0-1.94.5-2.5,1.33997l-.81,1.21002c-.17999.27997-.5.45001-.83002.45001h-.92999v-5c0-1.29999-.84003-2.40002-2-2.82001v-2.17999h2c.54999,0,1-.45001,1-1s-.45001-1-1-1h-2v-1c0-.54999-.45001-1-1-1s-1,.45001-1,1v1h-2c-.54999,0-1,.45001-1,1s.45001,1,1,1h2v2.17999c-1.15997.41998-2,1.52002-2,2.82001v5h-1c-1.09998,0-2,.89996-2,2v2c0,1.09998.90002,2,2,2h3.32001l1.25,3.12c.46002,1.14001,1.54999,1.88,2.77997,1.88h.87l1.43005,5.72998c.33997,1.34003,1.52997,2.27002,2.90997,2.27002h8.88c1.38,0,2.57001-.92999,2.90997-2.27002l1.43005-5.72998h.87c1.22998,0,2.31995-.73999,2.77997-1.89001l1.25-3.10999h3.32001c1.09998,0,2-.90002,2-2v-2c0-1.10004-.90002-2-2-2ZM36,16c0-.54999.45001-1,1-1s1,.45001,1,1v5h-2v-5ZM10,16c0-.54999.45001-1,1-1s1,.45001,1,1v5h-2v-5ZM29.40997,37.23999c-.10999.45001-.50995.76001-.96997.76001h-8.88c-.46002,0-.85999-.31-.96997-.76001l-1.31-5.23999h3.71997v1c0,1.64996,1.34998,3,3,3s3-1.35004,3-3v-1h3.71997l-1.31,5.23999ZM23,33v-1h2v1c0,.54999-.45001,1-1,1s-1-.45001-1-1ZM41,25h-4c-.40997,0-.78003.25-.92999.63l-1.5,3.73999c-.15002.38-.51001.63-.91998.63H14.34998c-.40997,0-.76996-.25-.91998-.63l-1.5-3.73999c-.14996-.38-.52002-.63-.92999-.63h-4v-2h7.92999c1.01001,0,1.94-.5,2.5-1.34003l.81-1.20996c.17999-.28003.5-.45001.83002-.45001h9.85999c.33002,0,.65002.16998.83002.45001l.81,1.20996c.56.84003,1.5,1.34003,2.5,1.34003h7.92999v2Z" fill="#000" stroke-width="0"/>
  <path d="M28,22h-8c-.55225,0-1,.44775-1,1v4c0,.55273.44775,1,1,1h8c.55273,0,1-.44727,1-1v-4c0-.55225-.44727-1-1-1ZM27,26h-6v-2h6v2Z" fill="#000" stroke-width="0"/>
  <circle cx="16" cy="26" r="1" fill="#000" stroke-width="0"/>
  <circle cx="32" cy="26" r="1" fill="#000" stroke-width="0"/>
</svg>