<?xml version="1.0" encoding="UTF-8"?>
<svg id="Outline" xmlns="http://www.w3.org/2000/svg" version="1.1" viewBox="0 0 64 64">
  <circle cx="38" cy="12" r="1" fill="#000" stroke-width="0"/>
  <circle cx="12" cy="12" r="1" fill="#000" stroke-width="0"/>
  <circle cx="34" cy="12" r="1" fill="#000" stroke-width="0"/>
  <path d="M29,32h-1.78027l.76074-3.80371c.05908-.29395-.01709-.59863-.20703-.83008-.18994-.23193-.47363-.36621-.77344-.36621h-4c-.45898,0-.85889.3125-.97021.75732l-2,8.00049c-.07471.29883-.00732.61523.18213.85742.18945.24316.47998.38477.78809.38477h2v5.99996c0,1.02632,1.43437,1.36762,1.89453.44731l5-10c.15479-.30957.13818-.67822-.04395-.97314-.18213-.29443-.50391-.47412-.85059-.47412ZM25,38.76367v-2.76367c0-.55273-.44775-1-1-1h-1.71924l1.5-6h1.99951l-.76074,3.80371c-.05908.29395.01709.59863.20703.83008s.47363.36621.77344.36621h1.38184l-2.38184,4.76367Z" fill="#000" stroke-width="0"/>
  <path d="M56,35h-1v-2c0-.54999-.45001-1-1-1s-1,.45001-1,1v2h-2v-2c0-.54999-.45001-1-1-1s-1,.45001-1,1v2h-1c-.54999,0-1,.45001-1,1v4c0,2.40997,1.71997,4.42999,4,4.89996v2.10004c0,1.64996-1.34998,3-3,3h-5V10c0-1.65002-1.34998-3-3-3H10c-1.65002,0-3,1.34998-3,3v44c0,1.64996,1.34998,3,3,3h30c1.65002,0,3-1.35004,3-3v-2h5c2.76001,0,5-2.23999,5-5v-2.10004c2.28003-.46997,4-2.48999,4-4.89996v-4c0-.54999-.45001-1-1-1ZM12,55h-2c-.54999,0-1-.45001-1-1V17h3v38ZM36,55H14v-12.10004c2.29999,3.66003,6.37,6.10004,11,6.10004s8.70001-2.44,11-6.10004v12.10004ZM25,47c-6.07001,0-11-4.92999-11-11s4.92999-11,11-11,11,4.92999,11,11-4.92999,11-11,11ZM36,29.09998c-2.29999-3.65997-6.37-6.09998-11-6.09998s-8.70001,2.44-11,6.09998v-12.09998h22v12.09998ZM41,54c0,.54999-.45001,1-1,1h-2V17h3v37ZM41,15H9v-5c0-.54999.45001-1,1-1h30c.54999,0,1,.45001,1,1v5ZM55,40c0,1.64996-1.34998,3-3,3s-3-1.35004-3-3v-3h6v3Z" fill="#000" stroke-width="0"/>
</svg>