<?xml version="1.0" encoding="UTF-8"?>
<svg xmlns="http://www.w3.org/2000/svg" version="1.1" viewBox="0 0 64 64">
  <!-- Generator: Adobe Illustrator 28.7.1, SVG Export Plug-In . SVG Version: 1.2.0 Build 142)  -->
  <g>
    <g id="Outline">
      <g>
        <path d="M54,45v-9c0-1.65002-1.34998-3-3-3h-.15997l-1.63-9.38c-.19-1.48999-1.47003-2.62-2.98004-2.62h-8.95996c1.66998-1.47003,2.72998-3.60999,2.72998-6,0-4.41003-3.59003-8-8-8s-8,3.58997-8,8c0,2.39001,1.06,4.52997,2.72998,6h-8.95996c-1.51001,0-2.79004,1.13-2.98004,2.57996l-1.63,9.42004h-.15997c-1.65002,0-3,1.34998-3,3v9c-1.65002,0-3,1.34998-3,3s1.34998,3,3,3v3c0,1.64996,1.34998,3,3,3h4c1.65002,0,3-1.35004,3-3v-3h13c.54999,0,1-.45001,1-1s-.45001-1-1-1H10c-.54999,0-1-.45001-1-1s.45001-1,1-1h44c.54999,0,1,.45001,1,1s-.45001,1-1,1h-17c-.54999,0-1,.45001-1,1s.45001,1,1,1h7v3c0,1.64996,1.34998,3,3,3h4c1.65002,0,3-1.35004,3-3v-3c1.65002,0,3-1.35004,3-3s-1.34998-3-3-3ZM12,51h6v3c0,.54999-.45001,1-1,1h-4c-.54999,0-1-.45001-1-1v-3ZM26,15c0-3.31,2.69-6,6-6s6,2.69,6,6-2.69,6-6,6-6-2.69-6-6ZM52,37h-7c-1.65002,0-3,1.34998-3,3v2c0,.54999.45001,1,1,1h4c1.65002,0,3-1.35004,3-3v-1h2v6H12v-6h2v1c0,1.64996,1.34998,3,3,3h4c.54999,0,1-.45001,1-1v-2c0-1.65002-1.34998-3-3-3h-7v-1c0-.54999.45001-1,1-1h9c.54999,0,1-.45001,1-1s-.45001-1-1-1h-6.81l1.58002-9.12c.07001-.5.5-.88,1-.88h13.22998v2h-2c-.54999,0-1,.45001-1,1s.45001,1,1,1h6c.54999,0,1-.45001,1-1s-.45001-1-1-1h-2v-2h13.22998c.5,0,.92999.38,1,.91998l1.58002,9.08002h-1.90002c-.47998-2.83002-2.94-5-5.90997-5s-5.42999,2.16998-5.90997,5h-9.09003c-.54999,0-1,.45001-1,1s.45001,1,1,1h25c.54999,0,1,.45001,1,1v1ZM48,39v1c0,.54999-.45001,1-1,1h-3v-1c0-.54999.45001-1,1-1h3ZM16,40v-1h3c.54999,0,1,.45001,1,1v1h-3c-.54999,0-1-.45001-1-1ZM44.85999,33h-7.71997c.45001-1.72003,2-3,3.85999-3s3.40997,1.27997,3.85999,3ZM52,54c0,.54999-.45001,1-1,1h-4c-.54999,0-1-.45001-1-1v-3h6v3Z"/>
        <path d="M34,14h-2.38184l1.27637-2.55273c.24707-.49414.04688-1.09473-.44727-1.3418-.49512-.24658-1.09375-.04688-1.3418.44727l-2,4c-.15527.31006-.13867.67822.04395.97314.18262.29443.50391.47412.85059.47412h2.38184s-1.27637,2.55273-1.27642,2.55284c-.56291,1.12615,1.2272,2.01512,1.78911.89443l2-4c.15527-.31006.13867-.67822-.04395-.97314-.18262-.29443-.50391-.47412-.85059-.47412Z"/>
        <path d="M38,37h-12c-.55273,0-1,.44775-1,1v4c0,.55225.44727,1,1,1h12c.55273,0,1-.44775,1-1v-4c0-.55225-.44727-1-1-1ZM27,39h4v2h-4v-2ZM37,41h-4v-2h4v2Z"/>
      </g>
    </g>
  </g>
</svg>