<?xml version="1.0" encoding="UTF-8"?>
<svg id="Outline" xmlns="http://www.w3.org/2000/svg" version="1.1" viewBox="0 0 64 64">
  <path d="M53,42v-20c0-.4248-.26855-.80371-.66992-.94434l-6.23047-2.17969c-.52246-.18066-1.0918.09277-1.27441.61426-.18164.52148.09277,1.0918.61426,1.27441l3.323,1.16254-16.76245,5.02887-16.76306-5.02905,16.76306-5.86743,5.90039,2.06445c.52344.18164,1.0918-.09277,1.27441-.61426.18164-.52148-.09277-1.0918-.61426-1.27441l-6.23047-2.17969c-.21387-.07422-.44678-.07422-.66064,0l-20,7c-.40088.14062-.66943.51953-.66943.94434v20c0,.4248.26855.80371.66943.94434,0,0,20,7,20.00003,7.00001.21241.07371.4487.07636.6611-.00001l19.99951-7c.40137-.14062.66992-.51953.66992-.94434ZM51,37.2796l-10,3.3327v-1.8916l10-3.33362v1.89252ZM13,35.38708l10,3.33362v1.8916l-10-3.3327v-1.89252ZM13,39.38702s10.68359,3.56122,10.68362,3.56123c.63141.21442,1.31638-.28189,1.31638-.94825v-4c0-.43066-.27539-.8125-.68359-.94824l-11.31641-3.77216v-1.89258l10.68359,3.56122c.10498.03516.21191.05176.31641.05176.41895,0,.80908-.26465.94873-.68359.1748-.52441-.1084-1.09082-.63232-1.26465l-11.31641-3.77216v-5.93549l18,5.39984v18.84644l-18-6.30035v-1.90302ZM33,47.59039v-18.84644l18-5.39984v5.93549l-11.31641,3.77216c-.52344.17383-.80664.74023-.63184,1.26465.13965.41895.5293.68359.94824.68359.10449,0,.21094-.0166.31641-.05176l10.68359-3.56122v1.89258l-11.31641,3.77216c-.4082.13574-.68359.51758-.68359.94824v3.99996c0,.64703.69716,1.1586,1.31641.94829l10.68359-3.56122v1.90302l-18,6.30035Z" fill="#000" stroke-width="0"/>
  <path d="M16.8374,14.6123l2.1626.27051v1.11718c0,.78654.90056,1.26604,1.55469.83204l6-4c.27832-.18555.44531-.49805.44531-.83203s-.16699-.64648-.44531-.83203l-5.99995-3.99997c-.64767-.43178-1.55474.05685-1.55474.832v1h-2.67529c-4.21387,0-7.94092,2.68555-9.27344,6.68359-.13818.41504.00928.87207.36426,1.12793.17432.12598.37939.18848.58447.18848.21143,0,.42236-.06641.6001-.2002,2.37061-1.77734,5.29395-2.55469,8.2373-2.1875ZM10.73242,13.37012c1.43213-1.48242,3.43164-2.37012,5.59229-2.37012h3.67529c.55225,0,1-.44727,1-1v-.13184l3.19727,2.13184-3.19727,2.13184v-.13184c0-.50391-.37549-.92969-.87598-.99219l-3.03857-.37988c-.56104-.07031-1.12158-.10449-1.67871-.10449-1.60645,0-3.18604.28809-4.67432.84668Z" fill="#000" stroke-width="0"/>
  <path d="M56.58496,47.18848c-.35352-.25586-.83594-.25195-1.18457.01172-2.37012,1.77734-5.2959,2.55664-8.2373,2.1875l-2.16309-.27051v-1.11719c0-.36914-.20312-.70801-.52832-.88184-.32422-.17383-.71973-.15332-1.02637.0498l-5.99998,3.99999c-.58446.38964-.58349,1.2751-.00002,1.66408l5.99995,3.99997c.65134.43423,1.55473-.05628,1.55473-.832v-1h2.67578c4.21387,0,7.94043-2.68555,9.27246-6.68359.13867-.41504-.00879-.87207-.36328-1.12793ZM47.67578,53h-3.67578c-.55273,0-1,.44727-1,1v.13184l-3.19727-2.13184,3.19727-2.13184v.13184c0,.50391.37598.92969.87598.99219l3.03906.37988c2.17773.27246,4.34863.01074,6.35254-.74316-1.43164,1.4834-3.43164,2.37109-5.5918,2.37109Z" fill="#000" stroke-width="0"/>
  <circle cx="42" cy="18.5" r="1" fill="#000" stroke-width="0"/>
</svg>