<?xml version="1.0" encoding="UTF-8"?>
<svg id="Outline" xmlns="http://www.w3.org/2000/svg" version="1.1" viewBox="0 0 48 48">
  <path d="M40,8h-3.12836c-.44727-1.72028-1.99969-3-3.85797-3s-3.41071,1.27972-3.85797,3h-10.29773c-.44727-1.72028-1.99969-3-3.85797-3s-3.41071,1.27972-3.85797,3h-3.14203c-1.6543,0-3,1.3457-3,3v29c0,1.6543,1.3457,3,3,3h32c1.6543,0,3-1.3457,3-3V11c0-1.6543-1.3457-3-3-3ZM33.01367,7c.73712,0,1.375.40509,1.72186,1h-3.44373c.34686-.59491.98474-1,1.72186-1ZM15,7c.73712,0,1.375.40509,1.72186,1h-3.44373c.34686-.59491.98474-1,1.72186-1ZM41,40c0,.55176-.44873,1-1,1H8c-.55127,0-1-.44824-1-1V11c0-.55127.44873-1,1-1h3.14203c.44727,1.72028,1.99969,3,3.85797,3,.55225,0,1-.44775,1-1s-.44775-1-1-1c-.73712,0-1.375-.40509-1.72186-1h15.87756c.44727,1.72028,1.99969,3,3.85797,3,.55225,0,1-.44775,1-1s-.44775-1-1-1c-.73712,0-1.375-.40509-1.72186-1h8.70819c.55127,0,1,.44873,1,1v29Z" fill="#000" stroke-width="0"/>
  <path d="M38,15H10c-.55225,0-1,.44775-1,1v22c0,.55273.44775,1,1,1h28c.55225,0,1-.44727,1-1v-22c0-.55225-.44775-1-1-1ZM37,37H11v-20h26v20Z" fill="#000" stroke-width="0"/>
  <path d="M13,28h3c.55225,0,1-.44727,1-1s-.44775-1-1-1h-2v-2h2c.55225,0,1-.44775,1-1s-.44775-1-1-1h-2v-2h2c.55225,0,1-.44775,1-1s-.44775-1-1-1h-3c-.55225,0-1,.44775-1,1v8c0,.55273.44775,1,1,1Z" fill="#000" stroke-width="0"/>
  <path d="M19.64893,27.93652c.51166.18994,1.09564-.07434,1.2876-.58496l.56348-1.50269s.56287,1.5011.56348,1.50269c.18237.48639.79254.7688,1.2876.58496.51709-.19434.7793-.77051.58545-1.28809l-1.36823-3.64844,1.36823-3.64893c.19385-.51709-.06836-1.09326-.58545-1.2876-.51562-.19141-1.09277.06836-1.2876.58545l-.56348,1.5025-.56348-1.5025c-.19434-.51709-.76953-.77686-1.2876-.58545-.51709.19434-.7793.77051-.58545,1.2876l1.36829,3.64893-1.36829,3.64844c-.19385.51758.06836,1.09375.58545,1.28809Z" fill="#000" stroke-width="0"/>
  <path d="M27,28c.55225,0,1-.44727,1-1v-8c0-.55225-.44775-1-1-1s-1,.44775-1,1v8c0,.55273.44775,1,1,1Z" fill="#000" stroke-width="0"/>
  <path d="M31,20h1v7c0,.55273.44775,1,1,1s1-.44727,1-1v-7h1c.55225,0,1-.44775,1-1s-.44775-1-1-1h-4c-.55225,0-1,.44775-1,1s.44775,1,1,1Z" fill="#000" stroke-width="0"/>
  <path d="M24.58594,32h-3.58594c-.55225,0-1,.44727-1,1s.44775,1,1,1h3.58594l-.29297.29297c-.39062.39062-.39062,1.02338-.00006,1.414.3736.3736,1.02545.38873,1.41412.00006l2-2c.39062-.39062.39062-1.02344,0-1.41406l-2-2c-.39062-.39062-1.02344-.39062-1.41406,0s-.39062,1.02344,0,1.41406l.29297.29297Z" fill="#000" stroke-width="0"/>
</svg>