<?xml version="1.0" encoding="UTF-8"?>
<svg xmlns="http://www.w3.org/2000/svg" version="1.1" viewBox="0 0 64 64">
  <!-- Generator: Adobe Illustrator 28.7.1, SVG Export Plug-In . SVG Version: 1.2.0 Build 142)  -->
  <g>
    <g id="Outline">
      <g>
        <path d="M56,47c.54999,0,1-.45001,1-1v-16c0-.54999-.45001-1-1-1h-1v-6c0-.40002-.23999-.77002-.62-.92004-.37-.15997-.79999-.06995-1.09003.21002l-5.28998,5.29999v-4.58997c0-.40002-.23999-.77002-.62-.92004-.37-.15997-.79999-.06995-1.09003.21002l-5.28998,5.29999v-4.58997c0-.40002-.23999-.77002-.62-.92004-.37-.15997-.79999-.06995-1.09003.21002l-6.69995,6.71002h-12.59003v-2h1c.54999,0,1-.45001,1-1v-4c0-.54999-.45001-1-1-1h-10c-.54999,0-1,.45001-1,1v4c0,.54999.45001,1,1,1h1v2h-4c-.54999,0-1,.45001-1,1v26c0,.54999.45001,1,1,1h48c.54999,0,1-.45001,1-1v-2c0-.54999-.45001-1-1-1s-1,.45001-1,1v1h-2v-11c0-.54999-.45001-1-1-1h-18c-.54999,0-1,.45001-1,1v11H9v-24h24c.27002,0,.52002-.10999.71002-.29004l5.28998-5.29999v4.59003c0,.39996.23999.76996.62.91998.37.15997.79999.07001,1.09003-.21002l5.28998-5.29999v4.59003c0,.39996.23999.76996.62.91998.37.15997.79999.07001,1.09003-.21002l5.28998-5.29999v4.59003c0,.54999.45001,1,1,1h1v2h-21c-.54999,0-1,.45001-1,1v6c0,.54999.45001,1,1,1h21v5c0,.54999.45001,1,1,1ZM35,45h16v2h-16v-2ZM35,49h16v2h-16v-2ZM35,53h16v2h-16v-2ZM12,23h8v2h-8v-2ZM18,29h-4v-2h4v2ZM40,39h-5v-4h5v4ZM48,39h-6v-4h6v4ZM50,39v-4h5v4h-5Z"/>
        <path d="M14,19c.55273,0,1-.44727,1-1v-4c0-1.6543,1.3457-3,3-3h3.18359c.42285,0,.80078-.2666.94238-.66504.2832-.79883,1.03711-1.33496,1.87402-1.33496.89355,0,1.68359.60938,1.91992,1.48145.07422.27539.26367.50586.51953.63379.25488.12695.55273.1377.81836.03223.48633-.19531.99805-.19531,1.48438,0,.26562.10547.56348.09473.81836-.03223.25586-.12793.44531-.3584.51953-.63379.23633-.87207,1.02637-1.48145,1.91992-1.48145.84277,0,1.59766.54102,1.87793,1.34668.14551.41797.51855.69043.99316.66992.05664-.00293.11133-.00977.12891-.0166.62695,0,1.20605.28613,1.58789.78418.38867.50684.50781,1.14062.33496,1.78613-.15039.56152-.59277,1.05078-1.15332,1.27539-.50879.20215-1.01758.20703-1.51074.00684-.26465-.10547-.56445-.09473-.81934.03223-.25586.12793-.44531.3584-.51953.63379-.23633.87207-1.02637,1.48145-1.91992,1.48145-.84277,0-1.59766-.54102-1.87793-1.34668-.14551-.41797-.53418-.70215-.99316-.66992-.05664.00293-.11133.00977-.12891.0166-.24902,0-.49902-.0498-.74219-.14746-.26562-.10547-.56348-.09473-.81836.03223-.25586.12793-.44531.3584-.51953.63379-.23633.87207-1.02637,1.48145-1.91992,1.48145-.83691,0-1.59082-.53613-1.87402-1.33496-.1416-.39844-.51953-.66504-.94238-.66504h-.18359c-1.6543,0-3,1.3457-3,3,0,.55273.44727,1,1,1s1-.44727,1-1c0-.40918.24609-.76074.59863-.91602.7168,1.17188,1.99902,1.91602,3.40137,1.91602,1.45703,0,2.77539-.80176,3.47168-2.03613.02051.00293.04102.00586.06055.00781.70117,1.23633,2.01855,2.02832,3.46777,2.02832,1.45703,0,2.77539-.80176,3.47168-2.03516.67871.08984,1.36914.00586,2.04004-.26172,1.15332-.46191,2.0293-1.44043,2.34277-2.61621.333-1.24023.08496-2.52344-.67969-3.51953-.66797-.87109-1.63672-1.41699-2.70801-1.54102-.70117-1.23535-2.01855-2.02637-3.4668-2.02637-1.45703,0-2.77539.80176-3.47168,2.03613-.34961-.04883-.70703-.04883-1.05664,0-.69629-1.23438-2.01465-2.03613-3.47168-2.03613-1.43555,0-2.74609.78027-3.45117,2h-2.54883c-2.75684,0-5,2.24316-5,5v4c0,.55273.44727,1,1,1Z"/>
        <path d="M18.05176,37.68359l-2,6c-.10254.30469-.05078.64062.13672.90137.18848.26074.49023.41504.81152.41504h1.71875l-.68848,2.75781c-.11328.44922.09863.91797.51075,1.13087.40729.21047.92146.11012,1.21776-.23829l6-7c.25488-.2959.3125-.71387.14941-1.06836s-.51758-.58203-.9082-.58203h-1.6123l.56055-1.68359c.10254-.30469.05078-.64062-.13672-.90137-.18848-.26074-.49023-.41504-.81152-.41504h-4c-.43066,0-.81251.27539-.94824.68359ZM21.6123,39l-.56055,1.68359c-.10254.30469-.05078.64062.13672.90137.18848.26074.49023.41504.81152.41504h.82617l-1.83594,2.1416c.03809-.26758-.03418-.54102-.20215-.75684-.18945-.24316-.48047-.38477-.78809-.38477h-1.6123l1.33301-4h1.8916Z"/>
        <path d="M11,43c0,5.51367,4.48633,10,10,10s10-4.48633,10-10-4.48633-10-10-10-10,4.48633-10,10ZM29,43c0,4.41113-3.58887,8-8,8s-8-3.58887-8-8,3.58887-8,8-8,8,3.58887,8,8Z"/>
        <circle cx="56" cy="50" r="1"/>
      </g>
    </g>
  </g>
</svg>