<?xml version="1.0" encoding="UTF-8"?>
<svg xmlns="http://www.w3.org/2000/svg" version="1.1" viewBox="0 0 64 64">
  <!-- Generator: Adobe Illustrator 28.7.1, SVG Export Plug-In . SVG Version: 1.2.0 Build 142)  -->
  <g>
    <g id="Outline">
      <g>
        <path d="M48.25121,9.28147c-.75777-.68686-1.77928-1.08261-2.83122-.98149l-6.13.62c-.44-1.12-1.51996-1.91998-2.78998-1.91998h-6c-1.27002,0-2.34998.79999-2.78998,1.91998l-6.13-.61999c-2.14308-.21675-4.08,1.55677-4.08002,3.69998-.00002,2.17535,1.9294,3.87835,4.08002,3.70004l6.13-.62006c.44,1.12006,1.51996,1.92004,2.78998,1.92004v2h-3c-.54999,0-1,.45001-1,1v3h-5v-3c0-.54999-.45001-1-1-1h-3v-1c0-.54999-.45001-1-1-1h-4c-.54999,0-1,.45001-1,1v18c0,.54999.45001,1,1,1h4c.54999,0,1-.45001,1-1v-1h3c.54999,0,1-.45001,1-1v-3h16v5c0,.54999.45001,1,1,1h6c.54999,0,1-.45001,1-1v-12c0-.54999-.45001-1-1-1h-4v-3c0-.54999-.45001-1-1-1h-3v-2c1.27002,0,2.34998-.79999,2.78998-1.92004,0,0,6.11858.6189,6.13004.62006,3.42104.34585,5.36387-4.12284,2.83119-6.41854ZM27.5,13.09998l-6.10994.60998c-.96892.09673-1.88992-.70744-1.89006-1.7097-.00013-.9188.79074-1.72028,1.71002-1.72029.06,0,.12.01001.17999.01001l6.10999.60999v2.20001ZM15.5,35h-2v-16h2v16ZM19.5,33h-2v-12h2v12ZM43.5,25v10h-4v-5c0-.54999-.45001-1-1-1h-17v-4h22ZM38.5,21v2h-10v-2h10ZM32.5,19v-2h2v2h-2ZM37.5,14c0,.54999-.45001,1-1,1h-6c-.54999,0-1-.45001-1-1v-4c0-.54999.45001-1,1-1h6c.54999,0,1,.45001,1,1v4ZM46.93197,13.26096c-.34866.31358-.82299.48977-1.32199.449l-6.10999-.60999v-2.20001l6.10996-.60998c.99193-.09903,1.88992.72096,1.89004,1.70983.00006.50381-.22215.95008-.56803,1.26116Z"/>
        <path d="M40.67725,39.43164c-.65479.94775-2.17725,3.29004-2.17725,4.56836,0,1.6543,1.3457,3,3,3s3-1.3457,3-3c0-1.27832-1.52246-3.62061-2.17725-4.56836-.37305-.54102-1.27246-.54102-1.64551,0ZM41.5,45c-.55127,0-1-.44873-1-.99902.0083-.30566.42383-1.17676,1-2.14746.57568.97021.9917,1.84131,1,2.14746-.00049.55078-.44873.99902-1,.99902Z"/>
        <path d="M40.67725,49.43164c-.65479.94775-2.17725,3.29004-2.17725,4.56836,0,1.6543,1.3457,3,3,3s3-1.3457,3-3c0-1.27832-1.52246-3.62061-2.17725-4.56836-.37305-.54102-1.27246-.54102-1.64551,0ZM41.5,55c-.55127,0-1-.44873-1-.99902.0083-.30566.42383-1.17676,1-2.14746.57568.97021.9917,1.84131,1,2.14746-.00049.55078-.44873.99902-1,.99902Z"/>
        <path d="M50.32275,43.43164c-.37305-.54102-1.27246-.54102-1.64551,0-.65479.94775-2.17725,3.29004-2.17725,4.56836,0,1.6543,1.3457,3,3,3s3-1.3457,3-3c0-1.27832-1.52246-3.62061-2.17725-4.56836ZM49.5,49c-.55127,0-1-.44873-1-.99902.0083-.30566.42383-1.17676,1-2.14746.57568.97021.9917,1.84131,1,2.14746-.00049.55078-.44873.99902-1,.99902Z"/>
        <path d="M33.67725,43.43164c-.65479.94775-2.17725,3.29004-2.17725,4.56836,0,1.6543,1.3457,3,3,3s3-1.3457,3-3c0-1.27832-1.52246-3.62061-2.17725-4.56836-.37305-.54102-1.27246-.54102-1.64551,0ZM34.5,49c-.55127,0-1-.44873-1-.99902.0083-.30566.42383-1.17676,1-2.14746.57568.97021.9917,1.84131,1,2.14746-.00049.55078-.44873.99902-1,.99902Z"/>
      </g>
    </g>
  </g>
</svg>