<?xml version="1.0" encoding="UTF-8"?>
<svg xmlns="http://www.w3.org/2000/svg" version="1.1" viewBox="0 0 64 64">
  <!-- Generator: Adobe Illustrator 28.7.1, SVG Export Plug-In . SVG Version: 1.2.0 Build 142)  -->
  <g>
    <g id="Outline">
      <g>
        <path d="M32,7c-4.45605,0-8.83301,1.19238-12.65771,3.44824-.47607.28027-.63428.89355-.35352,1.36914.28027.47559.89453.63281,1.36914.35352,3.51758-2.07422,7.54346-3.1709,11.64209-3.1709,12.68213,0,23,10.31738,23,23s-10.31787,23-23,23-23-10.31738-23-23c0-5.46387,1.95361-10.75879,5.50049-14.91016.35889-.41992.30908-1.05078-.11084-1.40918-.41797-.35938-1.05127-.30957-1.40967.11035-3.85645,4.5127-5.97998,10.26855-5.97998,16.20898,0,13.78516,11.21484,25,25,25s25-11.21484,25-25S45.78516,7,32,7Z"/>
        <path d="M32,13c10.47656,0,19,8.52344,19,19,0,.55273.44775,1,1,1s1-.44727,1-1c0-11.5791-9.42041-21-21-21-.55225,0-1,.44727-1,1s.44775,1,1,1Z"/>
        <path d="M13,32c0-.55273-.44775-1-1-1s-1,.44727-1,1c0,11.5791,9.42041,21,21,21,.55225,0,1-.44727,1-1s-.44775-1-1-1c-10.47656,0-19-8.52344-19-19Z"/>
        <path d="M18.15186,35.15234c0,7.63574,6.2124,13.84766,13.84814,13.84766s13.84814-6.21191,13.84814-13.84766c0-2.8623-1.82764-7.90918-3.99121-11.01953-.22363-.32129-.6167-.48828-1.00098-.41211-.38623.07031-.69482.36035-.79004.74121-.48096,1.92383-1.77979,3.49512-3.54199,4.33008.51367-3.8125-.31641-7.74609-2.36719-11.02734l-1.43359-2.29492c-.15967-.25488-.42627-.4248-.72559-.46191-.30322-.03711-.59961.06348-.81641.27246-2.17578,2.0957-13.0293,12.90625-13.0293,19.87207ZM31.68652,17.58594l.77393,1.23926c2.0874,3.33887,2.73633,7.44531,1.78125,11.2666-.08838.35352.02295.72754.29053.97559.26807.24707.64893.3291.99561.21582l.8833-.29492c2.10156-.7002,3.80713-2.15527,4.82568-4.04883,1.5791,2.89355,2.61133,6.38184,2.61133,8.21289,0,6.5332-5.31494,11.84766-11.84814,11.84766s-11.84814-5.31445-11.84814-11.84766c0-4.79297,6.87695-12.91309,11.53467-17.56641Z"/>
        <path d="M17.21588,14.38098c.4231-.35504.47827-.98578.12323-1.40887-.35498-.42303-.98572-.47821-1.40881-.12323-.42303.35498-.47827.98578-.12323,1.40881.35498.4231.98572.47827,1.40881.12329Z"/>
      </g>
    </g>
  </g>
</svg>