<?xml version="1.0" encoding="UTF-8"?>
<svg id="Outline" xmlns="http://www.w3.org/2000/svg" version="1.1" viewBox="0 0 48 48">
  <path d="M40.97998,11.21997c.13264-.59428-.30704-1.15869-.89996-1.21997l-9.89001-.76001c-2.25-.16998-4.45001.34998-6.38,1.51001-1.37.82001-2.92999,1.25-4.52002,1.25h-8.28998v-1.17999c1.15997-.42004,2-1.52002,2-2.82001,0-1.65002-1.34998-3-3-3s-3,1.34998-3,3c0,1.29999.84003,2.39996,2,2.82001v26.17999h-2c-.54999,0-1,.45001-1,1v4c0,.54999.45001,1,1,1h6c.54999,0,1-.45001,1-1v-4c0-.54999-.45001-1-1-1h-2v-5h8.28998c1.95001,0,3.87-.53003,5.55005-1.54004,1.56995-.94,3.37-1.35999,5.19-1.21997l9.8899.76001c.66929.05143,1.18473-.57584,1.06005-1.22003l-1.95996-8.77997s1.95565-8.7607,1.95996-8.78003ZM12,39v2h-4v-2h4ZM10,9c-.54999,0-1-.45001-1-1s.45001-1,1-1,1,.45001,1,1-.45001,1-1,1ZM38.72998,27.89996l-8.53998-.65997c-2.25-.16998-4.45001.34998-6.38,1.51001-1.37.82001-2.92999,1.25-4.52002,1.25h-8.28998V14h8.28998c1.95001,0,3.87-.53003,5.55005-1.54004,1.56995-.94,3.37-1.35999,5.19-1.21997l8.73999.66998-1.75,7.87c-.03003.15002-.03003.29004,0,.44l1.70996,7.67999Z" fill="#000" stroke-width="0"/>
  <path d="M33.71191,15.00586l-.96875-.15625s-.44727-.87207-.44824-.87207c-.25-.48828-.74609-.79102-1.29492-.79102s-1.0459.30273-1.29492.79102l-.44824.87207-.96777.15625c-.54199.08691-.9834.46484-1.15332.98633-.16992.52246-.03418,1.08789.35254,1.47656l.69238.69629-.15137.96777c-.08496.54102.1377,1.07812.58105,1.40137.44336.32422,1.02246.37012,1.51465.12305l.875-.44336.87695.44336c.47041.23783,1.06855.20028,1.5127-.12305.44336-.32324.66602-.86035.58105-1.39941l-.15137-.96973.69141-.69531c.3877-.38965.52344-.95508.35352-1.47754-.16992-.52148-.61133-.89941-1.15234-.98633ZM32.04492,17.11328c-.22461.22559-.32812.54395-.2793.8584l.06543.4209s-.3789-.19238-.37891-.19239c-.28209-.14359-.62255-.14225-.90429,0l-.37891.19238.06543-.4209c.04883-.31445-.05469-.63281-.2793-.8584l-.2998-.30176.41992-.06738c.31348-.05078.58496-.24805.73047-.53125l.19434-.37793.19434.37793c.14551.2832.41699.48047.73047.53125l.41992.06738-.2998.30176Z" fill="#000" stroke-width="0"/>
</svg>