<?xml version="1.0" encoding="UTF-8"?>
<svg id="Outline" xmlns="http://www.w3.org/2000/svg" version="1.1" viewBox="0 0 64 64">
  <path d="M35.16672,7.50208c-12.13086,0-22,9.86914-22,22s9.86914,22,22,22,22-9.86914,22-22S47.29758,7.50208,35.16672,7.50208ZM20.88248,26.86347l4.51318.92188,3.14813,9.68951-1.60974,4.20654-7.00916.73895c-2.5741-3.03235-4.26416-6.83344-4.66156-11.0108l5.61914-4.54608ZM15.19773,28.8902c.0943-3.09332.88483-6.01068,2.23486-8.59912l1.98999,5.18073-4.22485,3.4184ZM27.02903,43.68274l2.19171,4.91669c-2.83301-.88391-5.38214-2.39868-7.52148-4.35474l5.32977-.56195ZM30.33078,36.50208l-2.98828-9.19824,7.82422-5.68506,7.82422,5.68506-2.98828,9.19824h-9.67188ZM43.30442,43.68274l5.32977.56195c-2.13934,1.95605-4.68848,3.47083-7.52148,4.35474l2.19171-4.91669ZM43.39939,41.6814l-1.60974-4.20654,3.15179-9.70068,4.07654-.90515,6.01587,4.86725c-.45264,4.04871-2.11865,7.73126-4.62531,10.68408l-7.00916-.73895ZM50.47092,25.4718l2.17505-5.66479c1.5639,2.80817,2.46747,6.02808,2.50854,9.45447l-4.68359-3.78967ZM51.30039,17.73181l-2.76294,7.1955-4.14722.92084-8.22351-5.97485v-4.74164l5.98035-4.34766c3.69165,1.38165,6.86261,3.81683,9.15332,6.94781ZM39.75089,10.0531l-4.58417,3.33276-4.58417-3.33276c1.47485-.34778,3.00464-.55103,4.58417-.55103s3.10931.20325,4.58417.55103ZM28.18638,10.784l5.98035,4.34766v4.74164l-8.23132,5.98059-4.58313-.93622-2.6106-6.79639c2.30847-3.32123,5.59863-5.89783,9.4447-7.33728ZM31.66776,49.17566l-2.93787-6.59045,1.5625-4.08313h9.74866l1.5625,4.08313-2.93787,6.59045c-1.13837.20209-2.30347.32642-3.49896.32642s-2.3606-.12433-3.49896-.32642Z" style="fill: #000; stroke-width: 0px;"/>
  <circle cx="8.33341" cy="55.1687" r="1" style="fill: #000; stroke-width: 0px;"/>
  <path d="M17.37375,46.29505c-.39062-.39062-1.02344-.39062-1.41406,0l-5.5,5.5c-.39062.39062-.39062,1.02344.00002,1.41408.38753.38752,1.02772.38632,1.41405-.00002l5.5-5.5c.39062-.39062.39062-1.02344,0-1.41406Z" style="fill: #000; stroke-width: 0px;"/>
  <path d="M18.88743,50.6427c-.38232-.39941-1.01562-.41016-1.41357-.02783l-4.3335,4.1665c-.39837.38275-.41064,1.01543-.02801,1.41339.35715.37146,1.01989.407,1.41375.02802l4.3335-4.1665c.39844-.38281.41064-1.01562.02783-1.41357Z" style="fill: #000; stroke-width: 0px;"/>
  <path d="M8.5261,50.22278l4.3335-4.1665c.39844-.38281.41064-1.01562.02783-1.41357-.38184-.39893-1.01514-.40967-1.41357-.02783l-4.3335,4.1665c-.39838.38276-.41064,1.01546-.02798,1.41342.3571.37138,1.02072.40614,1.41373.02799Z" style="fill: #000; stroke-width: 0px;"/>
  <path d="M7.83352,44.49232c.24972.0011.50148-.08567.69257-.26954l4.3335-4.1665c.39844-.38281.41064-1.01562.02783-1.41357-.38184-.39844-1.01514-.41016-1.41357-.02783l-4.33346,4.16647c-.62094.59701-.19711,1.70704.69314,1.71098Z" style="fill: #000; stroke-width: 0px;"/>
  <path d="M23.47385,50.61487l-4.3335,4.1665c-.39839.38277-.41064,1.01549-.02796,1.41344.37863.39375,1.02214.40472,1.4137.02796l4.3335-4.1665c.39844-.38281.41064-1.01562.02783-1.41357-.38281-.39941-1.01514-.41016-1.41357-.02783Z" style="fill: #000; stroke-width: 0px;"/>
</svg>