<?xml version="1.0" encoding="UTF-8"?>
<svg id="Outline" xmlns="http://www.w3.org/2000/svg" version="1.1" viewBox="0 0 64 64">
  <path d="M38.67399,10.90428c-1.57227-.18359-3.41504-.43164-5.1709-.88672l-11.28906-2.92676c-.53418-.14355-1.08105.18262-1.21875.7168-.13867.53418.18262,1.08008.7168,1.21875l2.32416.60254,2.23541,4.4873c.17569.35041.52894.55351.89593.55371.73258.00041,1.21897-.79465.89508-1.44629l-1.45923-2.92914,6.39771,1.65863c1.87305.48633,3.80176.74707,5.44043.9375,9.44043,1.09961,16.55859,9.10254,16.55859,18.61426,0,9.5127-7.11816,17.51562-16.55664,18.61523-2.05371.23828-4.20117.75293-6.75977,1.61816l-5.30658,1.7959,1.69232-3.54492c.23828-.49805.02734-1.09473-.47168-1.33301-.49805-.23926-1.09473-.02734-1.33301.47168l-2.53052,5.30066-2.01733.68274c-.52341.17675-.80368.74505-.62698,1.26749.16366.48388.76229.79857,1.26761.62704l9.9668-3.37305c2.42188-.81934,4.43945-1.30469,6.35059-1.52637,10.44727-1.2168,18.3252-10.07422,18.3252-20.60156s-7.87891-19.38379-18.32617-20.60059Z" style="fill: #000; stroke-width: 0px;"/>
  <path d="M34.9445,48.24607c9.23145,0,16.74121-7.50977,16.74121-16.74121,0-9.23047-7.50977-16.74023-16.74121-16.74023s-16.74121,7.50977-16.74121,16.74023c0,9.23145,7.50977,16.74121,16.74121,16.74121ZM22.84587,28.39744l-2.59161,2.10101c.12769-1.87531.60577-3.65149,1.37225-5.27063l1.21936,3.16962ZM24.2982,29.7946l3.12915.63953,2.28802,7.04102-1.11816,2.92151-4.98553.52118c-1.81647-2.18317-3.01562-4.89612-3.32642-7.87042l4.01294-3.25281ZM34.9445,25.90623l5.57031,4.04688-2.12793,6.54883h-6.88477l-2.12793-6.54883,5.57031-4.04688ZM42.46495,30.42399l2.80377-.62286,4.29877,3.48303c-.34882,2.88031-1.52258,5.50916-3.29004,7.63348l-4.98572-.52112-1.1181-2.92139,2.29132-7.05115ZM46.71403,28.39744l1.36407-3.5517c.9151,1.79712,1.46576,3.80353,1.57062,5.92908l-2.93469-2.37738ZM41.19841,42.39744l3.26807.34113c-1.34552,1.14227-2.89978,2.03839-4.59418,2.64221l1.32611-2.98334ZM28.69157,42.39744l1.32629,2.98376c-1.69476-.60376-3.24939-1.5-4.59515-2.64252l3.26886-.34125ZM32.49327,46.025l-2.10095-4.72516,1.07086-2.79791h6.96265l1.07135,2.79907-2.1004,4.72382c-.79944.13477-1.61511.22125-2.45227.22125-.83679,0-1.65216-.08643-2.45123-.22107ZM46.75261,22.71855l-1.9754,5.14233-2.8642.63623-5.96851-4.33636v-3.30597l4.27222-3.09869c2.62299,1.0094,4.88068,2.7442,6.53589,4.96246ZM37.7899,17.046l-2.84833,2.06628-2.84344-2.06616c.92181-.18115,1.87231-.28149,2.84637-.28149.97375,0,1.92389.10034,2.8454.28137ZM29.67326,17.75572l4.27124,3.10388v3.30115l-5.97742,4.34283-3.18762-.65143-1.86206-4.84094c1.67181-2.3598,4.01691-4.20166,6.75586-5.25549Z" style="fill: #000; stroke-width: 0px;"/>
  <path d="M16.99932,25.93876c.96518-.00926,1.37025-1.2804.55553-1.82355l-3.26593-2.17731c-.92371-5.10254-2.74243-10.02338-5.43134-14.50531-.28418-.47266-.89746-.62793-1.37207-.34277-.47363.28418-.62695.89844-.34277,1.37207,2.22266,3.70496,3.81671,7.72626,4.78107,11.89929l-3.36896-2.24597c-.46191-.30664-1.08105-.18262-1.38672.27734-.30664.45996-.18262,1.08008.27734,1.38672l5.01837,3.34558c.34192,2.13806.53632,4.30353.53632,6.4845v1.33789h-5c-.55273,0-1,.44727-1,1s.44727,1,1,1h5v1.33789c0,2.18097-.1944,4.34644-.53632,6.4845l-5.01837,3.34558c-.4599.3066-.58395.92658-.27747,1.38652.28189.42304.93893.57444,1.38685.27754l3.36896-2.24597c-.96436,4.17303-2.55841,8.19434-4.78107,11.89929-.28417.47362-.13086,1.08787.34275,1.37206.44828.26898,1.08563.13468,1.3721-.34276,2.6889-4.48193,4.50763-9.40277,5.43134-14.50531l3.26593-2.17731c.45996-.30664.58398-.92676.27734-1.38672-.30566-.45996-.92676-.58398-1.38672-.27734l-1.75665,1.17114c.19366-1.65607.31134-3.32397.31134-5.00122v-1.33789h1c.55273,0,1-.44727,1-1s-.44727-1-1-1h-1v-1.33789c0-1.67725-.11768-3.34515-.31134-5.00122l1.75665,1.17114c.16338.10892.35809.16131.55385.15949Z" style="fill: #000; stroke-width: 0px;"/>
</svg>