<?xml version="1.0" encoding="UTF-8"?>
<svg id="Outline" xmlns="http://www.w3.org/2000/svg" version="1.1" viewBox="0 0 64 64">
  <path d="M18,47c-1.6543,0-3,1.3457-3,3s1.3457,3,3,3,3-1.3457,3-3-1.3457-3-3-3ZM18,51c-.55127,0-1-.44824-1-1s.44873-1,1-1,1,.44824,1,1-.44873,1-1,1Z" fill="#000" stroke-width="0"/>
  <path d="M56,30h-1v-5c0-.54999-.45001-1-1-1h-6c-.54999,0-1,.45001-1,1v5h-2v-13c0-.54999-.45001-1-1-1s-1,.45001-1,1v20h-3.28003l-9.31995-27.95001c-.40002-1.22998-1.55005-2.04999-2.84003-2.04999h-8.56c-1.65002,0-3,1.34998-3,3v21h-6c-1.65002,0-3,1.34998-3,3v12c0,1.64996,1.34998,3,3,3h1.08002c-.04999.32996-.08002.65997-.08002,1,0,3.85999,3.14001,7,7,7s7-3.14001,7-7c0-.34003-.03003-.67004-.08002-1h15.11005c-.64001.83997-1.03003,1.87-1.03003,3,0,2.76001,2.23999,5,5,5s5-2.23999,5-5c0-2.41003-1.71997-4.42999-4-4.90002v-15.09998h11c.54999,0,1-.45001,1-1s-.45001-1-1-1ZM18,10c0-.54999.45001-1,1-1h8.56c.42999,0,.81.26996.95001.67999l9.09998,27.32001h-2.79999c-1.48999,0-2.89001-.66003-3.84003-1.79999l-1.39996-1.68005c-1.34003-1.59998-3.29999-2.51996-5.38-2.51996h-6.19V10ZM18,55c-2.76001,0-5-2.23999-5-5s2.23999-5,5-5,5,2.23999,5,5-2.23999,5-5,5ZM24.31,47c-1.12-2.35999-3.52002-4-6.31-4s-5.19,1.64001-6.31,4h-1.69c-.54999,0-1-.45001-1-1v-12c0-.54999.45001-1,1-1h14.19c1.48999,0,2.89001.65997,3.84003,1.79999l1.39996,1.67999c1.34003,1.59998,3.29999,2.52002,5.38,2.52002h8.19v8h-18.69ZM47,52c0,1.64996-1.34998,3-3,3s-3-1.35004-3-3,1.34998-3,3-3,3,1.34998,3,3ZM53,30h-4v-4h4v4Z" fill="#000" stroke-width="0"/>
  <circle cx="44" cy="52" r="1" fill="#000" stroke-width="0"/>
  <path d="M40,41c-.55225,0-1,.44727-1,1v2c0,.55273.44775,1,1,1s1-.44727,1-1v-2c0-.55273-.44775-1-1-1Z" fill="#000" stroke-width="0"/>
  <path d="M36,41c-.55225,0-1,.44727-1,1v2c0,.55273.44775,1,1,1s1-.44727,1-1v-2c0-.55273-.44775-1-1-1Z" fill="#000" stroke-width="0"/>
  <path d="M32,41c-.55225,0-1,.44727-1,1v2c0,.55273.44775,1,1,1s1-.44727,1-1v-2c0-.55273-.44775-1-1-1Z" fill="#000" stroke-width="0"/>
  <path d="M24,35h-12c-.55225,0-1,.44727-1,1v4c0,.55273.44775,1,1,1h12c.55225,0,1-.44727,1-1v-4c0-.55273-.44775-1-1-1ZM23,39h-10v-2h10v2Z" fill="#000" stroke-width="0"/>
</svg>