<?xml version="1.0" encoding="UTF-8"?>
<svg xmlns="http://www.w3.org/2000/svg" version="1.1" viewBox="0 0 48 48">
  <!-- Generator: Adobe Illustrator 28.7.1, SVG Export Plug-In . SVG Version: 1.2.0 Build 142)  -->
  <g>
    <g id="Outline">
      <g>
        <path d="M40,27c.62109,0,1.06641.2832,1.33105.52148.29395.26465.7168.33105,1.07568.16992.36084-.16016.59326-.51855.59326-.91309v-8.77832c0-1.6543-1.3457-3-3-3h-7.12939c.08545-.32422.12939-.66016.12939-1,0-2.20605-1.79443-4-4-4s-4,1.79395-4,4c0,.33984.04395.67578.12939,1h-2.12939v-7c0-1.6543-1.3457-3-3-3h-2c-.55225,0-1,.44727-1,1s.44775,1,1,1h2c.55127,0,1,.44824,1,1v7h-3c-1.6543,0-3,1.3457-3,3v3h-7c-.55127,0-1-.44824-1-1v-2.12988c.32422.08594.66016.12988,1,.12988,2.20557,0,4-1.79395,4-4s-1.79443-4-4-4c-.33984,0-.67578.04395-1,.12988v-2.12988c0-.55176.44873-1,1-1h2c.55225,0,1-.44727,1-1s-.44775-1-1-1h-2c-1.6543,0-3,1.3457-3,3v3.78027c0,.39551.2334.75391.59473.91406.36328.16016.78418.09375,1.07715-.17285.37061-.33691.84229-.52148,1.32812-.52148,1.10303,0,2,.89746,2,2s-.89697,2-2,2c-.48584,0-.95752-.18457-1.32812-.52148-.29346-.26562-.71484-.33301-1.07715-.17285-.36133.16016-.59473.51855-.59473.91406v3.78027c0,1.6543,1.3457,3,3,3h7v2.12988c-.32471-.08594-.66064-.12988-1-.12988-2.20557,0-4,1.79395-4,4s1.79443,4,4,4c.33936,0,.67529-.04395,1-.12988v7.12988c0,1.6543,1.3457,3,3,3h8.77832c.39502,0,.75293-.23242.91357-.59375.16064-.36035.09375-.78223-.17041-1.0752-.33643-.37402-.52148-.8457-.52148-1.33105,0-1.10254.89697-2,2-2s2,.89746,2,2c0,.48535-.18506.95703-.52148,1.33105-.26416.29297-.33105.71484-.17041,1.0752.16064.36133.51855.59375.91357.59375h8.77832c1.6543,0,3-1.3457,3-3v-8.77832c0-.39453-.23242-.75293-.59326-.91309-.3584-.16113-.78076-.09473-1.07568.16992-.26465.23828-.70996.52148-1.33105.52148-1.10303,0-2-.89746-2-2s.89697-2,2-2ZM40,33c.33936,0,.67529-.04395,1-.12988v7.12988c0,.55176-.44873,1-1,1h-7.12939c.08545-.32422.12939-.66016.12939-1,0-2.20605-1.79443-4-4-4s-4,1.79395-4,4c0,.33984.04395.67578.12939,1h-7.12939c-.55127,0-1-.44824-1-1v-8.77832c0-.39453-.23242-.75293-.59326-.91309-.35889-.16113-.78125-.09473-1.07568.16992-.26465.23828-.70996.52148-1.33105.52148-1.10303,0-2-.89746-2-2s.89697-2,2-2c.62109,0,1.06641.2832,1.33105.52148.29443.26465.71631.33105,1.07568.16992.36084-.16016.59326-.51855.59326-.91309v-8.77832c0-.55176.44873-1,1-1h8.77832c.39502,0,.75293-.23242.91357-.59375.16064-.36035.09375-.78223-.17041-1.0752-.33643-.37402-.52148-.8457-.52148-1.33105,0-1.10254.89697-2,2-2s2,.89746,2,2c0,.48535-.18506.95703-.52148,1.33105-.26416.29297-.33105.71484-.17041,1.0752.16064.36133.51855.59375.91357.59375h8.77832c.55127,0,1,.44824,1,1v7.12988c-.32471-.08594-.66064-.12988-1-.12988-2.20557,0-4,1.79395-4,4s1.79443,4,4,4Z"/>
        <circle cx="14" cy="6" r="1"/>
      </g>
    </g>
  </g>
</svg>