<?xml version="1.0" encoding="UTF-8"?>
<svg xmlns="http://www.w3.org/2000/svg" version="1.1" viewBox="0 0 64 64">
  <!-- Generator: Adobe Illustrator 28.7.1, SVG Export Plug-In . SVG Version: 1.2.0 Build 142)  -->
  <g>
    <g id="Outline">
      <g>
        <path d="M32,11h-8c-.55273,0-1,.44775-1,1s.44727,1,1,1h8c.55273,0,1-.44775,1-1s-.44727-1-1-1Z"/>
        <path d="M34,49c.55273,0,1-.44775,1-1v-22c0-.55225-.44727-1-1-1h-12c-.55273,0-1,.44775-1,1v22c0,.55225.44727,1,1,1h12ZM23,27h10v20h-10v-20Z"/>
        <path d="M52,23h-1v-2c0-.27002-.10999-.52002-.28998-.71002l-2-2c-.39001-.39001-1.03003-.39001-1.42004,0-.38995.39001-.38995,1.03003,0,1.41998l1.71002,1.70001v1.59003h-1c-.54999,0-1,.45001-1,1v6c0,.54999.45001,1,1,1h1v13c0,1.09998-.90002,2-2,2s-2-.90002-2-2v-5c0-1.65002-1.34998-3-3-3h-3v-18c0-1.29999-.84003-2.40002-2-2.82001v-5.17999c0-1.65002-1.34998-3-3-3h-12c-1.65002,0-3,1.34998-3,3v5.17999c-1.15997.41998-2,1.52002-2,2.82001v14c0,.54999.45001,1,1,1s1-.45001,1-1v-9h18v28h-18v-11c0-.54999-.45001-1-1-1s-1,.45001-1,1v11h-5c-.54999,0-1,.45001-1,1v4c0,.54999.45001,1,1,1h32c.54999,0,1-.45001,1-1v-4c0-.54999-.45001-1-1-1h-5v-13h3c.54999,0,1,.45001,1,1v5c0,2.20996,1.78998,4,4,4s4-1.79004,4-4v-13h1c.54999,0,1-.45001,1-1v-6c0-.54999-.45001-1-1-1ZM21,10c0-.54999.45001-1,1-1h12c.54999,0,1,.45001,1,1v5h-14v-5ZM19,21v-3c0-.54999.45001-1,1-1h16c.54999,0,1,.45001,1,1v3h-18ZM43,53v2H13v-2h30ZM51,29h-2v-4h2v4Z"/>
        <path d="M27.17676,33.43164c-.6543.94775-2.17676,3.29004-2.17676,4.56836,0,1.6543,1.3457,3,3,3s3-1.3457,3-3c0-1.27832-1.52246-3.62061-2.17676-4.56836-.375-.54102-1.27148-.54102-1.64648,0ZM28,39c-.55078,0-1-.44824-1-.99902.00879-.30615.4248-1.17725,1-2.14746.57617.9707.99219,1.8418,1,2.14648,0,.55127-.44824,1-1,1Z"/>
        <circle cx="18" cy="36" r="1"/>
      </g>
    </g>
  </g>
</svg>