<?xml version="1.0" encoding="UTF-8"?>
<svg xmlns="http://www.w3.org/2000/svg" version="1.1" viewBox="0 0 64 64">
  <!-- Generator: Adobe Illustrator 28.7.1, SVG Export Plug-In . SVG Version: 1.2.0 Build 142)  -->
  <g>
    <g id="Outline">
      <g>
        <path d="M16.99831,39.0019c0-.53204.03772-1.05621.07574-1.5799l.09515.14044c.19336.28613.5083.43945.8291.43945.19287,0,.38818-.05566.56006-.17188.45703-.30957.57666-.93164.26709-1.38867l-1.58643-2.3418c-.14893-.21973-.37891-.37109-.63916-.42188-.2627-.04883-.53027.00684-.75.1543l-2.34082,1.58594c-.45703.30957-.57666.93164-.26709,1.38867.30957.45801.93066.57715,1.38916.26758l.47607-.32269c-.07141.75812-.10889,1.53711-.10889,2.34515.02979,6.70703,2.89795,13.13965,7.86816,17.64648.19141.17285.43213.25879.67139.25879.27246,0,.54395-.11035.74121-.32812.37109-.40918.34033-1.04199-.06885-1.41309-4.55615-4.12988-7.18457-10.02539-7.21191-16.25879Z"/>
        <path d="M56.99831,39.0019c0-9.92401-8.07404-17.99866-17.99866-17.99988-.00043,0-.00092-.00012-.00134-.00012-.00012,0-.00024.00006-.00037.00006-.00018,0-.00043-.00006-.00061-.00006-9.92529,0-18.00049,8.0752-18.00049,18s8.0752,18,18.00049,18c.00018,0,.00043-.00006.00061-.00006.00012,0,.00024.00006.00037.00006.00043,0,.00092-.00012.00134-.00012,9.92462-.00122,17.99866-8.07587,17.99866-17.99988ZM23.0475,40.0019h5.97797c.07361,2.51825.41986,4.88.99194,7h-4.85559c-1.2099-2.08386-1.95618-4.461-2.11432-7ZM54.94765,38.0019h-5.9765c-.07361-2.51825-.41986-4.88-.99194-7h4.854c1.20996,2.08386,1.9563,4.461,2.11444,7ZM46.97212,38.0019h-6.97382v-7h5.8808c.62244,2.09558,1.01044,4.47693,1.09302,7ZM39.99831,29.0019v-5.85394c2.06427.54279,3.91064,2.72107,5.18799,5.85394h-5.18799ZM37.99831,23.14796v5.85394h-5.18799c1.27734-3.13287,3.12372-5.31116,5.18799-5.85394ZM37.99831,31.0019v7h-6.97382c.08258-2.52307.47058-4.90442,1.09302-7h5.8808ZM29.02547,38.0019h-5.97797c.15814-2.539.90442-4.91614,2.11432-7h4.85559c-.57208,2.12-.91833,4.48175-.99194,7ZM31.02449,40.0019h6.97382v7h-5.8808c-.62244-2.09558-1.01044-4.47693-1.09302-7ZM37.99831,49.0019v5.85394c-2.06427-.54279-3.91064-2.72107-5.18799-5.85394h5.18799ZM39.99831,54.85584v-5.85394h5.18799c-1.27734,3.13287-3.12372,5.31116-5.18799,5.85394ZM39.99831,47.0019v-7h6.97382c-.08258,2.52307-.47058,4.90442-1.09302,7h-5.8808ZM48.97115,40.0019h5.9765c-.15814,2.539-.90448,4.91614-2.11444,7h-4.854c.57208-2.12.91833-4.48175.99194-7ZM51.46822,29.0019h-4.11169c-.71667-1.96143-1.63959-3.64685-2.72174-4.95508,2.70001,1.02142,5.05505,2.74207,6.83344,4.95508ZM33.3625,24.04591c-1.08246,1.30835-2.00555,2.99408-2.72241,4.95599h-4.11334c1.77881-2.21368,4.1347-3.93469,6.83575-4.95599ZM26.52675,49.0019h4.11334c.71686,1.96185,1.63995,3.64771,2.72241,4.95599-2.70105-1.0213-5.05695-2.74231-6.83575-4.95599ZM44.63484,53.95692c1.08215-1.30817,2.005-2.99359,2.72168-4.95502h4.11169c-1.77832,2.21295-4.13336,3.93359-6.83337,4.95502Z"/>
        <path d="M56.03829,19.5619c-.53998-.04004-1.01996.40997-1.03998.95996l-.03003.59003c-.57996-.53003-1.19995-1.03003-1.83997-1.5-4.12-3.02002-9.01001-4.60999-14.13-4.60999-.83002,0-1.65002.06-2.47998.14001l.26001-.20001c.93994-.73999,1.62-1.73999,1.95996-2.89001.35004-1.14001.34003-2.38-.01001-3.52002-.07001-.20001-.19995-.38-.37-.5-1.96997-1.42999-4.57996-1.37-6.48999.14001l-4.69,3.66998c-.02997.02002-.03998.05005-.07001.08002l-6.84998-1.88c-.28003-.08002-.59003-.02997-.84003.14001l-3.85999,2.73999c-.28998.20001-.44.53003-.41998.87.01996.35004.20996.66003.51001.82001l4.73999,2.59003-2.58002,2.02997-7.65002-1.21997c-.25-.04004-.5.01996-.70996.15997l-2,1.32001c-.23004.15002-.38.39001-.42999.65002-.05005.26996.01001.53998.15997.75995l3.58002,5.08002v.01001c1.14996,1.62,2.83002,2.65997,4.75,2.94.33002.04999.65997.07001.98999.07001,1.57001,0,3.08002-.53003,4.35999-1.54004l12.29004-9.65997c1.90997-.53003,3.88-.79999,5.84998-.79999,4.69,0,9.16998,1.45996,12.95001,4.22998.45001.33002.88.69,1.29999,1.04999l-.15002-.01001c-.53998-.02997-1.01996.41003-1.03998.96002-.02002.56.40997,1.02002.96002,1.03998l2.82996.11005h.04004c.52997,0,.96997-.42004.98999-.96002l.12-2.82001c.02002-.56-.40997-1.02002-.96002-1.03998ZM18.01833,13.63191l2.16998-1.54004,7.47998,2.05005-3.56,2.81995-6.08997-3.32996ZM11.78829,23.97187l-2.38-3.38.82001-.53998,5.42999.85999-3.70996,2.94-.16003.12ZM35.5483,13.3719l-15.92999,12.52002c-1.10999.87994-2.46997,1.25995-3.83002,1.06-1.04999-.15002-2.01996-.64001-2.77997-1.39001l9.28998-7.31,1.42999.77997c.15002.09003.32001.13.48004.13.21997,0,.44-.08002.62-.21997l5.63-4.45001c.28998-.23999.42999-.62.35999-.98999-.08002-.37-.35004-.66003-.72003-.76001l-.60999-.16998,3.62-2.82001c1.12-.89001,2.60999-.98999,3.79999-.29004.14001.66003.12006,1.36005-.07996,2.01001-.23004.76001-.67004,1.42004-1.28003,1.90002Z"/>
      </g>
    </g>
  </g>
</svg>