<?xml version="1.0" encoding="UTF-8"?>
<svg xmlns="http://www.w3.org/2000/svg" version="1.1" viewBox="0 0 64 64">
  <!-- Generator: Adobe Illustrator 28.7.1, SVG Export Plug-In . SVG Version: 1.2.0 Build 142)  -->
  <g>
    <g id="Outline">
      <g>
        <path d="M55,51.17999v-3.17999c0-.54999-.45001-1-1-1s-1,.45001-1,1v3h-10v-4h1c2.76001,0,5-2.23999,5-5v-2c0-.54999-.45001-1-1-1h-2c-1.13,0-2.15997.39001-3,1.02997v-2.02997c0-.54999-.45001-1-1-1s-1,.45001-1,1v2.02997c-.84003-.63995-1.87-1.02997-3-1.02997h-2c-.54999,0-1,.45001-1,1v2c0,2.76001,2.23999,5,5,5h1v4h-10v-16h22v9c0,.54999.45001,1,1,1s1-.45001,1-1v-14c0-1.65002-1.34998-3-3-3h-13v-3c0-.54999-.45001-1-1-1h-16c-.54999,0-1,.45001-1,1v12c0,.54999.45001,1,1,1s1-.45001,1-1v-11h14v2h-5c-1.65002,0-3,1.34998-3,3v21h-6v-11c0-.54999-.45001-1-1-1s-1,.45001-1,1v11h-2.06l-1.94-31.06c-.03998-.53003-.46997-.94-1-.94h-4c-.53003,0-.96002.40997-1,.94l-1.95001,31.22998c-1.19.40002-2.04999,1.51001-2.04999,2.83002,0,1.64996,1.34998,3,3,3h44c1.65002,0,3-1.35004,3-3,0-1.29999-.84003-2.40002-2-2.82001ZM43,44c0-1.65002,1.34998-3,3-3h1v1c0,1.64996-1.34998,3-3,3h-1v-1ZM31,30c0-.54999.45001-1,1-1h20c.54999,0,1,.45001,1,1v3h-22v-3ZM40,45c-1.65002,0-3-1.35004-3-3v-1h1c1.65002,0,3,1.34998,3,3v1h-1ZM12.94,21h2.12l1.88,30h-5.88l1.88-30ZM54,55H10c-.54999,0-1-.45001-1-1s.45001-1,1-1h44c.54999,0,1,.45001,1,1s-.45001,1-1,1Z"/>
        <path d="M11,15.17285v.82715c0,.55273.44727,1,1,1s1-.44727,1-1v-1.82031c0-.30273-.13672-.58887-.37207-.77832s-.54395-.26172-.83984-.19922c-.03613.00781-.10547.01758-.22852.01758-.73926,0-1.33984-.59668-1.33984-1.33008,0-.58789.38574-1.09863.95898-1.27246.32031-.09668.57129-.34766.66797-.66797.17188-.56738.67969-.94922,1.26367-.94922.44727,0,.86523.22559,1.11719.60449.18652.28027.54395.46387.83789.44531.33594-.00195.64844-.17285.83203-.4541.47852-.73438,1.72656-.73438,2.20508,0,.18359.28125.49609.45215.83203.4541.36328.00977.65137-.16602.83789-.44531.25195-.37891.66992-.60449,1.11719-.60449.7334,0,1.33008.59668,1.33008,1.33008,0,.08887-.01367.19141-.04492.33203-.08203.36719.04883.74902.33789.98828.30957.25586.4873.62793.4873,1.01953,0,.7334-.59668,1.33008-1.33008,1.33008-.32812,0-.64062-.12207-.87891-.34277-.38477-.35742-.97754-.35645-1.36035-.00098-.16895.15625-.45801.34375-.87109.34375-.5625,0-1.05371-.34473-1.25195-.87793-.12108-.32612-.40324-.56634-.74497-.63376-.66127-.13047-1.56265.63536-1.56265,1.30173v2.20996c0,.55273.44727,1,1,1s1-.44727,1-1v-.3916c.93555.49805,2.15625.51367,3.11035.00098.47461.25488,1.00879.39062,1.55957.39062,1.83594,0,3.33008-1.49414,3.33008-3.33008,0-.79004-.28125-1.54492-.78711-2.14062.00391-.06445.00684-.13086.00684-.19922,0-1.83594-1.49414-3.33008-3.33008-3.33008-.70801,0-1.38477.22461-1.94531.62695-1.11133-.80469-2.77734-.80469-3.88867,0-.56055-.40234-1.2373-.62695-1.94531-.62695-1.29883,0-2.44531.74121-2.99121,1.88867-1.1543.54785-1.89941,1.69824-1.89941,3.00098,0,1.64648,1.2041,3.01758,2.78027,3.2832Z"/>
        <path d="M25,48c0,.55273.44727,1,1,1s1-.44727,1-1v-2c0-.55273-.44727-1-1-1s-1,.44727-1,1v2Z"/>
        <path d="M25,42c0,.55273.44727,1,1,1s1-.44727,1-1v-2c0-.55273-.44727-1-1-1s-1,.44727-1,1v2Z"/>
        <path d="M25,36c0,.55273.44727,1,1,1s1-.44727,1-1v-2c0-.55273-.44727-1-1-1s-1,.44727-1,1v2Z"/>
        <path d="M26,31c.55273,0,1-.44727,1-1v-2c0-.55273-.44727-1-1-1s-1,.44727-1,1v2c0,.55273.44727,1,1,1Z"/>
      </g>
    </g>
  </g>
</svg>