<?xml version="1.0" encoding="UTF-8"?>
<svg id="Outline" xmlns="http://www.w3.org/2000/svg" version="1.1" viewBox="0 0 64 64">
  <path d="M54,41.03v-2c0-10.34003-7.16998-19.20001-17.15997-21.44l.02997-.38c.04999-.82001-.25-1.64001-.81-2.23999-.57001-.59998-1.35999-.94-2.19-.94h-3.73999c-.83002,0-1.62.34003-2.19.94-.56.59998-.85999,1.41998-.81,2.23999l.02997.38c-9.98999,2.23999-17.15997,11.09998-17.15997,21.44v2c-1.65002,0-3,1.34003-3,3v2c0,.45001.31.84998.76001.96997,7.92999,1.98004,16.08002,2.97003,24.23999,2.97003s16.31-.98999,24.23999-2.97003c.45001-.12.76001-.51996.76001-.96997v-2c0-1.65997-1.34998-3-3-3ZM48.57001,27.82999c2.16998,3.22003,3.42999,7.08002,3.42999,11.20001v2h-6v-.59998c0-4.31.89001-8.63,2.57001-12.60004ZM41,21.17001c2.39001,1.20001,4.48999,2.85999,6.19,4.84998-2.08002,4.48999-3.19,9.46002-3.19,14.41003v.59998h-3v-19.85999ZM29.40002,16.34c.19-.20001.44995-.31.72998-.31h3.73999c.28003,0,.53998.10999.72998.31s.29004.46997.27002.75l-.75,12c-.02997.52002-.46997.94-1,.94h-2.23999c-.53003,0-.97003-.41998-1-.94l-.75-12c-.02002-.28003.08002-.54999.27002-.75ZM25,20.29001c.73999-.27002,1.5-.48999,2.28003-.67999l.59998,9.59998c.09998,1.58002,1.41998,2.82001,3,2.82001h2.23999c1.58002,0,2.90002-1.23999,3-2.82001l.59998-9.59998c.78003.19,1.54004.40997,2.28003.67999v20.73999h-14v-20.73999ZM23,21.17001v19.85999h-3v-.59998c0-4.95001-1.10999-9.92004-3.19-14.41003,1.70001-1.98999,3.79999-3.64996,6.19-4.84998ZM12,39.03c0-4.12,1.26001-7.97998,3.42999-11.20001,1.67999,3.97003,2.57001,8.29004,2.57001,12.60004v.59998h-6v-2ZM55,45.24002c-15.06,3.63995-30.94,3.63995-46,0v-1.21002c0-.56.45001-1,1-1h44c.54999,0,1,.44,1,1v1.21002Z" fill="#000" stroke-width="0"/>
</svg>