<?xml version="1.0" encoding="utf-8"?>
<!-- Generator: Adobe Illustrator 27.3.1, SVG Export Plug-In . SVG Version: 6.00 Build 0)  -->
<svg version="1.1" id="Outline" xmlns="http://www.w3.org/2000/svg" xmlns:xlink="http://www.w3.org/1999/xlink" x="0px" y="0px"
	 viewBox="0 0 48 48" enable-background="new 0 0 48 48" xml:space="preserve">
<g>
	<path d="M11.97919,11.97919c0.3905-0.39056,0.3905-1.02368,0-1.41425c-0.3905-0.3905-1.02368-0.3905-1.41425,0
		c-0.3905,0.39056-0.3905,1.02368,0,1.41425C10.95551,12.36969,11.58868,12.36969,11.97919,11.97919z"/>
	<path d="M24,5c-3.59766,0-7.10254,1.01465-10.13477,2.93506c-0.4668,0.29541-0.60547,0.91309-0.30957,1.37988
		c0.29492,0.46631,0.91406,0.60693,1.37988,0.30957C17.64746,7.90771,20.78125,7,24,7c9.37402,0,17,7.62598,17,17s-7.62598,17-17,17
		S7,33.37402,7,24c0-3.21875,0.9082-6.35352,2.625-9.06494c0.2959-0.4668,0.15723-1.08447-0.30957-1.37988
		c-0.4668-0.29736-1.08496-0.15674-1.37988,0.30957C6.01465,16.89746,5,20.40186,5,24c0,10.47656,8.52344,19,19,19s19-8.52344,19-19
		S34.47656,5,24,5z"/>
	<path d="M9.20508,24.5l6.96484,12.0625c0.17871,0.30957,0.50879,0.5,0.86621,0.5h13.92773c0.35742,0,0.6875-0.19043,0.86621-0.5
		L38.79492,24.5c0.17871-0.30957,0.17871-0.69043,0-1l-6.96484-12.0625c-0.17871-0.30957-0.50879-0.5-0.86621-0.5H17.03613
		c-0.35742,0-0.6875,0.19043-0.86621,0.5L9.20508,23.5C9.02637,23.80957,9.02637,24.19043,9.20508,24.5z M17.61328,12.9375h12.77344
		L36.77441,24l-6.3877,11.0625H17.61328L11.22559,24L17.61328,12.9375z"/>
	<path d="M18.62891,23.32861l3.18945,1.27588l-1.78809,7.15283c-0.11328,0.45264,0.10156,0.92334,0.51664,1.1343
		c0.41264,0.20909,0.92485,0.10302,1.22164-0.25148c0.00001-0.00001,7.99152-9.58992,7.99999-9.60009
		c0.42933-0.51519,0.22282-1.32075-0.39745-1.56886l-2.88965-1.15576c0,0,2.36036-3.77628,2.3662-3.78563
		C29.25676,15.87527,28.76727,15,28,15h-6c-0.3877,0-0.74121,0.22412-0.90527,0.57568c0,0-2.99471,6.38862-2.99999,6.39989
		C17.85341,22.49039,18.10214,23.1175,18.62891,23.32861z M22.63574,17h3.55957l-2.04297,3.27002
		c-0.15723,0.25098-0.19531,0.55859-0.10254,0.84033c0.0918,0.28174,0.30371,0.50781,0.5791,0.61768l2.72168,1.08936
		l-4.32031,5.18408l0.93945-3.75879c0.12207-0.48535-0.13379-0.98535-0.59863-1.17139l-3.01562-1.20654L22.63574,17z"/>
</g>
</svg>
