<?xml version="1.0" encoding="utf-8"?>
<!-- Generator: Adobe Illustrator 27.3.1, SVG Export Plug-In . SVG Version: 6.00 Build 0)  -->
<svg version="1.1" id="Outline" xmlns="http://www.w3.org/2000/svg" xmlns:xlink="http://www.w3.org/1999/xlink" x="0px" y="0px"
	 viewBox="0 0 48 48" enable-background="new 0 0 48 48" xml:space="preserve">
<g>
	<circle cx="17" cy="42" r="1"/>
	<path d="M41,35H7c-1.10254,0-2,0.89697-2,2v4c0,1.10303,0.89746,2,2,2h6c0.55273,0,1-0.44775,1-1s-0.44727-1-1-1H7v-4h34v4H21
		c-0.55273,0-1,0.44775-1,1s0.44727,1,1,1h20c1.10254,0,2-0.89697,2-2v-4C43,35.89697,42.10254,35,41,35z"/>
	<path d="M29,15.48535V18c0,0.55225,0.44727,1,1,1h2.51465c0,0,1.77734,1.77734,1.77832,1.77832
		c0.37531,0.37524,1.02167,0.39233,1.41406,0L37.48535,19H40c0.55273,0,1-0.44775,1-1v-2.51465l1.77832-1.77832
		c0.39062-0.39062,0.39062-1.02344,0-1.41406L41,10.51465V8c0-0.55225-0.44727-1-1-1h-2.51465l-1.77832-1.77832
		c-0.39062-0.39062-1.02344-0.39062-1.41406,0L32.51465,7H30c-0.55273,0-1,0.44775-1,1v2.51465l-1.77832,1.77832
		c-0.39062,0.39062-0.39062,1.02344,0,1.41406L29,15.48535z M30.70703,11.63574C30.89453,11.44824,31,11.19385,31,10.92871V9
		h1.92871c0.26562,0,0.51953-0.10547,0.70703-0.29297L35,7.34277l1.36426,1.36426C36.55176,8.89453,36.80566,9,37.07129,9H39
		v1.92871c0,0.26514,0.10547,0.51953,0.29297,0.70703L40.65723,13l-1.36426,1.36426C39.10547,14.55176,39,14.80615,39,15.07129V17
		h-1.92871c-0.26562,0-0.51953,0.10547-0.70703,0.29297L35,18.65723l-1.36426-1.36426C33.44824,17.10547,33.19434,17,32.92871,17H31
		v-1.92871c0-0.26514-0.10547-0.51953-0.29297-0.70703L29.34277,13L30.70703,11.63574z"/>
	<path d="M35,16c1.6543,0,3-1.3457,3-3s-1.3457-3-3-3s-3,1.3457-3,3S33.3457,16,35,16z M35,12c0.55176,0,1,0.44873,1,1
		s-0.44824,1-1,1s-1-0.44873-1-1S34.44824,12,35,12z"/>
	<path d="M38.66406,24.74756c0.41309-0.36719,0.4502-0.99902,0.08301-1.41211s-0.99902-0.44922-1.41113-0.08301l-1.5,1.3335
		c-0.59375,0.52783-0.93457,1.28613-0.93457,2.08105c0,0.79443,0.34082,1.55273,0.93457,2.08057
		c0.22852,0.20361,0.2627,0.4541,0.2627,0.58545c0,0.13184-0.03418,0.38232-0.2627,0.58594l-1.5,1.3335
		c-0.41309,0.36719-0.4502,0.99902-0.08301,1.41211c0.35236,0.39636,0.99756,0.44989,1.41113,0.08301l1.5-1.3335
		c0.59375-0.52783,0.93457-1.28613,0.93457-2.08105c0-0.79443-0.34082-1.55273-0.93457-2.08057
		c-0.22852-0.20361-0.2627-0.4541-0.2627-0.58545c0-0.13184,0.03418-0.38232,0.2627-0.58594L38.66406,24.74756z"/>
	<path d="M33.66406,24.74756c0.41309-0.36719,0.4502-0.99902,0.08301-1.41211s-0.99902-0.44922-1.41113-0.08301l-1.5,1.3335
		c-0.59375,0.52783-0.93457,1.28613-0.93457,2.08105c0,0.79443,0.34082,1.55273,0.93457,2.08057
		c0.22852,0.20361,0.2627,0.4541,0.2627,0.58545c0,0.13184-0.03418,0.38232-0.2627,0.58594l-1.5,1.3335
		c-0.41309,0.36719-0.4502,0.99902-0.08301,1.41211c0.36255,0.40826,1.00275,0.44531,1.41113,0.08301l1.5-1.3335
		c0.59375-0.52783,0.93457-1.28613,0.93457-2.08105c0-0.79443-0.34082-1.55273-0.93457-2.08057
		c-0.22852-0.20361-0.2627-0.4541-0.2627-0.58545c0-0.13184,0.03418-0.38232,0.2627-0.58594L33.66406,24.74756z"/>
	<path d="M28.66406,24.74756c0.41309-0.36719,0.4502-0.99902,0.08301-1.41211s-0.99902-0.44922-1.41113-0.08301l-1.5,1.3335
		c-0.59375,0.52783-0.93457,1.28613-0.93457,2.08105c0,0.79443,0.34082,1.55273,0.93457,2.08057
		c0.22852,0.20361,0.2627,0.4541,0.2627,0.58545c0,0.13184-0.03418,0.38232-0.2627,0.58594l-1.5,1.3335
		c-0.41309,0.36719-0.4502,0.99896-0.08307,1.41205c0.37781,0.42496,0.98385,0.40358,1.41119,0.08307l1.5-1.3335
		c0.59375-0.52783,0.93457-1.28613,0.93457-2.08105c0-0.79443-0.34082-1.55273-0.93457-2.08057
		c-0.22852-0.20361-0.2627-0.4541-0.2627-0.58545c0-0.13184,0.03418-0.38232,0.2627-0.58594L28.66406,24.74756z"/>
	<path d="M23.66406,24.74756c0.41309-0.36719,0.4502-0.99902,0.08301-1.41211c-0.36621-0.41309-1-0.44922-1.41113-0.08301
		l-1.5,1.3335c-0.59375,0.52783-0.93457,1.28613-0.93457,2.08105c0,0.79443,0.34082,1.55273,0.93457,2.08057
		c0.22852,0.20361,0.2627,0.4541,0.2627,0.58545c0,0.13184-0.03418,0.38232-0.2627,0.58594l-1.5,1.3335
		c-0.41301,0.36712-0.45019,0.99881-0.08316,1.4119c0.34904,0.39283,1.01842,0.43164,1.41128,0.08322l1.5-1.3335
		c0.59375-0.52783,0.93457-1.28613,0.93457-2.08105c0-0.79443-0.34082-1.55273-0.93457-2.08057
		c-0.22852-0.20361-0.2627-0.4541-0.2627-0.58545c0-0.13184,0.03418-0.38232,0.2627-0.58594L23.66406,24.74756z"/>
	<path d="M18.66406,24.74756c0.41309-0.36719,0.4502-0.99902,0.08301-1.41211s-1-0.44922-1.41113-0.08301l-1.5,1.3335
		c-0.59375,0.52783-0.93457,1.28613-0.93457,2.08105c0,0.79443,0.34082,1.55273,0.93457,2.08057
		c0.22852,0.20361,0.2627,0.4541,0.2627,0.58545c0,0.13184-0.03418,0.38232-0.2627,0.58594l-1.5,1.3335
		c-0.41307,0.36717-0.45019,0.99891-0.08305,1.412c0.34486,0.38802,1.006,0.44249,1.41118,0.08312l1.5-1.3335
		c0.59375-0.52783,0.93457-1.28613,0.93457-2.08105c0-0.79443-0.34082-1.55273-0.93457-2.08057
		c-0.22852-0.20361-0.2627-0.4541-0.2627-0.58545c0-0.13184,0.03418-0.38232,0.2627-0.58594L18.66406,24.74756z"/>
	<path d="M13.66406,24.74756c0.41309-0.36719,0.4502-0.99902,0.08301-1.41211s-0.99902-0.44922-1.41113-0.08301l-1.5,1.3335
		c-0.59375,0.52783-0.93457,1.28613-0.93457,2.08105c0,0.79443,0.34082,1.55273,0.93457,2.08057
		c0.22852,0.20361,0.2627,0.4541,0.2627,0.58545c0,0.13184-0.03418,0.38232-0.2627,0.58594l-1.5,1.3335
		c-0.41308,0.36707-0.4502,0.99884-0.08312,1.41193c0.34996,0.39382,1.01769,0.43296,1.41125,0.08318
		c0.00001-0.00001,1.5-1.3335,1.5-1.3335c0.59375-0.52783,0.93457-1.28613,0.93457-2.08105
		c0-0.79443-0.34082-1.55273-0.93457-2.08057c-0.22852-0.20361-0.2627-0.4541-0.2627-0.58545
		c0-0.13184,0.03418-0.38232,0.2627-0.58594L13.66406,24.74756z"/>
</g>
</svg>
