<?xml version="1.0" encoding="UTF-8"?>
<svg id="Outline" xmlns="http://www.w3.org/2000/svg" version="1.1" viewBox="0 0 64 64">
  <path d="M56,7h-4c-.54999,0-1,.45001-1,1v19h-2v-9c0-.54999-.45001-1-1-1h-9v-4c0-.54999-.45001-1-1-1h-7v-1c0-.54999-.45001-1-1-1h-3.13c-.44-1.72003-2.01001-3-3.87-3s-3.42999,1.27997-3.87,3h-3.13c-.54999,0-1,.45001-1,1v1h-7c-.54999,0-1,.45001-1,1v43c0,.54999.45001,1,1,1h4c.54999,0,1-.45001,1-1v-3h12c.54999,0,1-.45001,1-1s-.45001-1-1-1h-12v-2h38v2h-18c-.54999,0-1,.45001-1,1s.45001,1,1,1h18v3c0,.54999.45001,1,1,1h4c.54999,0,1-.45001,1-1V8c0-.54999-.45001-1-1-1ZM17,12h3c.54999,0,1-.45001,1-1,0-1.10004.90002-2,2-2s2,.89996,2,2c0,.54999.45001,1,1,1h3v2h-12v-2ZM11,55h-2v-6h2v6ZM37,47H9V14h6v1c0,.54999.45001,1,1,1h14c.54999,0,1-.45001,1-1v-1h6v33ZM39,19h3v3h-3v-3ZM39,24h4c.54999,0,1-.45001,1-1v-4h3v8h-8v-3ZM39,39h3v3h-3v-3ZM47,47h-8v-3h4c.54999,0,1-.45001,1-1v-4h3v8ZM51,47h-2v-9c0-.54999-.45001-1-1-1h-9v-4h12v14ZM51,31h-12v-2h12v2ZM55,55h-2V9h2v46Z" fill="#000" stroke-width="0"/>
  <path d="M17.29297,27.29297l-1.29297,1.29297-.29297-.29297c-.39062-.39062-1.02344-.39062-1.41406,0s-.39062,1.02344,0,1.41406c0,0,1,1,1.00005,1.00005.38734.38729,1.02663.38734,1.41402-.00005l2-2c.39062-.39062.39062-1.02344,0-1.41406s-1.02344-.39062-1.41406,0Z" fill="#000" stroke-width="0"/>
  <path d="M12,34h7c.55225,0,1-.44775,1-1s-.44775-1-1-1h-6v-5c0-.55225-.44775-1-1-1s-1,.44775-1,1v6c0,.55225.44775,1,1,1Z" fill="#000" stroke-width="0"/>
  <path d="M34,31h-11c-.55225,0-1,.44775-1,1s.44775,1,1,1h11c.55225,0,1-.44775,1-1s-.44775-1-1-1Z" fill="#000" stroke-width="0"/>
  <path d="M17.29297,37.29297l-1.29297,1.29297-.29297-.29297c-.39062-.39062-1.02344-.39062-1.41406,0s-.39062,1.02344,0,1.41406c0,0,1,1,1.00003,1.00003.38742.38739,1.02747.38654,1.41404-.00003l2-2c.39062-.39062.39062-1.02344,0-1.41406s-1.02344-.39062-1.41406,0Z" fill="#000" stroke-width="0"/>
  <path d="M19,44c.55225,0,1-.44775,1-1s-.44775-1-1-1h-6v-5c0-.55225-.44775-1-1-1s-1,.44775-1,1v6c0,.55225.44775,1,1,1h7Z" fill="#000" stroke-width="0"/>
  <path d="M23,39h6c.55225,0,1-.44775,1-1s-.44775-1-1-1h-6c-.55225,0-1,.44775-1,1s.44775,1,1,1Z" fill="#000" stroke-width="0"/>
  <path d="M23,29h6c.55225,0,1-.44775,1-1s-.44775-1-1-1h-6c-.55225,0-1,.44775-1,1s.44775,1,1,1Z" fill="#000" stroke-width="0"/>
  <path d="M34,41h-11c-.55225,0-1,.44775-1,1s.44775,1,1,1h11c.55225,0,1-.44775,1-1s-.44775-1-1-1Z" fill="#000" stroke-width="0"/>
  <path d="M12,24h22c.55225,0,1-.44775,1-1v-4c0-.55225-.44775-1-1-1H12c-.55225,0-1,.44775-1,1v4c0,.55225.44775,1,1,1ZM13,20h20v2H13v-2Z" fill="#000" stroke-width="0"/>
  <circle cx="29" cy="52" r="1" fill="#000" stroke-width="0"/>
</svg>