<?xml version="1.0" encoding="UTF-8"?>
<svg xmlns="http://www.w3.org/2000/svg" version="1.1" viewBox="0 0 64 64">
  <!-- Generator: Adobe Illustrator 28.7.1, SVG Export Plug-In . SVG Version: 1.2.0 Build 142)  -->
  <g>
    <g id="Outline">
      <g>
        <path d="M46.78003,44h1.56c2.75995,0,5-2.23999,5-5v-2c0-.54999-.44-1-1-1h-2c-2.75,0-5,2.23999-5,5v1.62c-1.31,1.39001-2.32001,2.98999-3,4.72998-.67004-1.73999-1.68005-3.33997-3-4.72998v-1.62c0-2.76001-2.24005-5-5-5h-2c-.55005,0-1,.45001-1,1v2c0,2.76001,2.25,5,5,5h1.56c2.21997,2.34998,3.44,5.40997,3.44,8.65997v2.34003h-9c-.55005,0-1,.45001-1,1s.44995,1,1,1h20c.56,0,1-.45001,1-1s-.44-1-1-1h-9v-2.34003c0-3.25,1.22998-6.29999,3.44-8.65997ZM47.34003,41c0-1.65002,1.34998-3,3-3h1v1c0,1.64996-1.34003,3-3,3h-1v-1ZM37.34003,42h-1c-1.65002,0-3-1.35004-3-3v-1h1c1.65997,0,3,1.34998,3,3v1Z"/>
        <path d="M56,7H14c-.54999,0-1,.45001-1,1v13h-3c-1.65002,0-3,1.34998-3,3v16c0,1.64996,1.34998,3,3,3h3v13c0,.54999.45001,1,1,1h6c.54999,0,1-.45001,1-1v-13h3c1.65002,0,3-1.35004,3-3v-16c0-1.65002-1.34998-3-3-3h-3v-2h16.34003v3c0,.54999.44995,1,1,1h8c.56,0,1-.45001,1-1v-3h8.65997c.54999,0,1-.45001,1-1v-10c0-.54999-.45001-1-1-1ZM15,9h4v12h-4v-12ZM19,55h-4v-12h4v12ZM24,23c.54999,0,1,.45001,1,1v16c0,.54999-.45001,1-1,1h-14c-.54999,0-1-.45001-1-1v-16c0-.54999.45001-1,1-1h14ZM45.34003,21h-6v-2h6v2ZM55,17H21v-8h34v8Z"/>
        <circle cx="42.34314" cy="26" r="1"/>
        <circle cx="42.34314" cy="30" r="1"/>
        <circle cx="42.34314" cy="34" r="1"/>
        <path d="M47.05023,26.70709c.39056-.3905.39056-1.02368,0-1.41418-.3905-.39056-1.02368-.39056-1.41418,0-.3905.3905-.3905,1.02368,0,1.41418s1.02368.3905,1.41418,0Z"/>
        <path d="M49.87866,29.53552c.39056-.3905.39056-1.02368,0-1.41425-.3905-.3905-1.02368-.3905-1.41418,0-.39056.39056-.39056,1.02374,0,1.41425.3905.3905,1.02368.3905,1.41418,0Z"/>
        <path d="M52.70709,32.36395c.39056-.3905.39056-1.02368,0-1.41425-.3905-.3905-1.02368-.3905-1.41418,0-.39056.39056-.39056,1.02374,0,1.41425.3905.3905,1.02368.3905,1.41418,0Z"/>
        <path d="M39.05023,26.70709c.39056-.3905.39056-1.02368,0-1.41418-.3905-.39056-1.02368-.39056-1.41418,0-.3905.3905-.3905,1.02368,0,1.41418s1.02368.3905,1.41418,0Z"/>
        <path d="M36.2218,29.53552c.39056-.3905.39056-1.02368,0-1.41425-.3905-.3905-1.02368-.3905-1.41418,0-.3905.39056-.3905,1.02374,0,1.41425s1.02368.3905,1.41418,0Z"/>
        <path d="M33.39337,32.36395c.39056-.3905.39056-1.02368,0-1.41425-.3905-.3905-1.02368-.3905-1.41418,0-.3905.39056-.3905,1.02374,0,1.41425s1.02368.3905,1.41418,0Z"/>
        <circle cx="22" cy="38" r="1"/>
        <circle cx="17" cy="38" r="1"/>
        <circle cx="12" cy="38" r="1"/>
      </g>
    </g>
  </g>
</svg>