<?xml version="1.0" encoding="UTF-8"?>
<svg xmlns="http://www.w3.org/2000/svg" version="1.1" viewBox="0 0 64 64">
  <!-- Generator: Adobe Illustrator 28.7.1, SVG Export Plug-In . SVG Version: 1.2.0 Build 142)  -->
  <g>
    <g id="Outline">
      <path d="M54.00006,44.55579h-14.29828c-1.1778-2.08337-5.8075-9.85663-13.32672-17.375-8.59668-8.59668-17.52734-13.41797-17.90332-13.61914-.3877-.20605-.86621-.13672-1.17871.1748-.31152.31152-.38281.79004-.1748,1.17871.20117.37598,5.02148,9.30566,13.61914,17.90332,5.59113,5.59113,11.30719,9.57257,14.73541,11.7373H10.00006c-1.6543,0-3,1.3457-3,3s1.3457,3,3,3h44c1.6543,0,3-1.3457,3-3s-1.3457-3-3-3ZM36.18854,42.63196c-2.75897-1.7691-6.8783-4.66248-11.12555-8.48285l2.64288-2.64288c3.82031,4.24689,6.71362,8.36682,8.48267,11.12573ZM23.52087,27.20667l-2.75787,2.75726c-4.50281-4.7536-7.86676-9.52112-9.84009-12.59857,3.07599,1.97174,7.84082,5.33459,12.59796,9.84131ZM22.151,31.40399l2.80994-2.8092.00006.00006c.47858.47845.93286.95947,1.38812,1.44l-2.75763,2.75763c-.48059-.4552-.96155-.90955-1.44006-1.38806l-.00043-.00043ZM54.00006,48.55579H10.00006c-.55176,0-1-.44824-1-1s.44824-1,1-1h44c.55176,0,1,.44824,1,1s-.44824,1-1,1Z"/>
    </g>
  </g>
</svg>