<?xml version="1.0" encoding="UTF-8"?>
<svg xmlns="http://www.w3.org/2000/svg" version="1.1" viewBox="0 0 64 64">
  <!-- Generator: Adobe Illustrator 28.7.1, SVG Export Plug-In . SVG Version: 1.2.0 Build 142)  -->
  <g>
    <g id="Outline">
      <g>
        <path d="M38.32242,52.65997l-4.52002-9.04999-3.91998-7.84998v-6.76001c0-.54999-.45001-1-1-1s-1,.45001-1,1v7c0,.15997.03998.31.10999.45001l3.27002,6.54999h-5.56c-.41998-1.16003-1.52002-2-2.82001-2s-2.40002.83997-2.82001,2h-5.56l3.27002-6.54999c.07001-.14001.10999-.29004.10999-.45001v-15h10v4c0,.54999.45001,1,1,1s1-.45001,1-1v-4h1c.54999,0,1-.45001,1-1s-.45001-1-1-1H14.88242c-.54999,0-1,.45001-1,1s.45001,1,1,1h1v14.76001l-3.91998,7.84998-4.52002,9.04999c-.46997.92999-.42999,2.02002.12,2.91003.54999.89996,1.51001,1.42999,2.56,1.42999h7.76001c.54999,0,1-.45001,1-1s-.45001-1-1-1h-7.76001c-.51001,0-.77002-.33002-.85999-.48004-.08002-.13995-.26001-.50995-.03998-.95996l4.27997-8.56h6.56c.41998,1.15997,1.52002,2,2.82001,2s2.40002-.84003,2.82001-2h6.56l4.27997,8.56c.22003.45001.04004.82001-.03998.95996-.08997.15002-.34998.48004-.85999.48004h-13.76001c-.54999,0-1,.45001-1,1s.45001,1,1,1h13.76001c1.04999,0,2.01001-.53003,2.56-1.42999.54999-.89001.58997-1.98004.12-2.91003ZM22.88242,45c-.54999,0-1-.45001-1-1s.45001-1,1-1,1,.45001,1,1-.45001,1-1,1Z"/>
        <path d="M16.88242,47c-1.6543,0-3,1.3457-3,3s1.3457,3,3,3,3-1.3457,3-3-1.3457-3-3-3ZM16.88242,51c-.55176,0-1-.44824-1-1s.44824-1,1-1,1,.44824,1,1-.44824,1-1,1Z"/>
        <circle cx="23.88242" cy="52" r="1"/>
        <circle cx="26.88242" cy="49" r="1"/>
        <path d="M36.88242,21c.61407,0,1.18469-.18677,1.66071-.50458l3.48895,2.61597c-.08844.28259-.14966.57721-.14966.88861,0,1.6543,1.3457,3,3,3s3-1.3457,3-3-1.3457-3-3-3c-.61407,0-1.18469.18677-1.66071.50458l-3.48889-2.61597c.0885-.28265.1496-.57721.1496-.88861,0-.70441-.25409-1.34424-.66199-1.85669l2.01526-3.21765c.20886.04614.42419.07434.64673.07434,1.6543,0,3-1.3457,3-3s-1.3457-3-3-3-3,1.3457-3,3c0,.70441.25409,1.34424.66199,1.85669l-2.01526,3.21765c-.20886-.04614-.42419-.07434-.64673-.07434-1.6543,0-3,1.3457-3,3s1.3457,3,3,3ZM45.88242,24c0,.55176-.44824,1-1,1s-1-.44824-1-1,.44824-1,1-1,1,.44824,1,1ZM41.88242,9c.55176,0,1,.44824,1,1s-.44824,1-1,1-1-.44824-1-1,.44824-1,1-1ZM36.88242,17c.55176,0,1,.44824,1,1s-.44824,1-1,1-1-.44824-1-1,.44824-1,1-1Z"/>
        <path d="M54.88242,41.17999v-1.67999c0-.34003-.17999-.67004-.46997-.85004l-3.53003-2.19995v-3.95001c0-.34003-.17999-.67004-.46997-.85004l-4-2.5c-.32001-.19995-.74005-.19995-1.06006,0l-4,2.5c-.28998.17999-.46997.51001-.46997.85004v3.95001l-3.53003,2.19995c-.28998.17999-.46997.51001-.46997.85004v5c0,.33997.17999.66998.46997.84998l4,2.5c.16003.10004.35004.15002.53003.15002s.37-.04999.53003-.15002l3.46997-2.16998,3.46997,2.16998c.16003.10004.35004.15002.53003.15002s.37-.04999.53003-.15002l2-1.25c.42999.25.92999.40002,1.46997.40002,1.65002,0,3-1.35004,3-3,0-1.29999-.84003-2.40002-2-2.82001ZM44.88242,43.95001l-3,1.87-3-1.87v-3.90002l3-1.87,3,1.87v3.90002ZM42.88242,36.45001v-3.40002l3-1.87,3,1.87v3.40002l-3,1.87-3-1.87ZM50.88242,44c0,.38.08002.72998.20001,1.06l-1.20001.76001-3-1.87v-3.90002l3-1.87,3,1.87v1.13c-1.15997.41998-2,1.52002-2,2.82001ZM53.88242,45c-.54999,0-1-.45001-1-1s.45001-1,1-1,1,.45001,1,1-.45001,1-1,1Z"/>
      </g>
    </g>
  </g>
</svg>