<?xml version="1.0" encoding="utf-8"?>
<!-- Generator: Adobe Illustrator 28.2.0, SVG Export Plug-In . SVG Version: 6.00 Build 0)  -->
<svg version="1.1" id="Outline" xmlns="http://www.w3.org/2000/svg" xmlns:xlink="http://www.w3.org/1999/xlink" x="0px" y="0px"
	 viewBox="0 0 64 64" enable-background="new 0 0 64 64" xml:space="preserve">
<g>
	<path d="M51,26h-2c-0.55273,0-1,0.44727-1,1s0.44727,1,1,1h2c0.55273,0,1-0.44727,1-1S51.55273,26,51,26z"/>
	<path d="M32,37c5.51367,0,10-4.48633,10-10s-4.48633-10-10-10s-10,4.48633-10,10S26.48633,37,32,37z M32,35
		c-3.59448,0-6.64154-2.38354-7.64716-5.65271l1.02802-0.20569c0.25879-0.04785,0.53613,0.00586,0.75586,0.15137l2.12988,1.41602
		c0.05566,0.03906,0.11621,0.08789,0.16602,0.1377l0.84082,0.84082c0.57617,0.57617,1.34375,0.87988,2.125,0.87988
		c0.4541,0,0.91309-0.10254,1.34082-0.31348l2.28711-1.14844C35.16797,31.03418,35.3125,31,35.46973,31h2.06055
		c0.15625,0,0.30176,0.03418,0.44434,0.10547l0.67487,0.33521C37.21283,33.58484,34.7691,35,32,35z M32,19
		c2.75031,0,5.1803,1.39575,6.62073,3.51544l-0.82874,1.10175C37.61035,23.85645,37.32227,24,37.01953,24h-0.42969
		c-0.59473,0-1.16406,0.1748-1.63184,0.49609l-1.18652,0.78516c-0.37207,0.25195-0.87402,0.20117-1.19434-0.11816l-1.02051-1.02051
		c-0.54785-0.54785-1.30859-0.8623-2.08691-0.8623c-0.33691,0-0.65625,0.05273-0.93652,0.15137
		c-0.49902,0.16504-1.03906-0.10156-1.2041-0.5957l-0.6076-1.8316C28.13184,19.76111,29.97662,19,32,19z M25.20813,22.79333
		l0.22351,0.67346c0.51367,1.54102,2.19043,2.37988,3.74902,1.85645c0.27051-0.09277,0.70996-0.01953,0.96191,0.2334
		l1.02051,1.02051c0.57031,0.57031,1.32812,0.86328,2.08887,0.86328c0.56641,0,1.13574-0.16309,1.62988-0.49609l1.19336-0.79004
		C36.2207,26.05469,36.40332,26,36.58984,26h0.42969c0.92578,0,1.81152-0.44043,2.36914-1.17969l0.21722-0.28888
		C39.85919,25.30975,40,26.13831,40,27c0,0.9295-0.16754,1.8186-0.46033,2.64917l-0.67346-0.33472
		C38.44629,29.10547,37.99707,29,37.53027,29h-2.06055c-0.4668,0-0.91602,0.10547-1.33887,0.31641l-2.2832,1.14746
		c-0.38867,0.19336-0.85449,0.11523-1.16016-0.19043l-0.84081-0.84082c-0.12988-0.12988-0.28809-0.26074-0.45312-0.37598
		L27.24023,27.625c-0.65625-0.43262-1.47168-0.59473-2.24609-0.44531l-0.97516,0.19501C24.01312,27.24963,24,27.12646,24,27
		C24,25.45581,24.4472,24.01733,25.20813,22.79333z"/>
	<path d="M39.78003,38.63C43.66998,36.01996,46,31.66998,46,27c0-3.97003-1.70001-7.77002-4.66998-10.42999
		c-2.97003-2.66003-6.95001-3.92999-10.92999-3.48004c-2.03003,0.22003-3.96002,0.89001-5.76001,2
		C24.16998,15.38,24.03003,16,24.32001,16.46997c0.28998,0.47003,0.90997,0.60999,1.38,0.32001
		c1.52997-0.95001,3.19-1.52997,4.91998-1.71997c3.46002-0.38,6.78998,0.67999,9.37,2.98999C42.53998,20.33997,44,23.59998,44,27
		c0,4-2,7.72998-5.34003,9.96997C37.22998,37.92999,36.29999,39.39996,36.06,41h-8.12
		c-0.23999-1.60004-1.16998-3.07001-2.59998-4.03003c-3.88-2.59998-5.88-7.09998-5.21002-11.75
		c0.15002-1.01001,0.41998-1.97998,0.82001-2.89001c0.21997-0.50995-0.01001-1.09998-0.52002-1.31995
		c-0.51001-0.22003-1.09998,0.00995-1.32001,0.51996C18.65002,22.59998,18.32001,23.75,18.15002,24.94
		c-0.78003,5.40997,1.54999,10.65997,6.06995,13.69c0.93005,0.63,1.54004,1.56,1.72003,2.57001C24.81,41.63,24,42.71997,24,44
		c0,0.76996,0.29999,1.46997,0.78003,2C24.29999,46.52997,24,47.22998,24,48c0,1.64996,1.34998,3,3,3v1c0,2.76001,2.23999,5,5,5
		s5-2.23999,5-5v-1c1.65002,0,3-1.35004,3-3c0-0.77002-0.29999-1.47003-0.78003-2C39.70001,45.46997,40,44.76996,40,44
		c0-1.28003-0.81-2.37-1.94-2.79999C38.23999,40.19,38.84998,39.26001,39.78003,38.63z M35,52c0,1.64996-1.34998,3-3,3
		s-3-1.35004-3-3v-1h6V52z M37,49H27c-0.54999,0-1-0.45001-1-1s0.45001-1,1-1h10c0.54999,0,1,0.45001,1,1S37.54999,49,37,49z M37,45
		H27c-0.54999,0-1-0.45001-1-1s0.45001-1,1-1h10c0.54999,0,1,0.45001,1,1S37.54999,45,37,45z"/>
	<path d="M32,11c0.55273,0,1-0.44727,1-1V8c0-0.55273-0.44727-1-1-1s-1,0.44727-1,1v2C31,10.55273,31.44727,11,32,11z"/>
	<path d="M19.27246,15.68652c0.36304,0.36298,1.02173,0.39233,1.41406,0c0.39062-0.39062,0.39062-1.02344,0-1.41406
		l-1.41406-1.41406c-0.39062-0.39062-1.02344-0.39062-1.41406,0s-0.39062,1.02344,0,1.41406
		C17.8584,14.27246,19.26874,15.68274,19.27246,15.68652z"/>
	<path d="M15,26h-2c-0.55273,0-1,0.44727-1,1s0.44727,1,1,1h2c0.55273,0,1-0.44727,1-1S15.55273,26,15,26z"/>
	<path d="M19.27246,38.31348l-1.41406,1.41406c-0.39062,0.39062-0.39062,1.02344,0.00024,1.41425
		c0.38788,0.3877,1.02454,0.3891,1.41382-0.00018c0.00006-0.00006,1.41406-1.41406,1.41406-1.41406
		c0.39062-0.39062,0.39062-1.02344,0-1.41406S19.66309,37.92285,19.27246,38.31348z"/>
	<path d="M44.72754,12.8584c0,0-1.40747,1.40747-1.41406,1.414c-0.62695,0.62701-0.16333,1.69238,0.70715,1.69202
		c0.26111-0.00012,0.52197-0.09302,0.70691-0.27789l1.41406-1.41406c0.39062-0.39062,0.39062-1.02344,0-1.41406
		S45.11816,12.46777,44.72754,12.8584z"/>
	<path d="M44.72754,38.31348c-0.39062-0.39062-1.02344-0.39062-1.41406,0s-0.39062,1.02344,0,1.41406
		c0,0,1.41138,1.41138,1.41406,1.41406c0.36395,0.36395,1.021,0.39307,1.41406,0c0.39062-0.39062,0.39062-1.02344,0-1.41406
		L44.72754,38.31348z"/>
	<path d="M22.80762,19.2218c0.3905-0.3905,0.3905-1.02368,0-1.41418c-0.3905-0.39056-1.02368-0.39056-1.41425,0
		c-0.3905,0.3905-0.3905,1.02368,0,1.41418C21.78394,19.6123,22.41711,19.6123,22.80762,19.2218z"/>
</g>
</svg>
