<?xml version="1.0" encoding="utf-8"?>
<!-- Generator: Adobe Illustrator 27.3.1, SVG Export Plug-In . SVG Version: 6.00 Build 0)  -->
<svg version="1.1" id="Outline" xmlns="http://www.w3.org/2000/svg" xmlns:xlink="http://www.w3.org/1999/xlink" x="0px" y="0px"
	 viewBox="0 0 48 48" enable-background="new 0 0 48 48" xml:space="preserve">
<g>
	<circle cx="22" cy="18" r="1"/>
	<path d="M39,31h-2v-5c0-0.55273-0.44727-1-1-1h-4c-0.55273,0-1,0.44727-1,1v5c0,0-1.99412,0-1.99999,0
		c-0.73135,0-1.22252,0.79337-0.89454,1.44727c0,0,4.98495,9.9699,4.99997,9.99993c0.36309,0.72617,1.42659,0.723,1.7891,0.00007
		c0,0,4.99029-9.98058,4.99998-9.99997C40.22136,31.79362,39.72466,31,39,31z M34,39.76367L30.61816,33H32c0.55273,0,1-0.44727,1-1
		v-5h2v5c0,0.55273,0.44727,1,1,1h1.38184L34,39.76367z"/>
	<path d="M23,28.76172V22c0-0.55273-0.44727-1-1-1s-1,0.44727-1,1v7.25977c0,0.32617,0.15918,0.63086,0.42578,0.81836
		C23.03711,31.20996,24,33.0498,24,35c0,3.30859-2.69141,6-6,6s-6-2.69141-6-6c0-1.9502,0.96289-3.79004,2.57422-4.92188
		C14.84082,29.89062,15,29.58594,15,29.25977V10c0-1.6543,1.3457-3,3-3s3,1.3457,3,3v4c0,0.55273,0.44727,1,1,1s1-0.44727,1-1v-4
		c0-2.75684-2.24316-5-5-5s-5,2.24316-5,5v18.76172C11.1123,30.28125,10,32.57617,10,35c0,4.41113,3.58887,8,8,8s8-3.58887,8-8
		C26,32.57617,24.8877,30.28125,23,28.76172z"/>
	<path d="M18,11c-0.55273,0-1,0.44727-1,1v19.14197C15.27948,31.58905,14,33.1413,14,35c0,2.20605,1.79395,4,4,4s4-1.79395,4-4
		c0-1.8587-1.27948-3.41095-3-3.85803V12C19,11.44727,18.55273,11,18,11z M20,35c0,1.10254-0.89746,2-2,2s-2-0.89746-2-2
		s0.89746-2,2-2S20,33.89746,20,35z"/>
	<path d="M6,10h4c0.55273,0,1-0.44727,1-1s-0.44727-1-1-1H6C5.44727,8,5,8.44727,5,9S5.44727,10,6,10z"/>
	<path d="M6,14h4c0.55273,0,1-0.44727,1-1s-0.44727-1-1-1H6c-0.55273,0-1,0.44727-1,1S5.44727,14,6,14z"/>
	<path d="M6,18h4c0.55273,0,1-0.44727,1-1s-0.44727-1-1-1H6c-0.55273,0-1,0.44727-1,1S5.44727,18,6,18z"/>
	<path d="M11,25c0-0.55273-0.44727-1-1-1H6c-0.55273,0-1,0.44727-1,1s0.44727,1,1,1h4C10.55273,26,11,25.55273,11,25z"/>
	<path d="M6,22h4c0.55273,0,1-0.44727,1-1s-0.44727-1-1-1H6c-0.55273,0-1,0.44727-1,1S5.44727,22,6,22z"/>
	<path d="M42,13h-1.58594l1.29297-1.29297c0.39062-0.39062,0.39062-1.02344,0-1.41406s-1.02344-0.39062-1.41406,0L37.58594,13
		h-0.7702C36.51367,12.15283,35.84717,11.48633,35,11.18427v-0.7702l2.70703-2.70703c0.39062-0.39062,0.39062-1.02344,0-1.41406
		s-1.02344-0.39062-1.41406,0L35,7.58594V6c0-0.55273-0.44727-1-1-1s-1,0.44727-1,1v1.58594l-1.29297-1.29297
		c-0.39062-0.39062-1.02344-0.39062-1.41406,0s-0.39062,1.02344,0,1.41406L33,10.41406v0.7702
		C32.15283,11.48633,31.48633,12.15283,31.18427,13h-0.7702l-2.70703-2.70703c-0.39062-0.39062-1.02344-0.39062-1.41406,0
		s-0.39062,1.02344,0,1.41406L27.58594,13H26c-0.55273,0-1,0.44727-1,1s0.44727,1,1,1h1.58594l-1.29297,1.29297
		c-0.39062,0.39062-0.39062,1.02341-0.00002,1.41404c0.37224,0.37226,1.01911,0.395,1.41408,0.00002L30.41406,15h0.77026
		c0.30206,0.84717,0.96851,1.51361,1.81567,1.81567v0.77026l-2.70703,2.70703c-0.39062,0.39062-0.39062,1.02344,0,1.41406
		s1.02344,0.39062,1.41406,0L33,20.41406V22c0,0.55273,0.44727,1,1,1s1-0.44727,1-1v-1.58594c0,0,1.29297,1.29297,1.29299,1.29299
		c0.38745,0.38744,1.02757,0.38646,1.41404-0.00002c0.39062-0.39062,0.39062-1.02344,0-1.41406L35,17.58594v-0.7702
		c0.84717-0.30206,1.51367-0.96857,1.81573-1.81573h0.7702c0,0,2.70703,2.70703,2.70707,2.70707
		c0.38733,0.38729,1.02646,0.38753,1.41403-0.00003c0.39062-0.39062,0.39062-1.02344,0-1.41406L40.41406,15H42
		c0.55273,0,1-0.44727,1-1S42.55273,13,42,13z M34,15c-0.55176,0-1-0.44824-1-1s0.44824-1,1-1s1,0.44824,1,1S34.55176,15,34,15z"/>
</g>
</svg>
