<?xml version="1.0" encoding="UTF-8"?>
<svg xmlns="http://www.w3.org/2000/svg" version="1.1" viewBox="0 0 48 48">
  <!-- Generator: Adobe Illustrator 28.7.1, SVG Export Plug-In . SVG Version: 1.2.0 Build 142)  -->
  <g>
    <g id="Outline">
      <g>
        <path d="M37,31c-1.29382,0-2.49005.41577-3.47107,1.11487l-2.50391-2.50391c1.23267-1.54022,1.97498-3.48926,1.97498-5.61096s-.74231-4.07086-1.97498-5.61102l3.68323-3.68359c.59509.35156,1.27997.56708,2.01978.56708,2.20557,0,4-1.79395,4-4s-1.79443-4-4-4-4,1.79395-4,4c0,.73938.21533,1.42383.56641,2.01862l-3.68347,3.68384c-1.29462-1.03613-2.8783-1.72327-4.61096-1.91589v-2.20105c1.72028-.44714,3-1.99927,3-3.85797,0-2.20605-1.79443-4-4-4s-4,1.79395-4,4c0,1.8587,1.27972,3.41083,3,3.85797v2.20105c-1.73273.19263-3.31641.87982-4.61096,1.91595l-2.50391-2.50391c.6991-.98102,1.11487-2.17725,1.11487-3.47107,0-1.52637-.57129-2.97949-1.6084-4.0918-.37695-.40527-1.00977-.42676-1.41309-.0498-.4043.37598-.42627,1.00879-.0498,1.41309.69092.74121,1.07129,1.70996,1.07129,2.72852,0,2.20605-1.79443,4-4,4s-4-1.79395-4-4c0-1.01855.38037-1.9873,1.07129-2.72852.37646-.4043.35449-1.03711-.0498-1.41309-.40234-.37695-1.03662-.35547-1.41309.0498-1.03711,1.1123-1.6084,2.56543-1.6084,4.0918,0,3.30859,2.69141,6,6,6,1.29382,0,2.49005-.41577,3.47107-1.11487l2.50391,2.50391c-1.23267,1.54022-1.97498,3.48926-1.97498,5.61096s.74231,4.07086,1.97498,5.61102l-3.68323,3.68359c-.59509-.35156-1.27997-.56708-2.01978-.56708-2.20557,0-4,1.79395-4,4s1.79443,4,4,4,4-1.79395,4-4c0-.73938-.21533-1.42383-.56641-2.01862l3.68347-3.68384c1.29462,1.03613,2.8783,1.72327,4.61096,1.91589v2.20105c-1.72028.44714-3,1.99927-3,3.85797,0,2.20605,1.79443,4,4,4s4-1.79395,4-4c0-1.8587-1.27972-3.41083-3-3.85797v-2.20105c1.73273-.19263,3.31641-.87982,4.61096-1.91595l2.50391,2.50391c-.6991.98102-1.11487,2.17725-1.11487,3.47107,0,3.30859,2.69141,6,6,6s6-2.69141,6-6-2.69141-6-6-6ZM36.72803,9.27246c1.10303,0,2,.89746,2,2s-.89697,2-2,2-2-.89746-2-2,.89697-2,2-2ZM11.27197,38.72754c-1.10303,0-2-.89746-2-2s.89697-2,2-2,2,.89746,2,2-.89697,2-2,2ZM22,9c0-1.10254.89697-2,2-2s2,.89746,2,2-.89697,2-2,2-2-.89746-2-2ZM26,39c0,1.10254-.89697,2-2,2s-2-.89746-2-2,.89697-2,2-2,2,.89746,2,2ZM24,31c-3.85986,0-7-3.14062-7-7s3.14014-7,7-7,7,3.14062,7,7-3.14014,7-7,7ZM37,41c-2.20557,0-4-1.79395-4-4s1.79443-4,4-4,4,1.79395,4,4-1.79443,4-4,4Z"/>
        <path d="M28,23c-.55225,0-1,.44727-1,1,0,1.6543-1.3457,3-3,3-.55225,0-1,.44727-1,1s.44775,1,1,1c2.75684,0,5-2.24316,5-5,0-.55273-.44775-1-1-1Z"/>
        <path d="M25,20c0-.55273-.44775-1-1-1-2.75684,0-5,2.24316-5,5,0,.55273.44775,1,1,1s1-.44727,1-1c0-1.6543,1.3457-3,3-3,.55225,0,1-.44727,1-1Z"/>
        <circle cx="11" cy="6" r="1"/>
      </g>
    </g>
  </g>
</svg>