<?xml version="1.0" encoding="UTF-8"?>
<svg xmlns="http://www.w3.org/2000/svg" version="1.1" viewBox="0 0 64 64">
  <!-- Generator: Adobe Illustrator 28.7.1, SVG Export Plug-In . SVG Version: 1.2.0 Build 142)  -->
  <g>
    <g id="Outline">
      <g>
        <path d="M56,34h-10v-1c0-1.65002-1.34998-3-3-3-1.29999,0-2.40002.83997-2.82001,2h-1.17999v-1c0-1.65002-1.34998-3-3-3h-1v-2h2c1.65002,0,3-1.35004,3-3s-1.34998-3-3-3h-10c-1.65002,0-3,1.34998-3,3s1.34998,3,3,3h2v2h-1c-1.65002,0-3,1.34998-3,3v1h-1.17999c-.41998-1.16003-1.52002-2-2.82001-2-1.65002,0-3,1.34998-3,3h-10c-.54999,0-1,.45001-1,1v16c0,.54999.45001,1,1,1h10c0,1.64996,1.34998,3,3,3,1.29999,0,2.40002-.84003,2.82001-2h16.35999c.41998,1.15997,1.52002,2,2.82001,2,1.65002,0,3-1.35004,3-3v-1h10c.54999,0,1-.45001,1-1v-14c0-.54999-.45001-1-1-1ZM18,49h-9v-14h9v14ZM22,51c0,.54999-.45001,1-1,1s-1-.45001-1-1v-18c0-.54999.45001-1,1-1s1,.45001,1,1v18ZM27,24c-.54999,0-1-.45001-1-1s.45001-1,1-1h10c.54999,0,1,.45001,1,1s-.45001,1-1,1h-10ZM33,26v2h-2v-2h2ZM27,31c0-.54999.45001-1,1-1h8c.54999,0,1,.45001,1,1v1h-10v-1ZM40,50h-16v-16h16v16ZM44,51c0,.54999-.45001,1-1,1s-1-.45001-1-1v-18c0-.54999.45001-1,1-1s1,.45001,1,1v18ZM55,48h-9v-12h9v12Z"/>
        <path d="M50.73999,10.32996c-.37-.41998-1.10999-.41998-1.47998,0-.64001.72003-6.26001,7.08002-6.26001,10.67004,0,3.85999,3.14001,7,7,7s7-3.14001,7-7c0-3.59003-5.62-9.95001-6.26001-10.67004ZM50.40002,25.95996c-.13.01001-.26001.04004-.40002.04004s-.27002-.03003-.40002-.04004c-.90997-.19-1.59998-.98999-1.59998-1.91998.02002-.29999.54999-1.52997,2-3.59998,1.45001,2.07001,1.97998,3.29999,2,3.56,0,.96997-.69,1.76996-1.59998,1.95996ZM54,23.96997c-.03003-.75-.59998-1.89001-1.27002-3.01001-.66998-1.12-1.45996-2.19995-1.92999-2.82996-.38-.5-1.21997-.5-1.59998,0-.94,1.25-3.12,4.31-3.20001,5.83997-.62-.82996-1-1.84998-1-2.96997,0-1.91003,2.82001-5.88,5-8.48004,2.17999,2.59003,5,6.57001,5,8.48004,0,1.12-.38,2.14001-1,2.96997Z"/>
        <path d="M32.68749,36.27441c-.38476-.36621-.99023-.36621-1.375,0-.7207.68213-4.31249,4.21387-4.31249,6.72559,0,2.75684,2.24316,5,5,5s5-2.24316,5-5c0-2.51172-3.5918-6.04346-4.31251-6.72559ZM32,46c-1.6543,0-3-1.3457-3-3,0-1.04883,1.58301-3.10547,3-4.5874,1.41699,1.48193,3,3.53857,3,4.5874,0,1.6543-1.3457,3-3,3Z"/>
      </g>
    </g>
  </g>
</svg>