<?xml version="1.0" encoding="UTF-8"?>
<svg xmlns="http://www.w3.org/2000/svg" version="1.1" viewBox="0 0 48 48">
  <!-- Generator: Adobe Illustrator 28.7.1, SVG Export Plug-In . SVG Version: 1.2.0 Build 142)  -->
  <g>
    <g id="Outline">
      <g>
        <path d="M42,17c.54999,0,1-.45001,1-1v-8c0-.54999-.45001-1-1-1h-20c-.54999,0-1,.45001-1,1s.45001,1,1,1h19v6H7v-6h7c.54999,0,1-.45001,1-1s-.45001-1-1-1H6c-.54999,0-1,.45001-1,1v8c0,.54999.45001,1,1,1h9v6H6c-.54999,0-1,.45001-1,1v16c0,.54999.45001,1,1,1h36c.54999,0,1-.45001,1-1v-16c0-.54999-.45001-1-1-1h-9v-6h9ZM17,17h14v6h-14v-6ZM25,25v6h-2v-6h2ZM15,39H7v-6h8v6ZM7,31v-6h14v6H7ZM31,39h-14v-6h14v6ZM41,39h-8v-6h8v6ZM41,25v6h-14v-6h14Z"/>
        <circle cx="18" cy="8" r="1"/>
      </g>
    </g>
  </g>
</svg>