<?xml version="1.0" encoding="UTF-8"?>
<svg id="Outline" xmlns="http://www.w3.org/2000/svg" version="1.1" viewBox="0 0 48 48">
  <path d="M40,8h-3.1283c-.44708-1.72052-1.99933-3-3.85803-3s-3.41095,1.27948-3.85803,3h-10.29761c-.44708-1.72052-1.99933-3-3.85803-3s-3.41095,1.27948-3.85803,3h-3.14197c-1.6543,0-3,1.3457-3,3v29c0,1.6543,1.3457,3,3,3h32c1.6543,0,3-1.3457,3-3V11c0-1.6543-1.3457-3-3-3ZM33.01367,7c.73669,0,1.37469.40521,1.72168,1h-3.44336c.34698-.59479.98499-1,1.72168-1ZM15,7c.73669,0,1.37469.40521,1.72168,1h-3.44336c.34698-.59479.98499-1,1.72168-1ZM41,40c0,.55176-.44824,1-1,1H8c-.55176,0-1-.44824-1-1V11c0-.55176.44824-1,1-1h3.14197c.44708,1.72052,1.99933,3,3.85803,3,.55273,0,1-.44727,1-1s-.44727-1-1-1c-.73669,0-1.37469-.40521-1.72168-1h15.87732c.44708,1.72052,1.99933,3,3.85803,3,.55273,0,1-.44727,1-1s-.44727-1-1-1c-.73669,0-1.37469-.40521-1.72168-1h8.70801c.55176,0,1,.44824,1,1v29Z" fill="#000" stroke-width="0"/>
  <path d="M38,15H10c-.55273,0-1,.44727-1,1v22c0,.55273.44727,1,1,1h28c.55273,0,1-.44727,1-1v-22c0-.55273-.44727-1-1-1ZM11,37v-18.73828l7.45978,5.73828h-1.45978c-1.30194,0-2.40161.8385-2.81573,2h-1.18427c-.55273,0-1,.44727-1,1s.44727,1,1,1h1v5c0,.55273.44727,1,1,1h3c.37891,0,.72461-.21387.89453-.55273l1.72363-3.44727h1.76367l1.72363,3.44727c.16992.33887.51562.55273.89453.55273h3c.55273,0,1-.44727,1-1v-.89215l6.35974,4.89215H11ZM27,30.5694v1.4306h-1.38184l-1.72363-3.44727c-.16992-.33887-.51562-.55273-.89453-.55273h-3c-.37891,0-.72461.21387-.89453.55273l-1.72363,3.44727h-1.38184v-5c0-.55176.44824-1,1-1h4.05975l5.94025,4.5694ZM24.34021,26h2.65979v2.04596l-2.65979-2.04596ZM37,35.73828l-6.96973-5.36133,4.28613-1.42871c.4082-.13574.68359-.51758.68359-.94824v-2c0-.37891-.21387-.72461-.55273-.89453l-1.7627-.88086-1.85254-2.7793c-.21191-.31738-.58203-.4873-.96484-.43652-.37891.05078-.69531.3125-.81543.6748l-.77246,2.31641h-6.53906l-9.09998-7h24.35974v18.73828ZM29,28.6123v-2.6123c.43066,0,.81249-.27539.94824-.68359l.35352-1.06055.86621,1.29883c.09668.14453.22949.26172.38477.33984l1.44727.72363v.66113l-4,1.33301Z" fill="#000" stroke-width="0"/>
</svg>