<?xml version="1.0" encoding="UTF-8"?>
<svg id="Outline" xmlns="http://www.w3.org/2000/svg" version="1.1" viewBox="0 0 48 48">
  <path d="M40,8h-3.1283c-.44708-1.72052-1.99933-3-3.85803-3s-3.41095,1.27948-3.85803,3h-10.29761c-.4472-1.72052-1.99969-3-3.85803-3s-3.41083,1.27948-3.85803,3h-3.14197c-1.6543,0-3,1.3457-3,3v29c0,1.6543,1.3457,3,3,3h32c1.6543,0,3-1.3457,3-3V11c0-1.6543-1.3457-3-3-3ZM33.01367,7c.73669,0,1.37469.40521,1.72168,1h-3.44336c.34698-.59479.98499-1,1.72168-1ZM15,7c.737,0,1.37482.40521,1.72174,1h-3.44348c.34692-.59479.98474-1,1.72174-1ZM41,40c0,.55176-.44824,1-1,1H8c-.55127,0-1-.44824-1-1V11c0-.55176.44873-1,1-1h3.14197c.4472,1.72052,1.99969,3,3.85803,3,.55225,0,1-.44727,1-1s-.44775-1-1-1c-.737,0-1.37482-.40521-1.72174-1h15.87738c.44708,1.72052,1.99933,3,3.85803,3,.55273,0,1-.44727,1-1s-.44727-1-1-1c-.73669,0-1.37469-.40521-1.72168-1h8.70801c.55176,0,1,.44824,1,1v29Z" fill="#000" stroke-width="0"/>
  <path d="M38,15H10c-.55225,0-1,.44727-1,1v22c0,.55273.44775,1,1,1h28c.55273,0,1-.44727,1-1v-22c0-.55273-.44727-1-1-1ZM11,37v-18.73853l13.95038,10.73853h-8.95038c-1.6543,0-3,1.3457-3,3s1.3457,3,3,3h16c.22296,0,.43872-.02838.64789-.07471l2.69519,2.07471H11ZM27,31v2h-11c-.55127,0-1-.44824-1-1s.44873-1,1-1h11ZM29,33v-.88275l1.14673.88275h-1.14673ZM30.82672,31h1.17328c.55176,0,1,.44824,1,1,0,.20172-.07483.37885-.1778.53601l-1.99548-1.53601ZM37,35.75177l-2.58429-1.9892c.3631-.49609.58429-1.10199.58429-1.76257,0-1.6543-1.3457-3-3-3h-3.77155l-15.58966-12h24.36121v18.75177Z" fill="#000" stroke-width="0"/>
  <path d="M30.47266,24.81836l-.36719.73535c-.24707.49414-.0459,1.09375.44824,1.34082.48816.24402,1.09833.03943,1.34082-.44824l.36719-.73438c.57129-1.1416.34863-2.51562-.55469-3.41895-.29297-.29297-.36523-.73926-.17969-1.11133l.36719-.73535c.24707-.49414.0459-1.09375-.44824-1.34082-.49121-.24512-1.09473-.04785-1.34082.44824l-.36719.73438c-.57129,1.1416-.34863,2.51562.55469,3.41895.29297.29297.36523.73926.17969,1.11133Z" fill="#000" stroke-width="0"/>
</svg>