<?xml version="1.0" encoding="UTF-8"?>
<svg xmlns="http://www.w3.org/2000/svg" version="1.1" viewBox="0 0 64 64">
  <!-- Generator: Adobe Illustrator 28.7.1, SVG Export Plug-In . SVG Version: 1.2.0 Build 142)  -->
  <g>
    <g id="Outline">
      <path d="M56,44c.54999,0,1-.45001,1-1v-8c0-.54999-.45001-1-1-1s-1,.45001-1,1v3h-5v-5c0-1.65002-1.34998-3-3-3v-4c0-1.29999-.84003-2.40002-2-2.82001v-3.17999c0-1.02002-.31-1.96002-.83002-2.75l3.83002-3.84003v2.59003c0,.54999.45001,1,1,1s1-.45001,1-1v-5c0-.40002-.23999-.77002-.62-.92004-.37-.15997-.79999-.06995-1.09003.21002l-5.53998,5.53998c-.78998-.51996-1.72998-.82996-2.75-.82996-2.76001,0-5,2.23999-5,5v3.17999c-1.15997.41998-2,1.52002-2,2.82001h-2.16998l-2.69-14.37c-.17999-.94-1.01001-1.63-1.97003-1.63h-.16998v-2c0-.54999-.45001-1-1-1s-1,.45001-1,1v2h-.16998c-.96002,0-1.79004.69-1.97003,1.63l-2.71997,14.51001c-1.23004.37-2.14001,1.50995-2.14001,2.85999v1c-1.65002,0-3,1.34998-3,3v5h-5v-3c0-.54999-.45001-1-1-1s-1,.45001-1,1v8c0,.54999.45001,1,1,1h6v2c-1.09998,0-2,.89996-2,2v1.63c-1.56-.23999-3.17999.07996-4.56.98999-.27002.19-.44.5-.44.83997v4.54004c0,.37.20001.70996.53003.88.31995.17999.71997.15997,1.02997-.05005,1.47998-.98999,3.40002-.98999,4.88,0,.34003.23004.77997.23004,1.12,0,1.47998-.98999,3.40002-.98999,4.88,0,.34003.23004.77997.23004,1.12,0,1.47998-.98999,3.40002-.98999,4.88,0,.34003.23004.77997.23004,1.12,0,1.47998-.98999,3.40002-.98999,4.88,0,.34003.23004.77997.23004,1.12,0,1.47998-.98999,3.40002-.98999,4.88,0,.34003.23004.77997.23004,1.12,0,1.47998-.98999,3.40002-.98999,4.88,0,.34003.23004.77997.23004,1.12,0,1.47998-.98999,3.40002-.98999,4.88,0,.34003.23004.77997.23004,1.12,0,1.47998-.98999,3.40002-.98999,4.88,0,.16998.11005.37.17004.56.17004.15997,0,.32001-.04004.46997-.12.33002-.17004.53003-.51001.53003-.88v-4.54004c0-.33997-.16998-.64996-.44-.83997-1.38-.91003-3-1.22998-4.56-.98999v-1.63c0-1.10004-.90002-2-2-2v-2h6ZM40,17c1.29999,0,2.40002.83997,2.82001,2h-5.64001c.41998-1.16003,1.52002-2,2.82001-2ZM37,21h6v2h-6v-2ZM23.83002,12h2.33997l.37,2h-3.07996l.37-2ZM23.08002,16h3.83997l.75,4h-5.33997l.75-4ZM21.96002,22h6.07996l.75,4h-7.57996l.75-4ZM19,29c0-.54999.45001-1,1-1h14c.54999,0,1-.45001,1-1v-1c0-.54999.45001-1,1-1h8c.54999,0,1,.45001,1,1v4h-26v-1ZM16,33c0-.54999.45001-1,1-1h30c.54999,0,1,.45001,1,1v5h-8v-3c0-.54999-.45001-1-1-1h-14c-.54999,0-1,.45001-1,1v3h-8v-5ZM38,36v2h-12v-2h12ZM14,48h6v2.28998c-1.88-1-4.12-1-6,0v-2.28998ZM16,46v-2h2v2h-2ZM50.56,52.28998c1.34003-.89996,3.03003-.98999,4.44-.26001v2.38c-1.64001-.53998-3.44-.39996-5,.42999-.94-.5-1.96997-.75-3-.75s-2.06.25-3,.75c-1.88-1-4.12-1-6,0-1.88-1-4.12-1-6,0-1.88-1-4.12-1-6,0-1.88-1-4.12-1-6,0-1.88-1-4.12-1-6,0-1.54999-.82996-3.35999-.96997-5-.42999v-2.38c1.40997-.72998,3.09998-.63995,4.44.26001.34003.22003.77997.22003,1.12,0,1.47998-.98999,3.40002-.98999,4.88,0,.34003.22003.77997.22003,1.12,0,1.47998-.98999,3.40002-.98999,4.88,0,.34003.22003.77997.22003,1.12,0,1.47998-.98999,3.40002-.98999,4.88,0,.34003.22003.77997.22003,1.12,0,1.47998-.98999,3.40002-.98999,4.88,0,.34003.22003.77997.22003,1.12,0,1.47998-.98999,3.40002-.98999,4.88,0,.34003.22003.77997.22003,1.12,0,1.47998-.98999,3.40002-.98999,4.88,0,.34003.22003.77997.22003,1.12,0ZM35,48v1.53998c-1.03003,0-2.06.25-3,.75-.94-.5-1.96997-.75-3-.75v-1.53998h6ZM31,46v-2h2v2h-2ZM29,46c-1.09998,0-2,.89996-2,2v1.88c-.34003.10999-.67999.23999-1,.40997-1.23999-.65997-2.65002-.87-4-.65997v-1.63c0-1.10004-.90002-2-2-2v-2h9v2ZM50,48v2.28998c-1.88-1-4.12-1-6,0v-2.28998h6ZM46,46v-2h2v2h-2ZM44,46c-1.09998,0-2,.89996-2,2v1.63c-1.34998-.21002-2.76001,0-4,.65997-.32001-.16998-.65997-.29999-1-.40997v-1.88c0-1.10004-.90002-2-2-2v-2h9v2ZM9,42v-2h46v2H9Z"/>
    </g>
  </g>
</svg>