<?xml version="1.0" encoding="UTF-8"?>
<svg xmlns="http://www.w3.org/2000/svg" version="1.1" viewBox="0 0 64 64">
  <!-- Generator: Adobe Illustrator 28.7.1, SVG Export Plug-In . SVG Version: 1.2.0 Build 142)  -->
  <g>
    <g id="Outline">
      <g>
        <path d="M55,45.17999v-16.17999c0-4.41003-3.59003-8-8-8h-2v-1c0-1.65002-1.34998-3-3-3-1.29999,0-2.40002.83997-2.82001,2h-1.17999c0-1.85999-1.28003-3.41003-3-3.85999v-2.14001h1c1.65002,0,3-1.35004,3-3s-1.34998-3-3-3h-8c-1.65002,0-3,1.34998-3,3s1.34998,3,3,3h1v2.14001c-1.71997.44995-3,2-3,3.85999h-1.17999c-.41998-1.16003-1.52002-2-2.82001-2-1.65002,0-3,1.34998-3,3v1h-2c-4.40997,0-8,3.58997-8,8v16.17999c-1.15997.41998-2,1.52002-2,2.82001s.84003,2.39996,2,2.82001v5.17999c0,.54999.45001,1,1,1h6c.54999,0,1-.45001,1-1v-5.17999c1.15997-.42004,2-1.52002,2-2.82001s-.84003-2.40002-2-2.82001v-16.17999h2v1c0,1.64996,1.34998,3,3,3,1.29999,0,2.40002-.84003,2.82001-2h14.35999c.41998,1.15997,1.52002,2,2.82001,2,1.65002,0,3-1.35004,3-3v-1h2v16.17999c-1.15997.41998-2,1.52002-2,2.82001s.84003,2.39996,2,2.82001v5.17999c0,.54999.45001,1,1,1h6c.54999,0,1-.45001,1-1v-5.17999c1.15997-.42004,2-1.52002,2-2.82001s-.84003-2.40002-2-2.82001ZM15,55h-4v-4h4v4ZM16,49h-6c-.54999,0-1-.45001-1-1s.45001-1,1-1h6c.54999,0,1,.45001,1,1s-.45001,1-1,1ZM19,27h-2c-1.09998,0-2,.89996-2,2v16h-4v-16c0-3.31,2.69-6,6-6h2v4ZM23,30c0,.54999-.45001,1-1,1s-1-.45001-1-1v-10c0-.54999.45001-1,1-1s1,.45001,1,1v10ZM28,11c-.54999,0-1-.45001-1-1s.45001-1,1-1h8c.54999,0,1,.45001,1,1s-.45001,1-1,1h-8ZM33,13v2h-2v-2h2ZM30,17h4c1.09998,0,2,.89996,2,2h-8c0-1.10004.90002-2,2-2ZM39,29h-14v-8h14v8ZM43,30c0,.54999-.45001,1-1,1s-1-.45001-1-1v-10c0-.54999.45001-1,1-1s1,.45001,1,1v10ZM45,27v-4h2c3.31,0,6,2.69,6,6v16h-4v-16c0-1.10004-.90002-2-2-2h-2ZM53,55h-4v-4h4v4ZM54,49h-6c-.54999,0-1-.45001-1-1s.45001-1,1-1h6c.54999,0,1,.45001,1,1s-.45001,1-1,1Z"/>
        <path d="M32,33c-6.06543,0-11,4.93457-11,11s4.93457,11,11,11,11-4.93457,11-11-4.93457-11-11-11ZM32,53c-4.96289,0-9-4.0376-9-9s4.03711-9,9-9,9,4.0376,9,9-4.03711,9-9,9Z"/>
        <path d="M32.64648,37.2373c-.37305-.31641-.91992-.31641-1.29297,0-.54785.46436-5.35352,4.62891-5.35352,7.7627,0,3.30859,2.69141,6,6,6s6-2.69141,6-6c0-3.13379-4.80566-7.29834-5.35352-7.7627ZM32,49c-2.20605,0-4-1.79443-4-4,0-1.48096,2.24023-4.03955,4-5.66406,1.76074,1.62256,4,4.18018,4,5.66406,0,2.20557-1.79395,4-4,4Z"/>
      </g>
    </g>
  </g>
</svg>