<?xml version="1.0" encoding="UTF-8"?>
<svg xmlns="http://www.w3.org/2000/svg" version="1.1" viewBox="0 0 64 64">
  <!-- Generator: Adobe Illustrator 28.7.1, SVG Export Plug-In . SVG Version: 1.2.0 Build 142)  -->
  <g>
    <g id="Outline">
      <g>
        <path d="M24,17c2.24316,0,4-1.31738,4-3s-1.75684-3-4-3-4,1.31738-4,3,1.75684,3,4,3ZM24,13c1.2207,0,2,.5918,2,1s-.7793,1-2,1-2-.5918-2-1,.7793-1,2-1Z"/>
        <path d="M32,42c3.85938,0,7-3.14062,7-7,0-3.59277-5.61523-9.9541-6.25586-10.66797-.37891-.42188-1.10938-.42188-1.48828,0-.64062.71387-6.25586,7.0752-6.25586,10.66797,0,3.85938,3.14062,7,7,7ZM32,26.52539c2.18359,2.58984,5,6.56641,5,8.47461,0,2.75684-2.24316,5-5,5s-5-2.24316-5-5c0-1.90625,2.81641-5.88379,5-8.47461Z"/>
        <path d="M32,38c.55273,0,1-.44727,1-1s-.44727-1-1-1c-.53418,0-.98242-.43457-1-.96973-.0166-.54102-.46094-.96777-.99805-.96777-.01074,0-.02148,0-.0332.00098-.55176.01758-.98438.47852-.9668,1.03125.05176,1.62891,1.36816,2.90527,2.99805,2.90527Z"/>
        <path d="M56.45001,47.31c-.35004-.85004-.51001-1.66003-.46002-2.38.01001-.14001.01001-.28998.01001-.42999,0-3.08002-2.14001-5.98999-6-8.23004V14c0-4.54999-9.27002-7-18-7s-18,2.45001-18,7v21.70001c-4.52002,2.32996-7,5.44-7,8.79999,0,.51001.06,1.01996.17999,1.5.17999.82001.17999,1.64001,0,2.44-.21997.92999-.23999,1.90997-.04999,2.90997.56,2.96002,3.04999,5.26001,6.07001,5.60004,1.69.19,3.39001-.24005,4.77997-1.20001.48999-.34003,1.08002-.45001,1.63-.29004,3.62,1.01001,7.73004,1.54004,11.89001,1.54004,4.42999,0,8.77002-.60004,12.53998-1.73004.60003-.17999,1.25999-.04999,1.77001.34002,1.48764,1.1376,3.44623,1.58975,5.28999,1.31001,2.90002-.44,5.28003-2.77002,5.80005-5.66998.22998-1.35004.06995-2.72003-.45001-3.94ZM32,9c9.90997,0,16,2.90997,16,5s-6.09003,5-16,5-16-2.91003-16-5,6.09003-5,16-5ZM16,17.32001c3.19,2.40997,9.72998,3.67999,16,3.67999s12.81-1.27002,16-3.67999v21.67999c0,2.08997-6.09003,5-16,5s-16-2.91003-16-5v-21.67999ZM16,42.32001c3.19,2.40997,9.72998,3.67999,16,3.67999s12.81-1.27002,16-3.67999v2.67999c0,2.08997-6.09003,5-16,5s-16-2.91003-16-5v-2.67999ZM54.92999,50.90997c-.37,2.06-2.07001,3.72003-4.13,4.03003-1.35999.20001-2.70996-.12-3.77997-.92999-1.02002-.77002-2.34003-1.01001-3.55005-.66003-3.58997,1.08002-7.72998,1.65002-11.96997,1.65002-3.97998,0-7.90997-.51001-11.34998-1.46002-1.12-.32001-2.33002-.10999-3.31.57001-.99005.69-2.21002.98999-3.42004.85999-2.14996-.25-3.92999-1.89001-4.32996-3.98999-.13-.71997-.12006-1.41998.02997-2.08002.26001-1.10999.26001-2.22998,0-3.34998-.08002-.34003-.12-.70001-.12-1.04999,0-2.33002,1.79999-4.65002,5-6.53003v7.03003c0,4.54999,9.27002,7,18,7s18-2.45001,18-7v-6.39001c2.59003,1.75,4,3.79999,4,5.89001,0,.07996,0,.16998-.01001.27997-.06,1.04999.14001,2.16003.62,3.29999.37.88.48004,1.86005.32001,2.83002Z"/>
      </g>
    </g>
  </g>
</svg>