<?xml version="1.0" encoding="UTF-8"?>
<svg xmlns="http://www.w3.org/2000/svg" version="1.1" viewBox="0 0 64 64">
  <!-- Generator: Adobe Illustrator 28.7.1, SVG Export Plug-In . SVG Version: 1.2.0 Build 142)  -->
  <g>
    <g id="Outline">
      <path d="M54,51v-6.17999c1.15997-.42004,2-1.52002,2-2.82001,0-1.65002-1.34998-3-3-3h-1v-2c0-1.29999-.84003-2.40002-2-2.82001v-11.17999c1.65002,0,3-1.35004,3-3v-1h1c1.65002,0,3-1.35004,3-3s-1.34998-3-3-3h-19v-1c0-1.65002-1.34998-3-3-3s-3,1.34998-3,3v1h-12v-3c0-1.65002-1.34998-3-3-3h-4c-.27002,0-.52002.10999-.71002.28998l-2,2c-.17999.19-.28998.44-.28998.71002v12c0,.26996.10999.51996.28998.70996l2,2c.19.18005.44.29004.71002.29004h2v20.17999c-1.15997.41998-2,1.52002-2,2.82001v3c-1.65002,0-3,1.34998-3,3s1.34998,3,3,3h44c1.65002,0,3-1.35004,3-3s-1.34998-3-3-3ZM53,41c.54999,0,1,.45001,1,1s-.45001,1-1,1h-8c-.54999,0-1-.45001-1-1s.45001-1,1-1h8ZM52,45v6h-6v-6h6ZM44,44.82001v6.17999h-4.09003l-2.82996-28.21002c1.12-.44,1.91998-1.52002,1.91998-2.78998,0-.35004-.07001-.69-.17999-1h6.17999v1c0,1.64996,1.34998,3,3,3v11.17999c-1.15997.41998-2,1.52002-2,2.82001v2h-1c-1.65002,0-3,1.34998-3,3,0,1.29999.84003,2.39996,2,2.82001ZM35.59003,28l.29999,3h-7.78003l.29999-3h7.18005ZM28.60999,26l.29999-3h6.18005l.29999,3h-6.78003ZM36.09003,33l.29999,3h-8.78003l.29999-3h8.18005ZM36.59003,38l.29999,3h-9.78003l.29999-3h9.18005ZM36,21h-8c-.54999,0-1-.45001-1-1s.45001-1,1-1h8c.54999,0,1,.45001,1,1s-.45001,1-1,1ZM37.09003,43l.29999,3h-10.78003l.29999-3h10.18005ZM37.59003,48l.29999,3h-11.78003l.29999-3h11.18005ZM49,36c.54999,0,1,.45001,1,1v2h-2v-2c0-.54999.45001-1,1-1ZM51,20c0,.54999-.45001,1-1,1h-2c-.54999,0-1-.45001-1-1v-1h4v1ZM31,12c0-.54999.45001-1,1-1s1,.45001,1,1v1h-2v-1ZM17,15h37c.54999,0,1,.45001,1,1s-.45001,1-1,1H17v-2ZM17,22v-3h8.17999c-.10999.31-.17999.64996-.17999,1,0,1.26996.79999,2.34998,1.91998,2.78998l-2.82996,28.21002h-8.09003v-3c0-1.29999-.84003-2.40002-2-2.82001v-20.17999c1.65002,0,3-1.35004,3-3ZM10.40997,23l-1.40997-1.41003v-11.17999l1.40997-1.40997h3.59003c.54999,0,1,.45001,1,1v12c0,.54999-.45001,1-1,1h-3.59003ZM12,48c0-.54999.45001-1,1-1s1,.45001,1,1v3h-2v-3ZM54,55H10c-.54999,0-1-.45001-1-1s.45001-1,1-1h44c.54999,0,1,.45001,1,1s-.45001,1-1,1Z"/>
    </g>
  </g>
</svg>