<?xml version="1.0" encoding="UTF-8"?>
<svg xmlns="http://www.w3.org/2000/svg" version="1.1" viewBox="0 0 64 64">
  <!-- Generator: Adobe Illustrator 28.7.1, SVG Export Plug-In . SVG Version: 1.2.0 Build 142)  -->
  <g>
    <g id="Outline">
      <g>
        <path d="M53.13122,16.21997c-.23999-.19-.54999-.26001-.84998-.20001l-2.21002.5c-4.27002.95001-8.73999.77002-12.91998-.51996-4.32001-1.33002-8.94-1.56-13.37-.67999l-2.28003.45996v-2.15997c.60999-.71002,1-1.60999,1-2.62,0-2.21002-1.78998-4-4-4s-4,1.78998-4,4c0,1.01001.39001,1.90997,1,2.62v35.38h-2c-.54999,0-1,.45001-1,1,0,1.76001-.52002,3.46997-1.5,4.94l-.33002.51001c-.20996.29999-.22998.69995-.04999,1.01996.16998.33002.51001.53003.88.53003h14c.37,0,.71002-.20001.88-.53003.17999-.32001.15997-.71997-.04999-1.01996l-.33002-.51001c-.97998-1.47003-1.5-3.17999-1.5-4.94,0-.54999-.45001-1-1-1h-2v-5.17999l2.66998-.53003c4.11005-.83002,8.39001-.60999,12.39001.62,2.60999.79999,5.32001,1.21002,8.03003,1.21002,1.97998,0,3.95996-.22003,5.90997-.65002l2.21997-.48999c.45001-.10999.78003-.51001.78003-.97998v-26c0-.29999-.14001-.59003-.37-.78003ZM18.50121,9c1.09998,0,2,.89996,2,2,0,1.09998-.90002,2-2,2s-2-.90002-2-2c0-1.10004.90002-2,2-2ZM19.50121,14.85999v34.14001h-2V14.85999c.32001.08002.65002.14001,1,.14001s.67999-.06,1-.14001ZM22.5512,51c.12,1.39996.52002,2.75,1.16003,4h-10.42004c.64001-1.25,1.04004-2.60004,1.16003-4h8.09998ZM51.50121,42.20001l-1.42999.31995c-4.27002.95001-8.73999.77002-12.91998-.51996-2.60004-.79999-5.31-1.20001-8.03003-1.20001-1.78998,0-3.58002.16998-5.33997.52002l-2.28003.45996v-23.95996l2.66998-.53003c4.11005-.83002,8.39001-.60999,12.39001.62,4.51001,1.39001,9.33002,1.58002,13.94.56l1-.21997v23.95001Z"/>
        <path d="M45.04735,28.05524c.28552-.62866.45386-1.32098.45386-2.05524,0-2.75684-2.24316-5-5-5-1.6413,0-3.08777.80573-4,2.03094-.91223-1.22522-2.3587-2.03094-4-2.03094-2.75684,0-5,2.24316-5,5,0,.73425.16833,1.42657.45386,2.05524-2.49744.27631-4.45386,2.37494-4.45386,4.94476,0,2.75684,2.24316,5,5,5,1.6413,0,3.08777-.80573,4-2.03094.91223,1.22522,2.3587,2.03094,4,2.03094s3.08777-.80573,4-2.03094c.91223,1.22522,2.3587,2.03094,4,2.03094,2.75684,0,5-2.24316,5-5,0-2.56982-1.95642-4.66846-4.45386-4.94476ZM40.50121,23c1.6543,0,3,1.3457,3,3s-1.3457,3-3,3-3-1.3457-3-3,1.3457-3,3-3ZM32.50121,23c1.6543,0,3,1.3457,3,3s-1.3457,3-3,3-3-1.3457-3-3,1.3457-3,3-3ZM28.50121,36c-1.6543,0-3-1.3457-3-3s1.3457-3,3-3,3,1.3457,3,3-1.3457,3-3,3ZM36.50121,36c-1.6543,0-3-1.3457-3-3s1.3457-3,3-3,3,1.3457,3,3-1.3457,3-3,3ZM44.50121,36c-1.6543,0-3-1.3457-3-3s1.3457-3,3-3,3,1.3457,3,3-1.3457,3-3,3Z"/>
      </g>
    </g>
  </g>
</svg>