<?xml version="1.0" encoding="UTF-8"?>
<svg xmlns="http://www.w3.org/2000/svg" version="1.1" viewBox="0 0 64 64">
  <!-- Generator: Adobe Illustrator 28.7.1, SVG Export Plug-In . SVG Version: 1.2.0 Build 142)  -->
  <g>
    <g id="Outline">
      <g>
        <path d="M27,43h-5v-7c0-.55273-.44727-1-1-1s-1,.44727-1,1v8c0,.55273.44727,1,1,1h6c.55273,0,1-.44727,1-1s-.44727-1-1-1Z"/>
        <path d="M31,41c-.55273,0-1,.44727-1,1v2c0,.55273.44727,1,1,1s1-.44727,1-1v-2c0-.55273-.44727-1-1-1Z"/>
        <circle cx="31" cy="38" r="1"/>
        <path d="M50,36c-1.6543,0-3,1.3457-3,3v2c0,2.20605,1.79395,4,4,4,.55273,0,1-.44727,1-1s-.44727-1-1-1c-.73669,0-1.37469-.40521-1.72168-1h.72168c1.6543,0,3-1.3457,3-3s-1.3457-3-3-3ZM50,40h-1v-1c0-.55176.44824-1,1-1s1,.44824,1,1-.44824,1-1,1Z"/>
        <path d="M54,31h-5.17999c.10999-.31.17999-.65002.17999-1v-12c0-1.65002-1.34998-3-3-3h-4c-.54999,0-1,.45001-1,1s.45001,1,1,1h4c.54999,0,1,.45001,1,1v12c0,.54999-.45001,1-1,1h-16c-.54999,0-1-.45001-1-1v-12c0-.54999.45001-1,1-1h8c.54999,0,1-.45001,1-1s-.45001-1-1-1h-8c-.77002,0-1.46997.29999-2,.77997-.53003-.47998-1.22998-.77997-2-.77997H10c-1.65002,0-3,1.34998-3,3v12c0,1.64996,1.34998,3,3,3h5.17999c-.10999.31-.17999.64996-.17999,1v12c0,1.64996,1.34998,3,3,3h16c.77002,0,1.46997-.29999,2-.78003.53003.48004,1.22998.78003,2,.78003h16c1.65002,0,3-1.35004,3-3v-12c0-1.65002-1.34998-3-3-3ZM35,46c0,.54999-.45001,1-1,1h-16c-.54999,0-1-.45001-1-1v-12c0-.54999.45001-1,1-1h1c.54999,0,1-.45001,1-1s-.45001-1-1-1h-9c-.54999,0-1-.45001-1-1v-12c0-.54999.45001-1,1-1h16c.54999,0,1,.45001,1,1v12c0,.54999-.45001,1-1,1h-3c-.54999,0-1,.45001-1,1s.45001,1,1,1h11c.54999,0,1,.45001,1,1v12ZM55,46c0,.54999-.45001,1-1,1h-16c-.54999,0-1-.45001-1-1v-12c0-.54999.45001-1,1-1h16c.54999,0,1,.45001,1,1v12Z"/>
        <path d="M38,21c.79492,0,1.55078.31348,2.12793.88184.39453.3877,1.02734.38281,1.41406-.00977.3877-.39355.38379-1.02637-.00977-1.41406-.9541-.94043-2.20898-1.45801-3.53223-1.45801-2.75684,0-5,2.24316-5,5s2.24316,5,5,5c1.32324,0,2.57812-.51758,3.53223-1.45801.39355-.3877.39746-1.02051.00977-1.41406-.38574-.39258-1.01855-.39844-1.41406-.00977-.57715.56836-1.33301.88184-2.12793.88184-1.6543,0-3-1.3457-3-3s1.3457-3,3-3Z"/>
        <path d="M42,35h-2c-.55273,0-1,.44727-1,1v8c0,.55273.44727,1,1,1h2c1.6543,0,3-1.3457,3-3,0-.77112-.30054-1.46802-.78027-2,.47974-.53198.78027-1.22888.78027-2,0-1.6543-1.3457-3-3-3ZM41,37h1c.55176,0,1,.44824,1,1s-.44824,1-1,1h-1v-2ZM42,43h-1v-2h1c.55176,0,1,.44824,1,1s-.44824,1-1,1Z"/>
        <path d="M16,19c-.55273,0-1,.44727-1,1v3h-2v-3c0-.55273-.44727-1-1-1s-1,.44727-1,1v8c0,.55273.44727,1,1,1s1-.44727,1-1v-3h2v3c0,.55273.44727,1,1,1s1-.44727,1-1v-8c0-.55273-.44727-1-1-1Z"/>
        <path d="M21,28v-3h3c.55273,0,1-.44727,1-1s-.44727-1-1-1h-3v-2h3c.55273,0,1-.44727,1-1s-.44727-1-1-1h-4c-.55273,0-1,.44727-1,1v8c0,.55273.44727,1,1,1s1-.44727,1-1Z"/>
      </g>
    </g>
  </g>
</svg>