<?xml version="1.0" encoding="UTF-8"?>
<svg id="Outline" xmlns="http://www.w3.org/2000/svg" version="1.1" viewBox="0 0 64 64">
  <path d="M15.25586,11.33203c-.54395.60596-3.25586,3.72656-3.25586,5.66797,0,2.20557,1.79395,4,4,4s4-1.79443,4-4c0-1.94141-2.71191-5.06201-3.25586-5.66797-.37891-.42285-1.10938-.42285-1.48828,0ZM16,19c-1.10254,0-2-.89697-2-2,0-.63721.93945-2.12549,2-3.45117,1.06249,1.33252,2,2.83154,2,3.45117,0,1.10303-.89746,2-2,2Z" fill="#000" stroke-width="0"/>
  <path d="M56,33c.54999,0,1-.45001,1-1v-4c0-.54999-.45001-1-1-1h-2v-9c0-3.31-2.69-6-6-6h-10v-2c0-.54999-.45001-1-1-1h-4c-.54999,0-1,.45001-1,1v2h-7.95001c-1.47998-2.96002-4.52997-5-8.04999-5-4.96002,0-9,4.03998-9,9s4.03998,9,9,9c3.52002,0,6.57001-2.04004,8.04999-5h7.95001v2c0,.54999.45001,1,1,1h4c.54999,0,1-.45001,1-1v-2h7c.54999,0,1,.45001,1,1v6h-2c-.54999,0-1,.45001-1,1v4c0,.54999.45001,1,1,1h2v2h-8v-2c0-.54999-.45001-1-1-1h-4c-.54999,0-1,.45001-1,1v2h-9v-2h2c1.65002,0,3-1.35004,3-3s-1.34998-3-3-3h-10c-1.65002,0-3,1.34998-3,3s1.34998,3,3,3h2v2h-4c-3.31,0-6,2.69-6,6v15c0,.54999.45001,1,1,1h6c.54999,0,1-.45001,1-1v-12c0-.54999.45001-1,1-1h16v2c0,.54999.45001,1,1,1h4c.54999,0,1-.45001,1-1v-2h8v2h-2c-.54999,0-1,.45001-1,1v4c0,.54999.45001,1,1,1h2v5c0,.54999.45001,1,1,1h6c.54999,0,1-.45001,1-1v-5h2c.54999,0,1-.45001,1-1v-4c0-.54999-.45001-1-1-1h-2v-12h2ZM16,23c-3.85999,0-7-3.14001-7-7s3.14001-7,7-7,7,3.14001,7,7-3.14001,7-7,7ZM32,18h-7.22998c.14996-.64001.22998-1.31.22998-2s-.08002-1.35999-.22998-2h7.22998v4ZM36,21h-2v-10h2v10ZM15,31c-.54999,0-1-.45001-1-1s.45001-1,1-1h10c.54999,0,1,.45001,1,1s-.45001,1-1,1h-10ZM21,33v2h-2v-2h2ZM32,41h-16c-1.65002,0-3,1.34998-3,3v11h-4v-14c0-2.21002,1.78998-4,4-4h19v4ZM36,44h-2v-10h2v10ZM45,18h-7v-4h10c2.21002,0,4,1.78998,4,4v9h-4v-6c0-1.65002-1.34998-3-3-3ZM38,41v-4h8v4h-8ZM52,55h-4v-4h4v4ZM55,47v2h-10v-2h10ZM48,45v-12h4v12h-4ZM45,31v-2h10v2h-10Z" fill="#000" stroke-width="0"/>
</svg>