<?xml version="1.0" encoding="UTF-8"?>
<svg id="Outline" xmlns="http://www.w3.org/2000/svg" version="1.1" viewBox="0 0 64 64">
  <path d="M29.10254,25.77637c.20703.77441.70361,1.4209,1.39795,1.82129.46191.2666.9751.40332,1.49463.40332.26074,0,.52295-.03418.78125-.10352.43842-.11725.8288-.33588,1.16406-.62219l1.02341.59093c.44023.25419,1.0894.11316,1.36623-.3662.27588-.47852.1123-1.08984-.36621-1.36621l-1.02551-.5921c.22174-1.21277-.31122-2.48859-1.43787-3.14032-.69385-.40039-1.50342-.50684-2.27686-.2998-.43872.11786-.82904.33673-1.16418.62311l-4.48767-2.59088c-.48047-.27734-1.09033-.1123-1.36621.36621s-.1123,1.08984.36621,1.36621l4.48773,2.59094c-.08026.43329-.07446.88068.04303,1.31921ZM31.74158,24.03466c.82975-.23238,1.56136.7058,1.12384,1.46626-.13384.23083-.34923.39568-.6066.4649-.51443.13835-1.08292-.17647-1.22462-.70695-.14322-.53616.19931-1.0819.70738-1.2242Z" fill="#000" stroke-width="0"/>
  <path d="M56,47h-3v-1c0-.54999-.45001-1-1-1h-4c-.54999,0-1,.45001-1,1v1h-2.17999c-.41998-1.16003-1.52002-2-2.82001-2h-6v-4.48999c7.45001-1.81,13-8.52002,13-16.51001,0-9.37-7.63-17-17-17S15,14.63,15,24c0,7.98999,5.54999,14.70001,13,16.51001v4.48999h-6c-1.29999,0-2.40002.83997-2.82001,2h-2.17999v-1c0-.54999-.45001-1-1-1h-4c-.54999,0-1,.45001-1,1v1h-3c-.54999,0-1,.45001-1,1v6c0,.54999.45001,1,1,1h3v1c0,.54999.45001,1,1,1h4c.54999,0,1-.45001,1-1v-1h2.17999c.41998,1.15997,1.52002,2,2.82001,2h20c1.29999,0,2.40002-.84003,2.82001-2h2.17999v1c0,.54999.45001,1,1,1h4c.54999,0,1-.45001,1-1v-1h3c.54999,0,1-.45001,1-1v-6c0-.54999-.45001-1-1-1ZM11,53h-2v-4h2v4ZM15,55h-2v-8h2v8ZM19,53h-2v-4h2v4ZM17,24c0-8.27002,6.72998-15,15-15s15,6.72998,15,15-6.72998,15-15,15-15-6.73004-15-15ZM34,41v4h-4v-4h4ZM43,54c0,.54999-.45001,1-1,1h-20c-.54999,0-1-.45001-1-1v-6c0-.54999.45001-1,1-1h20c.54999,0,1,.45001,1,1v6ZM47,53h-2v-4h2v4ZM51,55h-2v-8h2v8ZM55,53h-2v-4h2v4Z" fill="#000" stroke-width="0"/>
  <path d="M24.9292,18.34277c.37633.37622,1.02418.38988,1.41406,0,.39062-.39062.39062-1.02344,0-1.41406l-1.37695-1.37665c1.66736-1.39062,3.75085-2.29443,6.03369-2.5014v1.94934c0,.55273.44775,1,1,1s1-.44727,1-1v-1.94934c2.28284.20697,4.36633,1.11078,6.03369,2.5014l-1.37695,1.37665c-.39062.39062-.39062,1.02344,0,1.41407.38579.38578,1.02915.38489,1.41405,0l1.37701-1.37665c1.59167,1.90833,2.55219,4.36041,2.55219,7.03387,0,.55273.44775,1,1,1s1-.44727,1-1c0-3.56989-1.44769-6.80713-3.78534-9.15887-.0094-.01019-.01239-.02362-.02228-.03351s-.02338-.01288-.03357-.02228c-2.35168-2.33759-5.58881-3.78534-9.15881-3.78534s-6.80713,1.44775-9.15881,3.78534c-.01019.0094-.02368.01239-.03357.02228s-.01288.02332-.02228.03351c-2.33765,2.35175-3.78534,5.58899-3.78534,9.15887,0,.55273.44775,1,1,1s1-.44727,1-1c0-2.67346.96051-5.12555,2.55219-7.03387l1.37701,1.37665Z" fill="#000" stroke-width="0"/>
  <path d="M39,35v-4c0-.55273-.44775-1-1-1h-12c-.55225,0-1,.44727-1,1v4c0,.55273.44775,1,1,1h12c.55225,0,1-.44727,1-1ZM37,34h-10v-2h10v2Z" fill="#000" stroke-width="0"/>
  <circle cx="32" cy="51" r="1" fill="#000" stroke-width="0"/>
  <circle cx="26" cy="51" r="1" fill="#000" stroke-width="0"/>
  <circle cx="38" cy="51" r="1" fill="#000" stroke-width="0"/>
</svg>