<?xml version="1.0" encoding="utf-8"?>
<!-- Generator: Adobe Illustrator 27.3.1, SVG Export Plug-In . SVG Version: 6.00 Build 0)  -->
<svg version="1.1" id="Outline" xmlns="http://www.w3.org/2000/svg" xmlns:xlink="http://www.w3.org/1999/xlink" x="0px" y="0px"
	 viewBox="0 0 48 48" enable-background="new 0 0 48 48" xml:space="preserve">
<g>
	<path d="M19.00049,33.66016h9.99902c0.35742,0,0.6875-0.19043,0.86621-0.5L34.86621,24.5c0.17822-0.30957,0.17822-0.69043,0-1
		l-5.00049-8.66064c-0.17871-0.30957-0.50879-0.5-0.86621-0.5h-9.99902c-0.35742,0-0.6875,0.19043-0.86621,0.5L13.13379,23.5
		c-0.17822,0.30957-0.17822,0.69043,0,1l5.00049,8.66016C18.31299,33.46973,18.64307,33.66016,19.00049,33.66016z
		 M19.57764,16.33936h8.84473L32.84521,24l-4.42285,7.66016h-8.84473L15.15479,24L19.57764,16.33936z"/>
	<path d="M11.97919,11.97919c0.3905-0.39056,0.3905-1.02368,0-1.41425c-0.3905-0.3905-1.02368-0.3905-1.41425,0
		c-0.3905,0.39056-0.3905,1.02368,0,1.41425C10.95551,12.36969,11.58868,12.36969,11.97919,11.97919z"/>
	<path d="M24,5c-3.59717,0-7.10156,1.01465-10.13477,2.93506c-0.4668,0.29492-0.60547,0.91309-0.31006,1.37939
		c0.29443,0.46582,0.91113,0.60645,1.37939,0.31006C17.36536,8.08624,20.13556,7.20337,23,7.03522v2.01544
		C15.52753,9.54712,9.54712,15.52753,9.05066,23H7.03522c0.16815-2.86444,1.05103-5.63464,2.58929-8.06543
		c0.29541-0.46631,0.15674-1.08447-0.31006-1.37939c-0.46729-0.29688-1.08496-0.15674-1.37939,0.31006
		C6.01465,16.89844,5,20.40283,5,24c0,10.47656,8.52344,19,19,19s19-8.52344,19-19S34.47656,5,24,5z M40.94934,23h-2
		C38.45288,15.52753,32.47247,9.54712,25,9.05066v-2C33.57501,7.55316,40.44684,14.42499,40.94934,23z M24,11
		c7.16846,0,13,5.83154,13,13c0,7.16797-5.83154,13-13,13s-13-5.83203-13-13C11,16.83154,16.83154,11,24,11z M7.05066,25h2
		C9.54712,32.47284,15.52753,38.45288,23,38.94934v2C14.42499,40.44684,7.55316,33.57501,7.05066,25z M25,40.94934v-2
		C32.47247,38.45288,38.45288,32.47284,38.94934,25h2C40.44684,33.57501,33.57501,40.44684,25,40.94934z"/>
	<path d="M30,26v-4c0-0.55225-0.44775-1-1-1H19c-0.55225,0-1,0.44775-1,1v4c0,0.55273,0.44775,1,1,1h10
		C29.55225,27,30,26.55273,30,26z M28,25h-8v-2h8V25z"/>
</g>
</svg>
