<?xml version="1.0" encoding="UTF-8"?>
<svg xmlns="http://www.w3.org/2000/svg" version="1.1" viewBox="0 0 64 64">
  <!-- Generator: Adobe Illustrator 28.7.1, SVG Export Plug-In . SVG Version: 1.2.0 Build 142)  -->
  <g>
    <g id="Outline">
      <path d="M56,51h-1v-3c0-1.65002-1.34998-3-3-3v-26h2c.81,0,1.57001-.32001,2.10999-.87.57001-.56.89001-1.32001.89001-2.13,0-1.65002-1.34998-3-3-3h-15.69c-1.12-2.35999-3.52997-4-6.31-4s-5.19,1.64001-6.31,4h-8.69v-5c0-.54999-.45001-1-1-1h-6c-.27002,0-.52002.10999-.71002.28998l-2,2c-.17999.19-.28998.44-.28998.71002v12c0,.26996.10999.51996.28998.70996l2,2c.19.18005.44.29004.71002.29004h2v7.17999c-1.15997.41998-2,1.52002-2,2.82001s.84003,2.39996,2,2.82001v7.17999c-1.65002,0-3,1.34998-3,3v3h-1c-.54999,0-1,.45001-1,1v4c0,.54999.45001,1,1,1h48c.54999,0,1-.45001,1-1v-4c0-.54999-.45001-1-1-1ZM53,48v3h-4v-3c0-.54999.45001-1,1-1h2c.54999,0,1,.45001,1,1ZM38.91998,15h15.08002c.54999,0,1,.45001,1,1,0,.26996-.09998.51001-.31.70996-.17999.19-.41998.29004-.69.29004h-15.08002c.04999-.33002.08002-.66003.08002-1,0-.34003-.03003-.67004-.08002-1ZM50,19v26c-1.65002,0-3,1.34998-3,3v3h-1.46997l-6.98004-32h11.45001ZM32,11c2.76001,0,5,2.23999,5,5s-2.23999,5-5,5-5-2.23999-5-5,2.23999-5,5-5ZM33.08002,22.90997l3.46997,17.09003h-9.09998l3.46997-17.09003c.35004.04999.71002.09003,1.08002.09003s.72998-.04004,1.08002-.09003ZM27.07001,20.95996c.56.56,1.21002,1.01001,1.91998,1.35004l-3.73999,18.48999c-.06.29999.02002.59998.21002.83002.19.23999.46997.37.76996.37h11.54004c.29999,0,.57996-.13.76996-.37.19-.23004.27002-.53003.21002-.83002l-3.73999-18.48999c.70996-.34003,1.35999-.79004,1.91998-1.35004l6.54999,30.04004h-2.65997l-1.26001-6.20001c-.09003-.47003-.5-.79999-.97998-.79999h-13.16003c-.47998,0-.88995.32996-.97998.79999l-1.26001,6.20001h-2.65997l6.54999-30.04004ZM38.78003,51h-13.56006l1.02002-5h11.52002l1.02002,5ZM17,15h8.08002c-.04999.32996-.08002.65997-.08002,1,0,.33997.03003.66998.08002,1h-8.08002v-2ZM17,22v-3h8.45001l-6.98004,32h-1.46997v-3c0-1.65002-1.34998-3-3-3v-7.17999c1.15997-.42004,2-1.52002,2-2.82001s-.84003-2.40002-2-2.82001v-7.17999c1.65002,0,3-1.35004,3-3ZM10.40997,23l-1.40997-1.41003v-11.17999l1.40997-1.40997h4.59003v13c0,.54999-.45001,1-1,1h-3.59003ZM13,34c.54999,0,1,.45001,1,1s-.45001,1-1,1-1-.45001-1-1,.45001-1,1-1ZM11,48c0-.54999.45001-1,1-1h2c.54999,0,1,.45001,1,1v3h-4v-3ZM55,55H9v-2h46v2Z"/>
    </g>
  </g>
</svg>