<?xml version="1.0" encoding="UTF-8"?>
<svg id="Outline" xmlns="http://www.w3.org/2000/svg" version="1.1" viewBox="0 0 48 48">
  <path d="M40,13h-3v-1c0-1.29999-.84003-2.40002-2-2.82001v-3.17999c0-.54999-.45001-1-1-1s-1,.45001-1,1v3.17999c-1.15997.41998-2,1.52002-2,2.82001v1h-14v-1c0-1.29999-.84003-2.40002-2-2.82001v-3.17999c0-.54999-.45001-1-1-1s-1,.45001-1,1v3.17999c-1.15997.41998-2,1.52002-2,2.82001v1h-3c-1.65002,0-3,1.34998-3,3v24c0,1.64996,1.34998,3,3,3h32c1.65002,0,3-1.35004,3-3v-24c0-1.65002-1.34998-3-3-3ZM33,12c0-.54999.45001-1,1-1s1,.45001,1,1v1h-2v-1ZM13,12c0-.54999.45001-1,1-1s1,.45001,1,1v1h-2v-1ZM41,40c0,.54999-.45001,1-1,1H8c-.54999,0-1-.45001-1-1v-24c0-.54999.45001-1,1-1h32c.54999,0,1,.45001,1,1v24Z" fill="#000" stroke-width="0"/>
  <path d="M28,17h-12c-1.65002,0-3,1.34998-3,3v16c0,1.64996,1.34998,3,3,3h12c1.65002,0,3-1.35004,3-3v-16c0-1.65002-1.34998-3-3-3ZM29,36c0,.54999-.45001,1-1,1h-12c-.54999,0-1-.45001-1-1v-16c0-.54999.45001-1,1-1h12c.54999,0,1,.45001,1,1v16Z" fill="#000" stroke-width="0"/>
  <path d="M26,21h-8c-.55273,0-1,.44727-1,1v4c0,.55273.44727,1,1,1h8c.55273,0,1-.44727,1-1v-4c0-.55273-.44727-1-1-1ZM25,25h-6v-2h6v2Z" fill="#000" stroke-width="0"/>
  <circle cx="18" cy="30" r="1" fill="#000" stroke-width="0"/>
  <circle cx="22" cy="30" r="1" fill="#000" stroke-width="0"/>
  <circle cx="26" cy="30" r="1" fill="#000" stroke-width="0"/>
  <circle cx="18" cy="34" r="1" fill="#000" stroke-width="0"/>
  <circle cx="22" cy="34" r="1" fill="#000" stroke-width="0"/>
  <circle cx="26" cy="34" r="1" fill="#000" stroke-width="0"/>
  <path d="M36,17c-1.6543,0-3,1.3457-3,3s1.3457,3,3,3,3-1.3457,3-3-1.3457-3-3-3ZM36,21c-.55176,0-1-.44824-1-1s.44824-1,1-1,1,.44824,1,1-.44824,1-1,1Z" fill="#000" stroke-width="0"/>
  <path d="M36,25c-1.6543,0-3,1.3457-3,3s1.3457,3,3,3,3-1.3457,3-3-1.3457-3-3-3ZM36,29c-.55176,0-1-.44824-1-1s.44824-1,1-1,1,.44824,1,1-.44824,1-1,1Z" fill="#000" stroke-width="0"/>
  <path d="M36,33c-1.6543,0-3,1.3457-3,3s1.3457,3,3,3,3-1.3457,3-3-1.3457-3-3-3ZM36,37c-.55176,0-1-.44824-1-1s.44824-1,1-1,1,.44824,1,1-.44824,1-1,1Z" fill="#000" stroke-width="0"/>
  <circle cx="10" cy="20" r="1" fill="#000" stroke-width="0"/>
  <circle cx="10" cy="24" r="1" fill="#000" stroke-width="0"/>
  <circle cx="10" cy="28" r="1" fill="#000" stroke-width="0"/>
  <circle cx="10" cy="32" r="1" fill="#000" stroke-width="0"/>
  <circle cx="10" cy="36" r="1" fill="#000" stroke-width="0"/>
</svg>