<?xml version="1.0" encoding="UTF-8"?>
<svg xmlns="http://www.w3.org/2000/svg" version="1.1" viewBox="0 0 64 64">
  <!-- Generator: Adobe Illustrator 28.7.1, SVG Export Plug-In . SVG Version: 1.2.0 Build 142)  -->
  <g>
    <g id="Outline">
      <g>
        <path d="M21,31v-.58594s1.29297,1.29297,1.29299,1.29299c.38737.38734,1.0276.38642,1.41404-.00002.39062-.39062.39062-1.02344,0-1.41406l-1.33099-1.33099c1.4754-.18738,2.62396-1.43646,2.62396-2.96198,0-1.6543-1.3457-3-3-3h-2c-.55225,0-1,.44727-1,1v7c0,.55273.44775,1,1,1s1-.44727,1-1ZM21,25h1c.55127,0,1,.44824,1,1s-.44873,1-1,1h-1v-2Z"/>
        <path d="M32,7c-4.15997,0-8.16998,1.20996-11.59998,3.5-.45001.31-.58002.92999-.27002,1.39001.31.44995.92999.57996,1.39001.26996,1.38995-.92999,2.89996-1.64996,4.47998-2.17999v2.13c-4.54999,1.72998-8.15997,5.34003-9.89001,9.89001h-2.13c.52002-1.58002,1.25-3.09003,2.17999-4.48004.31-.45996.18005-1.08997-.26996-1.38995-.46002-.31-1.09003-.17999-1.39001.26996-2.28998,3.42999-3.5,7.44-3.5,11.60004,0,7.95996,4.45001,14.89996,11,18.45996v3.78003c0,.40997.25.77002.62.92999,1.73999.71002,3.53998,1.21002,5.38,1.5v3.33002c0,.54999.45001,1,1,1h6c.54999,0,1-.45001,1-1v-3.33002c1.84003-.28998,3.64001-.78998,5.38-1.5.37-.15997.62-.52002.62-.92999v-3.78003c6.54999-3.56,11-10.5,11-18.45996,0-11.58002-9.41998-21-21-21ZM38,9.98999c5.65002,1.88,10.13,6.35999,12.01001,12.01001h-2.12c-1.73004-4.54999-5.34003-8.16003-9.89001-9.89001v-2.12ZM32,43c-3.78003,0-7.21997-1.41003-9.85999-3.72003l9.85999-9.87,9.85999,9.87c-2.64001,2.31-6.07996,3.72003-9.85999,3.72003ZM36,44.51001v2.06c-1.28998.27997-2.63.42999-4,.42999s-2.71002-.15002-4-.42999v-2.06c1.28998.31,2.62.48999,4,.48999s2.71002-.17999,4-.48999ZM33.40997,28l9.86005-9.85999c2.32001,2.63995,3.72998,6.07996,3.72998,9.85999s-1.40997,7.21997-3.72998,9.85999l-9.86005-9.85999ZM28,9.42999c1.29999-.28003,2.64001-.42999,4-.42999,1.37,0,2.71002.14996,4,.42999v2.06c-1.28998-.31-2.62-.48999-4-.48999s-2.71002.17999-4,.48999v-2.06ZM32,13c3.78003,0,7.21997,1.40997,9.85999,3.71997l-9.85999,9.87-9.85999-9.87c2.64001-2.31,6.07996-3.71997,9.85999-3.71997ZM20.72998,18.14001l9.86005,9.85999-9.86005,9.85999c-2.32001-2.64001-3.72998-6.08002-3.72998-9.85999s1.40997-7.22003,3.72998-9.85999ZM13,28c0-1.35999.15002-2.70001.42999-4h2.06c-.31,1.28998-.48999,2.62-.48999,4s.17999,2.70996.48999,4h-2.06c-.27997-1.29004-.42999-2.63-.42999-4ZM13.98999,34h2.12c1.73004,4.54999,5.34003,8.15997,9.89001,9.89001v2.12c-5.65002-1.88-10.13-6.36005-12.01001-12.01001ZM34,55h-4v-2.09003c.65997.06,1.33002.09003,2,.09003s1.34003-.03003,2-.09003v2.09003ZM40,49.56c-5.09003,1.90997-10.90997,1.90997-16,0v-2.15002c2.46997,1.02002,5.16998,1.59003,8,1.59003s5.53003-.57001,8-1.59003v2.15002ZM38,46.01001v-2.12c4.54999-1.73004,8.15997-5.34003,9.89001-9.89001h2.12c-1.88,5.64996-6.35999,10.13-12.01001,12.01001ZM48.51001,32c.31-1.29004.48999-2.62.48999-4s-.17999-2.71002-.48999-4h2.06c.27997,1.28998.42999,2.63.42999,4s-.15002,2.70996-.42999,4h-2.06Z"/>
        <path d="M45,26c0-1.65002-1.34998-3-3-3h-2c-.54999,0-1,.45001-1,1v7c0,.54999.45001,1,1,1s1-.45001,1-1v-.59003l1.28998,1.29999c.39001.38,1.03003.38,1.42004,0,.38995-.38995.38995-1.02997,0-1.41998l-1.33002-1.33002c1.46997-.19,2.62-1.42999,2.62-2.95996ZM42,27h-1v-2h1c.54999,0,1,.45001,1,1s-.45001,1-1,1Z"/>
        <path d="M32,35c-1.6543,0-3,1.3457-3,3s1.3457,3,3,3,3-1.3457,3-3-1.3457-3-3-3ZM32,39c-.55127,0-1-.44824-1-1s.44873-1,1-1,1,.44824,1,1-.44873,1-1,1Z"/>
        <path d="M29,18c0,1.6543,1.3457,3,3,3s3-1.3457,3-3-1.3457-3-3-3-3,1.3457-3,3ZM33,18c0,.55176-.44873,1-1,1s-1-.44824-1-1,.44873-1,1-1,1,.44824,1,1Z"/>
        <path d="M18.56494,14.56494c.39056-.3905.39056-1.02368,0-1.41418-.3905-.39056-1.02368-.39056-1.41418,0-.3905.3905-.3905,1.02368,0,1.41418.3905.39056,1.02368.39056,1.41418,0Z"/>
      </g>
    </g>
  </g>
</svg>