<?xml version="1.0" encoding="UTF-8"?>
<svg id="Outline" xmlns="http://www.w3.org/2000/svg" version="1.1" viewBox="0 0 64 64">
  <path d="M32,7c-2.44189,0-4.86719.35742-7.20801,1.06152-.50635.15332-.80664.67285-.68506,1.1875,0,0,.91992,3.90039.91992,3.9004.13242.55997.72403.89846,1.27539.72362,1.82617-.5791,3.74316-.87305,5.69775-.87305,10.47656,0,19,8.52344,19,19,0,9.01367-6.3999,16.84473-15.21729,18.61914-.5415.10938-.89209.63672-.7832,1.17773s.63623.89453,1.17773.7832c9.74756-1.96191,16.82275-10.61719,16.82275-20.58008,0-11.5791-9.42041-21-21-21-1.79443,0-3.56152.22461-5.26758.66797l-.4585-1.94336c1.87109-.48145,3.79297-.72461,5.72607-.72461,12.68213,0,23,10.31738,23,23s-10.31787,23-23,23-23-10.31738-23-23c0-3.10645.61279-6.12793,1.81982-8.97754.51904-1.2168,1.15479-2.40723,1.88867-3.53711.25732-.39648.20264-.91797-.13135-1.25195l-1.95166-1.95215,7.97949-1.99609-1.99658,7.97852-1.12158-1.12109c-.45587-.45567-1.23572-.35617-1.56543.19336-.78857,1.31934-1.41553,2.69434-1.85986,4.07715-.70459,2.10352-1.06152,4.31934-1.06152,6.58691,0,9.96289,7.0752,18.61816,16.82275,20.58008.53857.11035,1.06836-.24219,1.17773-.7832.10889-.54102-.2417-1.06836-.7832-1.17773-8.81738-1.77441-15.21729-9.60547-15.21729-18.61914,0-2.05176.32227-4.05371.96191-5.96387.27539-.85645.62695-1.70703,1.05029-2.54004l1.43065,1.43065c.53959.53959,1.4932.27036,1.67726-.46385l2.83008-11.30957c.08496-.34082-.01465-.70215-.26318-.9502s-.61084-.34863-.94971-.2627l-11.31001,2.83007c-.74113.18545-1.00508,1.13609-.46441,1.67677l2.63672,2.63672c-.6167,1.01855-1.16016,2.07617-1.62061,3.15625-1.31299,3.10059-1.979,6.38379-1.979,9.75977,0,13.78516,11.21484,25,25,25s25-11.21484,25-25S45.78516,7,32,7Z" fill="#000" stroke-width="0"/>
  <path d="M46,39v-12c0-.38965-.22656-.74414-.58105-.9082l-13-6c-.26562-.12305-.57227-.12305-.83789,0l-13,6c-.35449.16406-.58105.51855-.58105.9082v12c0,.38965.22656.74414.58105.9082,0,0,12.99544,5.9979,13,6,.26514.12237.57315.12218.83789,0l13-6c.35449-.16406.58105-.51855.58105-.9082ZM32,22.10156l10.61365,4.89825-10.61365,4.89862-10.61365-4.89862,10.61365-4.89825ZM20,36.56311s5.08105,2.34509,5.08107,2.3451c.49544.2281,1.09847.00638,1.32713-.48927.23096-.50098.01221-1.0957-.48926-1.32715l-5.91895-2.73181v-5.79688l11,5.0769v9.79694l-11-5.0766v-1.79724ZM33,43.43695v-9.79694l11-5.0769v5.79688l-5.91895,2.73181c-.50145.23144-.7202.82613-.48928,1.3271.22134.48018.82787.7192,1.32717.48931l5.08105-2.34509v1.79724l-11,5.0766Z" fill="#000" stroke-width="0"/>
  <circle cx="32" cy="52" r="1" fill="#000" stroke-width="0"/>
</svg>