<?xml version="1.0" encoding="UTF-8"?>
<svg xmlns="http://www.w3.org/2000/svg" version="1.1" viewBox="0 0 64 64">
  <!-- Generator: Adobe Illustrator 28.7.1, SVG Export Plug-In . SVG Version: 1.2.0 Build 142)  -->
  <g>
    <g id="Outline">
      <g>
        <path d="M21.99999,13.0119h8c.55225,0,1-.44727,1-1s-.44775-1-1-1h-8c-.55225,0-1,.44727-1,1s.44775,1,1,1Z"/>
        <path d="M55.83001,50.18188l-4.89001-4.89001c.75-1.56,1.17999-3.31,1.17999-5.15997,0-4.88-2.92999-9.08002-7.12-10.95001v-9.16998c0-.54999-.45001-1-1-1s-1,.45001-1,1v8.47998c-.65002-.15997-1.32001-.26001-2-.31V12.0119c0-.54999-.45001-1-1-1h-5v-2h7c.54999,0,1,.45001,1,1v6c0,.54999.45001,1,1,1s1-.45001,1-1v-6c0-1.65002-1.34998-3-3-3H9.99999c-1.65002,0-3,1.34998-3,3v34c0,1.64996,1.34998,3,3,3h20.29999c2.17999,3.08997,5.76001,5.12,9.82001,5.12,1.84998,0,3.59998-.42999,5.16003-1.17999l4.88995,4.88995c1.51707,1.51707,4.12047,1.53956,5.66003,0,1.56-1.56,1.56-4.09998,0-5.65997ZM18.99999,9.0119h14v5c0,.54999-.45001,1-1,1h-12c-.54999,0-1-.45001-1-1v-5ZM12.99999,45.0119v-7c0-.54999-.45001-1-1-1s-1,.45001-1,1v7h-1c-.54999,0-1-.45001-1-1V10.0119c0-.54999.45001-1,1-1h7v2h-5c-.54999,0-1,.45001-1,1v22c0,.54999.45001,1,1,1s1-.45001,1-1V13.0119h4v1c0,1.64996,1.34998,3,3,3h12c1.65002,0,3-1.35004,3-3v-1h4v15.17999c-6.09003.57001-10.88,5.70001-10.88,11.94,0,1.73999.38,3.39001,1.04999,4.88H12.99999ZM40.11999,50.13189c-5.51001,0-10-4.48999-10-10s4.48999-10,10-10c5.52002,0,10,4.48999,10,10s-4.47998,10-10,10ZM54.40997,54.42187c-.75.76001-2.06995.76001-2.81995,0l-4.53003-4.51996c1.09998-.78003,2.04999-1.73004,2.83002-2.83002l4.51996,4.52997c.38.37.59003.88.59003,1.41003,0,.52997-.21002,1.03998-.59003,1.40997Z"/>
        <path d="M19.99999,20.0119c.55225,0,1-.44727,1-1s-.44775-1-1-1c-1.6543,0-3,1.3457-3,3v1h-1c-.55225,0-1,.44727-1,1s.44775,1,1,1h1v1c0,.55176-.44873,1-1,1-.55225,0-1,.44727-1,1s.44775,1,1,1c1.6543,0,3-1.3457,3-3v-1h1c.55225,0,1-.44727,1-1s-.44775-1-1-1h-1v-1c0-.55176.44873-1,1-1Z"/>
        <path d="M28.83202,26.45721l-1.63019-2.44531,1.63019-2.44531c.30615-.45996.18213-1.08008-.27734-1.38672-.45996-.30566-1.08105-.18164-1.38672.27734l-1.16797,1.75195-1.16797-1.75195c-.30713-.45898-.92725-.58301-1.38672-.27734-.45947.30664-.5835.92676-.27734,1.38672l1.63019,2.44531-1.63019,2.44531c-.30613.45993-.18215,1.07998.27724,1.38665.43481.29026,1.07886.18428,1.38682-.27727l1.16797-1.75195,1.16797,1.75195c.30301.45452.93405.57826,1.38672.27735.45947-.30664.5835-.92676.27734-1.38672Z"/>
        <path d="M31.99999,23.0119h4c.55225,0,1-.44727,1-1s-.44775-1-1-1h-4c-.55225,0-1,.44727-1,1s.44775,1,1,1Z"/>
        <path d="M31.99999,27.0119h4c.55225,0,1-.44727,1-1s-.44775-1-1-1h-4c-.55225,0-1,.44727-1,1s.44775,1,1,1Z"/>
      </g>
    </g>
  </g>
</svg>