<?xml version="1.0" encoding="utf-8"?>
<!-- Generator: Adobe Illustrator 27.3.1, SVG Export Plug-In . SVG Version: 6.00 Build 0)  -->
<svg version="1.1" id="Outline" xmlns="http://www.w3.org/2000/svg" xmlns:xlink="http://www.w3.org/1999/xlink" x="0px" y="0px"
	 viewBox="0 0 48 48" enable-background="new 0 0 48 48" xml:space="preserve">
<g>
	<circle cx="11" cy="42" r="1"/>
	<circle cx="11" cy="10" r="1"/>
	<circle cx="37" cy="10" r="1"/>
	<path d="M42,25c0.54999,0,1-0.45001,1-1c0,0,0-6,0-6.00001C43,17.46551,42.53444,17,42,17h-2v-3.03003
		C41.21002,13.06,42,11.63,42,10c0-2.76001-2.23999-5-5-5s-5,2.23999-5,5c0,1.63,0.78998,3.06,2,3.96997V17h-6v-1
		c0-2.21002-1.78998-4-4-4s-4,1.78998-4,4v1h-6v-3.03003C15.21002,13.06,16,11.63,16,10c0-2.76001-2.23999-5-5-5s-5,2.23999-5,5
		c0,1.63,0.78998,3.06,2,3.96997V17H6c-0.54999,0-1,0.45001-1,1c0,0,0,6,0,6.00001C5,24.53461,5.46536,25,6,25h2v2H6
		c-0.54999,0-1,0.45001-1,1c0,0,0,5.99376,0,6.00001C5,34.53611,5.46312,35,6,35h2v2H6c-0.54999,0-1,0.45001-1,1v4
		c0,0.54999,0.45001,1,1,1h1c0.54999,0,1-0.45001,1-1s-0.45001-1-1-1v-2h8v2c-0.54999,0-1,0.45001-1,1s0.45001,1,1,1h1
		c0.54999,0,1-0.45001,1-1v-4c0-0.54999-0.45001-1-1-1h-2v-2h20v2h-2c-0.54999,0-1,0.45001-1,1v4c0,0.54999,0.45001,1,1,1h10
		c0.54999,0,1-0.45001,1-1v-4c0-0.54999-0.45001-1-1-1h-2v-2h2c0.54999,0,1-0.45001,1-1c0,0,0-6,0-6.00001
		C42.99999,27.46487,42.53486,27,42,27h-2v-2H42z M37,7c1.65002,0,3,1.34998,3,3c0,1.64996-1.34998,3-3,3s-3-1.35004-3-3
		C34,8.34998,35.34998,7,37,7z M38,14.89996V17h-2v-2.10004C36.32001,14.95996,36.65997,15,37,15S37.67999,14.95996,38,14.89996z
		 M36.40997,19h3.18005l-4,4h-3.18005L36.40997,19z M38,25v2h-2v-2H38z M34,25v2H14v-2H34z M30.40997,19h3.18005l-4,4h-3.18005
		L30.40997,19z M27.59003,19l-4,4h-3.18005l4-4H27.59003z M22,16c0-1.10004,0.90002-2,2-2s2,0.89996,2,2v1h-4V16z M21.59003,19l-4,4
		h-3.18005l4-4H21.59003z M15.59003,19l-4,4H8.40997l4-4H15.59003z M12,25v2h-2v-2H12z M10,17v-2.10004
		C10.32001,14.95996,10.65997,15,11,15s0.67999-0.04004,1-0.10004V17H10z M11,7c1.65002,0,3,1.34998,3,3c0,1.64996-1.34998,3-3,3
		s-3-1.35004-3-3C8,8.34998,9.34998,7,11,7z M7,21.58997V19h2.59003L7,21.58997z M7,31.58997V29h2.59003L7,31.58997z M12,37h-2v-2h2
		V37z M11.59003,33H8.40997l4-4h3.18005L11.59003,33z M14.40997,33l4-4h3.18005l-4,4H14.40997z M20.40997,33l4-4h3.18005l-4,4
		H20.40997z M26.40997,33l4-4h3.18005l-4,4H26.40997z M32.40997,33l4-4h3.18005l-4,4H32.40997z M38,35v2h-2v-2H38z M41,39v2h-8v-2
		H41z M41,30.40997V33h-2.59003L41,30.40997z M38.40997,23L41,20.40997V23H38.40997z"/>
	<path d="M19.29297,11.70703c0.38595,0.38595,1.02844,0.38562,1.41406,0c0.39062-0.39062,0.39062-1.02344,0-1.41406l-1-1
		c-0.39062-0.39062-1.02344-0.39062-1.41406,0s-0.39062,1.02344,0,1.41406L19.29297,11.70703z"/>
	<path d="M24,10.34326c0.55225,0,1-0.44775,1-1V7.92871c0-0.55225-0.44775-1-1-1s-1,0.44775-1,1v1.41455
		C23,9.89551,23.44775,10.34326,24,10.34326z"/>
	<path d="M29.70703,9.29297c-0.39062-0.39062-1.02344-0.39062-1.41406,0l-1,1c-0.39062,0.39062-0.39062,1.02343-0.00001,1.41405
		c0.38587,0.38588,1.02863,0.38545,1.41407,0.00001l1-1C30.09766,10.31641,30.09766,9.68359,29.70703,9.29297z"/>
</g>
</svg>
