<?xml version="1.0" encoding="UTF-8"?>
<svg id="Outline" xmlns="http://www.w3.org/2000/svg" version="1.1" viewBox="0 0 64 64">
  <path d="M14,42c-1.6543,0-3,1.3457-3,3s1.3457,3,3,3,3-1.3457,3-3-1.3457-3-3-3ZM14,46c-.55127,0-1-.44873-1-1s.44873-1,1-1,1,.44873,1,1-.44873,1-1,1Z" fill="#000" stroke-width="0"/>
  <path d="M23,42c-1.6543,0-3,1.3457-3,3s1.3457,3,3,3,3-1.3457,3-3-1.3457-3-3-3ZM23,46c-.55127,0-1-.44873-1-1s.44873-1,1-1,1,.44873,1,1-.44873,1-1,1Z" fill="#000" stroke-width="0"/>
  <path d="M50,42c-1.6543,0-3,1.3457-3,3s1.3457,3,3,3,3-1.3457,3-3-1.3457-3-3-3ZM50,46c-.55127,0-1-.44873-1-1s.44873-1,1-1,1,.44873,1,1-.44873,1-1,1Z" fill="#000" stroke-width="0"/>
  <path d="M41,42c-1.6543,0-3,1.3457-3,3s1.3457,3,3,3,3-1.3457,3-3-1.3457-3-3-3ZM41,46c-.55127,0-1-.44873-1-1s.44873-1,1-1,1,.44873,1,1-.44873,1-1,1Z" fill="#000" stroke-width="0"/>
  <path d="M32,42c-1.6543,0-3,1.3457-3,3s1.3457,3,3,3,3-1.3457,3-3-1.3457-3-3-3ZM32,46c-.55127,0-1-.44873-1-1s.44873-1,1-1,1,.44873,1,1-.44873,1-1,1Z" fill="#000" stroke-width="0"/>
  <path d="M50,38h-4v-3h3c1.65002,0,3-1.35004,3-3v-7.59003l1.71002-1.70001c.17999-.19.28998-.44.28998-.70996v-2c0-.54999-.45001-1-1-1s-1,.45001-1,1v1.58997l-1,1-1-1v-1.58997c0-.54999-.45001-1-1-1s-1,.45001-1,1v2c0,.26996.10999.51996.28998.70996l1.71002,1.70001v7.59003c0,.54999-.45001,1-1,1h-3v-2c0-1.65002-1.34998-3-3-3h-5v-2h1c1.65002,0,3-1.35004,3-3h1c1.65002,0,3-1.35004,3-3v-2c0-1.65002-1.34998-3-3-3h-1c0-1.65002-1.34998-3-3-3h-14c-1.65002,0-3,1.34998-3,3h-1c-1.65002,0-3,1.34998-3,3v2c0,1.64996,1.34998,3,3,3h1c0,1.64996,1.34998,3,3,3h1v2h-5c-1.65002,0-3,1.34998-3,3v2h-3c-.54999,0-1-.45001-1-1v-7.59003l1.71002-1.70001c.17999-.19.28998-.44.28998-.70996v-2c0-.54999-.45001-1-1-1s-1,.45001-1,1v1.58997l-1,1-1-1v-1.58997c0-.54999-.45001-1-1-1s-1,.45001-1,1v2c0,.26996.10999.51996.28998.70996l1.71002,1.70001v7.59003c0,1.64996,1.34998,3,3,3h3v3h-4c-3.85999,0-7,3.14001-7,7s3.14001,7,7,7h36c3.85999,0,7-3.14001,7-7s-3.14001-7-7-7ZM42,17h1c.54999,0,1,.45001,1,1v2c0,.54999-.45001,1-1,1h-1v-4ZM22,21h-1c-.54999,0-1-.45001-1-1v-2c0-.54999.45001-1,1-1h1v4ZM25,24c-.54999,0-1-.45001-1-1v-8c0-.54999.45001-1,1-1h14c.54999,0,1,.45001,1,1v8c0,.54999-.45001,1-1,1h-14ZM36,26v2h-8v-2h8ZM20,31c0-.54999.45001-1,1-1h22c.54999,0,1,.45001,1,1v7h-24v-7ZM50,50H14c-2.76001,0-5-2.23999-5-5s2.23999-5,5-5h36c2.76001,0,5,2.23999,5,5s-2.23999,5-5,5Z" fill="#000" stroke-width="0"/>
  <path d="M29,18c.55225,0,1-.44775,1-1s-.44775-1-1-1h-2c-.55225,0-1,.44775-1,1s.44775,1,1,1h2Z" fill="#000" stroke-width="0"/>
  <path d="M35,18h2c.55225,0,1-.44775,1-1s-.44775-1-1-1h-2c-.55225,0-1,.44775-1,1s.44775,1,1,1Z" fill="#000" stroke-width="0"/>
  <path d="M31,22h2c.55225,0,1-.44775,1-1s-.44775-1-1-1h-2c-.55225,0-1,.44775-1,1s.44775,1,1,1Z" fill="#000" stroke-width="0"/>
  <path d="M27,33h-2c-.55225,0-1,.44775-1,1s.44775,1,1,1h2c.55225,0,1-.44775,1-1s-.44775-1-1-1Z" fill="#000" stroke-width="0"/>
  <path d="M33,33h-2c-.55225,0-1,.44775-1,1s.44775,1,1,1h2c.55225,0,1-.44775,1-1s-.44775-1-1-1Z" fill="#000" stroke-width="0"/>
  <path d="M39,33h-2c-.55225,0-1,.44775-1,1s.44775,1,1,1h2c.55225,0,1-.44775,1-1s-.44775-1-1-1Z" fill="#000" stroke-width="0"/>
</svg>