<?xml version="1.0" encoding="UTF-8"?>
<svg id="Outline" xmlns="http://www.w3.org/2000/svg" version="1.1" viewBox="0 0 64 64">
  <path d="M56.51459,38.14271l-4.46973-2.68164.95215-12.38379c.01367-.18164-.02148-.3623-.10254-.52441l-3-6c-.04785-.0957-.11133-.18359-.1875-.25977l-2.85449-2.85449-1.92383-4.80957c-.12598-.31445-.40137-.54297-.73242-.60938l-5-1c-.28223-.05664-.56934.00977-.7959.18066l-3.81934,2.86328-9.77734,1.95605c-.15625.03125-.30371.09961-.42871.19922l-5,4c-.18848.15137-.31543.36523-.3584.60254l-1.88965,10.3877-6.40137,1.8291c-.38867.11133-.67285.44531-.71875.84766l-3,26c-.06348.54785.33008,1.04395.87891,1.10742.03906.00488.07715.00684.11523.00684.50098,0,.93359-.37598.99219-.88574l2.92383-25.33594,6.35742-1.81641c.36621-.10547.6416-.4082.70898-.7832l1.93359-10.63184,4.51758-3.61426,9.76172-1.95215c.14648-.0293.28418-.09082.40332-.18066l3.64258-2.73145,4.03027.80566,1.79883,4.49707c.05078.12598.12598.24023.22168.33594l2.88477,2.88574,2.80371,5.60645-.97852,12.72363c-.0293.37793.1582.74023.48242.93457l4.51465,2.70898v16.43359c0,.55273.44727,1,1,1s1-.44727,1-1v-17c0-.35156-.18457-.67676-.48535-.85742Z" style="fill: #000; stroke-width: 0px;"/>
  <path d="M42.70697,36.70716l5.5-5.5c1.2168-1.2168,1.2168-3.19727,0-4.41406s-3.19727-1.2168-4.41406,0l-1.79297,1.79297-2.29297-2.29297c-.1875-.1875-.44141-.29297-.70703-.29297h-1.38202c.83978-.7337,1.38202-1.7995,1.38202-3,0-2.20605-1.79395-4-4-4s-4,1.79395-4,4c0,1.2005.54224,2.2663,1.38202,3h-.96796l-2.41406-2.41406v-2.58594c0-1.6543-1.3457-3-3-3s-3,1.3457-3,3v9c0,.26562.10547.51953.29297.70703l2.70703,2.70703v3.17188l-6.20703,6.20703c-1.2168,1.2168-1.2168,3.19727,0,4.41406s3.19727,1.2168,4.41406,0l2.88672-2.88672,1.82324,1.36719c1.21973.91602,2.82422,1.06055,4.18848.37793l.89453-.44727v8.38184c0,1.6543,1.3457,3,3,3s3-1.3457,3-3v-18.58594l1.29297,1.29297c.39062.39062,1.02344.39062,1.41406,0ZM34.99994,21.00013c1.10254,0,2,.89746,2,2s-.89746,2-2,2-2-.89746-2-2,.89746-2,2-2ZM39.70697,32.2931c-.28613-.28613-.71582-.37305-1.08984-.2168-.37402.1543-.61719.51953-.61719.92383v21c0,.55176-.44824,1-1,1s-1-.44824-1-1v-10c0-.34668-.17969-.66797-.47461-.85059-.16016-.09961-.34277-.14941-.52539-.14941-.15332,0-.30566.03516-.44727.10547l-2.3418,1.1709c-.68164.3418-1.48535.26953-2.09473-.18848l-2.5166-1.8877c-.39746-.30078-.95605-.26074-1.30664.09277l-3.5,3.5c-.4375.4375-1.14844.4375-1.58594,0s-.4375-1.14844,0-1.58594l6.5-6.5c.1875-.1875.29297-.44141.29297-.70703v-4c0-.26562-.10547-.51953-.29297-.70703l-2.70703-2.70703v-8.58594c0-.55176.44824-1,1-1s1,.44824,1,1v3c0,.26562.10547.51953.29297.70703l3,3c.1875.1875.44141.29297.70703.29297h7.58594l2.70703,2.70703c.39062.39062,1.02344.39062,1.41406,0l2.5-2.5c.4375-.4375,1.14844-.4375,1.58594,0s.4375,1.14844,0,1.58594l-4.79297,4.79297-2.29297-2.29297Z" style="fill: #000; stroke-width: 0px;"/>
  <path d="M45.99994,50.00013h-2c-.55273,0-1,.44727-1,1s.44727,1,1,1h2c.55273,0,1-.44727,1-1s-.44727-1-1-1Z" style="fill: #000; stroke-width: 0px;"/>
  <path d="M29.99994,51.00013h-2c-.55273,0-1,.44727-1,1s.44727,1,1,1h2c.55273,0,1-.44727,1-1s-.44727-1-1-1Z" style="fill: #000; stroke-width: 0px;"/>
  <path d="M44.99994,47.00013c.55273,0,1-.44727,1-1s-.44727-1-1-1h-2c-.55273,0-1,.44727-1,1s.44727,1,1,1h2Z" style="fill: #000; stroke-width: 0px;"/>
  <path d="M49.99994,42.00013h-2c-.55273,0-1,.44727-1,1s.44727,1,1,1h2c.55273,0,1-.44727,1-1s-.44727-1-1-1Z" style="fill: #000; stroke-width: 0px;"/>
  <path d="M43.99994,38.00013c-.55273,0-1,.44727-1,1s.44727,1,1,1h2c.55273,0,1-.44727,1-1s-.44727-1-1-1h-2Z" style="fill: #000; stroke-width: 0px;"/>
  <path d="M16.99994,50.00013h-2c-.55273,0-1,.44727-1,1s.44727,1,1,1h2c.55273,0,1-.44727,1-1s-.44727-1-1-1Z" style="fill: #000; stroke-width: 0px;"/>
  <path d="M18.99994,41.00013c.55273,0,1-.44727,1-1s-.44727-1-1-1h-2c-.55273,0-1,.44727-1,1s.44727,1,1,1h2Z" style="fill: #000; stroke-width: 0px;"/>
  <path d="M22.99994,35.00013c.55273,0,1-.44727,1-1s-.44727-1-1-1h-2c-.55273,0-1,.44727-1,1s.44727,1,1,1h2Z" style="fill: #000; stroke-width: 0px;"/>
  <path d="M32.99994,17.00013h2c.55273,0,1-.44727,1-1s-.44727-1-1-1h-2c-.55273,0-1,.44727-1,1s.44727,1,1,1Z" style="fill: #000; stroke-width: 0px;"/>
  <path d="M41.99994,20.00013c.55273,0,1-.44727,1-1s-.44727-1-1-1h-2c-.55273,0-1,.44727-1,1s.44727,1,1,1h2Z" style="fill: #000; stroke-width: 0px;"/>
</svg>