<?xml version="1.0" encoding="UTF-8"?>
<svg xmlns="http://www.w3.org/2000/svg" version="1.1" viewBox="0 0 64 64">
  <!-- Generator: Adobe Illustrator 28.7.1, SVG Export Plug-In . SVG Version: 1.2.0 Build 142)  -->
  <g>
    <g id="Outline">
      <g>
        <path d="M55.20703,52.79297c-1.2168-1.2168-3.19727-1.2168-4.41406,0-.4375.43555-1.14844.43555-1.58594,0-1.2168-1.2168-3.19727-1.2168-4.41406,0-.4375.43555-1.14844.43555-1.58594,0-1.2168-1.2168-3.19727-1.2168-4.41406,0-.4375.43555-1.14844.43555-1.58594,0-1.2168-1.2168-3.19727-1.2168-4.41406,0-.4375.43555-1.14844.43555-1.58594,0-1.2168-1.2168-3.19727-1.2168-4.41406,0-.4375.43555-1.14844.43555-1.58594,0-1.2168-1.2168-3.19727-1.2168-4.41406,0-.4375.43555-1.14844.43555-1.58594,0-1.2168-1.2168-3.19727-1.2168-4.41406,0-.4375.43555-1.14844.43555-1.58594,0-1.2168-1.2168-3.19727-1.2168-4.41406,0l-1.5,1.5c-.39062.39062-.39062,1.02344,0,1.41406s1.02344.39062,1.41406,0l1.5-1.5c.4375-.43555,1.14844-.43555,1.58594,0,1.2168,1.2168,3.19727,1.2168,4.41406,0,.4375-.43555,1.14844-.43555,1.58594,0,1.2168,1.2168,3.19727,1.2168,4.41406,0,.4375-.43555,1.14844-.43555,1.58594,0,1.2168,1.2168,3.19727,1.2168,4.41406,0,.4375-.43555,1.14844-.43555,1.58594,0,1.2168,1.2168,3.19727,1.2168,4.41406,0,.4375-.43555,1.14844-.43555,1.58594,0,1.2168,1.2168,3.19727,1.2168,4.41406,0,.4375-.43555,1.14844-.43555,1.58594,0,1.2168,1.2168,3.19727,1.2168,4.41406,0,.4375-.43555,1.14844-.43555,1.58594,0,1.2168,1.2168,3.19727,1.2168,4.41406,0,.4375-.4375,1.14844-.4375,1.58594,0l1.49999,1.49999c.36312.36312,1.0288.38528,1.41407.00001.39062-.39062.39062-1.02344,0-1.41406l-1.5-1.5Z"/>
        <path d="M55.20703,47.79297c-1.2168-1.2168-3.19727-1.2168-4.41406,0-.4375.43555-1.14844.43555-1.58594,0-1.2168-1.2168-3.19727-1.2168-4.41406,0-.4375.43555-1.14844.43555-1.58594,0-1.2168-1.2168-3.19727-1.2168-4.41406,0-.4375.43555-1.14844.43555-1.58594,0-1.2168-1.2168-3.19727-1.2168-4.41406,0-.4375.43555-1.14844.43555-1.58594,0-1.2168-1.2168-3.19727-1.2168-4.41406,0-.4375.43555-1.14844.43555-1.58594,0-1.2168-1.2168-3.19727-1.2168-4.41406,0-.4375.43555-1.14844.43555-1.58594,0-1.2168-1.2168-3.19727-1.2168-4.41406,0-.4375.43555-1.14844.43555-1.58594,0-1.2168-1.2168-3.19727-1.2168-4.41406,0l-1.5,1.5c-.39062.39062-.39062,1.02344,0,1.41406s1.02344.39062,1.41406,0l1.5-1.5c.4375-.43555,1.14844-.43555,1.58594,0,1.2168,1.2168,3.19727,1.2168,4.41406,0,.4375-.43555,1.14844-.43555,1.58594,0,1.2168,1.2168,3.19727,1.2168,4.41406,0,.4375-.43555,1.14844-.43555,1.58594,0,1.2168,1.2168,3.19727,1.2168,4.41406,0,.4375-.43555,1.14844-.43555,1.58594,0,1.2168,1.2168,3.19727,1.2168,4.41406,0,.4375-.43555,1.14844-.43555,1.58594,0,1.2168,1.2168,3.19727,1.2168,4.41406,0,.4375-.43555,1.14844-.43555,1.58594,0,1.2168,1.2168,3.19727,1.2168,4.41406,0,.4375-.43555,1.14844-.43555,1.58594,0,1.2168,1.2168,3.19727,1.2168,4.41406,0,.4375-.4375,1.14844-.4375,1.58594,0l1.5,1.5c.37178.37178,1.02008.39398,1.41406,0,.39062-.39062.39062-1.02344,0-1.41406l-1.5-1.5Z"/>
        <path d="M8.70703,45.70703l1.5-1.5c.4375-.43555,1.14844-.43555,1.58594,0,1.2168,1.2168,3.19727,1.2168,4.41406,0,.4375-.43555,1.14844-.43555,1.58594,0,1.2168,1.2168,3.19727,1.2168,4.41406,0,.4375-.43555,1.14844-.43555,1.58594,0,1.2168,1.2168,3.19727,1.2168,4.41406,0,.4375-.43555,1.14844-.43555,1.58594,0,1.2168,1.2168,3.19727,1.2168,4.41406,0,.4375-.43555,1.14844-.43555,1.58594,0,1.2168,1.2168,3.19727,1.2168,4.41406,0,.4375-.43555,1.14844-.43555,1.58594,0,1.2168,1.2168,3.19727,1.2168,4.41406,0,.4375-.43555,1.14844-.43555,1.58594,0,1.2168,1.2168,3.19727,1.2168,4.41406,0,.4375-.4375,1.14844-.4375,1.58594,0l1.49998,1.49998c.36545.36545,1.02581.3883,1.41408.00002.39062-.39062.39062-1.02344,0-1.41406l-1.5-1.5c-1.2168-1.2168-3.19727-1.2168-4.41406,0-.4375.43555-1.14844.43555-1.58594,0-1.2168-1.2168-3.19727-1.2168-4.41406,0-.4375.43555-1.14844.43555-1.58594,0-.43317-.43317-.96478-.70483-1.52264-.82959l2.21405-4.52393c.12451-.25488.13525-.55078.02881-.81348-.10596-.2627-.31885-.46875-.58545-.56543l-4.3418-1.57886v-5.06763l2.79297,2.79297c.8949.8949,2.20129,1.12579,3.31476.70441l2.42999,2.42999-.70911.70935c-.39062.39062-.39062,1.02344,0,1.41406l2.85352,2.85352c.1875.1875.44189.29297.70703.29297s.51953-.10547.70703-.29297l2.82812-2.8291c.39062-.39062.39062-1.02344,0-1.41406l-2.85352-2.85352c-.375-.375-1.03906-.375-1.41406,0l-.7052.70544-2.29816-2.29816c.29974-.48621.4682-1.04321.4682-1.62897,0-.83398-.32471-1.61816-.91455-2.20703l-5.74219-5.74219c-1.32178-1.32227-3.07959-2.05078-4.9502-2.05078h-7.0293c-1.87061,0-3.62842.72852-4.94971,2.05078l-5.74268,5.74219c-.58984.58887-.91455,1.37305-.91455,2.20703,0,.58575.16846,1.14276.4682,1.62897l-2.29816,2.29816-.7052-.70544c-.1875-.1875-.44189-.29297-.70703-.29297s-.51953.10547-.70703.29297l-2.85352,2.85352c-.39062.39062-.39062,1.02344,0,1.41406l2.82812,2.8291c.1875.1875.44189.29297.70703.29297s.51953-.10547.70703-.29297l2.85352-2.85352c.39062-.39062.39062-1.02344,0-1.41406l-.70911-.70935,2.42999-2.42999c1.11346.42139,2.41986.19049,3.31476-.70441l2.79297-2.79297v5.06763l-4.3418,1.57886c-.2666.09668-.47949.30273-.58545.56543-.10645.2627-.0957.55859.02881.81348l2.21405,4.52393c-.55786.12476-1.08948.39642-1.52264.82959-.4375.43555-1.14844.43555-1.58594,0-1.2168-1.2168-3.19727-1.2168-4.41406,0-.4375.43555-1.14844.43555-1.58594,0-1.2168-1.2168-3.19727-1.2168-4.41406,0l-1.5,1.5c-.39062.39062-.39062,1.02344,0,1.41406s1.02344.39062,1.41406,0ZM51.80322,36.78223l-1.41406,1.41504-1.43945-1.43945,1.41406-1.41504,1.43945,1.43945ZM13.61084,38.19727l-1.41406-1.41504,1.43945-1.43945,1.41406,1.41504-1.43945,1.43945ZM39.22333,42.44165c-.15027.10437-.29657.21753-.43036.35132-.4375.43555-1.14844.43555-1.58594,0-1.1524-1.1524-2.98212-1.19946-4.20703-.16901v-8.19592l8.61279,3.13153-2.38947,4.88208ZM26.38281,26.07617c-.375-.15625-.8042-.06934-1.08984.2168l-4.5,4.5c-.43747.43552-1.14835.43555-1.58585.00008-.43524-.43321-.43303-1.15308-.00008-1.58602l5.74316-5.74219c.94336-.94434,2.19922-1.46484,3.53516-1.46484h7.0293c1.33594,0,2.5918.52051,3.53564,1.46484l5.74262,5.74213c.41713.4171.43883,1.14722.00006,1.586-.4375.4375-1.14844.4375-1.58594,0l-4.5-4.5c-.28662-.28613-.71631-.37305-1.08984-.2168-.37354.1543-.61719.51953-.61719.92383v6.75446l-4.6582-1.69391c-.2207-.08008-.46289-.08008-.68359,0l-4.6582,1.69391v-6.75446c0-.4043-.24365-.76953-.61719-.92383ZM31,34.42804v8.19592c-1.22491-1.03046-3.05463-.9834-4.20703.16901-.4375.43555-1.14844.43555-1.58594,0-.13379-.13379-.28009-.24695-.43036-.35132l-2.38947-4.88208,8.61279-3.13153Z"/>
        <path d="M32,18c2.20557,0,4-1.79395,4-4v-2c0-2.20605-1.79443-4-4-4s-4,1.79395-4,4v2c0,2.20605,1.79443,4,4,4ZM30,12c0-1.10254.89697-2,2-2s2,.89746,2,2v2c0,1.10254-.89697,2-2,2s-2-.89746-2-2v-2Z"/>
      </g>
    </g>
  </g>
</svg>