<?xml version="1.0" encoding="UTF-8"?>
<svg xmlns="http://www.w3.org/2000/svg" version="1.1" viewBox="0 0 64 64">
  <!-- Generator: Adobe Illustrator 28.7.1, SVG Export Plug-In . SVG Version: 1.2.0 Build 142)  -->
  <g>
    <g id="Outline">
      <g>
        <path d="M55.20703,53.79084c-1.2168-1.2168-3.19727-1.2168-4.41406,0-.4375.4375-1.14844.4375-1.58594,0-1.17773-1.17969-3.23633-1.17969-4.41406,0-.4375.4375-1.14844.4375-1.58594,0-1.2168-1.2168-3.19727-1.2168-4.41406,0-.4375.4375-1.14844.4375-1.58594,0-1.2168-1.2168-3.19727-1.2168-4.41406,0-.4375.4375-1.14844.4375-1.58594,0-1.2168-1.2168-3.19727-1.2168-4.41406,0-.4375.4375-1.14844.4375-1.58594,0-1.2168-1.2168-3.19727-1.2168-4.41406,0-.4375.4375-1.14844.4375-1.58594,0-1.17773-1.17969-3.23633-1.17969-4.41406,0-.4375.4375-1.14844.4375-1.58594,0-1.2168-1.2168-3.19727-1.2168-4.41406,0l-1.5,1.5c-.39062.39062-.39062,1.02344,0,1.41406s1.02344.39062,1.41406,0l1.5-1.5c.4375-.4375,1.14844-.4375,1.58594,0,1.2168,1.2168,3.19727,1.2168,4.41406,0,.42383-.42383,1.16211-.42383,1.58594,0,1.2168,1.2168,3.19727,1.2168,4.41406,0,.42383-.42383,1.16211-.42383,1.58594,0,1.2168,1.2168,3.19727,1.2168,4.41406,0,.42383-.42383,1.16211-.42383,1.58594,0,1.2168,1.2168,3.19727,1.2168,4.41406,0,.42383-.42383,1.16211-.42383,1.58594,0,1.2168,1.2168,3.19727,1.2168,4.41406,0,.42383-.42383,1.16211-.42383,1.58594,0,1.2168,1.2168,3.19727,1.2168,4.41406,0,.42383-.42383,1.16211-.42383,1.58594,0,1.2168,1.2168,3.19727,1.2168,4.41406,0,.4375-.4375,1.14844-.4375,1.58594,0l1.49999,1.49999c.36706.36706,1.02306.39102,1.41407.00001.39062-.39062.39062-1.02344,0-1.41406l-1.5-1.5Z"/>
        <path d="M55.20703,48.79084c-1.2168-1.2168-3.19727-1.2168-4.41406,0-.4375.4375-1.14844.4375-1.58594,0-1.17773-1.17969-3.23633-1.17969-4.41406,0-.4375.4375-1.14844.4375-1.58594,0-1.2168-1.2168-3.19727-1.2168-4.41406,0-.4375.4375-1.14844.4375-1.58594,0-1.2168-1.2168-3.19727-1.2168-4.41406,0-.4375.4375-1.14844.4375-1.58594,0-1.2168-1.2168-3.19727-1.2168-4.41406,0-.4375.4375-1.14844.4375-1.58594,0-1.2168-1.2168-3.19727-1.2168-4.41406,0-.4375.4375-1.14844.4375-1.58594,0-1.17773-1.17969-3.23633-1.17969-4.41406,0-.4375.4375-1.14844.4375-1.58594,0-1.2168-1.2168-3.19727-1.2168-4.41406,0l-1.5,1.5c-.39062.39062-.39062,1.02344,0,1.41406s1.02344.39062,1.41406,0l1.5-1.5c.4375-.4375,1.14844-.4375,1.58594,0,1.2168,1.2168,3.19727,1.2168,4.41406,0,.42383-.42383,1.16211-.42383,1.58594,0,1.2168,1.2168,3.19727,1.2168,4.41406,0,.42383-.42383,1.16211-.42383,1.58594,0,1.2168,1.2168,3.19727,1.2168,4.41406,0,.42383-.42383,1.16211-.42383,1.58594,0,1.2168,1.2168,3.19727,1.2168,4.41406,0,.42383-.42383,1.16211-.42383,1.58594,0,1.2168,1.2168,3.19727,1.2168,4.41406,0,.42383-.42383,1.16211-.42383,1.58594,0,1.2168,1.2168,3.19727,1.2168,4.41406,0,.42383-.42383,1.16211-.42383,1.58594,0,1.2168,1.2168,3.19727,1.2168,4.41406,0,.4375-.4375,1.14844-.4375,1.58594,0l1.49998,1.49998c.38324.38324,1.03325.38086,1.41409.00002.39062-.39062.39062-1.02344,0-1.41406l-1.5-1.5Z"/>
        <path d="M8.70703,46.70491l1.5-1.5c.4375-.4375,1.14844-.4375,1.58594,0,.53101.53101,1.20862.81604,1.90363.88354.02496.00439.04895.00458.07404.00708.87421.06409,1.76953-.22375,2.4364-.89062.42383-.42383,1.16211-.42383,1.58594,0,1.2168,1.2168,3.19727,1.2168,4.41406,0,.42383-.42383,1.16211-.42383,1.58594,0,1.2168,1.2168,3.19727,1.2168,4.41406,0,.42383-.42383,1.16211-.42383,1.58594,0,1.2168,1.2168,3.19727,1.2168,4.41406,0,.42383-.42383,1.16211-.42383,1.58594,0,1.2168,1.2168,3.19727,1.2168,4.41406,0,.42383-.42383,1.16211-.42383,1.58594,0,1.2168,1.2168,3.19727,1.2168,4.41406,0,.42383-.42383,1.16211-.42383,1.58594,0,.63806.63806,1.48541.93262,2.33789.90332.02753,0,.05475-.00885.08234-.01111.7265-.0495,1.43982-.3382,1.99384-.89221.4375-.4375,1.14844-.4375,1.58594,0l1.49999,1.49999c.36508.36508,1.02481.38926,1.41407,0,.39062-.39062.39062-1.02344,0-1.41406l-1.5-1.5c-.51776-.51776-1.17499-.80145-1.85162-.8786.41187-.89807.64459-1.88361.64459-2.91437v-6c0-.27344-.1123-.53516-.30957-.72363-.19824-.18848-.44922-.29102-.73828-.27539l-14.73718.70178,15.14148-5.76819c.32422-.12402.5625-.4082.62598-.75.06445-.3418-.05371-.69238-.31152-.92578,0,0-21-19-21.01205-19.00838-.24035-.21006-.61574-.29822-.92155-.21525-.43555.11816-.7373.51367-.7373.96484v26.04633l-20.04785.95465c-.5332.02539-.95215.46484-.95215.99902v4c0,1.03076.23273,2.0163.64459,2.91437-.67664.07715-1.33386.36084-1.85162.8786l-1.5,1.5c-.39062.39062-.39062,1.02344,0,1.41406s1.02344.39062,1.41406,0ZM35.11664,32.74025c3.87292-5.82166,4.32336-13.38361.97211-19.69482l15.0304,13.59894-16.0025,6.09589ZM33,11.66975l.96777,1.64551c3.54199,6.02148,3.07422,13.49316-.96777,18.98926V11.66975ZM12,36.951l40-1.9043v4.95117c0,1.65387-.80438,3.15735-2.15515,4.09094-.23248-.03278-.45929-.11945-.63782-.29797-1.17773-1.17969-3.23633-1.17969-4.41406,0-.4375.4375-1.14844.4375-1.58594,0-1.2168-1.2168-3.19727-1.2168-4.41406,0-.4375.4375-1.14844.4375-1.58594,0-1.2168-1.2168-3.19727-1.2168-4.41406,0-.4375.4375-1.14844.4375-1.58594,0-1.2168-1.2168-3.19727-1.2168-4.41406,0-.4375.4375-1.14844.4375-1.58594,0-1.2168-1.2168-3.19727-1.2168-4.41406,0-.4375.4375-1.14844.4375-1.58594,0-1.17773-1.17969-3.23633-1.17969-4.41406,0-.17853.17853-.4054.2652-.63782.29797-1.35077-.93359-2.15515-2.43707-2.15515-4.09094v-3.04688Z"/>
      </g>
    </g>
  </g>
</svg>