<?xml version="1.0" encoding="UTF-8"?>
<svg xmlns="http://www.w3.org/2000/svg" version="1.1" viewBox="0 0 64 64">
  <!-- Generator: Adobe Illustrator 28.7.1, SVG Export Plug-In . SVG Version: 1.2.0 Build 142)  -->
  <g>
    <g id="Outline">
      <g>
        <path d="M50,7H14c-2.21002,0-4,1.78998-4,4v42c0,2.20996,1.78998,4,4,4h36c2.21002,0,4-1.79004,4-4V11c0-2.21002-1.78998-4-4-4ZM12,25h19v14H12v-14ZM52,53c0,1.09998-.90002,2-2,2H14c-1.09998,0-2-.90002-2-2v-12h40v12ZM52,39h-19v-14h19v14ZM52,23H12v-12c0-1.10004.90002-2,2-2h36c1.09998,0,2,.89996,2,2v12Z"/>
        <path d="M15,43c-.55273,0-1,.44727-1,1v8c0,.55273.44727,1,1,1s1-.44727,1-1v-8c0-.55273-.44727-1-1-1Z"/>
        <path d="M19,43c-.55273,0-1,.44727-1,1v8c0,.55273.44727,1,1,1s1-.44727,1-1v-8c0-.55273-.44727-1-1-1Z"/>
        <path d="M29,43c-.55273,0-1,.44727-1,1v8c0,.55273.44727,1,1,1s1-.44727,1-1v-8c0-.55273-.44727-1-1-1Z"/>
        <path d="M25,43c-.55273,0-1,.44727-1,1v8c0,.55273.44727,1,1,1s1-.44727,1-1v-8c0-.55273-.44727-1-1-1Z"/>
        <path d="M33,43c-.55273,0-1,.44727-1,1v8c0,.55273.44727,1,1,1s1-.44727,1-1v-8c0-.55273-.44727-1-1-1Z"/>
        <path d="M43,43c-.55273,0-1,.44727-1,1v8c0,.55273.44727,1,1,1s1-.44727,1-1v-8c0-.55273-.44727-1-1-1Z"/>
        <path d="M49,43c-.55273,0-1,.44727-1,1v8c0,.55273.44727,1,1,1s1-.44727,1-1v-8c0-.55273-.44727-1-1-1Z"/>
        <path d="M39,43c-.55273,0-1,.44727-1,1v8c0,.55273.44727,1,1,1s1-.44727,1-1v-8c0-.55273-.44727-1-1-1Z"/>
        <path d="M15,21h8c.55273,0,1-.44727,1-1v-8c0-.55273-.44727-1-1-1h-8c-.55273,0-1,.44727-1,1v8c0,.55273.44727,1,1,1ZM16,13h6v6h-6v-6Z"/>
        <path d="M27,13h22c.55273,0,1-.44727,1-1s-.44727-1-1-1h-22c-.55273,0-1,.44727-1,1s.44727,1,1,1Z"/>
        <path d="M27,17h22c.55273,0,1-.44727,1-1s-.44727-1-1-1h-22c-.55273,0-1,.44727-1,1s.44727,1,1,1Z"/>
        <path d="M27,21h22c.55273,0,1-.44727,1-1s-.44727-1-1-1h-22c-.55273,0-1,.44727-1,1s.44727,1,1,1Z"/>
        <path d="M15,29h8c.55273,0,1-.44727,1-1s-.44727-1-1-1h-8c-.55273,0-1,.44727-1,1s.44727,1,1,1Z"/>
        <path d="M15,33h13c.55273,0,1-.44727,1-1s-.44727-1-1-1h-13c-.55273,0-1,.44727-1,1s.44727,1,1,1Z"/>
        <path d="M28,35h-13c-.55273,0-1,.44727-1,1s.44727,1,1,1h13c.55273,0,1-.44727,1-1s-.44727-1-1-1Z"/>
        <path d="M36,29h8c.55273,0,1-.44727,1-1s-.44727-1-1-1h-8c-.55273,0-1,.44727-1,1s.44727,1,1,1Z"/>
        <path d="M36,33h13c.55273,0,1-.44727,1-1s-.44727-1-1-1h-13c-.55273,0-1,.44727-1,1s.44727,1,1,1Z"/>
        <path d="M49,35h-13c-.55273,0-1,.44727-1,1s.44727,1,1,1h13c.55273,0,1-.44727,1-1s-.44727-1-1-1Z"/>
      </g>
    </g>
  </g>
</svg>