<?xml version="1.0" encoding="UTF-8"?>
<svg id="Outline" xmlns="http://www.w3.org/2000/svg" version="1.1" viewBox="0 0 64 64">
  <path d="M53.91998,10.08124c-2.18115-2.18164-5.20264-3.31641-8.27344-3.08887-3.07764.21777-5.9043,1.75879-7.75586,4.22754-1.17871,1.57129-2.48047,3.07227-3.86963,4.46191l-18.34033,18.33984c-1.38867,1.38867-2.88965,2.69141-4.46191,3.87012-2.46826,1.85059-4.00879,4.67773-4.22754,7.75488s.90674,6.09277,3.08838,8.27441c2.00244,2.00293,4.70801,3.11523,7.51904,3.11523.25098,0,.50342-.00879.75586-.02637,3.07715-.21875,5.90381-1.75977,7.75488-4.22852,1.18066-1.57324,2.48242-3.07422,3.86963-4.46094l18.34033-18.34082c1.38965-1.38965,2.89111-2.69141,4.46191-3.86914,2.46826-1.85156,4.00879-4.67773,4.22754-7.75488.21826-3.07715-.90723-6.09375-3.08887-8.27441ZM48.24536,27.31806l-2.47968-8.25732c-.09619-.32129-.34814-.57324-.66992-.66992l-8.49323-2.54865c.59698-.646,1.17273-1.30695,1.72974-1.98779l9.20245,2.76788,2.69714,8.97766c-.67981.55347-1.3407,1.12463-1.98651,1.71814ZM28.85235,46.61902l-8.70093-2.612-2.68414-8.94379,17.59515-17.59467,8.94299,2.68298,2.61273,8.70123-17.76581,17.76624ZM25.59881,50.23279l-8.97766-2.69647-2.76819-9.20227c.68115-.55737,1.3421-1.13336,1.98822-1.73059l2.54901,8.49341c.09668.32227.34863.57422.67041.6709l8.25604,2.47888c-.5929.64508-1.16406,1.30585-1.71783,1.98615ZM18.21295,55.01483c-2.50391.17383-4.94775-.73633-6.71924-2.50781-1.771-1.77148-2.68506-4.21973-2.50781-6.71875.17017-2.39227,1.33228-4.58942,3.18848-6.09192l2.68652,8.93079c.09668.32129.34814.57324.66992.66992l8.703,2.61444c-1.50092,1.80597-3.66608,2.93585-6.02087,3.10333ZM55.01373,18.21308c-.16705,2.35541-1.29742,4.52155-3.10364,6.02222l-2.61462-8.70386c-.09619-.32129-.34814-.57324-.66943-.66992l-8.93109-2.68658c1.50293-1.85632,3.70081-3.01825,6.0932-3.18744,2.44973-.17324,4.95594.74598,6.71777,2.50781,1.771,1.77148,2.68555,4.21973,2.50781,6.71777Z" style="fill: #000; stroke-width: 0px;"/>
  <path d="M29.24957,32.07929c-1.51074-1.51172-4.146-1.51172-5.65674,0-1.55908,1.55957-1.55908,4.09766,0,5.65723l2.82861,2.82812c.75537.75586,1.75977,1.17188,2.82812,1.17188s2.07324-.41602,2.82861-1.17188c1.55908-1.55957,1.55908-4.09766,0-5.65723l-2.82861-2.82812ZM30.66412,39.15058c-.75586.75586-2.07275.75586-2.82861,0l-2.82861-2.82812c-.77923-.78021-.7793-2.04861-.0002-2.8289.76214-.7633,2.06958-.75942,2.82881-.0002l2.82861,2.82812c.7793.78027.7793,2.04883,0,2.8291Z" style="fill: #000; stroke-width: 0px;"/>
  <path d="M37.73492,23.59393c-1.51074-1.51172-4.146-1.51172-5.65674,0-1.55908,1.55957-1.55908,4.09766,0,5.65723l2.82861,2.82812c.75537.75586,1.75977,1.17188,2.82812,1.17188s2.07324-.41602,2.82861-1.17188c1.55908-1.55957,1.55908-4.09766,0-5.65723l-2.82861-2.82812ZM39.14947,30.66522c-.75586.75586-2.07275.75586-2.82861,0l-2.82861-2.82812c-.77923-.78021-.7793-2.04862-.00019-2.82891.75844-.75958,2.07337-.75561,2.8288-.00019l2.82861,2.82812c.7793.78027.7793,2.04883,0,2.8291Z" style="fill: #000; stroke-width: 0px;"/>
</svg>