<?xml version="1.0" encoding="utf-8"?>
<!-- Generator: Adobe Illustrator 28.2.0, SVG Export Plug-In . SVG Version: 6.00 Build 0)  -->
<svg version="1.1" id="Outline" xmlns="http://www.w3.org/2000/svg" xmlns:xlink="http://www.w3.org/1999/xlink" x="0px" y="0px"
	 viewBox="0 0 64 64" enable-background="new 0 0 64 64" xml:space="preserve">
<g>
	<path d="M56.00003,55h-3v-3c0-0.54999-0.45001-1-1-1h-5v-1c0-1.29999-0.84003-2.40002-2-2.82001V45c0-0.54999-0.45001-1-1-1
		s-1,0.45001-1,1v2.17999c-1.15997,0.41998-2,1.52002-2,2.82001v1h-5c-0.54999,0-1,0.45001-1,1v3h-6v-3c0-0.54999-0.45001-1-1-1h-5
		v-1c0-1.29999-0.84003-2.40002-2-2.82001V34.40997L26.29001,29.12c1.17004-1.16998,1.17004-3.07001,0-4.23999
		c-1.13-1.13-3.10999-1.13-4.23999,0c0,0-9.16972,9.16972-9.16998,9.16998c-1.13453,1.13453-1.17623,3.08441,0.00002,4.24001
		c1.14045,1.1601,3.10154,1.15805,4.23997-0.00002l1.88-1.88v10.77002c-1.15997,0.41998-2,1.52002-2,2.82001v1h-5
		c-0.54999,0-1,0.45001-1,1v3h-3c-0.54999,0-1,0.45001-1,1s0.45001,1,1,1h48c0.54999,0,1-0.45001,1-1S56.55002,55,56.00003,55z
		 M15.71006,36.88c-0.38998,0.38992-1.02991,0.38995-1.41994,0.0001c-0.38323-0.38305-0.38184-1.03841-0.0001-1.42015
		c0,0,9.14592-9.13594,9.1799-9.16989c0.37892-0.37851,1.03265-0.37757,1.41013-0.0001c0.39001,0.39001,0.39001,1.03003,0,1.41998
		l-5.57001,5.57001c-0.01001,0.01001-0.02002,0.01001-0.02997,0.02002L15.71006,36.88z M19.00003,50c0-0.54999,0.45001-1,1-1
		s1,0.45001,1,1v1h-2V50z M27.00003,55h-14v-2h14V55z M43.00003,50c0-0.54999,0.45001-1,1-1s1,0.45001,1,1v1h-2V50z M51.00003,55
		h-14v-2h14V55z"/>
	<path d="M7.43461,17.64746c-0.36572,0.25049-0.52246,0.71191-0.38574,1.13379c0.13721,0.42139,0.50635,0.72803,0.979,0.69043
		c0.64355-0.00977,1.27734,0.28174,1.67041,0.82275s0.49023,1.2124,0.26562,1.84229
		c-0.14844,0.41797-0.00439,0.88379,0.35449,1.14453c0.35986,0.26123,0.84668,0.25488,1.19775-0.0166
		c0.52979-0.40869,1.19873-0.52441,1.83447-0.31689c0.63623,0.20654,1.10938,0.69336,1.29834,1.33496
		C14.77445,24.70801,15.16507,25,15.60843,25s0.83398-0.29199,0.95947-0.71729c0.18896-0.6416,0.66211-1.12842,1.29834-1.33496
		s1.3042-0.0918,1.83447,0.31689c0.35059,0.27051,0.83838,0.27686,1.19727,0.0166c0.35889-0.26074,0.50342-0.72607,0.35498-1.14404
		c-0.22412-0.63037-0.12744-1.30225,0.26562-1.84326c0.39355-0.54102,1.0166-0.83496,1.67041-0.82227
		c0.4707,0.0293,0.8418-0.26855,0.979-0.69043c0.13672-0.42188-0.02002-0.8833-0.38574-1.13379
		C23.2305,17.26904,22.9141,16.66895,22.9141,16s0.31641-1.26904,0.86816-1.64746c0.36572-0.25049,0.52246-0.71191,0.38574-1.13379
		c-0.13428-0.4126-0.51904-0.69092-0.95117-0.69092c-0.00879,0-0.01807,0-0.02783,0.00049
		c-0.65137,0.01709-1.27686-0.28125-1.67041-0.82227c-0.39307-0.54102-0.48975-1.21289-0.26562-1.84326
		c0.14844-0.41797,0.00391-0.8833-0.35498-1.14404c-0.35791-0.26025-0.8457-0.25342-1.19727,0.0166
		c-0.53027,0.40918-1.19824,0.52441-1.83447,0.31689c-0.63623-0.20654-1.10938-0.69336-1.29834-1.33496
		C16.44242,7.29199,16.05179,7,15.60843,7s-0.83398,0.29199-0.95947,0.71729C14.46,8.35889,13.98685,8.8457,13.35062,9.05225
		c-0.63574,0.20703-1.30469,0.09131-1.83447-0.31689c-0.35205-0.27051-0.83984-0.27783-1.19775-0.0166
		C9.95951,8.97949,9.81546,9.44531,9.9639,9.86328c0.22461,0.62988,0.12744,1.30127-0.26562,1.84229s-1.0293,0.8374-1.67041,0.82275
		c-0.44482-0.02002-0.8418,0.26904-0.979,0.69043c-0.13672,0.42188,0.02002,0.8833,0.38574,1.13379
		C7.98636,14.73096,8.30277,15.33105,8.30277,16S7.98636,17.26904,7.43461,17.64746z M9.83597,14.12451
		c0.5791-0.28271,1.09033-0.70605,1.48047-1.24316c0.39062-0.5376,0.63477-1.15381,0.72461-1.79199
		c0.6333,0.11182,1.29541,0.06982,1.92773-0.13525c0.63184-0.20508,1.19189-0.56006,1.63965-1.02393
		c0.44824,0.46387,1.0083,0.81885,1.64014,1.02441c0.63086,0.20459,1.29199,0.24756,1.92773,0.13477
		c0.08984,0.63867,0.33398,1.25488,0.72461,1.79248c0.39014,0.53711,0.90088,0.95996,1.47998,1.24268
		C21.07865,14.69336,20.9141,15.33594,20.9141,16s0.16455,1.30664,0.4668,1.87598c-0.5791,0.28223-1.08984,0.70508-1.47998,1.24219
		c-0.39062,0.5376-0.63477,1.15381-0.72461,1.79248c-0.63574-0.11279-1.29688-0.0708-1.92773,0.13477
		c-0.63184,0.20557-1.19189,0.56055-1.64014,1.02441c-0.44775-0.46387-1.00781-0.81885-1.63965-1.02393
		c-0.4043-0.13184-0.8208-0.1958-1.23486-0.1958c-0.23291,0-0.46484,0.02002-0.69287,0.06055
		c-0.08984-0.63818-0.33398-1.25439-0.72461-1.79199s-0.90137-0.96045-1.48047-1.24316
		c0.30225-0.56885,0.4668-1.21143,0.4668-1.87549S10.13822,14.69336,9.83597,14.12451z"/>
	<path d="M15.60843,19c1.6543,0,3-1.3457,3-3s-1.3457-3-3-3s-3,1.3457-3,3S13.95414,19,15.60843,19z M15.60843,15
		c0.55127,0,1,0.44873,1,1s-0.44873,1-1,1s-1-0.44873-1-1S15.05716,15,15.60843,15z"/>
	<path d="M38.99955,39.16992c0.76807,0,1.53662-0.29248,2.12158-0.87695l1.87891-1.87878V37c0,0.55225,0.44775,1,1,1s1-0.44775,1-1
		v-2.58575l5.29346-5.29315c1.16895-1.16992,1.16895-3.07324-0.00049-4.24219c-1.13428-1.13379-3.10938-1.13379-4.24219,0
		c0,0-9.16607,9.16558-9.17187,9.17138c-1.15539,1.15533-1.15341,3.08927,0,4.24268
		C37.46341,38.87793,38.23148,39.16992,38.99955,39.16992z M38.293,35.46484c0,0,9.12113-9.12064,9.17215-9.17166
		c0.3685-0.36848,1.0215-0.39249,1.41379-0.00022c0.38965,0.38965,0.38965,1.02393,0,1.41406l-9.17188,9.17139
		c-0.39057,0.39008-1.02521,0.38965-1.4139,0.00065C37.91255,36.49815,37.91507,35.84278,38.293,35.46484z"/>
	<circle cx="44.00003" cy="41" r="1"/>
</g>
</svg>
