<?xml version="1.0" encoding="UTF-8"?>
<svg xmlns="http://www.w3.org/2000/svg" version="1.1" viewBox="0 0 64 64">
  <!-- Generator: Adobe Illustrator 28.7.1, SVG Export Plug-In . SVG Version: 1.2.0 Build 142)  -->
  <g>
    <g id="Outline">
      <g>
        <path d="M55.63,22.92999c.30772.12211.65325.07913.92999-.10004.28003-.18994.44-.5.44-.82996v-4.40002c0-.40997-.25-.77002-.63-.92999l-24-9.59998c-.23999-.09003-.5-.09003-.73999,0L7.63,16.66998c-.38.15997-.63.52002-.63.92999v4.40002c0,.32996.15997.64001.44.82996.27002.18005.62.22003.92999.10004l.63-.25v28.32001c-1.09998,0-2,.89996-2,2v2c0,1.09998.90002,2,2,2h46c1.09998,0,2-.90002,2-2v-2c0-1.10004-.90002-2-2-2v-28.32001l.63.25ZM55,55H9v-2h46v2ZM33,32.06v-2.06h.15997c1.66003,0,4.64001-.29999,6.59003-2.25,2.77002-2.77002,2.21002-7.60999,2.19-7.82001-.06-.45001-.41998-.81-.87-.87-.21002-.02002-5.04999-.58002-7.82001,2.19-.53003.52997-.94,1.14001-1.25,1.77997-.31-.63995-.71997-1.25-1.25-1.77997-2.77002-2.77002-7.60999-2.21002-7.82001-2.19-.45001.06-.81.41998-.87.87-.02002.21002-.58002,5.04999,2.19,7.82001,1.95001,1.95001,4.92999,2.25,6.59003,2.25h.15997v2.06c-4.48999.5-8,4.32001-8,8.94v10h-12v-29.12l21-8.40002,21,8.40002v29.12h-12v-10c0-4.62-3.51001-8.44-8-8.94ZM39,41v10h-6v-16.92004c3.39001.49005,6,3.40002,6,6.92004ZM37.64001,23.90997c-.28003-.47998-.89001-.64001-1.37-.37-1.13.65002-2.17004,1.46002-3.10004,2.35999.20001-1.13.62-2.35999,1.5-3.22998,1.5-1.5,4.02002-1.67999,5.33002-1.66998.01001,1.31-.16998,3.82996-1.66998,5.32996-1.19,1.20001-3.01001,1.55005-4.38,1.64001.95001-1.06,2.07001-1.97998,3.32001-2.69.47998-.27997.63995-.88995.37-1.37ZM26.72998,25.27997c1.25.71002,2.37,1.63,3.32001,2.69-1.35999-.08997-3.19-.44-4.38-1.64001-1.5-1.5-1.67999-4.01996-1.66998-5.32996,1.31-.01001,3.83002.16998,5.33002,1.66998.88.87,1.29999,2.09998,1.5,3.22998-.92999-.89996-1.97003-1.70996-3.10004-2.35999-.47998-.27002-1.08997-.10999-1.37.37-.26996.48004-.10999,1.09003.37,1.37ZM31,34.07996v16.92004h-6v-10c0-3.52002,2.60999-6.42999,6-6.92004ZM32.37,11.46997c-.12-.04999-.23999-.07001-.37-.07001s-.25.02002-.37.07001l-22.63,9.04999v-2.23999l23-9.20001,23,9.20001v2.23999l-22.63-9.04999Z"/>
        <path d="M20,32h-6c-.55225,0-1,.44775-1,1v14c0,.55225.44775,1,1,1h6c.55225,0,1-.44775,1-1v-14c0-.55225-.44775-1-1-1ZM19,46h-4v-12h4v12Z"/>
        <path d="M44,48h6c.55225,0,1-.44775,1-1v-14c0-.55225-.44775-1-1-1h-6c-.55225,0-1,.44775-1,1v14c0,.55225.44775,1,1,1ZM45,34h4v12h-4v-12Z"/>
      </g>
    </g>
  </g>
</svg>