<?xml version="1.0" encoding="UTF-8"?>
<svg id="Outline" xmlns="http://www.w3.org/2000/svg" version="1.1" viewBox="0 0 64 64">
  <path d="M54,29h-9v-8.45001c1.83002-1.46002,3-3.71002,3-6.22998,0-3.12-1.75-5.89001-4.57001-7.22003-.31-.14996-.67999-.13-.96997.06-.28003.17999-.46002.5-.46002.84003v5.77997l-2,1.34003-2-1.34003v-5.77997c0-.34003-.17999-.66003-.46002-.84003-.28998-.19-.65997-.20996-.96997-.06-2.82001,1.33002-4.57001,4.10004-4.57001,7.22003,0,.40997.03003.82001.09003,1.21997.31995,2.06,1.38995,3.83002,2.90997,5.03998v8.42004h-9v-8.84003l1.95001-5.83997c.08002-.26001.06-.53003-.06-.77002l-3-6c-.17004-.34003-.51001-.54999-.89001-.54999h-4c-.38,0-.71997.20996-.89001.54999l-3,6c-.12.23999-.14001.51001-.06.77002l1.95001,5.83997v8.84003h-8c-1.65002,0-3,1.34998-3,3s1.34998,3,3,3v19c0,1.64996,1.34998,3,3,3h38c1.65002,0,3-1.35004,3-3v-19c1.65002,0,3-1.35004,3-3s-1.34998-3-3-3ZM34.07001,15.23999c-.04999-.29999-.07001-.60999-.07001-.91998,0-1.76001.73999-3.36005,2-4.48004v4.48004c0,.32996.16998.64996.45001.82996l3,2c.33002.23004.76996.23004,1.09998,0l3-2c.28003-.17999.45001-.5.45001-.82996v-4.48004c1.26001,1.12,2,2.72003,2,4.48004,0,3.31-2.69,6-6,6-2.98999,0-5.47998-2.14001-5.92999-5.08002ZM43,21.72998v7.27002h-6v-7.26001c.92999.37,1.94.58002,3,.58002s2.07001-.21002,3-.59003ZM20.62,9h2.76001l2.53998,5.07996-1.63995,4.92004h-4.56006l-1.63995-4.92004,2.53998-5.07996ZM24,21v8h-4v-8h4ZM27.09998,55c.47003-2.28003,2.49005-4,4.90002-4s4.42999,1.71997,4.90002,4h-9.80005ZM43,55h-4.08002c-.48999-3.39001-3.39996-6-6.91998-6s-6.42999,2.60999-6.91998,6h-4.08002v-1.10004c2.23999-.46997,3.92999-2.44995,3.92999-4.82996,0-.52002-.08997-1.04004-.25-1.54004l3.64001-2.09998c.92999,1.04999,2.23999,1.64996,3.67999,1.64996s2.75-.59998,3.67999-1.64996l3.64001,2.09998c-.16003.5-.25,1.02002-.25,1.54004,0,2.38,1.69,4.35999,3.92999,4.82996v1.10004ZM52,51h-2v-12h2v12ZM52,37h-3c-.54999,0-1,.45001-1,1v14c0,.54999.45001,1,1,1h3v1c0,.54999-.45001,1-1,1h-6v-2c0-.54999-.45001-1-1-1-1.81,0-2.92999-1.52002-2.92999-2.92999,0-.51001.13-1,.39996-1.47003.27002-.46997.11005-1.08002-.37-1.35999l-5.19995-3c-.48004-.27002-1.09003-.10999-1.36005.37-.53998.91998-1.48999,1.46997-2.53998,1.46997s-2-.54999-2.53998-1.46997c-.27002-.47998-.88-.64001-1.36005-.37l-5.19995,3c-.48004.27997-.64001.89001-.37,1.35999.26996.47003.39996.96002.39996,1.47003,0,1.40997-1.12,2.92999-2.92999,2.92999-.54999,0-1,.45001-1,1v2h-6c-.54999,0-1-.45001-1-1v-1h3c.54999,0,1-.45001,1-1v-14c0-.54999-.45001-1-1-1h-3v-2h40v2ZM12,51v-12h2v12h-2ZM54,33H10c-.54999,0-1-.45001-1-1s.45001-1,1-1h44c.54999,0,1,.45001,1,1s-.45001,1-1,1Z" fill="#000" stroke-width="0"/>
  <circle cx="32" cy="39" r="1" fill="#000" stroke-width="0"/>
  <circle cx="28" cy="39" r="1" fill="#000" stroke-width="0"/>
  <circle cx="36" cy="39" r="1" fill="#000" stroke-width="0"/>
</svg>