<?xml version="1.0" encoding="UTF-8"?>
<svg id="Outline" xmlns="http://www.w3.org/2000/svg" version="1.1" viewBox="0 0 48 48">
  <path d="M42,41h-7.98633v-2h3c1.6543,0,3-1.3457,3-3,0-1.30194-.8385-2.40161-2-2.81573v-5.18427c0-2.75684-2.24316-5-5-5s-5,2.24316-5,5v5.18427c-1.1615.41412-2,1.51379-2,2.81573,0,1.6543,1.3457,3,3,3h3v2h-16.01367v-2h3c1.6543,0,3-1.3457,3-3,0-1.30194-.8385-2.40161-2-2.81573v-5.18427c0-2.75684-2.24316-5-5-5s-5,2.24316-5,5v5.18427c-1.1615.41412-2,1.51379-2,2.81573,0,1.6543,1.3457,3,3,3h3v2H6c-.55273,0-1,.44775-1,1s.44727,1,1,1h36c.55273,0,1-.44775,1-1s-.44727-1-1-1ZM12,28c0-1.6543,1.3457-3,3-3s3,1.3457,3,3v5h-6v-5ZM11,37c-.55176,0-1-.44873-1-1s.44824-1,1-1h8c.55176,0,1,.44873,1,1s-.44824,1-1,1h-8ZM30.01367,28c0-1.6543,1.3457-3,3-3s3,1.3457,3,3v5h-6v-5ZM29.01367,37c-.55176,0-1-.44873-1-1s.44824-1,1-1h8c.55176,0,1,.44873,1,1s-.44824,1-1,1h-8Z" fill="#000" stroke-width="0"/>
  <path d="M40,7h-2.98633v-1c0-.55225-.44727-1-1-1s-1,.44775-1,1v1H13v-1c0-.55225-.44727-1-1-1s-1,.44775-1,1v1h-3c-1.6543,0-3,1.3457-3,3v8c0,1.6543,1.3457,3,3,3h32c1.6543,0,3-1.3457,3-3v-8c0-1.6543-1.3457-3-3-3ZM17,19h-9c-.55176,0-1-.44873-1-1v-8c0-.55127.44824-1,1-1h9v10ZM41,18c0,.55127-.44824,1-1,1h-21v-10h21c.55176,0,1,.44873,1,1v8Z" fill="#000" stroke-width="0"/>
  <path d="M10,13h1v3c0,.55225.44727,1,1,1s1-.44775,1-1v-3h1c.55273,0,1-.44775,1-1s-.44727-1-1-1h-4c-.55273,0-1,.44775-1,1s.44727,1,1,1Z" fill="#000" stroke-width="0"/>
  <path d="M22,13h4c.55273,0,1-.44775,1-1s-.44727-1-1-1h-4c-.55273,0-1,.44775-1,1s.44727,1,1,1Z" fill="#000" stroke-width="0"/>
  <path d="M33,15h-11c-.55273,0-1,.44775-1,1s.44727,1,1,1h11c.55273,0,1-.44775,1-1s-.44727-1-1-1Z" fill="#000" stroke-width="0"/>
  <path d="M38,11h-8c-.55273,0-1,.44775-1,1s.44727,1,1,1h8c.55273,0,1-.44775,1-1s-.44727-1-1-1Z" fill="#000" stroke-width="0"/>
</svg>