<?xml version="1.0" encoding="UTF-8"?>
<svg xmlns="http://www.w3.org/2000/svg" version="1.1" viewBox="0 0 64 64">
  <!-- Generator: Adobe Illustrator 28.7.1, SVG Export Plug-In . SVG Version: 1.2.0 Build 142)  -->
  <g>
    <g id="Outline">
      <g>
        <path d="M48,7h-21c-.54999,0-1,.45001-1,1s.45001,1,1,1h21c.54999,0,1,.45001,1,1v13H15v-13c0-.54999.45001-1,1-1h3c.54999,0,1-.45001,1-1s-.45001-1-1-1h-3c-1.65002,0-3,1.34998-3,3v40c0,1.64996,1.34998,3,3,3h2v1c0,1.64996,1.34998,3,3,3h22c1.65002,0,3-1.35004,3-3v-1h2c1.65002,0,3-1.35004,3-3V10c0-1.65002-1.34998-3-3-3ZM44,54c0,.54999-.45001,1-1,1h-22c-.54999,0-1-.45001-1-1v-1h24v1ZM49,50c0,.54999-.45001,1-1,1H16c-.54999,0-1-.45001-1-1v-25h34v25Z"/>
        <circle cx="46" cy="28" r="1"/>
        <circle cx="18" cy="28" r="1"/>
        <circle cx="46" cy="48" r="1"/>
        <circle cx="18" cy="48" r="1"/>
        <path d="M29,20v-8c0-.55273-.44775-1-1-1s-1,.44727-1,1v8c0,.55273.44775,1,1,1s1-.44727,1-1Z"/>
        <path d="M19,14c0,1.6543,1.3457,3,3,3,.55127,0,1,.44824,1,1s-.44873,1-1,1h-2c-.55225,0-1,.44727-1,1s.44775,1,1,1h2c1.6543,0,3-1.3457,3-3s-1.3457-3-3-3c-.55127,0-1-.44824-1-1s.44873-1,1-1h2c.55225,0,1-.44727,1-1s-.44775-1-1-1h-2c-1.6543,0-3,1.3457-3,3Z"/>
        <path d="M34,13c.55127,0,1,.44824,1,1,0,.55273.44775,1,1,1s1-.44727,1-1c0-1.6543-1.3457-3-3-3s-3,1.3457-3,3v4c0,1.6543,1.3457,3,3,3s3-1.3457,3-3v-1c0-.55273-.44775-1-1-1h-1c-.55225,0-1,.44727-1,1s.44775,1,1,1c0,.55176-.44873,1-1,1s-1-.44824-1-1v-4c0-.55176.44873-1,1-1Z"/>
        <path d="M41,20v-3.76367l2.10538,4.21076c.45972.91945,1.89462.58511,1.89462-.44709v-8c0-.55273-.44775-1-1-1s-1,.44727-1,1v3.76367l-2.10547-4.21094c-.20752-.41504-.66943-.62988-1.12451-.52637-.45117.10742-.77002.50977-.77002.97363v8c0,.55273.44775,1,1,1s1-.44727,1-1Z"/>
        <path d="M36,29h-7v-1c0-.4043-.24365-.76953-.61719-.92383-.37598-.1582-.8042-.06934-1.08984.2168l-4,4c-.39062.39062-.39062,1.02344,0,1.41406l4,4c.28564.28613.71387.37207,1.08984.2168.37354-.1543.61719-.51953.61719-.92383v-1h6v13c0,.55273.44775,1,1,1h4c.55225,0,1-.44727,1-1v-14c0-2.75684-2.24316-5-5-5ZM39,47h-2v-12c0-1.10254-.89697-2-2-2h-7c-.42871,0-.79443.26953-.93652.64941l-1.64941-1.64941,1.64941-1.64941c.14209.37988.50781.64941.93652.64941h8c1.6543,0,3,1.3457,3,3v13Z"/>
        <circle cx="23" cy="8" r="1"/>
      </g>
    </g>
  </g>
</svg>