<?xml version="1.0" encoding="UTF-8"?>
<svg xmlns="http://www.w3.org/2000/svg" version="1.1" viewBox="0 0 64 64">
  <!-- Generator: Adobe Illustrator 28.7.1, SVG Export Plug-In . SVG Version: 1.2.0 Build 142)  -->
  <g>
    <g id="Outline">
      <g>
        <path d="M48,7h-6c-.54999,0-1,.45001-1,1s.45001,1,1,1h6c.54999,0,1,.45001,1,1v13H15v-13c0-.54999.45001-1,1-1h18c.54999,0,1-.45001,1-1s-.45001-1-1-1h-18c-1.65002,0-3,1.34998-3,3v40c0,1.64996,1.34998,3,3,3h2v1c0,1.64996,1.34998,3,3,3h22c1.65002,0,3-1.35004,3-3v-1h2c1.65002,0,3-1.35004,3-3V10c0-1.65002-1.34998-3-3-3ZM44,54c0,.54999-.45001,1-1,1h-22c-.54999,0-1-.45001-1-1v-1h24v1ZM49,50c0,.54999-.45001,1-1,1H16c-.54999,0-1-.45001-1-1v-25h34v25Z"/>
        <circle cx="46" cy="28" r="1"/>
        <circle cx="18" cy="28" r="1"/>
        <circle cx="46" cy="48" r="1"/>
        <circle cx="18" cy="48" r="1"/>
        <path d="M27,12v8c0,.55273.44775,1,1,1s1-.44727,1-1v-8c0-.55273-.44775-1-1-1s-1,.44727-1,1Z"/>
        <path d="M22,13h2c.55225,0,1-.44727,1-1s-.44775-1-1-1h-2c-1.6543,0-3,1.3457-3,3s1.3457,3,3,3c.55127,0,1,.44824,1,1s-.44873,1-1,1h-2c-.55225,0-1,.44727-1,1s.44775,1,1,1h2c1.6543,0,3-1.3457,3-3s-1.3457-3-3-3c-.55127,0-1-.44824-1-1s.44873-1,1-1Z"/>
        <path d="M31,14v4c0,1.6543,1.3457,3,3,3s3-1.3457,3-3v-1c0-.55273-.44775-1-1-1h-1c-.55225,0-1,.44727-1,1s.44775,1,1,1c0,.55176-.44873,1-1,1s-1-.44824-1-1v-4c0-.55176.44873-1,1-1s1,.44824,1,1c0,.55273.44775,1,1,1s1-.44727,1-1c0-1.6543-1.3457-3-3-3s-3,1.3457-3,3Z"/>
        <path d="M39,20c0,.55273.44775,1,1,1s1-.44727,1-1v-3.76367l2.10545,4.21091c.45983.91966,1.89454.58511,1.89455-.44724v-8c0-.55273-.44775-1-1-1s-1,.44727-1,1v3.76367l-2.10547-4.21094c-.20752-.41504-.67041-.62988-1.12451-.52637-.45117.10742-.77002.50977-.77002.97363v8Z"/>
        <path d="M36.70703,27.29297c-.28662-.28613-.7168-.375-1.08984-.2168-.37354.1543-.61719.51953-.61719.92383v1h-7c-2.75684,0-5,2.24316-5,5v14c0,.55273.44775,1,1,1h4c.55225,0,1-.44727,1-1v-13h6v1c0,.4043.24365.76953.61719.92383.37305.15527.80322.06934,1.08984-.2168l4-4c.39062-.39062.39062-1.02344,0-1.41406l-4-4ZM36.93652,33.64941c-.14209-.37988-.50781-.64941-.93652-.64941h-7c-1.10303,0-2,.89746-2,2v12h-2v-13c0-1.6543,1.3457-3,3-3h8c.42871,0,.79443-.26953.93652-.64941l1.64941,1.64941-1.64941,1.64941Z"/>
        <circle cx="38" cy="8" r="1"/>
      </g>
    </g>
  </g>
</svg>