<?xml version="1.0" encoding="UTF-8"?>
<svg id="Outline" xmlns="http://www.w3.org/2000/svg" version="1.1" viewBox="0 0 64 64">
  <path d="M56.34998,16.06l-24-9c-.22998-.08002-.46997-.08002-.69995,0L7.65002,16.06c-.39001.14996-.65002.51996-.65002.94v5c0,.54999.45001,1,1,1h1v33c0,.54999.45001,1,1,1h44c.54999,0,1-.45001,1-1v-14c0-.54999-.45001-1-1-1s-1,.45001-1,1v13h-4v-29c0-.54999-.45001-1-1-1H16c-.54999,0-1,.45001-1,1v29h-4V23h42v11c0,.54999.45001,1,1,1s1-.45001,1-1v-11h1c.54999,0,1-.45001,1-1v-5c0-.42004-.26001-.79004-.65002-.94ZM17,27h30v2h-30v-2ZM17,31h30v2h-30v-2ZM17,35h30v20h-30v-20ZM55,21H9v-3.31l23-8.62,23,8.62v3.31Z" fill="#000" stroke-width="0"/>
  <path d="M41.31641,40.05176l-9-3c-.20508-.06836-.42773-.06836-.63281,0l-9,3c-.4082.13574-.68359.51758-.68359.94824v8c0,.43066.27539.8125.68359.94824,0,0,9,3,9.00002,3.00001.20627.06875.42601.06892.63279,0l9-3c.4082-.13574.68359-.51758.68359-.94824v-8c0-.43066-.27539-.8125-.68359-.94824ZM32,39.05371l5.8385,1.94641-5.8385,1.94617-5.8385-1.94617,5.8385-1.94641ZM24,46.38702l1.68359.56122c.10547.03516.21191.05176.31641.05176.41895,0,.80859-.26465.94824-.68359.1748-.52441-.1084-1.09082-.63184-1.26465l-2.31641-.77216v-1.89258l7,2.33337v5.89252l-7-2.33362v-1.89227ZM33,50.61292v-5.89252l7-2.33337v1.89258l-2.31641.77216c-.52344.17383-.80664.74023-.63184,1.26465.13965.41895.5293.68359.94824.68359.10449,0,.21094-.0166.31641-.05176l1.68359-.56122v1.89227l-7,2.33362Z" fill="#000" stroke-width="0"/>
  <path d="M31.29297,11.46484l-2.82812,2.82812c-.39062.39062-.39062,1.02344,0,1.41406l2.82812,2.82812c.19531.19531.45117.29297.70703.29297s.51172-.09766.70703-.29297l2.82812-2.82812c.39062-.39062.39062-1.02344,0-1.41406l-2.82812-2.82812c-.39062-.39062-1.02344-.39062-1.41406,0ZM33.41406,15l-1.41406,1.41406-1.41406-1.41406,1.41406-1.41406,1.41406,1.41406Z" fill="#000" stroke-width="0"/>
  <circle cx="54" cy="38" r="1" fill="#000" stroke-width="0"/>
</svg>