<?xml version="1.0" encoding="UTF-8"?>
<svg id="Outline" xmlns="http://www.w3.org/2000/svg" version="1.1" viewBox="0 0 48 48">
  <path d="M42.83002,29.44c-.19-.28003-.5-.44-.83002-.44h-3v-3c0-.46002-.10999-.89001-.29999-1.29004l2.25-2.25c.39001-.38995.39001-1.01996,0-1.40997s-1.02002-.39001-1.41003,0l-2.25,2.25c-.39996-.19-.82996-.29999-1.28998-.29999-1.65002,0-3,1.34998-3,3v3h-2v-5c0-.54999-.45001-1-1-1h-2.08002l-.40997-4.88,2.82001-2.12h6.66998c.54999,0,1-.45001,1-1s-.45001-1-1-1v-1c0-.54999-.45001-1-1-1s-1,.45001-1,1v1h-2v-1c0-.54999-.45001-1-1-1s-1,.45001-1,1v1h-1c-.21997,0-.42999.07001-.59998.20001l-2.08002,1.56-.22998-2.76001h.90997c.54999,0,1-.45001,1-1v-4c0-.54999-.45001-1-1-1h-8c-.54999,0-1,.45001-1,1v4c0,.54999.45001,1,1,1h.90997l-.22998,2.76001-2.08002-1.56c-.16998-.13-.38-.20001-.59998-.20001h-1v-1c0-.54999-.45001-1-1-1s-1,.45001-1,1v1h-2v-1c0-.54999-.45001-1-1-1s-1,.45001-1,1v1c-.54999,0-1,.45001-1,1s.45001,1,1,1h6.66998l2.82001,2.12-.40997,4.88h-2.08002c-.54999,0-1,.45001-1,1v3h-2v-5h1c.54999,0,1-.45001,1-1s-.45001-1-1-1h-1v-1c0-.54999-.45001-1-1-1s-1,.45001-1,1v1h-1c-.54999,0-1,.45001-1,1s.45001,1,1,1h1v5h-1c-.31,0-.60999.14996-.79999.39996l-2.70001,3.60004h-2.5c-.54999,0-1,.45001-1,1v4c0,.21997.07001.42999.20001.59998l3,4c.19.25.48999.40002.79999.40002h29c.40997,0,.78003-.25.92999-.63l4-10c.12-.31.08002-.66003-.09998-.92999ZM35,26c0-.54999.45001-1,1-1s1,.45001,1,1v3h-2v-3ZM21,9h6v2h-6v-2ZM25.90997,23h-3.81995l.82996-10h2.16003l.82996,10ZM19,25h10v4h-6.59003l-1.69995-1.71002c-.19-.17999-.44-.28998-.71002-.28998h-1v-2ZM39.32001,34h-18.32001c-.54999,0-1,.45001-1,1s.45001,1,1,1h17.52002l-1.20001,3H9.5l-2.5-3.33002v-2.66998h2c.31,0,.60999-.15002.79999-.40002l2.70001-3.59998h7.09003l1.69995,1.70996c.19.18005.44.29004.71002.29004h18.52002l-1.20001,3Z" fill="#000" stroke-width="0"/>
</svg>