<?xml version="1.0" encoding="UTF-8"?>
<svg xmlns="http://www.w3.org/2000/svg" version="1.1" viewBox="0 0 64 64">
  <!-- Generator: Adobe Illustrator 28.7.1, SVG Export Plug-In . SVG Version: 1.2.0 Build 142)  -->
  <g>
    <g id="Outline">
      <g>
        <path d="M53,29.09998v-1.09998c0-.54999-.45001-1-1-1h-1v-8.59003l2.71002-2.70001c.38995-.38995.38995-1.02997,0-1.41998-.39001-.39001-1.03003-.39001-1.42004,0l-3,3c-.17999.19-.28998.44-.28998.71002v9h-1c-.54999,0-1,.45001-1,1v10c0,.54999.45001,1,1,1h1v4.5c0,1.38-1.12,2.5-2.5,2.5s-2.5-1.12-2.5-2.5v-19c0-2.48004-2.02002-4.5-4.5-4.5h-.5v-1c0-1.65002-1.34998-3-3-3v-3c0-.54999-.45001-1-1-1h-10c-.54999,0-1,.45001-1,1v3h-6v-3c0-.54999-.45001-1-1-1h-6c-.54999,0-1,.45001-1,1v3c-1.65002,0-3,1.34998-3,3v32c0,.54999.45001,1,1,1h5.33002c.33997,0,.64996-.17004.83997-.45001l2.37-3.54999h12.92004l2.37,3.54999c.19.27997.5.45001.83997.45001h5.33002c.54999,0,1-.45001,1-1v-29h.5c1.38,0,2.5,1.12,2.5,2.5v19c0,2.47998,2.02002,4.5,4.5,4.5s4.5-2.02002,4.5-4.5v-4.5h1c.54999,0,1-.45001,1-1v-6.82001c1.15997.41998,2,1.52002,2,2.82001v4c0,.54999.45001,1,1,1s1-.45001,1-1v-4c0-2.41003-1.71997-4.42999-4-4.90002ZM26,14h8v2h-8v-2ZM12,14h4v2h-4v-2ZM37,50h-3.79999l-2.37-3.54999c-.17999-.28003-.5-.45001-.83002-.45001h-14c-.33002,0-.65002.16998-.83002.45001l-2.37,3.54999h-3.79999v-31c0-.54999.45001-1,1-1h26c.54999,0,1,.45001,1,1v31ZM51,37h-2v-8h2v8Z"/>
        <path d="M34,30H12c-.55225,0-1,.44775-1,1v12c0,.55225.44775,1,1,1h22c.55225,0,1-.44775,1-1v-12c0-.55225-.44775-1-1-1ZM33,42H13v-10h20v10Z"/>
        <path d="M16,28c.55225,0,1-.44775,1-1v-6c0-.55225-.44775-1-1-1s-1,.44775-1,1v6c0,.55225.44775,1,1,1Z"/>
        <path d="M20,28c.55225,0,1-.44775,1-1v-6c0-.55225-.44775-1-1-1s-1,.44775-1,1v6c0,.55225.44775,1,1,1Z"/>
        <path d="M24,28c.55225,0,1-.44775,1-1v-6c0-.55225-.44775-1-1-1s-1,.44775-1,1v6c0,.55225.44775,1,1,1Z"/>
        <path d="M28,28c.55225,0,1-.44775,1-1v-6c0-.55225-.44775-1-1-1s-1,.44775-1,1v6c0,.55225.44775,1,1,1Z"/>
      </g>
    </g>
  </g>
</svg>