<?xml version="1.0" encoding="utf-8"?>
<!-- Generator: Adobe Illustrator 27.3.1, SVG Export Plug-In . SVG Version: 6.00 Build 0)  -->
<svg version="1.1" id="Outline" xmlns="http://www.w3.org/2000/svg" xmlns:xlink="http://www.w3.org/1999/xlink" x="0px" y="0px"
	 viewBox="0 0 64 64" enable-background="new 0 0 64 64" xml:space="preserve">
<g>
	<path d="M56.47998,36.13c-0.29999-0.17004-0.67999-0.17999-1.01001,0.01996l-2.39996,1.5
		c-1.15002,0.72003-2.58002,0.73004-3.73999,0C48.59003,37.19,47.76001,36.94,46.91998,36.85999
		C46.96002,36.57996,47,36.28998,47,36c0-3.31-2.69-6-6-6v-1c0-1.65002-1.34998-3-3-3s-3,1.34998-3,3v1h-6v-1
		c0-1.65002-1.34998-3-3-3s-3,1.34998-3,3v1c-1.59998,0-3.09998,0.62-4.25,1.76001C17.62,32.89996,17,34.39996,17,36
		c0,0.28998,0.03998,0.57996,0.08002,0.85999C16.23999,36.94,15.40997,37.19,14.66998,37.64996
		c-1.13,0.71002-2.60999,0.70001-3.73999,0c0,0-2.38-1.48999-2.39996-1.5C7.87,35.73999,7,36.22998,7,37v19c0,0.54999,0.45001,1,1,1
		h16c0.54999,0,1-0.45001,1-1s-0.45001-1-1-1H9v-3.22003c1.71997,0.64001,3.69,0.51001,5.29999-0.40997
		c1.29004-0.73999,2.91003-0.75,4.20001,0c1.90002,1.08997,4.29999,1.08997,6.20001,0c1.28998-0.73999,2.90997-0.73999,4.20001,0
		c1.89996,1.08997,4.29999,1.08997,6.19995,0c1.29004-0.75,2.91003-0.73999,4.20001,0
		c0.95001,0.53998,2.02002,0.83002,3.10004,0.83002c1.07996,0,2.14996-0.29004,3.09998-0.83002
		c1.28998-0.75,2.90997-0.73999,4.20001,0c1.62,0.92999,3.57001,1.07001,5.29999,0.40997V55H32c-0.54999,0-1,0.45001-1,1
		s0.45001,1,1,1h24c0.54999,0,1-0.45001,1-1c0,0,0-18.96002,0-19C57,36.60999,56.78003,36.29999,56.47998,36.13z M37,29
		c0-0.54999,0.45001-1,1-1s1,0.45001,1,1v1h-2V29z M25,29c0-0.54999,0.45001-1,1-1s1,0.45001,1,1v1h-2V29z M20.15997,33.16998
		C20.92999,32.41998,21.92999,32,23,32h18c2.21002,0,4,1.78998,4,4c0,0.34998-0.06,0.70001-0.15002,1.04999
		c-0.47998,0.13-0.94995,0.33002-1.38,0.59998c-1.12994,0.71002-2.59998,0.71002-3.73999,0
		c-1.76996-1.09998-4.08997-1.09998-5.85999,0c-1.13,0.71002-2.60999,0.71002-3.73999,0c-1.77002-1.09998-4.09003-1.09998-5.85999,0
		c-1.14001,0.71002-2.61005,0.71002-3.73999,0c-0.43005-0.26996-0.90002-0.46997-1.38-0.59998C19.06,36.70001,19,36.34998,19,36
		C19,34.92999,19.41998,33.92999,20.15997,33.16998z M55,49.57996L54.90002,49.63c-1.30005,0.75-2.90002,0.75-4.20001,0
		c-1.90002-1.09003-4.29999-1.09003-6.20001,0c-1.28998,0.75-2.90997,0.73999-4.20001,0c-1.89996-1.09003-4.29999-1.09003-6.20001,0
		C32.81,50.37,31.19,50.38,29.90002,49.63c-1.90002-1.09003-4.30005-1.09003-6.20001,0c-1.29004,0.73999-2.91003,0.75-4.20001,0
		c-1.90002-1.09003-4.29999-1.09003-6.20001,0C12.01001,50.37,10.38,50.37,9.09998,49.64001L9,49.57996v-3.79999
		c1.71997,0.64001,3.69,0.51001,5.29999-0.40997c1.29004-0.73999,2.91003-0.75,4.20001,0c1.90002,1.08997,4.29999,1.08997,6.20001,0
		c1.28998-0.73999,2.90997-0.73999,4.20001,0c1.89996,1.08997,4.29999,1.08997,6.19995,0c1.29004-0.75,2.91003-0.73999,4.20001,0
		c0.95001,0.53998,2.02002,0.83002,3.10004,0.83002c1.07996,0,2.14996-0.29004,3.09998-0.83002
		c1.28998-0.75,2.90997-0.73999,4.20001,0c1.62,0.92999,3.57001,1.07001,5.29999,0.40997V49.57996z M55,43.57996L54.90002,43.63
		c-1.30005,0.75-2.90002,0.75-4.20001,0c-1.90002-1.09003-4.29999-1.09003-6.20001,0c-1.28998,0.75-2.90997,0.73999-4.20001,0
		c-1.89996-1.09003-4.29999-1.09003-6.20001,0C32.81,44.37,31.19,44.38,29.90002,43.63c-1.90002-1.09003-4.30005-1.09003-6.20001,0
		c-1.29004,0.73999-2.91003,0.75-4.20001,0c-1.90002-1.09003-4.29999-1.09003-6.20001,0
		C12.01001,44.37,10.38,44.37,9.09998,43.64001L9,43.57996v-4.77997l0.87,0.54999c1.77002,1.10004,4.09003,1.10004,5.85999,0
		c1.13-0.70996,2.61005-0.70996,3.73999,0c1.77002,1.10004,4.09003,1.10004,5.86005,0c1.13-0.70996,2.60999-0.70996,3.73999,0
		c1.77002,1.10004,4.08997,1.10004,5.85999,0c1.13-0.70996,2.60999-0.70996,3.73999,0c1.77002,1.10004,4.09003,1.10004,5.86005,0
		c1.12994-0.70996,2.60999-0.70001,3.73999,0c1.81,1.13,4.04999,1.13,5.85999,0L55,38.79999V43.57996z"/>
	<path d="M21,13c0.55176,0,1,0.44873,1,1c0,0.55225,0.44727,1,1,1s1-0.44775,1-1c0-1.6543-1.3457-3-3-3s-3,1.3457-3,3s1.3457,3,3,3
		c0.55176,0,1,0.44873,1,1s-0.44824,1-1,1s-1-0.44873-1-1c0-0.55225-0.44727-1-1-1s-1,0.44775-1,1c0,1.6543,1.3457,3,3,3
		s3-1.3457,3-3s-1.3457-3-3-3c-0.55176,0-1-0.44873-1-1S20.44824,13,21,13z"/>
	<path d="M35,13c0.55176,0,1,0.44873,1,1c0,0.55225,0.44727,1,1,1s1-0.44775,1-1c0-1.6543-1.3457-3-3-3s-3,1.3457-3,3s1.3457,3,3,3
		c0.55176,0,1,0.44873,1,1s-0.44824,1-1,1s-1-0.44873-1-1c0-0.55225-0.44727-1-1-1s-1,0.44775-1,1c0,1.6543,1.3457,3,3,3
		s3-1.3457,3-3s-1.3457-3-3-3c-0.55176,0-1-0.44873-1-1S34.44824,13,35,13z"/>
	<path d="M28,11c-1.6543,0-3,1.3457-3,3v4c0,1.6543,1.3457,3,3,3s3-1.3457,3-3v-4C31,12.3457,29.6543,11,28,11z M29,18
		c0,0.55127-0.44824,1-1,1s-1-0.44873-1-1v-4c0-0.55127,0.44824-1,1-1s1,0.44873,1,1V18z"/>
	<circle cx="41" cy="20" r="1"/>
	<path d="M41,11c-0.55273,0-1,0.44775-1,1v5c0,0.55225,0.44727,1,1,1s1-0.44775,1-1v-5C42,11.44775,41.55273,11,41,11z"/>
	<circle cx="44" cy="20" r="1"/>
	<path d="M44,11c-0.55273,0-1,0.44775-1,1v5c0,0.55225,0.44727,1,1,1s1-0.44775,1-1v-5C45,11.44775,44.55273,11,44,11z"/>
	<path d="M14,25h36c0.55273,0,1-0.44775,1-1V8c0-0.55225-0.44727-1-1-1H14c-0.55273,0-1,0.44775-1,1v16
		C13,24.55225,13.44727,25,14,25z M15,9h34v14H15V9z"/>
	<circle cx="28" cy="56" r="1"/>
</g>
</svg>
