<?xml version="1.0" encoding="utf-8"?>
<!-- Generator: Adobe Illustrator 28.2.0, SVG Export Plug-In . SVG Version: 6.00 Build 0)  -->
<svg version="1.1" id="Outline" xmlns="http://www.w3.org/2000/svg" xmlns:xlink="http://www.w3.org/1999/xlink" x="0px" y="0px"
	 viewBox="0 0 64 64" enable-background="new 0 0 64 64" xml:space="preserve">
<g>
	<path d="M56,55H39.85999l-3.32001-21.09003c0.03003-0.02997,0.06-0.06,0.08002-0.08997L39.28998,35.37l11.26001,6.5
		c0.16003,0.08997,0.33002,0.13,0.5,0.13c0.35004,0,0.67999-0.17999,0.87-0.5l1.5-2.60004C53.65002,38.5,53.58002,38,53.25,37.67999
		l-8.89001-8.60004C44.15002,28.89001,43.88,28.78998,43.59998,28.81c-0.27997,0.01001-0.52997,0.14001-0.70996,0.35999
		L39.56,33.20996l-1.94-1.12C37.85999,31.44,38,30.73999,38,30c0-2.97003-2.16998-5.42999-5-5.91003V19c0-0.54999-0.45001-1-1-1
		s-1,0.45001-1,1v0.82001l-3.77002-0.63L29.78003,9H31v2c0,0.54999,0.45001,1,1,1s1-0.45001,1-1V8c0-0.54999-0.45001-1-1-1h-3
		c-0.46002,0-0.85999,0.31-0.96997,0.76001l-3,12c-0.07001,0.26996-0.02002,0.54999,0.12994,0.78998
		c0.16003,0.22998,0.40002,0.39001,0.68005,0.44L31,21.84998v2.23999c-2.83002,0.48004-5,2.94-5,5.91003
		c0,0.73999,0.14001,1.44,0.38,2.08997l-1.94,1.12l-3.33002-4.03998c-0.17999-0.21997-0.42999-0.34998-0.70996-0.35999
		c-0.29004-0.02002-0.55005,0.08002-0.76001,0.26996L10.75,37.67999C10.41998,38,10.34998,38.5,10.58002,38.89996
		c0,0,1.49753,2.59575,1.5,2.60003c0.27344,0.47397,0.89624,0.63633,1.37,0.37l11.26001-6.5L27.38,33.82001
		c0.02002,0.02997,0.04999,0.06,0.08002,0.08997l-1.75,11.16003C25.46997,45.02997,25.23999,45,25,45
		c-1.90002,0-3.48999,1.32996-3.90002,3.10999c-0.08997,0.02002-0.17999,0.03998-0.26996,0.07001
		C20.09003,47.42999,19.08002,47,18,47c-1.44,0-2.76001,0.78998-3.46002,2.02997C12.54999,49.26001,11,50.95001,11,53
		c0,0.72998,0.21002,1.40997,0.56,2H8c-0.54999,0-1,0.45001-1,1s0.45001,1,1,1h48c0.54999,0,1-0.45001,1-1S56.54999,55,56,55z
		 M43.73999,31.27997l7.56,7.29999L50.69,39.63l-9.37-5.41003L43.73999,31.27997z M13.31,39.63l-0.60999-1.05005l7.56-7.29999
		l2.41998,2.94L13.31,39.63z M32,26c2.21002,0,4,1.78998,4,4c0,2.20996-1.78998,4-4,4s-4-1.79004-4-4C28,27.78998,29.78998,26,32,26
		z M29,55H15c-1.09998,0-2-0.90002-2-2c0-1.10004,0.89001-1.98999,2.01001-1.98999h0.01001
		C15.5,51.07996,15.96002,50.81,16.12,50.34998C16.40997,49.53998,17.15997,49,18,49c0.69,0,1.32001,0.34998,1.67999,0.92999
		c0.28998,0.46002,0.88,0.59998,1.34003,0.33997C21.34003,50.08997,21.65997,50,22,50c0.54999,0,1-0.45001,1-1
		c0-1.10004,0.90002-2,2-2c0.34998,0,0.70001,0.08997,1.01001,0.26996C26.63,47.64001,27,48.27997,27,49
		c0,0.28998-0.07001,0.58997-0.21002,0.87c-0.19995,0.39001-0.12,0.84998,0.17999,1.15997
		c0.31006,0.29999,0.77002,0.38,1.16003,0.17999C28.40997,51.07001,28.71002,51,29,51c1.09998,0,2,0.89996,2,2
		C31,54.09998,30.09998,55,29,55z M32.44,55c0.34998-0.59003,0.56-1.27002,0.56-2c0-2.21002-1.78998-4-4-4
		c0-1.17999-0.53003-2.28003-1.40997-3.03003l1.66998-10.64001C30.08002,35.76001,31.01001,36,32,36
		s1.91998-0.23999,2.73999-0.67004L37.83002,55H32.44z"/>
	<circle cx="32" cy="30" r="1"/>
	<path d="M8,16h12c1.6543,0,3-1.3457,3-3s-1.3457-3-3-3h-3c-0.55225,0-1,0.44727-1,1s0.44775,1,1,1h3c0.55127,0,1,0.44824,1,1
		s-0.44873,1-1,1H8c-0.55225,0-1,0.44727-1,1S7.44775,16,8,16z"/>
	<path d="M8,24h7c1.6543,0,3-1.3457,3-3s-1.3457-3-3-3h-3c-0.55225,0-1,0.44727-1,1s0.44775,1,1,1h3c0.55127,0,1,0.44824,1,1
		s-0.44873,1-1,1H8c-0.55225,0-1,0.44727-1,1S7.44775,24,8,24z"/>
	<path d="M8,12h5c0.55225,0,1-0.44727,1-1s-0.44775-1-1-1H8c-0.55225,0-1,0.44727-1,1S7.44775,12,8,12z"/>
	<path d="M40.21826,17.64648c-0.36572,0.25098-0.52295,0.71191-0.38623,1.13379s0.52686,0.68945,0.97852,0.69141
		c0.68066-0.03027,1.27783,0.28125,1.6709,0.82227s0.48975,1.21289,0.26562,1.84277
		c-0.14844,0.41797-0.00391,0.88379,0.35449,1.14355c0.35986,0.2627,0.84668,0.25488,1.19775-0.0166
		c0.53027-0.40723,1.20068-0.52344,1.83447-0.31641c0.63623,0.20703,1.10938,0.69336,1.29834,1.33496
		C47.55762,24.70801,47.94824,25,48.3916,25s0.83398-0.29199,0.95947-0.71777c0.18896-0.6416,0.66211-1.12793,1.29785-1.33496
		c0.6377-0.20703,1.30518-0.0918,1.83496,0.31738c0.35156,0.26953,0.83936,0.27637,1.19775,0.01562
		c0.35889-0.26074,0.50293-0.72656,0.354-1.14355c-0.22412-0.62988-0.12695-1.30078,0.26562-1.8418
		c0.39307-0.54199,0.99902-0.8623,1.67139-0.82324c0.46729,0.01855,0.8418-0.26953,0.97852-0.69141
		s-0.02051-0.88281-0.38623-1.13379C56.01318,17.26855,55.69727,16.66895,55.69727,16s0.31592-1.26855,0.86768-1.64648
		c0.36572-0.25098,0.52295-0.71191,0.38623-1.13379c-0.13721-0.4209-0.50537-0.68945-0.97852-0.69141
		c-0.68604,0.04102-1.27832-0.28125-1.67139-0.82324c-0.39258-0.54102-0.48975-1.21191-0.26562-1.8418
		c0.14893-0.41699,0.00488-0.88281-0.354-1.14355c-0.35742-0.26074-0.84521-0.25391-1.19775,0.01562
		c-0.52979,0.4082-1.19873,0.52441-1.83496,0.31738c-0.63574-0.20703-1.10889-0.69336-1.29785-1.33496
		C49.22559,7.29199,48.83496,7,48.3916,7s-0.83398,0.29199-0.95947,0.71777c-0.18896,0.6416-0.66211,1.12793-1.29834,1.33496
		c-0.6333,0.20801-1.30322,0.09082-1.83447-0.31641c-0.35205-0.27148-0.83887-0.27832-1.19775-0.0166
		c-0.3584,0.25977-0.50293,0.72559-0.35449,1.14355c0.22412,0.62988,0.12744,1.30176-0.26562,1.84277
		s-1.00342,0.86719-1.6709,0.82227c-0.46387,0.00586-0.84131,0.27051-0.97852,0.69141
		c-0.13672,0.42188,0.02051,0.88281,0.38623,1.13379c0.55176,0.37793,0.86768,0.97754,0.86768,1.64648
		S40.77002,17.26855,40.21826,17.64648z M42.61914,14.12402c0.5791-0.28223,1.08984-0.70508,1.48047-1.24316
		c0.39014-0.53711,0.63428-1.15332,0.72412-1.79102c0.63525,0.11035,1.2959,0.06934,1.92822-0.13574
		c0.63184-0.20508,1.19189-0.56055,1.63965-1.02344c0.44775,0.46289,1.00781,0.81836,1.63916,1.02344
		c0.63184,0.20605,1.29443,0.24707,1.92822,0.13574c0.08984,0.6377,0.33398,1.25391,0.72412,1.79102
		c0.39062,0.53711,0.90137,0.96094,1.48096,1.24316c-0.30225,0.56934-0.4668,1.21191-0.4668,1.87598s0.16455,1.30664,0.4668,1.87598
		c-0.57959,0.28223-1.09033,0.70605-1.48096,1.24316c-0.39014,0.53711-0.63428,1.15332-0.72412,1.79102
		c-0.63477-0.11133-1.29688-0.07031-1.92822,0.13574c-0.63135,0.20508-1.19141,0.56055-1.63916,1.02344
		c-0.44775-0.46289-1.00781-0.81836-1.63965-1.02344c-0.4043-0.13184-0.82129-0.19629-1.23535-0.19629
		c-0.23291,0-0.46436,0.02051-0.69287,0.06055c-0.08984-0.6377-0.33398-1.25391-0.72412-1.79102
		c-0.39062-0.53809-0.90137-0.96094-1.48047-1.24316c0.30225-0.56934,0.4668-1.21191,0.4668-1.87598
		S42.92139,14.69336,42.61914,14.12402z"/>
	<path d="M48.3916,19c1.6543,0,3-1.3457,3-3s-1.3457-3-3-3s-3,1.3457-3,3S46.7373,19,48.3916,19z M48.3916,15
		c0.55127,0,1,0.44824,1,1s-0.44873,1-1,1s-1-0.44824-1-1S47.84033,15,48.3916,15z"/>
	<circle cx="32" cy="15" r="1"/>
</g>
</svg>
