<?xml version="1.0" encoding="UTF-8"?>
<svg id="Outline" xmlns="http://www.w3.org/2000/svg" version="1.1" viewBox="0 0 64 64">
  <path d="M32,7c-13.78516,0-25,11.21484-25,25s11.21484,25,25,25,25-11.21484,25-25S45.78516,7,32,7ZM32,55c-12.68262,0-23-10.31738-23-23s10.31738-23,23-23,23,10.31738,23,23-10.31738,23-23,23Z" style="fill: #000; stroke-width: 0px;"/>
  <path d="M46,45h-2.19781l-1.04535-4.69531c-.23877-1.08368-.65076-2.11438-1.19666-3.06836,1.57227-2.07538,2.43982-4.61377,2.43982-7.23633,0-5.16742-3.26825-9.68927-8.06677-11.3399.03619-.21588.06677-.43402.06677-.6601v-3c0-2.20605-1.79395-4-4-4s-4,1.79395-4,4v3c0,.22607.03058.44421.06677.6601-4.79852,1.65063-8.06677,6.17249-8.06677,11.3399,0,2.62256.86761,5.16095,2.43982,7.23627-.54602.95374-.95795,1.98389-1.19666,3.06647l-1.04541,4.69727h-2.19775c-.55273,0-1,.44727-1,1s.44727,1,1,1h28c.55273,0,1-.44727,1-1s-.44727-1-1-1ZM31.88672,36c.3772,0,.74744-.03815,1.11328-.09174v2.16205c-.29327-.03357-.58612-.07031-.88672-.07031-.37726,0-.74731.03912-1.11328.09277v-2.16309c.29327.03357.58612.07031.88672.07031ZM32.11328,40c2.49121,0,4.69531,1.58789,5.4834,3.95215l.34955,1.04785h-11.62042l.23083-.80859c.70508-2.46777,2.99023-4.19141,5.55664-4.19141ZM39.94824,44.68359l-.45508-1.36426c-.73956-2.21863-2.41528-3.90906-4.49316-4.74158v-3.26025c.39459-.17432.77142-.37811,1.13062-.61371.49689.25366.97375.53735,1.40649.87628,1.6582,1.28809,2.81836,3.11914,3.2666,5.15625l.94891,4.26367h-1.7652c0-.1051-.00409-.2113-.03918-.31641ZM30,15c0-1.10254.89746-2,2-2s2,.89746,2,2v3c0,1.10254-.89746,2-2,2s-2-.89746-2-2v-3ZM22,30c0-4.37067,2.8053-8.1817,6.89905-9.50433.73376.90979,1.84351,1.50433,3.10095,1.50433s2.36719-.59454,3.10095-1.50433c4.09375,1.32263,6.89905,5.13367,6.89905,9.50433,0,1.9693-.58917,3.88074-1.66315,5.50507-.47211-.54669-.99286-1.05402-1.56927-1.50214-.32507-.25476-.67023-.48694-1.02673-.70349.7074-.81134,1.26947-1.75934,1.59314-2.82971l.54297-.98828c.26562-.48438.08887-1.0918-.39551-1.3584-.4834-.26367-1.0918-.08789-1.3584.39551l-.59473,1.08301c-.03516.06543-.06445.13477-.08496.20703-.70508,2.46777-2.99023,4.19141-5.55664,4.19141-2.49121,0-4.69531-1.58789-5.4834-3.95215l-.45508-1.36426c-.1748-.52344-.74121-.80859-1.26465-.63184-.52441.1748-.80664.74121-.63184,1.26465l.45508,1.36426c.34503,1.03516.90784,1.94421,1.604,2.7207-.2937.18549-.58685.37744-.87451.59863-.578.44934-1.10004.9577-1.573,1.50537-1.0741-1.62439-1.66333-3.53595-1.66333-5.50537ZM23.19629,40.73438c.44824-2.03516,1.6084-3.86621,3.26367-5.15234.41974-.32269.84656-.5813,1.2738-.80664.4007.25391.82312.4693,1.26624.64679v3.26135c-2.07129.91547-3.71912,2.69318-4.36719,4.95905l-.38757,1.35742h-1.99799l.94904-4.26562Z" style="fill: #000; stroke-width: 0px;"/>
  <path d="M28,28h.76367c1.24115,0,2.38788-.49445,3.23633-1.33368.84845.83923,1.99518,1.33368,3.23633,1.33368h.76367c.55273,0,1-.44727,1-1s-.44727-1-1-1h-.76367c-.99805,0-1.89551-.55469-2.34182-1.4473-.15944-.31883-.53996-.5433-.89452-.54226-.3738.0011-.72578.20482-.89452.5423-.44629.89258-1.34375,1.44726-2.3418,1.44726h-.76367c-.55273,0-1,.44727-1,1s.44727,1,1,1Z" style="fill: #000; stroke-width: 0px;"/>
</svg>