<?xml version="1.0" encoding="UTF-8"?>
<svg xmlns="http://www.w3.org/2000/svg" version="1.1" viewBox="0 0 64 64">
  <!-- Generator: Adobe Illustrator 28.7.1, SVG Export Plug-In . SVG Version: 1.2.0 Build 142)  -->
  <g>
    <g id="Outline">
      <g>
        <path d="M56.97998,26.89996c0-.02997.01001-.06,0-.09998-.66998-3.35999-3.64996-5.79999-7.07996-5.79999h-11.39001l-6.97998-9.78003c-1.89001-2.64001-4.95001-4.21997-8.20001-4.21997-.64001,0-1.22003.28998-1.60004.79999-.38.5-.5,1.14001-.32996,1.75l3.26996,11.45001h-5.26996c-1.13,0-2.24005.09998-3.34003.28998l-3.22998-6c-.76001-1.40997-2.23004-2.28998-3.83002-2.28998-1.09998,0-2,.89996-2,2v13c0,.29999.14001.58997.38.77997,3.40002,2.72003,7.66998,4.22003,12.02002,4.22003h4.94995l-3.06995,14.58997c-.13.59003.01996,1.20001.39996,1.67004.38.46997.95001.73999,1.54999.73999,3.31,0,6.33002-1.82001,7.88-4.75l6.44-12.25h12.35004c1.65997,0,3.28998-.58002,4.58997-1.64001,1.29999-1.07001,2.16003-2.51001,2.48999-4.16998.01001-.03003,0-.06,0-.09003,0-.03998.02002-.07001.02002-.09998,0-.03003-.02002-.06-.02002-.10004ZM49.90002,23c2.04999,0,3.87,1.20996,4.70996,3h-2.60999c-1.65002,0-3-1.35004-3-3h.90002ZM23.33002,9c2.59998,0,5.06,1.26996,6.57001,3.38l6.15997,8.62h-9.31l-3.41998-12ZM9,15c.87,0,1.65997.46997,2.07001,1.22998l2.97998,5.54999c-.33997.09003-.67999.19-1.01996.31-1.42004.48999-2.77002,1.16003-4.03003,1.97003v-9.06ZM29.34003,44.32001c-1.20001,2.26996-3.54004,3.67999-6.11005,3.67999l3.58002-17h9.53003l-7,13.32001ZM53.21997,29.82001c-.93994.75995-2.12,1.17999-3.31995,1.17999h-11.30005l.28003-.53003c.16998-.31.15997-.69-.02002-.98999-.19-.29999-.51001-.47998-.85999-.47998h-12c-.46997,0-.88.32996-.97998.78998l-.25,1.21002h-5.37c-3.74005,0-7.41003-1.23999-10.40002-3.48999v-1.02002c1.41998-1.08002,3-1.92999,4.69-2.52002,1.84003-.64001,3.76001-.96997,5.71002-.96997h27.59998c0,2.76001,2.23999,5,5,5h2.62c-.33002.69-.78998,1.31-1.40002,1.82001Z"/>
        <path d="M42,27h1c.55273,0,1-.44775,1-1s-.44727-1-1-1h-1c-.55273,0-1,.44775-1,1s.44727,1,1,1Z"/>
        <path d="M37,27h1c.55273,0,1-.44775,1-1s-.44727-1-1-1h-1c-.55273,0-1,.44775-1,1s.44727,1,1,1Z"/>
        <path d="M32,27h1c.55273,0,1-.44775,1-1s-.44727-1-1-1h-1c-.55273,0-1,.44775-1,1s.44727,1,1,1Z"/>
        <path d="M27,27h1c.55273,0,1-.44775,1-1s-.44727-1-1-1h-1c-.55273,0-1,.44775-1,1s.44727,1,1,1Z"/>
        <path d="M23,25h-1c-.55273,0-1,.44775-1,1s.44727,1,1,1h1c.55273,0,1-.44775,1-1s-.44727-1-1-1Z"/>
        <path d="M18,25h-1c-.55273,0-1,.44775-1,1s.44727,1,1,1h1c.55273,0,1-.44775,1-1s-.44727-1-1-1Z"/>
        <path d="M55,39h-16c-1.10254,0-2,.89697-2,2v14c0,1.10303.89746,2,2,2h16c1.10254,0,2-.89697,2-2v-14c0-1.10303-.89746-2-2-2ZM49,41v4h-4v-4h4ZM39,55v-14h4v5c0,.55225.44727,1,1,1h6c.55273,0,1-.44775,1-1v-5h4l.00098,14h-16.00098Z"/>
      </g>
    </g>
  </g>
</svg>