<?xml version="1.0" encoding="UTF-8"?>
<svg xmlns="http://www.w3.org/2000/svg" version="1.1" viewBox="0 0 48 48">
  <!-- Generator: Adobe Illustrator 28.7.1, SVG Export Plug-In . SVG Version: 1.2.0 Build 142)  -->
  <g>
    <g id="Outline">
      <g>
        <path d="M40,17h-5v-2h7c.54999,0,1-.45001,1-1,0-2.76001-2.23999-5-5-5H10c-2.76001,0-5,2.23999-5,5,0,.54999.45001,1,1,1h7v2h-5c-1.65002,0-3,1.34998-3,3v2c0,.54999.45001,1,1,1s1-.45001,1-1v-2c0-.54999.45001-1,1-1h32c.54999,0,1,.45001,1,1v12c0,.54999-.45001,1-1,1H8c-.54999,0-1-.45001-1-1v-2c0-.54999-.45001-1-1-1s-1,.45001-1,1v2c0,1.64996,1.34998,3,3,3h1v2c0,1.09998.90002,2,2,2h4c1.09998,0,2-.90002,2-2v-2h14v2c0,1.09998.90002,2,2,2h4c1.09998,0,2-.90002,2-2v-2h1c1.65002,0,3-1.35004,3-3v-12c0-1.65002-1.34998-3-3-3ZM33,17H15v-2h18v2ZM7.16998,13c.41003-1.16003,1.53003-2,2.83002-2h28c1.29999,0,2.41998.83997,2.83002,2H7.16998ZM15,37h-4v-2h4v2ZM37,37h-4v-2h4v2Z"/>
        <path d="M34,31c.55273,0,1-.44727,1-1v-8c0-.55273-.44727-1-1-1H10c-.55273,0-1,.44727-1,1v8c0,.55273.44727,1,1,1h24ZM11,23h22v6H11v-6Z"/>
        <circle cx="38" cy="30" r="1"/>
        <circle cx="38" cy="26" r="1"/>
        <circle cx="38" cy="22" r="1"/>
        <circle cx="6" cy="26" r="1"/>
      </g>
    </g>
  </g>
</svg>