<?xml version="1.0" encoding="UTF-8"?>
<svg id="Outline" xmlns="http://www.w3.org/2000/svg" version="1.1" viewBox="0 0 48 48">
  <path d="M42,37h-.13l-1.88-13.14001c-.02997-.19-.10999-.37-.23999-.52002l-7-8c-.19-.21997-.46002-.33997-.75-.33997h-7v-4h4c.34998,0,.66998-.17999.84998-.47003.18005-.29999.20001-.66998.04004-.97998l-.77002-1.54999.77002-1.54999c.15997-.31.14001-.68005-.04004-.98004-.17999-.28998-.5-.46997-.84998-.46997h-5c-.54999,0-1,.45001-1,1v9h-7c-.28998,0-.56.12-.75.33997l-7,8c-.13.15002-.21002.33002-.23999.52002l-1.88,13.14001h-.13c-.54999,0-1,.45001-1,1v4c0,.54999.45001,1,1,1h36c.54999,0,1-.45001,1-1v-4c0-.54999-.45001-1-1-1ZM25,7h2.38l-.27002.54999c-.14996.27997-.14996.62,0,.90002l.27002.54999h-2.38v-2ZM36.79999,23h-10.39001l5.54004-5.54004,4.84998,5.54004ZM29.59003,17l-5.59003,5.58997-5.59003-5.58997h11.18005ZM16.04999,17.45996l5.54004,5.54004h-10.39001l4.84998-5.54004ZM19,41H7v-2h12v2ZM27,41h-6v-8h6v8ZM28,31h-8c-.54999,0-1,.45001-1,1v5h-10.84998l1.71997-12h28.26001l1.71997,12h-10.84998v-5c0-.54999-.45001-1-1-1ZM41,41h-12v-2h12v2Z" fill="#000" stroke-width="0"/>
  <path d="M16,27h-4c-.55225,0-1,.44727-1,1v6c0,.55273.44775,1,1,1h4c.55225,0,1-.44727,1-1v-6c0-.55273-.44775-1-1-1ZM15,33h-2v-4h2v4Z" fill="#000" stroke-width="0"/>
  <path d="M32,35h4c.55225,0,1-.44727,1-1v-6c0-.55273-.44775-1-1-1h-4c-.55225,0-1,.44727-1,1v6c0,.55273.44775,1,1,1ZM33,29h2v4h-2v-4Z" fill="#000" stroke-width="0"/>
</svg>