<?xml version="1.0" encoding="UTF-8"?>
<svg xmlns="http://www.w3.org/2000/svg" version="1.1" viewBox="0 0 64 64">
  <!-- Generator: Adobe Illustrator 28.7.1, SVG Export Plug-In . SVG Version: 1.2.0 Build 142)  -->
  <g>
    <g id="Outline">
      <g>
        <path d="M32,7c-13.78516,0-25,11.21484-25,25s11.21484,25,25,25,25-11.21484,25-25S45.78516,7,32,7ZM54.97467,31h-21.97467v-11.04376c5.15521-.20874,10.13995-2.0174,14.23273-5.16827,4.52612,4.01025,7.46478,9.77069,7.74194,16.21204ZM33,9.02533c4.716.20294,9.0675,1.83124,12.63458,4.46594-3.67175,2.70673-8.0788,4.2644-12.63458,4.46497v-8.93091ZM31,17.95624c-4.55579-.20056-8.96283-1.75824-12.63458-4.46497,3.56708-2.6347,7.91858-4.263,12.63458-4.46594v8.93091ZM16.76727,14.78796c4.09277,3.15088,9.07751,4.95953,14.23273,5.16827v11.04376H9.02533c.27716-6.44135,3.21582-12.20178,7.74194-16.21204ZM9.02533,33h21.97467v11.04376c-5.15521.20874-10.13995,2.0174-14.23273,5.16827-4.52612-4.01025-7.46478-9.77069-7.74194-16.21204ZM31,54.97467c-4.716-.20294-9.0675-1.83124-12.63458-4.46594,3.67175-2.70673,8.0788-4.2644,12.63458-4.46497v8.93091ZM33,46.04376c4.55579.20056,8.96283,1.75824,12.63458,4.46497-3.56708,2.6347-7.91858,4.263-12.63458,4.46594v-8.93091ZM47.23273,49.21204c-4.09277-3.15088-9.07751-4.95953-14.23273-5.16827v-11.04376h21.97467c-.27716,6.44135-3.21582,12.20178-7.74194,16.21204Z"/>
        <path d="M46.25293,17.94531c-.41211.36816-.44629,1.00049-.07812,1.41211,2.2373,2.49707,3.77441,5.55469,4.44531,8.84229.09668.47363.51269.80029.97851.80029.62327,0,1.10522-.58785.98047-1.19971-.74121-3.63525-2.44043-7.01611-4.91406-9.77783-.37012-.41162-1.00293-.44531-1.41211-.07715Z"/>
      </g>
    </g>
  </g>
</svg>