<?xml version="1.0" encoding="UTF-8"?>
<svg xmlns="http://www.w3.org/2000/svg" version="1.1" viewBox="0 0 48 48">
  <!-- Generator: Adobe Illustrator 28.7.1, SVG Export Plug-In . SVG Version: 1.2.0 Build 142)  -->
  <g>
    <g id="Outline">
      <g>
        <path d="M38,5H10c-1.6543,0-3,1.3457-3,3,0,1.30194.8385,2.40155,2,2.81567v9.18433c0,.55225.44727,1,1,1s1-.44775,1-1v-9h26v27c0,1.6543-1.3457,3-3,3H14c-1.6543,0-3-1.3457-3-3v-10c0-.55225-.44727-1-1-1s-1,.44775-1,1v10c0,2.75684,2.24316,5,5,5h20c2.75684,0,5-2.24316,5-5V10.81573c1.1615-.41412,2-1.51379,2-2.81573,0-1.6543-1.3457-3-3-3ZM38,9H10c-.55176,0-1-.44873-1-1s.44824-1,1-1h28c.55176,0,1,.44873,1,1s-.44824,1-1,1Z"/>
        <path d="M34,15c.55273,0,1-.44775,1-1s-.44727-1-1-1h-6c-.55273,0-1,.44775-1,1v24c0,.55225.44727,1,1,1h6c.55273,0,1-.44775,1-1s-.44727-1-1-1h-5v-2h3c.55273,0,1-.44775,1-1s-.44727-1-1-1h-3v-2h5c.55273,0,1-.44775,1-1s-.44727-1-1-1h-5v-2h3c.55273,0,1-.44775,1-1s-.44727-1-1-1h-3v-2h5c.55273,0,1-.44775,1-1s-.44727-1-1-1h-5v-2h3c.55273,0,1-.44775,1-1s-.44727-1-1-1h-3v-2h5Z"/>
        <path d="M24,39c.55273,0,1-.44775,1-1v-4c0-.55225-.44727-1-1-1h-10c-.55273,0-1,.44775-1,1v4c0,.55225.44727,1,1,1h10ZM15,35h8v2h-8v-2Z"/>
        <circle cx="10" cy="24" r="1"/>
      </g>
    </g>
  </g>
</svg>