<?xml version="1.0" encoding="UTF-8"?>
<svg id="Outline" xmlns="http://www.w3.org/2000/svg" version="1.1" viewBox="0 0 64 64">
  <path d="M25,19c-6.6167,0-12,5.3833-12,12,0,6.61719,5.3833,12,12,12s12-5.38281,12-12c0-6.6167-5.3833-12-12-12ZM25,41c-5.51416,0-10-4.48633-10-10,0-5.51416,4.48584-10,10-10s10,4.48584,10,10c0,5.51367-4.48584,10-10,10Z" fill="#000" stroke-width="0"/>
  <circle cx="38" cy="12" r="1" fill="#000" stroke-width="0"/>
  <circle cx="34" cy="12" r="1" fill="#000" stroke-width="0"/>
  <path d="M56,11h-6c-.54999,0-1,.45001-1,1v8h-2v-1c0-.54999-.45001-1-1-1h-3v-8c0-1.65002-1.34998-3-3-3H10c-1.65002,0-3,1.34998-3,3v34c0,1.64996,1.34998,3,3,3v3c0,.54999.45001,1,1,1h1v5c0,.54999.45001,1,1,1h6c.54999,0,1-.45001,1-1v-5h1c.54999,0,1-.45001,1-1v-3h6v3c0,.54999.45001,1,1,1h1v5c0,.54999.45001,1,1,1h6c.54999,0,1-.45001,1-1v-5h1c.54999,0,1-.45001,1-1v-3c1.65002,0,3-1.35004,3-3v-14h3c.54999,0,1-.45001,1-1v-1h4c3.31,0,6-2.69,6-6v-10c0-.54999-.45001-1-1-1ZM18,55h-4v-4h4v4ZM20,49h-8v-2h8v2ZM36,55h-4v-4h4v4ZM38,49h-8v-2h8v2ZM41,44c0,.54999-.45001,1-1,1H10c-.54999,0-1-.45001-1-1v-27h32v27ZM41,15H9v-5c0-.54999.45001-1,1-1h30c.54999,0,1,.45001,1,1v5ZM45,28h-2v-8h2v8ZM55,22c0,2.20996-1.78998,4-4,4h-4v-4h3c.54999,0,1-.45001,1-1v-8h4v9Z" fill="#000" stroke-width="0"/>
  <path d="M24.21973,23.37451c-.53418.6665-5.21973,6.6001-5.21973,9.62549,0,3.30859,2.69141,6,6,6s6-2.69141,6-6c0-3.02539-4.68555-8.95898-5.21973-9.62549-.37988-.47363-1.18066-.47363-1.56055,0ZM25,37c-2.20557,0-4-1.79395-4-4,0-1.52148,2.2085-4.97168,4-7.36523,1.7915,2.39355,4,5.84375,4,7.36523,0,2.20605-1.79443,4-4,4Z" fill="#000" stroke-width="0"/>
</svg>