<?xml version="1.0" encoding="UTF-8"?>
<svg xmlns="http://www.w3.org/2000/svg" version="1.1" viewBox="0 0 64 64">
  <!-- Generator: Adobe Illustrator 28.7.1, SVG Export Plug-In . SVG Version: 1.2.0 Build 142)  -->
  <g>
    <g id="Outline">
      <g>
        <path d="M35.23999,25.32996c.47003-.65997.76001-1.45996.76001-2.32996,0-1.17999-.52002-2.22003-1.33002-2.96002l10.69-4.10999c.39001-.15002.64001-.52002.64001-.92999v-7c0-.54999-.45001-1-1-1h-26c-.54999,0-1,.45001-1,1v7c0,.40997.25.77997.64001.92999l10.69,4.10999c-.81.73999-1.33002,1.78003-1.33002,2.96002,0,.87.28998,1.66998.76001,2.32996-7.27002,1.5-12.76001,7.96002-12.76001,15.67004,0,8.82001,7.17999,16,16,16s16-7.17999,16-16c0-7.71002-5.48999-14.17004-12.76001-15.67004ZM44,14.31l-4,1.53998v-2.84998h4v1.31ZM20,9h24v2h-24v-2ZM24,15.84998l-4-1.53998v-1.31h4v2.84998ZM26,16.62v-3.62h12v3.62l-6,2.31-6-2.31ZM34,23c0,1.09998-.90002,2-2,2s-2-.90002-2-2c0-1.10004.90002-2,2-2s2,.89996,2,2ZM32,55c-7.71997,0-14-6.28003-14-14s6.28003-14,14-14,14,6.27997,14,14-6.28003,14-14,14Z"/>
        <path d="M32,29c-6.62,0-12,5.38-12,12s5.38,12,12,12,12-5.38,12-12-5.38-12-12-12ZM32,51c-5.51001,0-10-4.48999-10-10s4.48999-10,10-10,10,4.48999,10,10-4.48999,10-10,10Z"/>
        <path d="M38,45h-1v-8h1c.54999,0,1-.45001,1-1s-.45001-1-1-1h-12c-.54999,0-1,.45001-1,1s.45001,1,1,1h1v8h-1c-.54999,0-1,.45001-1,1s.45001,1,1,1h12c.54999,0,1-.45001,1-1s-.45001-1-1-1ZM31,45h-2v-8h2v8ZM35,45h-2v-8h2v8Z"/>
      </g>
    </g>
  </g>
</svg>