<?xml version="1.0" encoding="UTF-8"?>
<svg xmlns="http://www.w3.org/2000/svg" version="1.1" viewBox="0 0 48 48">
  <!-- Generator: Adobe Illustrator 28.7.1, SVG Export Plug-In . SVG Version: 1.2.0 Build 142)  -->
  <g>
    <g id="Outline">
      <g>
        <path d="M42,21h-1v-2c0-1.10004-.90002-2-2-2h-2c-1.09998,0-2,.89996-2,2v2h-2v-7c0-.54999-.45001-1-1-1h-1v-2c0-1.10004-.90002-2-2-2h-2c-1.09998,0-2,.89996-2,2v2h-2v-2c0-1.10004-.90002-2-2-2h-2c-1.09998,0-2,.89996-2,2v2h-1c-.54999,0-1,.45001-1,1v7h-2v-2c0-1.10004-.90002-2-2-2h-2c-1.09998,0-2,.89996-2,2v2h-1c-.54999,0-1,.45001-1,1v16c0,.54999.45001,1,1,1h14c.54999,0,1-.45001,1-1s-.45001-1-1-1h-3v-6h14v6h-3c-.54999,0-1,.45001-1,1s.45001,1,1,1h14c.54999,0,1-.45001,1-1v-16c0-.54999-.45001-1-1-1ZM37,19h2v2h-2v-2ZM27,11h2v2h-2v-2ZM19,11h2v2h-2v-2ZM9,19h2v2h-2v-2ZM15,37H7v-6h8v6ZM21,29H7v-6h14v6ZM25,29h-2v-6h2v6ZM17,21v-6h14v6h-14ZM41,37h-8v-6h8v6ZM41,29h-14v-6h14v6Z"/>
        <circle cx="24" cy="38" r="1"/>
      </g>
    </g>
  </g>
</svg>