<?xml version="1.0" encoding="UTF-8"?>
<svg id="Outline" xmlns="http://www.w3.org/2000/svg" version="1.1" viewBox="0 0 48 48">
  <path d="M14,19c-.55225,0-1,.44727-1,1v10c0,.55273.44775,1,1,1s1-.44727,1-1v-10c0-.55273-.44775-1-1-1Z" fill="#000" stroke-width="0"/>
  <path d="M21,37h-1.71997l.68994-2.76001c.02002-.08002.03003-.16003.03003-.23999V13c0-.42004-.09003-.85999-.23999-1.29999-.02002-.05005-.03003-.10004-.06-.14001-1.04004-2.85004-4.59003-5.92999-5.04999-6.32001-.38-.32001-.92004-.32001-1.30005,0-.45996.39001-4.00995,3.46997-5.04999,6.32001-.02997.03998-.03998.08997-.06.14001-.14996.44-.23999.87994-.23999,1.29999v21c0,.07996.01001.15997.03003.23999l.68994,2.76001h-1.71997c-1.09998,0-2,.89996-2,2v2c0,1.09998.90002,2,2,2h14c1.09998,0,2-.90002,2-2v-2c0-1.10004-.90002-2-2-2ZM14,7.33997c1.10999,1.01001,2.40002,2.40002,3.21002,3.66003h-6.42004c.81-1.26001,2.11005-2.64001,3.21002-3.66003ZM18,13v2h-3v-2h3ZM10,13h3v2h-3v-2ZM10,17h8v16h-8v-16ZM17.71997,35l-.5,2h-6.43994l-.5-2h7.43994ZM21,41H7v-2h14v2Z" fill="#000" stroke-width="0"/>
  <path d="M34,19c-.55225,0-1,.44727-1,1v10c0,.55273.44775,1,1,1s1-.44727,1-1v-10c0-.55273-.44775-1-1-1Z" fill="#000" stroke-width="0"/>
  <path d="M41,37h-1.71997l.68994-2.76001c.02002-.08002.03003-.16003.03003-.23999V13c0-.42004-.09003-.85999-.23999-1.29999-.02002-.05005-.03003-.10004-.06-.14001-1.04004-2.85004-4.59003-5.92999-5.04999-6.32001-.38-.32001-.92004-.32001-1.30005,0-.45996.39001-4.00995,3.46997-5.04999,6.32001-.02997.03998-.03998.08997-.06.14001-.14996.44-.23999.87994-.23999,1.29999v21c0,.07996.01001.15997.03003.23999l.68994,2.76001h-1.71997c-1.09998,0-2,.89996-2,2v2c0,1.09998.90002,2,2,2h14c1.09998,0,2-.90002,2-2v-2c0-1.10004-.90002-2-2-2ZM34,7.33997c1.10999,1.01001,2.40002,2.40002,3.21002,3.66003h-6.42004c.81-1.26001,2.11005-2.64001,3.21002-3.66003ZM38,13v2h-3v-2h3ZM30,13h3v2h-3v-2ZM30,17h8v16h-8v-16ZM37.71997,35l-.5,2h-6.43994l-.5-2h7.43994ZM41,41h-14v-2h14v2Z" fill="#000" stroke-width="0"/>
</svg>