<?xml version="1.0" encoding="UTF-8"?>
<svg xmlns="http://www.w3.org/2000/svg" version="1.1" viewBox="0 0 64 64">
  <!-- Generator: Adobe Illustrator 28.7.1, SVG Export Plug-In . SVG Version: 1.2.0 Build 142)  -->
  <g>
    <g id="Outline">
      <g>
        <path d="M44,40c-.54999,0-1,.45001-1,1v1h-2v-1c0-2.21002-1.78998-4-4-4h-2v-4.5c2.53998-1,3-3.28003,3-4.79004,0-3.45996-2.39001-8.70996-6-8.70996s-6,5.25-6,8.70996c0,1.51001.46002,3.79004,3,4.79004v4.5h-2c-2.21002,0-4,1.78998-4,4v6c-1.65002,0-3,1.34998-3,3v2c0,.54999.45001,1,1,1h22c.54999,0,1-.45001,1-1v-2c0-1.65002-1.34998-3-3-3v-3h2v1c0,.54999.45001,1,1,1s1-.45001,1-1v-4c0-.54999-.45001-1-1-1ZM28,27.70996c0-2.87,1.97998-6.70996,4-6.70996s4,3.83997,4,6.70996c0,.96002-.16998,1.93005-1.03003,2.56.01001-.08997.03003-.17999.03003-.26996,0-1.16003-.94-5-3-5s-3,3.83997-3,5c0,.08997.02002.17999.03003.26996-.86005-.62994-1.03003-1.59998-1.03003-2.56ZM32,31c-.54999,0-1-.45001-1-1,0-.83002.57001-2.44,1-2.92004.42999.48004,1,2.09003,1,2.92004,0,.54999-.45001,1-1,1ZM33,32.95001v4.04999h-2v-4.04999c.31.02997.65002.04999,1,.04999s.69-.02002,1-.04999ZM25,41c0-1.10004.90002-2,2-2h10c1.09998,0,2,.89996,2,2v6h-2v-5c0-.54999-.45001-1-1-1h-8c-.54999,0-1,.45001-1,1v5h-2v-6ZM35,43v4h-6v-4h6ZM42,50v1h-20v-1c0-.54999.45001-1,1-1h18c.54999,0,1,.45001,1,1Z"/>
        <path d="M56,11H8c-.55225,0-1,.44727-1,1v4c0,.55273.44775,1,1,1h3v35c0,.55273.44775,1,1,1h4c.55225,0,1-.44727,1-1V17h4c.55225,0,1-.44727,1-1s-.44775-1-1-1h-5c-.55225,0-1,.44727-1,1v35h-2V16c0-.55273-.44775-1-1-1h-3v-2h46v2h-3c-.55225,0-1,.44727-1,1v8c0,.55273.44775,1,1,1s1-.44727,1-1v-7h3c.55225,0,1-.44727,1-1v-4c0-.55273-.44775-1-1-1Z"/>
        <path d="M52,27c-.55225,0-1,.44727-1,1v23h-2V16c0-.55273-.44775-1-1-1h-23c-.55225,0-1,.44727-1,1s.44775,1,1,1h22v35c0,.55273.44775,1,1,1h4c.55225,0,1-.44727,1-1v-24c0-.55273-.44775-1-1-1Z"/>
      </g>
    </g>
  </g>
</svg>