<?xml version="1.0" encoding="UTF-8"?>
<svg id="Outline" xmlns="http://www.w3.org/2000/svg" version="1.1" viewBox="0 0 64 64">
  <path d="M53.57568,22.02041c2.99609-5.94141,3.39795-10.46143,1.13135-12.72754-2.26514-2.26611-6.78564-1.86328-12.72754,1.13135-5.3924,2.71942-11.47552,7.29767-17.21808,12.92303l-1.95593-1.95593-.66827-6.01544c-.0249-.22559-.12598-.43604-.28662-.59668l-2.12109-2.12109c-1.13379-1.13379-3.10986-1.13379-4.24268,0l-2.82861,2.82812c-.56689.56689-.87891,1.32031-.87891,2.12158s.31201,1.55469.87891,2.12109l2.12109,2.12158c.16064.16064.37109.26172.59668.28662l6.01544.66827,1.95593,1.95593c-5.62537,5.74249-10.20361,11.82526-12.92303,17.21808-2.99609,5.94141-3.39795,10.46094-1.13135,12.72754.96826.96875,2.34766,1.44922,4.07373,1.44922,2.31396,0,5.25098-.86426,8.65381-2.58008,5.3924-2.71985,11.47552-7.29858,17.21808-12.92352l1.45593,1.45593.66827,6.01544c.0249.22559.12598.43652.28662.59668l2.12109,2.12109c.56689.56641,1.32031.87891,2.12158.87891s1.55469-.3125,2.12109-.87891l2.82861-2.82812c1.16992-1.16992,1.16992-3.07324,0-4.24316l-2.12109-2.12109c-.16064-.16016-.37109-.26172-.59668-.28711l-6.01599-.66833-1.45532-1.45532c5.62537-5.74213,10.20361-11.82574,12.92297-17.21814ZM50.66357,9.84365c1.15576,0,2.05127.28516,2.62939.86328,3.03546,3.03546-2.01996,14.82538-14.05505,27.11682l-1.85333-1.85333c3.79706-4.23773,4.76703-9.37506,2.14374-11.99884-2.62415-2.62372-7.76093-1.65302-11.99902,2.14355l-1.35541-1.35541c9.95184-9.74506,19.57556-14.91608,24.48969-14.91608ZM34.55365,35.96761c-3.33521,2.9281-7.38544,3.92902-9.16791,2.14655-1.78339-1.7843-.78204-5.83466,2.14612-9.16833l7.02179,7.02179ZM28.94958,27.53542c2.20667-1.93774,4.7243-3.03748,6.69348-3.03748,1.00586,0,1.86816.28516,2.47119.8877,1.78345,1.78436.78247,5.83453-2.14624,9.16821l-7.01843-7.01843ZM15.94531,20.18838l-1.87305-1.87402c-.18896-.18848-.29297-.43945-.29297-.70654s.104-.51807.29297-.70703l2.8291-2.82861c.37695-.37793,1.03564-.37793,1.41357,0l1.87354,1.87305.53027,4.77344-4.77344-.53027ZM10.70703,53.29287c-3.03546-3.03546,2.01996-14.82581,14.05505-27.11682l1.35315,1.35315c-3.79645,4.23773-4.76636,9.37488-2.14355,11.99902.99902.99902,2.36182,1.47754,3.90137,1.47754,2.50311,0,5.46741-1.27832,8.09119-3.62756l1.85956,1.85956c-12.29187,12.03461-24.08038,17.09058-27.11676,14.05511ZM47.55469,43.31142l1.87305,1.87305c.18896.18945.29297.44043.29297.70801,0,.2666-.104.51758-.29297.70703l-2.8291,2.82812c-.37695.37891-1.03564.37891-1.41357,0l-1.87354-1.87305-.53027-4.77344,4.77344.53027Z" style="fill: #000; stroke-width: 0px;"/>
  <path d="M48.01367,18.31484c.38156.38155,1.03439.37967,1.41406,0,.39062-.39062.39062-1.02344,0-1.41406l-2.82861-2.82861c-.39062-.39062-1.02344-.39062-1.41406,0s-.39062,1.02344,0,1.41406c0,0,2.82183,2.82183,2.82861,2.82861Z" style="fill: #000; stroke-width: 0px;"/>
  <path d="M45.18506,21.14346c.36997.36995,1.02864.38542,1.41406,0,.39062-.39062.39062-1.02344,0-1.41406l-2.82861-2.82861c-.39062-.39062-1.02344-.39062-1.41406,0s-.39062,1.02344,0,1.41406c0,0,2.82063,2.82063,2.82861,2.82861Z" style="fill: #000; stroke-width: 0px;"/>
  <path d="M15.48633,45.18545c-.39062-.39062-1.02344-.39062-1.41406,0s-.39062,1.02344,0,1.41406l2.8286,2.82811c.38443.38437,1.03126.38284,1.41408.00002.39062-.39062.39062-1.02344,0-1.41406l-2.82861-2.82812Z" style="fill: #000; stroke-width: 0px;"/>
  <path d="M18.31494,42.35635c-.39062-.39062-1.02344-.39062-1.41406,0s-.39062,1.02344,0,1.41406l2.8286,2.82909c.36023.36029,1.03035.38373,1.41408.00001.39062-.39062.39062-1.02344,0-1.41406l-2.82861-2.8291Z" style="fill: #000; stroke-width: 0px;"/>
</svg>