<?xml version="1.0" encoding="utf-8"?>
<!-- Generator: Adobe Illustrator 28.2.0, SVG Export Plug-In . SVG Version: 6.00 Build 0)  -->
<svg version="1.1" id="Outline" xmlns="http://www.w3.org/2000/svg" xmlns:xlink="http://www.w3.org/1999/xlink" x="0px" y="0px"
	 viewBox="0 0 64 64" enable-background="new 0 0 64 64" xml:space="preserve">
<g>
	<path d="M24.85352,27c1.07227,0,2.07471,0.41602,2.82275,1.1709c0.38965,0.39258,1.02246,0.39551,1.41406,0.00586
		c0.39258-0.38867,0.39551-1.02148,0.00684-1.41406C27.9707,25.62598,26.46338,25,24.85352,25c-3.30859,0-6,2.69141-6,6
		s2.69141,6,6,6c1.60986,0,3.11719-0.62598,4.24365-1.7627c0.38867-0.39258,0.38574-1.02539-0.00684-1.41406
		c-0.39258-0.38965-1.02539-0.38672-1.41406,0.00586C26.92822,34.58398,25.92578,35,24.85352,35c-2.20557,0-4-1.79395-4-4
		S22.64795,27,24.85352,27z"/>
	<path d="M40,33v-4c0-2.20605-1.79443-4-4-4s-4,1.79395-4,4v4c0,2.20605,1.79443,4,4,4S40,35.20605,40,33z M34,33v-4
		c0-1.10254,0.89697-2,2-2s2,0.89746,2,2v4c0,1.10254-0.89697,2-2,2S34,34.10254,34,33z"/>
	<path d="M43,32c-0.55225,0-1,0.44727-1,1v3c0,0.55273,0.44775,1,1,1h3c0.55225,0,1-0.44727,1-1s-0.44775-1-1-1h-2v-1h2
		c0.55225,0,1-0.44727,1-1v-3c0-0.55273-0.44775-1-1-1h-3c-0.55225,0-1,0.44727-1,1s0.44775,1,1,1h2v1H43z"/>
	<path d="M50.78998,24.31C50.02002,21.23999,47.21997,19,44,19c-1.90997,0-3.70001,0.76996-5,2.09998
		C37.70001,19.76996,35.90997,19,34,19c-0.34003,0-0.66998,0.02997-1,0.07996V15h1c2.76001,0,5-2.23999,5-5V8
		c0-0.54999-0.45001-1-1-1h-2c-1.64001,0-3.09003,0.81-4,2.02997C31.09003,7.81,29.64001,7,28,7h-2c-0.54999,0-1,0.45001-1,1v2
		c0,2.76001,2.23999,5,5,5h1v4.12C29.70001,17.77997,27.91998,17,26,17c-2.71997,0-5.17999,1.57996-6.32001,4.01001
		C16.28003,21.15997,13.51001,23.75,13.06,27.06C9.64001,27.51996,7,30.45996,7,34c0,3.85999,3.14001,7,7,7h10
		c0.54999,0,1-0.45001,1-1s-0.45001-1-1-1H14c-2.76001,0-5-2.23999-5-5s2.23999-5,5-5c0.54999,0,1-0.45001,1-1
		c0-2.76001,2.23999-5,5-5c0.09003,0,0.16998,0.01001,0.25,0.01996c0.46002,0.04004,0.88-0.23999,1.03003-0.66998
		C21.98999,20.34998,23.88,19,26,19c1.71002,0,3.28998,0.87,4.21002,2.32001c0.27997,0.44995,0.87,0.58997,1.32996,0.32996
		C32.29999,21.21997,33.13,21,34,21c1.67999,0,3.23999,0.83997,4.16998,2.23999c0.37,0.56,1.29004,0.56,1.66003,0
		C40.76001,21.83997,42.32001,21,44,21c2.46002,0,4.59003,1.83997,4.94,4.27997c0.06,0.42004,0.38,0.76001,0.79999,0.84003
		C52.78998,26.70996,55,29.39001,55,32.5c0,3.57996-2.91998,6.5-6.5,6.5H32c-0.54999,0-1,0.45001-1,1s0.45001,1,1,1h16.5
		c4.69,0,8.5-3.81,8.5-8.5C57,28.66998,54.41998,25.32996,50.78998,24.31z M33,12c0-1.65002,1.34998-3,3-3h1v1
		c0,1.64996-1.34998,3-3,3h-1V12z M31,13h-1c-1.65002,0-3-1.35004-3-3V9h1c1.65002,0,3,1.34998,3,3V13z"/>
	<path d="M36,51h-1v-7c0-0.55273-0.44775-1-1-1h-4c-0.55225,0-1,0.44727-1,1v7h-1c-0.4043,0-0.76904,0.24316-0.92383,0.61719
		s-0.06934,0.80371,0.2168,1.08984l4,4C31.48828,56.90234,31.74414,57,32,57s0.51172-0.09766,0.70703-0.29297l4-4
		c0.28613-0.28613,0.37158-0.71582,0.2168-1.08984S36.4043,51,36,51z M32,54.58594l-1.64893-1.64941
		C30.72998,52.79492,31,52.42871,31,52v-7h2v7c0,0.42871,0.27002,0.79492,0.64893,0.93652L32,54.58594z"/>
	<path d="M48,51h-1v-7c0-0.55273-0.44775-1-1-1h-4c-0.55225,0-1,0.44727-1,1v7h-1c-0.4043,0-0.76904,0.24316-0.92383,0.61719
		s-0.06934,0.80371,0.2168,1.08984l4,4C43.48828,56.90234,43.74414,57,44,57s0.51172-0.09766,0.70703-0.29297l4-4
		c0.28613-0.28613,0.37158-0.71582,0.2168-1.08984S48.4043,51,48,51z M44,54.58594l-1.64893-1.64941
		C42.72998,52.79492,43,52.42871,43,52v-7h2v7c0,0.42871,0.27002,0.79492,0.64893,0.93652L44,54.58594z"/>
	<path d="M24,51h-1v-7c0-0.55273-0.44775-1-1-1h-4c-0.55225,0-1,0.44727-1,1v7h-1c-0.4043,0-0.76904,0.24316-0.92383,0.61719
		s-0.06934,0.80371,0.2168,1.08984l4,4C19.48828,56.90234,19.74414,57,20,57s0.51172-0.09766,0.70703-0.29297l4-4
		c0.28613-0.28613,0.37158-0.71582,0.2168-1.08984S24.4043,51,24,51z M20,54.58594l-1.64893-1.64941
		C18.72998,52.79492,19,52.42871,19,52v-7h2v7c0,0.42871,0.27002,0.79492,0.64893,0.93652L20,54.58594z"/>
	<circle cx="28" cy="40" r="1"/>
</g>
</svg>
