<?xml version="1.0" encoding="UTF-8"?>
<svg xmlns="http://www.w3.org/2000/svg" version="1.1" viewBox="0 0 64 64">
  <!-- Generator: Adobe Illustrator 28.7.1, SVG Export Plug-In . SVG Version: 1.2.0 Build 142)  -->
  <g>
    <g id="Outline">
      <g>
        <path d="M55.00027,17.70072l-14.72211-8.49982.49994-.86591c.27588-.47852.1123-1.08984-.36621-1.36621-.47949-.27686-1.09033-.11182-1.36621.36621l-5,8.66016c-.27588.47852-.1123,1.08984.36625,1.36623.47494.27347,1.09203.10776,1.36617-.36623l.49982-.86572s14.72235,8.5,14.72236,8.5c1.88827,1.08865,4.37533.42132,5.46435-1.46436,1.10205-1.91016.44531-4.36133-1.46436-5.46436ZM54.7322,22.16508c-.55078.95459-1.77734,1.28418-2.73193.73193l-14.72217-8.49988,1.99994-3.46393,14.72223,8.49994c.95508.55127,1.2832,1.77686.73193,2.73193Z"/>
        <path d="M38.23074,25.16557h-1.37c.08002-.33002.14001-.66003.14001-1,0-1.44-.78998-2.76001-2.03003-3.46002-.15997-1.37-1.02997-2.53998-2.22998-3.13.16998-.44.26001-.91998.26001-1.40997,0-1.90002-1.33002-3.48999-3.09998-3.90002-.41003-1.77002-2-3.09998-3.90002-3.09998-.66998,0-1.32001.16998-1.90002.48999-.75-.91998-1.88995-1.48999-3.09998-1.48999s-2.34998.57001-3.09998,1.48999c-.58002-.32001-1.23004-.48999-1.90002-.48999-1.85999,0-3.42999,1.27997-3.87,3-2.25-.08002-4.13,1.75-4.13,4,0,.66998.16998,1.32001.48999,1.89996-.91998.75-1.48999,1.89001-1.48999,3.10004,0,.91998.32001,1.79999.88,2.5-.56.70001-.88,1.57996-.88,2.5,0,2.20996,1.78998,4,4,4,.91998,0,1.79999-.32001,2.5-.88.70001.56,1.58002.88,2.5.88,2.21002,0,4-1.79004,4-4,0-.37-.04999-.73999-.15002-1.09003,1.20001-.26996,2.21002-1.08002,2.74005-2.16998.17999.07001.37.12.56.16998-.10004.35004-.15002.72003-.15002,1.09003,0,.33997.06.66998.14001,1h-.91003c-.54999,0-1,.45001-1,1s.45001,1,1,1h1v8.76001l-8.44995,16.90997c-.46002.92999-.41003,2.02002.13995,2.90997.54999.89001,1.5,1.42004,2.54999,1.42004h7.53003c.54999,0,1-.45001,1-1s-.45001-1-1-1h-7.53003c-.5,0-.75995-.33002-.84998-.47003-.08997-.13995-.27002-.51996-.04999-.96997l8.54999-17.10999c.07001-.14001.10999-.29004.10999-.45001v-9h10v3c0,.54999.45001,1,1,1,.55005,0,1-.45001,1-1v-3h1c.56,0,1-.45001,1-1s-.44-1-1-1ZM34.73074,25.16557h-9.45996c-.17004-.29999-.27002-.64001-.27002-1,0-.54004.21997-1.04999.62-1.44.34003-.32001.41003-.83002.16998-1.23004-.22998-.38995-.70996-.57996-1.14996-.44995-.28003.08997-.46002.12-.64001.12-.48999,0-.96997-.19-1.34003-.53003-.27997-.26996-.69-.33997-1.04999-.20001-.35999.14001-.59998.48004-.63.86005-.07001,1.04999-.94,1.87-1.97998,1.87-.17999,0-.35999-.03003-.64001-.12-.44-.13-.91998.06-1.14996.44995-.24005.40002-.17004.91003.16998,1.23004.40002.39001.62.89996.62,1.44,0,1.09998-.90002,2-2,2-.66998,0-1.28998-.34003-1.66998-.90002-.37-.56-1.29004-.56-1.66003,0-.38.56-1,.90002-1.66998.90002-1.09998,0-2-.90002-2-2,0-.67004.34003-1.29004.90002-1.67004.27997-.17999.44995-.5.44995-.82996,0-.33002-.16998-.65002-.44995-.83002-.56-.38-.90002-1-.90002-1.66998,0-.84003.52002-1.57001,1.32001-1.87.33002-.13.57001-.41003.63-.75.07001-.34003-.04999-.69-.29999-.92999-.41003-.37006-.65002-.90002-.65002-1.45001,0-1.33002,1.33002-2.38,2.66998-1.87.29999.10999.65002.07001.92004-.12.26996-.18005.42999-.49005.42999-.82001,0-.08002-.01001-.16003-.02002-.19,0-1.10004.90002-2,2-2,.54999,0,1.08002.23999,1.45001.64996.23999.25.58997.37.92999.30005.33997-.06.62-.30005.75-.63.29999-.80005,1.02997-1.32001,1.87-1.32001s1.57001.51996,1.87,1.32001c.13.32996.41003.57001.75.63.34003.06995.69-.05005.92999-.30005.37-.40997.90002-.64996,1.45001-.64996,1.09998,0,2,.89996,2,2,0,.54999.45001,1,1,1,1.09998,0,2,.89996,2,2,0,.48999-.19.96997-.53003,1.33997-.26996.28003-.33997.69-.19995,1.05005.13995.35999.47998.59998.85999.62994,1.04999.07001,1.87.94,1.85999,1.99005-.08002.47998.20001.94995.66003,1.10999.81.28998,1.34998,1.03998,1.34998,1.88,0,.35999-.09998.70001-.27002,1Z"/>
        <path d="M37.23074,35.92924v-1.76367c0-.55225-.44775-1-1-1s-1,.44775-1,1v2c0,.15527.03613.30859.10547.44727l8.55908,17.10693c.22314.4502.0415.83008-.04688.97217-.08789.14258-.34766.47363-.84766.47363h-14c-.55225,0-1,.44775-1,1s.44775,1,1,1h14c1.04395,0,1.99658-.53076,2.54736-1.41943.55127-.88916.60303-1.979.13721-2.91797l-8.45459-16.89893Z"/>
        <path d="M23.00076,47.16557c-1.6543,0-3,1.3457-3,3s1.3457,3,3,3,3-1.3457,3-3-1.3457-3-3-3ZM23.00076,51.16557c-.55127,0-1-.44873-1-1s.44873-1,1-1,1,.44873,1,1-.44873,1-1,1Z"/>
        <path d="M31.00076,49.16557c1.6543,0,3-1.3457,3-3,0-1.35156-.89795-2.49707-2.12891-2.87109-.37402-1.23096-1.51953-2.12891-2.87109-2.12891-1.6543,0-3,1.3457-3,3,0,1.35156.89795,2.49707,2.12891,2.87109.37402,1.23096,1.51953,2.12891,2.87109,2.12891ZM29.00076,43.16557c.55127,0,1,.44873,1,1,0,.55225.44775,1,1,1,.55127,0,1,.44873,1,1s-.44873,1-1,1-1-.44873-1-1c0-.55225-.44775-1-1-1-.55127,0-1-.44873-1-1s.44873-1,1-1Z"/>
        <circle cx="32.00076" cy="52.16557" r="1"/>
        <circle cx="35.00076" cy="50.16557" r="1"/>
        <circle cx="38.00076" cy="52.16557" r="1"/>
      </g>
    </g>
  </g>
</svg>