<?xml version="1.0" encoding="UTF-8"?>
<svg xmlns="http://www.w3.org/2000/svg" version="1.1" viewBox="0 0 48 48">
  <!-- Generator: Adobe Illustrator 28.7.1, SVG Export Plug-In . SVG Version: 1.2.0 Build 142)  -->
  <g>
    <g id="Outline">
      <g>
        <path d="M40,37c-.46173,0-.89423.11346-1.28534.3006l-4.3006-4.3006h1.20508c.35742,0,.6875-.19043.86621-.5l4.61816-8c.17871-.30957.17871-.69043,0-1l-4.61816-8c-.17871-.30957-.50879-.5-.86621-.5h-1.20508l4.3006-4.3006c.39111.18713.82361.3006,1.28534.3006,1.6543,0,3-1.3457,3-3s-1.3457-3-3-3-3,1.3457-3,3c0,.46173.11346.89423.3006,1.28534l-5.71466,5.71466h-4.76825l-.94196-1.63104,2.28931-.38263c.31543-.05273.58594-.25293.72949-.53906l.76239-1.52478c1.33838-.30103,2.34308-1.49445,2.34308-2.92249,0-1.6543-1.3457-3-3-3s-3,1.3457-3,3c0,1.13434.64014,2.11157,1.57117,2.6214l-.23816.47626-2.52527.42206-2.32141-4.01971c-.17871-.30957-.50879-.5-.86621-.5h-9.24023c-.35645,0-.68652.18994-.86523.49854l-.33008.56982c-.27734.47803-.11426,1.08984.36426,1.3667.47559.27637,1.08887.11328,1.36621-.36377l.04102-.07129h8.08691l4.04199,7-4.04199,7h-8.08594l-4.04492-7.00391.00684-.01123c.27344-.47998.10547-1.09082-.375-1.36377-.47852-.27295-1.08984-.10596-1.36328.37451l-.29004.50977c-.17578.30859-.1748.6875.00293.99463l4.33191,7.50098-4.32898,7.49902c-.17871.30957-.17871.69043,0,1l4.61816,8c.17871.30957.50879.5.86621.5h9.23828c.35742,0,.6875-.19043.86621-.5l2.32062-4.01996,2.52704.4223.2381.47626c-.93097.50983-1.57111,1.48712-1.57111,2.6214,0,1.6543,1.3457,3,3,3s3-1.3457,3-3c0-1.42804-1.0047-2.62146-2.34308-2.92249l-.76239-1.52478c-.14355-.28613-.41406-.48633-.72949-.53906l-2.2915-.383.94135-1.63068h4.77106l5.71466,5.71466c-.18713.39111-.3006.82361-.3006,1.28534,0,1.6543,1.3457,3,3,3s3-1.3457,3-3-1.3457-3-3-3ZM40,7c.55176,0,1,.44873,1,1s-.44824,1-1,1c-.271,0-.5155-.11023-.69574-.28571-.00323-.00336-.00409-.00787-.00739-.01117s-.00787-.00415-.01123-.00745c-.17548-.1803-.28564-.42487-.28564-.69568,0-.55127.44824-1,1-1ZM29,7c.55176,0,1,.44873,1,1s-.44824,1-1,1-1-.44873-1-1,.44824-1,1-1ZM29,39c.55176,0,1,.44873,1,1s-.44824,1-1,1-1-.44873-1-1,.44824-1,1-1ZM21.04199,39h-8.08398l-4.04102-7,4.04102-7h8.08398l4.04102,7-4.04102,7ZM26.95801,31l-4.04102-7,4.04102-7h8.08398l4.04102,7-4.04102,7h-8.08398ZM40,41c-.55176,0-1-.44873-1-1,0-.27081.11017-.51538.28564-.69568.00336-.0033.00793-.00415.01123-.00745s.00415-.00781.00739-.01117c.18024-.17548.42474-.28571.69574-.28571.55176,0,1,.44873,1,1s-.44824,1-1,1Z"/>
        <path d="M36,24c0-.55225-.44727-1-1-1h-1.18427c-.30206-.84717-.96857-1.51367-1.81573-1.81573v-1.18427c0-.55225-.44727-1-1-1s-1,.44775-1,1v1.18427c-.84717.30206-1.51367.96857-1.81573,1.81573h-1.18427c-.55273,0-1,.44775-1,1s.44727,1,1,1h1.18433c.30206.84717.96851,1.51361,1.81567,1.81567v1.18433c0,.55225.44727,1,1,1s1-.44775,1-1v-1.18427c.84717-.30206,1.51367-.96857,1.81573-1.81573h1.18427c.55273,0,1-.44775,1-1ZM31,25c-.55176,0-1-.44873-1-1s.44824-1,1-1,1,.44873,1,1-.44824,1-1,1Z"/>
        <path d="M17,11c-.55273,0-1,.44775-1,1v1.18427c-.84717.30206-1.51367.96857-1.81573,1.81573h-1.18427c-.55273,0-1,.44775-1,1s.44727,1,1,1h1.18433c.30206.84717.96851,1.51361,1.81567,1.81567v1.18433c0,.55225.44727,1,1,1s1-.44775,1-1v-1.18427c.84717-.30206,1.51367-.96857,1.81573-1.81573h1.18427c.55273,0,1-.44775,1-1s-.44727-1-1-1h-1.18427c-.30206-.84717-.96857-1.51367-1.81573-1.81573v-1.18427c0-.55225-.44727-1-1-1ZM17,17c-.55176,0-1-.44873-1-1s.44824-1,1-1,1,.44873,1,1-.44824,1-1,1Z"/>
        <path d="M19.81573,31c-.30206-.84717-.96857-1.51367-1.81573-1.81573v-1.18427c0-.55225-.44727-1-1-1s-1,.44775-1,1v1.18427c-.84717.30206-1.51367.96857-1.81573,1.81573h-1.18427c-.55273,0-1,.44775-1,1s.44727,1,1,1h1.18433c.30206.84717.96851,1.51361,1.81567,1.81567v1.18433c0,.55225.44727,1,1,1s1-.44775,1-1v-1.18427c.84717-.30206,1.51367-.96857,1.81573-1.81573h1.18427c.55273,0,1-.44775,1-1s-.44727-1-1-1h-1.18427ZM17,33c-.55176,0-1-.44873-1-1s.44824-1,1-1,1,.44873,1,1-.44824,1-1,1Z"/>
        <circle cx="10" cy="12" r="1"/>
      </g>
    </g>
  </g>
</svg>