<?xml version="1.0" encoding="UTF-8"?>
<svg xmlns="http://www.w3.org/2000/svg" version="1.1" viewBox="0 0 64 64">
  <!-- Generator: Adobe Illustrator 28.7.1, SVG Export Plug-In . SVG Version: 1.2.0 Build 142)  -->
  <g>
    <g id="Outline">
      <g>
        <path d="M48,23h-.09998c-.47003-2.28003-2.49005-4-4.90002-4-.62,0-1.22998.10999-1.78998.32996-.01001-.01996-.02002-.02997-.03003-.04999.28003-.5.60999-1.01001.97003-1.51996.20996.01996.47998.02997.81.02997,1.69,0,4.72998-.29999,6.71997-2.19,2.85004-2.71997,2.28003-7.46997,2.26001-7.67999-.06-.45001-.41998-.81-.88-.85999-.21002-.03003-5.15002-.56-7.96997,2.13-2.29004,2.17999-2.37006,5.66998-2.31,7.07001-.39001.50995-.74005,1.03998-1.06006,1.56-.73999-.48004-1.59998-.78003-2.51996-.82001-1.06-1.84003-3.03003-3-5.20001-3s-4.14001,1.15997-5.20001,3c-1.64996.07001-3.14001.95996-4.01001,2.32996-.56-.21997-1.16998-.32996-1.78998-.32996-2.40997,0-4.42999,1.71997-4.90002,4h-.09998c-1.65002,0-3,1.34998-3,3,0,1.32001.87,2.44,2.06,2.82996l1.67999,23.53003c.17999,2.59998,2.37,4.64001,4.97998,4.64001h20.56006c2.60999,0,4.79999-2.04004,4.97998-4.64001l1.67999-23.53003c1.19-.38995,2.06-1.50995,2.06-2.82996,0-1.65002-1.34998-3-3-3ZM44.46997,10.64001c1.56006-1.49005,4.20001-1.65002,5.53003-1.64001.01001,1.26996-.17999,3.70001-1.70001,5.14996-1.21997,1.16003-3.10999,1.51001-4.51001,1.60004,1.31-1.42004,2.76001-2.65002,4.01001-3.35999.48004-.27002.65002-.88.38-1.36005-.27002-.47998-.88-.64996-1.35999-.38-1.23999.70001-2.59003,1.80005-3.87,3.09003.20996-1.09003.63-2.26001,1.51996-3.09998ZM21,21c.60999,0,1.17999.17999,1.66998.51001.26001.17999.59003.22998.88.13.29999-.10004.53003-.33002.64001-.62006.40997-1.20996,1.53998-2.01996,2.81011-2.01996.10757.00005.21311.03252.3199.03998.42999.03003.83002-.21002,1-.60999.63-1.47998,2.07001-2.42999,3.67999-2.42999s3.04999.95001,3.67999,2.42999c.16998.39996.57001.63,1,.60999.10449-.01494.2141-.03998.32001-.03998,1.27002,0,2.40002.81,2.81,2.01996.10999.29004.34003.52002.64001.62006.28998.09998.62.04999.88-.13.48999-.33002,1.06-.51001,1.66998-.51001,1.29999,0,2.40002.83997,2.82001,2h-27.64001c.41998-1.16003,1.52002-2,2.82001-2ZM45.27002,52.20996c-.11005,1.57001-1.42999,2.79004-2.98999,2.79004h-20.56006c-1.56,0-2.87994-1.22003-2.98999-2.79004l-1.65997-23.20996h29.85999l-1.65997,23.20996ZM48,27H16c-.54999,0-1-.45001-1-1s.45001-1,1-1h32c.54999,0,1,.45001,1,1s-.45001,1-1,1Z"/>
        <path d="M30.84131,43.00098c.59906,0,1.01038-.0379,1.15869-.05383.14825.01593.5592.05383,1.15869.05383,1.66309,0,4.64014-.30322,6.58984-2.25244,2.76855-2.76904,2.21631-7.61133,2.19141-7.81641-.05566-.45654-.41553-.81641-.87207-.87207-.20312-.02441-5.04736-.57666-7.81641,2.19141-.53082.53088-.93768,1.13849-1.25146,1.77454-.31378-.63605-.72064-1.24365-1.25146-1.77454-2.76855-2.76807-7.61035-2.21533-7.81641-2.19141-.45654.05566-.81641.41553-.87207.87207-.0249.20508-.57715,5.04736,2.19141,7.81641,1.94971,1.94922,4.92676,2.25244,6.58984,2.25244ZM34.66553,35.66553c1.50049-1.49951,4.01807-1.6709,5.33252-1.66357.0166,1.30322-.16406,3.83252-1.66357,5.33252-1.19324,1.19281-3.01752,1.54724-4.38269,1.63531.94751-1.05554,2.06445-1.97626,3.31482-2.69147.47949-.27441.64551-.88525.37158-1.36475-.27441-.47949-.88574-.64502-1.36475-.37158-1.13745.65094-2.17426,1.45563-3.10358,2.36115.19891-1.13116.6178-2.35944,1.49567-3.23761ZM29.33447,35.66553c.87787.87817,1.29675,2.10645,1.49567,3.23761-.92932-.90552-1.96613-1.71021-3.10358-2.36115-.47949-.27344-1.09033-.10791-1.36475.37158-.27393.47949-.10791,1.09033.37158,1.36475,1.25012.71503,2.36688,1.63556,3.31427,2.69086-1.36267-.08875-3.19049-.44305-4.38214-1.6347-1.49951-1.5-1.68018-4.0293-1.66357-5.33252,1.30859-.02002,3.83301.16406,5.33252,1.66357Z"/>
      </g>
    </g>
  </g>
</svg>