<?xml version="1.0" encoding="UTF-8"?>
<svg xmlns="http://www.w3.org/2000/svg" version="1.1" viewBox="0 0 64 64">
  <!-- Generator: Adobe Illustrator 28.7.1, SVG Export Plug-In . SVG Version: 1.2.0 Build 142)  -->
  <g>
    <g id="Outline">
      <path d="M54.58002,15.19c-.26001-.19-.59003-.23999-.90002-.14001l-5.83997,1.95001h-2.16003l-3.75-9.37c-.14996-.38-.52002-.63-.92999-.63h-24c-.40997,0-.78003.25-.92999.63l-3.75,9.37h-2.32001c-.54999,0-1,.45001-1,1v4c0,.54999.45001,1,1,1h1.10999l3.90002,33.12c.06.5.47998.88.98999.88h26c.51001,0,.92999-.38.98999-.88l1.06-9c.07001-.54999-.32001-1.04999-.87-1.10999-.56-.07001-1.04999.31995-1.10999.87l-.96002,8.12h-11.10999v-4h1c2.76001,0,5-2.23999,5-5v-2c0-.54999-.45001-1-1-1h-2c-1.13,0-2.15997.39001-3,1.02997v-2.62l1.66998-1.66998c1.13-1.13,1.76001-2.64001,1.76001-4.23999s-.63-3.10999-1.76001-4.23999l-1.95996-1.97003c-.38-.37-1.04004-.37-1.42004,0l-1.95996,1.97003c-1.13,1.13-1.76001,2.63995-1.76001,4.23999s.63,3.10999,1.76001,4.23999l1.66998,1.66998v2.62c-.84003-.63995-1.87-1.02997-3-1.02997h-2c-.54999,0-1,.45001-1,1v2c0,2.76001,2.23999,5,5,5h1v4h-11.10999l-3.29004-28h9.40002c.54999,0,1-.45001,1-1s-.45001-1-1-1h-9.64001l-.23999-2h31.76001l-.23999,2h-17.64001c-.54999,0-1,.45001-1,1s.45001,1,1,1h17.40002l-1.86005,15.88c-.07001.54999.32001,1.04999.87,1.10999.55005.07001,1.05005-.32001,1.11005-.87l2.37-20.12h1.10999c.10999,0,.21002-.02002.32001-.04999l6-2c.39996-.14001.67999-.52002.67999-.95001v-4c0-.32001-.15002-.62-.41998-.81ZM33,45h1v1c0,1.64996-1.34998,3-3,3h-1v-1c0-1.65002,1.34998-3,3-3ZM27.73999,38.32996c-.75-.75995-1.16998-1.75995-1.16998-2.82996s.41998-2.07001,1.16998-2.83002l1.26001-1.26001,1.26001,1.26001c.75.76001,1.16998,1.76001,1.16998,2.83002s-.41998,2.07001-1.16998,2.82996l-.26001.26001v-2.58997c0-.54999-.45001-1-1-1s-1,.45001-1,1v2.58997l-.26001-.26001ZM27,49c-1.65002,0-3-1.35004-3-3v-1h1c1.65002,0,3,1.34998,3,3v1h-1ZM23,9h12v4h-12v-4ZM17.67999,9h3.32001v5c0,.54999.45001,1,1,1h14c.54999,0,1-.45001,1-1v-5h3.32001l3.20001,8H14.47998l3.20001-8ZM53,19.27997l-5.15997,1.72003H11v-2h37c.10999,0,.21002-.02002.32001-.04999l4.67999-1.56v1.88995Z"/>
    </g>
  </g>
</svg>