<?xml version="1.0" encoding="UTF-8"?>
<svg xmlns="http://www.w3.org/2000/svg" version="1.1" viewBox="0 0 64 64">
  <!-- Generator: Adobe Illustrator 28.7.1, SVG Export Plug-In . SVG Version: 1.2.0 Build 142)  -->
  <g>
    <g id="Outline">
      <g>
        <path d="M54,27c1.65002,0,3-1.35004,3-3v-8c0-1.65002-1.34998-3-3-3h-1v-2c0-2.21002-1.78998-4-4-4s-4,1.78998-4,4v2h-26v-2c0-2.21002-1.78998-4-4-4s-4,1.78998-4,4v2h-1c-1.65002,0-3,1.34998-3,3v8c0,1.64996,1.34998,3,3,3h1v4h-1c-1.65002,0-3,1.34998-3,3v8c0,1.64996,1.34998,3,3,3h1v10h-1c-.54999,0-1,.45001-1,1s.45001,1,1,1h10c.54999,0,1-.45001,1-1s-.45001-1-1-1h-1v-10h26v10h-1c-.54999,0-1,.45001-1,1s.45001,1,1,1h10c.54999,0,1-.45001,1-1s-.45001-1-1-1h-1v-1c0-.54999-.45001-1-1-1s-1,.45001-1,1v1h-4v-10h4v1c0,.54999.45001,1,1,1s1-.45001,1-1v-1h1c1.65002,0,3-1.35004,3-3v-8c0-1.65002-1.34998-3-3-3h-1v-4h1ZM54.87,15.53998c.08002.14001.13.28998.13.46002v3.58997l-5.40997,5.41003h-4.18005l9.46002-9.46002ZM51,27v4h-4v-4h4ZM47,11c0-1.10004.90002-2,2-2s2,.89996,2,2v2h-4v-2ZM48.40997,15h4.18005l-10,10h-4.18005l10-10ZM45,27v4h-26v-4h26ZM45.59003,15l-10,10h-4.18005l10-10h4.18005ZM38.59003,15l-10,10h-4.18005l10-10h4.18005ZM31.59003,15l-10,10h-4.18005l10-10h4.18005ZM13,11c0-1.10004.90002-2,2-2s2,.89996,2,2v2h-4v-2ZM9,16c0-.54999.45001-1,1-1h.59003l-1.59003,1.58997v-.58997ZM9,23.58997v-4.17999l4.40997-4.40997h4.18005l-8.59003,8.58997ZM10.40997,25l10-10h4.18005l-10,10h-4.18005ZM17,27v4h-4v-4h4ZM9,34c0-.54999.45001-1,1-1h.59003l-1.59003,1.58997v-.58997ZM9,41.58997v-4.17999l4.40997-4.40997h4.18005l-8.59003,8.58997ZM10.40997,43l10-10h4.18005l-10,10h-4.18005ZM17,55h-4v-10h4v10ZM17.40997,43l10-10h4.18005l-10,10h-4.18005ZM24.40997,43l10-10h4.18005l-10,10h-4.18005ZM31.40997,43l10-10h4.18005l-10,10h-4.18005ZM42.59003,43h-4.18005l10-10h4.18005l-10,10ZM55,42c0,.54999-.45001,1-1,1h-1.59003l2.59003-2.59003v1.59003ZM54.87,33.53998c.08002.14001.13.28998.13.46002v3.58997l-5.40997,5.41003h-4.18005l9.46002-9.46002ZM52.40997,25l2.59003-2.59003v1.59003c0,.54999-.45001,1-1,1h-1.59003Z"/>
        <circle cx="52" cy="50" r="1"/>
      </g>
    </g>
  </g>
</svg>