<?xml version="1.0" encoding="UTF-8"?>
<svg xmlns="http://www.w3.org/2000/svg" version="1.1" viewBox="0 0 64 64">
  <!-- Generator: Adobe Illustrator 28.7.1, SVG Export Plug-In . SVG Version: 1.2.0 Build 142)  -->
  <g>
    <g id="Outline">
      <g>
        <path d="M56.83097,32.94c-.19-.28003-.5-.44-.83002-.44h-3v-3h2c.54999,0,1-.45001,1-1s-.45001-1-1-1h-2v-2c0-.54999-.45001-1-1-1s-1,.45001-1,1v2h-2c-.54999,0-1,.45001-1,1s.45001,1,1,1h2v3h-2c-.31,0-.60999.14996-.79999.39996l-2.20001,2.92999v-6.32996c0-.54999-.45001-1-1-1h-3v-7c0-.54999-.45001-1-1-1h-8c-.54999,0-1,.45001-1,1v7h-3c-.54999,0-1,.45001-1,1v7h-2v-6c0-1.10004-.90002-2-2-2h-2v-8c0-1.10004-.90002-2-2-2h-1v-3c0-.54999-.45001-1-1-1s-1,.45001-1,1v3h-1c-1.09998,0-2,.89996-2,2v8h-2c-1.09998,0-2,.89996-2,2v6h-2c-.33002,0-.63.15997-.82001.42999-.19.26001-.22998.60999-.12.90997l4,11c.14001.40002.52002.66003.94.66003h38c.40997,0,.78003-.25.92999-.63l6-15c.12-.31.08002-.66003-.09998-.92999ZM44.00095,30.5v6h-6v-6h6ZM34.00095,22.5h6v6h-6v-6ZM30.00095,30.5h6v6h-6v-6ZM16.00095,20.5h4v2h-4v-2ZM16.00095,24.5h4v4h-4v-4ZM12.00095,30.5h12v6h-12v-6ZM49.32096,47.5H12.70097l-3.27002-9h36.57001c.31,0,.60999-.15002.79999-.40002l2.70001-3.59998h5.02002l-5.20001,13Z"/>
        <circle cx="45.00095" cy="41.5" r="1"/>
        <circle cx="41.00095" cy="41.5" r="1"/>
        <circle cx="37.00095" cy="41.5" r="1"/>
      </g>
    </g>
  </g>
</svg>