<?xml version="1.0" encoding="UTF-8"?>
<svg id="Outline" xmlns="http://www.w3.org/2000/svg" version="1.1" viewBox="0 0 64 64">
  <path d="M56.99851,13.94948c-.0236-.40248-.32446-.78948-.70853-.9095,0,0-20-6-20.00002-6-.08438-.01689-.20444-.03997-.28996-.03997,0,0-7.99752,0-8.00002,0-.07819,0-.21384.01708-.28996.03998-.00001,0-19.98377,5.99513-19.99999,6-.39185.11756-.71003.54866-.71003.96002v4c0,.54999.45001,1,1,1h1v3c0,.54999.45001,1,1,1h2v3c0,.54999.45001,1,1,1h2v.57996c0,1.37006.59998,2.68005,1.67999,3.69.21002.19.32001.45001.32001.73004,0,.54999-.45001,1-1,1s-1-.45001-1-1-.45001-1-1-1-1,.45001-1,1c0,1.64996,1.34998,3,3,3s3-1.35004,3-3c0-.83002-.34998-1.63-.96002-2.20001-.66998-.62-1.03998-1.40997-1.03998-2.22003v-.57996h2c.54999,0,1-.45001,1-1v-3h2c.54999,0,1-.45001,1-1v-3h4v30h-3c-.20001,0-.39001.06-.54999.16998l-3,2c-.28003.17999-.45001.5-.45001.83002v4c0,.54999.45001,1,1,1h22c.54999,0,1-.45001,1-1v-4c0-.33002-.16998-.65002-.45001-.83002l-3-2c-.15997-.10999-.34998-.16998-.54999-.16998h-3v-30h19c.54999,0,1-.45001,1-1v-3.99981c0-.01692-.0005-.03382-.00149-.05071ZM37,9.33997l12.19,3.66003h-12.19v-3.66003ZM29,9h6v4h-6v-4ZM27,9.33997v3.66003h-12.19l12.19-3.66003ZM18,25h-4v-2h4v2ZM21,21h-10v-2h10v2ZM39.70001,51l2.29999,1.53998v2.46002h-20v-2.46002l2.29999-1.53998h15.40002ZM29,23.58997v-4.58997h4.59003l-4.59003,4.58997ZM35,20.40997v11.17999l-5.59003-5.58997,5.59003-5.59003ZM34.59003,34l-5.59003,5.58997v-11.17999l5.59003,5.59003ZM35,36.40997v11.17999l-5.59003-5.58997,5.59003-5.59003ZM33.59003,49h-4.59003v-4.59003l4.59003,4.59003ZM55,17H9v-2h46v2Z" fill="#000" stroke-width="0"/>
</svg>