<?xml version="1.0" encoding="UTF-8"?>
<svg xmlns="http://www.w3.org/2000/svg" version="1.1" viewBox="0 0 64 64">
  <!-- Generator: Adobe Illustrator 28.7.1, SVG Export Plug-In . SVG Version: 1.2.0 Build 142)  -->
  <g>
    <g id="Outline">
      <g>
        <path d="M42,13h-1v-5c0-.54999-.45001-1-1-1s-1,.45001-1,1v5h-14v-5c0-.54999-.45001-1-1-1s-1,.45001-1,1v5h-1c-1.65002,0-3,1.34998-3,3v10c0,1.64996,1.34998,3,3,3v3c0,1.64996,1.34998,3,3,3h4v.63c0,3.08997,1.34998,6.12,3.79999,8.51001.77002.75995,1.20001,1.77997,1.20001,2.85999,0,2.16998-1.83002,4-4,4-2.21002,0-4-1.79004-4-4,0-.20001-.06-.39001-.16998-.54999l-2-3c-.37-.56-1.29004-.56-1.66003,0l-2,3c-.10999.15997-.16998.34998-.16998.54999,0,2.72998,1.08002,5.26996,3.03003,7.16998,1.88995,1.83002,4.34998,2.83002,6.96997,2.83002h.29999c5.35999-.16003,9.71002-4.65002,9.70001-10.02002-.01001-2.52997-.96002-4.94-2.67999-6.77997-1.28998-1.38-2.07001-3.20001-2.27002-5.20001h3.95001c1.65002,0,3-1.35004,3-3v-3c1.65002,0,3-1.35004,3-3v-10c0-1.65002-1.34998-3-3-3ZM35.85999,41.56c1.37,1.47998,2.14001,3.39996,2.14001,5.41998.01001,4.29999-3.46997,7.89001-7.76001,8.02002-2.17999.07001-4.25-.73999-5.81-2.26001-1.5-1.45001-2.34998-3.38-2.42999-5.45001l1-1.48999,1.01001,1.51001c.15997,3.16998,2.78998,5.69,5.98999,5.69,3.25,0,6-2.75,6-6,0-1.63-.64001-3.15002-1.81-4.29004-2.06-2.00995-3.19-4.52997-3.19-7.07996v-.63h2.03998c.21002,2.51001,1.19,4.82001,2.82001,6.56ZM40,32c0,.54999-.45001,1-1,1h-14c-.54999,0-1-.45001-1-1v-3h16v3ZM43,26c0,.54999-.45001,1-1,1h-20c-.54999,0-1-.45001-1-1v-10c0-.54999.45001-1,1-1h20c.54999,0,1,.45001,1,1v10Z"/>
        <path d="M32,17c-2.20605,0-4,1.79443-4,4s1.79395,4,4,4,4-1.79443,4-4-1.79395-4-4-4ZM32,23c-1.10254,0-2-.89697-2-2s.89746-2,2-2,2,.89697,2,2-.89746,2-2,2Z"/>
      </g>
    </g>
  </g>
</svg>