<?xml version="1.0" encoding="utf-8"?>
<!-- Generator: Adobe Illustrator 27.3.1, SVG Export Plug-In . SVG Version: 6.00 Build 0)  -->
<svg version="1.1" id="Outline" xmlns="http://www.w3.org/2000/svg" xmlns:xlink="http://www.w3.org/1999/xlink" x="0px" y="0px"
	 viewBox="0 0 64 64" enable-background="new 0 0 64 64" xml:space="preserve">
<g>
	<path d="M52.94824,55.68359L51,49.83887V23c0-0.55225-0.44727-1-1-1s-1,0.44775-1,1v26H17V13
		c0-0.22705-0.07715-0.44727-0.21875-0.62451L14.08105,9H49v6c0,0.55225,0.44727,1,1,1s1-0.44775,1-1V8c0-0.55225-0.44727-1-1-1
		c0,0-37.80609,0-37.99927,0c-0.83167,0-1.30109,0.97668-0.78198,1.62451L15,13.35059v36.48828l-1.94824,5.84473
		c-0.10254,0.30518-0.05078,0.64014,0.13672,0.90088C13.37695,56.8457,13.67871,57,14,57c0,0,37.88129,0,37.99969,0
		C52.68103,57,53.16748,56.336,52.94824,55.68359z M15.3877,55l1.33301-4H49.2793l1.33301,4H15.3877z"/>
	<path d="M20,13c-0.55273,0-1,0.44775-1,1v32c0,0.55225,0.44727,1,1,1h26c0.55273,0,1-0.44775,1-1V14c0-0.55225-0.44727-1-1-1H20z
		 M45,45H21V24.2887c1.97748-0.3775,3.9585-0.487,5.90234-0.29358c2.01562,0.19824,3.34473,0.6377,4.75195,1.10303
		c0.95898,0.31738,1.95117,0.64551,3.15137,0.88281c1.12988,0.22412,2.29199,0.33594,3.48145,0.33594
		c2.15155,0,4.39868-0.38776,6.71289-1.11694V45z M45,23.10406c-3.49402,1.19647-6.79095,1.51215-9.80566,0.91498
		c-1.0791-0.21338-1.96973-0.50781-2.91309-0.81982c-1.44824-0.479-2.94629-0.97461-5.18164-1.19434
		C25.09064,21.80341,23.04333,21.89819,21,22.255V15h24V23.10406z"/>
	<path d="M33,33c-1.6543,0-3,1.3457-3,3c0,0.55225,0.44727,1,1,1s1-0.44775,1-1c0-0.55127,0.44824-1,1-1s1,0.44873,1,1v0.29834
		c0,0.22656-0.07812,0.44824-0.21973,0.625c0,0-3.55603,4.44525-3.56152,4.45215C29.70251,42.02075,30.17572,43,31,43h4
		c0.55273,0,1-0.44775,1-1s-0.44727-1-1-1h-1.91992l2.26172-2.82666C35.7666,37.64404,36,36.97803,36,36.29834V36
		C36,34.3457,34.6543,33,33,33z"/>
	<path d="M26,29h-2c-0.55273,0-1,0.44775-1,1v8c0,0.55225,0.44727,1,1,1h2c1.6543,0,3-1.3457,3-3v-4C29,30.3457,27.6543,29,26,29z
		 M27,36c0,0.55127-0.44824,1-1,1h-1v-6h1c0.55176,0,1,0.44873,1,1V36z"/>
	<path d="M37,32v4c0,1.6543,1.3457,3,3,3s3-1.3457,3-3v-4c0-1.6543-1.3457-3-3-3S37,30.3457,37,32z M39,32c0-0.55127,0.44824-1,1-1
		s1,0.44873,1,1v4c0,0.55127-0.44824,1-1,1s-1-0.44873-1-1V32z"/>
	<circle cx="50" cy="19" r="1"/>
</g>
</svg>
