<?xml version="1.0" encoding="UTF-8"?>
<svg xmlns="http://www.w3.org/2000/svg" version="1.1" viewBox="0 0 64 64">
  <!-- Generator: Adobe Illustrator 28.7.1, SVG Export Plug-In . SVG Version: 1.2.0 Build 142)  -->
  <g>
    <g id="Outline">
      <g>
        <path d="M11.55273,22.89453l5.99658,2.99805c.1394.07098.29419.10742.45068.10742.15558,0,.31122-.03723.4502-.10742l5.99707-2.99805c.33887-.16992.55273-.51562.55273-.89453v-6c0-.37891-.21387-.72461-.55273-.89453l-6-3c-.28125-.14062-.61328-.14062-.89453,0l-6,3c-.33887.16992-.55273.51562-.55273.89453v6c0,.37891.21387.72461.55273.89453ZM23,21.38184l-4,2v-3.76367l4-2v3.76367ZM18,14.11816l3.76416,1.88184-3.76416,1.88184-3.76416-1.88184,3.76416-1.88184ZM13,17.61816l4,2v3.76367l-4-2v-3.76367Z"/>
        <path d="M27.55273,22.89453l5.99658,2.99805c.1394.07098.29431.10742.45068.10742.15607,0,.31061-.03766.4502-.10742.00385-.00195,5.99707-2.99805,5.99707-2.99805.33887-.16992.55273-.51562.55273-.89453v-6c0-.37891-.21387-.72461-.55273-.89453l-6-3c-.28125-.14062-.61328-.14062-.89453,0l-6,3c-.33887.16992-.55273.51562-.55273.89453v6c0,.37891.21387.72461.55273.89453ZM39,21.38184l-4,2v-3.76367l4-2v3.76367ZM34,14.11816l3.76416,1.88184-3.76416,1.88184-3.76416-1.88184,3.76416-1.88184ZM29,17.61816l4,2v3.76367l-4-2v-3.76367Z"/>
        <path d="M54,8H10c-1.65002,0-3,1.34998-3,3v30c0,1.64996,1.34998,3,3,3h15v4.28998c-2.89001.87-5,3.54999-5,6.71002,0,.54999.45001,1,1,1h22c.54999,0,1-.45001,1-1,0-3.16003-2.10999-5.84003-5-6.71002v-4.28998h15c1.65002,0,3-1.35004,3-3V11c0-1.65002-1.34998-3-3-3ZM41.90002,54h-19.80005c.46002-2.28003,2.49005-4,4.90002-4h10c2.40997,0,4.44,1.71997,4.90002,4ZM27,48v-4h10v4h-10ZM55,41c0,.54999-.45001,1-1,1h-1v-1c0-.54999-.45001-1-1-1s-1,.45001-1,1v1h-2v-1c0-.54999-.45001-1-1-1s-1,.45001-1,1v1H10c-.54999,0-1-.45001-1-1v-3h46v3ZM55,36H9V11c0-.54999.45001-1,1-1h44c.54999,0,1,.45001,1,1v25Z"/>
        <path d="M52,13h-8c-.55225,0-1,.44727-1,1s.44775,1,1,1h8c.55225,0,1-.44727,1-1s-.44775-1-1-1Z"/>
        <path d="M52,18h-8c-.55225,0-1,.44727-1,1s.44775,1,1,1h8c.55225,0,1-.44727,1-1s-.44775-1-1-1Z"/>
        <path d="M52,23h-8c-.55225,0-1,.44727-1,1s.44775,1,1,1h8c.55225,0,1-.44727,1-1s-.44775-1-1-1Z"/>
        <path d="M52,28H12c-.55225,0-1,.44727-1,1s.44775,1,1,1h40c.55225,0,1-.44727,1-1s-.44775-1-1-1Z"/>
        <path d="M52,32H12c-.55225,0-1,.44727-1,1s.44775,1,1,1h40c.55225,0,1-.44727,1-1s-.44775-1-1-1Z"/>
      </g>
    </g>
  </g>
</svg>