<?xml version="1.0" encoding="UTF-8"?>
<svg id="Outline" xmlns="http://www.w3.org/2000/svg" version="1.1" viewBox="0 0 64 64">
  <circle cx="17" cy="52" r="1" fill="#000" stroke-width="0"/>
  <circle cx="47" cy="52" r="1" fill="#000" stroke-width="0"/>
  <path d="M56,47v-7c0-.22003-.07001-.42999-.20001-.60004l-6-8c-.19-.25-.48999-.39996-.79999-.39996h-10V13c0-.54999-.45001-1-1-1h-7v-1c0-.54999-.45001-1-1-1h-3.13c-.44-1.72003-2.01001-3-3.87-3s-3.42999,1.27997-3.87,3h-3.13c-.54999,0-1,.45001-1,1v1h-7c-.54999,0-1,.45001-1,1v39c0,.54999.45001,1,1,1h4.09998c.47003,2.27997,2.49005,4,4.90002,4s4.42999-1.72003,4.90002-4h4.09998c.54999,0,1-.45001,1-1s-.45001-1-1-1h-4.09998c-.15002-.73999-.48004-1.42004-.93005-2h22.06006c-.45001.57996-.78003,1.26001-.93005,2h-8.09998c-.54999,0-1,.45001-1,1s.45001,1,1,1h8.09998c.47003,2.27997,2.49005,4,4.90002,4s4.42999-1.72003,4.90002-4h4.09998c.54999,0,1-.45001,1-1v-4c0-.54999-.45001-1-1-1ZM17,12h3c.54999,0,1-.45001,1-1,0-1.10004.90002-2,2-2s2,.89996,2,2c0,.54999.45001,1,1,1h3v2h-12v-2ZM12.09998,51h-3.09998v-2h4.03003c-.45001.57996-.78003,1.26001-.93005,2ZM17,55c-1.65002,0-3-1.35004-3-3s1.34998-3,3-3,3,1.34998,3,3-1.34998,3-3,3ZM37,47H9V14h6v1c0,.54999.45001,1,1,1h14c.54999,0,1-.45001,1-1v-1h6v33ZM53,39h-4v-2h2.5l1.5,2ZM47,55c-1.65002,0-3-1.35004-3-3s1.34998-3,3-3,3,1.34998,3,3-1.34998,3-3,3ZM39,47v-14h9.5l1.5,2h-8c-.54999,0-1,.45001-1,1v4c0,.54999.45001,1,1,1h12v2h-2c-.54999,0-1,.45001-1,1s.45001,1,1,1h2v2h-15ZM47,37v2h-4v-2h4ZM55,51h-3.09998c-.15002-.73999-.48004-1.42004-.93005-2h4.03003v2Z" fill="#000" stroke-width="0"/>
  <path d="M17.29297,27.29297l-1.29297,1.29297-.29297-.29297c-.39062-.39062-1.02344-.39062-1.41406,0s-.39062,1.02344,0,1.41406l.99998.99998c.37825.37825,1.03813.37598,1.41408.00002l2-2c.39062-.39062.39062-1.02344,0-1.41406s-1.02344-.39062-1.41406,0Z" fill="#000" stroke-width="0"/>
  <path d="M12,34h7c.55225,0,1-.44775,1-1s-.44775-1-1-1h-6v-5c0-.55225-.44775-1-1-1s-1,.44775-1,1v6c0,.55225.44775,1,1,1Z" fill="#000" stroke-width="0"/>
  <path d="M23,29h6c.55225,0,1-.44775,1-1s-.44775-1-1-1h-6c-.55225,0-1,.44775-1,1s.44775,1,1,1Z" fill="#000" stroke-width="0"/>
  <path d="M34,31h-11c-.55225,0-1,.44775-1,1s.44775,1,1,1h11c.55273,0,1-.44775,1-1s-.44727-1-1-1Z" fill="#000" stroke-width="0"/>
  <path d="M17.29297,37.29297l-1.29297,1.29297-.29297-.29297c-.39062-.39062-1.02344-.39062-1.41406,0s-.39062,1.02344,0,1.41406c0,0,1,1,1.00003,1.00003.3875.38747,1.02665.38735,1.41403-.00003l2-2c.39062-.39062.39062-1.02344,0-1.41406s-1.02344-.39062-1.41406,0Z" fill="#000" stroke-width="0"/>
  <path d="M20,43c0-.55225-.44775-1-1-1h-6v-5c0-.55225-.44775-1-1-1s-1,.44775-1,1v6c0,.55225.44775,1,1,1h7c.55225,0,1-.44775,1-1Z" fill="#000" stroke-width="0"/>
  <path d="M23,39h6c.55225,0,1-.44775,1-1s-.44775-1-1-1h-6c-.55225,0-1,.44775-1,1s.44775,1,1,1Z" fill="#000" stroke-width="0"/>
  <path d="M34,41h-11c-.55225,0-1,.44775-1,1s.44775,1,1,1h11c.55273,0,1-.44775,1-1s-.44727-1-1-1Z" fill="#000" stroke-width="0"/>
  <path d="M12,24h22c.55273,0,1-.44775,1-1v-4c0-.55225-.44727-1-1-1H12c-.55225,0-1,.44775-1,1v4c0,.55225.44775,1,1,1ZM13,20h20v2H13v-2Z" fill="#000" stroke-width="0"/>
  <circle cx="30" cy="52" r="1" fill="#000" stroke-width="0"/>
</svg>