<?xml version="1.0" encoding="UTF-8"?>
<svg xmlns="http://www.w3.org/2000/svg" version="1.1" viewBox="0 0 64 64">
  <!-- Generator: Adobe Illustrator 28.7.1, SVG Export Plug-In . SVG Version: 1.2.0 Build 142)  -->
  <g>
    <g id="Outline">
      <g>
        <path d="M24,11h-4c-.55225,0-1,.44775-1,1s.44775,1,1,1h4c.55225,0,1-.44775,1-1s-.44775-1-1-1Z"/>
        <path d="M44,11h-4c-.55225,0-1,.44775-1,1s.44775,1,1,1h4c.55225,0,1-.44775,1-1s-.44775-1-1-1Z"/>
        <path d="M56,9h-7v-1c0-.54999-.45001-1-1-1h-12c-.54999,0-1,.45001-1,1v1h-6v-1c0-.54999-.45001-1-1-1h-12c-.54999,0-1,.45001-1,1v1h-7c-.54999,0-1,.45001-1,1v4c0,.54999.45001,1,1,1h7v1c0,.54999.45001,1,1,1h12c.54999,0,1-.45001,1-1v-1h6v1c0,.54999.45001,1,1,1h12c.54999,0,1-.45001,1-1v-1h7c.54999,0,1-.45001,1-1v-4c0-.54999-.45001-1-1-1ZM15,13h-6v-2h6v2ZM27,15h-10v-6h10v6ZM35,13h-6v-2h6v2ZM47,15h-10v-6h10v6ZM55,13h-6v-2h6v2Z"/>
        <path d="M56,55h-23v-1.34003c0-3.25,1.22998-6.29999,3.44-8.65997h2.56c4.40997,0,8-3.59003,8-8v-3c0-.54999-.45001-1-1-1h-3c-4.40997,0-8,3.58997-8,8v2.62c-1.34003,1.41998-2.37,3.06-3.03998,4.83997-.72003-1.73999-1.72003-3.34998-2.96002-4.77997v-2.67999c0-4.41003-3.59003-8-8-8h-3c-.54999,0-1,.45001-1,1v3c0,4.40997,3.59003,8,8,8h2.5c1.75979,2.04974,2.97968,4.51935,3.51982,7.19903.09427.46766-.01982.98261-.01982,1.46095v1.34003H8c-.54999,0-1,.45001-1,1s.45001,1,1,1h48c.54999,0,1-.45001,1-1s-.45001-1-1-1ZM37,41c0-3.31,2.69-6,6-6h2v2c0,3.31-2.69,6-6,6h-2v-2ZM27,43h-2c-3.31,0-6-2.69-6-6v-2h2c3.31,0,6,2.69,6,6v2Z"/>
        <path d="M32,36c2.20557,0,4-1.79443,4-4,0-1.94141-2.71191-5.06201-3.25586-5.66797-.37891-.42285-1.10938-.42285-1.48828,0-.54395.60596-3.25586,3.72656-3.25586,5.66797,0,2.20557,1.79443,4,4,4ZM31.99951,28.54883c1.06299,1.33252,2.00049,2.83154,2.00049,3.45117,0,1.10303-.89697,2-2,2s-2-.89697-2-2c0-.63721.93945-2.12549,1.99951-3.45117Z"/>
        <path d="M44,25c0-1.94141-2.71191-5.06201-3.25586-5.66797-.37891-.42285-1.10938-.42285-1.48828,0-.54395.60596-3.25586,3.72656-3.25586,5.66797,0,2.20557,1.79443,4,4,4s4-1.79443,4-4ZM38,25c0-.63721.93945-2.12549,1.99951-3.45117,1.06299,1.33252,2.00049,2.83154,2.00049,3.45117,0,1.10303-.89697,2-2,2s-2-.89697-2-2Z"/>
        <path d="M23.25586,19.33203c-.54395.60596-3.25586,3.72656-3.25586,5.66797,0,2.20557,1.79443,4,4,4s4-1.79443,4-4c0-1.94141-2.71191-5.06201-3.25586-5.66797-.37891-.42285-1.10938-.42285-1.48828,0ZM24,27c-1.10303,0-2-.89697-2-2,0-.63721.93945-2.12549,1.99951-3.45117,1.06299,1.33252,2.00049,2.83154,2.00049,3.45117,0,1.10303-.89697,2-2,2Z"/>
        <path d="M53,19h-4c-.55225,0-1,.44775-1,1v5h-1c-.4043,0-.76904.24365-.92383.61719-.15479.37402-.06934.80371.2168,1.08984l4,4c.19531.19531.45117.29297.70703.29297s.51172-.09766.70703-.29297l4-4c.28613-.28613.37158-.71582.2168-1.08984-.15479-.37354-.51953-.61719-.92383-.61719h-1v-5c0-.55225-.44775-1-1-1ZM51,28.58594l-1.64893-1.64941c.37891-.14209.64893-.50781.64893-.93652v-5h2v5c0,.42871.27002.79443.64893.93652l-1.64893,1.64941Z"/>
        <path d="M15,19h-4c-.55225,0-1,.44775-1,1v5h-1c-.4043,0-.76904.24365-.92383.61719-.15479.37402-.06934.80371.2168,1.08984l4,4c.19531.19531.45117.29297.70703.29297s.51172-.09766.70703-.29297l4-4c.28613-.28613.37158-.71582.2168-1.08984-.15479-.37354-.51953-.61719-.92383-.61719h-1v-5c0-.55225-.44775-1-1-1ZM13,28.58594l-1.64893-1.64941c.37891-.14209.64893-.50781.64893-.93652v-5h2v5c0,.42871.27002.79443.64893.93652l-1.64893,1.64941Z"/>
      </g>
    </g>
  </g>
</svg>