<?xml version="1.0" encoding="UTF-8"?>
<svg xmlns="http://www.w3.org/2000/svg" version="1.1" viewBox="0 0 64 64">
  <!-- Generator: Adobe Illustrator 28.7.1, SVG Export Plug-In . SVG Version: 1.2.0 Build 142)  -->
  <g>
    <g id="Outline">
      <g>
        <path d="M48.07025,20.01031c1.37152-2.17078,2.6441-4.63074,2.6441-6.29645,0-3.70215-3.01221-6.71387-6.71436-6.71387-3.67938,0-6.67426,2.97565-6.71094,6.64648-1.71722-.42664-3.48926-.64648-5.28906-.64648-12.13086,0-22,9.86914-22,22s9.86914,22,22,22,22-9.86914,22-22c0-5.62268-2.11316-10.9035-5.92975-14.98969ZM51.70862,31.69617l-1.24768.20813c-.60645.10352-1.18115.40137-1.61816.83887l-1.78955,1.79004c-.71045.70898-1.01855,1.72266-.82373,2.71289l.57959,2.89746c.06592.33594-.03418.66797-.27588.90918l-1.96924,1.96973c-.08789.08789-.19385.15918-.30762.20898l-3.57275,1.53027c-.46533.20117-.83398-.00684-.97119-.10645-.14014-.10059-.46094-.39062-.41699-.90332l.57031-6.20996c.12012-1.30176-.60938-2.52051-1.81104-3.03125l-4.44385-1.90723c-.37109-.16211-.61084-.52539-.61084-.92383v-1.35938c0-.39844.23975-.76172.60303-.91992l3.84473-1.64355c.75977-.3291,1.35693-.96387,1.6377-1.74023.2832-.7832.23242-1.62402-.14111-2.36426l-1.75439-3.50879c-.29541-.57617-.75635-1.03711-1.34131-1.33691l-2.2915-1.15137c-.34375-.17188-.55713-.51465-.55713-.89551v-1.72064c1.62714.08008,3.2215.35364,4.76013.81982,1.31598,3.52826,4.96307,8.14655,5.45959,8.76605.18994.2373.47656.375.78027.375s.59033-.1377.78027-.375c.22833-.28491,1.12378-1.4162,2.15228-2.89789,2.5257,2.83459,4.16345,6.26501,4.77606,9.96906ZM44,9c2.59961,0,4.71436,2.11426,4.71436,4.71387,0,1.80469-2.63525,5.89844-4.71436,8.65527-2.0791-2.75684-4.71436-6.85059-4.71436-8.65527,0-2.59961,2.11475-4.71387,4.71436-4.71387ZM26.1604,15.87457l.51196.85004c.146.24316.17871.55469.09033.8252l-.23389.69043c-.41699,1.28223.0708,2.69727,1.18604,3.44141l.84375.5625c.27637.18262.44141.49219.44141.82617v.29004c0,.47266-.33984.88477-.80762.97949l-1.78125.35938c-1.39697.2832-2.41113,1.51953-2.41113,2.94043v.53027c0,.26855-.10547.52148-.29688.71289l-1.82031,1.82031c-.19141.19141-.44482.29688-.71289.29688h-2.52979c-1.42139,0-2.65771,1.01465-2.94043,2.41211l-.49072,2.43457c-.06006.30469-.25439.56055-.52539.69922l-2.46777,1.23047c-.12726-.90991-.21582-1.83191-.21582-2.77637,0-8.99689,5.97308-16.62048,14.1604-19.12543ZM16.85681,48.0271l1.32043-1.64819c.19482-.24121.47998-.37891.82275-.37891,1.6543,0,3-1.3457,3-3v-2.87012c0-.34668.18604-.67285.48535-.85254l3.17334-1.90723c.27246-.16211.59717-.18848.88965-.07129l3.07275,1.23047c.31592.125.54297.39551.6084.72754l.64062,3.18359c.04883.23828.00488.49121-.12744.70508l-1.95166,3.25195c-.59375.99512-.56299,2.25586.07275,3.2002l.1958.29883c.44336.66211,1.12109,1.1123,1.90771,1.26953.78857.1543,1.58691-.00195,2.25146-.44629l.44971-.30371c.27441-.17969.63867-.21582.93945-.09766l3.22656,1.29199c.24951.09766.45654.30566.55762.5625l.61639,1.53497c-2.18488.82147-4.54004,1.29218-7.00848,1.29218-6.05164,0-11.47266-2.71228-15.14319-6.9729ZM40.84381,52.91132l-.59283-1.47675c-.30127-.76855-.91553-1.38379-1.67871-1.68359l-3.22705-1.29199c-.9165-.36133-1.95312-.25391-2.78369.29102l-.4585.30957c-.21729.14551-.48242.19922-.74512.14453-.26416-.05273-.49023-.20215-.63135-.41211l-.19678-.2998c-.21533-.32129-.22363-.73047-.02246-1.06738l1.94336-3.23828c.396-.64062.53076-1.40332.37988-2.14355l-.63965-3.17676c-.19629-.99805-.88135-1.81836-1.8291-2.19531l-3.07275-1.23047c-.87158-.34375-1.8374-.27051-2.6543.21191l-3.1792,1.91016c-.89795.53906-1.45557,1.52246-1.45557,2.56738v2.87012c0,.55176-.44873,1-1.04004,1-.90918,0-1.76123.4082-2.34033,1.125l-1.02612,1.28094c-1.37299-1.96881-2.38806-4.19672-2.98334-6.59216l2.97333-1.48273c.82959-.42188,1.4082-1.18652,1.58691-2.09277l.48975-2.42969c.09473-.46875.50684-.80859.97998-.80859h2.52979c.80225,0,1.55762-.31348,2.12695-.88281l1.82031-1.82031c.56934-.56934.88281-1.32422.88281-2.12695v-.53027c0-.47266.33984-.88477.80762-.97949l1.78125-.35938c1.39697-.2832,2.41113-1.51953,2.41113-2.94043v-.29004c0-1.00781-.50049-1.94043-1.33496-2.49219l-.84033-.56055c-.37305-.24902-.53467-.72461-.39746-1.14746l.23291-.68848c.27393-.83496.17432-1.74121-.27393-2.4873l-.19324-.32074c.91406-.17706,1.85358-.27545,2.80701-.32294v1.70911c0,1.14258.63721,2.17188,1.66113,2.68359l2.28223,1.14648c.20508.10547.36182.26172.46191.45703l1.75195,3.50293c.12451.24707.14111.52637.04736.78613-.0957.26562-.29199.47363-.54785.58398l-3.84766,1.64453c-1.09912.48047-1.80908,1.5625-1.80908,2.75586v1.35938c0,1.19336.70996,2.27539,1.81543,2.75879l4.45361,1.91113c.40186.1709.64502.57617.60547,1.00879l-.5708,6.21582c-.09229,1.06738.37158,2.07812,1.23926,2.7041.52197.37598,1.12939.56836,1.74365.56836.40039,0,.80371-.08203,1.18701-.24805l3.57715-1.53223c.34961-.15234.66064-.36426.92627-.62891l1.96973-1.9707c.71045-.70898,1.01855-1.72266.82373-2.71289l-.57959-2.89746c-.06592-.33594.03418-.66797.27588-.90918l1.79004-1.79004c.14746-.14746.33984-.24707.5376-.28125l1.14136-.19025c.0282.43689.06421.87238.06421,1.31427,0,7.85071-4.55792,14.63959-11.15619,17.91132Z"/>
        <path d="M47,14c0-1.6543-1.3457-3-3-3s-3,1.3457-3,3,1.3457,3,3,3,3-1.3457,3-3ZM43,14c0-.55176.44873-1,1-1s1,.44824,1,1-.44873,1-1,1-1-.44824-1-1Z"/>
      </g>
    </g>
  </g>
</svg>