<?xml version="1.0" encoding="utf-8"?>
<!-- Generator: Adobe Illustrator 28.2.0, SVG Export Plug-In . SVG Version: 6.00 Build 0)  -->
<svg version="1.1" id="Outline" xmlns="http://www.w3.org/2000/svg" xmlns:xlink="http://www.w3.org/1999/xlink" x="0px" y="0px"
	 viewBox="0 0 64 64" enable-background="new 0 0 64 64" xml:space="preserve">
<g>
	<path d="M18,11h-4c-0.55273,0-1,0.44775-1,1s0.44727,1,1,1h4c0.55273,0,1-0.44775,1-1S18.55273,11,18,11z"/>
	<path d="M18,22h-2.13184l0.96387-1.44531c0.30664-0.45947,0.18262-1.08057-0.27734-1.38672
		c-0.46191-0.30762-1.08203-0.18213-1.38672,0.27734l-2,3c-0.2041,0.30664-0.22363,0.70117-0.0498,1.02637S13.63086,24,14,24
		h2.13184l-0.96387,1.44531c-0.30664,0.45947-0.18262,1.08057,0.27742,1.38677c0.45625,0.30367,1.08375,0.17772,1.38664-0.27739l2-3
		c0.2041-0.30664,0.22363-0.70117,0.0498-1.02637S18.36914,22,18,22z"/>
	<path d="M20,53c0.55273,0,1-0.44775,1-1V34c0-0.55225-0.44727-1-1-1h-8c-0.55273,0-1,0.44775-1,1v18c0,0.55225,0.44727,1,1,1H20z
		 M13,35h6v16h-6V35z"/>
	<path d="M56,27H45c-0.40997,0-0.78003,0.25-0.92999,0.63l-3.94,9.84998l-4.90002,5.88C35.08002,43.53998,35,43.76996,35,44v2h-3
		c-0.54999,0-1-0.45001-1-1v-6c0-1.65002-1.34998-3-3-3h-3V18c0-1.29999-0.84003-2.40002-2-2.82001V10c0-1.65002-1.34998-3-3-3h-8
		c-1.65002,0-3,1.34998-3,3v5.17999C7.84003,15.59998,7,16.70001,7,18v21c0,0.54999,0.45001,1,1,1s1-0.45001,1-1v-8h14v24H9v-8
		c0-0.54999-0.45001-1-1-1s-1,0.45001-1,1v9c0,0.54999,0.45001,1,1,1h16c0.54999,0,1-0.45001,1-1V38h3c0.54999,0,1,0.45001,1,1v6
		c0,1.64996,1.34998,3,3,3h3v2c0,0.54999,0.45001,1,1,1h4v2c0,2.20996,1.78998,4,4,4s4-1.79004,4-4v-2h8c0.54999,0,1-0.45001,1-1V28
		C57,27.45001,56.54999,27,56,27z M11,10c0-0.54999,0.45001-1,1-1h8c0.54999,0,1,0.45001,1,1v5H11V10z M23,29H9V18
		c0-0.54999,0.45001-1,1-1h12c0.54999,0,1,0.45001,1,1V29z M46,53c0,1.09998-0.90002,2-2,2s-2-0.90002-2-2v-2h4V53z M55,43h-6v-1
		c0-0.54999-0.45001-1-1-1h-5c-0.31,0-0.60999,0.14996-0.79999,0.39996l-3,4c-0.23004,0.30005-0.26001,0.71002-0.09003,1.05005
		C39.28003,46.78998,39.62,47,40,47h8c0.54999,0,1-0.45001,1-1v-1h6v4H37v-4.64001L41.46997,39H55V43z M47,43v2h-5l1.5-2H47z M55,37
		H42.47998l3.20001-8H55V37z"/>
	<circle cx="8" cy="43" r="1"/>
</g>
</svg>
