<?xml version="1.0" encoding="utf-8"?>
<!-- Generator: Adobe Illustrator 28.2.0, SVG Export Plug-In . SVG Version: 6.00 Build 0)  -->
<svg version="1.1" id="Outline" xmlns="http://www.w3.org/2000/svg" xmlns:xlink="http://www.w3.org/1999/xlink" x="0px" y="0px"
	 viewBox="0 0 64 64" enable-background="new 0 0 64 64" xml:space="preserve">
<g>
	<path d="M18,46h14c1.6543,0,3-1.3457,3-3v-2c0-0.55273-0.44727-1-1-1s-1,0.44727-1,1v2c0,0.55176-0.44824,1-1,1H18
		c-0.55176,0-1-0.44824-1-1V29.84692l2.04492-0.34106c1.87988-0.31152,3.83203-0.1582,5.63867,0.44238
		c1.40234,0.46777,2.87598,0.7041,4.35156,0.7041c0.75195,0,1.50488-0.06152,2.24805-0.18555L33,30.18048V33
		c0,0.55273,0.44727,1,1,1s1-0.44727,1-1V17c0-1.6543-1.3457-3-3-3v-3c0-0.55273-0.44727-1-1-1H19c-0.55273,0-1,0.44727-1,1v3
		c-1.6543,0-3,1.3457-3,3v26C15,44.6543,16.3457,46,18,46z M20,12h10v2H20V12z M18,16h1h12h1c0.55176,0,1,0.44824,1,1v11.15308
		l-2.04492,0.34106c-1.87988,0.3125-3.83105,0.15918-5.63867-0.44238c-2.11621-0.70605-4.39746-0.88574-6.59961-0.51855L17,27.81952
		V17C17,16.44824,17.44824,16,18,16z"/>
	<path d="M56,22h-1v-2c0-0.55273-0.44727-1-1-1s-1,0.44727-1,1v2h-2v-2c0-0.55273-0.44727-1-1-1s-1,0.44727-1,1v2h-1
		c-0.55273,0-1,0.44727-1,1v4c0,2.41443,1.7207,4.43427,4,4.89893V48c0,0.55176-0.44824,1-1,1h-7v-4c0-0.55273-0.44727-1-1-1h-4
		c-0.55273,0-1,0.44727-1,1v3H13v-3c0-0.55273-0.44727-1-1-1H8c-0.55273,0-1,0.44727-1,1v8c0,0.55273,0.44727,1,1,1h34
		c0.55273,0,1-0.44727,1-1v-2h7c1.6543,0,3-1.3457,3-3V31.89893c2.2793-0.46466,4-2.4845,4-4.89893v-4
		C57,22.44727,56.55273,22,56,22z M41,52H9v-6h2v3c0,0.55273,0.44727,1,1,1h26c0.55273,0,1-0.44727,1-1v-3h2V52z M55,27
		c0,1.6543-1.3457,3-3,3s-3-1.3457-3-3v-3h6V27z"/>
	<path d="M24.44532,40.83236c0.4585,0.30391,1.08318,0.17873,1.38671-0.27735l2-3c0.2041-0.30664,0.22363-0.70117,0.0498-1.02637
		S27.36914,36.00033,27,36.00033h-2.13184l0.96387-1.44531c0.30664-0.45996,0.18262-1.08008-0.27734-1.38672
		c-0.46191-0.30664-1.08105-0.18262-1.38672,0.27734l-2,3c-0.2041,0.30664-0.22363,0.70117-0.0498,1.02637
		S22.63086,38.00033,23,38.00033h2.13184l-0.96387,1.44531C23.86133,39.9056,23.98535,40.52572,24.44532,40.83236z"/>
	<circle cx="34" cy="37" r="1"/>
</g>
</svg>
