<?xml version="1.0" encoding="UTF-8"?>
<svg xmlns="http://www.w3.org/2000/svg" version="1.1" viewBox="0 0 64 64">
  <!-- Generator: Adobe Illustrator 28.7.1, SVG Export Plug-In . SVG Version: 1.2.0 Build 142)  -->
  <g>
    <g id="Outline">
      <g>
        <path d="M32,11c.55225,0,1-.44775,1-1v-2c0-.55225-.44775-1-1-1s-1,.44775-1,1v2c0,.55225.44775,1,1,1Z"/>
        <path d="M18.56494,15.979c.37028.37028,1.02859.38547,1.41406,0,.39062-.39062.39062-1.02344,0-1.41406l-1.41406-1.41406c-.39062-.39062-1.02344-.39062-1.41406,0s-.39062,1.02344,0,1.41406c0,0,1.41174,1.41174,1.41406,1.41406Z"/>
        <path d="M14,27h-2c-.55225,0-1,.44775-1,1s.44775,1,1,1h2c.55225,0,1-.44775,1-1s-.44775-1-1-1Z"/>
        <path d="M45.43506,13.15088l-1.41406,1.41406c-.39061.39061-.39062,1.02339-.00004,1.41402.37001.37005,1.02813.38602,1.41411.00004l1.41406-1.41406c.39062-.39062.39062-1.02344,0-1.41406s-1.02344-.39062-1.41406,0Z"/>
        <path d="M52,27h-2c-.55225,0-1,.44775-1,1s.44775,1,1,1h2c.55225,0,1-.44775,1-1s-.44775-1-1-1Z"/>
        <path d="M47,28c0-4.26001-1.82001-8.34003-5-11.17999-3.21997-2.88-7.38-4.20001-11.71002-3.72003-2.63.29004-5.13995,1.29004-7.25995,2.90002-.44.33997-.53003.95996-.20001,1.39996.33997.44.95996.53003,1.39996.20001,1.84003-1.39001,4.01001-2.26001,6.28003-2.52002,3.77002-.40997,7.37.73004,10.15997,3.23004,2.75,2.45996,4.33002,6,4.33002,9.69,0,3.60999-1.52002,7.07996-4.17999,9.52997-1.54999,1.44-2.52002,3.39001-2.76001,5.47003h-12.10999c-.23004-2.10999-1.17999-4.03003-2.66998-5.37-3.16003-2.86005-4.69-6.94-4.19-11.19.25995-2.23999,1.12994-4.38,2.50995-6.21002.33002-.44.24005-1.07001-.19995-1.40002-.44-.32996-1.07001-.23999-1.40002.20001-1.59003,2.10004-2.59003,4.59003-2.89001,7.17004-.57996,4.90997,1.17999,9.62,4.83002,12.90997,1.13,1.01001,1.83002,2.46997,2.01001,4.09003-.40002.13995-.76001.37-1.06.66998-.57001.56-.89001,1.32001-.89001,2.13,0,.76996.29999,1.46997.78003,2-.5.54999-.78003,1.25-.78003,2,0,1.64996,1.34998,3,3,3v1c0,1.64996,1.34998,3,3,3h8c1.65002,0,3-1.35004,3-3v-1c.81,0,1.57001-.32001,2.10999-.87.57001-.56.89001-1.32001.89001-2.13,0-.77002-.29999-1.47003-.78003-2,.5-.54999.78003-1.25.78003-2,0-1.28003-.81-2.37-1.95001-2.79999.19-1.60004.94-3.10004,2.13-4.20001,3.06-2.83002,4.82001-6.83002,4.82001-11ZM37,54c0,.54999-.45001,1-1,1h-8c-.54999,0-1-.45001-1-1v-1h10v1ZM34,49h4.99999c1.25388,0,1.31104,2,.00001,2h-14c-.5499,0-.99985-.44986-1-.99972-.00015-.53861.46335-1.00028,1-1.00028h5c.54999,0,1-.45001,1-1s-.45001-1-1-1h-5c-.54989,0-.99983-.44985-1-.9997-.00016-.53204.47194-1.0003,1-1.0003h14c.54995,0,.99993.44994,1,.99987.00007.53826-.46288,1.00013-1,1.00013h-5c-.54999,0-1,.45001-1,1s.45001,1,1,1Z"/>
        <path d="M27.20166,35.60205c.18896.25049.48438.39795.79834.39795h3v3.99998c0,1.0039,1.38507,1.3665,1.87402.48586l5-9c.17236-.31006.16748-.6875-.01221-.99316-.17969-.30518-.50732-.49268-.86182-.49268h-2.61279l.56152-1.68359c.10156-.30518.05029-.64014-.1377-.90088-.18799-.26123-.48975-.41553-.81104-.41553h-4c-.44629,0-.83887.2959-.96143.7251l-2,7c-.08643.30176-.02588.62646.16309.87695ZM30.75439,29h1.8584l-.56152,1.68359c-.10156.30518-.05029.64014.1377.90088.18799.26123.48975.41553.81104.41553h2.30029l-2.30029,4.14111v-1.14111c0-.55225-.44775-1-1-1h-2.67432l1.42871-5Z"/>
        <path d="M32,17c-.55225,0-1,.44775-1,1v3.58594l-.29297-.29297c-.39062-.39062-1.02344-.39062-1.41406,0s-.39062,1.02344,0,1.41406l2,2c.19531.19531.45117.29297.70703.29297s.51172-.09766.70703-.29297l2-2c.39062-.39062.39062-1.02344,0-1.41406s-1.02344-.39062-1.41406,0l-.29297.29297v-3.58594c0-.55225-.44775-1-1-1Z"/>
      </g>
    </g>
  </g>
</svg>