<?xml version="1.0" encoding="utf-8"?>
<!-- Generator: Adobe Illustrator 27.3.1, SVG Export Plug-In . SVG Version: 6.00 Build 0)  -->
<svg version="1.1" id="Outline" xmlns="http://www.w3.org/2000/svg" xmlns:xlink="http://www.w3.org/1999/xlink" x="0px" y="0px"
	 viewBox="0 0 64 64" enable-background="new 0 0 64 64" xml:space="preserve">
<g>
	<path d="M56.48486,36.125c-0.31885-0.1748-0.70654-0.16699-1.01465,0.02734l-2.40039,1.5
		c-1.15381,0.72168-2.58643,0.72168-3.74219-0.00195c-0.94531-0.58691-2.04565-0.85059-3.13611-0.81067
		C46.72101,35.29303,47,33.67438,47,32C47,20.69434,33.26514,7.81055,32.68066,7.26758c-0.38379-0.35742-0.97754-0.35742-1.36133,0
		C30.73486,7.81055,17,20.69434,17,32c0,1.67438,0.27899,3.29303,0.80847,4.83972c-1.09045-0.03992-2.1908,0.22375-3.13611,0.81067
		c-1.13672,0.70605-2.60986,0.70508-3.74268,0.00195c0,0-2.39465-1.49677-2.3999-1.5C7.86981,35.73981,7,36.22662,7,37v19
		c0,0.55273,0.44775,1,1,1h20c0.55225,0,1-0.44727,1-1s-0.44775-1-1-1H9v-3.22015c1.71899,0.64337,3.69086,0.5116,5.29834-0.41266
		c1.29102-0.74316,2.91309-0.74219,4.20312,0c1.89502,1.08984,4.29932,1.08984,6.19727,0c1.29004-0.74316,2.9126-0.74219,4.20264,0
		c1.89746,1.08984,4.2998,1.08984,6.19727,0c1.29004-0.74121,2.9126-0.74219,4.20264,0
		c0.94873,0.54492,2.02002,0.83301,3.09863,0.83301c1.0791,0,2.15088-0.28809,3.09863-0.83301
		c1.29004-0.74121,2.91357-0.74121,4.20166-0.00098c1.62177,0.93597,3.57483,1.06927,5.2998,0.41638V55H36c-0.55225,0-1,0.44727-1,1
		s0.44775,1,1,1h20c0.55225,0,1-0.44727,1-1c0,0,0-18.99133,0-19C57,36.6676,56.81073,36.30621,56.48486,36.125z M32,9.39453
		C34.76514,12.14258,45,22.92969,45,32c0,1.93018-0.42212,3.77411-1.22992,5.49396c-0.09894,0.05316-0.20197,0.0968-0.29791,0.15643
		c-0.71216,0.4436-1.55585,0.60846-2.36597,0.49615C42.32916,36.3432,43,34.2113,43,32c0-7.00879-7.17725-15.59863-10.2627-18.96582
		c-0.18945-0.20605-0.45703-0.32422-0.7373-0.32422h-0.00049c-0.28076,0-0.54834,0.11816-0.7373,0.3252
		C28.17676,16.40918,21,25.0127,21,32c0,2.211,0.67065,4.34277,1.89331,6.14587c-0.81018,0.11212-1.65363-0.05255-2.36548-0.49548
		c-0.09595-0.05963-0.19897-0.10327-0.29791-0.15643C19.42212,35.77411,19,33.93018,19,32C19,22.92969,29.23486,12.14258,32,9.39453
		z M30,28h-1.1958L32,22.88672L35.1958,28H34c-0.55225,0-1,0.44727-1,1v9.03656c-0.65155,0.18933-1.34851,0.18927-2-0.00006V29
		C31,28.44727,30.55225,28,30,28z M35.00165,30.00214c0.5285-0.10284,1.07196,0.02942,1.61041,0.02942
		c0.83356,0,1.81482-0.63348,1.23608-1.56183l-5-8c-0.36621-0.58398-1.33008-0.58398-1.69629,0c0,0-4.97144,7.95428-4.99988,7.99982
		C25.74023,29.1283,26.22882,30,27,30h2v7.133c-1.37152-0.46387-2.89587-0.38324-4.20959,0.24542
		C23.63184,35.83527,23,33.95422,23,32c0-5.87793,6.1665-13.56934,9.00104-16.79297
		c4.65009,5.27893,12.35944,14.66681,7.41754,21.89368c-0.05902,0.0863-0.12781,0.17755-0.22888,0.2041
		c-0.0979,0.0257-0.19928-0.01617-0.29285-0.05469c-1.22949-0.50574-2.64368-0.54712-3.90063-0.11407
		C34.99805,34.75812,34.99988,32.38013,35.00165,30.00214z M55,49.57544l-0.1001,0.05835
		c-1.29541,0.74707-2.90479,0.74805-4.20117-0.00098c-1.89746-1.08887-4.30176-1.08887-6.19727,0
		c-1.28906,0.74219-2.91113,0.74316-4.20312,0c-1.89551-1.08887-4.30127-1.08887-6.19678,0
		c-1.29102,0.74219-2.91211,0.74219-4.20312,0c-1.89502-1.08984-4.30078-1.08984-6.19678,0
		c-1.2915,0.74219-2.91406,0.74121-4.20312,0c-1.89502-1.08984-4.29932-1.08984-6.19727,0
		c-1.29053,0.74219-2.91797,0.73828-4.19775,0.00293L9,49.57544V45.7796c1.71899,0.64313,3.69086,0.51263,5.29834-0.41241
		c1.29102-0.74316,2.91309-0.74219,4.20312,0c1.89502,1.08887,4.29932,1.09082,6.19727,0c1.29004-0.74316,2.9126-0.74219,4.20264,0
		c1.89746,1.08984,4.2998,1.08984,6.19727,0c1.29004-0.74121,2.9126-0.74219,4.20264,0
		c0.94873,0.54492,2.02002,0.83301,3.09863,0.83301c1.0791,0,2.15088-0.28809,3.09863-0.83301
		c1.29004-0.74121,2.91357-0.74121,4.20166-0.00098c1.62177,0.93597,3.57483,1.06927,5.2998,0.41638V49.57544z M55,43.57544
		l-0.1001,0.05835c-1.29541,0.74707-2.90479,0.74805-4.20117-0.00098c-1.89746-1.08984-4.30176-1.08984-6.19727,0
		c-1.28906,0.74219-2.91113,0.74316-4.20312,0c-1.89551-1.08984-4.30127-1.08984-6.19678,0
		c-1.29102,0.74219-2.91211,0.74219-4.20312,0c-1.89502-1.08984-4.30078-1.08984-6.19678,0
		c-1.2915,0.74219-2.91406,0.74121-4.20312,0c-1.89502-1.08984-4.29932-1.08984-6.19727,0
		c-1.29053,0.74219-2.91797,0.73828-4.19775,0.00293L9,43.57544v-4.77075l0.87207,0.54492
		c1.77197,1.09961,4.08496,1.09961,5.85596,0c1.13477-0.70703,2.60645-0.70703,3.74414,0c1.77197,1.09961,4.08643,1.09961,5.85547,0
		c1.13574-0.70703,2.60693-0.70703,3.74463,0c1.76953,1.09961,4.08594,1.09961,5.85547,0c1.13721-0.70605,2.6084-0.70605,3.74463,0
		c1.76904,1.09961,4.0835,1.09961,5.85547,0c1.1377-0.70605,2.61182-0.7041,3.7417-0.00195
		c1.80664,1.12988,4.05273,1.13086,5.86035,0L55,38.80469V43.57544z"/>
	<path d="M9,17h2v7c0,0.55273,0.44775,1,1,1h4c0.55225,0,1-0.44727,1-1v-7c0,0,1.99469,0,2,0
		c0.77496,0,1.258-0.87286,0.84814-1.53027l-5-8c-0.36621-0.58398-1.33008-0.58398-1.69629,0c0,0-4.97699,7.9632-4.99994,7.99988
		C7.73987,16.12891,8.22797,17,9,17z M14,9.88672L17.1958,15H16c-0.55225,0-1,0.44727-1,1v7h-2v-7c0-0.55273-0.44775-1-1-1h-1.1958
		L14,9.88672z"/>
	<path d="M45,17h2v7c0,0.55273,0.44775,1,1,1h4c0.55225,0,1-0.44727,1-1v-7c0,0,1.98859,0,1.99994,0
		c0.74426,0,1.24274-0.89746,0.84821-1.53027l-5-8c-0.36621-0.58398-1.33008-0.58398-1.69629,0c0,0-4.98486,7.97577-4.99994,7.99994
		C43.74042,16.12805,44.22742,17,45,17z M50,9.88672L53.1958,15H52c-0.55225,0-1,0.44727-1,1v7h-2v-7c0-0.55273-0.44775-1-1-1
		h-1.1958L50,9.88672z"/>
	<circle cx="32" cy="56" r="1"/>
</g>
</svg>
