<?xml version="1.0" encoding="UTF-8"?>
<svg id="Outline" xmlns="http://www.w3.org/2000/svg" version="1.1" viewBox="0 0 64 64">
  <path d="M56.32025,48.47696l-4.94928-4.95013,4.24225-4.24225c.39062-.39062.39062-1.02344,0-1.41406l-.70703-.70703c-2.91083-2.91083-7.18481-3.64539-10.78662-2.20953l-7.55005-6.79694,12.91187-14.33923c.7168-.81543.67969-2.05273-.08398-2.81641-.76562-.76562-2.00391-.80176-2.82617-.07617l-14.57159,13.1178-14.5788-13.12463c-.81738-.71973-2.05469-.68262-2.81836.08301-.76367.76367-.80078,2.00098-.07617,2.8252l12.8999,14.32904-7.54584,6.79797c-3.60138-1.43579-7.87531-.70148-10.78668,2.2099l-.70703.70703c-.39062.39062-.39062,1.02344,0,1.41406l4.24225,4.24225-4.94928,4.95013c-1.16992,1.16895-1.16992,3.07227,0,4.24219.56641.56641,1.31934.87891,2.12109.87891.80078,0,1.55469-.3125,2.12109-.87891l4.95013-4.94928,4.24225,4.24225c.19518.19518.45084.29284.70653.29297.59425.0003,1.03309-.61853,1.41457-1,2.91187-2.91113,3.64703-7.18579,2.21008-10.7879l6.55737-7.27802,6.55188,7.27777c-1.43713,3.60211-.70197,7.87695,2.20996,10.78815.3896.3896.80265,1,1.41406,1,.25586,0,.51172-.09766.70703-.29297l4.24225-4.24225,4.95013,4.94928c.56641.56641,1.32031.87891,2.12109.87891.80176,0,1.55469-.3125,2.12207-.87891,1.16895-1.16992,1.16895-3.07324-.00098-4.24219ZM47.90912,12.41153l-.66895-.74316.74707.82031-12.90399,14.33032-1.58911-1.43066,14.41498-12.97681ZM10.50775,51.30508c-.37891.37793-1.03613.37793-1.41309,0h-.00098c-.38965-.38965-.38965-1.02441,0-1.41406l4.94922-4.9502,1.41504,1.41504-4.9502,4.94922ZM21.82123,49.89102l-4.24219-4.24219-2.8291-2.8291-4.24219-4.24219c3.11914-3.12012,8.19434-3.11816,11.31348,0,3.11914,3.11914,3.11914,8.19434,0,11.31348ZM24.44678,38.63797c-.3512-.51935-.75195-1.01508-1.21149-1.47449-.45959-.45959-.95557-.86047-1.47522-1.21173l7.00415-6.30994,1.89319,2.10297-6.21063,6.89319ZM29.58881,27.56894c-.00262-.00299-.00317-.00696-.00586-.00995s-.00653-.00397-.00928-.0069l-13.56104-15.06342-.74316.66895.82129-.74609,26.1488,23.54065c-.51953.35114-1.01538.75183-1.47498,1.2113-.45941.45929-.86005.95483-1.21118,1.474l-9.9646-11.06854ZM42.17865,49.89102c-3.11816-3.11914-3.11914-8.19434,0-11.31348,1.55957-1.55957,3.6084-2.33887,5.65723-2.33887,2.04785,0,4.09668.7793,5.65625,2.33887l-4.24219,4.24219-2.8291,2.8291-4.24219,4.24219ZM54.90619,51.30508h-.00098c-.37598.37793-1.0332.37793-1.41309,0l-4.9502-4.94922,1.41504-1.41504,4.94922,4.9502c.38965.38965.38965,1.02441,0,1.41406Z" style="fill: #000; stroke-width: 0px;"/>
</svg>