<?xml version="1.0" encoding="UTF-8"?>
<svg xmlns="http://www.w3.org/2000/svg" version="1.1" viewBox="0 0 64 64">
  <!-- Generator: Adobe Illustrator 28.7.1, SVG Export Plug-In . SVG Version: 1.2.0 Build 142)  -->
  <g>
    <g id="Outline">
      <g>
        <path d="M51,29.07996v-1.07996c0-1.29999-.84003-2.40002-2-2.82001v-3.17999c0-.03003-.01001-.04999-.01001-.07001,2.39001-1.39001,4.01001-3.97003,4.01001-6.92999,0-4.41003-3.59003-8-8-8s-8,3.58997-8,8c0,2.95996,1.62,5.53998,4.01001,6.92999,0,.02002-.01001.03998-.01001.07001v3.17999c-1.15997.41998-2,1.52002-2,2.82001v1h-4v-2c0-3.31-2.69-6-6-6h-4v-1c0-1.65002-1.34998-3-3-3h-6c-1.65002,0-3,1.34998-3,3v9.07996c-3.39001.49005-6,3.40002-6,6.92004v8c0,3.85999,3.14001,7,7,7h.08002c.48999,3.39001,3.39996,6,6.91998,6s6.42999-2.60999,6.91998-6h14.08002v3c0,1.64996,1.34998,3,3,3h2c1.65002,0,3-1.35004,3-3v-3c3.85999,0,7-3.14001,7-7v-8c0-3.52002-2.60999-6.42999-6-6.92004ZM39,15c0-3.31,2.69-6,6-6s6,2.69,6,6-2.69,6-6,6-6-2.69-6-6ZM47,23v2h-4v-2h4ZM41,28c0-.54999.45001-1,1-1h6c.54999,0,1,.45001,1,1v1h-8v-1ZM25,23h4c2.21002,0,4,1.78998,4,4v2h-2v-2c0-1.10004-.90002-2-2-2h-4v-2ZM25,27h4v2h-4v-2ZM15,20c0-.54999.45001-1,1-1h6c.54999,0,1,.45001,1,1v9h-8v-9ZM21,55c-2.76001,0-5-2.23999-5-5s2.23999-5,5-5,5,2.23999,5,5-2.23999,5-5,5ZM48,54c0,.54999-.45001,1-1,1h-2c-.54999,0-1-.45001-1-1v-3h4v3ZM55,44c0,2.76001-2.23999,5-5,5h-22.08002c-.48999-3.39001-3.39996-6-6.91998-6s-6.42999,2.60999-6.91998,6h-.08002c-2.76001,0-5-2.23999-5-5v-8c0-2.76001,2.23999-5,5-5h36c2.76001,0,5,2.23999,5,5v8Z"/>
        <path d="M21,47c-1.6543,0-3,1.3457-3,3s1.3457,3,3,3,3-1.3457,3-3-1.3457-3-3-3ZM21,51c-.55127,0-1-.44824-1-1s.44873-1,1-1,1,.44824,1,1-.44873,1-1,1Z"/>
        <path d="M48,15c0-1.6543-1.3457-3-3-3s-3,1.3457-3,3,1.3457,3,3,3,3-1.3457,3-3ZM44,15c0-.55176.44873-1,1-1s1,.44824,1,1-.44873,1-1,1-1-.44824-1-1Z"/>
        <path d="M20,21h-2c-.55225,0-1,.44727-1,1s.44775,1,1,1h2c.55225,0,1-.44727,1-1s-.44775-1-1-1Z"/>
        <path d="M20,25h-2c-.55225,0-1,.44727-1,1s.44775,1,1,1h2c.55225,0,1-.44727,1-1s-.44775-1-1-1Z"/>
        <path d="M50,33h-14c-1.6543,0-3,1.3457-3,3s1.3457,3,3,3h14c1.6543,0,3-1.3457,3-3s-1.3457-3-3-3ZM50,37h-14c-.55127,0-1-.44824-1-1s.44873-1,1-1h14c.55127,0,1,.44824,1,1s-.44873,1-1,1Z"/>
        <path d="M50,41h-14c-1.6543,0-3,1.3457-3,3s1.3457,3,3,3h14c1.6543,0,3-1.3457,3-3s-1.3457-3-3-3ZM50,45h-14c-.55127,0-1-.44824-1-1s.44873-1,1-1h14c.55127,0,1,.44824,1,1s-.44873,1-1,1Z"/>
      </g>
    </g>
  </g>
</svg>