<?xml version="1.0" encoding="UTF-8"?>
<svg id="Outline" xmlns="http://www.w3.org/2000/svg" version="1.1" viewBox="0 0 64 64">
  <path d="M54,39h-2V10c0-1.65002-1.34998-3-3-3s-3,1.34998-3,3v1h-3c-.54999,0-1,.45001-1,1v2h-20v-2c0-.54999-.45001-1-1-1h-3v-1c0-1.65002-1.34998-3-3-3s-3,1.34998-3,3v29h-2c-1.65002,0-3,1.34998-3,3v8c0,1.64996,1.34998,3,3,3h2v3c0,.54999.45001,1,1,1h4c.54999,0,1-.45001,1-1v-3h28v3c0,.54999.45001,1,1,1h4c.54999,0,1-.45001,1-1v-3h2c1.65002,0,3-1.35004,3-3v-8c0-1.65002-1.34998-3-3-3ZM12,51h-2c-.54999,0-1-.45001-1-1v-8c0-.54999.45001-1,1-1h2v10ZM16,55h-2V10c0-.54999.45001-1,1-1s1,.45001,1,1v45ZM18,13h2v4h-2v-4ZM46,51h-28v-10h28v10ZM46,39h-28v-20h3c.54999,0,1-.45001,1-1v-2h20v2c0,.54999.45001,1,1,1h3v20ZM46,17h-2v-4h2v4ZM50,55h-2V10c0-.54999.45001-1,1-1s1,.45001,1,1v45ZM55,50c0,.54999-.45001,1-1,1h-2v-10h2c.54999,0,1,.45001,1,1v8Z" style="fill: #000; stroke-width: 0px;"/>
  <path d="M40,43h-16c-.55225,0-1,.44727-1,1v4c0,.55273.44775,1,1,1h16c.55225,0,1-.44727,1-1v-4c0-.55273-.44775-1-1-1ZM39,47h-14v-2h14v2Z" style="fill: #000; stroke-width: 0px;"/>
</svg>