<?xml version="1.0" encoding="UTF-8"?>
<svg id="Outline" xmlns="http://www.w3.org/2000/svg" version="1.1" viewBox="0 0 64 64">
  <path d="M56,45h-3.34998l-7.93005-17.85004c.84003-.53998,1.38-1.47998,1.38-2.51996,0-.33002-.04999-.64001-.14996-.95001-.26001-.76001-.79004-1.37-1.51001-1.72998-.71002-.36005-1.52002-.41003-2.28003-.16003l-5.62,1.85999-8.69-7.5c-.16998-.14996-.35999-.28998-.54999-.42999,1.04004-.90997,1.70001-2.22998,1.70001-3.71997,0-2.76001-2.23999-5-5-5s-5,2.23999-5,5c0,1.46997.65002,2.77997,1.66998,3.70001-1.34998.89996-2.28998,2.31-2.57001,3.90997-.60999-.38-1.32996-.60999-2.09998-.60999-2.21002,0-4,1.78998-4,4v6c0,2.20996,1.78998,4,4,4,.72998,0,1.40997-.21002,2-.56v13.56c0,.26001-.09998.51996-.29999.70001l-3.41003,3.41998c-1.16998,1.16998-1.16998,3.08002,0,4.25.28003.27002.60004.47998.94.63h-7.22998c-.54999,0-1,.45001-1,1s.45001,1,1,1h17c1.65002,0,3-1.35004,3-3,0-.54999.45001-1,1-1h10c.27002,0,.52002-.10999.71002-.29004l5.69995-5.70996h10.59003c.54999,0,1-.45001,1-1s-.45001-1-1-1ZM24,9c1.65002,0,3,1.34998,3,3s-1.34998,3-3,3-3-1.35004-3-3,1.34998-3,3-3ZM14,23c0-1.10004.90002-2,2-2s2,.89996,2,2v1h-4v-1ZM16,31c-1.09998,0-2-.90002-2-2v-3h4v3c0,1.09998-.90002,2-2,2ZM15.71002,52.95001c-.39001-.39001-.39001-1.02002,0-1.41003l3.39996-3.40997c.56-.56.89001-1.33002.89001-2.13v-8.40002l2,.97003v9.08997c0,.26001-.09998.52002-.29999.70001l-4.58002,4.59003c-.37.37994-1.03998.37994-1.40997,0ZM29,51c-1.65002,0-3,1.34998-3,3,0,.54999-.45001,1-1,1h-7.40002c.34003-.15002.66003-.35999.94-.63l4.57001-4.58002c.56-.56.89001-1.33002.89001-2.13v-8.12l5.42999,2.64001c.35004.16998.57001.52002.57001.89996v6.92004c0,.34998.07001.69.17999,1h-1.17999ZM34,50c0,.54999-.45001,1-1,1s-1-.45001-1-1v-6.92004c0-1.14996-.65002-2.17999-1.69-2.69995-1.79659-.87361-3.59318-1.74722-5.38978-2.62083-1.63959-.79738-3.28173-1.58935-4.92022-2.38918v-14.72998c0-1.76643,1.21063-3.24285,2.84998-3.79004.37.09003.75.15002,1.15002.15002.37,0,.73999-.04999,1.09003-.13.52997.15997,1.02997.41998,1.44995.78998l9.13,7.88c.26001.22998.63.29999.96002.19l6.15985-2.03994c1.23201-.408,1.82824,1.50396.64014,1.88991l-7.67999,2.56006-8.31-4.04004c-.31-.14996-.67999-.13-.97003.04999-.28998.17999-.46997.51001-.46997.85004v9c0,.31.14001.59998.39001.78998l7.21997,5.57001c.25.19.39001.47998.39001.78998v8.85004ZM45,45c-.27002,0-.52002.10999-.71002.28998l-5.69995,5.71002h-2.77002c.10999-.31.17999-.65002.17999-1v-8.85004c0-.92999-.42999-1.78998-1.16998-2.37l-6.83002-5.26996v-6.91003l7.23999,3.52002c.23999.10999.51001.13.76001.04999l6.84998-2.28998,7.61005,17.12h-5.46002Z" style="fill: #000; stroke-width: 0px;"/>
</svg>