<?xml version="1.0" encoding="UTF-8"?>
<svg xmlns="http://www.w3.org/2000/svg" version="1.1" viewBox="0 0 64 64">
  <!-- Generator: Adobe Illustrator 28.7.1, SVG Export Plug-In . SVG Version: 1.2.0 Build 142)  -->
  <g>
    <g id="Outline">
      <g>
        <path d="M48,7H16c-1.65002,0-3,1.34998-3,3v40c0,1.64996,1.34998,3,3,3h2v1c0,1.64996,1.34998,3,3,3h22c1.65002,0,3-1.35004,3-3v-1h2c1.65002,0,3-1.35004,3-3V10c0-1.65002-1.34998-3-3-3ZM44,54c0,.54999-.45001,1-1,1h-22c-.54999,0-1-.45001-1-1v-1h24v1ZM49,23h-22c-.54999,0-1,.45001-1,1s.45001,1,1,1h22v25c0,.54999-.45001,1-1,1H16c-.54999,0-1-.45001-1-1v-25h4c.54999,0,1-.45001,1-1s-.45001-1-1-1h-4v-13c0-.54999.45001-1,1-1h32c.54999,0,1,.45001,1,1v13Z"/>
        <circle cx="46" cy="28" r="1"/>
        <circle cx="18" cy="28" r="1"/>
        <circle cx="46" cy="48" r="1"/>
        <circle cx="18" cy="48" r="1"/>
        <path d="M28,21c.55273,0,1-.44727,1-1v-8c0-.55273-.44727-1-1-1s-1,.44727-1,1v8c0,.55273.44727,1,1,1Z"/>
        <path d="M25,18c0-1.6543-1.3457-3-3-3-.55176,0-1-.44824-1-1s.44824-1,1-1h2c.55273,0,1-.44727,1-1s-.44727-1-1-1h-2c-1.6543,0-3,1.3457-3,3s1.3457,3,3,3c.55176,0,1,.44824,1,1s-.44824,1-1,1h-2c-.55273,0-1,.44727-1,1s.44727,1,1,1h2c1.6543,0,3-1.3457,3-3Z"/>
        <path d="M34,21c1.6543,0,3-1.3457,3-3v-1c0-.55273-.44727-1-1-1h-1c-.55273,0-1,.44727-1,1s.44727,1,1,1c0,.55176-.44824,1-1,1s-1-.44824-1-1v-4c0-.55176.44824-1,1-1s1,.44824,1,1c0,.55273.44727,1,1,1s1-.44727,1-1c0-1.6543-1.3457-3-3-3s-3,1.3457-3,3v4c0,1.6543,1.3457,3,3,3Z"/>
        <path d="M40,21c.55273,0,1-.44727,1-1v-3.76367l2.10547,4.21094c.17185.34467.52235.55267.89435.55273.54479.0001,1.00018-.45643,1.00018-1v-8c0-.55273-.44727-1-1-1s-1,.44727-1,1v3.76367l-2.10547-4.21094c-.20704-.41504-.67773-.62988-1.12402-.52637-.45117.10742-.77051.50977-.77051.97363v8c0,.55273.44727,1,1,1Z"/>
        <path d="M28,41h-6c-.55273,0-1,.44727-1,1s.44727,1,1,1h5v5c0,.55273.44727,1,1,1s1-.44727,1-1v-6c0-.55273-.44727-1-1-1Z"/>
        <path d="M42,41h-6c-.55273,0-1,.44727-1,1v6c0,.55273.44727,1,1,1s1-.44727,1-1v-5h5c.55273,0,1-.44727,1-1s-.44727-1-1-1Z"/>
        <path d="M42,33h-5v-5c0-.55273-.44727-1-1-1s-1,.44727-1,1v6c0,.55273.44727,1,1,1h6c.55273,0,1-.44727,1-1s-.44727-1-1-1Z"/>
        <path d="M21,34c0,.55273.44727,1,1,1h6c.55273,0,1-.44727,1-1v-6c0-.55273-.44727-1-1-1s-1,.44727-1,1v5h-5c-.55273,0-1,.44727-1,1Z"/>
        <path d="M32,31c.55273,0,1-.44727,1-1v-2c0-.55273-.44727-1-1-1s-1,.44727-1,1v2c0,.55273.44727,1,1,1Z"/>
        <path d="M32,37c.55273,0,1-.44727,1-1v-2c0-.55273-.44727-1-1-1s-1,.44727-1,1v2c0,.55273.44727,1,1,1Z"/>
        <path d="M22,37c-.55273,0-1,.44727-1,1s.44727,1,1,1h2c.55273,0,1-.44727,1-1s-.44727-1-1-1h-2Z"/>
        <path d="M30,37h-2c-.55273,0-1,.44727-1,1s.44727,1,1,1h2c.55273,0,1-.44727,1-1s-.44727-1-1-1Z"/>
        <path d="M32,45c-.55273,0-1,.44727-1,1v2c0,.55273.44727,1,1,1s1-.44727,1-1v-2c0-.55273-.44727-1-1-1Z"/>
        <path d="M32,39c-.55273,0-1,.44727-1,1v2c0,.55273.44727,1,1,1s1-.44727,1-1v-2c0-.55273-.44727-1-1-1Z"/>
        <path d="M42,37h-2c-.55273,0-1,.44727-1,1s.44727,1,1,1h2c.55273,0,1-.44727,1-1s-.44727-1-1-1Z"/>
        <path d="M37,38c0-.55273-.44727-1-1-1h-2c-.55273,0-1,.44727-1,1s.44727,1,1,1h2c.55273,0,1-.44727,1-1Z"/>
        <circle cx="23" cy="24" r="1"/>
      </g>
    </g>
  </g>
</svg>