<?xml version="1.0" encoding="UTF-8"?>
<svg id="Outline" xmlns="http://www.w3.org/2000/svg" version="1.1" viewBox="0 0 64 64">
  <path d="M56,28c.54999,0,1-.45001,1-1V8c0-.54999-.45001-1-1-1h-4c-.54999,0-1,.45001-1,1v15h-2v-13c0-.54999-.45001-1-1-1H16c-.54999,0-1,.45001-1,1v13h-2v-15c0-.54999-.45001-1-1-1h-4c-.54999,0-1,.45001-1,1v48c0,.54999.45001,1,1,1h4c.54999,0,1-.45001,1-1v-3h38v3c0,.54999.45001,1,1,1h4c.54999,0,1-.45001,1-1v-21c0-.54999-.45001-1-1-1s-1,.45001-1,1v20h-2V9h2v18c0,.54999.45001,1,1,1ZM11,55h-2V9h2v46ZM31,11h16v12h-16v-12ZM21,11h4v3h-4v-3ZM17,11h2v4c0,.54999.45001,1,1,1h6c.54999,0,1-.45001,1-1v-4h2v12h-12v-12ZM51,51H13v-2h38v2ZM20,40h6c.54999,0,1-.45001,1-1v-4h2v12h-12v-12h2v4c0,.54999.45001,1,1,1ZM21,38v-3h4v3h-4ZM31,47v-12h16v12h-16ZM51,47h-2v-13c0-.54999-.45001-1-1-1H16c-.54999,0-1,.45001-1,1v13h-2v-18h38v18ZM51,27H13v-2h38v2Z" fill="#000" stroke-width="0"/>
  <path d="M44,43h-5c-.55225,0-1,.44775-1,1s.44775,1,1,1h5c.55225,0,1-.44775,1-1s-.44775-1-1-1Z" fill="#000" stroke-width="0"/>
  <path d="M39,21h5c.55225,0,1-.44775,1-1s-.44775-1-1-1h-5c-.55225,0-1,.44775-1,1s.44775,1,1,1Z" fill="#000" stroke-width="0"/>
  <circle cx="56" cy="31" r="1" fill="#000" stroke-width="0"/>
</svg>