<?xml version="1.0" encoding="UTF-8"?>
<svg xmlns="http://www.w3.org/2000/svg" version="1.1" viewBox="0 0 64 64">
  <!-- Generator: Adobe Illustrator 28.7.1, SVG Export Plug-In . SVG Version: 1.2.0 Build 142)  -->
  <g>
    <g id="Outline">
      <g>
        <path d="M24.29297,28.22168c-.39062.39062-.39062,1.02344,0,1.41406s1.02344.39062,1.41406,0c3.50781-3.50879,9.21826-3.50977,12.72802,0,.37789.37789,1.02402.39005,1.41407,0,.39062-.39062.39062-1.02344,0-1.41406-4.28857-4.2876-11.2666-4.28857-15.55615,0Z"/>
        <path d="M32.07129,29.00293c-1.87207,0-3.62988.72705-4.94971,2.04736-.39062.39062-.39062,1.02393,0,1.41406.39062.39062,1.02344.39062,1.41406,0,.94238-.94238,2.19775-1.46143,3.53564-1.46143,1.3374,0,2.59277.51904,3.53515,1.46142.3779.37789,1.024.39007,1.41407,0,.39062-.39014.39062-1.02344,0-1.41406-1.31982-1.32031-3.07764-2.04736-4.94922-2.04736Z"/>
        <path d="M29.94971,33.87891c-.39062.39062-.39062,1.02344,0,1.41406s1.02344.39062,1.41406,0c.38915-.38964,1.02439-.38965,1.41453-.00002.37659.3761,1.0259.38819,1.41408.00002.39062-.39062.39062-1.02344,0-1.41406-1.17041-1.16992-3.07324-1.1709-4.24268,0Z"/>
        <circle cx="32.14215" cy="38" r="1"/>
        <path d="M43.2251,41h2.10498c6.43457,0,11.66992-5.67041,11.66992-12.64014,0-6.81104-5.00732-12.38037-11.24707-12.62158-1.54932-5.18457-6.00293-8.73828-11.08301-8.73828-2.99365,0-5.85254,1.24561-8.00146,3.45312-2.15625-2.20752-5.01367-3.45312-7.99854-3.45312-6.43457,0-11.66992,5.67041-11.66992,12.64014,0,2.95654.9502,5.79297,2.68408,8.03613-.01416.23779-.01416.46973-.01416.68359,0,6.73999,4.89581,12.24872,11.08679,12.60565.60931,1.16541,1.36285,2.24231,2.24329,3.20929v5.34424l-2.42529,1.93878c-.45898-.2854-.99554-.45782-1.57471-.45782-1.6543,0-3,1.3457-3,3s1.3457,3,3,3,3-1.3457,3-3c0-.34448-.07025-.67029-.17761-.97864l2.80212-2.24011c.2373-.18994.37549-.47754.37549-.78125v-3.98767c1.73077,1.32758,3.76111,2.29608,6,2.79614v2.37579c-1.1615.41412-2,1.51379-2,2.81573,0,1.6543,1.3457,3,3,3s3-1.3457,3-3c0-1.30194-.8385-2.40161-2-2.81573v-2.37579c2.23889-.50006,4.26923-1.46857,6-2.79614v3.98767c0,.30371.13818.59131.37549.78125l2.80212,2.24011c-.10736.30835-.17761.63416-.17761.97864,0,1.6543,1.3457,3,3,3s3-1.3457,3-3-1.3457-3-3-3c-.57916,0-1.11566.17242-1.57471.45782l-2.42529-1.93878v-5.34424c.8717-.95746,1.61896-2.02264,2.2251-3.1748ZM19,55c-.55127,0-1-.44873-1-1s.44873-1,1-1,1,.44873,1,1-.44873,1-1,1ZM45,53c.55127,0,1,.44873,1,1s-.44873,1-1,1-1-.44873-1-1,.44873-1,1-1ZM19.84796,38.86139c-4.62372-.78955-8.17804-5.1908-8.17804-10.50153,0-.29102,0-.5918.03809-.83447.04492-.28369-.03467-.57324-.21826-.79395-1.60547-1.93359-2.48975-4.45215-2.48975-7.09131,0-5.86719,4.33789-10.64014,9.66992-10.64014,2.75242,0,5.38424,1.3076,7.22115,3.58735.39576.49117,1.16577.48878,1.55913-.0019,1.82666-2.27881,4.45801-3.58545,7.21973-3.58545,4.40184,0,8.2451,3.28465,9.34667,7.98776.12539.53537.6427.91281,1.19532.74466.03906-.00537.08301-.00244.11816-.00244,5.33203,0,9.66992,4.76855,9.66992,10.62988,0,5.86719-4.33789,10.64014-9.66992,10.64014h-1.22266c.57465-1.61932.89258-3.35718.89258-5.16553v-9.83447c0-.43066-.27539-.8125-.68359-.94873l-12-4c-.20605-.06836-.42676-.06836-.63281,0l-12,4c-.4082.13623-.68359.51807-.68359.94873v9.83447c0,1.75739.30402,3.44659.84796,5.02692ZM32,55c-.55127,0-1-.44873-1-1s.44873-1,1-1,1,.44873,1,1-.44873,1-1,1ZM39.30554,43.06415c-.00952.00928-.01727.01935-.02643.02899-1.89722,1.97437-4.40619,3.37738-7.27911,3.89221-2.87292-.51483-5.3819-1.91785-7.27911-3.89221-.00916-.00964-.01691-.01971-.02643-.02899-2.30255-2.4104-3.69446-5.6673-3.69446-9.22968v-9.11377l11-3.6665,11,3.6665v9.11377c0,3.56238-1.39191,6.81927-3.69446,9.22968Z"/>
      </g>
    </g>
  </g>
</svg>