<?xml version="1.0" encoding="UTF-8"?>
<svg xmlns="http://www.w3.org/2000/svg" version="1.1" viewBox="0 0 64 64">
  <!-- Generator: Adobe Illustrator 28.7.1, SVG Export Plug-In . SVG Version: 1.2.0 Build 142)  -->
  <g>
    <g id="Outline">
      <path d="M54,26c.54999,0,1-.45001,1-1v-8.39001c0-3.16998-2.13-5.95001-5.22998-6.78003l-12.55005-2.81c-.06995-.00995-.14996-.01996-.21997-.01996h-10c-.07001,0-.15002.01001-.21997.01996l-12.59003,2.82001c-3.06.82001-5.19,3.60004-5.19,6.77002v27.39001c0,.54999.45001,1,1,1h5v11c0,.54999.45001,1,1,1h11c.54999,0,1-.45001,1-1v-2h8v2c0,.54999.45001,1,1,1h11c.54999,0,1-.45001,1-1v-11h5c.54999,0,1-.45001,1-1v-15c0-.54999-.45001-1-1-1s-1,.45001-1,1v14h-4v-11c0-.54999-.45001-1-1-1s-1,.45001-1,1v23h-9v-5h4c.54999,0,1-.45001,1-1v-6h1c.54999,0,1-.45001,1-1v-4c0-.54999-.45001-1-1-1h-6v-2c0-.54999-.45001-1-1-1s-1,.45001-1,1v17h-8V9h8v22c0,.54999.45001,1,1,1s1-.45001,1-1v-2.34003l6.39001-2.73999c.45001-.19.70001-.69.57996-1.15997l-.85999-3.45001,4.60004-4.60004c.21997-.21997.32001-.52997.27997-.83997l-.53998-4.28003.83997.19c2.19.58002,3.71002,2.57001,3.71002,4.83002v8.39001c0,.54999.45001,1,1,1ZM26,48h-3v-5h3v5ZM26,41h-5v-2h5v2ZM26,37h-6c-.54999,0-1,.45001-1,1v4c0,.54999.45001,1,1,1h1v6c0,.54999.45001,1,1,1h4v5h-9v-23c0-.54999-.45001-1-1-1s-1,.45001-1,1v11h-4v-26.39001c0-2.26001,1.52002-4.25,3.66998-4.82001l.88-.20001-.53998,4.28003c-.04004.31.06.62.27997.83997l4.60004,4.60004-.85999,3.45001c-.12006.46997.12994.96997.57996,1.15997l6.39001,2.73999v8.34003ZM26,26.47998l-4.82001-2.06.78998-3.17999c.09003-.34003-.00995-.70001-.25995-.95001l-4.66003-4.64996.57001-4.52002,8.38-1.87v17.22998ZM38,39h5v2h-5v-2ZM38,43h3v5h-3v-5ZM42.28998,20.28998c-.25.25-.34998.60999-.25995.95001l.78998,3.17999-4.82001,2.06V9.25l8.38,1.87.57001,4.52002-4.66003,4.64996Z"/>
    </g>
  </g>
</svg>