<?xml version="1.0" encoding="UTF-8"?>
<svg xmlns="http://www.w3.org/2000/svg" version="1.1" viewBox="0 0 64 64">
  <!-- Generator: Adobe Illustrator 28.7.1, SVG Export Plug-In . SVG Version: 1.2.0 Build 142)  -->
  <g>
    <g id="Outline">
      <g>
        <path d="M32.64648,20.2373c-.37305-.31641-.91992-.31641-1.29297,0-.54785.46436-5.35352,4.62891-5.35352,7.7627,0,3.30859,2.69141,6,6,6s6-2.69141,6-6c0-3.13379-4.80566-7.29834-5.35352-7.7627ZM31,31.85803c-1.72052-.4472-3-1.99969-3-3.85803,0-.1546.03754-.3269.08325-.50269l2.91675,2.91675v1.44397ZM31,27.58594l-1.95117-1.95117c.54877-.78241,1.24261-1.58655,1.95117-2.31628v4.26746ZM36,28c0,1.85834-1.27948,3.41083-3,3.85803v-1.44397l2.91687-2.91687c.04559.17578.08313.34808.08313.50281ZM33,27.58594v-4.26874c.70905.72949,1.40326,1.53375,1.95209,2.31665l-1.95209,1.95209Z"/>
        <path d="M47,28c0-8.27002-6.72998-15-15-15s-15,6.72998-15,15c0,5.92999,3.59003,11.37,9,13.72998v1.45001c-1.15997.41998-2,1.52002-2,2.82001,0,.76996.29999,1.46997.78003,2-.48004.52997-.78003,1.22998-.78003,2,0,1.64996,1.34998,3,3,3h.09998c.47003,2.27997,2.49005,4,4.90002,4s4.42999-1.72003,4.90002-4h.09998c1.65002,0,3-1.35004,3-3,0-.77002-.29999-1.47003-.78003-2,.48004-.53003.78003-1.23004.78003-2,0-1.29999-.84003-2.40002-2-2.82001v-1.45001c5.40997-2.35999,9-7.79999,9-13.72998ZM32,55c-1.29999,0-2.41998-.84003-2.83002-2h5.66003c-.41003,1.15997-1.53003,2-2.83002,2ZM37,51h-10c-.54999,0-1-.45001-1-1s.45001-1,1-1h10c.54999,0,1,.45001,1,1s-.45001,1-1,1ZM37,47h-10c-.54999,0-1-.45001-1-1s.45001-1,1-1h10c.54999,0,1,.45001,1,1s-.45001,1-1,1ZM36.64001,40.13c-.38.14996-.64001.51996-.64001.92999v1.94h-8v-1.94c0-.41003-.26001-.78003-.64001-.92999-5-1.91003-8.35999-6.79004-8.35999-12.13,0-7.17004,5.83002-13,13-13s13,5.82996,13,13c0,5.33997-3.35999,10.21997-8.35999,12.13Z"/>
        <path d="M32,11c.55273,0,1-.44775,1-1v-2c0-.55225-.44727-1-1-1s-1,.44775-1,1v2c0,.55225.44727,1,1,1Z"/>
        <path d="M15,32c0-.55225-.44727-1-1-1h-6c-.55273,0-1,.44775-1,1s.44727,1,1,1h6c.55273,0,1-.44775,1-1Z"/>
        <path d="M16.29297,17.70703c.37015.37019,1.01849.39557,1.41406,0,.39062-.39062.39062-1.02344,0-1.41406l-4.24219-4.24268c-.39062-.39062-1.02344-.39062-1.41406,0s-.39062,1.02344,0,1.41406l4.24219,4.24268Z"/>
        <path d="M51.94922,12.05029c-.39062-.39062-1.02344-.39062-1.41406,0l-4.24219,4.24268c-.39062.39062-.39062,1.02344.00005,1.41411.38457.3844,1.02979.38418,1.41402-.00005l4.24219-4.24268c.39062-.39062.39062-1.02344,0-1.41406Z"/>
        <path d="M56,31h-6c-.55273,0-1,.44775-1,1s.44727,1,1,1h6c.55273,0,1-.44775,1-1s-.44727-1-1-1Z"/>
        <path d="M20.37109,46.67139l-2.38965-.95557,1.99114-3.18592c.41132-.65813-.0739-1.5299-.84759-1.5299h-5.25c-.3877,0-.74121.22412-.90527.57568l-2.62498,5.60006c-.24329.51902.00529,1.14112.53416,1.35307l2.68945,1.07568-1.53809,6.15283c-.11328.45264.10156.92334.51666,1.13431.4111.2083.92562.10378,1.22162-.25149.00002-.00003,6.97901-8.37472,6.99995-8.39985.43229-.51874.22533-1.31981-.39741-1.5689ZM15.03027,52.00146l.68945-2.75879c.12207-.48535-.13379-.98535-.59863-1.17139l-2.51562-1.00635,1.90527-4.06494h2.80957s-1.66541,2.66631-1.66798,2.67042c-.32749.52433-.09693,1.22911.47657,1.45848l2.22168.88867-3.32031,3.98389Z"/>
        <path d="M53.12109,46.67139l-2.38965-.95557,1.99119-3.186c.40855-.6537-.08263-1.52982-.84763-1.52982h-5.25c-.3877,0-.74121.22412-.90527.57568l-2.625,5.60009c-.24201.5163.0069,1.14172.53418,1.35303l2.68945,1.07568-1.53809,6.15283c-.11328.45264.10156.92334.51668,1.13432.41368.20959.92414.10545,1.2216-.2515l6.99997-8.39987c.4306-.51671.22411-1.32027-.39743-1.56888ZM47.78027,52.00146l.68945-2.75879c.12207-.48535-.13379-.98535-.59863-1.17139l-2.51562-1.00635,1.90527-4.06494h2.80957l-1.66797,2.67041c-.32723.5239-.09459,1.22963.47656,1.4585l2.22168.88867-3.32031,3.98389Z"/>
      </g>
    </g>
  </g>
</svg>