<?xml version="1.0" encoding="UTF-8"?>
<svg xmlns="http://www.w3.org/2000/svg" version="1.1" viewBox="0 0 64 64">
  <!-- Generator: Adobe Illustrator 28.7.1, SVG Export Plug-In . SVG Version: 1.2.0 Build 142)  -->
  <g>
    <g id="Outline">
      <g>
        <path d="M39.76709,39.10925c5.69482-2.92529,9.23291-8.71484,9.23291-15.10986,0-4.6958-1.87158-9.06592-5.26953-12.30518s-7.87207-4.896-12.56641-4.67383c-2.25732.104-4.44824.66602-6.51172,1.66943-.49658.2417-.70312.84033-.46191,1.33691.24219.49658.83984.70264,1.33691.46191,1.81738-.88428,3.74463-1.37891,5.73047-1.47021,4.16016-.19873,8.09521,1.26562,11.09277,4.12354,2.99805,2.8584,4.64941,6.71436,4.64941,10.85742,0,5.6416-3.12158,10.74951-8.14209,13.32812-.85547.43359-1.57568,1.10596-2.07422,1.92871-.33545.53271-.56787,1.12354-.68799,1.74316h-1.0957v-2.73975c0-.23096.08691-.48535.18848-.59473q.01221-.01172,6.5415-6.98193c.27246-.29102.34619-.71582.1875-1.08154-.15869-.36523-.51904-.60205-.91748-.60205h-6c-.26514,0-.51953.10547-.70703.29297l-.92773.92773-1.43652-3.59229c-.13818-.34473-.45557-.58447-.8252-.62305-.37109-.03223-.72949.13184-.93555.43994l-1.70312,2.55469h-5.46484c-.39844,0-.75879.23682-.91748.60205-.15869.36572-.08496.79053.1875,1.08154l6.48926,6.92578c.15088.17578.24072.41895.24072.65088v2.73975h-1.09668c-.30469-1.55908-1.31396-2.91748-2.78418-3.67871-5.30469-2.73975-8.47656-8.3667-8.08105-14.33545.18164-2.76074,1.14746-5.42725,2.79346-7.71143.32275-.44824.22119-1.07275-.22705-1.396-.44922-.32373-1.07373-.22119-1.396.22705-1.86475,2.58887-2.95996,5.61377-3.1665,8.74854-.44775,6.7627,3.14746,13.13867,9.1582,16.24414.86517.44781,1.46954,1.22333,1.69653,2.11823-1.10864.4411-1.89673,1.51965-1.89673,2.78363,0,.77112.30054,1.46802.78027,2-.47974.53198-.78027,1.22888-.78027,2,0,1.6543,1.3457,3,3,3v1c0,2.75684,2.24316,5,5,5s5-2.24316,5-5v-1c1.6543,0,3-1.3457,3-3,0-.77112-.30054-1.46802-.78027-2,.47974-.53198.78027-1.22888.78027-2,0-1.26453-.7887-2.34338-1.89813-2.78406.08032-.31848.20514-.62476.38348-.90784.31348-.51807.75537-.93164,1.28174-1.19824ZM30.24854,36.27429l-4.94141-5.2749h3.69287c.33447,0,.64648-.16699.83203-.44531l.94531-1.41846,1.29395,3.23535c.125.31201.39844.54053.72754.60791.33008.06787.6709-.03467.9082-.27246l1.70703-1.70703h3.27881l-4.94189,5.27539c-.47021.50293-.75098,1.24512-.75098,1.98486v2.73975h-2v-2.73975c0-.70557-.26318-1.41748-.75146-1.98535ZM37,42.99938c.55127,0,1,.44873,1,1s-.44873,1-1,1h-10c-.55127,0-1-.44873-1-1s.44873-1,1-1h10ZM35,51.99938c0,1.6543-1.3457,3-3,3s-3-1.3457-3-3v-1h6v1ZM37,48.99938h-10c-.55127,0-1-.44873-1-1s.44873-1,1-1h10c.55127,0,1,.44873,1,1s-.44873,1-1,1Z"/>
        <path d="M56,22.99938h-4c-.55225,0-1,.44775-1,1s.44775,1,1,1h4c.55225,0,1-.44775,1-1s-.44775-1-1-1Z"/>
        <path d="M49.32129,14.99938c.16943,0,.34131-.04297.49902-.13379l3.46436-2c.47852-.27637.64209-.8877.36621-1.36621-.27734-.479-.88721-.64355-1.36621-.36621l-3.46432,1.99998c-.86047.49676-.49761,1.86623.50095,1.86623Z"/>
        <path d="M53.28467,35.13317l-3.46436-2c-.47998-.27637-1.09033-.11182-1.36621.36621-.27588.47852-.1123,1.08984.36621,1.36621,0,0,3.46436,2,3.46444,2.00005.47345.27257,1.09197.10773,1.36612-.36626.27588-.47852.1123-1.08984-.36621-1.36621Z"/>
        <path d="M13,23.99938c0-.55225-.44775-1-1-1h-4c-.55225,0-1,.44775-1,1s.44775,1,1,1h4c.55225,0,1-.44775,1-1Z"/>
        <path d="M10.71533,12.86559l3.46433,1.99999c.45072.26021,1.08682.11688,1.36623-.3662.27588-.47852.1123-1.08984-.36621-1.36621l-3.46436-2c-.47998-.27734-1.08984-.11279-1.36621.36621-.27588.47852-.1123,1.08984.36621,1.36621Z"/>
        <path d="M14.17969,33.13317l-3.46436,2c-.47844.27632-.64204.88749-.36635,1.36597.26315.45672.91066.62885,1.36635.36645l3.46436-2c.47852-.27637.64209-.8877.36621-1.36621-.27686-.47803-.88721-.64258-1.36621-.36621Z"/>
        <path d="M34.78809,11.38415c-.18945-.24268-.47998-.38477-.78809-.38477h-4c-.44629,0-.83887.2959-.96143.7251l-2,7c-.08643.30176-.02588.62646.16309.87695s.48438.39795.79834.39795h1.78027l-.76074,3.80371c-.09178.45794.14593.91833.57209,1.1093.38843.17406.93293.05478,1.20818-.31291l6-8c.22754-.30322.26416-.7085.09473-1.04736s-.51562-.55273-.89453-.55273h-1.71924l.68945-2.75732c.07471-.29883.00732-.61523-.18213-.85791ZM31.84521,19.87243l.13525-.67676c.05908-.29395-.01709-.59863-.20703-.83008-.18994-.23193-.47363-.36621-.77344-.36621h-1.67432l1.42871-5h1.96484l-.68945,2.75732c-.07471.29883-.00732.61523.18213.85791s.47998.38477.78809.38477h1l-2.15479,2.87305Z"/>
        <path d="M22.35822,12.50872c.42303-.35504.47821-.98578.12323-1.40887-.35498-.42303-.98578-.47821-1.40881-.12323-.4231.35498-.47827.98578-.12329,1.40881.35504.4231.98578.47827,1.40887.12329Z"/>
      </g>
    </g>
  </g>
</svg>