<?xml version="1.0" encoding="utf-8"?>
<!-- Generator: Adobe Illustrator 27.3.1, SVG Export Plug-In . SVG Version: 6.00 Build 0)  -->
<svg version="1.1" id="Outline" xmlns="http://www.w3.org/2000/svg" xmlns:xlink="http://www.w3.org/1999/xlink" x="0px" y="0px"
	 viewBox="0 0 64 64" enable-background="new 0 0 64 64" xml:space="preserve">
<g>
	<path d="M56.97998,55.82001l-4-22C52.90002,33.34998,52.47998,33,52,33h-8.97998C45.27002,29.51996,47,25.65997,47,22
		c0-8.27002-6.72998-15-15-15s-15,6.72998-15,15c0,3.65997,1.72998,7.51996,3.97998,11H12
		c-0.47998,0-0.90002,0.34998-0.97998,0.82001c0,0-3.9751,21.86298-3.99988,21.99933C6.91315,56.40771,7.40057,57,8,57h33
		c0.54999,0,1-0.45001,1-1s-0.45001-1-1-1h-6v-2c0,0,11.98743,0,12.00006,0c0.6095-0.00006,1.07635-0.53564,0.98993-1.14001
		c0-0.00006-0.83997-5.85999-0.83997-5.85999h6.01996l1.63,9H49c-0.54999,0-1,0.45001-1,1s0.45001,1,1,1c0,0,6.97552,0,6.99994,0
		C56.6142,57,57.10614,56.42969,56.97998,55.82001z M51.16998,35l0.90002,5h-5.77002l-0.31-2.14001C45.91998,37.37,45.5,37,45,37
		h-4.90002c0.52002-0.64001,1.03003-1.31,1.54004-2H51.16998z M19,22c0-7.17004,5.83002-13,13-13s13,5.82996,13,13
		c0,8.21997-10.28003,18.16998-13,20.65997C29.28003,40.16998,19,30.21997,19,22z M34.57001,43h6.08997l0.58002,4H22.76001
		l0.58002-4h6.08997c1.06976,1.01971,1.78961,1.64966,1.91986,1.75989c0.35266,0.29858,0.91553,0.32397,1.30017,0.00012
		C32.78003,44.64996,33.5,44.01996,34.57001,43z M12.83002,35h9.52997c0.51001,0.69,1.02002,1.35999,1.54004,2H19
		c-0.5,0-0.91998,0.37-0.98999,0.85999l-0.41998,2.96002L11.5,42.34998L12.83002,35z M29,55H9.20001l1.14001-6.29999L16.69,47.10999
		c0,0-0.6781,4.73676-0.67999,4.74994C15.92828,52.43085,16.36884,53,17,53h12V55z M46.28723,44.00262
		c-0.10156,0.00006-0.19666,0.00641-0.2854,0.01886c-0.76593,0.10736-1.05847,0.6665-0.93628,1.51678
		c0.26166,1.82062,0.52332,3.64124,0.78497,5.46185C45.80029,50.69855,35.17053,51,34,51c-0.54999,0-1,0.45001-1,1v3h-2v-3
		c0-0.54999-0.45001-1-1-1H18.15002c0,0,0.72595-5.05182,0.72998-5.0799c0.09821-0.68341-0.56287-1.27698-1.22998-1.11011
		l-6.91003,1.71997l0.37-2.02997l7.60999-1.90002c0.40002-0.09998,0.69-0.42999,0.75-0.83002L19.87,39h5.72003
		c0.63995,0.71997,1.25995,1.39001,1.83997,2h-4.96002c-0.5,0-0.91998,0.37-0.98999,0.85999c0,0-0.85742,5.98199-0.85999,5.99994
		C20.53815,48.43085,20.97894,49,21.60999,49c0,0,20.78003,0,20.78015,0c0.88647-0.00012,1.03912-0.81592,0.93781-1.52148
		c-0.24969-1.73956-0.49939-3.47913-0.74915-5.21869c-0.05988-0.41711-0.15222-0.88678-0.50824-1.11224
		c-0.23376-0.14801-0.52747-0.15198-0.80414-0.15125c-1.56604,0.00397-3.13208,0.00793-4.69818,0.0119
		c0.46655-0.50934,0.93304-1.01862,1.3996-1.52789c0.12579-0.13739,0.255-0.2774,0.41962-0.3645
		c0.23541-0.12457,0.5141-0.12665,0.7804-0.12585c1.65259,0.005,3.30518,0.01001,4.95776,0.01508
		c0.20038,0.48798,0.1496,1.0368,0.19421,1.56244c0.07892,0.92896,0.56647,1.43835,1.49176,1.43744
		c2.20947-0.00226,4.41895-0.00446,6.62842-0.00671c0.12006,0.66693,0.24011,1.33392,0.36017,2.00085
		C50.62921,44.00024,48.45819,44.00146,46.28723,44.00262z"/>
	<path d="M43,22c0-6.06543-4.93457-11-11-11s-11,4.93457-11,11s4.93457,11,11,11S43,28.06543,43,22z M23,22c0-4.96289,4.0376-9,9-9
		s9,4.03711,9,9s-4.0376,9-9,9S23,26.96289,23,22z"/>
	<path d="M37,24c0-4.36426-4.11768-8.53223-4.29297-8.70703c-0.39062-0.39062-1.02344-0.39062-1.41406,0
		C31.11768,15.46777,27,19.63574,27,24c0,2.75684,2.24316,5,5,5S37,26.75684,37,24z M29,24c0-2.55664,1.92383-5.21387,3-6.50098
		c1.07617,1.28711,3,3.94434,3,6.50098c0,1.6543-1.3457,3-3,3S29,25.6543,29,24z"/>
	<circle cx="45" cy="56" r="1"/>
</g>
</svg>
