<?xml version="1.0" encoding="UTF-8"?>
<svg id="Outline" xmlns="http://www.w3.org/2000/svg" version="1.1" viewBox="0 0 48 48">
  <path d="M39,5H9c-.54999,0-1,.45001-1,1s.45001,1,1,1h1v8c0,.25.09003.47998.25.65997l5.72998,6.44c-2.44,2.20001-3.97998,5.37-3.97998,8.90002,0,6.62,5.38,12,12,12s12-5.38,12-12c0-3.53003-1.53998-6.70001-3.97998-8.90002l5.72998-6.44c.15997-.17999.25-.40997.25-.65997V7h1c.54999,0,1-.45001,1-1s-.45001-1-1-1ZM21,7h6v12.39001c-.96002-.24005-1.96002-.39001-3-.39001s-2.03998.14996-3,.39001V7ZM12,14.62v-7.62h7v13.10999c-.5.21997-.96997.47998-1.42999.78003l-5.57001-6.27002ZM34,31c0,5.51001-4.48999,10-10,10s-10-4.48999-10-10,4.48999-10,10-10,10,4.48999,10,10ZM36,14.62l-5.57001,6.27002c-.46002-.30005-.92999-.56006-1.42999-.78003V7h7v7.62Z" fill="#000" stroke-width="0"/>
  <path d="M28.29297,32.29297l-4.29297,4.29297-4.29297-4.29297c-.39062-.39062-1.02344-.39062-1.41406,0s-.39062,1.02344,0,1.41406l5,5c.19531.19531.45117.29297.70703.29297s.51172-.09766.70703-.29297l5-5c.39062-.39062.39062-1.02344,0-1.41406s-1.02344-.39062-1.41406,0Z" fill="#000" stroke-width="0"/>
  <path d="M28.29297,27.29297l-4.29297,4.29297-4.29297-4.29297c-.39062-.39062-1.02344-.39062-1.41406,0s-.39062,1.02344,0,1.41406l5,5c.19531.19531.45117.29297.70703.29297s.51172-.09766.70703-.29297l5-5c.39062-.39062.39062-1.02344,0-1.41406s-1.02344-.39062-1.41406,0Z" fill="#000" stroke-width="0"/>
  <path d="M22,27h1v1c0,.55273.44727,1,1,1s1-.44727,1-1v-1h1c.55273,0,1-.44727,1-1s-.44727-1-1-1h-1v-1c0-.55273-.44727-1-1-1s-1,.44727-1,1v1h-1c-.55273,0-1,.44727-1,1s.44727,1,1,1Z" fill="#000" stroke-width="0"/>
</svg>