<?xml version="1.0" encoding="UTF-8"?>
<svg xmlns="http://www.w3.org/2000/svg" version="1.1" viewBox="0 0 48 48">
  <!-- Generator: Adobe Illustrator 28.7.1, SVG Export Plug-In . SVG Version: 1.2.0 Build 142)  -->
  <g>
    <g id="Outline">
      <g>
        <path d="M41.47667,28.7832l-1.95215-8.7832s1.94672-8.75879,1.95215-8.7832c.12445-.55933-.29077-1.1665-.90039-1.21387l-9.88675-.75977c-2.23829-.17432-4.4424.34521-6.38283,1.50879-1.36426.81641-2.92579,1.24805-4.51662,1.24805h-8.29006v-1.18427c1.1615-.41412,2.00001-1.51379,2.00001-2.81573,0-1.6543-1.34571-3-3.00001-3s-3.00001,1.3457-3.00001,3c0,1.30194.8385,2.40155,2.00001,2.81567v9.18433c0,.55225.44727,1,1,1s1-.44775,1-1v-6h8.29006c1.95215,0,3.86915-.52979,5.54494-1.53271,1.58106-.94873,3.37208-1.37402,5.19923-1.22998l8.73929.67139-1.75001,7.87451c-.03125.14258-.03125.29102,0,.43359l1.70801,7.68262-8.54104-.65576c-2.22657-.1792-4.46974.35742-6.38381,1.5083-1.36426.81641-2.92579,1.24805-4.51662,1.24805h-8.29006v-6c0-.55225-.44727-1-1-1s-1,.44775-1,1v13h-2.00001c-.55274,0-1,.44775-1,1v4c0,.55225.44727,1,1,1h6.00002c.55274,0,1-.44775,1-1v-4c0-.55225-.44727-1-1-1h-2.00001v-5h8.29006c1.95215,0,3.86915-.52979,5.54592-1.5332,1.55958-.93799,3.35548-1.37598,5.19826-1.22949,0,0,9.87949.75897,9.88968.75977.66113.05078,1.19574-.5672,1.05274-1.21387ZM10.50001,9c-.55176,0-1-.44873-1-1s.44824-1,1-1,1,.44873,1,1-.44824,1-1,1ZM12.50002,39v2h-4.00001v-2h4.00001Z"/>
        <path d="M35.67099,13.63721l-5.2881-.40674c-1.41114-.10938-2.81056.2251-4.01466.94727-1.98536,1.19238-4.26076,1.82227-6.57912,1.82227h-5.28908c-.55274,0-1,.44775-1,1v10c0,.55225.44727,1,1,1h5.28908c1.2295,0,2.43751-.33447,3.4922-.96729,2.26661-1.36035,4.92384-1.9834,7.55862-1.78467,0,0,4.48201.34473,4.50673.34668.65387.05029,1.19489-.57617,1.05384-1.21387l-.97364-4.38086s1.14185-5.13702,1.14453-5.14893c.1311-.58392-.30719-1.16779-.90039-1.21387ZM34.15536,23.49707l-3.16212-.24316c-3.0586-.23584-6.11916.49072-8.74124,2.06396-.74414.44629-1.59571.68213-2.4629.68213h-4.28908v-8h4.28908c2.68067,0,5.31154-.72852,7.60842-2.10742.84766-.50879,1.80665-.74902,2.83009-.66797l4.14064.31836-.94239,4.24023c-.03125.14258-.03125.29102,0,.43359l.72949,3.28027Z"/>
        <circle cx="30.50007" cy="18" r="1"/>
      </g>
    </g>
  </g>
</svg>