<?xml version="1.0" encoding="UTF-8"?>
<svg xmlns="http://www.w3.org/2000/svg" version="1.1" viewBox="0 0 48 48">
  <!-- Generator: Adobe Illustrator 28.7.1, SVG Export Plug-In . SVG Version: 1.2.0 Build 142)  -->
  <g>
    <g id="Outline">
      <g>
        <path d="M41.78998,33.27997c-.75995-.54999-1.70996-.70001-2.60999-.39996l-3.33997,1.12h-1.84003v-2h2.91998c1.45001,0,2.83002-.63,3.78003-1.72003.95001-1.09998,1.37-2.54999,1.16998-3.98999-.83997-5.87-5.94-10.28998-11.87-10.28998h-1v-2h9c1.65002,0,3-1.35004,3-3s-1.34998-3-3-3h-9c0-1.65002-1.34998-3-3-3s-3,1.34998-3,3h-9c-1.65002,0-3,1.34998-3,3s1.34998,3,3,3h9v2h-2c-1.65002,0-3,1.34998-3,3v1h-6.28003l-.76996-2.32001c-.14001-.40002-.52002-.67999-.95001-.67999h-4c-.33002,0-.64001.16998-.83002.44-.17999.26996-.21997.62-.09998.92999l1.84998,4.63-1.84998,4.63c-.12.31-.08002.65997.09998.92999.19.26996.5.44.83002.44h4c.42999,0,.81-.28003.95001-.67999l.76996-2.32001h6.28003v3c0,1.64996,1.34998,3,3,3h2v2h-5c-1.63,0-3,1.37-3,3,0,1.64996,1.34998,3,3,3h6c.54999,0,1-.45001,1-1s-.45001-1-1-1h-6c-.54999,0-1-.45001-1-1,0-.52002.47998-1,1-1h18c.10999,0,.21002-.02002.32001-.04999l3.5-1.17004c.27002-.08997.57001-.04999.81.12.22998.17004.37.44.37.73004,0,.38995-.23999.72998-.62.84998l-4.53998,1.52002h-7.84003c-.54999,0-1,.45001-1,1s.45001,1,1,1h8c.10999,0,.21002-.02002.32001-.04999l4.70001-1.57001c1.17999-.40002,1.97998-1.5,1.97998-2.75,0-.92999-.45001-1.81-1.21002-2.35004ZM29,10h9c.54999,0,1,.45001,1,1s-.45001,1-1,1h-9v-2ZM38.64001,23c.35999.63.65997,1.29999.88,2h-5.52002v-2h4.64001ZM25,8c0-.54999.45001-1,1-1s1,.45001,1,1v8h-2v-8ZM14,12c-.54999,0-1-.45001-1-1s.45001-1,1-1h9v2h-9ZM21,30c-.54999,0-1-.45001-1-1v-4c0-.54999-.45001-1-1-1h-8c-.42999,0-.81.27997-.95001.67999l-.76996,2.32001h-1.80005l1.45001-3.63c.09003-.23999.09003-.5,0-.73999l-1.45001-3.63h1.80005l.76996,2.32001c.14001.39996.52002.67999.95001.67999h8c.54999,0,1-.45001,1-1v-2c0-.54999.45001-1,1-1h9c2.75,0,5.28003,1.14001,7.10999,3h-4.10999c-.54999,0-1,.45001-1,1v4c0,.54999.45001,1,1,1h6.90002c0,.71997-.24005,1.41998-.72003,1.96997-.57001.65002-1.39001,1.03003-2.26001,1.03003h-15.91998ZM32,34h-7v-2h7v2Z"/>
        <path d="M30,27v-6c0-.55273-.44775-1-1-1h-6c-.55225,0-1,.44727-1,1v6c0,.55273.44775,1,1,1h6c.55225,0,1-.44727,1-1ZM28,26h-4v-4h4v4Z"/>
      </g>
    </g>
  </g>
</svg>