<?xml version="1.0" encoding="UTF-8"?>
<svg id="Outline" xmlns="http://www.w3.org/2000/svg" version="1.1" viewBox="0 0 48 48">
  <path d="M35.45001,30.10999l-5.45001-2.72998v-1.38h3c.54999,0,1-.45001,1-1v-4c0-.38-.21002-.73004-.54999-.89001l-3.45001-1.72998v-5.38c0-.42004-.09003-.85999-.23999-1.29999-.02002-.05005-.03003-.10004-.06-.14001-1.04004-2.85004-4.59003-5.92999-5.04999-6.32001-.38-.32001-.92004-.32001-1.30005,0-.45996.39001-4.00995,3.46997-5.04999,6.32001-.02997.03998-.03998.08997-.06.14001-.14996.44-.23999.87994-.23999,1.29999v5.38l-3.45001,1.72998c-.33997.15997-.54999.51001-.54999.89001v4c0,.54999.45001,1,1,1h3v1.38l-5.45001,2.72998c-.33997.15997-.54999.51001-.54999.89001v6c0,1.09998.90002,2,2,2h4v2c0,1.09998.90002,2,2,2h8c1.09998,0,2-.90002,2-2v-2h4c1.09998,0,2-.90002,2-2v-6c0-.38-.21002-.73004-.54999-.89001ZM30,20.62l2,1v2.38h-2v-3.38ZM18,37h-4v-5.38l4-2v7.38ZM18,24h-2v-2.38l2-1v3.38ZM24,7.33997c1.10999,1.01001,2.40002,2.40002,3.21002,3.66003h-6.42004c.81-1.26001,2.11005-2.64001,3.21002-3.66003ZM20,13h3v2h-3v-2ZM28,41h-8v-2h8v2ZM28,28v9h-8v-20h8v11ZM28,15h-3v-2h3v2ZM34,37h-4v-7.38l4,2v5.38Z" fill="#000" stroke-width="0"/>
  <path d="M24,19c-.55225,0-1,.44775-1,1v14c0,.55225.44775,1,1,1s1-.44775,1-1v-14c0-.55225-.44775-1-1-1Z" fill="#000" stroke-width="0"/>
</svg>