<?xml version="1.0" encoding="UTF-8"?>
<svg id="Outline" xmlns="http://www.w3.org/2000/svg" version="1.1" viewBox="0 0 48 48">
  <path d="M36,27.07001v-3.07001c0-.54999-.45001-1-1-1h-8v-4h2c.54999,0,1-.45001,1-1h7c1.65002,0,3-1.35004,3-3s-1.34998-3-3-3h-7c0-.54999-.45001-1-1-1h-2v-4h1c.54999,0,1-.45001,1-1s-.45001-1-1-1h-8c-.54999,0-1,.45001-1,1s.45001,1,1,1h1v4h-2c-.54999,0-1,.45001-1,1h-7c-1.65002,0-3,1.34998-3,3s1.34998,3,3,3h7c0,.54999.45001,1,1,1h2v4h-8c-.54999,0-1,.45001-1,1v3.07001c-3.94.48999-7,3.85999-7,7.92999,0,4.40997,3.59003,8,8,8,2.96002,0,5.53998-1.62,6.92999-4.01001.02002,0,.03998.01001.07001.01001h8c.03003,0,.04999-.01001.07001-.01001,1.39001,2.39001,3.96997,4.01001,6.92999,4.01001,4.40997,0,8-3.59003,8-8,0-4.07001-3.06-7.44-7-7.92999ZM30,14h7c.54999,0,1,.45001,1,1s-.45001,1-1,1h-7v-2ZM18,16h-7c-.54999,0-1-.45001-1-1s.45001-1,1-1h7v2ZM23,7h2v4h-2v-4ZM20,17v-4h8v4h-8ZM25,19v4h-2v-4h2ZM14,25h20v2H14v-2ZM13,41c-3.31,0-6-2.69-6-6s2.69-6,6-6,6,2.69,6,6-2.69,6-6,6ZM27,35c0,.69.09998,1.35999.26001,2h-6.52002c.16003-.64001.26001-1.31.26001-2,0-2.39001-1.06-4.53003-2.72998-6h11.45996c-1.66998,1.46997-2.72998,3.60999-2.72998,6ZM35,41c-3.31,0-6-2.69-6-6s2.69-6,6-6,6,2.69,6,6-2.69,6-6,6Z" fill="#000" stroke-width="0"/>
  <path d="M38,34c-.55225,0-1,.44727-1,1,0,1.10254-.89697,2-2,2-.55225,0-1,.44727-1,1s.44775,1,1,1c2.20557,0,4-1.79395,4-4,0-.55273-.44775-1-1-1Z" fill="#000" stroke-width="0"/>
  <path d="M16,34c-.55225,0-1,.44727-1,1,0,1.10254-.89697,2-2,2-.55225,0-1,.44727-1,1s.44775,1,1,1c2.20557,0,4-1.79395,4-4,0-.55273-.44775-1-1-1Z" fill="#000" stroke-width="0"/>
  <circle cx="24" cy="32" r="1" fill="#000" stroke-width="0"/>
</svg>