<?xml version="1.0" encoding="UTF-8"?>
<svg xmlns="http://www.w3.org/2000/svg" version="1.1" viewBox="0 0 64 64">
  <!-- Generator: Adobe Illustrator 28.7.1, SVG Export Plug-In . SVG Version: 1.2.0 Build 142)  -->
  <g>
    <g id="Outline">
      <g>
        <path d="M41,43h-1v-7c0-4.96289-4.0376-9-9-9s-9,4.03711-9,9v12c0,.55273.44775,1,1,1h4c.55225,0,1-.44727,1-1v-12c0-1.6543,1.3457-3,3-3s3,1.3457,3,3v7h-1c-.4043,0-.76904.24316-.92383.61719s-.06934.80371.2168,1.08984l4,4c.19531.19531.45117.29297.70703.29297s.51172-.09766.70703-.29297l4-4c.28613-.28613.37158-.71582.2168-1.08984s-.51953-.61719-.92383-.61719ZM37,46.58594l-1.64893-1.64941c.37891-.1416.64893-.50781.64893-.93652v-8c0-2.75684-2.24316-5-5-5s-5,2.24316-5,5v11h-2v-11c0-3.85938,3.14014-7,7-7s7,3.14062,7,7v8c0,.42871.27002.79492.64893.93652l-1.64893,1.64941Z"/>
        <path d="M48,7h-14c-.54999,0-1,.45001-1,1s.45001,1,1,1h14c.54999,0,1,.45001,1,1v13H15v-13c0-.54999.45001-1,1-1h10c.54999,0,1-.45001,1-1s-.45001-1-1-1h-10c-1.65002,0-3,1.34998-3,3v40c0,1.64996,1.34998,3,3,3h2v1c0,1.64996,1.34998,3,3,3h22c1.65002,0,3-1.35004,3-3v-1h2c1.65002,0,3-1.35004,3-3V10c0-1.65002-1.34998-3-3-3ZM44,54c0,.54999-.45001,1-1,1h-22c-.54999,0-1-.45001-1-1v-1h24v1ZM49,50c0,.54999-.45001,1-1,1H16c-.54999,0-1-.45001-1-1v-25h34v25Z"/>
        <circle cx="46" cy="28" r="1"/>
        <circle cx="18" cy="28" r="1"/>
        <circle cx="46" cy="48" r="1"/>
        <circle cx="18" cy="48" r="1"/>
        <path d="M27,20c0,.55273.44775,1,1,1s1-.44727,1-1v-8c0-.55273-.44775-1-1-1s-1,.44727-1,1v8Z"/>
        <path d="M22,13h2c.55225,0,1-.44727,1-1s-.44775-1-1-1h-2c-1.6543,0-3,1.3457-3,3s1.3457,3,3,3c.55127,0,1,.44824,1,1s-.44873,1-1,1h-2c-.55225,0-1,.44727-1,1s.44775,1,1,1h2c1.6543,0,3-1.3457,3-3s-1.3457-3-3-3c-.55127,0-1-.44824-1-1s.44873-1,1-1Z"/>
        <path d="M34,13c.55127,0,1,.44824,1,1,0,.55273.44775,1,1,1s1-.44727,1-1c0-1.6543-1.3457-3-3-3s-3,1.3457-3,3v4c0,1.6543,1.3457,3,3,3s3-1.3457,3-3v-1c0-.55273-.44775-1-1-1h-1c-.55225,0-1,.44727-1,1s.44775,1,1,1c0,.55176-.44873,1-1,1s-1-.44824-1-1v-4c0-.55176.44873-1,1-1Z"/>
        <path d="M41,20v-3.76367l2.10547,4.21094c.17231.34463.52177.55261.89423.55273.54421.00016,1.0003-.45314,1.0003-1v-8c0-.55273-.44775-1-1-1s-1,.44727-1,1v3.76367l-2.10547-4.21094c-.20752-.41504-.66943-.62793-1.12451-.52637-.45117.10742-.77002.50977-.77002.97363v8c0,.55273.44775,1,1,1s1-.44727,1-1Z"/>
        <circle cx="30" cy="8" r="1"/>
      </g>
    </g>
  </g>
</svg>