<?xml version="1.0" encoding="UTF-8"?>
<svg xmlns="http://www.w3.org/2000/svg" version="1.1" viewBox="0 0 64 64">
  <!-- Generator: Adobe Illustrator 28.7.1, SVG Export Plug-In . SVG Version: 1.2.0 Build 142)  -->
  <g>
    <g id="Outline">
      <g>
        <path d="M24,21c1.6543,0,3-1.3457,3-3v-4c0-1.6543-1.3457-3-3-3s-3,1.3457-3,3v4c0,1.6543,1.3457,3,3,3ZM23,14c0-.55127.44824-1,1-1s1,.44873,1,1v4c0,.55127-.44824,1-1,1s-1-.44873-1-1v-4Z"/>
        <path d="M31,20v-3.76416l2.10547,4.21143c.17186.34421.52241.55271.89445.55273.52016.00004,1.00008-.438,1.00008-1v-8c0-.55225-.44727-1-1-1s-1,.44775-1,1v3.76416l-2.10547-4.21143c-.20704-.41504-.67773-.63428-1.12402-.52588-.45117.10645-.77051.50928-.77051.97314v8c0,.55225.44727,1,1,1s1-.44775,1-1Z"/>
        <path d="M42,13c.55273,0,1-.44775,1-1s-.44727-1-1-1h-4c-.55273,0-1,.44775-1,1v8c0,.55225.44727,1,1,1h4c.55273,0,1-.44775,1-1s-.44727-1-1-1h-3v-2h3c.55273,0,1-.44775,1-1s-.44727-1-1-1h-3v-2h3Z"/>
        <path d="M20.00781,24.12402l1,8c.05468.4375.38867.78711.82324.86182.43945.07129.86621-.14453,1.06348-.53857l1.10547-2.21143,1.10546,2.21141c.43354.86727,1.76684.63589,1.88673-.32323l1-8c.06836-.54785-.32031-1.04785-.86816-1.11621-.55371-.07324-1.04785.32031-1.11621.86816l-.59082,4.72266-.52246-1.0459c-.33984-.67773-1.44922-.67773-1.78906,0l-.52246,1.0459-.59082-4.72266c-.06836-.54785-.56543-.94141-1.11621-.86816-.54785.06836-.93652.56836-.86816,1.11621Z"/>
        <path d="M35,33c.55273,0,1-.44775,1-1v-6c0-1.6543-1.3457-3-3-3s-3,1.3457-3,3v6c0,.55225.44727,1,1,1s1-.44775,1-1v-2h2v2c0,.55225.44727,1,1,1ZM32,28v-2c0-.55127.44824-1,1-1s1,.44873,1,1v2h-2Z"/>
        <path d="M41,33c.55273,0,1-.44775,1-1v-3.76367l1.89453-3.78906c.24707-.49414.04688-1.09473-.44727-1.3418s-1.09473-.04688-1.3418.44727l-1.10547,2.21143-1.10547-2.21143c-.24805-.49414-.84863-.69434-1.3418-.44727-.49414.24707-.69434.84766-.44727,1.3418l1.89453,3.78906v3.76367c0,.55225.44727,1,1,1Z"/>
        <path d="M50,18c.54999,0,1-.45001,1-1v-7c0-1.65002-1.34998-3-3-3H16c-1.65002,0-3,1.34998-3,3v40c0,1.64996,1.34998,3,3,3h2v1c0,1.64996,1.34998,3,3,3h22c1.65002,0,3-1.35004,3-3v-1h2c1.65002,0,3-1.35004,3-3v-25c0-.54999-.45001-1-1-1s-1,.45001-1,1v10H15V10c0-.54999.45001-1,1-1h32c.54999,0,1,.45001,1,1v7c0,.54999.45001,1,1,1ZM44,54c0,.54999-.45001,1-1,1h-22c-.54999,0-1-.45001-1-1v-1h24v1ZM49,37v13c0,.54999-.45001,1-1,1H16c-.54999,0-1-.45001-1-1v-13h34Z"/>
        <path d="M40.71002,43.28998l-4-4c-.29004-.27997-.72003-.37-1.09003-.21002-.38.15002-.62.52002-.62.92004v1h-11c-.54999,0-1,.45001-1,1v4c0,.54999.45001,1,1,1h11s0,1,0,1.00015c.00013.86753,1.0937,1.32612,1.71002.70981l4-4c.38995-.38995.38995-1.02997,0-1.41998ZM36.94,45.64996c-.15002-.38-.51001-.64996-.94-.64996h-11v-2h11c.42999,0,.78998-.27002.94-.65002l1.65002,1.65002-1.65002,1.64996Z"/>
        <circle cx="46" cy="40" r="1"/>
        <circle cx="18" cy="40" r="1"/>
        <circle cx="46" cy="48" r="1"/>
        <circle cx="18" cy="48" r="1"/>
        <circle cx="50" cy="21" r="1"/>
      </g>
    </g>
  </g>
</svg>