<?xml version="1.0" encoding="UTF-8"?>
<svg xmlns="http://www.w3.org/2000/svg" version="1.1" viewBox="0 0 48 48">
  <!-- Generator: Adobe Illustrator 28.7.1, SVG Export Plug-In . SVG Version: 1.2.0 Build 142)  -->
  <g>
    <g id="Outline">
      <path d="M42,14h-6c-.54999,0-1,.45001-1,1v5h-5c-.54999,0-1,.45001-1,1v5h-4v-5c0-.54999-.45001-1-1-1h-5v-5c0-.54999-.45001-1-1-1h-5v-5c0-.54999-.45001-1-1-1h-6c-.54999,0-1,.45001-1,1v30c0,.54999.45001,1,1,1h36c.54999,0,1-.45001,1-1V15c0-.54999-.45001-1-1-1ZM11,38h-4v-4h4v4ZM11,32h-4v-4h4v4ZM11,26h-4v-4h4v4ZM11,20h-4v-4h4v4ZM11,14h-4v-4h4v4ZM17,38h-4v-4h4v4ZM17,32h-4v-4h4v4ZM17,26h-4v-4h4v4ZM17,20h-4v-4h4v4ZM23,38h-4v-4h4v4ZM23,32h-4v-4h4v4ZM23,26h-4v-4h4v4ZM29,38h-4v-4h4v4ZM29,32h-4v-4h4v4ZM35,38h-4v-4h4v4ZM35,32h-4v-4h4v4ZM35,26h-4v-4h4v4ZM41,38h-4v-4h4v4ZM41,32h-4v-4h4v4ZM41,26h-4v-4h4v4ZM41,20h-4v-4h4v4Z"/>
    </g>
  </g>
</svg>