<?xml version="1.0" encoding="UTF-8"?>
<svg xmlns="http://www.w3.org/2000/svg" version="1.1" viewBox="0 0 64 64">
  <!-- Generator: Adobe Illustrator 28.7.1, SVG Export Plug-In . SVG Version: 1.2.0 Build 142)  -->
  <g>
    <g id="Outline">
      <g>
        <path d="M55,51v-5c0-.54999-.45001-1-1-1h-1v-7c0-1.85999-1.28003-3.41003-3-3.85999v-6.14001c0-1.65002-1.34998-3-3-3h-6c-1.65002,0-3,1.34998-3,3v2.14001c-1.71997.44995-3,2-3,3.85999v7h-2v-1c0-1.65002-1.34998-3-3-3h-1.14001l-2.73999-18.29999c-.15002-.97003-1-1.70001-1.97998-1.70001h-6.28003c-.97998,0-1.82996.72998-1.97998,1.70001l-2.73999,18.29999h-1.14001c-1.65002,0-3,1.34998-3,3v11c-1.09998,0-2,.89996-2,2v2c0,1.09998.90002,2,2,2h46c1.09998,0,2-.90002,2-2v-2c0-1.10004-.90002-2-2-2ZM51,38h-4c0-1.10004.90002-2,2-2s2,.89996,2,2ZM51,40v5h-4v-5h4ZM40,28c0-.54999.45001-1,1-1h6c.54999,0,1,.45001,1,1v6.14001c-1.71997.44995-3,2-3,3.85999v3h-2v-7c0-1.85999-1.28003-3.41003-3-3.85999v-2.14001ZM45,43v2h-2v-2h2ZM39,32c1.09998,0,2,.89996,2,2h-4c0-1.10004.90002-2,2-2ZM37,36h4v9h-4v-9ZM33,43h2v2h-2v-2ZM33,47h20v4h-20v-4ZM17.85999,19h6.28003l.45001,3h-7.18005l.45001-3ZM17.10999,24h7.78003l.75,5h-9.28003l.75-5ZM16.06,31h9.88l.90002,6h-11.68005l.90002-6ZM11,40c0-.54999.45001-1,1-1h18c.54999,0,1,.45001,1,1v11H11v-11ZM55,55H9v-2h46v2Z"/>
        <path d="M18,15c.25586,0,.51172-.09766.70703-.29297l1-.99951c.45605-.45605.70703-1.0625.70703-1.70752s-.25098-1.25146-.70703-1.70752c-.10547-.10547-.12109-.22852-.12109-.29248s.01562-.18701.12109-.29297l1-1c.39062-.39062.39062-1.02344,0-1.41406s-1.02344-.39062-1.41406,0l-1,.99951c-.45605.45605-.70703,1.0625-.70703,1.70752s.25098,1.25146.70703,1.70752c.10547.10547.12109.22852.12109.29248s-.01562.18701-.12109.29297l-1,1c-.39062.39062-.39062,1.02344,0,1.41406.19531.19531.45117.29297.70703.29297Z"/>
        <path d="M23,15c.25586,0,.51172-.09766.70703-.29297l1-.99951c.45605-.45605.70703-1.0625.70703-1.70752s-.25098-1.25146-.70703-1.70752c-.10547-.10547-.12109-.22852-.12109-.29248s.01562-.18701.12109-.29297l1-1c.39062-.39062.39062-1.02344,0-1.41406s-1.02344-.39062-1.41406,0l-1,.99951c-.45605.45605-.70703,1.0625-.70703,1.70752s.25098,1.25146.70703,1.70752c.10547.10547.12109.22852.12109.29248s-.01562.18701-.12109.29297l-1,1c-.39062.39062-.39062,1.02344,0,1.41406.19531.19531.45117.29297.70703.29297Z"/>
        <path d="M28,41h-14c-.55273,0-1,.44775-1,1v4c0,.55225.44727,1,1,1h14c.55273,0,1-.44775,1-1v-4c0-.55225-.44727-1-1-1ZM18,45h-3v-2h3v2ZM22,45h-2v-2h2v2ZM27,45h-3v-2h3v2Z"/>
      </g>
    </g>
  </g>
</svg>