<?xml version="1.0" encoding="UTF-8"?>
<svg xmlns="http://www.w3.org/2000/svg" version="1.1" viewBox="0 0 64 64">
  <!-- Generator: Adobe Illustrator 28.7.1, SVG Export Plug-In . SVG Version: 1.2.0 Build 142)  -->
  <g>
    <g id="Outline">
      <g>
        <path d="M56,34h-5v-1c0-1.65002-1.34998-3-3-3s-3,1.34998-3,3v1h-4v-2c0-1.65002-1.34998-3-3-3v-3c0-.54999-.45001-1-1-1h-2v-2c1.27002,0,2.34998-.79999,2.78998-1.92004,0,0,6.12575.61963,6.13001.62006,2.14681.21709,4.07996-1.55883,4.08001-3.69992.00006-2.15846-1.93551-3.90826-4.08002-3.70011l-6.13.62c-.44-1.12-1.51996-1.91998-2.78998-1.91998h-6c-1.27002,0-2.34998.79999-2.78998,1.91998l-6.13-.61999c-2.14813-.21726-4.07996,1.55115-4.08003,3.6999-.00007,2.17647,1.93352,3.87809,4.08002,3.70012l6.13-.62006c.44,1.12006,1.51996,1.92004,2.78998,1.92004v2h-2c-.54999,0-1,.45001-1,1v3c-1.65002,0-3,1.34998-3,3v2h-4v-1c0-1.65002-1.34998-3-3-3s-3,1.34998-3,3v1h-5c-.54999,0-1,.45001-1,1v10c0,.54999.45001,1,1,1h5v1c0,1.64996,1.34998,3,3,3s3-1.35004,3-3v-1h4v2c0,1.64996,1.34998,3,3,3h12c1.65002,0,3-1.35004,3-3v-2h4v1c0,1.64996,1.34998,3,3,3s3-1.35004,3-3v-1h5c.54999,0,1-.45001,1-1v-10c0-.54999-.45001-1-1-1ZM38,16.89996l6.10999-.60999c.5-.04999.96002.10999,1.33002.44.35988.32992.55988.77977.56,1.2696.00023.99786-.90329,1.80914-1.89001,1.71038l-6.10999-.60999v-2.20001ZM26,19.09998l-6.10989.60998c-.979.09774-1.88994-.73127-1.89011-1.70969-.00016-.93146.77538-1.72029,1.71002-1.7203.06,0,.12.01001.17999.01001l6.10999.60999v2.20001ZM13,44h-4v-8h4v8ZM17,47c0,.54999-.45001,1-1,1s-1-.45001-1-1v-14c0-.54999.45001-1,1-1s1,.45001,1,1v14ZM23,44h-4v-8h4v8ZM28,20v-4c0-.54999.45001-1,1-1h6c.54999,0,1,.45001,1,1v4c0,.54999-.45001,1-1,1h-6c-.54999,0-1-.45001-1-1ZM33,23v2h-2v-2h2ZM28,27h8v2h-8v-2ZM39,48c0,.54999-.45001,1-1,1h-12c-.54999,0-1-.45001-1-1v-16c0-.54999.45001-1,1-1h12c.54999,0,1,.45001,1,1v16ZM45,44h-4v-8h4v8ZM49,47c0,.54999-.45001,1-1,1s-1-.45001-1-1v-14c0-.54999.45001-1,1-1s1,.45001,1,1v14ZM55,44h-4v-8h4v8Z"/>
        <path d="M33.70703,36.29297c-.39062-.39062-1.02344-.39062-1.41406,0s-.39062,1.02344,0,1.41406l1.29297,1.29297h-5.58594c-.55273,0-1,.44775-1,1s.44727,1,1,1h5.58594l-1.29297,1.29297c-.39062.39062-.39062,1.02344.00022,1.41428.38805.38781,1.02456.38899,1.41384-.00022l3-3c.39062-.39062.39062-1.02344,0-1.41406l-3-3Z"/>
      </g>
    </g>
  </g>
</svg>