<?xml version="1.0" encoding="UTF-8"?>
<svg xmlns="http://www.w3.org/2000/svg" version="1.1" viewBox="0 0 64 64">
  <!-- Generator: Adobe Illustrator 28.7.1, SVG Export Plug-In . SVG Version: 1.2.0 Build 142)  -->
  <g>
    <g id="Outline">
      <g>
        <path d="M52,7c-1.65002,0-3,1.34998-3,3v11h-2v-11c0-1.65002-1.34998-3-3-3s-3,1.34998-3,3v11h-2v-11c0-1.65002-1.34998-3-3-3s-3,1.34998-3,3v17c0,4.07001,3.06,7.44,7,7.94v18.06c0,2.20996,1.78998,4,4,4s4-1.79004,4-4v-18.06c3.94-.5,7-3.87,7-7.94V10c0-1.65002-1.34998-3-3-3ZM53,27c0,3.31-2.69,6-6,6-.54999,0-1,.45001-1,1v19c0,1.09998-.90002,2-2,2s-2-.90002-2-2v-19c0-.54999-.45001-1-1-1-3.31,0-6-2.69-6-6V10c0-.54999.45001-1,1-1s1,.45001,1,1v12c0,.54999.45001,1,1,1h4c.54999,0,1-.45001,1-1v-12c0-.54999.45001-1,1-1s1,.45001,1,1v12c0,.54999.45001,1,1,1h4c.54999,0,1-.45001,1-1v-12c0-.54999.45001-1,1-1s1,.45001,1,1v17Z"/>
        <path d="M23,29c-7.71997,0-14,6.27997-14,14s6.28003,14,14,14,14-6.28003,14-14-6.28003-14-14-14ZM23,55c-6.62,0-12-5.38-12-12s5.38-12,12-12,12,5.38,12,12-5.38,12-12,12Z"/>
        <path d="M32.94,39.92999c-.06-.45001-.41998-.81-.87-.87-.21002-.02002-5.04999-.57001-7.82001,2.19-.53003.52997-.94,1.14001-1.25,1.77997-.31-.63995-.71997-1.25-1.25-1.77997-2.77002-2.77002-7.60999-2.21002-7.82001-2.19-.45001.06-.81.41998-.87.87-.02002.21002-.58002,5.04999,2.19,7.82001,1.95001,1.95001,4.92999,2.25,6.59003,2.25.59998,0,1.00995-.04004,1.15997-.04999.15002.00995.56.04999,1.15997.04999,1.66003,0,4.64001-.29999,6.59003-2.25,2.77002-2.77002,2.21002-7.60999,2.19-7.82001ZM17.72998,45.27997c1.25.71002,2.37,1.63,3.32001,2.69-1.35999-.09998-3.19-.45001-4.38-1.64001-1.5-1.5-1.67999-4.02997-1.66998-5.32996,1.31.01001,3.83002.16998,5.33002,1.66998.88.87,1.29999,2.09998,1.5,3.22998-.92999-.89996-1.97003-1.70996-3.10004-2.35999-.47998-.27002-1.08997-.10999-1.37.37-.26996.48004-.10999,1.09003.37,1.37ZM29.33002,46.32996c-1.17999,1.19-3.01001,1.53003-4.37,1.63.94995-1.04999,2.06-1.96997,3.31-2.67999.47998-.27997.63995-.88995.37-1.37-.28003-.47998-.89001-.64001-1.37-.37-1.13.65002-2.17004,1.46002-3.10004,2.35999.21002-1.15997.65002-2.38995,1.5-3.22998,1.5-1.51001,4.04004-1.66998,5.33002-1.66998.02002,1.46997-.25,3.91998-1.66998,5.32996Z"/>
      </g>
    </g>
  </g>
</svg>