<?xml version="1.0" encoding="UTF-8"?>
<svg xmlns="http://www.w3.org/2000/svg" version="1.1" viewBox="0 0 64 64">
  <!-- Generator: Adobe Illustrator 28.7.1, SVG Export Plug-In . SVG Version: 1.2.0 Build 142)  -->
  <g>
    <g id="Outline">
      <g>
        <path d="M56.10999,43.81c-.87-.85999-2.16998-1.12-3.31-.65002l-10.56,4.40002h-1.14996c.21997-.46002.34998-.97003.34998-1.5,0-1.92999-1.57001-3.5-3.5-3.5h-7.27002c-1.31,0-2.62-.31-3.77997-.89001-1.45001-.72998-3.07001-1.10999-4.69-1.10999h-4.38c-.41998-1.16003-1.52002-2-2.82001-2h-5c-1.65002,0-3,1.33997-3,3v12c0,1.64996,1.34998,3,3,3h5c1.29999,0,2.40002-.84003,2.82001-2h3.33002c2.06,0,4.06995.39001,5.96997,1.14996,2.15002.86005,4.42999,1.29004,6.71002,1.29004,2.66998,0,5.33997-.59003,7.78998-1.77002,0,0,13.64001-6.52002,13.65002-6.52997,1.85999-.89001,2.29999-3.43005.83997-4.89001ZM16,53.56c0,.54999-.45001,1-1,1h-5c-.54999,0-1-.45001-1-1v-12c0-.54999.45001-1,1-1h5c.54999,0,1,.45001,1,1v12ZM54.40997,46.89996l-13.64996,6.53003c-4.03003,1.92999-8.73999,2.08997-12.90002.41998-2.14001-.85999-4.39001-1.28998-6.70996-1.28998h-3.15002v-10h4.20001c1.31,0,2.62.31,3.78998.89001,1.44.72998,3.06,1.10999,4.67999,1.10999h7.27002c.83002,0,1.5.66998,1.5,1.5,0,.39996-.15997.77997-.44,1.06-.27002.27997-.65997.44-1.06.44h-9.5c-.54999,0-1,.45001-1,1s.45001,1,1,1h14c.13,0,.26001-.03003.38-.08002l10.73999-4.46997c.39001-.16003.84003-.07001,1.13.21997.5.5.35999,1.35999-.28003,1.66998Z"/>
        <path d="M56.85999,28.53998c-1.64001-.95001-2.62-2.64996-2.62-4.53998s.97989-3.58987,2.61976-4.5399c.46609-.27002.62176-.89744.36022-1.36012l-3-5.20001c-.26996-.47998-.87994-.63995-1.35999-.35999-1.64001.94-3.59998.94-5.23999,0-1.64001-.95001-2.62-2.64996-2.62-4.53998,0-.54999-.45001-1-1-1h-6c-.54999,0-1,.45001-1,1,0,1.89001-.97998,3.58997-2.62,4.53998-1.64001.94-3.59998.94-5.23999,0-.48004-.27997-1.09003-.12-1.35999.35999l-2.99999,5.2c-.26983.4677-.11386,1.09222.35998,1.36,1.64001.95001,2.62,2.65002,2.62,4.54004s-.97994,3.58989-2.61989,4.53992c-.47473.27501-.62713.88766-.36009,1.36005l3,5.20001c.26996.47998.87994.64001,1.35999.35999,1.64001-.94,3.59998-.94,5.23999,0,1.64001.95001,2.62,2.65002,2.62,4.54004,0,.54999.45001,1,1,1h6c.54999,0,1-.45001,1-1,0-1.89001.97998-3.59003,2.62-4.54004,1.64001-.94,3.59998-.94,5.23999,0,.48004.28003,1.09003.12,1.35999-.35999,0,0,2.99828-5.19703,3-5.20002.27186-.47124.1115-1.08686-.35999-1.35998ZM43.62,30.48999c-.37.15997-.62.52002-.62.92999v7.58002h-4v-7.58002c0-.40997-.25-.77002-.62-.92999-2.66003-1.08002-4.38-3.63-4.38-6.48999,0-2.33002,1.14001-4.46002,3-5.75v4.75c0,.32996.16998.64996.45001.82996l3,2c.33002.23004.76996.23004,1.09998,0l3-2c.28003-.17999.45001-.5.45001-.82996v-4.75c1.85999,1.28998,3,3.41998,3,5.75,0,2.85999-1.71997,5.40997-4.38,6.48999ZM52.96002,33.28998c-2.06-.83997-4.37-.70001-6.34003.44-.60999.35999-1.15002.78998-1.62,1.28003v-2.94c3.06-1.52002,5-4.62,5-8.07001,0-3.67999-2.21002-6.96002-5.62-8.35004-.31-.12-.66003-.08997-.94.10004-.27002.19-.44.5-.44.82996v5.88l-2,1.34003-2-1.34003v-5.88c0-.32996-.16998-.63995-.44-.82996-.27997-.19-.63-.22003-.94-.10004-3.40997,1.39001-5.62,4.67004-5.62,8.35004,0,3.45001,1.94,6.54999,5,8.07001v2.94c-.46997-.49005-1.01001-.92004-1.62-1.28003-1.97003-1.14001-4.28003-1.27997-6.34003-.44l-2.06-3.58002c1.76001-1.35999,2.78003-3.42999,2.78003-5.70996s-1.02002-4.35004-2.78003-5.71002l2.06-3.58002c2.06.84003,4.37.70001,6.34003-.44,1.96997-1.13995,3.25-3.06,3.54999-5.26996h4.14001c.29999,2.20996,1.58002,4.13,3.54999,5.26996,1.97003,1.14001,4.28003,1.28003,6.34003.44l2.06,3.58002c-1.76001,1.35999-2.78003,3.42999-2.78003,5.71002s1.02002,4.34998,2.78003,5.70996l-2.06,3.58002Z"/>
      </g>
    </g>
  </g>
</svg>