<?xml version="1.0" encoding="utf-8"?>
<!-- Generator: Adobe Illustrator 27.3.1, SVG Export Plug-In . SVG Version: 6.00 Build 0)  -->
<svg version="1.1" id="Outline" xmlns="http://www.w3.org/2000/svg" xmlns:xlink="http://www.w3.org/1999/xlink" x="0px" y="0px"
	 viewBox="0 0 48 48" enable-background="new 0 0 48 48" xml:space="preserve">
<g>
	<path d="M19.00049,33.66016h9.99902c0.35742,0,0.6875-0.19043,0.86621-0.5L34.86621,24.5c0.17822-0.30957,0.17822-0.69043,0-1
		l-5.00049-8.66064c-0.17871-0.30957-0.50879-0.5-0.86621-0.5h-9.99902c-0.35742,0-0.6875,0.19043-0.86621,0.5L13.13379,23.5
		c-0.17822,0.30957-0.17822,0.69043,0,1l5.00049,8.66016C18.31299,33.46973,18.64307,33.66016,19.00049,33.66016z
		 M19.57764,16.33936h8.84473L32.84521,24l-4.42285,7.66016h-8.84473L15.15479,24L19.57764,16.33936z"/>
	<path d="M22.58594,29.65625L24,28.24219c0,0,1.40966,1.40966,1.41405,1.41405c0.37253,0.37253,1.02563,0.38846,1.41407,0.00001
		c0,0,2.82861-2.82812,2.82863-2.82815c0.38577-0.38579,0.38465-1.02937-0.00002-1.41404L28.24268,24l1.41406-1.41406
		c0.39062-0.39062,0.39062-1.02344,0-1.41406l-2.82861-2.82861c-0.39062-0.39062-1.02344-0.39062-1.41406,0L24,19.75732
		l-1.41406-1.41406c-0.39062-0.39062-1.02344-0.39062-1.41406,0l-2.82861,2.82861c-0.39062,0.39062-0.39062,1.02344,0,1.41406
		L19.75732,24c0,0-1.41086,1.41086-1.41406,1.41406c-0.38419,0.38419-0.38262,1.03146-0.00001,1.41407l2.82861,2.82812
		C21.5625,30.04688,22.19531,30.04688,22.58594,29.65625z M21.87842,23.29297l-1.41406-1.41406l1.41455-1.41455l1.41406,1.41406
		c0.39062,0.39062,1.02344,0.39062,1.41406,0l1.41406-1.41406l1.41455,1.41455l-1.41406,1.41406
		c-0.39062,0.39062-0.39062,1.02344,0,1.41406l1.41406,1.41406l-1.41455,1.41406l-1.41406-1.41406
		C24.51172,25.92578,24.25586,25.82812,24,25.82812s-0.51172,0.09766-0.70703,0.29297l-1.41406,1.41406l-1.41455-1.41406
		l1.41406-1.41406C22.26904,24.31641,22.26904,23.68359,21.87842,23.29297z"/>
	<path d="M11.97919,11.97919c0.3905-0.39056,0.3905-1.02368,0-1.41425c-0.3905-0.3905-1.02368-0.3905-1.41425,0
		c-0.3905,0.39056-0.3905,1.02368,0,1.41425C10.95551,12.36969,11.58868,12.36969,11.97919,11.97919z"/>
	<path d="M24,5c-3.59717,0-7.10156,1.01465-10.13477,2.93506c-0.4668,0.29492-0.60547,0.91309-0.31006,1.37939
		c0.29346,0.46582,0.91113,0.60645,1.37939,0.31006C17.36536,8.08624,20.13556,7.20337,23,7.03522v2.01544
		C15.52753,9.54712,9.54712,15.52753,9.05066,23H7.03522c0.16815-2.86444,1.05103-5.63464,2.58929-8.06543
		c0.29541-0.46631,0.15674-1.08447-0.31006-1.37939c-0.46777-0.29688-1.08496-0.15674-1.37939,0.31006
		C6.01465,16.89844,5,20.40283,5,24c0,10.47656,8.52344,19,19,19s19-8.52344,19-19S34.47656,5,24,5z M40.94934,23h-2
		C38.45288,15.52753,32.47247,9.54712,25,9.05066v-2C33.57501,7.55316,40.44684,14.42499,40.94934,23z M24,11
		c7.16846,0,13,5.83154,13,13c0,7.16797-5.83154,13-13,13s-13-5.83203-13-13C11,16.83154,16.83154,11,24,11z M7.05066,25h2
		C9.54712,32.47284,15.52753,38.45288,23,38.94934v2C14.42499,40.44684,7.55316,33.57501,7.05066,25z M25,40.94934v-2
		C32.47247,38.45288,38.45288,32.47284,38.94934,25h2C40.44684,33.57501,33.57501,40.44684,25,40.94934z"/>
</g>
</svg>
