<?xml version="1.0" encoding="utf-8"?>
<!-- Generator: Adobe Illustrator 27.3.1, SVG Export Plug-In . SVG Version: 6.00 Build 0)  -->
<svg version="1.1" id="Outline" xmlns="http://www.w3.org/2000/svg" xmlns:xlink="http://www.w3.org/1999/xlink" x="0px" y="0px"
	 viewBox="0 0 48 48" enable-background="new 0 0 48 48" xml:space="preserve">
<g>
	<circle cx="3" cy="3" r="1"/>
	<path d="M32.9082,25.24219c0.07422-0.54541-0.30664-1.04883-0.85254-1.125l-5.11627-0.71674
		c-0.13177-0.64722-0.47986-1.21051-0.95581-1.63373l1.94318-4.80188c0.20703-0.51074-0.03809-1.09229-0.54883-1.30078
		c-2.15527-0.88086-4.59814-0.88086-6.75586,0c-0.51025,0.2085-0.75586,0.79004-0.54883,1.30078l1.94318,4.80188
		c-0.47595,0.42322-0.82397,0.98657-0.95581,1.63379l-5.11676,0.71667c-0.5459,0.07617-0.92676,0.58008-0.85205,1.12598
		c0.15771,1.1543,0.53271,2.25,1.11377,3.25684c0.58105,1.00677,1.34277,1.87885,2.26465,2.59277
		c0.41913,0.32452,1.06396,0.25763,1.40039-0.1748l3.18756-4.08417C23.35614,26.93323,23.66901,27,24,27
		c0.33093,0,0.64386-0.06677,0.94183-0.1662c0,0,3.18134,4.07678,3.18707,4.08417c0.32214,0.41284,0.97382,0.50732,1.40039,0.1748
		c0.92285-0.71484,1.68457-1.58691,2.26465-2.59277C32.37598,27.49316,32.75,26.39648,32.9082,25.24219z M18.95117,28.8457
		c-0.39062-0.4043-0.72998-0.85449-1.01318-1.3457c-0.28369-0.49121-0.50391-1.00977-0.65918-1.55078l4.07275-0.57019
		c0.04065,0.0777,0.07825,0.1571,0.12531,0.23065L18.95117,28.8457z M24,25c-0.55127,0-1-0.44873-1-1s0.44873-1,1-1s1,0.44873,1,1
		S24.55127,25,24,25z M24.13123,21.01324C24.08679,21.01129,24.04492,21,24,21s-0.08673,0.01129-0.13116,0.01324l-1.5412-3.80865
		c1.09082-0.27148,2.25342-0.27148,3.34521,0L24.13123,21.01324z M30.06152,27.50098
		c-0.2832,0.49023-0.62207,0.94043-1.0127,1.34473l-2.52533-3.23669c0.04694-0.07336,0.08447-0.15259,0.12506-0.2301
		l4.07214,0.57031C30.56641,26.49023,30.3457,27.00879,30.06152,27.50098z"/>
	<path d="M11.97919,11.97919c0.3905-0.39056,0.3905-1.02368,0-1.41425c-0.3905-0.3905-1.02368-0.3905-1.41425,0
		c-0.3905,0.39056-0.3905,1.02368,0,1.41425C10.95551,12.36969,11.58868,12.36969,11.97919,11.97919z"/>
	<path d="M24,5c-3.59717,0-7.10156,1.01465-10.13477,2.93506c-0.4668,0.29492-0.60547,0.91309-0.31006,1.37939
		c0.29443,0.46582,0.91064,0.60645,1.37939,0.31006C17.36536,8.08624,20.13556,7.20337,23,7.03522v4.01544
		C16.62964,11.53906,11.53906,16.62964,11.05066,23H7.03522c0.16815-2.86444,1.05103-5.63464,2.58929-8.06543
		c0.29541-0.46631,0.15674-1.08447-0.31006-1.37939c-0.46777-0.29688-1.08496-0.15674-1.37939,0.31006
		C6.01465,16.89844,5,20.40283,5,24c0,10.47656,8.52344,19,19,19s19-8.52344,19-19S34.47656,5,24,5z M25,7.05066
		C33.57501,7.55316,40.44684,14.42499,40.94934,23h-4C36.46088,16.6297,31.36993,11.53912,25,11.05066V7.05066z M23,40.94934
		C14.42499,40.44684,7.55316,33.57501,7.05066,25h4C11.53912,31.36993,16.6297,36.46088,23,36.94934V40.94934z M13,24
		c0-6.06543,4.93457-11,11-11s11,4.93457,11,11s-4.93457,11-11,11S13,30.06543,13,24z M25,40.94934v-4
		C31.36993,36.46088,36.46088,31.36993,36.94934,25h4C40.44684,33.57501,33.57501,40.44684,25,40.94934z"/>
</g>
</svg>
