<?xml version="1.0" encoding="UTF-8"?>
<svg id="Outline" xmlns="http://www.w3.org/2000/svg" version="1.1" viewBox="0 0 48 48">
  <circle cx="34" cy="12" r="1" fill="#000" stroke-width="0"/>
  <circle cx="38" cy="12" r="1" fill="#000" stroke-width="0"/>
  <circle cx="14" cy="12" r="1" fill="#000" stroke-width="0"/>
  <circle cx="10" cy="12" r="1" fill="#000" stroke-width="0"/>
  <path d="M40,17c1.6543,0,3-1.3457,3-3v-4c0-1.6543-1.3457-3-3-3h-.99023v-1c0-.55225-.44727-1-1-1h-4c-.55273,0-1,.44775-1,1v1H15v-1c0-.55225-.44727-1-1-1h-4c-.55273,0-1,.44775-1,1v1h-1c-1.6543,0-3,1.3457-3,3v4c0,1.6543,1.3457,3,3,3h1v2h-1c-1.6543,0-3,1.3457-3,3v4c0,1.6543,1.3457,3,3,3h1v2h-1c-1.6543,0-3,1.3457-3,3v4c0,1.6543,1.3457,3,3,3h1v1c0,.55273.44727,1,1,1h4c.55273,0,1-.44727,1-1v-1h18.00977v1c0,.55273.44727,1,1,1h4c.55273,0,1-.44727,1-1v-1h.99023c1.6543,0,3-1.3457,3-3v-4c0-1.6543-1.3457-3-3-3h-.99023v-2h.99023c1.6543,0,3-1.3457,3-3v-4c0-1.6543-1.3457-3-3-3h-.99023v-2h.99023ZM40,33c.55176,0,1,.44824,1,1v4c0,.55176-.44824,1-1,1H8c-.55176,0-1-.44824-1-1v-4c0-.55176.44824-1,1-1h32ZM11,31v-2h2v2h-2ZM15,31v-2h18.00977v2H15ZM35.00977,31v-2h2v2h-2ZM40,21c.55176,0,1,.44873,1,1v4c0,.55176-.44824,1-1,1H8c-.55176,0-1-.44824-1-1v-4c0-.55127.44824-1,1-1h32ZM11,19v-2h2v2h-2ZM15,19v-2h18.00977v2H15ZM35.00977,19v-2h2v2h-2ZM8,15c-.55176,0-1-.44873-1-1v-4c0-.55127.44824-1,1-1h32c.55176,0,1,.44873,1,1v4c0,.55127-.44824,1-1,1H8Z" fill="#000" stroke-width="0"/>
  <circle cx="34" cy="24" r="1" fill="#000" stroke-width="0"/>
  <circle cx="38" cy="24" r="1" fill="#000" stroke-width="0"/>
  <circle cx="14" cy="24" r="1" fill="#000" stroke-width="0"/>
  <circle cx="10" cy="24" r="1" fill="#000" stroke-width="0"/>
  <circle cx="38" cy="36" r="1" fill="#000" stroke-width="0"/>
  <circle cx="34" cy="36" r="1" fill="#000" stroke-width="0"/>
  <circle cx="14" cy="36" r="1" fill="#000" stroke-width="0"/>
  <circle cx="10" cy="36" r="1" fill="#000" stroke-width="0"/>
</svg>