<?xml version="1.0" encoding="UTF-8"?>
<svg xmlns="http://www.w3.org/2000/svg" version="1.1" viewBox="0 0 64 64">
  <!-- Generator: Adobe Illustrator 28.7.1, SVG Export Plug-In . SVG Version: 1.2.0 Build 142)  -->
  <g>
    <g id="Outline">
      <g>
        <path d="M50.92999,29.87c-.83002,0-1.63.15997-2.37.47998-.90997-1.56-2.46997-2.64001-4.23999-2.94.01001-.10999.01001-.22998.01001-.33997,0-3.35004-2.72003-6.07001-6.06-6.07001-2.84003,0-5.23004,1.95996-5.89001,4.58997-.87-.5-1.87-.76001-2.89001-.76996.95976-1.72956,1.5097-3.70892,1.51001-5.81825.00095-6.53649-5.46463-12.00175-11.99999-12.00176-6.49146,0-12.00001,5.48196-12.00001,12,0,5.12,3.22998,9.48999,7.75,11.20996-2.34998.82001-4.08002,3.08002-4.08002,5.72003,0,3.34998,2.72003,6.07001,6.06,6.07001h34.20001c3.35004,0,6.07001-2.72003,6.07001-6.07001,0-3.34003-2.71997-6.06-6.07001-6.06ZM9.04999,20h.95001c.54999,0,1-.45001,1-1s-.45001-1-1-1h-.95001c.20001-2.01001,1-3.84003,2.21002-5.32001l.66998.65997c.19.20001.45001.30005.71002.30005.25,0,.51001-.10004.70001-.30005.38995-.38995.38995-1.01996,0-1.40997l-.66003-.66998c1.47998-1.21002,3.31-2.01001,5.32001-2.21002v.95001c0,.54999.45001,1,1,1s1-.45001,1-1v-.95001c2.01001.20001,3.84003,1,5.32001,2.21002l-.66003.66998c-.38995.39001-.38995,1.02002,0,1.40997.19.20001.45001.30005.70001.30005.26001,0,.52002-.10004.71002-.30005l.66998-.65997c1.21002,1.47998,2.01001,3.31,2.21002,5.32001h-.95001c-.54999,0-1,.45001-1,1s.45001,1,1,1h.95001c-.5,5.04999-4.77002,9-9.95001,9s-9.45001-3.95001-9.95001-9ZM50.92999,40H16.72998c-2.23999,0-4.06-1.83002-4.06-4.07001s1.82001-4.06,4.06-4.06c.39001,0,.78003.07001,1.23004.20996.37.12006.75995.02002,1.01996-.25.22003-.22998.31-.53998.27002-.83997,3.35999-.07001,6.37-1.52002,8.51001-3.81,1.75-.78003,3.59998-.27002,4.71997,1.07001.27997.32989.7398.44996,1.13977.29008.6922-.27671.58026-.87937.58026-1.47007,0-2.24005,1.83002-4.07001,4.07001-4.07001s4.06,1.82996,4.06,4.07001c0,.32001-.04999.65997-.15002,1-.08997.29999-.02997.63.16003.88s.47998.39996.79999.39996c.08997,0,.17999-.01001.19-.02002,1.71997,0,3.25,1.10004,3.82996,2.74005.10004.28998.33002.51996.63.62.29004.09998.62.04999.88-.13.65002-.45001,1.44-.69,2.26001-.69,2.23999,0,4.07001,1.82001,4.07001,4.06s-1.83002,4.07001-4.07001,4.07001Z"/>
        <path d="M22,19c0-1.30194-.8385-2.40161-2-2.81573v-2.18427c0-.55225-.44727-1-1-1s-1,.44775-1,1v2.18427c-1.1615.41412-2,1.51379-2,2.81573,0,1.6543,1.3457,3,3,3s3-1.3457,3-3ZM18,19c0-.55127.44824-1,1-1s1,.44873,1,1-.44824,1-1,1-1-.44873-1-1Z"/>
        <path d="M33.17676,44.43164c-.6543.94775-2.17676,3.29004-2.17676,4.56836,0,1.6543,1.3457,3,3,3s3-1.3457,3-3c0-1.27832-1.52246-3.62061-2.17676-4.56836-.375-.54102-1.27148-.54102-1.64648,0ZM34,50c-.55176,0-1-.44873-1-.99902.00781-.30566.42383-1.17676,1-2.14746.5752.97021.99121,1.84131,1,2.14746,0,.55078-.44922.99902-1,.99902Z"/>
        <path d="M41.17676,49.43164c-.6543.94775-2.17676,3.29004-2.17676,4.56836,0,1.6543,1.3457,3,3,3s3-1.3457,3-3c0-1.27832-1.52246-3.62061-2.17676-4.56836-.375-.54102-1.27148-.54102-1.64648,0ZM42,55c-.55176,0-1-.44873-1-.99902.00781-.30566.42383-1.17676,1-2.14746.5752.97021.99121,1.84131,1,2.14746,0,.55078-.44922.99902-1,.99902Z"/>
        <path d="M49.17676,44.43164c-.6543.94775-2.17676,3.29004-2.17676,4.56836,0,1.6543,1.3457,3,3,3s3-1.3457,3-3c0-1.27832-1.52246-3.62061-2.17676-4.56836-.375-.54102-1.27148-.54102-1.64648,0ZM50,50c-.55176,0-1-.44873-1-.99902.00781-.30566.42383-1.17676,1-2.14746.5752.97021.99121,1.84131,1,2.14746,0,.55078-.44922.99902-1,.99902Z"/>
        <path d="M25.17676,49.43164c-.6543.94775-2.17676,3.29004-2.17676,4.56836,0,1.6543,1.3457,3,3,3s3-1.3457,3-3c0-1.27832-1.52246-3.62061-2.17676-4.56836-.375-.54102-1.27148-.54102-1.64648,0ZM26,55c-.55078,0-1-.44824-1-.99902.00879-.30615.4248-1.17725,1-2.14746.57617.9707.99219,1.8418,1,2.14648,0,.55127-.44824,1-1,1Z"/>
        <path d="M17.17676,44.43164c-.6543.94775-2.17676,3.29004-2.17676,4.56836,0,1.6543,1.3457,3,3,3s3-1.3457,3-3c0-1.27832-1.52246-3.62061-2.17676-4.56836-.375-.54102-1.27148-.54102-1.64648,0ZM18,50c-.55078,0-1-.44824-1-.99902.00879-.30615.4248-1.17725,1-2.14746.57617.9707.99219,1.8418,1,2.14648,0,.55127-.44824,1-1,1Z"/>
      </g>
    </g>
  </g>
</svg>