<?xml version="1.0" encoding="utf-8"?>
<!-- Generator: Adobe Illustrator 27.3.1, SVG Export Plug-In . SVG Version: 6.00 Build 0)  -->
<svg version="1.1" id="Outline" xmlns="http://www.w3.org/2000/svg" xmlns:xlink="http://www.w3.org/1999/xlink" x="0px" y="0px"
	 viewBox="0 0 64 64" enable-background="new 0 0 64 64" xml:space="preserve">
<g>
	<path d="M14.11719,26.77344c0.44867,0.67444,1.52039,0.5307,1.78027-0.23242C17.78613,20.97363,22.36328,16.8252,28,15.48145
		c0,0,0,0.51636,0,0.51855c0,0.76361,0.91827,1.25494,1.55469,0.83203c0,0,5.96252-3.97504,5.99982-3.99988
		c0.57727-0.38489,0.5744-1.28137,0.00018-1.66418c0,0-5.96808-3.97876-5.99988-3.99994C28.89746,6.7298,28,7.21619,28,8v1.35352
		c-7.18066,1.25586-13.34473,5.84863-16.60547,12.42188c-0.15918,0.32031-0.13477,0.7002,0.0625,0.99805
		C11.45703,22.77344,14.10052,26.74835,14.11719,26.77344z M29.13477,11.20117C29.63086,11.13379,30,10.70996,30,10.20996v-0.3418
		L33.19727,12l-3.20508,2.13672c-0.03027-0.24805-0.15332-0.47656-0.3457-0.63965c-0.22363-0.19043-0.52539-0.26855-0.80957-0.22363
		c-6.24902,1.03516-11.50195,5.10449-14.11035,10.80371l-1.2793-1.92285C16.61035,16.19043,22.43359,12.1123,29.13477,11.20117z"/>
	<path d="M56.87555,28.53131C56.71112,28.22455,56.39343,28,56,28h-1.35352c-1.25586-7.18066-5.84863-13.34473-12.42188-16.60547
		c-0.32129-0.16113-0.7002-0.13477-0.99805,0.0625c0,0-3.99585,2.65741-4,2.66016c-0.68225,0.45374-0.53986,1.51727,0.23242,1.78027
		C43.02637,17.78613,47.1748,22.36328,48.51855,28c0,0-0.51624,0-0.51855,0c-0.78766,0-1.26965,0.90033-0.83203,1.55469
		c0,0,3.99017,5.98529,4,5.99994c0.39056,0.58588,1.27423,0.58478,1.66406,0.00006c0,0,3.98779-5.98169,4-6
		C57.05103,29.22614,57.03979,28.83771,56.87555,28.53131z M52,33.19727c0,0-2.12988-3.19489-2.13641-3.20465
		c0.25488,0.37933,0.90771-0.88574,0.86298-1.1557c-1.03516-6.24902-5.10449-11.50195-10.80371-14.11035l1.92285-1.2793
		c5.96387,3.16309,10.04199,8.98633,10.95312,15.6875C52.86621,29.63086,53.29004,30,53.79004,30h0.3418L52,33.19727z"/>
	<path d="M49.88281,37.22656c-0.21191-0.31738-0.58008-0.49121-0.96289-0.4375c-0.37793,0.04883-0.69434,0.30859-0.81738,0.66992
		C46.21387,43.02637,41.63672,47.1748,36,48.51855c0,0,0-0.51556,0-0.51855c0-0.77869-0.90729-1.26227-1.55469-0.83203
		c0,0-5.97137,3.9809-5.99988,3.99994c-0.55457,0.36969-0.59875,1.26501-0.00012,1.66412c0,0,5.99878,3.99921,6,4
		C35.07172,57.24963,36,56.81439,36,56v-1.35352c7.18066-1.25586,13.34473-5.84863,16.60547-12.42188
		c0.15918-0.32031,0.13477-0.7002-0.0625-0.99805L49.88281,37.22656z M34.86523,52.79883C34.36914,52.86621,34,53.29004,34,53.79004
		v0.3418L30.80273,52l3.20508-2.13672c0.03027,0.24805,0.15332,0.47656,0.3457,0.63965
		c0.22461,0.19043,0.52441,0.27051,0.80957,0.22363c6.24902-1.03516,11.50195-5.10449,14.11035-10.80371l1.2793,1.92285
		C47.38965,47.80957,41.56641,51.8877,34.86523,52.79883z"/>
	<path d="M26.54102,48.10254C20.97363,46.21387,16.8252,41.63672,15.48145,36c0,0,0.51465,0,0.51855,0
		c0.76617,0,1.25916-0.91602,0.83203-1.55469l-4-6c-0.37109-0.55664-1.29297-0.55664-1.66406,0c0,0-3.97601,5.96399-3.99988,5.99982
		C6.72894,35.10382,7.21558,36,8,36h1.35352c1.25586,7.18066,5.84863,13.34473,12.42212,16.60559
		c0.32202,0.16089,0.69788,0.13696,0.9978-0.06262c0-0.00006,4-2.66016,4-2.66016c0.31738-0.21094,0.4873-0.58496,0.4375-0.96289
		C27.16211,48.54199,26.90234,48.22559,26.54102,48.10254z M22.1543,50.55273c-5.96387-3.16309-10.04199-8.98633-10.95312-15.6875
		C11.13379,34.36914,10.70996,34,10.20996,34h-0.3418L12,30.80273l2.13672,3.20508c-0.24805,0.03027-0.47656,0.15332-0.63965,0.3457
		c-0.19043,0.22363-0.27148,0.52051-0.22363,0.80957c1.03516,6.24902,5.10449,11.50195,10.80371,14.11035L22.1543,50.55273z"/>
	<path d="M29.00098,43.54297c0.23926-0.49707,0.0293-1.09473-0.46875-1.33398C25.7793,40.88672,24,38.05664,24,35
		c0-6.19043,5.95312-11.91016,7.96191-13.66309C33.95312,23.26562,40,29.57129,40,35c0,3.05664-1.7793,5.88672-4.53223,7.20898
		c-0.49805,0.23926-0.70801,0.83691-0.46875,1.33398c0.17188,0.3584,0.5293,0.56738,0.90234,0.56738
		c0.14453,0,0.29199-0.03125,0.43164-0.09863C39.77539,42.3584,42,38.82129,42,35c0-7.36426-8.9541-15.4082-9.33594-15.74707
		c-0.3584-0.32031-0.89551-0.33789-1.27832-0.04199C31.00293,19.50879,22,26.60742,22,35c0,3.82129,2.22461,7.3584,5.66699,9.01172
		C28.16699,44.25293,28.7627,44.04004,29.00098,43.54297z"/>
	<path d="M32,39c-2.20605,0-4-1.79395-4-4c0-0.55273-0.44727-1-1-1s-1,0.44727-1,1c0,3.30859,2.69141,6,6,6c0.55273,0,1-0.44727,1-1
		S32.55273,39,32,39z"/>
	<circle cx="32" cy="44" r="1"/>
</g>
</svg>
