<?xml version="1.0" encoding="UTF-8"?>
<svg id="Outline" xmlns="http://www.w3.org/2000/svg" version="1.1" viewBox="0 0 64 64">
  <path d="M57,22.5c0-6.89258-5.60742-12.5-12.5-12.5h-14.5v-1.99996c0-.77458-.87421-1.25877-1.53027-.84769l-7.99982,4.99988c-.61925.38703-.61696,1.30968-.00018,1.69543,0,0,7.96271,4.97669,7.99987,4.99992.65944.41215,1.5304-.0753,1.5304-.84757v-2h14.5c3.58398,0,6.5,2.91602,6.5,6.5,0,2.28271-1.18555,4.29059-2.97052,5.4505l-5.92987-2.07452c-.52051-.18066-1.0918.09277-1.27441.61426-.18164.52148.09277,1.0918.61426,1.27441l3.4715,1.21454c-.1366.00861-.27222.02081-.41095.02081h-6.5c-.55273,0-1,.44727-1,1v1.79016l-9,3.15027-16.9718-5.94037,16.9718-5.94049,5.90039,2.06445c.52246.18164,1.0918-.09277,1.27441-.61426.18164-.52148-.09277-1.0918-.61426-1.27441l-6.23047-2.17969c-.21289-.07422-.44727-.07422-.66016,0l-20,7c-.40137.14062-.66992.51953-.66992.94434v20c0,.4248.26855.80371.66992.94434,0,0,19.99187,6.99715,20,7,.19721.06903.44837.07383.66016,0l20-7c.40137-.14062.66992-.51953.66992-.94434v-14.8515c4.67267-1.81171,8-6.34363,8-11.6485ZM9,42.38708l10,3.33362v1.8916l-10-3.3327v-1.89252ZM9,46.38702s10.68359,3.56122,10.68365,3.56124c.63278.21486,1.31635-.28176,1.31635-.94826v-4c0-.43066-.27539-.8125-.68359-.94824l-11.31641-3.77216v-1.89258l10.68359,3.56122c.10547.03516.21191.05176.31641.05176.41895,0,.80859-.26465.94824-.68359.1748-.52441-.1084-1.09082-.63184-1.26465l-11.31641-3.77216v-5.86975l18,6.29974v17.8808l-18-6.30035v-1.90302ZM47,44.2796l-10,3.3327v-1.8916l10-3.33362v1.89252ZM47,36.2796l-11.31641,3.77216c-.52344.17383-.80664.74023-.63184,1.26465.13965.41895.5293.68359.94824.68359.10449,0,.21094-.0166.31641-.05176l10.68359-3.56122v1.89258l-11.31641,3.77216c-.4082.13574-.68359.51758-.68359.94824v3.99999c0,.66138.6856,1.16249,1.31641.94825l10.68359-3.56122v1.90302l-18,6.30035v-17.8808l8-2.79974v.09015c0,.55273.44727,1,1,1h6.5c.85602,0,1.69196-.08728,2.5-.25195v1.53156ZM47.62018,32.52673c-.0036.00146-.00757.00153-.01117.00305-.98285.3053-2.02698.47021-3.10901.47021h-5.5v-2h5.5c4.68652,0,8.5-3.81348,8.5-8.5s-3.81348-8.5-8.5-8.5h-15.5c-.55273,0-1,.44727-1,1v1.19531l-5.11328-3.19531,5.11328-3.19531v1.19531c0,.55273.44727,1,1,1h15.5c5.79004,0,10.5,4.70996,10.5,10.5,0,4.70398-3.10876,8.69501-7.37982,10.02673Z" fill="#000" stroke-width="0"/>
  <circle cx="38" cy="25.5" r="1" fill="#000" stroke-width="0"/>
</svg>