<?xml version="1.0" encoding="UTF-8"?>
<svg id="Outline" xmlns="http://www.w3.org/2000/svg" version="1.1" viewBox="0 0 48 48">
  <path d="M33,5H15c-3.30859,0-6,2.69141-6,6v23.20312c0,.69531.18262,1.38184.52734,1.98438l3.02881,5.30078c.53271.93262,1.53076,1.51172,2.60449,1.51172h17.67822c1.07324,0,2.07227-.5791,2.60547-1.51172l3.02832-5.30078c.34473-.60352.52734-1.29004.52734-1.98438V11c0-3.30859-2.69141-6-6-6ZM37,34.20312c0,.34668-.09082.69043-.26367.99219l-3.02832,5.30078c-.17773.31055-.51074.50391-.86914.50391H15.16064c-.35791,0-.69043-.19336-.86816-.50391l-3.02881-5.30176c-.17236-.30078-.26367-.64355-.26367-.99121V11c0-2.20605,1.79443-4,4-4h18c2.20605,0,4,1.79395,4,4v23.20312Z" fill="#000" stroke-width="0"/>
  <path d="M32,9h-16c-1.6543,0-3,1.3457-3,3v21.9375c0,.17383.04541.34473.13184.49609l2.32178,4.0625c.17822.31152.50928.50391.86816.50391h15.35693c.3584,0,.69043-.19238.86816-.50391l2.32129-4.0625c.08691-.15137.13184-.32227.13184-.49609V12c0-1.6543-1.3457-3-3-3ZM15,27h18v2H15v-2ZM16,11h16c.55176,0,1,.44824,1,1v13H15v-13c0-.55176.44873-1,1-1ZM31.09863,37h-14.19678l-1.90186-3.32812v-2.67188h18v2.67188l-1.90137,3.32812Z" fill="#000" stroke-width="0"/>
  <path d="M18,19h12c.55273,0,1-.44727,1-1v-4c0-.55273-.44727-1-1-1h-12c-.55225,0-1,.44727-1,1v4c0,.55273.44775,1,1,1ZM19,15h10v2h-10v-2Z" fill="#000" stroke-width="0"/>
  <circle cx="18" cy="22" r="1" fill="#000" stroke-width="0"/>
  <circle cx="22" cy="22" r="1" fill="#000" stroke-width="0"/>
  <circle cx="26" cy="22" r="1" fill="#000" stroke-width="0"/>
  <circle cx="30" cy="22" r="1" fill="#000" stroke-width="0"/>
</svg>