<?xml version="1.0" encoding="UTF-8"?>
<svg xmlns="http://www.w3.org/2000/svg" version="1.1" viewBox="0 0 48 48">
  <!-- Generator: Adobe Illustrator 28.7.1, SVG Export Plug-In . SVG Version: 1.2.0 Build 142)  -->
  <g>
    <g id="Outline">
      <g>
        <path d="M13,19c0,.55225.44775,1,1,1h20c.55225,0,1-.44775,1-1s-.44775-1-1-1H14c-.55225,0-1,.44775-1,1Z"/>
        <path d="M42,20h-3v-1c0-2.76001-2.23999-5-5-5h-8c-.54999,0-1,.45001-1,1s.45001,1,1,1h8c1.65002,0,3,1.34998,3,3v6.92999c0,3.34998-2.71997,6.07001-6.07001,6.07001-1.62,0-3.14996-.63-4.28998-1.78003l-1.92999-1.92999c-.39001-.39001-1.03003-.39001-1.42004,0l-1.92999,1.92999c-1.14001,1.15002-2.66998,1.78003-4.28998,1.78003s-3.15002-.63-4.28998-1.78003c-1.15002-1.14001-1.78003-2.66998-1.78003-4.28998v-6.92999c0-1.65002,1.34998-3,3-3h4c.54999,0,1-.45001,1-1s-.45001-1-1-1h-4c-2.76001,0-5,2.23999-5,5v1h-3c-.54999,0-1,.45001-1,1v4c0,.54999.45001,1,1,1h3c.02002,2.13.85999,4.13,2.35999,5.64001,1.53003,1.51996,3.54999,2.35999,5.71002,2.35999s4.17999-.84003,5.71002-2.35999l1.21997-1.23004,1.21997,1.23004c1.53003,1.51996,3.55005,2.35999,5.71002,2.35999,4.42999,0,8.03003-3.58002,8.07001-8h3c.54999,0,1-.45001,1-1v-4c0-.54999-.45001-1-1-1ZM9,24h-2v-2h2v2ZM41,24h-2v-2h2v2Z"/>
        <circle cx="22" cy="15" r="1"/>
      </g>
    </g>
  </g>
</svg>