<?xml version="1.0" encoding="UTF-8"?>
<svg id="Outline" xmlns="http://www.w3.org/2000/svg" version="1.1" viewBox="0 0 64 64">
  <path d="M54,26h-7.39001l1.90002-1.14001c.31-.17999.48999-.51001.48999-.85999v-3c0-.54999-.45001-1-1-1h-2.59003c-.06995-.23999-.14996-.48004-.22998-.71002l1.54999-2.79999c.17999-.31.17004-.69,0-.98999l-1.5-2.60004c-.27997-.47998-.88995-.63995-1.37-.37l-2.26001,1.29999c-.17999-.16998-.35999-.33997-.54999-.5l-.04999-3.20996c-.01001-.35004-.20001-.66998-.5-.85004l-2.59998-1.5c-.48004-.26996-1.09003-.10999-1.37.37006l-1.29004,2.25c-.23999-.06006-.47998-.11005-.72998-.15002l-1.65002-2.75c-.17999-.31-.51001-.48999-.85999-.48999h-3c-.54999,0-1,.45001-1,1v2.58997c-.23999.07001-.47998.15002-.71002.23004l-2.81-1.55005c-.29999-.17999-.67999-.16998-.97998,0l-2.59998,1.5c-.48004.28003-.64001.89001-.37,1.37006l1.29999,2.25995c-.17004.17999-.34003.36005-.5.55005l-3.21002.04999c-.34998.01001-.66998.20001-.84998.5l-1.5,2.59998c-.27002.47998-.11005,1.09003.37,1.37l2.25,1.29004c-.06.23999-.10999.47998-.15002.72998l-2.75,1.65002c-.31.17999-.48999.50995-.48999.85999v2h-5c-1.65002,0-3,1.34998-3,3v6c0,1.64996,1.34998,3,3,3h1v18c0,.54999.45001,1,1,1h4c.51001,0,.94-.39001.98999-.90002l.75-7.09998h28.52002l.75,7.09998c.04999.51001.47998.90002.98999.90002h4c.54999,0,1-.45001,1-1v-18h1c1.65002,0,3-1.35004,3-3v-6c0-1.65002-1.34998-3-3-3ZM17,24.57001l2.65997-1.60004c.26001-.15997.44-.41998.48004-.71997.08997-.60004.20996-1.15002.37-1.67999.13-.44-.06-.92004-.46002-1.16003l-2.03998-1.17999.70996-1.23999,3.11005-.04999c.28998,0,.57996-.14001.76001-.38.33997-.41998.73999-.85004,1.17999-1.28003.32996-.32001.40997-.82001.17999-1.21997l-1.19-2.04999,1.25-.72003,2.71997,1.5c.26001.15002.57001.16998.85004.06.51001-.20001,1.04999-.37,1.64996-.52002.45001-.10999.77002-.50995.77002-.96997v-2.35999h1.42999l1.60004,2.66998c.15997.25.41998.42999.71997.47003.59998.08997,1.15002.20996,1.67999.37.44.13.91998-.06,1.16003-.46002l1.17999-2.03998,1.23999.70996.04999,3.10999c0,.29004.14001.58002.38.76001.41998.34003.84998.73999,1.27997,1.17999.32001.33002.82001.40002,1.22003.18005l2.04999-1.18005.72003,1.24005-1.5,2.70996c-.15002.27002-.17004.58002-.06.85999.19995.51001.37,1.05005.51996,1.65002.11005.45001.51001.77002.97003.77002h2.35999v1.42999l-2.66998,1.59998c-.26001.16003-.42999.42999-.47003.73004-.01001.07996-.02997.15997-.03998.23999h-4.41998c.38-.94.59998-1.95001.59998-3,0-4.41003-3.59003-8-8-8s-8,3.58997-8,8c0,1.04999.21997,2.06.59998,3h-7.59998v-1.42999ZM38,23c0,1.07996-.28998,2.09998-.82001,3h-10.35999c-.53003-.90002-.82001-1.92004-.82001-3,0-3.31,2.69-6,6-6s6,2.69,6,6ZM15.09998,55h-2.09998v-17h3.89001l-1.79004,17ZM17.95001,47l.95001-9h26.19995l.95001,9h-28.09998ZM51,55h-2.09998l-1.79004-17h3.89001v17ZM55,35c0,.54999-.45001,1-1,1H10c-.54999,0-1-.45001-1-1v-6c0-.54999.45001-1,1-1h44c.54999,0,1,.45001,1,1v6Z" fill="#000" stroke-width="0"/>
  <path d="M52,30c-.55273,0-1,.44727-1,1v2c0,.55273.44727,1,1,1s1-.44727,1-1v-2c0-.55273-.44727-1-1-1Z" fill="#000" stroke-width="0"/>
  <path d="M48,30c-.55273,0-1,.44727-1,1v2c0,.55273.44727,1,1,1s1-.44727,1-1v-2c0-.55273-.44727-1-1-1Z" fill="#000" stroke-width="0"/>
  <path d="M44,30c-.55273,0-1,.44727-1,1v2c0,.55273.44727,1,1,1s1-.44727,1-1v-2c0-.55273-.44727-1-1-1Z" fill="#000" stroke-width="0"/>
</svg>