<?xml version="1.0" encoding="UTF-8"?>
<svg xmlns="http://www.w3.org/2000/svg" version="1.1" viewBox="0 0 48 48">
  <!-- Generator: Adobe Illustrator 28.7.1, SVG Export Plug-In . SVG Version: 1.2.0 Build 142)  -->
  <g>
    <g id="Outline">
      <g>
        <path d="M43,29c0-2.20605-1.79443-4-4-4-1.04028,0-1.98065.40875-2.69287,1.06195-.09821-.03223-.19818-.06195-.30713-.06195h-3c0-1.6543-1.3457-3-3-3h-2v-2h4c1.6543,0,3-1.3457,3-3v-1h3c.55225,0,1-.44727,1-1V6c0-.55273-.44775-1-1-1s-1,.44727-1,1v3h-2v-1c0-1.6543-1.3457-3-3-3h-6c-.55225,0-1,.44727-1,1s.44775,1,1,1h6c.55127,0,1,.44824,1,1v10c0,.55176-.44873,1-1,1h-16c-.55127,0-1-.44824-1-1v-10c0-.55176.44873-1,1-1h2c.55225,0,1-.44727,1-1s-.44775-1-1-1h-2c-1.6543,0-3,1.3457-3,3v1h-2v-3c0-.55273-.44775-1-1-1s-1,.44727-1,1v10c0,.55273.44775,1,1,1h3v1c0,1.6543,1.3457,3,3,3h4v2h-2c-1.6543,0-3,1.3457-3,3h-3c-.10895,0-.20892.02972-.30713.06195-.71222-.6532-1.65259-1.06195-2.69287-1.06195-2.20557,0-4,1.79395-4,4,0,1.04047.40887,1.98077,1.06201,2.69287-.03217.09814-.06201.19818-.06201.30713v8c0,1.6543,1.3457,3,3,3s3-1.3457,3-3v-8h3v7c0,2.20605,1.79443,4,4,4h10c2.20557,0,4-1.79395,4-4v-7h3v8c0,1.6543,1.3457,3,3,3s3-1.3457,3-3v-8c0-.10895-.02985-.20898-.06201-.30713.65314-.7121,1.06201-1.6524,1.06201-2.69287ZM37,11v4h-2v-4h2ZM11,15v-4h2v4h-2ZM39,27c1.10303,0,2,.89746,2,2s-.89697,2-2,2-2-.89746-2-2,.89697-2,2-2ZM22,21h4v2h-4v-2ZM9,27c1.10303,0,2,.89746,2,2s-.89697,2-2,2-2-.89746-2-2,.89697-2,2-2ZM10,40c0,.55176-.44873,1-1,1s-1-.44824-1-1v-7h2v7ZM13,30v-2h2v2h-2ZM31,39c0,1.10254-.89697,2-2,2h-10c-1.10303,0-2-.89746-2-2v-13c0-.55176.44873-1,1-1h12c.55127,0,1,.44824,1,1v13ZM35,30h-2v-2h2v2ZM40,40c0,.55176-.44873,1-1,1s-1-.44824-1-1v-7h2v7Z"/>
        <path d="M17,11c0,1.6543,1.3457,3,3,3s3-1.3457,3-3-1.3457-3-3-3-3,1.3457-3,3ZM20,10c.55127,0,1,.44824,1,1s-.44873,1-1,1-1-.44824-1-1,.44873-1,1-1Z"/>
        <path d="M31,11c0-1.6543-1.3457-3-3-3s-3,1.3457-3,3,1.3457,3,3,3,3-1.3457,3-3ZM28,12c-.55127,0-1-.44824-1-1s.44873-1,1-1,1,.44824,1,1-.44873,1-1,1Z"/>
        <path d="M20,15.5c-.55225,0-1,.44727-1,1s.44775,1,1,1h8c.55225,0,1-.44727,1-1s-.44775-1-1-1h-8Z"/>
        <path d="M28,27h-8c-.55225,0-1,.44727-1,1v6c0,2.75684,2.24316,5,5,5s5-2.24316,5-5v-6c0-.55273-.44775-1-1-1ZM27,34c0,1.6543-1.3457,3-3,3s-3-1.3457-3-3v-5h6v5Z"/>
        <circle cx="22" cy="6" r="1"/>
      </g>
    </g>
  </g>
</svg>