<?xml version="1.0" encoding="UTF-8"?>
<svg xmlns="http://www.w3.org/2000/svg" version="1.1" viewBox="0 0 48 48">
  <!-- Generator: Adobe Illustrator 28.7.1, SVG Export Plug-In . SVG Version: 1.2.0 Build 142)  -->
  <g>
    <g id="Outline">
      <g>
        <path d="M24,17c-3.92529,0-7,2.19629-7,5s3.07471,5,7,5,7-2.19629,7-5-3.07471-5-7-5ZM25,24.93646v-1.93646h1c.55225,0,1-.44727,1-1s-.44775-1-1-1h-4c-.55225,0-1,.44727-1,1s.44775,1,1,1h1v1.93646c-2.25055-.28699-4-1.51526-4-2.93646,0-1.62598,2.28955-3,5-3s5,1.37402,5,3c0,1.4212-1.74945,2.64948-4,2.93646Z"/>
        <path d="M20,16c1.6543,0,3-1.3457,3-3s-1.3457-3-3-3-3,1.3457-3,3,1.3457,3,3,3ZM20,12c.55127,0,1,.44824,1,1s-.44873,1-1,1-1-.44824-1-1,.44873-1,1-1Z"/>
        <path d="M28,10c-1.6543,0-3,1.3457-3,3s1.3457,3,3,3,3-1.3457,3-3-1.3457-3-3-3ZM28,14c-.55127,0-1-.44824-1-1s.44873-1,1-1,1,.44824,1,1-.44873,1-1,1Z"/>
        <path d="M43,12c0-3.85938-3.14014-7-7-7-1.9024,0-3.66486.75232-4.96777,2.08264-2.02972-1.31201-4.44073-2.08264-7.03223-2.08264s-5.0025.77063-7.03223,2.08264c-1.30292-1.33032-3.06537-2.08264-4.96777-2.08264-2.125,0-4.11035.94824-5.44727,2.60156-.34766.42969-.28076,1.05957.14844,1.40625.42969.34863,1.05957.28125,1.40625-.14844.95557-1.18164,2.37451-1.85938,3.89258-1.85938,1.27118,0,2.45184.474,3.36072,1.31299-2.41211,2.15363-4.0188,5.18365-4.30518,8.59131-1.15118-.21991-2.19458-.83185-2.94812-1.76367-.34619-.42871-.97607-.49512-1.40625-.14844-.4292.34668-.49609.97656-.14844,1.40625,1.13428,1.40277,2.73718,2.29083,4.49432,2.52997.1969,2.7663,1.25,5.29926,2.91339,7.32019l-.67334,2.10883c-.53784,1.69043-.65283,3.47546-.37207,5.19409-.57434.97675-.91504,2.16473-.91504,3.44849,0,3.30859,2.24316,6,5,6,.96185,0,1.85797-.33325,2.62134-.90039,1.37573.58771,2.84302.90039,4.37866.90039s3.00287-.31268,4.37866-.90039c.76331.56714,1.65948.90039,2.62134.90039,2.75684,0,5-2.69141,5-6,0-1.28375-.3407-2.47174-.91504-3.44849.28076-1.71863.16571-3.50378-.37256-5.19604l-.67285-2.10687c1.66357-2.02118,2.71674-4.55457,2.91345-7.32129,3.40955-.46741,6.047-3.39191,6.047-6.92731ZM36,7c2.75684,0,5,2.24316,5,5,0,2.43341-1.74951,4.46094-4.05554,4.90448-.28638-3.40771-1.89301-6.43781-4.30518-8.59149.90887-.83899,2.08954-1.31299,3.36072-1.31299ZM14,37c0-2.20605,1.3457-4,3-4s3,1.79395,3,4-1.3457,4-3,4-3-1.79395-3-4ZM21.04315,40.5155c.59906-.98926.95685-2.20178.95685-3.5155,0-3.30859-2.24316-6-5-6-.8031,0-1.56006.23395-2.23322.63947.01306-.89471.14429-1.78912.42609-2.67462l.354-1.10864c2.27527,1.95428,5.22546,3.1438,8.45312,3.1438s6.17786-1.18951,8.45319-3.14386l.35345,1.10675c.2821.88672.41345,1.78162.42651,2.67657-.67316-.40552-1.43005-.63947-2.23315-.63947-2.75684,0-5,2.69141-5,6,0,1.31372.35779,2.52625.95685,3.5155-1.89911.63721-4.01459.63721-5.9137,0ZM31,41c-1.6543,0-3-1.79395-3-4s1.3457-4,3-4,3,1.79395,3,4-1.3457,4-3,4ZM24,29c-6.06543,0-11-4.93457-11-11s4.93457-11,11-11,11,4.93457,11,11-4.93457,11-11,11Z"/>
        <circle cx="6" cy="12" r="1"/>
      </g>
    </g>
  </g>
</svg>