<?xml version="1.0" encoding="UTF-8"?>
<svg xmlns="http://www.w3.org/2000/svg" version="1.1" viewBox="0 0 64 64">
  <!-- Generator: Adobe Illustrator 28.7.1, SVG Export Plug-In . SVG Version: 1.2.0 Build 142)  -->
  <g>
    <g id="Outline">
      <g>
        <circle cx="20" cy="28" r="1"/>
        <circle cx="16" cy="28" r="1"/>
        <circle cx="12" cy="28" r="1"/>
        <path d="M54,7h-18c-1.65002,0-3,1.34998-3,3H14c-.54999,0-1,.45001-1,1v12h-5c-.54999,0-1,.45001-1,1v28c0,.15997.03998.31.10999.45001l2,4c.16003.33997.51001.54999.89001.54999s.72998-.21002.89001-.54999l2-4c.07001-.14001.10999-.29004.10999-.45001v-19h6v19c0,.15997.03998.31.10999.45001l2,4c.16003.33997.51001.54999.89001.54999s.72998-.21002.89001-.54999l2-4c.07001-.14001.10999-.29004.10999-.45001v-28c0-.54999-.45001-1-1-1h-5v-7h14v18c0,1.64996,1.34998,3,3,3h18c1.65002,0,3-1.35004,3-3V10c0-1.65002-1.34998-3-3-3ZM11,51.76001l-1,2-1-2v-18.76001h2v18.76001ZM23,51.76001l-1,2-1-2v-18.76001h2v18.76001ZM23,25v6h-14v-6h14ZM33,14h-15c-.54999,0-1,.45001-1,1v8h-2v-11h18v2ZM55,34c0,.54999-.45001,1-1,1h-18c-.54999,0-1-.45001-1-1V10c0-.54999.45001-1,1-1h18c.54999,0,1,.45001,1,1v24Z"/>
        <path d="M45,21c2.20557,0,4-1.79395,4-4,0-1.94141-2.71191-5.0625-3.25586-5.66797-.37891-.42188-1.10938-.42188-1.48828,0-.54395.60547-3.25586,3.72656-3.25586,5.66797,0,2.20605,1.79443,4,4,4ZM45,13.54785c1.06006,1.32617,2,2.81445,2,3.45215,0,1.10254-.89697,2-2,2s-2-.89746-2-2c0-.6377.93994-2.12598,2-3.45215Z"/>
        <path d="M45,23c-4.40997,0-8,3.58997-8,8v1c0,.54999.45001,1,1,1h14c.54999,0,1-.45001,1-1v-1c0-4.41003-3.59003-8-8-8ZM46,31v-3c0-.54999-.45001-1-1-1s-1,.45001-1,1v3h-5c0-3.31,2.69-6,6-6s6,2.69,6,6h-5Z"/>
      </g>
    </g>
  </g>
</svg>