<?xml version="1.0" encoding="UTF-8"?>
<svg xmlns="http://www.w3.org/2000/svg" version="1.1" viewBox="0 0 64 64">
  <!-- Generator: Adobe Illustrator 28.7.1, SVG Export Plug-In . SVG Version: 1.2.0 Build 142)  -->
  <g>
    <g id="Outline">
      <g>
        <path d="M56.98997,35.93972v-.06l-2-16c-.06-.5-.48999-.88-.98999-.88h-24c-.5,0-.92999.38-.98999.88l-2,16v.06c0,.01996-.01001.03998-.01001.06v4c0,.54999.45001,1,1,1h10v6h-3c-.54999,0-1,.45001-1,1v3h-2c-.54999,0-1,.45001-1,1v4c0,.54999.45001,1,1,1h9c.54999,0,1-.45001,1-1s-.45001-1-1-1h-8v-2h18v2h-2c-.54999,0-1,.45001-1,1s.45001,1,1,1h3c.54999,0,1-.45001,1-1v-4c0-.54999-.45001-1-1-1h-2v-3c0-.54999-.45001-1-1-1h-3v-6h10c.54999,0,1-.45001,1-1v-4c0-.02002-.01001-.04004-.01001-.06ZM48.99998,20.99971h4.12l.37,3h-4.48999v-3ZM48.99998,25.99971h4.73999l.5,4h-5.23999v-4ZM48.99998,31.99971h5.48999l.38,3h-5.87v-3ZM42.99998,20.99971h4v3h-4v-3ZM42.99998,25.99971h4v4h-4v-4ZM42.99998,31.99971h4v3h-4v-3ZM36.99998,20.99971h4v3h-4v-3ZM36.99998,25.99971h4v4h-4v-4ZM36.99998,31.99971h4v3h-4v-3ZM30.87999,20.99971h4.12v3h-4.48999l.37-3ZM30.25999,25.99971h4.73999v4h-5.23999l.5-4ZM29.50999,31.99971h5.48999v3h-5.87l.38-3ZM47.99998,48.99971v2h-12v-2h12ZM39.99998,46.99971v-6h4v6h-4ZM54.99998,38.99971h-26v-2h26v2Z"/>
        <path d="M22.04197,16.00362c-.46289-.28662-.74316-.76318-.76855-1.30713-.02441-.54346.20996-1.04297.64355-1.37109.35449-.26709.48926-.73584.33301-1.15039-.15625-.41504-.56055-.68262-1.00977-.64453-.54688.04053-1.04883-.18164-1.38867-.60596-.33984-.4248-.44434-.96729-.28516-1.48828.12891-.42432-.03711-.88281-.40723-1.12646-.37109-.24414-.85742-.21484-1.19629.07227-.41504.35205-.95703.46973-1.47949.32666-.52539-.14404-.92773-.52148-1.10547-1.03564-.14453-.41895-.54785-.68457-.99219-.67236-.44238.02051-.81934.33057-.9248.76123-.12891.52881-.49512.94189-1.00391,1.13379s-1.05762.12402-1.50488-.18799c-.36133-.25439-.84961-.2373-1.19727.03906-.3457.27734-.46875.74951-.30078,1.15967.20703.50342.15332,1.05322-.14551,1.50781s-.7832.72119-1.32715.73145c-.44336.0083-.82812.30762-.94531.73535-.11816.42773.06055.88135.4375,1.11475.46289.28662.74316.76318.76855,1.30713.02441.54346-.20996,1.04297-.64355,1.37109-.35449.26709-.48926.73584-.33301,1.15039s.55078.6748,1.00977.64453c.55273-.03662,1.0498.18115,1.38867.60547.33984.42529.44434.96777.28516,1.48877-.12891.42432.03711.88281.40723,1.12646.37109.24414.85742.21484,1.19629-.07227.41504-.35156.95801-.47021,1.47949-.32666.52539.14404.92773.52148,1.10547,1.03564.13965.4043.52051.67334.94531.67334.01562,0,.03125-.00049.04688-.00098.44238-.02051.81934-.33057.9248-.76123.12891-.52881.49512-.94189,1.00391-1.13379.50977-.19238,1.05664-.12451,1.50488.18799.3623.25391.84961.23828,1.19727-.03906.3457-.27686.46875-.74902.30078-1.15918-.20605-.50391-.15234-1.05371.14648-1.5083s.78223-.72119,1.32617-.73145c.44336-.0083.82812-.30762.94531-.73535.11816-.42773-.06055-.88135-.4375-1.11475ZM18.53709,17.48555c-.30762.46729-.49805.99072-.56738,1.52881-.53711-.04883-1.09375.021-1.61621.21777-.52344.19727-.98438.50879-1.35742.90332-.40723-.35791-.89551-.62549-1.43457-.77344-.31641-.08691-.63965-.12939-.95996-.12939-.22461,0-.44922.021-.66992.0625-.11816-.5293-.35645-1.0332-.70605-1.46973-.34863-.43652-.78809-.7793-1.27832-1.01172.21484-.49805.31836-1.04492.29199-1.60352-.02539-.55859-.17969-1.09424-.43945-1.5708.4668-.27686.87305-.65918,1.17969-1.12646.30762-.4668.49707-.99023.56641-1.52783.5459.05078,1.09473-.021,1.61621-.21777.52344-.19727.98438-.50879,1.35742-.90332.40723.35791.89551.62549,1.43457.77344.53809.14795,1.09473.16748,1.62988.06689.11914.5293.35645,1.0332.70605,1.46973s.78809.7793,1.27832,1.01172c-.21484.49805-.31836,1.04492-.29199,1.60352.02539.55859.17969,1.09424.43945,1.5708-.46582.27686-.87109.65869-1.17871,1.12549Z"/>
        <path d="M14.75779,11.99971c-1.6543,0-3,1.3457-3,3s1.3457,3,3,3,3-1.3457,3-3-1.3457-3-3-3ZM14.75779,15.99971c-.55176,0-1-.44873-1-1s.44824-1,1-1,1,.44873,1,1-.44824,1-1,1Z"/>
        <path d="M26.70701,22.29268l-2-2c-.39062-.39062-1.02344-.39062-1.41406,0s-.39062,1.02344,0,1.41406l1.99999,1.99999c.36898.36898,1.02328.3908,1.41408.00001.39062-.39062.39062-1.02344,0-1.41406Z"/>
        <path d="M26.29305,17.70684c.38642.38632,1.02608.38779,1.41396-.0001.39062-.39062.39062-1.02344,0-1.41406l-2-2c-.39062-.39062-1.02344-.39062-1.41406,0s-.39062,1.02344,0,1.41406c0,0,2,2,2.0001,2.0001Z"/>
        <path d="M19.70701,23.29268c-.39062-.39062-1.02344-.39062-1.41406,0s-.39062,1.02344,0,1.41406l2,2c.37075.37075,1.01912.39494,1.41406,0,.39062-.39062.39062-1.02344,0-1.41406l-2-2Z"/>
        <circle cx="44.99998" cy="55.99971" r="1"/>
      </g>
    </g>
  </g>
</svg>