<?xml version="1.0" encoding="UTF-8"?>
<svg xmlns="http://www.w3.org/2000/svg" version="1.1" viewBox="0 0 64 64">
  <!-- Generator: Adobe Illustrator 28.7.1, SVG Export Plug-In . SVG Version: 1.2.0 Build 142)  -->
  <g>
    <g id="Outline">
      <g>
        <path d="M55,51.17999v-20.17999h1c.29999,0,.59003-.14001.78003-.38.18994-.22998.25995-.54004.19995-.84003l-5-22c-.10999-.45996-.51001-.77997-.97998-.77997H13c-.46997,0-.87.32001-.97998.77997l-5,22c-.06.29999.01001.61005.19995.84003.19.23999.48004.38.78003.38h1v20.17999c-1.15997.41998-2,1.52002-2,2.82001,0,1.64996,1.34998,3,3,3h44c1.65002,0,3-1.35004,3-3,0-1.29999-.84003-2.40002-2-2.82001ZM13.79999,9h36.40002l4.54999,20H9.25l4.54999-20ZM20,35c-3.85999,0-7,3.14001-7,7v9h-2v-20h42v20h-26v-9c0-3.85999-3.14001-7-7-7ZM25,42v9h-10v-9c0-2.76001,2.23999-5,5-5s5,2.23999,5,5ZM54,55H10c-.54999,0-1-.45001-1-1s.45001-1,1-1h44c.54999,0,1,.45001,1,1s-.45001,1-1,1Z"/>
        <path d="M51.96002,25.77997l-3.17999-14c-.10004-.45996-.51001-.77997-.97003-.77997h-31.62c-.46002,0-.87.32001-.97003.77997l-3.17999,14c-.07001.29999,0,.61005.19.84003.19.23999.48004.38.78003.38h37.97998c.29999,0,.59003-.14001.78003-.38.19-.22998.26001-.54004.19-.84003ZM42,13h5.01001l.57001,2.5h-5.58002v-2.5ZM42,17.5h6.03003l.67999,3h-6.71002v-3ZM23,25h-8.73999l.57001-2.5h8.16998v2.5ZM23,20.5h-7.71002l.67999-3h7.03003v3ZM23,15.5h-6.58002l.57001-2.5h6.01001v2.5ZM31,25h-6v-2.5h6v2.5ZM31,20.5h-6v-3h6v3ZM31,15.5h-6v-2.5h6v2.5ZM40,25h-7v-2.5h7v2.5ZM40,20.5h-7v-3h7v3ZM40,15.5h-7v-2.5h7v2.5ZM42,25v-2.5h7.16998l.57001,2.5h-7.73999Z"/>
        <circle cx="18" cy="46" r="1"/>
        <path d="M34.87842,40.52881l2.68994,1.07568-1.53857,6.15283c-.11279.45264.10156.92334.51758,1.13428.41186.20942.92553.10362,1.2207-.25147l6.99998-8.39988c.42869-.51442.22318-1.32019-.39647-1.56887l-2.38965-.95557,1.99121-3.18603c.41-.65602-.07844-1.52979-.84814-1.52979h-5.25c-.3877,0-.74072.22412-.90527.57568l-2.62499,5.60007c-.24159.5154.00701,1.14158.53368,1.35305ZM38.51074,35h2.81006l-1.66894,2.6704c-.32634.52216-.0928,1.22995.47656,1.4585l2.22217.88867-3.32031,3.98389.68994-2.75879c.12109-.48535-.13477-.98535-.59863-1.17139l-2.5166-1.00635,1.90576-4.06494Z"/>
      </g>
    </g>
  </g>
</svg>