<?xml version="1.0" encoding="UTF-8"?>
<svg id="Outline" xmlns="http://www.w3.org/2000/svg" version="1.1" viewBox="0 0 48 48">
  <path d="M32.91998,23.65997h1.08002c1.65002,0,3-1.33997,3-3,0-1.64996-1.34998-3-3-3h-1v-2.01996c1.66998-.14001,3-1.53003,3-3.24005,0-1.46997-.98999-2.76996-2.40997-3.15997l-14.86005-4.04999c-1.60999-.44-3.29999-.11005-4.63995.90997-1.33002,1.01001-2.09003,2.56-2.09003,4.22998,0,2.10004,1.22998,3.91003,3,4.77002v2.56h-1c-1.65002,0-3,1.35004-3,3,0,1.66003,1.34998,3,3,3h1.08002c.31,2.39001,1.71997,4.13,3.32001,5.37-.62.04999-1.22003.19-1.79004.40002-1.33997.48999-2.48999,1.38-3.31,2.52002-.82001,1.13995-1.29999,2.53998-1.29999,4.04999v6c0,.54999.45001,1,1,1h22c.54999,0,1-.45001,1-1v-6c0-3.02002-1.92999-5.59003-4.60999-6.57001-.57001-.21002-1.17004-.35004-1.79004-.40002,1.60004-1.23999,3.01001-2.97998,3.32001-5.37ZM15,21.65997h-1c-.54999,0-1-.45001-1-1s.45001-1,1-1h1v2ZM16,41h-2v-5c0-1.63.78998-3.06,2-3.97003v8.97003ZM32,32.02997c1.21002.91003,2,2.34003,2,3.97003v5h-2v-8.97003ZM34,19.65997c.54999,0,1,.45001,1,1s-.45001,1-1,1h-1v-2h1ZM14,10.32996c0-1.03997.47998-2.00994,1.30999-2.63995.82933-.62949,1.89545-.83792,2.90003-.57001l14.85999,4.04999c.54999.15002.92999.65997.92999,1.22998,0,.69-.57001,1.26001-1.27002,1.26001h-15.39996c-1.84003,0-3.33002-1.48999-3.33002-3.33002ZM30,41h-12v-4h12v4ZM30,31.09998v3.90002h-12v-3.90002c.32001-.06.65997-.09998,1-.09998h2.90002c1.00995.40997,1.75995.60999,1.85999.63.08002.01996.15997.02997.23999.02997s.15997-.01001.23999-.02997c.10004-.02002.85004-.22003,1.85999-.63h2.90002c.34003,0,.67999.03998,1,.09998ZM24,29.62c-1.26001-.38-7-2.35999-7-6.96002v-7h14v7c0,4.60004-5.73999,6.58002-7,6.96002Z" fill="#000" stroke-width="0"/>
</svg>