<?xml version="1.0" encoding="UTF-8"?>
<svg xmlns="http://www.w3.org/2000/svg" version="1.1" viewBox="0 0 48 48">
  <!-- Generator: Adobe Illustrator 28.7.1, SVG Export Plug-In . SVG Version: 1.2.0 Build 142)  -->
  <g>
    <g id="Outline">
      <g>
        <path d="M38.46246,26.19489c.35003-1.37006.53754-2.7757.53754-4.19489,0-9.37402-7.62598-17-17-17S5,12.62598,5,22s7.62598,17,17,17c1.41895,0,2.82465-.1875,4.19507-.53729,1.55365,2.70624,4.46667,4.53729,7.80493,4.53729,4.96289,0,9-4.0376,9-9,0-3.33813-1.83099-6.2514-4.53754-7.80511ZM36,34c0,4.54688-1.41992,7-2,7s-2-2.45312-2-7,1.41992-7,2-7,2,2.45312,2,7ZM34,25c-1.69971,0-3.28497.48224-4.64252,1.30438-.18195-1.08441-.28754-2.18958-.32965-3.30438h7.93488c-.05371.80536-.17017,1.6037-.35266,2.38898-.82672-.2511-1.70233-.38898-2.61005-.38898ZM23,21v-2c0-.55225-.44727-1-1-1s-1,.44775-1,1v2h-4.03223c-.14752-4.25488-1.22797-8.29681-3.09668-11.58807,2.08075-1.34833,4.51324-2.1875,7.12891-2.36127v3.94934c0,.55225.44727,1,1,1s1-.44775,1-1v-3.94934c2.61566.17377,5.04816,1.01294,7.12891,2.36127-1.86871,3.29126-2.94916,7.33319-3.09668,11.58807h-4.03223ZM21,36.94934c-2.61566-.17377-5.04816-1.01294-7.12891-2.36127,1.86871-3.29126,2.94916-7.33319,3.09668-11.58807h4.03223v13.94934ZM36.94934,21h-7.91748c.14148-3.81519,1.08307-7.42896,2.70935-10.38397,2.97461,2.54913,4.93262,6.23706,5.20813,10.38397ZM12.25879,10.61603c1.62628,2.95502,2.56787,6.56879,2.70935,10.38397h-7.91748c.27551-4.14691,2.23352-7.83484,5.20813-10.38397ZM7.05066,23h7.91748c-.14148,3.81519-1.08307,7.42896-2.70935,10.38397-2.97461-2.54913-4.93262-6.23706-5.20813-10.38397ZM23,36.96259v-13.96259h4.02789c.05591,1.59027.24469,3.16083.5639,4.69092-1.60065,1.62555-2.5918,3.85303-2.5918,6.30908,0,.90753.13782,1.78296.38885,2.60956-.7854.18256-1.58374.29926-2.38885.35303ZM27,34c0-2.82324,1.68365-5.25537,4.09637-6.36139-.72302,1.71021-1.09637,4.04022-1.09637,6.36139s.37335,4.65118,1.09637,6.36139c-2.41272-1.10602-4.09637-3.53815-4.09637-6.36139ZM36.90363,40.36139c.72302-1.71021,1.09637-4.04022,1.09637-6.36139s-.37335-4.65118-1.09637-6.36139c2.41272,1.10602,4.09637,3.53815,4.09637,6.36139s-1.68365,5.25537-4.09637,6.36139Z"/>
        <circle cx="22" cy="15" r="1"/>
      </g>
    </g>
  </g>
</svg>