<?xml version="1.0" encoding="UTF-8"?>
<svg id="Outline" xmlns="http://www.w3.org/2000/svg" version="1.1" viewBox="0 0 48 48">
  <path d="M33,21v-5c0-1.65002-1.34998-3-3-3h-1v-3c0-.54999.45001-1,1-1h2c.54999,0,1-.45001,1-1s-.45001-1-1-1h-2c-1.65002,0-3,1.34998-3,3v3h-1.60999c-1.25,0-2.38.77997-2.81,1.95001l-2.27002,6.04999h-6.31c-.23999,0-.47998.08997-.65997.25l-2.41003,2.10999c-.29999-1.34998-1.5-2.35999-2.92999-2.35999h-2c-.54999,0-1,.45001-1,1v18c0,.54999.45001,1,1,1h2c1.42999,0,2.63-1.01001,2.92999-2.35999l2.41003,2.10999c.17999.15997.41998.25.65997.25h19c5.51001,0,10-4.48999,10-10s-4.48999-10-10-10ZM23.19,19h3.81c.54999,0,1-.45001,1-1s-.45001-1-1-1h-3.06l.51001-1.35004c.14996-.38995.51996-.64996.94-.64996h4.60999c.54999,0,1,.45001,1,1v5h-8.56l.75-2ZM14.38,23h18.62c4.07001,0,7.44,3.06,7.92999,7h-21.52002l-6.07996-6.08002,1.04999-.91998ZM7,23h1c.54999,0,1,.45001,1,1v1.04999l-2,1.75v-3.79999ZM9,38c0,.54999-.45001,1-1,1h-1v-3.79999l2,1.75v1.04999ZM33,39H14.38l-7.38-6.45001v-.54999h5c.54999,0,1-.45001,1-1s-.45001-1-1-1h-5v-.54999l4.82001-4.21002,6.46997,6.46997c.19.18005.44.29004.71002.29004h21.92999c-.48999,3.94-3.85999,7-7.92999,7Z" fill="#000" stroke-width="0"/>
  <circle cx="35" cy="27" r="1" fill="#000" stroke-width="0"/>
  <circle cx="31" cy="27" r="1" fill="#000" stroke-width="0"/>
  <circle cx="27" cy="27" r="1" fill="#000" stroke-width="0"/>
  <circle cx="23" cy="27" r="1" fill="#000" stroke-width="0"/>
  <path d="M35,35h-16c-.55225,0-1,.44775-1,1s.44775,1,1,1h16c.55273,0,1-.44775,1-1s-.44727-1-1-1Z" fill="#000" stroke-width="0"/>
</svg>