<?xml version="1.0" encoding="UTF-8"?>
<svg xmlns="http://www.w3.org/2000/svg" version="1.1" viewBox="0 0 64 64">
  <!-- Generator: Adobe Illustrator 28.7.1, SVG Export Plug-In . SVG Version: 1.2.0 Build 142)  -->
  <g>
    <g id="Outline">
      <g>
        <path d="M54,37h-.25l-3.38-11.82001c-.35999-1.28003-1.53998-2.17999-2.88-2.17999h-5.70001c.77002-1.5,1.21002-3.20001,1.21002-5,0-6.07001-4.92999-11-11-11s-11,4.92999-11,11c0,1.79999.44,3.5,1.21002,5h-5.70001c-1.34003,0-2.52002.89996-2.88,2.16998l-3.38,11.83002h-.25c-1.60722,0-3,1.35945-3,3,0,1.64996,1.34998,3,3,3h.25l3.38,11.82001c.35999,1.27997,1.53998,2.17999,2.88,2.17999h30.97998c1.34003,0,2.52002-.90002,2.88-2.17004l3.38-11.82996h.25c.81,0,1.57001-.32001,2.10999-.87.57001-.56.89001-1.32001.89001-2.13,0-1.65002-1.34998-3-3-3ZM32,9c4.96002,0,9,4.03998,9,9s-4.03998,9-9,9-9-4.04004-9-9,4.03998-9,9-9ZM15.54999,25.71997c.12-.41998.51001-.71997.96002-.71997h7.01001c2.01996,2.44,5.07001,4,8.47998,4s6.46002-1.56,8.47998-4h7.01001c.45001,0,.84003.29999.96002.72998l3.21997,11.27002h-9.66998v-1c0-1.65002-1.34998-3-3-3h-14c-1.65002,0-3,1.34998-3,3v1h-9.66998l3.21997-11.28003ZM40,36v1h-16v-1c0-.54999.45001-1,1-1h14c.54999,0,1,.45001,1,1ZM31,55h-4v-12h4v12ZM48.45001,54.27997c-.12.42004-.51001.72003-.96002.72003h-8.48999v-4c0-.54999-.45001-1-1-1s-1,.45001-1,1v4h-4v-12h4v4c0,.54999.45001,1,1,1s1-.45001,1-1v-4h12.66998l-3.21997,11.27997ZM54.69204,40.71201c-.18181.17695-.42772.28799-.69204.28799H20c-.54999,0-1,.45001-1,1s.45001,1,1,1h5v12h-8.48999c-.45001,0-.84003-.29999-.96002-.73004l-3.21997-11.26996h3.66998c.54999,0,1-.45001,1-1s-.45001-1-1-1h-6c-.5498,0-.99969-.4497-1-.99944-.0003-.53209.47268-1.00056,1-1.00056h44c.54988,0,.99983.44984,1,.99968.00009.27473-.11951.52893-.30796.71233Z"/>
        <path d="M30,22h4c2.75684,0,5-2.24316,5-5v-2c0-.55273-.44727-1-1-1h-2c-1.6413,0-3.08777.80573-4,2.03094-.91223-1.22522-2.3587-2.03094-4-2.03094h-2c-.55273,0-1,.44727-1,1v2c0,2.75684,2.24316,5,5,5ZM36,16h1v1c0,1.6543-1.3457,3-3,3h-1v-1c0-1.6543,1.3457-3,3-3ZM27,16h1c1.6543,0,3,1.3457,3,3v1h-1c-1.6543,0-3-1.3457-3-3v-1Z"/>
      </g>
    </g>
  </g>
</svg>