<?xml version="1.0" encoding="UTF-8"?>
<svg id="Outline" xmlns="http://www.w3.org/2000/svg" version="1.1" viewBox="0 0 64 64">
  <path d="M36.1256,25.01267c-.42871-3.29297-2.10156-6.54199-4.70801-9.14844-5.45752-5.45898-13.38916-6.41016-17.67725-2.12109-2.11035,2.10986-3.0293,5.13916-2.58691,8.5293.4292,3.29248,2.10107,6.5415,4.70801,9.14795,1.69385,1.69385,3.70996,3.021,5.83008,3.83691,1.66992.64355,3.34326.95898,4.93164.95898,2.70117,0,5.1543-.91309,6.9165-2.67432,2.10938-2.11035,3.02832-5.13916,2.58594-8.5293ZM13.13634,22.01364c-.01837-.14069-.02179-.27655-.03455-.41553l.03918-.03918,2.08099,2.08234-1.30811,1.30707c-.38013-.96204-.64868-1.94641-.77753-2.93469ZM34.14317,25.27097c.01825.14026.02167.2757.03436.41418l-.04486.04492-1.58484-1.58594,1.08435-1.08533c.23999.73016.41412,1.47021.51099,2.21216ZM32.71935,27.14493l-2.08026,2.08246-1.58575-1.58569,2.08093-2.08282,1.58508,1.58606ZM33.98674,28.70505c-.23499.98566-.63788,1.88361-1.21167,2.65833l-.72217-.72217,1.93384-1.93616ZM18.72453,20.14139l-2.08746,2.08588-2.08228-2.08368,2.08484-2.0871,2.0849,2.0849ZM18.05296,16.64163l2.08429-2.08649,2.08752,2.08881-2.08551,2.08386-2.0863-2.08618ZM20.13908,21.55594l2.08368,2.08368-2.08777,2.08777-2.0838-2.08514,2.08789-2.0863ZM23.63683,25.05368l2.58856,2.58856-2.08826,2.0899-2.58856-2.59021,2.08826-2.08826ZM27.63969,29.05655l1.58588,1.58588-2.08893,2.09119-1.58557-1.58661,2.08862-2.09045ZM27.63902,26.22745l-2.58801-2.58795,2.08313-2.08313,2.58636,2.58789-2.08148,2.08319ZM23.63695,22.22543l-2.08313-2.08307,2.08508-2.08344,2.08167,2.08289-2.08362,2.08362ZM25.05382,16.64511l1.79852-1.79712c.8338.48724,1.64117,1.07495,2.40948,1.75256l-2.12695,2.12695-2.08105-2.0824ZM23.63976,15.23007l-2.08875-2.09021.04541-.04547c1.10101.10095,2.23114.38251,3.35175.82831l-1.30841,1.30737ZM16.6389,15.22757l-.71899-.71893c.78778-.58423,1.68689-.9906,2.65961-1.22369l-1.94061,1.94263ZM15.22557,16.64243l-1.93201,1.93414c.23523-.98438.63794-1.88123,1.21112-2.65503l.72089.72089ZM16.63609,25.05624l2.08435,2.08569-2.12817,2.12817c-.67407-.76349-1.25702-1.57635-1.74994-2.42151l1.79376-1.79236ZM20.13402,28.55649l2.58911,2.59076-1.64288,1.64423c-1.08667-.5578-2.11523-1.28064-3.06488-2.11633l2.11865-2.11865ZM24.13719,32.56217l1.58569,1.58673-.00696.0069c-.85645-.07477-1.7356-.25696-2.62579-.54565l1.04706-1.04797ZM30.63945,32.05631l.71466.71466c-.76233.55829-1.64557.9505-2.61072,1.18365l1.89606-1.89832ZM32.79576,21.06656l-1.66162,1.6629-2.58569-2.5874,2.13318-2.13318c.84326.95422,1.55737,1.98212,2.11414,3.05768Z" style="fill: #000; stroke-width: 0px;"/>
  <path d="M55.757,50.0994l-10.72998-10.72998-5.25-16.55005c-.83002-3.60999-2.75-7-5.53003-9.77997-3.38-3.38-7.64001-5.47003-12.01001-5.89001-4.45001-.42999-8.46997.91003-11.32996,3.77002-5.84003,5.83997-4.89001,16.31,2.12994,23.32996,2.09003,2.10004,4.59003,3.74005,7.22003,4.74005.90997.34998,19.10999,6.03998,19.10999,6.03998l10.73004,10.72998c.77997.78003,1.79999,1.17004,2.82996,1.17004,1.02002,0,2.04999-.39001,2.83002-1.17004,1.54999-1.56,1.54999-4.09998,0-5.65997ZM39.627,43.00937s-17.84003-5.57996-18.65997-5.88995c-2.36005-.90002-4.62-2.38-6.52002-4.28003-6.23999-6.23999-7.19-15.44-2.12-20.51001,2.42999-2.42999,5.88-3.56,9.71997-3.19,3.91003.38,7.73999,2.26001,10.78003,5.31,2.52002,2.52002,4.25,5.57001,5.02002,8.90002l5.15997,16.27997-.63.63-3.13-7.63c-.12-.28998-.37-.48999-.65997-.56995-.42004-.12006-.89001.04999-1.12.40997-.62,1-1.37,1.92999-2.22003,2.77997-.81.81006-1.67999,1.52002-2.59998,2.11005-.40002.25-.65002.60999-.56,1.08997.06.32001.31.64001.62.76001l7.82996,2.89001-.90997.90997ZM40.01701,39.77939l-4.83002-1.78998c.51001-.41003,1.01001-.85004,1.47998-1.32001.51001-.51001.98004-1.04999,1.42004-1.60999l1.92999,4.71997ZM54.33702,54.33939c-.78003.78003-2.05005.78003-2.83002,0l-10.19-10.19,2.83002-2.83002,10.19,10.19c.77997.78003.77997,2.05005,0,2.83002Z" style="fill: #000; stroke-width: 0px;"/>
</svg>