<?xml version="1.0" encoding="UTF-8"?>
<svg xmlns="http://www.w3.org/2000/svg" version="1.1" viewBox="0 0 64 64">
  <!-- Generator: Adobe Illustrator 28.7.1, SVG Export Plug-In . SVG Version: 1.2.0 Build 142)  -->
  <g>
    <g id="Outline">
      <g>
        <path d="M34.5,40.26001v-15.26001c0-2.21002-1.78998-4-4-4s-4,1.78998-4,4v15.26001c-1.85999,1.29999-3,3.44995-3,5.73999,0,3.85999,3.14001,7,7,7s7-3.14001,7-7c0-2.29004-1.14001-4.44-3-5.73999ZM30.5,51c-2.76001,0-5-2.23999-5-5,0-1.77002.96002-3.42999,2.5-4.33002.31-.16998.5-.5.5-.85999v-15.81c0-1.10004.90002-2,2-2s2,.89996,2,2v15.81c0,.35999.19.69.5.85999,1.53998.90002,2.5,2.56,2.5,4.33002,0,2.76001-2.23999,5-5,5Z"/>
        <path d="M30.5,49c1.6543,0,3-1.3457,3-3s-1.3457-3-3-3-3,1.3457-3,3,1.3457,3,3,3ZM30.5,45c.55127,0,1,.44824,1,1s-.44873,1-1,1-1-.44824-1-1,.44873-1,1-1Z"/>
        <path d="M30.5,13c.53271,0,1.03467.20801,1.41309.58691.39062.39062,1.02344.39062,1.41406,0s.39062-1.02344,0-1.41406c-.75635-.75684-1.76025-1.17285-2.82715-1.17285-2.20557,0-4,1.79395-4,4s1.79443,4,4,4c1.06689,0,2.0708-.41602,2.82715-1.17285.39062-.39062.39062-1.02344,0-1.41406s-1.02344-.39062-1.41406,0c-.37842.37891-.88037.58691-1.41309.58691-1.10303,0-2-.89746-2-2s.89697-2,2-2Z"/>
        <path d="M18.5,42c.55225,0,1-.44727,1-1V10c0-.55176.44873-1,1-1h20c.55127,0,1,.44824,1,1v15.03027c0,.55273.44775,1,1,1s1-.44727,1-1v-15.03027c0-1.6543-1.3457-3-3-3h-20c-1.6543,0-3,1.3457-3,3v31c0,.55273.44775,1,1,1Z"/>
        <path d="M42.5,35.96973c-.55225,0-1,.44727-1,1v17.03027c0,.55176-.44873,1-1,1h-20c-.55127,0-1-.44824-1-1v-5c0-.55273-.44775-1-1-1s-1,.44727-1,1v5c0,1.6543,1.3457,3,3,3h20c1.6543,0,3-1.3457,3-3v-17.03027c0-.55273-.44775-1-1-1Z"/>
        <path d="M22.5,23h1c.55225,0,1-.44727,1-1s-.44775-1-1-1h-1c-.55225,0-1,.44727-1,1s.44775,1,1,1Z"/>
        <path d="M22.5,27h1c.55225,0,1-.44727,1-1s-.44775-1-1-1h-1c-.55225,0-1,.44727-1,1s.44775,1,1,1Z"/>
        <path d="M22.5,31h1c.55225,0,1-.44727,1-1s-.44775-1-1-1h-1c-.55225,0-1,.44727-1,1s.44775,1,1,1Z"/>
        <path d="M22.5,35h1c.55225,0,1-.44727,1-1s-.44775-1-1-1h-1c-.55225,0-1,.44727-1,1s.44775,1,1,1Z"/>
        <path d="M22.5,39h1c.55225,0,1-.44727,1-1s-.44775-1-1-1h-1c-.55225,0-1,.44727-1,1s.44775,1,1,1Z"/>
        <path d="M46.02588,27.14941c-.29492-.18262-.66357-.19824-.97314-.04395l-6,3c-.33887.16992-.55273.51562-.55273.89453s.21387.72461.55273.89453c0,0,5.99114,2.99557,5.99999,3,.28614.14307.67371.14174.97315-.04394.29443-.18262.47412-.50391.47412-.85059v-6c0-.34668-.17969-.66797-.47412-.85059ZM44.5,32.38184l-2.76416-1.38184,2.76416-1.38184v2.76367Z"/>
        <circle cx="18.5" cy="45" r="1"/>
      </g>
    </g>
  </g>
</svg>