<?xml version="1.0" encoding="UTF-8"?>
<svg xmlns="http://www.w3.org/2000/svg" version="1.1" viewBox="0 0 48 48">
  <!-- Generator: Adobe Illustrator 28.7.1, SVG Export Plug-In . SVG Version: 1.2.0 Build 142)  -->
  <g>
    <g id="Outline">
      <g>
        <path d="M40,37h-10c-.54999,0-1,.45001-1,1s.45001,1,1,1h10c.54999,0,1,.45001,1,1,0,.52997-.46997,1-1,1H8c-.54999,0-1-.45001-1-1,0-.53003.46997-1,1-1h14c.54999,0,1-.45001,1-1s-.45001-1-1-1h-5v-20c1.29999,0,2.40002-.84003,2.82001-2h5.35999c.41998,1.15997,1.52002,2,2.82001,2v5c0,1.58997.73999,3.03998,2,3.97998v6.02002c0,1.64996,1.34998,3,3,3s3-1.35004,3-3v-6.02002c1.26001-.94,2-2.39001,2-3.97998v-5c1.65002,0,3-1.35004,3-3s-1.34998-3-3-3v-4h1c.54999,0,1-.45001,1-1s-.45001-1-1-1h-12c-.54999,0-1,.45001-1,1s.45001,1,1,1h1v4c-1.29999,0-2.40002.83997-2.82001,2h-5.35999c-.41998-1.16003-1.52002-2-2.82001-2v-2c0-2.21002-1.78998-4-4-4s-4,1.78998-4,4v2c-1.65002,0-3,1.34998-3,3s1.34998,3,3,3v20h-1c-1.63,0-3,1.37-3,3,0,1.64996,1.34998,3,3,3h32c1.63,0,3-1.37,3-3,0-1.65002-1.34998-3-3-3ZM36,22c0,1.07001-.56,2.02997-1.51001,2.58997-.29999.17999-.48999.51001-.48999.86005v6.54999c0,.54999-.45001,1-1,1s-1-.45001-1-1v-6.54999c0-.35004-.19-.68005-.48999-.86005-.95001-.56-1.51001-1.51996-1.51001-2.58997v-5h6v5ZM30,7h6v4h-6v-4ZM28,13h10c.54999,0,1,.45001,1,1s-.45001,1-1,1h-10c-.54999,0-1-.45001-1-1s.45001-1,1-1ZM15,37h-4v-20h4v20ZM11,9c0-1.10004.90002-2,2-2s2,.89996,2,2v2h-4v-2ZM8,14c0-.54999.45001-1,1-1h8c.54999,0,1,.45001,1,1s-.45001,1-1,1h-8c-.54999,0-1-.45001-1-1Z"/>
        <circle cx="33" cy="22.75" r="1"/>
        <circle cx="33" cy="19.25" r="1"/>
        <circle cx="26" cy="38" r="1"/>
      </g>
    </g>
  </g>
</svg>