<?xml version="1.0" encoding="UTF-8"?>
<svg xmlns="http://www.w3.org/2000/svg" version="1.1" viewBox="0 0 48 48">
  <!-- Generator: Adobe Illustrator 28.7.1, SVG Export Plug-In . SVG Version: 1.2.0 Build 142)  -->
  <g>
    <g id="Outline">
      <g>
        <path d="M40,36h-20.58594l5.58594-5.58594v.58594c0,.55225.44727,1,1,1s1-.44775,1-1v-3c0-.55225-.44727-1-1-1h-3c-.55273,0-1,.44775-1,1s.44727,1,1,1h.58594l-6.58594,6.58594-10.29297-10.29297c-.39062-.39062-1.02344-.39062-1.41406,0s-.39062,1.02344,0,1.41406l9.29297,9.29297h-6.58594c-1.62598,0-3,1.37402-3,3,0,1.6543,1.3457,3,3,3h20c.55273,0,1-.44775,1-1s-.44727-1-1-1H8c-.55176,0-1-.44873-1-1,0-.52344.47656-1,1-1h32c.55176,0,1,.44873,1,1,0,.53271-.46777,1-1,1h-4c-.55273,0-1,.44775-1,1s.44727,1,1,1h4c1.62598,0,3-1.37402,3-3,0-1.6543-1.3457-3-3-3Z"/>
        <path d="M33,27c5.51367,0,10-4.48584,10-10s-4.48633-10-10-10-10,4.48584-10,10,4.48633,10,10,10ZM36.56036,9.8465c2.62708,1.31305,4.43964,4.02234,4.43964,7.1535s-1.81256,5.84045-4.43964,7.1535c.89856-1.78845,1.43964-4.29419,1.43964-7.1535s-.54108-5.36505-1.43964-7.1535ZM33,9c1.22363,0,3,3.1167,3,8s-1.77637,8-3,8-3-3.1167-3-8,1.77637-8,3-8ZM29.43964,9.8465c-.89856,1.78845-1.43964,4.29419-1.43964,7.1535s.54108,5.36505,1.43964,7.1535c-2.62708-1.31305-4.43964-4.02234-4.43964-7.1535s1.81256-5.84045,4.43964-7.1535Z"/>
        <circle cx="32" cy="41" r="1"/>
      </g>
    </g>
  </g>
</svg>