<?xml version="1.0" encoding="UTF-8"?>
<svg xmlns="http://www.w3.org/2000/svg" version="1.1" viewBox="0 0 64 64">
  <!-- Generator: Adobe Illustrator 28.7.1, SVG Export Plug-In . SVG Version: 1.2.0 Build 142)  -->
  <g>
    <g id="Outline">
      <g>
        <path d="M57,40v-2c0-1.29999-.84003-2.40002-2-2.82001v-19.17999c0-1.65002-1.34998-3-3-3H12c-1.65002,0-3,1.34998-3,3v19.17999c-1.15997.41998-2,1.52002-2,2.82001v2c0,1.64996,1.34998,3,3,3h1.17999c-.10999.31-.17999.64996-.17999,1,0,.34998.07001.69.17999,1h-3.17999c-.54999,0-1,.45001-1,1s.45001,1,1,1h1v2h-1c-.54999,0-1,.45001-1,1s.45001,1,1,1h48c.54999,0,1-.45001,1-1s-.45001-1-1-1h-1v-2h1c.54999,0,1-.45001,1-1s-.45001-1-1-1h-3.17999c.10999-.31.17999-.65002.17999-1,0-.35004-.07001-.69-.17999-1h1.17999c1.65002,0,3-1.35004,3-3ZM11,16c0-.54999.45001-1,1-1h40c.54999,0,1,.45001,1,1v19H11v-19ZM13,49h-2v-2h2v2ZM14,45c-.54999,0-1-.45001-1-1s.45001-1,1-1,1,.45001,1,1-.45001,1-1,1ZM17,49h-2v-2h2v2ZM16.82001,43h6.35999c-.10999.31-.17999.64996-.17999,1,0,.34998.07001.69.17999,1h-6.35999c.10999-.31.17999-.65002.17999-1,0-.35004-.07001-.69-.17999-1ZM21,49h-2v-2h2v2ZM25,49h-2v-2h2v2ZM26,45c-.54999,0-1-.45001-1-1s.45001-1,1-1,1,.45001,1,1-.45001,1-1,1ZM29,49h-2v-2h2v2ZM28.82001,43h6.35999c-.10999.31-.17999.64996-.17999,1,0,.34998.07001.69.17999,1h-6.35999c.10999-.31.17999-.65002.17999-1,0-.35004-.07001-.69-.17999-1ZM33,49h-2v-2h2v2ZM37,49h-2v-2h2v2ZM38,45c-.54999,0-1-.45001-1-1s.45001-1,1-1,1,.45001,1,1-.45001,1-1,1ZM41,49h-2v-2h2v2ZM40.82001,43h6.35999c-.10999.31-.17999.64996-.17999,1,0,.34998.07001.69.17999,1h-6.35999c.10999-.31.17999-.65002.17999-1,0-.35004-.07001-.69-.17999-1ZM45,49h-2v-2h2v2ZM49,49h-2v-2h2v2ZM50,45c-.54999,0-1-.45001-1-1s.45001-1,1-1,1,.45001,1,1-.45001,1-1,1ZM53,47v2h-2v-2h2ZM10,41c-.54999,0-1-.45001-1-1v-2c0-.54999.45001-1,1-1h44c.54999,0,1,.45001,1,1v2c0,.54999-.45001,1-1,1H10Z"/>
        <path d="M14,17c-.55273,0-1,.44775-1,1v14c0,.55225.44727,1,1,1s1-.44775,1-1v-14c0-.55225-.44727-1-1-1Z"/>
        <path d="M18,17c-.55273,0-1,.44775-1,1v14c0,.55225.44727,1,1,1s1-.44775,1-1v-14c0-.55225-.44727-1-1-1Z"/>
        <path d="M22,17c-.55273,0-1,.44775-1,1v14c0,.55225.44727,1,1,1s1-.44775,1-1v-14c0-.55225-.44727-1-1-1Z"/>
        <path d="M26,17c-.55273,0-1,.44775-1,1v14c0,.55225.44727,1,1,1s1-.44775,1-1v-14c0-.55225-.44727-1-1-1Z"/>
        <path d="M30,17c-.55273,0-1,.44775-1,1v14c0,.55225.44727,1,1,1s1-.44775,1-1v-14c0-.55225-.44727-1-1-1Z"/>
        <path d="M34,17c-.55273,0-1,.44775-1,1v14c0,.55225.44727,1,1,1s1-.44775,1-1v-14c0-.55225-.44727-1-1-1Z"/>
        <path d="M38,17c-.55273,0-1,.44775-1,1v14c0,.55225.44727,1,1,1s1-.44775,1-1v-14c0-.55225-.44727-1-1-1Z"/>
        <path d="M42,17c-.55273,0-1,.44775-1,1v14c0,.55225.44727,1,1,1s1-.44775,1-1v-14c0-.55225-.44727-1-1-1Z"/>
        <path d="M46,17c-.55273,0-1,.44775-1,1v14c0,.55225.44727,1,1,1s1-.44775,1-1v-14c0-.55225-.44727-1-1-1Z"/>
        <path d="M50,17c-.55273,0-1,.44775-1,1v14c0,.55225.44727,1,1,1s1-.44775,1-1v-14c0-.55225-.44727-1-1-1Z"/>
      </g>
    </g>
  </g>
</svg>