<?xml version="1.0" encoding="UTF-8"?>
<svg xmlns="http://www.w3.org/2000/svg" version="1.1" viewBox="0 0 64 64">
  <!-- Generator: Adobe Illustrator 28.7.1, SVG Export Plug-In . SVG Version: 1.2.0 Build 142)  -->
  <g>
    <g id="Outline">
      <g>
        <path d="M56.15319,27.05566c-.51758-.18115-1.09082.09424-1.27246.61572-.69238,1.99121-2.58398,3.32861-4.70605,3.32861-.61523,0-1.22363-.11523-1.80762-.34229-.3457-.13477-.74121-.06641-1.02148.18066-.28027.24609-.40039.62744-.3125.98975.09375.38184.1416.77637.1416,1.17188,0,2.75684-2.24316,5-5,5-.72797,0-1.42462-.16431-2.06317-.46063.57703-.84259,1.22516-1.6369,1.95477-2.367l.63965-.62988c.19043-.18701.29785-.44189.29883-.7085s-.10449-.52246-.29297-.71094l-2.83008-2.83008c-.39062-.39062-1.02344-.39062-1.41406,0l-3.58984,3.58984c-.70996.70996-1.69531,1.11719-2.70312,1.11719s-1.99316-.40723-2.70312-1.11719l-3.58984-3.58984c-.39062-.39062-1.02344-.39062-1.41406,0l-2.83008,2.83008c-.18848.18848-.29395.44434-.29297.71094s.1084.52148.29883.7085l.63281.62354c.73474.73676,1.38428,1.53442,1.96136,2.37341-.63849.29633-1.33508.46057-2.06293.46057-2.75684,0-5-2.24316-5-5,0-.39551.04785-.79004.1416-1.17188.08789-.3623-.03223-.74365-.3125-.98975s-.6748-.31445-1.02148-.18066c-.58398.22705-1.19238.34229-1.80762.34229-2.75684,0-5-2.24316-5-5s2.24316-5,5-5c.0918,0,.18359.00879.27539.0166.33887.0332.67188-.11719.87988-.38916.20703-.27148.26172-.63037.14453-.95117-.19922-.54297-.2998-1.10693-.2998-1.67627,0-2.75684,2.24316-5,5-5,1.36719,0,2.6416.5415,3.58984,1.52441.24805.25732.61523.36377.96484.27539.34766-.08789.62109-.35498.71777-.7002.84082-3.00244,3.60742-5.09961,6.72754-5.09961s5.88672,2.09717,6.72754,5.09961c.09668.34521.37012.6123.71777.7002.34668.08789.7168-.01807.96484-.27539.94824-.98291,2.22266-1.52441,3.58984-1.52441,2.75684,0,5,2.24316,5,5,0,.56934-.10059,1.1333-.2998,1.67627-.11719.3208-.0625.67969.14453.95117.20801.271.54199.4209.87988.38916,2.21777-.17822,4.25879,1.23486,4.98145,3.31201.18164.52148.75391.79736,1.27246.61572.52246-.18115.79785-.75146.61621-1.27295-.87012-2.50293-3.08789-4.27002-5.67773-4.61133.05566-.3501.08301-.7041.08301-1.06006,0-3.85986-3.14062-7-7-7-1.40039,0-2.73242.40576-3.86719,1.16309-1.46191-3.1001-4.62305-5.16309-8.13281-5.16309s-6.6709,2.06299-8.13281,5.16309c-1.13477-.75732-2.4668-1.16309-3.86719-1.16309-3.85938,0-7,3.14014-7,7,0,.35596.02734.70947.08301,1.06006-3.42871.4502-6.08301,3.39062-6.08301,6.93994,0,3.85986,3.14062,7,7,7,.33594,0,.66992-.02441,1-.07275v.07275c0,3.85986,3.14062,7,7,7,1.09796,0,2.15289-.25354,3.1059-.73438,1.23401,2.36224,1.8941,4.99811,1.8941,7.73438,0,1.51465-.24121,3.00244-.71777,4.42139-.48926,1.45752-1.18945,2.79541-2.08105,3.97656-.22754.30273-.26562.7085-.09668,1.04785.16992.33984.5166.5542.89551.5542h14c.37891,0,.72559-.21436.89453-.55322s.13281-.74414-.09473-1.04736c-1.62793-2.16748-2.58301-4.74854-2.76172-7.46533-.03613-.55078-.52441-.96289-1.06348-.93213-.55176.03662-.96875.5127-.93262,1.06396.16211,2.46094.88184,4.8252,2.10059,6.93408h-10.28516c.53125-.92188.97266-1.90625,1.32129-2.94189.54492-1.625.82129-3.32715.82129-5.05811,0-3.41016-.92694-6.67438-2.62909-9.53906-.02802-.06128-.04333-.12622-.08478-.18262-.0144-.01965-.03632-.02893-.05182-.04724-.74597-1.21539-1.61871-2.36389-2.64545-3.4054l1.41113-1.41162,2.88281,2.88281c1.08203,1.08252,2.58301,1.70312,4.11719,1.70312s3.03516-.62061,4.11719-1.70312l2.88281-2.88281,1.41113,1.41113c-1.02014,1.03149-1.88995,2.17548-2.63684,3.39801-.01831.02112-.04364.03217-.06042.05511-.04816.06555-.06842.14032-.09845.21216-.44354.75433-.85309,1.53003-1.18964,2.3479-.5332,1.29004-.9209,2.63379-1.15234,3.99414-.0918.54443.27441,1.06104.81934,1.15332.54492.09473,1.06055-.27344,1.15332-.81836.20605-1.21338.55176-2.41309,1.02832-3.56689.18768-.45624.401-.89795.62616-1.33228.95129.47882,2.00391.73169,3.09943.73169,3.85938,0,7-3.14014,7-7v-.07275c.33008.04834.66406.07275,1,.07275,2.97266,0,5.62305-1.87744,6.59473-4.67139.18164-.52148-.09375-1.0918-.61621-1.27295Z"/>
        <path d="M24.88171,18.87842c.39062-.39062.39062-1.02393,0-1.41406-.39062-.39062-1.02344-.39062-1.41406,0-.69141.69141-1.89453.69141-2.58594,0-.39062-.39062-1.02344-.39062-1.41406,0-.39062.39014-.39062,1.02344,0,1.41406.72266.72314,1.68457,1.12158,2.70703,1.12158s1.98438-.39844,2.70703-1.12158Z"/>
        <path d="M25.17468,24.82666c.98047,0,1.96094-.37305,2.70703-1.11963.39062-.39062.39062-1.02344,0-1.41406s-1.02344-.39062-1.41406,0c-.71289.71289-1.87305.71289-2.58594,0-.39062-.39062-1.02344-.39062-1.41406,0s-.39062,1.02344,0,1.41406c.74609.74658,1.72656,1.11963,2.70703,1.11963Z"/>
        <path d="M33.46765,25.29297c-.71289.71289-1.87305.71289-2.58594,0-.39062-.39062-1.02344-.39062-1.41406,0s-.39062,1.02344,0,1.41406c.74609.74658,1.72656,1.11963,2.70703,1.11963s1.96094-.37305,2.70703-1.11963c.39062-.39062.39062-1.02344,0-1.41406s-1.02344-.39062-1.41406,0Z"/>
        <path d="M34.88171,17.46436c-.39062-.39062-1.02344-.39062-1.41406,0-.69141.69141-1.89453.69141-2.58594,0-.39062-.39062-1.02344-.39062-1.41406,0-.39062.39014-.39062,1.02344,0,1.41406.72266.72314,1.68457,1.12158,2.70703,1.12158s1.98438-.39844,2.70703-1.12158c.39062-.39062.39062-1.02393,0-1.41406Z"/>
        <path d="M38.17468,24c1.02246,0,1.98438-.39844,2.70703-1.12158.39062-.39062.39062-1.02393,0-1.41406-.39062-.39062-1.02344-.39062-1.41406,0-.69141.69141-1.89453.69141-2.58594,0-.39062-.39062-1.02344-.39062-1.41406,0-.39062.39014-.39062,1.02344,0,1.41406.72266.72314,1.68457,1.12158,2.70703,1.12158Z"/>
        <path d="M47.46765,26.46436c-.69141.69141-1.89453.69141-2.58594,0-.39062-.39062-1.02344-.39062-1.41406,0-.39062.39014-.39062,1.02344,0,1.41406.72266.72314,1.68457,1.12158,2.70703,1.12158s1.98438-.39844,2.70703-1.12158c.39062-.39062.39062-1.02393,0-1.41406-.39062-.39062-1.02344-.39062-1.41406,0Z"/>
        <path d="M19.46765,26.46436c-.69141.69141-1.89453.69141-2.58594,0-.39062-.39062-1.02344-.39062-1.41406,0-.39062.39014-.39062,1.02344,0,1.41406.72266.72314,1.68457,1.12158,2.70703,1.12158s1.98438-.39844,2.70703-1.12158c.39062-.39062.39062-1.02393,0-1.41406-.39062-.39062-1.02344-.39062-1.41406,0Z"/>
      </g>
    </g>
  </g>
</svg>