<?xml version="1.0" encoding="UTF-8"?>
<svg id="Outline" xmlns="http://www.w3.org/2000/svg" version="1.1" viewBox="0 0 64 64">
  <path d="M56,43h-2v-19c0-.54999-.45001-1-1-1h-18c-.54999,0-1,.45001-1,1v19h-2v-13c0-.54999-.45001-1-1-1h-6c-.54999,0-1,.45001-1,1v3h-2.02002c0-.09003.01001-.17999-.01996-.27002l-6-21c-.12-.42999-.51001-.72998-.96002-.72998h-4c-.54999,0-1,.45001-1,1s.45001,1,1,1h3.25l5.71002,20h-.96002c-.54999,0-1,.45001-1,1v4c0,.54999.45001,1,1,1h5v4h-3.69c-1.12-2.35999-3.52002-4-6.31-4-3.85999,0-7,3.14001-7,7s3.14001,7,7,7c2.78998,0,5.19-1.64001,6.31-4h22.78998c.47003,2.27997,2.49005,4,4.90002,4s4.42999-1.72003,4.90002-4h3.09998c.54999,0,1-.45001,1-1v-4c0-.54999-.45001-1-1-1ZM14,51c-2.76001,0-5-2.23999-5-5s2.23999-5,5-5,5,2.23999,5,5-2.23999,5-5,5ZM40,25h8v7.22998l-3.48999-2.08997c-.15002-.09003-.33002-.14001-.51001-.14001s-.35999.04999-.51001.14001l-3.48999,2.08997v-7.22998ZM36,25h2v9c0,.35999.19.69.51001.87.31.17999.70001.16998,1-.01001l4.48999-2.69,4.48998,2.68999c.6532.39134,1.51002-.10416,1.51002-.85998v-9h2v18h-16v-18ZM26,31h4v12h-4v-12ZM20,37v-2h4v2h-4ZM48,51c-1.29999,0-2.40002-.84003-2.82001-2h5.64001c-.41998,1.15997-1.52002,2-2.82001,2ZM55,47H20.91998c.04999-.33002.08002-.66003.08002-1,0-.34003-.03003-.67004-.08002-1h34.08002v2Z" fill="#000" stroke-width="0"/>
  <path d="M14,43c-1.6543,0-3,1.3457-3,3s1.3457,3,3,3,3-1.3457,3-3-1.3457-3-3-3ZM14,47c-.55127,0-1-.44824-1-1s.44873-1,1-1,1,.44824,1,1-.44873,1-1,1Z" fill="#000" stroke-width="0"/>
</svg>