<?xml version="1.0" encoding="UTF-8"?>
<svg id="Outline" xmlns="http://www.w3.org/2000/svg" version="1.1" viewBox="0 0 48 48">
  <path d="M42.83002,25.45001l-6-9c-.17999-.28003-.5-.45001-.83002-.45001h-1v-1c0-1.65002-1.34998-3-3-3s-3,1.34998-3,3v1h-2v-1c0-1.65002-1.34998-3-3-3H8c-1.65002,0-3,1.34998-3,3v18c0,1.64996,1.34998,3,3,3h1.09998c.47003,2.27997,2.49005,4,4.90002,4s4.42999-1.72003,4.90002-4h10.19995c.47003,2.27997,2.49005,4,4.90002,4s4.42999-1.72003,4.90002-4h1.09998c1.65002,0,3-1.35004,3-3v-7c0-.20001-.06-.39001-.16998-.54999ZM17,14h3v12h-3v-12ZM12,14h3v12h-3v-12ZM7,15c0-.54999.45001-1,1-1h2v12h-3v-11ZM14,38c-1.65002,0-3-1.35004-3-3s1.34998-3,3-3,3,1.34998,3,3-1.34998,3-3,3ZM25,34h-6.09998c-.47003-2.28003-2.48004-4-4.90002-4s-4.42999,1.71997-4.90002,4h-1.09998c-.54999,0-1-.45001-1-1v-5h18v6ZM25,26h-3v-12h2c.54999,0,1,.45001,1,1v11ZM38.13,22l2,3h-7.13v-3h5.13ZM31,15c0-.54999.45001-1,1-1s1,.45001,1,1v1h-2v-1ZM34,38c-1.65002,0-3-1.35004-3-3s1.34998-3,3-3,3,1.34998,3,3-1.34998,3-3,3ZM41,33c0,.54999-.45001,1-1,1h-1.09998c-.47003-2.28003-2.49005-4-4.90002-4s-4.42999,1.71997-4.90002,4h-2.09998v-16h8.46002l1.33997,2h-3.79999c-1.09998,0-2,.89996-2,2v3c0,1.09998.90002,2,2,2h8v6Z" fill="#000" stroke-width="0"/>
  <circle cx="14" cy="35" r="1" fill="#000" stroke-width="0"/>
  <circle cx="34" cy="35" r="1" fill="#000" stroke-width="0"/>
</svg>