<?xml version="1.0" encoding="utf-8"?>
<!-- Generator: Adobe Illustrator 27.3.1, SVG Export Plug-In . SVG Version: 6.00 Build 0)  -->
<svg version="1.1" id="Outline" xmlns="http://www.w3.org/2000/svg" xmlns:xlink="http://www.w3.org/1999/xlink" x="0px" y="0px"
	 viewBox="0 0 48 48" enable-background="new 0 0 48 48" xml:space="preserve">
<g>
	<circle cx="6" cy="24" r="1"/>
	<path d="M18,20c-0.55225,0-1,0.44727-1,1v4c0,1.6543,1.3457,3,3,3s3-1.3457,3-3v-4c0-0.55273-0.44775-1-1-1s-1,0.44727-1,1v4
		c0,0.55176-0.44873,1-1,1s-1-0.44824-1-1v-4C19,20.44727,18.55225,20,18,20z"/>
	<path d="M28,28c0.43066,0,0.8125-0.27539,0.94873-0.68359l2-6c0.1748-0.52441-0.1084-1.09082-0.63232-1.26465
		c-0.52539-0.1748-1.09082,0.1084-1.26514,0.63184L28,23.83789l-1.05127-3.1543c-0.17432-0.52344-0.73828-0.80664-1.26514-0.63184
		c-0.52393,0.17383-0.80713,0.74023-0.63232,1.26465l2,6C27.1875,27.72461,27.56934,28,28,28z"/>
	<path d="M37.72998,18.31641v-7.04688c0-0.55273-0.44775-1-1-1h-7.0459l-4.97705-4.97656
		c-0.39062-0.39062-1.02344-0.39062-1.41406,0l-4.97705,4.97656h-7.0459c-0.55225,0-1,0.44727-1,1v7.04688l-2.14697,2.14648
		c-0.39062,0.39062-0.39062,1.02344,0,1.41406s1.02344,0.39062,1.41406,0l2.43994-2.43945
		c0.1875-0.1875,0.29297-0.44141,0.29297-0.70703v-6.46094h6.45996c0.26514,0,0.51953-0.10547,0.70703-0.29297L24,7.41406
		l4.56299,4.5625c0.1875,0.1875,0.44189,0.29297,0.70703,0.29297h6.45996v6.46094c0,0.26562,0.10547,0.51953,0.29297,0.70703
		L40.58594,24l-4.56299,4.5625c-0.1875,0.1875-0.29297,0.44141-0.29297,0.70703v6.46094h-6.45996
		c-0.26514,0-0.51953,0.10547-0.70703,0.29297L24,40.58594l-4.56299-4.5625c-0.1875-0.1875-0.44189-0.29297-0.70703-0.29297
		h-6.45996v-6.46094c0-0.26562-0.10547-0.51953-0.29297-0.70703l-2.43994-2.43945c-0.39062-0.39062-1.02344-0.39062-1.41406,0
		s-0.39062,1.02344,0,1.41406l2.14697,2.14648v7.04688c0,0.55273,0.44775,1,1,1h7.0459l4.97705,4.97656
		C23.48828,42.90234,23.74414,43,24,43s0.51172-0.09766,0.70703-0.29297l4.97705-4.97656h7.0459c0.55225,0,1-0.44727,1-1v-7.04688
		l4.97705-4.97656C42.89453,24.51953,43,24.26562,43,24s-0.10547-0.51953-0.29297-0.70703L37.72998,18.31641z"/>
	<circle cx="41" cy="18" r="1"/>
	<path d="M31.7782,7.70709c0.3905-0.3905,0.3905-1.02368,0-1.41418c-0.39056-0.39056-1.02374-0.39056-1.41425,0
		c-0.3905,0.3905-0.3905,1.02368,0,1.41418S31.38763,8.0976,31.7782,7.70709z"/>
	<circle cx="18" cy="7" r="1"/>
	<path d="M7.70709,16.2218c-0.3905-0.3905-1.02368-0.3905-1.41418,0c-0.39056,0.3905-0.39056,1.02368,0,1.41425
		c0.3905,0.3905,1.02368,0.3905,1.41418,0C8.09766,17.24548,8.09766,16.6123,7.70709,16.2218z"/>
	<circle cx="7" cy="30" r="1"/>
	<path d="M16.2218,40.29291c-0.3905,0.3905-0.3905,1.02368,0,1.41418c0.39056,0.3905,1.02374,0.3905,1.41425,0
		s0.3905-1.02368,0-1.41418C17.24554,39.90234,16.61237,39.90234,16.2218,40.29291z"/>
	<circle cx="30" cy="41" r="1"/>
	<path d="M9.70703,8.29297l-3-3c-0.39062-0.39062-1.02344-0.39062-1.41406,0s-0.39062,1.02344,0,1.41406c0,0,2.99831,2.99831,3,3
		c0.38587,0.38587,1.02846,0.3856,1.41406,0C10.09766,9.31641,10.09766,8.68359,9.70703,8.29297z"/>
	<path d="M42.70703,5.29297c-0.39062-0.39062-1.02344-0.39062-1.41406,0l-3,3c-0.39062,0.39056-0.39062,1.02338-0.00006,1.41401
		c0.37636,0.37641,1.0382,0.3759,1.41412,0.00006c0.00002-0.00002,3-3,3-3C43.09766,6.31641,43.09766,5.68359,42.70703,5.29297z"/>
	<path d="M39.70703,38.29297c-0.39062-0.39062-1.02344-0.39062-1.41406,0s-0.39062,1.02344,0,1.41406c0,0,2.99893,2.99893,3,3
		c0.37759,0.37759,1.02354,0.39052,1.41406,0c0.39062-0.39062,0.39062-1.02344,0-1.41406L39.70703,38.29297z"/>
	<path d="M8.29297,38.29297l-3,3c-0.39062,0.39062-0.39062,1.02344,0,1.41406c0.37768,0.37768,1.02361,0.39046,1.41406,0l3-3
		c0.39062-0.39062,0.39062-1.02344,0-1.41406S8.68359,37.90234,8.29297,38.29297z"/>
	<path d="M23,34c0,0.55273,0.44775,1,1,1c6.06543,0,11-4.93457,11-11c0-0.55273-0.44775-1-1-1s-1,0.44727-1,1
		c0,4.96289-4.0376,9-9,9C23.44775,33,23,33.44727,23,34z"/>
	<path d="M24,13c-6.06543,0-11,4.93457-11,11c0,0.55273,0.44775,1,1,1s1-0.44727,1-1c0-4.96289,4.0376-9,9-9
		c0.55225,0,1-0.44727,1-1S24.55225,13,24,13z"/>
</g>
</svg>
