<?xml version="1.0" encoding="utf-8"?>
<!-- Generator: Adobe Illustrator 27.3.1, SVG Export Plug-In . SVG Version: 6.00 Build 0)  -->
<svg version="1.1" id="Outline" xmlns="http://www.w3.org/2000/svg" xmlns:xlink="http://www.w3.org/1999/xlink" x="0px" y="0px"
	 viewBox="0 0 64 64" enable-background="new 0 0 64 64" xml:space="preserve">
<g>
	<path d="M33,48c0-0.55273-0.44727-1-1-1c-4.96289,0-9-4.03711-9-9c0-0.55273-0.44727-1-1-1s-1,0.44727-1,1
		c0,6.06543,4.93457,11,11,11C32.55273,49,33,48.55273,33,48z"/>
	<path d="M8,21h10c0.55273,0,1-0.44727,1-1v-4c0-0.55273-0.44727-1-1-1H8c-0.55273,0-1,0.44727-1,1v4C7,20.55273,7.44727,21,8,21z
		 M9,17h8v2H9V17z"/>
	<path d="M8,25h6c0.55273,0,1-0.44727,1-1s-0.44727-1-1-1H8c-0.55273,0-1,0.44727-1,1S7.44727,25,8,25z"/>
	<path d="M12,27H8c-0.55273,0-1,0.44727-1,1s0.44727,1,1,1h4c0.55273,0,1-0.44727,1-1S12.55273,27,12,27z"/>
	<path d="M54,51c-1.30194,0-2.40161,0.8385-2.81573,2h-4.7702l-1.2923-1.2923C48.73584,48.2467,51,43.38715,51,38
		C51,25.72656,33.4541,8.04004,32.70703,7.29297c-0.39062-0.39062-1.02344-0.39062-1.41406,0
		c-0.24158,0.24158-2.24365,2.26105-4.83734,5.28967l-2.68707-3.22327C23.57812,9.13184,23.29688,9,23,9h-8.18427
		C14.40161,7.8385,13.30194,7,12,7c-1.6543,0-3,1.3457-3,3s1.3457,3,3,3c1.30194,0,2.40161-0.8385,2.81573-2h7.71552
		l2.61548,3.13763C19.82812,20.58075,13,30.34326,13,38c0,10.47656,8.52344,19,19,19c4.36926,0,8.38684-1.4975,11.60004-3.9859
		l1.69293,1.69293C45.48047,54.89453,45.73438,55,46,55h5.18433c0.41412,1.1615,1.51373,2,2.81567,2c1.6543,0,3-1.3457,3-3
		S55.6543,51,54,51z M12,11c-0.55176,0-1-0.44824-1-1s0.44824-1,1-1s1,0.44824,1,1S12.55176,11,12,11z M42.29358,48.87952
		C45.21411,46.10132,47,42.19128,47,38c0-4.18164-2.96191-10.43848-8.33887-17.61816
		c-1.75391-2.34473-3.74512-4.76367-5.91602-7.18848c-0.37891-0.42383-1.11133-0.42383-1.49023,0
		c-2.1709,2.4248-4.16211,4.84375-5.91602,7.1875C19.96191,27.56152,17,33.81836,17,38
		c0,6.60449,4.42383,12.52148,10.75684,14.38867c0.53809,0.16113,1.08691-0.14746,1.24219-0.67578
		c0.15625-0.53027-0.14648-1.08594-0.67578-1.24219C22.83398,48.85254,19,43.72363,19,38c0-1.58264,0.53381-3.58655,1.53564-5.88641
		c1.83533,0.59729,3.67755,0.91669,5.50153,0.91669c2.06512,0,4.00647-0.47388,5.94623-1.14551
		c1.00684-0.34863,1.95898-0.67773,3.19238-0.90039c2.51483-0.44672,5.2298-0.22467,8.07275,0.64941
		C44.38824,34.13495,45,36.30859,45,38c0,3.65131-1.56494,7.05579-4.11993,9.466l-1.17303-1.17303
		c-0.39062-0.39062-1.02344-0.39062-1.41406,0s-0.39062,1.02344,0,1.41406l1.02332,1.02332
		c-1.09833,0.7547-2.31946,1.3512-3.63953,1.74036c-0.5293,0.15625-0.83203,0.71191-0.67578,1.24219
		c0.12793,0.43457,0.52637,0.7168,0.95898,0.7168c0.09277,0,0.18848-0.0127,0.2832-0.04102
		c1.64746-0.48572,3.16156-1.25043,4.50635-2.2251l1.42401,1.42401C39.33289,53.71997,35.81744,55,32,55
		c-9.37402,0-17-7.62598-17-17c0-10.11914,13.7002-25.10156,17-28.5625C35.2998,12.89844,49,27.88086,49,38
		c0,4.83588-2.03961,9.1958-5.29169,12.29425L42.29358,48.87952z M42.05237,29.24658
		c-2.51147-0.55804-4.93536-0.64056-7.2301-0.23096c-1.3877,0.25098-2.45801,0.62109-3.49219,0.97852
		c-1.32422,0.45801-2.57422,0.88965-4.39259,1.00781c-1.81939,0.11578-3.67803-0.13934-5.53661-0.71478
		c1.33966-2.64185,3.20587-5.59235,5.53955-8.70807c1.5166-2.02734,3.21582-4.1123,5.05957-6.21191
		c1.84375,2.09961,3.54297,4.18457,5.05957,6.21289C39.09125,24.2923,40.76691,26.87848,42.05237,29.24658z M54,55
		c-0.55176,0-1-0.44824-1-1s0.44824-1,1-1s1,0.44824,1,1S54.55176,55,54,55z"/>
	<path d="M56,47h-5c-0.55273,0-1,0.44727-1,1s0.44727,1,1,1h5c0.55273,0,1-0.44727,1-1S56.55273,47,56,47z"/>
	<path d="M53,45h3c0.55273,0,1-0.44727,1-1s-0.44727-1-1-1h-3c-0.55273,0-1,0.44727-1,1S52.44727,45,53,45z"/>
	<circle cx="32" cy="52" r="1"/>
</g>
</svg>
