<?xml version="1.0" encoding="UTF-8"?>
<svg xmlns="http://www.w3.org/2000/svg" version="1.1" viewBox="0 0 48 48">
  <!-- Generator: Adobe Illustrator 28.7.1, SVG Export Plug-In . SVG Version: 1.2.0 Build 142)  -->
  <g>
    <g id="Outline">
      <g>
        <path d="M42,29h-11v-2h11c.38,0,.71997-.21002.89001-.54999.16998-.34003.14001-.75-.09003-1.05005l-11.79999-15.72998v-1.66998c0-1.65002-1.34998-3-3-3s-3,1.34998-3,3v21h-6v-6.17999c1.15997-.42004,2-1.52002,2-2.82001,0-1.65002-1.34998-3-3-3h-10c-1.65002,0-3,1.34998-3,3,0,1.29999.84003,2.39996,2,2.82001v6.17999h-1c-.54999,0-1,.45001-1,1v6c0,3.85999,3.14001,7,7,7h24c3.85999,0,7-3.14001,7-7v-6c0-.54999-.45001-1-1-1ZM31,13l9,12h-9v-12ZM27,8c0-.54999.45001-1,1-1s1,.45001,1,1v21h-2V8ZM8,19h10c.54999,0,1,.45001,1,1s-.45001,1-1,1h-10c-.54999,0-1-.45001-1-1s.45001-1,1-1ZM17,23v6h-8v-6h8ZM41,35h-13c-.54999,0-1,.45001-1,1s.45001,1,1,1h12.90002c-.47003,2.27997-2.49005,4-4.90002,4H12c-2.76001,0-5-2.23999-5-5v-5h34v4Z"/>
        <path d="M20,35h-5.18427c-.41412-1.1615-1.51379-2-2.81573-2-1.6543,0-3,1.3457-3,3s1.3457,3,3,3c1.30194,0,2.40161-.8385,2.81573-2h5.18427c.55273,0,1-.44727,1-1s-.44727-1-1-1ZM12,37c-.55176,0-1-.44824-1-1s.44824-1,1-1,1,.44824,1,1-.44824,1-1,1Z"/>
        <circle cx="24" cy="36" r="1"/>
      </g>
    </g>
  </g>
</svg>