<?xml version="1.0" encoding="UTF-8"?>
<svg xmlns="http://www.w3.org/2000/svg" version="1.1" viewBox="0 0 64 64">
  <!-- Generator: Adobe Illustrator 28.7.1, SVG Export Plug-In . SVG Version: 1.2.0 Build 142)  -->
  <g>
    <g id="Outline">
      <g>
        <path d="M56.77242,12.93036c-.38086-1.15381-1.18555-2.08984-2.2666-2.63525s-2.31348-.63623-3.46582-.25586l-3.0921,1.01874-.12177-.27411c-.62793-1.41455-2.20703-2.11816-3.68066-1.63135l-11.75879,3.87402c-1.46875.48486-2.32422,1.98926-1.98926,3.5l.84863,3.81873-4.15039-2.41003c-.47754-.27637-1.08789-.11621-1.36621.36182l-2.01758,3.46533c-.13379.229-.16992.50195-.10254.75879.06836.25635.23535.47559.46484.60889l8.94519,5.19501.86633,3.89825c.18359.82568.70996,1.53906,1.44531,1.95752.7313.41576,1.62324.50486,2.42187.24121l14.79688-4.87598c.80371-.26465,1.46191-.85986,1.80469-1.63379.34277-.77344.34277-1.66016-.00098-2.43262l-1.13605-2.55768,3.2923-6.52826c.54785-1.08496.64062-2.31494.2627-3.46338ZM25.94429,21.9035l1.01074-1.7373,4.88104,2.83411.59326,2.66956-6.48505-3.76636ZM52.52632,27.10223c-.11621.26123-.33008.45459-.60156.54443l-14.79785,4.87598c-.27051.08887-.55762.06152-.80762-.08057-.24805-.14111-.41895-.37256-.48047-.65186l-3.48828-15.69727c-.1123-.50391.17285-1.00537.66211-1.16699l11.75879-3.87402h.00098c.10449-.03467.20996-.05078.31445-.05078.38574,0,.74707.22363.91113.59424l6.52734,14.69629c.11621.26123.11621.54883.00098.81055ZM54.72457,15.49286l-2.55579,5.06818-3.40515-7.6665,2.90137-.95587c1.33691-.43701,2.76855.2876,3.20703,1.61768.21191.64111.15918,1.32861-.14746,1.93652Z"/>
        <path d="M27.99898,34.00116h-2c-2.75684,0-5,2.24316-5,5v1.61584c-1.31299,1.39136-2.32465,2.99243-3,4.73132-.67535-1.73889-1.68701-3.33997-3-4.73132v-1.61584c0-2.75684-2.24316-5-5-5h-2c-.55273,0-1,.44775-1,1v2c0,2.75684,2.24316,5,5,5h1.55878c2.21521,2.35486,3.44122,5.40826,3.44122,8.65674v2.34326H7.99898c-.55273,0-1,.44775-1,1s.44727,1,1,1h20c.55273,0,1-.44775,1-1s-.44727-1-1-1h-9v-2.34326c0-3.24847,1.22601-6.30188,3.44122-8.65674h1.55878c2.75684,0,5-2.24316,5-5v-2c0-.55225-.44727-1-1-1ZM8.99898,37.00116v-1h1c1.6543,0,3,1.3457,3,3v1h-1c-1.6543,0-3-1.3457-3-3ZM26.99898,37.00116c0,1.6543-1.3457,3-3,3h-1v-1c0-1.6543,1.3457-3,3-3h1v1Z"/>
        <path d="M21.99898,33.00116c1.6543,0,3-1.3457,3-3,0-1.27832-1.52246-3.62061-2.17676-4.56836-.375-.54102-1.27148-.54102-1.64648,0-.6543.94775-2.17676,3.29004-2.17676,4.56836,0,1.6543,1.3457,3,3,3ZM21.99898,27.85467c.5752.97021.99121,1.84131,1,2.14746,0,.55078-.44922.99902-1,.99902-.55176,0-1-.44873-1-.99902.00781-.30566.42383-1.17676,1-2.14746Z"/>
        <path d="M13.99898,33.00116c1.6543,0,3-1.3457,3-3,0-1.27832-1.52246-3.62061-2.17676-4.56836-.375-.54102-1.27148-.54102-1.64648,0-.6543.94775-2.17676,3.29004-2.17676,4.56836,0,1.6543,1.3457,3,3,3ZM13.99898,27.85467c.5752.97021.99121,1.84131,1,2.14746,0,.55078-.44922.99902-1,.99902-.55176,0-1-.44873-1-.99902.00781-.30566.42383-1.17676,1-2.14746Z"/>
      </g>
    </g>
  </g>
</svg>