<?xml version="1.0" encoding="utf-8"?>
<!-- Generator: Adobe Illustrator 27.3.1, SVG Export Plug-In . SVG Version: 6.00 Build 0)  -->
<svg version="1.1" id="Outline" xmlns="http://www.w3.org/2000/svg" xmlns:xlink="http://www.w3.org/1999/xlink" x="0px" y="0px"
	 viewBox="0 0 64 64" enable-background="new 0 0 64 64" xml:space="preserve">
<g>
	<path d="M50,13h-8v-1c0-0.54999-0.45001-1-1-1h-4.09998C36.44,8.71997,34.40997,7,32,7s-4.44,1.71997-4.90002,4H23
		c-0.54999,0-1,0.45001-1,1v1h-8c-0.54999,0-1,0.45001-1,1v42c0,0.54999,0.45001,1,1,1h36c0.54999,0,1-0.45001,1-1V14
		C51,13.45001,50.54999,13,50,13z M24,13h4c0.54999,0,1-0.45001,1-1c0-1.65002,1.34998-3,3-3s3,1.34998,3,3c0,0.54999,0.45001,1,1,1
		h4v4H24V13z M49,55H15V15h7v2h-4c-0.54999,0-1,0.45001-1,1v8c0,0.54999,0.45001,1,1,1s1-0.45001,1-1v-7h26v32H19V34
		c0-0.54999-0.45001-1-1-1s-1,0.45001-1,1v18c0,0.54999,0.45001,1,1,1h28c0.54999,0,1-0.45001,1-1V18c0-0.54999-0.45001-1-1-1h-4v-2
		h7V55z"/>
	<path d="M32,37c3.30859,0,6-2.69141,6-6c0-4.36426-5.07666-9.49121-5.29297-9.70703c-0.375-0.375-1.03906-0.375-1.41406,0
		C31.07666,21.50879,26,26.63574,26,31C26,34.30859,28.69141,37,32,37z M32,23.46387c1.54053,1.73779,4,5.04004,4,7.53613
		c0,2.20557-1.79443,4-4,4s-4-1.79443-4-4C28,28.50391,30.45947,25.20166,32,23.46387z"/>
	<path d="M22,49c0.55225,0,1-0.44775,1-1v-3h1c1.6543,0,3-1.3457,3-3s-1.3457-3-3-3h-2c-0.55225,0-1,0.44775-1,1v8
		C21,48.55225,21.44775,49,22,49z M23,41h1c0.55127,0,1,0.44873,1,1s-0.44873,1-1,1h-1V41z"/>
	<path d="M33,39c-0.55225,0-1,0.44775-1,1v3h-2v-3c0-0.55225-0.44775-1-1-1s-1,0.44775-1,1v8c0,0.55225,0.44775,1,1,1s1-0.44775,1-1
		v-3h2v3c0,0.55225,0.44775,1,1,1s1-0.44775,1-1v-8C34,39.44775,33.55225,39,33,39z"/>
	<path d="M42,47h-5c-0.55225,0-1,0.44775-1,1s0.44775,1,1,1h5c0.55225,0,1-0.44775,1-1S42.55225,47,42,47z"/>
	<path d="M42,43h-5c-0.55225,0-1,0.44775-1,1s0.44775,1,1,1h5c0.55225,0,1-0.44775,1-1S42.55225,43,42,43z"/>
	<path d="M36,40c0,0.55225,0.44775,1,1,1h5c0.55225,0,1-0.44775,1-1s-0.44775-1-1-1h-5C36.44775,39,36,39.44775,36,40z"/>
	<circle cx="18" cy="30" r="1"/>
</g>
</svg>
