<?xml version="1.0" encoding="UTF-8"?>
<svg xmlns="http://www.w3.org/2000/svg" version="1.1" viewBox="0 0 64 64">
  <!-- Generator: Adobe Illustrator 28.7.1, SVG Export Plug-In . SVG Version: 1.2.0 Build 142)  -->
  <g>
    <g id="Outline">
      <g>
        <path d="M26.35449,10.15615c4.16895-1.58252,9.1015-1.29297,13.0683.79926.4682.24695,1.0929.07117,1.35162-.41742.25781-.48877.07031-1.09326-.41797-1.35107-4.46875-2.35791-10.0127-2.68359-14.71094-.90088-.5166.19629-.77637.77344-.58008,1.29004s.77734.77539,1.28906.58008Z"/>
        <path d="M28.99316,11.45498c-.53906.11963-.87891.65332-.75977,1.19238.11914.53857.64648.8833,1.19336.75977,1.875-.41699,3.95996-.36328,5.9082.19531.50684.14532,1.08533-.15582,1.23633-.68604.15234-.53076-.1543-1.08447-.68555-1.23682-2.26855-.64893-4.69238-.71338-6.89258-.22461Z"/>
        <circle cx="32" cy="24.13125" r="1"/>
        <path d="M16.08984,31.13613c.55273,0,1-.45264,1-1.00488,0-.12109-.02246-.2417-.06543-.35498-.67969-1.79102-1.02441-3.69043-1.02441-5.64502,0-2.59424.63086-5.16113,1.8252-7.42334.25781-.48828.07031-1.09326-.41797-1.35107-.4873-.25781-1.09277-.07031-1.35156.41748-1.34473,2.54883-2.05566,5.43848-2.05566,8.35693,0,2.17188.37891,4.28467,1.12793,6.28223.11816.41846.50391.72266.96191.72266Z"/>
        <path d="M46.59277,32.90566c.46729.2467,1.09326.07031,1.35156-.41748,1.34473-2.54883,2.05566-5.43848,2.05566-8.35693,0-2.17188-.37891-4.28467-1.12793-6.28223-.11816-.41846-.50391-.72266-.96191-.72266-.55273,0-1,.45264-1,1.00488,0,.12109.02246.2417.06543.35498.67969,1.79102,1.02441,3.69043,1.02441,5.64502,0,2.59424-.63086,5.16113-1.8252,7.42334-.25781.48822-.07031,1.0932.41797,1.35107Z"/>
        <path d="M19.78613,19.55996c-.53906-.15527-1.08496.15527-1.2373.68555-.36426,1.26807-.54883,2.57568-.54883,3.88574,0,1.02972.10938,2.04187.32318,3.00714.27509,1.24164,2.23468.83942,1.95319-.43439-.18359-.82275-.27637-1.68848-.27637-2.57275,0-1.12354.1582-2.24512.4707-3.33398.15234-.53076-.1543-1.08447-.68457-1.2373Z"/>
        <path d="M44.21393,28.70254c.52417.14893,1.08624-.15991,1.23724-.68555.36426-1.26807.54883-2.57568.54883-3.88574,0-1.02979-.10938-2.04199-.32324-3.00732-.12109-.53955-.66309-.87695-1.19336-.75879-.53906.11963-.87891.6543-.75977,1.19336.18359.82275.27637,1.68848.27637,2.57275,0,1.12354-.1582,2.24512-.4707,3.33398-.15234.53076.1543,1.08447.68463,1.2373Z"/>
        <path d="M48.59003,49.15121c-.78003-1.79999-2.58002-3.01996-4.59003-3.01996-1.09003,0-2.14001.35999-3,1.01996-.91998-.70996-2.09998-1.03998-3.23999-.98999l-.52002-4.14996c-.07001-.55005-.56-.94-1.10999-.87-.54999.06995-.94.56-.87,1.10999l.44,3.54999c-.92999-1.03998-2.26001-1.66998-3.70001-1.66998s-2.77002.63-3.70001,1.65997l1.89001-15.09998.37-.73999c.46002.10999.94.17999,1.44.17999.10999,0,.21002-.01001.32001-.02002l1.62,1.62.82001,6.52002c.06.51001.48999.88.98999.88.03998,0,.08002,0,.12-.01001.54999-.07001.94-.57001.87-1.10999l-.5-3.97003,7.07001,7.06c.20001.19.45001.29004.71002.29004s.51001-.10004.70996-.29004l2.12-2.12c.32001-.33002.38-.83002.15002-1.21997l-6.35999-10.60004c-.10004-.16998-.23999-.29999-.41003-.38l-2.40997-1.20996c.10999-.46002.17999-.94.17999-1.44,0-.10999-.01001-.21002-.02002-.32001l10.98999-10.98999c.39001-.39001.39001-1.03003,0-1.42004l-2.12-2.12c-.32996-.32001-.82996-.38-1.22998-.14996l-10.58997,6.35999c-.17004.09998-.30005.23999-.38.40997l-1.21002,2.41003c-.46002-.10999-.94-.17999-1.44-.17999-.10999,0-.21002.01001-.32001.01996l-10.98999-10.98999c-.39001-.38995-1.03003-.38995-1.41998,0l-2.12,2.12c-.32001.33002-.38.83002-.15002,1.22003l6.35999,10.59998c.10004.17004.23999.29999.41003.38l2.40997,1.21002c-.10999.45996-.17999.94-.17999,1.44,0,.10999.01001.20996.02002.32001l-10.98999,10.98999c-.39001.39001-.39001,1.02997,0,1.41998l2.12,2.12c.19995.19.44995.29004.70996.29004.17999,0,.35004-.05005.52002-.14001l9.45001-5.67999-1.59003,12.70996c-1.14001-.04999-2.32001.28003-3.23999.98999-.85999-.65997-1.90997-1.01996-3-1.01996-2.01001,0-3.81,1.21997-4.59003,3.01996-2.92999-.27997-5.40997,2.09003-5.40997,4.98004,0,.87.22998,1.72998.66998,2.5.17999.31.51001.5.87.5h29.46002c.54999,0,1-.45001,1-1s-.45001-1-1-1H12.16998c-.10999-.32001-.16998-.66003-.16998-1,0-1.65002,1.34998-3,3-3,.23999,0,.5.03998.81.13.27002.07996.56.03998.79999-.10004.23004-.14996.40002-.38.46002-.64996.28998-1.38,1.52002-2.38,2.92999-2.38.84998,0,1.66998.38,2.25,1.03998.38.42999,1.12.42999,1.5,0,.97998-1.13,2.73999-1.33997,3.91998-.52997.26001.17999.59003.22998.88.13.29999-.10004.53003-.33002.64001-.62006.40997-1.20996,1.53998-2.01996,2.81-2.01996s2.40002.81,2.81,2.01996c.10999.29004.34003.52002.64001.62006.28998.09998.62.04999.88-.13,1.17999-.81,2.94-.60004,3.91998.52997.38.42999,1.12.42999,1.5,0,.58002-.65997,1.40002-1.03998,2.25-1.03998,1.40997,0,2.64001,1,2.92999,2.38.06.26996.22998.5.46002.64996.23999.14001.52997.17999.79999.10004.31-.09003.57001-.13.81-.13,1.65002,0,3,1.34998,3,3,0,.33997-.06.67999-.16998,1h-6.83002c-.54999,0-1,.45001-1,1s.45001,1,1,1h7.46002c.35999,0,.69-.19.87-.5.44-.77002.66998-1.63.66998-2.5,0-2.89001-2.46997-5.26001-5.40997-4.98004ZM41.60999,32.67123l3.27002,5.44-.85999.87-4.41003-4.40997c.85004-.41003,1.54999-1.08002,2-1.90002ZM39.07001,28.43124l1.14996,1.91998c-.00995.04999-.02997.09003-.02997.14001,0,1.27002-.94,2.32001-2.15997,2.5l-3.45001-3.45001c.98999-.47998,1.83997-1.21997,2.44-2.14001l2.04999,1.03003ZM45.97998,11.25124l.87.85999-4.40997,4.41003c-.40997-.85004-1.08002-1.55005-1.90002-2l5.44-3.27002ZM36.29999,17.06124l1.91998-1.15002c.05005.01001.09003.03003.14001.03003,1.27002,0,2.32001.94,2.5,2.15997l-3.45001,3.45001c-.47998-.98999-1.21997-1.84003-2.13995-2.44l1.02997-2.04999ZM32,20.13125c2.21002,0,4,1.78998,4,4s-1.78998,4-4,4-4-1.79004-4-4,1.78998-4,4-4ZM22.39001,15.59121l-3.27002-5.44.85999-.87,4.41003,4.41003c-.85004.40997-1.54999,1.08002-2,1.89996ZM24.92999,19.83126l-1.14996-1.92004c.00995-.04999.02997-.08997.02997-.13995,0-1.27002.94-2.32001,2.15997-2.5l3.45001,3.44995c-.98999.48004-1.83997,1.22003-2.44,2.14001l-2.04999-1.02997ZM18.02002,37.01125l-.87-.86005,4.40997-4.40997c.40997.84998,1.08002,1.54999,1.90002,2l-5.44,3.27002ZM27.70001,31.20126l-1.91998,1.14996c-.05005-.01001-.09003-.02997-.14001-.02997-1.27002,0-2.32001-.94-2.5-2.16003l3.45001-3.45001c.47998.99005,1.21997,1.84003,2.13995,2.44l-1.02997,2.05005Z"/>
      </g>
    </g>
  </g>
</svg>