<?xml version="1.0" encoding="UTF-8"?>
<svg id="Outline" xmlns="http://www.w3.org/2000/svg" version="1.1" viewBox="0 0 64 64">
  <path d="M24,48.99982v-6.89209c0-.90576-.24609-1.79541-.71289-2.57275l-3.87207-6.45361c-.55371-.92236-1.43262-1.57422-2.47656-1.83496-1.00476-.25165-2.04126-.10132-2.93848.40125v-10.14781c0-1.88188-1.62786-3.50002-3.5-3.50002-1.92969,0-3.5,1.57031-3.5,3.5v9.2002c0,6.37726,1.52618,12.68585,4.39301,18.36182-1.3642.28143-2.39301,1.49164-2.39301,2.93799v2c0,1.6543,1.3457,3,3,3h12c1.6543,0,3-1.3457,3-3v-2c0-1.6543-1.3457-3-3-3ZM9,21.49982c0-.8271.67277-1.49992,1.49985-1.5.81851-.00008,1.50015.68366,1.50015,1.5,0,0,0,13.02979.00165,13.03809-.12677.80292-.02802,1.64563.35773,2.4165l2.74609,5.49268c.24609.49365.84766.69482,1.3418.44727.49414-.24707.69434-.84766.44727-1.3418l-2.74609-5.49316c-.47168-.94092-.13281-2.10254.77051-2.64453.46387-.27881,1.01074-.35986,1.53418-.22852.52539.13135.96875.45947,1.24707.92432l3.87207,6.45361c.28027.46631.42773,1,.42773,1.54346v6.89209h-8.39062c-3.00873-5.60968-4.60938-11.91986-4.60938-18.2998v-9.2002ZM25,53.99982c0,.55127-.44824,1-1,1h-12c-.55176,0-1-.44873-1-1v-2c0-.55127.44824-1,1-1h12c.55176,0,1,.44873,1,1v2Z" fill="#000" stroke-width="0"/>
  <path d="M57,21.49982c0-1.92968-1.5703-3.49999-3.49998-3.5-1.88834-.00001-3.50002,1.57763-3.50002,3.5v10.14777c-.89624-.50256-1.9328-.65192-2.93848-.40118-1.04395.26074-1.92285.9126-2.47656,1.83496l-3.87207,6.45361c-.4668.77734-.71289,1.66699-.71289,2.57275v6.89209c-1.6543,0-3,1.3457-3,3v2c0,1.6543,1.3457,3,3,3h12c1.6543,0,3-1.3457,3-3v-2c0-1.44635-1.02881-2.65656-2.39301-2.93799,2.86682-5.67596,4.39301-11.98456,4.39301-18.36182v-9.2002ZM53,51.99982v2c0,.55127-.44824,1-1,1h-12c-.55176,0-1-.44873-1-1v-2c0-.55127.44824-1,1-1h12c.55176,0,1,.44873,1,1ZM55,30.70001c0,6.37994-1.60065,12.69012-4.60938,18.2998h-8.39062v-6.89209c0-.54346.14746-1.07715.42773-1.54346l3.87207-6.45361c.5684-.94737,1.83564-1.26298,2.78125-.69581.90332.54199,1.24219,1.70361.77051,2.64502l-2.74609,5.49268c-.24707.49414-.04688,1.09473.44727,1.3418.49316.24756,1.0957.04639,1.3418-.44727l2.74609-5.49219c.38574-.77112.48444-1.61389.35938-2.42529v-13.02978c0-.79892.66436-1.5,1.5-1.5.82715,0,1.5.67285,1.5,1.5v9.2002Z" fill="#000" stroke-width="0"/>
  <path d="M40,34.99982c0-2.51965-1.17371-4.76752-3-6.23505v-8.21008c1.82629-1.46753,3-3.71539,3-6.23505,0-3.12305-1.75195-5.89111-4.57227-7.22412-.30957-.14551-.67285-.12354-.96289.05957-.28906.18311-.46484.50195-.46484.84473v5.78467l-2,1.3335-2-1.3335v-5.78467c0-.34277-.17578-.66162-.46484-.84473-.29102-.18311-.65332-.20508-.96289-.05957-2.82031,1.33301-4.57227,4.10107-4.57227,7.22412,0,.41064.03125.82129.09277,1.22021.315,2.06415,1.38727,3.82507,2.90723,5.03705v8.16565c-1.51996,1.21198-2.59222,2.9729-2.90723,5.03705-.06152.39893-.09277.80957-.09277,1.22021,0,3.12354,1.75195,5.8916,4.57324,7.22412.30957.14648.6709.12402.96191-.05957.28906-.18359.46484-.50195.46484-.84473v-5.78467l2-1.3335,2,1.3335s0,5.78467,0,5.78469c.00002.69616.79386,1.20251,1.42676.90427,2.82129-1.33252,4.57324-4.10059,4.57324-7.22412ZM26.06934,15.2381v-.00146c-.0459-.29883-.06934-.60742-.06934-.91699,0-1.75586.73926-3.3623,2-4.47754v4.47754c0,.33447.16699.64648.44531.83203l3,2c.33594.22363.77344.22363,1.10938,0l3-2c.27832-.18555.44531-.49756.44531-.83203v-4.47754c1.26074,1.11523,2,2.72168,2,4.47754,0,3.30859-2.69141,6-6,6-2.98633,0-5.48047-2.13721-5.93066-5.08154ZM29,21.74103c.92834.37103,1.93958.57861,3,.57861,1.06116,0,2.07257-.21216,3-.58899v5.85815c-.92743-.37683-1.93884-.58899-3-.58899-1.06042,0-2.07166.20758-3,.57861v-5.8374ZM36,39.47736v-4.47754c0-.33447-.16699-.64648-.44531-.83203l-3-2c-.16797-.11182-.36133-.16797-.55469-.16797s-.38672.05615-.55469.16797l-3,2c-.27832.18555-.44531.49756-.44531.83203v4.47754c-1.26172-1.11475-2-2.72119-2-4.47754,0-.30957.02344-.61816.06934-.91699v-.00146c.4502-2.94434,2.94434-5.08154,5.93066-5.08154,3.30859,0,6,2.69141,6,6,0,1.75635-.73828,3.36279-2,4.47754Z" fill="#000" stroke-width="0"/>
</svg>