<?xml version="1.0" encoding="UTF-8"?>
<svg id="Glyph" xmlns="http://www.w3.org/2000/svg" version="1.1" viewBox="0 0 64 64">
  <path d="M20,30.5v3h2v-3c0-.55225.44727-1,1-1h3v-2h-3c-.55273,0-1-.44775-1-1v-3h-2v3c0,.55225-.44727,1-1,1h-3v2h3c.55273,0,1,.44775,1,1Z" style="fill: #000; stroke-width: 0px;"/>
  <path d="M20,45.5c-1.65002,0-3,1.34998-3,3s1.34998,3,3,3,3-1.35004,3-3-1.34998-3-3-3ZM20,49.5c-.54999,0-1-.45001-1-1s.45001-1,1-1,1,.45001,1,1-.45001,1-1,1Z" style="fill: #000; stroke-width: 0px;"/>
  <path d="M7,45.5c0,1.64996,1.34998,3,3,3h5c0-2.76001,2.23999-5,5-5s5,2.23999,5,5h10v-8H7v5Z" style="fill: #000; stroke-width: 0px;"/>
  <path d="M7,21.5v17h28v-20H10c-1.65002,0-3,1.34998-3,3ZM11,35.5c-.54999,0-1-.45001-1-1s.45001-1,1-1,1,.45001,1,1-.45001,1-1,1ZM31,21.5c.54999,0,1,.45001,1,1s-.45001,1-1,1-1-.45001-1-1,.45001-1,1-1ZM31,33.5c.54999,0,1,.45001,1,1s-.45001,1-1,1-1-.45001-1-1,.45001-1,1-1ZM14,26.5c0-.54999.45001-1,1-1h3v-3c0-.54999.45001-1,1-1h4c.54999,0,1,.45001,1,1v3h3c.54999,0,1,.45001,1,1v4c0,.54999-.45001,1-1,1h-3v3c0,.54999-.45001,1-1,1h-4c-.54999,0-1-.45001-1-1v-3h-3c-.54999,0-1-.45001-1-1v-4ZM11,21.5c.54999,0,1,.45001,1,1s-.45001,1-1,1-1-.45001-1-1,.45001-1,1-1Z" style="fill: #000; stroke-width: 0px;"/>
  <path d="M43,16.5c.55273,0,1-.44775,1-1v-2c0-.55225-.44727-1-1-1s-1,.44775-1,1v2c0,.55225.44727,1,1,1Z" style="fill: #000; stroke-width: 0px;"/>
  <path d="M38.63379,16.93799c.25222.43694.9018.63447,1.36621.36621.47852-.27637.64258-.8877.36621-1.36621l-1-1.73242c-.27637-.479-.88965-.64258-1.36621-.36621-.47852.27637-.64258.8877-.36621,1.36621,0,0,.99718,1.72754,1,1.73242Z" style="fill: #000; stroke-width: 0px;"/>
  <path d="M46,17.3042c.45005.25991,1.09098.10961,1.36621-.36621l1-1.73242c.27637-.47852.1123-1.08984-.36621-1.36621-.47754-.27637-1.08984-.11279-1.36621.36621l-1,1.73242c-.27633.47845-.11235,1.08966.36621,1.36621Z" style="fill: #000; stroke-width: 0px;"/>
  <polygon points="42 27.5 42 34.5 52 34.5 52 32.74561 46.09961 27.5 42 27.5" style="fill: #000; stroke-width: 0px;"/>
  <path d="M56.65997,30.75l-9-8c-.17999-.16003-.40997-.25-.65997-.25h-1v-1c0-1.6543-1.3457-3-3-3s-3,1.3457-3,3v1h-3v26h4c0-2.76001,2.23999-5,5-5s5,2.23999,5,5h5c.54999,0,1-.45001,1-1v-16c0-.29004-.12-.56-.34003-.75ZM43,40.5h-2c-.54999,0-1-.45001-1-1s.45001-1,1-1h2c.54999,0,1,.45001,1,1s-.45001,1-1,1ZM54,35.5c0,.54999-.45001,1-1,1h-12c-.54999,0-1-.45001-1-1v-9c0-.54999.45001-1,1-1h5.47998c.23999,0,.48004.08997.66003.25l6.51996,5.79999c.22003.19.34003.46002.34003.75v3.20001Z" style="fill: #000; stroke-width: 0px;"/>
  <path d="M46,45.5c-1.65002,0-3,1.34998-3,3s1.34998,3,3,3,3-1.35004,3-3-1.34998-3-3-3ZM46,49.5c-.54999,0-1-.45001-1-1s.45001-1,1-1,1,.45001,1,1-.45001,1-1,1Z" style="fill: #000; stroke-width: 0px;"/>
</svg>