<?xml version="1.0" encoding="UTF-8"?>
<svg xmlns="http://www.w3.org/2000/svg" version="1.1" viewBox="0 0 64 64">
  <!-- Generator: Adobe Illustrator 28.7.1, SVG Export Plug-In . SVG Version: 1.2.0 Build 142)  -->
  <g>
    <g id="Glyph">
      <path d="M57,30.98581v4c0,.54999-.45001,1-1,1h-23v8.5l3.59998,2.70001c.25.19.40002.48999.40002.79999v8c0,.38-.21002.71997-.55002.89003-.34375.17171-.73766.13552-1.04995-.09004l-3.40002-2.54999-3.40002,2.54999c-.29999.22998-.70996.26001-1.04999.09003-.33997-.17004-.54999-.51001-.54999-.89001v-8c0-.31.15002-.60999.40002-.79999l3.59998-2.70001v-8.5H8c-.54999,0-1-.45001-1-1v-4c0-.54999.45001-1,1-1,1.44,0,2.84003-.29999,4.14001-.89001s2.44-1.44,3.39996-2.53003c1.27002-1.44995,2.80005-2.58997,4.55005-3.37994,1.35999-.63,2.79999-1.01001,4.28998-1.14001-.23999.59998-.38,1.25-.38,1.94v2c0,.87.22998,1.70001.62,2.40997-2.15002.58002-4.08997,1.79004-5.58002,3.48999-.70996.82001-1.52997,1.51001-2.41998,2.10004h14.38v-5h-2c-1.65002,0-3-1.35004-3-3v-2c0-1.65002,1.34998-3,3-3h2v-6h-3c-.37,0-.71002-.20001-.88-.53003-.17999-.32001-.15997-.71997.04999-1.01996l4-6c.37-.56,1.29004-.56,1.66003,0l4,6c.20996.29999.22998.69995.04999,1.01996-.16998.33002-.51001.53003-.88.53003h-3v6h2c1.65002,0,3,1.34998,3,3v2c0,1.64996-1.34998,3-3,3h-2v5h14.39001c-.89001-.59003-1.71002-1.28003-2.42999-2.10004-1.08002-1.23999-2.38-2.19995-3.87-2.88-.56-.25-1.13-.45996-1.71002-.60999.39001-.70996.62-1.53998.62-2.40997v-2c0-.69-.14001-1.34003-.38-1.94,3.41003.32001,6.58002,1.92999,8.84003,4.51996.95996,1.09003,2.09998,1.94,3.39996,2.53003s2.70001.89001,4.14001.89001c.54999,0,1,.45001,1,1Z"/>
    </g>
  </g>
</svg>