<?xml version="1.0" encoding="UTF-8"?>
<svg xmlns="http://www.w3.org/2000/svg" version="1.1" viewBox="0 0 48 48">
  <!-- Generator: Adobe Illustrator 28.7.1, SVG Export Plug-In . SVG Version: 1.2.0 Build 142)  -->
  <g>
    <g id="Glyph">
      <g>
        <path d="M24,23c3.30859,0,6-2.69141,6-6s-2.69141-6-6-6-6,2.69141-6,6,2.69141,6,6,6ZM19.74072,15.61572c.18213-.56055.6582-.95654,1.24219-1.0332l1.1499-.15234.5-1.04688c.25391-.53174.77783-.8623,1.36719-.8623s1.11328.33057,1.36719.8623l.5,1.04688,1.1499.15234c.58398.07666,1.06006.47266,1.24219,1.0332s.03027,1.16064-.39697,1.56689l-.84131.79883.21094,1.14111c.10693.57959-.12256,1.15472-.59961,1.50098-.47205.34259-1.10052.38367-1.6123.10596l-1.02002-.55322-1.01953.55322c-.51709.28076-1.13623.24072-1.61279-.10596-.47705-.34619-.70654-.92139-.59961-1.50098l.21094-1.14111-.84082-.79883c-.42773-.40625-.57959-1.00635-.39746-1.56689Z"/>
        <path d="M23.04443,17.81152l-.125.67578.60352-.32764c.14893-.08057.31299-.12109.47705-.12109s.32812.04053.47705.12109l.60352.32764-.125-.67578c-.06152-.33252.04932-.67383.29492-.90674l.49756-.47266-.68066-.09033c-.33545-.04395-.62598-.25488-.77148-.56055l-.2959-.61963-.2959.61963c-.14551.30566-.43604.5166-.77148.56055l-.68066.09033.49756.47266c.24561.23291.35645.57422.29492.90674Z"/>
        <path d="M40,23c-.55127,0-1-.44873-1-1v-1.60449c0-8.24658-6.271-15.00146-14.27637-15.37842-4.1377-.18359-8.08057,1.27051-11.07617,4.12793-2.99707,2.85938-4.64746,6.71436-4.64746,10.85498v2c0,.55127-.44873,1-1,1-.55225,0-1,.44775-1,1v6c0,.55225.44775,1,1,1h1.15289l.74652,4.47998c.72656,4.35742,4.45996,7.52002,8.87744,7.52002h10.44629c4.41748,0,8.15088-3.1626,8.87744-7.52002l.74652-4.47998h1.15289c.55225,0,1-.44775,1-1v-6c0-.55225-.44775-1-1-1ZM14,23h4.72626c-1.66711-1.46722-2.72626-3.60992-2.72626-6,0-4.41113,3.58887-8,8-8s8,3.58887,8,8c0,2.39008-1.05914,4.53278-2.72626,6h4.72626c.55225,0,1,.44775,1,1s-.44775,1-1,1H14c-.55225,0-1-.44775-1-1s.44775-1,1-1ZM36.12793,35.15088c-.56494,3.38916-3.46875,5.84912-6.90479,5.84912h-10.44629c-3.43604,0-6.33984-2.45996-6.90479-5.84912l-.69171-4.15088h.81964c.37891,0,.7251-.21387.89453-.55273l.72363-1.44727h20.76367l.72363,1.44727c.16943.33887.51562.55273.89453.55273h.81964l-.69171,4.15088Z"/>
      </g>
    </g>
  </g>
</svg>