<?xml version="1.0" encoding="UTF-8"?>
<svg xmlns="http://www.w3.org/2000/svg" version="1.1" viewBox="0 0 64 64">
  <!-- Generator: Adobe Illustrator 28.7.1, SVG Export Plug-In . SVG Version: 1.2.0 Build 142)  -->
  <g>
    <g id="Glyph">
      <g>
        <path d="M17,47c-2.21002,0-4,1.78998-4,4s1.78998,4,4,4,4-1.79004,4-4-1.78998-4-4-4ZM17,52c-.54999,0-1-.45001-1-1s.45001-1,1-1,1,.45001,1,1-.45001,1-1,1Z"/>
        <path d="M50,47c-2.21002,0-4,1.78998-4,4s1.78998,4,4,4,4-1.79004,4-4-1.78998-4-4-4ZM50,52c-.54999,0-1-.45001-1-1s.45001-1,1-1,1,.45001,1,1-.45001,1-1,1Z"/>
        <path d="M46,36c-.54999,0-1-.45001-1-1v-9h-2v24h1.09003c.46997-2.84003,2.94-5,5.90997-5s5.44,2.15997,5.90997,5h.09003c.54999,0,1-.45001,1-1v-13h-11ZM48,40h-2c-.54999,0-1-.45001-1-1s.45001-1,1-1h2c.54999,0,1,.45001,1,1s-.45001,1-1,1Z"/>
        <rect x="16" y="25" width="2" height="12"/>
        <path d="M46,21H7v2h12c.54999,0,1,.45001,1,1v14c0,.54999-.45001,1-1,1h-4c-.54999,0-1-.45001-1-1v-13h-7v16h34v-2h-10c-.54999,0-1-.45001-1-1v-14c0-.54999.45001-1,1-1h4c.54999,0,1,.45001,1,1v13h5v-13c0-.42999.28003-.81.67999-.95001l4.32001-1.44v-.60999ZM28,38c0,.54999-.45001,1-1,1h-4c-.54999,0-1-.45001-1-1v-14c0-.54999.45001-1,1-1h4c.54999,0,1,.45001,1,1v14Z"/>
        <rect x="32" y="25" width="2" height="12"/>
        <polygon points="47 26.51874 47 34 56.35156 34 47 26.51874"/>
        <path d="M7,49c0,.54999.45001,1,1,1h3.09003c.46997-2.84003,2.94-5,5.90997-5s5.44,2.15997,5.90997,5h18.09003v-7H7v6Z"/>
        <path d="M44,17c0-2.76001-2.23999-5-5-5-.78003,0-1.53998.17999-2.21997.52997-.63-2.03998-2.53003-3.52997-4.78003-3.52997-1.63,0-3.12.78998-4.04999,2.09998-.63-.13-1.27002-.13-1.90002,0-.92999-1.31-2.41998-2.09998-4.04999-2.09998-2.41998,0-4.44,1.71997-4.90002,4-1.53998-.04999-2.85999.76996-3.56995,2.03998-.18005-.02997-.35004-.03998-.53003-.03998-2.21002,0-4,1.78998-4,4h34.58002c.26996-.62.41998-1.29999.41998-2ZM20,17c-.54999,0-1-.45001-1-1s.45001-1,1-1,1,.45001,1,1-.45001,1-1,1ZM22,14c-.54999,0-1-.45001-1-1s.45001-1,1-1,1,.45001,1,1-.45001,1-1,1ZM25,16c-.54999,0-1-.45001-1-1s.45001-1,1-1,1,.45001,1,1-.45001,1-1,1ZM29,16c-.54999,0-1-.45001-1-1s.45001-1,1-1,1,.45001,1,1-.45001,1-1,1ZM31,13c0-.54999.45001-1,1-1s1,.45001,1,1-.45001,1-1,1-1-.45001-1-1ZM33,17c-.54999,0-1-.45001-1-1s.45001-1,1-1,1,.45001,1,1-.45001,1-1,1ZM39,17c-.54999,0-1-.45001-1-1s.45001-1,1-1,1,.45001,1,1-.45001,1-1,1Z"/>
        <rect x="24" y="25" width="2" height="12"/>
      </g>
    </g>
  </g>
</svg>