<?xml version="1.0" encoding="UTF-8"?>
<svg xmlns="http://www.w3.org/2000/svg" version="1.1" viewBox="0 0 64 64">
  <!-- Generator: Adobe Illustrator 28.7.1, SVG Export Plug-In . SVG Version: 1.2.0 Build 142)  -->
  <g>
    <g id="Glyph">
      <g>
        <path d="M53.5,28c1.6543,0,3-1.3457,3-3,0-1.1601-.66876-2.15704-1.6347-2.65601-.00159-1.06006-.23517-2.01855-.7193-2.84399-1.55029-2.68457-5.32422-3.78516-10.61426-3.10059-.73022.09442-1.48352.23065-2.24762.38837-.64276-1.93939-1.41241-3.66632-2.29602-5.11365.323-.47852.5119-1.05463.5119-1.67413,0-1.6543-1.3457-3-3-3-.62769,0-1.20978.19513-1.69196.526-.74658-.34723-1.5199-.526-2.30804-.526-3.63489,0-6.80432,3.81549-8.79572,9.81635-1.51843-.31525-2.96136-.50525-4.31128-.56793-.33594-1.28943-1.49976-2.24841-2.89301-2.24841-1.6543,0-3,1.3457-3,3,0,.05817.01385.11255.01715.16992-1.17761.54944-2.08173,1.32214-2.66217,2.3291-.80518,1.38965-.95264,3.07227-.4375,5.00098.62225,2.33044,2.20972,4.91376,4.51617,7.5-2.30646,2.58624-3.89392,5.16956-4.51617,7.5-.51514,1.92871-.36768,3.61133.43652,5,1.24951,2.16406,3.94092,3.29883,7.71094,3.29883.90723,0,1.87695-.06543,2.90332-.19824.72968-.09436,1.48248-.23047,2.24603-.388,1.99194,5.98395,5.15674,9.78741,8.78571,9.78741,1.56891,0,3.09717-.71173,4.45508-2.05505.17725.03278.35834.05505.54492.05505,1.6543,0,3-1.3457,3-3,0-.59662-.17975-1.14996-.48114-1.61761.46222-.98083.89026-2.03143,1.26648-3.16986.76367.15759,1.5166.29364,2.2464.38806,1.02686.13281,1.99609.19824,2.90332.19824,3.76953,0,6.46143-1.13477,7.70996-3.29785.80518-1.38965.95264-3.07227.4375-5.00098-.62213-2.3299-2.20911-4.91266-4.51471-7.49829,1.211-1.35754,2.22345-2.71692,3.00409-4.04498.14105.02045.28149.04327.4281.04327ZM43.78809,18.38281c4.37646-.56934,7.521.2041,8.62891,2.12305.26361.44904.40546.97736.44189,1.56677-1.34662.29486-2.35889,1.49353-2.35889,2.92737,0,.78296.30841,1.49066.80127,2.02539-.68579,1.15503-1.56415,2.33862-2.60999,3.52539-1.59753-1.60443-3.45581-3.18958-5.51733-4.69989-.27423-2.54352-.71637-4.95258-1.30933-7.1463.65411-.13092,1.29718-.24078,1.92346-.32178ZM37,39.79395c-1.49487.86334-3.00128,1.63678-4.5,2.33014-1.49872-.69336-3.00513-1.4668-4.5-2.33014-1.49493-.86322-2.92743-1.78467-4.2793-2.74274-.14227-1.604-.2207-3.28912-.2207-5.05121s.07843-3.4472.2207-5.05121c1.35187-.95807,2.78436-1.87952,4.2793-2.74274,1.49292-.86224,2.99744-1.63489,4.4942-2.32751,1.50403.69385,3.01453,1.46533,4.5058,2.32751,1.48895.8598,2.91571,1.77747,4.26282,2.73145.15289,1.64868.23718,3.34369.23718,5.0625,0,1.72333-.07953,3.41742-.22882,5.0611-1.34906.95142-2.7757,1.86957-4.27118,2.73285ZM40.96661,39.68884c-.2608,1.82086-.62323,3.54077-1.06165,5.14972-1.61066-.42395-3.28107-.99023-4.97729-1.67017,1.02661-.51428,2.05292-1.05328,3.07233-1.64203,1.01965-.58862,2.00775-1.20435,2.96661-1.83752ZM30.07233,43.1684c-1.70227.68237-3.37872,1.25073-4.99475,1.67517-.42847-1.57001-.78424-3.29321-1.04858-5.15668.95813.633,1.94824,1.24884,2.97101,1.83948,1.01941.58875,2.04572,1.12775,3.07233,1.64203ZM21.60303,35.461c-1.43274-1.1308-2.75049-2.29315-3.91223-3.461,1.16174-1.16785,2.47949-2.3302,3.91223-3.461-.0661,1.12988-.10303,2.28357-.10303,3.461s.03693,2.33112.10303,3.461ZM24.02899,24.31311c.2641-1.86169.61951-3.58337,1.04742-5.15222,1.60938.42474,3.28613.99036,4.9917,1.67279-1.02521.51367-2.05011,1.052-3.06812,1.63995-1.02277.59064-2.01288,1.20648-2.97101,1.83948ZM34.92456,20.83282c1.69611-.67999,3.36646-1.24634,4.97705-1.67041.43451,1.59955.78674,3.32666,1.04974,5.13855-.95197-.6283-1.93518-1.23987-2.95087-1.82635-1.01807-.58868-2.04608-1.12817-3.07593-1.64178ZM43.39545,28.53784c1.43726,1.13428,2.75922,2.30035,3.92371,3.4718-1.17017,1.1778-2.49072,2.34595-3.93573,3.48053.06891-1.14972.11658-2.31079.11658-3.49017,0-1.17047-.03741-2.32538-.10455-3.46216ZM32.5,9c.38098,0,.75226.07227,1.12122.2027-.07098.25555-.12122.51947-.12122.7973,0,1.6543,1.3457,3,3,3,.30377,0,.59131-.05884.86786-.14319.73895,1.24164,1.39404,2.72729,1.95404,4.39429-2.2041.58533-4.50366,1.41107-6.82837,2.43866-2.33203-1.02362-4.63989-1.83661-6.84406-2.42065,1.75922-5.20599,4.35327-8.2691,6.85052-8.2691ZM12.58643,20.49902c.35992-.62329.93365-1.12122,1.69904-1.49274.54926.60577,1.33429.99371,2.21454.99371,1.21295,0,2.25439-.72681,2.72675-1.76489,1.21869.04395,2.5249.20258,3.90747.48077-.58856,2.16986-1.03479,4.56848-1.31061,7.13654-2.05457,1.50555-3.90717,3.08533-5.50092,4.68445-2.03302-2.29865-3.44086-4.5611-3.9726-6.55249-.37354-1.39746-.29395-2.56934.23633-3.48535ZM21.21191,45.61719c-4.37988.56836-7.52148-.20508-8.62646-2.11816-.5293-.91406-.60889-2.08594-.23535-3.4834.53174-1.99139,1.93958-4.25385,3.9726-6.55249,1.59375,1.59912,3.44635,3.17889,5.50092,4.68445.27631,2.57239.72357,4.97473,1.3136,7.14746-.65472.13104-1.2984.24109-1.92529.32214ZM38.38367,49.14807c-.28119-.08746-.5741-.14807-.88367-.14807-1.6543,0-3,1.3457-3,3,0,.71167.2594,1.35748.67493,1.87238-.86633.74561-1.76276,1.12762-2.67493,1.12762-2.49353,0-5.0838-3.05334-6.8429-8.24506,2.20837-.58508,4.51306-1.41229,6.8429-2.44177,2.32428,1.02704,4.62323,1.85236,6.82684,2.43719-.28717.85016-.60468,1.64453-.94318,2.39771ZM52.6499,40.01562c.37354,1.39746.29395,2.56934-.23633,3.48438-1.10352,1.91211-4.24707,2.68555-8.62549,2.11719-.63-.08148-1.27722-.1925-1.93536-.32446.59259-2.1944,1.03088-4.59552,1.30554-7.12378,2.05786-1.50537,3.91748-3.09229,5.52271-4.7016,2.03101,2.29712,3.4375,4.55811,3.96893,6.54828Z"/>
        <path d="M34.5,28c-.17676,0-.35303.01172-.52832.03613-.69629-1.23438-2.01416-2.03613-3.47168-2.03613-2.20557,0-4,1.79395-4,4,0,.70508.19043,1.39355.54541,2-.35498.60645-.54541,1.29492-.54541,2,0,2.20605,1.79443,4,4,4,1.45752,0,2.77539-.80176,3.47168-2.03613.17529.02441.35156.03613.52832.03613,2.20557,0,4-1.79395,4-4s-1.79443-4-4-4Z"/>
        <circle cx="45.5" cy="52" r="3"/>
        <path d="M12.5,51c-.33838,0-.67676.06055-1,.17773-.32324-.11719-.66162-.17773-1-.17773-1.6543,0-3,1.3457-3,3s1.3457,3,3,3c.33838,0,.67676-.06055,1-.17773.32324.11719.66162.17773,1,.17773,1.6543,0,3-1.3457,3-3s-1.3457-3-3-3Z"/>
        <circle cx="20.5" cy="52" r="3"/>
      </g>
    </g>
  </g>
</svg>