<?xml version="1.0" encoding="UTF-8"?>
<svg id="Glyph" xmlns="http://www.w3.org/2000/svg" version="1.1" viewBox="0 0 48 48">
  <path d="M6,16c.55273,0,1-.44775,1-1V7h8c.55273,0,1-.44775,1-1s-.44727-1-1-1H6c-.55273,0-1,.44775-1,1v9c0,.55225.44727,1,1,1Z" fill="#000" stroke-width="0"/>
  <path d="M42,5h-9c-.55273,0-1,.44775-1,1s.44727,1,1,1h8v8c0,.55225.44727,1,1,1s1-.44775,1-1V6c0-.55225-.44727-1-1-1Z" fill="#000" stroke-width="0"/>
  <path d="M42,32c-.55273,0-1,.44775-1,1v8h-8c-.55273,0-1,.44775-1,1s.44727,1,1,1h9c.55273,0,1-.44775,1-1v-9c0-.55225-.44727-1-1-1Z" fill="#000" stroke-width="0"/>
  <path d="M15,41H7v-8c0-.55225-.44727-1-1-1s-1,.44775-1,1v9c0,.55225.44727,1,1,1h9c.55273,0,1-.44775,1-1s-.44727-1-1-1Z" fill="#000" stroke-width="0"/>
  <path d="M38,9H10c-.55273,0-1,.44775-1,1s.44727,1,1,1h28c.55273,0,1-.44775,1-1s-.44727-1-1-1Z" fill="#000" stroke-width="0"/>
  <path d="M10,37c-.55273,0-1,.44775-1,1s.44727,1,1,1h28c.55273,0,1-.44775,1-1s-.44727-1-1-1H10Z" fill="#000" stroke-width="0"/>
  <path d="M39,17c0-1.6543-1.3457-3-3-3H12c-1.6543,0-3,1.3457-3,3v14c0,1.6543,1.3457,3,3,3h24c1.6543,0,3-1.3457,3-3v-14ZM14,30c-.55231,0-1-.44775-1-1,0-.55231.44769-1,1-1s1,.44769,1,1c0,.55225-.44769,1-1,1ZM15,25c0,.55225-.44727,1-1,1s-1-.44775-1-1v-6c0-.55225.44727-1,1-1s1,.44775,1,1v6ZM19,29c0,.55225-.44727,1-1,1s-1-.44775-1-1v-10c0-.55225.44727-1,1-1s1,.44775,1,1v10ZM22,30c-.55231,0-1-.44775-1-1,0-.55231.44769-1,1-1s1,.44769,1,1c0,.55225-.44769,1-1,1ZM23,25c0,.55225-.44727,1-1,1s-1-.44775-1-1v-6c0-.55225.44727-1,1-1s1,.44775,1,1v6ZM27,29c0,.55225-.44727,1-1,1s-1-.44775-1-1v-10c0-.55225.44727-1,1-1s1,.44775,1,1v10ZM30,30c-.55231,0-1-.44775-1-1,0-.55231.44769-1,1-1s1,.44769,1,1c0,.55225-.44769,1-1,1ZM31,25c0,.55225-.44727,1-1,1s-1-.44775-1-1v-6c0-.55225.44727-1,1-1s1,.44775,1,1v6ZM35,29c0,.55225-.44727,1-1,1s-1-.44775-1-1v-10c0-.55225.44727-1,1-1s1,.44775,1,1v10Z" fill="#000" stroke-width="0"/>
</svg>