<?xml version="1.0" encoding="UTF-8"?>
<svg id="Glyph" xmlns="http://www.w3.org/2000/svg" version="1.1" viewBox="0 0 48 48">
  <rect x="21" y="33" width="6" height="10" fill="#000" stroke-width="0"/>
  <rect x="13" y="29" width="2" height="4" fill="#000" stroke-width="0"/>
  <path d="M5,40v2c0,.54999.45001,1,1,1h13v-4H6c-.55231,0-1,.44769-1,1Z" fill="#000" stroke-width="0"/>
  <path d="M42,39h-13v4h13c.54999,0,1-.45001,1-1v-2c0-.55231-.44769-1-1-1Z" fill="#000" stroke-width="0"/>
  <path d="M29,37h12.87l-1.71997-12H7.84998l-1.71997,12h12.87v-5c0-.54999.45001-1,1-1h8c.54999,0,1,.45001,1,1v5ZM17,34c0,.54999-.45001,1-1,1h-4c-.54999,0-1-.45001-1-1v-6c0-.54999.45001-1,1-1h4c.54999,0,1,.45001,1,1v6ZM31,28c0-.54999.45001-1,1-1h4c.54999,0,1,.45001,1,1v6c0,.54999-.45001,1-1,1h-4c-.54999,0-1-.45001-1-1v-6Z" fill="#000" stroke-width="0"/>
  <path d="M31.59003,15h-6.59003v-4h4c.34998,0,.66998-.17999.84998-.47003.18005-.29999.20001-.66998.04004-.97998l-.77002-1.54999.77002-1.54999c.15997-.31.14001-.68005-.04004-.98004-.17999-.28998-.5-.46997-.84998-.46997h-5c-.54999,0-1,.45001-1,1v9h-6.59003l7.59003,7.58997,7.59003-7.58997Z" fill="#000" stroke-width="0"/>
  <polygon points="39.4538 23 33.36859 16.04547 26.41406 23 39.4538 23" fill="#000" stroke-width="0"/>
  <polygon points="14.63141 16.04547 8.5462 23 21.58594 23 14.63141 16.04547" fill="#000" stroke-width="0"/>
  <rect x="33" y="29" width="2" height="4" fill="#000" stroke-width="0"/>
</svg>