<?xml version="1.0" encoding="UTF-8"?>
<svg xmlns="http://www.w3.org/2000/svg" version="1.1" viewBox="0 0 64 64">
  <!-- Generator: Adobe Illustrator 28.7.1, SVG Export Plug-In . SVG Version: 1.2.0 Build 142)  -->
  <g>
    <g id="Glyph">
      <g>
        <path d="M31,31v-11.04376c-5.89471-.21954-11.59943-2.34918-16.18121-6.09119-4.58374,4.34485-7.52673,10.3999-7.7934,17.13495h23.97461Z"/>
        <path d="M33,7.02539v10.93085c5.32123-.21393,10.46613-2.11511,14.64557-5.43506-4.04376-3.25446-9.1156-5.27686-14.64557-5.49579Z"/>
        <path d="M31,17.95624V7.02539c-5.52997.21893-10.60181,2.24133-14.64557,5.49579,4.17944,3.31995,9.32434,5.22113,14.64557,5.43506Z"/>
        <path d="M33,19.95624v11.04376h23.97461c-.26666-6.73505-3.20966-12.7901-7.7934-17.13495-4.58179,3.742-10.2865,5.87164-16.18121,6.09119ZM51.79173,28.9417c-.48912.10277-1.04228-.10839-1.17162-.742-.6709-3.2876-2.20801-6.34521-4.44531-8.84229-.36816-.41162-.33398-1.04395.07812-1.41211.40918-.36816,1.04199-.33447,1.41211.07715,2.4736,2.76168,4.17281,6.14249,4.91403,9.77769.12685.62209-.29822,1.03878-.78734,1.14155Z"/>
        <path d="M33,33v11.04376c5.89471.21954,11.59943,2.34918,16.18121,6.09119,4.58374-4.34485,7.52673-10.3999,7.7934-17.13495h-23.97461Z"/>
        <path d="M33,46.04376v10.93085c5.52997-.21893,10.60181-2.24133,14.64557-5.49579-4.17944-3.31995-9.32434-5.22113-14.64557-5.43506Z"/>
        <path d="M31,44.04376v-11.04376H7.02539c.26666,6.73505,3.20966,12.7901,7.7934,17.13495,4.58179-3.742,10.2865-5.87164,16.18121-6.09119Z"/>
        <path d="M31,56.97461v-10.93085c-5.32123.21393-10.46613,2.11511-14.64557,5.43506,4.04376,3.25446,9.1156,5.27686,14.64557,5.49579Z"/>
      </g>
    </g>
  </g>
</svg>