<?xml version="1.0" encoding="UTF-8"?>
<svg id="Glyph" xmlns="http://www.w3.org/2000/svg" version="1.1" viewBox="0 0 64 64">
  <path d="M40,49v1c0,.54999-.45001,1-1,1h-10c-.54999,0-1-.45001-1-1v-1h12Z" fill="#000" stroke-width="0"/>
  <path d="M7,16v28c0,1.64996,1.34998,3,3,3h30c1.65002,0,3-1.35004,3-3v-28H7ZM25,43c-6.62,0-12-5.38-12-12s5.38-12,12-12,12,5.38,12,12-5.38,12-12,12Z" fill="#000" stroke-width="0"/>
  <path d="M25,21c-5.51416,0-10,4.48584-10,10,0,5.51367,4.48584,10,10,10s10-4.48633,10-10c0-5.51416-4.48584-10-10-10ZM25,39c-3.30859,0-6-2.69141-6-6,0-3.02539,4.68555-8.95898,5.21973-9.62549.37988-.47363,1.18066-.47363,1.56055,0,.53418.6665,5.21973,6.6001,5.21973,9.62549,0,3.30859-2.69141,6-6,6Z" fill="#000" stroke-width="0"/>
  <path d="M21,33c0,2.20605,1.79443,4,4,4s4-1.79395,4-4c0-1.52148-2.2085-4.97168-4-7.36523-1.7915,2.39355-4,5.84375-4,7.36523Z" fill="#000" stroke-width="0"/>
  <path d="M22,49v1c0,.54999-.45001,1-1,1h-10c-.54999,0-1-.45001-1-1v-1h12Z" fill="#000" stroke-width="0"/>
  <path d="M30,53v3c0,.55273.44775,1,1,1h6c.55225,0,1-.44727,1-1v-3h-8Z" fill="#000" stroke-width="0"/>
  <path d="M57,12v10c0,3.31-2.69,6-6,6h-2V12c0-.54999.45001-1,1-1h6c.54999,0,1,.45001,1,1Z" fill="#000" stroke-width="0"/>
  <path d="M12,53v3c0,.55273.44775,1,1,1h6c.55225,0,1-.44727,1-1v-3h-8Z" fill="#000" stroke-width="0"/>
  <path d="M47,19v10c0,.54999-.45001,1-1,1h-1v-12h1c.54999,0,1,.45001,1,1Z" fill="#000" stroke-width="0"/>
  <path d="M43,14v-4c0-1.6543-1.3457-3-3-3H10c-1.6543,0-3,1.3457-3,3v4h36ZM38,10c.55231,0,1,.44769,1,1,0,.55225-.44769,1-1,1s-1-.44775-1-1c0-.55231.44769-1,1-1ZM34,10c.55231,0,1,.44769,1,1,0,.55225-.44769,1-1,1s-1-.44775-1-1c0-.55231.44769-1,1-1Z" fill="#000" stroke-width="0"/>
</svg>