<?xml version="1.0" encoding="UTF-8"?>
<svg id="Glyph" xmlns="http://www.w3.org/2000/svg" version="1.1" viewBox="0 0 64 64">
  <path d="M56,16H8c-.55225,0-1,.44775-1,1s.44775,1,1,1h48c.55273,0,1-.44775,1-1s-.44727-1-1-1Z" style="fill: #000; stroke-width: 0px;"/>
  <path d="M26,42h12v-12h-12v12ZM34.70703,36.29297c.39062.39062.39062,1.02344,0,1.41406l-2,2c-.19531.19531-.45117.29297-.70703.29297s-.51172-.09766-.70703-.29297c-.39062-.39062-.39062-1.02344,0-1.41406l2-2c.39062-.39062,1.02344-.39062,1.41406,0ZM29.29297,34.29297l2-2c.39062-.39062,1.02344-.39062,1.41406,0s.39062,1.02344,0,1.41406l-2,2c-.19531.19531-.45117.29297-.70703.29297s-.51172-.09766-.70703-.29297c-.39062-.39062-.39062-1.02344,0-1.41406Z" style="fill: #000; stroke-width: 0px;"/>
  <rect x="44" y="30" width="6" height="12" style="fill: #000; stroke-width: 0px;"/>
  <path d="M47,24h-14v-2h5c1.29999,0,2.40997-.84003,2.82001-2h-17.64001c.41003,1.15997,1.52002,2,2.82001,2h5v2h-14c-1.6543,0-3,1.3457-3,3v1h7c.55225,0,1,.44775,1,1v14c0,.55273-.44775,1-1,1h-7v1c0,1.6543,1.3457,3,3,3h30c1.6543,0,3-1.3457,3-3v-1h-7c-.55273,0-1-.44727-1-1v-14c0-.55225.44727-1,1-1h7v-1c0-1.6543-1.3457-3-3-3ZM40,43c0,.55273-.44727,1-1,1h-14c-.55225,0-1-.44727-1-1v-14c0-.55225.44775-1,1-1h14c.55273,0,1,.44775,1,1v14Z" style="fill: #000; stroke-width: 0px;"/>
  <rect x="14" y="30" width="6" height="12" style="fill: #000; stroke-width: 0px;"/>
</svg>