<?xml version="1.0" encoding="utf-8"?>
<!-- Generator: Adobe Illustrator 28.3.0, SVG Export Plug-In . SVG Version: 6.00 Build 0)  -->
<svg version="1.1" id="Glyph" xmlns="http://www.w3.org/2000/svg" xmlns:xlink="http://www.w3.org/1999/xlink" x="0px" y="0px"
	 viewBox="0 0 48 48" enable-background="new 0 0 48 48" xml:space="preserve">
<g>
	<path d="M38,12.97377v-1.99344c0-1.09643-0.90002-1.99344-2-1.99344h-0.17999C35.40997,10.14305,34.29999,10.98033,33,10.98033h-2
		c-1.29999,0-2.40997-0.83727-2.82001-1.99344h-2.35999C25.40997,10.14305,24.29999,10.98033,23,10.98033h-2
		c-1.29999,0-2.40997-0.83727-2.82001-1.99344h-2.35999C15.40997,10.14305,14.29999,10.98033,13,10.98033h-2
		c-1.29999,0-2.40997-0.83727-2.82001-1.99344H8c-1.09998,0-2,0.89701-2,1.99344v25.91475c0,1.09637,0.90002,1.99344,2,1.99344h2
		V16.96066c0-2.20278,1.78998-3.98689,4-3.98689H38z"/>
	<path d="M11,8.98689h2c0.55231,0,1-0.44629,1-0.99672V5.99672C14,5.44623,13.55231,5,13,5h-2c-0.55231,0-1,0.44623-1,0.99672
		v1.99344C10,8.5406,10.44769,8.98689,11,8.98689z"/>
	<path d="M21,8.98689h2c0.55231,0,1-0.44629,1-0.99672V5.99672C24,5.44623,23.55231,5,23,5h-2c-0.55231,0-1,0.44623-1,0.99672
		v1.99344C20,8.5406,20.44769,8.98689,21,8.98689z"/>
	<path d="M31,8.98689h2c0.55231,0,1-0.44629,1-0.99672V5.99672C34,5.44623,33.55231,5,33,5h-2c-0.55231,0-1,0.44623-1,0.99672
		v1.99344C30,8.5406,30.44769,8.98689,31,8.98689z"/>
	<path d="M40,14.96721H14c-1.10455,0-2,0.89245-2,1.99344v24.0459C12,42.10749,12.89545,43,14,43h26c1.10455,0,2-0.89251,2-1.99344
		v-24.0459C42,15.85966,41.10455,14.96721,40,14.96721z M20,18.01967c0.55231,0,1,0.44622,1,0.99672
		c0,0.55044-0.44769,0.99672-1,0.99672s-1-0.44629-1-0.99672C19,18.4659,19.44769,18.01967,20,18.01967z M16,18.01967
		c0.55231,0,1,0.44622,1,0.99672c0,0.55044-0.44769,0.99672-1,0.99672s-1-0.44629-1-0.99672
		C15,18.4659,15.44769,18.01967,16,18.01967z M16,29.98033h4c0.55225,0,1,0.4458,1,0.99672s-0.44775,0.99672-1,0.99672h-4
		c-0.55225,0-1-0.4458-1-0.99672S15.44775,29.98033,16,29.98033z M22,39.94754h-6c-0.55225,0-1-0.4458-1-0.99672
		s0.44775-0.99672,1-0.99672h6c0.55225,0,1,0.4458,1,0.99672S22.55225,39.94754,22,39.94754z M22,35.96066h-6
		c-0.55225,0-1-0.4458-1-0.99672s0.44775-0.99672,1-0.99672h6c0.55225,0,1,0.4458,1,0.99672S22.55225,35.96066,22,35.96066z
		 M26,39.94754c-0.55231,0-1-0.44629-1-0.99672c0-0.5505,0.44769-0.99672,1-0.99672s1,0.44622,1,0.99672
		C27,39.50126,26.55231,39.94754,26,39.94754z M26,34.96394c-0.55231,0-1-0.44629-1-0.99672c0-0.5505,0.44769-0.99672,1-0.99672
		s1,0.44622,1,0.99672C27,34.51765,26.55231,34.96394,26,34.96394z M30,39.94754c-0.55231,0-1-0.44629-1-0.99672
		c0-0.5505,0.44769-0.99672,1-0.99672s1,0.44622,1,0.99672C31,39.50126,30.55231,39.94754,30,39.94754z M30,34.96394
		c-0.55231,0-1-0.44629-1-0.99672c0-0.5505,0.44769-0.99672,1-0.99672s1,0.44622,1,0.99672
		C31,34.51765,30.55231,34.96394,30,34.96394z M34,39.94754c-0.55231,0-1-0.44629-1-0.99672c0-0.5505,0.44769-0.99672,1-0.99672
		s1,0.44622,1,0.99672C35,39.50126,34.55231,39.94754,34,39.94754z M34,34.96394c-0.55231,0-1-0.44629-1-0.99672
		c0-0.5505,0.44769-0.99672,1-0.99672s1,0.44622,1,0.99672C35,34.51765,34.55231,34.96394,34,34.96394z M38,39.94754
		c-0.55231,0-1-0.44629-1-0.99672c0-0.5505,0.44769-0.99672,1-0.99672s1,0.44622,1,0.99672
		C39,39.50126,38.55231,39.94754,38,39.94754z M38,34.96394c-0.55231,0-1-0.44629-1-0.99672c0-0.5505,0.44769-0.99672,1-0.99672
		s1,0.44622,1,0.99672C39,34.51765,38.55231,34.96394,38,34.96394z M35,30.97705H25c-2.20557,0-4-1.78806-4-3.98689
		c0-2.19834,1.79443-3.98689,4-3.98689c0-2.7478,2.24316-4.98361,5-4.98361s5,2.23581,5,4.98361c2.20605,0,4,1.78855,4,3.98689
		C39,29.18899,37.20605,30.97705,35,30.97705z"/>
	<path d="M35,24.99672c-0.27432,0-0.54377,0.05982-0.80248,0.17801c-0.76974,0.35164-1.63179-0.40739-1.36842-1.21366
		C32.94531,23.60336,33,23.29918,33,23.00328c0-1.64887-1.3457-2.99016-3-2.99016s-3,1.34129-3,2.99016
		c0,0.29584,0.05466,0.59994,0.17082,0.95755c0.26394,0.81258-0.5922,1.57119-1.36809,1.21402
		C25.54395,25.05658,25.27441,24.99672,25,24.99672c-1.10303,0-2,0.89403-2,1.99344c0,1.09892,0.89697,1.99344,2,1.99344h10
		c1.10254,0,2-0.89452,2-1.99344C37,25.89075,36.10254,24.99672,35,24.99672z"/>
</g>
</svg>
