<?xml version="1.0" encoding="UTF-8"?>
<svg id="Glyph" xmlns="http://www.w3.org/2000/svg" version="1.1" viewBox="0 0 64 64">
  <path d="M21,14c0-.55127-.44873-1-1-1h-1v2h1c.55127,0,1-.44873,1-1Z" style="fill: #000; stroke-width: 0px;"/>
  <path d="M16,25h32c1.65002,0,3-1.35004,3-3v-12c0-1.65002-1.34998-3-3-3H16c-1.65002,0-3,1.34998-3,3v12c0,1.64996,1.34998,3,3,3ZM42,11h4c.54999,0,1,.45001,1,1s-.45001,1-1,1h-1v7c0,.54999-.45001,1-1,1s-1-.45001-1-1v-7h-1c-.54999,0-1-.45001-1-1s.45001-1,1-1ZM33,12c0-.46002.32001-.87.77002-.97003.45996-.10999.91998.11005,1.12.52002l2.10999,4.21002v-3.76001c0-.54999.45001-1,1-1s1,.45001,1,1v8c0,1.02997-1.42999,1.37-1.89001.45001l-2.10999-4.21002v3.76001c0,.54999-.45001,1-1,1s-1-.45001-1-1v-8ZM25,12c0-.54999.45001-1,1-1h4c.54999,0,1,.45001,1,1s-.45001,1-1,1h-3v2h3c.54999,0,1,.45001,1,1s-.45001,1-1,1h-3v2h3c.54999,0,1,.45001,1,1s-.45001,1-1,1h-4c-.54999,0-1-.45001-1-1v-8ZM17,12c0-.54999.45001-1,1-1h2c1.65002,0,3,1.34998,3,3,0,1.52997-1.15002,2.76996-2.62,2.95996l2.33002,2.33002c.38995.39001.38995,1.03003,0,1.41998-.37.36005-1.03003.38-1.42004,0l-2.28998-2.29999v1.59003c0,.54999-.45001,1-1,1s-1-.45001-1-1v-8Z" style="fill: #000; stroke-width: 0px;"/>
  <path d="M21,45h2v-1c0-.55127-.44873-1-1-1h-2v1c0,.55127.44873,1,1,1Z" style="fill: #000; stroke-width: 0px;"/>
  <path d="M44,44v-1h-2c-.55127,0-1,.44873-1,1v1h2c.55127,0,1-.44873,1-1Z" style="fill: #000; stroke-width: 0px;"/>
  <path d="M15,51h34c1.65002,0,3-1.35004,3-3v-6c0-.20001-.06-.39001-.16998-.54999l-2.97003-4.45001H15.14001l-2.97003,4.45001c-.10999.15997-.16998.34998-.16998.54999v6c0,1.64996,1.34998,3,3,3ZM39,44c0-1.65002,1.34998-3,3-3h3c.54999,0,1,.45001,1,1v2c0,1.64996-1.34998,3-3,3h-3c-.54999,0-1-.45001-1-1v-2ZM28,41h8c.54999,0,1,.45001,1,1s-.45001,1-1,1h-8c-.54999,0-1-.45001-1-1s.45001-1,1-1ZM28,45h8c.54999,0,1,.45001,1,1s-.45001,1-1,1h-8c-.54999,0-1-.45001-1-1s.45001-1,1-1ZM18,42c0-.54999.45001-1,1-1h3c1.65002,0,3,1.34998,3,3v2c0,.54999-.45001,1-1,1h-3c-1.65002,0-3-1.35004-3-3v-2Z" style="fill: #000; stroke-width: 0px;"/>
  <path d="M12.76001,33.96997l1.70001.42004,3.20996-5.13c-.17999-.16003-.40997-.26001-.66998-.26001h-4c-.54999,0-1,.45001-1,1v3c0,.45996.31.85999.76001.96997Z" style="fill: #000; stroke-width: 0px;"/>
  <path d="M47,29c-.26001,0-.48999.09998-.66998.26001l3.20996,5.13,1.70001-.42004c.45001-.10999.76001-.51001.76001-.96997v-3c0-.54999-.45001-1-1-1h-4Z" style="fill: #000; stroke-width: 0px;"/>
  <path d="M56,55h-7v-2h-8v2h-18v-2h-8v2h-7c-.54999,0-1,.45001-1,1s.45001,1,1,1h48c.54999,0,1-.45001,1-1s-.45001-1-1-1Z" style="fill: #000; stroke-width: 0px;"/>
  <path d="M42,27h-20c-.34003,0-.66998.17999-.84998.46997l-4.71002,7.53003h31.12l-4.71002-7.53003c-.17999-.28998-.50995-.46997-.84998-.46997Z" style="fill: #000; stroke-width: 0px;"/>
</svg>