<?xml version="1.0" encoding="UTF-8"?>
<svg xmlns="http://www.w3.org/2000/svg" version="1.1" viewBox="0 0 64 64">
  <!-- Generator: Adobe Illustrator 28.7.1, SVG Export Plug-In . SVG Version: 1.2.0 Build 142)  -->
  <g>
    <g id="Glyph">
      <g>
        <circle cx="18" cy="53" r="4"/>
        <circle cx="52" cy="25.5" r="4"/>
        <path d="M49,30.69v5.81c0,.54999-.45001,1-1,1h-11.90997c-1.01001,0-1.94.5-2.49005,1.32996l-7.53998,11.23004c-.17999.26996-.48999.44-.83002.44h-2.03998c.52002.88.81,1.89996.81,3,0,1.09998-.28998,2.12-.81,3h4.16998c1.01001,0,1.94-.5,2.48999-1.33002l7.54004-11.22998c.17999-.27002.48999-.44.82996-.44h13.78003c1.65002,0,3-1.35004,3-3v-9.81c-.88.51996-1.90002.81-3,.81s-2.12-.29004-3-.81Z"/>
        <path d="M51.3999,19.2998c.17773.13379.38916.2002.6001.2002s.42236-.06641.6001-.2002c.4502-.33789,4.3999-3.39844,4.3999-6.7998,0-2.75684-2.24316-5-5-5s-5,2.24316-5,5c0,3.40137,3.94971,6.46191,4.3999,6.7998ZM52,11.5c.55231,0,1,.44769,1,1,0,.55225-.44769,1-1,1s-1-.44775-1-1c0-.55231.44769-1,1-1Z"/>
        <circle cx="18" cy="30.5" r="2"/>
        <path d="M18,47.5c.27344,0,.53467-.1123.72363-.30957.41943-.43945,10.27637-10.83496,10.27637-16.69043,0-6.06543-4.93457-11-11-11s-11,4.93457-11,11c0,5.85547,9.85693,16.25098,10.27637,16.69043.18896.19727.4502.30957.72363.30957ZM14.14197,31.5h-2.14197c-.55225,0-1-.44727-1-1s.44775-1,1-1h2.14197c.36365-1.39899,1.45923-2.49438,2.85803-2.85797v-2.14203c0-.55273.44775-1,1-1s1,.44727,1,1v2.14203c1.3988.36359,2.49438,1.45898,2.85803,2.85797h2.14197c.55225,0,1,.44727,1,1s-.44775,1-1,1h-2.14197c-.36365,1.39899-1.45923,2.49438-2.85803,2.85797v2.14203c0,.55273-.44775,1-1,1s-1-.44727-1-1v-2.14203c-1.3988-.36359-2.49438-1.45898-2.85803-2.85797Z"/>
        <path d="M29,14.5c4.9624,0,9,4.03711,9,9,0,.55273.44775,1,1,1s1-.44727,1-1c0-6.06543-4.93457-11-11-11-.55225,0-1,.44727-1,1s.44775,1,1,1Z"/>
        <path d="M29,18.5c2.75684,0,5,2.24316,5,5,0,.55273.44775,1,1,1s1-.44727,1-1c0-3.85938-3.14014-7-7-7-.55225,0-1,.44727-1,1s.44775,1,1,1Z"/>
        <path d="M29,22.5c.55127,0,1,.44824,1,1,0,.55273.44775,1,1,1s1-.44727,1-1c0-1.6543-1.3457-3-3-3-.55225,0-1,.44727-1,1s.44775,1,1,1Z"/>
      </g>
    </g>
  </g>
</svg>