<?xml version="1.0" encoding="UTF-8"?>
<svg xmlns="http://www.w3.org/2000/svg" version="1.1" viewBox="0 0 64 64">
  <!-- Generator: Adobe Illustrator 28.7.1, SVG Export Plug-In . SVG Version: 1.2.0 Build 142)  -->
  <g>
    <g id="Glyph">
      <g>
        <path d="M16,49c-2.21002,0-4,1.78998-4,4s1.78998,4,4,4,4-1.79004,4-4-1.78998-4-4-4ZM16,54c-.54999,0-1-.45001-1-1s.45001-1,1-1,1,.45001,1,1-.45001,1-1,1Z"/>
        <path d="M48,49c-2.21002,0-4,1.78998-4,4s1.78998,4,4,4,4-1.79004,4-4-1.78998-4-4-4ZM48,54c-.54999,0-1-.45001-1-1s.45001-1,1-1,1,.45001,1,1-.45001,1-1,1Z"/>
        <rect x="33" y="34" width="4" height="6"/>
        <rect x="27" y="34" width="4" height="6"/>
        <polygon points="45 41.19794 45 34 43 34 43 40.34082 45 41.19794"/>
        <path d="M56.01971,34h-9.01971v8.05499l2.20508.94501h7.79492v-4c0-.06592-.00684-.13135-.01953-.19629l-.96075-4.80371Z"/>
        <rect x="27" y="42" width="10" height="10"/>
        <rect x="18" y="34" width="3" height="6"/>
        <rect x="13" y="34" width="3" height="6"/>
        <path d="M48.60999,44.91998l-7-3c-.37-.15997-.60999-.52002-.60999-.91998v-8c0-.54999.45001-1,1-1h13.62l-.64001-3.20001c-.08997-.46002-.5-.79999-.97998-.79999h-3v-7.08051c1.59064-.23041,3.01074-.992,4.06915-2.10608-1.4198-1.1756-3.19135-1.81342-5.06915-1.81342-1.87921,0-3.65186.63892-5.06958,1.81293,1.05847,1.11438,2.4787,1.8761,4.06958,2.10657v7.08051h-16v-7.08051c1.59064-.23041,3.01074-.992,4.06915-2.10608-1.4198-1.1756-3.19135-1.81342-5.06915-1.81342-1.87921,0-3.65186.63892-5.06958,1.81293,1.05847,1.11438,2.4787,1.8761,4.06958,2.10657v7.08051H15v-7.08051c1.59064-.23041,3.01074-.992,4.06915-2.10608-1.4198-1.1756-3.19135-1.81342-5.06915-1.81342-1.87921,0-3.65186.63892-5.06958,1.81293,1.05847,1.11438,2.4787,1.8761,4.06958,2.10657v7.08051h-3c-1.65002,0-3,1.34998-3,3v18c0,1.64996,1.34998,3,3,3h.09003c.46997-2.84003,2.94-5,5.90997-5s5.44,2.15997,5.90997,5h3.09003v-19c0-.54999.45001-1,1-1h12c.54999,0,1,.45001,1,1v19h3.09003c.46997-2.84003,2.94-5,5.90997-5s5.44,2.15997,5.90997,5h2.09003c.54999,0,1-.45001,1-1v-6h-8c-.14001,0-.27002-.03003-.39001-.08002ZM23,41c0,.54999-.45001,1-1,1h-10c-.54999,0-1-.45001-1-1v-8c0-.54999.45001-1,1-1h10c.54999,0,1,.45001,1,1v8ZM44,46h-2c-.54999,0-1-.45001-1-1s.45001-1,1-1h2c.54999,0,1,.45001,1,1s-.45001,1-1,1Z"/>
        <circle cx="32" cy="14" r="1"/>
        <path d="M11.34308,15.36346c-.21198-.41101-.34308-.87-.34308-1.36346,0-1.6543,1.3457-3,3-3s3,1.3457,3,3c0,.49353-.13116.95258-.34314,1.36359,1.2995.35535,2.5105.96808,3.56958,1.81976.34515-.6723.58002-1.40839.69342-2.18335h4.16034c.1134.7746.34802,1.51038.69293,2.18243,1.05823-.85095,2.26965-1.4635,3.56995-1.81897-.21198-.41101-.34308-.87-.34308-1.36346,0-1.6543,1.3457-3,3-3s3,1.3457,3,3c0,.49353-.13116.95258-.34314,1.36359,1.2995.35535,2.5105.96808,3.56958,1.81976.34515-.6723.58002-1.40839.69342-2.18335h4.16034c.1134.7746.34802,1.51038.69293,2.18243,1.05823-.85095,2.26965-1.4635,3.56995-1.81897-.21198-.41101-.34308-.87-.34308-1.36346,0-1.6543,1.3457-3,3-3s3,1.3457,3,3c0,.49353-.13116.95258-.34314,1.36359,1.2995.35535,2.5105.96808,3.56958,1.81976.49097-.95624.77356-2.0365.77356-3.18335,0-3.85986-3.14062-7-7-7-3.51904,0-6.43225,2.6134-6.9201,6h-4.15973c-.48785-3.3866-3.40112-6-6.92017-6s-6.43225,2.6134-6.9201,6h-4.15973c-.48785-3.3866-3.40112-6-6.92017-6-3.85938,0-7,3.14014-7,7,0,1.14648.28247,2.22638.77313,3.18243,1.05823-.85095,2.26965-1.4635,3.56995-1.81897Z"/>
        <circle cx="14" cy="14" r="1"/>
        <circle cx="50" cy="14" r="1"/>
      </g>
    </g>
  </g>
</svg>