<?xml version="1.0" encoding="UTF-8"?>
<svg xmlns="http://www.w3.org/2000/svg" version="1.1" viewBox="0 0 64 64">
  <!-- Generator: Adobe Illustrator 28.7.1, SVG Export Plug-In . SVG Version: 1.2.0 Build 142)  -->
  <g>
    <g id="Glyph">
      <g>
        <rect x="15" y="29" width="34" height="2"/>
        <path d="M38,8c0-.54999-.45001-1-1-1h-10c-.54999,0-1,.45001-1,1v3h12v-3Z"/>
        <path d="M11,56c0,.55273.44727,1,1,1h40c.55273,0,1-.44727,1-1v-1H11v1Z"/>
        <path d="M14,38c-.55176,0-1,.44824-1,1v8c0,.55176.44824,1,1,1s1-.44824,1-1v-8c0-.55176-.44824-1-1-1Z"/>
        <rect x="25" y="42" width="14" height="2"/>
        <polygon points="51.61816 25 12.38184 25 11.38184 27 52.61816 27 51.61816 25"/>
        <path d="M21,48h22v-10h-22v10ZM23,41c0-.54999.45001-1,1-1h16c.54999,0,1,.45001,1,1v4c0,.54999-.45001,1-1,1h-16c-.54999,0-1-.45001-1-1v-4Z"/>
        <path d="M7,34v18c0,.55.45,1,1,1h48c.55,0,1-.45,1-1v-18c0-.55228-.44772-1-1-1H8c-.55228,0-1,.44772-1,1ZM17,47c0,1.64996-1.34998,3-3,3s-3-1.35004-3-3v-8c0-1.65002,1.34998-3,3-3s3,1.34998,3,3v8ZM45,49c0,.54999-.45001,1-1,1h-24c-.54999,0-1-.45001-1-1v-12c0-.54999.45001-1,1-1h24c.54999,0,1,.45001,1,1v12ZM53,47c0,1.64996-1.34998,3-3,3s-3-1.35004-3-3v-8c0-1.65002,1.34998-3,3-3s3,1.34998,3,3v8Z"/>
        <path d="M50,38c-.55176,0-1,.44824-1,1v8c0,.55176.44824,1,1,1s1-.44824,1-1v-8c0-.55176-.44824-1-1-1Z"/>
        <path d="M28,20.60999v2.39001h8v-2.41003c-1.26001.19-2.63.29004-4,.29004-1.39001,0-2.73999-.09003-4-.27002Z"/>
        <path d="M42,14.88c0,.78998-.46002,1.91998-2.61999,2.80999-1.0779.44415-2.23258.69646-3.38001.88001-1.25.19995-2.62.31-4,.31-1.40997,0-2.77002-.10004-4.00004-.30005-1.14703-.17734-2.32122-.43548-3.38997-.89996-2.14996-.88-2.60999-2.01001-2.60999-2.79999,0-.79004.46002-1.92004,2.62-2.81.51001-.20001,1.09998.03998,1.31.54999.20001.51001-.03998,1.09998-.54999,1.31-1.14001.46002-1.38.89001-1.38.95001,0,.07995.24999.48997,1.37994.94992.84452.34376,1.72387.5526,2.62006.71005v-3.53998h8s0,3.53998.00003,3.53997c.88628-.14767,1.78709-.35699,2.61996-.70001,1.14001-.46997,1.38-.89996,1.38-.95996s-.23999-.48999-1.38-.95001c-.51001-.21002-.75-.79999-.54999-1.31.21002-.51001.79999-.75,1.31-.54999,2.15997.88995,2.62,2.01996,2.62,2.81Z"/>
      </g>
    </g>
  </g>
</svg>