<?xml version="1.0" encoding="UTF-8"?>
<svg id="Glyph" xmlns="http://www.w3.org/2000/svg" version="1.1" viewBox="0 0 48 48">
  <path d="M32,14.87866c2.75714,0,5-2.24286,5-5s-2.24286-5-5-5-5,2.2428-5,5,2.24286,5,5,5ZM32,8.87866c.55176,0,1,.44873,1,1s-.44824,1-1,1-1-.44873-1-1,.44824-1,1-1Z" fill="#000" stroke-width="0"/>
  <path d="M25.40997,12.22131l-2.59998,2.60999c-.25.24005-.34998.60004-.27002.93005.08002.33997.33002.60999.66003.71997l1.64001.54999.54999,1.65002c.10999.33002.39001.58002.7201.65999.34635.04333.68344-.01353.93988-.26997l2.60004-2.60004c-1.98004-.70001-3.54004-2.27002-4.24005-4.25Z" fill="#000" stroke-width="0"/>
  <path d="M34.34998,16.47131l2.60004,2.60004c.25671.25671.59369.31329.93988.26996.33008-.07996.61011-.32996.72009-.65997l.54999-1.65002,1.64001-.54999c.33002-.10999.58002-.38.66003-.71997.07996-.33002-.02002-.69-.27002-.93005l-2.59998-2.60999c-.70001,1.97998-2.26001,3.54999-4.24005,4.25Z" fill="#000" stroke-width="0"/>
  <path d="M41,25.12134h-24c-1.10455,0-2,.89539-2,2v14c0,1.10455.89545,2,2,2h24c1.10455,0,2-.89545,2-2v-14c0-1.10461-.89545-2-2-2ZM23,29.12134h12c.55273,0,1,.44775,1,1s-.44727,1-1,1h-12c-.55273,0-1-.44775-1-1s.44727-1,1-1ZM39,39.12134h-20c-.55273,0-1-.44775-1-1s.44727-1,1-1h20c.55273,0,1,.44775,1,1s-.44727,1-1,1ZM39,35.12134h-20c-.55273,0-1-.44775-1-1s.44727-1,1-1h20c.55273,0,1,.44775,1,1s-.44727,1-1,1Z" fill="#000" stroke-width="0"/>
  <polygon points="13 5.70129 5.57996 13.12134 13 13.12134 13 5.70129" fill="#000" stroke-width="0"/>
  <path d="M9,24.12134c0-.55225.44727-1,1-1h23v-6.32001c-.31.06-.60999.08002-.92999.08002l-3.60999,3.59998c-.66003.65997-1.78003,1.09003-2.71002.83002-1.03998-.28003-1.90997-.95001-2.26001-2l-.22998-.70001-.70001-.22998c-.98999-.33002-1.72998-1.14001-1.96997-2.16003-.24005-1.01001.07996-2.09998.82996-2.83002l3.58002-3.58997c.02002-1.81.72998-3.45001,1.88-4.67999h-11.88v9c0,.55225-.44727,1-1,1H5v23c0,1.64996,1.34998,3,3,3h5v-4h-3c-.55273,0-1-.44775-1-1s.44727-1,1-1h3v-2h-3c-.55273,0-1-.44775-1-1s.44727-1,1-1h3v-2h-3c-.55273,0-1-.44775-1-1s.44727-1,1-1h3c0-.73248.211-1.40967.55438-2h-3.55438c-.55273,0-1-.44775-1-1ZM10,19.12134h9c.55273,0,1,.44775,1,1s-.44727,1-1,1h-9c-.55273,0-1-.44775-1-1s.44727-1,1-1Z" fill="#000" stroke-width="0"/>
</svg>