<?xml version="1.0" encoding="UTF-8"?>
<svg xmlns="http://www.w3.org/2000/svg" version="1.1" viewBox="0 0 64 64">
  <!-- Generator: Adobe Illustrator 28.7.1, SVG Export Plug-In . SVG Version: 1.2.0 Build 142)  -->
  <g>
    <g id="Glyph">
      <path d="M51,51c-.48785,0-.94208.12811-1.34967.33557l-2.65033-3.65979v-6.82001c5.64453-.88068,10-6.13873,10-12.492,0-6.81689-5.00879-12.39062-11.25-12.62891-1.54395-5.18262-5.99707-8.73486-11.08301-8.73486-2.98633,0-5.84473,1.24512-8,3.45166-2.15625-2.20654-5.01465-3.45166-8-3.45166-6.43359,0-11.66699,5.66846-11.66699,12.63623,0,2.95068.94922,5.78857,2.68164,8.04053-.01465.23975-.01465.47217-.01465.68701,0,5.30859,3.0415,9.85455,7.33301,11.72253v7.58948l-2.65033,3.65973c-.40753-.20746-.86182-.33551-1.34967-.33551-1.6543,0-3,1.3457-3,3s1.3457,3,3,3,3-1.3457,3-3c0-.42328-.09027-.82507-.24908-1.19061l3.05865-4.22296c.12402-.17041.19043-.37598.19043-.58643v-7.2547c.75409.16644,1.53418.2547,2.33301.2547h5.66699v5.51904l-2.42529,1.93878c-.45898-.2854-.99554-.45782-1.57471-.45782-1.6543,0-3,1.3457-3,3s1.3457,3,3,3,3-1.3457,3-3c0-.34467-.07031-.67072-.1778-.97925l2.80182-2.2395c.2373-.18994.37598-.47754.37598-.78125v-6h2v10.18427c-1.1615.41412-2,1.51379-2,2.81573,0,1.6543,1.3457,3,3,3s3-1.3457,3-3c0-1.30194-.8385-2.40161-2-2.81573v-10.18427h2v6c0,.30371.13867.59131.37598.78125l2.80182,2.23956c-.10748.30853-.1778.63452-.1778.97919,0,1.6543,1.3457,3,3,3s3-1.3457,3-3-1.3457-3-3-3c-.57916,0-1.11566.17242-1.57471.45782l-2.42529-1.93878v-5.51904h8v7c0,.21045.06641.41602.19043.58643l3.05872,4.22296c-.15881.36548-.24915.76733-.24915,1.19061,0,1.6543,1.3457,3,3,3s3-1.3457,3-3-1.3457-3-3-3ZM18.66699,13c-3.125,0-5.66699,2.97705-5.66699,6.63623,0,1.70703.55957,3.32471,1.5752,4.5542.35156.42578.29102,1.05615-.13477,1.40771-.18652.15381-.41211.229-.63574.229-.28809,0-.57422-.12354-.77246-.36328-1.31055-1.58691-2.03223-3.65674-2.03223-5.82764,0-4.76221,3.43945-8.63623,7.66699-8.63623.55273,0,1,.44775,1,1s-.44727,1-1,1ZM41.31738,18.63818c-.07617.01758-.15234.02588-.22754.02588-.4541.00049-.86523-.31152-.97266-.77295-.67188-2.87988-2.91309-4.89111-5.4502-4.89111-1.55957,0-3.01855.74365-4.10742,2.09375-.3457.42969-.97461.49902-1.40625.15088-.42969-.34668-.49707-.97607-.15039-1.40576,1.47559-1.83057,3.4873-2.83887,5.66406-2.83887,3.47266,0,6.51465,2.64697,7.39746,6.43701.12598.53809-.20898,1.07568-.74707,1.20117ZM44.33301,36c0-.55225.44727-1,1-1,3.125,0,5.66699-2.97705,5.66699-6.63623,0-3.56494-2.3916-6.47754-5.44434-6.63086-.55176-.02734-.97656-.49707-.94922-1.04883.02832-.55078.50195-.98438,1.04883-.94824,4.11914.20654,7.34473,3.99609,7.34473,8.62793,0,4.76221-3.43945,8.63623-7.66699,8.63623-.55273,0-1-.44775-1-1Z"/>
    </g>
  </g>
</svg>