<?xml version="1.0" encoding="UTF-8"?>
<svg xmlns="http://www.w3.org/2000/svg" version="1.1" viewBox="0 0 48 48">
  <!-- Generator: Adobe Illustrator 28.7.1, SVG Export Plug-In . SVG Version: 1.2.0 Build 142)  -->
  <g>
    <g id="Glyph">
      <g>
        <path d="M23.26172,21.98877c-.58252-.6377-1.35059-.98877-2.16162-.98877s-1.57812.35107-2.16064.98877c-1.25928,1.37646-1.25928,3.6167-.00049,4.99316l5.06104,5.53613,5.06055-5.53613c1.25928-1.37646,1.25928-3.6167.00049-4.99316-.58301-.6377-1.3501-.98877-2.16113-.98877h-.00049c-.81104,0-1.57861.35107-2.16113.98877-.37891.41406-1.09766.41406-1.47656,0Z"/>
        <path d="M14,15.57275v9.29443c0,5.9248,4.19482,10.97314,10,12.07031,5.80518-1.09717,10-6.14551,10-12.07031v-9.29443c-3.54395-.60889-6.90137-1.84619-10-3.68604-3.09863,1.83984-6.45605,3.07715-10,3.68604ZM26.8999,19c1.37939,0,2.6709.58252,3.63721,1.63916,1.93896,2.12061,1.93896,5.57178-.00049,7.69238l-5.79834,6.34326c-.18945.20703-.45752.3252-.73828.3252s-.54883-.11816-.73828-.3252l-5.79883-6.34326c-1.93896-2.12061-1.93896-5.57178.00049-7.69238.96582-1.05664,2.25732-1.63916,3.63672-1.63916,1.05273,0,2.05469.33887,2.8999.96973.84521-.63086,1.84668-.96973,2.89941-.96973h.00049ZM25,16c0,.55225-.44769,1-1,1s-1-.44775-1-1c0-.55231.44769-1,1-1s1,.44769,1,1Z"/>
        <path d="M39,10c-4.3916,0-8.68115-1.23047-12.40625-3.55811l-2.06396-1.29004c-.32422-.20215-.73535-.20215-1.05957,0l-2.06396,1.29004c-3.7251,2.32764-8.01465,3.55811-12.40625,3.55811-.55225,0-1,.44775-1,1v13.86719c0,9.12598,6.82178,16.91797,15.86768,18.12402.04395.00586.08838.00879.13232.00879s.08838-.00293.13232-.00879c9.0459-1.20605,15.86768-8.99805,15.86768-18.12402v-13.86719c0-.55225-.44775-1-1-1ZM36,24.86719c0,6.95752-4.97461,12.875-11.82812,14.07178-.05664.00977-.11426.01465-.17188.01465s-.11523-.00488-.17188-.01465c-6.85352-1.19678-11.82812-7.11426-11.82812-14.07178v-10.14941c0-.49805.36621-.91992.85938-.99023,3.78809-.53809,7.35889-1.83691,10.61279-3.85986.32324-.20117.73242-.20117,1.05566,0,3.25391,2.02295,6.82471,3.32178,10.61279,3.85986.49316.07031.85938.49219.85938.99023v10.14941Z"/>
      </g>
    </g>
  </g>
</svg>