<?xml version="1.0" encoding="UTF-8"?>
<svg xmlns="http://www.w3.org/2000/svg" version="1.1" viewBox="0 0 48 48">
  <!-- Generator: Adobe Illustrator 28.7.1, SVG Export Plug-In . SVG Version: 1.2.0 Build 142)  -->
  <g>
    <g id="Glyph">
      <g>
        <path d="M27,28c0,.55273-.44727,1-1,1h-15v4h15c.55273,0,1,.44727,1,1v1.38184l8.76367-4.38184-8.76367-4.38184v1.38184Z"/>
        <path d="M21,14v-1.38184l-8.76367,4.38184,8.76367,4.38184v-1.38184c0-.55273.44727-1,1-1h15v-4h-15c-.55273,0-1-.44727-1-1Z"/>
        <path d="M40,6H8c-1.6543,0-3,1.3457-3,3v30c0,1.6543,1.3457,3,3,3h32c1.6543,0,3-1.3457,3-3V9c0-1.6543-1.3457-3-3-3ZM38.44727,31.89453l-11.99995,5.99997c-.28991.14496-.68164.13711-.97271-.04392-.29492-.18262-.47461-.50391-.47461-.85059v-2h-15c-.55273,0-1-.44727-1-1v-6c0-.55273.44727-1,1-1h15v-2c0-.34668.17969-.66797.47461-.85059.29492-.18359.66211-.19824.97266-.04395l12,6c.33887.16992.55273.51562.55273.89453s-.21387.72461-.55273.89453ZM39,20c0,.55273-.44727,1-1,1h-15v2c0,.34668-.17968.66796-.4746.85058-.29076.18005-.66721.19563-.97267.04395l-12-6c-.33887-.16992-.55273-.51562-.55273-.89453s.21387-.72461.55273-.89453l12-6c.31055-.15527.67773-.13965.97266.04395.29492.18262.47461.50391.47461.85059v2h15c.55273,0,1,.44727,1,1v6Z"/>
      </g>
    </g>
  </g>
</svg>