<?xml version="1.0" encoding="UTF-8"?>
<svg xmlns="http://www.w3.org/2000/svg" version="1.1" viewBox="0 0 48 48">
  <!-- Generator: Adobe Illustrator 28.7.1, SVG Export Plug-In . SVG Version: 1.2.0 Build 142)  -->
  <g>
    <g id="Glyph">
      <g>
        <circle cx="17" cy="31" r="4"/>
        <path d="M28.52637,33.03613c-.73633-.4248-1.17578-1.18652-1.17578-2.03613s.43945-1.61133,1.17578-2.03613c.47559-.27441.64246-.88892.36621-1.36621l-3-5.19531c-.27637-.47949-.88965-.64355-1.36621-.36621-.7373.4248-1.61621.4248-2.35156-.00098-.73535-.4248-1.1748-1.18555-1.1748-2.03516,0-.55273-.44727-1-1-1h-6c-.55273,0-1,.44727-1,1,0,.84961-.43945,1.61035-1.1748,2.03516-.73535.42578-1.61426.42578-2.35156.00098-.47754-.27734-1.09082-.11328-1.36621.36621,0,0-2.99841,5.19257-3,5.19531-.2605.45111-.12128,1.08405.36621,1.36621.73633.4248,1.17578,1.18652,1.17578,2.03613,0,.84955-.43939,1.61121-1.1756,2.03601-.47467.27393-.64062.89246-.36639,1.36633l3,5.19531c.27539.47949.88867.64062,1.36621.36621.7373-.42383,1.61621-.42383,2.35156.00098s1.1748,1.18555,1.1748,2.03516c0,.55273.44727,1,1,1h6c.55273,0,1-.44727,1-1,0-.84961.43945-1.61035,1.1748-2.03516s1.61426-.4248,2.35156-.00098c.47656.27441,1.08984.11328,1.36621-.36621,0,0,2.99749-5.19097,3-5.19532.2682-.46525.09747-1.0987-.36621-1.36621ZM17,37c-3.30859,0-6-2.69141-6-6s2.69141-6,6-6,6,2.69141,6,6-2.69141,6-6,6Z"/>
        <circle cx="34" cy="14" r="2"/>
        <path d="M42.49609,15.39941c-.51172-.29297-.81738-.81641-.81738-1.39941,0-.58293.30558-1.10631.81718-1.3993.48016-.27499.64614-.89474.36837-1.37121l-2.01855-3.46484c-.27539-.47461-.88086-.63574-1.36133-.36523-.51855.29785-1.13965.2959-1.65625-.00391-.50684-.29395-.80957-.81543-.80957-1.39551,0-.55273-.44727-1-1-1h-4.03711c-.55273,0-1,.44727-1,1,0,.58008-.30273,1.10156-.80957,1.39551-.5166.2998-1.1377.30176-1.65625.00391-.47852-.27051-1.08496-.11035-1.36133.36523,0,0-2.01855,3.46484-2.01858,3.46489-.27813.47715-.11149,1.09641.36819,1.37104.51172.29297.81738.81641.81738,1.39941s-.30565,1.10642-.81735,1.39939c-.47948.27453-.64781.89149-.3682,1.37111l2.01855,3.46484c.27539.47559.88184.63672,1.36133.36523.51855-.29785,1.13965-.2959,1.65625.00391.50684.29395.80957.81543.80957,1.39551,0,.55273.44727,1,1,1h4.03711c.55273,0,1-.44727,1-1,0-.58008.30273-1.10156.80957-1.39551.5166-.2998,1.1377-.30176,1.65625-.00391.47852.27051,1.08496.11035,1.36133-.36523l2.01855-3.46484c.2791-.47908.1079-1.09791-.36816-1.37109ZM34,18c-2.20605,0-4-1.79395-4-4s1.79395-4,4-4,4,1.79395,4,4-1.79395,4-4,4Z"/>
        <path d="M6.51467,19.61524c.5197.16464,1.0899-.14145,1.24998-.66016,2.2832-7.39844,9.32813-12.31934,17.04785-11.93652.55567.0459,1.02051-.39941,1.04688-.95117s-.39941-1.02051-.95117-1.04688c-8.65332-.40137-16.50195,5.07422-19.05371,13.34473-.16309.52832.13281,1.08789.66018,1.25001Z"/>
        <path d="M42.02832,23.86133c-.54297-.02051-1.02051.39941-1.04688.95117-.35742,7.4873-5.68555,13.94629-12.95703,15.70605-.53708.12988-.86618.66987-.73635,1.20695.12737.52692.68087.86633,1.20705.73641,8.12793-1.9668,14.08398-9.18555,14.48438-17.55371.02637-.55176-.39941-1.02051-.95117-1.04688Z"/>
      </g>
    </g>
  </g>
</svg>