<?xml version="1.0" encoding="UTF-8"?>
<svg xmlns="http://www.w3.org/2000/svg" version="1.1" viewBox="0 0 48 48">
  <!-- Generator: Adobe Illustrator 28.7.1, SVG Export Plug-In . SVG Version: 1.2.0 Build 142)  -->
  <g>
    <g id="Glyph">
      <g>
        <path d="M40,6H8c-1.6543,0-3,1.3457-3,3v30c0,1.6543,1.3457,3,3,3h32c1.6543,0,3-1.3457,3-3V9c0-1.6543-1.3457-3-3-3ZM38,23h-1.61127c-.38501,1.01892-.953,1.97394-1.70905,2.80078l-9.94141,10.87402c-.18945.20703-.45703.3252-.73828.3252s-.54883-.11816-.73828-.3252l-9.94141-10.87402c-.75574-.8269-1.32349-1.78192-1.70837-2.80078h-1.61194c-.55273,0-1-.44775-1-1s.44727-1,1-1h1.1098c-.36584-2.62726.36517-5.40375,2.21051-7.42285,1.51953-1.66211,3.54688-2.57715,5.70898-2.57715h.00098c1.82812,0,3.55957.65479,4.96973,1.86182,1.41016-1.20703,3.14258-1.86182,4.9707-1.86182h.00098c2.16113,0,4.18848.91553,5.70801,2.57715,1.84583,2.01929,2.57703,4.79572,2.21124,7.42285h1.10907c.55273,0,1,.44775,1,1s-.44727,1-1,1Z"/>
        <path d="M24.85742,27.51465c-.18164.30322-.50879.48535-.85742.48535-.04102,0-.08301-.00244-.12402-.00781-.39355-.04932-.71973-.32568-.83398-.70508l-2.45215-8.17383-2.80859,3.51123c-.19043.2373-.47754.37549-.78125.37549h-3.18079c.26715.51581.57623,1.01202.97766,1.45117l9.20312,10.06689,9.20312-10.06689c.40161-.43909.71088-.9353.97815-1.45117h-6.61487l-2.70898,4.51465Z"/>
        <path d="M20.21875,16.37549c.2334-.29004.60938-.42529.97168-.35742.36523.07129.66016.33838.76758.69482l2.34961,7.83154,1.83496-3.05908c.18066-.30127.50586-.48535.85742-.48535h7.88519c.38379-2.13049-.17548-4.42572-1.68207-6.07324-1.13574-1.24268-2.63867-1.92676-4.23242-1.92676-1.59277,0-3.09668.68408-4.23242,1.92676-.18945.20703-.45801.3252-.73828.3252-.28125,0-.54883-.11816-.73828-.3252-1.13574-1.24268-2.63867-1.92676-4.23242-1.92676-1.59277,0-3.09668.68408-4.23242,1.92676-1.50598,1.64752-2.065,3.94275-1.68127,6.07324h3.40393l3.69922-4.62451Z"/>
      </g>
    </g>
  </g>
</svg>