<?xml version="1.0" encoding="UTF-8"?>
<svg xmlns="http://www.w3.org/2000/svg" version="1.1" viewBox="0 0 48 48">
  <!-- Generator: Adobe Illustrator 28.7.1, SVG Export Plug-In . SVG Version: 1.2.0 Build 142)  -->
  <g>
    <g id="Glyph">
      <g>
        <path d="M18,25.09033v.90967c0,.55273-.44775,1-1,1s-1-.44727-1-1v-.90967c-2.83313.47833-5,2.94244-5,5.90967s2.16687,5.43134,5,5.90967v-.90967c0-.55273.44775-1,1-1s1,.44727,1,1v.90967c2.83313-.47833,5-2.94244,5-5.90967s-2.16687-5.43134-5-5.90967ZM14,32c-.55231,0-1-.44775-1-1,0-.55231.44769-1,1-1s1,.44769,1,1c0,.55225-.44769,1-1,1ZM20,32c-.55231,0-1-.44775-1-1,0-.55231.44769-1,1-1s1,.44769,1,1c0,.55225-.44769,1-1,1Z"/>
        <path d="M42,9h-3v-3c0-.54999-.45001-1-1-1s-1,.45001-1,1v3h-4v-3c0-.54999-.45001-1-1-1s-1,.45001-1,1v3h-3c-.54999,0-1,.45001-1,1s.45001,1,1,1h1v4c0,2.96997,2.16998,5.42999,5,5.90997v8.09003c0,.54999-.45001,1-1,1h-4v-8c0-1.6543-1.3457-3-3-3H8c-1.6543,0-3,1.3457-3,3v18c0,1.6543,1.3457,3,3,3h18c1.6543,0,3-1.3457,3-3v-8h4c1.65002,0,3-1.35004,3-3v-8.09003c2.83002-.47998,5-2.94,5-5.90997v-4h1c.54999,0,1-.45001,1-1s-.45001-1-1-1ZM17,39c-4.41113,0-8-3.58887-8-8s3.58887-8,8-8,8,3.58887,8,8-3.58887,8-8,8Z"/>
      </g>
    </g>
  </g>
</svg>