<?xml version="1.0" encoding="UTF-8"?>
<svg xmlns="http://www.w3.org/2000/svg" version="1.1" viewBox="0 0 48 48">
  <!-- Generator: Adobe Illustrator 28.7.1, SVG Export Plug-In . SVG Version: 1.2.0 Build 142)  -->
  <g>
    <g id="Glyph">
      <g>
        <rect x="5" y="31" width="8" height="12" rx="1" ry="1"/>
        <rect x="15" y="27" width="8" height="16" rx="1" ry="1"/>
        <rect x="25" y="23" width="8" height="20" rx="1" ry="1"/>
        <rect x="35" y="19" width="8" height="24" rx="1" ry="1"/>
        <path d="M6.80762,10.80762c2.45508-2.45508,5.71973-3.80762,9.19238-3.80762s6.73729,1.35253,9.19236,3.8076c.38742.38742,1.02669.38741,1.41408.00002.39062-.39062.39062-1.02344,0-1.41406-2.83301-2.83301-6.59961-4.39355-10.60645-4.39355s-7.77344,1.56055-10.60645,4.39355c-.39062.39062-.39062,1.02344,0,1.41406s1.02344.39062,1.41406,0Z"/>
        <path d="M8.22168,12.22168c-.39062.39062-.39062,1.02344,0,1.41406s1.02344.39062,1.41406,0c3.5097-3.50774,9.21853-3.50781,12.72831-.00021.38397.38373,1.03225.38222,1.41427.00021.39062-.39062.39062-1.02344,0-1.41406-4.28906-4.28906-11.26758-4.28906-15.55664,0Z"/>
        <path d="M12.46484,16.46484c1.94922-1.94922,5.12109-1.94922,7.07031,0,.38735.38735,1.02642.38763,1.41406,0,.39062-.39062.39062-1.02344,0-1.41406-2.72852-2.72852-7.16992-2.72852-9.89844,0-.39062.39062-.39062,1.02344,0,1.41406s1.02344.39062,1.41406,0Z"/>
        <path d="M16.70703,19.29297c.37027.37021,1.01848.39557,1.41406,0,.39062-.39062.39062-1.02344,0-1.41406-1.16992-1.16992-3.07227-1.16992-4.24219,0-.39062.39062-.39062,1.02344,0,1.41406s1.02344.39062,1.41406,0,1.02341-.39062,1.41406,0Z"/>
        <circle cx="16" cy="21.5" r="1"/>
      </g>
    </g>
  </g>
</svg>