<?xml version="1.0" encoding="UTF-8"?>
<svg xmlns="http://www.w3.org/2000/svg" version="1.1" viewBox="0 0 48 48">
  <!-- Generator: Adobe Illustrator 28.7.1, SVG Export Plug-In . SVG Version: 1.2.0 Build 142)  -->
  <g>
    <g id="Glyph">
      <g>
        <path d="M24,8.79999v-1.79999c0-1.10004-.90002-2-2-2h-6c-1.09998,0-2,.89996-2,2v1.79999c1.57001-.52002,3.25-.79999,5-.79999s3.42999.27997,5,.79999Z"/>
        <path d="M32.51001,15.45001c.77002,1.19995,1.38,2.51996,1.79999,3.91998,3.39001,1.87,5.69,5.48999,5.69,9.63,0,6.07001-4.92999,11-11,11-5.95514,0-11-5.05536-11-11,0-5.04004,3.40997-9.29999,8.03998-10.59003-.71997-.90997-1.60999-1.66998-2.62-2.25-4.95001,2.16003-8.41998,7.09998-8.41998,12.83997,0,7.50482,6.5025,14.00006,14,14.00006,7.71997,0,14-6.28003,14-14,0-6.51001-4.46002-11.98999-10.48999-13.54999Z"/>
        <path d="M8,24c0-6.07001,4.92999-11,11-11s11,4.92999,11,11c0,5.03998-3.40997,9.29999-8.03998,10.58997.70996.90002,1.60999,1.67004,2.62,2.25,4.95001-2.15997,8.41998-7.09998,8.41998-12.83997,0-7.72003-6.28003-14-14-14s-14,6.27997-14,14c0,6.51001,4.46002,11.98999,10.48999,13.56-.77002-1.21002-1.38-2.53003-1.79999-3.92999-3.39001-1.87-5.69-5.48999-5.69-9.63Z"/>
      </g>
    </g>
  </g>
</svg>