<?xml version="1.0" encoding="UTF-8"?>
<svg xmlns="http://www.w3.org/2000/svg" version="1.1" viewBox="0 0 64 64">
  <!-- Generator: Adobe Illustrator 28.7.1, SVG Export Plug-In . SVG Version: 1.2.0 Build 142)  -->
  <g>
    <g id="Glyph">
      <g>
        <path d="M40.82001,9c-.41003-1.16003-1.52002-2-2.82001-2H10c-1.65002,0-3,1.34998-3,3v36c0,1.29999.84003,2.40997,2,2.82001V13.89996c0-2.69995,2.23999-4.89996,5-4.89996h26.82001Z"/>
        <path d="M48,39c-4.9624,0-9,4.03711-9,9,0,1.17053.23151,2.28625.63989,3.31299,1.4718-1.3797,3.2547-2.3714,5.1991-2.89026-.51831-.67444-.83899-1.50806-.83899-2.42273,0-2.20605,1.79443-4,4-4s4,1.79395,4,4c0,.91473-.32068,1.74841-.83911,2.42291,1.9342.51349,3.71069,1.49719,5.19678,2.89685.4101-1.02856.64233-2.14667.64233-3.31976,0-4.96289-4.0376-9-9-9Z"/>
        <path d="M48,50c-2.81537,0-5.45392,1.16296-7.36731,3.15356,1.62927,2.32208,4.32172,3.84644,7.36731,3.84644,3.0484,0,5.7431-1.52704,7.37195-3.85266-.04077-.04156-.07941-.09161-.12048-.13171-1.93701-1.94824-4.50879-3.01562-7.25146-3.01562Z"/>
        <circle cx="48" cy="46" r="2"/>
        <path d="M45,37.41998V13.89996c0-1.59998-1.34998-2.89996-3-2.89996H14c-1.65002,0-3,1.29999-3,2.89996v36.20001c0,1.60004,1.34998,2.90002,3,2.90002h24.20001c-.77002-1.5-1.20001-3.20001-1.20001-5,0-5.03003,3.39001-9.28003,8-10.58002ZM17,18c0-.47656.33643-.88672.80371-.98047l8.24609-1.64941c1.29395-.25977,2.60693-.25977,3.8999,0l8.24658,1.64941c.46729.09375.80371.50391.80371.98047v8c0,.29391-.12936.57318-.35344.76263-.21496.18175-.53364.26829-.81112.2237l-6-1c-.48193-.08008-.83545-.49707-.83545-.98633v-2.35547c-1.91602-.7793-4.08398-.7793-6,0v2.35547c0,.48926-.35352.90625-.83545.98633l-6,1c-.29004.04492-.58643-.0332-.81104-.22363-.22412-.18945-.35352-.46875-.35352-.7627v-8ZM15,30c0-.55273.44775-1,1-1h24c.55225,0,1,.44727,1,1v4c0,.55273-.44775,1-1,1h-24c-.55225,0-1-.44727-1-1v-4ZM16,37h12c.55225,0,1,.44727,1,1s-.44775,1-1,1h-12c-.55225,0-1-.44727-1-1s.44775-1,1-1ZM16,41h8c.55225,0,1,.44727,1,1s-.44775,1-1,1h-8c-.55225,0-1-.44727-1-1s.44775-1,1-1ZM34,47h-18c-.55225,0-1-.44727-1-1s.44775-1,1-1h18c.55225,0,1,.44727,1,1s-.44775,1-1,1Z"/>
        <rect x="17" y="31" width="22" height="2"/>
        <path d="M23,22c0-.37891.21387-.72461.55273-.89453,2.78516-1.39258,6.10938-1.39258,8.89453,0,.33887.16992.55273.51562.55273.89453v2.15332l4,.66602v-6l-7.44238-1.48828c-1.0332-.20703-2.08154-.20703-3.11572,0l-7.44189,1.48828v6l4-.66602v-2.15332Z"/>
      </g>
    </g>
  </g>
</svg>