<?xml version="1.0" encoding="UTF-8"?>
<svg id="Glyph" xmlns="http://www.w3.org/2000/svg" version="1.1" viewBox="0 0 64 64">
  <path d="M43,13.97998v-6.84998c-2.17999.54999-4,2.88995-5.03998,6.21997,1.65997.35999,3.34998.57001,5.03998.63Z" fill="#000" stroke-width="0"/>
  <path d="M43,15.97998c-1.85999-.06-3.71997-.28998-5.53998-.69-.24005,1.16003-.39001,2.41003-.44,3.71002h5.97998v-3.02002Z" fill="#000" stroke-width="0"/>
  <path d="M43,21h-5.97998c.04999,1.29999.19995,2.54999.44,3.71002,1.82001-.40002,3.67999-.63,5.53998-.69v-3.02002Z" fill="#000" stroke-width="0"/>
  <path d="M43,32.87v-6.85004c-1.69.06-3.38.27002-5.03998.63,1.03998,3.33002,2.85999,5.67004,5.03998,6.22003Z" fill="#000" stroke-width="0"/>
  <path d="M50.03998,26.64996c-1.65997-.35999-3.34998-.57001-5.03998-.63v6.85004c2.17999-.54999,4-2.89001,5.03998-6.22003Z" fill="#000" stroke-width="0"/>
  <path d="M50.97998,21h-5.97998v3.01996c1.85999.06,3.71997.29004,5.53998.69.24005-1.15997.39001-2.40997.44-3.70996Z" fill="#000" stroke-width="0"/>
  <path d="M45,7.13v6.84998c1.69-.06,3.38-.27002,5.03998-.63-1.03998-3.33002-2.85999-5.66998-5.03998-6.21997Z" fill="#000" stroke-width="0"/>
  <path d="M50.53998,15.28998c-1.82001.40002-3.67999.63-5.53998.69v3.02002h5.97998c-.04999-1.29999-.19995-2.54999-.44-3.71002Z" fill="#000" stroke-width="0"/>
  <path d="M35.52002,25.20001c-.28003-1.31-.45001-2.72003-.5-4.20001h-3.98004c.14001,1.88.67999,3.64001,1.54004,5.20996.95996-.38995,1.94-.72998,2.94-1.00995Z" fill="#000" stroke-width="0"/>
  <path d="M35.52002,14.79999c-1-.28003-1.98004-.62-2.94-1.01001-.86005,1.57001-1.40002,3.33002-1.54004,5.21002h3.98004c.04999-1.48004.21997-2.89001.5-4.20001Z" fill="#000" stroke-width="0"/>
  <path d="M38.19,8.38c-1.76001.88-3.29999,2.14996-4.47998,3.69995.75995.30005,1.52997.56006,2.31.78003.52997-1.73999,1.26996-3.25,2.16998-4.47998Z" fill="#000" stroke-width="0"/>
  <path d="M33.71002,27.91998c1.17999,1.54999,2.71997,2.82001,4.47998,3.70001-.90002-1.22998-1.64001-2.73999-2.16998-4.47998-.78003.21997-1.55005.47998-2.31.77997Z" fill="#000" stroke-width="0"/>
  <path d="M49.81,31.62c1.76001-.88,3.29999-2.15002,4.47998-3.70001-.75995-.29999-1.52997-.56-2.31-.77997-.52997,1.73999-1.26996,3.25-2.16998,4.47998Z" fill="#000" stroke-width="0"/>
  <path d="M52.47998,25.20001c1,.27997,1.98004.62,2.94,1.00995.86005-1.56995,1.40002-3.32996,1.54004-5.20996h-3.98004c-.04999,1.47998-.21997,2.89001-.5,4.20001Z" fill="#000" stroke-width="0"/>
  <path d="M54.28998,12.07996c-1.17999-1.54999-2.71997-2.81995-4.47998-3.69995.90002,1.22998,1.64001,2.73999,2.16998,4.47998.78003-.21997,1.55005-.47998,2.31-.78003Z" fill="#000" stroke-width="0"/>
  <path d="M52.97998,19h3.98004c-.14001-1.88-.67999-3.64001-1.54004-5.21002-.95996.39001-1.94.72998-2.94,1.01001.28003,1.31.45001,2.71997.5,4.20001Z" fill="#000" stroke-width="0"/>
  <polygon points="19 45.7207 7 41.72095 7 43.61267 19 47.61279 19 45.7207" fill="#000" stroke-width="0"/>
  <polygon points="37 47.61279 49 43.61267 49 41.72095 37 45.7207 37 47.61279" fill="#000" stroke-width="0"/>
  <path d="M29.01001,20.29999l-.67999-.23999c-.21002-.08002-.45001-.08002-.66003,0l-19.66455,6.88257,19.99457,6.99786,6.55707-2.29486c-3.31592-2.69434-5.46271-6.77319-5.54706-11.34558Z" fill="#000" stroke-width="0"/>
  <path d="M7,35.61261l13.31641,4.43866c.52344.1748.80664.74115.63184,1.26508-.16608.49786-.73975.80731-1.26465.63239l-12.68359-4.22772v1.8916l13.31641,4.43866c.4082.13623.68359.51807.68359.94873v3.99988c0,.67041-.68701,1.15668-1.31641.94885l-12.68359-4.22772v3.27899c0,.41998.27002.79999.66998.94l19.33002,7.06v-21.29065l-20-6.99988v6.90314Z" fill="#000" stroke-width="0"/>
  <path d="M36.62225,33.04163l-7.62225,2.66772v21.29065l19.33002-7.06c.39996-.14001.66998-.52002.66998-.94v-3.27899s-12.68359,4.22772-12.68365,4.22772c-.63953.21112-1.31635-.27155-1.31635-.94873v-4c0-.43066.27539-.8125.68359-.94873l13.31641-4.43866v-1.8916s-12.63641,4.21198-12.68347,4.22766c-.49579.16528-1.08893-.10474-1.26477-.63226-.1748-.52393.1084-1.09033.63184-1.26514l13.31641-4.43866v-1.4726c-1.56.56-3.23999.85999-5,.85999-2.68256,0-5.19629-.71912-7.37775-1.95837Z" fill="#000" stroke-width="0"/>
</svg>