<?xml version="1.0" encoding="utf-8"?>
<!-- Generator: Adobe Illustrator 27.3.1, SVG Export Plug-In . SVG Version: 6.00 Build 0)  -->
<svg version="1.1" id="Glyph" xmlns="http://www.w3.org/2000/svg" xmlns:xlink="http://www.w3.org/1999/xlink" x="0px" y="0px"
	 viewBox="0 0 64 64" enable-background="new 0 0 64 64" xml:space="preserve">
<g>
	<path d="M52.94824,55.68359L51.38702,51H14.61298c0,0-1.55011,4.65033-1.56116,4.68341C12.84277,56.31049,13.34393,57,14,57
		c0,0,37.95569,0,37.99994,0C52.63788,57,53.17175,56.34882,52.94824,55.68359z"/>
	<path d="M27.09961,21.00488c2.23535,0.21973,3.7334,0.71533,5.18164,1.19434c0.94336,0.31201,1.83398,0.60645,2.91309,0.81982
		c3.01471,0.59717,6.31165,0.28149,9.80566-0.91498V14H21v7.255C23.04333,20.89819,25.09064,20.80341,27.09961,21.00488z"/>
	<path d="M40,30c-0.55176,0-1,0.44873-1,1v4c0,0.55127,0.44824,1,1,1s1-0.44873,1-1v-4C41,30.44873,40.55176,30,40,30z"/>
	<path d="M26,30h-1v6h1c0.55176,0,1-0.44873,1-1v-4C27,30.44873,26.55176,30,26,30z"/>
	<path d="M45,24.19995c-2.31421,0.72919-4.56134,1.11694-6.71289,1.11694c-1.18945,0-2.35156-0.11182-3.48145-0.33594
		c-1.2002-0.2373-2.19238-0.56543-3.15137-0.88281c-1.40723-0.46533-2.73633-0.90479-4.75195-1.10303
		C24.9585,22.8017,22.97748,22.91119,21,23.2887V44h24V24.19995z M29,35c0,1.6543-1.3457,3-3,3h-2c-0.55273,0-1-0.44775-1-1v-8
		c0-0.55225,0.44727-1,1-1h2c1.6543,0,3,1.3457,3,3V35z M36,35.29834c0,0.67969-0.2334,1.3457-0.6582,1.875L33.08008,40H35
		c0.55273,0,1,0.44775,1,1s-0.44727,1-1,1h-4c-0.38477,0-0.73438-0.22021-0.90137-0.56689
		c-0.16602-0.34619-0.12012-0.75781,0.12012-1.05762l3.56152-4.45215C33.92188,35.74658,34,35.5249,34,35.29834V35
		c0-0.55127-0.44824-1-1-1s-1,0.44873-1,1c0,0.55225-0.44727,1-1,1s-1-0.44775-1-1c0-1.6543,1.3457-3,3-3s3,1.3457,3,3V35.29834z
		 M43,35c0,1.6543-1.3457,3-3,3s-3-1.3457-3-3v-4c0-1.6543,1.3457-3,3-3s3,1.3457,3,3V35z"/>
	<path d="M15,49h36V8c0-0.55225-0.44727-1-1-1c0,0-37.8114,0-37.99927,0c-0.83173,0-1.30145,0.9762-0.78198,1.62451L15,13.35059V49z
		 M19,13c0-0.55225,0.44727-1,1-1h26c0.55273,0,1,0.44775,1,1v32c0,0.55225-0.44727,1-1,1H20c-0.55273,0-1-0.44775-1-1V13z"/>
</g>
</svg>
