<?xml version="1.0" encoding="UTF-8"?>
<svg xmlns="http://www.w3.org/2000/svg" version="1.1" viewBox="0 0 48 48">
  <!-- Generator: Adobe Illustrator 28.7.1, SVG Export Plug-In . SVG Version: 1.2.0 Build 142)  -->
  <g>
    <g id="Glyph">
      <g>
        <rect x="28" y="10" width="3" height="4"/>
        <path d="M29,5h-1v3h3v-1c0-1.10461-.89545-2-2-2Z"/>
        <path d="M28,19h1c1.10455,0,2-.89545,2-2v-1h-3v3Z"/>
        <path d="M22,27h1c1.6543,0,3-1.3457,3-3v-3h-4v6Z"/>
        <rect x="12" y="21" width="8" height="13"/>
        <path d="M22,19V5h-10c-3.86597,0-7,3.13397-7,7s3.13403,7,7,7h10Z"/>
        <path d="M41,10h-3v4h3c1.10455,0,2-.89545,2-2,0-1.10461-.89545-2-2-2Z"/>
        <rect x="24" y="5" width="2" height="14"/>
        <path d="M34,7h-1v10h1c1.10455,0,2-.89545,2-2v-6c0-1.10461-.89545-2-2-2Z"/>
        <rect x="9" y="36" width="19" height="7" rx="2" ry="2"/>
      </g>
    </g>
  </g>
</svg>