<?xml version="1.0" encoding="utf-8"?>
<!-- Generator: Adobe Illustrator 27.3.1, SVG Export Plug-In . SVG Version: 6.00 Build 0)  -->
<svg version="1.1" id="Glyph" xmlns="http://www.w3.org/2000/svg" xmlns:xlink="http://www.w3.org/1999/xlink" x="0px" y="0px"
	 viewBox="0 0 64 64" enable-background="new 0 0 64 64" xml:space="preserve">
<g>
	<path d="M29,20c0.91895,0,1.66699-0.74756,1.66699-1.6665c0-1.35059-0.91504-2.84521-1.66602-3.80957
		c-0.75098,0.96777-1.66797,2.46582-1.66797,3.80957C27.33301,19.25244,28.08105,20,29,20z"/>
	<circle cx="30" cy="32" r="1"/>
	<path d="M37,17c0.55176,0,1-0.44873,1-1c0-0.82959-0.50977-1.75586-1-2.43896C36.50977,14.24414,36,15.17041,36,16
		C36,16.55127,36.44824,17,37,17z"/>
	<path d="M18.14984,49h27.70032c-1.20844-7.35071-1.20312-14.80103,0.02191-22.1499c0,0,3.10339-18.6203,3.11426-18.68536
		C49.0871,7.55975,48.61255,7,48,7c0,0-31.90833,0-31.99982,0c-0.6134,0-1.08795,0.56213-0.98651,1.16455l3.11426,18.68555
		C19.35297,34.19897,19.35828,41.64929,18.14984,49z M36.29297,11.29297c0.39062-0.39062,1.02344-0.39062,1.41406,0
		C37.94141,11.52734,40,13.65332,40,16c0,1.6543-1.3457,3-3,3s-3-1.3457-3-3C34,13.65332,36.05859,11.52734,36.29297,11.29297z
		 M28.29297,12.29297c0.39062-0.39062,1.02344-0.39062,1.41406,0c0.12109,0.12061,2.95996,2.99414,2.95996,6.04053
		C32.66699,20.35498,31.02246,22,29,22s-3.66699-1.64502-3.66699-3.6665C25.33301,15.28711,28.17188,12.41357,28.29297,12.29297z
		 M22.13281,23.81348c0.24902-0.22852,0.59668-0.31592,0.92578-0.23242c2.38867,0.61328,4.61133,0.75391,6.79492,0.42969
		c1.71503-0.25269,3.33728-0.88672,5.07617-1.0083c2.14648-0.14746,4.34766,0.23779,6.5498,1.14258
		c0.43164,0.17676,0.68262,0.62842,0.60645,1.08838c0,0-0.15918,0.95996-0.15918,0.96045
		c-1.08691,6.53662-1.26953,13.16357-0.54297,19.6958C41.44586,46.44788,40.99957,47,40.38965,47c0,0-16.70026,0-16.77899,0
		c-0.55438,0-1.06018-0.51685-0.99445-1.11035c0.72656-6.53223,0.54395-13.15918-0.54297-19.6958l-0.25-1.47754
		C21.76758,24.38232,21.88379,24.04297,22.13281,23.81348z"/>
	<path d="M24.71875,45h14.5625c-0.6084-6.35449-0.38281-12.78613,0.67285-19.13379l0.02539-0.15332
		c-1.664-0.5835-3.31238-0.82373-4.91095-0.71533c-1.67761,0.11371-3.26422,0.74689-4.92206,0.9917
		c-1.95801,0.2915-4.00586,0.24219-6.10059-0.12598C25.10156,32.21387,25.32715,38.64453,24.71875,45z M31,42
		c-0.55231,0-1-0.44775-1-1c0-0.55231,0.44769-1,1-1s1,0.44769,1,1C32,41.55225,31.55231,42,31,42z M36,28c0.55231,0,1,0.44769,1,1
		c0,0.55225-0.44769,1-1,1s-1-0.44775-1-1C35,28.44769,35.44769,28,36,28z M35,35c0.55231,0,1,0.44769,1,1c0,0.55225-0.44769,1-1,1
		s-1-0.44775-1-1C34,35.44769,34.44769,35,35,35z M30,29c1.6543,0,3,1.3457,3,3s-1.3457,3-3,3s-3-1.3457-3-3S28.3457,29,30,29z
		 M28,37c0.55231,0,1,0.44769,1,1c0,0.55225-0.44769,1-1,1s-1-0.44775-1-1C27,37.44769,27.44769,37,28,37z"/>
	<path d="M18,56c0,0.55273,0.44727,1,1,1h26c0.55273,0,1-0.44727,1-1v-5H18V56z"/>
</g>
</svg>
