<?xml version="1.0" encoding="UTF-8"?>
<svg xmlns="http://www.w3.org/2000/svg" version="1.1" viewBox="0 0 64 64">
  <!-- Generator: Adobe Illustrator 28.7.1, SVG Export Plug-In . SVG Version: 1.2.0 Build 142)  -->
  <g>
    <g id="Glyph">
      <g>
        <circle cx="45" cy="13" r="1"/>
        <path d="M45,23c.29999,0,.59003-.14001.78003-.38.52997-.66003,5.21997-6.59003,5.21997-9.62,0-3.31-2.69-6-6-6s-6,2.69-6,6c0,3.02997,4.69,8.95996,5.21997,9.62.19.23999.48004.38.78003.38ZM42,13c0-1.65002,1.34998-3,3-3s3,1.34998,3,3-1.34998,3-3,3-3-1.35004-3-3Z"/>
        <path d="M33.54999,17.65997l2.29999,1.15002c.58002.28998,1.05005.76001,1.34003,1.33997l1.76001,3.51001c.35999.73004.40997,1.60004.13,2.37-.28003.77002-.88,1.40002-1.64001,1.72003l-3.83002,1.64996c-.37.16003-.60999.52002-.60999.92004v1.35999c0,.39996.23999.76001.60999.91998l4.45001,1.91003c1.20001.50995,1.91998,1.72998,1.79999,3.02997l-.56,6.21002c-.04999.51001.27002.79999.41003.89996.13995.10004.50995.31.97998.11005l3.56-1.53003c.12-.04999.21997-.12.32001-.21002l1.96997-1.96997c.23004-.23999.34003-.58002.27002-.90002l-.58002-2.89996c-.19995-.98999.11005-2,.82001-2.71002l1.79004-1.78998c.44-.45001,1.00995-.73999,1.62994-.84003l3.23004-.53998c-.62-3.75-2.20001-7.16998-4.47003-10.02002-.70996,1.03003-1.39996,1.91003-1.88995,2.53003-.57001.70996-1.42004,1.12-2.34003,1.12s-1.77002-.41003-2.34003-1.12c-1.60999-2.01001-5.22998-6.86005-5.62994-10.29004-1.30005-.31-2.65002-.5-4.03003-.56v3.73004c0,.38.21002.72998.54999.89996Z"/>
        <path d="M15.21143,35.84473l.48633-2.43359c.2793-1.39746,1.5166-2.41113,2.94189-2.41113h2.53174c.26709,0,.51855-.10449.70752-.29297l1.82812-1.82812c.18604-.18652.29297-.44434.29297-.70703v-.53223c0-1.42578,1.01465-2.66309,2.41211-2.94141l1.78369-.35742c.46631-.09277.8042-.50488.8042-.98047v-.29004c0-.33496-.1665-.64648-.44531-.83203l-.83838-.55859c-1.12256-.74902-1.6084-2.16602-1.18213-3.44531l.22607-.67773c.09229-.27734.05908-.58105-.09131-.83203l-1.56677-2.61084c-8.76123,2.901-15.10217,11.16455-15.10217,20.88623,0,1.26874.11395,2.51068.32117,3.72125l4.35657-2.17828c.27832-.13867.47266-.39355.53369-.69824Z"/>
        <path d="M37.83301,51.61035l-3.22754-1.29102c-.30518-.12305-.65186-.08594-.92578.09668l-.46143.30664c-1.375.91602-3.2417.54395-4.15967-.83203l-.18896-.28418c-.63965-.95898-.66943-2.21777-.0752-3.20703l1.9502-3.25098c.12842-.21387.17188-.46582.12305-.70996l-.63574-3.17969c-.06641-.33301-.29395-.60645-.60938-.73242l-3.07324-1.22949c-.28662-.11523-.61865-.08887-.88428.07031l-3.17969,1.90723c-.29883.17969-.48535.50879-.48535.8584v2.86719c0,1.6543-1.3457,3-3,3-.34375,0-.62891.13672-.81982.37598l-2.59796,3.24731c4.03223,4.52209,9.89667,7.37671,16.41779,7.37671,2.72949,0,5.34259-.50348,7.75641-1.41608l-1.36676-3.41693c-.10107-.25293-.30371-.45605-.55664-.55664Z"/>
        <path d="M53.93231,33.35834l-3.13544.52252c-.20752.03418-.39453.13086-.54248.27832l-1.79053,1.79102c-.23682.2373-.33936.5752-.27344.90332l.58008,2.90039c.19727.98633-.10938,1.99902-.82031,2.70996l-1.9707,1.9707c-.27393.27344-.59033.4873-.94189.63672l-3.56006,1.52637c-.38477.16504-.78809.24609-1.18799.24609-.62012,0-1.23291-.19531-1.75732-.57617-.86328-.62695-1.32129-1.63672-1.22461-2.69922l.56494-6.21191c.03955-.43262-.20215-.83887-.60156-1.00977l-4.45264-1.9082c-1.10449-.47363-1.81836-1.55566-1.81836-2.75684v-1.36328c0-1.20117.71387-2.2832,1.81836-2.75684l3.83789-1.64453c.25586-.11035.44971-.31445.54541-.57617.09521-.26172.07959-.54199-.04492-.79102l-1.75293-3.50586c-.09619-.19238-.25488-.35156-.44727-.44727l-2.29834-1.14941c-1.02295-.51172-1.6582-1.54004-1.6582-2.68359v-3.73828c-1.33447.06006-2.63666.24298-3.89954.53143l1.28381,2.13947c.45068.75195.55029,1.66016.27344,2.49219l-.22607.67871c-.14209.42676.02002.89844.39453,1.14844l.83789.55859c.83643.55762,1.33594,1.49121,1.33594,2.49609v.29004c0,1.42578-1.01465,2.66309-2.41211,2.94141l-1.78369.35742c-.46631.09277-.8042.50488-.8042.98047v.53223c0,.80078-.31201,1.55469-.87891,2.12109l-1.82812,1.82812c-.56641.56641-1.32031.87891-2.12158.87891h-2.53174c-.4751,0-.8877.33789-.98096.80371l-.48633,2.43359c-.18262.91406-.76562,1.67676-1.59961,2.09473l-4.80927,2.40442c.72107,2.66632,1.92993,5.13354,3.52777,7.29858l2.32739-2.90906c.57275-.71582,1.42676-1.12598,2.34277-1.12598.58984,0,1.03857-.44824,1.03857-1v-2.86719c0-1.04688.55762-2.0332,1.45605-2.57324l3.1792-1.90625c.79639-.47852,1.78906-.56055,2.65625-.21387l3.07422,1.22949c.94482.37793,1.62842,1.2002,1.82715,2.19824l.63574,3.17871c.14697.7334.01611,1.49121-.36914,2.13184l-1.95068,3.25195c-.19824.3291-.18799.74805.02539,1.06836l.18896.28418c.30469.45703.92725.58105,1.38623.27637l.46094-.30664c.82031-.54883,1.8584-.65527,2.77734-.29004l3.22803,1.29102c.7583.30371,1.36768.91211,1.67139,1.67188l1.3476,3.36902c7.33649-3.57074,12.40533-11.10083,12.40533-19.79382,0-.5528-.0274-1.099-.06769-1.64166Z"/>
      </g>
    </g>
  </g>
</svg>