<?xml version="1.0" encoding="UTF-8"?>
<svg id="Glyph" xmlns="http://www.w3.org/2000/svg" version="1.1" viewBox="0 0 64 64">
  <path d="M32,25c4.96289,0,9-4.03711,9-9s-4.03711-9-9-9-9,4.03711-9,9,4.03711,9,9,9ZM29.2002,15.40039l3-4c.33105-.44238.95801-.53125,1.39941-.2002.44238.33105.53223.95801.2002,1.39941l-1.7998,2.40039h2c.37891,0,.72461.21387.89453.55273.16895.33887.13281.74414-.09473,1.04688l-3,4c-.19629.2627-.49609.40039-.80078.40039-.20898,0-.41895-.06543-.59863-.2002-.44238-.33105-.53223-.95801-.2002-1.39941l1.7998-2.40039h-2c-.37891,0-.72461-.21387-.89453-.55273-.16895-.33887-.13281-.74414.09473-1.04688Z" style="fill: #000; stroke-width: 0px;"/>
  <path d="M21,45h2v-1c0-.55127-.44873-1-1-1h-2v1c0,.55127.44873,1,1,1Z" style="fill: #000; stroke-width: 0px;"/>
  <path d="M44,44v-1h-2c-.55127,0-1,.44873-1,1v1h2c.55127,0,1-.44873,1-1Z" style="fill: #000; stroke-width: 0px;"/>
  <path d="M15,51h34c1.65002,0,3-1.35004,3-3v-6c0-.20001-.06-.39001-.16998-.54999l-2.97003-4.45001H15.14001l-2.97003,4.45001c-.10999.15997-.16998.34998-.16998.54999v6c0,1.64996,1.34998,3,3,3ZM39,44c0-1.65002,1.34998-3,3-3h3c.54999,0,1,.45001,1,1v2c0,1.64996-1.34998,3-3,3h-3c-.54999,0-1-.45001-1-1v-2ZM28,41h8c.54999,0,1,.45001,1,1s-.45001,1-1,1h-8c-.54999,0-1-.45001-1-1s.45001-1,1-1ZM28,45h8c.54999,0,1,.45001,1,1s-.45001,1-1,1h-8c-.54999,0-1-.45001-1-1s.45001-1,1-1ZM18,42c0-.54999.45001-1,1-1h3c1.65002,0,3,1.34998,3,3v2c0,.54999-.45001,1-1,1h-3c-1.65002,0-3-1.35004-3-3v-2Z" style="fill: #000; stroke-width: 0px;"/>
  <path d="M12.76001,33.96997l1.70001.42004,3.20996-5.13c-.17999-.16003-.40997-.26001-.66998-.26001h-4c-.54999,0-1,.45001-1,1v3c0,.45996.31.85999.76001.96997Z" style="fill: #000; stroke-width: 0px;"/>
  <path d="M51.23999,33.96997c.45001-.10999.76001-.51001.76001-.96997v-3c0-.54999-.45001-1-1-1h-4c-.26001,0-.48999.09998-.66998.26001l3.20996,5.13,1.70001-.42004Z" style="fill: #000; stroke-width: 0px;"/>
  <path d="M56,55h-7v-2h-8v2h-18v-2h-8v2h-7c-.54999,0-1,.45001-1,1s.45001,1,1,1h48c.54999,0,1-.45001,1-1s-.45001-1-1-1Z" style="fill: #000; stroke-width: 0px;"/>
  <path d="M47.56,35l-4.71002-7.53003c-.17999-.28998-.50995-.46997-.84998-.46997h-20c-.34003,0-.66998.17999-.84998.46997l-4.71002,7.53003h31.12Z" style="fill: #000; stroke-width: 0px;"/>
</svg>