<?xml version="1.0" encoding="UTF-8"?>
<svg xmlns="http://www.w3.org/2000/svg" version="1.1" viewBox="0 0 64 64">
  <!-- Generator: Adobe Illustrator 28.7.1, SVG Export Plug-In . SVG Version: 1.2.0 Build 142)  -->
  <g>
    <g id="Glyph">
      <g>
        <circle cx="47.99876" cy="42.00127" r="4"/>
        <path d="M47.99876,33.00127c-2.91699,0-5.50659,1.40112-7.15228,3.55908,0,0-15.76617-9.10986-15.7662-9.10988-.39327-.22652-.94116-.12298-1.23842.21055-.09046.10149-.18557.24971-.22297.38029l-1.13428,3.96387c-.12646.44141.06396.91211.46143,1.1416l3.46436,2c.15625.08984.32861.13379.49951.13379.26465,0,.52588-.10449.71924-.30469l2.31976-2.3988,9.86731,5.69818c-.14526.31781-.27704.6427-.38513.97894l-17.25751-3.04688c-.33437-.06018-.69192.07856-.9148.33127-.15813.1793-.27457.48298-.25757.72537l.29004,4.11328c.03223.45801.37207.83496.82422.91406l3.93945.69434c.05811.01074.11621.01562.17383.01562.38916,0,.75-.22754.9126-.59277l1.36163-3.05353,10.53564,1.86011c-.02264.25958-.03986.52081-.03986.78619,0,4.96289,4.0376,9,9,9s9-4.03711,9-9-4.0376-9-9-9ZM47.99876,48.00127c-3.30859,0-6-2.69141-6-6s2.69141-6,6-6,6,2.69141,6,6-2.69141,6-6,6Z"/>
        <path d="M41.67875,51.00127H7.99876c-.54999,0-1-.45001-1-1v-2c0-1.65002,1.34998-3,3-3h27.41998c.69,2.45996,2.22003,4.57001,4.26001,6Z"/>
        <path d="M51.99876,19.00127h-.81l2.46997,13.57001c-1.64996-1-3.58997-1.57001-5.65997-1.57001-.21997,0-.42999.01001-.65002.01996l-2.17999-12.01996h-3.16998c-.54999,0-1-.45001-1-1s.45001-1,1-1h9.59003l3.69995-3.71002c.39001-.39001,1.03003-.39001,1.42004,0,.38995.39001.38995,1.03003,0,1.41998l-4,4c-.19.18005-.44.29004-.71002.29004Z"/>
      </g>
    </g>
  </g>
</svg>