<?xml version="1.0" encoding="UTF-8"?>
<svg xmlns="http://www.w3.org/2000/svg" version="1.1" viewBox="0 0 64 64">
  <!-- Generator: Adobe Illustrator 28.7.1, SVG Export Plug-In . SVG Version: 1.2.0 Build 142)  -->
  <g>
    <g id="Glyph">
      <g>
        <path d="M32.0498,29.11035c-.09277-.28125-.05469-.58984.10254-.84082l2.04297-3.26953h-3.55957l-2.28027,4.86523,3.01562,1.20605c.46484.18555.7207.68652.59863,1.1709l-.93945,3.75977,4.32031-5.18457-2.72168-1.08887c-.27539-.11035-.4873-.33691-.5791-.61816Z"/>
        <path d="M32,16c-8.82227,0-16,7.17773-16,16s7.17773,16,16,16,16-7.17773,16-16-7.17773-16-16-16ZM45.62402,35.22949c-1.49512,6.3418-7.09766,10.77051-13.62402,10.77051s-12.12891-4.42871-13.62402-10.77051c-.12598-.53809.20703-1.07617.74414-1.20312.53418-.12402,1.07617.20703,1.20312.74414,1.28027,5.43457,6.08203,9.22949,11.67676,9.22949s10.39648-3.79492,11.67676-9.22949c.12695-.53711.66504-.86816,1.20312-.74414.53711.12695.87012.66504.74414,1.20312ZM37.37109,29.47168c.62355.24951.82593,1.05271.39746,1.56934,0,0-7.98362,9.57995-7.99997,9.59958-.29619.35541-.8105.45939-1.2217.25101-.41504-.21094-.62988-.68164-.5166-1.13379l1.78809-7.15332-3.18945-1.27539c-.52872-.21142-.77592-.8378-.53418-1.35352l3-6.40039c.16406-.35059.51758-.5752.90527-.5752h6c.36328,0,.69824.19727.875.51562.17578.31738.16602.70605-.02734,1.01465l-2.36621,3.78516s2.88291,1.15355,2.88965,1.15625ZM44.87988,29.97363c-.53104.121-1.07759-.21147-1.20312-.74414-1.28027-5.43457-6.08203-9.22949-11.67676-9.22949s-10.39648,3.79492-11.67676,9.22949c-.12695.53711-.66895.86621-1.20312.74414-.53711-.12695-.87012-.66504-.74414-1.20312,1.49512-6.3418,7.09766-10.77051,13.62402-10.77051s12.12891,4.42871,13.62402,10.77051c.12598.53809-.20703,1.07617-.74414,1.20313Z"/>
        <path d="M56,27h-2.58203c-.54492-2.35645-1.46094-4.57617-2.73145-6.61523l1.81934-1.82031c.39062-.39062.39062-1.02344,0-1.41406l-5.65625-5.65625c-.39062-.39062-1.02344-.39062-1.41406,0l-1.82031,1.81934c-2.03906-1.27051-4.25879-2.18652-6.61523-2.73145v-2.58203c0-.55273-.44727-1-1-1h-8c-.55273,0-1,.44727-1,1v2.58203c-2.35645.54492-4.57617,1.46094-6.61523,2.73145l-1.82031-1.81934c-.39062-.39062-1.02344-.39062-1.41406,0l-5.65625,5.65625c-.39062.39062-.39062,1.02344,0,1.41406l1.81934,1.82031c-1.27051,2.03906-2.18652,4.25879-2.73145,6.61523h-2.58203c-.55273,0-1,.44727-1,1v8c0,.55273.44727,1,1,1h2.58203c.54492,2.35645,1.46094,4.57617,2.73145,6.61523l-1.81934,1.82031c-.39062.39062-.39062,1.02344,0,1.41406l5.65625,5.65625c.39062.39062,1.02344.39062,1.41406,0l1.82031-1.81934c2.03906,1.27051,4.25879,2.18652,6.61523,2.73145v2.58203c0,.55273.44727,1,1,1h8c.55273,0,1-.44727,1-1v-2.58203c2.35645-.54492,4.57617-1.46094,6.61523-2.73145l1.82031,1.81934c.39062.39062,1.02344.39062,1.41406,0l5.65625-5.65625c.39062-.39062.39062-1.02344,0-1.41406l-1.81934-1.82031c1.27051-2.03906,2.18652-4.25879,2.73145-6.61523h2.58203c.55273,0,1-.44727,1-1v-8c0-.55273-.44727-1-1-1ZM32,50c-9.9248,0-18-8.0752-18-18s8.0752-18,18-18,18,8.0752,18,18-8.0752,18-18,18Z"/>
      </g>
    </g>
  </g>
</svg>