<?xml version="1.0" encoding="UTF-8"?>
<svg xmlns="http://www.w3.org/2000/svg" version="1.1" viewBox="0 0 64 64">
  <!-- Generator: Adobe Illustrator 28.7.1, SVG Export Plug-In . SVG Version: 1.2.0 Build 142)  -->
  <g>
    <g id="Glyph">
      <g>
        <path d="M32,11c.55225,0,1-.44775,1-1v-2c0-.55225-.44775-1-1-1s-1,.44775-1,1v2c0,.55225.44775,1,1,1Z"/>
        <path d="M18.56494,15.979c.19531.19531.45117.29297.70703.29297s.51172-.09766.70703-.29297c.39062-.39062.39062-1.02344,0-1.41406l-1.41406-1.41406c-.39062-.39062-1.02344-.39062-1.41406,0s-.39062,1.02344,0,1.41406l1.41406,1.41406Z"/>
        <path d="M14,27h-2c-.55225,0-1,.44775-1,1s.44775,1,1,1h2c.55225,0,1-.44775,1-1s-.44775-1-1-1Z"/>
        <path d="M45.43506,13.15088l-1.41406,1.41406c-.39062.39062-.39062,1.02344,0,1.41406.19531.19531.45117.29297.70703.29297s.51172-.09766.70703-.29297l1.41406-1.41406c.39062-.39062.39062-1.02344,0-1.41406s-1.02344-.39062-1.41406,0Z"/>
        <path d="M52,27h-2c-.55225,0-1,.44775-1,1s.44775,1,1,1h2c.55225,0,1-.44775,1-1s-.44775-1-1-1Z"/>
        <path d="M41,49h-18c-.55231,0-1,.44769-1,1,0,.55225.44769,1,1,1h18c.55231,0,1-.44775,1-1,0-.55231-.44769-1-1-1Z"/>
        <path d="M32.18896,30.58447c-.18799-.26074-.23926-.5957-.1377-.90088l.56152-1.68359h-1.8584l-1.42871,5h2.67432c.55225,0,1,.44775,1,1v1.14111l2.30029-4.14111h-2.30029c-.32129,0-.62305-.1543-.81104-.41553Z"/>
        <path d="M42,16.81934c-3.22119-2.8833-7.38379-4.20654-11.71436-3.72363-6.8374.75928-12.38086,6.27002-13.18018,13.10303-.57422,4.90869,1.18848,9.61523,4.83496,12.9126,1.07806.97473,1.76923,2.35767,1.98242,3.88867h16.15961c.22681-1.5246.95923-2.94653,2.10065-4.00195,3.06104-2.83008,4.81689-6.83887,4.81689-10.99805,0-4.26172-1.82227-8.33691-5-11.18066ZM29.29297,20.29297c.39062-.39062,1.02344-.39062,1.41406,0l.29297.29297v-3.58594c0-.55225.44775-1,1-1s1,.44775,1,1v3.58594l.29297-.29297c.39062-.39062,1.02344-.39062,1.41406,0s.39062,1.02344,0,1.41406l-2,2c-.19531.19531-.45117.29297-.70703.29297s-.51172-.09766-.70703-.29297l-2-2c-.39062-.39062-.39062-1.02344,0-1.41406ZM37.87402,30.48584s-4.99438,8.98987-5,9c-.49121.88416-1.87402.52142-1.87402-.48584v-4h-3c-.31396,0-.60938-.14746-.79834-.39795s-.24951-.5752-.16309-.87695l2-7c.12256-.4292.51514-.7251.96143-.7251h4c.32129,0,.62305.1543.81104.41553.18799.26074.23926.5957.1377.90088l-.56152,1.68359h2.61279c.35449,0,.68213.1875.86182.49268.17969.30566.18457.68311.01221.99316Z"/>
        <path d="M41,45h-18c-.55231,0-1,.44769-1,1,0,.55225.44769,1,1,1h18c.55231,0,1-.44775,1-1,0-.55231-.44769-1-1-1Z"/>
        <path d="M25,54c0,1.6543,1.3457,3,3,3h8c1.6543,0,3-1.3457,3-3v-1h-14v1Z"/>
      </g>
    </g>
  </g>
</svg>