<?xml version="1.0" encoding="UTF-8"?>
<svg xmlns="http://www.w3.org/2000/svg" version="1.1" viewBox="0 0 48 48">
  <!-- Generator: Adobe Illustrator 28.7.1, SVG Export Plug-In . SVG Version: 1.2.0 Build 142)  -->
  <g>
    <g id="Glyph">
      <g>
        <path d="M42.42822,9.59619c-.34912-.16553-.76318-.11475-1.06152.12988l-9.3667,7.66364v-.88971h-6v6h6v-2.52612l9-7.36353v11.88965h-6c-.55225,0-1,.44775-1,1v2.5c0,2.48145,2.01855,4.5,4.5,4.5s4.5-2.01855,4.5-4.5V10.5c0-.38623-.22266-.73828-.57178-.90381Z"/>
        <path d="M16,16.5c0-.55225-.44775-1-1-1h-4c-.55225,0-1,.44775-1,1v2h6v-2Z"/>
        <rect x="14" y="30.5" width="12" height="3"/>
        <path d="M8,28.5h24v-4h-7c-.55231,0-1-.44775-1-1v-8c0-.55231.44769-1,1-1h7v-3h-14v8c0,.55225-.44769,1-1,1h-9c-1.10455,0-2,.89539-2,2v4c0,1.10455.89545,2,2,2ZM11,23.5h4c.55225,0,1,.44775,1,1s-.44775,1-1,1h-4c-.55225,0-1-.44775-1-1s.44775-1,1-1Z"/>
        <path d="M17.5,9.5h15c.82843,0,1.5-.67157,1.5-1.5s-.67157-1.5-1.5-1.5h-15c-.82843,0-1.5.67157-1.5,1.5s.67157,1.5,1.5,1.5Z"/>
        <path d="M32,35.5H8c-1.65686,0-3,1.34314-3,3,0,1.64996,1.34998,3,3,3h24c1.65002,0,3-1.35004,3-3,0-1.65686-1.34314-3-3-3ZM10,39.5c-.54999,0-1-.45001-1-1s.45001-1,1-1,1,.45001,1,1-.45001,1-1,1ZM14,39.5c-.54999,0-1-.45001-1-1s.45001-1,1-1,1,.45001,1,1-.45001,1-1,1ZM18,39.5c-.54999,0-1-.45001-1-1s.45001-1,1-1,1,.45001,1,1-.45001,1-1,1ZM22,39.5c-.54999,0-1-.45001-1-1s.45001-1,1-1,1,.45001,1,1-.45001,1-1,1ZM26,39.5c-.54999,0-1-.45001-1-1s.45001-1,1-1,1,.45001,1,1-.45001,1-1,1ZM30,39.5c-.54999,0-1-.45001-1-1s.45001-1,1-1,1,.45001,1,1-.45001,1-1,1Z"/>
      </g>
    </g>
  </g>
</svg>