<?xml version="1.0" encoding="UTF-8"?>
<svg xmlns="http://www.w3.org/2000/svg" version="1.1" viewBox="0 0 48 48">
  <!-- Generator: Adobe Illustrator 28.7.1, SVG Export Plug-In . SVG Version: 1.2.0 Build 142)  -->
  <g>
    <g id="Glyph">
      <g>
        <path d="M7,39.00001c0,2.20605,1.79395,4,4,4s4-1.79395,4-4v-5H7v5Z"/>
        <rect x="33" y="29.00001" width="8" height="3"/>
        <rect x="7" y="29.00001" width="8" height="3"/>
        <path d="M33,39.00001c0,2.20605,1.79395,4,4,4s4-1.79395,4-4v-5h-8v5Z"/>
        <path d="M41.5,24.00001h-3.5v-15.88153c0-1.45087-.97778-2.78363-2.40204-3.0603-1.91528-.37207-3.59796,1.09198-3.59796,2.94183v5.8866c0,.99664-.67822,1.92303-1.66156,2.08539-1.25122.20654-2.33844-.75848-2.33844-1.97198v-5.39923c0-1.67023-1.12866-3.19019-2.76483-3.52539-2.24951-.46088-4.23517,1.25464-4.23517,3.42462v12c0,.82715-.67285,1.5-1.5,1.5s-1.5-.67285-1.5-1.5v-11.32263c0-2.08807-1.52301-3.95581-3.60126-4.15796-2.38446-.23193-4.39874,1.64294-4.39874,3.98059v15h-3.5c-.82843,0-1.5.67157-1.5,1.5s.67157,1.5,1.5,1.5h9c.82843,0,1.5-.67157,1.5-1.5s-.67157-1.5-1.5-1.5h-3.5v-14.8866c0-.9967.67822-1.9231,1.66156-2.08545,1.25122-.20654,2.33844.75854,2.33844,1.97205v11.39917c0,1.67023,1.12866,3.19019,2.76483,3.52545,2.24951.46082,4.23517-1.2547,4.23517-3.42462v-12c0-.82715.67285-1.5,1.5-1.5s1.5.67285,1.5,1.5v5.5c0,2.33759,2.01428,4.21246,4.39874,3.98053,2.07825-.20215,3.60126-2.06989,3.60126-4.1579v-5.82263c0-.55176.44824-1,1-1s1,.44824,1,1v16h-3.5c-.82843,0-1.5.67157-1.5,1.5s.67157,1.5,1.5,1.5h9c.82843,0,1.5-.67157,1.5-1.5s-.67157-1.5-1.5-1.5Z"/>
      </g>
    </g>
  </g>
</svg>