<?xml version="1.0" encoding="UTF-8"?>
<svg id="Glyph" xmlns="http://www.w3.org/2000/svg" version="1.1" viewBox="0 0 48 48">
  <path d="M11,38h26v-20H11v20ZM31,19h4c.54999,0,1,.45001,1,1s-.45001,1-1,1h-1v7c0,.54999-.45001,1-1,1s-1-.45001-1-1v-7h-1c-.54999,0-1-.45001-1-1s.45001-1,1-1ZM26,20c0-.54999.45001-1,1-1s1,.45001,1,1v8c0,.54999-.45001,1-1,1s-1-.45001-1-1v-8ZM25.71002,31.28998l2,2c.38995.39001.38995,1.03003,0,1.41998l-2,2c-.3877.38763-1.03064.36987-1.42004,0-.38995-.38995-.38995-1.02997,0-1.41998l.30005-.28998h-3.59003c-.54999,0-1-.45001-1-1s.45001-1,1-1h3.59003l-.30005-.29004c-.38995-.38995-.38995-1.02997,0-1.41998.39001-.39001,1.03003-.39001,1.42004,0ZM19.65002,19.06c.51996-.19,1.08997.07001,1.28998.58997l.56,1.5.56-1.5c.20001-.51996.78003-.77997,1.28998-.58997.52002.20001.78003.76996.59003,1.28998l-1.37,3.65002s1.36633,3.64026,1.37,3.6499c.23297.62079-.27283,1.3501-.94,1.3501-.40002,0-.78998-.25-.94-.65002l-.56-1.5-.56,1.5c-.15002.39996-.53986.64996-.93982.65002-.67023.00012-1.17987-.69403-.94019-1.35004l1.37-3.64996-1.37-3.65002c-.19-.52002.07001-1.08997.59003-1.28998ZM12,20c0-.54999.45001-1,1-1h3c.54999,0,1,.45001,1,1s-.45001,1-1,1h-2v2h2c.54999,0,1,.45001,1,1s-.45001,1-1,1h-2v2h2c.54999,0,1,.45001,1,1s-.45001,1-1,1h-3c-.54999,0-1-.45001-1-1v-8Z" fill="#000" stroke-width="0"/>
  <path d="M40,9h-2.98999c0-2.21002-1.79004-4-4-4-2.20001,0-4,1.78998-4,4h2c0-1.10004.89996-2,2-2,1.10999,0,2,.89996,2,2h-4c0,1.09998.89996,2,2,2,.56,0,1,.45001,1,1s-.44,1-1,1c-2.20001,0-4-1.79004-4-4h-10.01001c0-2.21002-1.78998-4-4-4s-4,1.78998-4,4h2c0-1.10004.90002-2,2-2s2,.89996,2,2h-4c0,1.09998.90002,2,2,2,.54999,0,1,.45001,1,1s-.45001,1-1,1c-2.21002,0-4-1.79004-4-4h-3c-1.65002,0-3,1.34998-3,3v28c0,1.64996,1.34998,3,3,3h32c1.65002,0,3-1.35004,3-3V12c0-1.65002-1.34998-3-3-3ZM39,39c0,.54999-.45001,1-1,1H10c-.54999,0-1-.45001-1-1v-22c0-.54999.45001-1,1-1h28c.54999,0,1,.45001,1,1v22Z" fill="#000" stroke-width="0"/>
</svg>