<?xml version="1.0" encoding="UTF-8"?>
<svg id="Glyph" xmlns="http://www.w3.org/2000/svg" version="1.1" viewBox="0 0 48 48">
  <path d="M16.38,36.24011l-2.66998.79999c-.42004.13-.71002.52002-.71002.96002v4c0,.54999.45001,1,1,1h9v-2.17004c-.26001-.08997-.51001-.21997-.73999-.38995l-5.88-4.20001Z" fill="#000" stroke-width="0"/>
  <path d="M34.28998,37.0401l-2.65997-.79999-5.89001,4.20001c-.22998.16998-.47998.29999-.73999.38995v2.17004h9c.54999,0,1-.45001,1-1v-4c0-.44-.28998-.83002-.71002-.96002Z" fill="#000" stroke-width="0"/>
  <path d="M32,33.00012v-2h-16v2c0,.32275.15625.62598.41895.81396l7,5c.17383.12402.37695.18604.58105.18604s.40723-.06201.58105-.18604l7-5c.2627-.18799.41895-.49121.41895-.81396Z" fill="#000" stroke-width="0"/>
  <path d="M32,17.00012h-16v12h16v-12ZM27,24.00012c0,1.6543-1.3457,3-3,3s-3-1.3457-3-3v-2c0-1.6543,1.3457-3,3-3s3,1.3457,3,3v2Z" fill="#000" stroke-width="0"/>
  <path d="M24,21.00012c-.55176,0-1,.44873-1,1v2c0,.55127.44824,1,1,1s1-.44873,1-1v-2c0-.55127-.44824-1-1-1Z" fill="#000" stroke-width="0"/>
  <path d="M30.45691,11.79254c-1.99628-3.15527-5.2807-6.09119-5.79773-6.54437-.37695-.33105-.94141-.33105-1.31836,0-.51703.45319-3.80145,3.3891-5.79773,6.54437,2.08386-.51282,4.24078-.79242,6.45691-.79242s4.37305.2796,6.45691.79242Z" fill="#000" stroke-width="0"/>
  <path d="M31.66107,14.21838c-2.43494-.79327-5.00177-1.21826-7.66107-1.21826s-5.22614.42499-7.66107,1.21826c-.09064.26398-.16077.52423-.2157.78174h15.75354c-.05493-.25751-.12506-.51776-.2157-.78174Z" fill="#000" stroke-width="0"/>
  <path d="M14,33.00012v-14.06l-1,.7276v-1.6676c0-.55225-.44727-1-1-1s-1,.44775-1,1v3.12274l-2,1.4552v-1.57794c0-.55225-.44727-1-1-1s-1,.44775-1,1v3.03314l-1.59003,1.15686c-.25995.19-.40997.48999-.40997.81v10c0,.31.15002.60999.39001.78998.17999.14001.39001.21002.60999.21002.09003,0,.17999-.01001.26001-.04004l8.27002-2.25995c-.34003-.49005-.53003-1.09003-.53003-1.70001ZM11,31.00012h-3c-.55273,0-1-.44775-1-1s.44727-1,1-1h3c.55273,0,1,.44775,1,1s-.44727,1-1,1Z" fill="#000" stroke-width="0"/>
  <path d="M42.59003,25.19012l-1.59003-1.15686v-3.03314c0-.55225-.44727-1-1-1s-1,.44775-1,1v1.57794l-2-1.4552v-3.12274c0-.55225-.44727-1-1-1s-1,.44775-1,1v1.6676l-1-.7276v14.06c0,.60999-.19,1.20996-.53003,1.70001l8.27002,2.25995c.08002.03003.16998.04004.26001.04004.21997,0,.42999-.07001.60999-.21002.23999-.17999.39001-.47998.39001-.78998v-10c0-.32001-.15002-.62-.40997-.81ZM40,31.00012h-3c-.55273,0-1-.44775-1-1s.44727-1,1-1h3c.55273,0,1,.44775,1,1s-.44727,1-1,1Z" fill="#000" stroke-width="0"/>
</svg>