<?xml version="1.0" encoding="UTF-8"?>
<svg id="Glyph" xmlns="http://www.w3.org/2000/svg" version="1.1" viewBox="0 0 64 64">
  <path d="M38.67399,10.90262c-1.57227-.18359-3.41504-.43164-5.1709-.88672l-11.28906-2.92676c-.53418-.14355-1.08105.18262-1.21875.7168-.13867.53418.18262,1.08008.7168,1.21875l2.32416.60254,2.23538,4.48725c.23722.47619.8669.68512,1.34182.44927.49414-.24707.69531-.84668.44922-1.3418l-1.45923-2.92914,6.39771,1.65863c1.87305.48633,3.80176.74707,5.44043.9375,9.44043,1.09961,16.55859,9.10254,16.55859,18.61426,0,9.5127-7.11816,17.51562-16.55664,18.61523-2.05371.23828-4.20117.75293-6.75977,1.61816l-5.30658,1.7959,1.69232-3.54492c.23828-.49805.02734-1.09473-.47168-1.33301-.49805-.23926-1.09473-.02734-1.33301.47168l-2.53052,5.30066-2.01733.68274c-.5234.17675-.80368.74504-.62699,1.26748.16724.49449.7436.80493,1.26761.62705l9.9668-3.37305c2.42188-.81934,4.43945-1.30469,6.35059-1.52637,10.44727-1.2168,18.3252-10.07422,18.3252-20.60156s-7.87891-19.38379-18.32617-20.60059Z" style="fill: #000; stroke-width: 0px;"/>
  <path d="M42.09501,16.38943l-6.15051,4.46863v3.30103l5.96851,4.33636,2.86572-.63654,2.79565-7.28247c.00238-.00623.00781-.01007.01031-.01624-1.51349-1.74554-3.38037-3.1687-5.48969-4.17078Z" style="fill: #000; stroke-width: 0px;"/>
  <path d="M28.59629,40.39743l1.11908-2.92395-2.28802-7.04102-3.12854-.6394-5.81195,4.70667c.44501,2.44897,1.42145,4.71002,2.80988,6.66528l7.29956-.76758Z" style="fill: #000; stroke-width: 0px;"/>
  <path d="M29.98869,15.51242l4.95581,3.60016,4.95581-3.60016c-1.56677-.48651-3.23108-.74945-4.95581-.74945s-3.38904.26294-4.95581.74945Z" style="fill: #000; stroke-width: 0px;"/>
  <path d="M51.3654,34.73965l-6.09949-4.93951-2.80096.62219-2.29132,7.05115,1.11908,2.92395,7.29956.76758c1.34344-1.89197,2.30914-4.06732,2.77313-6.42535Z" style="fill: #000; stroke-width: 0px;"/>
  <path d="M51.68571,31.5032c0-3.33929-.99359-6.44604-2.68524-9.06085l-2.28644,5.95636,4.92676,3.99054c.01556-.29529.04492-.58698.04492-.88605Z" style="fill: #000; stroke-width: 0px;"/>
  <polygon points="38.38688 36.50027 40.51481 29.95145 34.9445 25.90457 29.37419 29.95145 31.50212 36.50027 38.38688 36.50027" style="fill: #000; stroke-width: 0px;"/>
  <path d="M41.19645,42.39773l-2.39606,5.38068c3.21283-.76154,6.06567-2.44531,8.26788-4.76337l-5.87183-.61731Z" style="fill: #000; stroke-width: 0px;"/>
  <path d="M22.07304,20.81467l2.70056,7.03461,3.19348.65265,5.97742-4.34283v-3.30103l-6.15051-4.46863c-2.21399,1.05182-4.16956,2.56049-5.72095,4.42523Z" style="fill: #000; stroke-width: 0px;"/>
  <path d="M34.9445,48.24441c.50433,0,1.00098-.0318,1.49408-.07568l3.05841-6.86975-1.07117-2.79871h-6.96265l-1.07117,2.79871,3.05841,6.86975c.4931.04388.98975.07568,1.49408.07568Z" style="fill: #000; stroke-width: 0px;"/>
  <path d="M22.82072,43.01504c2.20221,2.31805,5.05505,4.00183,8.26788,4.76337l-2.39606-5.38068-5.87183.61731Z" style="fill: #000; stroke-width: 0px;"/>
  <path d="M20.68437,22.77804c-1.56305,2.54468-2.48108,5.52618-2.48108,8.72516,0,.21161.02393.41718.03174.62695l4.60693-3.73145-2.15759-5.62067Z" style="fill: #000; stroke-width: 0px;"/>
  <path d="M16.99961,25.93613c.96362-.01018,1.37016-1.2793.55524-1.82258l-3.26593-2.17731c-.92371-5.10254-2.74243-10.02338-5.43134-14.50531-.28418-.47266-.89746-.62793-1.37207-.34277-.47363.28418-.62695.89844-.34277,1.37207,2.22266,3.70496,3.81671,7.72626,4.78107,11.89929l-3.36896-2.24597c-.46191-.30664-1.08105-.18262-1.38672.27734-.30664.45996-.18262,1.08008.27734,1.38672l5.01837,3.34558c.34192,2.13806.53632,4.30353.53632,6.4845v1.33789h-5c-.55273,0-1,.44727-1,1s.44727,1,1,1h5v1.33789c0,2.18097-.1944,4.34644-.53632,6.4845l-5.01837,3.34558c-.45987.30658-.58394.92653-.27752,1.38646.28729.43121.93146.57949,1.38689.2776l3.36896-2.24597c-.96436,4.17303-2.55841,8.19434-4.78107,11.89929-.28418.47363-.13086,1.08789.3428,1.37208.46838.28101,1.09208.12382,1.37205-.34279,2.6889-4.48193,4.50763-9.40277,5.43134-14.50531l3.26593-2.17731c.45996-.30664.58398-.92676.27734-1.38672-.30566-.45996-.92676-.58398-1.38672-.27734l-1.75665,1.17114c.19366-1.65607.31134-3.32397.31134-5.00122v-1.33789h1c.55273,0,1-.44727,1-1s-.44727-1-1-1h-1v-1.33789c0-1.67725-.11768-3.34515-.31134-5.00122,0,0,1.75149,1.1677,1.75686,1.17128.16222.10812.35732.16041.55393.15838Z" style="fill: #000; stroke-width: 0px;"/>
</svg>