<?xml version="1.0" encoding="UTF-8"?>
<svg xmlns="http://www.w3.org/2000/svg" version="1.1" viewBox="0 0 64 64">
  <!-- Generator: Adobe Illustrator 28.7.1, SVG Export Plug-In . SVG Version: 1.2.0 Build 142)  -->
  <g>
    <g id="Glyph">
      <g>
        <path d="M45,53v3c0,.54999-.45001,1-1,1H12c-.54999,0-1-.45001-1-1v-3h34Z"/>
        <path d="M52,23h-1v-2c0-.27002-.10999-.52002-.28998-.71002l-2-2c-.39001-.39001-1.03003-.39001-1.42004,0-.38995.39001-.38995,1.03003,0,1.41998l1.71002,1.70001v1.59003h-1c-.54999,0-1,.45001-1,1v6c0,.54999.45001,1,1,1h1v13c0,1.09998-.90002,2-2,2s-2-.90002-2-2v-5c0-1.65002-1.34998-3-3-3h-3v-13h-22v28h22v-13h3c.54999,0,1,.45001,1,1v5c0,2.20996,1.78998,4,4,4s4-1.79004,4-4v-13h1c.54999,0,1-.45001,1-1v-6c0-.54999-.45001-1-1-1ZM35,48c0,.54999-.45001,1-1,1h-12c-.54999,0-1-.45001-1-1v-22c0-.54999.45001-1,1-1h12c.54999,0,1,.45001,1,1v22Z"/>
        <path d="M28,39c.55176,0,1-.44873,1-1-.00781-.30469-.42383-1.17578-1-2.14648-.5752.97021-.99121,1.84131-1,2.14746,0,.55078.44922.99902,1,.99902Z"/>
        <path d="M37,10c0-1.6543-1.3457-3-3-3h-12c-1.6543,0-3,1.3457-3,3v5h18v-5ZM32,12h-8c-.55273,0-1-.44775-1-1s.44727-1,1-1h8c.55273,0,1,.44775,1,1s-.44727,1-1,1Z"/>
        <path d="M37,17h-18c-1.10457,0-2,.89543-2,2v2h22v-2c0-1.10457-.89543-2-2-2Z"/>
        <path d="M23,47h10v-20h-10v20ZM27.17676,33.43164c.375-.54102,1.27148-.54102,1.64648,0,.6543.94775,2.17676,3.29004,2.17676,4.56836,0,1.6543-1.3457,3-3,3s-3-1.3457-3-3c0-1.27832,1.52246-3.62061,2.17676-4.56836Z"/>
      </g>
    </g>
  </g>
</svg>