<?xml version="1.0" encoding="UTF-8"?>
<svg xmlns="http://www.w3.org/2000/svg" version="1.1" viewBox="0 0 48 48">
  <!-- Generator: Adobe Illustrator 28.7.1, SVG Export Plug-In . SVG Version: 1.2.0 Build 142)  -->
  <g>
    <g id="Glyph">
      <g>
        <path d="M26,13c.55273,0,1-.44775,1-1v-2c0-.55225-.44727-1-1-1s-1,.44775-1,1v2c0,.55225.44727,1,1,1Z"/>
        <path d="M28,15h2c.55273,0,1-.44775,1-1s-.44727-1-1-1h-2c-.55273,0-1,.44775-1,1s.44727,1,1,1Z"/>
        <path d="M27,18v-2c0-.55225-.44727-1-1-1s-1,.44775-1,1v2c0,.55225.44727,1,1,1s1-.44775,1-1Z"/>
        <path d="M22,15h2c.55273,0,1-.44775,1-1s-.44727-1-1-1h-2c-.55273,0-1,.44775-1,1s.44727,1,1,1Z"/>
        <path d="M39,17c0-.55225-.44727-1-1-1s-1,.44775-1,1v2c0,.55225.44727,1,1,1s1-.44775,1-1v-2Z"/>
        <path d="M39,21c0,.55225.44727,1,1,1h2c.55273,0,1-.44775,1-1s-.44727-1-1-1h-2c-.55273,0-1,.44775-1,1Z"/>
        <path d="M38,26c.55273,0,1-.44775,1-1v-2c0-.55225-.44727-1-1-1s-1,.44775-1,1v2c0,.55225.44727,1,1,1Z"/>
        <path d="M33,21c0,.55225.44727,1,1,1h2c.55273,0,1-.44775,1-1s-.44727-1-1-1h-2c-.55273,0-1,.44775-1,1Z"/>
        <path d="M35,9c.55273,0,1-.44775,1-1v-2c0-.55225-.44727-1-1-1s-1,.44775-1,1v2c0,.55225.44727,1,1,1Z"/>
        <path d="M37,11h2c.55273,0,1-.44775,1-1s-.44727-1-1-1h-2c-.55273,0-1,.44775-1,1s.44727,1,1,1Z"/>
        <path d="M36,14v-2c0-.55225-.44727-1-1-1s-1,.44775-1,1v2c0,.55225.44727,1,1,1s1-.44775,1-1Z"/>
        <path d="M31,11h2c.55273,0,1-.44775,1-1s-.44727-1-1-1h-2c-.55273,0-1,.44775-1,1s.44727,1,1,1Z"/>
        <path d="M20.26208,33.59406c-.11426-.35278-.46497-.59406-.86218-.59406h-10.7998c-.39722,0-.74792.24127-.86218.59406l-2.69995,8.33331c-.08173.25232-.02985.52533.13977.73694.17047.21118.43768.33569.72241.33569h16.19971c.28473,0,.55194-.12451.72241-.33569.16962-.21161.2215-.48462.13977-.73694l-2.69995-8.33331Z"/>
        <path d="M40.26208,33.59406c-.11426-.35278-.46497-.59406-.86218-.59406h-10.7998c-.39722,0-.74792.24127-.86218.59406l-2.69995,8.33331c-.08173.25232-.02985.52533.13977.73694.17047.21118.43768.33569.72241.33569h16.19971c.28473,0,.55194-.12451.72241-.33569.16962-.21161.2215-.48462.13977-.73694l-2.69995-8.33331Z"/>
        <path d="M17.73792,21.59406l-2.69995,8.33331c-.08173.25232-.02985.52533.13977.73694.17047.21118.43768.33569.72241.33569h16.19971c.28473,0,.55194-.12451.72241-.33569.16962-.21161.2215-.48462.13977-.73694l-2.69995-8.33331c-.11426-.35278-.46497-.59406-.86218-.59406h-10.7998c-.39722,0-.74792.24127-.86218.59406Z"/>
        <path d="M6,14c0,.53076.14355,1.04736.4082,1.5-.26465.45264-.4082.96924-.4082,1.5,0,1.6543,1.3457,3,3,3,.53125,0,1.04785-.14355,1.5-.4082.9043.5293,2.0957.5293,3,0,.45215.26465.96875.4082,1.5.4082,1.6543,0,3-1.3457,3-3,0-.23877-.02832-.47412-.08203-.70166.6709-.55859,1.08203-1.39453,1.08203-2.29834,0-1.30566-.83887-2.41895-2.00488-2.83057.00293-.05615.00488-.11279.00488-.16943,0-1.6543-1.3457-3-3-3-.53125,0-1.04785.14355-1.5.4082-.9043-.5293-2.0957-.5293-3,0-.45215-.26465-.96875-.4082-1.5-.4082-1.6543,0-3,1.3457-3,3,0,.90381.41113,1.73975,1.08203,2.29834-.05371.22754-.08203.46289-.08203.70166Z"/>
      </g>
    </g>
  </g>
</svg>