<?xml version="1.0" encoding="UTF-8"?>
<svg xmlns="http://www.w3.org/2000/svg" version="1.1" viewBox="0 0 64 64">
  <!-- Generator: Adobe Illustrator 28.7.1, SVG Export Plug-In . SVG Version: 1.2.0 Build 142)  -->
  <g>
    <g id="Glyph">
      <g>
        <path d="M16,19h-4c-.53003,0-.96002.40997-1,.94l-1.94,31.06h9.88l-1.94-31.06c-.03998-.53003-.46997-.94-1-.94Z"/>
        <path d="M55,53H9c-1.10455,0-2,.89539-2,2,0,1.09998.90002,2,2,2h46c1.09998,0,2-.90002,2-2,0-1.10461-.89545-2-2-2Z"/>
        <path d="M11,15.17285v.82715c0,.55273.44727,1,1,1h4c.55273,0,1-.44727,1-1v-.3916c.93555.49805,2.15625.51367,3.11035.00098.47461.25488,1.00879.39062,1.55957.39062,1.83594,0,3.33008-1.49414,3.33008-3.33008,0-.79004-.28125-1.54492-.78711-2.14062.00391-.06445.00684-.13086.00684-.19922,0-1.83594-1.49414-3.33008-3.33008-3.33008-.70801,0-1.38477.22461-1.94531.62695-1.11133-.80469-2.77734-.80469-3.88867,0-.56055-.40234-1.2373-.62695-1.94531-.62695-1.29883,0-2.44531.74121-2.99121,1.88867-1.1543.54785-1.89941,1.69824-1.89941,3.00098,0,1.64648,1.2041,3.01758,2.78027,3.2832Z"/>
        <path d="M21,24v27h8v-20c0-2.76001,2.23999-5,5-5h5v-2c0-.54999-.45001-1-1-1h-16c-.54999,0-1,.45001-1,1ZM24,28c0-.55273.44727-1,1-1s1,.44727,1,1v2c0,.55273-.44727,1-1,1s-1-.44727-1-1v-2ZM24,34c0-.55273.44727-1,1-1s1,.44727,1,1v2c0,.55273-.44727,1-1,1s-1-.44727-1-1v-2ZM24,40c0-.55273.44727-1,1-1s1,.44727,1,1v2c0,.55273-.44727,1-1,1s-1-.44727-1-1v-2ZM24,46c0-.55273.44727-1,1-1s1,.44727,1,1v2c0,.55273-.44727,1-1,1s-1-.44727-1-1v-2Z"/>
        <path d="M48,42v-1h-1c-1.6543,0-3,1.3457-3,3v1h1c1.6543,0,3-1.3457,3-3Z"/>
        <path d="M31,31v2h24v-2c0-1.65002-1.34998-3-3-3h-18c-1.65002,0-3,1.34998-3,3Z"/>
        <path d="M38,41v1c0,1.6543,1.3457,3,3,3h1v-1c0-1.6543-1.3457-3-3-3h-1Z"/>
        <path d="M44,51h11v-16h-24v16h11v-4h-1c-2.75684,0-5-2.24316-5-5v-2c0-.55273.44727-1,1-1h2c1.12994,0,2.16174.39099,3,1.02557v-2.02557c0-.54999.45001-1,1-1s1,.45001,1,1v2.02557c.83826-.63458,1.87006-1.02557,3-1.02557h2c.55273,0,1,.44727,1,1v2c0,2.75684-2.24316,5-5,5h-1v4Z"/>
      </g>
    </g>
  </g>
</svg>