<?xml version="1.0" encoding="UTF-8"?>
<svg id="Glyph" xmlns="http://www.w3.org/2000/svg" version="1.1" viewBox="0 0 48 48">
  <circle cx="13.92822" cy="14" r="2" fill="#000" stroke-width="0"/>
  <path d="M20.72266,20.23242l2-3.46484c.13232-.22949.16846-.50293.09961-.75879-.06836-.25586-.23633-.47461-.46582-.60742-.50684-.29199-.80957-.81641-.80957-1.40137s.30273-1.10938.80957-1.40137c.22949-.13281.39746-.35156.46582-.60742.06885-.25586.03271-.5293-.09961-.75879l-2-3.46484c-.13281-.22949-.35107-.39746-.60742-.46582-.25684-.06934-.5293-.03223-.75928.09961-.50684.29297-1.11133.29199-1.61816.00098-.50684-.29297-.80957-.81738-.80957-1.40234,0-.55273-.44775-1-1-1h-4c-.55225,0-1,.44727-1,1,0,.58496-.30273,1.10938-.80957,1.40234-.50684.29102-1.11133.29199-1.61816-.00098-.23047-.13184-.50391-.16895-.75928-.09961-.25635.06836-.47461.23633-.60742.46582l-2,3.46484c-.13232.22949-.16846.50293-.09961.75879.06836.25586.23633.47461.46582.60742.50684.29199.80957.81641.80957,1.40137s-.30273,1.10938-.80957,1.40137c-.22949.13281-.39746.35156-.46582.60742-.06885.25586-.03271.5293.09961.75879l2,3.46484c.13281.22949.35107.39746.60742.46582.25537.06641.52881.03125.75928-.09961.50684-.29297,1.11133-.29199,1.61816-.00098.50684.29297.80957.81738.80957,1.40234,0,.55273.44775,1,1,1h4c.55225,0,1-.44727,1-1,0-.58496.30273-1.10938.80957-1.40234.50684-.29102,1.11133-.29199,1.61816.00098.22998.13086.50244.16602.75928.09961.25635-.06836.47461-.23633.60742-.46582ZM13.92822,18c-2.20557,0-4-1.79395-4-4s1.79443-4,4-4,4,1.79395,4,4-1.79443,4-4,4Z" fill="#000" stroke-width="0"/>
  <rect x="8" y="29" width="10" height="14" rx="2" ry="2" fill="#000" stroke-width="0"/>
  <rect x="20" y="25" width="10" height="18" rx="2" ry="2" fill="#000" stroke-width="0"/>
  <rect x="32" y="21" width="10" height="22" rx="2" ry="2" fill="#000" stroke-width="0"/>
  <path d="M42.81396,12.41895l-5-7c-.37598-.52539-1.25195-.52539-1.62793,0l-5,7c-.21729.30469-.24658.70508-.0752,1.03906.17139.33301.51465.54199.88916.54199h2v4c0,.55273.44775,1,1,1h4c.55225,0,1-.44727,1-1v-4h2c.37451,0,.71777-.20898.88916-.54199.17139-.33398.14209-.73438-.0752-1.03906Z" fill="#000" stroke-width="0"/>
</svg>