<?xml version="1.0" encoding="UTF-8"?>
<svg xmlns="http://www.w3.org/2000/svg" version="1.1" viewBox="0 0 48 48">
  <!-- Generator: Adobe Illustrator 28.7.1, SVG Export Plug-In . SVG Version: 1.2.0 Build 142)  -->
  <g>
    <g id="Glyph">
      <g>
        <path d="M26.37,31.38565l1.09003-11.40002c-.69-.19-1.29004-.65002-1.67004-1.28003l-1.38995-2.35999c-.39001-.66998-.5-1.46997-.30005-2.20996.11005-.42004.32001-.81006.61005-1.14001-.11005-.12-.20001-.25-.28003-.39001h-2.79999c-.46002,0-.90002.20001-1.20001.53998-.31.34003-.46997.79004-.41998,1.25l1.62,16.99005h4.73999Z"/>
        <circle cx="33" cy="12.99564" r="1"/>
        <path d="M26.44513,14.11716c-.42183.23774-.57037.79008-.32385,1.2074l1.39282,2.35754c.24268.41016.76819.55243,1.18347.31702.43494-.24652.95197-.24182,1.38519.01025.41272.24139.64941.64648.64941,1.11133,0,.48322.39136.875.875.875h2.78564c.48364,0,.875-.39178.875-.875,0-.46484.23669-.86993.64941-1.11133.43323-.25122.95026-.25635,1.38519-.01025.41699.23541.94165.09314,1.18347-.31702l1.39282-2.35754c.24677-.4177.09691-.96984-.32385-1.2074-.42468-.23926-.66821-.64813-.66821-1.12152s.24352-.88224.66818-1.1215c.4218-.23765.57068-.7897.32389-1.20748l-1.39282-2.35754c-.24182-.40887-.76648-.55072-1.18347-.31702-.43579.24609-.95197.24139-1.38519-.01025-.41272-.24139-.64941-.64642-.64941-1.11127,0-.48322-.39136-.875-.875-.875h-2.78564c-.48364,0-.875.39178-.875.875,0,.46484-.23669.86987-.64941,1.11127-.43323.25208-.95026.25677-1.38519.01025-.41528-.2337-.9408-.09186-1.18347.31702l-1.39282,2.35754c-.24674.41764-.09704.96983.32385,1.20746.42468.23926.66821.64813.66821,1.12152,0,.47336-.2435.88221-.66821,1.12152ZM33,9.99564c1.6543,0,3,1.3457,3,3s-1.3457,3-3,3-3-1.3457-3-3,1.3457-3,3-3Z"/>
        <path d="M18.12,15.65561c-1.02997.38-2.02002.85004-2.94,1.41003l2.78003,9.26996c.15997.52002-.14001,1.08002-.67004,1.23999-.09998.03003-.19995.04004-.28998.04004-.42999,0-.83002-.28003-.96002-.71002l-2.58997-8.64001c-3.98004,3.14001-6.45001,7.99005-6.45001,13.35004v.38h12.67999l-1.56-16.34003Z"/>
        <path d="M31.34998,21.97562c-.79999-.06-1.5-.46002-1.96997-1.04999l-1.06,11.07001h12.67999v-.38c0-4.10004-1.45001-7.98999-4.10999-11.08002-.48999.87-1.42999,1.46002-2.5,1.46002h-.96002l-1.46997,4.90997c-.13.42999-.53003.71002-.96002.71002-.09003,0-.19-.01001-.28998-.04004-.53003-.15997-.83002-.71997-.67004-1.23999l1.31-4.35999Z"/>
        <path d="M5,33.99564v3.62305c0,.4126.25293.78271.6377.93213,5.9209,2.30225,12.1416,3.45361,18.3623,3.45361s12.44141-1.15137,18.3623-3.45361c.38477-.14941.6377-.51953.6377-.93213v-3.62305H5Z"/>
      </g>
    </g>
  </g>
</svg>