<?xml version="1.0" encoding="UTF-8"?>
<svg xmlns="http://www.w3.org/2000/svg" version="1.1" viewBox="0 0 48 48">
  <!-- Generator: Adobe Illustrator 28.7.1, SVG Export Plug-In . SVG Version: 1.2.0 Build 142)  -->
  <g>
    <g id="Glyph">
      <g>
        <path d="M28,21.65277v-8.53998c0-2.21002-1.78998-4-4-4s-4,1.78998-4,4v8.53998c1.06-.96002,2.46002-1.53998,4-1.53998s2.94.57996,4,1.53998Z"/>
        <path d="M40.86359,32.11279H7.13641c-1.17993,0-2.13641.95648-2.13641,2.13641,0,.95978.64008,1.80182,1.56494,2.05853l1.43994.39978c5.23242,1.45312,10.61328,2.17969,15.99512,2.17969,5.38086,0,10.76367-.72656,15.99512-2.17969l1.43994-.39978c.92487-.25671,1.56494-1.09875,1.56494-2.05853,0-1.17993-.95648-2.13641-2.13641-2.13641Z"/>
        <path d="M18,26.11279v-12.83002c-5.96997,2.40997-10,8.26001-10,14.83002v2h11.53998c-.94995-1.06-1.53998-2.46002-1.53998-4Z"/>
        <path d="M40,28.11279c0-4.28003-1.66998-8.29004-4.69-11.29999-1.52002-1.53003-3.33002-2.73004-5.31-3.52002v12.82001c0,1.53998-.59003,2.94-1.53998,4h11.53998v-2Z"/>
        <circle cx="24" cy="26.11279" r="4"/>
      </g>
    </g>
  </g>
</svg>