<?xml version="1.0" encoding="UTF-8"?>
<svg id="Glyph" xmlns="http://www.w3.org/2000/svg" version="1.1" viewBox="0 0 48 48">
  <path d="M26,21l.81287-13.00586c.10138-1.6225-1.18719-2.99414-2.81287-2.99414s-2.91425,1.37164-2.81287,2.99414l.81287,13.00586h4Z" fill="#000" stroke-width="0"/>
  <path d="M34.59998,11.39001c-1.63995-1.64001-3.60999-2.86005-5.77997-3.59003,0,.10999,0,.21002-.01001.32001l-.80499,12.88h10.94501c-.23999-3.62-1.75-7-4.35004-9.60999Z" fill="#000" stroke-width="0"/>
  <path d="M41.12,23.88c-.53998-.54004-1.28998-.88-2.12-.88H9c-1.65997,0-3,1.33997-3,3,0,.82001.34003,1.57996.88,2.12.53998.53998,1.29999.88,2.12.88h1c0,7.71997,6.28003,14,14,14s14-6.28003,14-14h1c1.65002,0,3-1.35004,3-3,0-.83002-.34003-1.58002-.88-2.12ZM24,41c-6.62,0-12-5.38-12-12h2c.38,0,.72998-.21002.89001-.54999l.72998-1.45001h16.76001l.72998,1.45001c.16003.33997.51001.54999.89001.54999h2c0,6.62-5.38,12-12,12Z" fill="#000" stroke-width="0"/>
  <path d="M19.19,8.12c-.01001-.10999-.01001-.21002-.01001-.32001-2.16998.72998-4.14001,1.95001-5.78998,3.59003-2.59003,2.60999-4.10004,5.98999-4.34003,9.60999h10.94501l-.80499-12.88Z" fill="#000" stroke-width="0"/>
</svg>