<?xml version="1.0" encoding="utf-8"?>
<!-- Generator: Adobe Illustrator 27.3.1, SVG Export Plug-In . SVG Version: 6.00 Build 0)  -->
<svg version="1.1" id="Glyph" xmlns="http://www.w3.org/2000/svg" xmlns:xlink="http://www.w3.org/1999/xlink" x="0px" y="0px"
	 viewBox="0 0 48 48" enable-background="new 0 0 48 48" xml:space="preserve">
<g>
	<circle cx="19" cy="35" r="2"/>
	<path d="M24,28.76025V10c0-2.75684-2.24316-5-5-5s-5,2.24316-5,5v18.76025C12.1123,30.27441,11,32.56934,11,35
		c0,4.41113,3.58887,8,8,8s8-3.58887,8-8C27,32.56934,25.8877,30.27441,24,28.76025z M19,39c-2.20557,0-4-1.79443-4-4
		c0-1.85828,1.27972-3.41071,3-3.85797V12c0-0.55225,0.44775-1,1-1s1,0.44775,1,1v19.14203c1.72028,0.44727,3,1.99969,3,3.85797
		C23,37.20557,21.20557,39,19,39z"/>
	<path d="M7,11h4c0.55225,0,1-0.44775,1-1s-0.44775-1-1-1H7c-0.55225,0-1,0.44775-1,1S6.44775,11,7,11z"/>
	<path d="M11,13H9c-0.55225,0-1,0.44775-1,1s0.44775,1,1,1h2c0.55225,0,1-0.44775,1-1S11.55225,13,11,13z"/>
	<path d="M12,18c0-0.55225-0.44775-1-1-1H7c-0.55225,0-1,0.44775-1,1s0.44775,1,1,1h4C11.55225,19,12,18.55225,12,18z"/>
	<path d="M12,22c0-0.55225-0.44775-1-1-1H9c-0.55225,0-1,0.44775-1,1s0.44775,1,1,1h2C11.55225,23,12,22.55225,12,22z"/>
	<circle cx="34" cy="15" r="1"/>
	<path d="M41.70703,14.36426l-1.77832-1.77832v-2.51465c0-0.55225-0.44775-1-1-1h-2.51465l-1.77832-1.77832
		c-0.375-0.375-1.03906-0.375-1.41406,0l-1.77783,1.77832h-2.51514c-0.55225,0-1,0.44775-1,1v2.51465l-1.77783,1.77832
		c-0.39062,0.39062-0.39062,1.02344,0,1.41406l1.77783,1.77783v2.51514c0,0.55225,0.44775,1,1,1h2.51514
		c0,0,1.77783,1.77783,1.77786,1.77786c0.38726,0.38723,1.02717,0.38684,1.41404-0.00003l1.77832-1.77783h2.51465
		c0.55225,0,1-0.44775,1-1v-2.51514c0,0,1.77832-1.77783,1.77835-1.77787C42.09403,15.39128,42.09259,14.74981,41.70703,14.36426z
		 M34,18c-1.6543,0-3-1.3457-3-3s1.3457-3,3-3s3,1.3457,3,3S35.6543,18,34,18z"/>
</g>
</svg>
