<?xml version="1.0" encoding="utf-8"?>
<!-- Generator: Adobe Illustrator 28.3.0, SVG Export Plug-In . SVG Version: 6.00 Build 0)  -->
<svg version="1.1" id="Glyph" xmlns="http://www.w3.org/2000/svg" xmlns:xlink="http://www.w3.org/1999/xlink" x="0px" y="0px"
	 viewBox="0 0 48 48" enable-background="new 0 0 48 48" xml:space="preserve">
<g>
	<circle cx="15" cy="15" r="2.07007"/>
	<path d="M24.70703,14.29297l-2.3418-2.34229V8.63525c0-0.55225-0.44727-1-1-1h-3.31641l-2.3418-2.34229
		c-0.375-0.375-1.03906-0.375-1.41406,0l-2.3418,2.34229H8.63477c-0.55273,0-1,0.44775-1,1v3.31543l-2.3418,2.34229
		c-0.39062,0.39062-0.39062,1.02344,0,1.41406l2.3418,2.34229v3.31543c0,0.55225,0.44727,1,1,1h3.31641
		c0,0,2.33868,2.33917,2.3418,2.34229c0.38885,0.38898,1.02655,0.38751,1.41406,0l2.3418-2.34229h3.31641c0.55273,0,1-0.44775,1-1
		v-3.31543l2.3418-2.34229C25.09766,15.31641,25.09766,14.68359,24.70703,14.29297z M15,19.06982
		c-2.24414,0-4.07031-1.82568-4.07031-4.06982S12.75586,10.93018,15,10.93018S19.07031,12.75586,19.07031,15
		S17.24414,19.06982,15,19.06982z"/>
	<circle cx="32" cy="35" r="2"/>
	<path d="M42,26h-5v-2h2c0.55273,0,1-0.44775,1-1s-0.44727-1-1-1h-2v-2h5c0.55273,0,1-0.44775,1-1s-0.44727-1-1-1h-5v-2h2
		c0.55273,0,1-0.44775,1-1s-0.44727-1-1-1h-2v-2h3c0.55273,0,1-0.44775,1-1s-0.44727-1-1-1h-3c0-2.75684-2.24316-5-5-5
		s-5,2.24316-5,5v18.76025C25.1123,30.2749,24,32.56982,24,35c0,4.41113,3.58887,8,8,8s8-3.58887,8-8
		c0-2.43018-1.1123-4.7251-3-6.23975V28h5c0.55273,0,1-0.44775,1-1S42.55273,26,42,26z M32,39c-2.20605,0-4-1.79443-4-4
		c0-1.85834,1.27948-3.41083,3-3.85803V10c0-0.55225,0.44727-1,1-1s1,0.44775,1,1v21.14197c1.72052,0.4472,3,1.99969,3,3.85803
		C36,37.20557,34.20605,39,32,39z"/>
</g>
</svg>
