<?xml version="1.0" encoding="utf-8"?>
<!-- Generator: Adobe Illustrator 28.3.0, SVG Export Plug-In . SVG Version: 6.00 Build 0)  -->
<svg version="1.1" id="Glyph" xmlns="http://www.w3.org/2000/svg" xmlns:xlink="http://www.w3.org/1999/xlink" x="0px" y="0px"
	 viewBox="0 0 48 48" enable-background="new 0 0 48 48" xml:space="preserve">
<g>
	<path d="M21,18.64001c0-0.94,0.21002-1.92004,0.56-2.91003c-1.59003-1.46002-2.78998-2.40002-2.94-2.52002
		c-0.37-0.27997-0.87-0.27997-1.23999,0C16.88,13.60999,5,22.96997,5,30c0,7.16998,5.83002,13,13,13
		c7.01001,0,12.73999-5.58002,12.98999-12.53003C25.33002,29.51001,21,24.57001,21,18.64001z M18,39c-4.96289,0-9-4.03711-9-9
		c0-0.55273,0.44727-1,1-1s1,0.44727,1,1c0,3.85938,3.14062,7,7,7c0.55273,0,1,0.44727,1,1S18.55273,39,18,39z"/>
	<path d="M33.58771,5.2157c-0.33911-0.2876-0.8363-0.2876-1.17542,0C32.02789,5.5415,23,13.25635,23,18.63635
		c0,5.51404,4.48596,10,10,10s10-4.48596,10-10C43,13.25635,33.97211,5.5415,33.58771,5.2157z M30.5,13.81818
		c0.55231,0,1,0.44769,1,1c0,0.55225-0.44769,1-1,1s-1-0.44775-1-1C29.5,14.26587,29.94769,13.81818,30.5,13.81818z M35.5,20.81818
		c-0.55231,0-1-0.44775-1-1c0-0.55231,0.44769-1,1-1s1,0.44769,1,1C36.5,20.37042,36.05231,20.81818,35.5,20.81818z
		 M36.20703,15.52521l-5,5c-0.19531,0.19531-0.45117,0.29297-0.70703,0.29297s-0.51172-0.09766-0.70703-0.29297
		c-0.39062-0.39062-0.39062-1.02344,0-1.41406l5-5c0.39062-0.39062,1.02344-0.39062,1.41406,0S36.59766,15.13458,36.20703,15.52521z
		"/>
</g>
</svg>
