<?xml version="1.0" encoding="UTF-8"?>
<svg id="Glyph" xmlns="http://www.w3.org/2000/svg" version="1.1" viewBox="0 0 64 64">
  <rect x="52" y="7" width="5" height="50" rx="1" ry="1" fill="#000" stroke-width="0"/>
  <path d="M7,50.82001v5.17999c0,.54999.45001,1,1,1h3c.54999,0,1-.45001,1-1v-5h-4c-.34998,0-.69-.06-1-.17999Z" fill="#000" stroke-width="0"/>
  <path d="M16,14h14c.55225,0,1-.44775,1-1v-2c0-.55225-.44775-1-1-1h-3.12646c-.44531-1.72314-2.01318-3-3.87354-3s-3.42822,1.27686-3.87354,3h-3.12646c-.55225,0-1,.44775-1,1v2c0,.55225.44775,1,1,1Z" fill="#000" stroke-width="0"/>
  <rect x="13" y="20" width="20" height="2" fill="#000" stroke-width="0"/>
  <path d="M8,49h30c.54999,0,1-.45001,1-1V13c0-.54999-.45001-1-1-1h-5v1c0,1.64996-1.34998,3-3,3h-14c-1.65002,0-3-1.35004-3-3v-1h-5c-.54999,0-1,.45001-1,1v35c0,.54999.45001,1,1,1ZM34,43h-11c-.55225,0-1-.44775-1-1s.44775-1,1-1h11c.55225,0,1,.44775,1,1s-.44775,1-1,1ZM22,38c0-.55225.44775-1,1-1h6c.55225,0,1,.44775,1,1s-.44775,1-1,1h-6c-.55225,0-1-.44775-1-1ZM34,33h-11c-.55225,0-1-.44775-1-1s.44775-1,1-1h11c.55225,0,1,.44775,1,1s-.44775,1-1,1ZM22,28c0-.55225.44775-1,1-1h6c.55225,0,1,.44775,1,1s-.44775,1-1,1h-6c-.55225,0-1-.44775-1-1ZM11,19c0-.55225.44775-1,1-1h22c.55225,0,1,.44775,1,1v4c0,.55225-.44775,1-1,1H12c-.55225,0-1-.44775-1-1v-4ZM18.70703,28.70703l-2,2c-.38843.38843-1.0271.3869-1.41406,0l-1-1c-.39062-.39062-.39062-1.02344,0-1.41406s1.02344-.39062,1.41406,0l.29297.29297,1.29297-1.29297c.39062-.39062,1.02344-.39062,1.41406,0s.39062,1.02344,0,1.41406ZM11,27c0-.55225.44775-1,1-1s1,.44775,1,1v5h6c.55225,0,1,.44775,1,1s-.44775,1-1,1h-7c-.55225,0-1-.44775-1-1v-6ZM18.70703,38.70703l-2,2c-.36511.36511-1.01355.40045-1.41406,0l-1-1c-.39062-.39062-.39062-1.02344,0-1.41406s1.02344-.39062,1.41406,0l.29297.29297,1.29297-1.29297c.39062-.39062,1.02344-.39062,1.41406,0s.39062,1.02344,0,1.41406ZM11,37c0-.55225.44775-1,1-1s1,.44775,1,1v5h6c.55225,0,1,.44775,1,1s-.44775,1-1,1h-7c-.55225,0-1-.44775-1-1v-6Z" fill="#000" stroke-width="0"/>
  <path d="M49,38c0-.54999-.45001-1-1-1h-3v4c0,.55225-.44775,1-1,1h-3v4h8v-8Z" fill="#000" stroke-width="0"/>
  <rect x="41" y="37" width="2" height="3" fill="#000" stroke-width="0"/>
  <path d="M40.82001,49c-.41003,1.15997-1.52002,2-2.82001,2H14v2h36v-5h-9c0,.34998-.06.69-.17999,1Z" fill="#000" stroke-width="0"/>
  <rect x="41" y="29" width="9" height="5" fill="#000" stroke-width="0"/>
  <rect x="41" y="18" width="2" height="3" fill="#000" stroke-width="0"/>
  <path d="M49,19c0-.54999-.45001-1-1-1h-3v4c0,.55225-.44775,1-1,1h-3v4h8v-8Z" fill="#000" stroke-width="0"/>
</svg>