<?xml version="1.0" encoding="UTF-8"?>
<svg xmlns="http://www.w3.org/2000/svg" version="1.1" viewBox="0 0 64 64">
  <!-- Generator: Adobe Illustrator 28.7.1, SVG Export Plug-In . SVG Version: 1.2.0 Build 142)  -->
  <g>
    <g id="Glyph">
      <g>
        <path d="M37.2002,23.59961c0,1.875,1.52539,3.40039,3.39941,3.40039,1.875,0,3.40039-1.52539,3.40039-3.40039,0-1.62891-2.07617-3.72266-2.71289-4.3252-.38477-.36523-.99023-.36523-1.375,0-.63672.60254-2.71191,2.69629-2.71191,4.3252Z"/>
        <path d="M48.40039,32c1.87402,0,3.39941-1.52539,3.39941-3.40039,0-1.62891-2.0752-3.72266-2.71191-4.3252-.38477-.36523-.99023-.36621-1.375,0-.63672.60254-2.71289,2.69629-2.71289,4.3252,0,1.875,1.52539,3.40039,3.40039,3.40039Z"/>
        <path d="M40,13v4c0,.48999-.34998.90997-.84003.98999l-5.15997.85999v2.15002c0,.54999-.45001,1-1,1s-1-.45001-1-1v-12c0-.54999.45001-1,1-1s1,.45001,1,1v2.14996l5.15997.86005c.49005.07996.84003.5.84003.98999Z"/>
        <path d="M50,40H14c-1.10455,0-2,.89539-2,2,0,1.10455.89545,2,2,2h36c1.10455,0,2-.89545,2-2,0-1.10461-.89545-2-2-2Z"/>
        <path d="M55,52H9c-1.10455,0-2,.89539-2,2,0,1.10455.89545,2,2,2h46c1.10455,0,2-.89545,2-2,0-1.10461-.89545-2-2-2Z"/>
        <path d="M11,50h42c1.10455,0,2-.89545,2-2,0-1.10461-.89545-2-2-2H11c-1.10455,0-2,.89539-2,2,0,1.10455.89545,2,2,2Z"/>
        <path d="M19.04999,21.45996c-.15997.91003.08002,1.79004.66998,2.49005.57001.66998,1.40002,1.04999,2.28009,1.04999,1.80808,0,3.51523.66571,4.80994,1.94,1.39001,1.37,2.19,3.27997,2.19,5.23999v5.82001h-8v-4.17004c0-.47998-.33002-.89996-.76001-.96997-5.64001-.90997-9.59998-5.90002-9.20996-11.60999.37994-5.75,5.35999-10.25,11.31995-10.25h7.65002v8h-7.84998c-1.53003,0-2.86005,1.06-3.10004,2.45996Z"/>
      </g>
    </g>
  </g>
</svg>