<?xml version="1.0" encoding="UTF-8"?>
<svg id="Glyph" xmlns="http://www.w3.org/2000/svg" version="1.1" viewBox="0 0 48 48">
  <path d="M7,19c-1.09998,0-2,.89996-2,2v8c0,1.09998.90002,2,2,2v-12Z" fill="#000" stroke-width="0"/>
  <circle cx="38" cy="11" r="5" fill="#000" stroke-width="0"/>
  <path d="M17,34c-2.20544,0-4,1.79449-4,4s1.79456,4,4,4,4-1.79456,4-4-1.79456-4-4-4ZM17,39c-.55231,0-1-.44775-1-1,0-.55231.44769-1,1-1s1,.44769,1,1c0,.55225-.44769,1-1,1Z" fill="#000" stroke-width="0"/>
  <path d="M33,34c-2.20544,0-4,1.79449-4,4s1.79456,4,4,4,4-1.79456,4-4-1.79456-4-4-4ZM33,39c-.55231,0-1-.44775-1-1,0-.55231.44769-1,1-1s1,.44769,1,1c0,.55225-.44769,1-1,1Z" fill="#000" stroke-width="0"/>
  <rect x="19" y="21" width="2" height="4" fill="#000" stroke-width="0"/>
  <polygon points="24.38184 21 23 21 23 25 26.38184 25 24.38184 21" fill="#000" stroke-width="0"/>
  <rect x="15" y="21" width="2" height="4" fill="#000" stroke-width="0"/>
  <path d="M7,35v2c0,1.09998.90002,2,2,2h2.09003c-.06-.32001-.09003-.66003-.09003-1,0-1.10004.28998-2.12.81-3h-4.81Z" fill="#000" stroke-width="0"/>
  <path d="M22.19,35c.52002.88.81,1.89996.81,3,0,.33997-.03003.67999-.09003,1h4.18005c-.06-.32001-.09003-.66003-.09003-1,0-1.10004.28998-2.12.81-3h-5.62Z" fill="#000" stroke-width="0"/>
  <path d="M39,38c0,.33997-.03003.67999-.09003,1h2.09003c1.09998,0,2-.90002,2-2v-2h-4.81c.52002.88.81,1.89996.81,3Z" fill="#000" stroke-width="0"/>
  <path d="M17,32c1.21997,0,2.35999.35999,3.31,1h9.38c.95001-.64001,2.09003-1,3.31-1s2.35999.35999,3.31,1h4.69v-3h-4c-.54999,0-1-.45001-1-1s.45001-1,1-1h4v-2c0-1.65002-1.34998-3-3-3h-5c-.40997,0-.78003-.25-.92999-.64001-.02002-.03003-.03003-.07001-.04999-.09998l-2.97003-5.43005c-.45996-1.09998-1.56-1.82996-2.76001-1.82996h-.28998v-2h2c.55225,0,1-.44727,1-1s-.44775-1-1-1H10c-.55225,0-1,.44727-1,1s.44775,1,1,1h2v2c-1.65002,0-3,1.34998-3,3v15h4.69c.95001-.64001,2.09003-1,3.31-1ZM22,13h2v2h-2v-2ZM18,13h2v2h-2v-2ZM14,13h2v2h-2v-2ZM13,26v-6c0-.54999.45001-1,1-1h11c.38,0,.72998.20996.89001.54999l3,6c.15997.31.14001.67999-.04004.97998-.17999.29004-.5.47003-.84998.47003h-14c-.54999,0-1-.45001-1-1Z" fill="#000" stroke-width="0"/>
</svg>