<?xml version="1.0" encoding="UTF-8"?>
<svg xmlns="http://www.w3.org/2000/svg" version="1.1" viewBox="0 0 48 48">
  <!-- Generator: Adobe Illustrator 28.7.1, SVG Export Plug-In . SVG Version: 1.2.0 Build 142)  -->
  <g>
    <g id="Glyph">
      <g>
        <path d="M10,7h2c0,1.09998.90002,2,2,2h20c1.09998,0,2-.90002,2-2h2c.54999,0,1-.45001,1-1s-.45001-1-1-1H10c-.54999,0-1,.45001-1,1s.45001,1,1,1Z"/>
        <path d="M33,14v-3H15v3c0,1.65686,1.34314,3,3,3h12c1.65686,0,3-1.34314,3-3ZM20,15c-.55231,0-1-.44775-1-1,0-.55231.44769-1,1-1s1,.44769,1,1c0,.55225-.44769,1-1,1ZM24,15c-.55231,0-1-.44775-1-1,0-.55231.44769-1,1-1s1,.44769,1,1c0,.55225-.44769,1-1,1ZM28,15c-.55231,0-1-.44775-1-1,0-.55231.44769-1,1-1s1,.44769,1,1c0,.55225-.44769,1-1,1Z"/>
        <rect x="19" y="19" width="10" height="2"/>
        <path d="M24,31c1.65686,0,3-1.34314,3-3v-5h-6v5c0,1.65686,1.34314,3,3,3Z"/>
        <path d="M12,36v1h24v-1c0-1.65686-1.34314-3-3-3H15c-1.65686,0-3,1.34314-3,3Z"/>
        <path d="M41,39H7c-1.10455,0-2,.89539-2,2,0,1.10455.89545,2,2,2h34c1.10455,0,2-.89545,2-2,0-1.10461-.89545-2-2-2Z"/>
        <path d="M16.29297,27.29297c-.39062.39062-.39062,1.02344,0,1.41406l2,2c.19531.19531.45117.29297.70703.29297s.51172-.09766.70703-.29297c.39062-.39062.39062-1.02344,0-1.41406l-2-2c-.39062-.39062-1.02344-.39062-1.41406,0Z"/>
        <path d="M29,31c.25586,0,.51172-.09766.70703-.29297l2-2c.39062-.39062.39062-1.02344,0-1.41406s-1.02344-.39062-1.41406,0l-2,2c-.39062.39062-.39062,1.02344,0,1.41406.19531.19531.45117.29297.70703.29297Z"/>
      </g>
    </g>
  </g>
</svg>