<?xml version="1.0" encoding="utf-8"?>
<!-- Generator: Adobe Illustrator 27.3.1, SVG Export Plug-In . SVG Version: 6.00 Build 0)  -->
<svg version="1.1" id="Glyph" xmlns="http://www.w3.org/2000/svg" xmlns:xlink="http://www.w3.org/1999/xlink" x="0px" y="0px"
	 viewBox="0 0 48 48" enable-background="new 0 0 48 48" xml:space="preserve">
<g>
	<path d="M39,31h-2v-5c0-0.55273-0.44727-1-1-1h-4c-0.55273,0-1,0.44727-1,1v5h-2c-0.34668,0-0.66797,0.17969-0.85059,0.47461
		s-0.19922,0.66309-0.04395,0.97266l5,10C33.27539,42.78613,33.62109,43,34,43s0.72461-0.21387,0.89453-0.55273l5-10
		c0.15527-0.30957,0.13867-0.67773-0.04395-0.97266S39.34668,31,39,31z"/>
	<circle cx="18" cy="35" r="2"/>
	<path d="M23,28.75977V10c0-2.75684-2.24316-5-5-5s-5,2.24316-5,5v18.75977C11.1123,30.27539,10,32.56934,10,35
		c0,4.41113,3.58887,8,8,8s8-3.58887,8-8C26,32.56934,24.8877,30.27539,23,28.75977z M18,39c-2.20605,0-4-1.79395-4-4
		c0-1.8587,1.27948-3.41095,3-3.85803V12c0-0.55273,0.44727-1,1-1s1,0.44727,1,1v19.14197C20.72052,31.58905,22,33.1413,22,35
		C22,37.20605,20.20605,39,18,39z"/>
	<path d="M6,10h4c0.55273,0,1-0.44727,1-1s-0.44727-1-1-1H6C5.44727,8,5,8.44727,5,9S5.44727,10,6,10z"/>
	<path d="M6,14h4c0.55273,0,1-0.44727,1-1s-0.44727-1-1-1H6c-0.55273,0-1,0.44727-1,1S5.44727,14,6,14z"/>
	<path d="M6,18h4c0.55273,0,1-0.44727,1-1s-0.44727-1-1-1H6c-0.55273,0-1,0.44727-1,1S5.44727,18,6,18z"/>
	<path d="M11,25c0-0.55273-0.44727-1-1-1H6c-0.55273,0-1,0.44727-1,1s0.44727,1,1,1h4C10.55273,26,11,25.55273,11,25z"/>
	<path d="M6,22h4c0.55273,0,1-0.44727,1-1s-0.44727-1-1-1H6c-0.55273,0-1,0.44727-1,1S5.44727,22,6,22z"/>
	<path d="M42,13h-1.58594l1.29297-1.29297c0.39062-0.39062,0.39062-1.02344,0-1.41406s-1.02344-0.39062-1.41406,0L37.58594,13
		h-0.7702C36.51367,12.15283,35.84717,11.48633,35,11.18427v-0.7702l2.70703-2.70703c0.39062-0.39062,0.39062-1.02344,0-1.41406
		s-1.02344-0.39062-1.41406,0L35,7.58594V6c0-0.55273-0.44727-1-1-1s-1,0.44727-1,1v1.58594l-1.29297-1.29297
		c-0.39062-0.39062-1.02344-0.39062-1.41406,0s-0.39062,1.02344,0,1.41406L33,10.41406v0.7702
		C32.15283,11.48633,31.48633,12.15283,31.18427,13h-0.7702l-2.70703-2.70703c-0.39062-0.39062-1.02344-0.39062-1.41406,0
		s-0.39062,1.02344,0,1.41406L27.58594,13H26c-0.55273,0-1,0.44727-1,1s0.44727,1,1,1h1.58594l-1.29297,1.29297
		c-0.39062,0.39062-0.39062,1.02344,0.00001,1.41407c0.38619,0.38618,1.02785,0.38619,1.41405-0.00001L30.41406,15h0.77026
		c0.30206,0.84717,0.96851,1.51361,1.81567,1.81567v0.77026l-2.70703,2.70703c-0.39062,0.39062-0.39062,1.02344,0,1.41406
		s1.02344,0.39062,1.41406,0L33,20.41406V22c0,0.55273,0.44727,1,1,1s1-0.44727,1-1v-1.58594c0,0,1.29198,1.29198,1.29297,1.29297
		c0.3863,0.3863,1.0284,0.38567,1.41406,0c0.39062-0.39062,0.39062-1.02344,0-1.41406L35,17.58594v-0.7702
		c0.84717-0.30206,1.51367-0.96857,1.81573-1.81573h0.7702l2.70703,2.70703c0.38635,0.38634,1.0282,0.38586,1.41406,0
		c0.39062-0.39062,0.39062-1.02344,0-1.41406L40.41406,15H42c0.55273,0,1-0.44727,1-1S42.55273,13,42,13z"/>
</g>
</svg>
