<?xml version="1.0" encoding="UTF-8"?>
<svg id="Glyph" xmlns="http://www.w3.org/2000/svg" version="1.1" viewBox="0 0 48 48">
  <path d="M19,20.01196V5h-10c-.55273,0-1,.44727-1,1s.44727,1,1,1h1v8c0,.25.09003.47998.25.65997l5.56,6.25c.95917-.77936,2.0354-1.41467,3.19-1.89801Z" fill="#000" stroke-width="0"/>
  <path d="M39,5h-10v15.01196c1.1546.48334,2.23083,1.11865,3.19,1.89801l5.56-6.25c.15997-.17999.25-.40997.25-.65997V7h1c.55273,0,1-.44727,1-1s-.44727-1-1-1Z" fill="#000" stroke-width="0"/>
  <path d="M27,19.36023V5h-6v14.36023c.9646-.22894,1.96649-.36023,3-.36023s2.0354.13129,3,.36023Z" fill="#000" stroke-width="0"/>
  <path d="M24,21c-6.06573,0-11,4.9342-11,11s4.93427,11,11,11,11-4.93427,11-11-4.93427-11-11-11ZM22,26h1v-1c0-.55273.44727-1,1-1s1,.44727,1,1v1h1c.55273,0,1,.44727,1,1s-.44727,1-1,1h-1v1c0,.55273-.44727,1-1,1s-1-.44727-1-1v-1h-1c-.55273,0-1-.44727-1-1s.44727-1,1-1ZM29.70703,34.70703l-5,5c-.19531.19531-.45117.29297-.70703.29297s-.51172-.09766-.70703-.29297l-5-5c-.39062-.39062-.39062-1.02344,0-1.41406s1.02344-.39062,1.41406,0l4.29297,4.29297,4.29297-4.29297c.39062-.39062,1.02344-.39062,1.41406,0s.39062,1.02344,0,1.41406ZM29.70703,29.70703l-5,5c-.19531.19531-.45117.29297-.70703.29297s-.51172-.09766-.70703-.29297l-5-5c-.39062-.39062-.39062-1.02344,0-1.41406s1.02344-.39062,1.41406,0l4.29297,4.29297,4.29297-4.29297c.39062-.39062,1.02344-.39062,1.41406,0s.39062,1.02344,0,1.41406Z" fill="#000" stroke-width="0"/>
</svg>