<?xml version="1.0" encoding="UTF-8"?>
<svg xmlns="http://www.w3.org/2000/svg" version="1.1" viewBox="0 0 64 64">
  <!-- Generator: Adobe Illustrator 28.7.1, SVG Export Plug-In . SVG Version: 1.2.0 Build 142)  -->
  <g>
    <g id="Glyph">
      <g>
        <path d="M32,42c5.51367,0,10-4.48633,10-10s-4.48633-10-10-10-10,4.48633-10,10,4.48633,10,10,10ZM33,30c0-1.6543,1.3457-3,3-3s3,1.3457,3,3c0,.55273-.44727,1-1,1s-1-.44727-1-1c0-.55176-.44824-1-1-1s-1,.44824-1,1v4c0,.55176.44824,1,1,1s1-.44824,1-1c-.55273,0-1-.44727-1-1s.44727-1,1-1h1c.55273,0,1,.44727,1,1v1c0,1.6543-1.3457,3-3,3s-3-1.3457-3-3v-4ZM25,28c0-.55273.44727-1,1-1s1,.44727,1,1v1.58594l2.29297-2.29297c.39062-.39062,1.02344-.39062,1.41406,0s.39062,1.02344,0,1.41406l-3.29297,3.29297,3.29297,3.29297c.39062.39062.39062,1.02344-.00002,1.41409-.38712.38709-1.02861.38541-1.41404-.00002l-2.29297-2.29297v1.58594c0,.55273-.44727,1-1,1s-1-.44727-1-1v-8Z"/>
        <path d="M54.4433,21h-3.4433c-1.6543,0-3,1.3457-3,3v7.60352c0,8.59375-6.52832,15.77832-14.86133,16.35742-.37402.02539-.74609.03809-1.11816.03809-4.24609,0-8.32422-1.67676-11.3291-4.69336-3.02441-3.0127-4.69141-7.0293-4.69141-11.30566v-8c0-1.6543-1.3457-3-3-3h-3.4433c-1.6347,3.32166-2.5567,7.05457-2.5567,11,0,13.78516,11.21484,25,25,25s25-11.21484,25-25c0-3.94543-.922-7.67834-2.5567-11Z"/>
        <path d="M18,24v8c0,3.74121,1.45801,7.25391,4.10645,9.89062,2.85938,2.87207,6.82324,4.36621,10.89355,4.07422,7.29004-.50586,13-6.81348,13-14.36133v-7.60352c0-2.75684,2.24316-5,5-5h2.34583c-4.39532-7.19049-12.31897-12-21.34583-12s-16.9505,4.80951-21.34583,12h2.34583c2.75684,0,5,2.24316,5,5ZM32,20c6.61719,0,12,5.38281,12,12s-5.38281,12-12,12-12-5.38281-12-12,5.38281-12,12-12Z"/>
      </g>
    </g>
  </g>
</svg>