<?xml version="1.0" encoding="UTF-8"?>
<svg xmlns="http://www.w3.org/2000/svg" version="1.1" viewBox="0 0 48 48">
  <!-- Generator: Adobe Illustrator 28.7.1, SVG Export Plug-In . SVG Version: 1.2.0 Build 142)  -->
  <g>
    <g id="Glyph">
      <g>
        <path d="M17,33c-2.20544,0-4,1.79449-4,4s1.79456,4,4,4,4-1.79456,4-4-1.79456-4-4-4ZM17,38c-.55231,0-1-.44775-1-1,0-.55231.44769-1,1-1s1,.44769,1,1c0,.55225-.44769,1-1,1Z"/>
        <path d="M33,33c-2.21002,0-4,1.78998-4,4s1.78998,4,4,4,4-1.79004,4-4-1.78998-4-4-4ZM33,38c-.54999,0-1-.45001-1-1s.45001-1,1-1,1,.45001,1,1-.45001,1-1,1Z"/>
        <polygon points="23 21 23 25 26.38184 25 24.38184 21 23 21"/>
        <rect x="15" y="21" width="2" height="4"/>
        <rect x="19" y="21" width="2" height="4"/>
        <path d="M9,31v-12h-2c-1.10455,0-2,.89539-2,2v8c0,1.10455.89545,2,2,2h2Z"/>
        <path d="M38.65002,35c.22998.63.34998,1.29999.34998,2s-.12,1.37-.34998,2h2.34998c1.09998,0,2-.90002,2-2v-2h-4.34998Z"/>
        <path d="M7,35v2c0,1.09998.90002,2,2,2h2.34998c-.22998-.63-.34998-1.29999-.34998-2s.12-1.37.34998-2h-4.34998Z"/>
        <path d="M41,30h-4c-.54999,0-1-.45001-1-1s.45001-1,1-1h4v-2c0-1.65002-1.34998-3-3-3h-5c-.40997,0-.78003-.25-.92999-.64001-.02002-.03003-.03003-.07001-.04999-.09998l-2.97003-5.43005c-.46997-1.10999-1.53998-1.82996-2.76001-1.82996h-2.28998v-2h1c.54999,0,1-.45001,1-1v-1h2c.54999,0,1-.45001,1-1s-.45001-1-1-1h-2v-1c0-.54999-.45001-1-1-1h-8c-.54999,0-1,.45001-1,1v4c0,.54999.45001,1,1,1h1v2h-5c-1.09998,0-2,.89996-2,2v16h1.53998c1.09003-1.23004,2.69-2,4.46002-2s3.34998.77997,4.45001,2h.01001c.52997.57001.94,1.25,1.19,2h4.69995c.25-.75.66003-1.42999,1.19-2h.01001c1.10004-1.22003,2.67999-2,4.45001-2s3.37.76996,4.46002,2h3.53998v-3ZM20,13h2v2h-2v-2ZM25,31h-2c-.54999,0-1-.45001-1-1s.45001-1,1-1h2c.54999,0,1,.45001,1,1s-.45001,1-1,1ZM28.84998,26.52997c-.17999.29004-.5.47003-.84998.47003h-14c-.54999,0-1-.45001-1-1v-6c0-.54999.45001-1,1-1h11c.38,0,.71997.20996.89001.54999l3,6c.15997.31.14001.67999-.04004.97998Z"/>
      </g>
    </g>
  </g>
</svg>