<?xml version="1.0" encoding="UTF-8"?>
<svg xmlns="http://www.w3.org/2000/svg" version="1.1" viewBox="0 0 48 48">
  <!-- Generator: Adobe Illustrator 28.7.1, SVG Export Plug-In . SVG Version: 1.2.0 Build 142)  -->
  <g>
    <g id="Glyph">
      <g>
        <path d="M12,7c.55273,0,1-.44727,1-1s-.44727-1-1-1c-3.85938,0-7,3.14062-7,7,0,.55273.44727,1,1,1s1-.44727,1-1c0-2.75684,2.24316-5,5-5Z"/>
        <path d="M12,9c-1.6543,0-3,1.3457-3,3,0,.55273.44727,1,1,1s1-.44727,1-1c0-.55176.44824-1,1-1,.55273,0,1-.44727,1-1s-.44727-1-1-1Z"/>
        <path d="M36,5c-.55273,0-1,.44727-1,1s.44727,1,1,1c2.75684,0,5,2.24316,5,5,0,.55273.44727,1,1,1s1-.44727,1-1c0-3.85938-3.14062-7-7-7Z"/>
        <path d="M37,12c0,.55273.44727,1,1,1s1-.44727,1-1c0-1.6543-1.3457-3-3-3-.55273,0-1,.44727-1,1s.44727,1,1,1c.55176,0,1,.44824,1,1Z"/>
        <path d="M24,9c-4.3277,0-8.27039,1.63904-11.27454,4.3114l4.24072,4.24072c1.90833-1.59161,4.36041-2.55212,7.03381-2.55212,1.92334,0,3.78284.49231,5.42334,1.4295,1.15045-.73431,2.78052-.61041,3.76904.37811.56641.56641.87891,1.32031.87891,2.12109,0,.59747-.1745,1.16736-.49731,1.65356.93506,1.63916,1.42603,3.49664,1.42603,5.41772,0,6.06543-4.93457,11-11,11-1.92102,0-3.77844-.49097-5.41754-1.4259-.48608.32269-1.0564.49719-1.65375.49719-.80078,0-1.55469-.3125-2.12109-.87891s-.87891-1.32031-.87891-2.12109c0-.59747.1745-1.16736.49731-1.65356-.93506-1.63916-1.42603-3.49664-1.42603-5.41772,0-2.6734.96051-5.12549,2.55212-7.03381l-4.24072-4.24072c-2.67236,3.00415-4.3114,6.94684-4.3114,11.27454,0,9.37402,7.62598,17,17,17s17-7.62598,17-17-7.62598-17-17-17Z"/>
        <path d="M16.97485,20.38892c-1.23267,1.54022-1.97485,3.48932-1.97485,5.61108,0,1.49902.38373,2.93896,1.07837,4.23041,1.02686-.28833,2.19623-.05707,2.97241.71979.56543.56543.87793,1.31934.87793,2.12109,0,.29749-.05676.58386-.14001.86121,1.28656.68793,2.71973,1.0675,4.2113,1.0675,4.96289,0,9-4.03711,9-9,0-1.49146-.37958-2.92456-1.06738-4.21112-.27734.08319-.56372.13983-.86133.13983-.80176,0-1.55566-.3125-2.12207-.87891-.56543-.56543-.87793-1.31934-.87793-2.12109,0-.29749.05676-.58386.14001-.86121-1.28656-.68787-2.71973-1.0675-4.2113-1.0675-2.12177,0-4.07086.74219-5.61108,1.97485l2.85815,2.85815c.79053-.52399,1.7356-.83301,2.75293-.83301,2.75684,0,5,2.24316,5,5s-2.24316,5-5,5-5-2.24316-5-5c0-1.01733.30902-1.9624.83301-2.75293l-2.85815-2.85815Z"/>
        <path d="M24,27c-.25586,0-.51172-.09766-.70703-.29297l-1.99237-1.99237c-.18713.39111-.3006.82361-.3006,1.28534,0,1.6543,1.3457,3,3,3s3-1.3457,3-3-1.3457-3-3-3c-.46173,0-.89423.11346-1.28534.3006l1.99237,1.99237c.39062.39062.39062,1.02344,0,1.41406-.19531.19531-.45117.29297-.70703.29297Z"/>
        <path d="M31.77832,19.63574v-.00098c.18945-.18848.29297-.43848.29297-.70605,0-.2666-.10449-.51758-.29297-.70703-.18945-.18848-.44043-.29297-.70703-.29297-.26758,0-.51758.10352-.70605.29297-.18945.18945-.29395.44043-.29395.70703,0,.26758.10352.51758.29297.70605.37793.37988,1.03418.37891,1.41406.00098Z"/>
        <path d="M16.22168,32.36426v.00098c-.18945.18848-.29297.43848-.29297.70605,0,.2666.10449.51758.29297.70703.37891.37793,1.03711.37793,1.41309,0,.18945-.18945.29395-.44043.29395-.70703,0-.26758-.10352-.51758-.29297-.70605-.18945-.19043-.43945-.29395-.70703-.29395-.2666,0-.51758.10449-.70703.29297Z"/>
      </g>
    </g>
  </g>
</svg>