<?xml version="1.0" encoding="UTF-8"?>
<svg xmlns="http://www.w3.org/2000/svg" version="1.1" viewBox="0 0 48 48">
  <!-- Generator: Adobe Illustrator 28.7.1, SVG Export Plug-In . SVG Version: 1.2.0 Build 142)  -->
  <g>
    <g id="Glyph">
      <g>
        <path d="M33.66793,29.64444l-1.09379-1.06719v4.42341c0,1.12785-.17655,2.21293-.47491,3.24868.59178-.19005,1.14061-.49899,1.57868-.93243,1.58124-1.56142,1.57625-4.1052-.00999-5.67247Z"/>
        <path d="M38.01578,25.41115l-5.48254-5.34962c.03065.30998.04089.61995.04089.93994v4.7506l2.54318,2.48134c2.37686,2.3475,2.38135,6.15389.01448,8.49064-1.02249,1.01006-2.43717,1.5732-3.88868,1.6855-.74742,1.44101-1.77309,2.72309-3.02639,3.76049.83876.22002,1.70817.33,2.5674.33,2.63901,0,5.23706-1.00994,7.23165-2.93981,3.97896-3.89976,3.97896-10.24932,0-14.14908Z"/>
        <path d="M8.75166,5.29249c-.39893-.38999-1.05358-.38999-1.45251,0-.39887.38999-.39887,1.02996,0,1.41989l6.61796,6.4696c.55232-.41995,1.1456-.79993,1.77977-1.09996l-6.94522-6.78953Z"/>
        <path d="M33.3004,6.71238c.39887-.38993.39887-1.0299,0-1.41989-.39893-.38999-1.05358-.38999-1.45251,0l-6.94522,6.78953c.63417.30003,1.22745.68001,1.77977,1.09996l6.61796-6.4696Z"/>
        <ellipse cx="20.29977" cy="18.00167" rx="1.02286" ry=".99993"/>
        <path d="M30.52841,21.00147c0-3.14981-1.50358-5.96963-3.84598-7.81949l-3.62092,3.53974c.20459.38999.30685.81995.30685,1.27994,0,1.64985-1.38084,2.9998-3.06859,2.9998s-3.06859-1.34995-3.06859-2.9998c0-.45999.10226-.88996.30685-1.27994l-3.62092-3.53974c-2.3424,1.84985-3.84598,4.66967-3.84598,7.81949v11.9992c0,5.50964,4.59265,9.99933,10.22864,9.99933s10.22864-4.48969,10.22864-9.99933v-11.9992ZM16.20832,37.0004c-.56256,0-1.02286-.44998-1.02286-.99993s.4603-.99993,1.02286-.99993,1.02286.44998,1.02286.99993-.4603.99993-1.02286.99993ZM20.29977,37.0004c-.56256,0-1.02286-.44998-1.02286-.99993s.4603-.99993,1.02286-.99993,1.02286.44998,1.02286.99993-.4603.99993-1.02286.99993ZM24.39123,37.0004c-.56256,0-1.02286-.44998-1.02286-.99993s.4603-.99993,1.02286-.99993,1.02286.44998,1.02286.99993-.4603.99993-1.02286.99993ZM25.41409,33.00067h-10.22864c-.56256,0-1.02286-.44998-1.02286-.99993s.4603-.99993,1.02286-.99993h10.22864c.56256,0,1.02286.44998,1.02286.99993s-.4603.99993-1.02286.99993ZM25.41409,29.00093h-10.22864c-.56256,0-1.02286-.44998-1.02286-.99993s.4603-.99993,1.02286-.99993h10.22864c.56256,0,1.02286.44998,1.02286.99993s-.4603.99993-1.02286.99993ZM25.41409,25.0012h-10.22864c-.56256,0-1.02286-.44998-1.02286-.99993s.4603-.99993,1.02286-.99993h10.22864c.56256,0,1.02286.44998,1.02286.99993s-.4603.99993-1.02286.99993Z"/>
        <path d="M20.29977,15.00187c.47054,0,.91036.09997,1.3093.29997l3.29359-3.21982c-1.38084-.6899-2.94585-1.07988-4.60289-1.07988s-3.22205.38999-4.60289,1.07988l3.29359,3.21982c.39893-.2.83876-.29997,1.3093-.29997Z"/>
      </g>
    </g>
  </g>
</svg>