<?xml version="1.0" encoding="UTF-8"?>
<svg xmlns="http://www.w3.org/2000/svg" version="1.1" viewBox="0 0 48 48">
  <!-- Generator: Adobe Illustrator 28.7.1, SVG Export Plug-In . SVG Version: 1.2.0 Build 142)  -->
  <g>
    <g id="Glyph">
      <g>
        <path d="M14.82983,9.1701c-1.56104-1.56091-4.10077-1.55939-5.66022,0-1.5595,1.56011-1.55951,4.09963-.00003,5.65976,1.51536,1.51599,4.11228,1.54776,5.66025.00003,1.56024-1.56012,1.56024-4.09967,0-5.65979Z"/>
        <path d="M38.83038,9.1701c-1.56104-1.56091-4.10071-1.55939-5.66022,0-1.56023,1.56011-1.56024,4.09962-.00004,5.65975,1.51326,1.51319,4.11515,1.54502,5.66026.00004,1.55951-1.56012,1.55951-4.09967,0-5.65979Z"/>
        <path d="M38.83038,33.1701c-1.56104-1.56018-4.10071-1.56018-5.66022,0-1.56024,1.56012-1.56024,4.09966,0,5.65978,1.51888,1.51877,4.10727,1.55284,5.66023,0,1.55951-1.56012,1.55951-4.09967,0-5.65979Z"/>
        <path d="M14.82983,33.1701c-1.55951-1.56018-4.09918-1.56018-5.66022,0-1.5595,1.56011-1.55951,4.09965-.00002,5.65977,1.54087,1.54149,4.1198,1.5402,5.66023.00002,1.56024-1.56012,1.56024-4.09967,0-5.65979Z"/>
        <path d="M16.64001,20.88c.79999-1.91003,2.32996-3.44,4.23999-4.23999l-3.09003-3.10004c-.25.98999-.76996,1.91998-1.53998,2.70001-.76001.76001-1.69,1.28998-2.70001,1.54999l3.09003,3.09003Z"/>
        <path d="M31.37,20.88l3.09003-3.09003c-1.01001-.25-1.94-.78998-2.70001-1.54999-.77002-.77002-1.29999-1.71002-1.54999-2.70001l-3.09003,3.09003c1.91003.81,3.44,2.33997,4.25,4.25Z"/>
        <path d="M31.37,27.12c-.81,1.90997-2.33997,3.44-4.25,4.25l3.09003,3.08997c.25-.98999.76996-1.91998,1.53998-2.69995.77002-.76001,1.69-1.30005,2.71002-1.55005l-3.09003-3.08997Z"/>
        <path d="M16.63,27.12l-3.09003,3.08997c1.02002.25,1.94.79004,2.70001,1.55005.77002.76996,1.29999,1.70996,1.54999,2.69995l3.09003-3.08997c-1.91003-.81-3.44-2.34003-4.25-4.25Z"/>
        <path d="M39,20c-1.8587,0-3.41095,1.27948-3.85803,3h-5.23236c-.47839-2.83276-2.94293-5-5.90961-5s-5.43121,2.16724-5.90961,5h-5.23236c-.44708-1.72052-1.99933-3-3.85803-3-2.20605,0-4,1.79395-4,4s1.79395,4,4,4c1.8587,0,3.41095-1.27948,3.85803-3h5.23236c.47839,2.83276,2.94293,5,5.90961,5s5.43121-2.16724,5.90961-5h5.23236c.44708,1.72052,1.99933,3,3.85803,3,2.20605,0,4-1.79395,4-4s-1.79395-4-4-4Z"/>
      </g>
    </g>
  </g>
</svg>