<?xml version="1.0" encoding="UTF-8"?>
<svg xmlns="http://www.w3.org/2000/svg" version="1.1" viewBox="0 0 64 64">
  <!-- Generator: Adobe Illustrator 28.7.1, SVG Export Plug-In . SVG Version: 1.2.0 Build 142)  -->
  <g>
    <g id="Glyph">
      <g>
        <path d="M32,32c-4.41113,0-8,3.58887-8,8s3.58887,8,8,8,8-3.58887,8-8-3.58887-8-8-8ZM31.26855,38.73682l2.03809.61084c1.0127.3042,1.69336,1.21924,1.69336,2.27637,0,1.18134-.86877,2.15631-2,2.33801v1.03796c0,.55225-.44727,1-1,1s-1-.44775-1-1v-1h-1c-.55273,0-1-.44775-1-1s.44727-1,1-1h2.62402c.20703,0,.37598-.16846.37598-.37598,0-.16748-.10742-.3125-.26855-.36084l-2.03809-.61084c-1.0127-.3042-1.69336-1.21924-1.69336-2.27637,0-1.18134.86877-2.15625,2-2.33795v-1.03802c0-.55225.44727-1,1-1s1,.44775,1,1v1h1c.55273,0,1,.44775,1,1s-.44727,1-1,1h-2.62402c-.20703,0-.37598.16846-.37598.37598,0,.16748.10742.3125.26855.36084Z"/>
        <path d="M54.53223,50.45752c-.73145-.72021-1.63867-1.19287-2.61914-1.37402l-1.32812-13.26172c-.5343-5.41998-3.37207-10.23651-7.73718-13.34381-.82483.92627-2.01276,1.52203-3.34778,1.52203h-15c-1.33417,0-2.52142-.59491-3.34619-1.52014-.58191.41669-1.14734.86218-1.68506,1.34827-3.44434,3.1167-5.59375,7.37598-6.05371,11.99219l-1.32812,13.26318c-.98047.18164-1.88965.65625-2.62891,1.38428-.94043.95361-1.45801,2.20801-1.45801,3.53223,0,1.6543,1.3457,3,3,3h42c1.6543,0,3-1.3457,3-3,0-1.32422-.51758-2.57861-1.46777-3.54248ZM32,50c-5.51367,0-10-4.48584-10-10s4.48633-10,10-10,10,4.48584,10,10-4.48633,10-10,10Z"/>
        <path d="M24.5,17c-1.38074,0-2.5,1.11926-2.5,2.5s1.11926,2.5,2.5,2.5h15c1.38074,0,2.5-1.11932,2.5-2.5s-1.11926-2.5-2.5-2.5h-15Z"/>
        <path d="M25.19623,15h13.60754l4.04388-6.47021c.19336-.30811.20312-.69678.02734-1.01465-.17676-.31787-.51172-.51514-.875-.51514h-20c-.36328,0-.69824.19727-.875.51514-.17578.31787-.16602.70654.02734,1.01465l4.04388,6.47021Z"/>
      </g>
    </g>
  </g>
</svg>