<?xml version="1.0" encoding="UTF-8"?>
<svg xmlns="http://www.w3.org/2000/svg" version="1.1" viewBox="0 0 64 64">
  <!-- Generator: Adobe Illustrator 28.7.1, SVG Export Plug-In . SVG Version: 1.2.0 Build 142)  -->
  <g>
    <g id="Glyph">
      <g>
        <path d="M47.99902,24.53308c.00098,1.0625.89844,1.95947,2.00098,1.95947s2-.89502,2-1.99512c-.01953-.26758-.5498-1.49365-2-3.56934-1.44922,2.07422-1.97949,3.30371-2.00098,3.60498Z"/>
        <path d="M47.26697,27.93622c-.77777-.99011-1.26697-2.29517-1.26697-3.44366.05859-1.52881,2.25781-4.61133,3.2002-5.86768.37695-.50391,1.22266-.50391,1.59961,0,.94238,1.25635,3.1416,4.33984,3.19922,5.83398.00049,1.16919-.49005,2.48486-1.2699,3.47925,2.50763-1.06586,4.27087-3.55347,4.27087-6.44556,0-3.59277-5.61523-9.9541-6.25586-10.66797-.37891-.42285-1.10938-.42285-1.48828,0-.64062.71387-6.25586,7.0752-6.25586,10.66797,0,2.8905,1.7616,5.37689,4.26697,6.44366Z"/>
        <path d="M25,31.49255h14c0-1.10461-.89545-2-2-2h-10c-1.10455,0-2,.89539-2,2Z"/>
        <path d="M43.5,31.49255c-.82843,0-1.5.67157-1.5,1.5v19c0,.82843.67157,1.5,1.5,1.5s1.5-.67157,1.5-1.5v-19c0-.82843-.67157-1.5-1.5-1.5Z"/>
        <rect x="29" y="25.49255" width="6" height="2"/>
        <path d="M20.5,31.49255c-.82843,0-1.5.67157-1.5,1.5v19c0,.82843.67157,1.5,1.5,1.5s1.5-.67157,1.5-1.5v-19c0-.82843-.67157-1.5-1.5-1.5Z"/>
        <path d="M38.5,20.49255h-13c-.82843,0-1.5.67157-1.5,1.5s.67157,1.5,1.5,1.5h13c.82843,0,1.5-.67157,1.5-1.5s-.67157-1.5-1.5-1.5Z"/>
        <path d="M24,51.49255h16v-18h-16v18ZM31.31249,36.76697c.38477-.36621.99024-.36621,1.375,0,.72071.68213,4.31251,4.21387,4.31251,6.72559,0,2.75684-2.24316,5-5,5s-5-2.24316-5-5c0-2.51172,3.5918-6.04346,4.31249-6.72559Z"/>
        <path d="M32,46.49255c1.6543,0,3-1.3457,3-3,0-1.04883-1.58301-3.10547-3-4.5874-1.41699,1.48193-3,3.53857-3,4.5874,0,1.6543,1.3457,3,3,3Z"/>
        <path d="M7,37.49255v10c0,1.10455.89545,2,2,2h8v-14h-8c-1.10455,0-2,.89539-2,2Z"/>
        <path d="M55,35.49255h-8v14h8c1.10455,0,2-.89545,2-2v-10c0-1.10461-.89545-2-2-2Z"/>
      </g>
    </g>
  </g>
</svg>