<?xml version="1.0" encoding="UTF-8"?>
<svg xmlns="http://www.w3.org/2000/svg" version="1.1" viewBox="0 0 48 48">
  <!-- Generator: Adobe Illustrator 28.7.1, SVG Export Plug-In . SVG Version: 1.2.0 Build 142)  -->
  <g>
    <g id="Glyph">
      <path d="M34,25c-1.03064,0-2.01721.1828-2.94019.50317l-1.95129-4.10217c2.34796-1.62579,3.89148-4.33502,3.89148-7.401,0-4.96289-4.0376-9-9-9s-9,4.03711-9,9c0,3.06598,1.54352,5.77521,3.89148,7.401l-1.95129,4.10217c-.92297-.32037-1.90955-.50317-2.94019-.50317-4.9624,0-9,4.03711-9,9s4.0376,9,9,9c4.62408,0,8.44153-3.50653,8.94104-8h2.11792c.49951,4.49347,4.31696,8,8.94104,8,4.9624,0,9-4.03711,9-9s-4.0376-9-9-9ZM21,11c0-.44043.28857-.8291.71045-.95703.4209-.12988.87695.03613,1.12158.40234l2.16797,3.25195v-2.69727c0-.55273.44775-1,1-1s1,.44727,1,1v6c0,.44043-.28857.8291-.71045.95703-.0957.0293-.19287.04297-.28955.04297-.32812,0-.64307-.16211-.83203-.44531l-2.16797-3.25195v2.69727c0,.55273-.44775,1-1,1s-1-.44727-1-1v-6ZM17,37c0,.44043-.28857.8291-.71045.95703-.0957.0293-.19287.04297-.28955.04297-.32812,0-.64307-.16211-.83203-.44531l-2.16797-3.25195v2.69727c0,.55273-.44775,1-1,1s-1-.44727-1-1v-6c0-.44043.28857-.8291.71045-.95703.42041-.12988.87695.03516,1.12158.40234l2.16797,3.25195v-2.69727c0-.55273.44775-1,1-1s1,.44727,1,1v6ZM25.05896,33h-2.11792c-.31134-2.8006-1.91479-5.21033-4.1969-6.63379l1.91113-4.01776c1.03534.41632,2.16229.65155,3.34473.65155s2.30939-.23523,3.34473-.65155l1.91113,4.01776c-2.2821,1.42346-3.88556,3.83319-4.1969,6.63379ZM37,37c0,.44043-.28857.8291-.71045.95703-.0957.0293-.19287.04297-.28955.04297-.32812,0-.64307-.16211-.83203-.44531l-2.16797-3.25195v2.69727c0,.55273-.44775,1-1,1s-1-.44727-1-1v-6c0-.44043.28857-.8291.71045-.95703.4209-.12988.87646.03516,1.12158.40234l2.16797,3.25195v-2.69727c0-.55273.44775-1,1-1s1,.44727,1,1v6Z"/>
    </g>
  </g>
</svg>