<?xml version="1.0" encoding="UTF-8"?>
<svg id="Glyph" xmlns="http://www.w3.org/2000/svg" version="1.1" viewBox="0 0 48 48">
  <path d="M17,27c-.55176,0-1,.44824-1,1v5h1.38184l1.72363-3.44727c.16992-.33887.51562-.55273.89453-.55273h3c.37891,0,.72461.21387.89453.55273l1.72363,3.44727h1.38184v-1.4306l-5.94025-4.5694h-4.05975Z" fill="#000" stroke-width="0"/>
  <path d="M21.74023,25h6.53906l.77246-2.31641c.12012-.3623.43652-.62402.81543-.6748.38281-.05078.75293.11914.96484.43652l1.85254,2.7793,1.7627.88086c.33887.16992.55273.51562.55273.89453v2c0,.43066-.27539.8125-.68359.94824l-4.28613,1.42871,6.96973,5.36133v-18.73828H12.64026l9.09998,7Z" fill="#000" stroke-width="0"/>
  <path d="M33,27.61816l-1.44727-.72363c-.15527-.07812-.28809-.19531-.38477-.33984l-.86621-1.29883-.35352,1.06055c-.13575.4082-.51758.68359-.94824.68359v2.6123l4-1.33301v-.66113Z" fill="#000" stroke-width="0"/>
  <path d="M29,34c0,.55273-.44727,1-1,1h-3c-.37891,0-.72461-.21387-.89453-.55273l-1.72363-3.44727h-1.76367l-1.72363,3.44727c-.16992.33887-.51562.55273-.89453.55273h-3c-.55273,0-1-.44727-1-1v-5h-1c-.55273,0-1-.44727-1-1s.44727-1,1-1h1.18427c.41412-1.1615,1.51379-2,2.81573-2h1.45978l-7.45978-5.73828v18.73828h24.35974l-6.35974-4.89215v.89215Z" fill="#000" stroke-width="0"/>
  <polygon points="27 27 24.34021 27 27 29.04596 27 27" fill="#000" stroke-width="0"/>
  <path d="M40,9h-2.98999c0-2.21002-1.79004-4-4-4-2.20001,0-4,1.78998-4,4h2c0-1.10004.89996-2,2-2,1.10999,0,2,.89996,2,2h-4c0,1.09998.89996,2,2,2,.56,0,1,.45001,1,1s-.44,1-1,1c-2.20001,0-4-1.79004-4-4h-10.01001c0-2.21002-1.78998-4-4-4s-4,1.78998-4,4h2c0-1.10004.90002-2,2-2s2,.89996,2,2h-4c0,1.09998.90002,2,2,2,.54999,0,1,.45001,1,1s-.45001,1-1,1c-2.21002,0-4-1.79004-4-4h-3c-1.65002,0-3,1.34998-3,3v28c0,1.64996,1.34998,3,3,3h32c1.65002,0,3-1.35004,3-3V12c0-1.65002-1.34998-3-3-3ZM39,39c0,.54999-.45001,1-1,1H10c-.54999,0-1-.45001-1-1v-22c0-.54999.45001-1,1-1h28c.54999,0,1,.45001,1,1v22Z" fill="#000" stroke-width="0"/>
</svg>