<?xml version="1.0" encoding="UTF-8"?>
<svg xmlns="http://www.w3.org/2000/svg" version="1.1" viewBox="0 0 64 64">
  <!-- Generator: Adobe Illustrator 28.7.1, SVG Export Plug-In . SVG Version: 1.2.0 Build 142)  -->
  <g>
    <g id="Glyph">
      <g>
        <path d="M18.18433,55c.41412,1.1615,1.51373,2,2.81567,2h22c1.30194,0,2.40161-.8385,2.81573-2h-27.63141Z"/>
        <path d="M51,23v-13c0-1.6543-1.3457-3-3-3H16c-1.6543,0-3,1.3457-3,3v13h38ZM39,11c0-.46387.31885-.86621.77002-.97363.45508-.10254.91699.11133,1.12451.52637l2.10547,4.21094v-3.76367c0-.55273.44775-1,1-1s1,.44727,1,1v7.99995c0,.54219-.45938,1.00005-1,1.00005-.37256,0-.72217-.20801-.89453-.55273l-2.10547-4.21094v3.76367c0,.55273-.44775,1-1,1s-1-.44727-1-1v-8ZM31,13c0-1.6543,1.3457-3,3-3s3,1.3457,3,3c0,.55273-.44775,1-1,1s-1-.44727-1-1c0-.55176-.44873-1-1-1s-1,.44824-1,1v4c0,.55176.44873,1,1,1s1-.44824,1-1c-.55225,0-1-.44727-1-1s.44775-1,1-1h1c.55225,0,1,.44727,1,1v1c0,1.6543-1.3457,3-3,3s-3-1.3457-3-3v-4ZM27,11c0-.55273.44775-1,1-1s1,.44727,1,1v8c0,.55273-.44775,1-1,1s-1-.44727-1-1v-8ZM22,16c-1.6543,0-3-1.3457-3-3s1.3457-3,3-3h2c.55225,0,1,.44727,1,1s-.44775,1-1,1h-2c-.55127,0-1,.44824-1,1s.44873,1,1,1c1.6543,0,3,1.3457,3,3s-1.3457,3-3,3h-2c-.55225,0-1-.44727-1-1s.44775-1,1-1h2c.55127,0,1-.44824,1-1s-.44873-1-1-1Z"/>
        <path d="M38,45v-8c0-3.85938-3.14014-7-7-7s-7,3.14062-7,7v11h2v-11c0-2.75684,2.24316-5,5-5s5,2.24316,5,5v8c0,.42871-.27002.79492-.64893.93652l1.64893,1.64941,1.64893-1.64941c-.37891-.1416-.64893-.50781-.64893-.93652Z"/>
        <path d="M13,25v25c0,1.64996,1.34998,3,3,3h32c1.65002,0,3-1.35004,3-3v-25H13ZM18,50c-.54999,0-1-.45001-1-1s.45001-1,1-1,1,.45001,1,1-.45001,1-1,1ZM18,30c-.54999,0-1-.45001-1-1s.45001-1,1-1,1,.45001,1,1-.45001,1-1,1ZM41.71002,45.70996l-4,4c-.20001.19-.45001.29004-.71002.29004s-.51001-.10004-.71002-.29004l-4-4c-.27997-.28998-.37-.71997-.20996-1.08997.14996-.38.51996-.62.91998-.62h1v-7c0-1.65002-1.34998-3-3-3s-3,1.34998-3,3v12c0,.54999-.45001,1-1,1h-4c-.54999,0-1-.45001-1-1v-12c0-4.96002,4.03998-9,9-9s9,4.03998,9,9v7h1c.40002,0,.77002.23999.91998.62.16003.37.07001.79999-.20996,1.08997ZM46,50c-.54999,0-1-.45001-1-1s.45001-1,1-1,1,.45001,1,1-.45001,1-1,1ZM46,30c-.54999,0-1-.45001-1-1s.45001-1,1-1,1,.45001,1,1-.45001,1-1,1Z"/>
      </g>
    </g>
  </g>
</svg>