<?xml version="1.0" encoding="UTF-8"?>
<svg xmlns="http://www.w3.org/2000/svg" version="1.1" viewBox="0 0 64 64">
  <!-- Generator: Adobe Illustrator 28.7.1, SVG Export Plug-In . SVG Version: 1.2.0 Build 142)  -->
  <g>
    <g id="Glyph">
      <g>
        <path d="M56.55566,47.60269c-1.97949-1.32227-4.48828-1.43164-6.55566-.33252-1.87891-.99902-4.12109-.99902-6,0-1.87891-.99902-4.12109-.99902-6,0-1.87891-.99902-4.12109-.99902-6,0-1.87891-.99902-4.12109-.99902-6,0-1.87891-.99902-4.12109-.99902-6,0-1.87891-.99902-4.12109-.99902-6,0-2.06738-1.09912-4.57617-.98975-6.55566.33252-.27734.18555-.44434.49756-.44434.83154v4.54492c0,.36914.20312.70801.52832.88184.32617.17383.71875.15479,1.02734-.05029,1.48438-.99219,3.4043-.99219,4.88867,0,.33594.22461.77539.22461,1.11133,0,1.48438-.99219,3.4043-.99219,4.88867,0,.33594.22461.77539.22461,1.11133,0,1.48438-.99219,3.4043-.99219,4.88867,0,.33594.22461.77539.22461,1.11133,0,1.48438-.99219,3.4043-.99219,4.88867,0,.33594.22461.77539.22461,1.11133,0,1.48438-.99219,3.4043-.99219,4.88867,0,.33594.22461.77539.22461,1.11133,0,1.48438-.99219,3.4043-.99219,4.88867,0,.33594.22461.77539.22461,1.11133,0,1.48438-.99219,3.4043-.99219,4.88867,0,.33594.22461.77539.22461,1.11133,0,1.48438-.99219,3.4043-.99219,4.88867,0,.16797.11182.36133.16846.55566.16846.16211,0,.32324-.03906.47168-.11816.3252-.17383.52832-.5127.52832-.88184v-4.54492c0-.33398-.16699-.646-.44434-.83154Z"/>
        <circle cx="32" cy="39.02084" r="1"/>
        <circle cx="24" cy="39.02084" r="1"/>
        <rect x="22" y="30.02084" width="10" height="2"/>
        <circle cx="16" cy="39.02084" r="1"/>
        <path d="M50,18.02084c0-2.20917-1.79083-4-4-4s-4,1.79083-4,4v2h8v-2Z"/>
        <path d="M51,12.02084h1v8h2v-8h1c.55273,0,1-.44775,1-1s-.44727-1-1-1h-4c-.55273,0-1,.44775-1,1s.44727,1,1,1Z"/>
        <path d="M16,24.12192v-1.10107c0-.55127.44824-1,1-1h8c.55176,0,1,.44873,1,1v1.10107c-1.95496.39856-3.4906,1.94452-3.89038,3.89893h9.78076c-.39978-1.95441-1.93542-3.50037-3.89038-3.89893v-1.10107c0-1.6543-1.3457-3-3-3h-8c-1.6543,0-3,1.3457-3,3v1.10107c-1.95496.39856-3.4906,1.94452-3.89038,3.89893h9.78076c-.39978-1.95441-1.93542-3.50037-3.89038-3.89893Z"/>
        <path d="M55,22.02084h-14c-1.09998,0-2,.89996-2,2v4h18v-4c0-1.10004-.90002-2-2-2ZM44,26.02084c-.54999,0-1-.45001-1-1s.45001-1,1-1,1,.45001,1,1-.45001,1-1,1ZM48,26.02084c-.54999,0-1-.45001-1-1s.45001-1,1-1,1,.45001,1,1-.45001,1-1,1ZM52,26.02084c-.54999,0-1-.45001-1-1s.45001-1,1-1,1,.45001,1,1-.45001,1-1,1Z"/>
        <circle cx="48" cy="39.02084" r="1"/>
        <path d="M11,44.52084c1.02002,0,2.03998.19,3,.56.96002-.37,1.97998-.56,3-.56s2.03998.19,3,.56c.96002-.37,1.97998-.56,3-.56s2.03998.19,3,.56c.96002-.37,1.97998-.56,3-.56s2.03998.19,3,.56c.96002-.37,1.97998-.56,3-.56s2.03998.19,3,.56c.96002-.37,1.97998-.56,3-.56s2.03998.19,3,.56c.96002-.37,1.97998-.56,3-.56s2.03998.19,3,.56c.96002-.37,1.97998-.56,3-.56h.15002l3.63-14.5h-18.28003l-2.70001,3.59998c-.19.25-.48999.40002-.79999.40002H7.28003l3.5,10.51001c.06995-.01001.14996-.01001.21997-.01001ZM48,36.02084c1.65002,0,3,1.34998,3,3s-1.34998,3-3,3-3-1.35004-3-3,1.34998-3,3-3ZM40,36.02084c1.65002,0,3,1.34998,3,3s-1.34998,3-3,3-3-1.35004-3-3,1.34998-3,3-3ZM32,36.02084c1.65002,0,3,1.34998,3,3s-1.34998,3-3,3-3-1.35004-3-3,1.34998-3,3-3ZM24,36.02084c1.65002,0,3,1.34998,3,3s-1.34998,3-3,3-3-1.35004-3-3,1.34998-3,3-3ZM16,36.02084c1.65002,0,3,1.34998,3,3s-1.34998,3-3,3-3-1.35004-3-3,1.34998-3,3-3Z"/>
        <circle cx="40" cy="39.02084" r="1"/>
        <rect x="10" y="30.02084" width="10" height="2"/>
      </g>
    </g>
  </g>
</svg>