<?xml version="1.0" encoding="UTF-8"?>
<svg xmlns="http://www.w3.org/2000/svg" version="1.1" viewBox="0 0 64 64">
  <!-- Generator: Adobe Illustrator 28.7.1, SVG Export Plug-In . SVG Version: 1.2.0 Build 142)  -->
  <g>
    <g id="Glyph">
      <g>
        <rect x="47" y="26" width="4" height="3"/>
        <rect x="47" y="31" width="4" height="3"/>
        <rect x="47" y="46" width="4" height="3"/>
        <rect x="47" y="36" width="4" height="3"/>
        <rect x="47" y="41" width="4" height="3"/>
        <path d="M53,19.46375v37.53625h3c.54999,0,1-.45001,1-1V23c0-1.55353-1.59473-2.72009-4-3.53625Z"/>
        <rect x="47" y="51" width="4" height="6"/>
        <path d="M47,24h4v-5.09827c-1.23303-.28259-2.58917-.49432-4-.64276v5.74103Z"/>
        <path d="M17,48c0,2.20605,1.79443,4,4,4s4-1.79395,4-4c0-1.48438-2.23975-4.04199-3.99951-5.66406-1.76025,1.62402-4.00049,4.18262-4.00049,5.66406Z"/>
        <path d="M7,34.33997v21.73004c0,.50995.41998.92999.92999.92999h26.14001c.51001,0,.92999-.42004.92999-.92999v-21.73004c-3.44,2.34003-10.45001,2.66003-14,2.66003s-10.56-.32001-14-2.66003ZM27,48c0,3.30859-2.69141,6-6,6s-6-2.69141-6-6c0-3.13477,4.80566-7.29883,5.35352-7.7627.37305-.31641.91992-.31641,1.29297,0,.54785.46387,5.35352,4.62793,5.35352,7.7627Z"/>
        <path d="M42,11c0-2.20605-1.79443-4-4-4h-15c-2.20557,0-4,1.79395-4,4v16.04034c-6.10193.22443-12,1.48199-12,3.95966,0,2.74841,7.25702,4,14,4s14-1.25159,14-4-7.25702-4-14-4V11c0-1.10254.89697-2,2-2h15c1.10303,0,2,.89746,2,2v7.04449c-6.58508.26312-13,1.83203-13,4.95551v2.32001c4.64001.52997,9.59998,1.88,9.96997,5.25995.02002.14001.03003.28003.03003.42004v25.07001c0,.32996-.04999.63995-.15002.92999h8.15002V18.0932c-.99646-.06036-2.00293-.0932-3-.0932v-7Z"/>
      </g>
    </g>
  </g>
</svg>