<?xml version="1.0" encoding="UTF-8"?>
<svg xmlns="http://www.w3.org/2000/svg" version="1.1" viewBox="0 0 64 64">
  <!-- Generator: Adobe Illustrator 28.7.1, SVG Export Plug-In . SVG Version: 1.2.0 Build 142)  -->
  <g>
    <g id="Glyph">
      <g>
        <path d="M17,12c-1.2207,0-2,.59229-2,1s.7793,1,2,1,2-.59229,2-1-.7793-1-2-1Z"/>
        <path d="M25,7c-8.72607,0-18,2.10266-18,6s9.27393,6,18,6,18-2.10272,18-6-9.27393-6-18-6ZM17,16c-2.24316,0-4-1.31787-4-3s1.75684-3,4-3,4,1.31787,4,3-1.75684,3-4,3Z"/>
        <path d="M7,23.18481v20.81519c0,2.08789,6.84766,5,18,5s18-2.91211,18-5v-20.81519c-3.46252,2.49518-10.89233,3.81519-18,3.81519s-14.53748-1.32001-18-3.81519ZM32,40c0,3.85986-3.14014,7-7,7s-7-3.14014-7-7c0-3.59277,5.61523-9.9541,6.25586-10.66797.37891-.42285,1.10938-.42285,1.48828,0,.64062.71387,6.25586,7.0752,6.25586,10.66797Z"/>
        <path d="M20,40c0,2.75684,2.24316,5,5,5s5-2.24316,5-5c0-1.90869-2.81592-5.88525-5-8.4751-2.18359,2.59131-5,6.56885-5,8.4751ZM26,42c0,.55225-.44775,1-1,1-1.63037,0-2.94727-1.27637-2.99854-2.90576-.01709-.55176.41602-1.01367.96826-1.03076.54785-.02441,1.01367.41602,1.03076.96826.0166.53369.46533.96826.99951.96826.55225,0,1,.44775,1,1Z"/>
        <path d="M7,47.18481v2.81519c0,4.54999,9.27002,7,18,7s18-2.45001,18-7v-2.81519c-3.46252,2.49518-10.89233,3.81519-18,3.81519s-14.53748-1.32001-18-3.81519Z"/>
        <path d="M7,16.91998v3.08002c0,2.08789,6.84766,5,18,5s18-2.91211,18-5v-3.08002c-4.72998,3.94-16.37,4.08002-18,4.08002s-13.27002-.14001-18-4.08002Z"/>
        <path d="M51.74414,7.33203c-.37891-.42285-1.10938-.42285-1.48828,0-.53809.59961-5.25586,5.94531-5.25586,9.00146,0,3.30859,2.69141,6,6,6s6-2.69141,6-6c0-3.05615-4.71777-8.40186-5.25586-9.00146Z"/>
      </g>
    </g>
  </g>
</svg>