<?xml version="1.0" encoding="UTF-8"?>
<svg xmlns="http://www.w3.org/2000/svg" version="1.1" viewBox="0 0 64 64">
  <!-- Generator: Adobe Illustrator 28.7.1, SVG Export Plug-In . SVG Version: 1.2.0 Build 142)  -->
  <g>
    <g id="Glyph">
      <g>
        <path d="M26.38122,56.46997c-.16998.33002-.51001.53003-.88.53003h-14c-.37,0-.71002-.20001-.88-.53003-.17999-.32001-.15997-.71997.04999-1.01996l.33002-.51001c.97998-1.47003,1.5-3.17999,1.5-4.94,0-.54999.45001-1,1-1h10c.54999,0,1,.45001,1,1,0,1.76001.52002,3.46997,1.5,4.94l.33002.51001c.20996.29999.22998.69995.04999,1.01996Z"/>
        <path d="M21.50121,14c-.83002.63-1.87,1-3,1s-2.16998-.37-3-1v33h6V14Z"/>
        <circle cx="18.50121" cy="10" r="3"/>
        <circle cx="30.50121" cy="33" r="3"/>
        <circle cx="38.50121" cy="33" r="3"/>
        <circle cx="34.50121" cy="26" r="3"/>
        <circle cx="42.50121" cy="26" r="3"/>
        <circle cx="46.50121" cy="33" r="3"/>
        <path d="M53.13122,16.21997c-.23999-.19-.54999-.26001-.84998-.20001l-2.21002.5c-4.27002.95001-8.73999.77002-12.91998-.51996-4.32001-1.33002-8.94-1.56-13.37-.67999l-.28003.06v28.03998l.66998-.13c4.11005-.83002,8.39001-.60999,12.39001.62,2.60999.79999,5.32001,1.21002,8.03003,1.21002,1.97998,0,3.95996-.22003,5.90997-.65002l2.21997-.48999c.45001-.10999.78003-.51001.78003-.97998v-26c0-.29999-.14001-.59003-.37-.78003ZM46.50121,38c-1.6413,0-3.08777-.80573-4-2.03094-.91223,1.22522-2.3587,2.03094-4,2.03094s-3.08777-.80573-4-2.03094c-.91223,1.22522-2.3587,2.03094-4,2.03094-2.75684,0-5-2.24316-5-5,0-2.56982,1.95642-4.66846,4.45386-4.94476-.28552-.62866-.45386-1.32098-.45386-2.05524,0-2.75684,2.24316-5,5-5,1.6413,0,3.08777.80573,4,2.03094.91223-1.22522,2.3587-2.03094,4-2.03094,2.75684,0,5,2.24316,5,5,0,.73425-.16833,1.42657-.45386,2.05524,2.49744.27631,4.45386,2.37494,4.45386,4.94476,0,2.75684-2.24316,5-5,5Z"/>
      </g>
    </g>
  </g>
</svg>