<?xml version="1.0" encoding="UTF-8"?>
<svg xmlns="http://www.w3.org/2000/svg" version="1.1" viewBox="0 0 64 64">
  <!-- Generator: Adobe Illustrator 28.7.1, SVG Export Plug-In . SVG Version: 1.2.0 Build 142)  -->
  <g>
    <g id="Glyph">
      <g>
        <circle cx="50" cy="27" r="3"/>
        <path d="M25,42v1h18v-1c0-1.6543-1.3457-3-3-3h-12c-1.6543,0-3,1.3457-3,3Z"/>
        <path d="M53,31c-.83002.63-1.87,1-3,1s-2.16998-.37-3-1v12h6v-12Z"/>
        <rect x="7" y="45" width="50" height="4"/>
        <path d="M19,41.28937l9.9671-15.44165c.3316.08929.67352.15228,1.0329.15228,2.20557,0,4-1.79395,4-4s-1.79443-4-4-4c-.63202,0-1.22217.16064-1.75409.42273l-9.48663-11.07312c-.00842-.00983-.02063-.01349-.0293-.02289-.04968-.05389-.1106-.09192-.17102-.13385-.04797-.03314-.09094-.07245-.14294-.09631-.05328-.0246-.11255-.03198-.17041-.047-.06952-.01788-.13635-.03925-.20789-.04193-.01324-.00055-.02435-.00763-.03772-.00763h-6c-.55225,0-1,.44727-1,1v35h8v-1.71063ZM19,37.61206V10.70386l7.72272,9.01422c-.45276.64819-.72272,1.43286-.72272,2.28192,0,1.12708.47229,2.14227,1.22461,2.86993l-8.22461,12.74213Z"/>
        <path d="M45,56c0,.55273.44775,1,1,1h6c.55225,0,1-.44727,1-1v-5h-8v5Z"/>
        <path d="M11,56c0,.55273.44775,1,1,1h6c.55225,0,1-.44727,1-1v-5h-8v5Z"/>
      </g>
    </g>
  </g>
</svg>