<?xml version="1.0" encoding="UTF-8"?>
<svg xmlns="http://www.w3.org/2000/svg" version="1.1" viewBox="0 0 64 64">
  <!-- Generator: Adobe Illustrator 28.7.1, SVG Export Plug-In . SVG Version: 1.2.0 Build 142)  -->
  <g>
    <g id="Glyph">
      <g>
        <circle cx="14" cy="48.5" r="1"/>
        <circle cx="38" cy="48.5" r="1"/>
        <path d="M35.18427,47.5h-18.36853c.11206.31433.18427.64764.18427,1s-.0722.68567-.18427,1h18.36859c-.11206-.31433-.18433-.64764-.18433-1s.0722-.68567.18427-1Z"/>
        <rect x="9" y="29.5" width="9" height="4"/>
        <path d="M20,33.5h2c.54999,0,1,.45001,1,1v5h2v-16h-2v5c0,.54999-.45001,1-1,1h-2v4Z"/>
        <path d="M21,23.5h-9c-1.6543,0-3,1.3457-3,3v1h12v-4Z"/>
        <polygon points="32 23.5 32 29.5 36 29.5 36 25.57031 33.92969 23.5 32 23.5"/>
        <path d="M56,8.5h-10c-.54999,0-1,.45001-1,1v2.51001l-8.47998,6.58997-.81-.81c-.19-.17999-.44-.28998-.71002-.28998h-8v22h9v2h-20v-2h5v-4h-12v1c0,1.64996,1.34998,3,3,3h2v2c-3.85999,0-7,3.14001-7,7s3.14001,7,7,7h24c3.85999,0,7-3.14001,7-7s-3.14001-7-7-7v-2c1.65002,0,3-1.35004,3-3v-9h7v10c0,.54999.45001,1,1,1h1v2c0,.54999.45001,1,1,1s1-.45001,1-1v-2h1c.54999,0,1-.45001,1-1v-19h-6v7h-7v-2c0-.27002-.10999-.52002-.28998-.71002l-2.76001-2.76001,7.04999-5.48999v.96002c0,.54999.45001,1,1,1h10c.54999,0,1-.45001,1-1v-6c0-.54999-.45001-1-1-1ZM31,35.5c-.54999,0-1-.45001-1-1s.45001-1,1-1,1,.45001,1,1-.45001,1-1,1ZM41,48.5c0,1.64996-1.34998,3-3,3H14c-1.65002,0-3-1.35004-3-3s1.34998-3,3-3h24c1.65002,0,3,1.34998,3,3ZM38,25.15997v5.34003c0,.54999-.45001,1-1,1h-6c-.54999,0-1-.45001-1-1v-8c0-.54999.45001-1,1-1h3.34003c.26996,0,.51996.10999.70996.28998l2.66003,2.66003c.17999.19.28998.44.28998.70996Z"/>
        <path d="M20,20.5v1h-8v-1c0-.54999.45001-1,1-1h6c.54999,0,1,.45001,1,1Z"/>
      </g>
    </g>
  </g>
</svg>