<?xml version="1.0" encoding="UTF-8"?>
<svg xmlns="http://www.w3.org/2000/svg" version="1.1" viewBox="0 0 48 48">
  <!-- Generator: Adobe Illustrator 28.7.1, SVG Export Plug-In . SVG Version: 1.2.0 Build 142)  -->
  <g>
    <g id="Glyph">
      <g>
        <path d="M29.25585,29.33204c-.54395.60596-3.25586,3.72656-3.25586,5.66797,0,2.20557,1.79443,4,4,4s4-1.79443,4-4c0-1.94141-2.71191-5.06201-3.25586-5.66797-.37891-.42285-1.10938-.42285-1.48828,0Z"/>
        <path d="M39.74414,33.33204c-.37891-.42285-1.10938-.42285-1.48828,0-.54395.60596-3.25586,3.72656-3.25586,5.66797,0,2.20557,1.79443,4,4,4s4-1.79443,4-4c0-1.94141-2.71191-5.06201-3.25586-5.66797Z"/>
        <path d="M20.49334,6.66883c-.72021-.40137-1.62939-.14618-2.03552.57141l-6.40118,11.3089c-.41095.72607-.15051,1.64795.57959,2.05164.71991.39801,1.62604.14203,2.03119-.57385l6.40118-11.30896c.40997-.7243.15186-1.64398-.57526-2.04913Z"/>
        <path d="M12.41937,5.62635c-2.41669-1.3335-5.42102-.47156-6.79535,1.95648-1.3335,2.41669-.46021,5.46191,1.95648,6.79535l3.45721,1.91095,4.92102-8.69397-3.53937-1.96881Z"/>
        <path d="M31.28515,25.19764l5.26898,2.91339c.70142.38751,1.51141.479,2.28156.25739.76013-.21893,1.39099-.71692,1.78015-1.40442.00507-.00897.01013-.01788.01538-.02722.38751-.70142.47906-1.51141.25739-2.28156s-.73022-1.40808-1.43164-1.79559l-5.2688-2.91272c-.21869-1.54553-1.14661-2.91962-2.51514-3.67578l-9.58282-5.29791-4.92615,8.70306,9.67084,5.34662c1.36829.75653,3.02551.8114,4.45026.17474Z"/>
      </g>
    </g>
  </g>
</svg>