<?xml version="1.0" encoding="UTF-8"?>
<svg xmlns="http://www.w3.org/2000/svg" version="1.1" viewBox="0 0 64 64">
  <!-- Generator: Adobe Illustrator 28.7.1, SVG Export Plug-In . SVG Version: 1.2.0 Build 142)  -->
  <g>
    <g id="Glyph">
      <g>
        <rect x="27" y="13.5" width="10" height="8" rx="2" ry="2"/>
        <path d="M46.75088,14.78223c-.75821-.68773-1.78005-1.08424-2.83089-.98224l-5.09998.51001c.12.38.17999.77997.17999,1.19v4c0,.40997-.06.81-.17999,1.19,0,0,5.09847.50986,5.09999.51001,2.12212.21222,4.07994-1.53626,4.08-3.69992.00003-1.05837-.4937-2.03266-1.24912-2.71787Z"/>
        <path d="M20.08002,21.20001l5.09998-.51001c-.12-.38-.17999-.78003-.17999-1.19v-4c0-.41003.06-.81.17999-1.19l-5.09998-.51001c-1.04004-.09998-2.08002.23999-2.86005.95001-.76993.69999-1.21994,1.69994-1.21997,2.74989-.00006,2.12678,1.96904,3.87514,4.08002,3.70012Z"/>
        <rect x="19" y="34.5" width="2" height="12"/>
        <rect x="29" y="23.5" width="6" height="2"/>
        <path d="M7,35.5v10c0,.55225.44727,1,1,1h3v-12h-3c-.55273,0-1,.44775-1,1Z"/>
        <rect x="43" y="34.5" width="2" height="12"/>
        <rect x="26" y="27.5" width="12" height="2"/>
        <path d="M15,30.5c-1.09998,0-2,.89996-2,2v16c0,1.09998.90002,2,2,2s2-.90002,2-2v-16c0-1.10004-.90002-2-2-2Z"/>
        <path d="M49,30.5c-1.09998,0-2,.89996-2,2v16c0,1.09998.90002,2,2,2s2-.90002,2-2v-16c0-1.10004-.90002-2-2-2Z"/>
        <path d="M56,34.5h-3v12h3c.55273,0,1-.44775,1-1v-10c0-.55225-.44727-1-1-1Z"/>
        <path d="M39,31.5h-14c-1.10455,0-2,.89539-2,2v14c0,1.09998.90002,2,2,2h14c1.09998,0,2-.90002,2-2v-14c0-1.10461-.89545-2-2-2ZM36.71002,41.20996s-3,3-3.00016,3.00015c-.40264.38234-1.01656.38299-1.41988-.00015-.38995-.38995-.38995-1.02997,0-1.41998l1.30005-1.28998h-5.59003c-.54999,0-1-.45001-1-1s.45001-1,1-1h5.59003l-1.30005-1.29004c-.38995-.38995-.38995-1.02997,0-1.41998.39001-.39001,1.03003-.39001,1.42004,0l3,3c.38995.39001.38995,1.03003,0,1.41998Z"/>
      </g>
    </g>
  </g>
</svg>