<?xml version="1.0" encoding="UTF-8"?>
<svg xmlns="http://www.w3.org/2000/svg" version="1.1" viewBox="0 0 64 64">
  <!-- Generator: Adobe Illustrator 28.7.1, SVG Export Plug-In . SVG Version: 1.2.0 Build 142)  -->
  <g>
    <g id="Glyph">
      <g>
        <path d="M44,13c-3.85986,0-7,3.14014-7,7s3.14014,7,7,7,7-3.14014,7-7-3.14014-7-7-7ZM42,22c0,.55225-.44775,1-1,1s-1-.44775-1-1v-4c0-.55225.44775-1,1-1s1,.44775,1,1v4ZM48,22c0,.55225-.44775,1-1,1s-1-.44775-1-1v-4c0-.55225.44775-1,1-1s1,.44775,1,1v4Z"/>
        <path d="M24,10c0-1.6543-1.3457-3-3-3s-3,1.3457-3,3v3h6v-3Z"/>
        <path d="M54,7h-20c-1.6543,0-3,1.3457-3,3v20c0,1.6543,1.3457,3,3,3h9v3.5c0,1.92969-1.57031,3.5-3.5,3.5-3.03271,0-5.5,2.46729-5.5,5.5v1.5c0,4.41113-3.58887,8-8,8s-8-3.58887-8-8v-12.06946c3.93994-.49463,7-3.85876,7-7.93054v-6H9v6c0,4.07178,3.06006,7.43591,7,7.93054v12.06946c0,5.51416,4.48584,10,10,10s10-4.48584,10-10v-1.5c0-1.92969,1.57031-3.5,3.5-3.5,3.03271,0,5.5-2.46729,5.5-5.5v-3.5h9c1.6543,0,3-1.3457,3-3V10c0-1.6543-1.3457-3-3-3ZM16.9989,30.9958c-.78321.00696-1.26101-.90501-.83094-1.55049l.96338-1.44531h-2.13135c-.36865,0-.70752-.20312-.88184-.52832-.17383-.3252-.15479-.71973.0498-1.02637l2-3c.30615-.45947.92627-.58496,1.38672-.27734.45947.30615.5835.92725.27734,1.38672l-.96338,1.44531h2.13135c.36865,0,.70752.20312.88184.52832.17383.3252.15479.71973-.0498,1.02637l-2,3c-.18419.27629-.50461.43806-.83313.44111ZM44,29c-4.9624,0-9-4.0376-9-9s4.0376-9,9-9,9,4.0376,9,9-4.0376,9-9,9Z"/>
        <path d="M16,10c0-1.6543-1.3457-3-3-3s-3,1.3457-3,3v3h6v-3Z"/>
        <path d="M25,19c1.10455,0,2-.89545,2-2,0-1.10461-.89545-2-2-2H9c-1.10455,0-2,.89539-2,2,0,1.10455.89545,2,2,2h16Z"/>
      </g>
    </g>
  </g>
</svg>