<?xml version="1.0" encoding="UTF-8"?>
<svg id="Glyph" xmlns="http://www.w3.org/2000/svg" version="1.1" viewBox="0 0 64 64">
  <path d="M32,7c-8.271,0-15,6.72852-15,15s6.729,15,15,15,15-6.72852,15-15-6.729-15-15-15ZM24.20557,18.5c.27588-.47754.88574-.64355,1.36621-.36621l4.48767,2.59088c.33514-.28638.72546-.50525,1.16418-.62311.77344-.20703,1.58301-.10059,2.27686.2998,1.12665.65173,1.65961,1.92755,1.43787,3.14032l1.02551.5921c.47847.27634.64206.88759.36628,1.36609-.25681.44558-.89304.6397-1.36628.36634l-1.02344-.59094c-.33527.28632-.72565.50494-1.16406.62219-.72529.19397-1.60117.08962-2.27588-.2998-.69434-.40039-1.19092-1.04688-1.39795-1.82129-.11749-.43854-.12329-.88593-.04303-1.31921l-4.48773-2.59094c-.47852-.27637-.64209-.8877-.36621-1.36621ZM37,33c0,.55273-.44775,1-1,1h-8c-.55225,0-1-.44727-1-1v-4c0-.55273.44775-1,1-1h8c.55225,0,1,.44727,1,1v4ZM44,23c-.55225,0-1-.44727-1-1,0-2.67346-.96051-5.12555-2.55219-7.03387l-1.37701,1.37665c-.37086.37076-1.0213.39276-1.41406,0-.39062-.39062-.39062-1.02344,0-1.41406l1.37695-1.37665c-1.66736-1.39062-3.75085-2.29443-6.03369-2.5014v1.94934c0,.55273-.44775,1-1,1s-1-.44727-1-1v-1.94934c-2.28284.20697-4.36633,1.11078-6.03369,2.5014l1.37694,1.37663c.87619.87599-.48502,2.3431-1.41405,1.41408l-1.37701-1.37665c-1.59167,1.90833-2.55219,4.36041-2.55219,7.03387,0,.55273-.44775,1-1,1s-1-.44727-1-1c0-3.56989,1.44769-6.80713,3.78534-9.15887.0094-.01019.01239-.02362.02228-.03351s.02338-.01288.03357-.02228c2.35168-2.33759,5.58881-3.78534,9.15881-3.78534s6.80713,1.44775,9.15881,3.78534c.01019.0094.02368.01239.03357.02228s.01288.02332.02228.03351c2.33765,2.35175,3.78534,5.58899,3.78534,9.15887,0,.55273-.44775,1-1,1Z" fill="#000" stroke-width="0"/>
  <rect x="29" y="30" width="6" height="2" fill="#000" stroke-width="0"/>
  <path d="M31.50049,23.86524c.46932.27071,1.09671.09815,1.36603-.36615.27455-.47728.11028-1.08989-.36678-1.36516-.75783-.43728-1.69284.27967-1.46556,1.12487.06883.25774.23428.47254.46631.60645Z" fill="#000" stroke-width="0"/>
  <path d="M15,45h-2c-.55225,0-1,.44727-1,1v10c0,.55273.44775,1,1,1h2c.55225,0,1-.44727,1-1v-10c0-.55273-.44775-1-1-1Z" fill="#000" stroke-width="0"/>
  <path d="M24,57h16c1.10457,0,2-.89543,2-2v-8c0-1.10457-.89543-2-2-2h-16c-1.10457,0-2,.89543-2,2v8c0,1.10457.89543,2,2,2ZM38,50c.55231,0,1,.44769,1,1,0,.55225-.44769,1-1,1s-1-.44775-1-1c0-.55231.44769-1,1-1ZM32,50c.55231,0,1,.44769,1,1,0,.55225-.44769,1-1,1s-1-.44775-1-1c0-.55231.44769-1,1-1ZM26,50c.55231,0,1,.44769,1,1,0,.55225-.44769,1-1,1s-1-.44775-1-1c0-.55231.44769-1,1-1Z" fill="#000" stroke-width="0"/>
  <path d="M7,48v6c0,.55273.44775,1,1,1h2v-8h-2c-.55225,0-1,.44727-1,1Z" fill="#000" stroke-width="0"/>
  <rect x="18" y="47" width="2" height="8" fill="#000" stroke-width="0"/>
  <path d="M51,45h-2c-.55225,0-1,.44727-1,1v10c0,.55273.44775,1,1,1h2c.55225,0,1-.44727,1-1v-10c0-.55273-.44775-1-1-1Z" fill="#000" stroke-width="0"/>
  <path d="M56,47h-2v8h2c.55225,0,1-.44727,1-1v-6c0-.55273-.44775-1-1-1Z" fill="#000" stroke-width="0"/>
  <rect x="44" y="47" width="2" height="8" fill="#000" stroke-width="0"/>
  <path d="M32,39c-1.38,0-2.71997-.17004-4-.48004v4.48004h8v-4.48004c-1.28003.31-2.62.48004-4,.48004Z" fill="#000" stroke-width="0"/>
</svg>