<?xml version="1.0" encoding="UTF-8"?>
<svg id="Glyph" xmlns="http://www.w3.org/2000/svg" version="1.1" viewBox="0 0 64 64">
  <path d="M46.29297,32.70703c.37056.37055,1.02105.393,1.41406,0l2-2c.39062-.39062.39062-1.02344,0-1.41406l-2-2c-.39062-.39062-1.02344-.39062-1.41406,0s-.39062,1.02344,0,1.41406l.29297.29297h-3.58594c-.55273,0-1,.44775-1,1s.44727,1,1,1h3.58594l-.29297.29297c-.39059.39059-.39062,1.02333,0,1.41406Z" fill="#000" stroke-width="0"/>
  <path d="M18.293,32.70706c.38745.38742,1.0284.3856,1.41403-.00003l2-2c.39062-.39062.39062-1.02344,0-1.41406l-2-2c-.39062-.39062-1.02344-.39062-1.41406,0s-.39062,1.02344,0,1.41406l.29297.29297h-3.58594c-.55273,0-1,.44775-1,1s.44727,1,1,1h3.58594l-.29297.29297c-.39062.39062-.39062,1.02344.00003,1.41409Z" fill="#000" stroke-width="0"/>
  <path d="M50.81573,15h-11.63141c.41412,1.1615,1.51373,2,2.81567,2h2v2.58594l-1.70703,1.70703c-.1875.1875-.29297.44189-.29297.70703v2c0,.55225.44727,1,1,1s1-.44775,1-1v-1.58594l1-1,1,1v1.58594c0,.55225.44727,1,1,1s1-.44775,1-1v-2c0-.26514-.10547-.51953-.29297-.70703l-1.70703-1.70703v-2.58594h2c1.30194,0,2.40161-.8385,2.81573-2Z" fill="#000" stroke-width="0"/>
  <path d="M24.82001,15c-.41998,1.15997-1.52002,2-2.82001,2h-2v2.58997l1.71002,1.70001c.17999.19.28998.44.28998.71002v2c0,.54999-.45001,1-1,1s-1-.45001-1-1v-1.59003l-1-1-1,1v1.59003c0,.54999-.45001,1-1,1s-1-.45001-1-1v-2c0-.27002.10999-.52002.28998-.71002l1.71002-1.70001v-2.58997h-2c-1.29999,0-2.40002-.84003-2.82001-2h11.64001Z" fill="#000" stroke-width="0"/>
  <rect x="7" y="7" width="50" height="6" rx="1" ry="1" fill="#000" stroke-width="0"/>
  <circle cx="23" cy="42" r="1" fill="#000" stroke-width="0"/>
  <path d="M43,56c0,.55273.44727,1,1,1h4c.55273,0,1-.44727,1-1v-5h-6v5Z" fill="#000" stroke-width="0"/>
  <circle cx="32" cy="42" r="1" fill="#000" stroke-width="0"/>
  <path d="M32.31641,27.05127l1.68359.56152v-2.61279h-4v2.61279l1.68359-.56152c.10254-.03418.20996-.05127.31641-.05127s.21387.01709.31641.05127Z" fill="#000" stroke-width="0"/>
  <path d="M25,25c-.55273,0-1,.44775-1,1v7h16v-7c0-.55225-.44727-1-1-1h-3v4c0,.32129-.1543.62305-.41511.81109-.26401.19014-.59392.23644-.90129.13764l-2.68359-.89453-2.68359.89453c-.30566.09912-.64062.05078-.90137-.1377-.26074-.18799-.41504-.48975-.41504-.81104v-4h-3Z" fill="#000" stroke-width="0"/>
  <path d="M15,56c0,.55273.44727,1,1,1h4c.55273,0,1-.44727,1-1v-5h-6v5Z" fill="#000" stroke-width="0"/>
  <circle cx="14" cy="42" r="1" fill="#000" stroke-width="0"/>
  <path d="M50,35H14c-3.85999,0-7,3.14001-7,7s3.14001,7,7,7h36c3.85999,0,7-3.14001,7-7s-3.14001-7-7-7ZM14,45c-1.65002,0-3-1.35004-3-3s1.34998-3,3-3,3,1.34998,3,3-1.34998,3-3,3ZM23,45c-1.65002,0-3-1.35004-3-3s1.34998-3,3-3,3,1.34998,3,3-1.34998,3-3,3ZM32,45c-1.65002,0-3-1.35004-3-3s1.34998-3,3-3,3,1.34998,3,3-1.34998,3-3,3ZM41,45c-1.65002,0-3-1.35004-3-3s1.34998-3,3-3,3,1.34998,3,3-1.34998,3-3,3ZM50,45c-1.65002,0-3-1.35004-3-3s1.34998-3,3-3,3,1.34998,3,3-1.34998,3-3,3Z" fill="#000" stroke-width="0"/>
  <circle cx="41" cy="42" r="1" fill="#000" stroke-width="0"/>
  <circle cx="50" cy="42" r="1" fill="#000" stroke-width="0"/>
</svg>