<?xml version="1.0" encoding="UTF-8"?>
<svg xmlns="http://www.w3.org/2000/svg" version="1.1" viewBox="0 0 64 64">
  <!-- Generator: Adobe Illustrator 28.7.1, SVG Export Plug-In . SVG Version: 1.2.0 Build 142)  -->
  <g>
    <g id="Glyph">
      <g>
        <path d="M57,53v3c0,.54999-.45001,1-1,1H8c-.54999,0-1-.45001-1-1v-3h10v2h30v-2h10Z"/>
        <path d="M55,10c0-1.65002-1.34998-3-3-3s-3,1.34998-3,3v37h6V10Z"/>
        <rect x="49" y="49" width="6" height="2"/>
        <path d="M15,10c0-1.65002-1.34998-3-3-3s-3,1.34998-3,3v37h6V10Z"/>
        <rect x="9" y="49" width="6" height="2"/>
        <path d="M17,25c0,2.20605,1.79395,4,4,4s4-1.79395,4-4c0-1.8587-1.27948-3.41095-3-3.85803v-3.14197h9v3.14197c-1.72052.44708-3,1.99933-3,3.85803,0,2.20605,1.79395,4,4,4s4-1.79395,4-4c0-1.8587-1.27948-3.41095-3-3.85803v-3.14197h9v3.14197c-1.72052.44708-3,1.99933-3,3.85803,0,2.20605,1.79395,4,4,4s4-1.79395,4-4c0-1.8587-1.27948-3.41095-3-3.85803v-3.14197h3v-6h-30v6h3v3.14197c-1.72052.44708-3,1.99933-3,3.85803Z"/>
      </g>
    </g>
  </g>
</svg>