<?xml version="1.0" encoding="UTF-8"?>
<svg id="Glyph" xmlns="http://www.w3.org/2000/svg" version="1.1" viewBox="0 0 48 48">
  <path d="M40,5c-1.65686,0-3,1.34314-3,3v19h6V8c0-1.65686-1.34314-3-3-3Z" fill="#000" stroke-width="0"/>
  <path d="M9,9v13.59998c.73999-.42999,1.59003-.65997,2.45001-.65997.27188,0,.55732.06668.79999-.10004.79999-.54999,1.75-.83997,2.75-.83997s1.94999.28997,2.74997.83995c.24529.16863.51398.10006.79.10006.87,0,1.72003.22998,2.46002.66998.84149.47516,1.51642,1.19543,1.94708,2.07336.06274.12793.21613.2832.34357.34692.8797.44,1.6095,1.10992,2.09937,1.96973.49988.84973.71985,1.81952.65002,2.79926-.01166.16309.0318.32208.12421.45697.5473.79871.83575,1.74634.83575,2.74377,0,.98975-.28986,1.93951-.8396,2.74939-.08948.13184-.13123.28705-.12006.44598.06879.97815-.16125,1.94617-.65033,2.80463h6.60999c1.65686,0,3-1.34314,3-3V8c0-1.13.37-2.17004,1-3H13c-2.20917,0-4,1.79083-4,4ZM32,23h-7c-.55273,0-1-.44727-1-1s.44727-1,1-1h7c.55273,0,1,.44727,1,1s-.44727,1-1,1ZM32,19H14c-.55273,0-1-.44727-1-1s.44727-1,1-1h18c.55273,0,1,.44727,1,1s-.44727,1-1,1ZM32,15H14c-.55273,0-1-.44727-1-1s.44727-1,1-1h18c.55273,0,1,.44727,1,1s-.44727,1-1,1ZM14,9h18c.55273,0,1,.44727,1,1s-.44727,1-1,1H14c-.55273,0-1-.44727-1-1s.44727-1,1-1Z" fill="#000" stroke-width="0"/>
  <path d="M15,27.995c-2.75684,0-5,2.24316-5,5s2.24316,5,5,5,5-2.24316,5-5-2.24316-5-5-5ZM18.20703,32.20203l-3,3c-.19531.19531-.45117.29297-.70703.29297s-.51172-.09766-.70703-.29297l-2-2c-.39062-.39062-.39062-1.02344,0-1.41406s1.02344-.39062,1.41406,0l1.29297,1.29297,2.29297-2.29297c.39062-.39062,1.02344-.39062,1.41406,0s.39062,1.02344,0,1.41406Z" fill="#000" stroke-width="0"/>
  <path d="M22.41388,39.15845c.52466-.25568.95526-.65875,1.24554-1.16211.29297-.50604.42615-1.08136.38531-1.66193-.0426-.60193.11987-1.20831.4563-1.70636.32672-.48206.49896-1.04669.49896-1.63263s-.17224-1.15057-.49805-1.62994c-.33734-.50073-.49982-1.10706-.45807-1.70721.04169-.5824-.09149-1.15765-.38354-1.66193-.2912-.50519-.7218-.9082-1.24646-1.16388-.54242-.26459-.98633-.7085-1.25085-1.25092-.25574-.52466-.65875-.95526-1.16211-1.24554-.50696-.29388-1.0849-.42523-1.66199-.38531-.60809.04437-1.20825-.11896-1.7063-.4563-.96411-.65344-2.30377-.65253-3.26257-.00092-.50073.33826-1.10443.49542-1.70721.45813-.58771-.04443-1.15771.09052-1.66193.38348-.50519.2912-.9082.7218-1.16394,1.24646-.26453.54242-.70844.98633-1.25085,1.25092-.52466.25568-.95526.65869-1.24554,1.16211-.29297.50604-.42615,1.0813-.38531,1.66193.0426.60193-.11987,1.20825-.4563,1.7063-.32672.48206-.49896,1.04669-.49896,1.63263s.17224,1.15057.49805,1.63c.33734.50067.49982,1.10706.45807,1.70721-.04169.58234.09149,1.15765.38354,1.66193.2912.50513.7218.9082,1.24646,1.16388.54242.26453.98633.70844,1.25085,1.25085.25574.52472.65875.95526,1.16211,1.24561.50604.29382,1.08136.42078,1.66199.38525.60901-.03992,1.20825.11987,1.7063.45636.48206.32666,1.04669.4989,1.63263.4989s1.15057-.17224,1.62994-.49805c.50165-.33734,1.11066-.49182,1.70721-.45807.58594.04529,1.15771-.09143,1.66193-.38354.50519-.2912.9082-.72174,1.16394-1.24646.26453-.54242.70844-.98633,1.25085-1.25085ZM15,39.995c-3.85938,0-7-3.14062-7-7s3.14062-7,7-7,7,3.14062,7,7-3.14062,7-7,7Z" fill="#000" stroke-width="0"/>
  <path d="M6.71002,25.02997c.12-.04999.22998-.14996.29999-.26996-.01001-.09003-.01001-.17004-.01001-.26001v-15.32001c-1.15997.40997-2,1.52002-2,2.82001v14.41998c.45001-.58002,1.03998-1.04999,1.71002-1.39001Z" fill="#000" stroke-width="0"/>
  <path d="M23.24825,41.02125c-.11924.03026-.20485.10198-.28823.26873-.33002.67999-.81,1.26001-1.40002,1.71002h8.44c1.29999,0,2.40997-.84003,2.82001-2h-9.32c-.09982,0-.18161.00345-.25175.02125Z" fill="#000" stroke-width="0"/>
</svg>