<?xml version="1.0" encoding="utf-8"?>
<!-- Generator: Adobe Illustrator 27.3.1, SVG Export Plug-In . SVG Version: 6.00 Build 0)  -->
<svg version="1.1" id="Glyph" xmlns="http://www.w3.org/2000/svg" xmlns:xlink="http://www.w3.org/1999/xlink" x="0px" y="0px"
	 viewBox="0 0 48 48" enable-background="new 0 0 48 48" xml:space="preserve">
<g>
	<path d="M18.2793,32.95312c0.15625,0.54199,0.37598,1.05957,0.65723,1.54785c0.2832,0.49121,0.62158,0.94043,1.01123,1.34375
		l1.24902-1.59863c-0.39697-0.46387-0.7041-0.99512-0.9082-1.57227L18.2793,32.95312z"/>
	<path d="M23.32715,24.20508l0.75928,1.87695C24.38184,26.02734,24.68701,26,25,26s0.61816,0.02734,0.91357,0.08203l0.75928-1.87695
		C25.58105,23.93164,24.41895,23.93164,23.32715,24.20508z"/>
	<path d="M25,19c-6.61707,0-12,5.38342-12,12s5.38293,12,12,12s12-5.38342,12-12S31.61707,19,25,19z M23.32812,34.76562
		c0,0-2.45459,3.14252-2.45996,3.14941c-0.33624,0.43042-0.96796,0.5072-1.39893,0.17676
		c-0.92188-0.71094-1.68408-1.58301-2.26562-2.59277c-0.57562-0.99896-0.95062-2.09259-1.11371-3.24872
		c-0.07599-0.53857,0.31586-1.05652,0.85248-1.13019l3.95996-0.55078c0.5415-0.08105,1.0498,0.30371,1.12744,0.84863
		c0.11084,0.77734,0.50977,1.46674,1.12305,1.94232C23.58472,33.69525,23.66553,34.33459,23.32812,34.76562z M25,32
		c-0.55231,0-1-0.44775-1-1c0-0.55231,0.44769-1,1-1s1,0.44769,1,1C26,31.55225,25.55231,32,25,32z M23.89893,28.2168
		c-0.51044,0.22162-1.11792-0.02692-1.32617-0.54199l-1.5-3.70996c-0.20654-0.51074,0.03906-1.09277,0.54932-1.30078
		c2.15723-0.88086,4.59863-0.88086,6.75586,0c0.51025,0.20801,0.75586,0.79004,0.54932,1.30078c0,0-1.49579,3.69958-1.5,3.7099
		c-0.20557,0.50842-0.82269,0.76282-1.32617,0.54205C25.43994,27.92969,24.56006,27.92969,23.89893,28.2168z M33.91016,32.25
		c-0.16309,1.15625-0.53809,2.25-1.11328,3.24902c-0.58203,1.00977-1.34424,1.88184-2.26617,2.59277
		c-0.43304,0.33203-1.06335,0.25342-1.39886-0.17676c0,0-2.45667-3.1452-2.45996-3.14941
		c-0.33704-0.43152-0.25671-1.0697,0.17529-1.40527c0.61328-0.47559,1.01221-1.16504,1.12305-1.94238
		c0.07764-0.54492,0.57959-0.92969,1.12744-0.84863c0,0,3.94739,0.54901,3.95996,0.55078
		C33.60132,31.19574,33.98688,31.70697,33.91016,32.25z"/>
	<path d="M28.80322,34.24609l1.24902,1.59863c0.38965-0.40332,0.72852-0.85254,1.01172-1.34375
		c0.28125-0.48828,0.50049-1.00684,0.65674-1.54785l-2.00928-0.2793C29.50732,33.25098,29.2002,33.78223,28.80322,34.24609z"/>
	<path d="M38.97998,16.48999C38.98999,16.32996,39,16.16998,39,16c0-2.76001-2.23999-5-5-5
		c-0.40997,0-0.82001,0.04999-1.21997,0.14996C31.94,7.60999,28.75,5,25,5c-3.67999,0-6.84998,2.51996-7.73999,6H17
		c-3.85999,0-7,3.14001-7,7c0,0.33997,0.02002,0.66998,0.07001,1H10c-1.32001,0-2.58002,0.51996-3.53998,1.46997
		C5.52002,21.41998,5,22.67999,5,24c0,2.76001,2.23999,5,5,5h1.14001C12.12,22.21997,17.96002,17,25,17
		c6.89001,0,12.64001,5.01001,13.78998,11.57996c0.86005-0.31995,1.64001-0.81995,2.31-1.47998C42.32001,25.87,43,24.23999,43,22.5
		C43,19.82996,41.39001,17.47998,38.97998,16.48999z M28,14c-0.55225,0-1-0.44727-1-1c0-1.10254-0.89697-2-2-2s-2,0.89746-2,2
		c0,0.55273-0.44775,1-1,1s-1-0.44727-1-1c0-2.20605,1.79443-4,4-4s4,1.79395,4,4C29,13.55273,28.55225,14,28,14z"/>
</g>
</svg>
