<?xml version="1.0" encoding="UTF-8"?>
<svg xmlns="http://www.w3.org/2000/svg" version="1.1" viewBox="0 0 64 64">
  <!-- Generator: Adobe Illustrator 28.7.1, SVG Export Plug-In . SVG Version: 1.2.0 Build 142)  -->
  <g>
    <g id="Glyph">
      <g>
        <path d="M22,48.70996v1.53003c0,.40997.25.77002.62.92999,2.97003,1.21002,6.13,1.83002,9.38,1.83002s6.40997-.62,9.38-1.83002c.37-.15997.62-.52002.62-.92999v-1.53003c-3.02002,1.47003-6.41998,2.29004-10,2.29004s-6.97998-.82001-10-2.29004Z"/>
        <path d="M28,54.70001v1.29999c0,.54999.45001,1,1,1h6c.54999,0,1-.45001,1-1v-1.29999c-1.31.19995-2.65002.29999-4,.29999s-2.69-.10004-4-.29999Z"/>
        <path d="M41.86078,16.72473c-2.63971-2.31152-6.08466-3.72473-9.86078-3.72473s-7.22107,1.41321-9.86078,3.72473l9.86078,9.86121,9.86078-9.86121ZM29,18c0-1.6543,1.3457-3,3-3s3,1.3457,3,3-1.3457,3-3,3-3-1.3457-3-3Z"/>
        <path d="M23,26c0-.55176-.44873-1-1-1h-1v2h1c.55127,0,1-.44824,1-1Z"/>
        <circle cx="32" cy="18" r="1"/>
        <path d="M32,29.41406l-9.86078,9.86121c2.63971,2.31152,6.08466,3.72473,9.86078,3.72473s7.22107-1.41321,9.86078-3.72473l-9.86078-9.86121ZM32,41c-1.6543,0-3-1.3457-3-3s1.3457-3,3-3,3,1.3457,3,3-1.3457,3-3,3Z"/>
        <path d="M20.72998,18.14001c-2.32001,2.63995-3.72998,6.07996-3.72998,9.85999s1.40997,7.21997,3.72998,9.85999l9.86005-9.85999-9.86005-9.85999ZM23.71002,30.28998c.62.62.15997,1.71002-.71002,1.71002-.26001,0-.51001-.10004-.71002-.29004l-1.28998-1.29999v.59003c0,.54999-.45001,1-1,1s-1-.45001-1-1v-7c0-.54999.45001-1,1-1h2c1.65002,0,3,1.34998,3,3,0,1.52997-1.15002,2.76996-2.62,2.95996,0,0,1.32001,1.33002,1.33002,1.33002Z"/>
        <path d="M47.88599,22h4.22961c-2.02039-6.76001-7.35547-12.09521-14.1156-14.1156v4.22961c4.54852,1.72406,8.16193,5.33746,9.88599,9.88599Z"/>
        <path d="M52.6073,24h-4.10229c.31171,1.28534.495,2.62018.495,4s-.18329,2.71466-.495,4h4.10229c.25122-1.29626.3927-2.63141.3927-4s-.14148-2.70374-.3927-4Z"/>
        <circle cx="32" cy="38" r="1"/>
        <path d="M36,11.495v-4.10229c-1.29626-.25122-2.63141-.3927-4-.3927s-2.70374.14148-4,.3927v4.10229c1.28534-.31171,2.62018-.495,4-.495s2.71466.18329,4,.495Z"/>
        <path d="M26,43.88599c-4.54852-1.72406-8.16193-5.33746-9.88599-9.88599h-4.22961c2.02039,6.76001,7.35547,12.09521,14.1156,14.1156v-4.22961Z"/>
        <path d="M43,26c0-.55176-.44873-1-1-1h-1v2h1c.55127,0,1-.44824,1-1Z"/>
        <path d="M26,12.11401v-4.22961c-6.76013,2.02039-12.09521,7.35559-14.1156,14.1156h4.22961c1.72406-4.54852,5.33746-8.16193,9.88599-9.88599Z"/>
        <path d="M28,44.505v4.10229c1.29626.25122,2.63141.3927,4,.3927s2.70374-.14148,4-.3927v-4.10229c-1.28534.31171-2.62018.495-4,.495s-2.71466-.18329-4-.495Z"/>
        <path d="M38,43.88599v4.22961c6.76013-2.02039,12.09521-7.35559,14.1156-14.1156h-4.22961c-1.72406,4.54852-5.33746,8.16193-9.88599,9.88599Z"/>
        <path d="M15,28c0-1.37982.18329-2.71466.495-4h-4.10229c-.25122,1.29626-.3927,2.63141-.3927,4s.14148,2.70374.3927,4h4.10229c-.31171-1.28534-.495-2.62018-.495-4Z"/>
        <path d="M43.27002,18.14001l-9.86005,9.85999,9.86005,9.85999c2.32001-2.64001,3.72998-6.08002,3.72998-9.85999s-1.40997-7.22003-3.72998-9.85999ZM43.71002,30.28998c.38995.39001.38995,1.03003,0,1.41998-.39001.39001-1.03003.38-1.42004,0l-1.28998-1.29999v.59003c0,.54999-.45001,1-1,1s-1-.45001-1-1v-7c0-.54999.45001-1,1-1h2c1.65002,0,3,1.34998,3,3,0,1.52997-1.15002,2.76996-2.62,2.95996l1.33002,1.33002Z"/>
      </g>
    </g>
  </g>
</svg>