<?xml version="1.0" encoding="UTF-8"?>
<svg id="Glyph" xmlns="http://www.w3.org/2000/svg" version="1.1" viewBox="0 0 48 48">
  <path d="M23.5,18.10001V7.89999c0-1.65686-1.34314-3-3-3h-12c-1.65686,0-3,1.34314-3,3v10.20001c0,1.65686,1.34314,3,3,3h12c1.65686,0,3-1.34314,3-3ZM9.5,7.99997h10c.55225,0,1,.44727,1,1s-.44775,1-1,1h-10c-.55225,0-1-.44727-1-1s.44775-1,1-1ZM9.5,11.99997h10c.55225,0,1,.44727,1,1s-.44775,1-1,1h-10c-.55225,0-1-.44727-1-1s.44775-1,1-1ZM19.5,17.99997h-10c-.55225,0-1-.44727-1-1s.44775-1,1-1h10c.55225,0,1,.44727,1,1s-.44775,1-1,1Z" fill="#000" stroke-width="0"/>
  <path d="M40.5,13.29001v19.81h2v-17c0-1.29999-.84003-2.40002-2-2.81Z" fill="#000" stroke-width="0"/>
  <polygon points="34.5 42.51999 41.91998 35.10001 34.5 35.10001 34.5 42.51999" fill="#000" stroke-width="0"/>
  <path d="M17.5,43.10001h15v-2H14.68524c.41553,1.15967,1.51678,2,2.81476,2Z" fill="#000" stroke-width="0"/>
  <path d="M38.5,12.10001c0-1.65002-1.34998-3-3-3h-10v9c0,2.76001-2.23999,5-5,5h-10v13c0,1.64996,1.34998,3,3,3h19v-5c0-.54999.45001-1,1-1h5V12.10001ZM28.5,35.10001h-13c-.54999,0-1-.45001-1-1s.45001-1,1-1h13c.54999,0,1,.45001,1,1s-.45001,1-1,1ZM33.5,31.10001H15.5c-.54999,0-1-.45001-1-1s.45001-1,1-1h18c.54999,0,1,.45001,1,1s-.45001,1-1,1ZM33.5,27.10001H15.5c-.54999,0-1-.45001-1-1s.45001-1,1-1h18c.54999,0,1,.45001,1,1s-.45001,1-1,1ZM33.5,23.10001h-4c-.54999,0-1-.45001-1-1s.45001-1,1-1h4c.54999,0,1,.45001,1,1s-.45001,1-1,1ZM33.5,19.10001h-4c-.54999,0-1-.45001-1-1s.45001-1,1-1h4c.54999,0,1,.45001,1,1s-.45001,1-1,1ZM33.5,15.10001h-4c-.54999,0-1-.45001-1-1s.45001-1,1-1h4c.54999,0,1,.45001,1,1s-.45001,1-1,1Z" fill="#000" stroke-width="0"/>
</svg>