<?xml version="1.0" encoding="UTF-8"?>
<svg xmlns="http://www.w3.org/2000/svg" version="1.1" viewBox="0 0 64 64">
  <!-- Generator: Adobe Illustrator 28.7.1, SVG Export Plug-In . SVG Version: 1.2.0 Build 142)  -->
  <g>
    <g id="Glyph">
      <g>
        <path d="M53,21v3c0,.54999-.45001,1-1,1h-10c-.54999,0-1-.45001-1-1v-3h12Z"/>
        <polygon points="40.38184 19 53.61816 19 56.61816 13 37.38184 13 40.38184 19"/>
        <path d="M57,11v-3c0-.55225-.44727-1-1-1h-18c-.55273,0-1,.44775-1,1v3h20Z"/>
        <path d="M23,21v3c0,.54999-.45001,1-1,1h-10c-.54999,0-1-.45001-1-1v-3h12Z"/>
        <path d="M44,27v14.5c0,1.37842-1.12109,2.5-2.5,2.5s-2.5-1.12158-2.5-2.5v-7c0-4.13574-3.36426-7.5-7.5-7.5s-7.5,3.36426-7.5,7.5v14.5c0,1.10303-.89746,2-2,2s-2-.89697-2-2v-22h-6v22c0,4.41113,3.58887,8,8,8s8-3.58887,8-8v-14.5c0-.82715.67285-1.5,1.5-1.5s1.5.67285,1.5,1.5v7c0,4.68701,3.81348,8.5,8.5,8.5s8.5-3.81299,8.5-8.5v-14.5h-6Z"/>
        <polygon points="10.38184 19 23.61816 19 26.61816 13 7.38184 13 10.38184 19"/>
        <path d="M27,11v-3c0-.55225-.44727-1-1-1H8c-.55273,0-1,.44775-1,1v3h20Z"/>
      </g>
    </g>
  </g>
</svg>