<?xml version="1.0" encoding="UTF-8"?>
<svg id="Glyph" xmlns="http://www.w3.org/2000/svg" version="1.1" viewBox="0 0 48 48">
  <path d="M11,38h26v-20H11v20ZM25,21c0-.54999.45001-1,1-1s1,.45001,1,1v4c0,1.09998.90002,2,2,2v-6c0-.54999.45001-1,1-1s1,.45001,1,1v6c1.09998,0,2-.90002,2-2v-4c0-.54999.45001-1,1-1s1,.45001,1,1v4c0,2.20996-1.78998,4-4,4v6c0,.54999-.45001,1-1,1s-1-.45001-1-1v-6c-2.21002,0-4-1.79004-4-4v-4ZM13.38,25.89996l.38-3.03998c.20001-1.63,1.59998-2.85999,3.23999-2.85999s3.03998,1.22998,3.23999,2.85999l.38,3.03998c.13,1.04004-.19,2.08002-.88,2.87-.46997.52002-1.08002.88-1.73999,1.07001v5.16003c0,.54999-.45001,1-1,1s-1-.45001-1-1v-5.16003c-.65997-.19-1.27002-.54999-1.73999-1.07001-.69-.78998-1.01001-1.82996-.88-2.87Z" fill="#000" stroke-width="0"/>
  <path d="M40,9h-2.98999c0-2.21002-1.79004-4-4-4-2.20001,0-4,1.78998-4,4h2c0-1.10004.89996-2,2-2,1.10999,0,2,.89996,2,2h-4c0,1.09998.89996,2,2,2,.56,0,1,.45001,1,1s-.44,1-1,1c-2.20001,0-4-1.79004-4-4h-10.01001c0-2.21002-1.78998-4-4-4s-4,1.78998-4,4h2c0-1.10004.90002-2,2-2s2,.89996,2,2h-4c0,1.09998.90002,2,2,2,.54999,0,1,.45001,1,1s-.45001,1-1,1c-2.21002,0-4-1.79004-4-4h-3c-1.65002,0-3,1.34998-3,3v28c0,1.64996,1.34998,3,3,3h32c1.65002,0,3-1.35004,3-3V12c0-1.65002-1.34998-3-3-3ZM39,39c0,.54999-.45001,1-1,1H10c-.54999,0-1-.45001-1-1v-22c0-.54999.45001-1,1-1h28c.54999,0,1,.45001,1,1v22Z" fill="#000" stroke-width="0"/>
  <path d="M18.23584,27.44238c.31738-.35938.45947-.81934.3999-1.29541l-.37988-3.03857c-.0791-.63184-.61865-1.1084-1.25586-1.1084s-1.17676.47656-1.25586,1.1084l-.37988,3.03857c-.05957.47607.08252.93604.3999,1.29541.63477.71875,1.83691.71875,2.47168,0Z" fill="#000" stroke-width="0"/>
</svg>