<?xml version="1.0" encoding="UTF-8"?>
<svg xmlns="http://www.w3.org/2000/svg" version="1.1" viewBox="0 0 64 64">
  <!-- Generator: Adobe Illustrator 28.7.1, SVG Export Plug-In . SVG Version: 1.2.0 Build 142)  -->
  <g>
    <g id="Glyph">
      <path d="M53.97363,26.02441c-.57031-.65088-1.39258-1.02441-2.25781-1.02441h-4.71582v-3c0-8.271-6.72852-15-15-15s-15,6.729-15,15v3h-4.71582c-.86523,0-1.6875.37354-2.25781,1.02441-.56934.65088-.83008,1.51514-.71582,2.37207l3.23535,24.26416c.3291,2.47412,2.45996,4.33936,4.95605,4.33936h28.99609c2.49609,0,4.62695-1.86523,4.95605-4.33887l3.23535-24.26465c.11426-.85693-.14648-1.72119-.71582-2.37207ZM23,22c0-4.9624,4.03711-9,9-9s9,4.0376,9,9v3h-18v-3ZM28,51.23047h-3.82812c-1.03613,0-1.98438-.52344-2.53711-1.39941-.55273-.87695-.61621-1.9585-.16992-2.89355l2.29486-4.80334-.41302.12952c-.5293.16504-1.08789-.12842-1.25293-.65479-.16504-.52686.12793-1.08838.65527-1.25342l2.69824-.84619c.5293-.16699,1.08789.12842,1.25293.65479l.84668,2.69873c.16504.52686-.12793,1.08838-.65436,1.25342-.52063.16327-1.09058-.13348-1.25385-.65479l-.11755-.37445-2.25159,4.71234c-.15137.31641-.12988.66797.05664.96484.1875.29639.49512.46631.8457.46631h3.82812c.55273,0,1,.44775,1,1s-.44727,1-1,1ZM31.09766,31.43701l-2.97559,6.22461c-.23828.49902-.83398.70947-1.33398.47119-.49805-.23828-.70898-.83545-.4707-1.3335l2.97559-6.2251c.50391-1.05273,1.54102-1.70654,2.70703-1.70654s2.20312.65381,2.70703,1.70605l2.0636,4.3175.11511-.33899c.17773-.52246.74609-.80225,1.26855-.62549.52344.17725.80273.74512.62598,1.26807,0,0-.90692,2.67157-.90918,2.67822-.17224.50732-.76038.79797-1.26855.62549l-2.67871-.90869c-.52344-.17725-.80273-.74512-.62598-1.26807.17773-.52246.74707-.80176,1.26855-.62549l.44409.1507-2.10815-4.41046c-.33985-.71191-1.46485-.7124-1.80469.00049ZM42.36523,49.83105c-.55274.87598-1.50098,1.39941-2.53711,1.39941h-4.68781l.16046.13428c.42383.35449.47949.9848.125,1.40863-.33978.40631-.98364.48041-1.4082.12555l-2.16992-1.81494c-.20312-.17041-.33105-.41406-.35449-.67871-.02344-.26416.05859-.52686.22949-.72998l1.81543-2.16943c.35352-.42285.98242-.48047,1.4082-.12549.42383.35449.47949.98535.125,1.40869l-.36914.44141h5.12598c.35059,0,.6582-.16992.8457-.46631.18652-.29688.20801-.64844.05664-.96533l-2.93262-6.13721c-.23828-.49854-.02734-1.09521.47168-1.3335.49512-.23926,1.09473-.02783,1.33301.47119l2.93262,6.1377c.44629.93555.38281,2.01709-.16992,2.89404Z"/>
    </g>
  </g>
</svg>