<?xml version="1.0" encoding="UTF-8"?>
<svg xmlns="http://www.w3.org/2000/svg" version="1.1" viewBox="0 0 64 64">
  <!-- Generator: Adobe Illustrator 28.7.1, SVG Export Plug-In . SVG Version: 1.2.0 Build 142)  -->
  <g>
    <g id="Glyph">
      <g>
        <path d="M25.89001,27.76996l3.88-3.87994c-2.88-.51001-5.15002-2.78003-5.66003-5.66003l-3.88,3.88c2.88.51001,5.15002,2.78003,5.66003,5.65997Z"/>
        <path d="M51,22.70703c2.75714,0,5-2.24286,5-5s-2.24286-5-5-5-5,2.2428-5,5,2.24286,5,5,5ZM51,16.70709c.55231,0,1,.44769,1,1s-.44769,1-1,1-1-.44769-1-1,.44769-1,1-1Z"/>
        <path d="M31,22c2.75714,0,5-2.24286,5-5s-2.24286-5-5-5-5,2.2428-5,5,2.24286,5,5,5ZM31,16c.55231,0,1,.44769,1,1,0,.55225-.44769,1-1,1s-1-.44775-1-1c0-.55231.44769-1,1-1Z"/>
        <path d="M44.47998,20.25c-.31-.78003-.47998-1.64001-.47998-2.54004,0-1.14996.28003-2.23999.78003-3.19995l-7.56006-.72003c.5.96002.78003,2.04999.78003,3.21002,0,1.32001-.35999,2.54999-1.01001,3.60999l7.48999-.35999Z"/>
        <path d="M10.46484,11.46143c.94238-.94238,2.19824-1.46143,3.53516-1.46143s2.59271.51904,3.5351,1.46136c.37341.37341,1.02545.38873,1.41412.00006.39062-.39014.39062-1.02344,0-1.41406-1.32031-1.32031-3.07812-2.04736-4.94922-2.04736s-3.62891.72705-4.94922,2.04736c-.39062.39062-.39062,1.02393,0,1.41406.39062.39062,1.02344.39062,1.41406,0Z"/>
        <path d="M16.12109,14.29053c.39062-.39062.39062-1.02393,0-1.41455-1.13086-1.13184-3.11133-1.13184-4.24219,0-.39062.39062-.39062,1.02393,0,1.41455.39062.38965,1.02344.39014,1.41406-.00049.37695-.37695,1.03705-.37695,1.414-.00006.37231.37225,1.02618.38745,1.41412.00055Z"/>
        <circle cx="14.07104" cy="16.99707" r="1"/>
        <path d="M55,30h-8c-1.10455,0-2,.89539-2,2v3.33313l2.75018,3.66687h6.49969l2.75012-3.66687v-3.33313c0-1.10461-.89545-2-2-2Z"/>
        <path d="M51,47c.33398,0,.64648-.16699.83203-.44531l2-3c.10938-.16406.16797-.35742.16797-.55469v-2h-6v2c0,.19727.05859.39062.16797.55469l2,3c.18555.27832.49805.44531.83203.44531Z"/>
        <path d="M48,24.01996v3.98004h6v-3.98004c-.90997.45001-1.92999.69-3,.69s-2.09003-.23999-3-.69Z"/>
        <path d="M12,48c-1.10455,0-2,.89539-2,2v1h18v-1c0-1.10461-.89545-2-2-2h-14Z"/>
        <path d="M15,34.73999v5.26001h8v-5.26001c-1.13.79999-2.51001,1.26001-4,1.26001s-2.87-.46002-4-1.26001Z"/>
        <rect x="7" y="53" width="50" height="3" rx="1" ry="1"/>
        <path d="M12,44.90967v1.09033h14v-2c0-1.10461-.89545-2-2-2h-10c-.71027,0-1.3302.37274-1.685.93073-1.87915-.32709-3.315-1.95972-3.315-3.93073v-5c0-2.20557,1.79395-4,4-4h1.10107c.4646,2.27954,2.48419,4,4.89893,4,2.75714,0,5-2.24286,5-5s-2.24286-5-5-5c-2.41473,0-4.43433,1.72046-4.89893,4h-1.10107c-3.30859,0-6,2.69141-6,6v5c0,2.96722,2.16687,5.43134,5,5.90967ZM19,28c.55231,0,1,.44769,1,1,0,.55225-.44769,1-1,1s-1-.44775-1-1c0-.55231.44769-1,1-1Z"/>
      </g>
    </g>
  </g>
</svg>