<?xml version="1.0" encoding="UTF-8"?>
<svg id="Glyph" xmlns="http://www.w3.org/2000/svg" version="1.1" viewBox="0 0 64 64">
  <circle cx="18" cy="50" r="1" style="fill: #000; stroke-width: 0px;"/>
  <circle cx="46" cy="50" r="1" style="fill: #000; stroke-width: 0px;"/>
  <path d="M46,45c-2.41998,0-4.44,1.71997-4.90002,4-.06995.32001-.09998.65997-.09998,1,0,2.76001,2.23999,5,5,5s5-2.23999,5-5c0-.34003-.03003-.67999-.09998-1-.46002-2.28003-2.48004-4-4.90002-4ZM46,53c-1.65002,0-3-1.35004-3-3,0-.35004.06-.69.17999-1,.41003-1.16003,1.52002-2,2.82001-2s2.40997.83997,2.82001,2c.12.31.17999.64996.17999,1,0,1.64996-1.34998,3-3,3Z" style="fill: #000; stroke-width: 0px;"/>
  <path d="M18,45c-2.41998,0-4.44,1.71997-4.90002,4-.06995.32001-.09998.65997-.09998,1,0,2.76001,2.23999,5,5,5s5-2.23999,5-5c0-.34003-.03003-.67999-.09998-1-.46002-2.28003-2.48004-4-4.90002-4ZM18,53c-1.65002,0-3-1.35004-3-3,0-.35004.06-.69.17999-1,.41003-1.16003,1.52002-2,2.82001-2s2.40997.83997,2.82001,2c.12.31.17999.64996.17999,1,0,1.64996-1.34998,3-3,3Z" style="fill: #000; stroke-width: 0px;"/>
  <path d="M54,39H10c-1.65002,0-3,1.34998-3,3v4c0,1.64996,1.34998,3,3,3h1.08002c.47998-3.39001,3.39996-6,6.91998-6s6.44,2.60999,6.91998,6h14.16003c.47998-3.39001,3.39996-6,6.91998-6s6.44,2.60999,6.91998,6h1.08002c1.65002,0,3-1.35004,3-3v-4c0-1.65002-1.34998-3-3-3Z" style="fill: #000; stroke-width: 0px;"/>
  <path d="M16.88519,9h-2.88519c-1.6543,0-3,1.3457-3,3v8.24573c3.30682-2.91492,5.39502-6.90649,5.88519-11.24573Z" style="fill: #000; stroke-width: 0px;"/>
  <path d="M20.10547,29.55273c1.4043-2.80859,4.22705-4.55273,7.3667-4.55273h5.146l-7.1709-14.3418c-.51172-1.02246-1.53955-1.6582-2.68311-1.6582h-3.86914c-.51672,5.09845-2.99261,9.79962-6.97705,13.12012l-.77783.64844c-.04291.03564-.09351.05249-.14014.07983v10.15161h3.52783c2.37744,0,4.51465-1.32129,5.57764-3.44727Z" style="fill: #000; stroke-width: 0px;"/>
  <path d="M46.59003,29.32996l-7.78003-2.32996h-11.34003c-2.37994,0-4.50995,1.32001-5.57996,3.45001-1.40002,2.81-4.22003,4.54999-7.35999,4.54999h-3.53003v2h41.94c-.35999-3.59003-2.83002-6.60999-6.34998-7.67004Z" style="fill: #000; stroke-width: 0px;"/>
</svg>