<?xml version="1.0" encoding="UTF-8"?>
<svg id="Glyph" xmlns="http://www.w3.org/2000/svg" version="1.1" viewBox="0 0 64 64">
  <path d="M38,16.1709v1.99902c0,3.81348,2.4541,7.16406,6,8.24316,3.5459-1.0791,6-4.42969,6-8.24316v-1.99902c-2.12988-.39844-4.17773-1.22168-6-2.41211-1.82129,1.19043-3.86914,2.01367-6,2.41211ZM47.33496,17.69922c.39062.39062.39062,1.02344,0,1.41406l-3.50391,3.50391c-.38397.38391-1.03119.38281-1.41406,0l-1.75195-1.75195c-.39062-.39062-.39062-1.02344,0-1.41406s1.02344-.39062,1.41406,0l1.04492,1.04492,2.79688-2.79688c.39062-.39062,1.02344-.39062,1.41406,0Z" fill="#000" stroke-width="0"/>
  <path d="M44,7c-7.16797,0-13,5.83154-13,13s5.83203,13,13,13,13-5.83154,13-13-5.83203-13-13-13ZM52,18.16992c0,4.80859-3.18262,9.02344-7.7403,10.24902-.17047.04504-.34918.04578-.51947,0-4.55762-1.22559-7.74023-5.44043-7.74023-10.24902v-2.85156c0-.50195.37207-.92578.86914-.99121,2.34961-.30957,4.61328-1.20605,6.54785-2.59277.34961-.25.81738-.25,1.16504,0,1.93652,1.38672,4.20117,2.2832,6.54883,2.59277.49707.06543.86914.48926.86914.99121v2.85156Z" fill="#000" stroke-width="0"/>
  <polygon points="19 45.7207 7 41.72095 7 43.61267 19 47.61279 19 45.7207" fill="#000" stroke-width="0"/>
  <polygon points="37 47.61279 49 43.61267 49 41.72095 37 45.7207 37 47.61279" fill="#000" stroke-width="0"/>
  <path d="M29.01001,20.29999l-.67999-.23999c-.21002-.08002-.45001-.08002-.66003,0l-19.66455,6.88257,19.99457,6.99786,6.55707-2.29486c-3.31592-2.69434-5.46271-6.77319-5.54706-11.34558Z" fill="#000" stroke-width="0"/>
  <path d="M7,35.61261l13.31641,4.43866c.52344.1748.80664.74115.63184,1.26508-.16608.49786-.73975.80731-1.26465.63239l-12.68359-4.22772v1.8916l13.31641,4.43866c.4082.13623.68359.51807.68359.94873v3.99988c0,.67041-.68701,1.15668-1.31641.94885l-12.68359-4.22772v3.27899c0,.41998.27002.79999.66998.94l19.33002,7.06v-21.29065l-20-6.99988v6.90314Z" fill="#000" stroke-width="0"/>
  <path d="M36.62225,33.04163l-7.62225,2.66772v21.29065l19.33002-7.06c.39996-.14001.66998-.52002.66998-.94v-3.27899s-12.68359,4.22772-12.68365,4.22772c-.63953.21112-1.31635-.27155-1.31635-.94873v-4c0-.43066.27539-.8125.68359-.94873l13.31641-4.43866v-1.8916s-12.63641,4.21198-12.68347,4.22766c-.49579.16528-1.08893-.10474-1.26477-.63226-.1748-.52393.1084-1.09033.63184-1.26514l13.31641-4.43866v-1.4726c-1.56.56-3.23999.85999-5,.85999-2.68256,0-5.19629-.71912-7.37775-1.95837Z" fill="#000" stroke-width="0"/>
</svg>