<?xml version="1.0" encoding="UTF-8"?>
<svg id="Glyph" xmlns="http://www.w3.org/2000/svg" version="1.1" viewBox="0 0 64 64">
  <polygon points="32 31.89844 42.61365 26.99982 32 22.10156 21.38635 26.99982 32 31.89844" fill="#000" stroke-width="0"/>
  <path d="M38.91875,38.90829c-.49577.22814-1.09755.00721-1.32696-.48935-.23145-.50098-.0127-1.0957.48926-1.32715l5.91895-2.73181v-5.79688l-11,5.0769v9.79694l11-5.0766v-1.79724s-5.08105,2.34509-5.08125,2.34518Z" fill="#000" stroke-width="0"/>
  <path d="M31,33.64001l-11-5.0769v5.79688l5.91895,2.73181c.50193.23143.72068.82611.48929,1.32707-.22034.47705-.8215.72217-1.32719.48934l-5.08105-2.34509v1.79724l11,5.0766v-9.79694Z" fill="#000" stroke-width="0"/>
  <path d="M34.66699,15l3.7334-2.7998c.17285-.12988.38281-.2002.59961-.2002h18v-4c0-.55273-.44727-1-1-1H8c-.55273,0-1,.44727-1,1v7h27.66699ZM19,10c.55231,0,1,.44769,1,1,0,.55225-.44769,1-1,1s-1-.44775-1-1c0-.55231.44769-1,1-1ZM15,10c.55231,0,1,.44769,1,1,0,.55225-.44769,1-1,1s-1-.44775-1-1c0-.55231.44769-1,1-1ZM11,10c.55231,0,1,.44769,1,1,0,.55225-.44769,1-1,1s-1-.44775-1-1c0-.55231.44769-1,1-1Z" fill="#000" stroke-width="0"/>
  <circle cx="24" cy="51" r="1" fill="#000" stroke-width="0"/>
  <circle cx="32" cy="51" r="1" fill="#000" stroke-width="0"/>
  <circle cx="40" cy="51" r="1" fill="#000" stroke-width="0"/>
  <path d="M39.33301,14l-3.7334,2.7998c-.17285.12988-.38281.2002-.59961.2002H7v39c0,.55273.44727,1,1,1h48c.55273,0,1-.44727,1-1V14h-17.66699ZM12,20h11c.55273,0,1,.44727,1,1s-.44727,1-1,1h-11c-.55273,0-1-.44727-1-1s.44727-1,1-1ZM12,24h3c.55273,0,1,.44727,1,1s-.44727,1-1,1h-3c-.55273,0-1-.44727-1-1s.44727-1,1-1ZM11,29c0-.55273.44727-1,1-1h3c.55273,0,1,.44727,1,1s-.44727,1-1,1h-3c-.55273,0-1-.44727-1-1ZM17.70703,53.29297c.39062.39062.39062,1.02344-.00003,1.41409-.38751.38747-1.02731.38669-1.41403-.00003l-3-3c-.39062-.39062-.39062-1.02344,0-1.41406l3-3c.39062-.39062,1.02344-.39062,1.41406,0s.39062,1.02344,0,1.41406l-2.29297,2.29297,2.29297,2.29297ZM24,54c-1.6543,0-3-1.3457-3-3s1.3457-3,3-3,3,1.3457,3,3-1.3457,3-3,3ZM32,54c-1.6543,0-3-1.3457-3-3s1.3457-3,3-3,3,1.3457,3,3-1.3457,3-3,3ZM40,54c-1.6543,0-3-1.3457-3-3s1.3457-3,3-3,3,1.3457,3,3-1.3457,3-3,3ZM45.41895,39.9082l-13,6c-.24094.1112-.56746.12527-.83789,0l-13-6c-.35449-.16406-.58105-.51855-.58105-.9082v-12c0-.38965.22656-.74414.58105-.9082l13-6c.26562-.12305.57227-.12305.83789,0l13,6c.35449.16406.58105.51855.58105.9082v12c0,.38965-.22656.74414-.58105.9082ZM50.70703,51.70703l-3,3c-.37064.37064-1.01918.39488-1.41406,0-.39062-.39062-.39062-1.02344,0-1.41406l2.29297-2.29297-2.29297-2.29297c-.39062-.39062-.39062-1.02344,0-1.41406s1.02344-.39062,1.41406,0l3,3c.39062.39062.39062,1.02344,0,1.41406ZM52,31h-3c-.55273,0-1-.44727-1-1s.44727-1,1-1h3c.55273,0,1,.44727,1,1s-.44727,1-1,1ZM52,27h-3c-.55273,0-1-.44727-1-1s.44727-1,1-1h3c.55273,0,1,.44727,1,1s-.44727,1-1,1ZM52,23h-8c-.55273,0-1-.44727-1-1s.44727-1,1-1h8c.55273,0,1,.44727,1,1s-.44727,1-1,1ZM52,19h-12c-.55273,0-1-.44727-1-1s.44727-1,1-1h12c.55273,0,1,.44727,1,1s-.44727,1-1,1Z" fill="#000" stroke-width="0"/>
</svg>