<?xml version="1.0" encoding="UTF-8"?>
<svg xmlns="http://www.w3.org/2000/svg" version="1.1" viewBox="0 0 64 64">
  <!-- Generator: Adobe Illustrator 28.7.1, SVG Export Plug-In . SVG Version: 1.2.0 Build 142)  -->
  <g>
    <g id="Glyph">
      <g>
        <path d="M27.72656,36.54199c1.13733.65076,2.17413,1.45551,3.10352,2.36121-.19891-1.13092-.61786-2.35913-1.49561-3.23718-1.5-1.5-4.02198-1.66504-5.33252-1.66406-.0166,1.30273.16406,3.83203,1.66357,5.33203,1.18903,1.18866,3.01733,1.53363,4.37561,1.62787-.94623-1.05255-2.06061-1.9707-3.30774-2.68353-.47949-.27441-.64551-.88477-.37158-1.36426.27441-.48047.88525-.64746,1.36475-.37207Z"/>
        <path d="M37.2666,42.27832c-1.2464.71246-2.36011,1.63-3.30603,2.68176,1.35797-.09552,3.185-.43835,4.3739-1.6261,1.41064-1.41016,1.68896-3.86133,1.66992-5.33203-1.3042-.00098-3.83643.16113-5.33887,1.66406-.84888.84857-1.28308,2.0733-1.49384,3.23535.92889-.90497,1.96515-1.70905,3.10175-2.35938.479-.27441,1.09033-.1084,1.36475.37207.27393.47949.10791,1.08984-.37158,1.36426Z"/>
        <path d="M51,29H13c-1.65686,0-3,1.34314-3,3v18h21v-5.22571c.00012-.02271-.00018-.04309,0-.06622v-1.7099c-.05426.00067-.09979.00281-.15723.00281-1.66309,0-4.64111-.30273-6.59131-2.25293-2.76855-2.76855-2.21631-7.61133-2.19141-7.81543.05566-.45703.41553-.81738.87207-.87305.20557-.02246,5.04785-.57617,7.81641,2.19238,1.17603,1.17603,1.74957,2.7251,2.02216,4.13513.05829.07324.11682.14624.15283.23413.1062-.12494.21002-.25134.32794-.36926,2.76855-2.76758,7.6123-2.21484,7.81641-2.19238.45654.05566.81641.41602.87207.87305.0249.2041.57715,5.04688-2.19141,7.81543-1.94971,1.9502-4.92822,2.25293-6.59131,2.25293-.0575,0-.10297-.00214-.15723-.00281v3.00183h21v-18c0-1.65686-1.34314-3-3-3Z"/>
        <path d="M10,54c0,1.65686,1.34314,3,3,3h38c1.65686,0,3-1.34314,3-3v-2H10v2Z"/>
        <path d="M51,26c0-1.65686-1.34314-3-3-3H16c-1.65686,0-3,1.34314-3,3v1h38v-1Z"/>
        <path d="M48,16c0-1.6543-1.3457-3-3-3-4.24707,0-8.23975-1.6543-11.24268-4.65723l-1.05029-1.0498c-.39062-.39062-1.02344-.39062-1.41406,0l-1.05029,1.0498c-3.00293,3.00293-6.99561,4.65723-11.24268,4.65723-1.6543,0-3,1.3457-3,3v5h32v-5Z"/>
      </g>
    </g>
  </g>
</svg>