<?xml version="1.0" encoding="UTF-8"?>
<svg xmlns="http://www.w3.org/2000/svg" version="1.1" viewBox="0 0 64 64">
  <!-- Generator: Adobe Illustrator 28.7.1, SVG Export Plug-In . SVG Version: 1.2.0 Build 142)  -->
  <g>
    <g id="Glyph">
      <g>
        <path d="M46,45.99756c-2.20544,0-4,1.79449-4,4s1.79456,4,4,4,4-1.79456,4-4-1.79456-4-4-4ZM46,50.99756c-.55151,0-1-.44849-1-1s.44849-1,1-1,1,.44849,1,1-.44849,1-1,1Z"/>
        <path d="M17,45.99756c-2.20544,0-4,1.79449-4,4s1.79456,4,4,4,4-1.79456,4-4-1.79456-4-4-4ZM17,50.99756c-.55151,0-1-.44849-1-1s.44849-1,1-1,1,.44849,1,1-.44849,1-1,1Z"/>
        <path d="M46.29303,14.63336c.38745.38733,1.02673.38721,1.414-.00006.39062-.39062.39062-1.02344,0-1.41406-4.28906-4.28906-11.26758-4.28906-15.55664,0-.39062.39062-.39062,1.02344,0,1.41406s1.02344.39062,1.41406,0c3.50977-3.50977,9.21875-3.50977,12.72858.00006Z"/>
        <path d="M44.87891,17.4624c.39062-.39062.39062-1.02344,0-1.41406-1.32031-1.32031-3.07812-2.04785-4.9502-2.04785s-3.62891.72754-4.94922,2.04785c-.39062.39062-.39062,1.02344,0,1.41406.37769.37769,1.0238.39026,1.41406,0,.94238-.94238,2.19824-1.46191,3.53516-1.46191,1.33789,0,2.59375.51953,3.53613,1.46191.39062.39062,1.02344.39062,1.41406,0Z"/>
        <path d="M42.0498,20.29053c.39062-.39062.39062-1.02344,0-1.41406-1.16992-1.16992-3.07227-1.16992-4.24219,0-.39062.39062-.39062,1.02344,0,1.41406s1.02344.39062,1.41406,0,1.02344-.39062,1.41406,0c.3858.3858,1.02808.38593,1.41406,0Z"/>
        <circle cx="40" cy="22.99756" r="1"/>
        <path d="M29,19.99756H9c-1.09998,0-2,.89996-2,2v18.22266h24v-18.22266c0-1.10461-.89545-2-2-2ZM12,35.99756c0,.55273-.44727,1-1,1s-1-.44727-1-1v-12c0-.55273.44727-1,1-1s1,.44727,1,1v12ZM16,35.99756c0,.55273-.44727,1-1,1s-1-.44727-1-1v-12c0-.55273.44727-1,1-1s1,.44727,1,1v12ZM20,35.99756c0,.55273-.44727,1-1,1s-1-.44727-1-1v-12c0-.55273.44727-1,1-1s1,.44727,1,1v12ZM24,35.99756c0,.55273-.44727,1-1,1s-1-.44727-1-1v-12c0-.55273.44727-1,1-1s1,.44727,1,1v12ZM28,35.99756c0,.55273-.44727,1-1,1s-1-.44727-1-1v-12c0-.55273.44727-1,1-1s1,.44727,1,1v12Z"/>
        <path d="M7,46.99756c0,1.64996,1.34998,3,3,3h1c0-3.31,2.69-6,6-6s6,2.69,6,6h8v-7.77734H7v4.77734Z"/>
        <rect x="53" y="39.99756" width="4" height="2"/>
        <polygon points="37.97015 30.99756 37.97015 34.99756 43.31879 34.99756 41.06586 30.99756 37.97015 30.99756"/>
        <path d="M53.44,33.70752l-5.82001-.64996-3.16998-5.54999c-.53003-.93005-1.53003-1.51001-2.60999-1.51001h-8.84003v24h7c0-3.31,2.69-6,6-6s6,2.69,6,6h2c1.65002,0,3-1.35004,3-3v-3h-4c-1.10254,0-2-.89746-2-2v-2c0-1.10254.89746-2,2-2h4v-.31c0-2.04999-1.53003-3.76001-3.56-3.98004ZM45.89301,36.50244c-.17969.30664-.50781.49512-.86328.49512h-8.05957c-.55273,0-1-.44727-1-1v-6c0-.55273.44727-1,1-1h4.67969c.36133,0,.69434.19434.87109.50879l3.37988,6c.1748.30957.17188.68945-.00781.99609Z"/>
      </g>
    </g>
  </g>
</svg>