<?xml version="1.0" encoding="UTF-8"?>
<svg xmlns="http://www.w3.org/2000/svg" version="1.1" viewBox="0 0 64 64">
  <!-- Generator: Adobe Illustrator 28.7.1, SVG Export Plug-In . SVG Version: 1.2.0 Build 142)  -->
  <g>
    <g id="Glyph">
      <g>
        <path d="M41.15088,17.62325c.39062.39062,1.02344.39062,1.41406,0,3.50977-3.5083,9.22015-3.5083,12.72803-.00006.38611.38617,1.02887.38519,1.41406.00006.39062-.39062.39062-1.02344,0-1.41406-4.28955-4.28857-11.26758-4.2876-15.55615,0-.39062.39062-.39062,1.02344,0,1.41406Z"/>
        <path d="M53.87842,20.45187c.39062-.39014.39062-1.02344,0-1.41406-1.31982-1.32031-3.07764-2.04736-4.94971-2.04736-1.87158,0-3.62939.72705-4.94922,2.04736-.39062.39062-.39062,1.02393,0,1.41406.39062.39062,1.02344.39062,1.41406,0,.94238-.94238,2.19775-1.46143,3.53516-1.46143,1.33789,0,2.59326.51904,3.53564,1.46143.38141.38135,1.03302.38104,1.41406,0Z"/>
        <path d="M51.05029,23.28048c.39062-.39062.39062-1.02344,0-1.41406-1.1709-1.1709-3.07373-1.16992-4.24268,0-.39062.39062-.39062,1.02344,0,1.41406s1.02344.39062,1.41406,0c.38916-.39062,1.02441-.38965,1.41455,0,.37592.37543,1.02246.3916,1.41406,0Z"/>
        <circle cx="49" cy="25.98751" r="1"/>
        <rect x="23" y="36.98751" width="2" height="2"/>
        <rect x="41" y="42.98751" width="2" height="2"/>
        <rect x="14" y="44.98751" width="11" height="12"/>
        <rect x="14" y="36.98751" width="2" height="2"/>
        <path d="M54,30.98751h-26.61963l-8.71582-7.74756c-.29492-.26221-.71484-.32666-1.07422-.16455-.35938.16113-.59033.51855-.59033.91211v5.91943l-8.37549-6.7002c-.30127-.24072-.7124-.28711-1.05762-.12061-.34668.1665-.56689.51709-.56689.90137v30c0,1.6543,1.3457,3,3,3h2v-13c0-.55225.44775-1,1-1h13c.55225,0,1,.44775,1,1v13h27c1.6543,0,3-1.3457,3-3v-20c0-1.6543-1.3457-3-3-3ZM18,39.98751c0,.55225-.44775,1-1,1h-4c-.55225,0-1-.44775-1-1v-4c0-.55225.44775-1,1-1h4c.55225,0,1,.44775,1,1v4ZM27,39.98751c0,.55225-.44775,1-1,1h-4c-.55225,0-1-.44775-1-1v-4c0-.55225.44775-1,1-1h4c.55225,0,1,.44775,1,1v4ZM50,42.98751c.55225,0,1,.44775,1,1s-.44775,1-1,1h-1v2h1c.55225,0,1,.44775,1,1s-.44775,1-1,1h-1.18427c-.30206.84717-.96857,1.51367-1.81573,1.81573v1.18427c0,.55225-.44775,1-1,1s-1-.44775-1-1v-1h-2v1c0,.55225-.44775,1-1,1s-1-.44775-1-1v-1h-2v1c0,.55225-.44775,1-1,1s-1-.44775-1-1v-1.18433c-.84717-.30206-1.51361-.96851-1.81567-1.81567h-1.18433c-.55225,0-1-.44775-1-1s.44775-1,1-1h1v-2h-1c-.55225,0-1-.44775-1-1s.44775-1,1-1h1v-2h-1c-.55225,0-1-.44775-1-1s.44775-1,1-1h1.18427c.30206-.84717.96857-1.51367,1.81573-1.81573v-1.18427c0-.55225.44775-1,1-1s1,.44775,1,1v1h2v-1c0-.55225.44775-1,1-1s1,.44775,1,1v1h2v-1c0-.55225.44775-1,1-1s1,.44775,1,1v1.18427c.84717.30206,1.51367.96857,1.81573,1.81573h1.18427c.55225,0,1,.44775,1,1s-.44775,1-1,1h-1v2h1Z"/>
        <path d="M46,38.98751h-8c-.55127,0-1,.44873-1,1v8c0,.55127.44873,1,1,1h8c.55127,0,1-.44873,1-1v-8c0-.55127-.44873-1-1-1ZM45,45.98751c0,.55225-.44775,1-1,1h-4c-.55225,0-1-.44775-1-1v-4c0-.55225.44775-1,1-1h4c.55225,0,1,.44775,1,1v4Z"/>
        <rect x="29" y="18.98751" width="10" height="3" rx="1" ry="1"/>
        <rect x="31" y="23.98751" width="6" height="5"/>
        <path d="M31.04999,14.65749l-.03998,2.33002h5.98999v-2.29999h.56c1.90002,0,3.44-1.59003,3.44-3.54004,0-1.94-1.53998-3.52997-3.44-3.52997-.31,0-.62.04999-.91998.13-1.20001-.98004-3.08002-.98004-4.28003,0-.29999-.08002-.60999-.13-.91998-.13-1.90002,0-3.44,1.58997-3.44,3.52997,0,1.81,1.33002,3.31,3.04999,3.51001Z"/>
      </g>
    </g>
  </g>
</svg>