<?xml version="1.0" encoding="UTF-8"?>
<svg xmlns="http://www.w3.org/2000/svg" version="1.1" viewBox="0 0 48 48">
  <!-- Generator: Adobe Illustrator 28.7.1, SVG Export Plug-In . SVG Version: 1.2.0 Build 142)  -->
  <g>
    <g id="Glyph">
      <g>
        <path d="M16.66748,30.20001c.79004.51996,1.73004.79999,2.71002.79999s1.91998-.28003,2.71002-.79999c-.95001-.20001-1.86005-.54004-2.71002-1.02002-.84998.47998-1.76001.82001-2.71002,1.02002Z"/>
        <circle cx="14.3775" cy="21" r="2"/>
        <circle cx="24.3775" cy="21" r="2"/>
        <path d="M23.99487,28.38776c2.21307,0,4.29089-.98071,5.70044-2.69012,1.40869-1.70898,1.97052-3.95679,1.54126-6.16534-.56274-2.91968-2.90479-5.24463-5.8186-5.78302-.47168-.09241-.94061-.13708-1.43213-.13708h-9.21667c-.49152,0-.96045.04468-1.4231.13531-2.92285.54016-5.26489,2.86511-5.82764,5.78387-.42926,2.20947.13257,4.45728,1.54126,6.16626,1.40955,1.70941,3.48737,2.69012,5.70044,2.69012,1.70178,0,3.31152-.57172,4.61737-1.62555,1.30585,1.05383,2.91559,1.62555,4.61737,1.62555ZM24.3775,17c2.20605,0,4,1.79443,4,4s-1.79395,4-4,4-4-1.79443-4-4,1.79395-4,4-4ZM14.3775,25c-2.20605,0-4-1.79443-4-4s1.79395-4,4-4,4,1.79443,4,4-1.79395,4-4,4Z"/>
        <path d="M12.3775,10c0-1.27832-1.52246-3.62061-2.17676-4.56836-.375-.54102-1.27148-.54102-1.64648,0-.6543.94775-2.17676,3.29004-2.17676,4.56836,0,1.6543,1.3457,3,3,3s3-1.3457,3-3Z"/>
        <path d="M33.55206,20c.07043.67249.07062,1.34076.00104,2h8.0694v-2h-8.07043Z"/>
        <path d="M40.3775,8c0-1.65685-1.34314-3-3-3h0c-1.65685,0-3,1.34314-3,3v10h6V8Z"/>
        <rect x="15.3775" y="33" width="10" height="10" rx="1" ry="1"/>
        <path d="M34.3775,34c0,.55127-.44824,1-1,1h-6v6h6c3.85938,0,7-3.14014,7-7v-10h-6v10Z"/>
      </g>
    </g>
  </g>
</svg>