<?xml version="1.0" encoding="UTF-8"?>
<svg xmlns="http://www.w3.org/2000/svg" version="1.1" viewBox="0 0 64 64">
  <!-- Generator: Adobe Illustrator 28.7.1, SVG Export Plug-In . SVG Version: 1.2.0 Build 142)  -->
  <g>
    <g id="Glyph">
      <g>
        <polygon points="46 23.38 48.76001 22 46 20.62 46 23.38"/>
        <path d="M54,15h-12c-1.65002,0-3,1.34998-3,3v8c0,1.64996,1.34998,3,3,3h12c1.65002,0,3-1.35004,3-3v-8c0-1.65002-1.34998-3-3-3ZM51.45001,22.89001l-5.99997,2.99999c-.29108.14554-.68104.1469-.98007-.04003-.28998-.17999-.46997-.5-.46997-.84998v-6c0-.35004.17999-.67004.46997-.85004.30005-.17999.67004-.19995.98004-.03998l6,3c.33997.16998.54999.51001.54999.89001s-.21002.71997-.54999.89001Z"/>
        <path d="M25.81,29.38c.15997-.37.07001-.80005-.21002-1.09003l-2.19-2.19c1.03003-1.48999,1.59003-3.27002,1.59003-5.09998,0-4.96002-4.03998-9-9-9s-9,4.03998-9,9,4.03998,9,9,9h8.89001c.39996,0,.76996-.23999.91998-.62ZM11.94,16h6c.56,0,1,.45001,1,1s-.44,1-1,1h-6c-.54999,0-1-.45001-1-1s.45001-1,1-1ZM17.94,26h-6c-.54999,0-1-.45001-1-1s.45001-1,1-1h6c.56,0,1,.45001,1,1s-.44,1-1,1ZM19.94,22h-8c-.54999,0-1-.45001-1-1s.45001-1,1-1h8c.56,0,1,.45001,1,1s-.44,1-1,1Z"/>
        <path d="M35.86877,38.64062c.08582.77148.13123,1.56573.13123,2.35938s-.04541,1.58789-.13123,2.35938c.89966.17505,1.71564.4115,2.41754.69989.45251-.92578.71368-1.96143.71368-3.05927s-.26117-2.13348-.71368-3.05927c-.7019.28839-1.51788.52484-2.41754.69989Z"/>
        <path d="M28,41c0-.79364.04541-1.58789.13123-2.35938-.89966-.17505-1.71564-.4115-2.41754-.69989-.45251.92578-.71368,1.96143-.71368,3.05927s.26117,2.13348.71368,3.05927c.7019-.28839,1.51788-.52484,2.41754-.69989-.08582-.77148-.13123-1.56573-.13123-2.35938Z"/>
        <path d="M30.4455,45.06488c.46667,1.92181,1.18231,2.93512,1.5545,2.93512s1.08783-1.01331,1.5545-2.93512c-.50739-.03973-1.02625-.06488-1.5545-.06488s-1.04712.02515-1.5545.06488Z"/>
        <path d="M33.5545,36.93512c-.46667-1.92188-1.18231-2.93512-1.5545-2.93512s-1.08783,1.01324-1.5545,2.93512c.50739.03973,1.02625.06488,1.5545.06488s1.04712-.02515,1.5545-.06488Z"/>
        <path d="M26.87445,45.75134c.62445.67316,1.3772,1.22284,2.22192,1.61005-.25745-.60889-.46985-1.29523-.63702-2.03381-.5799.11426-1.11108.25781-1.5849.42377Z"/>
        <path d="M32,39c-.64398,0-1.27527-.03192-1.89001-.08545-.06799.63818-.10999,1.33008-.10999,2.08545s.04199,1.44727.10999,2.08545c.61475-.05353,1.24603-.08545,1.89001-.08545s1.27527.03192,1.89001.08545c.06799-.63818.10999-1.33008.10999-2.08545s-.04199-1.44727-.10999-2.08545c-.61475.05353-1.24603.08545-1.89001.08545Z"/>
        <path d="M37,26v-8c0-2.76001,2.23999-5,5-5h4v-3c0-1.65002-1.34998-3-3-3h-22c-1.65002,0-3,1.34998-3,3v.17999c5.10999.94,9,5.42999,9,10.82001,0,1.66998-.37,3.28998-1.09003,4.77997l1.10004,1.10004c.85999.85999,1.12,2.13995.64996,3.26996-.46997,1.12-1.54999,1.85004-2.76996,1.85004h-6.89001v20h28v-21h-4c-2.76001,0-5-2.23999-5-5ZM36,10c.54999,0,1,.45001,1,1s-.45001,1-1,1-1-.45001-1-1,.45001-1,1-1ZM29,10h4c.54999,0,1,.45001,1,1s-.45001,1-1,1h-4c-.54999,0-1-.45001-1-1s.45001-1,1-1ZM32,50c-4.96002,0-9-4.04004-9-9s4.03998-9,9-9,9,4.03998,9,9-4.03998,9-9,9Z"/>
        <path d="M21,57h22c1.6543,0,3-1.3457,3-3h-28c0,1.6543,1.3457,3,3,3Z"/>
        <path d="M34.90363,47.36139c.84473-.38721,1.59747-.93689,2.22192-1.61005-.47382-.16595-1.005-.30951-1.5849-.42377-.16718.73859-.37958,1.42493-.63702,2.03381Z"/>
        <path d="M37.12555,36.24866c-.62445-.67316-1.3772-1.22284-2.22192-1.61005.25745.60889.46985,1.29523.63702,2.03381.5799-.11426,1.11108-.25781,1.5849-.42377Z"/>
        <path d="M28.45935,36.67242c.16718-.73859.37958-1.42493.63702-2.03381-.84473.38721-1.59747.93689-2.22192,1.61005.47382.16595,1.005.30951,1.5849.42377Z"/>
      </g>
    </g>
  </g>
</svg>