<?xml version="1.0" encoding="utf-8"?>
<!-- Generator: Adobe Illustrator 28.2.0, SVG Export Plug-In . SVG Version: 6.00 Build 0)  -->
<svg version="1.1" id="Glyph" xmlns="http://www.w3.org/2000/svg" xmlns:xlink="http://www.w3.org/1999/xlink" x="0px" y="0px"
	 viewBox="0 0 64 64" enable-background="new 0 0 64 64" xml:space="preserve">
<g>
	<circle cx="19.6083" cy="16" r="1"/>
	<path d="M19.6083,25c0.44336,0,0.83398-0.29199,0.95947-0.71729c0.18896-0.6416,0.66211-1.12842,1.29834-1.33496
		c0.63525-0.20557,1.3042-0.09131,1.83447,0.31689c0.35107,0.27002,0.83789,0.27686,1.19727,0.0166
		c0.35889-0.26074,0.50342-0.72607,0.35498-1.14404c-0.22412-0.63037-0.12744-1.30225,0.26562-1.84326
		c0.39355-0.5415,1.02734-0.84033,1.67041-0.82227c0.47705,0.03613,0.8418-0.26904,0.979-0.69043
		c0.13672-0.42188-0.02002-0.8833-0.38574-1.13379C27.23037,17.26904,26.91397,16.66895,26.91397,16
		s0.31641-1.26904,0.86816-1.64746c0.36572-0.25049,0.52246-0.71191,0.38574-1.13379
		c-0.13428-0.4126-0.51904-0.69092-0.95117-0.69092c-0.00879,0-0.01807,0-0.02783,0.00049
		c-0.64014,0.02832-1.27686-0.28076-1.67041-0.82227c-0.39307-0.54102-0.48975-1.21289-0.26562-1.84326
		c0.14844-0.41797,0.00391-0.8833-0.35498-1.14404c-0.3584-0.26025-0.84521-0.25293-1.19727,0.0166
		c-0.5293,0.4082-1.19824,0.52441-1.83447,0.31689c-0.63623-0.20654-1.10938-0.69336-1.29834-1.33496
		C20.44229,7.29199,20.05166,7,19.6083,7s-0.83398,0.29199-0.95947,0.71729c-0.18896,0.6416-0.66211,1.12842-1.29834,1.33496
		c-0.63574,0.20752-1.30469,0.09131-1.83447-0.31689c-0.35205-0.27051-0.83984-0.27783-1.19775-0.0166
		c-0.35889,0.26074-0.50293,0.72656-0.35449,1.14453c0.22461,0.62988,0.12744,1.30127-0.26562,1.84229
		c-0.39258,0.5415-1.01807,0.84814-1.67041,0.82275c-0.46143-0.01318-0.8418,0.26953-0.979,0.69043
		c-0.13672,0.42188,0.02002,0.8833,0.38574,1.13379c0.55176,0.37842,0.86816,0.97852,0.86816,1.64746
		s-0.31641,1.26904-0.86816,1.64746c-0.36572,0.25049-0.52246,0.71191-0.38574,1.13379
		c0.13721,0.4209,0.50146,0.72266,0.979,0.69043c0.65479-0.01562,1.27783,0.28174,1.67041,0.82275
		c0.39307,0.54102,0.49023,1.2124,0.26562,1.84229c-0.14844,0.41797-0.00439,0.88379,0.35449,1.14453
		c0.35986,0.26123,0.84668,0.25391,1.19775-0.0166c0.52979-0.40869,1.19873-0.52441,1.83447-0.31689
		c0.63623,0.20654,1.10938,0.69336,1.29834,1.33496C18.77432,24.70801,19.16494,25,19.6083,25z M16.6083,16c0-1.6543,1.3457-3,3-3
		s3,1.3457,3,3s-1.3457,3-3,3S16.6083,17.6543,16.6083,16z"/>
	<circle cx="35.9999" cy="38" r="1"/>
	<rect x="32.9999" y="45" width="6" height="12"/>
	<path d="M52.40078,37.08398l-16-7c-0.25586-0.1123-0.5459-0.1123-0.80176,0l-16,7
		c-0.50586,0.22119-0.73682,0.81104-0.51514,1.31689c0.2207,0.50635,0.81152,0.73584,1.31689,0.51514l2.59912-1.13715V56
		c0,0.55225,0.44775,1,1,1h7V44c0-0.55225,0.44775-1,1-1h8c0.55225,0,1,0.44775,1,1v13h7c0.55225,0,1-0.44775,1-1V37.77887
		c0,0,2.59912,1.13715,2.59934,1.13724c0.50325,0.22039,1.09558-0.0107,1.31668-0.51523
		C53.1376,37.89502,52.90664,37.30518,52.40078,37.08398z M28.9999,52c0,0.55225-0.44775,1-1,1s-1-0.44775-1-1v-2
		c0-0.55225,0.44775-1,1-1s1,0.44775,1,1V52z M28.9999,46c0,0.55225-0.44775,1-1,1s-1-0.44775-1-1v-2c0-0.55225,0.44775-1,1-1
		s1,0.44775,1,1V46z M35.9999,41c-1.6543,0-3-1.3457-3-3s1.3457-3,3-3s3,1.3457,3,3S37.6542,41,35.9999,41z M44.9999,52
		c0,0.55225-0.44775,1-1,1s-1-0.44775-1-1v-2c0-0.55225,0.44775-1,1-1s1,0.44775,1,1V52z M44.9999,46c0,0.55225-0.44775,1-1,1
		s-1-0.44775-1-1v-2c0-0.55225,0.44775-1,1-1s1,0.44775,1,1V46z"/>
	<path d="M32.58584,20H31.9999c-0.55225,0-1,0.44775-1,1s0.44775,1,1,1h3c0.55225,0,1-0.44775,1-1v-3c0-0.55225-0.44775-1-1-1
		s-1,0.44775-1,1v0.58594l-2.29297-2.29297c-0.39062-0.39062-1.02344-0.39062-1.41406,0s-0.39062,1.02344,0,1.41406L32.58584,20z"/>
	<path d="M27.70694,23.29297c-0.39062-0.39062-1.02344-0.39062-1.41406,0s-0.39062,1.02344,0,1.41406L28.58584,27H27.9999
		c-0.55225,0-1,0.44775-1,1s0.44775,1,1,1h3c0.55225,0,1-0.44775,1-1v-3c0-0.55225-0.44775-1-1-1s-1,0.44775-1,1v0.58594
		L27.70694,23.29297z"/>
	<path d="M19.9999,31c0,0.55225,0.44775,1,1,1h3c0.55225,0,1-0.44775,1-1v-3c0-0.55225-0.44775-1-1-1s-1,0.44775-1,1v0.58594
		l-2.29297-2.29297c-0.39062-0.39062-1.02344-0.39062-1.41406,0s-0.39062,1.02344,0,1.41406L21.58584,30H20.9999
		C20.44766,30,19.9999,30.44775,19.9999,31z"/>
</g>
</svg>
