<?xml version="1.0" encoding="UTF-8"?>
<svg xmlns="http://www.w3.org/2000/svg" version="1.1" viewBox="0 0 64 64">
  <!-- Generator: Adobe Illustrator 28.7.1, SVG Export Plug-In . SVG Version: 1.2.0 Build 142)  -->
  <g>
    <g id="Glyph">
      <g>
        <rect x="33" y="16.5" width="7" height="3"/>
        <rect x="33" y="21.5" width="7" height="2.5"/>
        <polygon points="48.03143 16.5 42 16.5 42 19.5 48.7132 19.5 48.03143 16.5"/>
        <rect x="25" y="21.5" width="6" height="2.5"/>
        <path d="M20,37c-2.75684,0-5,2.24316-5,5v9h10v-9c0-2.75684-2.24316-5-5-5ZM18,47c-.55231,0-1-.44775-1-1,0-.55231.44769-1,1-1s1,.44769,1,1c0,.55225-.44769,1-1,1Z"/>
        <path d="M39.72021,41.24268l-.68994,2.75879,3.32031-3.98389-2.22217-.88867c-.2749-.11035-.48682-.33643-.5791-.61816-.0918-.28125-.0542-.58936.10254-.84033l1.66895-2.67041h-2.81006l-1.90576,4.06494,2.5166,1.00635c.46387.18604.71973.68604.59863,1.17139Z"/>
        <polygon points="14.26416 24 23 24 23 21.5 14.83228 21.5 14.26416 24"/>
        <path d="M55,51v-20H9v20h4v-9c0-3.85986,3.14014-7,7-7s7,3.14014,7,7v9h28ZM34.34473,39.17578l2.625-5.6001c.16455-.35156.51758-.57568.90527-.57568h5.24994c.77264,0,1.25787.87366.84821,1.52979l-1.99121,3.18604s2.38269.95276,2.38965.95557c.62219.24878.82587,1.05359.39648,1.56885,0,0-6.98383,8.38043-7,8.39984-.29596.35516-.80951.46057-1.2207.25153-.41602-.21094-.63037-.68164-.51758-1.13428l1.53857-6.15283s-2.68469-1.07361-2.68994-1.07568c-.52795-.21112-.77557-.83905-.53369-1.35303Z"/>
        <rect x="33" y="12" width="7" height="2.5"/>
        <path d="M51.97998,7.77997c-.10999-.45996-.51001-.77997-.97998-.77997H13c-.46997,0-.87.32001-.97998.77997l-4.82001,21.22003h49.59998l-4.82001-21.22003ZM51.77002,25.62c-.19.23999-.48004.38-.78003.38H13.01001c-.29999,0-.59003-.14001-.78003-.38-.19-.22998-.26001-.54004-.19-.84003l3.17999-14c.10004-.45996.51001-.77997.97003-.77997h31.62c.46002,0,.87.32001.97003.77997l3.17999,14c.07001.29999,0,.61005-.19.84003Z"/>
        <polygon points="16.4231 14.5 23 14.5 23 12 16.99121 12 16.4231 14.5"/>
        <polygon points="47.00879 12 42 12 42 14.5 47.5769 14.5 47.00879 12"/>
        <rect x="25" y="12" width="6" height="2.5"/>
        <path d="M55,53H9c-1.10455,0-2,.89539-2,2,0,1.09998.90002,2,2,2h46c1.09998,0,2-.90002,2-2,0-1.10461-.89545-2-2-2Z"/>
        <rect x="25" y="16.5" width="6" height="3"/>
        <polygon points="15.2868 19.5 23 19.5 23 16.5 15.96857 16.5 15.2868 19.5"/>
        <polygon points="42 21.5 42 24 49.73584 24 49.16772 21.5 42 21.5"/>
      </g>
    </g>
  </g>
</svg>