<?xml version="1.0" encoding="UTF-8"?>
<svg id="Glyph" xmlns="http://www.w3.org/2000/svg" version="1.1" viewBox="0 0 48 48">
  <path d="M12.00055,19c3.85974,0,7-3.14026,7-7s-3.14026-7-7-7-7,3.14026-7,7,3.14026,7,7,7ZM8.79352,10.79297c.39062-.39062,1.02344-.39062,1.41406,0l1.29297,1.29297,2.29297-2.29297c.39062-.39062,1.02344-.39062,1.41406,0s.39062,1.02344,0,1.41406l-3,3c-.19531.19531-.45117.29297-.70703.29297s-.51172-.09766-.70703-.29297l-2-2c-.39062-.39062-.39062-1.02344,0-1.41406Z" fill="#000" stroke-width="0"/>
  <path d="M11.70057,29.21997l-6.41003,6.41003c-.27997.28998-.37.71997-.20996,1.08997.14996.38.51996.62.91998.62h4.65997v4.66003c0,.39996.24005.76995.62005.91998.35259.1392.7928.08715,1.08997-.21002l8.09998-8.09998c-3.46997-.78998-6.53998-2.71997-8.76996-5.39001Z" fill="#000" stroke-width="0"/>
  <path d="M42.71058,35.63l-6.41003-6.41003c-2.21997,2.67004-5.27997,4.60004-8.77997,5.38,0,0,8.10457,8.10457,8.10999,8.10999.29176.29176.71529.35794,1.08996.21002.38-.15002.62006-.52002.62006-.91998v-4.66003h4.65997c.40002,0,.77002-.23999.91998-.62.16003-.37.07001-.79999-.20996-1.08997Z" fill="#000" stroke-width="0"/>
  <path d="M18.00055,19c0-.11066.01068-.21863.0166-.32782-.72998.659-1.56201,1.20618-2.47784,1.59979.38428.78552.56836,1.66364.50714,2.54004-.0166.23975.03857.47754.15967.68799.12158.20947.2998.37646.5166.48242.99512.48535,1.81055,1.30078,2.2959,2.2959.10547.21679.27196.39452.48143.51562.32022.18512.6657.14747,1.03127.14747.99072,0,1.97119.29785,2.79346.85254.39941.26953.95312.26855,1.35059.00098.91797-.62012,2.02979-.91602,3.13721-.8418.24512.02734.47852-.03711.68701-.1582.21094-.12207.37744-.2998.48291-.5166.48535-.99512,1.30078-1.81055,2.29639-2.29639.21631-.10547.39453-.27246.51611-.48193.12109-.21045.17627-.44824.15967-.68799-.07715-1.10449.22119-2.21875.84033-3.13623.13428-.19922.20557-.43311.20557-.67578s-.07129-.47656-.20557-.67578c-.61914-.91748-.91748-2.03174-.84033-3.13623.0166-.23975-.03857-.47754-.15967-.68799-.12158-.20996-.2998-.37695-.51562-.48193-.99561-.48584-1.81104-1.30127-2.29688-2.29639-.10498-.21631-.27148-.39453-.48193-.51611s-.45068-.17676-.68799-.15967c-1.10205.07764-2.21826-.22119-3.13623-.84033-.39844-.26855-.95312-.26855-1.35156,0-.70831.47809-1.53296.75867-2.38037.82935.03406.3175.05615.63855.05615.96509,0,.66797-.0788,1.3172-.21771,1.94415.93109-.5946,2.03333-.94415,3.21771-.94415,3.30859,0,6,2.69141,6,6s-2.69141,6-6,6-6-2.69141-6-6Z" fill="#000" stroke-width="0"/>
  <circle cx="24.00055" cy="19" r="4" fill="#000" stroke-width="0"/>
  <path d="M38.00055,19c0-7.72003-6.28003-14-14-14-1.85999,0-3.65002.37-5.27002,1.02997.77271.87134,1.37213,1.89648,1.76349,3.01874.6123.0094,1.20892-.16107,1.71259-.50134,1.06152-.71582,2.52637-.71582,3.58789,0,.54932.37061,1.21924.5498,1.87842.50342.63623-.04346,1.271.10107,1.82764.42334.55762.32178,1,.7959,1.28027,1.37158.29004.59521.77881,1.08398,1.375,1.37451.5752.28027,1.04932.72266,1.37061,1.27979.32178.55664.46826,1.18896.42334,1.82764-.04639.66162.13232,1.32861.50342,1.87842.35791.53076.54736,1.15137.54736,1.79395s-.18945,1.26318-.54736,1.79395c-.37109.5498-.5498,1.2168-.50342,1.87842.04492.63867-.10156,1.271-.42334,1.82764-.3208.55566-.79443.99805-1.37012,1.2793-.59668.29102-1.08545.78027-1.37598,1.37598-.28076.57617-.72363,1.05078-1.28027,1.37109-.55566.32129-1.18604.46875-1.82861.42188-.65771-.03809-1.32666.13281-1.87695.50391-.52979.3584-1.15039.54785-1.79395.54785s-1.26416-.18945-1.79492-.54883c-.54883-.37012-1.21289-.53906-1.87744-.50293-.63965.04688-1.27148-.10059-1.82861-.42285-.55518-.31934-.99805-.79395-1.27881-1.37012-.29053-.5957-.7793-1.08496-1.37549-1.37598-.57617-.28125-1.0498-.72363-1.37061-1.2793-.32178-.55664-.46826-1.18896-.42334-1.82764.0448-.6394-.12482-1.28149-.47089-1.82025-.51398.09167-1.0401.14789-1.5799.14789-.64001,0-1.27002-.07001-1.88-.20001.88,6.87,6.77002,12.20001,13.88,12.20001,7.71997,0,14-6.28003,14-14Z" fill="#000" stroke-width="0"/>
</svg>