<?xml version="1.0" encoding="UTF-8"?>
<svg xmlns="http://www.w3.org/2000/svg" version="1.1" viewBox="0 0 64 64">
  <!-- Generator: Adobe Illustrator 28.7.1, SVG Export Plug-In . SVG Version: 1.2.0 Build 142)  -->
  <g>
    <g id="Glyph">
      <g>
        <path d="M32,48c4.9624,0,9-4.0376,9-9s-4.0376-9-9-9-9,4.0376-9,9,4.0376,9,9,9ZM32,32c3.85986,0,7,3.14014,7,7s-3.14014,7-7,7-7-3.14014-7-7,3.14014-7,7-7Z"/>
        <path d="M29.24707,43.16699c.79053.52399,1.7356.83301,2.75293.83301,2.75684,0,5-2.24316,5-5,0-1.01733-.30902-1.9624-.83301-2.75293l-6.91992,6.91992Z"/>
        <path d="M34.75293,34.83301c-.79053-.52399-1.7356-.83301-2.75293-.83301-2.75684,0-5,2.24316-5,5,0,1.01733.30902,1.9624.83301,2.75293l6.91992-6.91992Z"/>
        <path d="M36,18c.55127,0,1-.44873,1-1v-4c0-.55127-.44873-1-1-1s-1,.44873-1,1v4c0,.55127.44873,1,1,1Z"/>
        <path d="M48,7H16c-1.65002,0-3,1.34998-3,3v13h38v-13c0-1.65002-1.34998-3-3-3ZM20,14c1.65002,0,3,1.34998,3,3s-1.34998,3-3,3h-2c-.54999,0-1-.45001-1-1s.45001-1,1-1h2c.54999,0,1-.45001,1-1s-.45001-1-1-1c-1.65002,0-3-1.35004-3-3s1.34998-3,3-3h2c.54999,0,1,.45001,1,1s-.45001,1-1,1h-2c-.54999,0-1,.45001-1,1s.45001,1,1,1ZM30,12h-1v7c0,.54999-.45001,1-1,1s-1-.45001-1-1v-7h-1c-.54999,0-1-.45001-1-1s.45001-1,1-1h4c.54999,0,1,.45001,1,1s-.45001,1-1,1ZM39,17c0,1.64996-1.34998,3-3,3s-3-1.35004-3-3v-4c0-1.65002,1.34998-3,3-3s3,1.34998,3,3v4ZM44,16h-1v3c0,.54999-.45001,1-1,1s-1-.45001-1-1v-8c0-.54999.45001-1,1-1h2c1.65002,0,3,1.34998,3,3s-1.34998,3-3,3Z"/>
        <path d="M45,13c0-.55127-.44873-1-1-1h-1v2h1c.55127,0,1-.44873,1-1Z"/>
        <path d="M13,25v25c0,1.64996,1.34998,3,3,3h32c1.65002,0,3-1.35004,3-3v-25H13ZM18,50c-.54999,0-1-.45001-1-1s.45001-1,1-1,1,.45001,1,1-.45001,1-1,1ZM18,30c-.54999,0-1-.45001-1-1s.45001-1,1-1,1,.45001,1,1-.45001,1-1,1ZM32,50c-6.07001,0-11-4.92999-11-11s4.92999-11,11-11,11,4.92999,11,11-4.92999,11-11,11ZM46,50c-.54999,0-1-.45001-1-1s.45001-1,1-1,1,.45001,1,1-.45001,1-1,1ZM46,30c-.54999,0-1-.45001-1-1s.45001-1,1-1,1,.45001,1,1-.45001,1-1,1Z"/>
        <path d="M21,55v1c0,.55225.44775,1,1,1h20c.55225,0,1-.44775,1-1v-1h-22Z"/>
      </g>
    </g>
  </g>
</svg>