<?xml version="1.0" encoding="UTF-8"?>
<svg xmlns="http://www.w3.org/2000/svg" version="1.1" viewBox="0 0 64 64">
  <!-- Generator: Adobe Illustrator 28.7.1, SVG Export Plug-In . SVG Version: 1.2.0 Build 142)  -->
  <g>
    <g id="Glyph">
      <g>
        <path d="M55,51v-28.32001l-23-9.20001-23,9.20001v28.32001h14v-10c0-4.62,3.51001-8.44,8-8.94v-2.06h-.15997c-1.66003,0-4.64001-.29999-6.59003-2.25-2.77002-2.77002-2.21002-7.60999-2.19-7.82001.06-.45001.41998-.81.87-.87.21002-.02002,5.04999-.58002,7.82001,2.19.53003.52997.94,1.14001,1.25,1.77997.31-.63995.71997-1.25,1.25-1.77997,2.77002-2.77002,7.60999-2.21002,7.82001-2.19.45001.06.81.41998.87.87.02002.21002.58002,5.04999-2.19,7.82001-1.95001,1.95001-4.92999,2.25-6.59003,2.25h-.15997v2.06c4.48999.5,8,4.32001,8,8.94v10h14ZM20,47c0,.54999-.45001,1-1,1h-6c-.54999,0-1-.45001-1-1v-14c0-.54999.45001-1,1-1h6c.54999,0,1,.45001,1,1v14ZM44,33c0-.54999.45001-1,1-1h6c.54999,0,1,.45001,1,1v14c0,.54999-.45001,1-1,1h-6c-.54999,0-1-.45001-1-1v-14Z"/>
        <rect x="46" y="34" width="4" height="12"/>
        <path d="M25,51h6v-16.92017c-3.3866.48779-6,3.4007-6,6.92017v10Z"/>
        <rect x="14" y="34" width="4" height="12"/>
        <path d="M56.37158,16.67383l-24-9.60205c-.23828-.0957-.50488-.0957-.74316,0L7.62842,16.67383c-.37939.15186-.62842.51953-.62842.92822v3.72113l24.62842-9.85345c.23828-.0957.50488-.0957.74316,0l24.62842,9.85345v-3.72113c0-.40869-.24902-.77637-.62842-.92822Z"/>
        <path d="M27.72656,23.54199c1.13745.65094,2.17426,1.45563,3.10358,2.36115-.19891-1.13116-.6178-2.35944-1.49567-3.23761-1.5-1.49902-4.02539-1.67969-5.33252-1.66357-.0166,1.30322.16406,3.83252,1.66357,5.33252,1.19135,1.19135,3.02008,1.54578,4.38208,1.63464-.94739-1.0553-2.06409-1.97577-3.31421-2.6908-.47949-.27441-.64551-.88525-.37158-1.36475.2749-.47949.88477-.64551,1.36475-.37158Z"/>
        <path d="M37.2666,25.27832c-1.25037.71521-2.36737,1.63599-3.31488,2.69153,1.36591-.08801,3.18921-.44226,4.38275-1.63538,1.49951-1.5,1.68018-4.0293,1.66357-5.33252-1.31201-.00732-3.83252.16406-5.33252,1.66357-.87787.87817-1.29675,2.10645-1.49567,3.23761.92932-.90552,1.96613-1.71021,3.10358-2.36115.47998-.27393,1.08984-.10791,1.36475.37158.27393.47949.10791,1.09033-.37158,1.36475Z"/>
        <rect x="7" y="53" width="50" height="4" rx="1" ry="1"/>
        <path d="M33,34.07983v16.92017h6v-10c0-3.51947-2.6134-6.43237-6-6.92017Z"/>
      </g>
    </g>
  </g>
</svg>