<?xml version="1.0" encoding="UTF-8"?>
<svg xmlns="http://www.w3.org/2000/svg" version="1.1" viewBox="0 0 48 48">
  <!-- Generator: Adobe Illustrator 28.7.1, SVG Export Plug-In . SVG Version: 1.2.0 Build 142)  -->
  <g>
    <g id="Glyph">
      <g>
        <path d="M31,9.64001v6.10999c3.45001.89996,6,4.02997,6,7.75v4.13c2.47998.32001,4.57001,1.25,6,2.57001v-6.70001c0-7.04004-5.21997-12.88-12-13.85999Z"/>
        <path d="M11,23.5c0-3.72003,2.54999-6.85004,6-7.75v-6.10999c-6.78003.97998-12,6.81995-12,13.85999v6.70001c1.42999-1.32001,3.52002-2.25,6-2.57001v-4.13Z"/>
        <rect x="19" y="8.5" width="10" height="8" rx="1" ry="1"/>
        <path d="M35,29.5c-4.48608,0-8,2.19641-8,5s3.51392,5,8,5,8-2.19647,8-5-3.51392-5-8-5ZM39.55615,34.09668c-.19629.26367-.49805.40332-.80371.40332-.20703,0-.41602-.06445-.59521-.19727-.18066-.13379-1.18115-.80273-3.15723-.80273-.55225,0-1-.44727-1-1s.44775-1,1-1c2.54004,0,3.97119.91602,4.34961,1.19727.44336.3291.53613.95508.20654,1.39941Z"/>
        <path d="M13,29.5c-4.48608,0-8,2.19641-8,5s3.51392,5,8,5,8-2.19647,8-5-3.51392-5-8-5ZM13,33.5c-1.97607,0-2.97656.66895-3.15723.80273-.1792.13281-.38818.19727-.59521.19727-.30566,0-.60742-.13965-.80371-.40332-.32959-.44434-.23682-1.07031.20654-1.39941.37842-.28125,1.80957-1.19727,4.34961-1.19727.55225,0,1,.44727,1,1s-.44775,1-1,1Z"/>
        <path d="M22.09998,31.5c.58002.89996.90002,1.90997.90002,3,0,1.08997-.32001,2.09998-.90002,3h3.80005c-.58002-.90002-.90002-1.91003-.90002-3,0-1.09003.32001-2.10004.90002-3h-3.80005Z"/>
      </g>
    </g>
  </g>
</svg>