<?xml version="1.0" encoding="UTF-8"?>
<svg xmlns="http://www.w3.org/2000/svg" version="1.1" viewBox="0 0 48 48">
  <!-- Generator: Adobe Illustrator 28.7.1, SVG Export Plug-In . SVG Version: 1.2.0 Build 142)  -->
  <g>
    <g id="Glyph">
      <g>
        <path d="M31,31c-1.6543,0-3,1.3457-3,3s1.3457,3,3,3,3-1.3457,3-3-1.3457-3-3-3ZM31,35c-.55127,0-1-.44824-1-1s.44873-1,1-1,1,.44824,1,1-.44873,1-1,1Z"/>
        <path d="M36,26.52539V10c0-2.75684-2.24316-5-5-5s-5,2.24316-5,5v16.52539c-2.48145,1.66309-4,4.47559-4,7.47461,0,4.96289,4.0376,9,9,9s9-4.03711,9-9c0-2.99902-1.51855-5.81152-4-7.47461ZM31,39c-2.75684,0-5-2.24316-5-5,0-2.41443,1.7207-4.43427,4-4.89893v-13.10107c0-.55273.44775-1,1-1s1,.44727,1,1v13.10107c2.2793.46466,4,2.4845,4,4.89893,0,2.75684-2.24316,5-5,5Z"/>
        <path d="M11,11h10c1.6543,0,3-1.3457,3-3s-1.3457-3-3-3h-10c-1.6543,0-3,1.3457-3,3s1.3457,3,3,3Z"/>
        <path d="M11,19h4c1.6543,0,3-1.3457,3-3s-1.3457-3-3-3h-4c-1.6543,0-3,1.3457-3,3s1.3457,3,3,3Z"/>
        <path d="M23,24c0-1.6543-1.3457-3-3-3h-9c-1.6543,0-3,1.3457-3,3s1.3457,3,3,3h9c1.6543,0,3-1.3457,3-3Z"/>
        <path d="M15,29h-4c-1.6543,0-3,1.3457-3,3s1.3457,3,3,3h4c1.6543,0,3-1.3457,3-3s-1.3457-3-3-3Z"/>
      </g>
    </g>
  </g>
</svg>