<?xml version="1.0" encoding="UTF-8"?>
<svg id="Glyph" xmlns="http://www.w3.org/2000/svg" version="1.1" viewBox="0 0 64 64">
  <path d="M40,22.31982c4.41113,0,8-3.58887,8-8,0-3.12305-1.75195-5.89111-4.57227-7.22412-.31055-.146-.67285-.12305-.96289.05957-.28906.18311-.46484.50195-.46484.84473v5.78467l-2,1.3335-2-1.3335v-5.78467c0-.34277-.17578-.66162-.46484-.84473-.29004-.18262-.65234-.20557-.96289-.05957-2.82031,1.33301-4.57227,4.10107-4.57227,7.22412,0,.41064.03125.82129.09277,1.22021.59961,3.92871,3.92578,6.77979,7.90723,6.77979Z" fill="#000" stroke-width="0"/>
  <path d="M35,23v4h10v-4.02002c-1.46997.84998-3.17999,1.34003-5,1.34003s-3.52002-.47003-5-1.32001Z" fill="#000" stroke-width="0"/>
  <path d="M39.07031,49.06982c0-.521.08594-1.04199.25293-1.54199l-3.64355-2.10205c-.92578,1.0498-2.24414,1.6543-3.67969,1.6543s-2.75391-.60449-3.67969-1.6543l-3.64355,2.10205c.16699.5.25293,1.021.25293,1.54199,0,2.37598-1.68945,4.36475-3.92969,4.82812v3.10205h4.0799c-.04718-.32751-.0799-.65961-.0799-1,0-3.85986,3.14062-7,7-7s7,3.14014,7,7c0,.34039-.03265.67249-.07983,1h4.07983v-3.10205c-2.24023-.46338-3.92969-2.45215-3.92969-4.82812Z" fill="#000" stroke-width="0"/>
  <rect x="10" y="40" width="4" height="12" fill="#000" stroke-width="0"/>
  <path d="M32,51c-2.75684,0-5,2.24316-5,5,0,.34241.03516.67676.10107,1h9.79785c.06592-.32324.10107-.65759.10107-1,0-2.75684-2.24316-5-5-5Z" fill="#000" stroke-width="0"/>
  <rect x="50" y="40" width="4" height="12" fill="#000" stroke-width="0"/>
  <path d="M55,29H9c-1.09998,0-2,.89996-2,2,0,1.09998.90002,2,2,2h46c1.09998,0,2-.90002,2-2,0-1.10004-.90002-2-2-2Z" fill="#000" stroke-width="0"/>
  <path d="M10,38h5c.55273,0,1,.44775,1,1v14c0,.55225-.44727,1-1,1h-5c0,1.6543,1.3457,3,3,3h6v-4c0-.55225.44727-1,1-1,1.80957,0,2.92969-1.521,2.92969-2.93018,0-.50879-.13379-1.00146-.39844-1.46484-.27246-.47803-.10742-1.08643.36914-1.36133l5.19922-3c.47656-.27393,1.08887-.11328,1.36523.36426.53516.92188,1.48242,1.47217,2.53516,1.47217s2-.55029,2.53516-1.47217c.27734-.47803.8877-.63965,1.36523-.36426l5.19922,3c.47656.2749.6416.8833.36914,1.36133-.26465.46338-.39844.95605-.39844,1.46484,0,1.40918,1.12012,2.93018,2.92969,2.93018.55273,0,1,.44775,1,1v4h6c1.6543,0,3-1.3457,3-3h-5c-.55273,0-1-.44775-1-1v-14c0-.55225.44727-1,1-1h5v-3H10v3ZM36,38c.55231,0,1,.44769,1,1,0,.55225-.44769,1-1,1s-1-.44775-1-1c0-.55231.44769-1,1-1ZM32,38c.55231,0,1,.44769,1,1,0,.55225-.44769,1-1,1s-1-.44775-1-1c0-.55231.44769-1,1-1ZM28,38c.55231,0,1,.44769,1,1,0,.55225-.44769,1-1,1s-1-.44775-1-1c0-.55231.44769-1,1-1Z" fill="#000" stroke-width="0"/>
  <path d="M17.61298,19h8.77405l1.56122-4.68359c.08398-.25195.06445-.52637-.05371-.76367l-3-6c-.16992-.33887-.51562-.55273-.89453-.55273h-4c-.37891,0-.72461.21387-.89453.55273l-3,6c-.11816.2373-.1377.51172-.05371.76367l1.56122,4.68359Z" fill="#000" stroke-width="0"/>
  <rect x="18" y="21" width="8" height="6" fill="#000" stroke-width="0"/>
</svg>