<?xml version="1.0" encoding="UTF-8"?>
<svg xmlns="http://www.w3.org/2000/svg" version="1.1" viewBox="0 0 48 48">
  <!-- Generator: Adobe Illustrator 28.7.1, SVG Export Plug-In . SVG Version: 1.2.0 Build 142)  -->
  <g>
    <g id="Glyph">
      <g>
        <path d="M19.77197,26.80713c-.14453.3418-.46631.57568-.83594.60742l-.58447.0498.44336.38379c.28027.24268.40332.62109.31934.98291l-.1333.57129.50244-.30273c.31594-.19036.71818-.19095,1.0332,0l.50244.30273-.1333-.57129c-.08398-.36182.03906-.74023.31934-.98291l.44336-.38379-.58447-.0498c-.36963-.03174-.69141-.26562-.83594-.60742l-.22803-.54053-.22803.54053Z"/>
        <path d="M13,28c0,3.85986,3.14014,7,7,7s7-3.14014,7-7-3.14014-7-7-7-7,3.14014-7,7ZM21.22949,24.03613l.60645,1.43701,1.5542.13281c.53467.04541.98877.40527,1.15527.91699.16602.51172.01074,1.06982-.396,1.42139l-1.17871,1.02051.354,1.51904c.12158.5249-.08105,1.06738-.51611,1.3833-.43506.31543-1.01416.33984-1.47363.06201l-1.33496-.80566-1.33545.80567c-.45605.27614-1.04143.24982-1.47314-.06202-.43506-.31592-.6377-.8584-.51611-1.38232l.354-1.52002-1.1792-1.021c-.40625-.35107-.56152-.90918-.39551-1.4209.1665-.51172.62061-.87158,1.15625-.91699l1.55322-.13281.60645-1.43701c.20996-.49512.69238-.81543,1.22949-.81543s1.01953.32031,1.22949.81543Z"/>
        <path d="M40,33.6236V8.5c0-1.92969-1.57031-3.5-3.5-3.5s-3.5,1.57031-3.5,3.5v2.5c0,.55127-.44873,1-1,1s-1-.44873-1-1c0-3.30859-2.69141-6-6-6s-6,2.69141-6,6v2.05066c-7.8045.51849-14,7.01587-14,14.94934,0,8.271,6.729,15,15,15s15-6.729,15-15c0-7.93347-6.1955-14.43085-14-14.94934v-2.05066c0-2.20557,1.79443-4,4-4s4,1.79443,4,4c0,1.6543,1.3457,3,3,3s3-1.3457,3-3v-2.5c0-.82715.67285-1.5,1.5-1.5s1.5.67285,1.5,1.5v25.1236c-.85645.99243-3,3.64893-3,5.3764,0,2.20557,1.79443,4,4,4s4-1.79443,4-4c0-1.72748-2.14355-4.38397-3-5.3764ZM29,28c0,4.9624-4.0376,9-9,9s-9-4.0376-9-9,4.0376-9,9-9,9,4.0376,9,9ZM39,41c-1.10303,0-2-.89697-2-2,0-.63721.93945-2.12549,1.99951-3.45117,1.06299,1.33252,2.00049,2.83154,2.00049,3.45117,0,1.10303-.89697,2-2,2Z"/>
      </g>
    </g>
  </g>
</svg>