<?xml version="1.0" encoding="UTF-8"?>
<svg xmlns="http://www.w3.org/2000/svg" version="1.1" viewBox="0 0 64 64">
  <!-- Generator: Adobe Illustrator 28.7.1, SVG Export Plug-In . SVG Version: 1.2.0 Build 142)  -->
  <g>
    <g id="Glyph">
      <g>
        <path d="M56,47c.55273,0,1-.44775,1-1s-.44727-1-1-1h-3.18427c.11206-.31433.18427-.64764.18427-1,0-1.6543-1.3457-3-3-3s-3,1.3457-3,3c0,.35236.07227.68567.18433,1h-6.36859c.11206-.31433.18427-.64764.18427-1,0-1.6543-1.3457-3-3-3s-3,1.3457-3,3c0,.35236.07227.68567.18433,1h-6.36859c.11206-.31433.18427-.64764.18427-1,0-1.6543-1.3457-3-3-3s-3,1.3457-3,3c0,.35236.07227.68567.18433,1h-6.36859c.11206-.31433.18427-.64764.18427-1,0-1.6543-1.3457-3-3-3s-3,1.3457-3,3c0,.35236.07227.68567.18433,1h-3.18433c-.55273,0-1,.44775-1,1s.44727,1,1,1h1v2h-1c-.55273,0-1,.44775-1,1s.44727,1,1,1h48c.55273,0,1-.44775,1-1s-.44727-1-1-1h-1v-2h1ZM15,47h2v2h-2v-2ZM19,47h2v2h-2v-2ZM23,47h2v2h-2v-2ZM27,47h2v2h-2v-2ZM31,47h2v2h-2v-2ZM35,47h2v2h-2v-2ZM39,47h2v2h-2v-2ZM43,47h2v2h-2v-2ZM47,47h2v2h-2v-2ZM11,47h2v2h-2v-2ZM53,49h-2v-2h2v2Z"/>
        <path d="M55,37H9c-1.10455,0-2,.89539-2,2v3c0,.54999.45001,1,1,1h1.09998c.46002-2.28003,2.48004-4,4.90002-4s4.44,1.71997,4.90002,4h2.19995c.46002-2.28003,2.48004-4,4.90002-4s4.44,1.71997,4.90002,4h2.19995c.46002-2.28003,2.48004-4,4.90002-4s4.44,1.71997,4.90002,4h2.19995c.46002-2.28003,2.48004-4,4.90002-4s4.44,1.71997,4.90002,4h1.09998c.54999,0,1-.45001,1-1v-3c0-1.10461-.89545-2-2-2Z"/>
        <path d="M55,16c0-1.65002-1.34998-3-3-3H12c-1.65002,0-3,1.34998-3,3v19h46v-19ZM15,31c0,.55225-.44727,1-1,1s-1-.44775-1-1v-14c0-.55225.44727-1,1-1s1,.44775,1,1v14ZM19,31c0,.55225-.44727,1-1,1s-1-.44775-1-1v-14c0-.55225.44727-1,1-1s1,.44775,1,1v14ZM23,31c0,.55225-.44727,1-1,1s-1-.44775-1-1v-14c0-.55225.44727-1,1-1s1,.44775,1,1v14ZM27,31c0,.55225-.44727,1-1,1s-1-.44775-1-1v-14c0-.55225.44727-1,1-1s1,.44775,1,1v14ZM31,31c0,.55225-.44727,1-1,1s-1-.44775-1-1v-14c0-.55225.44727-1,1-1s1,.44775,1,1v14ZM35,31c0,.55225-.44727,1-1,1s-1-.44775-1-1v-14c0-.55225.44727-1,1-1s1,.44775,1,1v14ZM39,31c0,.55225-.44727,1-1,1s-1-.44775-1-1v-14c0-.55225.44727-1,1-1s1,.44775,1,1v14ZM43,31c0,.55225-.44727,1-1,1s-1-.44775-1-1v-14c0-.55225.44727-1,1-1s1,.44775,1,1v14ZM47,31c0,.55225-.44727,1-1,1s-1-.44775-1-1v-14c0-.55225.44727-1,1-1s1,.44775,1,1v14ZM51,31c0,.55225-.44727,1-1,1s-1-.44775-1-1v-14c0-.55225.44727-1,1-1s1,.44775,1,1v14Z"/>
      </g>
    </g>
  </g>
</svg>