<?xml version="1.0" encoding="UTF-8"?>
<svg xmlns="http://www.w3.org/2000/svg" version="1.1" viewBox="0 0 64 64">
  <!-- Generator: Adobe Illustrator 28.7.1, SVG Export Plug-In . SVG Version: 1.2.0 Build 142)  -->
  <g>
    <g id="Glyph">
      <g>
        <path d="M22,49c-2.21002,0-4,1.78998-4,4s1.78998,4,4,4,4-1.79004,4-4-1.78998-4-4-4ZM22,54c-.54999,0-1-.45001-1-1s.45001-1,1-1,1,.45001,1,1-.45001,1-1,1Z"/>
        <path d="M48,49c-2.21002,0-4,1.78998-4,4s1.78998,4,4,4,4-1.79004,4-4-1.78998-4-4-4ZM48,54c-.54999,0-1-.45001-1-1s.45001-1,1-1,1,.45001,1,1-.45001,1-1,1Z"/>
        <circle cx="17" cy="17" r="3"/>
        <path d="M14.20001,24.70001v1.29999c0,.54999.45001,1,1,1h3.59998c.54999,0,1-.45001,1-1v-1.29999c.23004-.08002.45001-.17004.66998-.28003l.91003.91998c.38.38,1.03998.38,1.41998,0l2.54004-2.53998c.19-.19.29999-.44.29999-.71002,0-.26001-.10999-.51996-.29999-.70996l-.92004-.92004c.11005-.20996.20001-.42999.28003-.65997h1.29999c.54999,0,1-.45001,1-1v-3.59998c0-.55005-.45001-1-1-1h-1.29999c-.08002-.23004-.16998-.45001-.28003-.66003l.92004-.91998c.19-.19.29999-.45001.29999-.71002,0-.26996-.10999-.51996-.29999-.70996l-2.54004-2.54004c-.19-.19-.44-.29999-.70996-.29999-.26001,0-.52002.10999-.71002.29999l-.91003.91998c-.21997-.10999-.43994-.19995-.66998-.27997v-1.29999c0-.54999-.45001-1-1-1h-3.59998c-.54999,0-1,.45001-1,1v1.29999c-.23004.08002-.45001.16998-.66998.27997l-.91003-.91998c-.38-.38-1.03998-.38-1.41998,0l-2.54004,2.54004c-.19.19-.29999.44-.29999.70996,0,.26001.10999.52002.29999.71002l.92004.91998c-.11005.21002-.20001.42999-.28003.66003h-1.29999c-.54999,0-1,.44995-1,1v3.59998c0,.54999.45001,1,1,1h1.29999c.08002.22998.16998.45001.28003.65997l-.92004.92004c-.19.19-.29999.44995-.29999.70996,0,.27002.10999.52002.29999.71002l2.54004,2.53998c.19.19.44.30005.70996.30005.26001,0,.52002-.11005.71002-.30005l.91003-.91998c.21997.10999.43994.20001.66998.28003ZM12,17c0-2.76001,2.23999-5,5-5s5,2.23999,5,5-2.23999,5-5,5-5-2.23999-5-5Z"/>
        <path d="M57,35h-10v-8h2c.27002,0,.52002.10999.71002.28998l7,7c.17999.19.28998.44.28998.71002Z"/>
        <rect x="53" y="37" width="4" height="2"/>
        <path d="M51,40v-3h-5c-.54999,0-1-.45001-1-1v-9h-2v16h14v-2h-5c-.54999,0-1-.45001-1-1ZM48,41h-2c-.54999,0-1-.45001-1-1s.45001-1,1-1h2c.54999,0,1,.45001,1,1s-.45001,1-1,1Z"/>
        <path d="M13,52c0,.54999.45001,1,1,1h2c0-3.31,2.69-6,6-6s6,2.69,6,6h14c0-3.31,2.69-6,6-6s6,2.69,6,6h2c.54999,0,1-.45001,1-1v-7H13v7Z"/>
        <path d="M24.21002,26.76001c-.55005.54999-1.32001.85999-2.12.85999-.24005,0-.48004-.02002-.72003-.08002-.52002.87-1.47998,1.46002-2.57001,1.46002h-3.59998c-.87,0-1.66003-.37-2.20001-.97003v14.97003h28v-20h-13.5c-.15002.45001-.40002.87-.73999,1.20996l-2.54999,2.55005ZM29,27c3.85999,0,7,3.14001,7,7s-3.14001,7-7,7c-1.98999,0-3.89001-.85004-5.21002-2.34003-.16998-.19-.32001-.37-.45996-.57001-.61005-.83997-1.01001-1.78998-1.20001-2.81l-.41998.42999c-.39001.39001-1.03003.39001-1.42004,0-.38995-.38995-.38995-1.02997,0-1.41998l2-2c.39001-.39001,1.03003-.39001,1.42004,0l2,2c.38995.39001.38995,1.03.00002,1.41996-.37864.37867-.99849.37034-1.39004.02004.15997.41998.35999.82001.63,1.19.12.15002.22998.28998.33997.41998.92999,1.05005,2.29004,1.66003,3.71002,1.66003,2.76001,0,5-2.23999,5-5s-2.23999-5-5-5c-1.20001,0-2.34998.42999-3.22998,1.20001-.42004.37-1.05005.31995-1.41003-.09003-.37-.41998-.32001-1.04999.09003-1.40997,1.25-1.10004,2.87-1.70001,4.54999-1.70001Z"/>
      </g>
    </g>
  </g>
</svg>