<?xml version="1.0" encoding="utf-8"?>
<!-- Generator: Adobe Illustrator 27.3.1, SVG Export Plug-In . SVG Version: 6.00 Build 0)  -->
<svg version="1.1" id="Glyph" xmlns="http://www.w3.org/2000/svg" xmlns:xlink="http://www.w3.org/1999/xlink" x="0px" y="0px"
	 viewBox="0 0 64 64" enable-background="new 0 0 64 64" xml:space="preserve">
<g>
	<path d="M38.5,40c-0.55127,0-1,0.44873-1,1v2c0,0.55127,0.44873,1,1,1s1-0.44873,1-1v-2C39.5,40.44873,39.05127,40,38.5,40z"/>
	<path d="M25.5,40h-1v4h1c0.55127,0,1-0.44873,1-1v-2C26.5,40.44873,26.05127,40,25.5,40z"/>
	<path d="M28.05292,34.00146c2.04114,0.11322,3.96844,0.8913,6.00079,1c2.11053,0.1084,4.31824-0.34229,6.56702-1.32928
		C38.43726,31.4126,35.38275,30,32,30c-3.64191,0-6.90387,1.63666-9.10645,4.20642
		C24.6073,33.98828,26.33337,33.91107,28.05292,34.00146z"/>
	<path d="M25,11h14c0.55231,0,1-0.44775,1-1V8c0-0.55231-0.44769-1-1-1H25c-0.55231,0-1,0.44769-1,1v2
		C24,10.55225,24.44769,11,25,11z"/>
	<path d="M41.9306,35.27246c-2.45447,1.15546-4.88788,1.74463-7.25385,1.74463c-0.24316,0-0.48584-0.00586-0.72766-0.01855
		c-2.0401-0.10931-3.96204-0.88647-6.00476-1c-2.19836-0.1156-4.40985,0.05298-6.58685,0.47906C20.49512,38.13263,20,40.0083,20,42
		c0,3.45703,1.47803,6.7168,4.06787,9h15.86426C42.52197,48.7168,44,45.45703,44,42C44,39.50848,43.23566,37.19263,41.9306,35.27246
		z M28.5,43c0,1.6543-1.3457,3-3,3h-2c-0.55225,0-1-0.44775-1-1v-6c0-0.55225,0.44775-1,1-1h2c1.6543,0,3,1.3457,3,3V43z
		 M34.5,43.72363c0,0.56641-0.19482,1.12109-0.54834,1.5625L32.58057,47H33.5c0.55225,0,1,0.44775,1,1s-0.44775,1-1,1h-3
		c-0.38428,0-0.73486-0.22021-0.90137-0.56689c-0.1665-0.34619-0.11963-0.75781,0.12061-1.05762l2.67139-3.33936
		c0.0708-0.08838,0.10938-0.19922,0.10938-0.3125V43.5c0-0.27588-0.22412-0.5-0.5-0.5s-0.5,0.22412-0.5,0.5c0,0.55225-0.44775,1-1,1
		s-1-0.44775-1-1c0-1.37842,1.12158-2.5,2.5-2.5s2.5,1.12158,2.5,2.5V43.72363z M41.5,43c0,1.6543-1.3457,3-3,3s-3-1.3457-3-3v-2
		c0-1.6543,1.3457-3,3-3s3,1.3457,3,3V43z"/>
	<path d="M38,25.02686V13H26v12.02686C18.7915,27.56299,14,34.29248,14,42c0,5.91553,2.91309,11.45703,7.79199,14.82324
		C21.95898,56.93848,22.15723,57,22.35986,57h19.28027c0.20264,0,0.40088-0.06152,0.56787-0.17676
		C47.08691,53.45703,50,47.91553,50,42C50,34.29248,45.2085,27.56299,38,25.02686z M40.94092,52.76904
		C40.76123,52.91846,40.53516,53,40.30176,53H23.69824c-0.2334,0-0.45947-0.08154-0.63916-0.23096
		C19.84375,50.09668,18,46.17139,18,42c0-7.71973,6.28027-14,14-14s14,6.28027,14,14
		C46,46.17139,44.15625,50.09668,40.94092,52.76904z"/>
</g>
</svg>
