<?xml version="1.0" encoding="UTF-8"?>
<svg id="Glyph" xmlns="http://www.w3.org/2000/svg" version="1.1" viewBox="0 0 48 48">
  <path d="M34,32c-2.20544,0-4,1.79449-4,4s1.79456,4,4,4,4-1.79456,4-4-1.79456-4-4-4ZM34,37c-.55231,0-1-.44775-1-1,0-.55231.44769-1,1-1s1,.44769,1,1c0,.55225-.44769,1-1,1Z" fill="#000" stroke-width="0"/>
  <path d="M14,32c-2.20544,0-4,1.79449-4,4s1.79456,4,4,4,4-1.79456,4-4-1.79456-4-4-4ZM14,37c-.55231,0-1-.44775-1-1,0-.55231.44769-1,1-1s1,.44769,1,1c0,.55225-.44769,1-1,1Z" fill="#000" stroke-width="0"/>
  <path d="M35,12v2h-6v-2c0-1.65002,1.34998-3,3-3s3,1.34998,3,3Z" fill="#000" stroke-width="0"/>
  <g>
    <path d="M43,27v6c0,1.64996-1.34998,3-3,3,0-3.31-2.69-6-6-6s-6,2.69-6,6h-2v-20h10c.33002,0,.65002.16998.83002.45001l2.37,3.54999h-6.20001c-1.09998,0-2,.89996-2,2v3c0,1.09998.90002,2,2,2h10Z" fill="#000" stroke-width="0"/>
    <polygon points="42.53003 25 33 25 33 22 40.53003 22 42.53003 25" fill="#000" stroke-width="0"/>
    <polygon points="42.53003 25 33 25 33 22 40.53003 22 42.53003 25" fill="#000" stroke-width="0"/>
    <rect x="10" y="12" width="3" height="14" fill="#000" stroke-width="0"/>
    <rect x="15" y="12" width="3" height="14" fill="#000" stroke-width="0"/>
    <path d="M24,14v12h-4v-14h2c1.09998,0,2,.89996,2,2Z" fill="#000" stroke-width="0"/>
    <path d="M24,28v8h-4c0-3.31-2.69-6-6-6s-6,2.69-6,6c-1.65002,0-3-1.35004-3-3v-5h19Z" fill="#000" stroke-width="0"/>
    <path d="M8,12v14h-3v-12c0-1.10004.90002-2,2-2h1Z" fill="#000" stroke-width="0"/>
  </g>
</svg>