<?xml version="1.0" encoding="utf-8"?>
<!-- Generator: Adobe Illustrator 27.3.1, SVG Export Plug-In . SVG Version: 6.00 Build 0)  -->
<svg version="1.1" id="Glyph" xmlns="http://www.w3.org/2000/svg" xmlns:xlink="http://www.w3.org/1999/xlink" x="0px" y="0px"
	 viewBox="0 0 48 48" enable-background="new 0 0 48 48" xml:space="preserve">
<g>
	<circle cx="41" cy="18" r="1"/>
	<path d="M31.7782,7.70709c0.3905-0.3905,0.3905-1.02368,0-1.41418c-0.39056-0.39056-1.02374-0.39056-1.41425,0
		c-0.3905,0.3905-0.3905,1.02368,0,1.41418S31.38763,8.0976,31.7782,7.70709z"/>
	<circle cx="18" cy="7" r="1"/>
	<path d="M6.29291,16.2218c-0.39056,0.3905-0.39056,1.02368,0,1.41425c0.3905,0.3905,1.02368,0.3905,1.41418,0
		c0.39056-0.39056,0.39056-1.02374,0-1.41425C7.31659,15.8313,6.68341,15.8313,6.29291,16.2218z"/>
	<circle cx="7" cy="30" r="1"/>
	<path d="M16.2218,40.29291c-0.3905,0.3905-0.3905,1.02368,0,1.41418c0.39056,0.3905,1.02374,0.3905,1.41425,0
		s0.3905-1.02368,0-1.41418C17.24554,39.90234,16.61237,39.90234,16.2218,40.29291z"/>
	<circle cx="30" cy="41" r="1"/>
	<path d="M8.29299,9.70705c0.38746,0.38743,1.02757,0.38646,1.41404-0.00002c0.39062-0.39062,0.39062-1.02344,0-1.41406l-3-3
		c-0.39062-0.39062-1.02344-0.39062-1.41406,0s-0.39062,1.02344,0,1.41406C5.29297,6.70703,8.29297,9.70703,8.29299,9.70705z"/>
	<path d="M42.70703,5.29297c-0.39062-0.39062-1.02344-0.39062-1.41406,0l-3,3c-0.39062,0.39062-0.39062,1.02344,0.00006,1.41406
		c0.36876,0.36871,1.01936,0.39464,1.414,0l3-3C43.09766,6.31641,43.09766,5.68359,42.70703,5.29297z"/>
	<path d="M39.70703,38.29297c-0.39062-0.39062-1.02344-0.39062-1.41406,0s-0.39062,1.02344,0,1.41406c0,0,3,3,3.00004,3.00004
		c0.38727,0.38723,1.0268,0.38719,1.41402-0.00004c0.39062-0.39062,0.39062-1.02344,0-1.41406L39.70703,38.29297z"/>
	<path d="M8.29297,38.29297l-3,3c-0.39062,0.39062-0.39062,1.02344,0.00004,1.4141c0.38725,0.38721,1.02677,0.38722,1.41402-0.00004
		l3-3c0.39062-0.39062,0.39062-1.02344,0-1.41406S8.68359,37.90234,8.29297,38.29297z"/>
	<path d="M37.72852,18.31445v-7.04297c0-0.55273-0.44775-1-1-1h-7.04297l-4.97852-4.97852
		c-0.39062-0.39062-1.02344-0.39062-1.41406,0l-4.97852,4.97852h-7.04297c-0.55225,0-1,0.44727-1,1v7.04297l-4.97852,4.97852
		c-0.39062,0.39062-0.39062,1.02344,0,1.41406l4.97852,4.97852v7.04297c0,0.55273,0.44775,1,1,1h7.04297l4.97852,4.97852
		C23.48828,42.90234,23.74414,43,24,43s0.51172-0.09766,0.70703-0.29297l4.97852-4.97852h7.04297c0.55225,0,1-0.44727,1-1v-7.04297
		l4.97852-4.97852c0.39062-0.39062,0.39062-1.02344,0-1.41406L37.72852,18.31445z M25.68359,20.05176
		c0.52686-0.1748,1.09082,0.1084,1.26514,0.63184L28,23.83789l1.05127-3.1543c0.17432-0.52344,0.73975-0.80664,1.26514-0.63184
		c0.52393,0.17383,0.80713,0.74023,0.63232,1.26465l-2,6C28.8125,27.72461,28.43066,28,28,28s-0.8125-0.27539-0.94873-0.68359l-2-6
		C24.87646,20.79199,25.15967,20.22559,25.68359,20.05176z M14,25c-0.55225,0-1-0.44727-1-1c0-6.06543,4.93457-11,11-11
		c0.55225,0,1,0.44727,1,1s-0.44775,1-1,1c-4.9624,0-9,4.03711-9,9C15,24.55273,14.55225,25,14,25z M20,28c-1.6543,0-3-1.3457-3-3
		v-4c0-0.55273,0.44775-1,1-1s1,0.44727,1,1v4c0,0.55176,0.44873,1,1,1s1-0.44824,1-1v-4c0-0.55273,0.44775-1,1-1s1,0.44727,1,1v4
		C23,26.6543,21.6543,28,20,28z M24,35c-0.55225,0-1-0.44727-1-1s0.44775-1,1-1c4.9624,0,9-4.03711,9-9c0-0.55273,0.44775-1,1-1
		s1,0.44727,1,1C35,30.06543,30.06543,35,24,35z"/>
</g>
</svg>
