<?xml version="1.0" encoding="UTF-8"?>
<svg id="Glyph" xmlns="http://www.w3.org/2000/svg" version="1.1" viewBox="0 0 64 64">
  <path d="M46,42c-1.65002,0-3,1.34998-3,3s1.34998,3,3,3,3-1.35004,3-3-1.34998-3-3-3ZM46,46c-.54999,0-1-.45001-1-1s.45001-1,1-1,1,.45001,1,1-.45001,1-1,1Z" style="fill: #000; stroke-width: 0px;"/>
  <path d="M20,42c-1.65002,0-3,1.34998-3,3s1.34998,3,3,3,3-1.35004,3-3-1.34998-3-3-3ZM20,46c-.54999,0-1-.45001-1-1s.45001-1,1-1,1,.45001,1,1-.45001,1-1,1Z" style="fill: #000; stroke-width: 0px;"/>
  <path d="M7,42c0,1.64996,1.34998,3,3,3h5c0-2.76001,2.23999-5,5-5s5,2.23999,5,5h9v-7H7v4Z" style="fill: #000; stroke-width: 0px;"/>
  <rect x="21" y="22" width="6" height="7" style="fill: #000; stroke-width: 0px;"/>
  <rect x="29" y="22" width="5" height="7" style="fill: #000; stroke-width: 0px;"/>
  <rect x="14" y="22" width="5" height="7" style="fill: #000; stroke-width: 0px;"/>
  <path d="M56.65997,24.25l-9-8c-.17999-.16003-.40997-.25-.65997-.25H10c-1.65002,0-3,1.34998-3,3v17h28c.54999,0,1,.45001,1,1v8h5c0-2.76001,2.23999-5,5-5s5,2.23999,5,5h3c1.65002,0,3-1.35004,3-3v-17c0-.29004-.12-.56-.34003-.75ZM36,30c0,.54999-.45001,1-1,1H13c-.54999,0-1-.45001-1-1v-9c0-.54999.45001-1,1-1h22c.54999,0,1,.45001,1,1v9ZM42,35h-2c-.54999,0-1-.45001-1-1s.45001-1,1-1h2c.54999,0,1,.45001,1,1s-.45001,1-1,1ZM53,30c0,.54999-.45001,1-1,1h-12c-.54999,0-1-.45001-1-1v-9c0-.54999.45001-1,1-1h5.47998c.23999,0,.48004.08997.66003.25l6.51996,5.79999c.22003.19.34003.46002.34003.75v3.20001Z" style="fill: #000; stroke-width: 0px;"/>
  <polygon points="41 22 41 29 51 29 51 27.24609 45.09961 22 41 22" style="fill: #000; stroke-width: 0px;"/>
</svg>