<?xml version="1.0" encoding="UTF-8"?>
<svg xmlns="http://www.w3.org/2000/svg" version="1.1" viewBox="0 0 48 48">
  <!-- Generator: Adobe Illustrator 28.7.1, SVG Export Plug-In . SVG Version: 1.2.0 Build 142)  -->
  <g>
    <g id="Glyph">
      <g>
        <path d="M17,35c-2.20544,0-4,1.79449-4,4s1.79456,4,4,4,4-1.79456,4-4-1.79456-4-4-4ZM17,40c-.55231,0-1-.44775-1-1,0-.55231.44769-1,1-1s1,.44769,1,1c0,.55225-.44769,1-1,1Z"/>
        <path d="M33,35c-2.20544,0-4,1.79449-4,4s1.79456,4,4,4,4-1.79456,4-4-1.79456-4-4-4ZM33,40c-.55231,0-1-.44775-1-1,0-.55231.44769-1,1-1s1,.44769,1,1c0,.55225-.44769,1-1,1Z"/>
        <polygon points="28.38184 23 26 23 26 25 29.38184 25 28.38184 23"/>
        <polygon points="20 23 17.61816 23 16.61816 25 20 25 20 23"/>
        <path d="M39.17139,31c.4126,1.16406,1.5249,2,2.82861,2h1v-2h-3.82861Z"/>
        <path d="M10,30v3h28.02557c-.63458-.83826-1.02557-1.87006-1.02557-3,0-.55225.44775-1,1-1h4.89911c-.46375-2.28125-2.48163-4-4.89911-4h-1.60999c-.42004,0-.79004-.26001-.94-.65002l-1.78003-4.75c-.58997-1.56-2.08997-2.59998-3.75-2.59998h-10.91998v-3.94159c1.1615-.41412,2-1.51379,2-2.81573,0-1.6543-1.3457-3-3-3s-3,1.3457-3,3c0,1.30194.8385,2.40155,2,2.81567v3.94165h-.91998c-1.66003,0-3.16003,1.03998-3.75,2.59998l-1.77002,4.73999c-.15997.40002-.52997.66003-.95001.66003h-.60999c-2.21002,0-4,1.78998-4,4h4c.55225,0,1,.44775,1,1ZM24,22c0-.55225.44775-1,1-1h4c.37891,0,.7251.21387.89453.55273l2,4c.15479.31006.13818.67822-.04395.97314-.18213.29443-.50391.47412-.85059.47412h-6c-.55225,0-1-.44775-1-1v-4ZM25,29h2c.55225,0,1,.44775,1,1s-.44775,1-1,1h-2c-.55225,0-1-.44775-1-1s.44775-1,1-1ZM14.10547,25.55273l2-4c.16943-.33887.51562-.55273.89453-.55273h4c.55225,0,1,.44775,1,1v4c0,.55225-.44775,1-1,1h-6c-.34668,0-.66846-.17969-.85059-.47412-.18213-.29492-.19873-.66309-.04395-.97314ZM15,29h2c.55225,0,1,.44775,1,1s-.44775,1-1,1h-2c-.55225,0-1-.44775-1-1s.44775-1,1-1Z"/>
        <path d="M23,39h4c0-1.5379.58563-2.93744,1.53943-4h-7.07886c.9538,1.06256,1.53943,2.4621,1.53943,4Z"/>
        <path d="M5,35c0,2.20996,1.78998,4,4,4h2c0-1.5379.58563-2.93744,1.53943-4h-7.53943Z"/>
        <rect x="5" y="31" width="3" height="2"/>
        <path d="M37.46057,35c.9538,1.06256,1.53943,2.4621,1.53943,4h1c1.65002,0,3-1.35004,3-3v-1h-5.53943Z"/>
        <path d="M9.75732,15.48535c.25586,0,.51172-.09766.70703-.29297.39062-.39062.39062-1.02344,0-1.41406-1.94922-1.94971-1.94922-5.12158,0-7.07129.39062-.39062.39062-1.02344,0-1.41406s-1.02344-.39062-1.41406,0c-2.72949,2.729-2.72949,7.17041,0,9.89941.19531.19531.45117.29297.70703.29297Z"/>
        <path d="M12.58594,12.65674c.25586,0,.51221-.09766.70752-.29297.39014-.39062.39014-1.02393-.00049-1.41455-.18848-.18799-.29248-.43896-.29248-.70654s.104-.51855.29248-.70654c.39062-.39062.39062-1.02393.00049-1.41455-.39062-.39062-1.02393-.39014-1.41455-.00049-.56641.56641-.87842,1.31982-.87842,2.12158s.31201,1.55518.87842,2.12158c.19531.19482.45117.29248.70703.29248Z"/>
        <path d="M25.53564,15.19238c.19531.19531.45117.29297.70703.29297s.51172-.09766.70703-.29297c2.72949-2.729,2.72949-7.17041,0-9.89941-.39062-.39062-1.02344-.39062-1.41406,0s-.39062,1.02344,0,1.41406c1.94922,1.94971,1.94922,5.12158,0,7.07129-.39062.39062-.39062,1.02344,0,1.41406Z"/>
        <path d="M22.70654,12.36377c.19531.19531.45166.29297.70752.29297s.51172-.09766.70703-.29248c.56641-.56641.87842-1.31982.87842-2.12158s-.31201-1.55518-.87842-2.12158c-.39062-.38965-1.02393-.39014-1.41455.00049-.39014.39062-.39014,1.02393.00049,1.41455.18848.18799.29248.43896.29248.70654s-.104.51855-.29248.70654c-.39062.39062-.39062,1.02393-.00049,1.41455Z"/>
      </g>
    </g>
  </g>
</svg>