<?xml version="1.0" encoding="UTF-8"?>
<svg id="Glyph" xmlns="http://www.w3.org/2000/svg" version="1.1" viewBox="0 0 48 48">
  <path d="M42,41h-7.98633v-2h3c1.6543,0,3-1.3457,3-3s-1.3457-3-3-3h-8c-1.6543,0-3,1.3457-3,3s1.3457,3,3,3h3v2h-16.01367v-2h3c1.6543,0,3-1.3457,3-3s-1.3457-3-3-3h-8c-1.6543,0-3,1.3457-3,3s1.3457,3,3,3h3v2H6c-.55225,0-1,.44727-1,1s.44775,1,1,1h36c.55225,0,1-.44727,1-1s-.44775-1-1-1Z" fill="#000" stroke-width="0"/>
  <path d="M10,28v3h10v-3c0-2.76001-2.23999-5-5-5s-5,2.23999-5,5Z" fill="#000" stroke-width="0"/>
  <path d="M28.01001,28v3h10v-3c0-2.76001-2.23999-5-5-5-2.75,0-5,2.23999-5,5Z" fill="#000" stroke-width="0"/>
  <path d="M24,23c4.9624,0,9-4.0376,9-9s-4.0376-9-9-9-9,4.0376-9,9,4.0376,9,9,9ZM23,10c0-.55225.44775-1,1-1s1,.44775,1,1v3.58594l2.53711,2.53711c.39056.39056.39062,1.02319.00018,1.41382-.36438.36462-1.0282.38623-1.41425.00024l-2.83008-2.83008c-.1875-.1875-.29297-.44189-.29297-.70703v-4Z" fill="#000" stroke-width="0"/>
  <path d="M36,13c-.55225,0-1,.44775-1,1s.44775,1,1,1h2c.55225,0,1-.44775,1-1s-.44775-1-1-1h-2Z" fill="#000" stroke-width="0"/>
  <path d="M37.49756,17.84863l-1.87939-.68408c-.5166-.19141-1.09277.07812-1.28125.59766-.18896.51855.07861,1.09277.59766,1.28125,0,0,1.87872.68402,1.87891.68408.49823.1814,1.09277-.07709,1.28174-.59766.18896-.51855-.07861-1.09277-.59766-1.28125Z" fill="#000" stroke-width="0"/>
  <path d="M35.27625,10.84564c.74414-.00476,1.69983-.51971,2.22131-.70941.51904-.18896.78662-.7627.59814-1.28174-.18945-.51953-.76416-.78662-1.28174-.59814l-1.87939.68359c-.51904.18896-.78662.76263-.59814,1.28168.16998.4682.52148.62671.93982.62402Z" fill="#000" stroke-width="0"/>
  <path d="M10.01367,15h2c.55225,0,1-.44775,1-1s-.44775-1-1-1h-2c-.55225,0-1,.44775-1,1s.44775,1,1,1Z" fill="#000" stroke-width="0"/>
  <path d="M10.85773,19.75238c.73999-.00531,1.69025-.51556,2.22137-.70892.51904-.18848.78662-.7627.59766-1.28125-.18896-.51953-.76465-.78906-1.28125-.59766l-1.87939.68408c-.51898.18842-.78656.76251-.59772,1.28107.17029.46753.52124.62573.93933.62268Z" fill="#000" stroke-width="0"/>
  <path d="M10.51611,10.13623s1.87915.68347,1.87939.68359c.49597.18036,1.09338-.08105,1.28174-.59814.18848-.51904-.0791-1.09277-.59814-1.28174l-1.87939-.68359c-.5166-.18701-1.09229.0791-1.28174.59814-.18848.51904.0791,1.09277.59814,1.28174Z" fill="#000" stroke-width="0"/>
</svg>