<?xml version="1.0" encoding="UTF-8"?>
<svg id="Glyph" xmlns="http://www.w3.org/2000/svg" version="1.1" viewBox="0 0 64 64">
  <path d="M22,18.00045c0-.54999-.45001-1-1-1h-6c-.54999,0-1,.45001-1,1v3.96997l8-3.20001v-.76996Z" fill="#000" stroke-width="0"/>
  <path d="M14.73779,13.71285l.36767.73486c.56034,1.11994,2.38207.29033,1.78906-.89453l-.36768-.73438c-.18555-.37158-.11279-.81787.18018-1.11133.90283-.90234,1.12598-2.27637.55518-3.41943l-.36768-.73486c-.24707-.49463-.84863-.69531-1.3418-.44727-.49414.24756-.69434.84814-.44727,1.3418l.36768.73438c.18555.37158.11279.81787-.18018,1.11133-.90283.90234-1.12598,2.27637-.55518,3.41943Z" fill="#000" stroke-width="0"/>
  <path d="M19.16309,13.71285l.36767.73486c.56881,1.13687,2.37448.27515,1.78907-.89453l-.36768-.73438c-.18555-.37158-.11279-.81787.18018-1.11133.90283-.90234,1.12598-2.27637.55517-3.41943l-.36767-.73486c-.24805-.49463-.84814-.69531-1.3418-.44727-.49414.24756-.69434.84814-.44727,1.3418l.36768.73438c.18555.37158.11279.81787-.18018,1.11133-.90283.90234-1.12598,2.27637-.55518,3.41943Z" fill="#000" stroke-width="0"/>
  <path d="M47,39.00045v18h-2.10999v-4c0-.54999-.45001-1-1-1-1.81,0-2.92999-1.52002-2.92999-2.92999,0-.51001.13-1,.39996-1.46002.27002-.47998.10999-1.09003-.37-1.37l-5.20001-3c-.22998-.13-.5-.16998-.75995-.09998-.26001.06995-.48004.23999-.61005.46997-.51996.91998-1.46997,1.46997-2.52997,1.46997s-2.01001-.54999-2.53003-1.46997c-.13-.22998-.34998-.40002-.60999-.46997-.26001-.06006-.53003-.03003-.76001.09998l-5.20001,3c-.22998.14001-.39996.34998-.46997.60999-.06.26001-.03003.53003.09998.76001.27002.46997.41003.96002.41003,1.46002,0,1.40997-1.12,2.92999-2.94,2.92999-.54999,0-1,.45001-1,1v4h-1.89001v-18h30Z" fill="#000" stroke-width="0"/>
  <path d="M38.95996,49.07027c0-.521.08594-1.04248.25293-1.54248l-3.64062-2.1001c-.9209,1.04883-2.23926,1.65283-3.68213,1.65283s-2.76172-.604-3.68262-1.65283l-3.63574,2.09766c.17041.50244.2583,1.02441.2583,1.54492,0,2.37646-1.69385,4.36621-3.93994,4.82861v3.10156h4.1897c-.04718-.32751-.07983-.65961-.07983-1,0-3.85986,3.14014-7,7-7,3.85938,0,7,3.14014,7,7,0,.34039-.03265.67249-.07983,1h3.96948v-3.10205c-2.24023-.46338-3.92969-2.45215-3.92969-4.82812Z" fill="#000" stroke-width="0"/>
  <rect x="17" y="31.00045" width="30" height="2" fill="#000" stroke-width="0"/>
  <rect x="17" y="35.00045" width="30" height="2" fill="#000" stroke-width="0"/>
  <path d="M52.37109,25.07174l-19.99951-8c-.23926-.09473-.50391-.09473-.74316,0l-20,8c-.37939.15234-.62842.52002-.62842.92871v30c0,.55225.44775,1,1,1h3v-27c0-.55225.44775-1,1-1h32c.55273,0,1,.44775,1,1v27h3c.55273,0,1-.44775,1-1v-30c0-.40869-.24902-.77637-.62891-.92871ZM32,27.00045c-1.6543,0-3-1.3457-3-3s1.3457-3,3-3,3,1.3457,3,3-1.3457,3-3,3Z" fill="#000" stroke-width="0"/>
  <circle cx="32" cy="24.00045" r="1" fill="#000" stroke-width="0"/>
  <path d="M32,51.00045c-2.75684,0-5,2.24316-5,5,0,.34241.03516.67676.10107,1h9.79785c.06592-.32324.10107-.65759.10107-1,0-2.75684-2.24316-5-5-5Z" fill="#000" stroke-width="0"/>
</svg>