<?xml version="1.0" encoding="UTF-8"?>
<svg id="Glyph" xmlns="http://www.w3.org/2000/svg" version="1.1" viewBox="0 0 48 48">
  <path d="M42.83072,30.44c-.19-.28003-.5-.44-.83002-.44h-19.59003l-1.69995-1.71002c-.19-.17999-.44-.28998-.71002-.28998h-5v-5h1c.54999,0,1-.45001,1-1s-.45001-1-1-1h-1v-1c0-.54999-.45001-1-1-1s-1,.45001-1,1v1h-1c-.54999,0-1,.45001-1,1s.45001,1,1,1h1v5h-1c-.31,0-.60999.14996-.79999.39996l-2.70001,3.60004h-2.5c-.54999,0-1,.45001-1,1v4c0,.21997.07001.42999.20001.59998l3,4c.19.25.48999.40002.79999.40002h29c.40997,0,.78003-.25.92999-.63l1.75-4.37h-19.67999c-.54999,0-1-.45001-1-1s.45001-1,1-1h20.47998l1.45001-3.63c.12-.31.08002-.66003-.09998-.92999Z" fill="#000" stroke-width="0"/>
  <path d="M36.0007,22c-1.65002,0-3,1.34998-3,3v3h6v-3c0-.46002-.10999-.89001-.29999-1.28003l2.25-2.26001c.39001-.38995.39001-1.01996,0-1.40997s-1.02002-.39001-1.41003,0l-2.25995,2.25c-.39001-.19-.82001-.29999-1.28003-.29999Z" fill="#000" stroke-width="0"/>
  <rect x="19.0007" y="6" width="10" height="4" rx="1" ry="1" fill="#000" stroke-width="0"/>
  <path d="M17.0007,26h3c.79999,0,1.54999.31,2.12.88l1.12,1.12h7.76001v-4h-14v2Z" fill="#000" stroke-width="0"/>
  <path d="M11.0007,15h6.66998l2.82001,2.12-.40997,4.88h7.83997l-.40997-4.88,2.82001-2.12h6.66998c.54999,0,1-.45001,1-1s-.45001-1-1-1v-1c0-.54999-.45001-1-1-1s-1,.45001-1,1v1h-2v-1c0-.54999-.45001-1-1-1s-1,.45001-1,1v1h-1c-.21997,0-.42999.07001-.59998.20001l-2.08002,1.56-.22998-2.76001h-6.18005l-.22998,2.76001-2.08002-1.56c-.16998-.13-.38-.20001-.59998-.20001h-1v-1c0-.54999-.45001-1-1-1s-1,.45001-1,1v1h-2v-1c0-.54999-.45001-1-1-1s-1,.45001-1,1v1c-.54999,0-1,.45001-1,1s.45001,1,1,1Z" fill="#000" stroke-width="0"/>
</svg>