<?xml version="1.0" encoding="UTF-8"?>
<svg xmlns="http://www.w3.org/2000/svg" version="1.1" viewBox="0 0 64 64">
  <!-- Generator: Adobe Illustrator 28.7.1, SVG Export Plug-In . SVG Version: 1.2.0 Build 142)  -->
  <g>
    <g id="Glyph">
      <g>
        <path d="M49.68755,45.27441c-.38574-.36523-.99023-.36523-1.37598,0-.72021.68262-4.31201,4.21387-4.31201,6.72559,0,2.75684,2.24316,5,5,5s5-2.24316,5-5c0-2.51172-3.5918-6.04297-4.31201-6.72559Z"/>
        <path d="M38.06957,41.06c-.21002-.02002-5.04999-.58002-7.82001,2.19-.09003.08997-.16998.19-.25.27997v-2.52997c0-.54999-.45001-1-1-1-.19,0-.34998.07001-.51001.15997-.20996-.32001-.45996-.63-.73999-.90997-2.77002-2.77002-7.60999-2.21002-7.82001-2.19-.45001.06-.81.41998-.87.87-.02002.21002-.58002,5.04999,2.19,7.82001,1.95001,1.95001,4.92999,2.25,6.59003,2.25h.15997v8c0,.54999.45001,1,1,1s1-.45001,1-1v-4h.15997c1.66003,0,4.64001-.29999,6.59003-2.25,2.77002-2.77002,2.21002-7.60999,2.19-7.82001-.06-.45001-.41998-.81-.87-.87ZM27.99957,47.15997c-1.09998-1.56-2.57001-2.90997-4.27002-3.88-.47998-.27997-.63995-.88995-.37-1.37.28003-.47998.89001-.64001,1.37-.37,1.21002.69,2.30005,1.56,3.27002,2.53998v3.08002ZM34.26959,47.27997c-1.70001.97003-3.17004,2.32001-4.27002,3.88v-3.08002c.96997-.97998,2.06-1.84998,3.27002-2.53998.47998-.27002,1.08997-.10999,1.37.37.26996.48004.10999,1.09003-.37,1.37Z"/>
        <path d="M8.99957,10h-2v30h2c1.65997,0,3-1.34003,3-3V13c0-1.66003-1.34003-3-3-3Z"/>
        <path d="M13.99957,13v24c1.65997,0,3-1.34003,3-3v-18c0-1.66003-1.34003-3-3-3Z"/>
        <path d="M42.99957,37h12v-7c0-6.08002-4.91998-11-11-11h-2c0-1.10004-.90002-2-2-2h-12c-1.09998,0-2,.89996-2,2h-7v12h24v6Z"/>
        <rect x="30.99957" y="12" width="6" height="3"/>
        <path d="M25.49957,10h17c.82843,0,1.5-.67157,1.5-1.5s-.67157-1.5-1.5-1.5h-17c-.82843,0-1.5.67157-1.5,1.5s.67157,1.5,1.5,1.5Z"/>
        <path d="M54.99957,39h-12c-1.10455,0-2,.89539-2,2,0,1.10455.89545,2,2,2h12c1.10455,0,2-.89545,2-2,0-1.10461-.89545-2-2-2Z"/>
        <path d="M51.2564,11.55176c.47461-.28125,1.08838-.12793,1.37158.34473.2832.47461.12891,1.08887-.34521,1.37207-1.98474,1.18671-3.69666,2.81299-5.02643,4.70081.21472.01569.51794.03162.90045.03162,1.66309,0,4.6416-.30273,6.59131-2.25293,2.76855-2.76855,2.21631-7.61133,2.19141-7.81543-.05566-.45703-.41553-.81738-.87207-.87305-.2041-.02148-5.04785-.5752-7.81641,2.19238-2.14508,2.14508-2.29572,5.52643-2.24359,7.03955,1.43353-1.88879,3.21185-3.52155,5.24896-4.73975Z"/>
      </g>
    </g>
  </g>
</svg>