<?xml version="1.0" encoding="UTF-8"?>
<svg xmlns="http://www.w3.org/2000/svg" version="1.1" viewBox="0 0 48 48">
  <!-- Generator: Adobe Illustrator 28.7.1, SVG Export Plug-In . SVG Version: 1.2.0 Build 142)  -->
  <g>
    <g id="Glyph">
      <g>
        <path d="M13.6507,13.84473c.57109-.00006,1.04712-.48181,1.01597-1.05566-.04466-.815-.33882-4.94684-1.73588-6.32147-1.53715-1.51453-4.2185-1.51459-5.7557-.00006-1.56727,1.54419-1.56629,4.12378,0,5.66699,1.39706,1.37561,5.59375,1.66522,6.42094,1.70923.01833.00098.03617.00098.05468.00098Z"/>
        <path d="M40.82505,6.46759c-1.53715-1.51459-4.2185-1.51459-5.7557,0-1.397,1.37457-1.69116,5.50586-1.73588,6.32129-.03165.57635.44475,1.05585,1.01597,1.05585.01839,0,.03678,0,.05468-.00098.82719-.04401,5.02382-.33362,6.42094-1.70923,1.56678-1.54266,1.56641-4.12561,0-5.66693Z"/>
        <path d="M11.79007,26.18927l1.6137-1.58893c.79292-.78076,2.08466-.78076,2.87764,0l1.6137,1.58893,1.61364-1.58893c.79298-.78076,2.08472-.78076,2.87764,0l1.6137,1.58893,1.6137-1.58893c.79292-.78076,2.08466-.78076,2.87764,0l1.61364,1.58893,1.6137-1.58893c.79298-.78076,2.08472-.78076,2.87764,0l1.6137,1.58893.38543-.37939c-1.66868-5.64111-6.5105-10.71948-12.59543-10.71948s-10.92675,5.07837-12.59543,10.71948l.38543.37939Z"/>
        <path d="M21.96508,36.05841c0,1.10461.91266,2.00378,2.03499,2.00378s2.03499-.89917,2.03499-2.00378c0-.63892-.9564-2.13-2.03499-3.45868-1.07859,1.32867-2.03499,2.81976-2.03499,3.45868Z"/>
        <path d="M36.21007,28.19202c-.52118,0-1.04236-.19568-1.43879-.58606l-1.6137-1.58893-1.6137,1.58893c-.79292.78076-2.08472.78076-2.87764,0l-1.6137-1.58893-1.6137,1.58893c-.79292.78076-2.08466.78076-2.87758,0l-1.6137-1.58893-1.6137,1.58893c-.79292.78076-2.08472.78076-2.87764,0l-1.6137-1.58893-1.6137,1.58893c-.62033.61084-1.54332.73676-2.29653.39178-.09512.6618-.15976,1.32336-.15976,1.97772,0,7.18188,5.93373,13.02454,13.2275,13.02454s13.2275-5.84265,13.2275-13.02454c0-.6543-.06457-1.3158-.1597-1.97754-.27186.12463-.56352.19409-.8578.19409ZM14.84255,32.05084c-.56193,0-1.01749-.44855-1.01749-1.00189s.45557-1.00183,1.01749-1.00183c.56199,0,1.01749.44849,1.01749,1.00183s-.45551,1.00189-1.01749,1.00189ZM24.00007,40.06592c-2.24417,0-4.06998-1.7973-4.06998-4.00751,0-1.94507,2.75936-5.07202,3.3128-5.67865.38555-.42267,1.12881-.42267,1.51436,0,.55344.60663,3.3128,3.73358,3.3128,5.67865,0,2.21021-1.82581,4.00751-4.06998,4.00751ZM31.12259,35.05652c-.56199,0-1.01756-.44861-1.01756-1.00189,0-.55334.45557-1.00189,1.01756-1.00189.56193,0,1.01749.44855,1.01749,1.00189,0,.55328-.45557,1.00189-1.01749,1.00189Z"/>
        <path d="M20.31858,9.00751h7.36299s1.29797-2.55615,1.2987-2.55756c.32532-.64069-.16214-1.44995-.91022-1.44995h-8.13996c-.73476,0-1.248.78479-.91022,1.44995l1.2987,2.55756Z"/>
        <path d="M17.79332,14.68817c1.87218-1.0119,3.96826-1.60297,6.20675-1.60297s4.33457.59106,6.20675,1.60297c.54947-.36066.91571-.97174.91578-1.67303,0-1.10199-.9426-2.00385-2.03505-2.00385h-10.17495c-1.11927,0-2.03505.90167-2.03505,2.00378,0,.70129.36631,1.31244.91578,1.6731Z"/>
      </g>
    </g>
  </g>
</svg>