<?xml version="1.0" encoding="UTF-8"?>
<svg xmlns="http://www.w3.org/2000/svg" version="1.1" viewBox="0 0 48 48">
  <!-- Generator: Adobe Illustrator 28.7.1, SVG Export Plug-In . SVG Version: 1.2.0 Build 142)  -->
  <g>
    <g id="Glyph">
      <g>
        <path d="M33.14288,27.5h-8.28577c-.47339,0-.85712.44769-.85712,1v2c0,.55225.38373,1,.85712,1h8.28577c.47339,0,.85712-.44775.85712-1v-2c0-.55231-.38373-1-.85712-1Z"/>
        <polygon points="17 16.5 23 16.5 23 15.5 24 15.5 24 5.5 16 5.5 16 15.5 17 15.5 17 16.5"/>
        <path d="M14,15.5V5.51593c-2.56958.08508-4.74072,2.02197-4.97705,4.49628-.13428,1.40723.33105,2.81055,1.27637,3.85059.94629,1.04053,2.29492,1.63721,3.70068,1.63721Z"/>
        <path d="M30.97705,10.98779c.13379-1.40771-.33154-2.81104-1.27734-3.85107s-2.29443-1.63672-3.69971-1.63672v9.98407c2.56958-.08508,4.74072-2.02197,4.97705-4.49628Z"/>
        <rect x="5" y="18.5" width="38" height="3" rx="1" ry="1"/>
        <path d="M7,27.5c0,1.10455.89545,2,2,2h13v-1c0-1.65002,1.28003-3,2.85999-3h8.28003c1.57996,0,2.85999,1.34998,2.85999,3v1h2c1.10455,0,2-.89545,2-2v-4H7v4Z"/>
        <path d="M40,15.5c0-1.6543-1.3457-3-3-3s-3,1.3457-3,3v1h6v-1Z"/>
        <path d="M20,33.5c-.55225,0-1,.44775-1,1v1h-2.31677l1.09766-4h-8.06177l-2.68933,9.75732c-.07471.29883-.00732.61523.18213.85791s.47998.38477.78809.38477h6c.45898,0,.85889-.3125.97021-.75732l1.16425-4.24268h2.86554v1c0,.55225.44775,1,1,1s1-.44775,1-1v-4c0-.55225-.44775-1-1-1Z"/>
      </g>
    </g>
  </g>
</svg>