<?xml version="1.0" encoding="UTF-8"?>
<svg xmlns="http://www.w3.org/2000/svg" version="1.1" viewBox="0 0 64 64">
  <!-- Generator: Adobe Illustrator 28.7.1, SVG Export Plug-In . SVG Version: 1.2.0 Build 142)  -->
  <g>
    <g id="Glyph">
      <g>
        <path d="M18,13c0-.54999-.45001-1-1-1h-6c-.54999,0-1,.45001-1,1v1h8v-1Z"/>
        <path d="M36,13c0-.54999-.45001-1-1-1h-10c-.54999,0-1,.45001-1,1v1h12v-1Z"/>
        <rect x="13" y="32" width="20" height="10"/>
        <path d="M53,29.10107v-1.10107c0-.55225-.44775-1-1-1h-1v-8.58594l2.70703-2.70703c.39062-.39062.39062-1.02344,0-1.41406s-1.02344-.39062-1.41406,0l-3,3c-.1875.1875-.29297.44189-.29297.70703v9h-1c-.55225,0-1,.44775-1,1v10c0,.55225.44775,1,1,1h1v4.5c0,1.37842-1.12158,2.5-2.5,2.5s-2.5-1.12158-2.5-2.5v-19c0-2.48145-2.01855-4.5-4.5-4.5h-.5v-1c0-1.6543-1.3457-3-3-3H10c-1.6543,0-3,1.3457-3,3v32c0,.55225.44775,1,1,1h5.3335c.33447,0,.64648-.16699.83203-.44531l2.36963-3.55469h12.92969l2.36963,3.55469c.18555.27832.49756.44531.83203.44531h5.3335c.55225,0,1-.44775,1-1v-29h.5c1.37842,0,2.5,1.12158,2.5,2.5v19c0,2.48145,2.01855,4.5,4.5,4.5s4.5-2.01855,4.5-4.5v-4.5h1c.55225,0,1-.44775,1-1v-6.81573c1.1615.41412,2,1.51379,2,2.81573v4c0,.55225.44775,1,1,1s1-.44775,1-1v-4c0-2.41443-1.7207-4.43427-4-4.89893ZM27,21c0-.55225.44775-1,1-1s1,.44775,1,1v6c0,.55225-.44775,1-1,1s-1-.44775-1-1v-6ZM23,21c0-.55225.44775-1,1-1s1,.44775,1,1v6c0,.55225-.44775,1-1,1s-1-.44775-1-1v-6ZM19,21c0-.55225.44775-1,1-1s1,.44775,1,1v6c0,.55225-.44775,1-1,1s-1-.44775-1-1v-6ZM15,21c0-.55225.44775-1,1-1s1,.44775,1,1v6c0,.55225-.44775,1-1,1s-1-.44775-1-1v-6ZM35,43c0,.55225-.44775,1-1,1H12c-.55225,0-1-.44775-1-1v-12c0-.55225.44775-1,1-1h22c.55225,0,1,.44775,1,1v12Z"/>
      </g>
    </g>
  </g>
</svg>