<?xml version="1.0" encoding="UTF-8"?>
<svg xmlns="http://www.w3.org/2000/svg" version="1.1" viewBox="0 0 48 48">
  <!-- Generator: Adobe Illustrator 28.7.1, SVG Export Plug-In . SVG Version: 1.2.0 Build 142)  -->
  <g>
    <g id="Glyph">
      <g>
        <path d="M37.41406,39.59565c-.75586.74878-2.07227.74878-2.82812,0l-1.58594-1.57061-1.58594,1.57061c-.7793.77297-2.04883.77297-2.82812,0l-1.58594-1.57061-1.58594,1.57061c-.7793.77297-2.04883.77297-2.82812,0l-1.58594-1.57061-1.58594,1.57061c-.7793.77297-2.04883.77297-2.82812,0l-1.58594-1.57061-1.58594,1.57061c-.75586.74878-2.07227.74878-2.82812,0l-1.70752-1.69105-3.87122,3.34407c.03864.97105.91425,1.75133,1.9928,1.75133h34c1.10303,0,2-.81457,2-1.81621v-.02908l-3.87744-3.25156-1.7085,1.6925Z"/>
        <path d="M41,30.28678h-2c-.11865,0-.23584.01911-.34717.05635-.48975.16579-1.0166.10376-1.44678-.16676-.43115-.27136-.67969-.69969-.68213-1.17541-.00635-1.34931.19775-2.69015.60791-3.9871l.83008-2.65152c.11621-.37113-.03857-.76886-.38623-.991s-.81201-.22039-1.15771.00441c-3.62207,2.35403-6.11963,5.82495-7.03226,9.77448-.06419.27713-.33196.19524-.50778.10052-1.21582-.65271-2.75977-.61498-3.93262.09668-.57422.34761-1.31641.34761-1.89062,0-1.24805-.75555-2.86133-.75555-4.10938,0-.57422.34761-1.31641.34761-1.89062,0-1.24805-.75555-2.86133-.75555-4.10938,0-.57422.34761-1.31641.34761-1.89062,0l-1.5-.9081c-.16406-.09934-.35742-.15255-.55469-.15255h-2c-1.10303,0-2,.81457-2,1.81621v6.52295l2.66064-2.29823c.03223-.02757.06641-.05369.10205-.07691.79053-.52289,1.85303-.41938,2.52441.24766l1.71289,1.69637,1.58594-1.57061c.7793-.77297,2.04883-.77297,2.82812,0l1.58594,1.57061,1.58594-1.57061c.7793-.77297,2.04883-.77297,2.82812,0l1.58594,1.57061,1.58594-1.57061c.7793-.77297,2.04883-.77297,2.82812,0l1.58594,1.57061,1.58594-1.57061c.7793-.77297,2.04883-.77297,2.82812,0l1.58594,1.57061,1.71338-1.69685c.67139-.66704,1.7334-.77007,2.52393-.24718.03174.0208.06201.04353.09082.06772l2.67188,2.2406v-6.45614c0-1.00164-.89697-1.81621-2-1.81621Z"/>
        <path d="M9,28.30967c.57001,0,1.12.14862,1.59998.43588l.40002.24766v-2.19919h10v2.00105c1.06,0,2.09998.27741,3,.80241.90002-.51509,1.92999-.7925,3-.7925V11.93446c0-.54484.45001-.99064,1-.99064s1,.4458,1,.99064v1.98128c0,.54484.45001.99064,1,.99064h4c.54999,0,1-.4458,1-.99064v-1.98128c0-3.82385-3.14001-6.93446-7-6.93446s-7,3.11062-7,6.93446v4.95319h-10v-4.95319c0-.54484.45001-.99064,1-.99064s1,.4458,1,.99064v1.98128c0,.54484.45001.99064,1,.99064h4c.54999,0,1-.4458,1-.99064v-1.98128c0-3.82385-3.14001-6.93446-7-6.93446s-7,3.11062-7,6.93446v16.89036c.59003-.32693,1.27002-.51515,2-.51515h2ZM11,18.86893h10v1.98128h-10v-1.98128ZM11,22.83148h10v1.98128h-10v-1.98128Z"/>
      </g>
    </g>
  </g>
</svg>