<?xml version="1.0" encoding="UTF-8"?>
<svg xmlns="http://www.w3.org/2000/svg" version="1.1" viewBox="0 0 64 64">
  <!-- Generator: Adobe Illustrator 28.7.1, SVG Export Plug-In . SVG Version: 1.2.0 Build 142)  -->
  <g>
    <g id="Glyph">
      <g>
        <path d="M35.80273,37.74188c-1.21521.16284-2.48895.25812-3.80273.25812s-2.58752-.09528-3.80273-.25812c-.12573,1.02148-.19727,2.11243-.19727,3.25812s.07153,2.23663.19727,3.25812c1.21521-.16284,2.48895-.25812,3.80273-.25812s2.58752.09528,3.80273.25812c.12573-1.02148.19727-2.11243.19727-3.25812s-.07153-2.23663-.19727-3.25812Z"/>
        <path d="M32,46c-1.19574,0-2.362.08649-3.47369.23303.74463,3.49524,2.16205,5.76697,3.47369,5.76697s2.72906-2.27173,3.47369-5.76697c-1.11169-.14655-2.27795-.23303-3.47369-.23303Z"/>
        <path d="M32,36c1.19574,0,2.362-.08649,3.47369-.23303-.74463-3.49524-2.16205-5.76697-3.47369-5.76697s-2.72906,2.27173-3.47369,5.76697c1.11169.14655,2.27795.23303,3.47369.23303Z"/>
        <path d="M26,41c0-1.26123.08008-2.46393.22089-3.60107-1.52588-.33386-2.89978-.79376-4.01953-1.37213-.76227,1.49567-1.20135,3.18256-1.20135,4.97321s.43909,3.47754,1.20135,4.97321c1.11975-.57837,2.49365-1.03827,4.01953-1.37213-.14081-1.13715-.22089-2.33984-.22089-3.60107Z"/>
        <path d="M37.77911,37.39893c.14081,1.13715.22089,2.33984.22089,3.60107s-.08008,2.46393-.22089,3.60107c1.52588.33386,2.89978.79376,4.01953,1.37213.76227-1.49567,1.20135-3.18256,1.20135-4.97321s-.43909-3.47754-1.20135-4.97321c-1.11975.57837-2.49365,1.03827-4.01953,1.37213Z"/>
        <rect x="45" y="7" width="4" height="4"/>
        <path d="M12,11c.26562,0,.51953.10547.70703.29297l1.70703,1.70703h3.17188l1.70703-1.70703c.1875-.1875.44141-.29297.70703-.29297h23v-4H10c-1.6543,0-3,1.3457-3,3v1h5Z"/>
        <path d="M51,11h6v-1c0-1.6543-1.3457-3-3-3h-3v4Z"/>
        <path d="M37.45398,46.57336c-.39563,1.90051-.99158,3.52533-1.73956,4.76733,2.00366-.72217,3.7356-2.00604,5.00909-3.6665-.91016-.44977-2.02313-.82239-3.26953-1.10083Z"/>
        <path d="M37.45398,35.42664c1.2464-.27844,2.35938-.65106,3.26953-1.10083-1.2735-1.66046-3.00543-2.94434-5.00909-3.6665.74799,1.242,1.34393,2.86682,1.73956,4.76733Z"/>
        <path d="M20.41406,13l-1.70703,1.70703c-.1875.1875-.44141.29297-.70703.29297h-4c-.26562,0-.51953-.10547-.70703-.29297l-1.70703-1.70703h-4.58594v41c0,1.6543,1.3457,3,3,3h44c1.6543,0,3-1.3457,3-3V13H20.41406ZM28.83594,18.01367c.54297-.08887,1.06055.27734,1.15039.82178l.58398,3.50586.59766-.896c.37109-.55664,1.29297-.55664,1.66406,0l.59766.896.58398-3.50586c.08984-.54443.60645-.91162,1.15039-.82178.54492.09082.91309.60596.82227,1.15088l-.99999,5.99997c-.07664.45985-.51995.83548-.98633.83548-.33008,0-.64453-.16357-.83203-.44531l-1.16797-1.75195-1.16797,1.75195c-.22656.34082-.6377.50879-1.04199.42285-.40137-.08594-.70898-.4082-.77637-.81299l-1-6c-.09082-.54492.27734-1.06006.82227-1.15088ZM18.83594,18.01367c.54688-.08887,1.06055.27734,1.15039.82178l.58398,3.50586.59766-.896c.37109-.55664,1.29297-.55664,1.66406,0l.59766.896.58398-3.50586c.09082-.54443.60547-.91162,1.15039-.82178.54492.09082.91309.60596.82227,1.15088l-1,6c-.07731.46384-.49874.83545-.98633.83545-.33008,0-.64453-.16357-.83203-.44531l-1.16797-1.75195-1.16797,1.75195c-.22754.34082-.6377.50879-1.04199.42285-.40137-.08594-.70898-.4082-.77637-.81299l-1-6c-.09082-.54492.27734-1.06006.82227-1.15088ZM43.02148,47.9165c-.03241.04816-.07269.08704-.11145.12775-2.31836,3.57812-6.33844,5.95575-10.91003,5.95575-4.58997,0-8.62292-2.39746-10.93677-5.99969-.02643-.03058-.06165-.04944-.08472-.0838-.03607-.05389-.04669-.11481-.07111-.17236-1.2019-1.96924-1.90741-4.27307-1.90741-6.74414s.70551-4.7749,1.90741-6.74414c.02441-.05756.03503-.11847.07111-.17236.02313-.03455.05841-.05347.0849-.08411,2.3139-3.60205,6.34674-5.99939,10.93658-5.99939s8.62292,2.39746,10.93677,5.99969c.02643.03058.06158.04944.08472.0838.03607.05389.04669.11481.07111.17236,1.2019,1.96924,1.90741,4.27307,1.90741,6.74414s-.70551,4.7749-1.90741,6.74414c-.02441.05756-.03503.11847-.07111.17236ZM44.98633,25.16455c-.07939.47628-.50523.83545-.98633.83545-.33008,0-.64453-.16357-.83203-.44531l-1.16797-1.75195-1.16797,1.75195c-.22656.34082-.63574.50879-1.04199.42285-.40137-.08594-.70898-.4082-.77637-.81299l-1-6c-.09082-.54492.27734-1.06006.82227-1.15088.54395-.08887,1.06055.27734,1.15039.82178l.58398,3.50586.59766-.896c.37109-.55664,1.29297-.55664,1.66406,0l.59766.896.58398-3.50586c.08984-.54443.60645-.91162,1.15039-.82178.54492.09082.91309.60596.82227,1.15088,0,0-.99798,5.98787-1,6Z"/>
        <path d="M26.54602,46.57336c-1.2464.27844-2.35938.65106-3.26953,1.10083,1.2735,1.66046,3.00543,2.94434,5.00909,3.6665-.74799-1.242-1.34393-2.86682-1.73956-4.76733Z"/>
        <path d="M26.54602,35.42664c.39563-1.90051.99158-3.52533,1.73956-4.76733-2.00366.72217-3.7356,2.00604-5.00909,3.6665.91016.44977,2.02313.82239,3.26953,1.10083Z"/>
      </g>
    </g>
  </g>
</svg>