<?xml version="1.0" encoding="UTF-8"?>
<svg xmlns="http://www.w3.org/2000/svg" version="1.1" viewBox="0 0 64 64">
  <!-- Generator: Adobe Illustrator 28.7.1, SVG Export Plug-In . SVG Version: 1.2.0 Build 142)  -->
  <g>
    <g id="Glyph">
      <g>
        <path d="M33,23.05902v2.01959c3.06018.44061,5.48895,2.86108,5.92871,5.92139h2.01233c-.46295-4.16467-3.77679-7.47809-7.94104-7.94098Z"/>
        <circle cx="32" cy="32" r="1"/>
        <path d="M23.05896,31h2.01233c.43976-3.0603,2.86853-5.48077,5.92871-5.92139v-2.01959c-4.16425.46289-7.47809,3.77631-7.94104,7.94098Z"/>
        <path d="M31,21.05066v-1.05066c0-.55273.44775-1,1-1s1,.44727,1,1v1.05066c5.26801.4776,9.47174,4.68134,9.94934,9.94934h4.01794c-.23682-3.62891-1.7627-7.01172-4.35596-9.61426-2.83691-2.82715-6.60645-4.38574-10.61133-4.38574-7.93506,0-14.4502,6.19336-14.9668,14h4.01746c.4776-5.26801,4.68134-9.47174,9.94934-9.94934Z"/>
        <path d="M54,7H10c-1.65002,0-3,1.34998-3,3v44c0,1.64996,1.34998,3,3,3h44c1.65002,0,3-1.35004,3-3V10c0-1.65002-1.34998-3-3-3ZM53,52c0,.54999-.45001,1-1,1H12c-.54999,0-1-.45001-1-1V12c0-.54999.45001-1,1-1h40c.54999,0,1,.45001,1,1v40Z"/>
        <path d="M13,13v38h38V13H13ZM30.71002,46.28998c.38995.39001.38995,1.03003-.00005,1.42003-.38263.38257-1.0363.38533-1.42-.00005l-2.28998-2.29999v1.59003c0,.54999-.45001,1-1,1s-1-.45001-1-1v-8c0-.54999.45001-1,1-1s1,.45001,1,1v1.58997l2.28998-2.29999c.39001-.39001,1.03003-.39001,1.42004,0,.38995.39001.38995,1.03003,0,1.41998l-3.30005,3.29004,3.30005,3.28998ZM36,46c.54999,0,1-.45001,1-1-.54999,0-1-.45001-1-1s.45001-1,1-1h1c.54999,0,1,.45001,1,1v1c0,1.64996-1.34998,3-3,3s-3-1.35004-3-3v-4c0-1.65002,1.34998-3,3-3s3,1.34998,3,3c0,.54999-.45001,1-1,1s-1-.45001-1-1-.45001-1-1-1-1,.45001-1,1v4c0,.54999.45001,1,1,1ZM48,33h-10c-.54999,0-1-.45001-1-1,0-2.41003-1.71997-4.42999-4-4.90002v2.08002c1.15997.41998,2,1.52002,2,2.82001,0,1.64996-1.34998,3-3,3s-3-1.35004-3-3c0-1.29999.84003-2.40002,2-2.82001v-2.08002c-2.28003.47003-4,2.48999-4,4.90002,0,.54999-.45001,1-1,1h-10c-.54999,0-1-.45001-1-1,0-9.37,7.63-17,17-17,4.53998,0,8.81,1.76996,12.03003,4.96997,3.19995,3.22003,4.96997,7.48999,4.96997,12.03003,0,.54999-.45001,1-1,1Z"/>
      </g>
    </g>
  </g>
</svg>