<?xml version="1.0" encoding="UTF-8"?>
<svg id="Glyph" xmlns="http://www.w3.org/2000/svg" version="1.1" viewBox="0 0 64 64">
  <circle cx="44" cy="26" r="1" fill="#000" stroke-width="0"/>
  <path d="M44,7c-7.16797,0-13,5.83154-13,13s5.83203,13,13,13,13-5.83154,13-13-5.83203-13-13-13ZM47.91943,19.39355l-1.88934,4.41156c.59259.54834.96991,1.32568.96991,2.19489,0,1.6543-1.3457,3-3,3s-3-1.3457-3-3,1.3457-3,3-3c.06531,0,.1264.01514.19067.01929l1.88989-4.41284c.21729-.50879.80518-.74707,1.31299-.52539.50781.2168.74316.80469.52588,1.3125ZM52,21h-2c-.55225,0-1-.44727-1-1s.44775-1,1-1h.92871c-.1701-1.18384-.64264-2.26898-1.32904-3.18506l-.64947.6499c-.37019.37044-1.02078.39378-1.41455,0-.39062-.38965-.39062-1.02344-.00049-1.41406l.6524-.65283c-.91559-.68616-2.00433-1.14899-3.18756-1.31934v.92139c0,.55273-.44775,1-1,1s-1-.44727-1-1v-.92139c-1.18323.17035-2.27197.63318-3.18756,1.31934l.6524.65283c.39013.39061.39014,1.02438-.00046,1.41403-.37171.37081-1.01801.3966-1.41458.00003l-.64948-.6499c-.6864.91608-1.15894,2.00122-1.32904,3.18506h.92871c.55225,0,1,.44727,1,1s-.44775,1-1,1h-2c-.55225,0-1-.44727-1-1,0-4.96289,4.0376-9,9-9s9,4.03711,9,9c0,.55273-.44775,1-1,1Z" fill="#000" stroke-width="0"/>
  <polygon points="19 45.7207 7 41.72095 7 43.61267 19 47.61279 19 45.7207" fill="#000" stroke-width="0"/>
  <polygon points="37 47.61279 49 43.61267 49 41.72095 37 45.7207 37 47.61279" fill="#000" stroke-width="0"/>
  <path d="M29.01001,20.29999l-.67999-.23999c-.21002-.08002-.45001-.08002-.66003,0l-19.66455,6.88257,19.99457,6.99786,6.55707-2.29486c-3.31592-2.69434-5.46271-6.77319-5.54706-11.34558Z" fill="#000" stroke-width="0"/>
  <path d="M7,35.61261l13.31641,4.43866c.52344.1748.80664.74115.63184,1.26508-.16608.49786-.73975.80731-1.26465.63239l-12.68359-4.22772v1.8916l13.31641,4.43866c.4082.13623.68359.51807.68359.94873v3.99988c0,.67041-.68701,1.15668-1.31641.94885l-12.68359-4.22772v3.27899c0,.41998.27002.79999.66998.94l19.33002,7.06v-21.29065l-20-6.99988v6.90314Z" fill="#000" stroke-width="0"/>
  <path d="M36.62225,33.04163l-7.62225,2.66772v21.29065l19.33002-7.06c.39996-.14001.66998-.52002.66998-.94v-3.27899s-12.68359,4.22772-12.68365,4.22772c-.63953.21112-1.31635-.27155-1.31635-.94873v-4c0-.43066.27539-.8125.68359-.94873l13.31641-4.43866v-1.8916s-12.63641,4.21198-12.68347,4.22766c-.49579.16528-1.08893-.10474-1.26477-.63226-.1748-.52393.1084-1.09033.63184-1.26514l13.31641-4.43866v-1.4726c-1.56.56-3.23999.85999-5,.85999-2.68256,0-5.19629-.71912-7.37775-1.95837Z" fill="#000" stroke-width="0"/>
</svg>