<?xml version="1.0" encoding="utf-8"?>
<!-- Generator: Adobe Illustrator 27.3.1, SVG Export Plug-In . SVG Version: 6.00 Build 0)  -->
<svg version="1.1" id="Glyph" xmlns="http://www.w3.org/2000/svg" xmlns:xlink="http://www.w3.org/1999/xlink" x="0px" y="0px"
	 viewBox="0 0 48 48" enable-background="new 0 0 48 48" xml:space="preserve">
<g>
	<path d="M20.98368,9h6.03278c1.30906,0,2.41473,0.8385,2.83112,2h7.64598l-0.27223-3.24902C37.0927,6.20898,35.77205,5,34.21574,5
		H13.78489c-1.55631,0-2.87696,1.20801-3.00608,2.75098L10.50658,11h7.64598C18.56895,9.8385,19.67463,9,20.98368,9z"/>
	<path d="M20.98368,11c-0.55428,0-1.00546,0.44824-1.00546,1s0.45118,1,1.00546,1h6.03278c0.55477,0,1.00546-0.44824,1.00546-1
		s-0.45069-1-1.00546-1H20.98368z"/>
	<path d="M15.78158,32.96289L32.24606,33l-8.26808-14.50684L15.78158,32.96289z M24.00007,31c-0.55532,0-1.00546-0.44775-1.00546-1
		c0-0.55231,0.45014-1,1.00546-1s1.00546,0.44769,1.00546,1C25.00554,30.55225,24.5554,31,24.00007,31z M25.00554,23v3
		c0,0.55273-0.4502,1-1.00546,1s-1.00546-0.44727-1.00546-1v-3c0-0.55273,0.4502-1,1.00546-1S25.00554,22.44727,25.00554,23z"/>
	<path d="M37.6611,13h-7.81352c-0.41639,1.1615-1.52206,2-2.83112,2h-6.03278c-1.30905,0-2.41467-0.8385-2.83106-2h-7.81358
		L8.00691,40.83398c-0.04664,0.55566,0.14434,1.10938,0.52384,1.51953C8.91026,42.76465,9.44981,43,10.01097,43h2.30746
		c0.76686,0,1.45616-0.42383,1.79884-1.10547L15.57244,39h16.85527l1.45517,2.89355C34.22458,42.57617,34.91387,43,35.68172,43
		h2.30746c0.56067,0,1.09973-0.23535,1.47874-0.64453c0.37999-0.41016,0.57146-0.96484,0.52531-1.52148L37.6611,13z
		 M33.99973,33.96973C33.64526,34.60547,32.9707,35,32.24016,35H15.75949c-0.73053,0-1.40411-0.39453-1.75858-1.03027
		c-0.35447-0.63574-0.33385-1.41309,0.05302-2.0293l8.21849-14.43359c0.39178-0.625,1.02952-0.97754,1.72765-0.97754
		s1.33538,0.35254,1.70556,0.94141l8.26267,14.50586C34.33357,32.55664,34.35321,33.33398,33.99973,33.96973z"/>
</g>
</svg>
