<?xml version="1.0" encoding="UTF-8"?>
<svg xmlns="http://www.w3.org/2000/svg" version="1.1" viewBox="0 0 64 64">
  <!-- Generator: Adobe Illustrator 28.7.1, SVG Export Plug-In . SVG Version: 1.2.0 Build 142)  -->
  <g>
    <g id="Glyph">
      <g>
        <path d="M12.94588,13h2c.55273,0,1-.44775,1-1s-.44727-1-1-1h-2c-.55273,0-1,.44775-1,1s.44727,1,1,1Z"/>
        <path d="M37.00588,29.94c-.52002,0-1.02997-.07001-1.51001-.19l-.87.62c-.39996.28998-.79999.54999-1.21997.78998v.01001l-1.41003,12.22998h.15002c.98999,0,1.95996.23004,2.83997.65002,1.19-1.84998,3.26001-3.04999,5.56-3.04999.41003,0,.81.03998,1.21002.10999l-1.15002-9.95001c-.41998-.23999-.81995-.5-1.21997-.78998l-.87-.62c-.47998.12-.98999.19-1.51001.19Z"/>
        <path d="M37.00588,20.06c-2.16998,0-3.94,1.76996-3.94,3.94s1.77002,3.94,3.94,3.94,3.94-1.77002,3.94-3.94-1.77002-3.94-3.94-3.94ZM37.00588,25c-.54999,0-1-.45001-1-1s.45001-1,1-1,1,.45001,1,1-.45001,1-1,1Z"/>
        <path d="M37.00588,18.06c1.41998,0,2.72003.5,3.75,1.33997.72003-3.16998.42999-6.52997-.85999-9.53998l-.58002-1.33002c-.40002-.92999-1.29993-1.52997-2.30994-1.52997-1.72852-.00006-2.30573,1.50989-2.89008,2.87-1.28998,3-1.57996,6.35999-.85999,9.52002,1.03003-.83002,2.33002-1.33002,3.75-1.33002Z"/>
        <path d="M26.20589,31.57001c2.64001-.32001,5.12-1.29004,7.25-2.82001-1.45001-1.07001-2.39001-2.79999-2.39001-4.75,0-1.17999.34998-2.28003.95001-3.20001l-.03998.01001c-3.46002.85999-6.53003,2.90997-8.65002,5.76001l-.89001,1.16998c-.58997.79999-.64996,1.87994-.14996,2.76996.57294,1.01996,1.49847,1.22424,2.47925,1.19714.47864-.01324.97034-.0816,1.44073-.13708Z"/>
        <path d="M51.56587,27.72998l-.88-1.15997c-2.12-2.85004-5.19-4.90002-8.66998-5.77002.58997.91998.92999,2.02002.92999,3.20001,0,1.95001-.94,3.67999-2.39001,4.75,2.13,1.52997,4.60999,2.5,7.25,2.82001,0,0,1.44952.16992,1.45001.16998,2.12042.24854,3.61475-2.24854,2.31-4.01001Z"/>
        <path d="M45.14119,47.80469c.00293-.06836.00488-.13672.00488-.20459,0-1.62695-.875-3.14844-2.2793-3.96875-.69922-.41309-1.50195-.63135-2.32129-.63135-2.22656,0-4.08789,1.58984-4.50977,3.69434-.18555.03857-.36816.08936-.54785.15234-.85938-.91797-2.05762-1.44678-3.3418-1.44678-1.69434,0-3.23535.94775-4.03027,2.41992-2.33594.21729-4.16992,2.18848-4.16992,4.58008,0,2.53662,2.06348,4.6001,4.59961,4.6001h16.80078c2.53613,0,4.59961-2.06348,4.59961-4.6001,0-2.60498-2.19238-4.72119-4.80469-4.59521Z"/>
        <path d="M31.94588,10c0-1.6543-1.3457-3-3-3h-4c-.55273,0-1,.44775-1,1s.44727,1,1,1h4c.55176,0,1,.44873,1,1s-.44824,1-1,1h-10c-.55273,0-1,.44775-1,1s.44727,1,1,1h10c1.6543,0,3-1.3457,3-3Z"/>
        <path d="M27.94588,18c0,.55127-.44824,1-1,1h-2c-.55273,0-1,.44775-1,1s.44727,1,1,1h2c1.6543,0,3-1.3457,3-3s-1.3457-3-3-3h-6c-.55273,0-1,.44775-1,1s.44727,1,1,1h6c.55176,0,1,.44873,1,1Z"/>
        <path d="M16.94588,15h-4c-.55273,0-1,.44775-1,1s.44727,1,1,1h4c.55273,0,1-.44775,1-1s-.44727-1-1-1Z"/>
      </g>
    </g>
  </g>
</svg>