<?xml version="1.0" encoding="UTF-8"?>
<svg xmlns="http://www.w3.org/2000/svg" version="1.1" viewBox="0 0 64 64">
  <!-- Generator: Adobe Illustrator 28.7.1, SVG Export Plug-In . SVG Version: 1.2.0 Build 142)  -->
  <g>
    <g id="Glyph">
      <g>
        <path d="M32,42.49077c1.90002,0,3.66998.76001,4.96997,2.07996.17004-.01996.35004-.03998.53003-.04999l-.85999-6.89996v-.01001l-5-4.98999-.5.98999c-.25.51001-.64001.94-1.13,1.22998l-1.21002.72998-1.27997.77002-1.02002,8.17999c.17999.01001.35999.03003.53003.04999,1.29999-1.31995,3.06995-2.07996,4.96997-2.07996Z"/>
        <path d="M41.90002,20.25078c-.69-2.57001-2.44-4.60004-4.82001-5.63l-2.04999,1.22998c-.17004.09998-.30005.23999-.38.40997l-.75,1.49005c1.13995.31995,2.19.92999,3.04999,1.78998,1.06,1.06,1.70001,2.37,1.94,3.72998l3.01001-3.01996Z"/>
        <path d="M43.49445,18.65483l5.47235-5.47705c.39062-.39062.39062-1.02393,0-1.41406l-2.12012-2.12012c-.32422-.32568-.82812-.38623-1.22168-.15039l-6.52875,3.9176c2.0188,1.20453,3.56421,3.03741,4.39819,5.24402Z"/>
        <path d="M22.13,19.41075l1.22998,2.04999c.10004.17004.23999.29999.41003.38l1.5.75c.29999-1.12.89996-2.16998,1.77997-3.04999,1.03003-1.03003,2.32001-1.70001,3.72003-1.94l-3.01001-3.01001c-2.57001.67999-4.60004,2.44-5.63,4.82001Z"/>
        <path d="M20.9198,17.39415c1.20483-2.01849,3.03827-3.56403,5.2453-4.39783l-5.4776-5.47284c-.39062-.38965-1.02343-.39014-1.41406.00049l-2.12012,2.11963c-.32422.32422-.38672.82812-.15039,1.22168l3.91687,6.52887Z"/>
        <path d="M15.0332,37.21782l2.12012,2.12012c.19238.19287.44922.29297.70703.29297.17676,0,.35449-.04688.51465-.14258l6.52875-3.9176c-2.01886-1.20453-3.56421-3.03741-4.39819-5.24402l-5.47235,5.47705c-.39062.39062-.39062,1.02393,0,1.41406Z"/>
        <path d="M28.96997,33.13079c.17004-.10004.30005-.24005.38-.41003l.75-1.48999c-1.13995-.32001-2.19-.92999-3.04999-1.78998-1.06-1.06-1.70001-2.37006-1.94-3.73004l-3.01001,3.02002c.69,2.57001,2.44,4.59998,4.82001,5.63l2.04999-1.22998Z"/>
        <path d="M41.87,29.57073l-1.22998-2.04999c-.10004-.16998-.23999-.29999-.41003-.38l-1.5-.75c-.29999,1.12-.89996,2.17004-1.77997,3.05005-1.03003,1.02997-2.32001,1.69995-3.72003,1.94l3.01001,3.00995c2.57001-.67999,4.60004-2.44,5.63-4.82001Z"/>
        <path d="M44.01953,41.75054c.25586,0,.51172-.09766.70703-.29297l2.12012-2.11963c.32422-.32422.38672-.82812.15039-1.22168l-3.91687-6.52887c-1.20483,2.01849-3.03827,3.56403-5.2453,4.39783l5.47759,5.47284c.19532.19482.45118.29248.70704.29248Z"/>
        <path d="M26.35449,9.51567c4.16895-1.58252,9.10156-1.29297,13.06839.79933.48402.25464,1.09589.06714,1.35153-.4175.25781-.48877.07031-1.09326-.41797-1.35107-4.46875-2.35791-10.0127-2.68359-14.71094-.90088-.5166.19629-.77637.77344-.58008,1.29004s.77734.77539,1.28906.58008Z"/>
        <path d="M16.08985,31.49565c.68819,0,1.17668-.72155.93457-1.35986-.67969-1.79102-1.02441-3.69043-1.02441-5.64502,0-2.59424.63086-5.16113,1.8252-7.42334.25781-.48828.07031-1.09326-.41797-1.35107-.4873-.25781-1.09277-.07031-1.35156.41748-1.34473,2.54883-2.05566,5.43848-2.05566,8.35693,0,2.17188.37891,4.28467,1.12793,6.28223.11814.41839.50378.72256.96192.72266Z"/>
        <path d="M47.94434,32.8477c1.34473-2.54883,2.05566-5.43848,2.05566-8.35693,0-2.17188-.37891-4.28467-1.12793-6.28223-.11816-.41846-.50391-.72266-.96191-.72266-.55273,0-1,.45264-1,1.00488,0,.12109.02246.2417.06543.35498.67969,1.79102,1.02441,3.69043,1.02441,5.64502,0,2.59424-.63086,5.16113-1.8252,7.42334-.25779.48824-.07034,1.09317.41785,1.35101.46166.24383,1.09229.07246,1.35168-.41742Z"/>
        <path d="M19.78613,19.91948c-.53906-.15527-1.08496.15527-1.2373.68555-.36426,1.26807-.54883,2.57568-.54883,3.88574,0,1.02979.10938,2.04199.32324,3.00732.10448.46578.51751.78266.97548.78271.62913.00007,1.11541-.59993.97765-1.21729-.18359-.82275-.27637-1.68848-.27637-2.57275,0-1.12354.1582-2.24512.4707-3.33398.15234-.53076-.1543-1.08447-.68457-1.2373Z"/>
        <path d="M44.21387,29.06206c.50328.14505,1.0823-.14606,1.2373-.68555.36426-1.26807.54883-2.57568.54883-3.88574,0-1.02979-.10938-2.04199-.32324-3.00732-.12109-.53955-.66309-.87695-1.19336-.75879-.53906.11963-.87891.6543-.75977,1.19336.18359.82275.27637,1.68848.27637,2.57275,0,1.12354-.1582,2.24512-.4707,3.33398-.15234.53075.15428,1.08445.68457,1.2373Z"/>
        <path d="M35.88574,11.03911c-2.26855-.64893-4.69238-.71338-6.89258-.22461-.53906.11963-.87891.65332-.75977,1.19238.11914.53857.64648.8833,1.19336.75977,1.875-.41699,3.95996-.36328,5.90839.19537.52433.1505,1.0853-.16054,1.23615-.68609.15234-.53076-.1543-1.08447-.68555-1.23682Z"/>
        <path d="M48.58887,49.51079c-.77637-1.7959-2.57422-3.02002-4.58887-3.02002-1.08887,0-2.13965.3623-3,1.0166-1.34961-1.02637-3.23242-1.28516-4.79102-.68604-.89941-1.42773-2.47852-2.33057-4.20898-2.33057s-3.30957.90283-4.20898,2.33057c-1.55664-.59912-3.43945-.34033-4.79102.68604-.86035-.6543-1.91113-1.0166-3-1.0166-2.01465,0-3.8125,1.22412-4.58887,3.02002-2.93262-.28125-5.41113,2.08691-5.41113,4.97998,0,.87012.2334,1.73438.67383,2.49902.17871.31006.50879.50098.86621.50098h40.91992c.35742,0,.6875-.19092.86621-.50098.44043-.76465.67383-1.62891.67383-2.49902,0-2.89307-2.46875-5.26074-5.41113-4.97998Z"/>
        <path d="M32,19.49077c-1.34003,0-2.59003.51996-3.53998,1.45996-1.94,1.95001-1.94,5.13,0,7.08002.94995.94,2.19995,1.46002,3.53998,1.46002s2.59003-.52002,3.53998-1.46002c1.94-1.95001,1.94-5.13,0-7.08002-.94995-.94-2.19995-1.45996-3.53998-1.45996ZM32,25.49077c-.54999,0-1-.45001-1-1s.45001-1,1-1,1,.45001,1,1-.45001,1-1,1Z"/>
      </g>
    </g>
  </g>
</svg>