<?xml version="1.0" encoding="UTF-8"?>
<svg xmlns="http://www.w3.org/2000/svg" version="1.1" viewBox="0 0 64 64">
  <!-- Generator: Adobe Illustrator 28.7.1, SVG Export Plug-In . SVG Version: 1.2.0 Build 142)  -->
  <g>
    <g id="Glyph">
      <g>
        <path d="M32,47.05615l10.23389-17.05615h-20.46777l10.23389,17.05615ZM32,42c-.55231,0-1-.44775-1-1,0-.55231.44769-1,1-1s1,.44769,1,1c0,.55225-.44769,1-1,1ZM31,33c0-.55225.44775-1,1-1s1,.44775,1,1v4c0,.55225-.44775,1-1,1s-1-.44775-1-1v-4Z"/>
        <path d="M47,15c0-1.30371-.83594-2.41602-2-2.82861v5.65723c1.16406-.4126,2-1.5249,2-2.82861Z"/>
        <path d="M50,7H14c-1.65002,0-3,1.34998-3,3v13h42v-13c0-1.65002-1.34998-3-3-3ZM20.89001,11.45001l-1.89001,3.78998v3.76001c0,.54999-.45001,1-1,1s-1-.45001-1-1v-3.76001l-1.89001-3.78998c-.25-.5-.04999-1.10004.44-1.34003.5-.25,1.10004-.04999,1.34003.44l1.10999,2.21002,1.10999-2.21002c.23999-.48999.84003-.69,1.34003-.44.48999.23999.69.84003.44,1.34003ZM25,19c0,.54999-.45001,1-1,1s-1-.45001-1-1v-8c0-.54999.45001-1,1-1s1,.45001,1,1v8ZM32,14c.54999,0,1,.45001,1,1s-.45001,1-1,1h-3v2h3c.54999,0,1,.45001,1,1s-.45001,1-1,1h-4c-.54999,0-1-.45001-1-1v-8c0-.54999.45001-1,1-1h4c.54999,0,1,.45001,1,1s-.45001,1-1,1h-3v2h3ZM40,20h-4c-.54999,0-1-.45001-1-1v-8c0-.54999.45001-1,1-1s1,.45001,1,1v7h3c.54999,0,1,.45001,1,1s-.45001,1-1,1ZM44,20c-.54999,0-1-.45001-1-1v-8c0-.54999.45001-1,1-1,2.76001,0,5,2.23999,5,5s-2.23999,5-5,5Z"/>
        <path d="M11,25v25c0,1.64996,1.34998,3,3,3h36c1.65002,0,3-1.35004,3-3v-25H11ZM16,50c-.54999,0-1-.45001-1-1s.45001-1,1-1,1,.45001,1,1-.45001,1-1,1ZM16,30c-.54999,0-1-.45001-1-1s.45001-1,1-1,1,.45001,1,1-.45001,1-1,1ZM44.85999,29.51001l-12,20c-.17999.31-.51001.48999-.85999.48999s-.67999-.17999-.85999-.48999l-12-20c-.17999-.30005-.19-.69-.01001-1,.17999-.32001.51001-.51001.87-.51001h24c.35999,0,.69.19.87.51001.17999.31.16998.69995-.01001,1ZM48,50c-.54999,0-1-.45001-1-1s.45001-1,1-1,1,.45001,1,1-.45001,1-1,1ZM48,30c-.54999,0-1-.45001-1-1s.45001-1,1-1,1,.45001,1,1-.45001,1-1,1Z"/>
        <path d="M21,55v1c0,.55225.44775,1,1,1h20c.55225,0,1-.44775,1-1v-1h-22Z"/>
      </g>
    </g>
  </g>
</svg>