<?xml version="1.0" encoding="UTF-8"?>
<svg xmlns="http://www.w3.org/2000/svg" version="1.1" viewBox="0 0 64 64">
  <!-- Generator: Adobe Illustrator 28.7.1, SVG Export Plug-In . SVG Version: 1.2.0 Build 142)  -->
  <g>
    <g id="Glyph">
      <g>
        <circle cx="15" cy="49" r="2"/>
        <path d="M15,41c-4.40997,0-8,3.58997-8,8s3.59003,8,8,8,8-3.59003,8-8-3.59003-8-8-8ZM15,53c-2.21002,0-4-1.79004-4-4s1.78998-4,4-4,4,1.78998,4,4-1.78998,4-4,4Z"/>
        <path d="M15,7c-4.40997,0-8,3.58997-8,8v28.01001c1.82001-2.43005,4.72998-4.01001,8-4.01001s6.17999,1.57996,8,4.01001V15c0-4.41003-3.59003-8-8-8Z"/>
        <circle cx="33" cy="49" r="2"/>
        <path d="M33,41c-4.40997,0-8,3.58997-8,8s3.59003,8,8,8,8-3.59003,8-8-3.59003-8-8-8ZM33,53c-2.21002,0-4-1.79004-4-4s1.78998-4,4-4,4,1.78998,4,4-1.78998,4-4,4Z"/>
        <path d="M33,39c3.27002,0,6.17999,1.57996,8,4.01001V15c0-4.41003-3.59003-8-8-8s-8,3.58997-8,8v28.01001c1.82001-2.43005,4.72998-4.01001,8-4.01001Z"/>
        <path d="M43,15v34c0,3.26996-1.58002,6.17999-4.01001,8h13.01001V14h-9.04999c.02997.32996.04999.65997.04999,1Z"/>
        <path d="M54,14v43c1.6543,0,3-1.3457,3-3V17c0-1.6543-1.3457-3-3-3Z"/>
      </g>
    </g>
  </g>
</svg>