<?xml version="1.0" encoding="UTF-8"?>
<svg id="Glyph" xmlns="http://www.w3.org/2000/svg" viewBox="0 0 64 64">
  <path d="M20.92,42.52c-1.39,1.32-2.57,2.84-3.29,4.28.69.45,1.24.96,1.73,1.41,1.06.97,1.76,1.61,3.31,1.61s2.25-.64,3.31-1.61c1.23-1.13,2.91-2.67,6.02-2.67,2.72,0,4.35,1.18,5.53,2.23,4.33-3.06,7.41-7.04,8.39-11.2h-8.23c.37.59.45,1.34.15,2.02-4.52,10.12-15.6,4.64-16.92,3.93Z"/>
  <path d="M44.64,48.21c1.23-1.13,2.91-2.67,6.02-2.67.29,0,.56.01.82.04,2.62-3.35,4-6.37,4.61-9.01h-8.12c-.96,4.66-4.24,9.13-8.91,12.54.62.45,1.27.71,2.27.71,1.55,0,2.25-.64,3.31-1.61Z"/>
  <path d="M50.659,47.541c-4.665,0-4.665,4.277-9.331,4.277s-4.665-4.277-9.329-4.277-4.664,4.277-9.329,4.277-4.664-4.277-9.329-4.277-4.665,4.277-9.329,4.277v8.175s55.978,0,55.978,0v-8.175c-4.665,0-4.666-4.277-9.331-4.277Z"/>
  <path d="M16.04,16.77c-.35.19-.7.37-1.04.53-.88.4-1.81.6-2.78.6-.79,0-1.58-.15-2.33-.41-1.9,6.41-.48,15.63-.48,15.63,1.21,5.44,3.01,9.48,4.98,12.48.53.07,1.01.18,1.45.32,1.26-2.53,3.75-5.27,6.6-7.16.55-.36,1.12-.7,1.72-1,2.72-2.45,5.88-2.99,8.55-2.82h.02c1.15-.24,1.91-.34,2-.35.09-.01.17-.02.26-.02h21.1c.1,0,.21.02.31.03.34-3.57-.72-6.31-1.75-8.06-.82-1.39-2.33-2.23-3.94-2.23h-19.81s-10.73-.4-14.86-7.54ZM47.56,27.87c1.37,0,2.49,1.12,2.49,2.49,0,1.38-1.12,2.49-2.49,2.49-1.38,0-2.49-1.11-2.49-2.49,0-1.37,1.11-2.49,2.49-2.49Z"/>
  <path d="M8.121,14.379s.972.576,2.046,1.07c1.27.585,2.733.61,4.006.03.559-.255,1.212-.609,1.934-1.1,1.005-.684,6.664-4.462,5.338-10.283,0,0-5.164-1.254-9.331,5.354C7.948,2.841,2.784,4.095,2.784,4.095c-1.326,5.821,4.32,9.618,5.337,10.284Z"/>
  <path d="M34.637,17.304c.538.106,1.067-.248,1.173-.79.121-.618,1.17-1.28,2.541-1.28,1.461,0,2.553.743,2.553,1.407v7.664h2v-7.664c0-.664,1.092-1.407,2.553-1.407,1.373,0,2.423.663,2.542,1.283.104.542.627.899,1.17.794.542-.104.898-.627.794-1.17-.322-1.684-2.217-2.907-4.505-2.907-1.46,0-2.735.492-3.563,1.268-.828-.772-2.088-1.268-3.543-1.268-2.282,0-4.176,1.218-4.503,2.897-.106.542.248,1.067.79,1.173Z"/>
</svg>