<?xml version="1.0" encoding="UTF-8"?>
<svg id="Glyph" xmlns="http://www.w3.org/2000/svg" viewBox="0 0 64 64">
  <path d="M4.012,51.101c1.554,0,2.254-.642,3.313-1.613,1.226-1.125,2.906-2.665,6.016-2.665s4.79,1.54,6.016,2.665c1.059.971,1.759,1.613,3.313,1.613s2.253-.642,3.312-1.613c1.227-1.125,2.906-2.665,6.017-2.665s4.79,1.54,6.016,2.665c1.059.971,1.759,1.613,3.313,1.613s2.255-.642,3.314-1.613c1.227-1.124,2.906-2.664,6.017-2.664s4.79,1.54,6.017,2.664c1.06.972,1.76,1.613,3.314,1.613v-9.496c-4.665,0-4.666-4.277-9.331-4.277s-4.665,4.277-9.331,4.277-4.665-4.277-9.329-4.277-4.664,4.277-9.329,4.277-4.664-4.277-9.329-4.277-4.665,4.277-9.329,4.277v9.496s0,0,0,0Z"/>
  <path d="M59.99,53.1c-4.665,0-4.666-4.277-9.331-4.277s-4.665,4.277-9.331,4.277-4.665-4.277-9.329-4.277-4.665,4.277-9.329,4.277-4.664-4.277-9.329-4.277-4.665,4.277-9.329,4.277v7.175s55.978,0,55.978,0v-7.175Z"/>
  <path d="M23.687,13.796c.442-3.037,2.388-2.982,2.785-2.943.541.054,1.037-.331,1.103-.876.065-.548-.327-1.046-.875-1.111-1.056-.124-2.854.223-4.003,1.896-1.149-1.674-2.946-2.021-4.004-1.896-.544.065-.929.555-.87,1.1.059.545.546.939,1.096.888.396-.038,2.388-.075,2.787,2.943,0,0,.186.862.994.869,0,0,.862,0,.988-.869ZM15.007,24.806c.4-3.064,2.387-2.982,2.785-2.943.543.057,1.038-.33,1.103-.876.065-.548-.327-1.046-.875-1.111-1.057-.125-2.854.222-4.003,1.896-1.149-1.674-2.946-2.021-4.004-1.896-.544.065-.929.555-.87,1.1.059.544.543.938,1.096.888.397-.037,2.388-.075,2.787,2.943,0,0,.095.811.994.869,0,0,.877-.02.988-.869ZM8.991,7.671c.468-3.071,2.387-2.979,2.785-2.943.539.058,1.038-.331,1.103-.876.065-.548-.327-1.046-.875-1.111-1.055-.126-2.853.221-4.003,1.896-1.149-1.674-2.945-2.022-4.004-1.896-.548.065-.94.563-.875,1.111.065.548.564.933,1.111.875.095-.013,2.355-.242,2.776,2.944,0,0,.081.764.988.869,0,0,.866-.026.994-.869Z"/>
  <path d="M25.982,37.992c1.227-1.125,2.906-2.665,6.017-2.665s4.79,1.54,6.016,2.665c1.059.971,1.759,1.613,3.313,1.613.679,0,1.192-.128,1.646-.347-3.398-6.366-.564-13.326-.426-13.653.215-.508.802-.743,1.309-.531.508.215.747.801.533,1.31-.029.069-2.491,6.164.208,11.648.015-.014.029-.026.044-.04,1.074-.984,2.495-2.286,4.919-2.596-.643-1.329-.848-2.336-.848-2.336-1.866-7.863,3.065-10.129,3.065-10.129,2.858-1.177,4.973.032,6.146,1.085.582.523,1.522.264,1.752-.484,2.316-7.522-8.965-10.197-8.965-10.197-10.862-2.199-19.525,4.798-19.525,4.798-4.699,3.598-7.997,10.156-7.317,21.3.803-.25,1.373-.762,2.113-1.441ZM44.889,17.042c.556-.043,1.03.367,1.075.917.044.55-.366,1.032-.916,1.077-.509.042-12.495,1.171-13.748,13.47-.052.515-.487.898-.994.898-.034,0-.068-.001-.103-.005-.549-.056-.949-.546-.893-1.096,1.424-13.976,15.436-15.249,15.578-15.26Z"/>
</svg>