<?xml version="1.0" encoding="UTF-8"?>
<svg id="Glyph" xmlns="http://www.w3.org/2000/svg" viewBox="0 0 64 64">
  <path d="M50.659,47.544c-4.665,0-4.665,4.277-9.331,4.277s-4.665-4.277-9.329-4.277-4.664,4.277-9.329,4.277-4.664-4.277-9.329-4.277-4.665,4.277-9.329,4.277v8.175s55.978,0,55.978,0v-8.175c-4.665,0-4.666-4.277-9.331-4.277Z"/>
  <path d="M34.514,21.536l-.01-15.046c0-1.374-1.121-2.487-2.504-2.487-1.383,0-2.504,1.114-2.504,2.487l-.01,15.046c-5.924.94-10.756,5.146-12.607,10.716h30.241c-1.851-5.569-6.682-9.775-12.607-10.716Z"/>
  <path d="M22.147,49.793c.164.018.337.028.523.028,1.554,0,2.253-.642,3.312-1.613,1.227-1.125,2.906-2.665,6.017-2.665s4.789,1.54,6.016,2.665c1.06.971,1.759,1.613,3.313,1.613.187,0,.361-.01.525-.028,2.42-1.908,4.261-4.506,5.257-7.49h-30.221c.996,2.984,2.837,5.582,5.257,7.49Z"/>
  <path d="M16.507,40.304h30.986c1.672,0,3.028-1.355,3.028-3.026s-1.355-3.026-3.028-3.026h-30.986c-1.672,0-3.028,1.355-3.028,3.026s1.355,3.026,3.028,3.026Z"/>
  <path d="M36.511,16.926h10.719c.753,0,1.183-.859.732-1.462l-2.971-3.973,2.971-3.973c.451-.603.021-1.461-.732-1.461h-10.769c.014.145.044.285.044.433l.007,10.436Z"/>
</svg>