<?xml version="1.0" encoding="UTF-8"?>
<svg id="Glyph" xmlns="http://www.w3.org/2000/svg" viewBox="0 0 64 64">
  <path d="M17.168,12.924c.76-.607,1.907-1.524,3.972-1.524s3.2.916,3.958,1.521c.591.472.812.649,1.473.649.652,0,.873-.176,1.461-.646.759-.607,1.906-1.524,3.969-1.524s3.2.916,3.958,1.521c.591.472.812.649,1.472.649.652,0,.873-.176,1.461-.646.76-.607,1.907-1.524,3.97-1.524s3.212.917,3.972,1.524c.563.45.796.636,1.418.646.006,0,.011.002.017.002-.264-5.038-4.045-9.572-8.684-9.572-3.144,0-6.044,1.854-7.584,4.851-1.541-2.997-4.441-4.851-7.585-4.851-4.636,0-8.419,4.534-8.682,9.572.006,0,.012-.002.019-.002.622-.009.854-.195,1.418-.646Z"/>
  <path d="M37.43,15.57c-2.72,0-2.72-2.17-5.43-2.17s-2.72,2.17-5.43,2.17-2.72-2.17-5.43-2.17-2.72,2.13-5.36,2.17c.202,2.284.882,4.433,1.851,6.425.938-.57,1.926-.845,3.1-.845,2.09,0,3.216.864,4.037,1.495.613.471.867.666,1.593.666.731,0,.986-.195,1.603-.667.822-.63,1.949-1.493,4.037-1.493s3.206.862,4.026,1.492c.616.473.871.668,1.604.668.726,0,.979-.195,1.593-.666.821-.631,1.947-1.495,4.037-1.495,1.17,0,2.16.275,3.11.845.968-1.992,1.648-4.141,1.851-6.425-2.64-.04-2.66-2.17-5.36-2.17-2.72,0-2.72,2.17-5.43,2.17Z"/>
  <path d="M45.42,23.75c-.54-.34-1.18-.6-2.16-.6-2.82,0-2.82,2.16-5.63,2.16s-2.82-2.16-5.63-2.16-2.82,2.16-5.64,2.16-2.81-2.16-5.63-2.16c-.98,0-1.62.26-2.15.6,3.95,6.63,10.81,11.18,12.84,12.44.36.22.8.22,1.16,0,2.03-1.26,8.89-5.81,12.84-12.44Z"/>
  <path d="M35.904,55.426h14.733c.302,0,.547.245.547.547v3.481c0,.302-.245.546-.546.546h-14.734c-.301,0-.546-.245-.546-.546v-3.482c0-.302.245-.546.546-.546Z"/>
  <path d="M56.368,17.716c-1.451,0-2.632,1.181-2.632,2.632l-.458,12.412c.009.169,0,2.366-2.807,5.343l-4.105,4.26c-.383.399-1.016.41-1.414.026-.397-.383-.409-1.017-.025-1.414l4.098-4.252c.474-.562.685-1.367.535-2.161-.149-.801-.633-1.459-1.36-1.854-1.084-.587-2.49-.284-3.344.723l-5.113,6.032c-1.506,1.776-2.335,4.037-2.335,6.366v7.598h11.621l.266-3.775c.002-.074.116-2.618,1.918-4.267l4.874-5.394c.029-.033.062-.064.097-.093.027-.023,2.886-2.49,2.817-5.401v-14.147c0-1.451-1.181-2.632-2.632-2.632Z"/>
  <path d="M14.708,49.684l.264,3.742h11.621v-7.598c0-2.329-.829-4.59-2.335-6.365l-5.113-6.033c-.854-1.006-2.259-1.31-3.344-.722-.728.395-1.211,1.054-1.36,1.854-.149.79.06,1.59.571,2.198l4.061,4.215c.384.397.372,1.031-.025,1.414s-1.03.373-1.414-.026l-4.098-4.252c-2.814-2.985-2.823-5.181-2.814-5.422l-.457-12.303c0-1.488-1.182-2.669-2.633-2.669s-2.632,1.181-2.632,2.632v14.124c-.068,2.935,2.79,5.401,2.819,5.426.033.028.065.06.095.092l4.94,5.46c1.735,1.583,1.85,4.126,1.854,4.233Z"/>
  <path d="M13.363,55.426h14.734c.301,0,.546.245.546.546v3.482c0,.301-.245.546-.546.546h-14.733c-.302,0-.547-.245-.547-.547v-3.481c0-.302.245-.546.546-.546Z"/>
</svg>