<?xml version="1.0" encoding="UTF-8"?>
<svg id="Glyph" xmlns="http://www.w3.org/2000/svg" viewBox="0 0 64 64">
  <path d="M15.709,36.798c0,1.658,1.344,3.002,3.001,3.002s3.002-1.344,3.002-3.002-1.344-3.001-3.002-3.001-3.001,1.344-3.001,3.001Z"/>
  <path d="M56,16.221c1.271,0,2.302-1.031,2.302-2.302s-1.031-2.302-2.302-2.302-2.302,1.031-2.302,2.302,1.031,2.302,2.302,2.302Z"/>
  <path d="M41.84,51.329c3,2.014,5.33,4.61,6.936,7.763.145.286.209.597.209.908h11.004v-13.831c-7.184,4.46-13.14,4.58-18.149,5.16Z"/>
  <path d="M4.01,50.397v9.603h42.984c-9.467-18.586-42.984-9.603-42.984-9.603Z"/>
  <path d="M9.282,25.079c.355,1.373,1.586,2.339,3.005,2.354l11.173.126c4.578,6.526,6.182,11.751,6.6,13.381-.702,2.315-1.115,4.255-1.362,5.758,1.742.241,3.382.585,4.938,1.009.051-.318.11-.662.182-1.037l10.966-2.677c1.546-.377,2.654-1.734,2.715-3.325l.152-3.973c.053-1.389-1.03-2.559-2.419-2.612-1.389-.053-2.558,1.03-2.612,2.419l-.114,2.955-7.193,1.597c1.043-3.113,2.664-6.895,5.125-11.113l9.119-.081c1.723-.015,3.234-1.155,3.722-2.808l.957-3.242c.394-1.333-.368-2.733-1.701-3.127s-2.733.368-3.127,1.701l-.713,2.415-5.259.107c2.177-3.972,5.194-10.464,6.069-17.244.189-1.466-.898-2.785-2.374-2.838l-.061-.002c-1.303-.047-2.393.925-2.561,2.218-.3,2.305-.899,4.603-1.634,6.763l-2.794-1.295v-2.836c0-1.39-1.127-2.517-2.517-2.517s-2.517,1.127-2.517,2.517v4.253c0,1.216.725,2.315,1.844,2.793l4.123,1.763c-1.996,4.394-4.061,7.47-4.1,7.528l-.067.103c-1.654,2.707-2.977,5.257-4.051,7.62-1.405-3.13-3.6-7.112-6.982-11.472l-.106-.127c-.034-.039-1.799-2.079-3.556-5.407l6.249-3.67c1.179-.692,1.714-2.114,1.285-3.411l-1.296-3.918c-.437-1.32-1.861-2.036-3.181-1.599-1.32.437-2.036,1.861-1.599,3.181l.761,2.301-4.235,2.459c-.542-1.583-.989-3.3-1.247-5.124-.178-1.255-1.248-2.188-2.514-2.127l-.208.01c-1.43.069-2.468,1.36-2.272,2.778.891,6.457,3.704,11.697,5.757,14.799l-5.837.085-1.018-3.942c-.348-1.346-1.721-2.156-3.067-1.808-1.346.348-2.156,1.721-1.808,3.067l1.362,5.273Z"/>
</svg>