<?xml version="1.0" encoding="UTF-8"?>
<svg id="Glyph" xmlns="http://www.w3.org/2000/svg" viewBox="0 0 64 64">
  <path d="M32.008,55.894c-9.213,0-17.876-2.344-25.433-6.465-1.131-.617-2.145.974-1.113,1.746,7.401,5.541,16.589,8.825,26.546,8.825s19.145-3.283,26.546-8.825c1.031-.772.018-2.363-1.113-1.746-7.556,4.121-16.219,6.465-25.433,6.465Z"/>
  <g>
    <path d="M36.808,37.653c.066.05.134.097.199.149-.064-.052-.133-.099-.199-.149Z"/>
    <path d="M55.24,16.45l-14.742,27.916,4.662.774,13.875-17.643c-.414-4.079-1.754-7.816-3.795-11.057,0,.004,0,.006,0,.01Z"/>
    <path d="M33,4.022v32.077c1.136.142,2.195.524,3.131,1.093-.031-.019-.059-.043-.091-.062l7.43-30.749c-3.206-1.407-6.746-2.233-10.47-2.359Z"/>
    <path d="M39.883,42.925c-.01-.071-.021-.141-.032-.211.011.07.023.141.032.211Z"/>
    <path d="M20.539,6.409s0,0,.001,0l7.42,30.73c-.027.016-.05.037-.077.053.932-.567,1.986-.948,3.117-1.092h0V4.022c-3.72.128-7.256.965-10.461,2.387Z"/>
    <path d="M10.07,14.66l14.309,27.085c.365-1.247,1.027-2.365,1.905-3.276-.014.015-.031.026-.045.041l-7.55-31.2s0,0,0-.001c-3.389,1.82-6.331,4.327-8.625,7.35.002,0,.003,0,.005.002Z"/>
    <path d="M23.505,44.368l-14.715-27.868s0,0,0,0c-2.04,3.234-3.388,6.954-3.825,10.998l13.877,17.645,4.663-.775Z"/>
    <path d="M27.022,37.792c.041-.033.084-.062.126-.094-.042.032-.085.061-.126.094Z"/>
    <path d="M24.162,42.732c-.011.066-.021.132-.03.198.009-.067.02-.132.03-.198Z"/>
    <path d="M37.76,38.5s-.004-.003-.006-.005c.86.9,1.512,2,1.875,3.225l14.33-27.129c-2.297-3.021-5.247-5.519-8.65-7.326l-7.549,31.235Z"/>
  </g>
  <path d="M32.008,53.894c7.779,0,15.478-1.799,22.425-5.185l-13.23-2.198-1.574-.261c-.976,3.288-4.017,5.687-7.621,5.687s-6.645-2.4-7.621-5.687l-14.804,2.459c6.947,3.386,14.646,5.185,22.425,5.185Z"/>
</svg>