<?xml version="1.0" encoding="UTF-8"?>
<svg id="Glyph" xmlns="http://www.w3.org/2000/svg" viewBox="0 0 64 64">
  <path d="M21.08,25.96l-.77,8.54,9.92-8.53h-8.88c-.09,0-.18,0-.27-.01Z"/>
  <path d="M41.37,10.32c-.4-3.48-4.61-6.32-9.35-6.32s-8.96,2.84-9.36,6.32l-.7,6.67h20.17l-.76-6.67ZM32,14.83c-1.49,0-2.71-1.21-2.71-2.7,0-1.5,1.22-2.71,2.71-2.71s2.71,1.21,2.71,2.71c0,1.49-1.22,2.7-2.71,2.7Z"/>
  <path d="M25.98,48.21c1.23-1.12,2.91-2.66,6.02-2.66.32,0,.62.02.9.05l9.92-8.54c.32-.27.72-.43,1.13-.46l-.51-5.75-21.87,18.83c.32.1.68.15,1.1.15,1.55,0,2.25-.65,3.31-1.62Z"/>
  <path d="M41.328,51.825c-4.665,0-4.665-4.277-9.329-4.277s-4.664,4.277-9.329,4.277-4.664-4.277-9.329-4.277-4.665,4.277-9.329,4.277v8.175s55.978,0,55.978,0v-8.175c-4.665,0-4.666-4.277-9.331-4.277s-4.665,4.277-9.331,4.277Z"/>
  <path d="M18.853,21.481c0,1.375,1.116,2.49,2.492,2.49h21.31c1.376,0,2.492-1.116,2.492-2.49s-1.116-2.49-2.492-2.49h-21.31c-1.376,0-2.492,1.116-2.492,2.49Z"/>
  <path d="M59.958,16.031l-14.499-3.089c-.54-.116-1.071.23-1.187.77-.115.54.229,1.071.77,1.187l14.499,3.089c.07.015.141.022.209.022.462,0,.877-.322.977-.792.115-.54-.229-1.071-.77-1.187Z"/>
  <path d="M45.25,11.009c.069,0,.139-.007.209-.022l14.499-3.089c.54-.115.885-.646.77-1.187-.115-.541-.645-.886-1.187-.77l-14.499,3.089c-.54.115-.885.646-.77,1.187.1.47.515.792.977.792Z"/>
  <path d="M4.459,17.987l14.499-3.089c.54-.115.885-.646.77-1.187s-.645-.889-1.187-.77l-14.499,3.089c-.54.115-.885.646-.77,1.187.1.47.515.792.977.792.069,0,.139-.007.209-.022Z"/>
  <path d="M4.042,7.897l14.499,3.089c.07.015.141.022.209.022.462,0,.877-.322.977-.792.115-.54-.229-1.071-.77-1.187l-14.499-3.089c-.54-.118-1.071.23-1.187.77-.115.54.229,1.071.77,1.187Z"/>
  <path d="M19.1,47.98c.09.08.18.15.26.23.15.13.29.26.42.38l23.45-20.2-.21-2.44c-.12.01-.25.02-.37.02h-9.36l-13.24,11.4-.95,10.61Z"/>
  <path d="M41.33,49.83c1.55,0,2.25-.65,3.31-1.62.1-.09.19-.18.3-.27l-.82-9.36-8.88,7.65c1.21.54,2.06,1.33,2.77,1.98,1.06.97,1.76,1.62,3.32,1.62Z"/>
</svg>