<?xml version="1.0" encoding="UTF-8"?>
<svg id="Glyph" xmlns="http://www.w3.org/2000/svg" viewBox="0 0 64 64">
  <path d="M18.01,45.99c-1.58-1.58-2.58-3.57-3.05-5.84-2.94-.3-8.13-.09-10.96,4.4,0,0,3.24,5.32,12.16,3.29-2.03,8.92,3.29,12.16,3.29,12.16,4.5-2.83,4.7-8.03,4.4-10.97-2.32-.47-4.3-1.5-5.84-3.04Z"/>
  <path d="M41.55,50.66c7-3.85,8.22-9.35,8.27-12.55-2.93,2.84-6.12,5.24-9.36,7.08-.39,3.61,1.09,5.47,1.09,5.47Z"/>
  <path d="M18.76,23.55c1.81-3.18,4.21-6.37,7.13-9.37-3.2.05-8.7,1.27-12.55,8.27,0,0,1.84,1.46,5.42,1.1Z"/>
  <path d="M59.062,9.406c-.21-.475-.748-.712-1.232-.522l-3.387,1.331c-.411.162-.817-.244-.656-.656l1.33-3.39c.19-.484-.047-1.021-.522-1.232-4.145-1.835-10.09-.923-16.188,2.26.112.202.202.417.238.652.632,4.036,2.769,8.043,6.017,11.283,3.328,3.328,7.429,5.481,11.549,6.066.242.034.464.124.672.239,3.118-6.044,3.997-11.923,2.179-16.033ZM46.727,12.841c-.912.912-2.391.912-3.303,0s-.912-2.391,0-3.303c.912-.912,2.391-.912,3.303,0s.912,2.391,0,3.303Z"/>
  <path d="M41.574,42.166c1.651-1.08,3.29-2.314,4.887-3.705-1.745-2.016-10.701-11.757-24.344-16.464-1.469,2.188-2.655,4.393-3.541,6.551,2.352.644,12.546,3.891,22.998,13.618Z"/>
  <path d="M36.67,8.16c-2.665,1.574-5.314,3.59-7.841,5.973,2.553,1.698,11.997,8.514,20.329,21.793,2.745-2.79,5.031-5.766,6.773-8.746-4.37-.62-8.92-2.87-12.68-6.63-3.68-3.67-5.91-8.11-6.58-12.39Z"/>
  <path d="M19.42,44.58c3.921,3.921,11.173,3.492,18.68-.377-9.539-7.094-19.132-9.309-21.208-9.718-.604,4.126.157,7.724,2.529,10.096Z"/>
</svg>