<?xml version="1.0" encoding="UTF-8"?>
<svg id="Glyph" xmlns="http://www.w3.org/2000/svg" viewBox="0 0 64 64">
  <path d="M14.55,45.63c2.36.33,3.75,1.61,4.81,2.58.16.15.31.29.46.42-2.68-8.76,1.56-19.34,1.56-19.34,1.39-3.75,1.7-8.03,1.7-8.03.11-2.51-.13-4.42-.13-4.42,0-2.91,2.16-5.61,4.82-5.61,2.94-.03,4.25,2.68,4.25,2.68.86-1.66,2.46-2.68,4.21-2.68,2.66,0,4.82,2.7,4.82,5.61,0,0-.24,1.91-.13,4.42,0,0,.31,4.28,1.7,8.03,0,0,4.24,10.58,1.56,19.34.15-.13.3-.27.46-.42,1.06-.97,2.45-2.25,4.81-2.58.4-2.58.32-5.03.08-7.07-.27-2.27-.84-4.5-1.73-6.6-2.97-7.08-2.97-15.12-2.97-15.12,0-4.11-1.93-7.77-4.93-10.11,0,0-3.65-2.88-7.9-2.72-7.08.25-12.83,5.74-12.83,12.83,0,0,0,8.04-2.97,15.12-.89,2.1-1.46,4.33-1.73,6.6-.24,2.04-.32,4.49.08,7.07Z"/>
  <path d="M51.52,38.32c.2,1.7.26,3.37.17,4.97,1.7,1.24,3.69,2.06,3.69,2.06,4.07,1.58,3.34-2.94,3.34-2.94-1.46-9.51-7.32-13.81-10.48-15.48.36,1.41.82,2.85,1.41,4.25.94,2.25,1.57,4.65,1.87,7.14Z"/>
  <path d="M8.62,45.35s1.99-.82,3.69-2.06c-.09-1.6-.03-3.27.17-4.97.3-2.49.93-4.89,1.87-7.13.59-1.4,1.05-2.85,1.42-4.26-3.16,1.66-9.03,5.96-10.49,15.48,0,0-.73,4.52,3.34,2.94Z"/>
  <path d="M29.308,18.164l1.543,2.832c.521.956,1.899.94,2.398-.028l1.444-2.804c-2.597-2.388-5.385,0-5.385,0Z"/>
  <path d="M35.5,14.934v.856c0,.552.447,1,1,1s1-.448,1-1v-.856c0-.552-.447-1-1-1s-1,.448-1,1Z"/>
  <path d="M26.5,14.934v.856c0,.552.447,1,1,1s1-.448,1-1v-.856c0-.552-.447-1-1-1s-1,.448-1,1Z"/>
  <path d="M50.659,47.544c-4.665,0-4.665,4.277-9.331,4.277s-4.665-4.277-9.329-4.277-4.664,4.277-9.329,4.277-4.664-4.277-9.329-4.277-4.665,4.277-9.329,4.277v8.175s55.978,0,55.978,0v-8.175c-4.665,0-4.666-4.277-9.331-4.277Z"/>
</svg>