<?xml version="1.0" encoding="UTF-8"?>
<svg id="Glyph" xmlns="http://www.w3.org/2000/svg" viewBox="0 0 64 64">
  <path d="M50.659,37.327c-4.665,0-4.665,4.277-9.331,4.277s-4.665-4.277-9.329-4.277-4.664,4.277-9.329,4.277-4.664-4.277-9.329-4.277-4.665,4.277-9.329,4.277v9.496s0,0,0,0c1.554,0,2.253-.642,3.312-1.613,1.227-1.125,2.906-2.665,6.017-2.665s4.79,1.54,6.017,2.665c1.06.971,1.759,1.613,3.312,1.613s2.253-.642,3.312-1.613c1.227-1.125,2.906-2.665,6.017-2.665s4.789,1.54,6.016,2.665c1.06.971,1.759,1.613,3.313,1.613s2.255-.642,3.314-1.613c1.226-1.124,2.905-2.664,6.016-2.664s4.791,1.54,6.018,2.665c1.06.971,1.76,1.613,3.313,1.613,0,0,0,0,0,0v-9.496c-4.665,0-4.666-4.277-9.331-4.277Z"/>
  <path d="M41.328,53.1c-4.665,0-4.665-4.277-9.329-4.277s-4.664,4.277-9.329,4.277-4.664-4.277-9.329-4.277-4.665,4.277-9.329,4.277v7.175s55.978,0,55.978,0v-7.175c-4.665,0-4.666-4.277-9.331-4.277s-4.665,4.277-9.331,4.277Z"/>
  <path d="M35.423,16.863c.769-.216,1.574-.337,2.405-.337.696,0,1.375.087,2.03.24.566-2.723,2.979-4.769,5.87-4.769,3.312,0,5.996,2.685,5.996,5.996,0,2.598-1.655,4.803-3.966,5.636,1.453.782,2.494,2.217,2.721,3.918l1.826.49c.481.129.958-.22.981-.717l.172-3.734,3.494-1.333c.465-.177.647-.74.374-1.156l-2.04-3.108,2.025-3.134c.27-.417.085-.977-.38-1.153l-3.493-1.318-.186-3.747c-.025-.498-.504-.845-.985-.713l-3.592.985-2.358-2.898c-.313-.385-.901-.383-1.212.003l-2.342,2.904-3.615-.97c-.481-.129-.958.22-.981.717l-.172,3.734-3.494,1.333c-.465.177-.647.74-.374,1.156l1.295,1.973Z"/>
  <path d="M26.28,28.246c0,1.799,1.458,3.257,3.257,3.257h15.746c1.799,0,3.257-1.458,3.257-3.257s-1.458-3.257-3.257-3.257h-.447c-.293-3.617-3.315-6.463-7.008-6.463-3.693,0-6.715,2.846-7.008,6.463h-1.283c-1.799,0-3.257,1.458-3.257,3.257Z"/>
  <path d="M18.918,10.853c.396-.038,2.388-.075,2.787,2.943,0,0,.186.862.994.869,0,0,.862,0,.988-.869.442-3.037,2.388-2.982,2.785-2.943.541.054,1.037-.331,1.103-.876.065-.548-.327-1.046-.875-1.111-1.056-.124-2.854.223-4.003,1.896-1.149-1.674-2.946-2.021-4.004-1.896-.544.065-.929.555-.87,1.1.059.545.546.939,1.096.888Z"/>
  <path d="M7.009,7.671s.081.764.988.869c0,0,.866-.026.994-.869.468-3.071,2.387-2.979,2.785-2.943.539.058,1.038-.331,1.103-.876.065-.548-.327-1.046-.875-1.111-1.055-.126-2.853.221-4.003,1.896-1.149-1.674-2.945-2.022-4.004-1.896-.548.065-.94.563-.875,1.111.065.548.564.933,1.111.875.095-.013,2.355-.242,2.776,2.944Z"/>
  <path d="M10.012,19.875c-.544.065-.929.555-.87,1.1.059.544.543.938,1.096.888.397-.037,2.388-.075,2.787,2.943,0,0,.095.81.994.869,0,0,.877-.02.988-.869.4-3.064,2.387-2.982,2.785-2.943.543.057,1.038-.33,1.103-.876.065-.548-.327-1.046-.875-1.111-1.057-.125-2.854.222-4.003,1.896-1.149-1.674-2.946-2.021-4.004-1.896Z"/>
</svg>