<?xml version="1.0" encoding="UTF-8"?>
<svg id="Glyph" xmlns="http://www.w3.org/2000/svg" viewBox="0 0 64 64">
  <path d="M41.328,41.604c-4.665,0-4.665-4.277-9.329-4.277s-4.664,4.277-9.329,4.277-4.664-4.277-9.329-4.277-4.665,4.277-9.329,4.277v9.496s0,0,0,0c1.554,0,2.254-.642,3.313-1.612,1.226-1.125,2.906-2.665,6.016-2.665s4.79,1.54,6.016,2.665c1.059.971,1.759,1.612,3.313,1.612s2.253-.642,3.312-1.612c1.227-1.125,2.906-2.665,6.017-2.665s4.79,1.54,6.016,2.665c1.059.971,1.759,1.612,3.313,1.612s2.255-.642,3.314-1.613c1.227-1.124,2.906-2.664,6.017-2.664s4.79,1.54,6.017,2.664c1.06.972,1.76,1.613,3.314,1.613v-9.496c-4.665,0-4.666-4.277-9.331-4.277s-4.665,4.277-9.331,4.277Z"/>
  <path d="M41.328,53.1c-4.665,0-4.665-4.277-9.329-4.277s-4.664,4.277-9.329,4.277-4.664-4.277-9.329-4.277-4.665,4.277-9.329,4.277v7.175s55.978,0,55.978,0v-7.175c-4.665,0-4.666-4.277-9.331-4.277s-4.665,4.277-9.331,4.277Z"/>
  <rect x="15.583" y="4" width="9.005" height="28.087" rx="2.435" ry="2.435"/>
  <path d="M33.796,35.531c1.999.448,3.255,1.577,4.219,2.462,1.059.971,1.759,1.612,3.313,1.612s2.255-.642,3.314-1.613c1.227-1.124,2.906-2.664,6.017-2.664.427,0,.822.034,1.197.087v-.146c0-2.137-.251-4.213-.716-6.208-.91.191-1.852.295-2.817.295-7.543,0-13.681-6.136-13.681-13.677,0-1.878.381-3.668,1.069-5.298-2.821-1.262-5.893-2.064-9.123-2.299v19.976c3.674.8,6.536,3.753,7.208,7.473Z"/>
  <path d="M48.323,27.355c6.448,0,11.677-5.23,11.677-11.678s-5.23-11.678-11.677-11.678-11.681,5.227-11.681,11.678,5.23,11.678,11.681,11.678ZM46.446,9.675c0-1.035.839-1.875,1.875-1.875s1.875.839,1.875,1.875v5.682c0,1.035-.839,1.875-1.875,1.875s-1.875-.839-1.875-1.875v-5.682ZM48.321,19.765c1.036,0,1.875.839,1.875,1.875s-.839,1.875-1.875,1.875-1.875-.839-1.875-1.875.839-1.875,1.875-1.875Z"/>
  <polygon points="13.583 6.98 4.01 6.98 4 29.403 13.583 29.403 13.583 6.98"/>
</svg>