<?xml version="1.0" encoding="UTF-8"?>
<svg id="Glyph" xmlns="http://www.w3.org/2000/svg" viewBox="0 0 64 64">
  <path d="M8.002,40.165c-1.658,0-3.002,1.344-3.002,3.001s1.344,3.002,3.002,3.002,3.001-1.344,3.001-3.002-1.344-3.001-3.001-3.001Z"/>
  <path d="M49.205,14.398c-1.271,0-2.302,1.031-2.302,2.302s1.031,2.302,2.302,2.302,2.302-1.031,2.302-2.302-1.031-2.302-2.302-2.302Z"/>
  <path d="M59.996,25.45c-.304-.938-1.173-1.909-2.666-1.781l-14.047,1.099c-2.566.197-4.866-1.47-5.469-3.974l-3.297-13.699c-.353-1.462-1.534-1.983-2.517-1.983s-2.167.521-2.518,1.983l-3.297,13.699c-.603,2.505-2.898,4.176-5.469,3.974l-14.047-1.099c-1.498-.125-2.362.843-2.666,1.781-.304.938-.174,2.221,1.109,3.008l12.009,7.369c2.193,1.347,3.072,4.051,2.091,6.43l-5.385,13.022c-.575,1.39.074,2.507.872,3.087.797.58,2.06.851,3.205-.125l10.719-9.145c.979-.836,2.18-1.252,3.378-1.252,1.201,0,2.399.419,3.378,1.252l10.719,9.145c1.145.976,2.405.705,3.205.125.797-.58,1.447-1.694.872-3.087l-5.385-13.022c-.984-2.379-.105-5.083,2.088-6.43l12.009-7.369c1.283-.787,1.413-2.07,1.109-3.008ZM47.2,30.576l-11.507,3.99c-.074.873-.437,1.661-1.009,2.258h0s6.534,8.217,6.534,8.217c.344.432.272,1.061-.16,1.404-.184.146-.404.218-.622.218-.294,0-.586-.129-.783-.378l-6.714-8.443s0,0,.001,0c-.302.079-.613.134-.939.134s-.637-.055-.939-.134c0,0,0,0,.001,0l-6.714,8.443c-.197.249-.489.378-.783.378-.218,0-.438-.071-.622-.218-.432-.344-.504-.973-.16-1.404l6.534-8.217h0c-.572-.597-.935-1.385-1.009-2.258l-11.507-3.99c-.522-.181-.798-.75-.617-1.272.181-.521.749-.799,1.272-.617l11.232,3.895c.466-.923,1.299-1.618,2.313-1.902h0v-9.679c0-.552.448-1,1-1s1,.448,1,1v9.679h0c1.014.284,1.846.979,2.313,1.902l11.232-3.895c.521-.182,1.091.095,1.272.617s-.095,1.091-.617,1.272Z"/>
</svg>