<?xml version="1.0" encoding="UTF-8"?>
<svg id="Glyph" xmlns="http://www.w3.org/2000/svg" viewBox="0 0 64 64">
  <path d="M31.997,9.352c-12.488,0-22.648,10.16-22.648,22.648s10.16,22.648,22.648,22.648,22.648-10.16,22.648-22.648-10.16-22.648-22.648-22.648ZM31.997,11.352c6.35,0,12.035,2.886,15.826,7.41-1.324.741-1.905,2.148-4.073,2.148-2.94,0-2.94-2.61-5.88-2.61s-2.93,2.61-5.87,2.61-2.94-2.61-5.87-2.61-2.94,2.61-5.88,2.61c-2.164,0-2.742-1.412-4.075-2.152,3.791-4.522,9.474-7.406,15.822-7.406ZM18.11,31.01c.07-.23.27-.4.5-.44,2.73-.37,4.51,2.26,4.82,2.76l.05.09c1.08-1.89,3.72-3.39,7.08-4.06l-.1-.05c-1.64-.81-2.3-2-2.55-2.7-.11-.3.07-.64.38-.71,5.22-1.19,7.84,3.03,7.84,3.03l.09.12h-.09c.36.03.73.06,1.09.11-1.12,1.79-1.72,3.96-1.72,6.23,0,2.23.58,4.37,1.64,6.13-.3.05-.62.07-.93.1l-.08.12s-2.62,4.21-7.84,3.02c-.31-.07-.49-.41-.38-.7.25-.7.91-1.89,2.55-2.7l.1-.04c-3.36-.67-5.99-2.17-7.08-4.05l-.05.08c-.31.5-2.09,3.12-4.82,2.75-.23-.03-.43-.21-.5-.44-.23-.79-.45-2.7,2.12-4.32-2.57-1.62-2.35-3.54-2.12-4.33ZM37.5,35.39c0-2.26.71-4.32,1.86-5.82,3.94,1.01,6.66,3.21,6.66,5.76,0,2.57-2.76,4.79-6.74,5.79-1.1-1.49-1.78-3.51-1.78-5.73Z"/>
  <path d="M4.997,32c0-6.405,2.22-12.466,6.287-17.315l.071,2.05c.019.54.462.965.999.965.012,0,.023,0,.035,0,.552-.019.984-.482.965-1.034l-.155-4.495c-.018-.525-.44-.947-.965-.965l-4.495-.155c-.564-.039-1.015.413-1.034.965-.019.552.413,1.015.965,1.034l2.315.08c-4.517,5.253-6.988,11.87-6.988,18.87,0,6.317,1.997,12.323,5.774,17.368.196.262.497.4.801.4.208,0,.418-.064.599-.199.442-.331.532-.958.201-1.4-3.516-4.696-5.375-10.287-5.375-16.169Z"/>
  <path d="M15.828,10.375c4.695-3.517,10.287-5.375,16.169-5.375,6.406,0,12.467,2.22,17.315,6.287l-2.049.071c-.553.019-.984.482-.965,1.034.019.54.462.965.998.965.012,0,.023,0,.035,0l4.494-.155c.525-.018.947-.44.965-.965l.155-4.495c.02-.552-.412-1.015-.965-1.034-.552-.021-1.014.413-1.033.965l-.08,2.315c-5.252-4.517-11.869-6.988-18.87-6.988-6.318,0-12.324,1.997-17.368,5.775-.442.331-.532.958-.201,1.4.331.442.958.532,1.4.201Z"/>
  <path d="M56.398,50.95l-2.315-.08c4.517-5.252,6.988-11.869,6.988-18.87,0-6.318-1.997-12.324-5.774-17.368-.332-.441-.957-.533-1.4-.201-.442.331-.532.958-.201,1.4,3.518,4.695,5.376,10.287,5.376,16.169,0,6.406-2.22,12.467-6.288,17.316l-.071-2.05c-.02-.553-.492-1.002-1.033-.965-.553.019-.984.481-.965,1.033l.155,4.494c.018.525.439.947.965.965l4.494.155c.012,0,.023,0,.035,0,.536,0,.979-.426.998-.966.02-.552-.412-1.015-.965-1.033Z"/>
  <path d="M48.241,53.624c-4.695,3.518-10.287,5.376-16.169,5.376-6.405,0-12.467-2.22-17.316-6.288l2.05-.071c.552-.019.984-.481.965-1.033-.019-.553-.5-1.024-1.034-.965l-4.495.155c-.525.018-.947.439-.965.965l-.155,4.494c-.019.552.413,1.015.965,1.033.012,0,.023,0,.035,0,.537,0,.98-.426.999-.966l.08-2.315c5.253,4.517,11.869,6.988,18.87,6.988,6.317,0,12.323-1.997,17.368-5.774.441-.331.532-.958.201-1.4-.332-.44-.957-.53-1.4-.201Z"/>
  <path d="M41.46,32.64c-.55,0-1,.44-1,1v.55c0,.55.45,1,1,1s1-.45,1-1v-.55c0-.56-.45-1-1-1Z"/>
</svg>