<?xml version="1.0" encoding="UTF-8"?>
<svg id="Glyph" xmlns="http://www.w3.org/2000/svg" viewBox="0 0 64 64">
  <path d="M10.48,35.56c-.69.27-1.28.62-1.79,1-.39-1.22-.68-2.48-.86-3.76-.08-.55.3-1.05.85-1.13.54-.08,1.05.29,1.13.84.15,1.03.37,2.05.67,3.05Z"/>
  <path d="M55.63,35.45c-.1.37-.2.74-.32,1.11-.51-.38-1.09-.73-1.78-.99.06-.2.12-.41.17-.62.14-.54.68-.86,1.22-.72.53.14.85.69.71,1.22Z"/>
  <path d="M50.2,26.88c-.45-3.42-1.82-6.55-3.88-9.11l4.68-4.68c-1.84-1.85-5.48-1.34-8.8.9-2.14-1.44-4.61-2.41-7.26-2.84v-7.15c-2.67,0-4.92,3.06-5.63,7.11-2.98.44-5.71,1.58-8.04,3.27l-4.12-4.12c-1.67,1.67-1.41,4.79.3,7.82-1.82,2.36-3.07,5.18-3.56,8.25h-5.83c0,2.35,2.39,4.38,5.74,5.31.16,1.21.43,2.39.82,3.51,2.31.34,3.69,1.61,4.74,2.57,1.06.97,1.76,1.61,3.31,1.61.83,0,1.41-.18,1.94-.5-2.86-2.21-4.7-5.68-4.7-9.57,0-6.67,5.41-12.08,12.09-12.08s12.09,5.41,12.09,12.08c0,3.9-1.84,7.36-4.71,9.57.53.32,1.12.5,1.95.5,1.55,0,2.25-.64,3.31-1.61,1.05-.96,2.42-2.22,4.73-2.57.33-.95.58-1.94.74-2.95h5.83c0-2.36-2.39-4.38-5.74-5.32Z"/>
  <path d="M28.391,35.911c.769-.405,1.695-.709,2.82-.811l7.286-7.008h-5.06l2.995-5.816h-6.583l-4.345,8.748h4.227l-1.339,4.887Z"/>
  <path d="M4.012,50.825c1.554,0,2.253-.642,3.312-1.613,1.226-1.124,2.905-2.665,6.017-2.665s4.791,1.541,6.017,2.665c1.06.972,1.759,1.613,3.312,1.613s2.253-.642,3.312-1.613c1.226-1.124,2.905-2.665,6.017-2.665s4.79,1.54,6.016,2.665c1.06.972,1.759,1.613,3.313,1.613s2.254-.642,3.313-1.613c1.227-1.125,2.906-2.665,6.017-2.665s4.791,1.54,6.018,2.665c1.06.972,1.76,1.613,3.313,1.613,0,0,0,0,0,0v-9.497c-4.665,0-4.666-4.277-9.331-4.277s-4.665,4.277-9.331,4.277-4.665-4.277-9.329-4.277-4.664,4.277-9.329,4.277-4.664-4.277-9.329-4.277-4.665,4.277-9.329,4.277v9.497s0,0,0,0Z"/>
  <path d="M59.99,52.825c-4.665,0-4.666-4.277-9.331-4.277s-4.665,4.277-9.331,4.277-4.665-4.277-9.329-4.277-4.665,4.277-9.329,4.277-4.664-4.277-9.329-4.277-4.665,4.277-9.329,4.277v7.175s55.978,0,55.978,0v-7.175Z"/>
  <path d="M55.169,26.799c-.487,0-.914-.356-.988-.854-.467-3.15-1.579-6.108-3.304-8.792-.299-.464-.164-1.083.3-1.382.466-.297,1.085-.164,1.382.301,1.88,2.924,3.092,6.147,3.601,9.581.081.546-.296,1.055-.843,1.136-.05.007-.099.011-.147.011Z"/>
  <path d="M44.525,10.466c-.183,0-.368-.05-.534-.155-1.955-1.239-4.078-2.163-6.31-2.746-.534-.14-.854-.686-.715-1.22.14-.535.688-.853,1.221-.715,2.432.635,4.744,1.642,6.874,2.992.467.296.605.914.31,1.38-.19.301-.515.465-.846.465Z"/>
  <path d="M20.533,9.833c-.35,0-.688-.184-.872-.51-.271-.481-.101-1.091.381-1.362,2.35-1.322,4.884-2.238,7.532-2.723.542-.095,1.064.261,1.163.804.1.543-.26,1.064-.804,1.164-2.43.445-4.755,1.285-6.911,2.498-.155.087-.323.128-.489.128Z"/>
  <path d="M9.335,24.328c-.084,0-.169-.01-.254-.032-.534-.14-.854-.686-.715-1.22.794-3.041,2.153-5.867,4.042-8.4.33-.443.957-.534,1.399-.204.442.33.534.957.204,1.399-1.733,2.325-2.981,4.919-3.71,7.709-.117.45-.523.748-.967.748Z"/>
</svg>