<?xml version="1.0" encoding="UTF-8"?>
<svg id="Glyph" xmlns="http://www.w3.org/2000/svg" viewBox="0 0 64 64">
  <path d="M17.139,34.19l-2.841,5.815c-.264.54.178,1.156.774,1.08l2.124-.273,4.467-4.468-2.116-2.463c-.68-.792-1.949-.629-2.407.309Z"/>
  <path d="M46.861,34.19c-.458-.938-1.727-1.101-2.407-.309l-4.218,4.909c-.391.456-.12,1.164.476,1.24l1.816.233c-1.62,3.298-4.738,5.725-8.471,6.386v-10.634s-4.116,4.117-4.116,4.117v6.517c-1.69-.3-3.244-.976-4.6-1.917l-2.947,2.947c2.661,2.046,5.984,3.27,9.605,3.27,6.739,0,12.47-4.215,14.762-10.145l2.169.279c.596.076,1.038-.54.774-1.08l-2.841-5.815Z"/>
  <path d="M37.602,17.566c-.446-2.173-2.197-3.934-4.369-4.388-3.704-.774-6.966,2.032-6.966,5.6,0,2.438,1.525,4.515,3.671,5.342v3.903h-6.838c-1.077,0-2.058.775-2.165,1.846-.123,1.232.841,2.27,2.048,2.27h2.884l11.563-11.566c.305-.922.391-1.944.172-3.008ZM31.997,20.979c-1.215,0-2.2-.985-2.2-2.2s.985-2.2,2.2-2.2,2.2.985,2.2,2.2-.985,2.2-2.2,2.2Z"/>
  <path d="M43.065,30.294c.093-.924-.426-1.738-1.2-2.088l-3.934,3.934h2.969c1.077,0,2.058-.775,2.165-1.846Z"/>
  <path d="M32,4c-15.464,0-28,12.536-28,28s12.536,28,28,28,28-12.536,28-28S47.464,4,32,4ZM8.675,32c0-12.882,10.443-23.325,23.325-23.325,5.634,0,10.801,1.998,14.833,5.323L14.001,46.836c-3.327-4.032-5.326-9.201-5.326-14.836ZM32,55.325c-5.615,0-10.765-1.985-14.79-5.29L50.033,17.206c3.306,4.026,5.292,9.177,5.292,14.794,0,12.882-10.443,23.325-23.325,23.325Z"/>
</svg>