<?xml version="1.0" encoding="UTF-8"?>
<svg id="Glyph" xmlns="http://www.w3.org/2000/svg" viewBox="0 0 64 64">
  <path d="M51.263,12.82c-7.322-7.322-20.577-5.543-30.177,4.053-9.591,9.598-11.371,22.849-4.052,30.168,3.629,3.629,9.075,5.147,14.942,4.166,5.433-.909,10.843-3.829,15.23-8.221,9.594-9.592,11.376-22.842,4.057-30.166ZM45.643,41.422c-4.922,4.928-11.338,7.871-17.16,7.871h-.001c-3.971,0-7.389-1.319-9.884-3.815-6.334-6.335-4.517-18.466,4.053-27.043,4.929-4.926,11.346-7.866,17.167-7.866,3.97,0,7.387,1.319,9.882,3.814,6.335,6.34,4.515,18.47-4.057,27.039Z"/>
  <g>
    <path d="M43.426,40.756l-4.596-4.596-6.65,3.07-1.698,7.92c4.32-.524,8.967-2.71,12.944-6.394Z"/>
    <path d="M25.11,32.18l2.84-6.97-4.616-4.576c-3.776,4.076-5.985,8.856-6.443,13.265l8.219-1.72Z"/>
    <path d="M36.4,20.93l2.757-8.33c-4.726.195-9.995,2.481-14.416,6.62l4.62,4.58,7.04-2.87Z"/>
    <polygon points="38.27 34.22 41.24 27.13 36.97 22.86 29.89 25.74 27.01 32.81 31.52 37.33 38.27 34.22"/>
    <path d="M43.16,27.7l-2.94,7.03,4.62,4.62c4.141-4.412,6.432-9.673,6.637-14.396l-8.317,2.746Z"/>
    <path d="M30.22,38.85l-4.71-4.71-8.71,1.83s-.005-.004-.008-.006c.075,3.153,1.122,6.001,3.219,8.099,2.165,2.165,5.13,3.2,8.401,3.216l1.808-8.429Z"/>
    <path d="M38.35,21.41l4.34,4.35,8.735-2.895c-.259-2.738-1.276-5.202-3.14-7.068-1.859-1.859-4.314-2.877-7.041-3.142l-2.895,8.755Z"/>
  </g>
  <path d="M56.6,17.57c-.83-2.29-2.14-4.38-3.92-6.16-1.77-1.77-3.85-3.09-6.18-3.95,7.65-5.3,12.6-2.45,12.6-2.45,0,0,2.96,5.09-2.5,12.56Z"/>
  <path d="M56.8,44.98c-.61.97-2.09.72-2.39-.4-.37-1.36-1.02-2.99-2.14-4.49,2.49-3.45,4.14-7.15,4.94-10.81,2.03,3.39,3.81,9.05-.41,15.7Z"/>
  <path d="M34.73,6.88c-3.71.82-7.4,2.51-10.79,4.96-1.5-1.13-3.12-1.77-4.48-2.13-1.11-.3-1.37-1.78-.4-2.4,6.63-4.21,12.28-2.45,15.67-.43Z"/>
  <path d="M39.96,50.66c-1.03,2.84-2.84,6.41-5.91,9.1,0,0-3.48-.87-4.94-6.27,1.05-.03,2.13-.13,3.2-.31,2.59-.43,5.17-1.29,7.65-2.52Z"/>
  <path d="M13.58,23.74c-1.88,3.64-2.9,7.43-3.02,11.06-5.57-1.43-6.46-5-6.46-5,2.81-3.2,6.58-5.04,9.48-6.06Z"/>
</svg>