<?xml version="1.0" encoding="UTF-8"?>
<svg id="Glyph" xmlns="http://www.w3.org/2000/svg" viewBox="0 0 64 64">
  <path d="M40.04,42.35h-12.32l-2.5,2.5h14.82c.41,0,.76-.34.76-.76v-.98c0-.42-.35-.76-.76-.76Z"/>
  <path d="M34.9,19.74h-5.8l-4.96,6.96c-.61.87-.94,1.88-.94,2.95,0,.94.77,1.7,1.71,1.7h1.75l9.64-9.65-1.4-1.96Z"/>
  <path d="M23.2,34.11v.7l1.46-1.46h-.7c-.41,0-.76.34-.76.76Z"/>
  <rect x="27.99" y="13.97" width="8.02" height="3.77" rx=".97" ry=".97"/>
  <path d="M38.72,31.35h.37c.94,0,1.71-.76,1.71-1.7,0-.12,0-.24-.02-.36l-2.06,2.06Z"/>
  <path d="M40.04,37.85h-7.82l-2.5,2.5h10.32c.41,0,.76-.34.76-.76v-.98c0-.42-.35-.76-.76-.76Z"/>
  <path d="M40.04,33.35h-3.32l-2.5,2.5h5.82c.41,0,.76-.34.76-.76v-.98c0-.42-.35-.76-.76-.76Z"/>
  <path d="M32,4c-15.464,0-28,12.536-28,28s12.536,28,28,28,28-12.536,28-28S47.464,4,32,4ZM8.675,32c0-12.882,10.443-23.325,23.325-23.325,5.634,0,10.801,1.998,14.833,5.323L14.001,46.836c-3.327-4.032-5.326-9.201-5.326-14.836ZM40.8,53.602v-5.752c0-.55-.46-1-1.01-1h-15.58c-.55,0-1.01.45-1.01,1v5.735c-2.177-.889-4.2-2.079-5.99-3.549L50.033,17.206c3.306,4.026,5.292,9.177,5.292,14.794,0,9.768-6.006,18.128-14.525,21.602Z"/>
</svg>