<?xml version="1.0" encoding="UTF-8"?>
<svg id="Glyph" xmlns="http://www.w3.org/2000/svg" viewBox="0 0 64 64">
  <path d="M59.989,34.139c-3.137,0-4.168-1.931-5.924-3.198l-7.531,15.724c-.332.694-1.034,1.136-1.804,1.136h-6.169l-4.827,7.249c-.368.554-.987.888-1.652.892h-.013c-.66,0-1.278-.325-1.651-.871l-6.704-9.8h-8.675c-.925,0-1.729-.634-1.945-1.533l-3.087-12.852c-1.802,1.265-2.815,3.255-5.997,3.255l-.011,25.861h56l-.011-25.861ZM15.638,55.001c-1.658,0-3.002-1.344-3.002-3.001s1.344-3.002,3.002-3.002,3.001,1.344,3.001,3.002-1.344,3.001-3.001,3.001ZM52,52c-1.271,0-2.302-1.031-2.302-2.302s1.031-2.302,2.302-2.302,2.302,1.031,2.302,2.302-1.031,2.302-2.302,2.302Z"/>
  <path d="M24.77,43.27l7.3,10.67,5.42-8.14h7.24l7.54-15.74c-.47-.13-1-.2-1.61-.2-4.67,0-4.67,4.28-9.33,4.28s-4.67-4.28-9.33-4.28-4.67,4.28-9.33,4.28-4.67-4.28-9.33-4.28c-.55,0-1.04.06-1.48.17l3.18,13.24h9.73Z"/>
  <path d="M14.842,28.007l3.364-8.3,3.521-.109c.663-.021,1.273-.368,1.627-.929l6.927-10.937v9.538l-3.89,5.38-.129,7.624c1.203-1.09,2.851-2.413,5.737-2.413,3.11,0,4.789,1.54,6.016,2.664,1.06.972,1.759,1.613,3.313,1.613s2.255-.642,3.314-1.613c1.01-.926,2.342-2.12,4.512-2.517.204-.037.417-.068.634-.093.28-.028.563-.054.871-.054.206,0,.389.023.583.036h0s.002,0,.003,0l-5.742-15.672h-6.269l-5.571-5.116-3.381-3.109v.004l-.004-.004-8.612,13.599-4.823.149-4.114,10.151c.203-.014.396-.038.613-.038.548,0,1.037.061,1.502.146Z"/>
</svg>