<?xml version="1.0" encoding="UTF-8"?>
<svg id="Glyph" xmlns="http://www.w3.org/2000/svg" viewBox="0 0 64 64">
  <path d="M54.03,36.27V7.42h-.01c.64-.69.75-1.76.17-2.57-.58-.8-1.65-1.09-2.53-.65-17.49,8.79-29.57,29.62-32.98,36.03.1.05.21.09.31.14l1.72.85c-.56.42-1.03.94-1.37,1.55l-1.24-.61c-1.15-.57-2.55-.1-3.12,1.05l-5.97,12.02c-.57,1.15-.1,2.55,1.05,3.12l2.85,1.41c1.15.57,2.55.1,3.12-1.05l4.88-9.81c.74.49,1.61.77,2.55.77.19,0,.39-.01.58-.03,2.57-.32,4.39-2.67,4.07-5.23-.3-2.34-2.28-4.04-4.57-4.08.37-.71.74-1.4,1.11-2.08.1.05.2.09.31.11.51.08,1.01.12,1.52.12.25,0,.5-.01.74-.03,2.68-.2,5.12-1.42,6.87-3.45,1.76-2.03,2.61-4.63,2.42-7.3-.11-1.44-.51-2.79-1.19-4.05,1.25.54,2.6.82,3.96.82.24,0,.48-.01.73-.03,5.52-.4,9.69-5.22,9.29-10.75-.07-.89-.25-1.78-.55-2.62-.01-.03-.04-.06-.06-.09,1.44-1.03,2.7-1.87,3.75-2.51-.13.08-.27.17-.41.26v27.54c-.71.31-1.2,1.01-1.2,1.83v2.78c0,.82.49,1.52,1.2,1.83v4.55c0,1.61-1.32,2.92-2.93,2.92s-2.92-1.31-2.92-2.92v-.65l.8.8c.39.39,1.03.38,1.42,0,.39-.4.38-1.03-.01-1.42l-2.51-2.5c-.28-.28-.71-.37-1.09-.21-.37.15-.61.52-.61.92v3.06c0,2.71,2.21,4.92,4.92,4.92s4.93-2.21,4.93-4.92v-4.55c.7-.31,1.2-1.01,1.2-1.83v-2.78c0-.82-.5-1.52-1.2-1.83ZM26.12,44.66c.03.21.02.42,0,.62l-2.19-1.17c-.49-.26-1.1-.08-1.36.41-.25.48-.08,1.09.41,1.35l2.2,1.17c-.39.32-.86.55-1.39.61-1.46.19-2.81-.86-3-2.32-.18-1.47.86-2.82,2.33-3,.12-.02.23-.03.34-.03,1.33,0,2.49,1,2.66,2.36ZM32.58,33.69c-1.41,1.63-3.36,2.61-5.51,2.77-.46.03-.92.01-1.38-.04,2.53-4.32,5.27-8.12,8.05-11.44.43.9.7,1.85.77,2.86.16,2.15-.53,4.22-1.93,5.85ZM39.86,22.45c-1.18.08-2.36-.11-3.45-.52,3.77-4.1,7.47-7.31,10.59-9.69.15.52.26,1.05.3,1.6.32,4.42-3.01,8.29-7.44,8.61Z"/>
</svg>