<?xml version="1.0" encoding="UTF-8"?>
<svg id="Glyph" xmlns="http://www.w3.org/2000/svg" viewBox="0 0 64 64">
  <path d="M13.341,12.479c3.11,0,4.79,1.54,6.017,2.665,1.06.971,1.759,1.612,3.312,1.612s2.254-.642,3.312-1.612c1.227-1.125,2.906-2.665,6.017-2.665s4.789,1.54,6.016,2.664c1.06.972,1.759,1.613,3.313,1.613s2.255-.642,3.314-1.613c1.227-1.124,2.906-2.664,6.017-2.664s4.79,1.54,6.017,2.664c1.059.972,1.76,1.613,3.314,1.613v-8.496c-4.665,0-4.666-4.277-9.331-4.277s-4.665,4.277-9.331,4.277-4.665-4.277-9.329-4.277-4.664,4.277-9.329,4.277-4.664-4.277-9.329-4.277-4.665,4.277-9.329,4.277v8.496c1.554,0,2.253-.642,3.313-1.613,1.227-1.124,2.905-2.664,6.016-2.664Z"/>
  <path d="M56,39.304c-3.287.413-6.533,1.256-9.362,2.169-1.154,1.916-2.622,4.012-4.493,6.211l-.328.386c-.832.98-1.726,2.032-2.671,3.024.86-.404,1.686-.811,2.431-1.174,10.348-5.041,14.423-10.616,14.423-10.616Z"/>
  <path d="M37.556,49.854c1.12-1.157,2.172-2.414,3.066-3.465,7.27-8.543,8.162-15.391,8.162-15.391-4.37,2.303-8.144,5.478-10.758,7.985.079,1.148.123,2.343.104,3.604l-.007.498c-.026,1.971-.062,4.512-.567,6.769Z"/>
  <path d="M40.784,28.665c1.658,0,3.001-1.344,3.001-3.001s-1.344-3.002-3.001-3.002-3.002,1.344-3.002,3.002,1.344,3.001,3.002,3.001Z"/>
  <path d="M21.312,28.665c0,1.271,1.031,2.302,2.302,2.302s2.302-1.031,2.302-2.302-1.031-2.302-2.302-2.302-2.302,1.031-2.302,2.302Z"/>
  <path d="M41.841,51.329c3,2.014,5.33,4.61,6.937,7.763.145.286.209.598.209.908h11.004v-13.831c-7.184,4.46-13.14,4.58-18.149,5.16Z"/>
  <path d="M35.371,50.331c.734-2.279.724-5.412.759-7.773.164-11.142-4.132-17.711-4.132-17.711-4.208,7.928-4.132,17.711-4.132,17.711,0,1.821,0,4.102.343,6.097-.675-.089-1.351-.164-2.028-.223-.306-2.076-.315-4.233-.315-5.874-.001-.142,0-1.482.185-3.5-2.616-2.518-6.422-5.733-10.835-8.059,0,0,.892,6.847,8.162,15.391.513.603,1.083,1.276,1.683,1.957-.918-.059-1.832-.096-2.736-.109-.047-.055-.098-.113-.144-.168l-.326-.385c-1.871-2.199-3.339-4.295-4.493-6.211-2.829-.914-6.074-1.757-9.362-2.169,0,0,3.253,4.432,11.29,8.966-8.401.29-15.279,2.126-15.279,2.126v9.603h42.984c-2.525-4.958-6.768-7.941-11.624-9.669Z"/>
</svg>