<?xml version="1.0" encoding="UTF-8"?>
<svg id="Glyph" xmlns="http://www.w3.org/2000/svg" viewBox="0 0 64 64">
  <path d="M59.99,51.822c-4.665,0-4.666-4.277-9.331-4.277s-4.665,4.277-9.331,4.277-4.665-4.277-9.329-4.277-4.665,4.277-9.329,4.277-4.664-4.277-9.329-4.277-4.665,4.277-9.329,4.277v8.175s55.978,0,55.978,0v-8.175Z"/>
  <path d="M50.711,26.499c2.44,0,4.548-1.914,4.566-4.354,0-.016,0-.033,0-.049,0-3.303-2.513-6.128-6.064-7.271.07-1.832-.727-3.489-2.039-4.736-1.544-1.466-3.825-2.395-6.368-2.395-.444,0-.881.03-1.306.083-1.393-2.239-4.227-3.774-7.5-3.774s-6.107,1.536-7.5,3.774c-.426-.054-.862-.083-1.306-.083-2.39,0-4.55.819-6.08,2.136-1.473,1.266-2.403,3.025-2.327,4.995-3.551,1.142-6.064,3.968-6.064,7.271,0,.016,0,.033,0,.049.018,2.44,2.126,4.354,4.566,4.354h37.422Z"/>
  <path d="M20.194,42.584c-2.41,0-4.541,1.196-5.843,3.023.816.096,1.516.305,2.131.576.94-.979,2.249-1.599,3.712-1.599h1.669c-1.066,1.122-1.73,2.626-1.761,4.285.59.486,1.161.816,1.994.917v-.798c0-2.429,1.976-4.404,4.404-4.404h1.006v2.361c1.078-.758,2.485-1.401,4.493-1.401s3.417.644,4.495,1.403v-2.363h1.006c2.429,0,4.404,1.976,4.404,4.404v.798c.833-.102,1.404-.432,1.994-.918-.031-1.658-.695-3.162-1.761-4.284h1.669c1.463,0,2.772.619,3.712,1.598.616-.271,1.315-.48,2.132-.576-1.303-1.826-3.434-3.023-5.843-3.023h-7.312v-2.409l10.307-11.676h-5.225l-5.083,4.816v-4.816h-8.989v4.835l-5.092-4.835h-5.212l10.304,11.651v2.434h-7.312Z"/>
</svg>