<?xml version="1.0" encoding="UTF-8"?>
<svg id="Glyph" xmlns="http://www.w3.org/2000/svg" viewBox="0 0 64 64">
  <path d="M17.22,28.19l5.05,1.77c.07-.77.24-1.54.51-2.3.27-.76.62-1.48,1.03-2.13l-5.03-1.77c-1.23-.43-2.57.21-3,1.43-.42,1.23.22,2.57,1.44,3Z"/>
  <path d="M42.95,32.25c-.08.77-.25,1.55-.52,2.31s-.61,1.47-1.03,2.12l3.38,1.19c1.03-.95,2.4-2.12,4.63-2.45-.24-.63-.74-1.16-1.42-1.4l-5.04-1.77Z"/>
  <path d="M22.67,39.6c1.22,0,1.91-.4,2.67-1.04-1.77-1.72-2.87-4.03-3.1-6.49l-5.42-1.9-1.86,5.31c2.11.42,3.4,1.6,4.4,2.51,1.06.97,1.76,1.61,3.31,1.61Z"/>
  <path d="M36.05,21.29c3.96,1.39,6.55,4.92,6.92,8.85l5.42,1.9,3.42-9.74-28.69-10.08-3.42,9.74,5.43,1.91c2.73-2.83,6.97-3.97,10.92-2.58Z"/>
  <path d="M33.6,25.54c-.55.6-5,4.62-5.25,5.28-1,1.64-.53,3.75.81,5.02.79-.31,1.72-.51,2.84-.51,1.17,0,2.14.22,2.95.56.66-.59,1.12-1.39,1.24-2.32.22-.64-.76-6.63-.8-7.4-.13-.82-1.17-1.19-1.79-.63Z"/>
  <path d="M50.659,37.327c-4.665,0-4.665,4.277-9.331,4.277s-4.665-4.277-9.329-4.277-4.664,4.277-9.329,4.277-4.664-4.277-9.329-4.277-4.665,4.277-9.329,4.277v9.496s0,0,0,0c1.554,0,2.254-.642,3.313-1.612,1.226-1.125,2.906-2.665,6.016-2.665s4.79,1.54,6.016,2.665c1.059.971,1.759,1.612,3.313,1.612s2.253-.642,3.312-1.612c1.227-1.125,2.906-2.665,6.017-2.665s4.79,1.54,6.016,2.665c1.059.971,1.759,1.612,3.313,1.612s2.255-.642,3.314-1.613c1.227-1.124,2.906-2.664,6.017-2.664s4.79,1.54,6.017,2.664c1.06.972,1.76,1.613,3.314,1.613v-9.496c-4.665,0-4.666-4.277-9.331-4.277Z"/>
  <path d="M41.328,53.1c-4.665,0-4.665-4.277-9.329-4.277s-4.664,4.277-9.329,4.277-4.664-4.277-9.329-4.277-4.665,4.277-9.329,4.277v7.175s55.978,0,55.978,0v-7.175c-4.665,0-4.666-4.277-9.331-4.277s-4.665,4.277-9.331,4.277Z"/>
  <path d="M55.72,19.06c-.42,1.23-1.76,1.87-2.99,1.44l-29.21-10.26c-1.22-.43-1.87-1.77-1.44-2.99.43-1.23,1.77-1.87,3-1.44l4.43,1.55.74-2.12c.34-.97,1.4-1.47,2.36-1.14l4.45,1.56c.96.34,1.47,1.4,1.13,2.36l-.74,2.13,16.84,5.92c1.22.43,1.86,1.77,1.43,2.99Z"/>
</svg>