<?xml version="1.0" encoding="UTF-8"?>
<svg id="Glyph" xmlns="http://www.w3.org/2000/svg" viewBox="0 0 64 64">
  <rect x="43.891" y="3.022" width="6.481" height="11.251" rx="1.97" ry="1.97" transform="translate(20.748 48.648) rotate(-66.988)"/>
  <path d="M30.54,23.29c-.37.15-.67.44-.83.81-.16.38-.16.79-.01,1.17.15.38.44.67.82.83l15.59,6.62c.37.16.79.16,1.16.01.38-.15.68-.44.83-.82.16-.37.17-.79.02-1.16-.16-.38-.45-.68-.82-.83l-.47-.2-4.68-1.99-10.44-4.43c-.19-.09-.39-.13-.59-.13s-.39.04-.58.12Z"/>
  <path d="M32.96,21.65l6.27,2.66,8.39,3.57c1.03.43,2.22-.05,2.66-1.08.47-1.12.59-2.34.33-3.53l-1.82-8.24c-.11-.04-.23-.08-.34-.13l-6.73-2.86c-.11-.05-.22-.1-.33-.16l-7.19,4.42c-1.04.64-1.84,1.57-2.31,2.69-.22.5-.22,1.05-.02,1.55.2.51.59.9,1.09,1.11Z"/>
  <path d="M45.3,37.38c.38-.15.67-.44.83-.82.16-.37.16-.79.01-1.17-.15-.37-.44-.67-.81-.83l-15.59-6.62c-.2-.08-.4-.12-.6-.12-.59,0-1.16.35-1.4.93-.16.37-.16.79-.01,1.17.15.37.44.67.82.83l15.58,6.62c.38.16.79.16,1.17.01Z"/>
  <path d="M42.29,45.6c.13-.31.13-.64.01-.96-.13-.31-.36-.55-.67-.68l-.25-.1-15.59-6.62v-.01l-.25-.1c-.63-.27-1.37.03-1.64.66l-1.69,3.97c2.9,1.39,4.28,4.76,3.2,7.77,1.14.71,1.98,1.73,2.48,2.95.57,1.42.61,2.96.11,4.39l3.99,1.7c1.09.46,2.28.47,3.38.03,1.09-.44,1.95-1.28,2.41-2.37l4.51-10.63Z"/>
  <path d="M43.35,39.21l-15.59-6.62c-.19-.08-.39-.12-.59-.12-.19,0-.39.03-.57.11-.38.15-.68.44-.83.81-.16.38-.17.79-.01,1.17.15.38.44.67.81.83l15.6,6.63c.37.15.78.15,1.16,0,.37-.15.67-.44.83-.81.16-.38.16-.79.01-1.17-.15-.38-.44-.67-.82-.83Z"/>
  <path d="M59.989,20.323c-4.519,0-4.674-4.003-8.921-4.253l1.491,6.773c.352,1.595.199,3.233-.44,4.739-.435,1.021-1.256,1.797-2.253,2.183.037.077.072.156.104.236.353.871.344,1.828-.024,2.695s-1.052,1.539-1.925,1.891c-.014.006-.027.012-.042.017.007.016.013.03.019.046.352.87.343,1.827-.025,2.693-.368.867-1.052,1.539-1.925,1.891-.014.006-.027.012-.042.017.007.016.013.03.019.046.352.87.343,1.827-.025,2.693-.359.847-1.019,1.507-1.862,1.865.007.015.013.029.019.044.325.804.317,1.689-.025,2.492l-4.513,10.626c-.54,1.271-1.465,2.293-2.632,2.984h23.015l-.011-39.677Z"/>
  <path d="M26.11,56.215c.342-.981.315-2.014-.077-2.985-.34-.842-.907-1.516-1.685-2.001-.799-.499-1.142-1.487-.823-2.374.732-2.033-.223-4.355-2.175-5.285-.967-.461-1.399-1.602-.98-2.588l1.687-3.973c.351-.825,1.015-1.45,1.818-1.761-.327-.854-.311-1.788.049-2.635.369-.867,1.052-1.538,1.924-1.89l.042-.018c-.006-.014-.012-.028-.018-.043-.352-.874-.343-1.832.025-2.697.378-.893,1.096-1.569,1.966-1.907-.006-.014-.012-.028-.018-.042-.352-.871-.344-1.829.024-2.695.368-.867,1.051-1.538,1.924-1.891.08-.032.161-.062.242-.088-.007-.018-.015-.034-.021-.052-.403-.998-.394-2.095.028-3.087.334-.786.792-1.497,1.347-2.123-4.059.359-4.273,4.242-8.723,4.242-4.664,0-4.664-4.277-9.329-4.277s-4.665,4.277-9.329,4.277l-.011,39.677h26.246l-3.029-1.287c-.969-.412-1.453-1.504-1.107-2.498ZM12.892,49.104l-.372-2.905c-.119-.931.674-1.723,1.605-1.604l2.905.372c1.181.151,1.673,1.593.831,2.435l-2.533,2.533c-.842.842-2.284.35-2.435-.831ZM18.988,58.561c-1.445,0-2.617-1.172-2.617-2.617s1.172-2.617,2.617-2.617,2.617,1.172,2.617,2.617-1.172,2.617-2.617,2.617Z"/>
</svg>