<?xml version="1.0" encoding="UTF-8"?>
<svg id="Glyph" xmlns="http://www.w3.org/2000/svg" viewBox="0 0 64 64">
  <path d="M50.659,48.823c-4.665,0-4.665,4.277-9.331,4.277s-4.665-4.277-9.329-4.277-4.664,4.277-9.329,4.277-4.664-4.277-9.329-4.277-4.665,4.277-9.329,4.277v7.175s55.978,0,55.978,0v-7.175c-4.665,0-4.666-4.277-9.331-4.277Z"/>
  <path d="M4.012,51.101c1.554,0,2.253-.642,3.312-1.612,1.227-1.125,2.906-2.665,6.017-2.665s4.79,1.54,6.017,2.665c1.06.971,1.759,1.612,3.312,1.612s2.253-.642,3.312-1.612c1.227-1.125,2.906-2.665,6.017-2.665s4.789,1.54,6.016,2.664c1.06.972,1.759,1.613,3.313,1.613s2.255-.642,3.314-1.613c1.226-1.124,2.905-2.664,6.016-2.664s4.791,1.54,6.018,2.664c1.06.972,1.76,1.613,3.313,1.613,0,0,0,0,0,0v-9.496c-2.709,0-3.847-1.44-5.237-2.65-3.183,4.182-8.197,6.899-13.846,6.899-4.65,0-9.021-1.811-12.31-5.099-.428-.428-.829-.877-1.206-1.34-1.185,1.086-2.351,2.19-4.721,2.19-4.664,0-4.664-4.277-9.329-4.277s-4.665,4.277-9.329,4.277v9.496s0,0,0,0Z"/>
  <g>
    <path d="M40.906,13.036c-8.51,0-15.409,6.899-15.409,15.409,0,8.51,6.899,15.409,15.409,15.409s15.409-6.899,15.409-15.409-6.899-15.409-15.409-15.409ZM33.833,30.443c.815,0,1.521-.557,1.716-1.354.132-.537.679-.866,1.209-.734.537.132.865.673.734,1.209-.415,1.695-1.92,2.88-3.659,2.88-2.081,0-3.773-1.693-3.773-3.774v-3.389c0-2.081,1.692-3.773,3.773-3.773,1.739,0,3.244,1.184,3.659,2.879.131.536-.197,1.077-.734,1.209-.53.129-1.077-.197-1.209-.734-.194-.797-.9-1.354-1.716-1.354-.978,0-1.773.796-1.773,1.773v3.389c0,.979.796,1.774,1.773,1.774ZM45.917,28.978c0,1.911-1.556,3.467-3.467,3.467h-.541c-1.911,0-3.467-1.556-3.467-3.467v-4.006c0-1.911,1.556-3.466,3.467-3.466h.541c1.911,0,3.467,1.555,3.467,3.466v4.006ZM51.053,34.067h-3.401c-.457,0-.856-.311-.969-.754-.113-.443.09-.906.491-1.125,2.534-1.376,2.5-2.796,2.498-2.81-.004-.036-.006-.072-.006-.108,0-.28-.228-.508-.508-.508s-.507.228-.507.508c0,.553-.447,1-1,1s-1-.447-1-1c0-1.383,1.125-2.508,2.507-2.508,1.369,0,2.485,1.103,2.508,2.466.021.332,0,1.516-1.122,2.839h.509c.553,0,1,.447,1,1s-.447,1-1,1Z"/>
    <path d="M41.908,23.506h.542c.81,0,1.467.657,1.467,1.467v4.005c0,.81-.657,1.467-1.467,1.467h-.541c-.81,0-1.467-.657-1.467-1.467v-4.006c0-.809.657-1.466,1.466-1.466Z"/>
  </g>
  <path d="M23.687,13.796c.442-3.037,2.388-2.982,2.785-2.943.541.054,1.037-.331,1.103-.876.065-.548-.327-1.046-.875-1.111-1.056-.124-2.854.223-4.003,1.896-1.149-1.674-2.946-2.021-4.004-1.896-.544.065-.929.555-.87,1.1.059.545.546.939,1.096.888.396-.038,2.388-.075,2.787,2.943,0,0,.186.862.994.869,0,0,.862,0,.988-.869ZM15.007,24.806c.4-3.064,2.387-2.982,2.785-2.943.543.057,1.038-.33,1.103-.876.065-.548-.327-1.046-.875-1.111-1.057-.125-2.854.222-4.003,1.896-1.149-1.674-2.946-2.021-4.004-1.896-.544.065-.929.555-.87,1.1.059.544.543.938,1.096.888.397-.037,2.388-.075,2.787,2.943,0,0,.095.811.994.869,0,0,.877-.02.988-.869ZM8.991,7.671c.468-3.071,2.387-2.979,2.785-2.943.539.058,1.038-.331,1.103-.876.065-.548-.327-1.046-.875-1.111-1.055-.126-2.853.221-4.003,1.896-1.149-1.674-2.945-2.022-4.004-1.896-.548.065-.94.563-.875,1.111.065.548.564.933,1.111.875.095-.013,2.355-.242,2.776,2.944,0,0,.081.764.988.869,0,0,.866-.026.994-.869Z"/>
</svg>