<?xml version="1.0" encoding="UTF-8"?>
<svg id="Glyph" xmlns="http://www.w3.org/2000/svg" viewBox="0 0 64 64">
  <path d="M19.36,48.21c1.06.97,1.76,1.61,3.31,1.61.87,0,1.48-.2,2.03-.56-.06-7.21,1.62-10.76,1.62-10.76,1.08-3.44,2.68-5.69,4.35-7.16-10.47,2.62-12.29,11.58-12.55,15.81.47.35.87.72,1.24,1.06Z"/>
  <path d="M8.53,9.62c2.08.7,4.63,2.7,5.6,8.2-2.66,4.95-6.22,14.73-3.32,28.11.72-.24,1.55-.39,2.53-.39,1.12,0,2.06.2,2.85.5,1.45-16.95,18.37-17.48,21.19-17.44.25-.01.4.01.4.01l17.8-.02c2.44,0,4.41-1.98,4.41-4.41,0-4.05-3.68-4.4-6.12-4.4,0,0-.52-9.49-10.19-14.33,0,0-9.09-3.84-18.44,1-1.46-.96-9.05-5.36-17.13.65-.94.7-.7,2.14.42,2.52ZM44.46,14.87c1.28,0,2.31,1.03,2.31,2.31,0,1.27-1.03,2.3-2.31,2.3-1.27,0-2.31-1.03-2.31-2.3,0-1.28,1.04-2.31,2.31-2.31Z"/>
  <path d="M41.328,51.819c-4.665,0-4.665-4.277-9.329-4.277s-4.664,4.277-9.329,4.277-4.664-4.277-9.329-4.277-4.665,4.277-9.329,4.277v8.175s55.978,0,55.978,0v-8.175c-4.665,0-4.666-4.277-9.331-4.277s-4.665,4.277-9.331,4.277Z"/>
  <path d="M37.15,30.599c-.097,0-.187.006-.283.007v6.231c0,1.226,1.188,2.106,2.355,1.732,2.625-.843,6.657-2.943,7.89-7.971-4.59.004-9.334.009-9.335.009-.05,0-.627-.007-.627-.007Z"/>
</svg>