<svg xmlns="http://www.w3.org/2000/svg" viewBox="0 0 32 32"><g id="angelfish"><path d="M29.78,15.38a25.58,25.58,0,0,0-4.16-4.16A28.22,28.22,0,0,0,14.83,6,22.13,22.13,0,0,0,8.07,5,1,1,0,0,0,7,5.84a1,1,0,0,0,.21.79c.29.36.63.37,1.09.4a32.3,32.3,0,0,1,6.07.9c.86.34,1.5.78,1.66,1.34.1.36.08,1.38-2,3.32a5.71,5.71,0,0,0-.47-.39A6.67,6.67,0,0,0,9,11H3a1,1,0,0,0,0,2H7.85a4,4,0,0,0,.2,1.32A4.09,4.09,0,0,0,9.14,16a4.09,4.09,0,0,0-1.09,1.68A4,4,0,0,0,7.85,19H3a1,1,0,0,0,0,2H9a6.67,6.67,0,0,0,4.63-1.2,5.71,5.71,0,0,0,.47-.39c2.05,1.94,2.07,3,2,3.32-.16.56-.8,1-1.66,1.34a32.3,32.3,0,0,1-6.07.9c-.46,0-.8,0-1.09.4a1,1,0,0,0-.21.79A1,1,0,0,0,8.07,27h.19a21.54,21.54,0,0,0,6.57-1,28.37,28.37,0,0,0,10.78-5.23h0a25.58,25.58,0,0,0,4.16-4.16A1,1,0,0,0,29.78,15.38ZM14.65,17.24A1,1,0,0,0,14,17h-.11a1,1,0,0,0-.69.39,3.79,3.79,0,0,1-.8.8A4.42,4.42,0,0,1,9.84,19a2.09,2.09,0,0,1,.11-.71,2.38,2.38,0,0,1,1.39-1.38,1,1,0,0,0,0-1.88A2.38,2.38,0,0,1,10,13.68,2.09,2.09,0,0,1,9.84,13a4.42,4.42,0,0,1,2.56.83,3.79,3.79,0,0,1,.8.8,1,1,0,0,0,.69.39,1,1,0,0,0,.76-.23c2.51-2.15,3.62-4,3.39-5.64a25.75,25.75,0,0,1,3.17,1.53,5.4,5.4,0,0,1,.8,3.24,5.71,5.71,0,0,1-.57,1.79A3.6,3.6,0,0,0,21,18.3a3.45,3.45,0,0,0,1.88,2A26.13,26.13,0,0,1,18,22.88C18.27,21.24,17.16,19.39,14.65,17.24Zm10.1,1.65c-1-.33-1.66-.75-1.79-1.19-.09-.27,0-.54.31-1.2A7.62,7.62,0,0,0,24,14.11a6.1,6.1,0,0,0,0-1.65l.44.32A24.62,24.62,0,0,1,27.7,16,23.68,23.68,0,0,1,24.75,18.89Z"/></g></svg>