<svg xmlns="http://www.w3.org/2000/svg" viewBox="0 0 32 32"><g id="anglerfish"><path d="M25.8,8.6a1.07,1.07,0,0,1,.14-.16A2.49,2.49,0,1,0,25,6.5v0a6.47,6.47,0,0,0-.8.86,6.14,6.14,0,0,0-1.08,2.42,3.24,3.24,0,0,0-.77-.42l-.08,0a7.34,7.34,0,0,0-4-3,8,8,0,0,0-4.58,0,1,1,0,0,0-.71,1V10a1.55,1.55,0,0,0,0,.21,18.83,18.83,0,0,0-4.6,2.71,5.33,5.33,0,0,0-1-1.36A5.76,5.76,0,0,0,2.91,10a1,1,0,0,0-.86.78,6.85,6.85,0,0,0,0,2.92A6.74,6.74,0,0,0,3,16a6.74,6.74,0,0,0-1,2.27,6.85,6.85,0,0,0,0,2.92,1,1,0,0,0,.86.78c.14,0,.35,0,.61,0a5.52,5.52,0,0,0,3.94-1.56,5.14,5.14,0,0,0,1.11-1.63,10.91,10.91,0,0,0,1.43.84V22a1,1,0,0,0,.54.89A10.65,10.65,0,0,0,15.25,24l.67,0a9.68,9.68,0,0,0,4.61-1.5.9.9,0,0,0,.2-.19,5.84,5.84,0,0,0,2.72.71h1.16a4.57,4.57,0,0,0,4.59-3.86,2.16,2.16,0,0,0-.47-1.83A1,1,0,0,0,28,17H25.77l2.09-3.49A1,1,0,0,0,27.28,12c-1.3-.38-2-.57-2.31-.69A4.47,4.47,0,0,1,25.8,8.6ZM27.5,6a.5.5,0,1,1-.5.5A.5.5,0,0,1,27.5,6ZM15,8.09a5.84,5.84,0,0,1,2.7.16A5.33,5.33,0,0,1,19.2,9a15.47,15.47,0,0,0-4.2.54ZM3.9,20A5,5,0,0,1,4,18.7a4.76,4.76,0,0,1,1-2.05,1,1,0,0,0,0-1.3,4.76,4.76,0,0,1-1-2A5,5,0,0,1,3.9,12,3.33,3.33,0,0,1,7,14.85v2.23s0,0,0,0a3.45,3.45,0,0,1-1,1.9A3.42,3.42,0,0,1,3.9,20Zm11.89,2A8.5,8.5,0,0,1,12,21.35v-1a13.29,13.29,0,0,0,2.64.27,12.21,12.21,0,0,1,3.1.36c.29.08.57.2.86.31A7.71,7.71,0,0,1,15.79,22Zm7.34-3.49A1,1,0,0,0,24,19h3.2a2.58,2.58,0,0,1-2.59,2H23.45a4,4,0,0,1-2-.6A12.18,12.18,0,0,0,18.26,19a13.45,13.45,0,0,0-3.57-.44,8.88,8.88,0,0,1-3.33-.53A8.38,8.38,0,0,1,9,16.64V15a14.88,14.88,0,0,1,11.85-3.9c.39.06.73.13.86.16a1.77,1.77,0,0,1,.7.57,5.59,5.59,0,0,0,1,1,6.57,6.57,0,0,0,2.06.78l-2.34,3.89A1,1,0,0,0,23.13,18.49Z"/></g></svg>