<svg fill="#000000" xmlns="http://www.w3.org/2000/svg"  viewBox="0 0 24 24" width="24px" height="24px"><path d="M 9 2.6308594 L 9 8.0839844 C 7.6746845 8.7376379 6.0566059 9.3461048 4.8769531 9.4648438 C 4.5209725 9.3836841 0.93164062 8.0429688 0.93164062 8.0429688 C 0.22064063 7.7789688 -0.31410938 8.806875 0.21289062 9.421875 L 1.4648438 10.882812 C 1.9868437 11.491813 1.9868438 12.488656 1.4648438 13.097656 L 0.21289062 14.558594 C -0.31410938 15.173594 0.22164063 16.2015 0.93164062 15.9375 C 0.93164063 15.9375 4.839 14.402344 5 14.402344 L 5 14.398438 C 5.2390266 14.443967 5.282762 14.440771 5.6210938 14.523438 C 6.3141434 14.692773 7.0908913 14.981463 7.4042969 15.173828 L 6.8632812 15.75 L 8.4648438 20.558594 L 12.466797 17.890625 L 14.0625 17.890625 C 13.945903 18.874436 14.151363 19.973451 14.990234 20.767578 L 15.789062 21.525391 L 19.21875 17.115234 C 19.359828 17.035752 19.504792 16.964202 19.640625 16.873047 L 22.708984 14.814453 C 23.564009 14.241161 24 13.256508 24 12.228516 C 24 11.242565 23.599651 10.297746 22.808594 9.7109375 L 18.902344 6.8242188 L 18.867188 6.8007812 C 18.06481 6.3063477 17.155981 6.0410156 16.234375 6.0410156 L 14.681641 6.0410156 L 9 2.6308594 z M 11 6.1640625 L 11.675781 6.5703125 L 11.644531 6.5898438 C 11.644531 6.5898438 11.360681 6.7717828 11 6.9902344 L 11 6.1640625 z M 13.861328 8.0410156 L 16.234375 8.0410156 C 16.770726 8.0410156 17.304349 8.1931366 17.806641 8.5 L 21.619141 11.318359 C 21.80367 11.456322 22 11.811547 22 12.228516 C 22 12.664523 21.784679 13.025636 21.595703 13.152344 L 18.525391 15.210938 C 17.84842 15.665242 17.117174 15.890625 16.376953 15.890625 L 12.287109 15.890625 C 12.02226 15.890625 11.757494 15.808905 11.498047 15.623047 L 8.65625 13.587891 C 7.8816052 13.032977 6.9268305 12.783151 6.0957031 12.580078 C 5.6603219 12.4737 5.2801409 12.39884 5 12.347656 L 5 11.462891 C 6.7129705 11.330365 8.480689 10.576908 9.9375 9.8535156 C 11.474778 9.0901673 12.53948 8.3855316 12.632812 8.3242188 C 13.033131 8.1337342 13.445403 8.0410156 13.861328 8.0410156 z M 19 11 A 1 1 0 0 0 19 13 A 1 1 0 0 0 19 11 z M 9.1992188 16.435547 L 10.087891 17.072266 L 9.5351562 17.441406 L 9.1992188 16.435547 z"/></svg>