<svg xmlns="http://www.w3.org/2000/svg" viewBox="0 0 32 32"><g id="clownfish"><path d="M30,15.84a12.73,12.73,0,0,0-8-7.12,6,6,0,0,0-3.55-3.43,5.79,5.79,0,0,0-3.62,0,1,1,0,0,0-.68.81,3.93,3.93,0,0,0,0,1.28,4.3,4.3,0,0,0,.52,1.54,14,14,0,0,0-5.35,3.55,5.74,5.74,0,0,0-2.87-2.18,5.79,5.79,0,0,0-3.62,0,1,1,0,0,0-.69.85,6.74,6.74,0,0,0,1.19,4.7l.32.39a5.78,5.78,0,0,0-1.49,5.22,1,1,0,0,0,.67.74,5.79,5.79,0,0,0,3.62,0,5.7,5.7,0,0,0,3-2.32A15.36,15.36,0,0,0,12.82,22a5.93,5.93,0,0,0-.67,2.1,5,5,0,0,0,0,1.22,1,1,0,0,0,.68.84,6.13,6.13,0,0,0,1.84.29,5.75,5.75,0,0,0,1.79-.29,6,6,0,0,0,3.36-3c.39-.05.77-.1,1.14-.18h0a1,1,0,0,0,.41-.1A14.69,14.69,0,0,0,30,16.77,1,1,0,0,0,30,15.84Zm-7,4.39a10.92,10.92,0,0,1-1.64.6,9,9,0,0,1,.3-10.1,11.4,11.4,0,0,1,1.57.67s-.07.06-.09.1a8.94,8.94,0,0,0-1.12,3.38A9.32,9.32,0,0,0,23.05,20.23Zm-4,1a15.16,15.16,0,0,1-2.52-.15L16,21V10.58a9.62,9.62,0,0,1,3.06-.34c.18,0,.35,0,.53.06A11.22,11.22,0,0,0,18,16a10.87,10.87,0,0,0,1.33,5.21Zm-7.13-8.53A11.48,11.48,0,0,1,14,11.36v9a13.14,13.14,0,0,1-2.06-1.08A1,1,0,0,0,12,19V13A.94.94,0,0,0,11.94,12.71ZM16.09,7.1V7a3.58,3.58,0,0,1,1.7.15,3.68,3.68,0,0,1,1.57,1.07l-.21,0a11.54,11.54,0,0,0-2.46.15A2.68,2.68,0,0,1,16.09,7.1ZM8.9,17.26a1,1,0,0,0-.73.64,4.11,4.11,0,0,1-2.38,2.39A3.68,3.68,0,0,1,4,20.43a4,4,0,0,1,.08-1,4.07,4.07,0,0,1,1.62-2.4,1,1,0,0,0,.4-.8,1,1,0,0,0-.39-.81,3.79,3.79,0,0,1-.8-.8A4.48,4.48,0,0,1,4.07,12a3.66,3.66,0,0,1,1.72.15,4.11,4.11,0,0,1,2.38,2.39,1,1,0,0,0,.81.65,1,1,0,0,0,.95-.42l.07-.1v3l-.17-.17A1,1,0,0,0,8.9,17.26Zm6.92,7a3.66,3.66,0,0,1-1.69.15v-.09a3.93,3.93,0,0,1,.56-1.59c.52.13,1,.23,1.57.31.38.06.77.1,1.16.13A3.64,3.64,0,0,1,15.82,24.29Zm9-5.06a7.23,7.23,0,0,1-.74-4.11,7.07,7.07,0,0,1,.88-2.62v0a10.85,10.85,0,0,1,3,3.68A13.41,13.41,0,0,1,24.79,19.23Z"/></g></svg>