<svg fill="#000000" xmlns="http://www.w3.org/2000/svg"  viewBox="0 0 24 24" width="24px" height="24px"><path d="M 5 2 C 3 2 2 3.79 2 6 C 2 6.714 2.1151719 7.3731719 2.3261719 7.9511719 C 2.1371719 8.2561719 2.0234375 8.614 2.0234375 9 C 2.0234375 9.9930265 2.7488075 10.810112 3.6972656 10.966797 L 6.421875 12.330078 C 6.312227 12.494431 6.2250349 12.612125 6.1152344 12.779297 L 2.7167969 12.023438 L 2.2832031 13.976562 L 4.9589844 14.570312 C 4.7348086 14.923706 4.5861782 15.17894 4.5 15.359375 A 1.0001 1.0001 0 0 0 4.4863281 15.392578 L 2.2246094 16.039062 L 2.7753906 17.960938 L 5.5664062 17.164062 C 5.9066518 17.417912 6.2340647 17.664248 6.6367188 17.949219 L 4.2929688 20.292969 L 5.7070312 21.707031 L 8.3027344 19.111328 C 8.4350071 19.202657 8.5696151 19.297268 8.6992188 19.386719 C 9.5820361 19.995903 10.415066 20.573704 11.001953 21 C 11.273911 21.198946 11.433541 21.300019 11.628906 21.380859 A 1.0001 1.0001 0 0 0 12.458984 21.351562 C 12.630291 21.265912 12.755172 21.177466 12.996094 21.001953 A 1.0001 1.0001 0 0 0 12.998047 21.001953 C 13.651572 20.524172 14.705158 19.784471 15.681641 19.095703 L 18.292969 21.707031 L 19.707031 20.292969 L 17.335938 17.921875 C 17.731427 17.644087 18.080918 17.399692 18.419922 17.160156 L 21.224609 17.960938 L 21.775391 16.039062 L 19.564453 15.40625 A 1.0001 1.0001 0 0 0 19.503906 15.283203 C 19.460556 15.207343 19.405406 15.114187 19.333984 15.001953 C 19.264538 14.893028 19.12956 14.697407 19.046875 14.570312 L 21.716797 13.976562 L 21.283203 12.023438 L 17.857422 12.785156 C 17.749021 12.623787 17.666093 12.494588 17.560547 12.337891 L 20.296875 10.970703 C 21.25955 10.826164 22 10.003116 22 9 C 22 8.574 21.863719 8.1804688 21.636719 7.8554688 C 21.861719 7.3004688 22 6.676 22 6 C 22 3.79 20.66 2 19 2 L 19 6.3789062 L 15.732422 3.1113281 C 14.558422 4.2853281 14.876453 6.4975469 16.439453 8.0605469 C 16.918453 8.5395469 17.459719 8.8840937 18.011719 9.1210938 C 18.026258 9.3587211 18.085952 9.584676 18.175781 9.7929688 L 16.410156 10.675781 C 16.193513 10.401629 15.886406 10.062907 15.361328 9.7558594 C 14.610685 9.3169087 13.529674 9 12 9 C 10.52682 9 9.4651534 9.3038464 8.7109375 9.7363281 C 8.1692015 10.04697 7.8415559 10.394032 7.6015625 10.681641 L 5.84375 9.8027344 C 5.9360829 9.5917535 5.9967249 9.3626106 6.0117188 9.1210938 C 6.5637187 8.8840937 7.1049844 8.5395469 7.5839844 8.0605469 C 9.1469844 6.4975469 9.4659688 4.2853281 8.2929688 3.1113281 L 5 6.4023438 L 5 2 z M 12 11 C 13.259326 11 13.953457 11.249623 14.351562 11.482422 C 14.749669 11.715221 14.862529 11.902243 15.005859 12.115234 L 15.402344 12.703125 C 15.99589 13.583009 16.724601 14.676908 17.275391 15.519531 C 16.815092 15.844907 16.357441 16.168512 15.798828 16.560547 A 1.0001 1.0001 0 0 0 15.796875 16.560547 C 14.451937 17.50649 12.995993 18.532013 11.998047 19.257812 C 11.396586 18.824711 10.653334 18.304278 9.8359375 17.740234 L 9.8339844 17.740234 C 8.7078452 16.962959 7.5708395 16.159942 6.7226562 15.523438 C 7.2860961 14.647792 8.3992092 12.916715 8.9375 12.193359 A 1.0001 1.0001 0 0 0 8.9394531 12.193359 C 9.1316286 11.934301 9.293044 11.706971 9.7050781 11.470703 C 10.117112 11.234435 10.79518 11 12 11 z"/></svg>