<svg xmlns="http://www.w3.org/2000/svg" viewBox="0 0 32 32"><g id="crab"><path d="M29.94,22.9a6.15,6.15,0,0,0-3.62-3.61A5.45,5.45,0,0,0,24.66,19c.09-.3.18-.59.25-.86a3.15,3.15,0,0,0-.1-1.8,5.33,5.33,0,0,0,3-1.7,5.27,5.27,0,0,0,1.21-3,1.22,1.22,0,0,0,.19-.12c1-.86,1.11-2.52.3-4.93a8.22,8.22,0,0,0-2.09-3.28A1,1,0,0,0,26.43,3a1,1,0,0,0-.71.67,14,14,0,0,0-.37,1.62c0,.23-.08.46-.13.68H23a1,1,0,0,0-.8.4,1,1,0,0,0-.16.88,6.6,6.6,0,0,0,2.17,3.26,7,7,0,0,0,2.7,1.36,3.12,3.12,0,0,1-.67,1.45,3.8,3.8,0,0,1-3.16,1.15h0A17.56,17.56,0,0,0,16,13c-.32,0-.67,0-1.15,0A17.41,17.41,0,0,0,9,14.5h0a3.8,3.8,0,0,1-3.16-1.15,3.12,3.12,0,0,1-.67-1.45,7,7,0,0,0,2.7-1.36A6.6,6.6,0,0,0,10,7.28,1,1,0,0,0,9.8,6.4,1,1,0,0,0,9,6H6.78c0-.22-.09-.45-.13-.68A14,14,0,0,0,6.28,3.7,1,1,0,0,0,5.57,3a1,1,0,0,0-.94.25A8.22,8.22,0,0,0,2.54,6.56c-.81,2.41-.71,4.07.3,4.93a1.22,1.22,0,0,0,.19.12,5.27,5.27,0,0,0,1.21,3,5.33,5.33,0,0,0,2.94,1.7,3.22,3.22,0,0,0-.09,1.8c.07.27.16.56.25.86a5.45,5.45,0,0,0-1.66.28A6.15,6.15,0,0,0,2.06,22.9a1,1,0,0,0,.6,1.28,1,1,0,0,0,.34.06,1,1,0,0,0,.94-.66,4.08,4.08,0,0,1,2.38-2.39A3.61,3.61,0,0,1,7.89,21a.71.71,0,0,0,.21,0,13.77,13.77,0,0,0,.81,1.5,9.34,9.34,0,0,0-1.41.63A9.3,9.3,0,0,0,4.13,26.5a1,1,0,0,0,1.74,1,7,7,0,0,1,4.32-3.32,9.93,9.93,0,0,0,1.65,1.42,8.57,8.57,0,0,0-.66.83,9,9,0,0,0-1.13,2.25A1,1,0,0,0,10.68,30,1.25,1.25,0,0,0,11,30a1,1,0,0,0,.95-.68,6.81,6.81,0,0,1,.87-1.75,6.66,6.66,0,0,1,.84-1A7.19,7.19,0,0,0,16,27a7,7,0,0,0,2.34-.42,7.37,7.37,0,0,1,.85,1,6.81,6.81,0,0,1,.87,1.75A1,1,0,0,0,21,30a1.25,1.25,0,0,0,.32-.05A1,1,0,0,0,22,28.68a9,9,0,0,0-1.13-2.25,8.57,8.57,0,0,0-.66-.83,10,10,0,0,0,1.66-1.42,7.06,7.06,0,0,1,4.31,3.32,1,1,0,0,0,1.74-1,9.3,9.3,0,0,0-3.37-3.37,9.92,9.92,0,0,0-1.41-.63A12.14,12.14,0,0,0,23.9,21a.75.75,0,0,0,.21,0,3.6,3.6,0,0,1,1.57.17,4.08,4.08,0,0,1,2.38,2.39,1,1,0,0,0,.94.66,1,1,0,0,0,.34-.06A1,1,0,0,0,29.94,22.9ZM24.56,8H26A1,1,0,0,0,27,7.3c.1-.32.18-.64.25-1a7.19,7.19,0,0,1,.37.86c.65,2,.4,2.67.3,2.76s-1.38-.14-2.4-1A4.85,4.85,0,0,1,24.56,8ZM4.43,7.2a7.19,7.19,0,0,1,.37-.86c.07.32.15.64.25,1A1,1,0,0,0,6,8H7.44a4.85,4.85,0,0,1-.91,1c-1,.84-2.2,1.14-2.4,1S3.78,9.15,4.43,7.2ZM18.55,24.29a4.93,4.93,0,0,1-5.13,0C10.77,22.69,9.57,19.8,9,17.66a1.11,1.11,0,0,1,.58-1.27A15.52,15.52,0,0,1,15,15h0c.42,0,.73,0,1,0a15.6,15.6,0,0,1,6.42,1.4A1.12,1.12,0,0,1,23,17.66,10.49,10.49,0,0,1,18.55,24.29Z"/></g></svg>