<svg xmlns="http://www.w3.org/2000/svg" viewBox="0 0 32 32"><g id="dolphin"><path d="M27.46,6.15a29.74,29.74,0,0,0-6.52-2.64,11.84,11.84,0,0,0-5.87.08A7.2,7.2,0,0,0,11.7,2.07,7.21,7.21,0,0,0,6,3.84a1,1,0,0,0-.29,1,1,1,0,0,0,.79.71A5.23,5.23,0,0,1,9.19,7c.11.11.23.24.33.36A12.93,12.93,0,0,0,6,22.54,8.49,8.49,0,0,0,3.92,24.2,8.32,8.32,0,0,0,2,27.81a1,1,0,0,0,.21.88,1,1,0,0,0,.84.35,23.89,23.89,0,0,0,3.77-.61,21.39,21.39,0,0,0,2.07-.62A12.21,12.21,0,0,0,12,29.3a12.37,12.37,0,0,0,3.73.58h0a1,1,0,0,0,.75-.34,1,1,0,0,0,.24-.78A7.35,7.35,0,0,0,15.83,26,7.68,7.68,0,0,0,13,23.16a17.47,17.47,0,0,1,1.51-4.34c.12-.24.25-.47.38-.71a13.39,13.39,0,0,1,1.49-2.05,3.2,3.2,0,0,1-.07,3.35,1,1,0,0,0,.1,1.2,1,1,0,0,0,1.18.23,6.6,6.6,0,0,0,3.31-3.55A6.32,6.32,0,0,0,21,13.35c.49-.06,1.21-.19,2.32-.41a23.32,23.32,0,0,0,2.94-.67,4.32,4.32,0,0,0,2.55-1.72A3.33,3.33,0,0,0,27.46,6.15ZM27,9.65s-.23.32-1.43.73l-.14,0c-.66.17-4.43,1-5.14,1a.54.54,0,0,0-.22,0,7.51,7.51,0,0,0-.86-1.11,1,1,0,1,0-1.44,1.39A4.78,4.78,0,0,1,19,16.6a4.12,4.12,0,0,1-.24.52,4.7,4.7,0,0,0-.14-.79,5.48,5.48,0,0,0-2.38-3.18,1,1,0,0,0-1.38.33A1,1,0,0,0,15,14.63a15,15,0,0,0-1.81,2.48c-.15.26-.3.53-.44.8a20.09,20.09,0,0,0-1.82,5.63,1,1,0,0,0,.57,1.07A5.87,5.87,0,0,1,14.09,27a4.56,4.56,0,0,1,.39.84,10.53,10.53,0,0,1-1.85-.41,10.25,10.25,0,0,1-3-1.5,1,1,0,0,0-.94-.13,23.68,23.68,0,0,1-2.35.73c-.62.15-1.24.28-1.87.37a6,6,0,0,1,.91-1.32,6.53,6.53,0,0,1,2.28-1.63,1,1,0,0,0,.55-.58,1,1,0,0,0-.06-.81A11.48,11.48,0,0,1,7.35,14a11.2,11.2,0,0,1,4.1-5.66,1,1,0,0,0,.29-1.29A6.68,6.68,0,0,0,9,4.33a4.9,4.9,0,0,1,2.45-.28,5.07,5.07,0,0,1,2.71,1.38,1,1,0,0,0,1,.23,10,10,0,0,1,5.36-.21,28.21,28.21,0,0,1,6,2.45A1.32,1.32,0,0,1,27,9.65Z"/></g></svg>