<svg xmlns="http://www.w3.org/2000/svg" viewBox="0 0 32 32"><g id="eel"><path d="M13.36,8H26a3,3,0,0,0,0-6H10.5a6.5,6.5,0,0,0,0,13h7.2a.73.73,0,0,1,.34.71.55.55,0,0,1-.27.29H11a7.14,7.14,0,0,0-4.81,1.92A7.2,7.2,0,0,0,4,23a7,7,0,0,0,7,7H21a1,1,0,0,0,1-1,5,5,0,0,0-5-5H13.36a1.07,1.07,0,0,1-.33-.56A1.69,1.69,0,0,1,13.45,22H20.5a6.5,6.5,0,0,0,0-13H13.29A.51.51,0,0,1,13,8.71.73.73,0,0,1,13.36,8ZM27,5a1,1,0,0,1-1,1H25V4h1A1,1,0,0,1,27,5ZM20,15h.52a.5.5,0,0,1,0,1H20A2.59,2.59,0,0,0,20,15Zm-8.9,8.89s0,.07,0,.11H11a1,1,0,0,1,0-2h.19A3.57,3.57,0,0,0,11.08,23.89ZM25,15.5A4.51,4.51,0,0,1,20.5,20H11a3,3,0,0,0,0,6h6a3,3,0,0,1,2.83,2H11a5,5,0,0,1-5-5,5.15,5.15,0,0,1,1.56-3.63A5.09,5.09,0,0,1,11,18h9.5a2.5,2.5,0,0,0,0-5h-10a4.5,4.5,0,0,1,0-9H11a1,1,0,0,0,2,0h2a1,1,0,0,0,2,0h2a1,1,0,0,0,2,0h2V6H10.5a2.5,2.5,0,0,0,0,5h10A4.51,4.51,0,0,1,25,15.5ZM10.5,9a.5.5,0,0,1,0-1h.57a2.8,2.8,0,0,0,0,1Z"/></g></svg>