<svg xmlns="http://www.w3.org/2000/svg" viewBox="0 0 32 32"><g id="fish"><path d="M29.92,15.6a12.77,12.77,0,0,0-8-7.12,6.05,6.05,0,0,0-3.55-3.43,5.9,5.9,0,0,0-3.63,0,1,1,0,0,0-.68.81,4.64,4.64,0,0,0,0,1.29,4.52,4.52,0,0,0,.52,1.53,14,14,0,0,0-5.35,3.55,5.82,5.82,0,0,0-2.86-2.18,5.9,5.9,0,0,0-3.63,0A1,1,0,0,0,2,10.9,6.69,6.69,0,0,0,3.2,15.6c.1.13.2.26.31.38A6,6,0,0,0,2,18.79,5.76,5.76,0,0,0,2,21.2a1,1,0,0,0,.67.75,5.9,5.9,0,0,0,3.63,0,5.81,5.81,0,0,0,2.95-2.32,15.58,15.58,0,0,0,3.45,2.16,5.69,5.69,0,0,0-.68,2.1,6.22,6.22,0,0,0,0,1.22,1,1,0,0,0,.69.84,6,6,0,0,0,1.83.29,5.76,5.76,0,0,0,1.8-.29,6,6,0,0,0,3.36-3,14.51,14.51,0,0,0,10.13-6.4A1,1,0,0,0,29.92,15.6ZM16,6.85v0A3.57,3.57,0,0,1,19.25,8l-.2,0a12.4,12.4,0,0,0-2.47.14A2.58,2.58,0,0,1,16,6.85Zm5.84,13.58A7.34,7.34,0,0,1,21,16.12a7.18,7.18,0,0,1,.88-2.63,1,1,0,0,0-1.74-1A8.89,8.89,0,0,0,19,15.88a9.17,9.17,0,0,0,.83,5q-.43.06-.9.09a1,1,0,0,0-.9.8,4,4,0,0,1-2.32,2.25,3.57,3.57,0,0,1-1.7.15s0-.06,0-.09A4,4,0,0,1,15,22a1,1,0,0,0-.13-1.41.75.75,0,0,0-.13-.06.87.87,0,0,0-.34-.22,12.52,12.52,0,0,1-4.62-3,1,1,0,0,0-1.67.35,4.08,4.08,0,0,1-2.38,2.39,3.64,3.64,0,0,1-1.78.14,3.58,3.58,0,0,1,.08-1,4.06,4.06,0,0,1,1.61-2.4A1,1,0,0,0,6,16a1,1,0,0,0-.4-.81,3.79,3.79,0,0,1-.8-.8A4.5,4.5,0,0,1,4,11.8,3.64,3.64,0,0,1,5.68,12a4.08,4.08,0,0,1,2.38,2.39,1,1,0,0,0,.81.65,1,1,0,0,0,1-.42C10,14.37,13.25,9.73,19,10a10.61,10.61,0,0,1,8.9,5.91A12.73,12.73,0,0,1,21.83,20.43Z"/></g></svg>