<svg xmlns="http://www.w3.org/2000/svg" viewBox="0 0 32 32"><g id="fishbone"><path d="M29.72,14.84a12.1,12.1,0,0,0-1.86-2.66,11.85,11.85,0,0,0-4.31-3,2.44,2.44,0,0,0-3.05,1.07A12,12,0,0,0,19.05,15H18V12a1,1,0,0,0-2,0v3H15V10a1,1,0,0,0-2,0v5H12V12a1,1,0,0,0-2,0v3H8.63a10.27,10.27,0,0,0-1.92-2.71,10.2,10.2,0,0,0-3.33-2.21,1,1,0,0,0-1.3,1.3A12.05,12.05,0,0,1,3,16a12,12,0,0,1-.92,4.62A1,1,0,0,0,3,22a.84.84,0,0,0,.38-.08,10.2,10.2,0,0,0,3.33-2.21A10.27,10.27,0,0,0,8.63,17H10v3a1,1,0,0,0,2,0V17h1v5a1,1,0,0,0,2,0V17h1v3a1,1,0,0,0,2,0V17h1.05a11.7,11.7,0,0,0,1.44,4.72,2.44,2.44,0,0,0,3.07,1.1,11.93,11.93,0,0,0,4.3-3,12.2,12.2,0,0,0,1.86-2.66A2.56,2.56,0,0,0,29.72,14.84ZM5.29,18.29a5.88,5.88,0,0,1-.58.53A14.06,14.06,0,0,0,5,16a14.06,14.06,0,0,0-.29-2.82,5.88,5.88,0,0,1,.58.53A8.21,8.21,0,0,1,6.91,16,8.42,8.42,0,0,1,5.29,18.29Zm22.65-2.05A10,10,0,0,1,22.8,21a.46.46,0,0,1-.56-.22A9.79,9.79,0,0,1,21,16a10,10,0,0,1,1.24-4.77.48.48,0,0,1,.39-.23.41.41,0,0,1,.16,0,10,10,0,0,1,5.15,4.73A.51.51,0,0,1,27.94,16.24Z"/></g></svg>