<svg xmlns="http://www.w3.org/2000/svg" viewBox="0 0 32 32"><g id="fish_2" data-name="fish 2"><path d="M29.29,13.63a14.12,14.12,0,0,0-4.52-3.35A7.48,7.48,0,0,0,20.3,6.34a8,8,0,0,0-4.58,0,1,1,0,0,0-.71,1V9.55a18.44,18.44,0,0,0-6.57,3.37,4.92,4.92,0,0,0-1-1.36A5.68,5.68,0,0,0,2.91,10a1,1,0,0,0-.86.78,6.85,6.85,0,0,0,0,2.92A6.73,6.73,0,0,0,3,16a6.73,6.73,0,0,0-1,2.27,6.85,6.85,0,0,0,0,2.92,1,1,0,0,0,.86.78c.14,0,.35,0,.61,0a5.52,5.52,0,0,0,3.94-1.56,5.23,5.23,0,0,0,1.21-1.91c.39.18.84.38,1.33.58V22a1,1,0,0,0,.55.89A10.56,10.56,0,0,0,15.25,24l.67,0a9.84,9.84,0,0,0,6.76-3.34.13.13,0,0,0,0-.05,15.3,15.3,0,0,0,3.82-1.38,16.12,16.12,0,0,0,2.35-1.5,2.89,2.89,0,0,0,1.11-2A2.67,2.67,0,0,0,29.29,13.63ZM17,8.09a5.83,5.83,0,0,1,2.7.16,5.2,5.2,0,0,1,1.76,1A14.18,14.18,0,0,0,17,9.15ZM3.9,20A4.91,4.91,0,0,1,4,18.7a4.76,4.76,0,0,1,1-2.05,1,1,0,0,0,0-1.3,4.76,4.76,0,0,1-1-2A4.91,4.91,0,0,1,3.9,12,3.33,3.33,0,0,1,7,14.85v2.23s0,0,0,0a3.45,3.45,0,0,1-1,1.9A3.42,3.42,0,0,1,3.9,20Zm11.89,2A8.53,8.53,0,0,1,12,21.35V19.83A23,23,0,0,0,19,21h.15A7.61,7.61,0,0,1,15.79,22ZM28,15.52a.88.88,0,0,1-.34.61,15.26,15.26,0,0,1-2.06,1.31c-.41.21-.83.4-1.25.57A4,4,0,0,1,23,15.8a4,4,0,0,1-.07-.78,1,1,0,1,0-2,0A5.65,5.65,0,0,0,21,16.2a5.72,5.72,0,0,0,1.17,2.45c-5.47,1.17-10.88-1-13.19-2.18V15c4.35-3.77,9.79-5,14.29-3.25A12.24,12.24,0,0,1,27.81,15,.72.72,0,0,1,28,15.52Z"/></g></svg>