<svg xmlns="http://www.w3.org/2000/svg" viewBox="0 0 32 32"><g id="fish_3" data-name="fish 3"><path d="M29.29,13.63a15.63,15.63,0,0,0-2.45-2.18A11.09,11.09,0,0,0,20.27,6,10.91,10.91,0,0,0,10.16,8.46,3.34,3.34,0,0,0,9,11v1.49l-.56.43a5.33,5.33,0,0,0-1-1.36A5.68,5.68,0,0,0,2.91,10a1,1,0,0,0-.86.78,6.85,6.85,0,0,0,0,2.92A6.73,6.73,0,0,0,3,16a6.73,6.73,0,0,0-1,2.27,6.85,6.85,0,0,0,0,2.92,1,1,0,0,0,.86.78c.14,0,.35,0,.61,0a5.52,5.52,0,0,0,3.94-1.56,5.12,5.12,0,0,0,1.22-1.9l.32.14V19a3.34,3.34,0,0,0,1.16,2.54,11.21,11.21,0,0,0,7.32,2.81A10.21,10.21,0,0,0,20.27,24a10.79,10.79,0,0,0,6-4.4,1.19,1.19,0,0,0,.11-.26l.19-.09a16.12,16.12,0,0,0,2.35-1.5,2.89,2.89,0,0,0,1.11-2A2.67,2.67,0,0,0,29.29,13.63ZM11,11a1.35,1.35,0,0,1,.47-1,8.94,8.94,0,0,1,8.26-2,8.25,8.25,0,0,1,2.92,1.53A15.54,15.54,0,0,0,11,11.2ZM9,15c3.81-3.31,8.47-4.68,12.59-3.76a5.14,5.14,0,0,0,.05,7.48A20.56,20.56,0,0,1,10.5,17.15a1.09,1.09,0,0,0-.25-.1c-.48-.21-.9-.41-1.25-.58ZM3.9,20A5,5,0,0,1,4,18.7a4.76,4.76,0,0,1,1-2.05,1,1,0,0,0,0-1.3,4.76,4.76,0,0,1-1-2A5,5,0,0,1,3.9,12,3.33,3.33,0,0,1,7,14.85v2.23s0,0,0,0a3.45,3.45,0,0,1-1,1.9A3.42,3.42,0,0,1,3.9,20ZM19.73,22a8.94,8.94,0,0,1-8.26-2,1.36,1.36,0,0,1-.36-.5A23.78,23.78,0,0,0,19,21a17.29,17.29,0,0,0,3.54-.36A8.17,8.17,0,0,1,19.73,22ZM28,15.52a.88.88,0,0,1-.34.61,15.26,15.26,0,0,1-2.06,1.31,14.29,14.29,0,0,1-1.33.6,3.17,3.17,0,0,1-.34-5.95A12.3,12.3,0,0,1,27.81,15,.72.72,0,0,1,28,15.52Z"/></g></svg>