<svg xmlns="http://www.w3.org/2000/svg" viewBox="0 0 32 32"><g id="flounder"><path d="M29.86,15.49a13,13,0,0,0-2.36-2.94.71.71,0,0,0,0-.21A9.33,9.33,0,0,0,19.17,4a9.29,9.29,0,0,0-9.73,8.32.87.87,0,0,0,0,.32c-.11.1-.22.2-.32.31L5.88,11.53a1,1,0,0,0-.79,0,5,5,0,0,0,0,9.27,1,1,0,0,0,.39.08A1,1,0,0,0,6,20.76l2.48-1.32a12.14,12.14,0,0,0,.78,1.1.82.82,0,0,0-.11.31A7.15,7.15,0,0,0,10.84,27,6.3,6.3,0,0,0,15,29a3.53,3.53,0,0,0,2-.59A4.67,4.67,0,0,0,19,25h.1a11.94,11.94,0,0,0,1.34-.15,4,4,0,0,0,3.22,2.26h.33a4.35,4.35,0,0,0,3.25-1.68,4.24,4.24,0,0,0,.27-4.57A12.2,12.2,0,0,0,30,16.28,1,1,0,0,0,29.86,15.49ZM19,6a7.2,7.2,0,0,1,6.09,4.76A13.24,13.24,0,0,0,17.81,9a12.5,12.5,0,0,0-6,1.85A7.24,7.24,0,0,1,19,6ZM5.46,18.75a3,3,0,0,1,0-5.2l2.25,1c-.4.53-.63.9-.66,1a1,1,0,0,0-.1.79,12.77,12.77,0,0,0,.51,1.39Zm10.42,8c-1.26.82-3-.54-3.61-1.14A4.9,4.9,0,0,1,11,22.34,11.87,11.87,0,0,0,17,24.9,2.65,2.65,0,0,1,15.88,26.74Zm9.72-2.51a2.2,2.2,0,0,1-1.81.88,2,2,0,0,1-1.36-.79,11.9,11.9,0,0,0,3.48-1.94A2.18,2.18,0,0,1,25.6,24.23ZM19,23a10.14,10.14,0,0,1-9.9-6.85A11.71,11.71,0,0,1,17.91,11a11.38,11.38,0,0,1,10,5.13A10,10,0,0,1,19,23Z"/><path d="M22.41,15.66,20.66,14a2.48,2.48,0,0,0-3.33,0,4.09,4.09,0,0,0,0,6,2.35,2.35,0,0,0,1.61.61A2.54,2.54,0,0,0,20.66,20l1.75-1.63A1.83,1.83,0,0,0,23,17a1.87,1.87,0,0,0-.59-1.34ZM19.3,18.5a.51.51,0,0,1-.6.06,2.09,2.09,0,0,1,0-3.12.36.36,0,0,1,.23-.08.57.57,0,0,1,.37.14L20.91,17Z"/></g></svg>