<svg xmlns="http://www.w3.org/2000/svg" viewBox="0 0 32 32"><g id="jellyfish"><path d="M26,14.65a2.24,2.24,0,0,0-.85-1.74L25,12.82V10c0-4.41-4-8-9-8S7,5.59,7,10v2.82l-.15.09A2.24,2.24,0,0,0,6,14.65V15a2.22,2.22,0,0,0,1,1.8,10.31,10.31,0,0,0,.29,2.65,6.46,6.46,0,0,1,0,3.12,10.07,10.07,0,0,0,0,4.88l.2.83A2.29,2.29,0,0,0,9.67,30H10a2.29,2.29,0,0,0,2.22-2.84L12,26.24a5,5,0,0,1,0-2.49l.14-.55a9.1,9.1,0,0,0,0-4.4L12,18.24a3.41,3.41,0,0,1-.1-.54,11.89,11.89,0,0,0,1.88-.21c0,.12,0,.23,0,.34s0,.28-.09.41l-.14.56a9.1,9.1,0,0,0,0,4.4l.14.56a5,5,0,0,1,0,2.48l-.22.92a2.23,2.23,0,0,0,.41,2,2.28,2.28,0,0,0,1.8.88H16a2.29,2.29,0,0,0,2.22-1.73l.21-.83a10.07,10.07,0,0,0,0-4.88,6.38,6.38,0,0,1,0-3.13,9.58,9.58,0,0,0,.26-1.86,12.16,12.16,0,0,0,1.81.15c0,.18-.06.35-.1.53l-.14.55a9.1,9.1,0,0,0,0,4.4l.14.56a5.2,5.2,0,0,1,0,2.48l-.23.92A2.29,2.29,0,0,0,22.4,30h.35A2.29,2.29,0,0,0,25,28.27l.2-.83a10,10,0,0,0,0-4.87,6.62,6.62,0,0,1,0-3.13,10.12,10.12,0,0,0,.28-3A2.18,2.18,0,0,0,26,15ZM16,4c3.86,0,7,2.69,7,6v2.42h0l-1,.23a6.85,6.85,0,0,1-2.92,0l-.62-.14a11.29,11.29,0,0,0-4.84,0l-.62.14a6.85,6.85,0,0,1-2.92,0l-1-.23H9V10C9,6.69,12.14,4,16,4ZM10.07,26.73l.23.91a.26.26,0,0,1-.06.25A.27.27,0,0,1,10,28H9.67a.29.29,0,0,1-.28-.22L9.18,27a8.17,8.17,0,0,1,0-3.9,8.49,8.49,0,0,0,0-4.1A8.35,8.35,0,0,1,9,17.45c.31.07.62.11.93.15a7.19,7.19,0,0,0,.18,1.13l.14.56a7.07,7.07,0,0,1,0,3.42l-.14.56A7.23,7.23,0,0,0,10.07,26.73ZM16.5,27l-.21.83A.29.29,0,0,1,16,28h-.35a.27.27,0,0,1-.22-.11.33.33,0,0,1-.06-.25l.23-.91a7,7,0,0,0,0-3.46l-.14-.56a7.07,7.07,0,0,1,0-3.42l.14-.56a5.78,5.78,0,0,0,.12-.57,6.69,6.69,0,0,0,.07-.9,7.07,7.07,0,0,1,.92,0A8.59,8.59,0,0,1,16.5,19a8.37,8.37,0,0,0,0,4.1A8,8,0,0,1,16.5,27Zm1.75-11.47a10.24,10.24,0,0,0-3.36-.19,9,9,0,0,0-1.14.19,10.67,10.67,0,0,1-4.5,0l-.48-.11A1,1,0,0,0,8.11,15S8,15,8,15v-.37a.27.27,0,0,1,.1-.18.58.58,0,0,1,.35-.11l.13,0,1,.22a8.61,8.61,0,0,0,3.78,0l.63-.13a9.12,9.12,0,0,1,4,0l.63.13a8.61,8.61,0,0,0,3.78,0l1-.22a.59.59,0,0,1,.48.09.27.27,0,0,1,.1.18V15a.23.23,0,0,1-.07.14l-.05,0a.57.57,0,0,1-.19.1l-.94.21A10.67,10.67,0,0,1,18.25,15.48Zm5,11.47-.2.83a.3.3,0,0,1-.28.22H22.4a.31.31,0,0,1-.23-.11.29.29,0,0,1-.05-.25l.23-.91a7.23,7.23,0,0,0,0-3.46l-.14-.56a7.07,7.07,0,0,1,0-3.42l.14-.56a6.84,6.84,0,0,0,.18-1.19c.22,0,.44-.06.65-.11l.28-.06A7.73,7.73,0,0,1,23.23,19a8.61,8.61,0,0,0,0,4.1A8,8,0,0,1,23.23,27Z"/></g></svg>