<svg fill="#000000" xmlns="http://www.w3.org/2000/svg"  viewBox="0 0 24 24" width="24px" height="24px"><path d="M 12 1 C 7.0414839 1 3 5.0414839 3 10 C 3 11.561492 4.2249054 12.846664 5.7558594 12.974609 C 5.3841854 13.476004 5.0449219 14.130169 5.0449219 14.996094 C 5.0449219 16.32976 5.8378906 17.202875 6.3378906 17.703125 C 6.8378906 18.203375 7.0449219 18.330714 7.0449219 18.998047 C 7.0449219 19.66538 6.8378906 19.792719 6.3378906 20.292969 C 5.8378906 20.793219 5.0449219 21.666333 5.0449219 23 L 7.0449219 23 C 7.0449219 22.332667 7.2519531 22.205328 7.7519531 21.705078 C 8.2519531 21.204828 9.0449219 20.331714 9.0449219 18.998047 C 9.0449219 17.66438 8.2519531 16.791266 7.7519531 16.291016 C 7.2519531 15.790766 7.0449219 15.663427 7.0449219 14.996094 C 7.0449219 14.330761 7.2519531 14.204578 7.7519531 13.705078 C 7.9314246 13.525786 8.1429131 13.279506 8.3476562 13 L 10.693359 13 C 10.328994 13.498698 10 14.144263 10 14.996094 C 10 16.32976 10.792969 17.202875 11.292969 17.703125 C 11.792969 18.203375 12 18.330714 12 18.998047 C 12 19.66538 11.792969 19.792719 11.292969 20.292969 C 10.792969 20.793219 10 21.666333 10 23 L 12 23 C 12 22.332667 12.207031 22.205328 12.707031 21.705078 C 13.207031 21.204828 14 20.331714 14 18.998047 C 14 17.66438 13.207031 16.791266 12.707031 16.291016 C 12.207031 15.790766 12 15.663427 12 14.996094 C 12 14.330761 12.207031 14.204578 12.707031 13.705078 C 12.886503 13.525786 13.097991 13.279506 13.302734 13 L 15.689453 13 C 15.324362 13.498754 14.994141 14.143976 14.994141 14.996094 C 14.994141 16.32976 15.787109 17.202875 16.287109 17.703125 C 16.787109 18.203375 16.994141 18.330714 16.994141 18.998047 C 16.994141 19.66538 16.787109 19.792719 16.287109 20.292969 C 15.787109 20.793219 14.994141 21.666333 14.994141 23 L 16.994141 23 C 16.994141 22.332667 17.203125 22.205328 17.703125 21.705078 C 18.203125 21.204828 18.994141 20.331714 18.994141 18.998047 C 18.994141 17.66438 18.203125 16.791266 17.703125 16.291016 C 17.203125 15.790766 16.994141 15.663427 16.994141 14.996094 C 16.994141 14.330761 17.201172 14.204578 17.701172 13.705078 C 17.88733 13.519106 18.108978 13.262702 18.320312 12.96875 C 19.815411 12.804828 21 11.535517 21 10 C 21 5.0414839 16.958516 1 12 1 z M 12 3 C 15.877484 3 19 6.1225161 19 10 C 19 10.56503 18.56503 11 18 11 L 16.994141 11 L 14 11 L 12 11 L 9.0449219 11 L 7.0449219 11 L 6 11 C 5.4349698 11 5 10.56503 5 10 C 5 6.1225161 8.1225161 3 12 3 z"/></svg>