<svg fill="#000000" xmlns="http://www.w3.org/2000/svg"  viewBox="0 0 24 24" width="24px" height="24px"><path d="M 3.1289062 0.31835938 C 2.5634135 1.5517657 2.2444374 2.7881008 2.3417969 4.0253906 C 2.4390282 5.2610457 2.974991 6.4575753 3.9316406 7.5117188 C 3.9329063 7.5131134 3.9342798 7.5142309 3.9355469 7.515625 C 5.1992636 9.4606365 6.6919921 10.617949 8.2089844 10.916016 C 8.1373746 11.264074 8.0773533 11.621483 8.0429688 12 L 3 12 L 3 14 L 8.0761719 14 C 8.1741262 14.787192 8.3520932 15.454522 8.5351562 16 L 6.2929688 16 A 1.0001 1.0001 0 0 0 5.7734375 16.144531 L 2.4804688 18.144531 L 3.5195312 19.855469 L 6.5722656 18 L 9 18 L 9 19.835938 L 7.6132812 24 L 12 24 L 16.386719 24 L 15 19.837891 L 15 18 L 17.427734 18 L 20.480469 19.855469 L 21.519531 18.144531 L 18.226562 16.144531 A 1.0001 1.0001 0 0 0 17.707031 16 L 15.466797 16 C 15.648873 15.438353 15.82305 14.747004 15.919922 14 L 21 14 L 21 12 L 15.957031 12 C 15.921786 11.618707 15.860794 11.258535 15.787109 10.908203 C 17.160883 10.628851 18.516663 9.654552 19.697266 8.0195312 L 19.732422 8.0332031 L 20.201172 7.515625 C 21.160201 6.4604636 21.697708 5.2627641 21.794922 4.0253906 C 21.892132 2.7880171 21.573873 1.5518125 21.007812 0.31835938 L 19.189453 1.1523438 C 19.662394 2.1828907 19.862818 3.0795141 19.800781 3.8691406 C 19.765631 4.3165921 19.410197 4.7448489 19.189453 5.1738281 C 18.987039 4.9357303 18.722483 4.831168 18.574219 4.46875 C 18.269365 3.7235625 18.115848 2.7530574 18.111328 1.8183594 L 16.111328 1.828125 C 16.116828 2.961427 16.28326 4.1525 16.722656 5.2265625 C 16.9954 5.8932596 17.409608 6.5116914 17.949219 7.0117188 C 16.929102 8.3541069 15.9169 8.8984567 15.171875 8.9804688 C 14.17097 6.707588 12.619141 5.4726563 12.619141 5.4726562 L 12.347656 5.2578125 L 11.583984 5.2578125 L 11.308594 5.4785156 C 11.308594 5.4785156 9.8138183 6.7290891 8.8339844 8.984375 C 8.1024256 8.918255 7.1044257 8.3974887 6.0917969 7.1015625 C 6.6823885 6.5891972 7.1268471 5.933408 7.4160156 5.2265625 C 7.8554115 4.1525 8.0199104 2.961427 8.0253906 1.828125 L 6.0253906 1.8183594 C 6.0208708 2.7530618 5.8693072 3.7235625 5.5644531 4.46875 C 5.4159854 4.8316656 5.1500362 4.9355734 4.9472656 5.1738281 C 4.7266447 4.7449708 4.3711387 4.3164938 4.3359375 3.8691406 C 4.273797 3.0794304 4.4747585 2.1829373 4.9472656 1.1523438 L 3.1289062 0.31835938 z M 11.974609 7.7246094 C 12.685237 8.4322758 14 9.9558369 14 12.90625 C 14 14.628547 13.105469 16.554688 13.105469 16.554688 L 13.09375 16.576172 L 13 16.794922 L 13 20.162109 L 13.611328 22 L 12 22 L 10.388672 22 L 11 20.162109 L 11 20 L 11 16.769531 L 10.898438 16.560547 C 10.898438 16.560547 10 14.62757 10 12.90625 C 10 9.9573787 11.276105 8.4369233 11.974609 7.7246094 z"/></svg>