<svg xmlns="http://www.w3.org/2000/svg" viewBox="0 0 32 32"><g id="manta_ray" data-name="manta ray"><path d="M28.38,7.2l-5.75-2V5a3,3,0,0,0-5.8-1.05l-.25.66a.64.64,0,0,1-1.16,0l-.25-.65A3,3,0,0,0,9.37,5v.29L3.63,7.19A2.33,2.33,0,0,0,2,9.06a2.25,2.25,0,0,0,1,2.16,39.57,39.57,0,0,1,5.53,4.49A36.55,36.55,0,0,1,14,22.53a1,1,0,0,0,.85.47h.41l.45,1.35a1.43,1.43,0,0,1-.08,1.11,3.47,3.47,0,0,0,0,3.08l.46.91A1,1,0,0,0,17,30a.93.93,0,0,0,.45-.11,1,1,0,0,0,.44-1.34l-.45-.9a1.48,1.48,0,0,1,0-1.3,3.43,3.43,0,0,0,.19-2.63L17.38,23a1,1,0,0,0,.59-.44c.39-.63.81-1.25,1.24-1.86a36.93,36.93,0,0,1,4.24-5A40.2,40.2,0,0,1,29,11.22a2.24,2.24,0,0,0,1-2.16A2.31,2.31,0,0,0,28.38,7.2Zm-.52,2.36a41.71,41.71,0,0,0-5.81,4.72,39,39,0,0,0-4.47,5.23c-.35.49-.68,1-1,1.49H15.43A38.85,38.85,0,0,0,10,14.29,41.07,41.07,0,0,0,4.14,9.56.26.26,0,0,1,4,9.33a.35.35,0,0,1,.26-.24L10.69,7a1,1,0,0,0,.68-1V5a1,1,0,0,1,1.93-.34l.24.65a2.63,2.63,0,0,0,4.92,0l.24-.65A1,1,0,0,1,20.63,5V6a1,1,0,0,0,1.16,1l5.94,2.1a.35.35,0,0,1,.27.24A.26.26,0,0,1,27.86,9.56Z"/></g></svg>