<svg fill="#000000" xmlns="http://www.w3.org/2000/svg"  viewBox="0 0 24 24" width="24px" height="24px"><path d="M 12 1 C 5.9365932 1 1 5.9365932 1 12 L 1 13 L 3 13 L 3 15 C 3 16.116666 2.1166661 17 1 17 L 1 19 C 3.1973339 19 5 17.197334 5 15 L 5 13 L 7 13 L 7 19 C 7 20.116666 6.1166661 21 5 21 L 5 23 C 7.1973339 23 9 21.197334 9 19 L 9 13 L 9.0800781 13 C 9.5692259 16.382574 12.486003 19 16 19 C 19.854334 19 23 15.854334 23 12 C 23 5.9365932 18.063407 1 12 1 z M 12 3 C 14.486791 3 16.732894 4.0010632 18.359375 5.6230469 C 17.652614 5.2391469 16.856593 5 16 5 C 12.486003 5 9.5692259 7.617426 9.0800781 11 L 3.2011719 11 C 3.7186142 6.5147001 7.3725253 3 12 3 z M 16 7 C 17.668484 7 19 8.3315161 19 10 C 19 11.668484 17.668484 13 16 13 C 15.43497 13 15 12.56503 15 12 C 15 11.43497 15.43497 11 16 11 L 16 9 C 14.35503 9 13 10.35503 13 12 C 13 13.64497 14.35503 15 16 15 C 18.455384 15 20.507835 13.203466 20.919922 10.861328 C 20.966942 11.235172 21 11.613087 21 12 C 21 14.773666 18.773666 17 16 17 C 13.226334 17 11 14.773666 11 12 C 11 9.2263339 13.226334 7 16 7 z"/></svg>