<?xml version="1.0"?><svg fill="#000000" xmlns="http://www.w3.org/2000/svg"  viewBox="0 0 24 24" width="24px" height="24px">    <path d="M 7.2050781 2.4296875 C 5.4596126 2.4296875 3.8164062 3.4023437 3.8164062 3.4023438 L 3.2851562 3.6855469 L 3.2851562 5.1152344 L 3.9589844 5.3476562 C 3.9589844 5.3476562 5.1593041 5.920254 6.1269531 6.6230469 C 2.2122901 10.088431 2.4251543 15.067295 2.4785156 15.841797 C 1.8309121 16.310905 1.4802974e-16 17.782311 0 21 L 0 22 L 1 22 C 1.916 22 3.0499496 22.04302 4.1347656 21.527344 C 4.6771736 21.269504 5.1576887 20.832289 5.5136719 20.244141 C 6.2434704 20.469016 7.3271687 20.714844 8.7148438 20.714844 L 9.7148438 20.714844 L 9.7148438 19.714844 C 9.7148438 17.980852 8.9604833 16.840236 8.09375 16.035156 C 8.2852378 14.834257 8.8255883 13.929025 9.59375 13.236328 C 10.031513 12.841572 10.528373 12.517548 11.021484 12.251953 C 11.013507 12.452344 11 12.634115 11 12.857422 L 11 13.857422 L 12 13.857422 C 13.18364 13.857422 14.040167 13.15216 14.744141 12.505859 C 15.186458 12.099778 15.455316 11.769482 15.693359 11.470703 C 15.559604 12.193761 15.429688 12.839844 15.429688 12.839844 C 16.794098 12.977306 17.796431 12.292661 18.371094 11.240234 C 19.59515 11.216728 20.679756 11.175785 21.451172 11.074219 C 22.133603 10.984369 22.675369 10.874309 23.167969 10.615234 C 23.660568 10.35616 24.142578 9.7445938 24.142578 9.1171875 C 24.142578 8.7546319 24.063698 8.623311 23.966797 8.4121094 C 23.869895 8.2009077 23.73393 7.9771279 23.546875 7.7480469 C 23.275026 7.4151206 22.754375 7.1335403 22.248047 6.8613281 C 21.992258 6.0437103 21.509876 5.0932952 20.552734 4.2246094 C 19.44873 3.2226333 17.771881 2.4296875 15.535156 2.4296875 C 13.960788 2.4296875 12.728778 2.7240913 11.880859 3.0292969 C 11.406067 3.2001969 11.350045 3.2691456 11.113281 3.4003906 C 10.900153 3.265924 10.871797 3.2083134 10.484375 3.046875 C 9.727356 2.7314262 8.6225358 2.4296875 7.2050781 2.4296875 z M 7.2050781 4.4296875 C 8.3396204 4.4296875 9.1723627 4.6684802 9.7148438 4.8945312 C 10.257325 5.1205824 10.447266 5.2851562 10.447266 5.2851562 L 11.03125 5.7636719 L 11.650391 5.3339844 C 11.650391 5.3339844 11.903512 5.1479038 12.558594 4.9121094 C 13.213675 4.676315 14.209524 4.4296875 15.535156 4.4296875 C 17.316431 4.4296875 18.443739 5.0105542 19.208984 5.7050781 C 19.97423 6.399602 20.359533 7.2726317 20.453125 7.6894531 L 20.574219 8.2304688 L 21.097656 8.4140625 C 21.504578 8.5569246 21.710276 8.7534545 21.875 8.9296875 C 21.691339 8.9857045 21.564165 9.0427183 21.191406 9.0917969 C 20.051768 9.2418451 18.125132 9.2851563 15.402344 9.2851562 L 14.90625 9.2851562 L 14.605469 9.6816406 C 14.423512 9.9210573 13.943901 10.523301 13.390625 11.03125 C 13.330125 11.08679 13.300265 11.070284 13.238281 11.121094 C 13.293201 10.887326 13.303571 10.373588 13.363281 10.216797 C 13.450451 9.9878949 13.544955 9.8050385 13.648438 9.5527344 C 13.751919 9.3004303 13.857422 8.953797 13.857422 8.5703125 L 12.035156 8.5703125 C 10.553631 8.2731759 8.5413474 8.8570901 7.2988281 10.099609 C 5.8176745 11.580763 5.4253254 13.670769 6.15625 15.273438 C 6.0879661 15.571447 6.0312536 15.877642 6.0039062 16.201172 L 5.953125 16.789062 L 6.4453125 17.117188 C 6.9241596 17.436245 7.2506337 17.91192 7.4667969 18.558594 C 6.9149405 18.478753 6.4661361 18.377969 6.1171875 18.291016 C 6.1247174 18.209041 6.138554 18.131298 6.1425781 18.046875 L 4.1445312 17.953125 C 4.0844743 19.213055 3.7683246 19.488335 3.2753906 19.722656 C 3.0405415 19.834294 2.5608269 19.814446 2.1914062 19.855469 C 2.6255667 17.945461 3.9277344 17.152344 3.9277344 17.152344 L 4.4824219 16.833984 L 4.4257812 16.195312 C 4.4257812 16.195312 3.9365872 10.277354 8.265625 7.4179688 L 9.1894531 6.8085938 L 8.4902344 5.9511719 C 7.9749133 5.3197669 7.3252059 4.9611191 6.7089844 4.5800781 C 6.9246477 4.5316343 7.0282609 4.4296875 7.2050781 4.4296875 z M 17.5 6 A 1.5 1 0 0 0 16 7 A 1.5 1 0 0 0 17.5 8 A 1.5 1 0 0 0 19 7 A 1.5 1 0 0 0 17.5 6 z"/></svg>