<svg fill="#000000" xmlns="http://www.w3.org/2000/svg"  viewBox="0 0 24 24" width="24px" height="24px"><path d="M 16 4 L 11 5 L 11 7.3105469 C 10.555178 7.4092967 10.114679 7.530143 9.6816406 7.6816406 L 8 6 L 5 7 L 5 9.7148438 C 4.6701563 9.8067196 4.3363753 9.8801502 4 9.9257812 L 4 9.9003906 C 3.8922218 9.9363167 3.764943 9.9481413 3.640625 9.9628906 C 3.4270617 9.981358 3.2140999 10 3 10 C 2.8 10 2.6003906 9.8992188 2.4003906 9.6992188 L 1.6992188 9.1992188 L 1.5996094 9.0996094 C 1.4996094 8.9996094 1.2 8.9003906 1 8.9003906 C 0.4 8.9003906 0 9.4003906 0 9.9003906 C 0 10.400391 1 11.300781 1 11.300781 C 1.6 11.900781 1.7 12.999219 1 13.699219 C 1 13.699219 1.110223e-16 14.5 0 15 C 0 15.5 0.4 16 1 16 C 1.2 16 1.3996094 15.900781 1.5996094 15.800781 L 1.6992188 15.699219 L 2.4003906 15.199219 C 2.6003906 15.099219 2.8 15 3 15 L 3.4003906 15 C 3.9907854 15 4.5140087 15.073003 5 15.210938 L 5 18 L 7 19 L 9.0292969 16.970703 C 9.9773087 17.305375 10.945133 17.563546 11.923828 17.734375 L 12 20 L 14 21 L 17.183594 17.816406 C 19.203516 17.479795 21.127044 16.674224 22.806641 15.394531 L 22.816406 15.388672 L 22.824219 15.380859 C 23.552744 14.79805 24 13.933333 24 13 L 24 12 C 24 11.066667 23.552766 10.201978 22.824219 9.6191406 L 22.816406 9.6113281 L 22.806641 9.6054688 C 21.599923 8.686055 20.265228 8.0170249 18.861328 7.5839844 L 18 5 L 16 4 z M 13.800781 9 L 15 9 C 17.389529 9 19.659312 9.7285276 21.580078 11.1875 C 21.847686 11.404783 22 11.735359 22 12 L 22 13 C 22 13.264641 21.847686 13.595217 21.580078 13.8125 C 19.659312 15.271472 17.389529 16 15 16 C 12.553846 16 10.108523 15.435121 7.8476562 14.304688 L 6.8476562 13.804688 L 6.8847656 13.826172 C 5.9883293 13.328155 5.0065356 13.129193 4 13.0625 L 4 11.882812 C 5.0256846 11.773001 6.0408951 11.538822 7 11.101562 L 7 12 A 1.0001 1.0001 0 1 0 9 12 L 9 10.167969 C 9.6148287 9.8232467 10.296348 9.5709088 11 9.3808594 L 11 13 A 1.0001 1.0001 0 1 0 13 13 L 13 9.0449219 C 13.267516 9.0254668 13.536229 9 13.800781 9 z M 18 11 A 1 1 0 0 0 18 13 A 1 1 0 0 0 18 11 z"/></svg>