<svg fill="#000000" xmlns="http://www.w3.org/2000/svg"  viewBox="0 0 24 24" width="24px" height="24px"><path d="M 7.375 6 C 5.5 6 5 8 5 8 L 5.8417969 8.8417969 C 5.5105618 8.9352987 5.2068324 9 4.9296875 9 L 4 9 C 2 7 0 7 0 7 L 0 8 C 0 8.189 0.291 10.178 1 11.5 C 0.291 12.822 0 14.811 0 15 L 0 16 C 0 16 2 16 4 14 L 4.9667969 14 C 4.9023619 14 4.9883299 13.999065 5.2011719 14.142578 C 5.2861742 14.199893 5.4455237 14.324115 5.5585938 14.410156 C 5.2521365 14.633927 5 14.974316 5 15.5 C 5 16.4 5.5512969 17 6.6542969 17 C 8.0921464 17 8.768264 16.189628 8.9296875 15.966797 C 9.1134212 15.986768 9.3031598 16 9.5 16 L 10 16 L 10 16.375 C 10 17.375 10.667969 18 10.667969 18 C 11.667969 17.4 12 16 12 16 L 14 16 L 14 16.375 C 14 17.375 14.667969 18 14.667969 18 C 15.667969 17.4 16 16 16 16 L 18 16 C 19.776222 16 21.242752 15.268917 22.259766 14.435547 C 22.768272 14.018862 23.169795 13.575132 23.464844 13.146484 C 23.759893 12.717837 24 12.3773 24 11.75 L 24 10.960938 L 23.234375 10.777344 C 23.234375 10.777344 22.752835 10.63253 22.697266 10.605469 L 22.695312 10.605469 C 21.823645 10.169328 21.161921 9.5912222 20.318359 9.0390625 C 19.474314 8.4865864 18.403793 8 17 8 L 10 8 C 10 8 9.375 6 7.375 6 z M 9.5 10 L 15.533203 10 C 15.217735 10.586301 15 11.284323 15 12.125 C 15 12.837362 15.172896 13.460682 15.431641 14 L 9.5 14 C 8.5166667 14 7.8931445 13.640285 7.2695312 13.189453 C 6.9577246 12.964037 6.6616737 12.713909 6.3183594 12.482422 C 5.9834684 12.256615 5.5593693 12.023616 5 12.011719 L 5 10.984375 C 5.9238439 10.967545 6.6994862 10.683776 7.3925781 10.445312 C 8.106025 10.199848 8.748019 10 9.5 10 z M 18.005859 10.132812 C 18.122098 10.164542 18.239603 10.199008 18.347656 10.242188 A 1 1 0 0 0 19 12 A 1 1 0 0 0 19.972656 11.228516 C 20.443584 11.558833 20.957135 11.91221 21.587891 12.253906 C 21.419103 12.459575 21.255753 12.671098 20.990234 12.888672 C 20.257248 13.489302 19.223778 14 18 14 C 17.778 13.951 17 13.361 17 12.125 C 17 10.97177 17.618894 10.37556 18.005859 10.132812 z"/></svg>