<svg xmlns="http://www.w3.org/2000/svg" viewBox="0 0 32 32"><g id="plankton"><path d="M29,10H26.27a2.18,2.18,0,0,1-2-1.61L23.19,5A4.21,4.21,0,0,0,20.6,2.24a3.91,3.91,0,0,0-3.5.4L16.52,3A3.33,3.33,0,0,0,16,3v.43s0,0,0,0l0-.41a2.28,2.28,0,0,0-.39.06l-.65-.42a3.91,3.91,0,0,0-3.5-.4A4.21,4.21,0,0,0,8.81,5L7.76,8.39a2.18,2.18,0,0,1-2,1.61H3a1,1,0,0,0,0,2H5.73A4.16,4.16,0,0,0,9.67,9l1.05-3.37a2.23,2.23,0,0,1,1.36-1.49,1.91,1.91,0,0,1,1.69.18l-.08.1A14.26,14.26,0,0,0,11,14a14.38,14.38,0,0,0,2,5.8v2.58a2.77,2.77,0,0,0,.5,1.58c-.06.06-.13.11-.19.18a4.87,4.87,0,0,0-1.27,4A1,1,0,0,0,13,29h.14A1,1,0,0,0,14,27.87a2.88,2.88,0,0,1,.74-2.39l.23-.21V28a1,1,0,0,0,2,0V25.27l.23.21A2.88,2.88,0,0,1,18,27.87,1,1,0,0,0,18.83,29H19a1,1,0,0,0,1-.87,4.87,4.87,0,0,0-1.27-4c-.06-.07-.13-.12-.19-.18a2.77,2.77,0,0,0,.5-1.58V19.79a14.87,14.87,0,0,0,1.19-2.44q.19-.51.36-1.08A13.62,13.62,0,0,0,21,14a15,15,0,0,0-2.23-9.37l-.3-.43a1.9,1.9,0,0,1,1.46-.06,2.23,2.23,0,0,1,1.36,1.49l1,3.37a4.16,4.16,0,0,0,3.94,3H29a1,1,0,0,0,0-2ZM19,13.76a13,13,0,0,1-.39,2c-.09.32-.19.63-.3.92A12.18,12.18,0,0,1,17.16,19a1,1,0,0,0-.16.54v2.86c0,.34-.22.64-.46.64H15.46c-.24,0-.46-.3-.46-.64V19.5a1,1,0,0,0-.15-.53A12.54,12.54,0,0,1,13,13.76a12.43,12.43,0,0,1,2.28-8.12c.32-.41.58-.63.79-.64h.14c.2,0,.49.07.85.66A13,13,0,0,1,19,13.76Z"/></g></svg>