<svg fill="#000000" xmlns="http://www.w3.org/2000/svg"  viewBox="0 0 24 24" width="24px" height="24px"><path d="M 13.058594 3 C 10.23953 3 8.3278126 3.9859736 7.1777344 5.0078125 C 6.0276562 6.0296514 5.5820314 7.1484375 5.5820312 7.1484375 L 5.4160156 7.5820312 L 5.4199219 7.5917969 C 4.5886621 8.3310055 3 10.062766 3 12.533203 C 3 15.236498 4.3264747 17.416367 6.1328125 18.839844 C 7.9391503 20.26332 10.211283 21 12.337891 21 C 15.415843 21 17.399552 19.870758 18.525391 18.691406 C 19.651229 17.512054 19.970703 16.236328 19.970703 16.236328 L 20.273438 15 L 16.117188 15 L 16.007812 15.876953 C 16.007812 15.876953 15.902953 16.662878 15.390625 17.457031 C 14.878297 18.251184 14.099109 19 12.337891 19 C 12.057853 19 11.827781 18.894117 11.535156 18.603516 C 11.242532 18.312915 10.944811 17.840267 10.707031 17.304688 C 10.231471 16.233526 10 14.843277 10 14.5 C 10 14.497431 9.9999972 14.494758 10 14.492188 C 10.392474 14.944031 10.856559 15.405636 11.412109 15.808594 L 12.587891 14.191406 C 11.524667 13.420219 10.784186 12.234259 10.521484 11.777344 C 10.777646 11.224264 11.053191 11.010794 11.134766 10.994141 C 11.149858 10.993964 11.162725 10.992421 11.177734 10.992188 C 11.236141 10.993527 11.290214 11 11.349609 11 L 11.349609 10.984375 C 11.370974 10.983711 11.390919 10.981249 11.412109 10.980469 C 11.885494 11.754871 12.948426 13.226212 14.615234 13.921875 L 15.384766 12.078125 C 14.741862 11.809802 14.116742 11.173038 13.652344 10.603516 C 13.945883 10.500055 14.221316 10.3832 14.464844 10.244141 C 15.298934 9.7678575 15.806193 9.1339679 16.216797 8.6367188 C 16.6274 8.1394695 16.939632 7.7767085 17.4375 7.5 C 17.935368 7.2232915 18.67331 7 20 7 L 20 5 C 18.44219 5 17.316413 5.2767085 16.464844 5.75 C 15.613274 6.2232915 15.090928 6.8605304 14.675781 7.3632812 C 14.260635 7.8660321 13.952004 8.2321421 13.472656 8.5058594 C 13.019934 8.7643733 12.34757 8.9695481 11.191406 8.9921875 C 8.974837 8.9449284 8.1242686 7.9735559 7.765625 7.4609375 C 7.8861687 7.2280902 7.9282459 7.0151598 8.5058594 6.5019531 C 9.3310312 5.768792 10.690658 5 13.058594 5 L 14.025391 5 L 19 5 L 19 3 L 13.058594 3 z M 14.025391 5 A 0.97399998 1 0 0 0 13.052734 6 A 0.97399998 1 0 0 0 14.025391 7 A 0.97399998 1 0 0 0 15 6 A 0.97399998 1 0 0 0 14.025391 5 z M 6.6738281 9.1875 C 7.201492 9.6756926 7.9220116 10.202555 8.890625 10.564453 C 8.7829278 10.762024 8.6808942 10.964035 8.5976562 11.169922 C 8.1916291 12.174219 8 13.351392 8 14.5 C 8 15.374678 8.2741942 16.718153 8.8671875 18.072266 C 8.3530841 17.825028 7.8138946 17.618479 7.3710938 17.269531 C 5.9526815 16.151758 5 14.598908 5 12.533203 C 5 11.003191 6.0691419 9.7704551 6.6738281 9.1875 z"/></svg>