<svg xmlns="http://www.w3.org/2000/svg" viewBox="0 0 32 32"><g id="puffer_fish" data-name="puffer fish"><path d="M30,14.5A2.5,2.5,0,0,0,27.5,12h-.22a2.36,2.36,0,0,1-.24-.33l-.17-.26-.09-.13c-.7-1-2.84-3.91-5.81-4.83A9.87,9.87,0,0,0,18.38,6l.33-1a1.93,1.93,0,0,0-.93-2.34,6.24,6.24,0,0,0-8,1.86,2,2,0,0,0,.49,2.8l1.41.94c-.27.23-.54.48-.8.74a9.88,9.88,0,0,0-1.92,2.81L5.45,10.11a1,1,0,0,0-1.17.2,8.24,8.24,0,0,0,0,11.38A1,1,0,0,0,5,22a.91.91,0,0,0,.45-.11l3.49-1.74A10.13,10.13,0,0,0,17.73,26H18a10,10,0,0,0,3-.45c3-.92,5.11-3.87,5.81-4.83l.09-.13.17-.26a2.36,2.36,0,0,1,.24-.33h.22a2.5,2.5,0,0,0,2-4A2.53,2.53,0,0,0,30,14.5ZM11.33,5.76A4.43,4.43,0,0,1,14.15,4a4.71,4.71,0,0,1,2.66.41l-.59,1.76a10,10,0,0,0-2.77.94Zm-6.08,14A6.35,6.35,0,0,1,4,16a6.28,6.28,0,0,1,1.26-3.75l3,1.5A10.66,10.66,0,0,0,8,16.28a9.17,9.17,0,0,0,.27,2Zm15.13,3.89a8.13,8.13,0,0,1-2.6.36A8,8,0,0,1,13,22.21h0A9.91,9.91,0,0,0,15.22,22a10.56,10.56,0,0,0,3-1.23A4.85,4.85,0,0,1,20.11,20a5.23,5.23,0,0,1,3.64,1.29A8.28,8.28,0,0,1,20.38,23.64ZM27,17h.5a.5.5,0,0,1,0,1H27a1,1,0,0,0-.39.08,2.79,2.79,0,0,0-1.27,1.2l-.08.13-.1.13c0,.06-.1.13-.14.2A7.26,7.26,0,0,0,19.89,18a6.56,6.56,0,0,0-2.67,1,8,8,0,0,1-6,1h-.08A7.87,7.87,0,0,1,10,16.23,8,8,0,0,1,20.38,8.36c2.33.72,4.17,3.26,4.78,4.1l.1.13.08.13a2.79,2.79,0,0,0,1.27,1.2A1,1,0,0,0,27,14h.5a.5.5,0,0,1,0,1H27a1,1,0,0,0,0,2Z"/><path d="M19.55,14.17l-3-2a1,1,0,0,0-1.15,0,3.5,3.5,0,0,0,0,5.6,1,1,0,0,0,.6.2,1,1,0,0,0,.55-.17l3-2a1,1,0,0,0,0-1.66Zm-3.38,1.51A1.63,1.63,0,0,1,16,15a1.51,1.51,0,0,1,.17-.68l1,.68Z"/></g></svg>