<svg fill="#000000" xmlns="http://www.w3.org/2000/svg"  viewBox="0 0 24 24" width="24px" height="24px"><path d="M22.78,11.83c-0.13-0.16-2.828-3.438-7.406-4.009C14.397,6.696,13.717,4.246,11.432,4c-0.258,2.104-1.789,3.491-2.166,4.274	C9.391,8.448,9.638,8.674,9.859,8.86C9.16,9.16,8.48,9.48,7.84,9.77C7,10.15,5.86,10.68,5.57,10.71c-0.19,0-0.59-0.35-0.94-0.66	c-0.56-0.5-1.26-1.12-2.27-1.51C2.01,8.41,1.62,8.48,1.34,8.73c-0.28,0.24-0.4,0.62-0.31,0.98l0.66,2.75L1.03,15.2	c-0.09,0.36,0.02,0.72,0.29,0.97c0.19,0.17,0.43,0.27,0.68,0.27c0.1,0,0.2-0.02,0.3-0.05c1.06-0.33,1.68-0.97,2.17-1.48	c0.52-0.53,0.72-0.71,1.1-0.71c0.39,0,1.12,0.31,1.89,0.64c0.21,0.09,0.43,0.18,0.66,0.27l-1.124,0.37c0,0,0.552,1.071,0.51,1.449	c-0.043,0.378,2.875-0.867,3.427-0.867c0.007,0,0.007-0.002,0.013-0.003c0.001,0,0.003,0.001,0.004,0.001	c0.609,0.15,1.278,0.259,1.987,0.32l-0.72,0.677c0,0,0.377,1.107,0.472,1.943c1.549-0.475,2.026-1.734,2.322-2.59	c4.919-0.211,7.608-2.24,7.958-3.72C23.04,12.39,22.97,12.07,22.78,11.83z M19.16,11.33c0.21,0.04,0.39,0.17,0.5,0.35	c0.07,0.11,0.11,0.25,0.11,0.4c0,0.42-0.34,0.77-0.77,0.77c-0.42,0-0.77-0.35-0.77-0.77c0-0.43,0.35-0.77,0.77-0.77	c0.05,0,0.1,0,0.15,0.02C19.15,11.33,19.15,11.32,19.16,11.33z M6.77,12.42c0.5-0.19,1.11-0.47,1.91-0.84	c1.68-0.78,3.99-1.85,5.31-1.85c1.1,0,2.09,0.2,2.96,0.51c-0.15,0.49-0.26,1.1-0.26,1.84c0,0.825,0.158,1.432,0.347,1.862	c-0.868-0.653-2.257-1.74-4.037-0.011c0.564,0.064,0.972,0.294,1.344,0.509c-0.001,0-0.003,0-0.004,0h-0.2	c-2.49,0-4.38-0.8-5.9-1.45C7.7,12.77,7.22,12.56,6.77,12.42z"/></svg>