<svg xmlns="http://www.w3.org/2000/svg" viewBox="0 0 32 32"><g id="sardine"><path d="M29.65,15.24a18.61,18.61,0,0,0-5.29-3.17,17.73,17.73,0,0,0-3.59-1,5.13,5.13,0,0,0-1-1.75C18.16,7.6,15.38,7.1,12.67,8.06A1,1,0,0,0,12,9.22,1,1,0,0,0,13.1,10a1.06,1.06,0,0,1,1,.51,1,1,0,0,1,.11.56,25.06,25.06,0,0,0-5.83,1.66A4.1,4.1,0,0,0,4.94,11a4.06,4.06,0,0,0-2.68,1.33,1,1,0,0,0-.26.75,1.07,1.07,0,0,0,.38.71,4.61,4.61,0,0,1,.83.82A4.89,4.89,0,0,1,4,16a4.89,4.89,0,0,1-.74,1.39,4.61,4.61,0,0,1-.83.82,1.07,1.07,0,0,0-.38.71,1,1,0,0,0,.26.75A4.06,4.06,0,0,0,4.94,21a4.07,4.07,0,0,0,3.47-1.72,25.69,25.69,0,0,0,3.92,1.29A5.3,5.3,0,0,0,12,23.12a1,1,0,0,0,.7.84,5.24,5.24,0,0,0,1.5.22,4.82,4.82,0,0,0,3.52-1.49,4.63,4.63,0,0,0,.94-1.54,18.42,18.42,0,0,0,5.69-1.22,18.61,18.61,0,0,0,5.29-3.17,1,1,0,0,0,0-1.52ZM15.92,9.6a3.64,3.64,0,0,1,2.34,1.07l.1.15c-.72,0-1.43,0-2.12,0A2.75,2.75,0,0,0,15.92,9.6ZM7.65,17.06a1,1,0,0,0-.56.53,2.24,2.24,0,0,1-2,1.41,1.59,1.59,0,0,1-.5-.11,3.11,3.11,0,0,0,.23-.28A6.52,6.52,0,0,0,6,16.27a1,1,0,0,0,0-.54,6.52,6.52,0,0,0-1.17-2.34,3.11,3.11,0,0,0-.23-.28,1.59,1.59,0,0,1,.5-.11,2.23,2.23,0,0,1,2,1.41,1,1,0,0,0,.56.53,1,1,0,0,0,.78,0A22.84,22.84,0,0,1,14.88,13a1,1,0,0,0,.45-.06,18.45,18.45,0,0,1,4.33,0A1,1,0,0,0,20,13h.09c.51.08,1,.19,1.55.32A6.05,6.05,0,0,0,21,16a6.13,6.13,0,0,0,.64,2.69,17.61,17.61,0,0,1-2.63.44c0-.09,0-.16,0-.22a1,1,0,0,0-.61-.83,4.78,4.78,0,0,0-3.82,0,4.26,4.26,0,0,0-1.08.75.88.88,0,0,0-.28-.12A23.44,23.44,0,0,1,8.43,17.1,1,1,0,0,0,7.65,17.06Zm8.62,4.25a2.93,2.93,0,0,1-2.29.86,2.78,2.78,0,0,1,1.45-2.27A2.51,2.51,0,0,1,17,19.73,2.73,2.73,0,0,1,16.27,21.31Zm7.37-3.24h0A4.17,4.17,0,0,1,23,16a3.93,3.93,0,0,1,.59-2.08h.05A16.81,16.81,0,0,1,27.39,16,16.81,16.81,0,0,1,23.64,18.07Z"/></g></svg>