<svg xmlns="http://www.w3.org/2000/svg" viewBox="0 0 32 32"><g id="seal"><path d="M29.9,24.73A3.83,3.83,0,0,0,27,22.28a6.46,6.46,0,0,0,.57-7.45.25.25,0,0,1,0-.22.23.23,0,0,1,.16-.16l.67-.22a2.24,2.24,0,0,0,1.52-2.11v-.9A2.23,2.23,0,0,0,27.71,9h-.55A.23.23,0,0,1,27,8.85a5.62,5.62,0,0,0-11,1.8v1.78a.57.57,0,0,1-.57.57H12.29a7,7,0,0,0-2,.29,8.08,8.08,0,0,0-4.7,4.35,7.14,7.14,0,0,0-.49,2.63v1.9a3.87,3.87,0,0,0-3,2.58,3.09,3.09,0,0,0,0,1.48,1,1,0,0,0,1,.77H9.71A2.3,2.3,0,0,0,12,25h8a2.31,2.31,0,0,0,2.28,2h6.66a1,1,0,0,0,1-.76A3.08,3.08,0,0,0,29.9,24.73ZM22.28,25a.31.31,0,0,1-.31-.31V22a1,1,0,0,0-2,0v1H12V22a1,1,0,0,0-2,0v2.69a.31.31,0,0,1-.31.31H4.13a2.71,2.71,0,0,1,2-1,1,1,0,0,0,.9-1V20.27a5.38,5.38,0,0,1,.32-1.84,6,6,0,0,1,3.45-3.22A5.12,5.12,0,0,1,12.29,15h3.13A2.57,2.57,0,0,0,18,12.43V10.65a3.63,3.63,0,0,1,7.07-1.17A2.2,2.2,0,0,0,27.16,11h.55a.23.23,0,0,1,.23.22v.9a.24.24,0,0,1-.16.21l-.67.23a2.19,2.19,0,0,0-1.39,1.35,2.23,2.23,0,0,0,.18,1.95,4.48,4.48,0,0,1-.68,5.45l-1,1A1,1,0,0,0,25,24a3.67,3.67,0,0,1,2.89,1Z"/></g></svg>