<svg fill="#000000" xmlns="http://www.w3.org/2000/svg"  viewBox="0 0 24 24" width="24px" height="24px"><path d="M22 19v2c-.64.65-1.53.93-2.21.99C19.7 22 19.6 22 19.5 22c-.13 0-.25 0-.37-.02C18.47 21.9 17.62 21.63 17 21c-.62.63-1.47.9-2.13.98C14.75 22 14.63 22 14.5 22s-.25 0-.37-.02C13.47 21.9 12.62 21.63 12 21c-.62.63-1.47.9-2.13.98C9.75 22 9.63 22 9.5 22s-.25 0-.37-.02C8.47 21.9 7.62 21.63 7 21c-.62.63-1.47.9-2.13.98C4.75 22 4.63 22 4.5 22c-.1 0-.2 0-.29-.01C3.53 21.93 2.64 21.65 2 21v-2c.64.65 1.53.93 2.21.99C4.3 20 4.4 20 4.5 20c.11 0 .23-.01.35-.02.08 0 .15-.01.23-.03C5.7 19.84 6.44 19.56 7 19c.56.56 1.3.84 1.92.95.08.02.15.03.23.03C9.27 19.99 9.39 20 9.5 20s.23-.01.35-.02c.08 0 .15-.01.23-.03C10.7 19.84 11.44 19.56 12 19c.56.56 1.3.84 1.92.95.08.02.15.03.23.03C14.27 19.99 14.39 20 14.5 20s.23-.01.35-.02c.08 0 .15-.01.23-.03C15.7 19.84 16.44 19.56 17 19c.56.56 1.3.84 1.92.95.08.02.15.03.23.03C19.27 19.99 19.39 20 19.5 20c.1 0 .2 0 .29-.01C20.47 19.93 21.36 19.65 22 19zM19.86 17.98c-.02.01-.05.01-.07.01C19.7 18 19.6 18 19.5 18c-.11 0-.23-.01-.35-.02-.08 0-.15-.01-.23-.03-.38-.07-.8-.2-1.2-.41-.63-2.78-2.71-8.57-9.1-11.76.96 4.32-.45 8.63-1.64 11.24-.56.55-1.29.82-1.9.93C5 17.97 4.93 17.98 4.85 17.98 4.73 17.99 4.61 18 4.5 18c-.09 0-.18 0-.26-.01 1-1.76 4.2-8.1 1.84-13.6C5.92 4.03 6 3.6 6.27 3.31c.28-.29.7-.39 1.07-.25C17.03 6.58 19.35 15.12 19.86 17.98z"/></svg>