<svg xmlns="http://www.w3.org/2000/svg" viewBox="0 0 32 32"><g id="shrimp"><path d="M27.44,5.34,23.22,3.77A11.9,11.9,0,0,0,19,3a1,1,0,0,0,0,2,9.84,9.84,0,0,1,3.52.64l4.21,1.58A2,2,0,0,1,26.05,11H24.73a1,1,0,0,0-.09-1.41A15.09,15.09,0,0,0,15,6H8.09a1.05,1.05,0,0,0-.52.1A10.29,10.29,0,0,0,2,12.32C.44,18,5.34,22.53,6.35,23.39A10.71,10.71,0,0,0,13.43,26c.35,0,.66,0,.93,0l.72,1a4.69,4.69,0,0,0,3.85,2H20a1,1,0,0,0,.88-.53,1,1,0,0,0-.05-1l-1.07-1.61A3.81,3.81,0,0,0,19,25a3.81,3.81,0,0,0,.76-.84l1.07-1.61a1,1,0,0,0,.05-1A1,1,0,0,0,20,21H18.93a4.69,4.69,0,0,0-3.85,2l-.44.63c-2.58-1.12-3.89-3.5-3.65-5.34a4.13,4.13,0,0,1,.19-.77,3,3,0,0,1,2.4-1.92l.26,0,.25,0c.61-.06,5.38-.82,7.05-2l0,.06c.35-.18.68-.39,1-.6h3.87a4,4,0,0,0,1.39-7.66ZM17,26.14a2,2,0,0,1,1.07.7A2.8,2.8,0,0,1,17,26.14Zm1.07-3a2,2,0,0,1-1.07.7A2.8,2.8,0,0,1,18,23.16ZM6.49,9.14a6.86,6.86,0,0,0,.6,3.27A7.12,7.12,0,0,0,10,15.59a5.31,5.31,0,0,0-.66,1.22,8.57,8.57,0,0,1-1.85-.69A8.76,8.76,0,0,1,4,12.74,7.56,7.56,0,0,1,6.49,9.14Zm-1,10a.75.75,0,0,0-.32-.1,9,9,0,0,1-1.32-3.19,10.51,10.51,0,0,0,5.11,3,5.93,5.93,0,0,0,.15,1.25,7.94,7.94,0,0,1-1,0A7.17,7.17,0,0,1,5.49,19.13ZM7.78,22h.1A8.32,8.32,0,0,0,9,22.06a8.46,8.46,0,0,0,.87,0,7.91,7.91,0,0,0,1.32,1.71A8.64,8.64,0,0,1,7.78,22Zm3.81-7.79-.17-.1a5.22,5.22,0,0,1-2.51-2.5A5.12,5.12,0,0,1,8.7,8h3.61A5.67,5.67,0,0,0,12,11.2a5.76,5.76,0,0,0,1.16,2.46A5.14,5.14,0,0,0,11.59,14.19Zm8.66-2.36a18.74,18.74,0,0,1-4.57,1.47,1.31,1.31,0,0,0-.11-.12A3.86,3.86,0,0,1,14,10.8,3.91,3.91,0,0,1,14.52,8H15a12.94,12.94,0,0,1,7.4,2.39,12,12,0,0,1-2.15,1.44Z"/></g></svg>