<svg xmlns="http://www.w3.org/2000/svg" viewBox="0 0 32 32"><g id="starfish"><path d="M29.83,12.42a3,3,0,0,0-2.42-2.08l-6-.91L18.73,3.75a3,3,0,0,0-5.46,0L10.59,9.43l-6,.91a3,3,0,0,0-2.42,2.08,3.17,3.17,0,0,0,.73,3.23l4.36,4.43-1,6.27a3.14,3.14,0,0,0,1.28,3.1A3,3,0,0,0,9.22,30a2.93,2.93,0,0,0,1.43-.37L16,26.7l5.35,2.93a3,3,0,0,0,3.14-.18,3.14,3.14,0,0,0,1.28-3.1l-1-6.27,4.36-4.43A3.17,3.17,0,0,0,29.83,12.42Zm-2.16,1.83L23,19a1,1,0,0,0-.27.87l1.11,6.77a1.11,1.11,0,0,1-.45,1.13.93.93,0,0,1-1,.06l-5.83-3.19a1,1,0,0,0-1,0L9.69,27.87a.93.93,0,0,1-1-.06,1.11,1.11,0,0,1-.45-1.13l1.11-6.77A1,1,0,0,0,9.05,19L4.33,14.25a1.18,1.18,0,0,1-.27-1.2,1.06,1.06,0,0,1,.83-.73l6.52-1a1,1,0,0,0,.76-.56l2.91-6.16a1,1,0,0,1,1.84,0l2.91,6.16a1,1,0,0,0,.76.56l6.52,1a1.06,1.06,0,0,1,.83.73A1.18,1.18,0,0,1,27.67,14.25Z"/></g></svg>