<svg fill="#000000" xmlns="http://www.w3.org/2000/svg"  viewBox="0 0 24 24" width="24px" height="24px"><path d="M 3.7734375 2 C 3.4164375 2 3 2.3254375 3 2.7734375 C 3 3.8964375 4.6929687 5.5053125 5.7929688 8.4453125 C 6.7919504 11.115473 5.7291983 12.507906 6.1035156 13.900391 C 6.0384937 13.966953 5.9784704 14.038155 5.9257812 14.119141 L 5.859375 14.222656 C 5.413375 14.907656 4.9579062 15.867078 5.1289062 16.955078 C 5.3109062 18.019078 5.9825313 18.685047 6.5195312 19.123047 C 7.0745313 19.572047 7.6259062 19.903203 8.0039062 20.283203 C 8.3839063 20.655203 8.5286719 21.084609 8.1386719 21.599609 C 8.0826719 21.675609 8.0796719 21.781375 8.1386719 21.859375 C 8.2106719 21.954375 8.3464062 21.974344 8.4414062 21.902344 C 8.7154063 21.696344 9.0189375 21.383781 9.0859375 20.925781 C 9.1679375 20.498781 9.0304688 20.054797 8.8554688 19.716797 C 8.4954687 19.025797 8.0290312 18.523484 7.7070312 18.021484 C 7.3680313 17.525484 7.2448438 17.068453 7.3398438 16.814453 C 7.4138437 16.586453 7.642625 16.321344 8.015625 16.027344 C 8.0591742 15.992652 8.0902938 15.940996 8.1308594 15.900391 C 8.3446766 15.954449 8.5583886 15.986328 8.7773438 15.986328 C 9.4903437 15.986328 10.254469 15.767578 11.230469 15.767578 C 11.891469 15.767578 12.649687 15.867078 13.554688 16.205078 C 16.495687 17.305078 18.105516 18.998047 19.228516 18.998047 C 19.675516 18.999047 20 18.583563 20 18.226562 C 20 16.664562 17.681641 13.975 17.681641 10.5 C 17.681641 7.758 20 8.2125 20 6.8125 C 20 6.5585 19.744953 5.8632812 19.001953 5.8632812 C 17.854953 5.8632812 18.041891 7.4082031 16.712891 7.4082031 C 16.082891 7.4082031 15.363281 6.6347656 15.363281 6.6347656 C 15.363281 6.6347656 14.589844 5.9151562 14.589844 5.2851562 C 14.589844 3.9561563 16.134766 4.1430938 16.134766 2.9960938 C 16.135766 2.2550937 15.4405 2 15.1875 2 C 13.7885 2 14.243 4.3183594 11.5 4.3183594 C 8.025 4.3183594 5.3354375 2 3.7734375 2 z M 6.4335938 5.1289062 C 7.8215937 5.7269063 9.534 6.3183594 11.5 6.3183594 C 11.958 6.3183594 12.367375 6.2724063 12.734375 6.1914062 C 13.009375 7.0594063 13.611219 7.7267813 13.949219 8.0507812 C 14.273219 8.3877812 14.940594 8.990625 15.808594 9.265625 C 15.727594 9.632625 15.681641 10.042 15.681641 10.5 C 15.681641 12.466 16.274094 14.178406 16.871094 15.566406 C 16.134094 15.150406 15.264859 14.710984 14.255859 14.333984 C 13.237859 13.952984 12.246469 13.767578 11.230469 13.767578 C 10.567469 13.767578 9.9970625 13.845203 9.5390625 13.908203 C 9.2330625 13.950203 8.9693438 13.986328 8.7773438 13.986328 C 8.6313437 13.986328 8.5433437 13.986703 8.2773438 13.720703 C 7.9603437 13.403703 7.9617969 13.403984 8.0917969 12.458984 C 8.2347969 11.416984 8.4510156 9.8411406 7.6660156 7.7441406 C 7.2890156 6.7361406 6.8495937 5.8669063 6.4335938 5.1289062 z"/></svg>