<svg xmlns="http://www.w3.org/2000/svg" viewBox="0 0 32 32"><g id="swordfish"><path d="M29,14H25.26a12.47,12.47,0,0,1-2.6-1.75,12.34,12.34,0,0,1-1.47-1.56A5.94,5.94,0,0,0,19.5,9.13C18,8.28,16,8.25,13.68,9.05a1,1,0,0,0,0,1.89A2.33,2.33,0,0,1,15,12.11l-3.6.4c-1.37.14-2.74.28-3.95.43a8.72,8.72,0,0,0-1.88-1.76,9,9,0,0,0-2.25-1.13,1,1,0,0,0-1.24,1.33A12.05,12.05,0,0,1,3,16a12,12,0,0,1-.92,4.62,1,1,0,0,0,.19,1.06,1,1,0,0,0,1,.27,9,9,0,0,0,2.25-1.13A8.87,8.87,0,0,0,7.49,19a7.79,7.79,0,0,0,.51.63V23a1,1,0,0,0,.51.87,3.31,3.31,0,0,0,1.54.38,2.89,2.89,0,0,0,1.45-.38A3.06,3.06,0,0,0,13,21.73a8.89,8.89,0,0,0,1.84-.25,2.72,2.72,0,0,1-.54.83,1,1,0,0,0-.25.91,1,1,0,0,0,.62.71,5.32,5.32,0,0,0,1.94.37,4.3,4.3,0,0,0,1.85-.4A4.76,4.76,0,0,0,21,20.67,10,10,0,0,0,25.63,16H29a1,1,0,0,0,0-2ZM10.5,19.13,10.3,19h4.24a3.72,3.72,0,0,1,.24.41A5.36,5.36,0,0,1,10.5,19.13Zm0,3a1,1,0,0,1-.5.12V21.11a6.53,6.53,0,0,0,1,.37A1,1,0,0,1,10.5,22.13Zm11.79-4.84a8.5,8.5,0,0,1-1.22,1,4.35,4.35,0,0,0-.1-.52A1,1,0,0,0,19,18v2a1,1,0,0,0,0,.17,2.82,2.82,0,0,1-1.44,1.93,2.45,2.45,0,0,1-.93.21A4.63,4.63,0,0,0,17,20v-.1a4.54,4.54,0,0,0-1.28-2.56A1,1,0,0,0,15,17H7a1,1,0,0,0-.82.43A7,7,0,0,1,4.68,19,14.28,14.28,0,0,0,5,16a14.28,14.28,0,0,0-.32-3,7.22,7.22,0,0,1,1.5,1.57,1,1,0,0,0,.94.42c1.33-.16,2.91-.33,4.48-.5s3.19-.33,4.52-.5a1,1,0,0,0,.86-.78,3.44,3.44,0,0,0,0-1.43,3.23,3.23,0,0,0-.62-1.29,3.52,3.52,0,0,1,2.14.38A4.17,4.17,0,0,1,19.65,12a13.51,13.51,0,0,0,1.69,1.79,14,14,0,0,0,2.35,1.68A8,8,0,0,1,22.29,17.29Z"/></g></svg>