<svg xmlns="http://www.w3.org/2000/svg" viewBox="0 0 32 32"><g id="tang_fish" data-name="tang fish"><path d="M27.16,13h-.74a1.75,1.75,0,0,1-1.37-.65,13.69,13.69,0,0,0-2.48-2.49,1,1,0,0,0,0-.23L21,5.71A4.39,4.39,0,0,0,16.36,3a12.88,12.88,0,0,0-3.87,1.08,12.21,12.21,0,0,0-5.1,4.36,2.37,2.37,0,0,0,.43,3.07l.47.38c-.19.23-.38.46-.55.7L5.55,11.17a1,1,0,0,0-1.15,0A6.17,6.17,0,0,0,2,16a6.19,6.19,0,0,0,2.4,4.8A1,1,0,0,0,5,21a1,1,0,0,0,.55-.17l2.17-1.44a11.14,11.14,0,0,0,.87,1.06l-.85.71a1.92,1.92,0,0,0-.34,2.68,10.44,10.44,0,0,0,4.44,3.33,12.23,12.23,0,0,0,3.32.81l.45,0a3.94,3.94,0,0,0,3.63-2.14l1.1-2.45a.47.47,0,0,0,0-.17,12.3,12.3,0,0,0,5-4,.56.56,0,0,1,.45-.24h1.45A2.73,2.73,0,0,0,30,16.27v-.54A2.76,2.76,0,0,0,27.16,13ZM9.06,9.57a10.27,10.27,0,0,1,4.27-3.65A10.67,10.67,0,0,1,16.59,5a2.4,2.4,0,0,1,2.53,1.42l.73,1.86A9.44,9.44,0,0,0,13.73,8h0a9.68,9.68,0,0,0-4.07,2.41L9.13,10A.35.35,0,0,1,9.06,9.57Zm-4,9.17A4.26,4.26,0,0,1,4,16a4.08,4.08,0,0,1,1.1-2.73l1.58,1.05c-.22.43-.43.86-.61,1.31a1,1,0,0,0,0,.71,10.25,10.25,0,0,0,.6,1.35ZM15.36,26a10.29,10.29,0,0,1-2.78-.68A8.61,8.61,0,0,1,9,22.7l1.09-.9A10.44,10.44,0,0,0,16.54,24h.51c.29,0,.59-.06.88-.1L17.42,25A2,2,0,0,1,15.36,26ZM28,16.27a.73.73,0,0,1-.73.73H25.82a2.57,2.57,0,0,0-2.06,1.05,10,10,0,0,1-5,3.66A8.08,8.08,0,0,1,17,22a8.19,8.19,0,0,1-1.78-.1,9.34,9.34,0,0,1-6.31-4.38s0-.05,0-.07l-.05-.05A10.63,10.63,0,0,1,8.08,16a11.69,11.69,0,0,1,2.18-3.33,8.67,8.67,0,0,1,4-2.72L14,9l.28,1a7.1,7.1,0,0,1,5.18.35l.31.17a10,10,0,0,1,3.72,3.13A3.76,3.76,0,0,0,26.42,15h.74a.76.76,0,0,1,.84.73Z"/></g></svg>