<svg xmlns="http://www.w3.org/2000/svg" viewBox="0 0 32 32"><g id="tuna"><path d="M29.6,9.87a19.32,19.32,0,0,0-9.71-3.76l-1-1.46A5.94,5.94,0,0,0,14,2H10.43a1,1,0,0,0-.88.53,1,1,0,0,0,0,1l1.83,2.76a12.36,12.36,0,0,0-6.92,4.31A10.16,10.16,0,0,0,2.33,17,10.28,10.28,0,0,0,6,24.91a17.5,17.5,0,0,0,1.71,1.26,17.68,17.68,0,0,0,6.4,2.58l3.6,1.2A1.19,1.19,0,0,0,18,30a.94.94,0,0,0,.58-.19A1,1,0,0,0,19,29V21.67a1,1,0,0,0-1.32-1l-3.14,1a4.5,4.5,0,0,1-.62-.69A1.29,1.29,0,0,1,15,19H27.78a1,1,0,0,0,.31-1.95A9,9,0,0,1,25.9,16a9.15,9.15,0,0,1-1.6-1.44A28.31,28.31,0,0,1,27,12.76c.77-.43,1.56-.82,2.36-1.18a1,1,0,0,0,.59-.8A1,1,0,0,0,29.6,9.87ZM15,13a4.11,4.11,0,0,1-2.6-1.21,3.15,3.15,0,0,1-.57-.79H15A8.31,8.31,0,0,0,15,13ZM12.3,4H14a4,4,0,0,1,3.3,1.76l.16.24H14.19l-.54,0ZM17,27.61,15,27V23.72l2-.67Zm-5-8.8a3.26,3.26,0,0,0,.29,3.45,6.51,6.51,0,0,0,.69.79v3.38A15.89,15.89,0,0,1,8.77,24.5a16.86,16.86,0,0,1-1.51-1.12A8.28,8.28,0,0,1,4.33,17a8.14,8.14,0,0,1,1.73-5.12A10.41,10.41,0,0,1,14.19,8h1.86a8.49,8.49,0,0,0-.48,1H10.43a1,1,0,0,0-1,1.19,6,6,0,0,0,1.49,3A6.25,6.25,0,0,0,15.51,15a8.23,8.23,0,0,0,1.09,2H15A3.29,3.29,0,0,0,12,18.81ZM26.07,11a29.17,29.17,0,0,0-3.8,2.53,1,1,0,0,0-.2,1.35A10.31,10.31,0,0,0,24,17H19.34A6.44,6.44,0,0,1,17,12.87,6.48,6.48,0,0,1,18.44,8,17.32,17.32,0,0,1,27,10.52Z"/></g></svg>