<svg xmlns="http://www.w3.org/2000/svg" viewBox="0 0 32 32"><g id="turtle"><path d="M29.43,11.28A3.27,3.27,0,0,0,27.7,8.87L25.32,7.64a3.2,3.2,0,0,0-3.78.63L20.85,9a8.42,8.42,0,0,0-.87-.6s0-.06,0-.1V6.2a4,4,0,0,0-7.78-1.36A4.45,4.45,0,0,0,12,6.2V8.28s0,.07,0,.1a8.42,8.42,0,0,0-.87.6l-.69-.71a3.2,3.2,0,0,0-3.78-.63L4.3,8.87a3.27,3.27,0,0,0-1.73,2.41,3.35,3.35,0,0,0,.89,2.9,1,1,0,0,0,.72.3,1.07,1.07,0,0,0,.46-.11l4-2.07A8.5,8.5,0,0,0,8,15.56V17H8v1.64a8,8,0,0,0,.92,4,4.94,4.94,0,0,0-.7,3.64A5.55,5.55,0,0,0,10.94,30a1.09,1.09,0,0,0,.5.13,1.15,1.15,0,0,0,.26,0,1,1,0,0,0,.61-.47l1.44-2.5a1,1,0,0,0,.12-.42,8.7,8.7,0,0,0,1.13.23V27a1,1,0,0,0,2,0v-.11a8.7,8.7,0,0,0,1.13-.23,1,1,0,0,0,.12.42l1.44,2.5a1,1,0,0,0,.61.47,1.15,1.15,0,0,0,.26,0,1.09,1.09,0,0,0,.5-.13,5.55,5.55,0,0,0,2.72-3.66,4.94,4.94,0,0,0-.7-3.64A7.92,7.92,0,0,0,24,18.76v-3.2a8.5,8.5,0,0,0-.64-3.26l4,2.07a1.07,1.07,0,0,0,.46.11,1,1,0,0,0,.72-.3A3.35,3.35,0,0,0,29.43,11.28ZM16,25h0a5.91,5.91,0,0,1-3.69-1.3L14.25,21a.58.58,0,0,0,.19,0h3.12a.76.76,0,0,0,.21,0l2,2.64A5.91,5.91,0,0,1,16,25Zm3.15-14.74L17.26,12.9s0,.07,0,.1H14.78a1.17,1.17,0,0,0,0-.11l-1.54-2.1-.41-.53a5.76,5.76,0,0,1,6.37,0ZM14,17l1-2H17l1,2-1,2h-1.9Zm-.9-2.93s.08.06.12.1l-1,1.83H10v-.44a6.39,6.39,0,0,1,1.31-3.91ZM12.27,18l.7,1.33-2,2.82A6.07,6.07,0,0,1,10,18.68V18Zm9.73.77v0a5.91,5.91,0,0,1-.9,3.29L19,19.33,19.73,18H22ZM22,16H19.73l-1-1.84.13-.1,1.74-2.48a6.41,6.41,0,0,1,1.36,4ZM14,7.28V6.2a2.18,2.18,0,0,1,.12-.72A2,2,0,0,1,16,4.08,2.07,2.07,0,0,1,18,6.2V7.28ZM4.56,12.16a1.27,1.27,0,0,1,0-.55,1.32,1.32,0,0,1,.68-1L7.6,9.41A1.2,1.2,0,0,1,9,9.66l.13.13ZM12,26.08l-.88,1.53a3.24,3.24,0,0,1-.94-1.71,2.81,2.81,0,0,1,.05-1.32.52.52,0,0,0,.1.11.87.87,0,0,0,.27.14A8.63,8.63,0,0,0,12.13,26Zm9.8-.18a3.24,3.24,0,0,1-.94,1.71L20,26.08a.8.8,0,0,0-.13-.13,7.61,7.61,0,0,0,1.5-1.1.89.89,0,0,0,.43-.17A3,3,0,0,1,21.81,25.9Zm5.63-13.74L22.85,9.79,23,9.66a1.21,1.21,0,0,1,1.42-.25l2.38,1.23a1.32,1.32,0,0,1,.68,1A1.27,1.27,0,0,1,27.44,12.16Z"/></g></svg>