<?xml version="1.0" encoding="UTF-8"?>
<svg id="Solid" xmlns="http://www.w3.org/2000/svg" viewBox="0 0 64 64">
  <path d="M22,52h20v-16H22v16Zm7.5-14h6c.55,0,1,.45,1,1s-.45,1-1,1h-6c-.55,0-1-.45-1-1s.45-1,1-1Z"/>
  <path d="M56.9702,33.2425l-4.9702-1.2425v-3c0-2.21-1.79-4-4-4h-2.0021l-1.7372-11.3038c-.15-.9758-.9896-1.6962-1.9768-1.6962H21.7161c-.9872,0-1.8268,.7204-1.9768,1.6962l-1.7372,11.3038h-2.0021c-2.21,0-4,1.79-4,4v3l-4.9702,1.2425c-1.7806,.4452-3.0298,2.0451-3.0298,3.8806v8.8769c0,2.2091,1.7908,4,4,4h4c0,1.1,.9,2,2,2h4v-16h-6v-2H52v2h-6v16h4c1.1,0,2-.9,2-2h4c2.2092,0,4-1.7909,4-4v-8.8769c0-1.8355-1.2492-3.4354-3.0298-3.8806ZM23.43,16h17.14l1.3837,9H22.0463l1.3837-9Zm18.07,15h-3c0,.55-.45,1-1,1s-1-.45-1-1h-14c-.55,0-1-.45-1-1s.45-1,1-1h14c0-.55,.45-1,1-1s1,.45,1,1h3c.55,0,1,.45,1,1s-.45,1-1,1Z"/>
</svg>