<?xml version="1.0" encoding="UTF-8"?>
<svg id="Solid" xmlns="http://www.w3.org/2000/svg" viewBox="0 0 64 64">
  <path d="M57,29h-1v-3c0-1.6569-1.3431-3-3-3s-3,1.3431-3,3v-3c0-2.2092-1.7908-4-4-4s-4,1.7908-4,4v6H22v-6c0-2.2092-1.7908-4-4-4s-4,1.7908-4,4v3c0-1.6569-1.3431-3-3-3s-3,1.3431-3,3v3h-1c-1.6569,0-3,1.3431-3,3s1.3431,3,3,3h1v3c0,1.6569,1.3431,3,3,3s3-1.3431,3-3v3c0,2.2091,1.7908,4,4,4s4-1.7909,4-4v-6h20v6c0,2.2091,1.7908,4,4,4s4-1.7909,4-4v-3c0,1.6569,1.3431,3,3,3s3-1.3431,3-3v-3h1c1.6569,0,3-1.3431,3-3s-1.3431-3-3-3Z"/>
</svg>