<?xml version="1.0" encoding="UTF-8"?>
<svg id="Solid" xmlns="http://www.w3.org/2000/svg" viewBox="0 0 64 64">
  <path d="M58,44h-4.44l-3.249-21.9282c.9557-.1503,1.689-.9706,1.689-1.9686v-2h0c.8608,0,1.6251-.5508,1.8973-1.3675l2.0345-6.1027c.3494-1.0479-.217-2.1807-1.265-2.5299h0c-1.0479-.3492-2.1804,.2171-2.5297,1.2649l-1.5785,4.7352h-13.5586c-1.1046,0-2,.8954-2,2s.8954,2,2,2h7v2c0,1.1046,.8954,2,2,2h.2691l3.2509,21.8968h-3.52c-1.1,0-2,.9-2,2H6c-1.1046,0-2,.8954-2,2v2H44v2H4v3c0,.5522,.4477,1,1,1H58c1.1,0,2-.9,2-2v-8c0-1.1-.9-2-2-2Zm-6,8c-1.1,0-2-.9-2-2,0-.36,.09-.7,.26-.99,.35-.6,1-1.01,1.74-1.01,1.02,0,1.87,.78,1.99,1.77,.01,.07,.01,.15,.01,.23,0,1.1-.9,2-2,2Z"/>
</svg>