<?xml version="1.0" encoding="UTF-8"?>
<svg id="Solid" xmlns="http://www.w3.org/2000/svg" viewBox="0 0 64 64">
  <path d="M54.86,41.43c-.54-4.91-2.66-9.39-5.84-12.88l1.35-11.11c.02-.15,.03-.29,.04-.44,.6-6.96-4.9-13-11.95-13h-12.92c-7.05,0-12.55,6.04-11.95,13,.0099,.15,.02,.29,.04,.44l1.35,11.1q-.01,0,0,.01c-3.72,4.08-5.98,9.5-5.98,15.45,0,4.57,1.34,8.83,3.63,12.41,1.46,2.26,4,3.59,6.69,3.59h25.37c2.65,0,5.18-1.29,6.62-3.51,2.76-4.26,4.16-9.48,3.55-15.06ZM19.59,16.72c-.21-1.73,.31-3.4,1.46-4.7,1.16-1.3,2.75-2.02,4.49-2.02h12.92c1.74,0,3.33,.72,4.49,2.02,1.15,1.3,1.67,2.97,1.46,4.7l-.03,.28-.86,7.09c-2.68-1.57-5.7-2.6-8.91-2.95-5.17-.57-10.05,.58-14.13,2.96l-.86-7.1-.03-.28Zm18.41,38.28h-12c-.55,0-1-.45-1-1s.45-1,1-1h12c.55,0,1,.45,1,1s-.45,1-1,1Zm2.83-17.17c-.73,.72-1.73,1.17-2.83,1.17h-12c-1.48,0-2.77-.8-3.46-2-.34-.59-.54-1.27-.54-2,0-1.1,.45-2.1,1.17-2.83,.73-.72,1.73-1.17,2.83-1.17h12c2.21,0,4,1.79,4,4,0,.73-.2,1.41-.54,2-.17,.3-.39,.58-.63,.83Z"/>
</svg>