<?xml version="1.0" encoding="UTF-8"?>
<svg id="Solid" xmlns="http://www.w3.org/2000/svg" viewBox="0 0 64 64">
  <path d="M16.36,15.82c-2.47,.5099-5.39,.88-7.88,1,4.98-7.71,13.65-12.82,23.52-12.82,2.31,0,4.55,.28,6.7,.81-5.87,5.34-13.75,9.23-22.34,11.01Z"/>
  <path d="M5.46,24.9c-.18,.01-.37,.01-.55,.01,.55-2.13,1.35-4.16,2.3701-6.06,2.8199-.04,6.48-.45,9.48-1.07,9.38-1.94,17.96-6.32,24.17-12.32,2.07,.69,4.03,1.63,5.85,2.77-7.03,7.47-17.47,13.07-28.79,15.42-4.02,.83-8.06,1.25-12.03,1.25h-.5Z"/>
  <path d="M5.25,32.9c-.4,.01-.84,.01-1.22,.01-.03-.3-.03-.6-.03-.91,0-1.74,.16-3.44,.47-5.09h.28c.23,0,.49,0,.73-.01h.48c4.1,0,8.28-.43,12.43-1.29,11.85-2.45,22.78-8.37,30.07-16.26,1.61,1.17,3.08,2.5,4.41,3.98-8.13,8.84-20.23,15.46-33.26,18.15-4.52,.94-9.11,1.42-13.65,1.42h-.71Z"/>
  <path d="M21.24,39.32c-5.07,1.05-10.21,1.58-15.28,1.58h-.51c-.64-1.91-1.09-3.91-1.3-5.99h.17c.31,0,.64,0,.95-.01h.69c4.68,0,9.41-.49,14.05-1.46,13.33-2.76,25.72-9.5,34.15-18.55,1.26,1.62,2.34,3.3799,3.21,5.2599l-.29,.26c-9.08,9.28-21.81,15.99-35.84,18.91Z"/>
  <path d="M22.85,47.15c-3.55,.75-8.48,1.35-13.28,1.61h-.01c-1.33-1.8-2.47-3.76-3.36-5.86,5.12-.02,10.32-.57,15.44-1.62,14.29-2.97,27.28-9.78,36.56-19.16,.83,2.2,1.4,4.53,1.65,6.95-9.89,8.67-23.35,15.25-37,18.08Z"/>
  <path d="M24.89,56.94c11.43-2.37,23.08-7.08,32.49-13.11-4.46,9.55-14.15,16.17-25.38,16.17-3.92,0-7.64-.81-11.03-2.27,1.4301-.27,2.9-.57,3.92-.79Z"/>
  <path d="M60,32c0,2.99-.47,5.88-1.35,8.58-9.59,6.65-21.9901,11.88-34.16,14.4-1.7,.35-4.65,.96-6.5,1.26-2.57-1.48-4.89-3.37-6.86-5.57,4.42-.31,8.85-.88,12.13-1.56,13.44-2.79,26.72-9.14,36.73-17.53,.01,.14,.01,.28,.01,.42Z"/>
  <path d="M9.67,48.9c-.04-.04-.07-.09-.11-.14h.01c.04,.05,.07,.09,.1,.14Z"/>
</svg>