<?xml version="1.0" encoding="UTF-8"?>
<svg id="Solid" xmlns="http://www.w3.org/2000/svg" viewBox="0 0 64 64">
  <path d="M56,17H24v30c0,3.72-1.86,7.01-4.7,9H56c2.21,0,4-1.79,4-4V21c0-2.21-1.79-4-4-4Zm-4,25.5c0,1.1-.9,2-2,2s-2-.9-2-2v-12c0-1.1,.9-2,2-2,.55,0,1.05,.22,1.41,.59,.3701,.36,.59,.86,.59,1.41v12Z"/>
  <path d="M13,36c3.7198,0,7.0082,1.8607,9,4.6953V17c0-4.9706-4.0294-9-9-9S4,12.0294,4,17v23.6953c1.9918-2.8345,5.2802-4.6953,9-4.6953Z"/>
  <path d="M13,38c-4.97,0-9,4.03-9,9s4.03,9,9,9,9-4.03,9-9-4.03-9-9-9Zm0,14c-2.76,0-5-2.24-5-5s2.24-5,5-5,5,2.24,5,5-2.24,5-5,5Z"/>
</svg>