<?xml version="1.0" encoding="UTF-8"?>
<svg id="Solid" xmlns="http://www.w3.org/2000/svg" viewBox="0 0 64 64">
  <rect x="22" y="30" width="20" height="21"/>
  <path d="M22,56c0,2.21,1.79,4,4,4h12c2.21,0,4-1.79,4-4v-3H22v3Z"/>
  <path d="M50,4H14c-1.1046,0-2,.8954-2,2s.8954,2,2,2h14v2c0,1.066,.8364,1.9291,1.8875,1.9886l-4.012,8.0239c-2.1511,.0672-3.8755,1.8201-3.8755,3.9875v2h20v-2c0-2.1674-1.7245-3.9203-3.8755-3.9875l-4.012-8.0239c1.0511-.0595,1.8875-.9226,1.8875-1.9886v-2h14c1.1046,0,2-.8954,2-2s-.8954-2-2-2ZM28.1182,20l3.8818-7.7642,3.8818,7.7642h-7.7637Z"/>
</svg>