<?xml version="1.0" encoding="UTF-8"?>
<svg id="Solid" xmlns="http://www.w3.org/2000/svg" viewBox="0 0 64 64">
  <path d="M58,30h-2v-4c0-1.1046-.8954-2-2-2s-2,.8954-2,2v-2c0-1.1046-.8954-2-2-2s-2,.8954-2,2v-2c0-1.1046-.8954-2-2-2s-2,.8954-2,2v8H20v-8c0-1.1046-.8954-2-2-2s-2,.8954-2,2v2c0-1.1046-.8954-2-2-2s-2,.8954-2,2v2c0-1.1046-.8954-2-2-2s-2,.8954-2,2v4h-2c-1.1046,0-2,.8954-2,2s.8954,2,2,2h2v4c0,1.1046,.8954,2,2,2s2-.8954,2-2v2c0,1.1046,.8954,2,2,2s2-.8954,2-2v2c0,1.1046,.8954,2,2,2s2-.8954,2-2v-8h24v8c0,1.1046,.8954,2,2,2s2-.8954,2-2v-2c0,1.1046,.8954,2,2,2s2-.8954,2-2v-2c0,1.1046,.8954,2,2,2s2-.8954,2-2v-4h2c1.1046,0,2-.8954,2-2s-.8954-2-2-2Z"/>
</svg>