<?xml version="1.0" encoding="UTF-8"?>
<svg id="Solid" xmlns="http://www.w3.org/2000/svg" viewBox="0 0 64 64">
  <path d="M59,54h-1v-11c0-1.1-.9-2-2-2v-4c0-1.1-.9-2-2-2H20v-9.22c4.01-.91,7-4.5,7-8.78,0-4.97-4.03-9-9-9s-9,4.03-9,9c0,4.28,2.99,7.87,7,8.78v28.22h-6v-9h4v-10h-4c-1.1,0-2,.9-2,2v4c-1.1,0-2,.9-2,2v11h-1c-.5527,0-1,.4478-1,1s.4473,1,1,1H59c.5527,0,1-.4478,1-1s-.4473-1-1-1ZM13,17c0-2.76,2.24-5,5-5s5,2.24,5,5c0,2.05-1.24,3.81-3,4.59-.61,.26-1.29,.41-2,.41s-1.39-.15-2-.41c-1.76-.78-3-2.54-3-4.59Zm7,37v-9H54v9H20Z"/>
  <circle cx="18" cy="17" r="2"/>
</svg>