<?xml version="1.0" encoding="UTF-8"?>
<svg id="Solid" xmlns="http://www.w3.org/2000/svg" viewBox="0 0 64 64">
  <path d="M59,53h-16.4c4.64,0,8.4-3.76,8.4-8.4,0-3.47-2.12-6.49-5.19-7.76l2.3317-15.7368h.2686c1.1046,0,2-.8954,2-2v-2h1.5897c.8608,0,1.6251-.5508,1.8973-1.3675l2.0345-6.1027c.3494-1.0479-.217-2.1807-1.265-2.5299h0c-1.0479-.3492-2.1804,.2171-2.5297,1.2649l-1.5785,4.7352h-13.5586c-1.1046,0-2,.8954-2,2s.8954,2,2,2h5.4102v2c0,.9976,.7325,1.8177,1.6877,1.9685l-2.228,15.0082-19.76-1.97-1.7946-12.11h2.5425c1.1831,0,2.1422-.9591,2.1422-2.1422,0-1.066-.7839-1.9698-1.8392-2.1206l-8.9799-1.2828c-1.6788-.2399-3.1809,1.0629-3.1809,2.7588,0,1.5391,1.2477,2.7868,2.7868,2.7868h2.481l1.8223,12.3c-4.05,1.06-7.09,4.75-7.09,9.2,0,5.25,4.25,9.5,9.5,9.5H5c-.5523,0-1,.4477-1,1v2c0,.5522,.4477,1,1,1H59c.5523,0,1-.4478,1-1v-2c0-.5523-.4477-1-1-1Zm-17.99-11.1c.44-.25,.95-.4,1.49-.4,1,0,1.89,.49,2.43,1.24,.36,.49,.57,1.1,.57,1.76,0,.97-.46,1.84-1.18,2.38-.5,.39-1.13,.62-1.82,.62-.86,0-1.64-.36-2.18-.95-.51-.53-.82-1.25-.82-2.05,0-1.12,.61-2.09,1.51-2.6Zm-24.51,1.6c0-1.64,.99-3.05,2.41-3.66,.4901-.22,1.02-.34,1.59-.34,.97,0,1.86,.35,2.55,.92,.89,.74,1.45,1.84,1.45,3.08,0,.81-.25,1.57-.67,2.21-.08,.11-.16,.22-.25,.33l.38,.51,1.05,1.45h1.49c.55,0,1,.45,1,1s-.45,1-1,1h-2c-.28,0-.54-.11-.71-.31-.05-.03-.07-.06-.1-.1l-1.72-2.37c-.46,.18-.95,.28-1.47,.28-.15,0-.3-.01-.45-.03-2-.22-3.55-1.91-3.55-3.97Z"/>
  <path d="M19.91,42.69c-.45,.33-.54,.95-.22,1.4l2.28,3.13c.63-.25,1.19-.66,1.61-1.18l-2.27-3.13c-.33-.45-.95-.54-1.4-.22Z"/>
</svg>