<?xml version="1.0" encoding="UTF-8"?>
<svg id="Solid" xmlns="http://www.w3.org/2000/svg" viewBox="0 0 64 64">
  <path d="M58,12H6c-1.1,0-2,.9-2,2V50c0,1.1,.9,2,2,2H58c1.1,0,2-.9,2-2V14c0-1.1-.9-2-2-2ZM20,47H11c-.55,0-1-.45-1-1s.45-1,1-1h9c.55,0,1,.45,1,1s-.45,1-1,1Zm5-4H11c-.55,0-1-.45-1-1s.45-1,1-1h14c.55,0,1,.45,1,1s-.45,1-1,1Zm1-5H10v-4H26v4Zm1-13c0,.55-.45,1-1,1s-1-.45-1-1v1c0,1.1-.9,2-2,2s-2-.9-2-2v-1h-6v1c0,1.1-.9,2-2,2s-2-.9-2-2v-1c0,.55-.45,1-1,1s-1-.45-1-1v-2c0-.55,.45-1,1-1s1,.45,1,1v-1c0-1.1,.9-2,2-2,.55,0,1.05,.22,1.41,.59,.3701,.36,.59,.86,.59,1.41v1h6v-1c0-1.1,.9-2,2-2,.55,0,1.05,.22,1.41,.59,.3701,.36,.59,.86,.59,1.41v1c0-.55,.45-1,1-1s1,.45,1,1v2Zm21,22h-10c-.55,0-1-.45-1-1s.45-1,1-1h10c.55,0,1,.45,1,1s-.45,1-1,1Zm3-4h-16c-.55,0-1-.45-1-1s.45-1,1-1h16c.55,0,1,.45,1,1s-.45,1-1,1Zm3-5h-4v-3c0-2.76-2.24-5-5-5h-4c-2.76,0-5,2.24-5,5v3h-4V18h22v20Z"/>
  <path d="M47,26c0-1.1-.45-2.1-1.17-2.83-.73-.72-1.73-1.17-2.83-1.17s-2.1,.45-2.83,1.17c-.72,.73-1.17,1.73-1.17,2.83,0,2.21,1.79,4,4,4,1.1,0,2.1-.45,2.83-1.17,.72-.73,1.17-1.73,1.17-2.83Z"/>
</svg>