<?xml version="1.0" encoding="UTF-8"?>
<svg id="Solid" xmlns="http://www.w3.org/2000/svg" viewBox="0 0 64 64">
  <path d="M18,12h28c1.1,0,2-.9,2-2V6c0-1.1-.9-2-2-2H18c-1.1,0-2,.9-2,2v4c0,1.1,.9,2,2,2Zm25-5c0-.55,.45-1,1-1s1,.45,1,1v2c0,.55-.45,1-1,1s-1-.45-1-1v-2Zm-4,0c0-.55,.45-1,1-1s1,.45,1,1v2c0,.55-.45,1-1,1s-1-.45-1-1v-2Zm-4,0c0-.55,.45-1,1-1s1,.45,1,1v2c0,.55-.45,1-1,1s-1-.45-1-1v-2Zm-4,0c0-.55,.45-1,1-1s1,.45,1,1v2c0,.55-.45,1-1,1s-1-.45-1-1v-2Zm-4,0c0-.55,.45-1,1-1s1,.45,1,1v2c0,.55-.45,1-1,1s-1-.45-1-1v-2Zm-4,0c0-.55,.45-1,1-1s1,.45,1,1v2c0,.55-.45,1-1,1s-1-.45-1-1v-2Zm-4,0c0-.55,.45-1,1-1s1,.45,1,1v2c0,.55-.45,1-1,1s-1-.45-1-1v-2Z"/>
  <path d="M48,18h-3.125l-.5-4H19.625l-.5,4h-3.125c-2.21,0-4,1.79-4,4V54c0,3.31,2.69,6,6,6h28c3.31,0,6-2.69,6-6V22c0-2.21-1.79-4-4-4Zm0,34H16V30H48v22Z"/>
  <path d="M29.5,41h3.38l-2.77,5.55c-.25,.5-.05,1.1,.44,1.34,.15,.08,.3,.11,.45,.11,.37,0,.72-.2,.89-.55l3.5-7c.16-.31,.14-.6801-.04-.98-.18-.29-.5-.47-.85-.47h-3.38l1.77-3.55c.25-.5,.05-1.1-.44-1.34-.5-.25-1.1-.05-1.34,.44l-2.5,5c-.16,.31-.14,.68,.04,.98,.18,.29,.5,.47,.85,.47Z"/>
</svg>