<?xml version="1.0" encoding="UTF-8"?>
<svg id="Solid" xmlns="http://www.w3.org/2000/svg" viewBox="0 0 64 64">
  <path d="M50,10h-6v4h4V56H16V14h4v-4h-6c-1.1,0-2,.9-2,2V58c0,1.1,.9,2,2,2H50c1.1,0,2-.9,2-2V12c0-1.1-.9-2-2-2Z"/>
  <path d="M23,16h18c.55,0,1-.45,1-1v-6c0-.55-.45-1-1-1h-4c0-2.21-1.79-4-4-4h-2c-2.21,0-4,1.79-4,4h-4c-.55,0-1,.45-1,1v6c0,.55,.45,1,1,1Z"/>
  <path d="M37,29.77c1.1,0,2-.9,2-2v-1c0,.55,.45,1,1,1s1-.45,1-1v-2c0-.56-.45-1-1-1s-1,.44-1,1v-1c0-.55-.22-1.05-.59-1.42-.36-.36-.86-.58-1.41-.58-1.1,0-2,.89-2,2v1h-6v-1c0-.55-.22-1.05-.59-1.42-.36-.36-.86-.58-1.41-.58-1.1,0-2,.89-2,2v1c0-.56-.45-1-1-1s-1,.44-1,1v2c0,.55,.45,1,1,1s1-.45,1-1v1c0,1.1,.9,2,2,2s2-.9,2-2v-1h6v1c0,1.1,.9,2,2,2Z"/>
  <path d="M22,39h12c.55,0,1-.45,1-1s-.45-1-1-1h-12c-.55,0-1,.45-1,1s.45,1,1,1Z"/>
  <path d="M22,35h20c.55,0,1-.45,1-1s-.45-1-1-1H22c-.55,0-1,.45-1,1s.45,1,1,1Z"/>
  <path d="M22,43h20c.55,0,1-.45,1-1s-.45-1-1-1H22c-.55,0-1,.45-1,1s.45,1,1,1Z"/>
  <path d="M22,47h12c.55,0,1-.45,1-1s-.45-1-1-1h-12c-.55,0-1,.45-1,1s.45,1,1,1Z"/>
  <path d="M22,51h20c.55,0,1-.45,1-1s-.45-1-1-1H22c-.55,0-1,.45-1,1s.45,1,1,1Z"/>
</svg>