<?xml version="1.0" encoding="UTF-8"?>
<svg id="Solid" xmlns="http://www.w3.org/2000/svg" viewBox="0 0 64 64">
  <path d="M51.81,53.5l-2.59-9.4-8.95,1.73,1.52,9.82c.38,2.5,2.54,4.35,5.07,4.35,2.91,0,5.14-2.38,5.14-5.13,0-.45-.06-.91-.19-1.37Z"/>
  <path d="M12.19,53.5c-.13,.46-.19,.92-.19,1.37,0,2.75,2.23,5.13,5.14,5.13,2.53,0,4.69-1.85,5.07-4.35l1.52-9.82-8.95-1.73-2.59,9.4Z"/>
  <path d="M26.123,32.0371l-1.9645-.3808,2.2115-11.4063c-.3-.2-.6-.42-.88-.66-1.04-.89-1.87-1.97-2.46-3.17l-2.8031,14.4742-1.9506-.3781c-1.0844-.2102-2.1339,.4985-2.3441,1.5828l-.3799,1.9599c-.1956,1.0093,.4097,1.9793,1.3681,2.2795l-.0005,.0016-.01,.02-1.06,3.87,8.4901,1.65,.62-3.96v-.0004l.0219,.0042c1.0844,.2102,2.1339-.4984,2.3441-1.5828l.3799-1.9598c.2102-1.0844-.4985-2.1339-1.5828-2.3441Z"/>
  <path d="M47.09,36.36l-.01-.02-.0005-.0016c.9584-.3002,1.5637-1.2701,1.3681-2.2795l-.3799-1.9599c-.2102-1.0844-1.2596-1.793-2.3441-1.5828l-1.9547,.3789-3.799-19.6102v-.0349c-.3799-4.07-3.8-7.25-7.97-7.25s-7.59,3.18-7.97,7.25c-.02,.25-.03,.5-.03,.75,0,2.43,1.08,4.6,2.79,6.07,1.4,1.2,3.22,1.93,5.21,1.93s3.81-.73,5.21-1.93l.0017-.0016,2.6322,13.5874-1.9669,.3813c-1.0844,.2102-1.793,1.2596-1.5828,2.3441l.3799,1.9598c.2102,1.0844,1.2596,1.793,2.3441,1.5828l.0218-.0042v.0004l.6201,3.96,8.4901-1.65-1.06-3.87Zm-15.09-20.36c-2.21,0-4-1.79-4-4,0-.07,0-.15,.01-.22,.11-2.11,1.85-3.78,3.99-3.78s3.88,1.67,3.99,3.78c.01,.07,.01,.15,.01,.22,0,2.21-1.79,4-4,4Z"/>
</svg>