<?xml version="1.0" encoding="UTF-8"?>
<svg id="Solid" xmlns="http://www.w3.org/2000/svg" viewBox="0 0 64 64">
  <path d="M9,56c0,2.21,1.79,4,4,4s4-1.79,4-4v-1H9v1Z"/>
  <path d="M47,56c0,2.21,1.79,4,4,4s4-1.79,4-4v-1h-8v1Z"/>
  <path d="M55,36h-3v-12c0-10.5457-8.2098-19.1893-18.5703-19.9276-.4702-.0479-.9471-.0724-1.4297-.0724s-.9595,.0245-1.4297,.0724c-10.3605,.7382-18.5703,9.3818-18.5703,19.9276v12h-3c-.5523,0-1,.4477-1,1v2c0,.5522,.4477,1,1,1v13h8v-13c.5523,0,1-.4478,1-1v-2c0-.5523-.4477-1-1-1h-3v-12c0-5.4473,2.4419-10.3271,6.2778-13.6307-1.4353,2.1974-2.2778,4.8158-2.2778,7.6307,0,7.7197,6.2803,14,14,14s14-6.2803,14-14c0-2.8149-.8425-5.4333-2.2778-7.6307,3.8359,3.3036,6.2778,8.1833,6.2778,13.6307v12h-3c-.5523,0-1,.4477-1,1v2c0,.5522,.4477,1,1,1v13h8v-13c.5523,0,1-.4478,1-1v-2c0-.5523-.4477-1-1-1ZM31.1831,6.0414c.2728-.0123,.5411-.0414,.8169-.0414s.5441,.0291,.8169,.0414c4.0289,.4105,7.1831,3.8232,7.1831,7.9586,0,4.4111-3.5889,8-8,8s-8-3.5889-8-8c0-4.1354,3.1542-7.5481,7.1831-7.9586Zm.8169,23.9586c-6.6167,0-12-5.3828-12-12,0-2.8342,.9929-5.4376,2.642-7.493-.4081,1.0893-.642,2.2631-.642,3.493,0,5.5137,4.4858,10,10,10s10-4.4863,10-10c0-1.2299-.2339-2.4037-.642-3.493,1.649,2.0554,2.642,4.6588,2.642,7.493,0,6.6172-5.3833,12-12,12Z"/>
</svg>