<?xml version="1.0" encoding="UTF-8"?>
<svg id="Solid" xmlns="http://www.w3.org/2000/svg" viewBox="0 0 64 64">
  <path d="M59,52h-7l-3.5555-16h5.5555c1.1,0,2-.9,2-2v-3H8v3c0,1.1,.9,2,2,2h5.5555l-3.5555,16H5c-.5523,0-1,.4477-1,1v2c0,.5522,.4477,1,1,1H59c.5523,0,1-.4478,1-1v-2c0-.5523-.4477-1-1-1Zm-43,0l3.5555-16h24.8889l3.5555,16H16Z"/>
  <path d="M56,22c0-3.31-2.69-6-6-6h-1v-3c0-2.7568-2.2432-5-5-5s-5,2.2432-5,5v3h-14v-3c0-2.7568-2.2432-5-5-5s-5,2.2432-5,5v3h-1c-3.31,0-6,2.69-6,6v7H56v-7Zm-15-9c0-1.6543,1.3457-3,3-3s3,1.3457,3,3v3h-6v-3Zm-24,0c0-1.6543,1.3457-3,3-3s3,1.3457,3,3v3h-6v-3Z"/>
</svg>