<?xml version="1.0" encoding="UTF-8"?>
<svg id="Solid" xmlns="http://www.w3.org/2000/svg" viewBox="0 0 64 64">
  <path d="M39.78,28.81l-7.27,7.26c-.16-.05-.33-.07-.51-.07-1.1,0-2,.9-2,2,0,.18,.02,.35,.07,.51l-1.61,1.61c-.39,.39-.39,1.02,0,1.42,.2,.19,.46,.29,.71,.29,.26,0,.51-.1,.71-.29l1.61-1.61c.16,.05,.33,.07,.51,.07,1.1,0,2-.9,2-2,0-.18-.02-.35-.07-.51l7.26-7.27c.39-.39,.39-1.02,0-1.41s-1.02-.39-1.41,0Z"/>
  <path d="M51.8994,21.2725c.7809,.7809,2.0472,.7809,2.8281,0,.7809-.781,.7809-2.0472,0-2.8281l-3.1719-3.1719c-.7809-.781-2.0472-.781-2.8281,0-.7809,.7809-.7809,2.0471,0,2.8281l.1719,.1719-2.8184,2.8184-.001-.0009c-3.33-2.78-7.5-4.59-12.08-5l-.009-.0004c.0013-.0303,.009-.0588,.009-.0895v-3h1.5c2.48,0,4.5-2.02,4.5-4.5s-2.02-4.5-4.5-4.5h-7c-2.48,0-4.5,2.02-4.5,4.5s2.02,4.5,4.5,4.5h1.5v3c0,.0307,.0077,.0592,.009,.0895l-.009,.0004c-4.58,.41-8.75,2.22-12.08,5l-.001,.0009-2.8184-2.8184,.1719-.1719c.7809-.781,.7809-2.0472,0-2.8281-.7809-.781-2.0472-.781-2.8281,0l-3.1719,3.1719c-.7809,.7809-.7809,2.0471,0,2.8281,.7809,.7809,2.0472,.7809,2.8281,0l.1719-.1719,2.8184,2.8184-.0009,.001c-3.1801,3.81-5.09,8.72-5.09,14.08,0,12.15,9.85,22,22,22s22-9.85,22-22c0-5.36-1.91-10.27-5.09-14.08l-.0009-.001,2.8184-2.8184,.1719,.1719ZM28.5,11c-1.38,0-2.5-1.12-2.5-2.5s1.12-2.5,2.5-2.5h7c1.38,0,2.5,1.12,2.5,2.5s-1.12,2.5-2.5,2.5h-1.5v-1c0-1.1046-.8954-2-2-2s-2,.8954-2,2v1h-1.5Zm21.47,26h-1.97c-.55,0-1,.45-1,1s.45,1,1,1h1.97c-.23,4.21-1.92,8.04-4.5699,10.99l-1.38-1.38c-.39-.39-1.02-.39-1.41,0s-.39,1.02,0,1.41l1.38,1.38c-2.95,2.65-6.78,4.34-10.99,4.57v-1.97c0-.55-.45-1-1-1s-1,.45-1,1v1.97c-4.21-.23-8.04-1.92-10.99-4.57l1.38-1.38c.39-.39,.39-1.02,0-1.41s-1.02-.39-1.41,0l-1.38,1.38c-2.65-2.95-4.34-6.78-4.5699-10.99h1.97c.55,0,1-.45,1-1s-.45-1-1-1h-1.97c.23-4.21,1.92-8.04,4.5699-10.99l1.38,1.38c.19,.2,.45,.3,.71,.3,.25,0,.51-.1,.7-.3,.39-.39,.39-1.02,0-1.41l-1.38-1.38c2.95-2.65,6.78-4.34,10.99-4.57v1.97c0,.55,.45,1,1,1s1-.45,1-1v-1.97c4.21,.23,8.04,1.92,10.99,4.57l-1.38,1.38c-.39,.39-.39,1.02,0,1.41,.19,.2,.45,.3,.7,.3,.26,0,.52-.1,.71-.3l1.38-1.38c2.65,2.95,4.34,6.78,4.5699,10.99Z"/>
</svg>