<?xml version="1.0" encoding="UTF-8"?>
<svg id="Solid" xmlns="http://www.w3.org/2000/svg" viewBox="0 0 64 64">
  <path d="M59,53V31h-17v22h-2V31H24v22h-2V31H5v22c-.5523,0-1,.4477-1,1v2c0,.5522,.4477,1,1,1H59c.5523,0,1-.4478,1-1v-2c0-.5523-.4477-1-1-1Zm-15-16.25c0-.55,.45-1,1-1s1,.45,1,1v2c0,.55-.45,1-1,1s-1-.45-1-1v-2Zm1,7.25h10c.55,0,1,.45,1,1s-.45,1-1,1h-10c-.55,0-1-.45-1-1s.45-1,1-1Zm0,4h10c.55,0,1,.45,1,1s-.45,1-1,1h-10c-.55,0-1-.45-1-1s.45-1,1-1Zm-19-11.25c0-.55,.45-1,1-1s1,.45,1,1v2c0,.55-.45,1-1,1s-1-.45-1-1v-2Zm1,7.25h10c.55,0,1,.45,1,1s-.45,1-1,1h-10c-.55,0-1-.45-1-1s.45-1,1-1Zm0,4h10c.55,0,1,.45,1,1s-.45,1-1,1h-10c-.55,0-1-.45-1-1s.45-1,1-1Zm-19-11.25c0-.55,.45-1,1-1s1,.45,1,1v2c0,.55-.45,1-1,1s-1-.45-1-1v-2Zm1,7.25h10c.55,0,1,.45,1,1s-.45,1-1,1H9c-.55,0-1-.45-1-1s.45-1,1-1Zm0,4h10c.55,0,1,.45,1,1s-.45,1-1,1H9c-.55,0-1-.45-1-1s.45-1,1-1Z"/>
  <path d="M40,7H24V29h16V7Zm-14,6.75c0-.55,.45-1,1-1s1,.45,1,1v2c0,.55-.45,1-1,1s-1-.45-1-1v-2Zm11,13.25h-10c-.55,0-1-.45-1-1s.45-1,1-1h10c.55,0,1,.45,1,1s-.45,1-1,1Zm0-4h-10c-.55,0-1-.45-1-1s.45-1,1-1h10c.55,0,1,.45,1,1s-.45,1-1,1Z"/>
  <path d="M22,7H6c-.55,0-1,.45-1,1V29H22V7Zm-14,6.75c0-.55,.45-1,1-1s1,.45,1,1v2c0,.55-.45,1-1,1s-1-.45-1-1v-2Zm11,13.25H9c-.55,0-1-.45-1-1s.45-1,1-1h10c.55,0,1,.45,1,1s-.45,1-1,1Zm0-4H9c-.55,0-1-.45-1-1s.45-1,1-1h10c.55,0,1,.45,1,1s-.45,1-1,1Z"/>
  <path d="M59,8c0-.55-.45-1-1-1h-16V29h17V8Zm-15,5.75c0-.55,.45-1,1-1s1,.45,1,1v2c0,.55-.45,1-1,1s-1-.45-1-1v-2Zm11,13.25h-10c-.55,0-1-.45-1-1s.45-1,1-1h10c.55,0,1,.45,1,1s-.45,1-1,1Zm0-4h-10c-.55,0-1-.45-1-1s.45-1,1-1h10c.55,0,1,.45,1,1s-.45,1-1,1Z"/>
</svg>