<?xml version="1.0" encoding="UTF-8"?>
<svg id="Solid" xmlns="http://www.w3.org/2000/svg" viewBox="0 0 64 64">
  <path d="M45.71,14.07l-.4-2.4c-.16-.96-1-1.67-1.97-1.67h-.34V5c0-.5523-.4477-1-1-1H22c-.5523,0-1,.4477-1,1v5h-.34c-.97,0-1.81,.71-1.97,1.67l-.4,2.4c-1.87,.33-3.29,1.96-3.29,3.93v28c0,1.97,1.42,3.6,3.29,3.93l.4,2.4c.16,.96,1,1.67,1.97,1.67h.34v5c0,.5522,.4477,1,1,1h20c.5523,0,1-.4478,1-1v-5h.34c.97,0,1.81-.71,1.97-1.67l.4-2.4c1.87-.33,3.29-1.96,3.29-3.93V18c0-1.97-1.42-3.6-3.29-3.93Zm-.71,31.93H19V18h26v28Z"/>
  <path d="M25,23h14c.55,0,1-.45,1-1s-.45-1-1-1h-14c-.55,0-1,.45-1,1s.45,1,1,1Z"/>
  <path d="M39,41h-14c-.55,0-1,.45-1,1s.45,1,1,1h14c.55,0,1-.45,1-1s-.45-1-1-1Z"/>
  <path d="M23,35.5h3.42c.44,0,.82-.28,.95-.7l.71-2.24,1.98,5.29c.15,.39,.52,.65,.94,.65h.05c.43-.02,.8-.32,.91-.74l2-7.3,1.07,4.28c.11,.45,.5099,.76,.97,.76h5c.55,0,1-.45,1-1s-.45-1-1-1h-4.22l-1.8101-7.24c-.11-.44-.5-.76-.96-.76-.48-.02-.85,.3-.97,.74l-2.19,8.01-1.91-5.1c-.15-.4-.52-.65-.97-.65-.42,.01-.8,.29-.92,.7l-1.36,4.3h-2.69c-.55,0-1,.45-1,1s.45,1,1,1Z"/>
</svg>