<?xml version="1.0" encoding="UTF-8"?>
<svg id="Solid" xmlns="http://www.w3.org/2000/svg" viewBox="0 0 64 64">
  <path d="M58,58h-1v-15c0-.5523-.4477-1-1-1V6c0-1.1046-.8954-2-2-2s-2,.8954-2,2v2h-10v-1c0-.5527-.4478-1-1-1s-1,.4473-1,1v1H24v-1c0-.5527-.4478-1-1-1s-1,.4473-1,1v1H12v-2c0-1.1046-.8954-2-2-2s-2,.8954-2,2V42c-.5523,0-1,.4477-1,1v15h-1c-.5522,0-1,.4473-1,1s.4478,1,1,1H14c.5522,0,1-.4473,1-1s-.4478-1-1-1h-1v-15c0-.5523-.4477-1-1-1V12h10v6.0903c-2.8331,.4783-5,2.9424-5,5.9097,0,3.3086,2.6914,6,6,6s6-2.6914,6-6c0-2.9672-2.1669-5.4313-5-5.9097v-6.0903h16v6.0903c-2.8331,.4783-5,2.9424-5,5.9097,0,3.3086,2.6914,6,6,6s6-2.6914,6-6c0-2.9672-2.1669-5.4313-5-5.9097v-6.0903h10v30c-.5523,0-1,.4477-1,1v15h-1c-.5522,0-1,.4473-1,1s.4478,1,1,1h8c.5522,0,1-.4473,1-1s-.4478-1-1-1ZM27,24c0,2.2061-1.7944,4-4,4s-4-1.7939-4-4c0-1.8587,1.2797-3.4108,3-3.858v.858c0,.5527,.4478,1,1,1s1-.4473,1-1v-.858c1.7203,.4471,3,1.9993,3,3.858Zm18,0c0,2.2061-1.7944,4-4,4s-4-1.7939-4-4c0-1.8587,1.2797-3.4108,3-3.858v.858c0,.5527,.4478,1,1,1s1-.4473,1-1v-.858c1.7203,.4471,3,1.9993,3,3.858Z"/>
</svg>