<?xml version="1.0" encoding="UTF-8"?>
<svg id="Solid" xmlns="http://www.w3.org/2000/svg" viewBox="0 0 64 64">
  <path d="M41,33H23c-.5522,0-1,.4473-1,1s.4478,1,1,1h18c.5522,0,1-.4473,1-1s-.4478-1-1-1Z"/>
  <path d="M39,37h-14c-.5522,0-1,.4473-1,1s.4478,1,1,1h14c.5522,0,1-.4473,1-1s-.4478-1-1-1Z"/>
  <circle cx="32" cy="54" r="2"/>
  <path d="M24,25.7666c.5522,0,1-.4473,1-1v.9999c0,1.1046,.8954,2,2,2s2-.8954,2-2v-.9999h6v.9999c0,1.1046,.8954,2,2,2s2-.8954,2-2v-.9999c0,.5527,.4478,1,1,1s1-.4473,1-1v-2c0-.5527-.4478-1-1-1s-1,.4473-1,1v-1.0001c0-1.1046-.8954-2-2-2s-2,.8954-2,2v1.0001h-6v-1.0001c0-1.1046-.8954-2-2-2s-2,.8954-2,2v1.0001c0-.5527-.4478-1-1-1s-1,.4473-1,1v2c0,.5527,.4478,1,1,1Z"/>
  <path d="M45,3H19c-2.7568,0-5,2.2432-5,5V56c0,2.7568,2.2432,5,5,5h26c2.7568,0,5-2.2432,5-5V8c0-2.7568-2.2432-5-5-5Zm3,53c0,1.6543-1.3457,3-3,3H19c-1.6543,0-3-1.3457-3-3V8c0-1.6543,1.3457-3,3-3h6.25l.3713,1.485c.2226,.8903,1.0225,1.515,1.9402,1.515h8.877c.9177,0,1.7177-.6246,1.9402-1.515l.3713-1.485h6.25c1.6543,0,3,1.3457,3,3V56Z"/>
</svg>