<?xml version="1.0" encoding="UTF-8"?>
<svg id="Solid" xmlns="http://www.w3.org/2000/svg" viewBox="0 0 64 64">
  <path d="M15,53H49V11H15V53ZM32,20c6.62,0,12,5.38,12,12s-5.38,12-12,12-12-5.38-12-12,5.38-12,12-12Z"/>
  <path d="M48,58h-.43l1.07-3H15.36l1.07,3h-.43c-.5522,0-1,.4473-1,1s.4478,1,1,1H48c.5527,0,1-.4473,1-1s-.4473-1-1-1Z"/>
  <path d="M16,6h.43l-1.07,3H48.64l-1.07-3h.43c.5527,0,1-.4473,1-1s-.4473-1-1-1H16c-.5522,0-1,.4473-1,1s.4478,1,1,1Z"/>
  <path d="M29.5,32h3.38l-2.77,5.55c-.25,.5-.05,1.1,.44,1.34,.15,.08,.3,.11,.45,.11,.37,0,.72-.2,.89-.55l3.5-7c.16-.31,.14-.6801-.04-.98-.18-.29-.5-.47-.85-.47h-3.38l1.77-3.55c.25-.5,.05-1.1-.44-1.34-.5-.25-1.1-.05-1.34,.44l-2.5,5c-.16,.31-.14,.68,.04,.98,.18,.29,.5,.47,.85,.47Z"/>
</svg>