<?xml version="1.0" encoding="UTF-8"?>
<svg id="Solid" xmlns="http://www.w3.org/2000/svg" viewBox="0 0 64 64">
  <path d="M21,12h1v1.46c0,1.37-.59,2.66-1.6,3.54h23.2c-1.0099-.88-1.6-2.17-1.6-3.54v-1.46h1c1.1046,0,2-.8954,2-2s-.8954-2-2-2h-8v-2h2c.5527,0,1-.4473,1-1s-.4473-1-1-1h-10c-.5527,0-1,.4473-1,1s.4473,1,1,1h2v2h-8c-1.1046,0-2,.8954-2,2s.8954,2,2,2Z"/>
  <path d="M19,23.59c0,.9,.36,1.77,1,2.41s1,1.51,1,2.41v7.18c0,.9-.36,1.77-1,2.41s-1,1.51-1,2.41v10.59h26v-10.59c0-.9-.36-1.77-1-2.41s-1-1.51-1-2.41v-7.18c0-.9,.36-1.77,1-2.41s1-1.51,1-2.41v-4.59H19v4.59Zm13,4.41s5,4.69,5,9c0,2.76-2.24,5-5,5s-5-2.24-5-5c0-4.31,5-9,5-9Z"/>
  <path d="M19,56c0,2.21,1.79,4,4,4h18c2.21,0,4-1.79,4-4v-3H19v3Z"/>
</svg>