<?xml version="1.0" encoding="UTF-8"?>
<svg id="Solid" xmlns="http://www.w3.org/2000/svg" viewBox="0 0 64 64">
  <rect x="14" y="45" width="30" height="2"/>
  <path d="M14,54c0,1.1,.9,2,2,2h26c1.1,0,2-.9,2-2v-5H14v5Z"/>
  <rect x="14" y="41" width="30" height="2"/>
  <rect x="46" y="18" width="6" height="6"/>
  <path d="M46,36h4c1.1,0,2-.9,2-2v-6h-6v8Z"/>
  <path d="M58,10c-1.1046,0-2,.8954-2,2h-12c0-1.1,.45-2.1,1.17-2.83,.73-.72,1.73-1.17,2.83-1.17H18c-2.21,0-4,1.79-4,4h-6c0-1.1046-.8954-2-2-2s-2,.8954-2,2v4c0,1.1046,.8954,2,2,2s2-.8954,2-2h6v23h30V16h12c0,1.1046,.8954,2,2,2s2-.8954,2-2v-4c0-1.1046-.8954-2-2-2Z"/>
</svg>