<?xml version="1.0" encoding="UTF-8"?>
<svg xmlns="http://www.w3.org/2000/svg" version="1.1" viewBox="0 0 64 64">
  <!-- Generator: Adobe Illustrator 28.7.1, SVG Export Plug-In . SVG Version: 1.2.0 Build 142)  -->
  <g>
    <g id="Outline">
      <g>
        <path d="M57,18v-8c0-1.65002-1.34998-3-3-3H10c-1.65002,0-3,1.34998-3,3v8c0,1.29999.84003,2.39996,2,2.82001v30.17999c-1.09998,0-2,.89996-2,2v2c0,1.09998.90002,2,2,2h46c1.09998,0,2-.90002,2-2v-2c0-1.10004-.90002-2-2-2v-30.17999c1.15997-.42004,2-1.52002,2-2.82001ZM55,55H9v-2h46v2ZM23,28.82001v1.17999c0,1.64996,1.34998,3,3,3h1.38l1.72998,3.45001c.17004.33997.51001.54999.89001.54999h1v2c0,.54999.45001,1,1,1s1-.45001,1-1v-2h1c.38,0,.71997-.21002.89001-.54999l1.72998-3.45001h1.38c1.65002,0,3-1.35004,3-3v-1.17999c1.15997-.42004,2-1.52002,2-2.82001v-5h10v30h-14v-1c0-1.65002-1.34998-3-3-3h-8c-1.65002,0-3,1.34998-3,3v1h-14v-30h10v5c0,1.29999.84003,2.39996,2,2.82001ZM26,31c-.54999,0-1-.45001-1-1v-1h14v1c0,.54999-.45001,1-1,1h-12ZM34.38,33l-1,2h-2.76001l-1-2h4.76001ZM24,27c-.54999,0-1-.45001-1-1v-5h18v5c0,.54999-.45001,1-1,1h-16ZM37,50v1h-10v-1c0-.54999.45001-1,1-1h8c.54999,0,1,.45001,1,1ZM54,19H10c-.54999,0-1-.45001-1-1v-8c0-.54999.45001-1,1-1h44c.54999,0,1,.45001,1,1v8c0,.54999-.45001,1-1,1Z"/>
        <path d="M14,11c-1.6543,0-3,1.3457-3,3s1.3457,3,3,3,3-1.3457,3-3-1.3457-3-3-3ZM14,15c-.55176,0-1-.44873-1-1s.44824-1,1-1,1,.44873,1,1-.44824,1-1,1Z"/>
        <path d="M22,11c-1.6543,0-3,1.3457-3,3s1.3457,3,3,3,3-1.3457,3-3-1.3457-3-3-3ZM22,15c-.55176,0-1-.44873-1-1s.44824-1,1-1,1,.44873,1,1-.44824,1-1,1Z"/>
        <path d="M50,11c-1.6543,0-3,1.3457-3,3s1.3457,3,3,3,3-1.3457,3-3-1.3457-3-3-3ZM50,15c-.55176,0-1-.44873-1-1s.44824-1,1-1,1,.44873,1,1-.44824,1-1,1Z"/>
        <path d="M44,11h-16c-.55273,0-1,.44775-1,1v4c0,.55225.44727,1,1,1h16c.55273,0,1-.44775,1-1v-4c0-.55225-.44727-1-1-1ZM43,15h-14v-2h14v2Z"/>
        <circle cx="26" cy="24" r="1"/>
        <circle cx="38" cy="24" r="1"/>
        <path d="M34,23h-4c-.55273,0-1,.44775-1,1s.44727,1,1,1h4c.55273,0,1-.44775,1-1s-.44727-1-1-1Z"/>
      </g>
    </g>
  </g>
</svg>