<?xml version="1.0" encoding="UTF-8"?>
<svg id="Outline" xmlns="http://www.w3.org/2000/svg" version="1.1" viewBox="0 0 48 48">
  <path d="M22,8h-1v-2c0-.55273-.44727-1-1-1s-1,.44727-1,1v2h-8v-2c0-.55273-.44727-1-1-1s-1,.44727-1,1v2h-1c-1.6543,0-3,1.3457-3,3v20c0,1.6543,1.3457,3,3,3v3c0,.55273.44727,1,1,1h1v4c0,.55273.44727,1,1,1h8c.55273,0,1-.44727,1-1v-4h1c.55273,0,1-.44727,1-1v-3c1.6543,0,3-1.3457,3-3V11c0-1.6543-1.3457-3-3-3ZM18,41h-6v-3h6v3ZM20,36h-10v-2h10v2ZM23,31c0,.55176-.44824,1-1,1h-14c-.55176,0-1-.44824-1-1V11c0-.55176.44824-1,1-1h14c.55176,0,1,.44824,1,1v20Z" fill="#000" stroke-width="0"/>
  <path d="M15,12c-2.15723,0-4.28906.71094-6.00195,2.00098-.44141.33203-.5293.95898-.19727,1.40039.33203.44043.95996.53027,1.40039.19727,1.36816-1.03125,3.07324-1.59863,4.79883-1.59863s3.43066.56738,4.79883,1.59863c.42273.3186,1.06818.24402,1.40039-.19727.33203-.44141.24414-1.06836-.19727-1.40039-1.71289-1.29004-3.84473-2.00098-6.00195-2.00098Z" fill="#000" stroke-width="0"/>
  <path d="M17.99915,18.98828c.93384-.0094,1.36194-1.21143.60535-1.78516-2.07422-1.57422-5.13477-1.57422-7.20898,0-.44043.33398-.52637.96094-.19238,1.40137.33398.4375.95996.52539,1.40137.19238,1.37305-1.04297,3.41791-1.04297,4.79095-.00006.172.13062.38727.1936.6037.19147Z" fill="#000" stroke-width="0"/>
  <path d="M19.79883,26.40137c-1.36816,1.03125-3.07324,1.59863-4.79883,1.59863s-3.43066-.56738-4.79883-1.59863c-.44141-.33203-1.06934-.24316-1.40039.19727-.33203.44141-.24414,1.06836.19727,1.40039,1.71289,1.29004,3.84473,2.00098,6.00195,2.00098s4.28906-.71094,6.00195-2.00098c.44141-.33203.5293-.95898.19727-1.40039-.33105-.44043-.95898-.5293-1.40039-.19727Z" fill="#000" stroke-width="0"/>
  <path d="M11.39551,24.79688c1.03711.78711,2.28418,1.20312,3.60449,1.20312s2.56738-.41602,3.60449-1.20312c.44043-.33398.52637-.96094.19238-1.40137-.33496-.43848-.96094-.52637-1.40137-.19238-1.37305,1.04297-3.41797,1.04297-4.79102,0-.44141-.33398-1.06738-.24609-1.40137.19238-.33398.44043-.24805,1.06738.19238,1.40137Z" fill="#000" stroke-width="0"/>
  <circle cx="15" cy="21" r="1" fill="#000" stroke-width="0"/>
  <path d="M40,23h-10c-1.6543,0-3,1.3457-3,3v14c0,1.6543,1.3457,3,3,3h10c1.6543,0,3-1.3457,3-3v-14c0-1.6543-1.3457-3-3-3ZM34,41h-4c-.55176,0-1-.44824-1-1v-3h5v4ZM41,40c0,.55176-.44824,1-1,1h-4v-4h5v3ZM41,35h-12v-9c0-.55176.44824-1,1-1h10c.55176,0,1,.44824,1,1v9Z" fill="#000" stroke-width="0"/>
  <path d="M37,27h-4c-.55273,0-1,.44727-1,1s.44727,1,1,1h1v3c0,.55273.44727,1,1,1s1-.44727,1-1v-3h1c.55273,0,1-.44727,1-1s-.44727-1-1-1Z" fill="#000" stroke-width="0"/>
</svg>