<?xml version="1.0" encoding="UTF-8"?>
<svg xmlns="http://www.w3.org/2000/svg" version="1.1" viewBox="0 0 48 48">
  <!-- Generator: Adobe Illustrator 28.7.1, SVG Export Plug-In . SVG Version: 1.2.0 Build 142)  -->
  <g>
    <g id="Outline">
      <g>
        <path d="M42.37207,23.07129l-3.37207-1.34979v-2.7215c0-.55273-.44727-1-1-1s-1,.44727-1,1v1.9209l-2-.80054v-3.12036c0-.55273-.44727-1-1-1s-1,.44727-1,1v2.31976l-3.40778-1.36414.12848-1.89996c.10352-1.85156-.67383-3.89062-2.02832-5.32129-.22565-.23853-.46484-.44916-.71124-.64093.00317-.03235.01886-.0603.01886-.09344v-1h4c.55273,0,1-.44727,1-1s-.44727-1-1-1h-4.18427c-.41412-1.1615-1.51379-2-2.81573-2s-2.40161.8385-2.81573,2h-4.18427c-.55273,0-1,.44727-1,1s.44727,1,1,1h4v1c0,.03314.01569.0611.01886.09344-.2464.19177-.4856.4024-.71124.64093-1.35449,1.43066-2.13184,3.46973-2.02832,5.33301l.12787,1.88855-3.40717,1.36383v-2.31976c0-.55273-.44727-1-1-1s-1,.44727-1,1v3.12036l-2,.80054v-1.9209c0-.55273-.44727-1-1-1s-1,.44727-1,1v2.7215l-3.37207,1.34979c-.37891.15234-.62793.51953-.62793.92871v4c0,.28809.125.5625.3418.75293.21438.1883.50849.27595.79102.23828l3.0498-.41016c.54785-.07422.93164-.57715.8584-1.12402-.07324-.54785-.57422-.93359-1.12402-.8584l-1.91699.25781v-2.17969l11.54919-4.62317.35339,5.22028-2.0647.27496c-.54785.07227-.93262.5752-.85938,1.12305.07227.54785.57031.93164,1.12305.85938l1.93646-.25751.3186,4.70648-6.95721,5.21997c-.25098.18848-.39941.48535-.39941.7998v4c0,.34668.17969.66797.47462.85059.29262.18199.66468.19686.97265.04394l6.47974-3.23944c.38672,1.91492,2.065,3.34491,4.073,3.34491,2.01105,0,3.69098-1.43439,4.07434-3.34424,0,0,6.47839,3.23877,6.4784,3.23877.30797.15292.68006.13803.97265-.04395.29492-.18262.47461-.50391.47461-.85059v-4c0-.31445-.14844-.61133-.39941-.7998l-6.95691-5.21973.31836-4.70667,12.90613,1.71741c.28009.03727.57532-.04995.79102-.23926.2168-.18945.34082-.46387.34082-.75195v-4c0-.40918-.24902-.77637-.62793-.92871ZM23,9v-1c0-.55176.44824-1,1-1s1,.44824,1,1v1h-2ZM14,38.5l5.5177-4.1405.21381,3.15753-5.73151,2.86481v-1.88184ZM24,41c-1.15234,0-2.10449-.90039-2.16797-2.0625l-1.55664-22.99316c-.07129-1.30078.51074-2.80664,1.48535-3.83594.47852-.50586,1.25488-1.1084,2.23926-1.1084s1.76074.60254,2.23926,1.1084c.97461,1.0293,1.55664,2.53516,1.48535,3.82422l-1.55664,23.01758c-.06348,1.14941-1.01562,2.0498-2.16797,2.0498ZM34,38.5v1.88184l-5.73077-2.86444.21356-3.15747,5.51721,4.14008ZM41,26.8584l-11.90271-1.58453.35303-5.22046,11.54968,4.62335v2.18164Z"/>
        <path d="M24.70703,13.29297c-.39062-.39062-1.02344-.39062-1.41406,0l-1,1c-.39062.39062-.39062,1.02344,0,1.41406s1.02344.39062,1.41406,0l.29297-.29297.29297.29297c.19531.19531.45117.29297.70703.29297s.51172-.09766.70703-.29297c.39062-.39062.39062-1.02344,0-1.41406l-1-1Z"/>
        <path d="M24,18c-.55273,0-1,.44727-1,1v7c0,.55273.44727,1,1,1s1-.44727,1-1v-7c0-.55273-.44727-1-1-1Z"/>
        <path d="M24,29c-.55273,0-1,.44727-1,1v7c0,.55273.44727,1,1,1s1-.44727,1-1v-7c0-.55273-.44727-1-1-1Z"/>
        <circle cx="13" cy="27" r="1"/>
      </g>
    </g>
  </g>
</svg>