<?xml version="1.0" encoding="UTF-8"?>
<svg id="Outline" xmlns="http://www.w3.org/2000/svg" version="1.1" viewBox="0 0 64 64">
  <path d="M48.86041,16.58013c.4186.35782,1.05258.3065,1.4101-.11089.3584-.41992.30859-1.05078-.11133-1.40967-.44336-.37891-.8418-.77734-1.21973-1.21875-.3584-.42139-.99023-.46924-1.40918-.11084-.41992.35889-.46973.99023-.11035,1.40967.44531.52197.91699.99316,1.44049,1.44048Z" fill="#000" stroke-width="0"/>
  <path d="M56.44727,32.10547l-10.71252-5.35626,6.54553-6.5451c1.31641-1.32715,2.38574-2.83838,3.17969-4.48877.80956-1.6743,1.32323-3.45602,1.52246-5.28413.10073-.92428-.22695-1.8707-.88573-2.52837-.64231-.64123-1.61025-.99914-2.51758-.88673-3.68945.41357-7.16504,2.08496-9.78613,4.70703l-5.67322,5.67322-2.29224-.60345c.85699-1.17255.7663-2.82654-.29138-3.88422-1.13281-1.1333-3.10986-1.13477-4.24316-.00049l-2.13019,2.13019-2.23883-.58942.12683-.12671c1.16895-1.16992,1.16895-3.07275-.00049-4.24316-1.1709-1.16943-3.07373-1.16895-4.24268.00049l-2.60101,2.60101-2.80231-.73773c-.34424-.09082-.70996.00879-.96143.26025l-4.23973,4.23973c-.48764.48764-.33348,1.33241.29246,1.6172,0,0,5.59961,2.55029,5.59966,2.55032.49801.22634,1.09718.00346,1.32466-.49563.229-.50244.00684-1.0957-.49561-1.32471l-4.2876-1.95264,2.81396-2.81396,19.03143,5.01056-5.31848,5.31848-4.9693-2.26263c-.50342-.22803-1.09521-.00732-1.32471.49561-.229.50293-.00684,1.0957.49561,1.32471l4.28821,1.95251-7.51038,7.51038c-.07031.07031-.12988.15088-.17676.23877l-1.22534,2.31372-9.69897-2.11597c-.3335-.07373-.67969.02979-.92041.27002l-2.8286,2.8286c-.42856.42856-.37214,1.15222.11229,1.51124l8.63763,6.38654c-.44121.89836-.26582,2.00526.43996,2.71107.70356.70361,1.82148.86942,2.70921.43736l6.38839,8.64019c.33914.45868,1.08549.53938,1.51133.11244l2.82861-2.82861c.24072-.24072.34277-.5874.27002-.92041l-2.11597-9.69897,2.31372-1.22534c.08789-.04688.16846-.10645.23877-.17676l.37305-.37305v1.51611c0,.37891.21387.7251.55273.89453,0,0,12,6,12.00009,6.00005.28248.1412.61151.14142.89444-.00005l12-6c.33887-.16943.55273-.51562.55273-.89453v-10c0-.37891-.21387-.7251-.55273-.89453ZM32.70703,14.32227c.37988-.37842,1.03711-.37646,1.41406,0,.38965.39014.38965,1.02441,0,1.41455l-.48041.48041-2.23914-.58948,1.30548-1.30548ZM24.22168,11.49414c.38916-.39014,1.0249-.39062,1.41406-.00049.39014.39014.39014,1.02441.00049,1.41455l-.9516.95129-2.23914-.58948,1.77618-1.77588ZM44,37.88184l-9.76367-4.88184,9.76367-4.88184,9.76367,4.88184-9.76367,4.88184ZM11.14941,35.87988l8.61963,1.88074-2.78302,5.25482-7.45819-5.51398,1.62158-1.62158ZM28.12012,52.85059l-1.62158,1.62158-5.51404-7.45825,5.25488-2.78296,1.88074,8.61963ZM29.31885,40.33643l-11,5.82568c-.13721.07227-.31592.04639-.42188-.05908-.10596-.10645-.13086-.28369-.06299-.41455l5.82959-11.00732,21.54346-21.54395c2.30176-2.30225,5.35449-3.77051,8.60546-4.13477.01856-.00244.03614-.00293.05372-.00293.29197.00586.60249.1035.81636.31783.2127.21315.35043.56707.31352.88383-.17676,1.61279-.62598,3.1748-1.33789,4.64551-.69824,1.45166-1.63965,2.78027-2.79492,3.94629l-7.31543,7.31494-11.99512,5.99756c-.33887.16943-.55273.51562-.55273.89453v5.6557l-1.68115,1.68073ZM33,40.61816l3.55273,1.77637c.14355.07178.2959.10547.44629.10547.36719,0,.71973-.20215.89551-.55273.24707-.49414.04688-1.09473-.44727-1.3418l-4.44727-2.22363v-3.76367l10,5v7.76367l-10-5v-1.76367ZM45,47.38184v-7.76367l10-5v3.76367l-4.44727,2.22363c-.49406.24703-.69427.84745-.44739,1.34154.24017.48067.86337.68679,1.34192.44752l3.55273-1.77637v1.76367l-10,5Z" fill="#000" stroke-width="0"/>
  <circle cx="22.14294" cy="21.35095" r="1" fill="#000" stroke-width="0"/>
</svg>