<?xml version="1.0" encoding="UTF-8"?>
<svg xmlns="http://www.w3.org/2000/svg" version="1.1" viewBox="0 0 48 48">
  <!-- Generator: Adobe Illustrator 28.7.1, SVG Export Plug-In . SVG Version: 1.2.0 Build 142)  -->
  <g>
    <g id="Outline">
      <g>
        <path d="M14,19c-.55273,0-1,.44775-1,1v10c0,.55225.44727,1,1,1s1-.44775,1-1v-10c0-.55225-.44727-1-1-1Z"/>
        <path d="M21,37h-1.71997l.68994-2.76001c.02002-.08002.03003-.16003.03003-.23999V13c0-.42004-.09003-.85999-.23999-1.29999-.02002-.05005-.03003-.10004-.06-.15002-1.04004-2.84003-4.59003-5.91998-5.04999-6.31-.38-.32001-.92004-.32001-1.30005,0-.45996.39001-4.00995,3.46997-5.04999,6.31-.02997.04999-.03998.09998-.06.15002-.14996.44-.23999.87994-.23999,1.29999v21c0,.07996.01001.15997.03003.23999l.68994,2.76001h-1.71997c-1.09998,0-2,.89996-2,2v2c0,1.09998.90002,2,2,2h14c1.09998,0,2-.90002,2-2v-2c0-1.10004-.90002-2-2-2ZM14,7.33997c1.10999,1.01001,2.40002,2.40002,3.21002,3.66003h-6.42004c.81-1.26001,2.11005-2.64001,3.21002-3.66003ZM18,13v2h-3v-2h3ZM10,13h3v2h-3v-2ZM10,17h8v16h-8v-16ZM17.71997,35l-.5,2h-6.43994l-.5-2h7.43994ZM21,41H7v-2h14v2Z"/>
        <path d="M42,25c.54999,0,1-.45001,1-1v-4c0-1.29999-.84003-2.40002-2-2.82001-.01001-4.84003-2.41998-9.33002-6.45001-12.01001-.33002-.22998-.76996-.22998-1.09998,0-4.03003,2.67999-6.44,7.16998-6.45001,12.01001-1.15997.41998-2,1.52002-2,2.82001v12c0,1.29999.84003,2.39996,2,2.82001v2.17999h-1c-.54999,0-1,.45001-1,1v4c0,.54999.45001,1,1,1h16c.54999,0,1-.45001,1-1v-4c0-.54999-.45001-1-1-1h-1v-2.17999c1.15997-.42004,2-1.52002,2-2.82001v-4c0-.54999-.45001-1-1-1s-1,.45001-1,1v4c0,.54999-.45001,1-1,1h-12c-.54999,0-1-.45001-1-1v-12c0-.54999.45001-1,1-1h12c.54999,0,1,.45001,1,1v4c0,.54999.45001,1,1,1ZM29,35h10v2h-10v-2ZM41,39v2h-14v-2h14ZM29,17c.07001-3.87,1.90997-7.47003,5-9.78003,3.09003,2.31,4.92999,5.91003,5,9.78003h-10Z"/>
        <path d="M29,22v8c0,.55225.44727,1,1,1s1-.44775,1-1v-8c0-.55225-.44727-1-1-1s-1,.44775-1,1Z"/>
      </g>
    </g>
  </g>
</svg>