<?xml version="1.0" encoding="UTF-8"?>
<svg id="Outline" xmlns="http://www.w3.org/2000/svg" version="1.1" viewBox="0 0 64 64">
  <path d="M52.20703,27.36709c0-11.02783-8.97168-20-20-20-4.26996,0-8.42712,1.39178-11.84473,3.91309l-4.03418-4.03418c-.26855-.26953-.66797-.36182-1.02832-.23975s-.62012.43896-.66992.81641l-.20996,1.59863-1.83105.38086c-.35938.07471-.64941.34082-.75391.69287-.10547.35205-.00879.7334.25098.99316l4.0343,4.0343c-2.52191,3.4118-3.91321,7.56909-3.91321,11.8446,0,7.63617,4.30475,14.28033,10.61188,17.64886,0,0-2.30656,7.99266-2.31109,8.00834-.45084,1.56224.22748,3.28375,1.81048,3.84668,1.55261.55212,3.27481-.2961,3.84967-1.85642l.76453-2.64746h10.55121l.78583,2.71777c.43456,1.17283,1.56246,1.96189,2.80755,1.96191,1.97925.00004,3.5543-2.05098,2.85065-3.95703l-2.3324-8.07391c6.30701-3.36853,10.61169-10.0127,10.61169-17.64874ZM25.89539,22.46951c-1.05396,1.3551-1.68835,3.05194-1.68835,4.89758,0,4.41113,3.58887,8,8,8s8-3.58887,8-8-3.58887-8-8-8c-1.84564,0-3.54248.6344-4.89758,1.68835l-2.84308-2.84308c2.09155-1.7713,4.79138-2.84528,7.74066-2.84528,6.61719,0,12,5.3833,12,12,0,6.61719-5.38281,12-12,12s-12-5.38281-12-12c0-2.9491,1.07404-5.64899,2.84534-7.7406l2.84302,2.84302ZM31.5,28.07412c.36746.36745,1.02466.3894,1.41406,0,.39062-.39062.39062-1.02344,0-1.41406l-4.1781-4.1781c.98102-.6991,2.17725-1.11487,3.47107-1.11487,3.30859,0,6,2.69141,6,6s-2.69141,6-6,6-6-2.69141-6-6c0-1.29382.41577-2.49005,1.11487-3.47107,0,0,4.16978,4.16978,4.1781,4.1781ZM15.52246,11.23477c.41602-.08643.73242-.42725.78711-.84863l.03906-.29199,2.76172,2.7627.31836,1.6665-1.74609-.26709-2.87305-2.87305.71289-.14844ZM22.98242,54.98428c-.56108-.19324-.76141-.81536-.57421-1.33984l2.24451-7.76965c.61285.25104,1.24084.47076,1.88214.66095l-2.26532,7.85382c-.18746.50672-.75658.77722-1.28712.59472ZM27.51007,50.36709l.9707-3.36121c1.20886.22894,2.45178.36121,3.72626.36121,1.2746,0,2.51758-.13226,3.72656-.36127l.97186,3.36127h-9.39539ZM42.02734,53.70986c.14606.50579-.07377,1.09006-.58984,1.27246-.55664.19434-1.1123-.10645-1.26953-.52246l-2.28839-7.92426c.64136-.19019,1.26923-.40979,1.88208-.66089,0,0,2.24723,7.77133,2.26569,7.83514ZM32.20703,45.36709c-9.9248,0-18-8.0752-18-18,0-4.00806,1.35718-7.8996,3.80908-11.0368l2.05396.3139,1.56873,1.56873c-2.13135,2.45721-3.43176,5.65363-3.43176,9.15417,0,7.71973,6.28027,14,14,14s14-6.28027,14-14-6.28027-14-14-14c-3.50055,0-6.69696,1.30042-9.15417,3.43176l-1.42505-1.42505-.4248-2.22357c3.13721-2.43488,7.01642-3.78314,11.00403-3.78314,9.9248,0,18,8.07471,18,18s-8.0752,18-18,18Z" style="fill: #000; stroke-width: 0px;"/>
</svg>