<?xml version="1.0" encoding="UTF-8"?>
<svg xmlns="http://www.w3.org/2000/svg" version="1.1" viewBox="0 0 64 64">
  <!-- Generator: Adobe Illustrator 28.7.1, SVG Export Plug-In . SVG Version: 1.2.0 Build 142)  -->
  <g>
    <g id="Outline">
      <g>
        <path d="M49,11h-1v-1c0-1.6543-1.3457-3-3-3H15c-1.6543,0-3,1.3457-3,3v40c0,1.6543,1.3457,3,3,3h1v1c0,1.6543,1.3457,3,3,3h24c.12988,0,.25623-.02759.37469-.07562.04852-.01965.08624-.05444.13068-.08118.05762-.03442.12024-.05994.17041-.1059l7.66394-7.02496c.00354-.00342.00726-.00635.01074-.00983l.32532-.29822c.20654-.18945.32422-.45703.32422-.7373V14c0-1.6543-1.3457-3-3-3ZM16,14v37h-1c-.55127,0-1-.44824-1-1V10c0-.55176.44873-1,1-1h30c.55127,0,1,.44824,1,1v1h-27c-1.6543,0-3,1.3457-3,3ZM44,53.72681v-3.72681h4.06616l-4.06616,3.72681ZM50,48h-7c-.55225,0-1,.44727-1,1v6h-23c-.55127,0-1-.44824-1-1V14c0-.55176.44873-1,1-1h30c.55127,0,1,.44824,1,1v34Z"/>
        <path d="M38,24c0-2.20605-1.79443-4-4-4s-4,1.79395-4,4,1.79443,4,4,4,4-1.79395,4-4ZM34,26c-1.10303,0-2-.89746-2-2s.89697-2,2-2,2,.89746,2,2-.89697,2-2,2Z"/>
        <path d="M46,37h-4c-1.10303,0-2,.89746-2,2v1h-2v-1c0-1.10254-.89697-2-2-2h-1v-4h1c.55225,0,1-.44727,1-1,0-.58496.30273-1.10938.80957-1.40234.50683-.29101,1.11131-.29199,1.61815.00097.45029.26028,1.12308.12107,1.36672-.3662l2-3.46484c.27315-.47321.10563-1.09314-.36621-1.36621-.50684-.29199-.80957-.81641-.80957-1.40137s.30271-1.10933.80951-1.40133c.47271-.27236.63885-.8935.36627-1.36624l-2-3.46484c-.27312-.47317-.89316-.63825-1.3667-.36621-.50684.29297-1.11133.29199-1.61816.00098-.50684-.29297-.80957-.81738-.80957-1.40234,0-.55273-.44775-1-1-1h-4c-.55225,0-1,.44727-1,1,0,.58496-.30273,1.10938-.80957,1.40234-.50683.29101-1.11131.29199-1.61814-.00097-.47332-.27358-1.09367-.10562-1.36672.3662l-2,3.46484c-.27323.47335-.1056,1.09317.36621,1.36622.50684.29199.80957.81641.80957,1.40137,0,.5849-.30267,1.10927-.80942,1.40128-.45385.26153-.63806.89509-.36636,1.3663l1.99999,3.46482c.27236.47184.89589.63356,1.36671.36623.50684-.29297,1.11133-.29199,1.61816-.00098.50684.29297.80957.81738.80957,1.40234,0,.55273.44775,1,1,1h1v4h-1c-1.10303,0-2,.89746-2,2v1h-2v-1c0-1.10254-.89697-2-2-2h-4c-1.10303,0-2,.89746-2,2v4c0,1.10254.89697,2,2,2h4c1.10303,0,2-.89746,2-2v-1h2v1c0,1.10254.89697,2,2,2h4c1.10303,0,2-.89746,2-2v-1h2v1c0,1.10254.89697,2,2,2h4c1.10303,0,2-.89746,2-2v-4c0-1.10254-.89697-2-2-2ZM22,43v-4h4l.00073,1.9964c0,.00128-.00073.00232-.00073.0036s.00073.00238.00073.00366l.00073,1.99634h-4.00146ZM32.86279,31c-.25146-.89062-.83838-1.65234-1.67285-2.13477-.8335-.47949-1.78418-.60742-2.68359-.37988l-1.13721-1.9707c.64551-.66309,1.01221-1.55176,1.01221-2.51465s-.3667-1.85156-1.01221-2.51465l1.13721-1.9707c.89844.22754,1.85059.10059,2.68359-.37988.83447-.48242,1.42139-1.24414,1.67285-2.13477h2.27441c.25146.89062.83838,1.65234,1.67285,2.13477.83447.48047,1.78564.60938,2.68359.37988l1.13721,1.9707c-.64551.66309-1.01221,1.55176-1.01221,2.51465s.3667,1.85156,1.01221,2.51465l-1.13721,1.9707c-.89746-.22852-1.8501-.10059-2.68359.37988-.83447.48242-1.42139,1.24414-1.67285,2.13477h-2.27441ZM32,43v-4h4l.00073,1.9964c0,.00128-.00073.00232-.00073.0036s.00073.00238.00073.00366l.00073,1.99634h-4.00146ZM42,43v-4h4l.00146,4h-4.00146Z"/>
      </g>
    </g>
  </g>
</svg>