<?xml version="1.0" encoding="UTF-8"?>
<svg id="Outline" xmlns="http://www.w3.org/2000/svg" version="1.1" viewBox="0 0 64 64">
  <path d="M53.01953,10.94214c-5.45898-5.45898-14.33984-5.45898-19.79883,0l-5.65674,5.65723c-2.64453,2.64355-4.10107,6.15918-4.10107,9.89941,0,2.59949.71857,5.08319,2.03625,7.24902l-2.73206,1.81836c-.24951.16602-.41113.43457-.44092.7334-.02979.29785.07617.59369.28809.8056l-4.37299,4.37256c-1.11383-.52753-2.48456-.34253-3.40533.57672l-7.07178,7.07129c-.56592.56641-.87793,1.32031-.87793,2.12109,0,.80176.31201,1.55469.87842,2.12109l2.90723,2.90723c.58496.58496,1.35303.87695,2.12109.87695.76855,0,1.53662-.29199,2.12158-.87695l7.07031-7.07031c.56689-.56641.87939-1.32031.87939-2.12207,0-.49347-.13141-.96283-.35498-1.38776,0,0,4.34741-4.34784,4.34764-4.34761.43561.43561,1.20011.35787,1.53957-.15331l1.81915-2.73474c2.22058,1.34509,4.73053,2.03259,7.24725,2.03259,3.58496,0,7.16992-1.36426,9.89941-4.09375l5.65723-5.65723c5.45898-5.45898,5.45898-14.33984,0-19.79883ZM20.57129,47.78979l-7.0708,7.07129c-.38916.38965-1.02441.3916-1.41455,0l-2.90723-2.90723c-.18896-.18848-.29248-.43945-.29248-.70703,0-.2666.104-.51855.29248-.70703l7.0708-7.07031c.19531-.19531.45166-.29297.70801-.29297.25586,0,.51221.09766.70703.29199,0,0,2.82812,2.8291,2.8297,2.83018.21857.21857.37001.46388.37001.78407,0,.26758-.104.51758-.29297.70703ZM21.20007,44.17615l-1.41431-1.41479,4.24255-4.24207,1.41406,1.41406-4.24231,4.2428ZM27.40771,39.07007l-2.51611-2.51562,1.75452-1.16809c.28809.34937.59351.6875.91785,1.01184.32532.32532.66431.62842,1.01245.91492l-1.1687,1.75696ZM51.60547,29.3269l-5.65723,5.65723c-4.67676,4.67773-12.29102,4.67773-16.97021,0-2.2666-2.2666-3.51514-5.28027-3.51514-8.48535,0-3.20605,1.24854-6.21875,3.51514-8.48535l5.65674-5.65723c4.67969-4.67773,12.29102-4.67773,16.9707,0,4.67871,4.67871,4.67871,12.29199,0,16.9707Z" style="fill: #000; stroke-width: 0px;"/>
  <path d="M50.19141,13.77026c-3.89844-3.89746-10.24414-3.89941-14.14258,0l-5.65674,5.65723c-1.88623,1.88574-2.9248,4.39648-2.9248,7.07129,0,2.67285,1.03857,5.18457,2.9248,7.07031,1.88623,1.88672,4.39795,2.92578,7.0708,2.92578,2.6748,0,5.18555-1.03906,7.07129-2.92578l5.65723-5.65625c3.89844-3.89941,3.89844-10.24316,0-14.14258ZM50.48193,23.96021l-1.70496-1.70496,2.28711-2.28729c.14685,1.34808-.04742,2.72461-.58215,3.99225ZM50.48163,17.72223l-3.11871,3.11896-1.41425-1.41425,3.48651-3.48639c.4317.55585.78168,1.1543,1.04645,1.78168ZM37.4632,27.91217l2.82819-2.82806,1.41443,1.41443-2.828,2.82825-1.41461-1.41461ZM37.46375,30.74084l-3.1228,3.12305c-.63354-.26801-1.22913-.62268-1.77887-1.05072l3.48706-3.48694,1.41461,1.41461ZM43.12054,19.42694l-2.82916,2.82904-1.41418-1.41418,2.82922-2.82898,1.41412,1.41412ZM43.12048,16.59875l3.11914-3.11896c.62732.26477,1.22571.61481,1.78156,1.04657l-3.48657,3.48651-1.41412-1.41412ZM38.87732,23.67004l-2.82819,2.82806-1.41425-1.41425,2.82825-2.828,1.41418,1.41418ZM41.70544,23.67004l2.82916-2.82904,1.41425,1.41425-2.82898,2.82922-1.41443-1.41443ZM43.99396,12.89734l-2.28754,2.28735-1.70508-1.70508c.99457-.41974,2.05573-.63416,3.11877-.63416.29193,0,.58337.02026.87384.05188ZM37.46289,15.18433c.24017-.24005.4953-.45514.75684-.6582l2.07263,2.07263-2.82922,2.82898-2.1217-2.1217,2.12146-2.1217ZM33.92743,18.72015l2.12164,2.12164-2.82825,2.828-2.07257-2.07257c.2041-.26215.41931-.51715.6579-.75568l2.12128-2.1214ZM29.46729,26.4978c0-1.09167.21881-2.14813.63092-3.1225l1.70856,1.70856-2.28912,2.28894c-.03113-.28882-.05035-.58026-.05035-.875ZM30.09808,29.62042l3.12274-3.1225,1.41425,1.41425-3.48694,3.48688c-.4278-.54956-.78223-1.14514-1.05005-1.77863ZM36.58832,34.44458l2.28949-2.28967,1.7085,1.7085c-.97473.41241-2.03156.63147-3.12341.63147-.29462,0-.58588-.01917-.87457-.05029ZM43.12012,32.15503c-.23853.23871-.49365.45404-.75586.6582l-2.07239-2.07239,2.828-2.82825,2.12152,2.12152-2.12128,2.12091ZM46.65558,28.62018l-2.12164-2.12164,2.82898-2.82922,2.07263,2.07263c-.20312.26154-.41815.51666-.6582.75684l-2.12177,2.1214Z" style="fill: #000; stroke-width: 0px;"/>
</svg>