<?xml version="1.0" encoding="UTF-8"?>
<svg id="Outline" xmlns="http://www.w3.org/2000/svg" version="1.1" viewBox="0 0 64 64">
  <path d="M35.16642,7.5034c-12.13086,0-22,9.86914-22,22s9.86914,22,22,22,22-9.86914,22-22S47.29728,7.5034,35.16642,7.5034ZM15.16642,29.5034c0-5.31781,2.09985-10.14496,5.49689-13.7312.23352.24335.47906.4743.69897.7312h-.19586c-.55273,0-1,.44775-1,1s.44727,1,1,1h1.68536c.43628.65125.83191,1.3277,1.18427,2.02631-.4881.06647-.86963.46765-.86963.97369,0,.55225.44727,1,1,1h.71637c.24353.64661.45197,1.31348.62878,2h-.34515c-.55273,0-1,.44775-1,1s.44727,1,1,1h.75385c.09949.66229.16541,1.32849.19867,2h-.95251c-.55273,0-1,.44775-1,1s.44727,1,1,1h.95258c-.03326.67175-.099,1.33795-.19824,2h-.75433c-.55273,0-1,.44775-1,1s.44727,1,1,1h.34528c-.1767.68555-.3855,1.35242-.62927,2h-.716c-.55273,0-1,.44775-1,1,0,.50604.38153.90723.86963.97369-.35071.69513-.74615,1.37109-1.18451,2.02631h-1.68512c-.55273,0-1,.44775-1,1s.44727,1,1,1h.19604c-.21948.25629-.46539.48785-.69904.73132-3.39716-3.58624-5.49701-8.41339-5.49701-13.73132ZM22.10556,44.61589c.64075-.66772,1.23712-1.36981,1.77301-2.11249h1.28784c.55273,0,1-.44775,1-1,0-.53864-.42786-.97095-.96167-.99225.3811-.65234.72565-1.32245,1.03217-2.00775h1.9295c.55273,0,1-.44775,1-1s-.44727-1-1-1h-1.1629c.21881-.6507.40601-1.3172.56549-2h1.59741c.55273,0,1-.44775,1-1s-.44727-1-1-1h-1.22748c.09027-.66351.1499-1.32916.18011-2h1.04736c.55273,0,1-.44775,1-1s-.44727-1-1-1h-1.04742c-.03021-.67053-.08997-1.33636-.18042-2h1.22784c.55273,0,1-.44775,1-1s-.44727-1-1-1h-1.59766c-.15948-.68335-.34644-1.34973-.56506-2h1.16272c.55273,0,1-.44775,1-1s-.44727-1-1-1h-1.92957c-.30762-.6875-.65228-1.35779-1.0318-2.00781.53381-.02142.96136-.45361.96136-.99219,0-.55225-.44727-1-1-1h-1.28882c-.53894-.74597-1.13422-1.44751-1.77216-2.11237,3.50812-3.03619,8.06812-4.88763,13.06097-4.88763s9.55273,1.85138,13.06085,4.88751c-.64075.66772-1.23712,1.36981-1.77301,2.11249h-1.28784c-.55273,0-1,.44775-1,1,0,.53864.42786.97095.96167.99225-.3811.65234-.72565,1.32245-1.03217,2.00775h-1.9295c-.55273,0-1,.44775-1,1s.44727,1,1,1h1.1629c-.21881.6507-.40601,1.3172-.56549,2h-1.59741c-.55273,0-1,.44775-1,1s.44727,1,1,1h1.22748c-.09027.66351-.1499,1.32916-.18011,2h-1.04736c-.55273,0-1,.44775-1,1s.44727,1,1,1h1.04742c.03021.67053.08997,1.33636.18042,2h-1.22784c-.55273,0-1,.44775-1,1s.44727,1,1,1h1.59766c.15948.68335.34644,1.34973.56506,2h-1.16272c-.55273,0-1,.44775-1,1s.44727,1,1,1h1.92957c.30762.6875.65228,1.35779,1.0318,2.00781-.53381.02142-.96136.45361-.96136.99219,0,.55225.44727,1,1,1h1.28882c.53894.74597,1.13422,1.44751,1.77216,2.11237-3.50812,3.03619-8.06812,4.88763-13.06097,4.88763s-9.55273-1.85138-13.06085-4.88751ZM49.66953,43.2346c-.23352-.24335-.47906-.4743-.69897-.7312h.19586c.55273,0,1-.44775,1-1s-.44727-1-1-1h-1.68536c-.43628-.65125-.83191-1.3277-1.18427-2.02631.4881-.06647.86963-.46765.86963-.97369,0-.55225-.44727-1-1-1h-.71637c-.24353-.64661-.45197-1.31348-.62878-2h.34515c.55273,0,1-.44775,1-1s-.44727-1-1-1h-.75385c-.09949-.66229-.16541-1.32849-.19867-2h.95251c.55273,0,1-.44775,1-1s-.44727-1-1-1h-.95258c.03326-.67175.099-1.33795.19824-2h.75433c.55273,0,1-.44775,1-1s-.44727-1-1-1h-.34528c.1767-.68555.3855-1.35242.62927-2h.716c.55273,0,1-.44775,1-1,0-.50604-.38153-.90717-.86963-.97369.35071-.69507.74615-1.37109,1.18451-2.02631h1.68512c.55273,0,1-.44775,1-1s-.44727-1-1-1h-.19604c.21948-.25629.46539-.48785.69904-.73132,3.39716,3.58624,5.49701,8.41339,5.49701,13.73132s-2.09985,10.14496-5.49689,13.7312Z" style="fill: #000; stroke-width: 0px;"/>
  <circle cx="8.3331" cy="55.17002" r="1" style="fill: #000; stroke-width: 0px;"/>
  <path d="M18.88712,50.64353c-.38281-.39795-1.01465-.41064-1.41406-.02734l-4.33301,4.1665c-.39746.38281-.41016,1.01562-.02735,1.41405.36304.37787,1.01392.41141,1.41407.02735l4.33301-4.1665c.39746-.38281.41016-1.01562.02734-1.41406Z" style="fill: #000; stroke-width: 0px;"/>
  <path d="M8.52677,50.2241l4.33301-4.1665c.39746-.38281.41016-1.01562.02734-1.41406-.38281-.39795-1.01465-.41113-1.41406-.02734l-4.33301,4.1665c-.39746.38281-.41016,1.01562-.02734,1.41407.37944.39454,1.02083.40475,1.41406.02734Z" style="fill: #000; stroke-width: 0px;"/>
  <path d="M7.83373,44.49221c.25064.00087.50311-.08582.69304-.26811l4.33301-4.1665c.39746-.38281.41016-1.01562.02734-1.41406-.38281-.39795-1.01465-.41016-1.41406-.02734l-4.33295,4.16645c-.63515.61074-.17272,1.70655.69362,1.70957Z" style="fill: #000; stroke-width: 0px;"/>
  <path d="M23.47306,50.61619l-4.33301,4.1665c-.39745.3828-.41016,1.0156-.02737,1.41403.36185.37665,1.01511.41031,1.41409.02737l4.33301-4.1665c.39746-.38281.41016-1.01562.02734-1.41406-.38281-.39795-1.01465-.41064-1.41406-.02734Z" style="fill: #000; stroke-width: 0px;"/>
  <path d="M17.37345,46.29637c-.39062-.39062-1.02344-.39062-1.41406,0l-5.5,5.5c-.39061.39061-.39062,1.02339-.00005,1.41401.36943.36948,1.02061.39355,1.41411.00005l5.5-5.5c.39062-.39062.39062-1.02344,0-1.41406Z" style="fill: #000; stroke-width: 0px;"/>
</svg>