<?xml version="1.0" encoding="UTF-8"?>
<svg xmlns="http://www.w3.org/2000/svg" version="1.1" viewBox="0 0 64 64">
  <!-- Generator: Adobe Illustrator 28.7.1, SVG Export Plug-In . SVG Version: 1.2.0 Build 142)  -->
  <g>
    <g id="Outline">
      <g>
        <path d="M36,23c.54999,0,1-.45001,1-1v-8c0-1.65002-1.34998-3-3-3h-1v-3c0-.54999-.45001-1-1-1h-16c-.54999,0-1,.45001-1,1v3h-1c-1.65002,0-3,1.34998-3,3v40c0,1.64996,1.34998,3,3,3h20c1.65002,0,3-1.35004,3-3v-24c0-.54999-.45001-1-1-1s-1,.45001-1,1v24c0,.54999-.45001,1-1,1H14c-.54999,0-1-.45001-1-1V14c0-.54999.45001-1,1-1h20c.54999,0,1,.45001,1,1v8c0,.54999.45001,1,1,1ZM31,11h-14v-2h14v2Z"/>
        <path d="M16,15c-.55225,0-1,.44775-1,1v36c0,.55225.44775,1,1,1h16c.55225,0,1-.44775,1-1V16c0-.55225-.44775-1-1-1h-16ZM31,17v13.78027l-.70312-.14062c-2.19971-.43994-4.48584-.29688-6.61328.41162-1.79688.59912-3.72852.7207-5.58838.34814l-1.09521-.21912v-14.1803h14ZM17,51v-17.78027l.70312.14062c.83496.16699,1.68213.25,2.52832.25,1.38379,0,2.76514-.22168,4.08496-.66162,1.79785-.59814,3.72949-.71875,5.58838-.34814l1.09521.21912v18.1803h-14Z"/>
        <path d="M28,39h-1.71924l.68945-2.75732c.07471-.29883.00732-.61523-.18213-.85791s-.47998-.38477-.78809-.38477h-4c-.44629,0-.83887.2959-.96143.7251l-2,7c-.08643.30176-.02588.62646.16309.87695s.48438.39795.79834.39795h1.78027l-.76074,3.80371c-.09178.45793.14591.91829.57203,1.10927.38839.17407.93382.0537,1.20824-.31288l6-8c.22754-.30322.26416-.7085.09473-1.04736s-.51562-.55273-.89453-.55273ZM23.84521,43.87305l.13525-.67676c.05908-.29395-.01709-.59863-.20703-.83008-.18994-.23193-.47363-.36621-.77344-.36621h-1.67432l1.42871-5h1.96484l-.68945,2.75732c-.07471.29883-.00732.61523.18213.85791s.47998.38477.78809.38477h1l-2.15479,2.87305Z"/>
        <path d="M44,15h1v1c0,.55225.44775,1,1,1s1-.44775,1-1v-1h1c.55225,0,1-.44775,1-1s-.44775-1-1-1h-1v-1c0-.55225-.44775-1-1-1s-1,.44775-1,1v1h-1c-.55225,0-1,.44775-1,1s.44775,1,1,1Z"/>
        <path d="M46,21c3.85986,0,7-3.14014,7-7s-3.14014-7-7-7-7,3.14014-7,7,3.14014,7,7,7ZM46,9c2.75684,0,5,2.24316,5,5s-2.24316,5-5,5-5-2.24316-5-5,2.24316-5,5-5Z"/>
        <path d="M48,49h-4c-.55225,0-1,.44775-1,1s.44775,1,1,1h4c.55225,0,1-.44775,1-1s-.44775-1-1-1Z"/>
        <path d="M46,43c-3.85986,0-7,3.14014-7,7s3.14014,7,7,7,7-3.14014,7-7-3.14014-7-7-7ZM46,55c-2.75684,0-5-2.24316-5-5s2.24316-5,5-5,5,2.24316,5,5-2.24316,5-5,5Z"/>
        <path d="M20,25h1v2c0,.55225.44775,1,1,1h4c.55225,0,1-.44775,1-1v-2h1c.4043,0,.76904-.24365.92383-.61719.15479-.37402.06934-.80371-.2168-1.08984l-4-4c-.39062-.39062-1.02344-.39062-1.41406,0l-4,4c-.28613.28613-.37158.71582-.2168,1.08984.15479.37354.51953.61719.92383.61719ZM24,21.41406l1.64893,1.64941c-.37891.14209-.64893.50781-.64893.93652v2h-2v-2c0-.42871-.27002-.79443-.64893-.93652l1.64893-1.64941Z"/>
        <circle cx="36" cy="26" r="1"/>
      </g>
    </g>
  </g>
</svg>