<?xml version="1.0" encoding="UTF-8"?>
<svg xmlns="http://www.w3.org/2000/svg" version="1.1" viewBox="0 0 64 64">
  <!-- Generator: Adobe Illustrator 28.7.1, SVG Export Plug-In . SVG Version: 1.2.0 Build 142)  -->
  <g>
    <g id="Outline">
      <g>
        <path d="M16,33.49947c-2.75684,0-5,2.24316-5,5s2.24316,5,5,5,5-2.24316,5-5-2.24316-5-5-5ZM16,41.49947c-1.6543,0-3-1.3457-3-3s1.3457-3,3-3,3,1.3457,3,3-1.3457,3-3,3Z"/>
        <path d="M48,29.49947c-1.13,0-2.20001.21997-3.19.59998l-3.81-6.85999v-3.96002l3.23999-.81c.54004-.13.85999-.67999.72998-1.20996-.12994-.54004-.67999-.86005-1.20996-.73004l-4,1c-.45001.11005-.76001.51001-.76001.97003v4h-5c-.54999,0-1,.45001-1,1s.45001,1,1,1h4.33002l-5.89001,11.03998c-.12-.01001-.25-.02997-.38-.02997l-3.66998-11.01001h1.60999c.54999,0,1-.45001,1-1s-.45001-1-1-1h-2v-2h1c.54999,0,1-.45001,1-1s-.45001-1-1-1h-4c-.54999,0-1,.45001-1,1s.45001,1,1,1h1v2.62l-6.35999,7.15997c-1.10999-.5-2.34003-.77997-3.64001-.77997-4.96002,0-9,4.03998-9,9s4.03998,9,9,9c4.62,0,8.44-3.51001,8.94-8h4.23999c.31.84998.97003,1.51001,1.82001,1.82001v2.17999c-.54999,0-1,.45001-1,1s.45001,1,1,1h2c.54999,0,1-.45001,1-1s-.45001-1-1-1v-2.17999c1.15997-.42004,2-1.52002,2-2.82001,0-.78003-.29999-1.48004-.78998-2.01001l5.81-10.90002,3,5.42004c-2.42004,1.60999-4.02002,4.37-4.02002,7.48999,0,4.95996,4.03998,9,9,9,1.59998,0,3.17999-.42999,4.57001-1.25.46997-.28003.63-.89001.34998-1.37-.27997-.47003-.88995-.63-1.37-.35004-1.08002.63-2.31.97003-3.54999.97003-3.85999,0-7-3.14001-7-7s3.14001-7,7-7,7,3.14001,7,7c0,1.23999-.34003,2.46997-.96997,3.54999-.28003.47998-.12006,1.09003.34998,1.37.47998.28003,1.08997.12,1.37-.34998.82001-1.39001,1.25-2.97003,1.25-4.57001,0-4.96002-4.03998-9-9-9ZM16,45.49947c-3.85999,0-7-3.14001-7-7s3.14001-7,7-7,7,3.14001,7,7-3.14001,7-7,7ZM29.17999,37.49947h-4.23999c-.28003-2.53003-1.60999-4.73004-3.54999-6.19l5.20996-5.85004,3.56,10.69c-.44.34003-.77997.81-.97998,1.35004ZM32,39.49947c-.54999,0-1-.45001-1-1s.45001-1,1-1,1,.45001,1,1-.45001,1-1,1Z"/>
        <path d="M48,33.49947c-2.75684,0-5,2.24316-5,5s2.24316,5,5,5,5-2.24316,5-5-2.24316-5-5-5ZM48,41.49947c-1.6543,0-3-1.3457-3-3s1.3457-3,3-3,3,1.3457,3,3-1.3457,3-3,3Z"/>
        <circle cx="48" cy="38.49947" r="1"/>
        <circle cx="16" cy="38.49947" r="1"/>
      </g>
    </g>
  </g>
</svg>