<?xml version="1.0" encoding="utf-8"?>
<!-- Generator: Adobe Illustrator 27.3.1, SVG Export Plug-In . SVG Version: 6.00 Build 0)  -->
<svg version="1.1" id="Outline" xmlns="http://www.w3.org/2000/svg" xmlns:xlink="http://www.w3.org/1999/xlink" x="0px" y="0px"
	 viewBox="0 0 64 64" enable-background="new 0 0 64 64" xml:space="preserve">
<g>
	<circle cx="36" cy="44" r="1"/>
	<circle cx="41" cy="42" r="1"/>
	<circle cx="31" cy="42" r="1"/>
	<path d="M56,28h-5v-2c0-0.54999-0.45001-1-1-1H28c-0.54999,0-1,0.45001-1,1s0.45001,1,1,1h21v21c0,1.06-0.53998,2-1.39001,2.52997
		c-0.14001-0.5-0.33997-1.01001-0.60999-1.54999V30c0-0.54999-0.45001-1-1-1H18c-0.54999,0-1,0.45001-1,1v18.98999
		c-0.25,0.5-0.46002,1.02002-0.62,1.53998C15.53998,49.98999,15,49.06,15,48V27h5c0.54999,0,1-0.45001,1-1s-0.45001-1-1-1h-6
		c-0.54999,0-1,0.45001-1,1v2H8c-0.54999,0-1,0.45001-1,1v4c0,0.15997,0.03998,0.31,0.10999,0.45001L7.32001,33.87
		C8.44,36.10999,10.56,37.60999,13,37.92999V48c0,2.08997,1.27002,3.89996,3.15997,4.64001C16.41998,55.07996,18.47998,57,21,57
		c2.40002,0,4.39001-1.73004,4.79999-4h1.40002c0.40997,2.26996,2.39996,4,4.79999,4s4.39001-1.73004,4.79999-4h1.40002
		c0.40997,2.26996,2.39996,4,4.79999,4c2.52002,0,4.58002-1.92004,4.84003-4.35999C49.72998,51.89996,51,50.08997,51,48V37.92999
		c2.44-0.32001,4.56-1.82001,5.67999-4.06l0.21002-0.41998C56.96002,33.31,57,33.15997,57,33v-4C57,28.45001,56.54999,28,56,28z
		 M13,35.90997c-1.66998-0.31-3.10999-1.37-3.89001-2.94L9,32.76001V30h4V35.90997z M19,31h26v4.10999
		C40.69,36.62,36.73999,36.94,33.25,36.02997c-0.78003-0.20001-1.5-0.45001-2.26001-0.71997
		C29.31,34.71997,27.58002,34.10999,25.03998,34C23.04999,33.90997,21.02002,34.19,19,34.77997V31z M21,55
		c-1.59003,0-2.89001-1.28003-2.89001-2.85004c0-0.92999,0.48004-2.13995,1.37-3.47998
		c0.30005,0.98993,0.84003,1.89996,1.59003,2.64996c0.45898,0.45898,1.22778,0.34052,1.56-0.19995
		c0-0.00006,0.66998-1.09003,0.66998-1.09003c0.39001,0.79999,0.59003,1.52002,0.59003,2.12C23.89001,53.71997,22.59003,55,21,55z
		 M32,55c-1.59003,0-2.89001-1.28003-2.89001-2.85004c0-0.92999,0.48004-2.13995,1.37-3.47998
		c0.30005,0.98993,0.83997,1.8999,1.5899,2.64984c0.44849,0.44855,1.2403,0.33978,1.56012-0.19983l0.66998-1.09003
		c0.39001,0.79999,0.59003,1.52002,0.59003,2.12C34.89001,53.71997,33.59003,55,32,55z M38.26001,51H36.75
		c-0.22998-1.06-0.76001-2.23004-1.59998-3.48999c-0.19-0.28003-0.51001-0.45001-0.85004-0.45001
		c-0.34998,0.01001-0.65997,0.19-0.83997,0.48999L32.69,48.82001c-0.41992-0.80988-0.57996-1.73981-0.43005-2.65967
		c0.15961-0.97925-1.08594-1.53973-1.73993-0.82037C29.44,46.57996,27.73999,48.79999,27.26001,51H25.75
		c-0.22998-1.06-0.76001-2.23004-1.59998-3.49005c-0.40857-0.60205-1.31512-0.58478-1.69,0.04004L21.69,48.82001
		c-0.41992-0.80988-0.57996-1.73981-0.43005-2.65967c0.15558-0.95465-1.09161-1.53351-1.73993-0.82037
		c-0.16003,0.19-0.34003,0.40002-0.52002,0.62V36.88c1.98999-0.66003,3.98999-0.97003,5.96002-0.88
		c2.23999,0.09998,3.75995,0.63,5.37,1.20001c0.76001,0.25995,1.54999,0.53998,2.41998,0.76996
		c1.46997,0.38,3.01001,0.57001,4.60999,0.57001c2.42004,0,4.97003-0.46002,7.64001-1.33002V47.12
		c-0.21997,0.08002-0.40997,0.21997-0.53998,0.42999L43.69,48.82001c-0.41992-0.80994-0.57996-1.73987-0.43005-2.65973
		c0.15961-0.979-1.08496-1.54071-1.73993-0.82031C40.44,46.57996,38.73999,48.79999,38.26001,51z M43,55
		c-1.59003,0-2.89001-1.28003-2.89001-2.85004c0-0.92999,0.48004-2.13995,1.37-3.47998
		c0.30005,0.98993,0.83997,1.8999,1.58984,2.64984c0.43073,0.43073,1.23419,0.35016,1.56018-0.19983l0.66998-1.09003
		c0.39001,0.79999,0.59003,1.52002,0.59003,2.12C45.89001,53.71997,44.59003,55,43,55z M55,32.76001l-0.10999,0.20996
		c-0.78003,1.57001-2.22003,2.63-3.89001,2.94V30h4V32.76001z"/>
	<path d="M25,37c-1.6543,0-3,1.3457-3,3s1.3457,3,3,3s3-1.3457,3-3S26.6543,37,25,37z M25,41c-0.55127,0-1-0.44824-1-1
		s0.44873-1,1-1s1,0.44824,1,1S25.55127,41,25,41z"/>
	<path d="M14,23h36c0.39502,0,0.75342-0.23291,0.91357-0.59375c0.16064-0.36133,0.09375-0.7832-0.17139-1.07617
		c-5.1319-5.68494-11.42047-7.50854-15.44031-8.07819C35.74121,12.6098,36,11.83502,36,11c0-2.20557-1.79443-4-4-4s-4,1.79443-4,4
		c0,0.82593,0.25189,1.59399,0.6825,2.23193c-8.48438,1.14062-13.85608,6.3606-15.42468,8.09766
		c-0.26465,0.29346-0.33203,0.71533-0.17188,1.07666C13.24658,22.76709,13.60498,23,14,23z M32,9c1.10303,0,2,0.89697,2,2
		s-0.89697,2-2,2s-2-0.89697-2-2S30.89697,9,32,9z M32,15c2.21875,0,9.45166,0.46338,15.58789,6H16.44434
		C19.19531,18.57422,24.52051,15,32,15z"/>
	<circle cx="24" cy="26" r="1"/>
</g>
</svg>
