<?xml version="1.0" encoding="UTF-8"?>
<svg xmlns="http://www.w3.org/2000/svg" version="1.1" viewBox="0 0 64 64">
  <!-- Generator: Adobe Illustrator 28.7.1, SVG Export Plug-In . SVG Version: 1.2.0 Build 142)  -->
  <g>
    <g id="Outline">
      <g>
        <path d="M28,41.67999v-2.90002l1.57001-2.62c.94-1.56,1.42999-3.33997,1.42999-5.15997s-.48999-3.60004-1.42999-5.16003l-1.57001-2.62v-1.71997c0-3.85999-3.14001-7-7-7h-7c-3.85999,0-7,3.14001-7,7v6.16998c0,3.90002,1.03998,7.72003,3,11.09003v2.91998c-1.15997.41998-2,1.52002-2,2.82001v2c0,1.64996,1.34998,3,3,3h16c1.65002,0,3-1.35004,3-3v-2c0-1.29999-.84003-2.40002-2-2.82001ZM9,27.66998v-6.16998c0-2.76001,2.23999-5,5-5h7c2.76001,0,5,2.23999,5,5v4.76001c0,2.46997-.96002,4.78998-2.71002,6.52997-.38995.39001-.38995,1.03003,0,1.41998.39001.39001,1.03003.39001,1.42004,0,1.92999-1.92999,3.06-4.44,3.25-7.13995.66998,1.19995,1.03998,2.54999,1.03998,3.92999,0,1.45001-.40002,2.88-1.14001,4.13l-1.42999,2.37h-14.83997c-1.69-3-2.59003-6.38-2.59003-9.83002ZM26,39.5v2h-14v-2h14ZM28,46.5c0,.54999-.45001,1-1,1H11c-.54999,0-1-.45001-1-1v-2c0-.54999.45001-1,1-1h16c.54999,0,1,.45001,1,1v2Z"/>
        <path d="M57,27.66895v-6.16895c0-3.85938-3.14014-7-7-7h-7c-3.85986,0-7,3.14062-7,7v1.72296l-1.57129,2.61884c-.93457,1.55762-1.42871,3.3418-1.42871,5.1582s.49414,3.60059,1.42871,5.1582l1.57129,2.61884v2.90723c-1.1615.41412-2,1.51379-2,2.81573v2c0,1.6543,1.3457,3,3,3h16c1.6543,0,3-1.3457,3-3v-2c0-1.30194-.8385-2.40161-2-2.81573v-2.92657c1.95911-3.36615,3-7.19086,3-11.08875ZM52,41.5h-14v-2h14v2ZM36.03973,27.0741c.19257,2.69476,1.32373,5.20392,3.25323,7.13293.39062.39062,1.02344.39062,1.41406,0s.39062-1.02344,0-1.41406c-1.74561-1.74609-2.70703-4.06641-2.70703-6.53516v-4.75781c0-2.75684,2.24316-5,5-5h7c2.75684,0,5,2.24316,5,5v6.16895c0,3.4483-.90009,6.83197-2.5882,9.83105h-14.84558l-1.42267-2.37109c-.74805-1.24707-1.14355-2.6748-1.14355-4.12891,0-1.37775.36615-2.72681,1.03973-3.9259ZM54,46.5c0,.55176-.44873,1-1,1h-16c-.55127,0-1-.44824-1-1v-2c0-.55176.44873-1,1-1h16c.55127,0,1,.44824,1,1v2Z"/>
        <path d="M12,22.5h10c.55225,0,1-.44727,1-1s-.44775-1-1-1h-10c-.55225,0-1,.44727-1,1s.44775,1,1,1Z"/>
        <path d="M42,22.5h10c.55225,0,1-.44727,1-1s-.44775-1-1-1h-10c-.55225,0-1,.44727-1,1s.44775,1,1,1Z"/>
      </g>
    </g>
  </g>
</svg>