<?xml version="1.0" encoding="UTF-8"?>
<svg xmlns="http://www.w3.org/2000/svg" version="1.1" viewBox="0 0 64 64">
  <!-- Generator: Adobe Illustrator 28.7.1, SVG Export Plug-In . SVG Version: 1.2.0 Build 142)  -->
  <g>
    <g id="Outline">
      <g>
        <path d="M53.45001,17.80125l-21-10.69c-.28003-.15002-.62-.15002-.90002,0l-21,10.69c-.33997.16998-.54999.51001-.54999.88v27.01001c0,.38.21997.72998.56.89996l21,10.31c.14001.07001.28998.10004.44.10004s.29999-.03003.44-.10004l21-10.31c.34003-.16998.56-.51996.56-.89996v-27.01001c0-.37-.21002-.71002-.54999-.88ZM32,9.12126l18.84003,9.58997-5.19,2.80005-18.99005-9.67004,5.34003-2.71997ZM24.46002,12.96123l19.04999,9.70001-3.19,1.72003-19.16003-9.73999,3.30005-1.68005ZM31,54.39128l-19-9.32001v-24.71002l19,10.23999v23.79004ZM32,28.86125l-18.84003-10.15002,5.80005-2.94995,19.21997,9.77997-6.17999,3.32001ZM52,45.07127l-19,9.32001v-23.79004l19-10.23999v24.71002Z"/>
        <path d="M22.44043,45.50615l-7-3.43799c-.49609-.24463-1.09473-.03906-1.33789.45654s-.03906,1.09521.45703,1.33838c0,0,6.99484,3.43545,7,3.43799.46669.22921,1.09011.04807,1.33789-.45654.24316-.49561.03906-1.09521-.45703-1.33838Z"/>
        <path d="M14.55957,38.89873l7,3.43799c.1416.06982.29199.10254.43945.10254.36914,0,.72461-.20508.89844-.55908.24316-.49561.03906-1.09521-.45703-1.33838l-7-3.43799c-.49609-.24463-1.09473-.03906-1.33789.45654s-.03906,1.09521.45703,1.33838Z"/>
        <path d="M49.52832,37.15263c-.29297-.18311-.66113-.20068-.96875-.04883l-7,3.43799c-.34277.16797-.55957.51611-.55957.89746v4.96436c0,.34521.17773.66602.47177.84869.29337.18309.65855.20102.96866.04877l7-3.43799c.34277-.16797.55957-.51611.55957-.89746v-4.96436c0-.34521-.17773-.66602-.47168-.84863ZM48,42.34258l-5,2.45557v-2.73584l5-2.45557v2.73584Z"/>
      </g>
    </g>
  </g>
</svg>