<?xml version="1.0" encoding="UTF-8"?>
<svg id="Outline" xmlns="http://www.w3.org/2000/svg" version="1.1" viewBox="0 0 48 48">
  <path d="M43,13c0-4.41113-3.58887-8-8-8-1.7464,0-3.35883.56897-4.67578,1.52234-1.95184-.99487-4.12238-1.52234-6.32422-1.52234-7.71973,0-14,6.28027-14,14,0,3.36371,2.54834,7.5578,5.41718,11.21637-4.04559,1.2738-6.41718,3.37939-6.41718,5.78363,0,3.99023,6.44824,7,15,7s15-3.00977,15-7c0-2.40308-2.36969-4.50891-6.41077-5.784,2.47156-3.14868,4.70105-6.69031,5.26788-9.75262,3.00244-1.15363,5.14288-4.05975,5.14288-7.46338ZM35,7c3.30859,0,6,2.69141,6,6s-2.69141,6-6,6-6-2.69141-6-6,2.69141-6,6-6ZM30.77191,19.77881c-.79468,3.06244-3.54126,5.22119-6.77191,5.22119-3.85938,0-7-3.14062-7-7s3.14062-7,7-7c1.09216,0,2.14972.26617,3.10791.74872-.06464.40881-.10791.82458-.10791,1.25128,0,2.85797,1.51129,5.36359,3.77191,6.77881ZM37,36c0,2.36523-5.33887,5-13,5s-13-2.63477-13-5c0-1.53906,2.30048-3.1532,5.78534-4.10327.49707.58923.99316,1.15894,1.47748,1.69763-2.32446.51562-3.69183,1.22534-4.22668,1.55408-.29688.18164-.47656.50488-.47656.85254s.18164.6709.47852.85156c.82324.50391,3.97461,2.14746,9.96191,2.14746s9.13867-1.64355,9.96191-2.14746c.29688-.18066.47852-.50391.47852-.85156s-.17969-.6709-.47656-.85254c-.53503-.32892-1.90216-1.03906-4.22394-1.55475.48615-.54022.98285-1.10632,1.48181-1.69727,3.48047.95087,5.77826,2.56519,5.77826,4.10358ZM19.86469,35.32269c.55206.57874,1.065,1.10046,1.51923,1.55261-1.88342-.17987-3.33441-.53027-4.36633-.87628.73242-.24445,1.68445-.4881,2.84711-.67633ZM26.61694,36.87531c.45496-.45258.96814-.97394,1.52124-1.55347,1.1615.18823,2.1134.43237,2.84521.67719-1.03186.34601-2.48279.69635-4.36646.87628ZM23.99609,36.63184c-3.8916-3.68457-11.99609-12.43359-11.99609-17.63184,0-6.61719,5.38281-12,12-12,1.64465,0,3.26495.35303,4.7616,1.00452-.435.54218-.80054,1.14124-1.08405,1.78528-1.14697-.51831-2.39813-.78979-3.67755-.78979-4.96289,0-9,4.03711-9,9s4.03711,9,9,9c4.02948,0,7.4668-2.61609,8.60187-6.36829.75751.23859,1.56287.36829,2.39813.36829.22931,0,.4549-.01544.67938-.03442-1.64478,5.74579-9.34937,13.43622-11.68329,15.66626Z" fill="#000" stroke-width="0"/>
  <path d="M33.79297,15.20703c.19531.19531.45117.29297.70703.29297s.51172-.09766.70703-.29297l3-3c.39062-.39062.39062-1.02344,0-1.41406s-1.02344-.39062-1.41406,0l-2.29297,2.29297-1.29297-1.29297c-.39062-.39062-1.02344-.39062-1.41406,0s-.39062,1.02344,0,1.41406l2,2Z" fill="#000" stroke-width="0"/>
</svg>