<?xml version="1.0" encoding="utf-8"?>
<!-- Generator: Adobe Illustrator 27.3.1, SVG Export Plug-In . SVG Version: 6.00 Build 0)  -->
<svg version="1.1" id="Outline" xmlns="http://www.w3.org/2000/svg" xmlns:xlink="http://www.w3.org/1999/xlink" x="0px" y="0px"
	 viewBox="0 0 48 48" enable-background="new 0 0 48 48" xml:space="preserve">
<g>
	<path d="M11.97919,11.97919c0.3905-0.39056,0.3905-1.02368,0-1.41425c-0.3905-0.3905-1.02368-0.3905-1.41425,0
		c-0.3905,0.39056-0.3905,1.02368,0,1.41425C10.95551,12.36969,11.58868,12.36969,11.97919,11.97919z"/>
	<path d="M24,5c-3.59717,0-7.10156,1.01465-10.13477,2.93506c-0.4668,0.29492-0.60547,0.91309-0.31006,1.37939
		c0.29443,0.4668,0.91064,0.60693,1.37939,0.31006C17.64746,7.90771,20.78223,7,24,7c9.37402,0,17,7.62598,17,17s-7.62598,17-17,17
		S7,33.37402,7,24c0-3.21777,0.90771-6.35254,2.62451-9.06543c0.29541-0.46631,0.15674-1.08447-0.31006-1.37939
		c-0.46777-0.29688-1.08496-0.15625-1.37939,0.31006C6.01465,16.89844,5,20.40283,5,24c0,10.47656,8.52344,19,19,19
		s19-8.52344,19-19S34.47656,5,24,5z"/>
	<path d="M27.96796,12.68335C27.80341,10.62787,26.0976,9,24,9c-2.09705,0-3.80322,1.62775-3.96796,3.68311
		C15.26831,14.34625,12,18.88995,12,24c0,1.80212,0.4281,3.57306,1.20056,5.18634c-0.60162,0.7002-0.97888,1.59863-0.97888,2.59198
		c0,2.20557,1.79443,4,4,4c0.99335,0,1.89178-0.37726,2.59198-0.97888C20.42694,35.5719,22.19788,36,24,36
		c1.80194,0,3.57281-0.42798,5.18634-1.20038c0.70013,0.6015,1.59851,0.9787,2.59198,0.9787c2.20605,0,4-1.79443,4-4
		c0-0.99353-0.37732-1.89215-0.97906-2.59241C35.5719,27.57269,36,25.80194,36,24C36,18.89026,32.73169,14.34644,27.96796,12.68335z
		 M34,24c0,1.39453-0.30457,2.76715-0.86035,4.03271c-0.42682-0.1557-0.88123-0.25439-1.36133-0.25439
		c-0.73956,0-1.42407,0.21539-2.01892,0.56659l-2.32611-2.32581C27.78461,25.42413,28,24.73956,28,24
		c0-1.85834-1.27948-3.41083-3-3.85803v-3.28394c1.1626-0.30219,2.11731-1.10742,2.6167-2.17645
		C31.41754,16.15137,34,19.85242,34,24z M22,24c0-1.10303,0.89697-2,2-2c1.10254,0,2,0.89697,2,2s-0.89746,2-2,2
		C22.89697,26,22,25.10303,22,24z M24,11c1.10254,0,2,0.89697,2,2s-0.89746,2-2,2c-1.10303,0-2-0.89697-2-2S22.89697,11,24,11z
		 M20.38336,14.68158c0.49945,1.06903,1.45416,1.87415,2.61664,2.17639v3.28406C21.27972,20.58929,20,22.14172,20,24
		c0,0.73956,0.21545,1.42413,0.56683,2.0191l-2.32605,2.32605c-0.59497-0.35138-1.27954-0.56683-2.0191-0.56683
		c-0.47992,0-0.93427,0.09863-1.36102,0.25433C14.30463,26.76715,14,25.39447,14,24
		C14,19.85236,16.58246,16.15137,20.38336,14.68158z M14.22168,31.77832c0-1.10303,0.89697-2,2-2s2,0.89697,2,2s-0.89697,2-2,2
		S14.22168,32.88135,14.22168,31.77832z M19.96826,33.13629c0.15497-0.4259,0.25342-0.87915,0.25342-1.35797
		c0-0.73956-0.21545-1.42413-0.56683-2.0191l2.32605-2.32605C22.57587,27.78455,23.26044,28,24,28
		c0.73969,0,1.42432-0.21545,2.01923-0.56677l2.32599,2.32562c-0.35138,0.59503-0.56689,1.27979-0.56689,2.01947
		c0,0.47894,0.09839,0.93225,0.25342,1.35822C25.49524,34.23651,22.5047,34.23639,19.96826,33.13629z M31.77832,33.77832
		c-1.10254,0-2-0.89697-2-2s0.89746-2,2-2s2,0.89697,2,2S32.88086,33.77832,31.77832,33.77832z"/>
</g>
</svg>
