<?xml version="1.0" encoding="UTF-8"?>
<svg xmlns="http://www.w3.org/2000/svg" version="1.1" viewBox="0 0 64 64">
  <!-- Generator: Adobe Illustrator 28.7.1, SVG Export Plug-In . SVG Version: 1.2.0 Build 142)  -->
  <g>
    <g id="Outline">
      <g>
        <path d="M51,51c-.48999,0-.94.13-1.34998.33997l-2.65002-3.65997v-6.82001c5.64001-.88,10-6.14001,10-12.5,0-6.81-5.01001-12.39001-11.25-12.63-1.53998-5.17999-6-8.72998-11.08002-8.72998-2.98999,0-5.84998,1.25-8,3.45001-2.15997-2.20001-5.01996-3.45001-8-3.45001-6.44,0-11.66998,5.66998-11.66998,12.64001,0,2.94995.95001,5.77997,2.67999,8.03998-.01001.23999-.01001.46997-.01001.67999,0,5.31,3.04004,9.85999,7.33002,11.72998v7.59003l-2.65002,3.65997c-.40997-.20996-.85999-.33997-1.34998-.33997-1.65002,0-3,1.34998-3,3s1.34998,3,3,3,3-1.35004,3-3c0-.42004-.09003-.83002-.25-1.19l3.06-4.22003c.12-.16998.19-.38.19-.58997v-7.25c.75.15997,1.53003.25,2.33002.25h5.66998v5.51996l-2.42999,1.94c-.45001-.28998-.98999-.45996-1.57001-.45996-1.65002,0-3,1.34998-3,3s1.34998,3,3,3,3-1.35004,3-3c0-.34003-.07001-.67004-.17999-.98004l2.79999-2.23999c.23999-.19.38-.47998.38-.77997v-6h2v10.17999c-1.15997.41998-2,1.52002-2,2.82001,0,1.64996,1.34998,3,3,3s3-1.35004,3-3c0-1.29999-.84003-2.40002-2-2.82001v-10.17999h2v6c0,.29999.14001.58997.38.77997l2.79999,2.23999c-.10999.31-.17999.64001-.17999.98004,0,1.64996,1.34998,3,3,3s3-1.35004,3-3-1.34998-3-3-3c-.58002,0-1.12.16998-1.57001.45996l-2.42999-1.94v-5.51996h8v7c0,.20996.07001.41998.19.58997l3.06,4.22003c-.15997.35999-.25.76996-.25,1.19,0,1.64996,1.34998,3,3,3s3-1.35004,3-3-1.34998-3-3-3ZM13,55c-.54999,0-1-.45001-1-1s.45001-1,1-1,1,.45001,1,1-.45001,1-1,1ZM23,52c-.54999,0-1-.45001-1-1s.45001-1,1-1,1,.45001,1,1-.45001,1-1,1ZM41,50c.54999,0,1,.45001,1,1s-.45001,1-1,1-1-.45001-1-1,.45001-1,1-1ZM32,55c-.54999,0-1-.45001-1-1s.45001-1,1-1,1,.45001,1,1-.45001,1-1,1ZM21.33002,39c-5.33002,0-9.66003-4.77002-9.66003-10.64001,0-.28998,0-.58002.04004-.82001.03998-.28998-.04004-.58002-.22003-.79999-1.60999-1.95001-2.48999-4.47003-2.48999-7.09998,0-5.87006,4.34003-10.64001,9.66998-10.64001,2.75,0,5.38,1.31,7.22003,3.57996.38.48004,1.17999.47003,1.56,0,1.83002-2.26996,4.45996-3.57996,7.21997-3.57996,4.40002,0,8.25,3.27997,9.34003,7.97998.06.27002.20996.5.44.64001.23999.14001.5.17999.76001.10999.03998-.01001.07996,0,.12,0,5.32996,0,9.66998,4.77002,9.66998,10.63,0,5.87-4.34003,10.64001-9.66998,10.64001h-24ZM51,55c-.54999,0-1-.45001-1-1s.45001-1,1-1,1,.45001,1,1-.45001,1-1,1Z"/>
        <path d="M45.65527,19.73584c-.54688-.03613-1.02051.39746-1.04883.94824-.02734.55176.39746,1.02148.94922,1.04883,3.05273.15332,5.44434,3.06592,5.44434,6.63086,0,3.65918-2.54199,6.63623-5.66699,6.63623-.55273,0-1,.44775-1,1s.44727,1,1,1c4.22754,0,7.66699-3.87402,7.66699-8.63623,0-4.63184-3.22559-8.42139-7.34473-8.62793Z"/>
        <path d="M34.66699,11c-2.17676,0-4.18848,1.0083-5.66406,2.83887-.34668.42969-.2793,1.05908.15039,1.40576.43164.34814,1.06055.27881,1.40625-.15088,1.08887-1.3501,2.54785-2.09375,4.10742-2.09375,2.53709,0,4.77829,2.0112,5.45018,4.89105.12344.5291.67245.86892,1.20021.74713.53809-.12549.87305-.66309.74707-1.20117-.88281-3.79004-3.9248-6.43701-7.39746-6.43701Z"/>
        <path d="M18.66699,11c-4.22754,0-7.66699,3.87402-7.66699,8.63623,0,2.17088.72167,4.24069,2.03219,5.8276.34895.42255.98613.48239,1.40824.13432.42578-.35156.48633-.98193.13477-1.40771-1.01562-1.22949-1.5752-2.84717-1.5752-4.5542,0-3.65918,2.54199-6.63623,5.66699-6.63623.55273,0,1-.44775,1-1s-.44727-1-1-1Z"/>
      </g>
    </g>
  </g>
</svg>