<?xml version="1.0" encoding="UTF-8"?>
<svg id="Outline" xmlns="http://www.w3.org/2000/svg" version="1.1" viewBox="0 0 64 64">
  <circle cx="17" cy="52" r="1" fill="#000" stroke-width="0"/>
  <circle cx="47" cy="52" r="1" fill="#000" stroke-width="0"/>
  <path d="M56,47v-7c0-.22003-.07001-.42999-.20001-.60004l-6-8c-.19-.25-.48999-.39996-.79999-.39996h-11c-.54999,0-1,.45001-1,1v15h-2c-.54999,0-1,.45001-1,1s.45001,1,1,1h8.03003c-.45001.57996-.78003,1.26001-.93005,2h-20.19995c-.15002-.73999-.48004-1.42004-.93005-2h6.03003c.54999,0,1-.45001,1-1s-.45001-1-1-1H8c-.54999,0-1,.45001-1,1v4c0,.54999.45001,1,1,1h4.09998c.47003,2.27997,2.49005,4,4.90002,4s4.42999-1.72003,4.90002-4h20.19995c.47003,2.27997,2.49005,4,4.90002,4s4.42999-1.72003,4.90002-4h4.09998c.54999,0,1-.45001,1-1v-4c0-.54999-.45001-1-1-1ZM12.09998,51h-3.09998v-2h4.03003c-.45001.57996-.78003,1.26001-.93005,2ZM17,55c-1.65002,0-3-1.35004-3-3s1.34998-3,3-3,3,1.34998,3,3-1.34998,3-3,3ZM53,39h-4v-2h2.5l1.5,2ZM47,55c-1.65002,0-3-1.35004-3-3s1.34998-3,3-3,3,1.34998,3,3-1.34998,3-3,3ZM39,47v-14h9.5l1.5,2h-8c-.54999,0-1,.45001-1,1v4c0,.54999.45001,1,1,1h12v2h-2c-.54999,0-1,.45001-1,1s.45001,1,1,1h2v2h-15ZM47,37v2h-4v-2h4ZM55,51h-3.09998c-.15002-.73999-.48004-1.42004-.93005-2h4.03003v2Z" fill="#000" stroke-width="0"/>
  <path d="M7.58105,38.90771l13,6c.24227.11182.5667.12563.83789,0l13-6c.35449-.16309.58105-.51758.58105-.90771v-12c0-.38965-.22656-.74414-.58008-.90771l-6.71906-3.10522c1.42462-1.59271,2.29913-3.68713,2.29913-5.98706,0-4.9624-4.03711-9-9-9s-9,4.0376-9,9c0,2.29993.87451,4.39435,2.29913,5.98706l-6.71906,3.10522c-.35352.16357-.58008.51807-.58008.90771v12c0,.39014.22656.74463.58105.90771ZM9,35.56311s5.08105,2.34509,5.08116,2.34514c.4964.22849,1.09779.00699,1.32705-.4893.23145-.50146.0127-1.0957-.48926-1.32715l-5.91895-2.73181v-5.79688l11,5.0769v9.79694l-11-5.0766v-1.79724ZM21,25c1.87695,0,3.6203-.5791,5.06415-1.5658l5.55048,2.56519-10.61462,4.89905-10.61462-4.89905,5.55048-2.56519c1.44385.98669,3.18719,1.5658,5.06415,1.5658ZM22,42.43695v-9.79694l11-5.0769v5.79688l-5.91895,2.73181c-.50188.23141-.72064.82551-.48936,1.32692.22221.48176.84627.71094,1.32725.48948l5.08105-2.34509v1.79724l-11,5.0766ZM21,9c3.85938,0,7,3.14014,7,7s-3.14062,7-7,7-7-3.14014-7-7,3.14062-7,7-7Z" fill="#000" stroke-width="0"/>
  <path d="M22.29297,18.70703c.36518.36518,1.0136.40046,1.41406,0,.39062-.39062.39062-1.02344,0-1.41406l-1.70703-1.70703v-3.58594c0-.55225-.44727-1-1-1s-1,.44775-1,1v4c0,.26514.10547.51953.29297.70703l2,2Z" fill="#000" stroke-width="0"/>
  <circle cx="31" cy="48" r="1" fill="#000" stroke-width="0"/>
</svg>