<?xml version="1.0" encoding="UTF-8"?>
<svg id="Outline" xmlns="http://www.w3.org/2000/svg" version="1.1" viewBox="0 0 64 64">
  <path d="M57,20c0-7.16846-5.83154-13-13-13s-13,5.83154-13,13c0,.34027.02527.67432.05109,1.00806l-2.72101-.9519c-.21387-.0752-.44629-.0752-.66016,0l-6.22998,2.18018c-.52148.18262-.79639.75293-.61377,1.27393.14404.41211.53076.67041.94385.67041.10938,0,.22119-.01855.33008-.05664l5.8999-2.06445,3.43018,1.19983c.81714,3.14746,2.77509,5.83661,5.41803,7.58539l-8.84821,3.09564-16.97272-5.94043,3.53278-1.23633c.52148-.18262.79639-.75293.61377-1.27393-.18164-.52051-.75195-.79395-1.27393-.61377l-6.22998,2.18018c-.40137.14014-.66992.51904-.66992.94385v21c0,.4248.26855.80371.66943.94385l20,7c.19531.06836.44525.0759.66113,0l20-7c.40088-.14014.66943-.51904.66943-.94385v-17.00287c4.69312-1.9632,8-6.59998,8-11.99713ZM50.97369,19c-.0517-1.31421-.20392-2.56586-.44336-3.73401.9967-.21838,1.98376-.48303,2.95966-.80164.79419,1.3562,1.3103,2.89191,1.45935,4.53564h-3.97565ZM48.97473,19h-3.97473v-3.04272c1.19733-.03906,2.38757-.14252,3.56781-.32104.21423,1.03137.35541,2.1593.40692,3.36377ZM45,13.94971v-4.68268c1.15826.58997,2.28455,2.15387,3.0451,4.41571-1.01117.14374-2.02661.23132-3.0451.26697ZM43,9.26703v4.68335c-1.01953-.03516-2.03522-.12286-3.04553-.26624.76062-2.26257,1.88708-3.82709,3.04553-4.41711ZM43,15.95734v3.04266h-3.97473c.05151-1.2041.19257-2.3316.40674-3.36279,1.17908.17798,2.36945.28119,3.56799.32013ZM37.02631,19h-3.97565c.14899-1.64343.66492-3.17896,1.45892-4.53497.97498.31903,1.96222.58398,2.95984.80243-.23926,1.16779-.39148,2.41888-.44312,3.73254ZM37.02631,21c.0517,1.31488.20404,2.56714.44373,3.7359-.99841.21729-1.98578.48132-2.96014.79956-.79419-1.35614-1.31024-2.89178-1.45923-4.53546h3.97565ZM39.02527,21h3.97473v3.04968c-1.19434.03851-2.38464.14117-3.56696.31848-.21472-1.03265-.35614-2.16199-.40778-3.36816ZM43,26.04999v4.68298c-1.15845-.59003-2.28485-2.15436-3.04547-4.41681,1.01031-.14337,2.026-.23102,3.04547-.26617ZM45,30.73297v-4.68231c1.01849.03558,2.034.12305,3.04504.26678-.76062,2.26172-1.88684,3.82562-3.04504,4.41553ZM45,24.05048v-3.05048h3.97473c-.05164,1.20673-.19312,2.33661-.40802,3.36957-1.18329-.17773-2.37354-.28009-3.56671-.31909ZM50.97369,21h3.97565c-.14905,1.64404-.66534,3.17993-1.45978,4.53632-.97528-.31775-1.96265-.5813-2.96002-.79834.23987-1.16931.3924-2.4223.44415-3.73798ZM52.25452,12.75348c-.73596.22137-1.4776.41187-2.22626.57263-.40442-1.27692-.91772-2.41357-1.52679-3.35236,1.44415.65106,2.71985,1.60437,3.75305,2.77972ZM39.49854,9.97375c-.60938.93921-1.12292,2.0766-1.5274,3.35419-.74933-.16101-1.49097-.35181-2.22644-.57361,1.03326-1.17578,2.30939-2.12939,3.75385-2.78058ZM35.74481,27.24579c.73541-.22174,1.47717-.41254,2.22644-.57349.40448,1.27753.91797,2.41479,1.52728,3.35394-1.44446-.65118-2.72052-1.60474-3.75372-2.78046ZM9,42.38751l10,3.33319v1.89209l-10-3.33362v-1.89166ZM9,46.38751s10.68359,3.56122,10.68363,3.56123c.63199.20865,1.31637-.27918,1.31637-.94874v-4c0-.43066-.27539-.8125-.68359-.94873l-11.31641-3.77216v-1.8916l10.68359,3.56122c.10498.03516.21191.05176.31641.05176.41895,0,.80908-.26514.94873-.68408.1748-.52393-.1084-1.09033-.63232-1.26514l-11.31641-3.77216v-6.86957l18,6.30005v18.88086l-18-6.29993v-1.90302ZM47,44.27917l-10,3.33362v-1.89209l10-3.33319v1.89166ZM47,36.27911l-11.31641,3.77216c-.52393.1748-.80713.74121-.63232,1.26514.13965.41895.52979.68408.94873.68408.10449,0,.21143-.0166.31641-.05176l10.68359-3.56122v1.8916l-11.31641,3.77216c-.4082.13623-.68359.51807-.68359.94873v3.99996c0,.66851.68598,1.15693,1.31641.94877l10.68359-3.56122v1.90302l-18,6.29993v-18.8808l10.29791-3.60327c1.46045.56927,3.0426.89362,4.70209.89362,1.034,0,2.0351-.13416,3-.36334v3.64246ZM48.50146,30.02625c.60907-.93872,1.12231-2.07538,1.52673-3.35223.74866.16077,1.4903.35126,2.22626.57257-1.03314,1.17535-2.3089,2.12866-3.75299,2.77966Z" fill="#000" stroke-width="0"/>
  <circle cx="18" cy="24.5" r="1" fill="#000" stroke-width="0"/>
</svg>