<?xml version="1.0" encoding="UTF-8"?>
<svg id="Outline" xmlns="http://www.w3.org/2000/svg" version="1.1" viewBox="0 0 64 64">
  <circle cx="17" cy="28" r="1" fill="#000" stroke-width="0"/>
  <circle cx="47" cy="28" r="1" fill="#000" stroke-width="0"/>
  <path d="M42.09998,29c.47003,2.27997,2.49005,4,4.90002,4s4.42999-1.72003,4.90002-4h4.09998c.54999,0,1-.45001,1-1v-4c0-.54999-.45001-1-1-1v-7c0-.22003-.07001-.42999-.20001-.60004l-6-8c-.19-.25-.48999-.39996-.79999-.39996h-11c-.54999,0-1,.45001-1,1v1h-4c-.54999,0-1,.45001-1,1s.45001,1,1,1h4v12h-16v-12h4c.54999,0,1-.45001,1-1s-.45001-1-1-1H8c-.54999,0-1,.45001-1,1v18c0,.54999.45001,1,1,1h4.09998c.47003,2.27997,2.49005,4,4.90002,4s4.42999-1.72003,4.90002-4h9.09998v5.17999c-.84998.31-1.51001.96997-1.82001,1.82001h-12.17999c-.27002,0-.52002.10999-.71002.28998l-3,3c-.17999.19-.28998.44-.28998.71002v5h-5c-.54999,0-1,.45001-1,1v10c0,.54999.45001,1,1,1h12c.54999,0,1-.45001,1-1v-10c0-.54999-.45001-1-1-1h-5v-4.59003l2.40997-2.40997h11.77002c.31.84998.97003,1.51001,1.82001,1.82001v5.17999h-5c-.54999,0-1,.45001-1,1v10c0,.54999.45001,1,1,1h12c.54999,0,1-.45001,1-1v-10c0-.54999-.45001-1-1-1h-5v-5.17999c.84998-.31,1.51001-.97003,1.82001-1.82001h11.77002l2.40997,2.40997v4.59003h-5c-.54999,0-1,.45001-1,1v10c0,.54999.45001,1,1,1h12c.54999,0,1-.45001,1-1v-10c0-.54999-.45001-1-1-1h-5v-5c0-.27002-.10999-.52002-.28998-.71002l-3-3c-.19-.17999-.44-.28998-.71002-.28998h-12.17999c-.31-.85004-.97003-1.51001-1.82001-1.82001v-5.17999h9.09998ZM13,11h2v3h-2v-3ZM12.09998,27h-3.09998v-2h4.03003c-.45001.57996-.78003,1.26001-.93005,2ZM9,23v-12h2v4c0,.54999.45001,1,1,1h4c.54999,0,1-.45001,1-1v-4h2v12h-10ZM17,31c-1.65002,0-3-1.35004-3-3s1.34998-3,3-3,3,1.34998,3,3-1.34998,3-3,3ZM19,47v8h-10v-8h10ZM55,47v8h-10v-8h10ZM47,31c-1.65002,0-3-1.35004-3-3s1.34998-3,3-3,3,1.34998,3,3-1.34998,3-3,3ZM55,27h-3.09998c-.15002-.73999-.48004-1.42004-.93005-2h4.03003v2ZM53,15h-4v-2h2.5l1.5,2ZM39,9h9.5l1.5,2h-8c-.54999,0-1,.45001-1,1v4c0,.54999.45001,1,1,1h12v2h-2c-.54999,0-1,.45001-1,1s.45001,1,1,1h2v2h-15v-14ZM47,13v2h-4v-2h4ZM37,47v8h-10v-8h10ZM32,38c-.54999,0-1-.45001-1-1s.45001-1,1-1,1,.45001,1,1-.45001,1-1,1ZM21.90002,27c-.15002-.73999-.48004-1.42004-.93005-2h22.06006c-.45001.57996-.78003,1.26001-.93005,2h-20.19995Z" fill="#000" stroke-width="0"/>
  <path d="M29,21h5c.55225,0,1-.44775,1-1s-.44775-1-1-1h-5c-.55225,0-1,.44775-1,1s.44775,1,1,1Z" fill="#000" stroke-width="0"/>
  <circle cx="29" cy="10" r="1" fill="#000" stroke-width="0"/>
</svg>