<?xml version="1.0" encoding="UTF-8"?>
<svg id="Outline" xmlns="http://www.w3.org/2000/svg" version="1.1" viewBox="0 0 64 64">
  <path d="M44,22h-28c-.55225,0-1,.44727-1,1v14c0,.55273.44775,1,1,1h5.9375c.17383,0,.34521-.04492.49609-.13184l7.56641-4.32324,7.56641,4.32324c.15088.08691.32227.13184.49609.13184h5.9375c.55225,0,1-.44727,1-1v-14c0-.55273-.44775-1-1-1ZM43,36h-4.67188l-7.83203-4.47461c-.30762-.17578-.68457-.17578-.99219,0l-7.83203,4.47461h-4.67188v-12h26v12Z" style="fill: #000; stroke-width: 0px;"/>
  <path d="M56,10h-4c-.54999,0-1,.45001-1,1v16h-2v-6c0-1.65002-1.34998-3-3-3H14c-1.65002,0-3,1.34998-3,3v6h-3c-.54999,0-1,.45001-1,1v6c0,.54999.45001,1,1,1h3v4c0,1.64996,1.34998,3,3,3h8.46997c.52002,0,1.04004-.14001,1.49005-.40002l6.03998-3.45001,6.03998,3.45001c.45001.26001.97003.40002,1.49005.40002h8.46997c1.65002,0,3-1.35004,3-3v-4h2v10c0,1.64996-1.34998,3-3,3h-14c-1.65002,0-3,1.34998-3,3s1.34998,3,3,3h16c3.85999,0,7-3.14001,7-7V11c0-.54999-.45001-1-1-1ZM11,33h-2v-4h2v4ZM47,39c0,.54999-.45001,1-1,1h-8.46997c-.17004,0-.34003-.04999-.49005-.13l-6.53998-3.73999c-.15997-.09003-.33002-.13-.5-.13s-.34003.03998-.5.13l-6.53998,3.73999c-.15002.08002-.32001.13-.49005.13h-8.46997c-.54999,0-1-.45001-1-1v-18c0-.54999.45001-1,1-1h32c.54999,0,1,.45001,1,1v18ZM49,33v-4h2v4h-2ZM55,47c0,2.76001-2.23999,5-5,5h-16c-.54999,0-1-.45001-1-1s.45001-1,1-1h14c2.76001,0,5-2.23999,5-5V12h2v35Z" style="fill: #000; stroke-width: 0px;"/>
  <path d="M20.00006,29.99324c.25513.00077.51245-.0917.70697-.28621l2-2c.39062-.39062.39062-1.02344,0-1.41406s-1.02344-.39062-1.41406,0l-1.99997,1.99997c-.61973.61973-.15816,1.69769.70706,1.7003Z" style="fill: #000; stroke-width: 0px;"/>
  <path d="M21.29297,32.70703c.36476.36472,1.02766.38638,1.41406,0l2-2c.39062-.39062.39062-1.02344,0-1.41406s-1.02344-.39062-1.41406,0l-2,2c-.39055.39055-.39062,1.0232,0,1.41406Z" style="fill: #000; stroke-width: 0px;"/>
  <path d="M36.00014,29.98552c.25793.00076.51778-.08938.70689-.27848l2-2c.39062-.39062.39062-1.02344,0-1.41406s-1.02344-.39062-1.41406,0l-1.99996,1.99996c-.62261.62261-.15647,1.69004.70714,1.69258Z" style="fill: #000; stroke-width: 0px;"/>
  <path d="M37.3222,32.6778c.34773.3593.9214.49266,1.38483.02923l2-2c.39062-.39062.39062-1.02344,0-1.41406s-1.02344-.39062-1.41406,0l-1.99999,1.99999c-.44031.44031-.31851,1.02554.02922,1.38484Z" style="fill: #000; stroke-width: 0px;"/>
  <path d="M27,45c-1.6543,0-3,1.3457-3,3s1.3457,3,3,3,3-1.3457,3-3-1.3457-3-3-3ZM27,49c-.55127,0-1-.44824-1-1s.44873-1,1-1,1,.44824,1,1-.44873,1-1,1Z" style="fill: #000; stroke-width: 0px;"/>
  <path d="M14,44c-1.6543,0-3,1.3457-3,3s1.3457,3,3,3,3-1.3457,3-3-1.3457-3-3-3ZM14,48c-.55127,0-1-.44824-1-1s.44873-1,1-1,1,.44824,1,1-.44873,1-1,1Z" style="fill: #000; stroke-width: 0px;"/>
  <path d="M20,48c-1.6543,0-3,1.3457-3,3s1.3457,3,3,3,3-1.3457,3-3-1.3457-3-3-3ZM20,52c-.55127,0-1-.44824-1-1s.44873-1,1-1,1,.44824,1,1-.44873,1-1,1Z" style="fill: #000; stroke-width: 0px;"/>
</svg>