<?xml version="1.0" encoding="UTF-8"?>
<svg xmlns="http://www.w3.org/2000/svg" version="1.1" viewBox="0 0 64 64">
  <!-- Generator: Adobe Illustrator 28.7.1, SVG Export Plug-In . SVG Version: 1.2.0 Build 142)  -->
  <g>
    <g id="Outline">
      <g>
        <path d="M53,10.39996v-2.39996c0-.54999-.45001-1-1-1s-1,.45001-1,1v1h-22v-1c0-.54999-.45001-1-1-1s-1,.45001-1,1v2.39996c0,3.81,2.27002,7.21002,5.78998,8.67999l4.61005,1.92004-4.61005,1.91998c-3.51996,1.47003-5.78998,4.87-5.78998,8.67999,0,3.66998,2.15002,7.03003,5.48999,8.56l5.10999,2.34003-5.10999,2.33997c-3.33997,1.53003-5.48999,4.89001-5.48999,8.56v2.60004c0,.54999.45001,1,1,1s1-.45001,1-1v-1h22v1c0,.54999.45001,1,1,1s1-.45001,1-1v-2.60004c0-3.66998-2.15002-7.02997-5.48999-8.56l-5.10999-2.33997,5.10999-2.34003c3.33997-1.52997,5.48999-4.89001,5.48999-8.56,0-3.81-2.27002-7.20996-5.78998-8.67999l-4.61005-1.91998,4.61005-1.92004c3.51996-1.46997,5.78998-4.87,5.78998-8.67999ZM29.96002,14.01001c-.51001-.91003-.83002-1.93005-.92004-3.01001h21.92004c-.09003,1.07996-.41003,2.09998-.92004,3.01001-.00995,0-.02997-.01001-.03998-.01001h-20c-.01001,0-.03003.01001-.03998.01001ZM46.67999,46.65997c.73999.34003,1.39001.79999,1.96002,1.34003h-8.64001c-.54999,0-1,.45001-1,1s.45001,1,1,1h10c.04999,0,.09003-.02002.14001-.03003.47998.92999.76996,1.96002.82996,3.03003h-21.93994c.06-1.07001.34998-2.10004.82996-3.03003.04999.01001.09003.03003.14001.03003h6c.54999,0,1-.45001,1-1s-.45001-1-1-1h-4.65002c.58002-.54004,1.23004-1,1.97003-1.34003l6.67999-3.06,6.67999,3.06ZM49.53003,36h-7.53003c-.54999,0-1,.45001-1,1s.45001,1,1,1h5.29999c-.20996.12-.40997.23999-.62.33997l-6.67999,3.06-6.67999-3.06c-.21002-.09998-.41003-.21997-.62-.33997h5.29999c.54999,0,1-.45001,1-1s-.45001-1-1-1h-7.53003c-.64996-.88-1.10999-1.90002-1.31995-3h21.69995c-.20996,1.09998-.66998,2.12-1.31995,3ZM50.03998,27.98999c.51001.90997.83002,1.92999.92004,3.01001h-21.92004c.09003-1.08002.41003-2.10004.92004-3.01001.00995,0,.02997.01001.03998.01001h20c.01001,0,.03003-.01001.03998-.01001ZM46.44,24.76996c.73999.31,1.40002.73004,1.98999,1.23004h-16.85999c.58997-.5,1.25-.92004,1.98999-1.23004l6.44-2.69,6.44,2.69ZM40,19.91998l-6.44-2.69c-.73999-.31-1.40002-.72998-1.98999-1.22998h16.85999c-.58997.5-1.25.91998-1.98999,1.22998l-6.44,2.69Z"/>
        <path d="M25,24c0-1.6543-1.3457-3-3-3-.61407,0-1.18469.18671-1.66064.50452l-3.48883-2.61639c.08838-.28247.14948-.5769.14948-.88812,0-.70447-.25415-1.34436-.66217-1.85687l2.01465-3.21771c.20911.04626.42468.07458.64752.07458,1.6543,0,3-1.3457,3-3s-1.3457-3-3-3-3,1.3457-3,3c0,.70447.25415,1.34436.66217,1.85687l-2.01465,3.21771c-.20911-.04626-.42468-.07458-.64752-.07458-1.6543,0-3,1.3457-3,3s1.3457,3,3,3c.61407,0,1.18469-.18671,1.66064-.50452l3.48883,2.61639c-.08838.28247-.14948.5769-.14948.88812,0,1.30194.8385,2.40155,2,2.81567v2.36859c-.84717.30206-1.51367.96857-1.81573,1.81573h-2.36853c-.41412-1.1615-1.51379-2-2.81573-2-1.6543,0-3,1.3457-3,3s1.3457,3,3,3c1.30194,0,2.40161-.8385,2.81573-2h2.36859c.30206.84717.96851,1.51361,1.81567,1.81567v2.36859c-1.1615.41412-2,1.51379-2,2.81573,0,1.6543,1.3457,3,3,3s3-1.3457,3-3c0-1.30194-.8385-2.40161-2-2.81573v-2.36853c1.1615-.41412,2-1.51379,2-2.81573s-.8385-2.40161-2-2.81573v-2.36853c1.1615-.41412,2-1.51379,2-2.81573ZM23,24c0,.55176-.44873,1-1,1s-1-.44824-1-1,.44873-1,1-1,1,.44824,1,1ZM19,9c.55127,0,1,.44824,1,1s-.44873,1-1,1-1-.44824-1-1,.44873-1,1-1ZM13,18c0-.55176.44873-1,1-1s1,.44824,1,1-.44873,1-1,1-1-.44824-1-1ZM14,33c-.55127,0-1-.44824-1-1s.44873-1,1-1,1,.44824,1,1-.44873,1-1,1ZM22,41c-.55127,0-1-.44824-1-1s.44873-1,1-1,1,.44824,1,1-.44873,1-1,1ZM22,33c-.55127,0-1-.44824-1-1s.44873-1,1-1,1,.44824,1,1-.44873,1-1,1Z"/>
      </g>
    </g>
  </g>
</svg>