<?xml version="1.0" encoding="UTF-8"?>
<svg id="Outline" xmlns="http://www.w3.org/2000/svg" version="1.1" viewBox="0 0 64 64">
  <circle cx="16.00044" cy="47.5" r="1" fill="#000" stroke-width="0"/>
  <circle cx="48.00044" cy="47.5" r="1" fill="#000" stroke-width="0"/>
  <path d="M56.71046,27.78998l-8-8c-.19-.17999-.44-.28998-.71002-.28998h-8c-.54999,0-1,.45001-1,1v18h-2v-21h7c.54999,0,1-.45001,1-1v-4c0-.54999-.45001-1-1-1h-12c-.42999,0-.81.27997-.95001.67999l-2.76996,8.32001H8.00044c-.29999,0-.59003.14001-.78003.37-.18994.23999-.25995.54999-.19995.84998l3.72998,16.78003h-2.75c-.54999,0-1,.45001-1,1v6c0,.54999.45001,1,1,1h3.09998c-.06.32001-.09998.65997-.09998,1,0,2.76001,2.23999,5,5,5s5-2.23999,5-5c0-.34003-.03998-.67999-.09998-1h15.09998c.54999,0,1-.45001,1-1v-1h2v1c0,.54999.45001,1,1,1h3.09998c-.06.32001-.09998.65997-.09998,1,0,2.76001,2.23999,5,5,5s5-2.23999,5-5c0-.34003-.03998-.67999-.09998-1h3.09998c.54999,0,1-.45001,1-1v-17c0-.27002-.10999-.52002-.28998-.71002ZM16.00044,50.5c-1.65002,0-3-1.35004-3-3s1.34998-3,3-3,3,1.34998,3,3-1.34998,3-3,3ZM35.00044,44.5h-15.03003c-.90997-1.21002-2.33997-2-3.96997-2s-3.06.78998-3.96997,2h-3.03003v-4h26v4ZM36.00044,15.5c-.54999,0-1,.45001-1,1v22H12.80042l-3.54999-16h19.75c.42999,0,.81-.28003.95001-.67999l2.76996-8.32001h10.28003v2h-7ZM39.00044,42.5h-2v-2h2v2ZM41.00044,21.5h6.59003l2,2h-5.59003c-.54999,0-1,.45001-1,1v7h-2v-10ZM48.00044,50.5c-1.65002,0-3-1.35004-3-3s1.34998-3,3-3,3,1.34998,3,3-1.34998,3-3,3ZM55.00044,39.5h-2v-2h2v2ZM55.00044,35.5h-3c-.54999,0-1,.45001-1,1v4c0,.54999.45001,1,1,1h3v3h-3.03003c-.90997-1.21002-2.33997-2-3.96997-2s-3.06.78998-3.96997,2h-3.03003v-11h14v2ZM55.00044,31.5h-10v-6h6.59003l3.40997,3.40997v2.59003Z" fill="#000" stroke-width="0"/>
  <path d="M46.00044,35.5h-2c-.55225,0-1,.44727-1,1s.44775,1,1,1h2c.55225,0,1-.44727,1-1s-.44775-1-1-1Z" fill="#000" stroke-width="0"/>
  <path d="M32.00044,24.5H12.99043c-.31,0-.58997.14001-.77997.37-.19.23999-.27002.54999-.20001.84998l2.21997,10c.10004.45001.51001.78003.98004.78003h16.78998c.54999,0,1-.45001,1-1v-10c0-.54999-.45001-1-1-1ZM18.00044,34.5h-1.98999l-1.78003-8h3.77002v8ZM23.00044,34.5h-3v-8h3v8ZM27.00044,34.5h-2v-8h2v8ZM31.00044,34.5h-2v-8h2v8Z" fill="#000" stroke-width="0"/>
</svg>