<?xml version="1.0" encoding="utf-8"?>
<!-- Generator: Adobe Illustrator 27.3.1, SVG Export Plug-In . SVG Version: 6.00 Build 0)  -->
<svg version="1.1" id="Outline" xmlns="http://www.w3.org/2000/svg" xmlns:xlink="http://www.w3.org/1999/xlink" x="0px" y="0px"
	 viewBox="0 0 48 48" enable-background="new 0 0 48 48" xml:space="preserve">
<g>
	<circle cx="16" cy="42" r="1"/>
	<path d="M40,27h-6.28003c-0.26996,0-0.51996,0.10999-0.70996,0.28998L32.81,27.48999c-0.21002,0.21002-0.31,0.5-0.28998,0.78998
		c0.02997,0.29999,0.17999,0.57001,0.41998,0.73999l2.39001,1.69l-5.42004,4.02002l1.80005-3.42999
		c0.22998-0.44,0.09998-0.98999-0.31-1.27002l-2.82001-2.01001c0-0.15997-0.03003-0.31-0.10004-0.44995
		C28.31,27.21997,27.96002,27,27.58002,27H25V16.67999c0,0,0.62771,0.24909,0.63,0.25c0.30814,0.12228,0.65321,0.07916,0.93-0.10003
		C26.83002,16.64001,27,16.32996,27,16v-4c0-0.41003-0.25-0.78003-0.63-0.92999l-10-4c-0.23999-0.09003-0.5-0.09003-0.73999,0l-10,4
		C5.25,11.21997,5,11.58997,5,12v4c0,0.32996,0.16998,0.64001,0.44,0.82996c0.27002,0.18005,0.62,0.22003,0.92999,0.10004l0.63-0.25
		v10.5C5.84003,27.59998,5,28.70001,5,30v10c0,1.64996,1.34998,3,3,3h4c0.54999,0,1-0.45001,1-1s-0.45001-1-1-1H8
		c-0.54999,0-1-0.45001-1-1V30c0-0.54999,0.45001-1,1-1h18.56c0.04999,0.06,0.10999,0.10999,0.16998,0.14996l2.80005,2
		l-3.42004,6.53003C25.90002,38.08997,26,38.59998,26.34998,38.89996c0.36005,0.30005,0.87,0.32001,1.25,0.04004L37.63,31.48999
		c0.25-0.19,0.40002-0.48999,0.40002-0.81s-0.16003-0.62-0.42004-0.81L36.38,29H40c0.54999,0,1,0.45001,1,1v10
		c0,0.54999-0.45001,1-1,1H20c-0.54999,0-1,0.45001-1,1s0.45001,1,1,1h20c1.65002,0,3-1.35004,3-3V30C43,28.34998,41.65002,27,40,27
		z M18,27h-4v-6h4V27z M23,27h-3v-7c0-0.54999-0.45001-1-1-1h-6c-0.54999,0-1,0.45001-1,1v7H9V15.88l7-2.80005L23,15.88V27z
		 M16.37,11.07001C16.25,11.01996,16.13,11,16,11s-0.25,0.01996-0.37,0.07001L7,14.51996v-1.83997l9-3.60004l9,3.60004v1.83997
		L16.37,11.07001z"/>
</g>
</svg>
