<?xml version="1.0" encoding="UTF-8"?>
<svg xmlns="http://www.w3.org/2000/svg" version="1.1" viewBox="0 0 64 64">
  <!-- Generator: Adobe Illustrator 28.7.1, SVG Export Plug-In . SVG Version: 1.2.0 Build 142)  -->
  <g>
    <g id="Outline">
      <g>
        <path d="M51.59003,45.06l1.29999-2.60999c.07001-.14001.10999-.29004.10999-.45001v-6c0-1.37-.92999-2.52002-2.20001-2.88l-3.59998-13.57001c-.22003-1.46002-1.48999-2.54999-2.97003-2.54999h-4.48999c.16003-.64001.26001-1.31.26001-2,0-4.41003-3.59003-8-8-8s-8,3.58997-8,8c0,.69.09998,1.35999.26001,2h-4.48999c-1.48004,0-2.75,1.08997-2.97003,2.54999l-3.59998,13.57001c-1.27002.35999-2.20001,1.51001-2.20001,2.88v6c0,.15997.03998.31.10999.45001l1.29999,2.60999c-1.37.26996-2.40997,1.48999-2.40997,2.94,0,1.64996,1.34998,3,3,3h1v3c0,1.64996,1.34998,3,3,3h4c1.65002,0,3-1.35004,3-3v-3h16v3c0,1.64996,1.34998,3,3,3h4c1.65002,0,3-1.35004,3-3v-3h1c1.65002,0,3-1.35004,3-3,0-1.45001-1.03998-2.67004-2.40997-2.94ZM32,9c3.31,0,6,2.69,6,6s-2.69,6-6,6-6-2.69-6-6,2.69-6,6-6ZM13,36c0-.54999.45001-1,1-1h5c.54999,0,1-.45001,1-1s-.45001-1-1-1h-3.70001l3.45001-12.98999c.01001-.05005.02002-.09003.02002-.13.07001-.5.5-.88,1-.88h5.31c1.38995,2.39001,3.96997,4,6.91998,4s5.53003-1.60999,6.91998-4h5.31c.5,0,.92999.38,1,.88,0,.03998.01001.07996.02002.13l3.45001,12.98999h-3.79004c-.47998-2.83002-2.94-5-5.90997-5s-5.42999,2.16998-5.90997,5h-6.09003c-.54999,0-1,.45001-1,1s.45001,1,1,1h23c.54999,0,1,.45001,1,1v5.76001l-1.62,3.23999h-8.59998l-.36005-1.42004c-.95996-3.87-4.42999-6.57996-8.41998-6.57996s-7.46002,2.70996-8.41998,6.57996l-.36005,1.42004h-8.59998l-1.62-3.23999v-5.76001ZM42.85999,33h-7.71997c.45001-1.72003,2-3,3.85999-3s3.40997,1.27997,3.85999,3ZM38.71997,45h-13.43994l.22998-.94c.75-2.98004,3.41998-5.06,6.48999-5.06s5.73999,2.07996,6.48999,5.06l.22998.94ZM22,54c0,.54999-.45001,1-1,1h-4c-.54999,0-1-.45001-1-1v-3h6v3ZM48,54c0,.54999-.45001,1-1,1h-4c-.54999,0-1-.45001-1-1v-3h6v3ZM51,49H13c-.54999,0-1-.45001-1-1s.45001-1,1-1h38c.54999,0,1,.45001,1,1s-.45001,1-1,1Z"/>
        <path d="M30,16h2.13184l-.96387,1.44531c-.30664.45947-.18262,1.08057.27746,1.3868.45458.30253,1.08314.17855,1.3866-.27742l2-3c.2041-.30664.22363-.70117.0498-1.02637s-.5127-.52832-.88184-.52832h-2.13184l.96387-1.44531c.30664-.45947.18262-1.08057-.27734-1.38672-.46191-.30762-1.08203-.18311-1.38672.27734l-2,3c-.2041.30664-.22363.70117-.0498,1.02637s.5127.52832.88184.52832Z"/>
        <path d="M45,43c1.6543,0,3-1.3457,3-3s-1.3457-3-3-3-3,1.3457-3,3,1.3457,3,3,3ZM45,39c.55176,0,1,.44873,1,1s-.44824,1-1,1-1-.44873-1-1,.44824-1,1-1Z"/>
        <path d="M19,43c1.6543,0,3-1.3457,3-3s-1.3457-3-3-3-3,1.3457-3,3,1.3457,3,3,3ZM19,39c.55176,0,1,.44873,1,1s-.44824,1-1,1-1-.44873-1-1,.44824-1,1-1Z"/>
        <circle cx="34" cy="42" r="1"/>
        <circle cx="30" cy="42" r="1"/>
        <circle cx="23" cy="34" r="1"/>
      </g>
    </g>
  </g>
</svg>