<?xml version="1.0" encoding="UTF-8"?>
<svg xmlns="http://www.w3.org/2000/svg" version="1.1" viewBox="0 0 64 64">
  <!-- Generator: Adobe Illustrator 28.7.1, SVG Export Plug-In . SVG Version: 1.2.0 Build 142)  -->
  <g>
    <g id="Outline">
      <g>
        <path d="M52,41h-4.09998l-9.63-9.17999c-.56-.52002-1.31-.82001-2.07001-.82001h-17.90002c-1.19,0-2.26001.70001-2.73999,1.77997l-3.65002,8.22003h-1.90997c-1.65002,0-3,1.34998-3,3v6c0,1.64996,1.34998,3,3,3h6.09998c.47003,2.27997,2.49005,4,4.90002,4s4.42999-1.72003,4.90002-4h12.19995c.47003,2.27997,2.49005,4,4.90002,4s4.42999-1.72003,4.90002-4h6.09998c1.65002,0,3-1.35004,3-3v-4c0-2.76001-2.23999-5-5-5ZM21,55c-1.65002,0-3-1.35004-3-3s1.34998-3,3-3,3,1.34998,3,3-1.34998,3-3,3ZM43,55c-1.65002,0-3-1.35004-3-3s1.34998-3,3-3,3,1.34998,3,3-1.34998,3-3,3ZM55,50c0,.54999-.45001,1-1,1h-6.09998c-.47003-2.28003-2.49005-4-4.90002-4s-4.42999,1.71997-4.90002,4h-12.19995c-.47003-2.28003-2.49005-4-4.90002-4s-4.42999,1.71997-4.90002,4h-6.09998c-.54999,0-1-.45001-1-1v-2h2c.54999,0,1-.45001,1-1s-.45001-1-1-1h-2v-2c0-.54999.45001-1,1-1h2.56c.40002,0,.75-.23004.90997-.59003l3.91003-8.82001c.15997-.35999.52002-.58997.91998-.58997h17.90002c.25,0,.51001.09998.69.26996l9.91998,9.45001c.19.17999.42999.28003.69.28003h4.5c1.29999,0,2.40002.83997,2.82001,2h-1.82001c-.54999,0-1,.45001-1,1s.45001,1,1,1h2v3Z"/>
        <path d="M36.70703,35.29297c-.1875-.1875-.44141-.29297-.70703-.29297h-16c-.37891,0-.72461.21387-.89453.55273l-3,6c-.15527.31006-.13867.67822.04395.97314.18262.29443.50391.47412.85059.47412h25c.4043,0,.76953-.24365.92383-.61719.15527-.37402.06934-.80371-.2168-1.08984l-6-6ZM28,41h-9.38184l2-4h7.38184v4ZM30,41v-4h5.58594l4,4h-9.58594Z"/>
        <path d="M33,45h-3c-.55273,0-1,.44775-1,1s.44727,1,1,1h3c.55273,0,1-.44775,1-1s-.44727-1-1-1Z"/>
        <circle cx="43" cy="52" r="1"/>
        <circle cx="21" cy="52" r="1"/>
        <circle cx="15" cy="46" r="1"/>
        <circle cx="49" cy="46" r="1"/>
        <path d="M53,7h-10c-2.21002,0-4,1.78998-4,4v6c-2.21002,0-4-1.79004-4-4,0-3.31-2.69-6-6-6-2.98999,0-5.46997,2.20001-5.91998,5.07001-3.42999.44995-6.08002,3.38-6.08002,6.92999v3h-1c-.54999,0-1,.45001-1,1s.45001,1,1,1h4v3c0,.54999.45001,1,1,1s1-.45001,1-1v-3h4v3c0,.54999.45001,1,1,1s1-.45001,1-1v-3h4c.54999,0,1-.45001,1-1s-.45001-1-1-1h-1v-3c0-3.48004-2.56-6.37-5.89001-6.90002.41003-1.77002,2-3.09998,3.89001-3.09998,2.21002,0,4,1.78998,4,4,0,3.31,2.69,6,6,6v8c0,2.20996,1.78998,4,4,4h10c2.21002,0,4-1.79004,4-4V11c0-2.21002-1.78998-4-4-4ZM29,19v3h-10v-3c0-2.76001,2.23999-5,5-5s5,2.23999,5,5ZM55,27c0,1.09998-.90002,2-2,2h-10c-1.09998,0-2-.90002-2-2V11c0-1.10004.90002-2,2-2h10c1.09998,0,2,.89996,2,2v16Z"/>
        <path d="M53.33538,17.35124c-.07545-.29374-.27954-.5547-.58538-.68126l-2.39001-.95001,1.98999-3.19c.19-.31.20001-.70001.03003-1.01001-.17999-.31995-.52002-.51996-.88-.51996h-5.25c-.39001,0-.73999.21997-.90997.57996l-2.62005,5.60002c-.23664.50579.00813,1.14129.53002,1.34999l2.69,1.07001-1.53003,6.16003c-.11999.44995.10003.91998.51002,1.13001.41104.21056.92457.10454,1.22002-.25001.0001-.00012,6.98765-8.3852,6.99998-8.4.21611-.25934.27189-.59091.19539-.88877ZM47.40997,22l.68005-2.76001c.12994-.47998-.13-.97998-.59003-1.16998l-2.52002-1.01001,1.91003-4.06h2.81l-1.66997,2.66997c-.32692.52268-.10237,1.22679.46996,1.46004l2.22998.88995-3.32001,3.98004Z"/>
      </g>
    </g>
  </g>
</svg>