<?xml version="1.0" encoding="UTF-8"?>
<svg xmlns="http://www.w3.org/2000/svg" version="1.1" viewBox="0 0 48 48">
  <!-- Generator: Adobe Illustrator 28.7.1, SVG Export Plug-In . SVG Version: 1.2.0 Build 142)  -->
  <g>
    <g id="Outline">
      <g>
        <path d="M42.66455,38.44238L26.81543,6.74609c-.53564-1.0791-1.61426-1.74902-2.81543-1.74902s-2.27979.66992-2.81445,1.74609l-15.85156,31.70215c-.48975.9873-.43604,2.13379.14355,3.06836.57666.93066,1.57568,1.48633,2.67236,1.48633h8.8501c.55225,0,1-.44727,1-1s-.44775-1-1-1h-8.8501c-.40527,0-.76025-.19727-.97266-.54004-.21533-.34668-.23438-.75781-.05273-1.12305L22.97559,7.63477c.39746-.79883,1.65039-.80176,2.0498.00293l15.84863,31.69629c.18311.36816.16406.7793-.05127,1.12598-.2124.34277-.56738.54004-.97266.54004h-18.8501c-.55225,0-1,.44727-1,1s.44775,1,1,1h18.8501c1.09668,0,2.0957-.55566,2.67236-1.48633.57959-.93457.6333-2.08105.14209-3.07129Z"/>
        <path d="M22,31c0-.55273-.44775-1-1-1s-1,.44727-1,1c0,2.20605,1.79443,4,4,4,.55225,0,1-.44727,1-1s-.44775-1-1-1c-1.10303,0-2-.89746-2-2Z"/>
        <path d="M26,17c.55225,0,1-.44727,1-1s-.44775-1-1-1c-1.6543,0-3,1.3457-3,3v1c-1.10303,0-2,.89746-2,2v2.58899c-2.92798,1.18976-5,4.06104-5,7.41101,0,4.41113,3.58887,8,8,8s8-3.58887,8-8c0-3.34998-2.07202-6.22125-5-7.41101v-2.58899c0-1.10254-.89697-2-2-2v-1c0-.55176.44873-1,1-1ZM30,31c0,3.30859-2.69141,6-6,6s-6-2.69141-6-6,2.69141-6,6-6,6,2.69141,6,6ZM24,23c-.33936,0-.67163.02826-1,.06946v-2.06946h2v2.06946c-.32837-.0412-.66064-.06946-1-.06946Z"/>
        <path d="M6.0957,7.7207c.65576.82031.94434,1.8457.81201,2.88672-.13232,1.04199-.66748,1.96289-1.50781,2.59277-.44189.33105-.53125.95801-.19971,1.39941.33154.44238.95898.53223,1.3999.2002l1.09229-.81934c1.3584-1.01758,3.25684-1.01758,4.61523,0l1.09228.81934c.42399.31804,1.0675.24467,1.3999-.20019.33154-.44141.24219-1.06836-.19971-1.39941-.84033-.62988-1.37549-1.55078-1.50781-2.59277-.13232-1.04102.15625-2.06641.81201-2.88672,0,0,.87451-1.09375.87646-1.0957.34521-.43164.27539-1.06055-.15576-1.40527-.43164-.34668-1.06006-.27637-1.40578.15529-.818,1.02158-1.86793,1.71287-3.21922,1.71287-1.1748,0-2.26953-.52539-3.00342-1.44336-.39434-.49326-.99726-.92681-1.62158-.42481-.43115.34473-.50098.97363-.15576,1.40527l.87646,1.0957ZM8.82764,8.9707c.7627.1543,1.58203.1543,2.34473,0-.12207.61328-.14551,1.24902-.06396,1.88867.02051.16211.04736.32227.08057.48047-.78271-.16016-1.59424-.16016-2.37793,0,.0332-.1582.06006-.31836.08057-.48047.08154-.63965.05811-1.27539-.06396-1.88867Z"/>
        <path d="M34.0957,7.7207c.65576.82031.94434,1.8457.81201,2.88672-.13232,1.04199-.66748,1.96289-1.50781,2.59277-.44189.33105-.53125.95801-.19971,1.39941.33105.44238.95801.53223,1.3999.2002l1.09229-.81934c1.3584-1.01758,3.25684-1.01758,4.61523,0l1.09229.81934c.42456.31846,1.06776.24432,1.3999-.2002.33154-.44141.24219-1.06836-.19971-1.39941-.84033-.62988-1.37549-1.55078-1.50781-2.59277-.13232-1.04102.15625-2.06641.81201-2.88672,0,0,.87451-1.09375.87646-1.0957.34521-.43164.27539-1.06055-.15576-1.40527-.43115-.34668-1.05957-.27637-1.40577.15528-.81829,1.02193-1.86794,1.71288-3.21921,1.71289-1.34236,0-2.40609-.69734-3.21926-1.71289-.34619-.43164-.97559-.50195-1.40576-.15527-.43115.34473-.50098.97363-.15576,1.40527l.87646,1.0957ZM36.82764,8.9707c.7627.1543,1.58203.1543,2.34473,0-.12207.61328-.14551,1.24902-.06396,1.88867.02051.16211.04736.32227.08057.48047-.78271-.16016-1.59424-.16016-2.37793,0,.0332-.1582.06006-.31836.08057-.48047.08154-.63965.05811-1.27539-.06396-1.88867Z"/>
      </g>
    </g>
  </g>
</svg>