<?xml version="1.0" encoding="UTF-8"?>
<svg id="Outline" xmlns="http://www.w3.org/2000/svg" version="1.1" viewBox="0 0 64 64">
  <path d="M54,15.00034v-3c0-.54999-.45001-1-1-1h-6c-.54999,0-1,.45001-1,1v3h-8c-1.65002,0-3,1.34998-3,3v7.25l-2.40002.67999-.59998-6.03003c-.06-.50995-.48999-.89996-1-.89996h-4c-.51001,0-.94.39001-1,.89996l-.81,8.15002-10.46002,2.98999c-.42999.12-.72998.51001-.72998.96002v3.25l-6.27002,1.78998c-.42999.12-.72998.51001-.72998.96002v16c0,.54999.45001,1,1,1h48c.54999,0,1-.45001,1-1V18.00034c0-1.65002-1.34998-3-3-3ZM27.90002,21.00034h2.19995l.55005,5.48999-3.39001.96997.64001-6.45996ZM30,53.00034H14v-6h16v6ZM30,45.00034H14v-2h16v2ZM35,53.00034h-3v-11c0-.54999-.45001-1-1-1H13c-.54999,0-1,.45001-1,1v11h-3v-14.25l6.27002-1.79004c.42999-.12.72998-.50995.72998-.95996v-3.25l19-5.42004v25.67004ZM48,13.00034h4v2h-4v-2ZM49,53.00034h-6v-8h6v8ZM55,53.00034h-4v-9c0-.54999-.45001-1-1-1h-8c-.54999,0-1,.45001-1,1v9h-4V18.00034c0-.54999.45001-1,1-1h16c.54999,0,1,.45001,1,1v35Z" fill="#000" stroke-width="0"/>
  <path d="M52,35.00034h-4c-.55225,0-1,.44775-1,1v4c0,.55225.44775,1,1,1h4c.55225,0,1-.44775,1-1v-4c0-.55225-.44775-1-1-1ZM51,39.00034h-2v-2h2v2Z" fill="#000" stroke-width="0"/>
  <path d="M44,35.00034h-4c-.55225,0-1,.44775-1,1v4c0,.55225.44775,1,1,1h4c.55225,0,1-.44775,1-1v-4c0-.55225-.44775-1-1-1ZM43,39.00034h-2v-2h2v2Z" fill="#000" stroke-width="0"/>
  <path d="M52,27.00034h-4c-.55225,0-1,.44775-1,1v4c0,.55225.44775,1,1,1h4c.55225,0,1-.44775,1-1v-4c0-.55225-.44775-1-1-1ZM51,31.00034h-2v-2h2v2Z" fill="#000" stroke-width="0"/>
  <path d="M44,27.00034h-4c-.55225,0-1,.44775-1,1v4c0,.55225.44775,1,1,1h4c.55225,0,1-.44775,1-1v-4c0-.55225-.44775-1-1-1ZM43,31.00034h-2v-2h2v2Z" fill="#000" stroke-width="0"/>
  <path d="M52,19.00034h-12c-.55225,0-1,.44775-1,1v4c0,.55225.44775,1,1,1h12c.55225,0,1-.44775,1-1v-4c0-.55225-.44775-1-1-1ZM51,23.00034h-10v-2h10v2Z" fill="#000" stroke-width="0"/>
  <path d="M29.73779,15.71274l.36767.73485c.56702,1.13329,2.37741.281,1.78907-.89452l-.36768-.73438c-.18555-.37158-.11279-.81787.18018-1.11133.90283-.90234,1.12598-2.27637.55518-3.41943l-.36768-.73486c-.24805-.49463-.84814-.69482-1.3418-.44727-.49414.24756-.69434.84814-.44727,1.3418l.36768.73438c.18555.37158.11279.81787-.18018,1.11133-.90283.90234-1.12598,2.27637-.55518,3.41943Z" fill="#000" stroke-width="0"/>
  <path d="M25.3125,15.71274l.36767.73485c.56911,1.13746,2.37471.27562,1.78907-.89452l-.36768-.73438c-.18555-.37158-.11279-.81787.18018-1.11133.90283-.90234,1.12598-2.27637.55518-3.41943l-.36768-.73486c-.24707-.49463-.84863-.69482-1.3418-.44727-.49414.24756-.69434.84814-.44727,1.3418l.36768.73438c.18555.37158.11279.81787-.18018,1.11133-.90283.90234-1.12598,2.27637-.55518,3.41943Z" fill="#000" stroke-width="0"/>
  <path d="M28,39.00034h4c.55225,0,1-.44775,1-1v-4c0-.55225-.44775-1-1-1h-4c-.55225,0-1,.44775-1,1v4c0,.55225.44775,1,1,1ZM29,35.00034h2v2h-2v-2Z" fill="#000" stroke-width="0"/>
  <path d="M20,39.00034h4c.55225,0,1-.44775,1-1v-4c0-.55225-.44775-1-1-1h-4c-.55225,0-1,.44775-1,1v4c0,.55225.44775,1,1,1ZM21,35.00034h2v2h-2v-2Z" fill="#000" stroke-width="0"/>
</svg>