<?xml version="1.0" encoding="UTF-8"?>
<svg id="Outline" xmlns="http://www.w3.org/2000/svg" version="1.1" viewBox="0 0 48 48">
  <path d="M42.59003,25.19l-1.59003-1.15002v-3.03998c0-.54999-.45001-1-1-1s-1,.45001-1,1v1.57996l-2-1.44995v-3.13c0-.54999-.45001-1-1-1s-1,.45001-1,1v1.66998l-3-2.17999v-1.48999c0-4.20001-6.59003-10.09003-7.34003-10.75-.37994-.33002-.94-.33002-1.31995,0-.75.65997-7.34003,6.54999-7.34003,10.75v1.48999l-3,2.17999v-1.66998c0-.54999-.45001-1-1-1s-1,.45001-1,1v3.13l-2,1.44995v-1.57996c0-.54999-.45001-1-1-1s-1,.45001-1,1v3.03998l-1.59003,1.15002c-.25995.19-.40997.48999-.40997.81v10c0,.54798.45496,1,1,1,.09003,0,.17999-.01001.26001-.04004l10.53998-2.87,2,1.42999-5.08997,1.52002c-.42004.13-.71002.52002-.71002.96002v4c0,.54999.45001,1,1,1h20c.54999,0,1-.45001,1-1v-4c0-.44-.28998-.83002-.71002-.96002l-5.08997-1.52002,2-1.42999,10.53992,2.86998c.62473.17011,1.26006-.31235,1.26006-.95995v-10c0-.32001-.15002-.62-.40997-.81ZM16,32.23999l-9,2.45001v-8.17999l9-6.55005v12.28003ZM24,7.34998c.76001.72003,1.75,1.71002,2.69,2.79004-1.77002-.18005-3.60999-.18005-5.38,0,.94-1.08002,1.92999-2.07001,2.69-2.79004ZM19.5,12.45001c2.85999-.59003,6.14001-.59003,9,0,.60999.88995,1.09003,1.75995,1.33002,2.54999h-11.66003c.23999-.79004.72003-1.66003,1.33002-2.54999ZM23,41h-8v-2.26001l5.85999-1.75,2.14001,1.52002v2.48999ZM33,38.73999v2.26001h-8v-2.48999l2.14001-1.52002,5.85999,1.75ZM30,32.48999l-6,4.27997-6-4.27997v-1.48999h12v1.48999ZM30,29h-12v-12h12v12ZM41,34.69l-9-2.45001v-12.28003l9,6.55005v8.17999Z" fill="#000" stroke-width="0"/>
  <path d="M24,27c1.6543,0,3-1.3457,3-3v-2c0-1.6543-1.3457-3-3-3s-3,1.3457-3,3v2c0,1.6543,1.3457,3,3,3ZM23,22c0-.55127.44824-1,1-1s1,.44873,1,1v2c0,.55127-.44824,1-1,1s-1-.44873-1-1v-2Z" fill="#000" stroke-width="0"/>
  <path d="M10,31h3c.55273,0,1-.44775,1-1s-.44727-1-1-1h-3c-.55273,0-1,.44775-1,1s.44727,1,1,1Z" fill="#000" stroke-width="0"/>
  <path d="M35,31h3c.55273,0,1-.44775,1-1s-.44727-1-1-1h-3c-.55273,0-1,.44775-1,1s.44727,1,1,1Z" fill="#000" stroke-width="0"/>
</svg>