<?xml version="1.0" encoding="utf-8"?>
<!-- Generator: Adobe Illustrator 27.3.1, SVG Export Plug-In . SVG Version: 6.00 Build 0)  -->
<svg version="1.1" id="Outline" xmlns="http://www.w3.org/2000/svg" xmlns:xlink="http://www.w3.org/1999/xlink" x="0px" y="0px"
	 viewBox="0 0 48 48" enable-background="new 0 0 48 48" xml:space="preserve">
<g>
	<circle cx="20" cy="42" r="1"/>
	<path d="M41.92999,28.09998C41.28003,27.75,40.5,27.79999,39.90002,28.20001L39,28.79999l-1.90002-1.26001
		c-0.66998-0.45001-1.52997-0.45001-2.19995,0L33,28.79999l-1.90002-1.26001c-0.63-0.42999-1.44995-0.44-2.09998-0.04999v-7.81
		c0,0,0.62653,0.24862,0.62999,0.24999C30.27637,20.18649,31,19.69379,31,19v-4c0-0.41003-0.25-0.78003-0.63-0.92999l-10-4
		c-0.23999-0.09003-0.5-0.09003-0.73999,0l-10,4C9.25,14.21997,9,14.58997,9,15c0,0,0,3.99724,0,4
		c0,0.6988,0.72336,1.1803,1.37,0.92999l0.63-0.25v7.81c-0.03003,0.02002-0.07001,0.02002-0.09998,0.04999L9,28.78998
		l-0.89001-0.58002C7.5,27.79999,6.71997,27.75,6.07001,28.09998C5.40997,28.45001,5,29.12,5,29.87V42c0,0.54999,0.45001,1,1,1h10
		c0.54999,0,1-0.45001,1-1s-0.45001-1-1-1H7v-3.90002l1.87-1.25L10.59003,37.56c0.77997,0.77997,2.03998,0.77997,2.81995,0
		L15,35.97998L16.59003,37.56c0.77997,0.77997,2.03998,0.77997,2.81995,0L21,35.97998L22.59003,37.56
		c0.77997,0.77997,2.03998,0.77997,2.81995,0L27,35.97998L28.59003,37.56c0.77997,0.77997,2.03998,0.77997,2.81995,0L33,35.97998
		L34.59003,37.56c0.38995,0.39001,0.89996,0.58997,1.40997,0.58997s1.02002-0.19995,1.40997-0.58997L39.13,35.84998l1.87,1.25V41H24
		c-0.54999,0-1,0.45001-1,1s0.45001,1,1,1h18c0.54999,0,1-0.45001,1-1V29.87C43,29.12,42.59003,28.45001,41.92999,28.09998z
		 M11,15.67999l9-3.60004l9,3.60004v1.83997l-8.63-3.44995C20.25,14.01996,20.13,14,20,14s-0.25,0.01996-0.37,0.07001L11,17.51996
		V15.67999z M23,22h-6c-0.54999,0-1,0.45001-1,1v7h-3V18.88l7-2.80005L27,18.88V30h-3v-7C24,22.45001,23.54999,22,23,22z M22,24v6
		h-4v-6H22z M41,34.70001L40.23999,34.19c-0.78998-0.53003-1.84998-0.42999-2.52997,0.25L36,36.14996L34.40997,34.56
		c-0.77997-0.78003-2.03998-0.78003-2.81995,0L30,36.14996L28.40997,34.56c-0.77997-0.78003-2.03998-0.78003-2.81995,0L24,36.14996
		L22.40997,34.56c-0.77997-0.78003-2.03998-0.78003-2.81995,0L18,36.14996L16.40997,34.56
		c-0.77997-0.78003-2.03998-0.78003-2.81995,0L12,36.14996L10.28998,34.44c-0.67999-0.67999-1.73999-0.78003-2.52997-0.25L7,34.69
		v-4.81l0.90002,0.57996c0.66998,0.45001,1.52997,0.45001,2.19995,0L11,29.87V31c0,0.54999,0.45001,1,1,1h16
		c0.54999,0,1-0.45001,1-1v-1.13l1-0.66998l1.90002,1.25995c0.66998,0.45001,1.52997,0.45001,2.19995,0L36,29.20001l1.90002,1.25995
		c0.66998,0.45001,1.52997,0.45001,2.19995,0.01001L41,29.87V34.70001z"/>
</g>
</svg>
