<?xml version="1.0" encoding="UTF-8"?>
<svg xmlns="http://www.w3.org/2000/svg" version="1.1" viewBox="0 0 64 64">
  <!-- Generator: Adobe Illustrator 28.7.1, SVG Export Plug-In . SVG Version: 1.2.0 Build 142)  -->
  <g>
    <g id="Outline">
      <g>
        <path d="M56,35h-4c-.54999,0-1,.45001-1,1v4h-8v-2c0-1.65002-1.34998-3-3-3v-3c0-.54999-.45001-1-1-1h-1.95001c.20001-1.87,1.10999-3.66003,2.60004-5.10004,2.15997-2.08996,3.34997-4.89996,3.34998-7.89995,0-3.08198-1.38078-6.14501-3.66998-8.20002-2-1.78998-4.60004-2.77002-7.29004-2.78998-.00995,0-.01996-.01001-.03998-.01001-.01,0-.01999.00998-.02999.01001-5.30535.01351-10.14306,4.15712-10.86002,9.44-.5,3.58997.72003,7.07996,3.34003,9.54999,1.41998,1.32996,2.29999,3.12,2.51001,5h-1.96002c-.54999,0-1,.45001-1,1v3c-1.65002,0-3,1.34998-3,3v2h-8v-4c0-.54999-.45001-1-1-1h-4c-.54999,0-1,.45001-1,1v20c0,.54999.45001,1,1,1h4c.54999,0,1-.45001,1-1v-4h8v2c0,1.64996,1.34998,3,3,3h16c1.65002,0,3-1.35004,3-3v-2h8v4c0,.54999.45001,1,1,1h4c.54999,0,1-.45001,1-1v-20c0-.54999-.45001-1-1-1ZM11,55h-2v-18h2v18ZM21,50h-8v-8h8v8ZM25.82001,24.53998c-2.14001-2.02002-3.14001-4.87-2.72998-7.82001.10999-.82001.33997-1.58997.65997-2.32996,0,0,.82001.47998.82008.48002.47207.26543,1.10132.10748,1.36992-.37004.27002-.48004.10999-1.09003-.37-1.36999l-.81-.47003c1.45996-1.95996,3.70001-3.32001,6.20996-3.59998h.03003v.94c0,.54999.45001,1,1,1s1-.45001,1-1v-.94c1.84998.20001,3.58002.95996,5,2.22998.46997.41998.88.88,1.23999,1.37l-.81.47003c-.4799.27992-.63996.88974-.37013,1.36975.25804.45903.91514.62612,1.37013.37024l.81-.47003c.48999,1.12.76001,2.35004.76001,3.60004,0,2.45996-.96997,4.75-2.73999,6.45996-1.89001,1.83002-3.01001,4.12-3.22003,6.54004h-6.07996c-.20001-2.42999-1.32001-4.75-3.14001-6.46002ZM26,33h12v2h-12v-2ZM41,54c0,.54999-.45001,1-1,1h-16c-.54999,0-1-.45001-1-1v-16c0-.54999.45001-1,1-1h16c.54999,0,1,.45001,1,1v16ZM51,50h-8v-8h8v8ZM55,55h-2v-18h2v18Z"/>
        <path d="M32,21c1.6543,0,3-1.3457,3-3,0-1.30194-.8385-2.40161-2-2.81573v-1.18427c0-.55273-.44727-1-1-1s-1,.44727-1,1v1.18427c-1.1615.41412-2,1.51379-2,2.81573,0,1.6543,1.3457,3,3,3ZM32,17c.55176,0,1,.44824,1,1s-.44824,1-1,1-1-.44824-1-1,.44824-1,1-1Z"/>
        <circle cx="32" cy="24" r="1"/>
        <circle cx="35" cy="24" r="1"/>
        <circle cx="29" cy="24" r="1"/>
        <path d="M31.17676,42.43164c-.6543.94824-2.17676,3.29004-2.17676,4.56836,0,1.6543,1.3457,3,3,3s3-1.3457,3-3c0-1.27832-1.52246-3.62012-2.17676-4.56836-.375-.54102-1.27148-.54102-1.64648,0ZM32,48c-.55078,0-1-.44824-1-.99902.00879-.30664.4248-1.17676,1-2.14746.57617.9707.99219,1.8418,1,2.14648,0,.55176-.44824,1-1,1Z"/>
        <path d="M32,39c-3.85938,0-7,3.14062-7,7s3.14062,7,7,7,7-3.14062,7-7-3.14062-7-7-7ZM32,51c-2.75684,0-5-2.24316-5-5s2.24316-5,5-5,5,2.24316,5,5-2.24316,5-5,5Z"/>
      </g>
    </g>
  </g>
</svg>