<?xml version="1.0" encoding="UTF-8"?>
<svg id="Outline" xmlns="http://www.w3.org/2000/svg" version="1.1" viewBox="0 0 48 48">
  <path d="M42.71002,32.81l-2.83002-2.83002c-.39001-.39001-1.02002-.39001-1.41998,0l-.70001.71002-2.26001-2.26001c.95001-2.22003,1.5-4.75,1.5-7.42999,0-1.21002-.13-2.42004-.34998-3.63.21997-.41003.34998-.87.34998-1.37v-4c0-1.65002-1.34998-3-3-3h-1.41998c-2.37-2.58002-5.39001-4-8.58002-4s-6.21002,1.41998-8.58002,4h-1.41998c-1.65002,0-3,1.34998-3,3v4c0,.5.13.95996.34998,1.38-.21997,1.19995-.34998,2.41998-.34998,3.62,0,2.67999.54999,5.20996,1.5,7.42999l-2.26001,2.26001-.70001-.71002c-.39996-.39001-1.02997-.39001-1.41998,0l-2.83002,2.83002c-.38995.39001-.38995,1.01996,0,1.40997,0,0,8.49005,8.48999,8.49007,8.49001.38369.38379,1.02666.38327,1.40995-.00002l2.83002-2.82996c.38995-.39001.38995-1.02002,0-1.42004l-.71002-.69995,1.90002-1.90002c1.48999.72998,3.09998,1.14001,4.78998,1.14001s3.29999-.41003,4.78998-1.14001l1.90002,1.90002-.71002.69995c-.38995.40002-.38995,1.03003,0,1.42004l2.83002,2.82996c.36558.36557,1.02194.38816,1.40997,0l8.49005-8.48999c.38995-.39001.38995-1.01996,0-1.40997ZM24,7c2.01001,0,3.95001.70001,5.65002,2h-11.30005c1.70001-1.29999,3.64001-2,5.65002-2ZM13,12c0-.54999.45001-1,1-1h20c.54999,0,1,.45001,1,1v4c0,.54999-.45001,1-1,1h-7.46002l-1.70996-2.54999c-.37-.56-1.29004-.56-1.66003,0l-1.70996,2.54999h-7.46002c-.54999,0-1-.45001-1-1v-4ZM14.48999,40.58997l-7.08002-7.07996,1.42004-1.41003,7.07001,7.07001-1.41003,1.41998ZM15.90002,36.34998l-4.25-4.25,1.79999-1.78998c1.06,1.82001,2.41998,3.34998,4,4.48999l-1.54999,1.54999ZM24,35c-6.07001,0-11-6.28003-11-14,0-.71002.06-1.42999.14001-2.14001.27997.08002.56.14001.85999.14001h8c.33002,0,.65002-.17004.83002-.45001l1.16998-1.75,1.16998,1.75c.17999.27997.5.45001.83002.45001h8c.29999,0,.58002-.06.85999-.14001.08002.71002.14001,1.42999.14001,2.14001,0,7.71997-4.92999,14-11,14ZM30.54999,34.79999c1.58002-1.14001,2.94-2.66998,4-4.48999l1.79999,1.78998-4.25,4.25-1.54999-1.54999ZM33.51001,40.58997l-1.41003-1.41998,7.07001-7.07001,1.42004,1.41003-7.08002,7.07996Z" fill="#000" stroke-width="0"/>
  <path d="M24,21c-3.85938,0-7,2.69141-7,6s3.14062,6,7,6,7-2.69141,7-6-3.14062-6-7-6ZM24,31c-2.75684,0-5-1.79395-5-4s2.24316-4,5-4,5,1.79395,5,4-2.24316,4-5,4Z" fill="#000" stroke-width="0"/>
  <path d="M22,25c-.55273,0-1,.44727-1,1v2c0,.55273.44727,1,1,1s1-.44727,1-1v-2c0-.55273-.44727-1-1-1Z" fill="#000" stroke-width="0"/>
  <path d="M26,25c-.55273,0-1,.44727-1,1v2c0,.55273.44727,1,1,1s1-.44727,1-1v-2c0-.55273-.44727-1-1-1Z" fill="#000" stroke-width="0"/>
</svg>