<?xml version="1.0" encoding="UTF-8"?>
<svg xmlns="http://www.w3.org/2000/svg" version="1.1" viewBox="0 0 64 64">
  <!-- Generator: Adobe Illustrator 28.7.1, SVG Export Plug-In . SVG Version: 1.2.0 Build 142)  -->
  <g>
    <g id="Outline">
      <g>
        <path d="M54,12h-3.83002c-.26996,0-.51996.10999-.70996.29999l-4.05005,4.04999-.28998-.29999c-1.16998-1.15997-3.07001-1.15997-4.22998,0l-.72003.71002-1.45996-1.47003c-.19-.17999-.44-.28998-.71002-.28998h-5c0-2.76001-2.23999-5-5-5H12c-2.76001,0-5,2.23999-5,5v37.79999c0,2.21002,1.78998,4,4,4h36c2.21002,0,4-1.78998,4-4v-24.79999c0-.27002-.10999-.52002-.28998-.71002l-1.12-1.12.70996-.70001c1.15002-1.15997,1.15002-3.08997,0-4.25l-.64996-.64001,2.58997-2.57996h1.76001c1.65002,0,3-1.35004,3-3s-1.34998-3-3-3ZM49,52.79999c0,1.09998-.90002,2-2,2H11c-1.09998,0-2-.90002-2-2V15c0-1.65002,1.34998-3,3-3h16c1.65002,0,3,1.34998,3,3v1c0,.54999.45001,1,1,1h5.59003l11.40997,11.40997v24.39001ZM48.89001,24.04999l-.72003.71002-6.57996-6.59003.70996-.70001c.38-.39001,1.02002-.39001,1.40002,0,0,0,5.17999,5.16003,5.17999,5.17004.39001.37994.39001,1.02997.01001,1.40997ZM54,16h-2.16998c-.26001,0-.52002.09998-.71002.28998l-2.88,2.88-1.40997-1.40997,3.76001-3.76001h3.40997c.54999,0,1,.45001,1,1s-.45001,1-1,1Z"/>
        <path d="M12,22h16c.55225,0,1-.44727,1-1v-6c0-.55273-.44775-1-1-1H12c-.55225,0-1,.44727-1,1v6c0,.55273.44775,1,1,1ZM13,16h14v4h-14v-4Z"/>
        <path d="M45,28H13c-.55225,0-1,.44727-1,1v22c0,.55273.44775,1,1,1h32c.55225,0,1-.44727,1-1v-22c0-.55273-.44775-1-1-1ZM44,50H14v-20h30v20Z"/>
        <path d="M33,26c.55225,0,1-.44727,1-1s-.44775-1-1-1H12c-.55225,0-1,.44727-1,1s.44775,1,1,1h21Z"/>
        <path d="M29,47c3.30859,0,6-2.69141,6-6,0-3.13477-4.80566-7.29883-5.35352-7.7627-.37305-.31641-.91992-.31641-1.29297,0-.54785.46387-5.35352,4.62793-5.35352,7.7627,0,3.30859,2.69141,6,6,6ZM29.00049,35.33594c1.75977,1.62207,3.99951,4.17969,3.99951,5.66406,0,2.20605-1.79443,4-4,4s-4-1.79395-4-4c0-1.48145,2.24023-4.04004,4.00049-5.66406Z"/>
      </g>
    </g>
  </g>
</svg>