<?xml version="1.0" encoding="UTF-8"?>
<svg id="Outline" xmlns="http://www.w3.org/2000/svg" version="1.1" viewBox="0 0 48 48">
  <path d="M10.29297,34.70703c.37665.37659,1.02594.38812,1.41406,0l3-3c.39062-.39062.39062-1.02344,0-1.41406s-1.02344-.39062-1.41406,0l-2.29297,2.29297-.29297-.29297c-.39062-.39062-1.02344-.39062-1.41406,0s-.39062,1.02344,0,1.41406l1,1Z" fill="#000" stroke-width="0"/>
  <path d="M12.70703,15.29297c-.39062-.39062-1.02344-.39062-1.41406,0l-2,2c-.39062.39062-.39062,1.02344,0,1.41406s1.02344.39062,1.41406,0l.29297-.29297v3.58594c0,.55225.44775,1,1,1s1-.44775,1-1v-3.58594l.29297.29297c.36957.36957,1.03314.38092,1.41406,0,.39062-.39062.39062-1.02344,0-1.41406l-2-2Z" fill="#000" stroke-width="0"/>
  <path d="M40,12h-16c-1.6543,0-3,1.3457-3,3h-2v-1c0-1.30194-.8385-2.40161-2-2.81573v-3.18427c0-1.6543-1.3457-3-3-3h-4c-1.6543,0-3,1.3457-3,3v3.18427c-1.1615.41412-2,1.51379-2,2.81573v26c0,1.6543,1.3457,3,3,3h8c1.6543,0,3-1.3457,3-3v-17h2c0,1.6543,1.3457,3,3,3h16c1.6543,0,3-1.3457,3-3v-8c0-1.6543-1.3457-3-3-3ZM9,8c0-.55127.44873-1,1-1h4c.55127,0,1,.44873,1,1v3h-6v-3ZM17,40c0,.55127-.44873,1-1,1h-8c-.55127,0-1-.44873-1-1v-1h10v1ZM17,37H7v-9h10v9ZM17,26H7v-12c0-.55127.44873-1,1-1h8c.55127,0,1,.44873,1,1v12ZM21,21h-2v-4h2v4ZM41,23c0,.55127-.44873,1-1,1h-16c-.55127,0-1-.44873-1-1v-8c0-.55127.44873-1,1-1h16c.55127,0,1,.44873,1,1v8Z" fill="#000" stroke-width="0"/>
</svg>