<?xml version="1.0" encoding="utf-8"?>
<!-- Generator: Adobe Illustrator 28.2.0, SVG Export Plug-In . SVG Version: 6.00 Build 0)  -->
<svg version="1.1" id="Outline" xmlns="http://www.w3.org/2000/svg" xmlns:xlink="http://www.w3.org/1999/xlink" x="0px" y="0px"
	 viewBox="0 0 64 64" enable-background="new 0 0 64 64" xml:space="preserve">
<g>
	<path d="M25,51h-6c-0.55273,0-1,0.44775-1,1s0.44727,1,1,1h6c0.55273,0,1-0.44775,1-1S25.55273,51,25,51z"/>
	<path d="M31,51h-2c-0.55273,0-1,0.44775-1,1s0.44727,1,1,1h2c0.55273,0,1-0.44775,1-1S31.55273,51,31,51z"/>
	<path d="M53,27c0.54999,0,1-0.45001,1-1v-8c0-0.54999-0.45001-1-1-1h-1v-6c0-0.40002-0.23999-0.77002-0.62-0.92004
		c-0.37-0.15997-0.79999-0.06995-1.09003,0.21002L45,15.58997V11c0-0.40002-0.23999-0.77002-0.62-0.92004
		c-0.37-0.15997-0.79999-0.06995-1.09003,0.21002L38,15.58997V11c0-0.40002-0.23999-0.77002-0.62-0.92004
		c-0.37-0.15997-0.79999-0.06995-1.09003,0.21002L29.59003,17H20v-4h1c0.54999,0,1-0.45001,1-1V8c0-0.54999-0.45001-1-1-1H11
		c-0.54999,0-1,0.45001-1,1v4c0,0.54999,0.45001,1,1,1h1v4h-1c-0.54999,0-1,0.45001-1,1v26c0,0.54999,0.45001,1,1,1h29v2H19
		c-2.76001,0-5,2.23999-5,5s2.23999,5,5,5h26c2.76001,0,5-2.23999,5-5c0-2.41003-1.71997-4.44-4-4.90002V45h7
		c0.54999,0,1-0.45001,1-1V34c0-0.54999-0.45001-1-1-1s-1,0.45001-1,1v9h-6V29c0-0.54999-0.45001-1-1-1H33.53998
		c-1.29999-4.16003-5.12-7-9.53998-7c-5.51001,0-10,4.48999-10,10s4.48999,10,10,10c4.41998,0,8.23999-2.84003,9.53998-7H40v9H12V19
		h18c0.27002,0,0.52002-0.10999,0.71002-0.29004L36,13.40997V18c0,0.39996,0.23999,0.76996,0.62,0.91998
		c0.37,0.15997,0.79999,0.07001,1.09003-0.21002L43,13.40997V18c0,0.39996,0.23999,0.76996,0.62,0.91998
		c0.37,0.15997,0.79999,0.07001,1.09003-0.21002L50,13.40997V18c0,0.54999,0.45001,1,1,1h1v7C52,26.54999,52.45001,27,53,27z M41,49
		c0.54999,0,1-0.45001,1-1V33c0-0.54999-0.45001-1-1-1h-8.22998c-0.47003,0-0.87,0.32001-0.98004,0.77997
		C30.96002,36.44,27.76001,39,24,39c-4.40997,0-8-3.59003-8-8c0-4.41003,3.59003-8,8-8c3.76001,0,6.96002,2.56,7.78998,6.21997
		C31.90002,29.67999,32.29999,30,32.77002,30H44v18c0,0.54999,0.45001,1,1,1c1.65002,0,3,1.34998,3,3c0,1.64996-1.34998,3-3,3H19
		c-1.65002,0-3-1.35004-3-3c0-1.65002,1.34998-3,3-3H41z M12,9h8v2h-8V9z M18,17h-4v-4h4V17z"/>
	<path d="M23.17676,25.43164c-0.58594,0.84863-3.50977,5.18604-3.50977,7.23486C19.66699,35.05615,21.61035,37,24,37
		s4.33301-1.94385,4.33301-4.3335c0-2.04883-2.92383-6.38623-3.50977-7.23486
		C24.44824,24.89062,23.55176,24.89062,23.17676,25.43164z M24,35c-1.28613,0-2.33301-1.04688-2.33301-2.3335
		c0-0.84473,1.18652-3.03613,2.33301-4.84961c1.14648,1.81348,2.33301,4.00488,2.33301,4.84961C26.33301,33.95312,25.28613,35,24,35
		z"/>
	<circle cx="53" cy="30" r="1"/>
</g>
</svg>
