<?xml version="1.0" encoding="UTF-8"?>
<svg xmlns="http://www.w3.org/2000/svg" version="1.1" viewBox="0 0 48 48">
  <!-- Generator: Adobe Illustrator 28.7.1, SVG Export Plug-In . SVG Version: 1.2.0 Build 142)  -->
  <g>
    <g id="Outline">
      <g>
        <path d="M29.82001,38.53998l-8.22003-14.79999v-12.91998c1.16003-.42004,2-1.52002,2-2.82001,0-1.65002-1.33997-3-3-3h-6c-1.64996,0-3,1.34998-3,3,0,1.29999.84003,2.39996,2,2.81v12.92999l-8.21997,14.79999c-.52002.94-.51001,2.04999.02997,2.97998.55005.93005,1.52002,1.48004,2.59003,1.48004h4c.54999,0,1-.45001,1-1s-.45001-1-1-1h-4c-.52002,0-.77002-.35004-.85999-.5-.09003-.14001-.26001-.54004-.02002-.98004l8.34998-15.02997c.09003-.15002.13-.32001.13-.48999v-1h1.40002c.54999,0,1-.45001,1-1s-.45001-1-1-1h-1.40002v-2h1.40002c.54999,0,1-.45001,1-1s-.45001-1-1-1h-1.40002v-2h1.40002c.54999,0,1-.45001,1-1s-.45001-1-1-1h-1.40002v-2h4v13c0,.16998.04004.33997.13.48999l8.35004,15.02997c.25.45001.07001.84003-.02002.99005-.08002.14996-.34003.48999-.85999.48999h-7.20001c-.54999,0-1,.45001-1,1s.45001,1,1,1h7.20001c1.08002,0,2.03998-.54999,2.58997-1.48004.54004-.91998.56-2.03998.03003-2.97998ZM20.59998,9h-6c-.54999,0-1-.45001-1-1s.45001-1,1-1h6c.56,0,1,.45001,1,1s-.44,1-1,1Z"/>
        <path d="M43,13v-6c0-1.10004-.90002-2-2-2h-12c-1.09998,0-2,.89996-2,2v6c0,3.34998,2.07001,6.21997,5,7.40997v6.72003c-1.71997.44-3,2.01001-3,3.87v1c0,.54999.45001,1,1,1h10c.54999,0,1-.45001,1-1v-1c0-1.85999-1.28003-3.42999-3-3.87v-6.72003c2.92999-1.19,5-4.06,5-7.40997ZM39,31h-8c0-1.10004.90002-2,2-2,.54999,0,1-.45001,1-1v-7h2v7c0,.54999.45001,1,1,1,1.09998,0,2,.89996,2,2ZM35,19c-3.31,0-6-2.69-6-6v-6h12v6c0,3.31-2.69,6-6,6Z"/>
        <circle cx="16" cy="42" r="1"/>
      </g>
    </g>
  </g>
</svg>