<?xml version="1.0" encoding="utf-8"?>
<!-- Generator: Adobe Illustrator 27.3.1, SVG Export Plug-In . SVG Version: 6.00 Build 0)  -->
<svg version="1.1" id="Outline" xmlns="http://www.w3.org/2000/svg" xmlns:xlink="http://www.w3.org/1999/xlink" x="0px" y="0px"
	 viewBox="0 0 64 64" enable-background="new 0 0 64 64" xml:space="preserve">
<g>
	<circle cx="30" cy="35" r="1"/>
	<circle cx="39" cy="31" r="1"/>
	<circle cx="36" cy="36" r="1"/>
	<path d="M50,7H14c-2.21002,0-4,1.78998-4,4c0,1.88,1.31,3.45001,3.06,3.88l2.94,41.19C16.03998,56.58997,16.47998,57,17,57h6
		c0.54999,0,1-0.45001,1-1s-0.45001-1-1-1h-5.07001l-2.85999-40h33.85999l-2.85999,40H31c-0.54999,0-1,0.45001-1,1s0.45001,1,1,1h16
		c0.52002,0,0.96002-0.41003,1-0.92999l2.94-41.19c1.75-0.42999,3.06-2,3.06-3.88C54,8.78998,52.21002,7,50,7z M50,13H14
		c-1.09998,0-2-0.90002-2-2c0-1.10004,0.90002-2,2-2h36c1.09998,0,2,0.89996,2,2C52,12.09998,51.09998,13,50,13z"/>
	<path d="M44.27246,52.07129l2.42871-34c0.02051-0.27686-0.07617-0.5498-0.26562-0.75293C46.24707,17.11523,45.98145,17,45.7041,17
		H18.2959c-0.27734,0-0.54297,0.11523-0.73145,0.31836c-0.18945,0.20312-0.28613,0.47607-0.26562,0.75293l2.42871,34
		C19.76465,52.59473,20.2002,53,20.72461,53h22.55078C43.7998,53,44.23535,52.59473,44.27246,52.07129z M19.71277,23.79803
		L19.37012,19h25.25977l-0.36084,5.0531c-4.07458,1.52679-7.77789,1.86633-11.00244,0.98303
		c-0.7793-0.21533-1.46094-0.479-2.18359-0.7583c-1.40527-0.54395-2.8584-1.10645-5.00391-1.2749
		C23.98975,22.83875,21.85333,23.10913,19.71277,23.79803z M21.65527,51l-1.79413-25.1239
		c2.05054-0.72412,4.08771-1.03729,6.06073-0.87903c1.85449,0.14551,3.11035,0.63135,4.43945,1.146
		c0.73633,0.28467,1.49707,0.5791,2.37402,0.82129c1.35645,0.37158,2.77637,0.55713,4.25684,0.55713
		c2.24188,0,4.62341-0.43195,7.12067-1.28143L42.34473,51H21.65527z"/>
	<path d="M39,47H25c-0.55273,0-1,0.44727-1,1s0.44727,1,1,1h14c0.55273,0,1-0.44727,1-1S39.55273,47,39,47z"/>
	<path d="M39,43H25c-0.55273,0-1,0.44727-1,1s0.44727,1,1,1h14c0.55273,0,1-0.44727,1-1S39.55273,43,39,43z"/>
	<path d="M39,39H25c-0.55273,0-1,0.44727-1,1s0.44727,1,1,1h14c0.55273,0,1-0.44727,1-1S39.55273,39,39,39z"/>
	<path d="M29,31c0-1.6543-1.3457-3-3-3s-3,1.3457-3,3s1.3457,3,3,3S29,32.6543,29,31z M25,31c0-0.55127,0.44824-1,1-1s1,0.44873,1,1
		s-0.44824,1-1,1S25,31.55127,25,31z"/>
	<circle cx="27" cy="56" r="1"/>
</g>
</svg>
