<?xml version="1.0" encoding="UTF-8"?>
<svg xmlns="http://www.w3.org/2000/svg" version="1.1" viewBox="0 0 64 64">
  <!-- Generator: Adobe Illustrator 28.7.1, SVG Export Plug-In . SVG Version: 1.2.0 Build 142)  -->
  <g>
    <g id="Outline">
      <g>
        <path d="M50,40h-1.71875l.68848-2.75781c.0752-.29883.00781-.61523-.18164-.85742-.18945-.24316-.48047-.38477-.78809-.38477h-4c-.44629,0-.83887.2959-.96191.72559l-2,7c-.08594.30176-.02539.62598.16309.87695.18945.25.48535.39746.79883.39746h1.78027l-.76074,3.80371c-.19977.99689,1.16583,1.61823,1.78027.7959l6-8c.22754-.30273.26367-.70801.09473-1.04688-.16992-.33887-.51562-.55273-.89453-.55273ZM45.84473,44.87305l.13574-.67676c.05859-.29395-.01758-.59863-.20703-.83008-.19043-.23145-.47363-.36621-.77344-.36621h-1.67383l1.42773-5h1.96484l-.68848,2.75781c-.0752.29883-.00781.61523.18164.85742.18945.24316.48047.38477.78809.38477h1l-2.15527,2.87305Z"/>
        <path d="M48.94702,32.41278c.03156-.46625.05298-.93689.05298-1.41278,0-4.74316-1.62598-9.38672-4.58008-13.0752-.34375-.43066-.97266-.50293-1.40527-.15527-.43066.34473-.50098.97461-.15527,1.40527.71106.88824,1.32861,1.82739,1.8609,2.80481l-2.19977,3.84851c-.13184.22168-.33301.39062-.55566.46289l-.95801.31934c-.40039.13086-.83789.00195-1.0957-.32422l-2.67383-3.3457c-.44629-.55078-1.07031-.92773-1.75-1.06055l-2.78906-.56055c-1.33008-.26562-2.67578.39355-3.27051,1.60059l-.66211,1.3125c-.19336.38867-.63965.61328-1.06152.54102l-3.23828-.53809c-.39551-.07129-.7168-.36816-.81641-.74707l-.45898-1.84082c-.21289-.85059-.7832-1.5625-1.56348-1.95215l-2.52734-1.26367c-.20703-.10059-.375-.28027-.46973-.49414l-1.16791-2.73535c3.01801-2.01984,6.64178-3.20215,10.53802-3.20215,3.16797,0,6.30469.79785,9.07031,2.30762.48633.26367,1.09277.08594,1.35742-.39844.26465-.48535.08594-1.09277-.39844-1.35742-3.05957-1.66895-6.52734-2.55176-10.0293-2.55176-11.5791,0-21,9.4209-21,21s9.4209,21,21,21c3.26141,0,6.47589-.76801,9.36108-2.21271,2.01581,2.56018,5.13507,4.21271,8.63892,4.21271,6.06543,0,11-4.93457,11-11,0-5.04346-3.41614-9.29431-8.05298-10.58722ZM25.74121,44.61426l-1.65607,4.97571c-8.60406-1.81006-15.08514-9.45557-15.08514-18.58997,0-3.73383,1.0979-7.20917,2.96576-10.14935l1.65533,1.32709c.24121.19531.37891.47949.37891.78223v1.91016c0,1.04395.55762,2.02832,1.4541,2.56738l3.06152,1.83984c.29883.17969.48438.50586.48438.85254v2.04004c0,.26855-.10547.52148-.29688.71289l-1.82031,1.82031c-.56934.56934-.88281,1.32422-.88281,2.12695v1.09961c0,1.00781.5,1.94043,1.33594,2.49316l1.59863,1.06152c.49121.33789,1.07031.51562,1.67578.51562h3.31934c.33496,0,.64355.16504.8291.44531l.86914,1.2998c.17188.25781.21387.57227.11328.86914ZM28,50c-.64496,0-1.28217-.03375-1.91077-.0968l1.54846-4.6532c.29883-.88379.17285-1.83691-.34668-2.61523l-.86719-1.29688c-.55371-.83789-1.48633-1.33789-2.49414-1.33789h-3.31934c-.19629,0-.38965-.05859-.55664-.17285l-1.6123-1.07129c-.27637-.18262-.44141-.49121-.44141-.82617v-1.09961c0-.26855.10547-.52148.29688-.71289l1.82031-1.82031c.56934-.56934.88281-1.32422.88281-2.12695v-2.04004c0-1.04395-.55762-2.02832-1.4541-2.56738l-3.06152-1.83984c-.29883-.17969-.48438-.50586-.48438-.85254v-1.91016c0-.90918-.4082-1.76074-1.12402-2.33984l-1.75189-1.40491c.80365-1.01233,1.70148-1.94513,2.69153-2.77509l.98029,2.29523c.29004.65527.79688,1.18652,1.41699,1.48926l2.52051,1.25977c.25391.12695.44629.36914.5166.64746l.46191,1.85059c.29688,1.1416,1.24023,2.01367,2.41406,2.22363l3.25488.54102c1.30664.21191,2.58301-.43945,3.17188-1.61719l.66504-1.31738c.19727-.40332.65039-.62109,1.08496-.53223l2.7959.56152c.22852.04492.43066.16895.58008.35254l2.66602,3.33496c.57227.72656,1.44629,1.13086,2.34766,1.13086.31543,0,.63379-.0498.94336-.15137l.95508-.31836c.68164-.22266,1.2666-.69824,1.65723-1.35449l1.49591-2.61731c.81964,2.13733,1.25604,4.41779,1.25604,6.78137,0,.35211-.00964.70276-.02881,1.04919-.32062-.0282-.64337-.04919-.97119-.04919-6.06543,0-11,4.93457-11,11,0,1.84216.46057,3.5769,1.2644,5.10388-2.55585,1.24042-5.39081,1.89612-8.2644,1.89612ZM46,52c-4.96289,0-9-4.03711-9-9s4.03711-9,9-9,9,4.03711,9,9-4.03711,9-9,9Z"/>
        <path d="M41.62183,16.3219c.35498-.4231.2998-1.05383-.12329-1.40887-.4231-.35498-1.05383-.2998-1.40881.12329-.35504.4231-.2998,1.05383.12323,1.40881.4231.35504,1.05383.2998,1.40887-.12323Z"/>
      </g>
    </g>
  </g>
</svg>