<?xml version="1.0" encoding="UTF-8"?>
<svg xmlns="http://www.w3.org/2000/svg" version="1.1" viewBox="0 0 64 64">
  <!-- Generator: Adobe Illustrator 28.7.1, SVG Export Plug-In . SVG Version: 1.2.0 Build 142)  -->
  <g>
    <g id="Outline">
      <g>
        <path d="M35.21997,27.35999c.48004-.66998.78003-1.47998.78003-2.35999,0-1.17999-.52002-2.22003-1.33002-2.96002l10.69-4.10999c.39001-.15002.64001-.52002.64001-.92999v-9c0-.54999-.45001-1-1-1h-26c-.54999,0-1,.45001-1,1v9c0,.40997.25.77997.64001.92999l10.69,4.10999c-.81.73999-1.33002,1.78003-1.33002,2.96002,0,.88.29999,1.69.78003,2.35999-6.73004,1.46997-11.78003,7.46997-11.78003,14.64001,0,8.26996,6.72998,15,15,15s15-6.73004,15-15c0-7.17004-5.04999-13.17004-11.78003-14.64001ZM44,16.31l-4,1.53998v-4.84998h4v3.31ZM20,9h24v2h-24v-2ZM24,17.84998l-4-1.53998v-3.31h4v4.84998ZM26,18.62v-5.62h12v5.62l-6,2.31-6-2.31ZM34,25c0,1.09998-.90002,2-2,2s-2-.90002-2-2c0-1.10004.90002-2,2-2s2,.89996,2,2ZM32,55c-7.16998,0-13-5.83002-13-13s5.83002-13,13-13,13,5.82996,13,13-5.83002,13-13,13Z"/>
        <path d="M32,31c-6.07001,0-11,4.92999-11,11s4.92999,11,11,11,11-4.92999,11-11-4.92999-11-11-11ZM32,51c-4.96002,0-9-4.04004-9-9s4.03998-9,9-9,9,4.03998,9,9-4.03998,9-9,9Z"/>
        <path d="M36,46h-1v-9c0-.54999-.45001-1-1-1h-6c-.54999,0-1,.45001-1,1s.45001,1,1,1h1v8h-1c-.54999,0-1,.45001-1,1s.45001,1,1,1h8c.54999,0,1-.45001,1-1s-.45001-1-1-1ZM33,46h-2v-8h2v8Z"/>
      </g>
    </g>
  </g>
</svg>