<?xml version="1.0" encoding="UTF-8"?>
<svg id="Outline" xmlns="http://www.w3.org/2000/svg" version="1.1" viewBox="0 0 64 64">
  <path d="M56.45001,35.10999l-7.45001-3.72998v-6.38c1.65002,0,3-1.35004,3-3,0-.81-.32001-1.57001-.87-2.10999-.56-.57001-1.32001-.89001-2.13-.89001h-7.20001c.13-.65002.20001-1.32001.20001-2,0-5.51001-4.48999-10-10-10s-10,4.48999-10,10c0,.67999.07001,1.34998.20001,2h-7.20001c-1.65002,0-3,1.34998-3,3,0,.81.32001,1.57001.87,2.10999.56.57001,1.32001.89001,2.13.89001v6.38l-7.45001,3.72998c-.33997.15997-.54999.51001-.54999.89001v20c0,.54999.45001,1,1,1h48c.54999,0,1-.45001,1-1v-20c0-.38-.21002-.73004-.54999-.89001ZM15,55h-6v-18.38l6-3v21.38ZM32,9c4.40997,0,8,3.58997,8,8s-3.59003,8-8,8-8-3.59003-8-8,3.59003-8,8-8ZM15,23c-.5354-.00007-1-.46821-1-1,0-.54999.45001-1,1-1h7.84003c.31.71997.70996,1.38,1.17999,2,0,0-8.9818,0-9.02002,0ZM35,55h-6v-10h6v10ZM47,55h-10v-11c0-.54999-.45001-1-1-1h-8c-.54999,0-1,.45001-1,1v11h-10v-30h9.03003c1.65997,1.25,3.72998,2,5.96997,2s4.31-.75,5.96997-2h9.03003v30ZM39.97998,23c.47003-.62.87-1.28003,1.17999-2h7.83986c.52911,0,1.00016.47472,1.00016,1,0,.54999-.45001,1-1,1h-9.02002ZM55,55h-6v-21.38l6,3v18.38Z" style="fill: #000; stroke-width: 0px;"/>
  <circle cx="52" cy="40" r="1" style="fill: #000; stroke-width: 0px;"/>
  <circle cx="52" cy="44" r="1" style="fill: #000; stroke-width: 0px;"/>
  <circle cx="52" cy="48" r="1" style="fill: #000; stroke-width: 0px;"/>
  <circle cx="52" cy="52" r="1" style="fill: #000; stroke-width: 0px;"/>
  <circle cx="12" cy="40" r="1" style="fill: #000; stroke-width: 0px;"/>
  <circle cx="12" cy="44" r="1" style="fill: #000; stroke-width: 0px;"/>
  <circle cx="12" cy="48" r="1" style="fill: #000; stroke-width: 0px;"/>
  <circle cx="12" cy="52" r="1" style="fill: #000; stroke-width: 0px;"/>
  <circle cx="30" cy="12" r="1" style="fill: #000; stroke-width: 0px;"/>
  <circle cx="27" cy="14" r="1" style="fill: #000; stroke-width: 0px;"/>
  <circle cx="30" cy="15" r="1" style="fill: #000; stroke-width: 0px;"/>
  <path d="M40,53h4c.55273,0,1-.44775,1-1s-.44727-1-1-1h-4c-.55273,0-1,.44775-1,1s.44727,1,1,1Z" style="fill: #000; stroke-width: 0px;"/>
  <path d="M40,49h4c.55273,0,1-.44775,1-1s-.44727-1-1-1h-4c-.55273,0-1,.44775-1,1s.44727,1,1,1Z" style="fill: #000; stroke-width: 0px;"/>
  <path d="M40,45h4c.55273,0,1-.44775,1-1s-.44727-1-1-1h-4c-.55273,0-1,.44775-1,1s.44727,1,1,1Z" style="fill: #000; stroke-width: 0px;"/>
  <path d="M40,41h4c.55273,0,1-.44775,1-1s-.44727-1-1-1h-4c-.55273,0-1,.44775-1,1s.44727,1,1,1Z" style="fill: #000; stroke-width: 0px;"/>
  <path d="M24,51h-4c-.55273,0-1,.44775-1,1s.44727,1,1,1h4c.55273,0,1-.44775,1-1s-.44727-1-1-1Z" style="fill: #000; stroke-width: 0px;"/>
  <path d="M24,47h-4c-.55273,0-1,.44775-1,1s.44727,1,1,1h4c.55273,0,1-.44775,1-1s-.44727-1-1-1Z" style="fill: #000; stroke-width: 0px;"/>
  <path d="M24,43h-4c-.55273,0-1,.44775-1,1s.44727,1,1,1h4c.55273,0,1-.44775,1-1s-.44727-1-1-1Z" style="fill: #000; stroke-width: 0px;"/>
  <path d="M24,39h-4c-.55273,0-1,.44775-1,1s.44727,1,1,1h4c.55273,0,1-.44775,1-1s-.44727-1-1-1Z" style="fill: #000; stroke-width: 0px;"/>
  <path d="M30,41h4c.55273,0,1-.44775,1-1s-.44727-1-1-1h-4c-.55273,0-1,.44775-1,1s.44727,1,1,1Z" style="fill: #000; stroke-width: 0px;"/>
  <path d="M40,37h4c.55273,0,1-.44775,1-1s-.44727-1-1-1h-4c-.55273,0-1,.44775-1,1s.44727,1,1,1Z" style="fill: #000; stroke-width: 0px;"/>
  <path d="M24,35h-4c-.55273,0-1,.44775-1,1s.44727,1,1,1h4c.55273,0,1-.44775,1-1s-.44727-1-1-1Z" style="fill: #000; stroke-width: 0px;"/>
  <path d="M30,37h4c.55273,0,1-.44775,1-1s-.44727-1-1-1h-4c-.55273,0-1,.44775-1,1s.44727,1,1,1Z" style="fill: #000; stroke-width: 0px;"/>
  <path d="M40,33h4c.55273,0,1-.44775,1-1s-.44727-1-1-1h-4c-.55273,0-1,.44775-1,1s.44727,1,1,1Z" style="fill: #000; stroke-width: 0px;"/>
  <path d="M20,33h4c.55273,0,1-.44775,1-1s-.44727-1-1-1h-4c-.55273,0-1,.44775-1,1s.44727,1,1,1Z" style="fill: #000; stroke-width: 0px;"/>
  <path d="M30,33h4c.55273,0,1-.44775,1-1s-.44727-1-1-1h-4c-.55273,0-1,.44775-1,1s.44727,1,1,1Z" style="fill: #000; stroke-width: 0px;"/>
</svg>