<?xml version="1.0" encoding="utf-8"?>
<!-- Generator: Adobe Illustrator 28.2.0, SVG Export Plug-In . SVG Version: 6.00 Build 0)  -->
<svg version="1.1" id="Outline" xmlns="http://www.w3.org/2000/svg" xmlns:xlink="http://www.w3.org/1999/xlink" x="0px" y="0px"
	 viewBox="0 0 64 64" enable-background="new 0 0 64 64" xml:space="preserve">
<g>
	<path d="M19.60795,24.79554c-0.41797-0.35986-1.05078-0.31494-1.41016,0.10547c-2.64551,3.07324-4.10254,7.00537-4.10254,11.07227
		c0,9.37402,7.62598,17,17,17s17-7.62598,17-17s-7.62598-17-17-17c-2.08008,0-4.09766,0.36865-5.99707,1.0957
		c-0.51562,0.19775-0.77441,0.77588-0.57617,1.2915c0.19727,0.51611,0.77734,0.77393,1.29102,0.57666
		c1.6709-0.63965,3.44727-0.96387,5.28223-0.96387c5.40051,0,10.12903,2.87817,12.77075,7.17151l-2.15649,0.61707
		c-0.27539,0.07715-0.58594,0.02734-0.8252-0.12744l-1.27441-0.85938c-0.89941-0.58545-2.05078-0.65234-3.00195-0.17627
		l-4.22754,2.11377c-0.23438,0.11865-0.50488,0.13672-0.75879,0.05225l-4.7207-1.57324
		c-0.45117-0.16064-0.95605-0.2041-1.46094-0.12451l-4.04395,0.67871c-0.43262,0.06885-0.87305-0.15283-1.06738-0.54102
		l-0.85205-1.69757c0.08099-0.09912,0.15314-0.20422,0.23682-0.30145C20.07377,25.78724,20.02689,25.15589,19.60795,24.79554z
		 M31.09525,50.97327c-5.89136,0-10.98523-3.42212-13.43744-8.37518l2.16205-1.29718c0.24316-0.146,0.55078-0.17969,0.8291-0.08936
		l4.43066,1.48047c0.66113,0.2207,1.39062,0.2002,2.06738-0.06055l3.23047-1.2959c0.33789-0.13281,0.72363-0.0752,1.00391,0.14941
		l3.31348,2.64404c0.53223,0.43311,1.20117,0.66357,1.87891,0.66357c0.24219,0,0.48438-0.0293,0.72266-0.08936l2.05859-0.51172
		c0.92871-0.23975,1.69434-0.91162,2.04785-1.7959l1.25879-3.1377c0.11719-0.28809,0.36035-0.51025,0.64941-0.59326l2.64502-0.75775
		C45.00254,45.26569,38.71,50.97327,31.09525,50.97327z M18.54056,29.1012c0.59082,1.17969,1.87109,1.82666,3.17969,1.61816
		l4.04004-0.67822c0.16699-0.02539,0.33008-0.01562,0.48828,0.04102l4.74023,1.58008
		c0.31543,0.10498,0.6377,0.15674,0.95801,0.15674c0.46192,0,0.91797-0.10791,1.33594-0.32129l4.21973-2.10986
		c0.32129-0.16064,0.70996-0.13623,1.00391,0.05469l1.27246,0.85791c0.74023,0.48389,1.64258,0.62402,2.48145,0.38428
		l2.56323-0.73346c0.78912,1.79169,1.237,3.76373,1.26239,5.83795l-3.3266,0.95312c-0.87695,0.25195-1.60645,0.9126-1.95215,1.76855
		l-1.26074,3.14062c-0.12012,0.30127-0.37207,0.521-0.68262,0.60156l-2.05176,0.51025
		c-0.29688,0.07275-0.62305,0.00293-0.8623-0.19189l-3.31836-2.64795c-0.83399-0.66943-1.97363-0.84131-2.98828-0.44824
		l-3.22852,1.29541c-0.2334,0.09033-0.48242,0.09717-0.70312,0.02441l-4.43457-1.48193
		c-0.83496-0.27295-1.74121-0.17432-2.48633,0.27295l-1.90894,1.14526c-0.50262-1.49719-0.78638-3.09375-0.78638-4.75806
		c0-2.69489,0.72528-5.32208,2.0744-7.61145L18.54056,29.1012z"/>
	<path d="M53.02494,13.75453c-1.54199-2.73779-3.97656-4.94189-6.85353-6.20606c-0.63702-0.28018-1.48627-0.86301-2.1162-0.25634
		c-0.29199,0.27979-0.3877,0.70801-0.24023,1.08496l0.83105,2.13477c0.47852,1.23145,0.27344,2.646-0.53613,3.69141
		c-1.40039,1.80859-1.51465,4.31982-0.27246,6.26416c0.82226,1.28564,2.15625,2.17041,3.6621,2.42822
		c0.3769,0.06453,0.80556,0.07567,1.20649,0.05298c0.91559,4.10022,1.38922,8.28723,1.38922,12.51147v0.51318
		c0,5.2583-2.1084,10.15332-5.93652,13.78369c-3.82324,3.62598-8.82324,5.46777-14.09766,5.18896
		c-9.5498-0.5083-17.42969-8.38672-17.9375-17.93652c-0.28125-5.26709,1.56055-10.27393,5.1875-14.09863
		c3.62988-3.8291,8.52539-5.9375,13.78418-5.9375c0.55273,0,1-0.44775,1-1c0-0.55225-0.44727-1-1-1
		c-5.81348,0-11.22461,2.33008-15.23633,6.56152c-4.00684,4.22656-6.04297,9.76025-5.7334,15.58105
		C10.68802,47.672,19.39799,56.38148,29.9556,56.943c0.38574,0.02051,0.76953,0.03076,1.15332,0.03076
		c5.39453,0,10.47949-2.02393,14.42578-5.76562c4.23047-4.01172,6.56055-9.42236,6.56055-15.23486v-0.51318
		c0-4.38586-0.49323-8.73303-1.44733-12.98975c1.3667-0.62268,2.47192-1.78888,2.94635-3.30469
		C54.15678,17.36732,53.94975,15.39515,53.02494,13.75453z M51.68607,18.56849c-0.25879,0.82739-0.81512,1.49304-1.51874,1.91302
		c-0.33466-1.284-0.70239-2.56091-1.12384-3.82465c-0.17383-0.52344-0.7373-0.80762-1.26465-0.63232
		c-0.52344,0.1748-0.80664,0.74121-0.63184,1.26514c0.4035,1.21069,0.75574,2.43402,1.07697,3.664
		c-0.12903-0.00696-0.25769-0.00757-0.38751-0.02972c-0.95117-0.1626-1.79492-0.72168-2.32324-1.54883
		c-0.77832-1.21826-0.70703-2.80469,0.17871-3.94726c1.19043-1.5376,1.52539-3.59814,0.89551-5.42969
		c1.94922,1.12646,3.58789,2.77295,4.69531,4.73779C51.93705,15.89808,52.08451,17.29456,51.68607,18.56849z"/>
	<path d="M22.49161,23.68598c0.45239-0.31677,0.56232-0.94031,0.24554-1.39276c-0.31677-0.45239-0.94031-0.56232-1.3927-0.24554
		s-0.56238,0.94031-0.24561,1.3927C21.41562,23.89283,22.03922,24.00275,22.49161,23.68598z"/>
</g>
</svg>
