<?xml version="1.0" encoding="utf-8"?>
<!-- Generator: Adobe Illustrator 27.3.1, SVG Export Plug-In . SVG Version: 6.00 Build 0)  -->
<svg version="1.1" id="Outline" xmlns="http://www.w3.org/2000/svg" xmlns:xlink="http://www.w3.org/1999/xlink" x="0px" y="0px"
	 viewBox="0 0 48 48" enable-background="new 0 0 48 48" xml:space="preserve">
<g>
	<circle cx="17" cy="28" r="1"/>
	<path d="M39.29297,36.29297l-2,2c-0.39062,0.39062-0.39062,1.02342-0.00002,1.41405
		c0.37533,0.37535,1.02171,0.39239,1.41408,0.00002l2-2c0.39062-0.39062,0.39062-1.02344,0-1.41406
		S39.68359,35.90234,39.29297,36.29297z"/>
	<path d="M37.70703,34.70703l2-2c0.39062-0.39062,0.39062-1.02344,0-1.41406s-1.02344-0.39062-1.41406,0l-2,2
		c-0.39061,0.39061-0.39062,1.0234-0.00003,1.41403C36.66554,35.07964,37.31817,35.09589,37.70703,34.70703z"/>
	<path d="M33.29297,39.29297l-2,2c-0.39062,0.39062-0.39062,1.02343-0.00001,1.41405c0.37539,0.3754,1.022,0.39208,1.41407,0.00001
		l2-2c0.39062-0.39062,0.39062-1.02344,0-1.41406S33.68359,38.90234,33.29297,39.29297z"/>
	<path d="M24.29297,31.29297l-2,2c-0.3906,0.3906-0.39062,1.02336-0.00007,1.41399c0.37082,0.37089,1.02878,0.38542,1.41413,0.00007
		l2-2c0.39062-0.39062,0.39062-1.02344,0-1.41406S24.68359,30.90234,24.29297,31.29297z"/>
	<path d="M10.29297,31.29297l-2,2c-0.39062,0.39062-0.39062,1.02343-0.00001,1.41405
		c0.3754,0.37541,1.02199,0.39209,1.41407,0.00001l2-2c0.39062-0.39062,0.39062-1.02344,0-1.41406
		S10.68359,30.90234,10.29297,31.29297z"/>
	<path d="M16.29297,39.29297l-2,2c-0.39061,0.39061-0.39062,1.0234-0.00003,1.41403c0.3741,0.37413,1.02462,0.3895,1.41409,0.00003
		l2-2c0.39062-0.39062,0.39062-1.02344,0-1.41406S16.68359,38.90234,16.29297,39.29297z"/>
	<path d="M9,12c1.6543,0,3-1.3457,3-3s-1.3457-3-3-3S6,7.3457,6,9S7.3457,12,9,12z M9,8c0.55176,0,1,0.44824,1,1s-0.44824,1-1,1
		S8,9.55176,8,9S8.44824,8,9,8z"/>
	<path d="M38.97656,16.49316C38.99219,16.33008,39,16.16504,39,16c0-2.75684-2.24316-5-5-5
		c-0.41406,0-0.82324,0.05078-1.21973,0.15039C31.94238,7.61133,28.75098,5,25,5c-3.68555,0-6.85449,2.52051-7.73926,6.00488
		C17.1748,11.00195,17.08789,11,17,11c-3.85938,0-7,3.14062-7,7c0,0.33691,0.02441,0.6709,0.07227,1H10
		c-1.32324,0-2.57812,0.51758-3.54199,1.46777C5.51758,21.42188,5,22.67676,5,24c0,2.75684,2.24316,5,5,5h3c0.55273,0,1-0.44727,1-1
		s-0.44727-1-1-1h-3c-1.6543,0-3-1.3457-3-3c0-0.79492,0.31348-1.55078,0.87207-2.11816C8.44922,21.31348,9.20508,21,10,21
		c0,0,1.3476,0,1.34961,0c0.68272,0,1.17461-0.7007,0.93946-1.34277C12.09766,19.13086,12,18.57324,12,18c0-2.75684,2.24316-5,5-5
		c0.31932,0,0.61228,0.02637,0.87008,0.07909c0.5638,0.11532,1.12181-0.28459,1.19241-0.85546C19.43457,9.24609,21.9873,7,25,7
		c3.15625,0,5.78418,2.46582,5.98242,5.6123c0.02148,0.34766,0.22266,0.65918,0.53027,0.82129
		c0.30859,0.16406,0.67871,0.1543,0.97754-0.02344C32.94336,13.1416,33.46484,13,34,13c1.6543,0,3,1.3457,3,3
		c0,0.30174-0.04296,0.5986-0.12792,0.88375c-0.16016,0.53758,0.17556,1.12532,0.71972,1.25688
		C39.59863,18.63379,41,20.42676,41,22.5c0,1.20312-0.46777,2.33398-1.31738,3.18262C38.83398,26.53223,37.70312,27,36.5,27H21
		c-0.55273,0-1,0.44727-1,1s0.44727,1,1,1h15.5c1.73828,0,3.37109-0.67578,4.59668-1.90332C42.32422,25.87109,43,24.23828,43,22.5
		C43,19.82617,41.38574,17.47559,38.97656,16.49316z"/>
	<path d="M23,13c0-1.10254,0.89746-2,2-2s2,0.89746,2,2c0,0.55273,0.44727,1,1,1s1-0.44727,1-1c0-2.20605-1.79395-4-4-4
		s-4,1.79395-4,4c0,0.55273,0.44727,1,1,1S23,13.55273,23,13z"/>
	<path d="M8,37c-1.6543,0-3,1.3457-3,3s1.3457,3,3,3s3-1.3457,3-3S9.6543,37,8,37z M8,41c-0.55176,0-1-0.44824-1-1s0.44824-1,1-1
		s1,0.44824,1,1S8.55176,41,8,41z"/>
	<path d="M16,32c-1.6543,0-3,1.3457-3,3s1.3457,3,3,3s3-1.3457,3-3S17.6543,32,16,32z M16,36c-0.55176,0-1-0.44824-1-1
		s0.44824-1,1-1s1,0.44824,1,1S16.55176,36,16,36z"/>
	<path d="M23,37c-1.6543,0-3,1.3457-3,3s1.3457,3,3,3s3-1.3457,3-3S24.6543,37,23,37z M23,41c-0.55176,0-1-0.44824-1-1
		s0.44824-1,1-1s1,0.44824,1,1S23.55176,41,23,41z"/>
	<path d="M34,35c0-1.6543-1.3457-3-3-3s-3,1.3457-3,3s1.3457,3,3,3S34,36.6543,34,35z M30,35c0-0.55176,0.44824-1,1-1s1,0.44824,1,1
		s-0.44824,1-1,1S30,35.55176,30,35z"/>
</g>
</svg>
