<?xml version="1.0" encoding="UTF-8"?>
<svg id="Outline" xmlns="http://www.w3.org/2000/svg" version="1.1" viewBox="0 0 48 48">
  <path d="M40,10H14c-1.6543,0-3,1.3457-3,3v3h-3c-1.6543,0-3,1.3457-3,3v14c0,1.6543,1.3457,3,3,3h26c1.6543,0,3-1.3457,3-3v-3h3c1.6543,0,3-1.3457,3-3v-14c0-1.6543-1.3457-3-3-3ZM17,34h-6v-1c0-1.6543,1.3457-3,3-3s3,1.3457,3,3v1ZM13,27c0-.55176.44873-1,1-1s1,.44824,1,1-.44873,1-1,1-1-.44824-1-1ZM35,33c0,.55176-.44873,1-1,1h-15v-1c0-1.85022-1.02203-3.45062-2.52002-4.31531.32758-.48065.52002-1.06036.52002-1.68469,0-1.6543-1.3457-3-3-3s-3,1.3457-3,3c0,.62433.19244,1.20404.52002,1.68469-1.49799.86469-2.52002,2.46509-2.52002,4.31531v1h-1c-.55127,0-1-.44824-1-1v-14c0-.55176.44873-1,1-1h26c.55127,0,1,.44824,1,1v14ZM41,27c0,.55176-.44873,1-1,1h-3v-9c0-1.6543-1.3457-3-3-3H13v-3c0-.55176.44873-1,1-1h26c.55127,0,1,.44824,1,1v14Z" fill="#000" stroke-width="0"/>
  <path d="M28,21c0-.55273-.44775-1-1-1h-12c-.55225,0-1,.44727-1,1s.44775,1,1,1h12c.55225,0,1-.44727,1-1Z" fill="#000" stroke-width="0"/>
  <path d="M22,24c-.55225,0-1,.44727-1,1s.44775,1,1,1h6c.55225,0,1-.44727,1-1s-.44775-1-1-1h-6Z" fill="#000" stroke-width="0"/>
  <path d="M31,28h-9c-.55225,0-1,.44727-1,1s.44775,1,1,1h9c.55225,0,1-.44727,1-1s-.44775-1-1-1Z" fill="#000" stroke-width="0"/>
</svg>