<?xml version="1.0" encoding="UTF-8"?>
<svg xmlns="http://www.w3.org/2000/svg" version="1.1" viewBox="0 0 64 64">
  <!-- Generator: Adobe Illustrator 28.7.1, SVG Export Plug-In . SVG Version: 1.2.0 Build 142)  -->
  <g>
    <g id="Outline">
      <g>
        <path d="M54.31,49.23999c.44-.64001.69-1.41003.69-2.23999,0-2.06-1.57001-3.73999-3.58002-3.96002.36005-.59998.58002-1.28998.58002-2.03998,0-2.21002-1.78998-4-4-4h-19v-5.82001c0-1.96002-.79999-3.87-2.19-5.23999-1.27002-1.25-2.92999-1.94-4.65997-1.94h-.15002c-.88,0-1.71002-.38-2.28003-1.04999-.58997-.70001-.82996-1.58002-.66998-2.49005.23999-1.39996,1.57001-2.45996,3.10004-2.45996h9.84998v2c0,.54999.45001,1,1,1s1-.45001,1-1v-2.15002l5.15997-.85999c.49005-.08002.84003-.5.84003-.98999v-4c0-.48999-.34998-.91003-.84003-.98999l-5.15997-.86005v-2.14996c0-.54999-.45001-1-1-1s-1,.45001-1,1v2h-9.65002c-5.95996,0-10.94,4.5-11.31995,10.25-.39001,5.70996,3.56995,10.70001,9.20996,11.60999.42999.07001.76001.48999.76001.96997v4.17004h-5c-2.21002,0-4,1.78998-4,4,0,.75.21997,1.44.58002,2.03998-2.01001.22003-3.58002,1.90002-3.58002,3.96002,0,.82996.25,1.59998.69,2.23999-1.56.54999-2.69,2.02002-2.69,3.76001,0,2.20996,1.78998,4,4,4h42c2.21002,0,4-1.79004,4-4,0-1.73999-1.13-3.21002-2.69-3.76001ZM34,12.17999l4,.66998v2.29999l-4,.67004v-3.64001ZM20.56,29.88c-4.60999-.73999-7.84998-4.83002-7.53998-9.5.32001-4.70001,4.41998-8.38,9.32996-8.38h9.65002v4h-9.84998c-2.53003,0-4.66003,1.72998-5.07001,4.12-.26001,1.47998.14996,2.98999,1.12,4.13.96997,1.13,2.39001,1.76001,3.88,1.75,1.20996.01001,2.40997.46997,3.32996,1.37,1.01001,1,1.59003,2.39001,1.59003,3.81v5.82001h-4v-4.17004c0-1.44995-1.04999-2.71997-2.44-2.94995ZM16,39h32c1.09998,0,2,.89996,2,2,0,1.09998-.90002,2-2,2H16c-1.09998,0-2-.90002-2-2,0-1.10004.90002-2,2-2ZM13,45h38c1.09998,0,2,.89996,2,2,0,1.09998-.90002,2-2,2H13c-1.09998,0-2-.90002-2-2,0-1.10004.90002-2,2-2ZM53,55H11c-1.09998,0-2-.90002-2-2,0-1.10004.90002-2,2-2h42c1.09998,0,2,.89996,2,2,0,1.09998-.90002,2-2,2Z"/>
        <path d="M37.2002,22.59961c0,1.875,1.52539,3.40039,3.39941,3.40039,1.875,0,3.40039-1.52539,3.40039-3.40039,0-1.62891-2.07617-3.72266-2.71289-4.3252-.38477-.36523-.99023-.36523-1.375,0-.63672.60254-2.71191,2.69629-2.71191,4.3252ZM42,22.59961c0,.77246-.62793,1.40039-1.40039,1.40039-.77148,0-1.39941-.62793-1.39941-1.40039,0-.36523.61035-1.28418,1.39941-2.16406.79004.87988,1.40039,1.79883,1.40039,2.16406Z"/>
        <path d="M48.40039,31c1.87402,0,3.39941-1.52539,3.39941-3.40039,0-1.62891-2.0752-3.72266-2.71191-4.3252-.38477-.36523-.99023-.36621-1.375,0-.63672.60254-2.71289,2.69629-2.71289,4.3252,0,1.875,1.52539,3.40039,3.40039,3.40039ZM48.39941,25.43555c.74902.83594,1.40039,1.77051,1.40039,2.16406,0,.77246-.62793,1.40039-1.39941,1.40039-.77246,0-1.40039-.62793-1.40039-1.40039,0-.36523.61035-1.28418,1.39941-2.16406Z"/>
      </g>
    </g>
  </g>
</svg>