<?xml version="1.0" encoding="utf-8"?>
<!-- Generator: Adobe Illustrator 27.3.1, SVG Export Plug-In . SVG Version: 6.00 Build 0)  -->
<svg version="1.1" id="Outline" xmlns="http://www.w3.org/2000/svg" xmlns:xlink="http://www.w3.org/1999/xlink" x="0px" y="0px"
	 viewBox="0 0 64 64" enable-background="new 0 0 64 64" xml:space="preserve">
<g>
	<path d="M32.70703,7.29297c-0.39062-0.39062-1.02344-0.39062-1.41406,0C30.5459,8.04004,13,25.72656,13,38
		c0,10.47656,8.52344,19,19,19s19-8.52344,19-19C51,25.72656,33.4541,8.04004,32.70703,7.29297z M32,55c-9.37402,0-17-7.62598-17-17
		c0-10.11914,13.7002-25.10156,17-28.5625C35.2998,12.89844,49,27.88086,49,38C49,47.37402,41.37402,55,32,55z"/>
	<path d="M45.71289,41.00098c-0.52637-0.1582-1.08594,0.14648-1.2417,0.67578c-0.65784,2.2309-1.90222,4.18097-3.52386,5.71881
		c-2.90363-2.5387-6.23083-3.18365-7.94733-3.3432V42h1c2.75684,0,5-2.24316,5-5c0-0.55273-0.44775-1-1-1h-2
		c-1.12994,0-2.16174,0.39099-3,1.02557v-1.54089l2.03809-3.03839c1.33936-1.99609,1.8208-4.39453,1.35645-6.75293
		c-0.46484-2.35938-1.82031-4.39551-3.81641-5.73438c-0.4585-0.30957-1.08057-0.18555-1.3877,0.27246l-2.22852,3.32227
		c-1.33936,1.99609-1.8208,4.39453-1.35645,6.75293c0.43073,2.1861,1.63348,4.08704,3.39453,5.42059v2.29834
		C30.16174,37.39099,29.12994,37,28,37h-2c-0.55225,0-1,0.44727-1,1c0,2.75684,2.24316,5,5,5h1v1.04077
		c-3.65173,0.27551-6.33398,2.00708-7.9223,3.38892C20.573,45.05853,19,41.71295,19,38c0-3.69727,2.89404-9.68262,7.94092-16.4209
		c1.51611-2.02637,3.21533-4.1123,5.05908-6.21191c1.84375,2.09961,3.54297,4.18555,5.05908,6.21191
		c3.63379,4.86133,6.14697,9.28516,7.26807,12.7959c0.16748,0.52637,0.73047,0.81738,1.25684,0.64746
		c0.52637-0.16797,0.81641-0.73047,0.64844-1.25684c-1.18799-3.71875-3.80615-8.34668-7.57178-13.38379
		c-1.75342-2.34473-3.74365-4.7627-5.91553-7.18848c-0.37988-0.42383-1.11035-0.42383-1.49023,0
		c-2.17188,2.42578-4.16211,4.84375-5.91504,7.1875C19.96191,27.56152,17,33.81836,17,38c0,8.27148,6.729,15,15,15
		c6.60498,0,12.52197-4.42383,14.38916-10.75684C46.54541,41.71289,46.24268,41.15723,45.71289,41.00098z M36,38h0.82861
		c-0.4126,1.16406-1.5249,2-2.82861,2h-0.82861C33.58398,38.83594,34.69629,38,36,38z M30,41c-1.30371,0-2.41602-0.83594-2.82861-2
		H28c1.30371,0,2.41602,0.83594,2.82861,2H30z M29.56787,29.91992c-0.36133-1.83398,0.01318-3.7002,1.05518-5.25195l1.63184-2.43262
		c1.11963,1.00586,1.88086,2.34082,2.17725,3.84473c0.36133,1.83398-0.01318,3.7002-1.05518,5.25195l-1.63184,2.43262
		C30.62549,32.75879,29.86426,31.42383,29.56787,29.91992z M32,51c-2.72266,0-5.24988-0.84467-7.34052-2.28088
		C26.17548,47.46851,28.65417,46,32,46c0.45087,0,4.18585,0.08905,7.36084,2.68207C37.23767,50.14673,34.68738,51,32,51z"/>
	<circle cx="46" cy="38" r="1"/>
</g>
</svg>
