<?xml version="1.0" encoding="UTF-8"?>
<svg xmlns="http://www.w3.org/2000/svg" version="1.1" viewBox="0 0 64 64">
  <!-- Generator: Adobe Illustrator 28.7.1, SVG Export Plug-In . SVG Version: 1.2.0 Build 142)  -->
  <g>
    <g id="Outline">
      <g>
        <path d="M47.72998,23.47998c-2.14996-3.27002-5.16998-5.83002-8.75-7.40002-1.29999-.56995-2.44995-1.40997-3.38995-2.47998-.94-1.08997-1.62006-2.32001-2-3.69l-.63-2.19c-.12-.42999-.51001-.71997-.96002-.71997s-.84003.28998-.96002.71997l-.63,2.20001c-.37994,1.35999-1.06,2.59003-2,3.67999-.94,1.07001-2.08997,1.91003-3.38995,2.47998-3.58002,1.57001-6.60004,4.13-8.75,7.40002-2.14001,3.27002-3.27002,7.07001-3.27002,10.97998,0,1.27002.25,2.5.72998,3.66003.48999,1.15997,1.17999,2.20001,2.06,3.08997,1.80005,1.80005,4.20001,2.79004,6.75,2.79004h8.46002v12c0,.54999.45001,1,1,1s1-.45001,1-1v-12h8.46002c2.54999,0,4.94995-.98999,6.75-2.79004.88-.88995,1.57001-1.92999,2.06-3.08997.47998-1.16003.72998-2.39001.72998-3.66003,0-3.90997-1.13-7.70996-3.27002-10.97998ZM31,34.56c-.59003-.35004-1.27002-.56-2-.56h-2c-.54999,0-1,.45001-1,1s.45001,1,1,1h2c1.09998,0,2,.89996,2,2v4h-8.46002c-2.01996,0-3.90997-.78003-5.32996-2.21002-.70001-.69-1.25-1.52002-1.64001-2.45001-.23999-.57996-.40002-1.19995-.48999-1.82996.57001.31,1.22998.48999,1.91998.48999h2c.54999,0,1-.45001,1-1s-.45001-1-1-1h-2c-.88,0-1.64001-.57001-1.89001-1.40002.14001-1.35999.42999-2.70001.88-4,.72998.85004,1.79999,1.40002,3.01001,1.40002h10c1.09998,0,2,.89996,2,2v2.56ZM31,28.56c-.59003-.35004-1.27002-.56-2-.56h-10c-1.03003,0-1.88-.79004-1.97998-1.81.27997-.54999.58997-1.09003.92999-1.61005.27997-.42999.58002-.83997.89001-1.23999.63995.42004,1.37994.66003,2.15997.66003h8c1.09998,0,2,.89996,2,2v2.56ZM31,22.56c-.59003-.35004-1.27002-.56-2-.56h-8c-.28998,0-.57001-.06-.82001-.17999,1.60004-1.64001,3.51001-2.97003,5.64001-3.90002,1.58002-.70001,2.95001-1.71002,4.08997-3,.41003-.46997.77002-.96002,1.09003-1.46997v9.10999ZM33,13.45001c.32001.50995.67999,1,1.09003,1.46997,1.13995,1.28998,2.50995,2.29999,4.08997,3,2.13.92999,4.03998,2.26001,5.64001,3.90002-.25.12-.53003.17999-.82001.17999h-8c-.72998,0-1.40997.20996-2,.56v-9.10999ZM33,26c0-1.10004.90002-2,2-2h8c.78003,0,1.52002-.23999,2.15997-.66003.31.40002.61005.81.89001,1.23999.34003.52002.65002,1.06006.92999,1.61005-.09998,1.01001-.94,1.81-1.97998,1.81h-10c-.72998,0-1.40997.20996-2,.56v-2.56ZM33,32c0-1.10004.90002-2,2-2h10c1.21002,0,2.28003-.54999,3.01001-1.40002.45001,1.29999.73999,2.64001.88,4-.25.83002-1.01001,1.40002-1.89001,1.40002h-12c-.72998,0-1.40997.20996-2,.56v-2.56ZM48.42999,37.34998c-.39001.91998-.94,1.75-1.64001,2.44-1.41998,1.42999-3.31,2.21002-5.32996,2.21002h-8.46002v-4c0-1.10004.90002-2,2-2h12c.69,0,1.34998-.17999,1.91998-.48999-.08997.63-.25,1.25-.48999,1.83997Z"/>
        <circle cx="23" cy="35" r="1"/>
      </g>
    </g>
  </g>
</svg>