<?xml version="1.0" encoding="UTF-8"?>
<svg xmlns="http://www.w3.org/2000/svg" version="1.1" viewBox="0 0 64 64">
  <!-- Generator: Adobe Illustrator 28.7.1, SVG Export Plug-In . SVG Version: 1.2.0 Build 142)  -->
  <g>
    <g id="Outline">
      <g>
        <circle cx="32" cy="21" r="1"/>
        <path d="M56,51h-9.59003l-2.87994-2.88,6.18994-6.17999c2.76001-2.76001,4.28003-6.42999,4.28003-10.33002,0-8.06-6.54999-14.60999-14.60999-14.60999h-4.42004c-.82996-.62-1.84998-1-2.96997-1-.34003,0-.67999.03998-1,.09998v-4.09998c0-.54999-.45001-1-1-1h-1v-3c0-.54999-.45001-1-1-1h-6c-.54999,0-1,.45001-1,1v3h-1c-.54999,0-1,.45001-1,1v3c0,.54999.45001,1,1,1s1-.45001,1-1v-2h8v4.02997c-1.21002.91003-2,2.34003-2,3.97003s.78998,3.06,2,3.96997v2.03003h-8v-8c0-.54999-.45001-1-1-1s-1,.45001-1,1v9c0,.54999.45001,1,1,1h1v3c0,.54999.45001,1,1,1h6c.54999,0,1-.45001,1-1v-3h1c.54999,0,1-.45001,1-1v-2.10004c.32001.06.65997.10004,1,.10004,1.12,0,2.14001-.38,2.96997-1h4.42004c3.64001,0,6.60999,2.96997,6.60999,6.60999,0,1.76001-.69,3.41998-1.94,4.66998l-6.17999,6.19-3.16998-3.17999c-.09003-.08997-.21002-.15997-.33002-.21002-.12-.04999-.25-.07996-.38-.07996h-16c-.54999,0-1,.45001-1,1s.45001,1,1,1h7v2h-14v-2h3c.54999,0,1-.45001,1-1s-.45001-1-1-1h-4c-.54999,0-1,.45001-1,1v4c0,.54999.45001,1,1,1h15v6H8c-.54999,0-1,.45001-1,1v4c0,.54999.45001,1,1,1h48c.54999,0,1-.45001,1-1v-4c0-.54999-.45001-1-1-1ZM27,11h-4v-2h4v2ZM27,31h-4v-2h4v2ZM32,24c-1.65002,0-3-1.35004-3-3s1.34998-3,3-3,3,1.34998,3,3-1.34998,3-3,3ZM45.47998,37.70001c1.62-1.63,2.52002-3.79004,2.52002-6.09003,0-4.75-3.85999-8.60999-8.60999-8.60999h-2.81c.26996-.60999.41998-1.29004.41998-2,0-.71002-.15002-1.39001-.41998-2h2.81c6.95001,0,12.60999,5.65997,12.60999,12.60999,0,3.35999-1.31,6.53003-3.70001,8.90997l-6.17999,6.19-2.83002-2.82996,6.19-6.17999ZM35,42.40997l8.59003,8.59003h-8.59003v-8.59003ZM27,41h6v10h-6v-10ZM55,55H9v-2h46v2Z"/>
      </g>
    </g>
  </g>
</svg>