<?xml version="1.0" encoding="UTF-8"?>
<svg xmlns="http://www.w3.org/2000/svg" version="1.1" viewBox="0 0 48 48">
  <!-- Generator: Adobe Illustrator 28.7.1, SVG Export Plug-In . SVG Version: 1.2.0 Build 142)  -->
  <g>
    <g id="Outline">
      <g>
        <path d="M24,9c-7.11896,0-13.68438,4.6566-16.04297,11.36914-.18359.52051.09082,1.0918.6123,1.27441.51855.18262,1.09082-.09082,1.27441-.6123.64673-1.84052,1.63312-3.49323,2.86975-4.90369l2.83862,2.83862c-1.59161,1.90833-2.55212,4.36041-2.55212,7.03381,0,1.92224.4917,3.78076,1.42786,5.42059-.3139.47406-.49915,1.04071-.49915,1.6507,0,1.6543,1.3457,3,3,3,.60999,0,1.17664-.18524,1.6507-.49915,1.63983.93616,3.49835,1.42786,5.42059,1.42786,6.06543,0,11-4.93457,11-11,0-1.92224-.4917-3.78076-1.42786-5.42059.3139-.47406.49915-1.04071.49915-1.6507,0-1.6543-1.3457-3-3-3-.60999,0-1.17664.18524-1.6507.49915-1.63983-.93616-3.49835-1.42786-5.42059-1.42786-2.6734,0-5.12549.96051-7.03381,2.55212l-2.83295-2.83295c2.6767-2.33771,6.15454-3.71918,9.86676-3.71918,8.27148,0,15,6.72852,15,15s-6.72852,15-15,15-15-6.72852-15-15c0-.44043.01855-.87207.05566-1.30273.04785-.55078-.35938-1.03516-.90918-1.08301-.53906-.05273-1.03516.35938-1.08301.90918-.04297.48926-.06348.97754-.06348,1.47656,0,9.37402,7.62598,17,17,17s17-7.62598,17-17-7.62597-17-17-17ZM15.92871,33.07129c0-.55176.44824-1,1-1s1,.44824,1,1-.44824,1-1,1-1-.44824-1-1ZM32.07129,18.92871c0,.55176-.44824,1-1,1s-1-.44824-1-1,.44824-1,1-1,1,.44824,1,1ZM24,17c1.49194,0,2.92542.37988,4.21222,1.06805-.08295.27441-.14093.55951-.14093.86066,0,1.6543,1.3457,3,3,3,.30115,0,.58624-.05798.86066-.14093.68817,1.2868,1.06805,2.72028,1.06805,4.21222,0,4.96289-4.03711,9-9,9-1.49194,0-2.92548-.37988-4.21222-1.06805.08295-.27441.14093-.55951.14093-.86066,0-1.6543-1.3457-3-3-3-.30115,0-.58624.05798-.86066.14093-.68817-1.28674-1.06805-2.72028-1.06805-4.21222,0-2.12177.74219-4.07086,1.97485-5.61108l2.85815,2.85815c-.52399.79053-.83301,1.7356-.83301,2.75293,0,2.75684,2.24316,5,5,5s5-2.24316,5-5-2.24316-5-5-5c-1.01733,0-1.9624.30902-2.75293.83301l-2.85815-2.85815c1.54022-1.23267,3.48932-1.97485,5.61108-1.97485ZM23.29297,26.70703c.38595.38595,1.02822.38584,1.41406,0,.39062-.39062.39062-1.02344,0-1.41406l-1.99237-1.99237c.39111-.18713.82361-.3006,1.28534-.3006,1.6543,0,3,1.3457,3,3s-1.3457,3-3,3-3-1.3457-3-3c0-.46173.11346-.89423.3006-1.28534l1.99237,1.99237Z"/>
        <path d="M12,7c.55273,0,1-.44727,1-1s-.44727-1-1-1c-3.85938,0-7,3.14062-7,7,0,.55273.44727,1,1,1s1-.44727,1-1c0-2.75684,2.24316-5,5-5Z"/>
        <path d="M12,9c-1.6543,0-3,1.3457-3,3,0,.55273.44727,1,1,1s1-.44727,1-1c0-.55176.44824-1,1-1,.55273,0,1-.44727,1-1s-.44727-1-1-1Z"/>
        <path d="M36,5c-.55273,0-1,.44727-1,1s.44727,1,1,1c2.75684,0,5,2.24316,5,5,0,.55273.44727,1,1,1s1-.44727,1-1c0-3.85938-3.14062-7-7-7Z"/>
        <path d="M37,12c0,.55273.44727,1,1,1s1-.44727,1-1c0-1.6543-1.3457-3-3-3-.55273,0-1,.44727-1,1s.44727,1,1,1c.55176,0,1,.44824,1,1Z"/>
      </g>
    </g>
  </g>
</svg>