<?xml version="1.0" encoding="UTF-8"?>
<svg xmlns="http://www.w3.org/2000/svg" version="1.1" viewBox="0 0 48 48">
  <!-- Generator: Adobe Illustrator 28.7.1, SVG Export Plug-In . SVG Version: 1.2.0 Build 142)  -->
  <g>
    <g id="Outline">
      <g>
        <path d="M41,32v-7c0-1.65002-1.34998-3-3-3h-5c-.40997,0-.78003-.25-.92999-.64001-.02002-.03003-.03003-.07001-.04999-.09998l-2.97003-5.43005c-.46997-1.10999-1.53998-1.82996-2.76001-1.82996h-2.28998v-2h1c.54999,0,1-.45001,1-1v-1h2c.54999,0,1-.45001,1-1s-.45001-1-1-1h-2v-1c0-.54999-.45001-1-1-1h-8c-.54999,0-1,.45001-1,1v4c0,.54999.45001,1,1,1h1v2h-6c-1.65002,0-3,1.34998-3,3v1h-1c-1.65002,0-3,1.34998-3,3v6c0,1.64996,1.34998,3,3,3h1v2c-1.09998,0-2,.89996-2,2v2c0,1.09998.90002,2,2,2h4.03003c.90997,1.20996,2.33997,2,3.96997,2,2.76001,0,5-2.23999,5-5,0-.34003-.03998-.67999-.09998-1h6.19995c-.06.32001-.09998.65997-.09998,1,0,2.76001,2.23999,5,5,5,1.63,0,3.06-.79004,3.96997-2h4.03003c1.09998,0,2-.90002,2-2v-2c0-1.10004-.90002-2-2-2ZM18,8h6v2h-6v-2ZM22,12v2h-2v-2h2ZM12.09998,36h-3.09998v-2h3.09998c-.06.32001-.09998.65997-.09998,1,0,.33997.03998.67999.09998,1ZM17,38c-1.65002,0-3-1.35004-3-3s1.34998-3,3-3,3,1.34998,3,3-1.34998,3-3,3ZM33,38c-1.65002,0-3-1.35004-3-3s1.34998-3,3-3,3,1.34998,3,3-1.34998,3-3,3ZM33,30c-1.63,0-3.06.78998-3.96997,2h-8.06006c-.90997-1.21002-2.33997-2-3.96997-2s-3.06.78998-3.96997,2h-2.03003v-6c0-.54999-.45001-1-1-1s-1,.45001-1,1v2h-1c-.54999,0-1-.45001-1-1v-6c0-.54999.45001-1,1-1h1v2c0,.54999.45001,1,1,1s1-.45001,1-1v-5c0-.54999.45001-1,1-1h14.28998c.41003,0,.78003.25.92999.63.02002.03998.03003.07001.05005.10999l2.96997,5.42999c.47998,1.12,1.54999,1.83002,2.76001,1.83002h5c.54999,0,1,.45001,1,1v2h-2c-.54999,0-1,.45001-1,1s.45001,1,1,1h2v3h-2.03003c-.90997-1.21002-2.33997-2-3.96997-2ZM41,36h-3.09998c.06-.32001.09998-.66003.09998-1,0-.34003-.03998-.67999-.09998-1h3.09998v2Z"/>
        <path d="M25.89453,18.55273c-.16992-.33887-.51562-.55273-.89453-.55273h-11c-.55273,0-1,.44727-1,1v6c0,.55273.44727,1,1,1h13.99985c.72371,0,1.2188-.80104.89468-1.44727l-3-6ZM21,20v4h-2v-4h2ZM15,20h2v4h-2v-4ZM23,24v-4h1.38184l2,4h-3.38184Z"/>
        <circle cx="17" cy="35" r="1"/>
        <circle cx="33" cy="35" r="1"/>
        <path d="M25,28h-2c-.55273,0-1,.44727-1,1s.44727,1,1,1h2c.55273,0,1-.44727,1-1s-.44727-1-1-1Z"/>
      </g>
    </g>
  </g>
</svg>