<?xml version="1.0" encoding="UTF-8"?>
<svg xmlns="http://www.w3.org/2000/svg" version="1.1" viewBox="0 0 48 48">
  <!-- Generator: Adobe Illustrator 28.7.1, SVG Export Plug-In . SVG Version: 1.2.0 Build 142)  -->
  <g>
    <g id="Outline">
      <path d="M35.45001,23.10999l-5.45001-2.72998v-7.38c0-1.41003-.90002-3.10999-2.75-5.21002-1.28998-1.42999-2.54999-2.51001-2.59998-2.54999-.38-.32001-.92004-.32001-1.30005,0-.53998.46002-5.34998,4.63-5.34998,7.76001v7.38l-5.45001,2.72998c-.33997.16998-.54999.51001-.54999.89001v6c0,1.09998.90002,2,2,2h4.38l1.63,3.26001c.07001,2.75,1.15997,5.31995,3.10999,7.26996l.16998.17999c.19.18005.44.29004.71002.29004s.52002-.10999.71002-.29004l.16998-.17999c1.95001-1.95001,3.03998-4.51996,3.10999-7.26996l1.63-3.26001h4.38c1.09998,0,2-.90002,2-2v-6c0-.38-.21002-.72003-.54999-.89001ZM24,7.33997c.46002.42999,1.10999,1.06,1.75,1.78003.65997.73999,1.12,1.35999,1.45001,1.88h-6.41003c.81-1.26001,2.10004-2.64001,3.21002-3.66003ZM20,13h3v2h-3v-2ZM24,40.53998c-1.08002-1.29999-1.75-2.87-1.94-4.53998h3.88c-.19,1.66998-.85999,3.23999-1.94,4.53998ZM26.38,34h-4.76001l-1-2h6.76001l-1,2ZM28,30h-8v-2c0-.54999-.45001-1-1-1s-1,.45001-1,1v2h-4v-5.38l4-2v1.38c0,.54999.45001,1,1,1s1-.45001,1-1v-7h8v13ZM28,15h-3v-2h3v2ZM34,30h-4v-7.38l4,2v5.38Z"/>
    </g>
  </g>
</svg>