<?xml version="1.0" encoding="UTF-8"?>
<svg xmlns="http://www.w3.org/2000/svg" version="1.1" viewBox="0 0 48 48">
  <!-- Generator: Adobe Illustrator 28.7.1, SVG Export Plug-In . SVG Version: 1.2.0 Build 142)  -->
  <g>
    <g id="Outline">
      <g>
        <path d="M37,21c0,.54999.45001,1,1,1h4c.54999,0,1-.45001,1-1v-6c0-.54999-.45001-1-1-1h-4c-.54999,0-1,.45001-1,1h-8v-2h1c.54999,0,1-.45001,1-1v-6c0-.54999-.45001-1-1-1h-3c-2.21002,0-4,1.78998-4,4s1.78998,4,4,4v2h-7c-2.21002,0-4,1.78998-4,4v4h-.56c-1.28998,0-2.44.82001-2.84003,2.04999l-1.32996,3.98999c-3.47003.38-6.27002,3.41003-6.27002,6.96002,0,3.85999,3.14001,7,7,7h4c.54999,0,1-.45001,1-1s-.45001-1-1-1h-4c-2.76001,0-5-2.23999-5-5,0-2.71002,2.28998-5,5-5h24c2.76001,0,5,2.23999,5,5,0,2.70996-2.28998,5-5,5h-16c-.54999,0-1,.45001-1,1s.45001,1,1,1h16c3.78998,0,7-3.21002,7-7,0-3.60999-2.75-6.59003-6.27002-6.96002l-1.32996-3.98999c-.40002-1.22998-1.55005-2.04999-2.84003-2.04999h-2.56v-2h7ZM39,16h2v4h-2v-4ZM30,17h7v2h-7v-2ZM25,9c0-1.10004.90002-2,2-2h2v4h-2c-1.09998,0-2-.90002-2-2ZM18,21h2c.54999,0,1-.45001,1-1s-.45001-1-1-1h-2c0-1.10004.90002-2,2-2h8v6h-10v-2ZM32.56,25c.42999,0,.81.26996.95001.67999l1.09998,3.32001H13.39001l1.09998-3.32001c.14001-.41003.52002-.67999.95001-.67999h17.12Z"/>
        <path d="M36,39c1.6543,0,3-1.3457,3-3s-1.3457-3-3-3H12c-1.6543,0-3,1.3457-3,3s1.3457,3,3,3h24ZM19,36c0-.55127.44873-1,1-1s1,.44873,1,1-.44873,1-1,1-1-.44873-1-1ZM17.18433,37h-2.36859c.11206-.31433.18427-.64764.18427-1s-.0722-.68567-.18427-1h2.36853c-.11206.31433-.18427.64764-.18427,1s.07227.68567.18433,1ZM29,36c0,.55127-.44873,1-1,1s-1-.44873-1-1,.44873-1,1-1,1,.44873,1,1ZM30.81573,35h2.36853c-.11206.31433-.18427.64764-.18427,1s.07227.68567.18433,1h-2.36859c.11206-.31433.18427-.64764.18427-1s-.0722-.68567-.18427-1ZM25.18433,37h-2.36859c.11206-.31433.18427-.64764.18427-1s-.0722-.68567-.18427-1h2.36853c-.11206.31433-.18427.64764-.18427,1s.07227.68567.18433,1ZM36,37c-.55127,0-1-.44873-1-1s.44873-1,1-1,1,.44873,1,1-.44873,1-1,1ZM12,35c.55127,0,1,.44873,1,1s-.44873,1-1,1-1-.44873-1-1,.44873-1,1-1Z"/>
      </g>
    </g>
  </g>
</svg>