<?xml version="1.0" encoding="UTF-8"?>
<svg xmlns="http://www.w3.org/2000/svg" version="1.1" viewBox="0 0 48 48">
  <!-- Generator: Adobe Illustrator 28.7.1, SVG Export Plug-In . SVG Version: 1.2.0 Build 142)  -->
  <g>
    <g id="Outline">
      <g>
        <path d="M33.81531,25h1.32672c.44727,1.72028,1.99969,3,3.85797,3,2.20557,0,4-1.79443,4-4s-1.79443-4-4-4c-1.85828,0-3.41071,1.27972-3.85797,3h-1.32672l-2.70917-4.69208,4.14093-4.14093c.79053.52399,1.7356.83301,2.75293.83301,2.75684,0,5-2.24316,5-5s-2.24316-5-5-5-5,2.24316-5,5c0,1.01733.30902,1.9624.83301,2.75293l-3.76208,3.76208-.58606-1.01501c-.17871-.30957-.50879-.5-.86621-.5h-3.61865v-2.14203c1.72028-.44727,3-1.99969,3-3.85797,0-2.20557-1.79443-4-4-4s-4,1.79443-4,4c0,1.85828,1.27972,3.41071,3,3.85797v2.14203h-3.61865c-.35742,0-.6875.19043-.86621.5l-.58606,1.01501-3.76208-3.76208c.52399-.79053.83301-1.7356.83301-2.75293,0-.87012-.23291-1.73438-.67334-2.49902-.27686-.47852-.8877-.64307-1.36572-.36768-.47852.27588-.64307.88721-.36768,1.36572.27002.46826.40674.97314.40674,1.50098,0,1.6543-1.3457,3-3,3s-3-1.3457-3-3c0-.52783.13672-1.03271.40674-1.50098.27539-.47852.11084-1.08984-.36768-1.36572-.47949-.27539-1.08984-.11133-1.36572.36768-.44043.76465-.67334,1.62891-.67334,2.49902,0,2.75684,2.24316,5,5,5,1.01733,0,1.9624-.30902,2.75293-.83301l4.14093,4.14093-2.70917,4.69208h-1.32672c-.44727-1.72028-1.99969-3-3.85797-3-2.20557,0-4,1.79443-4,4s1.79443,4,4,4c1.85828,0,3.41071-1.27972,3.85797-3h1.32672l2.70917,4.69208-4.14093,4.14093c-.79053-.52399-1.7356-.83301-2.75293-.83301-2.75684,0-5,2.24316-5,5s2.24316,5,5,5,5-2.24316,5-5c0-1.01733-.30902-1.9624-.83301-2.75293l3.76208-3.76208.58606,1.01501c.17871.30957.50879.5.86621.5h3.61865v2.14203c-1.72028.44727-3,1.99969-3,3.85797,0,2.20557,1.79443,4,4,4s4-1.79443,4-4c0-1.85828-1.27972-3.41071-3-3.85797v-2.14203h3.61865c.35742,0,.6875-.19043.86621-.5l.58606-1.01501,3.76208,3.76208c-.52399.79053-.83301,1.7356-.83301,2.75293,0,2.75684,2.24316,5,5,5s5-2.24316,5-5-2.24316-5-5-5c-1.01733,0-1.9624.30902-2.75293.83301l-4.14093-4.14093,2.70917-4.69208ZM38,7c1.6543,0,3,1.3457,3,3s-1.3457,3-3,3-3-1.3457-3-3,1.3457-3,3-3ZM22,9c0-1.10303.89697-2,2-2s2,.89697,2,2-.89697,2-2,2-2-.89697-2-2ZM10,41c-1.6543,0-3-1.3457-3-3s1.3457-3,3-3,3,1.3457,3,3-1.3457,3-3,3ZM26,39c0,1.10303-.89697,2-2,2s-2-.89697-2-2,.89697-2,2-2,2,.89697,2,2ZM41,38c0,1.6543-1.3457,3-3,3s-3-1.3457-3-3,1.3457-3,3-3,3,1.3457,3,3ZM39,22c1.10303,0,2,.89697,2,2s-.89697,2-2,2-2-.89697-2-2,.89697-2,2-2ZM9,26c-1.10303,0-2-.89697-2-2s.89697-2,2-2,2,.89697,2,2-.89697,2-2,2ZM28.0415,31h-8.08301l-4.0415-7,4.0415-7h8.08301l4.0415,7-4.0415,7Z"/>
        <path d="M24,19c-2.75684,0-5,2.24316-5,5s2.24316,5,5,5,5-2.24316,5-5-2.24316-5-5-5ZM24,27c-1.6543,0-3-1.3457-3-3s1.3457-3,3-3,3,1.3457,3,3-1.3457,3-3,3Z"/>
        <circle cx="10" cy="6" r="1"/>
      </g>
    </g>
  </g>
</svg>