<?xml version="1.0" encoding="UTF-8"?>
<svg id="Outline" xmlns="http://www.w3.org/2000/svg" version="1.1" viewBox="0 0 48 48">
  <path d="M40,8h-3.1283c-.44708-1.72052-1.99933-3-3.85803-3s-3.41095,1.27948-3.85803,3h-10.29761c-.44708-1.72052-1.99933-3-3.85803-3s-3.41095,1.27948-3.85803,3h-3.14197c-1.6543,0-3,1.3457-3,3v29c0,1.6543,1.3457,3,3,3h32c1.6543,0,3-1.3457,3-3V11c0-1.6543-1.3457-3-3-3ZM33.01367,7c.73669,0,1.37469.40521,1.72168,1h-3.44336c.34698-.59479.98499-1,1.72168-1ZM15,7c.73669,0,1.37469.40521,1.72168,1h-3.44336c.34698-.59479.98499-1,1.72168-1ZM41,40c0,.55176-.44824,1-1,1H8c-.55176,0-1-.44824-1-1V11c0-.55176.44824-1,1-1h3.14197c.44708,1.72052,1.99933,3,3.85803,3,.55273,0,1-.44727,1-1s-.44727-1-1-1c-.73669,0-1.37469-.40521-1.72168-1h15.87732c.44708,1.72052,1.99933,3,3.85803,3,.55273,0,1-.44727,1-1s-.44727-1-1-1c-.73669,0-1.37469-.40521-1.72168-1h8.70801c.55176,0,1,.44824,1,1v29Z" fill="#000" stroke-width="0"/>
  <path d="M38,15H10c-.55273,0-1,.44727-1,1v22c0,.55273.44727,1,1,1h28c.55273,0,1-.44727,1-1v-22c0-.55273-.44727-1-1-1ZM11,17h24.35974l-7.19135,5.5318c-.52374-.93243-1.51044-1.5318-2.6098-1.5318h-11.55859c-.55273,0-1,.44727-1,1v10c0,.55273.44727,1,1,1h.55975l-3.55975,2.73828v-18.73828ZM27.68152,25.42981c.49976.36206,1.11084.57019,1.75989.57019h3.55859v2h-3.55859c-1.42834,0-2.50403,1.01324-2.93359,2.31641-.13672.40918-.51855.68359-.94922.68359h-5.11835l7.24127-5.57019ZM17.15979,31h-2.15979v-8h10.55859c.48846,0,.83582.34308.98218.78381l-9.38098,7.21619ZM37,37H12.64026l5.19995-4h7.71838c1.29297,0,2.43652-.82422,2.84668-2.05273.16571-.4964.43823-.94727,1.03613-.94727h4.55859c.55273,0,1-.44727,1-1v-4c0-.55273-.44727-1-1-1h-4.45978l7.45978-5.73828v18.73828Z" fill="#000" stroke-width="0"/>
</svg>