<?xml version="1.0" encoding="UTF-8"?>
<svg xmlns="http://www.w3.org/2000/svg" version="1.1" viewBox="0 0 64 64">
  <!-- Generator: Adobe Illustrator 28.7.1, SVG Export Plug-In . SVG Version: 1.2.0 Build 142)  -->
  <g>
    <g id="Outline">
      <g>
        <circle cx="50" cy="28" r="1"/>
        <circle cx="14" cy="28" r="1"/>
        <circle cx="50" cy="48" r="1"/>
        <circle cx="14" cy="48" r="1"/>
        <path d="M32,27c-6.06543,0-11,4.93457-11,11s4.93457,11,11,11,11-4.93457,11-11-4.93457-11-11-11ZM32,47c-4.9624,0-9-4.0376-9-9s4.0376-9,9-9,9,4.0376,9,9-4.0376,9-9,9Z"/>
        <path d="M32,31c-3.85986,0-7,3.14014-7,7s3.14014,7,7,7,7-3.14014,7-7-3.14014-7-7-7ZM27,38c0-2.75684,2.24316-5,5-5,1.01733,0,1.9624.30902,2.75293.83301l-6.91992,6.91992c-.52399-.79053-.83301-1.7356-.83301-2.75293ZM32,43c-1.01733,0-1.9624-.30902-2.75293-.83301l6.91992-6.91992c.52399.79053.83301,1.7356.83301,2.75293,0,2.75684-2.24316,5-5,5Z"/>
        <path d="M18,13c.55225,0,1-.44775,1-1s-.44775-1-1-1h-4c-.55225,0-1,.44775-1,1v8c0,.55225.44775,1,1,1h4c.55225,0,1-.44775,1-1s-.44775-1-1-1h-3v-2h3c.55225,0,1-.44775,1-1s-.44775-1-1-1h-3v-2h3Z"/>
        <path d="M21,12v8c0,.55225.44775,1,1,1s1-.44775,1-1v-3.76416l2.10546,4.2114c.46157.92325,1.89454.58077,1.89454-.44724v-8c0-.55225-.44775-1-1-1s-1,.44775-1,1v3.76416l-2.10547-4.21143c-.20703-.41455-.66846-.63135-1.12451-.52588-.45117.10645-.77002.50928-.77002.97314Z"/>
        <path d="M32,21c.55225,0,1-.44775,1-1v-7h1c.55225,0,1-.44775,1-1s-.44775-1-1-1h-4c-.55225,0-1,.44775-1,1s.44775,1,1,1h1v7c0,.55225.44775,1,1,1Z"/>
        <path d="M40.38,16.95996c1.46997-.19,2.62-1.42999,2.62-2.95996,0-1.65002-1.34998-3-3-3h-2c-.54999,0-1,.45001-1,1v8c0,.54999.45001,1,1,1s1-.45001,1-1v-1.59003l2.28998,2.29999c.20001.19.45001.29004.71002.29004.87,0,1.32001-1.09003.71002-1.71002l-2.33002-2.33002ZM39,15v-2h1c.54999,0,1,.45001,1,1s-.45001,1-1,1h-1Z"/>
        <path d="M52,7h-23c-.54999,0-1,.45001-1,1s.45001,1,1,1h23c.54999,0,1,.45001,1,1v13H11v-13c0-.54999.45001-1,1-1h9c.54999,0,1-.45001,1-1s-.45001-1-1-1h-9c-1.65002,0-3,1.34998-3,3v40c0,1.64996,1.34998,3,3,3h2v1c0,1.64996,1.34998,3,3,3h30c1.65002,0,3-1.35004,3-3v-1h2c1.65002,0,3-1.35004,3-3V10c0-1.65002-1.34998-3-3-3ZM48,54c0,.54999-.45001,1-1,1h-30c-.54999,0-1-.45001-1-1v-1h32v1ZM53,50c0,.54999-.45001,1-1,1H12c-.54999,0-1-.45001-1-1v-25h42v25Z"/>
        <path d="M48,21c.55225,0,1-.44775,1-1v-3.76367l1.89453-3.78906c.24707-.49414.04688-1.09473-.44727-1.3418-.49512-.24805-1.09473-.04639-1.3418.44727l-1.10547,2.21143-1.10547-2.21143c-.24658-.49365-.84668-.69531-1.3418-.44727-.49414.24707-.69434.84766-.44727,1.3418l1.89453,3.78906v3.76367c0,.55225.44775,1,1,1Z"/>
        <circle cx="25" cy="8" r="1"/>
      </g>
    </g>
  </g>
</svg>