<?xml version="1.0" encoding="UTF-8"?>
<svg xmlns="http://www.w3.org/2000/svg" version="1.1" viewBox="0 0 64 64">
  <!-- Generator: Adobe Illustrator 28.7.1, SVG Export Plug-In . SVG Version: 1.2.0 Build 142)  -->
  <g>
    <g id="Outline">
      <g>
        <path d="M44,18.03998v-7.03998c0-2.21002-1.78998-4-4-4h-17c-2.21002,0-4,1.78998-4,4v14.08997c-6.21997.38-12,1.95001-12,4.91003v26c0,.54999.45001,1,1,1h48c.54999,0,1-.45001,1-1V23c0-3.12-6.40997-4.69-13-4.96002ZM21,11c0-1.10004.90002-2,2-2h17c1.09998,0,2,.89996,2,2v7c-7.21997,0-15,1.56-15,5v2.26001c-1.63-.17004-3.33002-.26001-5-.26001-.33002,0-.66998.01001-1,.01001v-14.01001ZM35,55H9v-22.33002c2.78003,1.59003,8.02002,2.33002,13,2.33002s10.21997-.73999,13-2.33002v22.33002ZM22,33c-8.58002,0-13-2.10004-13-3,0-.90002,4.41998-3,13-3s13,2.09998,13,3c0,.89996-4.41998,3-13,3ZM45,55h-8v-25c0-2.31-3.51001-3.77002-8-4.48004v-2.51996c0-.90002,4.41998-3,13-3,1.06,0,2.06.02997,3,.08997v34.91003ZM51,55h-4v-4h4v4ZM51,49h-4v-3h4v3ZM51,44h-4v-3h4v3ZM51,39h-4v-3h4v3ZM51,34h-4v-3h4v3ZM51,29h-4v-3h4v3ZM51,24h-4v-3.73004c1.56.17004,2.89001.42004,4,.70001v3.03003ZM55,55h-2V21.59998c1.32001.52002,2,1.04999,2,1.40002v32Z"/>
        <path d="M21.35352,38.2373c-.54785.46387-5.35352,4.62793-5.35352,7.7627,0,3.30859,2.69141,6,6,6s6-2.69141,6-6c0-3.13477-4.80566-7.29883-5.35352-7.7627-.37305-.31641-.91992-.31641-1.29297,0ZM26,46c0,2.20605-1.79443,4-4,4s-4-1.79395-4-4c0-1.48145,2.24023-4.04004,4.00049-5.66406,1.75977,1.62207,3.99951,4.17969,3.99951,5.66406Z"/>
      </g>
    </g>
  </g>
</svg>