<?xml version="1.0" encoding="UTF-8"?>
<svg xmlns="http://www.w3.org/2000/svg" version="1.1" viewBox="0 0 64 64">
  <!-- Generator: Adobe Illustrator 28.7.1, SVG Export Plug-In . SVG Version: 1.2.0 Build 142)  -->
  <g>
    <g id="Outline">
      <path d="M56,46c.54999,0,1-.45001,1-1v-10c0-.54999-.45001-1-1-1s-1,.45001-1,1v3h-5v-5c0-1.65002-1.34998-3-3-3h-1v-2h3c.34998,0,.66998-.17999.84998-.47003.18005-.29999.20001-.66998.04004-.97998l-2.67004-5.34998,4.78003-4.79004v1.59003c0,.54999.45001,1,1,1s1-.45001,1-1v-4c0-.40002-.23999-.77002-.62-.92004-.37-.15997-.79999-.06995-1.09003.21002l-6.69995,6.71002h-6.59003c-.54999,0-1,.45001-1,1v9h-4v-1c0-1.35004-.90997-2.48999-2.14001-2.85999l-2.71997-14.51001c-.17999-.94-1.01001-1.63-1.97003-1.63h-.16998v-2c0-.54999-.45001-1-1-1s-1,.45001-1,1v2h-.16998c-.96002,0-1.79004.69-1.97003,1.63l-2.71997,14.51001c-1.23004.37-2.14001,1.50995-2.14001,2.85999v1h-1c-1.65002,0-3,1.34998-3,3v5h-5v-3c0-.54999-.45001-1-1-1s-1,.45001-1,1v10c0,.54999.45001,1,1,1h5v3.88c-1.84003-.61005-3.89001-.37-5.56.73999-.27002.19-.44.5-.44.83997v4.54004c0,.37.20001.70996.53003.88.31995.17999.71997.15997,1.02997-.05005,1.47998-.98999,3.40002-.98999,4.88,0,.34003.23004.77997.23004,1.12,0,1.47998-.98999,3.40002-.98999,4.88,0,.34003.23004.77997.23004,1.12,0,1.47998-.98999,3.40002-.98999,4.88,0,.34003.23004.77997.23004,1.12,0,1.47998-.98999,3.40002-.98999,4.88,0,.34003.23004.77997.23004,1.12,0,1.47998-.98999,3.40002-.98999,4.88,0,.34003.23004.77997.23004,1.12,0,1.47998-.98999,3.40002-.98999,4.88,0,.34003.23004.77997.23004,1.12,0,1.47998-.98999,3.40002-.98999,4.88,0,.34003.23004.77997.23004,1.12,0,1.47998-.98999,3.40002-.98999,4.88,0,.16998.11005.37.17004.56.17004.15997,0,.32001-.04004.46997-.12.33002-.17004.53003-.51001.53003-.88v-4.54004c0-.33997-.16998-.64996-.44-.83997-1.66998-1.10999-3.71997-1.35004-5.56-.73999v-3.88h5ZM40,22h5.38l2,4h-7.38v-4ZM40,28h4v2h-4v-2ZM24.83002,12h2.33997l.37,2h-3.07996l.37-2ZM24.08002,16h3.83997l.75,4h-5.33997l.75-4ZM22.96002,22h6.07996l.75,4h-7.57996l.75-4ZM20,29c0-.54999.45001-1,1-1h10c.54999,0,1,.45001,1,1v1h-12v-1ZM16,33c0-.54999.45001-1,1-1h30c.54999,0,1,.45001,1,1v5h-8v-3c0-.54999-.45001-1-1-1h-14c-.54999,0-1,.45001-1,1v3h-8v-5ZM38,36v2h-12v-2h12ZM55,52.02997v2.38c-1.64001-.53998-3.44-.39996-5,.42999-.94-.5-1.96997-.75-3-.75s-2.06.25-3,.75c-1.88-1-4.12-1-6,0-1.88-1-4.12-1-6,0-1.88-1-4.12-1-6,0-1.88-1-4.12-1-6,0-1.88-1-4.12-1-6,0-1.56-.82996-3.35999-.96997-5-.42999v-2.38c1.40997-.72998,3.09998-.63995,4.44.26001.02997.01001.06.02002.09003.03998.04999.02002.08997.05005.13995.06006.08002.02997.16003.03998.23999.04999.03003,0,.06.01996.09003.01996s.06-.01996.09003-.01996c.07996-.01001.15997-.02002.23999-.04999.04999-.01001.08997-.04004.13995-.06006.03003-.01996.06006-.02997.09003-.03998,1.47998-.98999,3.40002-.98999,4.88,0,.34003.22003.77997.22003,1.12,0,1.47998-.98999,3.40002-.98999,4.88,0,.34003.22003.77997.22003,1.12,0,1.47998-.98999,3.40002-.98999,4.88,0,.34003.22003.77997.22003,1.12,0,1.47998-.98999,3.40002-.98999,4.88,0,.34003.22003.77997.22003,1.12,0,1.47998-.98999,3.40002-.98999,4.88,0,.34003.22003.77997.22003,1.12,0,1.47998-.98999,3.40002-.98999,4.88,0,.02997.01001.06.02002.09003.03998.04999.02002.08997.05005.13995.06006.08002.02997.16003.03998.23999.04999.03003,0,.06.01996.09003.01996s.06-.01996.09003-.01996c.07996-.01001.15997-.02002.23999-.04999.04999-.01001.08997-.04004.13995-.06006.03003-.01996.06006-.02997.09003-.03998,1.34003-.89996,3.03003-.98999,4.44-.26001ZM15,49.88v-3.88h5v4.28998c-1.56-.83002-3.35999-.96002-5-.40997ZM22,49.63v-3.63h20v3.63c-1.34998-.21002-2.76001,0-4,.65997-1.88-1-4.12-1-6,0-1.88-1-4.12-1-6,0-1.23999-.65997-2.65002-.87-4-.65997ZM44,50.28998v-4.28998h5v3.88c-1.64001-.55005-3.44-.42004-5,.40997ZM9,44v-4h46v4H9Z"/>
    </g>
  </g>
</svg>