<?xml version="1.0" encoding="UTF-8"?>
<svg xmlns="http://www.w3.org/2000/svg" version="1.1" viewBox="0 0 64 64">
  <!-- Generator: Adobe Illustrator 28.7.1, SVG Export Plug-In . SVG Version: 1.2.0 Build 142)  -->
  <g>
    <g id="Outline">
      <path d="M42.14001,30.19548l.84998-5.07001c.04004-.28998-.03998-.58002-.22998-.81-.19-.21997-.47003-.34998-.76001-.34998h-1.95001c.60999-1.23999.95001-2.60999.95001-4,0-1.62-.83002-3.60004-2.54999-6.08002-.23004-.33002-.64001-.48999-1.03003-.40997-.39996.08997-.70996.40997-.76996.81l-.07001.38995c-.17004.91003-.62,1.72003-1.26001,2.34003.02997-.32001.03998-.64001.03998-.96002,0-1.78998-.39001-3.60999-1.12-5.26996l-1.40997-3.16003c-.13-.29999-.40002-.51001-.72003-.57001-.32996-.07001-.64996.04004-.89001.26001-1.92999,1.88-8.21997,8.35004-8.21997,12.65002,0,1.39001.34003,2.76001.95001,4h-1.95001c-.28998,0-.57001.13-.76001.34998-.19.22998-.27002.52002-.22998.81l.84998,5.07001c-1.08997.45001-1.85999,1.52002-1.85999,2.77002,0,1.64996,1.34998,3,3,3h.01001c-.01001.32001-.01001.65997-.01001,1,0,11.58997,3.78998,20,9,20s9-8.41003,9-20c0-.34003,0-.67999-.01001-1h.01001c1.65002,0,3-1.35004,3-3,0-1.25-.77002-2.32001-1.85999-2.77002ZM31.59998,9.7755l.82001,1.82001c.61005,1.39996.94,2.94.94,4.45996,0,.89001-.10999,1.79004-.32996,2.67004-.09003.34998.01996.72998.28998.96997.27002.25.64996.33002,1,.22003,1.58002-.53003,2.85999-1.65002,3.60999-3.10004.85999,1.54999,1.07001,2.54999,1.07001,3.15002,0,1.45001-.46002,2.82001-1.28998,4h-11.42004c-.82996-1.17999-1.28998-2.54999-1.28998-4,0-2.53003,3.35999-6.85999,6.59998-10.19ZM40.82001,25.9655l-.66998,4h-16.30005l-.66998-4h17.64001ZM32,54.9655c-3.37,0-7-6.88-7-18,0-.34003,0-.67999.01001-1h13.97998c.01001.32001.01001.65997.01001,1,0,11.12-3.63,18-7,18ZM41,33.9655h-18c-.54999,0-1-.45001-1-1s.45001-1,1-1h18c.54999,0,1,.45001,1,1s-.45001,1-1,1Z"/>
    </g>
  </g>
</svg>