<?xml version="1.0" encoding="UTF-8"?>
<svg id="Outline" xmlns="http://www.w3.org/2000/svg" version="1.1" viewBox="0 0 64 64">
  <path d="M53,7h-22c-2.20557,0-4,1.79395-4,4v9.28998l-19.33057,6.76569c-.40088.14062-.66943.51953-.66943.94434v21c0,.4248.26855.80371.66943.94434,0,0,20,7,20.00001,7,.22163.07691.43809.06372.66112,0l20-7c.40088-.14062.66943-.51953.66943-.94434v-21c0-.4248-.26855-.80371-.66943-.94434l-15.33057-5.36572v-4.68994h18v17c0,.55273.44775,1,1,1s1-.44727,1-1v-18c0-.55273-.44775-1-1-1h-20c-.55225,0-1,.44727-1,1v4.98999l-2-.70001v-9.28998c0-1.10254.89697-2,2-2h22c1.10303,0,2,.89746,2,2v6c0,.55273.44775,1,1,1s1-.44727,1-1v-6c0-2.20605-1.79443-4-4-4ZM44.97156,28l-16.97156,5.94043-16.97156-5.94043,16.97156-5.94043,16.97156,5.94043ZM47,44.2796l-10,3.3327v-1.8916l10-3.33362v1.89252ZM9,42.38708l10,3.33362v1.8916l-10-3.3327v-1.89252ZM9,46.38702l10.68359,3.56122c.10347.03514.20986.05174.31649.05176.54149-.00005.99992-.45633.99992-1v-4c0-.43066-.27539-.8125-.68359-.94824l-11.31641-3.77216v-1.89258l10.68359,3.56122c.50436.16812,1.09083-.10892,1.26514-.63184.1748-.52441-.1084-1.09082-.63232-1.26465l-11.31641-3.77216v-6.86957l18,6.29956v18.8808l-18-6.30035v-1.90302ZM29,54.59039v-18.8808l18-6.29956v6.86957l-11.31641,3.77216c-.52391.17382-.80711.7402-.63234,1.2646.1706.51189.75397.80307,1.26515.63188l10.68359-3.56122v1.89258l-11.31641,3.77216c-.4082.13574-.68359.51758-.68359.94824v3.99997c0,.64564.69772,1.15839,1.31641.94827l10.68359-3.56122v1.90302l-18,6.30035Z" fill="#000" stroke-width="0"/>
  <path d="M56,24c-.55225,0-1,.44727-1,1v9c0,.55273.44775,1,1,1s1-.44727,1-1v-9c0-.55273-.44775-1-1-1Z" fill="#000" stroke-width="0"/>
  <path d="M40,11c-.55225,0-1,.44727-1,1s.44775,1,1,1h4c.55225,0,1-.44727,1-1s-.44775-1-1-1h-4Z" fill="#000" stroke-width="0"/>
  <circle cx="56" cy="21" r="1" fill="#000" stroke-width="0"/>
</svg>