<?xml version="1.0" encoding="UTF-8"?>
<svg id="Outline" xmlns="http://www.w3.org/2000/svg" version="1.1" viewBox="0 0 48 48">
  <path d="M36.02637,9.97168c-3.21777-3.20605-7.48828-4.97168-12.02637-4.97168-9.37402,0-17,7.62598-17,17v6c0,.29132.12872.54779.3418.75293l16,14c.37226.32597.94401.32608,1.3164,0,0,0,16-14,16.00659-14.01703.20264-.18292.33521-.44104.33521-.7359v-6c0-4.5376-1.76562-8.80859-4.97363-12.02832ZM9.04218,27.58301c.2052-1.45581,1.44629-2.58301,2.95782-2.58301,1.6543,0,3,1.3457,3,3,0,.16563.04919.35147.13184.49609l5.04596,8.83044-11.13562-9.74353ZM23,38.23462l-5.97723-10.46014c.11761-1.54749,1.40015-2.77448,2.97723-2.77448,1.6543,0,3,1.3457,3,3v10.23462ZM27.8222,37.32654s5.04596-8.83044,5.04605-8.83061c.08269-.14466.13174-.33009.13174-.49593,0-1.6543,1.3457-3,3-3,1.51154,0,2.75262,1.1272,2.95782,2.58301l-11.13562,9.74353ZM25,38.23462v-10.23462c0-1.6543,1.3457-3,3-3,1.57709,0,2.85962,1.22699,2.97723,2.77448l-5.97723,10.46014ZM39,24.00244c-.83594-.62891-1.875-1.00244-3-1.00244-1.63379,0-3.08691.7876-4,2.00293-.91309-1.21533-2.36621-2.00293-4-2.00293s-3.08691.7876-4,2.00293c-.91309-1.21533-2.36621-2.00293-4-2.00293s-3.08691.7876-4,2.00293c-.91309-1.21533-2.36621-2.00293-4-2.00293-1.125,0-2.16406.37354-3,1.00244v-2.00244c0-8.271,6.72852-15,15-15,4.00488,0,7.77441,1.55859,10.6123,4.38623,2.8291,2.83936,4.3877,6.60889,4.3877,10.61377v2.00244Z" fill="#000" stroke-width="0"/>
  <path d="M33,15H15c-1.10254,0-2,.89697-2,2v2c0,1.10303.89746,2,2,2h18c1.10254,0,2-.89697,2-2v-2c0-1.10303-.89746-2-2-2ZM15,19v-2h18l.00098,2H15Z" fill="#000" stroke-width="0"/>
</svg>