<?xml version="1.0" encoding="UTF-8"?>
<svg xmlns="http://www.w3.org/2000/svg" version="1.1" viewBox="0 0 64 64">
  <!-- Generator: Adobe Illustrator 28.7.1, SVG Export Plug-In . SVG Version: 1.2.0 Build 142)  -->
  <g>
    <g id="Outline">
      <path d="M54.51001,34.14128c-.23999.5-.03003,1.09998.45996,1.33997.5.23999,1.10004.03003,1.34003-.46002.46002-.94.69-1.95996.69-3.01996v-2c0-.54999-.45001-1-1-1h-2c-1.96002,0-3.72998.81-5,2.10999v-3.10999h1c2.76001,0,5-2.23999,5-5v-2c0-.54999-.45001-1-1-1h-2c-1.13,0-2.15997.39001-3,1.02997v-1.62l1.66998-1.66998c2.34003-2.34003,2.34003-6.14001,0-8.47998l-1.95996-1.97003c-.39001-.39001-1.03003-.39001-1.42004,0l-1.95996,1.97003c-2.34003,2.33997-2.34003,6.13995,0,8.47998l1.66998,1.66998v1.62c-.84003-.63995-1.87-1.02997-3-1.02997h-2c-.54999,0-1,.45001-1,1v2c0,2.76001,2.23999,5,5,5h1v3.10999c-1.27002-1.29999-3.03998-2.10999-5-2.10999h-2c-.54999,0-1,.45001-1,1v2c0,3.85999,3.14001,7,7,7h1v4.42999c-.12.06-.23999.10999-.34998.16998-.94-1.01001-2.26001-1.59998-3.65002-1.59998s-2.71002.58997-3.65002,1.59998c-1.47998-.81-3.34998-.78998-4.84998.09003-1.07001-.63-2.32001-.81-3.5-.57001v-5.12h1c2.76001,0,5-2.23999,5-5v-2c0-.54999-.45001-1-1-1h-2c-1.13,0-2.15997.39001-3,1.02997v-2.62l1.66998-1.66998c2.34003-2.34003,2.34003-6.14001,0-8.47998l-1.95996-1.97003c-.39001-.39001-1.03003-.39001-1.42004,0l-1.95996,1.97003c-2.34003,2.33997-2.34003,6.13995,0,8.47998l1.66998,1.66998v2.62c-.84003-.63995-1.87-1.02997-3-1.02997h-2c-.54999,0-1,.45001-1,1v2c0,2.76001,2.23999,5,5,5h1v5.44c-1.40002-.62-3.03003-.56-4.34998.15997-.94-1.01001-2.26001-1.59998-3.65002-1.59998-1.09998,0-2.15002.38-3,1.02997v-4.62l1.66998-1.66998c2.34003-2.34003,2.34003-6.14001,0-8.47998l-1.95996-1.97003c-.39001-.39001-1.03003-.39001-1.42004,0l-1.95996,1.97003c-2.34003,2.33997-2.34003,6.13995,0,8.47998l1.66998,1.66998v4.70001c-.33002-.07001-.65997-.10999-1-.10999-2.76001,0-5,2.23999-5,5,0,.37.03998.73999.12,1.09998-1.77997.40002-3.12,1.98999-3.12,3.90002,0,2.20996,1.78998,4,4,4h8c.54999,0,1-.45001,1-1s-.45001-1-1-1h-8c-1.09998,0-2-.90002-2-2,0-1.10004.90002-2,2-2,.13,0,.26001.01001.38.03998.40002.08002.79999-.08002,1.02997-.39996.23004-.33002.24005-.76001.03003-1.10004-.28998-.47998-.44-1-.44-1.53998,0-1.65002,1.34998-3,3-3,.89001,0,1.53998.39001,1.94.71997.21997.19.52002.27002.81.23004.28998-.05005.53998-.23004.69-.48004.53998-.90997,1.52002-1.46997,2.56-1.46997s2.02002.56,2.56,1.46997c.15002.25.40002.42999.69.48004.28998.03998.59003-.04004.81-.23004.40002-.32996,1.04999-.71997,1.94-.71997.84003,0,1.48999.37,1.88.67999.35999.28998.88.28998,1.23999,0,.39001-.31,1.03998-.67999,1.88-.67999s1.48999.37,1.88.67999c.35999.28998.88.28998,1.23999,0,.39001-.31,1.03998-.67999,1.88-.67999.89001,0,1.53998.39001,1.94.71997.21997.19.52002.27002.81.23004.28998-.05005.53998-.23004.69-.48004.53998-.90997,1.52002-1.46997,2.56-1.46997s2.02002.56,2.56,1.46997c.15002.25.40002.42999.69.48004.28998.03998.59003-.04004.81-.23004.40002-.32996,1.04999-.71997,1.94-.71997,1.65002,0,3,1.34998,3,3,0,.53998-.15002,1.06-.44,1.53998-.21002.34003-.20001.77002.03003,1.10004.22998.31995.62994.47998,1.02997.39996.12-.02997.25-.03998.38-.03998,1.09998,0,2,.89996,2,2,0,1.09998-.90002,2-2,2h-30c-.54999,0-1,.45001-1,1s.45001,1,1,1h30c2.21002,0,4-1.79004,4-4,0-1.91003-1.34003-3.5-3.12-3.90002.08002-.35999.12-.72998.12-1.09998,0-2.76001-2.23999-5-5-5v-4h1c1.06,0,2.08002-.23004,3.02002-.69.48999-.23999.69995-.84003.45996-1.34003-.23999-.48999-.83997-.70001-1.33997-.45996-.66003.32996-1.39001.48999-2.14001.48999h-1v-1c0-2.76001,2.23999-5,5-5h1v1c0,.76001-.15997,1.47998-.48999,2.14001ZM17,32.00127c-.54999,0-1,.45001-1,1v2.58997l-.26001-.26001c-1.56-1.56-1.56-4.09998,0-5.65997l1.26001-1.26001,1.26001,1.26001c1.56,1.56,1.56,4.09998,0,5.65997l-.26001.26001v-2.58997c0-.54999-.45001-1-1-1ZM29,36.00127h-1c-1.65002,0-3-1.35004-3-3v-1h1c1.65002,0,3,1.34998,3,3v1ZM34,32.00127h1v1c0,1.64996-1.34998,3-3,3h-1v-1c0-1.65002,1.34998-3,3-3ZM30,22.00127c-.54999,0-1,.45001-1,1v2.58997l-.26001-.26001c-1.56-1.56-1.56-4.09998,0-5.65997l1.26001-1.26001,1.26001,1.26001c1.56,1.56,1.56,4.09998,0,5.65997l-.26001.26001v-2.58997c0-.54999-.45001-1-1-1ZM47,37.00127h-1c-2.76001,0-5-2.23999-5-5v-1h1c2.76001,0,5,2.23999,5,5v1ZM47,26.00127h-1c-1.65002,0-3-1.35004-3-3v-1h1c1.65002,0,3,1.34998,3,3v1ZM52,22.00127h1v1c0,1.64996-1.34998,3-3,3h-1v-1c0-1.65002,1.34998-3,3-3ZM48,13.00127c-.54999,0-1,.45001-1,1v2.58997l-.26001-.26001c-1.56-1.56-1.56-4.09998,0-5.65997l1.26001-1.26001,1.26001,1.26001c1.56,1.56,1.56,4.09998,0,5.65997l-.26001.26001v-2.58997c0-.54999-.45001-1-1-1Z"/>
    </g>
  </g>
</svg>