<?xml version="1.0" encoding="UTF-8"?>
<svg xmlns="http://www.w3.org/2000/svg" version="1.1" viewBox="0 0 64 64">
  <!-- Generator: Adobe Illustrator 28.7.1, SVG Export Plug-In . SVG Version: 1.2.0 Build 142)  -->
  <g>
    <g id="Outline">
      <g>
        <path d="M32,7c-4.45605,0-8.8335,1.19238-12.6582,3.44873-.47559.28076-.63379.89355-.35303,1.36963.28027.4751.89355.63232,1.36963.35303,3.5166-2.07471,7.54248-3.17139,11.6416-3.17139,12.68213,0,23,10.31787,23,23s-10.31787,23-23,23-23-10.31787-23-23c0-5.46387,1.95361-10.75928,5.50049-14.91064.35889-.41992.30908-1.05078-.11084-1.40967-.41846-.35889-1.05127-.30908-1.40967.11084-3.85645,4.51318-5.97998,10.26953-5.97998,16.20947,0,13.78516,11.21484,25,25,25s25-11.21484,25-25S45.78516,7,32,7Z"/>
        <path d="M51,32c0,.55225.44775,1,1,1s1-.44775,1-1c0-11.57959-9.42041-21-21-21-.55225,0-1,.44775-1,1s.44775,1,1,1c10.47656,0,19,8.52344,19,19Z"/>
        <path d="M13,32c0-.55225-.44775-1-1-1s-1,.44775-1,1c0,11.57959,9.42041,21,21,21,.55225,0,1-.44775,1-1s-.44775-1-1-1c-10.47656,0-19-8.52344-19-19Z"/>
        <path d="M26.07764,24.94141c3.04944-2.22955-.36598-7.1367-3.4707-4.89502-4.5249,3.26709-6.97803,8.56348-6.56152,14.16846.59619,8.03613,7.38281,14.52686,15.44971,14.77734.17041.00537.34082.00781.51074.00781,4.17578,0,8.10938-1.59229,11.12451-4.51562,3.14014-3.04443,4.86963-7.12305,4.86963-11.48438,0-5.09909-2.45017-9.9272-6.55413-12.91548-1.48893-1.08416-3.58545-.51639-4.41755,1.08687-.67578,1.30225-.2832,2.8999.93408,3.79932,2.52832,1.86768,4.0376,4.86914,4.0376,8.0293,0,2.81201-1.19922,5.51172-3.29004,7.40771-2.11719,1.92041-4.854,2.82227-7.7168,2.54297-4.34521-.42578-7.9624-3.69092-8.7959-7.93945-.76562-3.90182.72116-7.76018,3.88037-10.06982ZM20.23438,35.396c1.00244,5.10889,5.34619,9.03369,10.56348,9.54492,3.4248.33447,6.71436-.74756,9.25537-3.05176,2.5083-2.27393,3.94678-5.51416,3.94678-8.88916,0-3.79199-1.81299-7.39502-4.84912-9.6377-.42817-.31637-.57126-.83875-.31991-1.32259.2713-.52225.96181-.68575,1.4371-.33854,3.58936,2.61328,5.73193,6.83691,5.73193,11.29883,0,3.81543-1.51367,7.38428-4.26172,10.04834-2.74597,2.66248-6.35083,4.05945-10.18127,3.94482-7.05792-.21924-12.99548-5.89703-13.51746-12.92676-.36425-4.90618,1.7807-9.54136,5.7381-12.3988.99887-.72123,2.11181.93236,1.11932,1.65954-3.79248,2.77246-5.5791,7.39746-4.6626,12.06885Z"/>
        <path d="M29,18.28564v11.42871c0,1.81152,1.3457,3.28564,3,3.28564s3-1.47412,3-3.28564v-11.42871c0-1.81152-1.3457-3.28564-3-3.28564s-3,1.47412-3,3.28564ZM31,18.28564c0-.69678.45801-1.28564,1-1.28564s1,.58887,1,1.28564v11.42871c0,.69678-.45801,1.28564-1,1.28564s-1-.58887-1-1.28564v-11.42871Z"/>
        <path d="M17.21588,14.38098c.4231-.35504.47827-.98578.12323-1.40887-.35498-.42303-.98572-.47821-1.40881-.12323-.42303.35498-.47827.98578-.12323,1.40881.35498.4231.98572.47827,1.40881.12329Z"/>
      </g>
    </g>
  </g>
</svg>