<?xml version="1.0" encoding="UTF-8"?>
<svg xmlns="http://www.w3.org/2000/svg" version="1.1" viewBox="0 0 64 64">
  <!-- Generator: Adobe Illustrator 28.7.1, SVG Export Plug-In . SVG Version: 1.2.0 Build 142)  -->
  <g>
    <g id="Outline">
      <g>
        <path d="M56,37c.54999,0,1-.45001,1-1v-8c0-.54999-.45001-1-1-1h-2.58002c-.54999-2.35999-1.46997-4.58002-2.72998-6.60999l1.82001-1.82001c.39001-.39001.39001-1.03003,0-1.42004l-5.66003-5.65997c-.38995-.39001-1.02997-.39001-1.41998,0l-1.82001,1.82001c-2.02997-1.26001-4.25-2.17999-6.60999-2.73004v-2.57996c0-.54999-.45001-1-1-1h-8c-.54999,0-1,.45001-1,1v2.57996c-2.35999.55005-4.58002,1.47003-6.60999,2.73004l-1.82001-1.82001c-.39001-.39001-1.03003-.39001-1.41998,0l-5.66003,5.65997c-.39001.39001-.39001,1.03003,0,1.42004l1.82001,1.82001c-1.26001,2.02997-2.17999,4.25-2.72998,6.60999h-2.58002c-.54999,0-1,.45001-1,1v8c0,.54999.45001,1,1,1h2.58002c.54999,2.35999,1.46997,4.57996,2.72998,6.60999l-1.82001,1.82001c-.39001.39001-.39001,1.02997,0,1.41998l5.66003,5.66003c.38995.38995,1.02997.38995,1.41998,0l1.82001-1.82001c2.02997,1.26001,4.25,2.17999,6.60999,2.72998v2.58002c0,.54999.45001,1,1,1h8c.54999,0,1-.45001,1-1v-2.58002c1.58002-.37,3.09003-.90997,4.52002-1.59998,1.14996,3.01996,4.06,5.17999,7.47998,5.17999,4.40997,0,8-3.59003,8-8,0-3.42004-2.15997-6.33002-5.17999-7.48004.69-1.42999,1.22998-2.94,1.59998-4.51996h2.58002ZM55,49c0,3.31-2.69,6-6,6s-6-2.69-6-6,2.69-6,6-6,6,2.69,6,6ZM32,48c-8.82001,0-16-7.17999-16-16s7.17999-16,16-16,16,7.17999,16,16-7.17999,16-16,16ZM51.63,35.81c-.37,1.83997-.97998,3.59998-1.81,5.22998-.27002-.02997-.53998-.03998-.82001-.03998-.52002,0-1.03003.04999-1.53003.14996,1.60004-2.69,2.53003-5.81,2.53003-9.14996,0-9.92004-8.07001-18-18-18s-18,8.07996-18,18,8.07001,18,18,18c3.34003,0,6.46002-.92999,9.15002-2.53003-.10004.5-.15002,1.01001-.15002,1.53003,0,.27997.01001.54999.03998.82001-1.63.82996-3.38995,1.44-5.22998,1.81-.46997.08997-.81.5-.81.97998v2.39001h-6v-2.39001c0-.47998-.34003-.89001-.81-.97998-2.66998-.52002-5.15002-1.55005-7.38-3.05005-.40002-.26996-.92999-.20996-1.27002.12006l-1.67999,1.69-4.25-4.25,1.69-1.68005c.34003-.33997.39001-.87.12-1.26996-1.5-2.23004-2.52997-4.71002-3.04999-7.38-.08997-.47003-.5-.81-.97998-.81h-2.39001v-6h2.39001c.47998,0,.89001-.34003.97998-.81.52002-2.67004,1.54999-5.15002,3.04999-7.38.27002-.40002.22003-.92999-.12-1.27002l-1.69-1.67999,4.25-4.25,1.67999,1.69c.34003.33002.87.39001,1.27002.12,2.22998-1.5,4.71002-2.52997,7.38-3.04999.46997-.09003.81-.5.81-.97998v-2.39001h6v2.39001c0,.47998.34003.88995.81.97998,2.66998.52002,5.15002,1.54999,7.38,3.04999.40002.27002.92999.21002,1.27002-.12l1.67999-1.69,4.25,4.25-1.69,1.67999c-.34003.34003-.39001.87-.12,1.27002,1.5,2.22998,2.52997,4.70996,3.04999,7.38.08997.46997.5.81.97998.81h2.39001v6h-2.39001c-.47998,0-.89001.33997-.97998.81Z"/>
        <path d="M44.87939,34.02637c-.5376-.12109-1.07617.20703-1.20264.74414-1.28027,5.43457-6.08203,9.22949-11.67676,9.22949s-10.39648-3.79492-11.67676-9.22949c-.12695-.53711-.66846-.86523-1.20264-.74414-.5376.12695-.87061.66504-.74365,1.20312,1.49365,6.3418,7.09619,10.77051,13.62305,10.77051s12.12939-4.42871,13.62305-10.77051c.12695-.53809-.20605-1.07617-.74365-1.20312Z"/>
        <path d="M19.12061,29.97363c.53418.12109,1.07568-.20703,1.20264-.74414,1.28027-5.43457,6.08203-9.22949,11.67676-9.22949s10.39647,3.79491,11.67675,9.22946c.12489.53014.6751.86437,1.20264.74417.5376-.12695.87061-.66504.74365-1.20312-1.49365-6.3418-7.09619-10.77051-13.62305-10.77051s-12.12939,4.42871-13.62305,10.77051c-.12695.53809.20605,1.07617.74365,1.20312Z"/>
        <path d="M46.70703,48.29297c-.39062-.39062-1.02344-.39062-1.41406,0s-.39062,1.02344,0,1.41406l2,2c.19531.19531.45117.29297.70703.29297s.51172-.09766.70703-.29297l4-4c.39062-.39062.39062-1.02344,0-1.41406s-1.02344-.39062-1.41406,0l-3.29297,3.29297-1.29297-1.29297Z"/>
      </g>
    </g>
  </g>
</svg>