<?xml version="1.0" encoding="UTF-8"?>
<svg id="Outline" xmlns="http://www.w3.org/2000/svg" version="1.1" viewBox="0 0 64 64">
  <path d="M48.2666,7.72461c-.52246-.18018-1.0918.09668-1.27197.61865s.09668,1.09131.61865,1.27197c4.41846,1.52588,7.38672,5.69971,7.38672,10.38477,0,6.06543-4.93457,11-11,11s-11-4.93457-11-11c0-4.68506,2.96826-8.85889,7.38672-10.38477.52197-.18066.79883-.75.61865-1.27197s-.75-.79883-1.27197-.61865c-5.22363,1.80469-8.7334,6.73779-8.7334,12.27539,0,.34027.02527.67432.05109,1.00806l-2.72101-.9519c-.21387-.0752-.44678-.0752-.66064,0l-20,7c-.40088.14014-.66943.51904-.66943.94385v21c0,.4248.26855.80371.66943.94434,0,0,20,7,20.00006,7,.21826.07574.44171.06927.66107,0l20-7c.40088-.14062.66943-.51953.66943-.94434v-17.00287c4.69312-1.9632,8-6.59998,8-11.99713,0-5.5376-3.50977-10.4707-8.7334-12.27539ZM9,42.38708l10,3.33362v1.8916l-10-3.3327v-1.89252ZM27,54.59039l-18-6.30035v-1.90302l10.68359,3.56122c.62885.21356,1.31641-.28387,1.31641-.94824v-4c0-.43066-.27539-.8125-.68359-.94824l-11.31641-3.77216v-1.89258l10.68359,3.56122c.10498.03516.21191.05176.31641.05176.41895,0,.80908-.26465.94873-.68359.1748-.52441-.1084-1.09082-.63232-1.26465l-11.31641-3.77216v-6.87006l18,6.30005v18.8808ZM28,33.94043l-16.97284-5.94049,16.97284-5.94037,3.43018,1.19983c.81714,3.14746,2.77509,5.83661,5.41803,7.58539l-8.84821,3.09564ZM47,44.2796l-10,3.3327v-1.8916l10-3.33362v1.89252ZM47,36.2796l-11.31641,3.77216c-.52393.17383-.80713.74017-.63232,1.26459.17218.51666.74933.80463,1.26514.6319l10.68359-3.56122v1.89258l-11.31641,3.77216c-.4082.13574-.68359.51758-.68359.94824v3.99994c0,.66187.68341,1.16327,1.31641.9483l10.68359-3.56122v1.90302l-18,6.30035v-18.88074l10.29791-3.60327c1.46045.56927,3.0426.89362,4.70209.89362,1.034,0,2.0351-.13416,3-.36334v3.64294Z" fill="#000" stroke-width="0"/>
  <path d="M37.97021,18.20264l-2.68896,2.77979c-.375.3877-.375,1.00293,0,1.39062,0,0,5.14178,5.31635,5.14746,5.32227.39087.40411,1.04712.40356,1.4375,0l10.85254-11.22021c.375-.3877.375-1.00293,0-1.39062l-2.68896-2.77979c-.37695-.38965-1.06055-.38965-1.4375,0l-7.44482,7.69629-1.73975-1.79834c-.37695-.38965-1.06055-.38965-1.4375,0ZM41.86621,22.13428l7.44482-7.6958,1.29785,1.34131-9.46143,9.78174-3.75635-3.88379,1.29785-1.3418,1.73975,1.79834c.37695.38965,1.06055.38965,1.4375,0Z" fill="#000" stroke-width="0"/>
  <circle cx="44" cy="8" r="1" fill="#000" stroke-width="0"/>
</svg>