<?xml version="1.0" encoding="UTF-8"?>
<svg xmlns="http://www.w3.org/2000/svg" version="1.1" viewBox="0 0 64 64">
  <!-- Generator: Adobe Illustrator 28.7.1, SVG Export Plug-In . SVG Version: 1.2.0 Build 142)  -->
  <g>
    <g id="Outline">
      <g>
        <path d="M56.45126,35.48706h-3v-3c0-.54999-.45001-1-1-1h-2v-2h2c.54999,0,1-.45001,1-1s-.45001-1-1-1h-6c-.54999,0-1,.45001-1,1s.45001,1,1,1h2v2h-2c-.54999,0-1,.45001-1,1v3h-3v-2c0-.54999-.45001-1-1-1h-3.45001c-.45001-3.85004-1.31-7.65002-2.60999-11.33002-.14001-.40002-.52002-.66998-.94-.66998H10.45126c-.41998,0-.79999.26996-.94.66998-3.95001,11.16998-3.95001,23.48999,0,34.65997.14001.40002.52002.67004.94.67004h24c.41998,0,.79999-.27002.94-.67004,1.29999-3.67999,2.15997-7.47998,2.60999-11.32996h3.45001c.54999,0,1-.45001,1-1v-2h9v3c0,.54999.45001,1,1,1h4c.54999,0,1-.45001,1-1v-8c0-.54999-.45001-1-1-1ZM11.16128,22.48706h22.57996c.55005,1.64001,1.01001,3.31,1.39001,5H9.77126c.38-1.69.83997-3.35999,1.39001-5ZM9.45126,47.48706c-.03003,0-.04999.01001-.08002.01996-1.07996-5.95996-1.07996-12.07996,0-18.03998.03003.01001.04999.02002.08002.02002h6.70001c-2.84003,1.98999-4.70001,5.27997-4.70001,9s1.85999,7.01001,4.70001,9h-6.70001ZM22.45126,29.48706c4.96002,0,9,4.03998,9,9s-4.03998,9-9,9-9-4.04004-9-9,4.03998-9,9-9ZM33.74123,54.48706H11.16128c-.55005-1.64001-1.01001-3.31-1.39001-5h25.35999c-.38,1.69-.83997,3.35999-1.39001,5ZM35.53127,47.50702c-.03003-.00995-.04999-.01996-.08002-.01996h-6.70001c2.84003-1.98999,4.70001-5.28003,4.70001-9s-1.85999-7.01001-4.70001-9h6.70001c.03003,0,.04999-.01001.08002-.02002,1.07996,5.96002,1.07996,12.08002,0,18.03998ZM40.45126,42.48706h-2.26001c.21002-2.66003.21002-5.34003,0-8h2.26001v8ZM47.45126,33.48706h4v2h-4v-2ZM55.45126,43.48706h-2v-3c0-.54999-.45001-1-1-1h-10v-2h13v6Z"/>
        <path d="M22.45126,18.48706c1.6543,0,3-1.3457,3-3,0-1.27832-1.52246-3.62012-2.17676-4.56836-.375-.54102-1.27148-.54102-1.64648,0-.6543.94824-2.17676,3.29004-2.17676,4.56836,0,1.6543,1.3457,3,3,3ZM22.45126,13.34058c.5752.9707.99121,1.84082,1,2.14746,0,.55078-.44922.99902-1,.99902-.55176,0-1-.44824-1-.99902.00781-.30566.42383-1.17676,1-2.14746Z"/>
        <path d="M29.45126,15.48706c1.6543,0,3-1.3457,3-3,0-1.27832-1.52246-3.62012-2.17676-4.56836-.375-.54102-1.27148-.54102-1.64648,0-.6543.94824-2.17676,3.29004-2.17676,4.56836,0,1.6543,1.3457,3,3,3ZM29.45126,10.34058c.5752.9707.99121,1.84082,1,2.14746,0,.55078-.44922.99902-1,.99902-.55176,0-1-.44824-1-.99902.00781-.30566.42383-1.17676,1-2.14746Z"/>
        <path d="M15.45126,15.48706c1.6543,0,3-1.3457,3-3,0-1.27832-1.52246-3.62012-2.17676-4.56836-.375-.54102-1.27148-.54102-1.64648,0-.6543.94824-2.17676,3.29004-2.17676,4.56836,0,1.6543,1.3457,3,3,3ZM15.45126,10.34058c.5752.9707.99121,1.84082,1,2.14746,0,.55078-.44922.99902-1,.99902-.55176,0-1-.44824-1-.99902.00781-.30566.42383-1.17676,1-2.14746Z"/>
        <path d="M19.15829,40.19409l2-2c.39062-.39062.39062-1.02344,0-1.41406-.34259-.34259-.86292-.36639-1.25128-.10815.66418-1.29083,1.99506-2.18481,3.54425-2.18481h2c.55273,0,1-.44727,1-1s-.44727-1-1-1h-2c-2.87091,0-5.27423,2.02765-5.8606,4.72534l-.43237-.43237c-.39062-.39062-1.02344-.39062-1.41406,0s-.39062,1.02344,0,1.41406l2,2c.19531.19531.45117.29297.70703.29297s.51172-.09766.70703-.29297Z"/>
        <path d="M29.15829,38.78003l-2-2c-.39062-.39062-1.02344-.39062-1.41406,0l-2,2c-.39062.39062-.39062,1.02344,0,1.41406.34259.34259.86292.36639,1.25128.10815-.66418,1.29083-1.99506,2.18481-3.54425,2.18481h-2c-.55273,0-1,.44727-1,1s.44727,1,1,1h2c2.87091,0,5.27423-2.02765,5.8606-4.72534l.43237.43237c.36716.36716,1.02474.38933,1.41407,0,.39062-.39062.39062-1.02344,0-1.41406Z"/>
      </g>
    </g>
  </g>
</svg>