<?xml version="1.0" encoding="UTF-8"?>
<svg xmlns="http://www.w3.org/2000/svg" version="1.1" viewBox="0 0 64 64">
  <!-- Generator: Adobe Illustrator 28.7.1, SVG Export Plug-In . SVG Version: 1.2.0 Build 142)  -->
  <g>
    <g id="Outline">
      <g>
        <path d="M24.83447,33.08984c-.34375-.43311-.97168-.50684-1.40479-.16455-2.17969,1.72314-3.42969,4.30176-3.42969,7.07471,0,.13281.00146.26514.01025.33545.03723,1.03503.26746,2.03516.64233,2.9809l-.55396-.14838c-.53076-.14453-1.08154.17383-1.22461.70703s.17334,1.08154.70703,1.22461c0,0,2.73193.73242,2.73194.73242.52537.1419,1.08487-.18305,1.2246-.70703l.73193-2.73242c.14307-.53369-.17383-1.08203-.70703-1.22461-.53662-.146-1.08203.17383-1.22461.70703l-.02948.10992c-.16699-.56982-.28052-1.16162-.30353-1.78278-.00635-.06689-.00488-.13477-.00488-.20215,0-2.15771.97314-4.16406,2.66992-5.50537.43311-.34277.50684-.97168.16455-1.40479Z"/>
        <path d="M33.7915,47.61719c.87708-.5506,1.62671-1.24738,2.25598-2.04028l.14685.5481c.11959.44663.52316.7415.96492.7417.64871.00027,1.13523-.63017.96672-1.25928l-.73193-2.7324c-.13163-.49139-.72072-.84336-1.22461-.70705l-2.73193.73242c-.53369.14307-.8501.69141-.70703,1.22461s.69238.854,1.22461.70703l.12091-.03241c-.40186.42224-.84576.80823-1.35187,1.12567-1.85986,1.18115-4.28564,1.39453-6.32178.57715-.51367-.20703-1.09473.04199-1.30029.55518-.20605.51221.04248,1.09473.55518,1.30029,1.06055.42627,2.18506.64209,3.34277.64209,1.70752,0,3.36572-.479,4.7915-1.38281Z"/>
        <path d="M27.18889,32.58029c.03049.04533.06518.08783.10408.12674l1.99999,1.99999c.36713.36713,1.0341.37997,1.41407,0,.39062-.39062.39062-1.02344,0-1.41406l-.07959-.07959c.56647.13757,1.12268.32825,1.63965.60303,1.97607,1.03223,3.34521,2.9707,3.66309,5.18555.07129.49854.49902.85791.98835.85791.60016-.00004,1.07654-.54666.99114-1.14209-.40869-2.84961-2.17188-5.34473-4.70996-6.67041-.9035-.48071-1.89203-.78339-2.90045-.93256l.40778-.40778c.39062-.39062.39062-1.02344,0-1.41406s-1.02344-.39062-1.41406,0l-1.99999,1.99999c-.32031.32031-.36159.90455-.10409,1.28733Z"/>
        <path d="M54.58002,15.19c-.26001-.19-.59003-.23999-.90002-.14001l-5.83997,1.95001h-2.16003l-3.75-9.37c-.14996-.38-.52002-.63-.92999-.63h-24c-.40997,0-.78003.25-.92999.63l-3.75,9.37h-2.32001c-.54999,0-1,.45001-1,1v4c0,.54999.45001,1,1,1h1.10999l3.90002,33.12c.06.5.47998.88.98999.88h26c.51001,0,.92999-.38.98999-.88l3.90002-33.12h1.10999c.10999,0,.21002-.02002.32001-.04999l6-2c.39996-.14001.67999-.52002.67999-.95001v-4c0-.32001-.15002-.62-.41998-.81ZM17.67999,9h3.32001v5c0,.54999.45001,1,1,1h2c.54999,0,1-.45001,1-1s-.45001-1-1-1h-1v-4h12v4h-7c-.54999,0-1,.45001-1,1s.45001,1,1,1h8c.54999,0,1-.45001,1-1v-5h3.32001l3.20001,8H14.47998l3.20001-8ZM41.58002,51h-13.58002c-.54999,0-1,.45001-1,1s.45001,1,1,1h13.34998l-.23999,2h-24.21997l-.23999-2h7.34998c.54999,0,1-.45001,1-1s-.45001-1-1-1h-7.58002l-2.82001-24h30.80005l-2.82001,24ZM44.64001,25H13.35999l-.23999-2h31.76001l-.23999,2ZM53,19.27997l-5.15997,1.72003H11v-2h37c.10999,0,.21002-.02002.32001-.04999l4.67999-1.56v1.88995Z"/>
      </g>
    </g>
  </g>
</svg>