<?xml version="1.0" encoding="UTF-8"?>
<svg xmlns="http://www.w3.org/2000/svg" version="1.1" viewBox="0 0 64 64">
  <!-- Generator: Adobe Illustrator 28.7.1, SVG Export Plug-In . SVG Version: 1.2.0 Build 142)  -->
  <g>
    <g id="Outline">
      <g>
        <path d="M49.67773,47.26367h-2.82812c-.55273,0-1,.44727-1,1s.44727,1,1,1h.323c-.40527.35608-.81372.70825-1.23901,1.03125-4.03711,3.07812-8.85547,4.70508-13.93359,4.70508-12.68262,0-23-10.31738-23-23,0-4.14648,1.11914-8.20801,3.23828-11.74609.2832-.47363.12891-1.08789-.34473-1.37207-.47461-.28223-1.08789-.12891-1.37207.34473-2.30371,3.84766-3.52148,8.26465-3.52148,12.77344,0,13.78516,11.21484,25,25,25,5.51953,0,10.75684-1.76855,15.14453-5.11328.52606-.39935,1.03534-.82983,1.5332-1.27594v.48102c0,.55273.44727,1,1,1s1-.44727,1-1v-2.82812c0-.55273-.44727-1-1-1Z"/>
        <path d="M32,7c-5.51953,0-10.75684,1.76855-15.14453,5.11328-.52606.39935-1.03534.82983-1.5332,1.27594v-.48102c0-.55273-.44727-1-1-1s-1,.44727-1,1v2.82812c0,.55273.44727,1,1,1h2.82812c.55273,0,1-.44727,1-1s-.44727-1-1-1h-.323c.40527-.35608.81372-.70825,1.23901-1.03125,4.03711-3.07812,8.85547-4.70508,13.93359-4.70508,12.68262,0,23,10.31738,23,23,0,4.14648-1.11914,8.20801-3.23828,11.74609-.2832.47363-.12891,1.08789.34476,1.37209.46909.27859,1.09073.1241,1.37204-.34474,2.30371-3.84766,3.52148-8.26465,3.52148-12.77344,0-13.78516-11.21484-25-25-25Z"/>
        <path d="M32,13c-4.34863,0-8.44824,1.43848-11.85449,4.15918-.43164.34473-.50195.97363-.15723,1.40527.34375.43066.97266.50293,1.40527.15723,3.04883-2.43457,6.71582-3.72168,10.60645-3.72168,9.37402,0,17,7.62598,17,17s-7.62598,17-17,17-17-7.62598-17-17c0-3.89062,1.28711-7.55762,3.72168-10.60645.34473-.43164.27441-1.06055-.15723-1.40527-.43164-.3457-1.06055-.27344-1.40527.15723-2.7207,3.40625-4.15918,7.50586-4.15918,11.85449,0,10.47656,8.52344,19,19,19s19-8.52344,19-19-8.52344-19-19-19Z"/>
        <path d="M39,37c.54999,0,1-.45001,1-1v-.20001c0-1.37-.40002-2.71002-1.16998-3.84998-.54004-.82001-.83002-1.77002-.83002-2.75v-2.20001c0-1.29999-.84003-2.40002-2-2.82001v-3.17999c0-1.65002-1.34998-3-3-3h-2c-1.65002,0-3,1.34998-3,3v3.17999c-1.15997.41998-2,1.52002-2,2.82001v2.20001c0,.97998-.28998,1.92999-.83002,2.75-.76996,1.13995-1.16998,2.47998-1.16998,3.84998v7.20001c0,1.64996,1.34998,3,3,3h10c1.65002,0,3-1.35004,3-3v-3c0-.54999-.45001-1-1-1s-1,.45001-1,1v3c0,.54999-.45001,1-1,1h-10c-.54999,0-1-.45001-1-1v-7.20001c0-.97998.28998-1.92999.83002-2.75.76996-1.14001,1.16998-2.47998,1.16998-3.84998v-2.20001c0-.54999.45001-1,1-1h6c.54999,0,1,.45001,1,1v2.20001c0,1.37.40002,2.70996,1.16998,3.84998.54004.82001.83002,1.77002.83002,2.75v.20001c0,.54999.45001,1,1,1ZM34,24h-4v-3c0-.54999.45001-1,1-1h2c.54999,0,1,.45001,1,1v3Z"/>
        <path d="M29,34c-.55273,0-1,.44727-1,1v6c0,.55273.44727,1,1,1h6c.55273,0,1-.44727,1-1v-6c0-.55273-.44727-1-1-1h-6ZM34,40h-4v-4h4v4Z"/>
      </g>
    </g>
  </g>
</svg>