<?xml version="1.0" encoding="UTF-8"?>
<svg xmlns="http://www.w3.org/2000/svg" version="1.1" viewBox="0 0 64 64">
  <!-- Generator: Adobe Illustrator 28.7.1, SVG Export Plug-In . SVG Version: 1.2.0 Build 142)  -->
  <g>
    <g id="Outline">
      <g>
        <path d="M21.63477,39.83057c.55225.87646,1.50098,1.3999,2.53711,1.3999h3.82812c.55225,0,1-.44775,1-1s-.44775-1-1-1h-3.82812c-.35059,0-.65869-.16992-.8457-.46631-.18701-.29688-.20752-.64844-.05615-.96484l2.25122-4.71246.11743.37457c.16255.51848.7356.81724,1.25342.65479.52686-.16504.82031-.72607.65479-1.25342l-.84619-2.69873c-.16455-.52686-.7251-.81787-1.25342-.65479l-2.69922.84619c-.52686.16504-.82031.72607-.65479,1.25342.16553.52686.72852.82178,1.25342.65479l.41309-.12946-2.29443,4.8028c-.44678.93506-.3833,2.01709.16943,2.89355Z"/>
        <path d="M42.36523,39.83057c.55273-.87646.61621-1.9585.16943-2.89355l-2.93213-6.1377c-.23877-.49951-.83545-.71045-1.3335-.47119-.49805.23828-.70947.83496-.47119,1.3335l2.93213,6.1377c.15137.31641.13086.66797-.05615.96484-.18701.29639-.49512.46631-.8457.46631h-5.12555l.3692-.44141c.35449-.42334.29834-1.0542-.12549-1.40869-.42285-.35498-1.0542-.29834-1.40869.12549l-1.81494,2.16943c-.354.42334-.29834,1.0542.12549,1.40869l2.16895,1.81494c.40956.34272,1.05451.29777,1.40869-.12549.35449-.42334.29834-1.0542-.12549-1.40869l-.16052-.13428h4.68835c1.03613,0,1.98486-.52344,2.53711-1.3999Z"/>
        <path d="M38.15381,23.92676c-.52441-.17871-1.09131.10254-1.26807.62549l-.11523.3396-2.06348-4.31763c-.50342-1.05273-1.54053-1.70654-2.70703-1.70654s-2.20361.65381-2.70703,1.70654l-2.9751,6.2251c-.23828.49805-.02734,1.09521.47119,1.3335.49658.23779,1.09473.02832,1.3335-.47119l2.9751-6.2251c.33984-.71191,1.46484-.71191,1.80469,0l2.10773,4.41022-.44366-.15045c-.52344-.17725-1.09082.10303-1.26807.62549-.17773.52295.10254,1.09082.62549,1.26807,0,0,2.67871.90869,2.67872.9087.5164.17529,1.09298-.10874,1.26805-.62549l.90869-2.67822c.17773-.52295-.10254-1.09082-.62549-1.26807Z"/>
        <path d="M32,7c-13.78516,0-25,11.21484-25,25s11.21484,25,25,25,25-11.21484,25-25S45.78516,7,32,7ZM32,55c-12.68213,0-23-10.31787-23-23s10.31787-23,23-23,23,10.31787,23,23-10.31787,23-23,23Z"/>
        <path d="M19.49902,17.69189c3.81494-3.33301,8.70898-4.97754,13.77783-4.63965,5.06932.3418,9.69723,2.63133,13.03121,6.44673.35983.41179,1.00033.45281,1.41117.09477.41553-.36328.45801-.99512.09473-1.41113-3.68506-4.21729-8.80029-6.74805-14.40283-7.12598-5.59961-.37695-11.01074,1.44434-15.22852,5.12939-.41553.36328-.45801.99512-.09473,1.41113.36377.41602.99463.4585,1.41113.09473Z"/>
        <path d="M44.50098,46.30811c-3.81494,3.3335-8.70508,4.979-13.77783,4.63965-5.06934-.3418-9.69727-2.63135-13.03125-6.44678-.36328-.41553-.99365-.45801-1.41113-.09473-.41553.36328-.45801.99512-.09473,1.41113,3.68506,4.21729,8.80029,6.74805,14.40283,7.12598.48438.03271.96631.04883,1.44727.04883,5.08057,0,9.92822-1.81152,13.78125-5.17822.41553-.36328.45801-.99512.09473-1.41113-.36279-.41455-.99316-.45752-1.41113-.09473Z"/>
        <path d="M26.68803,48.1504c.51885.16885,1.09139-.11926,1.26217-.6382.17236-.52441-.11328-1.08936-.63818-1.26221-6.16797-2.02686-10.31201-7.75342-10.31201-14.25s4.14404-12.22314,10.31201-14.25c.5249-.17285.81055-.73779.63818-1.26221-.17285-.52539-.73779-.80811-1.26221-.63818-6.99121,2.29785-11.68799,8.78809-11.68799,16.15039s4.69678,13.85254,11.68803,16.1504Z"/>
        <path d="M37.31201,15.84961c-.5249-.16943-1.08936.11279-1.26221.63818-.17236.52441.11328,1.08936.63818,1.26221,6.16797,2.02686,10.31201,7.75342,10.31201,14.25s-4.14404,12.22314-10.31201,14.25c-.52488.17285-.81053.73775-.6382,1.26215.17024.51804.74609.80623,1.26222.63824,6.99121-2.29785,11.68799-8.78809,11.68799-16.15039s-4.69678-13.85254-11.68799-16.15039Z"/>
      </g>
    </g>
  </g>
</svg>