<?xml version="1.0" encoding="utf-8"?>
<!-- Generator: Adobe Illustrator 28.2.0, SVG Export Plug-In . SVG Version: 6.00 Build 0)  -->
<svg version="1.1" id="Outline" xmlns="http://www.w3.org/2000/svg" xmlns:xlink="http://www.w3.org/1999/xlink" x="0px" y="0px"
	 viewBox="0 0 64 64" enable-background="new 0 0 64 64" xml:space="preserve">
<g>
	<path d="M29.55664,48.896c0.62305-1.07471,0.62598-2.3584,0.01074-3.42969l-0.76074-1.33984
		c-0.27148-0.47998-0.88086-0.64893-1.36328-0.37598c-0.47949,0.27295-0.64844,0.8833-0.375,1.36328l0.7627,1.34375
		c0.25781,0.44922,0.25586,0.98633-0.00488,1.43652c-0.25977,0.44824-0.72266,0.71582-1.23828,0.71582h-1.85052l0.30267-0.2793
		c0.40527-0.37451,0.43066-1.00732,0.05566-1.41309c-0.37305-0.40527-1.00684-0.43066-1.41309-0.05664l-2.29688,2.12012
		c-0.20312,0.18799-0.31934,0.45166-0.32129,0.729c-0.00196,0.27686,0.11133,0.54199,0.31348,0.73242
		c0,0,2.03799,1.92665,2.04685,1.93503c0.37645,0.35589,1.03513,0.36102,1.41311-0.03952
		c0.37988-0.40137,0.36133-1.03418-0.04004-1.41357l-0.33252-0.31445h2.12256C27.8252,50.60986,28.93555,49.96924,29.55664,48.896z"
		/>
	<path d="M27.60352,37.73975c-0.50391-0.21582-1.0957,0.021-1.31152,0.5293l-0.37958,0.89478
		c-0.02173-0.08807-0.03894-0.17731-0.08624-0.26001l-1.81055-3.1709C23.39355,34.64795,22.27637,34,21.02832,34
		c-1.24902,0-2.36621,0.64795-2.98828,1.73389l-1.81055,3.16992c-0.27441,0.47949-0.10742,1.09033,0.37207,1.36426
		c0.47852,0.27441,1.08984,0.10596,1.36426-0.37207l1.81055-3.16895C20.03711,36.27148,20.50488,36,21.02832,36
		c0.52246,0,0.99023,0.27148,1.25098,0.72607l1.68182,2.94458l-0.49139-0.15112c-0.5293-0.1626-1.08691,0.13477-1.25,0.66113
		c-0.16211,0.52832,0.13379,1.08789,0.66211,1.25c0,0,2.88279,0.88735,2.88866,0.88916
		c0.46099,0.1419,1.01242-0.09026,1.21485-0.56445l1.14844-2.7041C28.34961,38.54297,28.1123,37.95557,27.60352,37.73975z"/>
	<path d="M14.83594,42.05371l-3,0.5c-0.54492,0.09082-0.91309,0.60596-0.82227,1.15088
		c0.09082,0.54443,0.60449,0.91113,1.15039,0.82178l0.94745-0.15778l-0.62128,1.09381
		c-0.61719,1.0752-0.61426,2.35889,0.00879,3.43359c0.62109,1.07324,1.73145,1.71387,2.96875,1.71387h2.55957
		c0.55273,0,1-0.44775,1-1s-0.44727-1-1-1h-2.55957c-0.51562,0-0.97852-0.26758-1.23828-0.71582
		c-0.26074-0.4502-0.2627-0.9873-0.00293-1.44043l0.51587-0.90857c0,0,0.13716,0.43402,0.13745,0.43494
		c0.37743,1.19432,2.29967,0.63869,1.90625-0.60254l-0.83301-2.63867C15.80371,42.26416,15.31836,41.97217,14.83594,42.05371z"/>
	<path d="M56,29h-1v-6c0-0.40002-0.23999-0.77002-0.62-0.92004c-0.37-0.15997-0.79999-0.06995-1.09003,0.21002L48,27.58997V23
		c0-0.40002-0.23999-0.77002-0.62-0.92004c-0.37-0.15997-0.79999-0.06995-1.09003,0.21002L41,27.58997V23
		c0-0.40002-0.23999-0.77002-0.62-0.92004c-0.37-0.15997-0.79999-0.06995-1.09003,0.21002L32.59003,29H20v-2h1
		c0.54999,0,1-0.45001,1-1v-4c0-0.54999-0.45001-1-1-1H11c-0.54999,0-1,0.45001-1,1v4c0,0.54999,0.45001,1,1,1h1v2H8
		c-0.54999,0-1,0.45001-1,1v12c0,0.54999,0.45001,1,1,1s1-0.45001,1-1V31h24c0.27002,0,0.52002-0.10999,0.71002-0.29004L39,25.40997
		V30c0,0.39996,0.23999,0.76996,0.62,0.91998c0.37,0.15997,0.79999,0.07001,1.09003-0.21002L46,25.40997V30
		c0,0.39996,0.23999,0.76996,0.62,0.91998c0.37,0.15997,0.79999,0.07001,1.09003-0.21002L53,25.40997V30c0,0.54999,0.45001,1,1,1h1
		v2H34c-0.54999,0-1,0.45001-1,1v6c0,0.54999,0.45001,1,1,1h21v14h-2V44c0-0.54999-0.45001-1-1-1H34c-0.54999,0-1,0.45001-1,1v11H9
		v-5c0-0.54999-0.45001-1-1-1s-1,0.45001-1,1v6c0,0.54999,0.45001,1,1,1h48c0.54999,0,1-0.45001,1-1V30
		C57,29.45001,56.54999,29,56,29z M18,29h-4v-2h4V29z M12,25v-2h8v2H12z M42,55h-7V45h7V55z M51,55h-7V45h7V55z M40,39h-5v-4h5V39z
		 M48,39h-6v-4h6V39z M55,39h-5v-4h5V39z"/>
	<path d="M14,19h5c0.55273,0,1-0.44775,1-1c0-0.40869,0.24609-0.76074,0.59863-0.91602C21.31445,18.25537,22.59766,19,24,19
		c1.45703,0,2.77539-0.80176,3.47168-2.03613c0.02051,0.00293,0.04102,0.00586,0.06152,0.0083C28.2334,18.2085,29.55176,19,31,19
		c1.45703,0,2.77441-0.80176,3.47168-2.03564c0.67871,0.09277,1.37109,0.00586,2.03906-0.26123
		c1.15332-0.46143,2.03027-1.43945,2.34375-2.61523c0.333-1.24072,0.08496-2.52393-0.67969-3.521
		c-0.66797-0.87061-1.63672-1.41699-2.70801-1.54004C34.76562,7.79102,33.44824,7,32,7c-1.45703,0-2.77539,0.80176-3.47168,2.03613
		c-0.34961-0.04785-0.70703-0.04785-1.05664,0C26.77539,7.80176,25.45703,7,24,7c-1.43555,0-2.74609,0.78027-3.45117,2H18
		c-2.75684,0-5,2.24316-5,5v4C13,18.55225,13.44727,19,14,19z M15,14c0-1.6543,1.3457-3,3-3h3.18359
		c0.42285,0,0.80078-0.2666,0.94238-0.66504C22.40918,9.53662,23.16309,9,24,9c0.89355,0,1.68359,0.60889,1.91992,1.48145
		c0.07422,0.27539,0.26367,0.50635,0.51953,0.6333c0.25488,0.12744,0.55273,0.13916,0.81836,0.03271
		c0.48633-0.19531,0.99805-0.19531,1.48438,0c0.26465,0.10645,0.5625,0.09473,0.81836-0.03271
		c0.25586-0.12695,0.44531-0.35791,0.51953-0.6333C30.31641,9.60889,31.10645,9,32,9c0.84277,0,1.59766,0.5415,1.87793,1.34717
		c0.14746,0.42432,0.54492,0.69824,1.00977,0.66895c0.01465-0.00098,0.09863-0.01074,0.1416-0.01611
		c0.61621,0.00879,1.18262,0.29395,1.55859,0.78418c0.38867,0.50684,0.50781,1.14062,0.33496,1.78662
		c-0.15039,0.56201-0.59277,1.05029-1.1543,1.2749c-0.50781,0.20215-1.01562,0.20605-1.51074,0.00684
		c-0.26465-0.10693-0.56348-0.09521-0.81836,0.03271c-0.25586,0.12695-0.44531,0.35791-0.51953,0.6333
		C32.68359,16.39111,31.89355,17,31,17c-0.84273,0-1.59758-0.54145-1.87789-1.34705
		c-0.13472-0.38719-0.57836-0.6972-1.00981-0.66907C28.08789,14.98584,28.02441,14.99658,28,15
		c-0.24902,0-0.49902-0.0498-0.74219-0.14746c-0.26562-0.10693-0.56348-0.09521-0.81836,0.03271
		c-0.25586,0.12695-0.44531,0.35791-0.51953,0.6333C25.68359,16.39111,24.89355,17,24,17
		c-0.83691,0-1.59082-0.53662-1.87402-1.33496C21.98438,15.2666,21.60645,15,21.18359,15H21c-1.30371,0-2.41602,0.83594-2.8291,2H15
		V14z"/>
	<circle cx="8" cy="46" r="1"/>
</g>
</svg>
