<?xml version="1.0" encoding="UTF-8"?>
<svg xmlns="http://www.w3.org/2000/svg" version="1.1" viewBox="0 0 64 64">
  <!-- Generator: Adobe Illustrator 28.7.1, SVG Export Plug-In . SVG Version: 1.2.0 Build 142)  -->
  <g>
    <g id="Outline">
      <g>
        <path d="M54,8H10c-1.65002,0-3,1.34998-3,3v30c0,1.64996,1.34998,3,3,3h15v4.28998c-2.89001.87-5,3.54999-5,6.71002,0,.54999.45001,1,1,1h22c.54999,0,1-.45001,1-1,0-3.16003-2.10999-5.84003-5-6.71002v-4.28998h15c1.65002,0,3-1.35004,3-3V11c0-1.65002-1.34998-3-3-3ZM41.90002,54h-19.80005c.47003-2.28003,2.48004-4,4.90002-4h10c2.41998,0,4.42999,1.71997,4.90002,4ZM27,48v-4h10v4h-10ZM55,41c0,.54999-.45001,1-1,1h-1v-1c0-.54999-.45001-1-1-1s-1,.45001-1,1v1h-2v-1c0-.54999-.45001-1-1-1s-1,.45001-1,1v1H10c-.54999,0-1-.45001-1-1v-3h46v3ZM55,36H9V11c0-.54999.45001-1,1-1h44c.54999,0,1,.45001,1,1v25Z"/>
        <path d="M52,13h-16c-.55273,0-1,.44727-1,1s.44727,1,1,1h16c.55273,0,1-.44727,1-1s-.44727-1-1-1Z"/>
        <path d="M52,18h-16c-.55273,0-1,.44727-1,1s.44727,1,1,1h16c.55273,0,1-.44727,1-1s-.44727-1-1-1Z"/>
        <path d="M52,23h-16c-.55273,0-1,.44727-1,1s.44727,1,1,1h16c.55273,0,1-.44727,1-1s-.44727-1-1-1Z"/>
        <path d="M52,28H12c-.55273,0-1,.44727-1,1s.44727,1,1,1h40c.55273,0,1-.44727,1-1s-.44727-1-1-1Z"/>
        <path d="M52,32H12c-.55273,0-1,.44727-1,1s.44727,1,1,1h40c.55273,0,1-.44727,1-1s-.44727-1-1-1Z"/>
        <path d="M23,26c3.63867,0,9.11328-5.66602,9.72559-6.3125.36621-.38574.36621-.98926,0-1.375-.6123-.64648-6.08691-6.3125-9.72559-6.3125s-9.11328,5.66602-9.72559,6.3125c-.36621.38574-.36621.98926,0,1.375.6123.64648,6.08691,6.3125,9.72559,6.3125ZM23,14c1.88867,0,5.39648,2.83105,7.59766,5-2.20117,2.16895-5.70898,5-7.59766,5s-5.39648-2.83105-7.59766-5c2.20117-2.16895,5.70898-5,7.59766-5Z"/>
        <path d="M26,19c0-1.6543-1.3457-3-3-3s-3,1.3457-3,3,1.3457,3,3,3,3-1.3457,3-3ZM22,19c0-.55176.44824-1,1-1s1,.44824,1,1-.44824,1-1,1-1-.44824-1-1Z"/>
      </g>
    </g>
  </g>
</svg>