<?xml version="1.0" encoding="UTF-8"?>
<svg xmlns="http://www.w3.org/2000/svg" version="1.1" viewBox="0 0 64 64">
  <!-- Generator: Adobe Illustrator 28.7.1, SVG Export Plug-In . SVG Version: 1.2.0 Build 142)  -->
  <g>
    <g id="Outline">
      <g>
        <path d="M53.96997,26.01996c-.56995-.64996-1.38995-1.01996-2.25-1.01996h-4.71997v-3c0-8.27002-6.72998-15-15-15s-15,6.72998-15,15v3h-4.71997c-.86005,0-1.68005.37-2.25,1.01996-.57001.66003-.83002,1.52002-.72003,2.38l3.23999,24.26001c.33002,2.47003,2.46002,4.34003,4.95001,4.34003h29c2.48999,0,4.62-1.87,4.95001-4.34003l3.23999-24.26001c.10999-.85999-.15002-1.71997-.72003-2.38ZM19,22c0-7.17004,5.83002-13,13-13s13,5.82996,13,13v3h-2v-3c0-6.07001-4.92999-11-11-11s-11,4.92999-11,11v3h-2v-3ZM41,22v3h-18v-3c0-4.96002,4.03998-9,9-9s9,4.03998,9,9ZM49.46997,52.39996c-.19995,1.48004-1.46997,2.60004-2.96997,2.60004h-29c-1.5,0-2.77002-1.12-2.96997-2.60004l-3.24005-24.26996c-.03998-.29004.05005-.57001.24005-.79004.18994-.21997.45996-.33997.75-.33997h39.43994c.29004,0,.56006.12.75.33997.19.22003.28003.5.24005.79004l-3.24005,24.26996Z"/>
        <path d="M38.78003,35.19l-.91003,2.67998c-.17935.52816-.75058.77148-1.27002.63002l-2.67999-.91003c-.51996-.17999-.79999-.75-.62-1.26996.17999-.52002.73999-.80005,1.27002-.62l.44.14996-2.10999-4.40997c-.34003-.72003-1.46002-.72003-1.80005,0l-2.97998,6.21997c-.23999.5-.83002.71002-1.33002.47003s-.70996-.83002-.46997-1.33002l2.96997-6.22998c.51001-1.05005,1.54004-1.70001,2.71002-1.70001s2.20001.64996,2.71002,1.70001l2.06,4.32001.12-.34003c.16998-.52002.73999-.79999,1.26001-.62.52997.16998.81.73999.63,1.26001Z"/>
        <path d="M28,49.23047h-3.82812c-.35059,0-.6582-.16992-.8457-.46631-.18652-.29688-.20801-.64844-.05664-.96484l2.25159-4.71234.11755.37445c.16282.51865.73631.81717,1.25391.65479.52637-.16504.81934-.72656.6543-1.25342l-.84668-2.69873c-.16504-.52637-.72363-.82178-1.25293-.65479l-2.69824.84619c-.52734.16504-.82031.72656-.65527,1.25342.16504.52637.72363.81982,1.25293.65479l.41302-.12952-2.29486,4.80334c-.44629.93506-.38281,2.0166.16992,2.89355.55273.87598,1.50098,1.39941,2.53711,1.39941h3.82812c.55273,0,1-.44775,1-1s-.44727-1-1-1Z"/>
        <path d="M39.60254,40.79932c-.23828-.49902-.83789-.71045-1.33301-.47119-.49902.23828-.70996.83496-.47168,1.3335l2.93262,6.13721c.15137.31689.12988.66846-.05664.96533-.1875.29639-.49512.46631-.8457.46631h-5.12598l.36914-.44141c.35449-.42334.29883-1.0542-.125-1.40869-.42578-.35498-1.05469-.29736-1.4082.12549l-1.81543,2.16943c-.1709.20312-.25293.46582-.22949.72998.02344.26465.15137.5083.35449.67871l2.16992,1.81494c.40585.33945,1.05459.29815,1.40821-.12549.35449-.42383.29883-1.0542-.125-1.40869l-.16046-.13428h4.68781c1.03613,0,1.98437-.52344,2.53711-1.39941.55273-.87695.61621-1.9585.16992-2.89404l-2.93262-6.1377Z"/>
      </g>
    </g>
  </g>
</svg>