<?xml version="1.0" encoding="UTF-8"?>
<svg xmlns="http://www.w3.org/2000/svg" version="1.1" viewBox="0 0 48 48">
  <!-- Generator: Adobe Illustrator 28.7.1, SVG Export Plug-In . SVG Version: 1.2.0 Build 142)  -->
  <g>
    <g id="Outline">
      <g>
        <path d="M42.92999,5.98999c-.03998-.48999-.42999-.88-.91998-.91998-.60004-.05005-5.29004-.38-8.04004.88995-.04999.02002-.08997.04004-.13995.07001-.42004.20001-.79004.45001-1.09003.75l-2.12,2.12-1.69,1.67999-3.64996-1.21997c-.36005-.12-.76001-.02002-1.03003.23999,0,0-2.81,2.82001-2.82001,2.83002-.39001.39001-.39001,1.02997,0,1.41998l2.12,2.12-.97998.97003-5.78003-1.92004c-.35999-.12-.75-.02997-1.01996.24005l-4.23999,4.23999c-.78003.77997-.78003,2.04999,0,2.82996l2.81995,2.83002-1.40997,1.41003c-.78003.77997-.78003,2.04999,0,2.82996l.03998.04004c-1.58997,1.89996-2.44995,4.27997-2.44995,6.78998v.23999c0,.56.43994,1,1,1h.23999c2.51001,0,4.88995-.85999,6.78998-2.45001l.03998.04004c.39001.39001.90002.58002,1.41003.58002s1.02997-.19,1.41998-.58002l1.41003-1.41003,2.82996,2.82001c.76001.76001,2.04004.79004,2.83002,0l4.23999-4.23999c.27002-.27002.35999-.65997.23999-1.02002l-1.91998-5.77997.97003-.97998,2.12,2.12c.38995.38995,1.02997.38995,1.41998,0l2.83002-2.82001c.25995-.27002.35999-.67004.23999-1.03003l-1.22003-3.64996,1.67999-1.69,2.12-2.12c.30005-.30005.55005-.67004.75-1.09003.03003-.04999.05005-.09003.07001-.14001,1.27002-2.75.94-7.42999.89001-8.03998ZM34.15002,8.19l2.13,2.12-1.42004,1.41998-2.12-2.13,1.41003-1.40997ZM25.22998,11.45001l2.12.70996-.73999.73999-1.64996,1.65002-1.41003-1.40997,1.67999-1.69ZM12.94,20.91998l3.81-3.81,4.23999,1.41998-4.20996,4.20001-1.01001,1.02002-2.83002-2.83002ZM12.56,35.44c.15002-1.67999.78998-3.26001,1.83002-4.58002l2.75,2.75c-1.32001,1.03998-2.90002,1.67999-4.58002,1.83002ZM27.08002,35.06l-2.83002-2.83002,1.02002-1.01001,4.19995-4.20996,1.42004,4.23999-3.81,3.81ZM34.85999,24.45001l-1.40997-1.41003,2.39001-2.39001.70996,2.12-1.69,1.68005ZM22.84003,30.82001l-1.41003-1.42004c-.39001-.38995-1.02997-.38995-1.41998,0-.39001.39001-.39001,1.03003,0,1.42004l1.41998,1.40997-1.41998,1.41998-5.66003-5.65997,1.42004-1.41998,1.40997,1.41998c.37.38,1.02002.38,1.41998,0,.39001-.39001.39001-1.03003,0-1.41998l-1.41998-1.41003,14.15002-14.14001,5.64996,5.65002-14.13995,14.15002ZM38.40002,15.26001l-2.13-2.12,1.41998-1.42004,2.12,2.13-1.40997,1.41003ZM40.65997,11.87l-4.52997-4.53003c1.46002-.32001,3.35999-.38,4.85999-.32996.06,1.5-.01001,3.39996-.33002,4.85999Z"/>
        <path d="M22,37c-1.6543,0-3,1.3457-3,3s1.3457,3,3,3,3-1.3457,3-3-1.3457-3-3-3ZM22,41c-.55127,0-1-.44873-1-1s.44873-1,1-1,1,.44873,1,1-.44873,1-1,1Z"/>
        <circle cx="15" cy="40" r="1"/>
        <circle cx="8" cy="34" r="1"/>
        <path d="M8,23c-1.6543,0-3,1.3457-3,3s1.3457,3,3,3,3-1.3457,3-3-1.3457-3-3-3ZM8,27c-.55127,0-1-.44873-1-1s.44873-1,1-1,1,.44873,1,1-.44873,1-1,1Z"/>
      </g>
    </g>
  </g>
</svg>