<?xml version="1.0" encoding="UTF-8"?>
<svg id="Outline" xmlns="http://www.w3.org/2000/svg" version="1.1" viewBox="0 0 48 48">
  <path d="M40,37c-1.30194,0-2.40161.8385-2.81573,2H10.82941c-.41412-1.1615-1.51379-2-2.81573-2-1.6543,0-3,1.3457-3,3s1.3457,3,3,3c1.30194,0,2.40161-.8385,2.81573-2h26.35492c.41412,1.1615,1.51373,2,2.81567,2,1.6543,0,3-1.3457,3-3s-1.3457-3-3-3ZM8.01367,41c-.55127,0-1-.44824-1-1s.44873-1,1-1,1,.44824,1,1-.44873,1-1,1ZM40,41c-.55127,0-1-.44824-1-1s.44873-1,1-1,1,.44824,1,1-.44873,1-1,1Z" fill="#000" stroke-width="0"/>
  <path d="M8.01367,35c1.30194,0,2.40161-.8385,2.81573-2h26.35492c.41412,1.1615,1.51373,2,2.81567,2,1.6543,0,3-1.3457,3-3s-1.3457-3-3-3c-1.30194,0-2.40161.8385-2.81573,2H10.82941c-.41412-1.1615-1.51379-2-2.81573-2-1.6543,0-3,1.3457-3,3s1.3457,3,3,3ZM40,31c.55127,0,1,.44824,1,1s-.44873,1-1,1-1-.44824-1-1,.44873-1,1-1ZM8.01367,31c.55127,0,1,.44824,1,1s-.44873,1-1,1-1-.44824-1-1,.44873-1,1-1Z" fill="#000" stroke-width="0"/>
  <path d="M19,23h10c1.6543,0,3-1.3457,3-3v-8c0-1.6543-1.3457-3-3-3h-10c-1.6543,0-3,1.3457-3,3v8c0,1.6543,1.3457,3,3,3ZM25,11h4c.55127,0,1,.44824,1,1v1h-5v-2ZM18,12c0-.55176.44873-1,1-1h4v2h-5v-1ZM18,15h12v5c0,.55176-.44873,1-1,1h-10c-.55127,0-1-.44824-1-1v-5Z" fill="#000" stroke-width="0"/>
  <circle cx="27" cy="18" r="1" fill="#000" stroke-width="0"/>
  <circle cx="21" cy="18" r="1" fill="#000" stroke-width="0"/>
  <path d="M15,27h5.69727s2.74213,1.82806,2.74805,1.83203c.31097.20728.77484.22363,1.10938,0l2.74805-1.83203h5.69727c1.6543,0,3-1.3457,3-3V8c0-1.6543-1.3457-3-3-3H15c-1.6543,0-3,1.3457-3,3v16c0,1.6543,1.3457,3,3,3ZM14,8c0-.55176.44873-1,1-1h18c.55127,0,1,.44824,1,1v16c0,.55176-.44873,1-1,1h-6c-.19727,0-.39062.05859-.55469.16797l-2.44531,1.62988-2.44531-1.62988c-.16406-.10938-.35742-.16797-.55469-.16797h-6c-.55127,0-1-.44824-1-1V8Z" fill="#000" stroke-width="0"/>
</svg>