<?xml version="1.0" encoding="UTF-8"?>
<svg id="Outline" xmlns="http://www.w3.org/2000/svg" version="1.1" viewBox="0 0 64 64">
  <path d="M56,7H8c-.55273,0-1,.44727-1,1v27c0,.55273.44727,1,1,1s1-.44727,1-1v-18h26c.2168,0,.42676-.07031.59961-.2002l3.7334-2.7998h15.66699v41H9v-12c0-.55273-.44727-1-1-1s-1,.44727-1,1v13c0,.55273.44727,1,1,1h48c.55273,0,1-.44727,1-1V8c0-.55273-.44727-1-1-1ZM39,12c-.2168,0-.42676.07031-.59961.2002l-3.7334,2.7998H9v-6h46v3h-16Z" fill="#000" stroke-width="0"/>
  <circle cx="12" cy="12" r="1" fill="#000" stroke-width="0"/>
  <circle cx="16" cy="12" r="1" fill="#000" stroke-width="0"/>
  <circle cx="20" cy="12" r="1" fill="#000" stroke-width="0"/>
  <path d="M31.58105,19.0918l-13,6c-.35449.16406-.58105.51855-.58105.9082v12c0,.38965.22656.74414.58105.9082,0,0,13,6,13.00005,6.00002.26508.12278.57222.12129.83784-.00002.00002,0,13-6,13-6,.35449-.16406.58105-.51855.58105-.9082v-12c0-.38965-.22656-.74414-.58105-.9082l-13-6c-.26562-.12305-.57227-.12305-.83789,0ZM32,21.10156l10.61365,4.89825-10.61365,4.89862-10.61365-4.89862,10.61365-4.89825ZM20,35.56311l5.08105,2.34509c.48029.22167,1.09562.0126,1.32715-.48926.23145-.50098.0127-1.0957-.48926-1.32715l-5.91895-2.73181v-5.79688l11,5.0769v9.79694l-11-5.0766v-1.79724ZM33,42.43695v-9.79694l11-5.0769v5.79688l-5.91895,2.73181c-.50193.23144-.72069.82613-.48928,1.32709.2284.49447.83336.71668,1.32717.48931l5.08105-2.34509v1.79724l-11,5.0766Z" fill="#000" stroke-width="0"/>
  <path d="M17.70703,46.29297c-.39062-.39062-1.02344-.39062-1.41406,0l-3,3c-.39062.39062-.39062,1.02344,0,1.41406l3,3c.38635.38635,1.02868.38539,1.41407,0,.39062-.39062.39062-1.02344,0-1.41406l-2.29297-2.29297,2.29297-2.29297c.39062-.39062.39062-1.02344,0-1.41406Z" fill="#000" stroke-width="0"/>
  <path d="M46.29297,53.70703c.36996.36995,1.02984.38422,1.41406,0l3-3c.39062-.39062.39062-1.02344,0-1.41406l-3-3c-.39062-.39062-1.02344-.39062-1.41406,0s-.39062,1.02344,0,1.41406l2.29297,2.29297-2.29297,2.29297c-.3906.3906-.39062,1.02335,0,1.41406Z" fill="#000" stroke-width="0"/>
  <path d="M21,50c0,1.6543,1.3457,3,3,3s3-1.3457,3-3-1.3457-3-3-3-3,1.3457-3,3ZM25,50c0,.55176-.44824,1-1,1s-1-.44824-1-1,.44824-1,1-1,1,.44824,1,1Z" fill="#000" stroke-width="0"/>
  <path d="M29,50c0,1.6543,1.3457,3,3,3s3-1.3457,3-3-1.3457-3-3-3-3,1.3457-3,3ZM33,50c0,.55176-.44824,1-1,1s-1-.44824-1-1,.44824-1,1-1,1,.44824,1,1Z" fill="#000" stroke-width="0"/>
  <path d="M37,50c0,1.6543,1.3457,3,3,3s3-1.3457,3-3-1.3457-3-3-3-3,1.3457-3,3ZM41,50c0,.55176-.44824,1-1,1s-1-.44824-1-1,.44824-1,1-1,1,.44824,1,1Z" fill="#000" stroke-width="0"/>
  <path d="M23,19h-11c-.55273,0-1,.44727-1,1s.44727,1,1,1h11c.55273,0,1-.44727,1-1s-.44727-1-1-1Z" fill="#000" stroke-width="0"/>
  <path d="M12,25h3c.55273,0,1-.44727,1-1s-.44727-1-1-1h-3c-.55273,0-1,.44727-1,1s.44727,1,1,1Z" fill="#000" stroke-width="0"/>
  <path d="M12,29h3c.55273,0,1-.44727,1-1s-.44727-1-1-1h-3c-.55273,0-1,.44727-1,1s.44727,1,1,1Z" fill="#000" stroke-width="0"/>
  <path d="M52,16h-12c-.55273,0-1,.44727-1,1s.44727,1,1,1h12c.55273,0,1-.44727,1-1s-.44727-1-1-1Z" fill="#000" stroke-width="0"/>
  <path d="M52,20h-8c-.55273,0-1,.44727-1,1s.44727,1,1,1h8c.55273,0,1-.44727,1-1s-.44727-1-1-1Z" fill="#000" stroke-width="0"/>
  <path d="M52,24h-3c-.55273,0-1,.44727-1,1s.44727,1,1,1h3c.55273,0,1-.44727,1-1s-.44727-1-1-1Z" fill="#000" stroke-width="0"/>
  <path d="M53,29c0-.55273-.44727-1-1-1h-3c-.55273,0-1,.44727-1,1s.44727,1,1,1h3c.55273,0,1-.44727,1-1Z" fill="#000" stroke-width="0"/>
  <circle cx="8" cy="39" r="1" fill="#000" stroke-width="0"/>
</svg>