<?xml version="1.0" encoding="UTF-8"?>
<svg xmlns="http://www.w3.org/2000/svg" version="1.1" viewBox="0 0 64 64">
  <!-- Generator: Adobe Illustrator 28.7.1, SVG Export Plug-In . SVG Version: 1.2.0 Build 142)  -->
  <g>
    <g id="Outline">
      <g>
        <path d="M54,31h-17v-7c1.09998,0,2-.90002,2-2v-2c0-1.10004-.90002-2-2-2v-3.29999h.56c1.90002,0,3.44-1.59003,3.44-3.54004,0-1.94-1.53998-3.52997-3.44-3.52997-.31,0-.62.04999-.91998.13-1.20001-.98004-3.08002-.98004-4.28003,0-.29999-.08002-.60999-.13-.91998-.13-1.90002,0-3.44,1.58997-3.44,3.52997,0,1.81,1.33002,3.31,3.04999,3.51001l-.03998,3.33002h-.01001c-1.09998,0-2,.89996-2,2v2c0,1.09998.90002,2,2,2v7h-3.62l-8.72003-7.75c-.28998-.26001-.70996-.32001-1.06995-.16003-.36005.16003-.59003.52002-.59003.91003v5.91998l-8.38-6.70001c-.29999-.23999-.71002-.28998-1.04999-.12-.35004.16998-.57001.52002-.57001.90002v30c0,1.64996,1.34998,3,3,3h44c1.65002,0,3-1.35004,3-3v-20c0-1.65002-1.34998-3-3-3ZM30,11.15997c0-.83997.65002-1.52997,1.44-1.52997.23999,0,.46997.06.67999.17999.42999.23999.97003.13,1.28003-.26001.53998-.70001,1.65997-.70001,2.19995,0,.31.39001.85004.5,1.28003.26001.21002-.12.44-.17999.67999-.17999.78998,0,1.44.69,1.44,1.52997,0,.85004-.65002,1.54004-1.44,1.54004h-1.56c-.54999,0-1,.44-1,1v4.29999h-1.98999l.04999-4.29004c0-.26996-.10999-.52997-.28998-.71997-.19-.19-.45001-.28998-.71002-.28998h-.62c-.78998,0-1.44-.69-1.44-1.54004ZM31,20h6v2h-6v-2ZM35,24v7h-2v-7h2ZM25,55h-11v-10h11v10ZM55,54c0,.54999-.45001,1-1,1h-27v-11c0-.54999-.45001-1-1-1h-13c-.54999,0-1,.45001-1,1v11h-2c-.54999,0-1-.45001-1-1v-27.92004l8.38,6.70001c.29999.23999.71002.29004,1.04999.12.35004-.16998.57001-.51996.57001-.89996v-5.77002l7.34003,6.52002c.17999.15997.40997.25.65997.25h27c.54999,0,1,.45001,1,1v20Z"/>
        <path d="M17,35h-4c-.55225,0-1,.44775-1,1v4c0,.55225.44775,1,1,1h4c.55225,0,1-.44775,1-1v-4c0-.55225-.44775-1-1-1ZM16,39h-2v-2h2v2Z"/>
        <path d="M26,35h-4c-.55225,0-1,.44775-1,1v4c0,.55225.44775,1,1,1h4c.55225,0,1-.44775,1-1v-4c0-.55225-.44775-1-1-1ZM25,39h-2v-2h2v2Z"/>
        <g>
          <path d="M56.70703,16.22168c-4.28955-4.28857-11.26758-4.2876-15.55615,0-.39062.39062-.39062,1.02344,0,1.41406s1.02344.39062,1.41406,0c3.50976-3.5083,9.2202-3.5083,12.72801-.00002.38617.38623,1.02824.38586,1.41408.00002.39062-.39062.39062-1.02344,0-1.41406Z"/>
          <path d="M48.92871,17.00293c-1.87158,0-3.62939.72705-4.94922,2.04736-.39062.39062-.39062,1.02393,0,1.41406.39062.39062,1.02344.39062,1.41406,0,.94238-.94238,2.19775-1.46143,3.53516-1.46143,1.33789,0,2.59326.51904,3.53564,1.46136.37203.372,1.02556.38857,1.41407.00006.39062-.39014.39062-1.02344,0-1.41406-1.31982-1.32031-3.07764-2.04736-4.94971-2.04736Z"/>
        </g>
        <path d="M51.05029,23.29297c.39062-.39062.39062-1.02344,0-1.41406-1.1709-1.1709-3.07373-1.16992-4.24268,0-.39062.39062-.39062,1.02344,0,1.41406s1.02344.39062,1.41406,0c.38914-.39061,1.02436-.38965,1.4145-.00005.38488.38434,1.03058.38358,1.41411.00005Z"/>
        <circle cx="49" cy="26" r="1"/>
        <path d="M50,45c.54999,0,1-.45001,1-1s-.45001-1-1-1h-1v-2h1c.54999,0,1-.45001,1-1s-.45001-1-1-1h-1.17999c-.31-.85004-.97003-1.51001-1.82001-1.82001v-1.17999c0-.54999-.45001-1-1-1s-1,.45001-1,1v1h-2v-1c0-.54999-.45001-1-1-1s-1,.45001-1,1v1h-2v-1c0-.54999-.45001-1-1-1s-1,.45001-1,1v1.17999c-.84998.31-1.51001.96997-1.82001,1.82001h-1.17999c-.54999,0-1,.45001-1,1s.45001,1,1,1h1v2h-1c-.54999,0-1,.45001-1,1s.45001,1,1,1h1v2h-1c-.54999,0-1,.45001-1,1s.45001,1,1,1h1.17999c.31.84998.97003,1.51001,1.82001,1.82001v1.17999c0,.54999.45001,1,1,1s1-.45001,1-1v-1h2v1c0,.54999.45001,1,1,1s1-.45001,1-1v-1h2v1c0,.54999.45001,1,1,1s1-.45001,1-1v-1.17999c.84998-.31,1.51001-.97003,1.82001-1.82001h1.17999c.54999,0,1-.45001,1-1s-.45001-1-1-1h-1v-2h1ZM47,48c0,.54999-.45001,1-1,1h-8c-.54999,0-1-.45001-1-1v-8c0-.54999.45001-1,1-1h8c.54999,0,1,.45001,1,1v8Z"/>
        <path d="M44,41h-4c-.55225,0-1,.44775-1,1v4c0,.55225.44775,1,1,1h4c.55225,0,1-.44775,1-1v-4c0-.55225-.44775-1-1-1ZM43,45h-2v-2h2v2Z"/>
      </g>
    </g>
  </g>
</svg>