<?xml version="1.0" encoding="UTF-8"?>
<svg xmlns="http://www.w3.org/2000/svg" version="1.1" viewBox="0 0 64 64">
  <!-- Generator: Adobe Illustrator 28.7.1, SVG Export Plug-In . SVG Version: 1.2.0 Build 142)  -->
  <g>
    <g id="Outline">
      <g>
        <path d="M34.6962,41.37203c-.00824-.00885-.0108-.02057-.01941-.02917-.00842-.00842-.01984-.01086-.02844-.01892l-8.20026-8.24298,5.23456-24.8924c.11328-.54102-.23242-1.07129-.77246-1.18457-.53906-.11523-1.07129.23242-1.18457.77246l-2.89117,13.74872-8.70905-3.18488.87073-10.23572c.04688-.55078-.36133-1.03418-.91113-1.08105-.56836-.05566-1.03516.36035-1.08105.91113l-1.79382,21.08685c-2.72333,3.04938-4.92493,6.4975-6.54309,10.24713l-1.58496,3.67188c-.21875.50684.01465,1.0957.52148,1.31445,0,0,29.37341,12.67981,29.37988,12.68262.50146.21643,1.09729-.01898,1.31445-.52148l1.58496-3.67285c1.12598-2.6084.55859-5.59473-1.44434-7.60938l-3.74231-3.76184ZM17.94962,20.40633l8.46881,3.09705-1.8999,9.03473c-2.4057.38287-4.81628-.48749-6.41302-2.37006l-.89636-1.05719.74048-8.70453ZM36.85843,54.70516l-27.54395-11.88965.79199-1.83594,27.54388,11.88885-.79193,1.83673ZM38.34965,50.99209l-27.4375-11.84357c1.37305-2.9541,3.13574-5.69824,5.25098-8.17871l.41699.49121c2.10059,2.47656,5.29688,3.60742,8.4541,3.03418l1.53406,1.54211-1.27527,1.27527c-.39062.39056-.39062,1.02338-.00006,1.414.37103.37109,1.0191.39508,1.41412.00006l1.27161-1.27161,1.58185,1.59003-1.26752,1.26752c-.39056.39056-.39062,1.02319-.00018,1.41382.3645.36475,1.026.38843,1.41425.00024l1.26379-1.26379,1.58185,1.59003-1.2597,1.2597c-.39056.39056-.39062,1.02332-.00012,1.41394.36932.36938,1.02478.38953,1.41418.00012l1.25604-1.25604,3.05743,3.07343c1.18256,1.18939,1.66016,2.85535,1.3291,4.44806Z"/>
        <path d="M44.00004,16.01961c-7.16797,0-13,5.83203-13,13s5.83203,13,13,13,13-5.83203,13-13-5.83203-13-13-13ZM52.93003,22.6213c1.25995,1.7533,2.0174,3.88641,2.05975,6.19556l-2.91553-2.46326.85577-3.7323ZM51.29392,20.80813l-1.1889,5.18323-1.80585.91583-3.29913-2.39679v-1.8537l5.43921-2.53644c.29669.21533.58124.4447.85468.68787ZM47.03031,28.45711l-1.15723,3.5625h-3.74609l-1.15723-3.5625,3.03027-2.20117,3.03027,2.20117ZM44.00004,18.01961c1.53131,0,2.98956.31628,4.31549.88409l-4.31549,2.01245-4.31549-2.01245c1.32593-.56781,2.78418-.88409,4.31549-.88409ZM37.56083,20.12026l5.43921,2.53644v1.8537l-3.29913,2.39679-1.80585-.91583-1.1889-5.18323c.27344-.24316.55798-.47253.85468-.68787ZM35.07004,22.6213l.85577,3.7323-2.91553,2.46326c.04236-2.30914.7998-4.44226,2.05975-6.19556ZM35.67325,36.18661h3.04846l1.07104,2.99298c-1.59955-.66486-3.0047-1.69965-4.11951-2.99298ZM39.01176,34.18661h-4.71686c-.48682-.91064-.8515-1.89587-1.06659-2.93585l3.98242-3.36462,1.76044.89276,1.33606,4.11224-1.29547,1.29547ZM45.84257,39.85262c-.60046.10193-1.21344.16699-1.84253.16699s-1.24207-.06506-1.84253-.16699l-1.5769-4.40674,1.42627-1.42627h3.98633l1.42627,1.42627-1.5769,4.40674ZM48.20731,39.17959l1.07104-2.99298h3.04846c-1.11481,1.29333-2.51996,2.32812-4.11951,2.99298ZM53.70518,34.18661h-4.71686l-1.29547-1.29547,1.33606-4.11224,1.76044-.89276,3.98242,3.36462c-.21509,1.03998-.57977,2.02521-1.06659,2.93585Z"/>
      </g>
    </g>
  </g>
</svg>