<?xml version="1.0" encoding="utf-8"?>
<!-- Generator: Adobe Illustrator 28.2.0, SVG Export Plug-In . SVG Version: 6.00 Build 0)  -->
<svg version="1.1" id="Outline" xmlns="http://www.w3.org/2000/svg" xmlns:xlink="http://www.w3.org/1999/xlink" x="0px" y="0px"
	 viewBox="0 0 64 64" enable-background="new 0 0 64 64" xml:space="preserve">
<g>
	<path d="M19.60677,25c0.44336,0,0.83398-0.29199,0.95947-0.71729c0.18896-0.6416,0.66211-1.12842,1.29834-1.33496
		c0.63525-0.20557,1.3042-0.09131,1.83447,0.31689c0.35107,0.27002,0.83789,0.27686,1.19727,0.0166
		c0.35889-0.26074,0.50342-0.72607,0.35498-1.14404c-0.22412-0.63037-0.12744-1.30225,0.26562-1.84326
		c0.39355-0.5415,1.02734-0.84033,1.67041-0.82227c0.47705,0.03613,0.8418-0.26904,0.979-0.69043
		c0.13672-0.42188-0.02002-0.8833-0.38574-1.13379C27.22884,17.26904,26.91243,16.66895,26.91243,16
		s0.31641-1.26904,0.86816-1.64746c0.36572-0.25049,0.52246-0.71191,0.38574-1.13379
		c-0.13428-0.4126-0.51904-0.69092-0.95117-0.69092c-0.00879,0-0.01807,0-0.02783,0.00049
		c-0.64014,0.02832-1.27686-0.28076-1.67041-0.82227c-0.39307-0.54102-0.48975-1.21289-0.26562-1.84326
		c0.14844-0.41797,0.00391-0.8833-0.35498-1.14404c-0.3584-0.26025-0.84521-0.25293-1.19727,0.0166
		c-0.5293,0.4082-1.19824,0.52441-1.83447,0.31689c-0.63623-0.20654-1.10938-0.69336-1.29834-1.33496
		C20.44075,7.29199,20.05013,7,19.60677,7s-0.83398,0.29199-0.95947,0.71729c-0.18896,0.6416-0.66211,1.12842-1.29834,1.33496
		c-0.63574,0.20752-1.30469,0.09131-1.83447-0.31689c-0.35205-0.27051-0.83984-0.27783-1.19775-0.0166
		c-0.35889,0.26074-0.50293,0.72656-0.35449,1.14453c0.22461,0.62988,0.12744,1.30127-0.26562,1.84229
		c-0.39258,0.5415-1.01807,0.84814-1.67041,0.82275c-0.46143-0.01318-0.8418,0.26953-0.979,0.69043
		c-0.13672,0.42188,0.02002,0.8833,0.38574,1.13379C11.9847,14.73096,12.3011,15.33105,12.3011,16s-0.31641,1.26904-0.86816,1.64746
		c-0.36572,0.25049-0.52246,0.71191-0.38574,1.13379c0.13721,0.4209,0.50146,0.72266,0.979,0.69043
		c0.65479-0.01562,1.27783,0.28174,1.67041,0.82275c0.39307,0.54102,0.49023,1.2124,0.26562,1.84229
		c-0.14844,0.41797-0.00439,0.88379,0.35449,1.14453c0.35986,0.26123,0.84668,0.25391,1.19775-0.0166
		c0.52979-0.40869,1.19873-0.52441,1.83447-0.31689c0.63623,0.20654,1.10938,0.69336,1.29834,1.33496
		C18.77278,24.70801,19.16341,25,19.60677,25z M17.96712,21.0459c-0.4043-0.13184-0.8208-0.1958-1.23486-0.1958
		c-0.23291,0-0.46484,0.02002-0.69287,0.06055c-0.08984-0.63818-0.33398-1.25439-0.72461-1.79199s-0.90137-0.96045-1.48047-1.24316
		c0.30225-0.56885,0.4668-1.21143,0.4668-1.87549s-0.16455-1.30664-0.4668-1.87549c0.5791-0.28271,1.09033-0.70605,1.48047-1.24316
		c0.39062-0.5376,0.63477-1.15381,0.72461-1.79199c0.63379,0.11279,1.2959,0.07031,1.92773-0.13525
		c0.63184-0.20508,1.19189-0.56006,1.63965-1.02393c0.44824,0.46387,1.0083,0.81885,1.64014,1.02441
		c0.63135,0.20508,1.29297,0.24707,1.92773,0.13477c0.08984,0.63867,0.33398,1.25488,0.72461,1.79248
		c0.39014,0.53711,0.90088,0.95996,1.47998,1.24268c-0.30225,0.56885-0.4668,1.21143-0.4668,1.87549s0.16455,1.30664,0.4668,1.87598
		c-0.5791,0.28223-1.08984,0.70508-1.47998,1.24219c-0.39062,0.5376-0.63477,1.15381-0.72461,1.79248
		c-0.63477-0.1123-1.29639-0.07031-1.92773,0.13477c-0.63184,0.20557-1.19189,0.56055-1.64014,1.02441
		C19.15901,21.60596,18.59895,21.25098,17.96712,21.0459z"/>
	<path d="M22.60677,16c0-1.6543-1.3457-3-3-3s-3,1.3457-3,3s1.3457,3,3,3S22.60677,17.6543,22.60677,16z M18.60677,16
		c0-0.55127,0.44873-1,1-1s1,0.44873,1,1s-0.44873,1-1,1S18.60677,16.55127,18.60677,16z"/>
	<path d="M52.39839,37.07996l-16-7c-0.25-0.10999-0.55005-0.10999-0.80005,0l-16,7
		c-0.50995,0.23004-0.73999,0.82001-0.51996,1.32001c0.21997,0.51001,0.82001,0.74005,1.32001,0.52002l2.59998-1.14001V56
		c0,0.54999,0.45001,1,1,1h24c0.54999,0,1-0.45001,1-1v-7c0-0.54999-0.45001-1-1-1s-1,0.45001-1,1v6h-6V44c0-0.54999-0.45001-1-1-1
		h-8c-0.54999,0-1,0.45001-1,1v11h-6V36.89996l11-4.81l11,4.81V41c0,0.54999,0.45001,1,1,1s1-0.45001,1-1v-3.22003
		c0,0,2.59998,1.14001,2.6006,1.14025c0.51477,0.19763,1.08982-0.00706,1.31939-0.52026
		C53.13838,37.89996,52.90834,37.31,52.39839,37.07996z M32.99837,45h6v10h-6V45z"/>
	<path d="M43.99837,49c-0.55225,0-1,0.44775-1,1v2c0,0.55225,0.44775,1,1,1s1-0.44775,1-1v-2
		C44.99837,49.44775,44.55061,49,43.99837,49z"/>
	<path d="M44.99837,44c0-0.55225-0.44775-1-1-1s-1,0.44775-1,1v2c0,0.55225,0.44775,1,1,1s1-0.44775,1-1V44z"/>
	<path d="M27.99837,49c-0.55225,0-1,0.44775-1,1v2c0,0.55225,0.44775,1,1,1s1-0.44775,1-1v-2
		C28.99837,49.44775,28.55061,49,27.99837,49z"/>
	<path d="M28.99837,44c0-0.55225-0.44775-1-1-1s-1,0.44775-1,1v2c0,0.55225,0.44775,1,1,1s1-0.44775,1-1V44z"/>
	<path d="M32.99837,38c0,1.6543,1.3457,3,3,3s3-1.3457,3-3s-1.3457-3-3-3S32.99837,36.3457,32.99837,38z M36.99837,38
		c0,0.55127-0.44873,1-1,1s-1-0.44873-1-1s0.44873-1,1-1S36.99837,37.44873,36.99837,38z"/>
	<path d="M32.5843,20h-0.58594c-0.55225,0-1,0.44775-1,1s0.44775,1,1,1h3c0.55225,0,1-0.44775,1-1v-3c0-0.55225-0.44775-1-1-1
		s-1,0.44775-1,1v0.58594l-2.29297-2.29297c-0.39062-0.39062-1.02344-0.39062-1.41406,0s-0.39062,1.02344,0,1.41406L32.5843,20z"/>
	<path d="M27.7054,23.29297c-0.39062-0.39062-1.02344-0.39062-1.41406,0s-0.39062,1.02344,0,1.41406L28.5843,27h-0.58594
		c-0.55225,0-1,0.44775-1,1s0.44775,1,1,1h3c0.55225,0,1-0.44775,1-1v-3c0-0.55225-0.44775-1-1-1s-1,0.44775-1,1v0.58594
		L27.7054,23.29297z"/>
	<path d="M19.99837,31c0,0.55225,0.44775,1,1,1h3c0.55225,0,1-0.44775,1-1v-3c0-0.55225-0.44775-1-1-1s-1,0.44775-1,1v0.58594
		l-2.29297-2.29297c-0.39062-0.39062-1.02344-0.39062-1.41406,0s-0.39062,1.02344,0,1.41406L21.5843,30h-0.58594
		C20.44612,30,19.99837,30.44775,19.99837,31z"/>
	<circle cx="47.99837" cy="45" r="1"/>
</g>
</svg>
