<?xml version="1.0" encoding="UTF-8"?>
<svg xmlns="http://www.w3.org/2000/svg" version="1.1" viewBox="0 0 64 64">
  <!-- Generator: Adobe Illustrator 28.7.1, SVG Export Plug-In . SVG Version: 1.2.0 Build 142)  -->
  <g>
    <g id="Outline">
      <g>
        <path d="M48,7h-20c-.54999,0-1,.45001-1,1s.45001,1,1,1h20c.54999,0,1,.45001,1,1v13H15v-13c0-.54999.45001-1,1-1h4c.54999,0,1-.45001,1-1s-.45001-1-1-1h-4c-1.65002,0-3,1.34998-3,3v40c0,1.64996,1.34998,3,3,3h2v1c0,1.64996,1.34998,3,3,3h22c1.65002,0,3-1.35004,3-3v-1h2c1.65002,0,3-1.35004,3-3V10c0-1.65002-1.34998-3-3-3ZM44,54c0,.54999-.45001,1-1,1h-22c-.54999,0-1-.45001-1-1v-1h24v1ZM49,50c0,.54999-.45001,1-1,1H16c-.54999,0-1-.45001-1-1v-25h34v25Z"/>
        <circle cx="46" cy="28" r="1"/>
        <circle cx="18" cy="28" r="1"/>
        <circle cx="46" cy="48" r="1"/>
        <circle cx="18" cy="48" r="1"/>
        <path d="M25,20c0,.55225.44727,1,1,1s1-.44775,1-1v-8c0-.55225-.44727-1-1-1s-1,.44775-1,1v8Z"/>
        <path d="M19,12c0-.55225-.44727-1-1-1s-1,.44775-1,1v8c0,.55225.44727,1,1,1h4c.55273,0,1-.44775,1-1s-.44727-1-1-1h-3v-7Z"/>
        <path d="M34,21c.55273,0,1-.44775,1-1v-8c0-.44043-.28809-.82959-.70996-.95703-.4209-.12793-.87793.03564-1.12207.40234l-1.16797,1.75195-1.16797-1.75195c-.24316-.3667-.7002-.53027-1.12207-.40234-.42188.12744-.70996.5166-.70996.95703v8c0,.55225.44727,1,1,1s1-.44775,1-1v-4.69727l.16797.25195c.37109.55664,1.29297.55664,1.66406,0l.16797-.25195v4.69727c0,.55225.44727,1,1,1Z"/>
        <path d="M39,20v-8c0-.55225-.44727-1-1-1s-1,.44775-1,1v8c0,.55225.44727,1,1,1s1-.44775,1-1Z"/>
        <path d="M44,21c.55273,0,1-.44775,1-1v-7h1c.55273,0,1-.44775,1-1s-.44727-1-1-1h-4c-.55273,0-1,.44775-1,1s.44727,1,1,1h1v7c0,.55225.44727,1,1,1Z"/>
        <path d="M36,27c-1.6543,0-3,1.3457-3,3v4c0,1.6543,1.3457,3,3,3s3-1.3457,3-3v-4c0-1.6543-1.3457-3-3-3ZM37,34c0,.55127-.44824,1-1,1s-1-.44873-1-1v-4c0-.55127.44824-1,1-1s1,.44873,1,1v4Z"/>
        <path d="M30.70703,39.29297c-.39062-.39062-1.02344-.39062-1.41406,0l-2.29297,2.29297v-1.58594c0-.55225-.44727-1-1-1s-1,.44775-1,1v8c0,.55225.44727,1,1,1s1-.44775,1-1v-1.58594l2.29296,2.29296c.37022.37022,1.02023.39384,1.41407,0,.39062-.39062.39062-1.02344,0-1.41406l-3.29297-3.29297,3.29297-3.29297c.39062-.39062.39062-1.02344,0-1.41406Z"/>
        <path d="M38.22949,39.02686c-.4502-.1084-.917.11084-1.12402.52588l-1.10547,2.21143-1.10547-2.21143c-.20704-.41455-.67676-.6333-1.12402-.52588-.45117.10645-.77051.50928-.77051.97314v8c0,.55225.44727,1,1,1s1-.44775,1-1v-3.76416l.10547.21143c.33984.67773,1.44922.67773,1.78906,0l.10547-.21143v3.76416c0,.55225.44727,1,1,1s1-.44775,1-1v-8c0-.46387-.31934-.8667-.77051-.97314Z"/>
        <path d="M28,27c-1.6543,0-3,1.3457-3,3,0,.55225.44727,1,1,1s1-.44775,1-1c0-.55127.44824-1,1-1s1,.44873,1,1-.44824,1-1,1c-.55273,0-1,.44775-1,1s.44727,1,1,1c.55176,0,1,.44873,1,1s-.44824,1-1,1-1-.44873-1-1c0-.55225-.44727-1-1-1s-1,.44775-1,1c0,1.6543,1.3457,3,3,3s3-1.3457,3-3c0-.76758-.29004-1.46875-.76562-2,.47559-.53125.76562-1.23242.76562-2,0-1.6543-1.3457-3-3-3Z"/>
        <circle cx="24" cy="8" r="1"/>
      </g>
    </g>
  </g>
</svg>