<?xml version="1.0" encoding="UTF-8"?>
<svg xmlns="http://www.w3.org/2000/svg" version="1.1" viewBox="0 0 64 64">
  <!-- Generator: Adobe Illustrator 28.7.1, SVG Export Plug-In . SVG Version: 1.2.0 Build 142)  -->
  <g>
    <g id="Outline">
      <g>
        <path d="M41.09998,44h1.56c2.75,0,5-2.23999,5-5v-2c0-.54999-.44995-1-1-1h-2c-2.75995,0-5,2.23999-5,5v1.62c-1.31995,1.39001-2.32996,2.98999-3,4.72998-.67999-1.73999-1.69-3.33997-3-4.72998v-1.62c0-2.76001-2.25-5-5-5h-2c-.56,0-1,.45001-1,1v2c0,2.76001,2.24005,5,5,5h1.56c2.21002,2.35999,3.44,5.40997,3.44,8.65997v2.34003h-9c-.56,0-1,.45001-1,1s.44,1,1,1h20c.55005,0,1-.45001,1-1s-.44995-1-1-1h-9v-2.34003c0-3.25,1.22003-6.29999,3.44-8.65997ZM41.65997,41c0-1.65002,1.34003-3,3-3h1v1c0,1.64996-1.34998,3-3,3h-1v-1ZM31.65997,42h-1c-1.65997,0-3-1.35004-3-3v-1h1c1.65002,0,3,1.34998,3,3v1Z"/>
        <path d="M15.25586,27.33203c-.54395.60596-3.25586,3.72656-3.25586,5.66797,0,2.20557,1.79443,4,4,4s4-1.79443,4-4c0-1.94141-2.71191-5.06201-3.25586-5.66797-.37891-.42285-1.10938-.42285-1.48828,0ZM16,35c-1.10303,0-2-.89697-2-2,0-.63721.93945-2.12549,1.99951-3.45117,1.06299,1.33252,2.00049,2.83154,2.00049,3.45117,0,1.10303-.89697,2-2,2Z"/>
        <path d="M55,7H13c-.54999,0-1,.45001-1,1v15h-1c-1.65002,0-3,1.34998-3,3v12c0,1.64996,1.34998,3,3,3h1v15c0,.54999.45001,1,1,1h6c.54999,0,1-.45001,1-1v-15h1c1.65002,0,3-1.35004,3-3v-12c0-1.65002-1.34998-3-3-3h-1v-4h11.65997v3c0,.54999.44,1,1,1h8c.55005,0,1-.45001,1-1v-3h13.34003c.54999,0,1-.45001,1-1v-10c0-.54999-.45001-1-1-1ZM14,9h4v14h-4v-14ZM18,55h-4v-14h4v14ZM21,25c.54999,0,1,.45001,1,1v12c0,.54999-.45001,1-1,1h-10c-.54999,0-1-.45001-1-1v-12c0-.54999.45001-1,1-1h10ZM39.65997,21h-6v-2h6v2ZM54,17H20v-8h34v8Z"/>
        <circle cx="36.65686" cy="26" r="1"/>
        <circle cx="36.65686" cy="30" r="1"/>
        <circle cx="36.65686" cy="34" r="1"/>
        <path d="M41.36395,26.70709c.3905-.3905.3905-1.02368,0-1.41418-.3905-.39056-1.02368-.39056-1.41418,0-.39056.3905-.39056,1.02368,0,1.41418.3905.3905,1.02368.3905,1.41418,0Z"/>
        <path d="M44.19238,29.53552c.3905-.3905.3905-1.02368,0-1.41425-.3905-.3905-1.02368-.3905-1.41418,0-.39056.39056-.39056,1.02374,0,1.41425.3905.3905,1.02368.3905,1.41418,0Z"/>
        <path d="M47.02081,32.36395c.3905-.3905.3905-1.02368,0-1.41425-.3905-.3905-1.02368-.3905-1.41418,0-.39056.39056-.39056,1.02374,0,1.41425.3905.3905,1.02368.3905,1.41418,0Z"/>
        <path d="M33.36395,26.70709c.3905-.3905.3905-1.02368,0-1.41418-.3905-.39056-1.02368-.39056-1.41418,0-.39056.3905-.39056,1.02368,0,1.41418.3905.3905,1.02368.3905,1.41418,0Z"/>
        <path d="M30.53552,29.53552c.39056-.3905.39056-1.02368,0-1.41425-.3905-.3905-1.02368-.3905-1.41418,0-.39056.39056-.39056,1.02374,0,1.41425.3905.3905,1.02368.3905,1.41418,0Z"/>
        <path d="M27.70709,32.36395c.39056-.3905.39056-1.02368,0-1.41425-.3905-.3905-1.02368-.3905-1.41418,0-.39056.39056-.39056,1.02374,0,1.41425.3905.3905,1.02368.3905,1.41418,0Z"/>
      </g>
    </g>
  </g>
</svg>