<?xml version="1.0" encoding="UTF-8"?>
<svg xmlns="http://www.w3.org/2000/svg" version="1.1" viewBox="0 0 64 64">
  <!-- Generator: Adobe Illustrator 28.7.1, SVG Export Plug-In . SVG Version: 1.2.0 Build 142)  -->
  <g>
    <g id="Outline">
      <g>
        <path d="M56,17h-16v-2c0-.54999-.45001-1-1-1h-14c-.54999,0-1,.45001-1,1v2H8c-.54999,0-1,.45001-1,1v4c0,.54999.45001,1,1,1h16v3c0,.54999.45001,1,1,1h1v2c0,.54999.45001,1,1,1h1v4h-4c-.54999,0-1,.45001-1,1v4c0,.54999.45001,1,1,1h2v5c0,.29999.14001.58997.38.77997l2.77002,2.22003h-.15002c-.54999,0-1,.45001-1,1s.45001,1,1,1h6c.54999,0,1-.45001,1-1s-.45001-1-1-1h-.15002l2.77002-2.22003c.23999-.19.38-.47998.38-.77997v-5h2c.54999,0,1-.45001,1-1v-4c0-.54999-.45001-1-1-1h-4v-4h1c.54999,0,1-.45001,1-1v-2h1c.54999,0,1-.45001,1-1v-3h16c.54999,0,1-.45001,1-1v-4c0-.54999-.45001-1-1-1ZM24,21h-15v-2h15v2ZM36,44.51996l-4,3.20001-4-3.20001v-4.51996h3v2c0,.54999.45001,1,1,1s1-.45001,1-1v-2h3v4.51996ZM39,36v2h-14v-2h14ZM30,34v-4h4v4h-4ZM38,25h-1c-.54999,0-1,.45001-1,1v2h-8v-2c0-.54999-.45001-1-1-1h-1v-9h12v9ZM55,21h-15v-2h15v2Z"/>
        <path d="M35,18h-6c-.55273,0-1,.44727-1,1v4c0,.55273.44727,1,1,1h6c.55273,0,1-.44727,1-1v-4c0-.55273-.44727-1-1-1ZM34,22h-4v-2h4v2Z"/>
      </g>
    </g>
  </g>
</svg>