<?xml version="1.0" encoding="UTF-8"?>
<svg xmlns="http://www.w3.org/2000/svg" version="1.1" viewBox="0 0 64 64">
  <!-- Generator: Adobe Illustrator 28.7.1, SVG Export Plug-In . SVG Version: 1.2.0 Build 142)  -->
  <g>
    <g id="Outline">
      <g>
        <path d="M48,7H16c-1.65002,0-3,1.34998-3,3v22c0,.54999.45001,1,1,1s1-.45001,1-1v-7h34v25c0,.54999-.45001,1-1,1H16c-.54999,0-1-.45001-1-1v-10c0-.54999-.45001-1-1-1s-1,.45001-1,1v10c0,1.64996,1.34998,3,3,3h5v3c0,.54999.45001,1,1,1h20c.54999,0,1-.45001,1-1v-3h5c1.65002,0,3-1.35004,3-3V10c0-1.65002-1.34998-3-3-3ZM41,55h-18v-2h18v2ZM49,23H15v-13c0-.54999.45001-1,1-1h32c.54999,0,1,.45001,1,1v13Z"/>
        <circle cx="46" cy="28" r="1"/>
        <circle cx="18" cy="28" r="1"/>
        <circle cx="46" cy="48" r="1"/>
        <circle cx="18" cy="48" r="1"/>
        <path d="M20,13h2c.55225,0,1-.44775,1-1s-.44775-1-1-1h-2c-1.6543,0-3,1.3457-3,3s1.3457,3,3,3c.55127,0,1,.44873,1,1s-.44873,1-1,1h-2c-.55225,0-1,.44775-1,1s.44775,1,1,1h2c1.6543,0,3-1.3457,3-3s-1.3457-3-3-3c-.55127,0-1-.44873-1-1s.44873-1,1-1Z"/>
        <path d="M30,11h-4c-.55225,0-1,.44775-1,1s.44775,1,1,1h1v7c0,.55225.44775,1,1,1s1-.44775,1-1v-7h1c.55225,0,1-.44775,1-1s-.44775-1-1-1Z"/>
        <path d="M36,11c-1.6543,0-3,1.3457-3,3v4c0,1.6543,1.3457,3,3,3s3-1.3457,3-3v-4c0-1.6543-1.3457-3-3-3ZM37,18c0,.55127-.44873,1-1,1s-1-.44873-1-1v-4c0-.55127.44873-1,1-1s1,.44873,1,1v4Z"/>
        <path d="M44,11h-2c-.54999,0-1,.45001-1,1v8c0,.54999.45001,1,1,1s1-.45001,1-1v-3h1c1.65002,0,3-1.35004,3-3s-1.34998-3-3-3ZM44,15h-1v-2h1c.54999,0,1,.45001,1,1s-.45001,1-1,1Z"/>
        <path d="M32,49c6.06543,0,11-4.93457,11-11s-4.93457-11-11-11-11,4.93457-11,11,4.93457,11,11,11ZM32,29c4.9624,0,9,4.0376,9,9s-4.0376,9-9,9-9-4.0376-9-9,4.0376-9,9-9Z"/>
        <path d="M32,45c3.85986,0,7-3.14014,7-7s-3.14014-7-7-7-7,3.14014-7,7,3.14014,7,7,7ZM37,38c0,2.75684-2.24316,5-5,5-1.01733,0-1.9624-.30902-2.75293-.83301l6.91992-6.91992c.52399.79053.83301,1.7356.83301,2.75293ZM32,33c1.01733,0,1.9624.30902,2.75293.83301l-6.91992,6.91992c-.52399-.79053-.83301-1.7356-.83301-2.75293,0-2.75684,2.24316-5,5-5Z"/>
        <circle cx="14" cy="36" r="1"/>
      </g>
    </g>
  </g>
</svg>