<?xml version="1.0" encoding="utf-8"?>
<!-- Generator: Adobe Illustrator 27.3.1, SVG Export Plug-In . SVG Version: 6.00 Build 0)  -->
<svg version="1.1" id="Outline" xmlns="http://www.w3.org/2000/svg" xmlns:xlink="http://www.w3.org/1999/xlink" x="0px" y="0px"
	 viewBox="0 0 48 48" enable-background="new 0 0 48 48" xml:space="preserve">
<g>
	<circle cx="15" cy="28" r="1"/>
	<path d="M8,11c1.6543,0,3-1.3457,3-3S9.6543,5,8,5S5,6.3457,5,8S6.3457,11,8,11z M8,7c0.55127,0,1,0.44824,1,1S8.55127,9,8,9
		S7,8.55176,7,8S7.44873,7,8,7z"/>
	<path d="M43,22.5c0-2.67285-1.61377-5.02441-4.02393-6.00684C38.99219,16.33008,39,16.16504,39,16c0-2.75684-2.24316-5-5-5
		c-0.41406,0-0.82373,0.05078-1.22021,0.15039C31.94287,7.61133,28.75146,5,25,5c-3.68457,0-6.854,2.52051-7.73926,6.00488
		C17.1748,11.00195,17.08789,11,17,11c-3.85986,0-7,3.14062-7,7c0,0.33691,0.02393,0.6709,0.07178,1H10
		c-1.32422,0-2.57861,0.51758-3.54248,1.46777C5.51758,21.42188,5,22.67676,5,24c0,2.75684,2.24316,5,5,5h1c0.55225,0,1-0.44727,1-1
		s-0.44775-1-1-1h-1c-1.6543,0-3-1.3457-3-3c0-0.79492,0.31348-1.55078,0.87207-2.11816C8.44873,21.31348,9.20459,21,10,21
		c0,0,1.34875,0,1.3501,0c0.68282,0,1.17357-0.70075,0.93945-1.34277C12.09717,19.13086,12,18.57324,12,18c0-2.75684,2.24316-5,5-5
		c0.31884,0,0.6118,0.02637,0.87009,0.0791c0.56134,0.1146,1.12091-0.28936,1.19192-0.85546C19.43457,9.24609,21.9873,7,25,7
		c3.15671,0,5.78413,2.4648,5.98193,5.61222c0.04557,0.72507,0.88329,1.16938,1.50782,0.79794C32.94238,13.1416,33.46484,13,34,13
		c1.6543,0,3,1.3457,3,3c0,0.29979-0.04345,0.59763-0.12841,0.8857c-0.15928,0.54012,0.17212,1.12205,0.71972,1.25492
		C39.59814,18.63477,41,20.42676,41,22.5c0,1.20312-0.46777,2.33398-1.31689,3.18262C38.8335,26.53223,37.70312,27,36.5,27h-7.19574
		l1.54388-2.46973c0.19238-0.30859,0.20264-0.69727,0.02637-1.01465C30.69824,23.19727,30.36377,23,30,23h-6
		c-0.3877,0-0.74072,0.22461-0.90527,0.5752L21.48944,27H19c-0.55225,0-1,0.44727-1,1s0.44775,1,1,1h1.552l-0.45728,0.97559
		c-0.11719,0.25-0.12598,0.53613-0.0249,0.79199s0.30322,0.45898,0.55908,0.56152l3.18945,1.27539l-1.78857,7.15332
		c-0.11279,0.45215,0.10156,0.92285,0.51758,1.13379C22.69141,40.96484,22.84619,41,22.99951,41
		c0.28955,0,0.57373-0.12598,0.76855-0.35938l8-9.59961c0.20508-0.24609,0.27979-0.5752,0.20117-0.88574
		c-0.07812-0.31055-0.30078-0.56445-0.59766-0.68359L30.19281,29H36.5c1.7373,0,3.37012-0.67578,4.59717-1.90332
		C42.32422,25.87012,43,24.23828,43,22.5z M25.03027,36.00195l0.93994-3.75977c0.12109-0.48438-0.13477-0.98535-0.59912-1.1709
		l-3.01611-1.20605L24.63574,25h3.56006l-2.04395,3.26953c-0.15674,0.25098-0.19434,0.55957-0.10254,0.84082
		c0.09229,0.28125,0.3042,0.50781,0.5791,0.61816l2.72217,1.08887L25.03027,36.00195z"/>
	<path d="M7.17725,35.43164C6.52246,36.37988,5,38.72168,5,40c0,1.6543,1.3457,3,3,3s3-1.3457,3-3
		c0-1.27832-1.52246-3.62012-2.17725-4.56836C8.44971,34.89062,7.55029,34.89062,7.17725,35.43164z M8,41
		c-0.55127,0-1-0.44824-1-0.99902c0.0083-0.30566,0.42383-1.17676,1-2.14746c0.57568,0.9707,0.9917,1.84082,1,2.14746
		C8.99951,40.55176,8.55127,41,8,41z"/>
	<path d="M15.17725,31.43164C14.52246,32.37988,13,34.72168,13,36c0,1.6543,1.3457,3,3,3s3-1.3457,3-3
		c0-1.27832-1.52246-3.62012-2.17725-4.56836C16.44971,30.89062,15.55029,30.89062,15.17725,31.43164z M16,37
		c-0.55127,0-1-0.44824-1-0.99902c0.0083-0.30566,0.42383-1.17676,1-2.14746c0.57568,0.9707,0.9917,1.84082,1,2.14746
		C16.99951,36.55176,16.55127,37,16,37z"/>
	<path d="M31.17725,35.43164C30.52246,36.37988,29,38.72168,29,40c0,1.6543,1.3457,3,3,3s3-1.3457,3-3
		c0-1.27832-1.52246-3.62012-2.17725-4.56836C32.44971,34.89062,31.55029,34.89062,31.17725,35.43164z M32,41
		c-0.55127,0-1-0.44824-1-0.99902c0.0083-0.30566,0.42383-1.17676,1-2.14746c0.57568,0.9707,0.9917,1.84082,1,2.14746
		C32.99951,40.55176,32.55127,41,32,41z"/>
	<path d="M39.17725,31.43164C38.52246,32.37988,37,34.72168,37,36c0,1.6543,1.3457,3,3,3s3-1.3457,3-3
		c0-1.27832-1.52246-3.62012-2.17725-4.56836C40.44971,30.89062,39.55029,30.89062,39.17725,31.43164z M40,37
		c-0.55127,0-1-0.44824-1-0.99902c0.0083-0.30566,0.42383-1.17676,1-2.14746c0.57568,0.9707,0.9917,1.84082,1,2.14746
		C40.99951,36.55176,40.55127,37,40,37z"/>
</g>
</svg>
