<?xml version="1.0" encoding="UTF-8"?>
<svg xmlns="http://www.w3.org/2000/svg" version="1.1" viewBox="0 0 64 64">
  <!-- Generator: Adobe Illustrator 28.7.1, SVG Export Plug-In . SVG Version: 1.2.0 Build 142)  -->
  <g>
    <g id="Outline">
      <g>
        <path d="M8.35964,44.42847l4.52637-1.74072c5.25488-2.02295,11.12012-2.23291,16.50781-.59277l6.2666,1.90723c2.61621.79639,5.29883,1.19434,7.97949,1.19434,2.91797,0,5.83398-.47168,8.6582-1.41309l4.01855-1.33936c.52344-.1748.80664-.74121.63184-1.26514-.1748-.52344-.73633-.80762-1.26465-.63232l-4.01855,1.33936c-2.79559.93207-5.68695,1.34851-8.57501,1.28534l-13.55487-13.55438c-1.16895-1.16992-1.16895-3.07324,0-4.24316l5.55078-5.55029c1.2168-1.2168,1.2168-3.19678,0-4.41455-1.21973-1.21582-3.19824-1.21533-4.41406.00049l-7.68652,7.68652c-1.92676,1.92676-2.47754,4.78955-1.4043,7.29346.74902,1.74805.36426,3.74609-.98047,5.09131l-4.0708,4.0708c-1.48285.30035-2.94324.72363-4.36279,1.26953l-4.52637,1.74121c-.51465.19824-.77246.77686-.57422,1.29199s.77734.77148,1.29297.57422ZM22.01491,36.89478c1.92676-1.92676,2.47754-4.78955,1.4043-7.29346-.74902-1.74805-.36426-3.74609.98047-5.09131l7.68652-7.68652c.4375-.43652,1.14844-.43652,1.58594,0,.43652.4375.43652,1.14893,0,1.58594l-5.55078,5.55029c-1.94824,1.94971-1.94824,5.12158,0,7.07129l11.90192,11.90149c-1.27063-.18427-2.53394-.46387-3.78082-.84338l-6.2666-1.90723c-3.29987-1.00391-6.76331-1.3421-10.18066-1.06738l2.21973-2.21973Z"/>
        <path d="M55.68386,44.85278l-4.01855,1.33936c-5.02344,1.6748-10.35645,1.74512-15.42285.20312l-6.2666-1.90723c-5.81152-1.76855-12.13574-1.54248-17.80859.63916l-4.52637,1.74121c-.51465.19824-.77246.77686-.57422,1.29199s.77734.77246,1.29297.57422l4.52637-1.74072c5.25488-2.02344,11.12012-2.2334,16.50781-.59277l6.2666,1.90723c2.61621.79639,5.29883,1.19434,7.97949,1.19434,2.91797,0,5.83398-.47168,8.6582-1.41309l4.01855-1.33936c.52344-.1748.80664-.74121.63184-1.26514-.1748-.52344-.73633-.80908-1.26465-.63232Z"/>
        <path d="M41.00026,35.49536c2.75684,0,5-2.24316,5-5s-2.24316-5-5-5-5,2.24316-5,5,2.24316,5,5,5ZM41.00026,27.49536c1.6543,0,3,1.3457,3,3s-1.3457,3-3,3-3-1.3457-3-3,1.3457-3,3-3Z"/>
      </g>
    </g>
  </g>
</svg>