<?xml version="1.0" encoding="UTF-8"?>
<svg xmlns="http://www.w3.org/2000/svg" version="1.1" viewBox="0 0 48 48">
  <!-- Generator: Adobe Illustrator 28.7.1, SVG Export Plug-In . SVG Version: 1.2.0 Build 142)  -->
  <g>
    <g id="Outline">
      <g>
        <path d="M27.91016,20.46582l-.79199-12.52832c-.10254-1.64746-1.47168-2.9375-3.11816-2.9375s-3.01562,1.29004-3.11816,2.93652l-.79199,12.5293c-1.31641,1.13867-2.08984,2.80078-2.08984,4.53418v2c0,.55273.44727,1,1,1s1-.44727,1-1v-2c0-1.27832.60156-2.45312,1.65137-3.22461.23926-.1748.3877-.44727.40625-.74219l.82031-12.9707c.03711-.5957.53027-1.0625,1.12207-1.0625s1.08496.4668,1.12207,1.06348l.82031,12.96973c.01855.29492.16699.56738.40625.74219,1.0498.77148,1.65137,1.94629,1.65137,3.22461v12c0,2.20605-1.79395,4-4,4s-4-1.79395-4-4v-2c0-.55273-.44727-1-1-1s-1,.44727-1,1v2c0,3.30859,2.69141,6,6,6s6-2.69141,6-6v-12c0-1.7334-.77344-3.39551-2.08984-4.53418Z"/>
        <circle cx="24" cy="37" r="1"/>
        <path d="M25,33v-8c0-.55273-.44727-1-1-1s-1,.44727-1,1v8c0,.55273.44727,1,1,1s1-.44727,1-1Z"/>
        <circle cx="19" cy="31" r="1"/>
      </g>
    </g>
  </g>
</svg>