<?xml version="1.0" encoding="UTF-8"?>
<svg id="Outline" xmlns="http://www.w3.org/2000/svg" version="1.1" viewBox="0 0 48 48">
  <path d="M13,39h22c.55273,0,1-.44727,1-1v-3c0-.55273-.44727-1-1-1-.55176,0-1-.44824-1-1s.44824-1,1-1c.55273,0,1-.44727,1-1v-3c0-.55273-.44727-1-1-1H13c-.55225,0-1,.44727-1,1v3c0,.55273.44775,1,1,1,.55127,0,1,.44824,1,1s-.44873,1-1,1c-.55225,0-1,.44727-1,1v3c0,.55273.44775,1,1,1ZM14,35.8291c1.16406-.41309,2-1.52539,2-2.8291s-.83594-2.41602-2-2.8291v-1.1709h20v1.1709c-1.16406.41309-2,1.52539-2,2.8291s.83594,2.41602,2,2.8291v1.1709H14v-1.1709Z" fill="#000" stroke-width="0"/>
  <circle cx="24" cy="33" r="1" fill="#000" stroke-width="0"/>
  <circle cx="28" cy="33" r="1" fill="#000" stroke-width="0"/>
  <circle cx="20" cy="33" r="1" fill="#000" stroke-width="0"/>
  <path d="M40,19v-11c0-1.6543-1.3457-3-3-3H11c-1.6543,0-3,1.3457-3,3v11c-1.6543,0-3,1.3457-3,3s1.3457,3,3,3v15c0,1.6543,1.3457,3,3,3h26c1.6543,0,3-1.3457,3-3v-15c1.6543,0,3-1.3457,3-3s-1.3457-3-3-3ZM10,8c0-.55127.44873-1,1-1h26c.55176,0,1,.44873,1,1v11h-9v-1c0-1.85022-1.02203-3.45062-2.52002-4.31531.32758-.48065.52002-1.06036.52002-1.68469,0-1.6543-1.3457-3-3-3s-3,1.3457-3,3c0,.62433.19244,1.20404.52002,1.68469-1.49799.86469-2.52002,2.46509-2.52002,4.31531v1h-9v-11ZM24,15c1.6543,0,3,1.3457,3,3v1h-6v-1c0-1.6543,1.3457-3,3-3ZM23,12c0-.55127.44873-1,1-1s1,.44873,1,1-.44873,1-1,1-1-.44873-1-1ZM38,40c0,.55176-.44824,1-1,1H11c-.55127,0-1-.44824-1-1v-15h28v15ZM40,23H8c-.55127,0-1-.44873-1-1s.44873-1,1-1h32c.55176,0,1,.44873,1,1s-.44824,1-1,1Z" fill="#000" stroke-width="0"/>
</svg>