<?xml version="1.0" encoding="UTF-8"?>
<svg id="Outline" xmlns="http://www.w3.org/2000/svg" version="1.1" viewBox="0 0 48 48">
  <path d="M40,8h-3.12836c-.44727-1.72028-1.99969-3-3.85797-3s-3.41071,1.27972-3.85797,3h-10.29773c-.44727-1.72028-1.99969-3-3.85797-3s-3.41071,1.27972-3.85797,3h-3.14203c-1.6543,0-3,1.3457-3,3v29c0,1.6543,1.3457,3,3,3h32c1.6543,0,3-1.3457,3-3V11c0-1.6543-1.3457-3-3-3ZM33.01367,7c.73712,0,1.375.40509,1.72186,1h-3.44373c.34686-.59491.98474-1,1.72186-1ZM15,7c.73712,0,1.375.40509,1.72186,1h-3.44373c.34686-.59491.98474-1,1.72186-1ZM41,40c0,.55127-.44873,1-1,1H8c-.55127,0-1-.44873-1-1V11c0-.55127.44873-1,1-1h3.14203c.44727,1.72028,1.99969,3,3.85797,3,.55225,0,1-.44775,1-1s-.44775-1-1-1c-.73712,0-1.375-.40509-1.72186-1h15.87756c.44727,1.72028,1.99969,3,3.85797,3,.55225,0,1-.44775,1-1s-.44775-1-1-1c-.73712,0-1.375-.40509-1.72186-1h8.70819c.55127,0,1,.44873,1,1v29Z" fill="#000" stroke-width="0"/>
  <path d="M38,15H10c-.55225,0-1,.44775-1,1v22c0,.55225.44775,1,1,1h28c.55225,0,1-.44775,1-1v-22c0-.55225-.44775-1-1-1ZM37,37H11v-20h26v20Z" fill="#000" stroke-width="0"/>
  <path d="M14,30h1v4c0,.55225.44775,1,1,1s1-.44775,1-1v-5c0-.55225-.44775-1-1-1h-1v-2c0-.55127.44873-1,1-1h4c.55127,0,1,.44873,1,1v2h-1c-.55225,0-1,.44775-1,1v5c0,.55225.44775,1,1,1s1-.44775,1-1v-4h1c.55225,0,1-.44775,1-1v-3c0-1.38287-.94537-2.53851-2.22028-2.88428.13922-.34558.22028-.72083.22028-1.11572,0-1.6543-1.3457-3-3-3s-3,1.3457-3,3c0,.3949.08105.77014.22028,1.11572-1.27496.34576-2.22028,1.50134-2.22028,2.88428v3c0,.55225.44775,1,1,1ZM18,21c.55127,0,1,.44873,1,1s-.44873,1-1,1-1-.44873-1-1,.44873-1,1-1Z" fill="#000" stroke-width="0"/>
  <path d="M26,32h1v2c0,.55225.44775,1,1,1s1-.44775,1-1v-3c0-.55225-.44775-1-1-1h-.84717l.71436-5h4.26562l.71436,5h-.84717c-.55225,0-1,.44775-1,1v3c0,.55225.44775,1,1,1s1-.44775,1-1v-2h1c.29004,0,.56543-.12598.75537-.34473.18994-.21924.27539-.50977.23438-.79688l-1-7c-.07031-.49268-.49219-.8584-.98975-.8584h-.17059c.11206-.31433.18427-.64764.18427-1,0-1.6543-1.3457-3-3-3s-3,1.3457-3,3c0,.35236.07227.68567.18433,1h-.198c-.49756,0-.91943.36572-.98975.8584l-1,7c-.04102.28711.04443.57764.23438.79688.18994.21875.46533.34473.75537.34473ZM30.01367,21c.55127,0,1,.44873,1,1s-.44873,1-1,1-1-.44873-1-1,.44873-1,1-1Z" fill="#000" stroke-width="0"/>
</svg>