<?xml version="1.0" encoding="UTF-8"?>
<svg id="Outline" xmlns="http://www.w3.org/2000/svg" version="1.1" viewBox="0 0 48 48">
  <path d="M32,33h3.58594l-.29297.29297c-.39062.39062-.39062,1.02344,0,1.41406.38605.38605,1.02905.38501,1.41406,0l2-2c.39062-.39062.39062-1.02344,0-1.41406l-2-2c-.39062-.39062-1.02344-.39062-1.41406,0s-.39062,1.02344,0,1.41406l.29297.29297h-3.58594c-.55273,0-1,.44775-1,1s.44727,1,1,1Z" fill="#000" stroke-width="0"/>
  <path d="M11.30664,34.70703c.37347.37347,1.02527.38879,1.41406,0,.39062-.39062.39062-1.02344,0-1.41406l-.29297-.29297h3.57227c.55273,0,1-.44775,1-1s-.44727-1-1-1h-3.57227l.29297-.29297c.39062-.39062.39062-1.02344,0-1.41406s-1.02344-.39062-1.41406,0l-2,2c-.39062.39062-.39062,1.02344,0,1.41406l2,2Z" fill="#000" stroke-width="0"/>
  <path d="M40,13h-1.98633v-3c0-.55225-.44727-1-1-1s-1,.44775-1,1v3H12v-3c0-.55225-.44727-1-1-1s-1,.44775-1,1v3h-2c-1.6543,0-3,1.3457-3,3v20c0,1.6543,1.3457,3,3,3h32c1.6543,0,3-1.3457,3-3v-20c0-1.6543-1.3457-3-3-3ZM23,37h-15c-.55176,0-1-.44873-1-1v-9h16v10ZM41,36c0,.55127-.44824,1-1,1h-15v-10h16v9ZM41,25H7v-9c0-.55127.44824-1,1-1h32c.55176,0,1,.44873,1,1v9Z" fill="#000" stroke-width="0"/>
  <circle cx="20" cy="32" r="1" fill="#000" stroke-width="0"/>
  <circle cx="28.01367" cy="32" r="1" fill="#000" stroke-width="0"/>
  <circle cx="10" cy="18" r="1" fill="#000" stroke-width="0"/>
  <path d="M22,17h-8c-.55273,0-1,.44775-1,1s.44727,1,1,1h8c.55273,0,1-.44775,1-1s-.44727-1-1-1Z" fill="#000" stroke-width="0"/>
  <circle cx="10" cy="22" r="1" fill="#000" stroke-width="0"/>
  <path d="M22,21h-8c-.55273,0-1,.44775-1,1s.44727,1,1,1h8c.55273,0,1-.44775,1-1s-.44727-1-1-1Z" fill="#000" stroke-width="0"/>
  <circle cx="26" cy="18" r="1" fill="#000" stroke-width="0"/>
  <path d="M38,17h-8c-.55273,0-1,.44775-1,1s.44727,1,1,1h8c.55273,0,1-.44775,1-1s-.44727-1-1-1Z" fill="#000" stroke-width="0"/>
  <circle cx="26" cy="22" r="1" fill="#000" stroke-width="0"/>
  <path d="M38,21h-8c-.55273,0-1,.44775-1,1s.44727,1,1,1h8c.55273,0,1-.44775,1-1s-.44727-1-1-1Z" fill="#000" stroke-width="0"/>
</svg>