<?xml version="1.0" encoding="utf-8"?>
<!-- Generator: Adobe Illustrator 27.3.1, SVG Export Plug-In . SVG Version: 6.00 Build 0)  -->
<svg version="1.1" id="Outline" xmlns="http://www.w3.org/2000/svg" xmlns:xlink="http://www.w3.org/1999/xlink" x="0px" y="0px"
	 viewBox="0 0 64 64" enable-background="new 0 0 64 64" xml:space="preserve">
<g>
	<path d="M32.70703,7.29297c-0.39062-0.39062-1.02344-0.39062-1.41406,0C30.5459,8.04004,13,25.72656,13,38
		c0,8.81055,6.229,16.60156,14.81104,18.52539c0.54004,0.12207,1.07373-0.21875,1.19434-0.75684
		c0.12109-0.53906-0.21777-1.07422-0.75684-1.19434C20.57178,52.85352,15,45.88281,15,38c0-10.11914,13.7002-25.10156,17-28.5625
		C35.2998,12.89844,49,27.88086,49,38c0,7.88281-5.57227,14.85352-13.24902,16.57422
		c-0.53906,0.12012-0.87793,0.65527-0.75684,1.19434c0.10449,0.46484,0.5166,0.78125,0.97461,0.78125
		c0.07227,0,0.14648-0.00781,0.21973-0.02441C44.77051,54.60156,51,46.81055,51,38C51,25.72656,33.4541,8.04004,32.70703,7.29297z"
		/>
	<path d="M47,38c0-4.17004-2.96002-10.42999-8.34003-17.62c-1.76996-2.37-3.75995-4.78003-5.91998-7.19
		c-0.37-0.42004-1.10999-0.42004-1.47998,0c-2.16003,2.39996-4.15002,4.82001-5.91998,7.19C19.96002,27.57001,17,33.82001,17,38
		c0,8.26996,6.72998,15,15,15S47,46.26996,47,38z M29,48c0,0.87-0.10999,1.71997-0.26001,2.57001C23.15002,49.12,19,44.03998,19,38
		c0-3.75,2.82001-9.58002,7.94-16.42004c1.52997-2.04999,3.22998-4.12994,5.06-6.21997
		c1.83002,2.09003,3.53003,4.16998,5.06,6.21997C42.17999,28.41998,45,34.25,45,38c0,6.03998-4.15002,11.12-9.73999,12.57001
		C35.10999,49.71997,35,48.87,35,48v-2.06c2.46997-0.29999,4.40002-2.35004,4.40002-4.87c0-0.56-0.10004-1.12-0.29004-1.64001
		C40.28998,38.5,41,37.09998,41,35.57001c0-1.52002-0.71002-2.92999-1.89001-3.85004c0.19-0.52997,0.29004-1.08997,0.29004-1.64996
		c0-2.08002-1.33002-3.92004-3.26001-4.62C35.81,23.48999,34.08002,22,32,22c-2.06,0-3.77002,1.45996-4.13,3.45001
		c-1.92999,0.69995-3.27002,2.53998-3.27002,4.62c0,0.56,0.10004,1.12,0.29004,1.64996C23.71002,32.64001,23,34.04999,23,35.57001
		c0,1.52997,0.71002,2.92999,1.89001,3.85999c-0.19,0.52002-0.29004,1.08002-0.29004,1.64001
		c0,2.51996,1.93005,4.57001,4.40002,4.87V48z M26.59998,41.07001c0-0.52997,0.14001-1.02991,0.41998-1.48993
		c0.27972-0.45959,0.14185-1.15002-0.39996-1.4101c-1-0.51001-1.62-1.5-1.62-2.59998c0-1.0899,0.61987-2.08984,1.61969-2.5899
		c0.47833-0.2392,0.70294-0.93585,0.40033-1.4201c-0.28003-0.46002-0.42004-0.96002-0.42004-1.48999
		c0-1.39001,1.01001-2.59003,2.39001-2.87c0.47003-0.09003,0.81-0.58002,0.81-1.06C29.79999,24.95996,30.78998,24,32,24
		s2.20001,0.95996,2.20001,2.21997c0,0.48004,0.33997,0.89001,0.81,0.98004c1.38,0.27997,2.39001,1.47998,2.39001,2.87
		c0,0.52985-0.13995,1.02979-0.41992,1.48975c-0.28723,0.47192-0.13501,1.14203,0.3999,1.42023c1,0.5,1.62,1.5,1.62,2.59003
		c0,1.09985-0.61987,2.08978-1.61969,2.59979c-0.51465,0.26257-0.70941,0.91553-0.40033,1.41016
		c0.28003,0.46002,0.42004,0.96002,0.42004,1.49005c0,1.62-1.35004,2.92999-3,2.92999h-4.80005
		C27.95001,44,26.59998,42.69,26.59998,41.07001z M31,48v-2h2v2c0,0.98999,0.09003,1.96997,0.27002,2.94
		C32.84998,50.97998,32.42999,51,32,51s-0.84998-0.02002-1.27002-0.06C30.90997,49.96997,31,48.98999,31,48z"/>
	<circle cx="32" cy="56" r="1"/>
</g>
</svg>
