<?xml version="1.0" encoding="utf-8"?>
<!-- Generator: Adobe Illustrator 27.3.1, SVG Export Plug-In . SVG Version: 6.00 Build 0)  -->
<svg version="1.1" id="Outline" xmlns="http://www.w3.org/2000/svg" xmlns:xlink="http://www.w3.org/1999/xlink" x="0px" y="0px"
	 viewBox="0 0 64 64" enable-background="new 0 0 64 64" xml:space="preserve">
<g>
	<path d="M40.94092,52.76904C44.15625,50.09668,46,46.17139,46,42c0-7.71973-6.28027-14-14-14s-14,6.28027-14,14
		c0,4.17139,1.84375,8.09668,5.05908,10.76904C23.23877,52.91846,23.46484,53,23.69824,53h16.60352
		C40.53516,53,40.76123,52.91846,40.94092,52.76904z M32,30c3.38275,0,6.43726,1.4126,8.62073,3.67218
		c-2.24878,0.987-4.45648,1.43768-6.56702,1.32928c-0.97705-0.05225-1.69482-0.22852-2.52588-0.43262
		c-0.92334-0.22705-1.96973-0.48389-3.4751-0.56738c-1.71936-0.09039-3.44543-0.01318-5.15918,0.20496
		C25.09613,31.63666,28.35809,30,32,30z M24.06787,51C21.47803,48.7168,20,45.45703,20,42c0-1.9917,0.49512-3.86737,1.35748-5.5224
		c2.177-0.42609,4.38849-0.59467,6.58685-0.47906c1.31738,0.07324,2.22656,0.29639,3.10645,0.51221
		c0.85107,0.20947,1.73145,0.42529,2.89844,0.48779c0.2417,0.0127,0.48438,0.01855,0.72754,0.01855
		c2.36597,0,4.79938-0.58917,7.25385-1.74463C43.23566,37.19263,44,39.50848,44,42c0,3.45703-1.47803,6.7168-4.06787,9H24.06787z"/>
	<path d="M38,25.02997V13h1c0.54999,0,1-0.45001,1-1V8c0-0.54999-0.45001-1-1-1H25c-0.54999,0-1,0.45001-1,1v4
		c0,0.54999,0.45001,1,1,1h1v12.02997C18.78998,27.56,14,34.28998,14,42c0,5.91998,2.90997,11.45996,7.78998,14.82001
		C21.96002,56.94,22.15997,57,22.35999,57H28c0.54999,0,1-0.45001,1-1s-0.45001-1-1-1h-5.32001C18.48999,51.98999,16,47.15997,16,42
		c0-7.08002,4.53998-13.22003,11.28998-15.29004C27.71002,26.57996,28,26.19,28,25.75V13h8v12.75
		c0,0.44,0.28998,0.82996,0.71002,0.95996C43.46002,28.77997,48,34.91998,48,42c0,5.15997-2.48999,9.98999-6.67999,13H36
		c-0.54999,0-1,0.45001-1,1s0.45001,1,1,1h5.64001c0.20001,0,0.39996-0.06,0.57001-0.17999C47.09003,53.45996,50,47.91998,50,42
		C50,34.28998,45.21002,27.56,38,25.02997z M26,11V9h12v2H26z"/>
	<path d="M32,41c-1.37842,0-2.5,1.12158-2.5,2.5c0,0.55225,0.44775,1,1,1s1-0.44775,1-1c0-0.27588,0.22412-0.5,0.5-0.5
		s0.5,0.22412,0.5,0.5v0.22363c0,0.11328-0.03857,0.22412-0.10938,0.3125l-2.67139,3.33936
		c-0.24023,0.2998-0.28711,0.71143-0.12061,1.05762C29.76514,48.77979,30.11572,49,30.5,49h3c0.55225,0,1-0.44775,1-1
		s-0.44775-1-1-1h-0.91943l1.37109-1.71387C34.30518,44.84473,34.5,44.29004,34.5,43.72363V43.5C34.5,42.12158,33.37842,41,32,41z"
		/>
	<path d="M25.5,38h-2c-0.55225,0-1,0.44775-1,1v6c0,0.55225,0.44775,1,1,1h2c1.6543,0,3-1.3457,3-3v-2
		C28.5,39.3457,27.1543,38,25.5,38z M26.5,43c0,0.55127-0.44873,1-1,1h-1v-4h1c0.55127,0,1,0.44873,1,1V43z"/>
	<path d="M41.5,41c0-1.6543-1.3457-3-3-3s-3,1.3457-3,3v2c0,1.6543,1.3457,3,3,3s3-1.3457,3-3V41z M39.5,43c0,0.55127-0.44873,1-1,1
		s-1-0.44873-1-1v-2c0-0.55127,0.44873-1,1-1s1,0.44873,1,1V43z"/>
	<circle cx="32" cy="56" r="1"/>
</g>
</svg>
