<?xml version="1.0" encoding="UTF-8"?>
<svg xmlns="http://www.w3.org/2000/svg" version="1.1" viewBox="0 0 64 64">
  <!-- Generator: Adobe Illustrator 28.7.1, SVG Export Plug-In . SVG Version: 1.2.0 Build 142)  -->
  <g>
    <g id="Outline">
      <g>
        <path d="M55.96002,23.81c-.01001-.04004.00995-.07001-.01001-.10999l-4.56-14.59003c-.39001-1.26001-1.54004-2.10999-2.85999-2.10999H15.46997c-1.31995,0-2.46997.84998-2.85999,2.10999l-4.56,14.59003c-.01996.03998,0,.06995-.01001.10999-.00995.06-.03998.12-.03998.19v29c0,2.20996,1.78998,4,4,4h40c2.21002,0,4-1.79004,4-4v-29c0-.07001-.03003-.13-.03998-.19ZM36,9h12.53003c.43994,0,.81995.27997.94995.70001l4.16003,13.29999h-17.64001v-14ZM30,9h4v14h-4v-14ZM14.52002,9.70001c.13-.42004.51001-.70001.94995-.70001h12.53003v14H10.35999l4.16003-13.29999ZM54,53c0,1.09998-.90002,2-2,2H12c-1.09998,0-2-.90002-2-2v-28h44v28Z"/>
        <path d="M32,27.86816c-1.16602,0-2.20312.6543-2.70703,1.70605l-2.97559,6.22461c-.23828.49902-.02734,1.0957.4707,1.33398.5.2373,1.0957.02637,1.33398-.4707l2.97559-6.22461c.33984-.71289,1.46484-.71289,1.80469,0l2.10736,4.40833-.4433-.15051c-.52148-.17773-1.09082.10254-1.26855.62598-.17676.52246.10254,1.09082.62598,1.26855,0,0,2.67871.90918,2.67874.90919.51556.17499,1.09341-.11025,1.26853-.62599l.90918-2.67871c.17676-.52246-.10254-1.09082-.62598-1.26855-.52246-.17773-1.09082.10254-1.26855.62598l-.11517.33917-2.06354-4.31671c-.50391-1.05176-1.54102-1.70605-2.70703-1.70605Z"/>
        <path d="M28,48.23047h-3.82812c-.35059,0-.6582-.16992-.8457-.4668-.18652-.29688-.20801-.64844-.05664-.96484l2.25153-4.71228.11761.37439c.16239.51691.73612.81902,1.25293.65527.52734-.16504.82031-.72656.65527-1.25293l-.84668-2.69921c-.16333-.52069-.73548-.81298-1.25391-.65528l-2.69824.84668c-.52637.16504-.81934.72656-.6543,1.25391.16504.52539.72363.81934,1.25391.6543l.41217-.12927-2.29498,4.8031c-.44629.93457-.38281,2.0166.16992,2.89355.55273.87598,1.50098,1.39941,2.53711,1.39941h3.82812c.55273,0,1-.44727,1-1s-.44727-1-1-1Z"/>
        <path d="M38.26953,39.32812c-.49902.23828-.70996.83496-.47168,1.33301l2.93262,6.1377c.15137.31641.12988.66797-.05664.96484-.1875.29688-.49512.4668-.8457.4668h-5.12598l.36914-.44141c.35449-.42285.29883-1.05371-.125-1.4082-.42285-.35645-1.05469-.29688-1.4082.125l-1.81543,2.16894c-.3504.41863-.29329,1.05829.125,1.4082,0,0,2.16992,1.81543,2.16993,1.81544.41789.35041,1.05858.29384,1.40819-.12501.35449-.42383.29883-1.05371-.125-1.4082l-.16101-.13477h4.68835c1.03613,0,1.98437-.52344,2.53711-1.39941.55273-.87695.61621-1.95898.16992-2.89355l-2.93262-6.1377c-.23828-.49902-.83789-.70996-1.33301-.47168Z"/>
      </g>
    </g>
  </g>
</svg>