<?xml version="1.0" encoding="utf-8"?>
<!-- Generator: Adobe Illustrator 27.3.1, SVG Export Plug-In . SVG Version: 6.00 Build 0)  -->
<svg version="1.1" id="Outline" xmlns="http://www.w3.org/2000/svg" xmlns:xlink="http://www.w3.org/1999/xlink" x="0px" y="0px"
	 viewBox="0 0 48 48" enable-background="new 0 0 48 48" xml:space="preserve">
<g>
	<circle cx="6" cy="24" r="1"/>
	<path d="M24,36c0.16797,0,0.33643-0.04199,0.48779-0.12695C25.46191,35.3291,34,30.40137,34,25v-9
		c0-0.46875-0.3252-0.87402-0.7832-0.97656l-9-2c-0.14258-0.03125-0.29102-0.03125-0.43359,0l-9,2
		C14.32568,15.12598,14,15.53125,14,16v9c0,5.40137,8.53857,10.3291,9.51221,10.87305C23.66357,35.95801,23.83203,36,24,36z M16,25
		v-8.19824l8-1.77734l8,1.77734V25c0,3.36426-5.38086,7.27734-8.00049,8.84473C21.37988,32.28027,16,28.37012,16,25z"/>
	<path d="M22.25,18c-0.55225,0-1,0.44727-1,1v4c0,0.55176-0.44873,1-1,1s-1-0.44824-1-1v-4c0-0.55273-0.44775-1-1-1s-1,0.44727-1,1
		v4c0,1.6543,1.3457,3,3,3s3-1.3457,3-3v-4C23.25,18.44727,22.80225,18,22.25,18z"/>
	<path d="M26.80176,25.31641C26.9375,25.72461,27.31934,26,27.75,26s0.8125-0.27539,0.94824-0.68359l2-6
		c0.1748-0.52441-0.1084-1.09082-0.63184-1.26465c-0.5293-0.17676-1.08984,0.1084-1.26465,0.63184L27.75,21.83789l-1.05176-3.1543
		c-0.17383-0.52344-0.7373-0.80859-1.26465-0.63184c-0.52393,0.17383-0.80713,0.74023-0.63232,1.26465L26.80176,25.31641z"/>
	<path d="M37.73047,18.31641v-7.04688c0-0.55273-0.44727-1-1-1h-7.04688l-4.97656-4.97656
		c-0.39062-0.39062-1.02344-0.39062-1.41406,0l-4.97705,4.97656h-7.0459c-0.55225,0-1,0.44727-1,1v7.04688l-2.14697,2.14648
		c-0.39062,0.39062-0.39062,1.02344,0,1.41406s1.02344,0.39062,1.41406,0l2.43994-2.43945
		c0.1875-0.1875,0.29297-0.44141,0.29297-0.70703v-6.46094h6.45996c0.26514,0,0.51953-0.10547,0.70703-0.29297L24,7.41406
		l4.5625,4.5625c0.1875,0.1875,0.44141,0.29297,0.70704,0.29297h6.46094v6.46094c0,0.26562,0.10547,0.51953,0.29297,0.70703
		L40.58594,24l-4.5625,4.5625c-0.1875,0.1875-0.29297,0.44141-0.29297,0.70703v6.46094h-6.46094
		c-0.26562,0-0.51953,0.10547-0.70704,0.29297L24,40.58594l-4.56299-4.5625c-0.1875-0.1875-0.44189-0.29297-0.70703-0.29297
		h-6.45996v-6.46094c0-0.26562-0.10547-0.51953-0.29297-0.70703l-2.43994-2.43945c-0.39062-0.39062-1.02344-0.39062-1.41406,0
		s-0.39062,1.02344,0,1.41406l2.14697,2.14648v7.04688c0,0.55273,0.44775,1,1,1h7.0459l4.97705,4.97656
		C23.48828,42.90234,23.74414,43,24,43s0.51172-0.09766,0.70703-0.29297l4.97656-4.97656h7.04688c0.55273,0,1-0.44727,1-1v-7.04688
		l4.97656-4.97656c0.39062-0.39062,0.39062-1.02344,0-1.41406L37.73047,18.31641z"/>
	<circle cx="40" cy="18" r="1"/>
	<path d="M31.7782,9.15076c0.3905-0.39056,0.3905-1.02368,0-1.41425c-0.39056-0.3905-1.02374-0.3905-1.41425,0
		c-0.3905,0.39056-0.3905,1.02368,0,1.41425C30.75446,9.54126,31.38763,9.54126,31.7782,9.15076z"/>
	<circle cx="18" cy="8" r="1"/>
	<path d="M9.15076,17.63605c0.3905-0.39056,0.3905-1.02374,0-1.41425s-1.02368-0.3905-1.41418,0
		c-0.39056,0.3905-0.39056,1.02368,0,1.41425C8.12708,18.02655,8.76025,18.02655,9.15076,17.63605z"/>
	<circle cx="8" cy="30" r="1"/>
	<path d="M16.2218,38.84924c-0.3905,0.3905-0.3905,1.02368,0,1.41418c0.39056,0.39056,1.02374,0.39056,1.41425,0
		c0.3905-0.3905,0.3905-1.02368,0-1.41418C17.24554,38.45868,16.61237,38.45868,16.2218,38.84924z"/>
	<circle cx="30" cy="40" r="1"/>
	<path d="M8.29297,9.70703c0.3751,0.37509,1.0214,0.39266,1.41406,0c0.39062-0.39062,0.39062-1.02344,0-1.41406l-3-3
		c-0.39062-0.39062-1.02344-0.39062-1.41406,0s-0.39062,1.02344,0,1.41406C5.29297,6.70703,8.29029,9.70435,8.29297,9.70703z"/>
	<path d="M42.70703,5.29297c-0.39062-0.39062-1.02344-0.39062-1.41406,0l-3,3c-0.3906,0.3906-0.39062,1.02335-0.00008,1.41398
		c0.36789,0.36798,1.03045,0.38377,1.41414,0.00008l3-3C43.09766,6.31641,43.09766,5.68359,42.70703,5.29297z"/>
	<path d="M39.70703,38.29297c-0.39062-0.39062-1.02344-0.39062-1.41406,0s-0.39062,1.02344,0,1.41406c0,0,3,3,3.00001,3.00001
		c0.38615,0.38614,1.02766,0.38639,1.41405-0.00001c0.39062-0.39062,0.39062-1.02344,0-1.41406L39.70703,38.29297z"/>
	<path d="M8.29297,38.29297l-3,3c-0.39062,0.39062-0.39062,1.02342-0.00002,1.41404
		c0.38629,0.38631,1.02842,0.38568,1.41408,0.00002l3-3c0.39062-0.39062,0.39062-1.02344,0-1.41406
		S8.68359,37.90234,8.29297,38.29297z"/>
</g>
</svg>
