<?xml version="1.0" encoding="UTF-8"?>
<svg xmlns="http://www.w3.org/2000/svg" version="1.1" viewBox="0 0 48 48">
  <!-- Generator: Adobe Illustrator 28.7.1, SVG Export Plug-In . SVG Version: 1.2.0 Build 142)  -->
  <g>
    <g id="Outline">
      <g>
        <path d="M38,25h-1.60999c-.42004,0-.79004-.26001-.94-.65002l-1.78003-4.75c-.58997-1.56-2.08997-2.59998-3.75-2.59998h-1.91998c-.54999,0-1,.45001-1,1s.45001,1,1,1h1.91998c.83002,0,1.58002.51996,1.87,1.29999l1.79004,4.76001c.45001,1.17999,1.54999,1.94,2.81,1.94h1.60999c1.29999,0,2.40002.83997,2.82001,2h-2.82001c-.54999,0-1,.45001-1,1,0,1.13.39001,2.15997,1.03003,3H11v-3c0-.54999-.45001-1-1-1h-3c0-1.10004.90002-2,2-2h.60999c1.26001,0,2.35999-.76001,2.82001-1.95001l1.78003-4.75c.28998-.78003,1.03998-1.29999,1.87-1.29999h3.91998c.54999,0,1-.45001,1-1s-.45001-1-1-1h-1v-3.94c1.15997-.41998,2-1.52002,2-2.82001,0-1.65002-1.34998-3-3-3s-3,1.34998-3,3c0,1.29999.84003,2.40002,2,2.82001v3.94h-.91998c-1.66003,0-3.16003,1.03998-3.75,2.59998l-1.77002,4.73999c-.15997.40002-.52997.66003-.95001.66003h-.60999c-2.21002,0-4,1.78998-4,4v6c0,2.20996,1.78998,4,4,4h3.09998c.47003,2.27997,2.49005,4,4.90002,4s4.42999-1.72003,4.90002-4h6.19995c.47003,2.27997,2.49005,4,4.90002,4s4.42999-1.72003,4.90002-4h2.09998c1.65002,0,3-1.35004,3-3v-6c0-2.76001-2.23999-5-5-5ZM18,9.23999c.54999,0,1,.45001,1,1s-.45001,1-.98999,1h-.02002c-.53998,0-.98999-.45001-.98999-1s.45001-1,1-1ZM7,31h2v2h-2v-2ZM12.09998,37h-3.09998c-1.09998,0-2-.90002-2-2h6.03003c-.45001.57996-.78003,1.26001-.93005,2ZM17,41c-1.65002,0-3-1.35004-3-3s1.34998-3,3-3,3,1.34998,3,3-1.34998,3-3,3ZM28.09998,37h-6.19995c-.15002-.73999-.48004-1.42004-.93005-2h8.06006c-.45001.57996-.78003,1.26001-.93005,2ZM33,41c-1.65002,0-3-1.35004-3-3s1.34998-3,3-3,3,1.34998,3,3-1.34998,3-3,3ZM41,36c0,.54999-.45001,1-1,1h-2.09998c-.15002-.73999-.48004-1.42004-.93005-2h4.03003v1ZM41,32.82996c-.84998-.29999-1.53003-.97998-1.83002-1.82996h1.83002v1.82996Z"/>
        <path d="M21,21h-4c-.38,0-.72998.20996-.89001.54999l-2,4c-.15997.31-.14001.67999.04004.97998.17999.29004.5.47003.84998.47003h6c.54999,0,1-.45001,1-1v-4c0-.54999-.45001-1-1-1ZM20,25h-3.38l1-2h2.38v2Z"/>
        <path d="M31.85059,26.52588c.18213-.29492.19873-.66309.04395-.97314l-2-4c-.16943-.33887-.51562-.55273-.89453-.55273h-4c-.55225,0-1,.44775-1,1v4c0,.55225.44775,1,1,1h6c.34668,0,.66846-.17969.85059-.47412ZM26,25v-2h2.38184l1,2h-3.38184Z"/>
        <path d="M15,29c-.55225,0-1,.44775-1,1s.44775,1,1,1h2c.55225,0,1-.44775,1-1s-.44775-1-1-1h-2Z"/>
        <path d="M25,29c-.55225,0-1,.44775-1,1s.44775,1,1,1h2c.55225,0,1-.44775,1-1s-.44775-1-1-1h-2Z"/>
        <circle cx="17" cy="38" r="1"/>
        <circle cx="33" cy="38" r="1"/>
        <path d="M9.75732,15.48535c.25586,0,.51172-.09766.70703-.29297.39062-.39062.39062-1.02344,0-1.41406-1.94922-1.94971-1.94922-5.12158,0-7.07129.39062-.39062.39062-1.02344,0-1.41406s-1.02344-.39062-1.41406,0c-2.72949,2.729-2.72949,7.17041,0,9.89941.19531.19531.45117.29297.70703.29297Z"/>
        <path d="M12.58594,12.65674c.25586,0,.51221-.09766.70752-.29297.39014-.39062.39014-1.02393-.00049-1.41455-.18848-.18799-.29248-.43896-.29248-.70654s.104-.51855.29248-.70654c.39062-.39062.39062-1.02393.00049-1.41455-.39062-.39062-1.02393-.39014-1.41455-.00049-.56641.56641-.87842,1.31982-.87842,2.12158s.31201,1.55518.87842,2.12158c.19531.19482.45117.29248.70703.29248Z"/>
        <path d="M25.53564,15.19238c.19531.19531.45117.29297.70703.29297s.51172-.09766.70703-.29297c2.72949-2.729,2.72949-7.17041,0-9.89941-.39062-.39062-1.02344-.39062-1.41406,0s-.39062,1.02344,0,1.41406c1.94922,1.94971,1.94922,5.12158,0,7.07129-.39062.39062-.39062,1.02344,0,1.41406Z"/>
        <path d="M22.70654,12.36377c.19531.19531.45166.29297.70752.29297s.51172-.09766.70703-.29248c.56641-.56641.87842-1.31982.87842-2.12158s-.31201-1.55518-.87842-2.12158c-.39062-.38965-1.02393-.39014-1.41455.00049-.39014.39062-.39014,1.02393.00049,1.41455.18848.18799.29248.43896.29248.70654s-.104.51855-.29248.70654c-.39062.39062-.39062,1.02393-.00049,1.41455Z"/>
        <circle cx="24" cy="18" r="1"/>
      </g>
    </g>
  </g>
</svg>