<?xml version="1.0" encoding="UTF-8"?>
<svg id="Outline" xmlns="http://www.w3.org/2000/svg" version="1.1" viewBox="0 0 48 48">
  <path d="M42,41h-7.98633v-2h3c1.6543,0,3-1.3457,3-3,0-1.30194-.8385-2.40161-2-2.81573v-5.18427c0-2.75684-2.24316-5-5-5s-5,2.24316-5,5v5.18427c-1.1615.41412-2,1.51379-2,2.81573,0,1.6543,1.3457,3,3,3h3v2h-16.01367v-2h3c1.6543,0,3-1.3457,3-3,0-1.30194-.8385-2.40161-2-2.81573v-5.18427c0-2.75684-2.24316-5-5-5s-5,2.24316-5,5v5.18427c-1.1615.41412-2,1.51379-2,2.81573,0,1.6543,1.3457,3,3,3h3v2H6c-.55225,0-1,.44727-1,1s.44775,1,1,1h36c.55225,0,1-.44727,1-1s-.44775-1-1-1ZM12,28c0-1.6543,1.3457-3,3-3s3,1.3457,3,3v5h-6v-5ZM11,37c-.55127,0-1-.44824-1-1s.44873-1,1-1h8c.55127,0,1,.44824,1,1s-.44873,1-1,1h-8ZM30.01367,28c0-1.6543,1.3457-3,3-3s3,1.3457,3,3v5h-6v-5ZM29.01367,37c-.55127,0-1-.44824-1-1s.44873-1,1-1h8c.55127,0,1,.44824,1,1s-.44873,1-1,1h-8Z" fill="#000" stroke-width="0"/>
  <path d="M24,23c4.9624,0,9-4.0376,9-9s-4.0376-9-9-9-9,4.0376-9,9,4.0376,9,9,9ZM24,7c3.85986,0,7,3.14014,7,7s-3.14014,7-7,7-7-3.14014-7-7,3.14014-7,7-7Z" fill="#000" stroke-width="0"/>
  <path d="M26.12305,17.53711c.37445.37445,1.02368.39032,1.41406,0,.39062-.39062.39062-1.02344,0-1.41406l-2.53711-2.53711v-3.58594c0-.55225-.44775-1-1-1s-1,.44775-1,1v4c0,.26514.10547.51953.29297.70703l2.83008,2.83008Z" fill="#000" stroke-width="0"/>
  <path d="M36,13c-.55225,0-1,.44775-1,1s.44775,1,1,1h2c.55225,0,1-.44775,1-1s-.44775-1-1-1h-2Z" fill="#000" stroke-width="0"/>
  <path d="M34.93457,19.04346s1.87891.68408,1.87897.68408c.51361.18817,1.09564-.08521,1.28168-.59766.18896-.51855-.07861-1.09277-.59766-1.28125l-1.87939-.68408c-.5166-.19141-1.09277.07812-1.28125.59766-.18896.51855.07861,1.09277.59766,1.28125Z" fill="#000" stroke-width="0"/>
  <path d="M35.27637,10.87598c.11487.00214.23065-.01575.3418-.05615l1.87939-.68359c.51904-.18896.78662-.7627.59814-1.28174-.18945-.51953-.76416-.78662-1.28174-.59814,0,0-1.87488.68195-1.87939.68359-1.02533.37292-.74536,1.91614.3418,1.93604Z" fill="#000" stroke-width="0"/>
  <path d="M10.01367,15h2c.55225,0,1-.44775,1-1s-.44775-1-1-1h-2c-.55225,0-1,.44775-1,1s.44775,1,1,1Z" fill="#000" stroke-width="0"/>
  <path d="M12.39551,17.16455l-1.87939.68408c-.51904.18848-.78662.76263-.59766,1.28119.18268.50146.76581.78674,1.28174.59772l1.87891-.68408c.51904-.18848.78662-.7627.59766-1.28125-.18896-.51953-.76465-.78906-1.28125-.59766Z" fill="#000" stroke-width="0"/>
  <path d="M10.51611,10.13623s1.87939.68359,1.87946.68359c.51282.18646,1.09576-.08759,1.28168-.59814.18848-.51904-.0791-1.09277-.59814-1.28174l-1.87939-.68359c-.5166-.18701-1.09229.0791-1.28174.59814-.18848.51904.0791,1.09277.59814,1.28174Z" fill="#000" stroke-width="0"/>
</svg>