<?xml version="1.0" encoding="UTF-8"?>
<svg xmlns="http://www.w3.org/2000/svg" version="1.1" viewBox="0 0 64 64">
  <!-- Generator: Adobe Illustrator 28.7.1, SVG Export Plug-In . SVG Version: 1.2.0 Build 142)  -->
  <g>
    <g id="Outline">
      <g>
        <path d="M56,27h-8v-2c0-.54999-.45001-1-1-1h-3v-1c1.65002,0,3-1.35004,3-3s-1.34998-3-3-3h-2v-3c0-1.65002-1.34998-3-3-3h-6v-3c0-.54999-.45001-1-1-1h-10c-.54999,0-1,.45001-1,1v3h-6c-1.65002,0-3,1.34998-3,3v3h-2c-1.65002,0-3,1.34998-3,3s1.34998,3,3,3v31c0,1.64996,1.34998,3,3,3h28c1.65002,0,3-1.35004,3-3v-18h3c.54999,0,1-.45001,1-1v-2h3v23c0,.54999.45001,1,1,1h4c.54999,0,1-.45001,1-1v-28c0-.54999-.45001-1-1-1ZM23,9h8v2h-8v-2ZM14,14c0-.54999.45001-1,1-1h24c.54999,0,1,.45001,1,1v3H14v-3ZM42,54c0,.54999-.45001,1-1,1H13c-.54999,0-1-.45001-1-1v-2h3c.54999,0,1-.45001,1-1s-.45001-1-1-1h-3v-2h3c.54999,0,1-.45001,1-1s-.45001-1-1-1h-3v-2h3c.54999,0,1-.45001,1-1s-.45001-1-1-1h-3v-2h3c.54999,0,1-.45001,1-1s-.45001-1-1-1h-3v-2h3c.54999,0,1-.45001,1-1s-.45001-1-1-1h-3v-2h3c.54999,0,1-.45001,1-1s-.45001-1-1-1h-3v-2h3c.54999,0,1-.45001,1-1s-.45001-1-1-1h-3v-3h30v31ZM10,21c-.54999,0-1-.45001-1-1s.45001-1,1-1h34c.54999,0,1,.45001,1,1s-.45001,1-1,1H10ZM46,34h-2v-8h2v8ZM55,55h-2v-23c0-.54999-.45001-1-1-1h-4v-2h7v26Z"/>
        <path d="M25.70703,44.70703l2-2c.39062-.39062.39062-1.02344,0-1.41406-.34253-.34253-.86279-.36639-1.25116-.10822.66425-1.29083,1.9953-2.18475,3.54413-2.18475h2c.55225,0,1-.44727,1-1s-.44775-1-1-1h-2c-2.87091,0-5.27423,2.02765-5.8606,4.72534l-.43237-.43237c-.39062-.39062-1.02344-.39062-1.41406,0s-.39062,1.02344,0,1.41406l2,2c.19531.19531.45117.29297.70703.29297s.51172-.09766.70703-.29297Z"/>
        <path d="M32.29297,41.29297l-2,2c-.39062.39062-.39062,1.02344,0,1.41406.34253.34253.86279.36639,1.25116.10822-.66425,1.29083-1.9953,2.18475-3.54413,2.18475h-2c-.55225,0-1,.44727-1,1s.44775,1,1,1h2c2.87091,0,5.27423-2.02765,5.8606-4.72534l.43236.43236c.36572.36572,1.02487.38922,1.41408.00001.39062-.39062.39062-1.02344,0-1.41406l-2-2c-.39062-.39062-1.02344-.39062-1.41406,0Z"/>
        <path d="M29,33c-5.51416,0-10,4.48633-10,10s4.48584,10,10,10,10-4.48633,10-10-4.48584-10-10-10ZM29,51c-4.41113,0-8-3.58887-8-8s3.58887-8,8-8,8,3.58887,8,8-3.58887,8-8,8Z"/>
        <path d="M36.17725,25.43164c-.65479.94824-2.17725,3.29004-2.17725,4.56836,0,1.6543,1.3457,3,3,3s3-1.3457,3-3c0-1.27832-1.52246-3.62012-2.17725-4.56836-.37305-.54102-1.27246-.54102-1.64551,0ZM37,31c-.55127,0-1-.44824-1-.99902.0083-.30566.42383-1.17676,1-2.14746.57568.9707.9917,1.84082,1,2.14746-.00049.55078-.44873.99902-1,.99902Z"/>
        <path d="M24,30c0-1.27832-1.52246-3.62012-2.17725-4.56836-.37305-.54102-1.27246-.54102-1.64551,0-.65479.94824-2.17725,3.29004-2.17725,4.56836,0,1.6543,1.3457,3,3,3s3-1.3457,3-3ZM20,30.00098c.0083-.30566.42383-1.17676,1-2.14746.57568.9707.9917,1.84082,1,2.14746-.00049.55078-.44873.99902-1,.99902s-1-.44824-1-.99902Z"/>
      </g>
    </g>
  </g>
</svg>