<?xml version="1.0" encoding="UTF-8"?>
<svg xmlns="http://www.w3.org/2000/svg" version="1.1" viewBox="0 0 64 64">
  <!-- Generator: Adobe Illustrator 28.7.1, SVG Export Plug-In . SVG Version: 1.2.0 Build 142)  -->
  <g>
    <g id="Outline">
      <g>
        <path d="M29.23535,19.25977c-.38184-.3457-.96387-.3457-1.3457,0-.44434.4043-10.88965,9.97266-10.88965,16.17773,0,6.37598,5.18701,11.5625,11.5625,11.5625,2.98358,0,5.69794-1.14557,7.75116-3.00769.0824.00226.16162.00769.2464.00769,6.37402,0,11.56006-5.18555,11.56006-11.55957,0-6.21191-10.44287-15.77637-10.88721-16.18066-.38184-.3457-.96436-.34668-1.34619.00098-.10132.09241-2.3042,2.10712-4.72046,4.86743-1.06323-1.07434-1.81836-1.76605-1.93091-1.86841ZM19,35.4375c0-4.10449,6.37402-11.0293,9.5625-14.07031,3.18848,3.04102,9.5625,9.96582,9.5625,14.07031,0,2.65234-1.08691,5.05463-2.8371,6.78864-.00592.00531-.01147.01025-.01727.01569-1.72754,1.70331-4.09613,2.75818-6.70813,2.75818-5.27295,0-9.5625-4.29004-9.5625-9.5625ZM36.56396,18.37109c3.18945,3.04004,9.55615,9.95801,9.55615,14.06934,0,4.72003-3.44153,8.64142-7.94507,9.41235,1.23004-1.83704,1.94995-4.04315,1.94995-6.41528,0-4.01044-4.36157-9.42285-7.56793-12.86096,1.60828-1.84741,3.15759-3.38879,4.0069-4.20544Z"/>
        <path d="M32,7c-4.45605,0-8.83301,1.19238-12.65771,3.44824-.47607.28027-.63428.89355-.35352,1.36914.28027.47559.89404.63281,1.36914.35352,3.51758-2.07422,7.54346-3.1709,11.64209-3.1709,12.68213,0,23,10.31738,23,23s-10.31787,23-23,23-23-10.31738-23-23c0-5.46387,1.95361-10.75879,5.50049-14.91016.35889-.41992.30908-1.05078-.11084-1.40918-.41846-.35938-1.05127-.30957-1.40967.11035-3.85645,4.5127-5.97998,10.26855-5.97998,16.20898,0,13.78516,11.21484,25,25,25s25-11.21484,25-25S45.78516,7,32,7Z"/>
        <path d="M51,32c0,.55273.44775,1,1,1s1-.44727,1-1c0-11.5791-9.42041-21-21-21-.55225,0-1,.44727-1,1s.44775,1,1,1c10.47656,0,19,8.52344,19,19Z"/>
        <path d="M13,32c0-.55273-.44775-1-1-1s-1,.44727-1,1c0,11.5791,9.42041,21,21,21,.55225,0,1-.44727,1-1s-.44775-1-1-1c-10.47656,0-19-8.52344-19-19Z"/>
        <path d="M17.21588,14.38098c.4231-.35504.47827-.98578.12323-1.40887-.35498-.42303-.98572-.47821-1.40881-.12323-.42303.35498-.47827.98578-.12323,1.40881.35498.4231.98572.47827,1.40881.12329Z"/>
      </g>
    </g>
  </g>
</svg>