<?xml version="1.0" encoding="UTF-8"?>
<svg xmlns="http://www.w3.org/2000/svg" version="1.1" viewBox="0 0 64 64">
  <!-- Generator: Adobe Illustrator 28.7.1, SVG Export Plug-In . SVG Version: 1.2.0 Build 142)  -->
  <g>
    <g id="Outline">
      <g>
        <path d="M55,37.17999v-7.17999c0-6.07001-4.92999-11-11-11h-2v-1c0-1.65002-1.34998-3-3-3h-2v-2h4c1.65002,0,3-1.35004,3-3s-1.34998-3-3-3h-14c-1.65002,0-3,1.34998-3,3s1.34998,3,3,3h4v2h-2c-1.65002,0-3,1.34998-3,3v1h-7v-2c0-2.21002-1.78998-4-4-4h-.14001c-.45001-1.72003-2-3-3.85999-3h-3c-.54999,0-1,.45001-1,1v28c0,.54999.45001,1,1,1h3c1.85999,0,3.40997-1.28003,3.85999-3h.14001c2.21002,0,4-1.79004,4-4v-2h24v6.17999c-1.15997.41998-2,1.52002-2,2.82001,0,1.64996,1.34998,3,3,3h10c1.65002,0,3-1.35004,3-3,0-1.29999-.84003-2.40002-2-2.82001ZM13,36c0,1.09998-.90002,2-2,2h-2V12h2c1.09998,0,2,.89996,2,2v22ZM17,33c0,1.09998-.90002,2-2,2V15c1.09998,0,2,.89996,2,2v16ZM27,11c-.54999,0-1-.45001-1-1s.45001-1,1-1h14c.54999,0,1,.45001,1,1s-.45001,1-1,1h-14ZM35,13v2h-2v-2h2ZM19,29v-8h8c.54999,0,1-.45001,1-1v-2c0-.54999.45001-1,1-1h10c.54999,0,1,.45001,1,1v2c0,.54999.45001,1,1,1h3c4.96002,0,9,4.03998,9,9v7h-8v-7c0-.54999-.45001-1-1-1h-25ZM54,41h-10c-.54999,0-1-.45001-1-1s.45001-1,1-1h10c.54999,0,1,.45001,1,1s-.45001,1-1,1Z"/>
        <path d="M49.68799,45.27441c-.38574-.36523-.99023-.36523-1.37598,0-.72021.68262-4.31201,4.21387-4.31201,6.72559,0,2.75684,2.24316,5,5,5s5-2.24316,5-5c0-2.51172-3.5918-6.04297-4.31201-6.72559ZM49,55c-1.6543,0-3-1.3457-3-3,0-1.04883,1.5835-3.10547,3-4.58691,1.4165,1.48145,3,3.53809,3,4.58691,0,1.6543-1.3457,3-3,3Z"/>
        <path d="M38.94,41.92999c-.06-.45001-.41998-.81-.87-.87-.21002-.02002-5.04999-.58002-7.82001,2.19-.09003.08997-.16998.19-.25.28998v-2.53998c0-.54999-.45001-1-1-1-.19,0-.35999.07001-.51001.15997-.21997-.32001-.45996-.63-.73999-.90997-2.77002-2.77002-7.60999-2.21002-7.82001-2.19-.45001.06-.81.41998-.87.87-.02002.21002-.58002,5.04999,2.19,7.82001,1.95001,1.95001,4.92999,2.25,6.59003,2.25h.15997v8c0,.54999.45001,1,1,1s1-.45001,1-1v-4h.15997c1.66003,0,4.64001-.29999,6.59003-2.25,2.77002-2.77002,2.21002-7.60999,2.19-7.82001ZM23.72998,43.27997c1.25.71002,2.37,1.63,3.31,2.69-1.34998-.09998-3.17999-.45001-4.37-1.64001-1.5-1.5-1.67999-4.02997-1.66998-5.32996,1.31.01001,3.83002.16998,5.33002,1.66998.88.87,1.29999,2.09998,1.5,3.22998-.92999-.89996-1.97003-1.70996-3.10004-2.35999-.47998-.27002-1.08997-.10999-1.37.37-.26996.48004-.10999,1.09003.37,1.37ZM35.33002,48.32996c-1.17999,1.19-3.01001,1.53003-4.37,1.63.94995-1.04999,2.06-1.96997,3.31-2.67999.47998-.27997.63995-.88995.37-1.37-.28003-.47998-.89001-.64001-1.37-.37-1.13.65002-2.17004,1.46002-3.10004,2.35999.21002-1.15997.65002-2.38995,1.5-3.22998,1.5-1.51001,4.03003-1.66998,5.33002-1.66998.02002,1.46997-.25,3.91998-1.66998,5.32996Z"/>
        <path d="M56.94,7.92999c-.06-.45001-.41998-.81-.87-.87-.21002-.02002-5.04999-.58002-7.82001,2.19-2.77002,2.76996-2.21002,7.60999-2.19,7.82001.06.44995.41998.81.87.87.06.01001.53003.06,1.22998.06,1.66003,0,4.64001-.29999,6.59003-2.25,2.77002-2.77002,2.21002-7.60999,2.19-7.82001ZM53.33002,14.32996c-1.17999,1.19-3.01001,1.53003-4.37,1.63.94995-1.04999,2.06-1.96997,3.31-2.67999.47998-.27997.63995-.88995.37-1.37-.28003-.47998-.89001-.64001-1.37-.37-1.13.65002-2.17004,1.46002-3.10004,2.35999.21002-1.15997.65002-2.38995,1.5-3.22998,1.5-1.51001,4.03003-1.66998,5.33002-1.66998.02002,1.46997-.25,3.91998-1.66998,5.32996Z"/>
      </g>
    </g>
  </g>
</svg>