<?xml version="1.0" encoding="UTF-8"?>
<svg xmlns="http://www.w3.org/2000/svg" version="1.1" viewBox="0 0 64 64">
  <!-- Generator: Adobe Illustrator 28.7.1, SVG Export Plug-In . SVG Version: 1.2.0 Build 142)  -->
  <g>
    <g id="Outline">
      <g>
        <path d="M24,48.99988v-6.89209c0-.90527-.24609-1.79492-.7124-2.57275l-3.87256-6.45361c-.90579-1.5095-2.71236-2.24442-4.41504-1.82147v-9.26006c0-2.1747-1.82895-4.00001-4-4.00001-2.20557,0-4,1.79443-4,4v10.56982c0,5.80103,1.4986,11.47137,4.31775,16.51562-1.32532.31067-2.31775,1.49585-2.31775,2.91455v2c0,1.6543,1.3457,3,3,3h4c.55225,0,1-.44775,1-1s-.44775-1-1-1h-4c-.55127,0-1-.44873-1-1v-2c0-.55127.44873-1,1-1h12c.55127,0,1,.44873,1,1v2c0,.55127-.44873,1-1,1h-4c-.55225,0-1,.44775-1,1s.44775,1,1,1h4c1.6543,0,3-1.3457,3-3v-2c0-1.6543-1.3457-3-3-3ZM9,21.99988c0-1.10297.89688-1.99991,1.99983-2,1.0852-.00009,2.00016.91841,2.00017,2v10.45288c-1.0882,1.20209-1.39703,2.98969-.64062,4.50171l2.74609,5.49268c.24658.49365.8457.69531,1.3418.44727.49414-.24707.69434-.84766.44727-1.3418l-2.74609-5.49268c-.47116-.94135-.13285-2.10337.76985-2.64492.94247-.5654,2.21978-.24151,2.78191.6957l3.87207,6.45312c.27979.4668.42773,1.00049.42773,1.54395v6.89209h-8.42365c-2.98718-4.96332-4.57635-10.62817-4.57635-16.43018v-10.56982Z"/>
        <path d="M56,31.99988c.55225,0,1-.44775,1-1v-9c0-2.20554-1.79439-3.99996-3.99992-4-2.16954-.00004-4.00008,1.8363-4.00008,4v9.25995c-.6308-.15662-1.29034-.17621-1.93848-.01337-1.04346.26074-1.92334.9126-2.47656,1.83496l-3.87305,6.4541c-.46582.77734-.71191,1.66699-.71191,2.57227v6.89209c-1.6543,0-3,1.3457-3,3v2c0,1.6543,1.3457,3,3,3h12c1.6543,0,3-1.3457,3-3v-2c0-1.41602-.98895-2.59894-2.31042-2.91229,2.39996-4.29938,3.85748-9.10736,4.21765-14.01447.04053-.55078-.37305-1.03027-.92383-1.07031-.55908-.04834-1.03027.37305-1.07031.92383-.36462,4.95801-1.92017,9.80792-4.48657,14.07324h-8.42651v-6.89209c0-.54346.14795-1.07715.42725-1.54346l3.87254-6.45359c.56473-.94112,1.84349-1.25918,2.78175-.69583.90283.5415,1.24121,1.70361.77002,2.64502l-2.74609,5.49268c-.24707.49414-.04688,1.09473.44727,1.3418.49512.24805,1.09521.0459,1.3418-.44727l2.74609-5.49268c.75641-1.51202.44757-3.29962-.64062-4.50171v-10.45288c0-1.06663.89601-2,2-2,1.10303,0,2,.89697,2,2v9c0,.55225.44775,1,1,1ZM53,51.99988v2c0,.55127-.44873,1-1,1h-12c-.55127,0-1-.44873-1-1v-2c0-.55127.44873-1,1-1h12c.55127,0,1,.44873,1,1Z"/>
        <path d="M46,23.99988c0-7.62207-12.88965-16.45508-13.43848-16.82764-.33887-.22949-.78418-.22949-1.12305,0-.54883.37256-13.43848,9.20557-13.43848,16.82764,0,7.71973,6.28027,14,14,14s14-6.28027,14-14ZM32,35.99988c-6.6167,0-12-5.3833-12-12,0-5.17773,8.18701-12.07275,12-14.78223,3.81299,2.70947,12,9.60449,12,14.78223,0,6.6167-5.3833,12-12,12Z"/>
        <path d="M27.96436,18.2113c-.37646-.40674-1.00928-.43115-1.41309-.05566-1.56689,1.44873-2.49658,3.51123-2.55127,5.68408v.16016c0,.98431.18982,1.92981.52808,2.81897l-.56372-.151c-.53125-.14404-1.08203.17383-1.22461.70703-.14307.5332.17334,1.08154.70703,1.22461,0,0,2.73242.73242,2.73245.73243.52804.14261,1.08298-.17884,1.22458-.70704l.73193-2.73242c.14307-.53369-.17383-1.08203-.70703-1.22461-.53662-.146-1.08203.17383-1.22461.70703l-.01379.05145c-.11316-.46204-.19031-.93555-.19031-1.42645l-.00049-.13477c.0415-1.63477.71973-3.14062,1.90918-4.24072.40576-.375.43066-1.00781.05566-1.41309Z"/>
        <path d="M32.29297,19.70691c.36687.36684,1.0224.39166,1.41406,0,.39062-.39062.39062-1.02344,0-1.41406l-.06439-.06439c.51898.14716,1.01721.3634,1.48041.6474,1.36758.82563,2.35973,2.19952,2.72258,3.76872.28895,1.2496,2.24116.81573,1.94832-.44988-.4834-2.09375-1.80908-3.92725-3.63135-5.02734-.87622-.53723-1.85107-.88538-2.86493-1.05109l.40936-.40936c.39062-.39062.39062-1.02344,0-1.41406s-1.02344-.39062-1.41406,0l-2,2c-.39062.39062-.39062,1.02344,0,1.41406,0,0,1.99108,1.99108,2,2Z"/>
        <path d="M39.52783,26.37488c-.06836-.25635-.23633-.47461-.46582-.60742-.23047-.13281-.50488-.16846-.75879-.09961l-2.73193.73242c-.53369.14307-.8501.69141-.70703,1.22461.14258.5332.69189.85254,1.22461.70703l.04932-.01324c-.37872.36511-.79022.69635-1.25342.95123-1.41455.76416-3.06152.94043-4.64014.47168-.53223-.15723-1.08643.14453-1.24316.67383-.15723.52979.14453,1.08643.67383,1.24316.76318.22656,1.54492.34131,2.32471.34131,1.35254,0,2.64307-.32666,3.8418-.97412.90546-.49792,1.68567-1.18048,2.33331-1.97357l.1535.57269c.3319,1.23825,2.26871.73865,1.93164-.51757l-.73242-2.73242Z"/>
      </g>
    </g>
  </g>
</svg>