<?xml version="1.0" encoding="utf-8"?>
<!-- Generator: Adobe Illustrator 27.3.1, SVG Export Plug-In . SVG Version: 6.00 Build 0)  -->
<svg version="1.1" id="Outline" xmlns="http://www.w3.org/2000/svg" xmlns:xlink="http://www.w3.org/1999/xlink" x="0px" y="0px"
	 viewBox="0 0 64 64" enable-background="new 0 0 64 64" xml:space="preserve">
<g>
	<path d="M53.29297,23.29297C53.05859,23.52734,51,25.65332,51,28c0,1.6543,1.3457,3,3,3s3-1.3457,3-3
		c0-2.34668-2.05859-4.47266-2.29297-4.70703C54.31641,22.90234,53.68359,22.90234,53.29297,23.29297z M54,29
		c-0.55176,0-1-0.44873-1-1c0-0.82959,0.50977-1.75586,1-2.43896c0.49023,0.68311,1,1.60938,1,2.43896
		C55,28.55127,54.55176,29,54,29z"/>
	<path d="M20,30c-4.9624,0-9,4.0376-9,9s4.0376,9,9,9h4c0.55225,0,1-0.44775,1-1s-0.44775-1-1-1h-4
		c-3.23566,0-5.9577-2.20978-6.75604-5.1972c1.90857-0.59668,3.82703-0.87848,5.71552-0.80377
		c1.29395,0.05273,2.12207,0.24414,3.08105,0.46582c0.76562,0.17676,1.6333,0.37695,2.83545,0.52734
		c0.4007,0.05005,0.78894,0.06476,1.18329,0.09381C26.3457,43.01245,27.99512,44.5,30,44.5c2.20557,0,4-1.79443,4-4
		c0-0.04987-0.00708-0.09912-0.00842-0.14893c0.6875-0.13025,1.39093-0.25867,2.14514-0.36035
		c3.48029-0.479,7.00183-0.36261,10.73236,0.34277C46.2442,43.55725,43.4032,46,40,46h-8c-0.55225,0-1,0.44775-1,1s0.44775,1,1,1h8
		c4.96289,0,9-4.0376,9-9s-4.03711-9-9-9H20z M30,42.5c-1.10303,0-2-0.89697-2-2c0-1.69922,1.19775-3.47998,2-4.48193
		c0.80225,1.00195,2,2.78271,2,4.48193C32,41.60303,31.10303,42.5,30,42.5z M46.96539,38.31653
		c-3.81433-0.69055-7.54486-0.79791-11.09918-0.30774c-0.79956,0.10797-1.53174,0.24164-2.24542,0.3772
		c-0.84033-2.48834-2.80786-4.48749-2.91376-4.59302c-0.39062-0.39062-1.02344-0.39062-1.41406,0
		c-0.11572,0.11536-2.45691,2.49164-3.1167,5.29828c-0.35077-0.02631-0.69507-0.03894-1.05225-0.08344
		c-1.1001-0.1377-1.87939-0.31787-2.6333-0.4917c-1.0127-0.23389-1.96924-0.45508-3.44971-0.51514
		c-2.00452-0.08704-4.02325,0.19153-6.02997,0.78033C13.12799,35.02307,16.21393,32,20,32h20
		C43.62872,32,46.62061,34.77637,46.96539,38.31653z"/>
	<path d="M48,7c-4.96002,0-9,4.03998-9,9v10H27v-3c0-0.54999-0.45001-1-1-1h-6c-0.54999,0-1,0.45001-1,1v3.01996
		c-6.65002,0.17004-12,5.62006-12,12.31v1.34003c0,6.69,5.34998,12.14001,12,12.31V56c0,0.54999,0.45001,1,1,1h20
		c0.54999,0,1-0.45001,1-1v-4.04999C47.70001,51.44,53,45.82996,53,39c0-5.40002-3.31-10.03003-8-12V16c0-1.65002,1.34998-3,3-3
		s3,1.34998,3,3v4c0,0.54999,0.45001,1,1,1h4c0.54999,0,1-0.45001,1-1v-4C57,11.03998,52.96002,7,48,7z M21,24h4v2h-4V24z M39,55H21
		v-3h18V55z M51,39c0,6.07001-4.92999,11-11,11H19.33002C13.63,50,9,45.37,9,39.66998v-1.34003C9,32.63,13.63,28,19.33002,28H40
		C46.07001,28,51,32.92999,51,39z M55,19h-2v-3c0-2.76001-2.23999-5-5-5s-5,2.23999-5,5v10.35999
		c-0.65002-0.15002-1.32001-0.26001-2-0.31V16c0-3.85999,3.14001-7,7-7s7,3.14001,7,7V19z"/>
	<circle cx="28" cy="47" r="1"/>
</g>
</svg>
