<?xml version="1.0" encoding="utf-8"?>
<!-- Generator: Adobe Illustrator 27.3.1, SVG Export Plug-In . SVG Version: 6.00 Build 0)  -->
<svg version="1.1" id="Outline" xmlns="http://www.w3.org/2000/svg" xmlns:xlink="http://www.w3.org/1999/xlink" x="0px" y="0px"
	 viewBox="0 0 64 64" enable-background="new 0 0 64 64" xml:space="preserve">
<g>
	<circle cx="37" cy="48" r="1"/>
	<circle cx="42" cy="52" r="1"/>
	<circle cx="46" cy="47" r="1"/>
	<circle cx="52" cy="50" r="1"/>
	<path d="M56.42999,40.09998c-0.34998-0.16998-0.77002-0.12-1.07001,0.13c-1.07996,0.89001-2.28998,1.5-3.58997,1.79999
		c-1.73004,0.40002-3.14001-0.01996-4.92999-0.54999C46.33002,41.32996,45.81,41.17999,45.25,41.02997
		C45.12,41,41.83002,40.14996,36.03003,40c-2.13-0.06-4.33002,0.17999-6.55005,0.67999
		c-0.23999-0.16998-0.45996-0.35004-0.70996-0.51001c-1.88-1.16998-3.27002-2.98999-3.91003-5.12l-1.25-4.16998
		c-0.23999-0.82001-0.76001-1.56-1.45996-2.08002C21.45001,28.27997,20.60999,28,19.73999,28
		c-1.04999,0-1.90997-0.79004-2.01001-1.83002L17.44,23.39996C17.13,20.32001,14.57001,18,11.47998,18H8c-0.54999,0-1,0.45001-1,1
		v37c0,0.54999,0.45001,1,1,1h6c0.54999,0,1-0.45001,1-1s-0.45001-1-1-1H9v-4h23v4H22c-0.54999,0-1,0.45001-1,1s0.45001,1,1,1h34
		c0.54999,0,1-0.45001,1-1V41C57,40.60999,56.78003,40.26001,56.42999,40.09998z M9,49V20h2.47998
		c2.06,0,3.77002,1.54999,3.98004,3.59998L15.72998,26.37C15.94,28.44,17.65997,30,19.73999,30
		c0.44,0,0.85999,0.14001,1.21002,0.39996c0.35999,0.27002,0.62,0.64001,0.73999,1.05005L22.94,35.63
		c0.77997,2.59998,2.47998,4.81,4.77002,6.23999c1.31,0.82001,2.39996,1.96997,3.13995,3.31
		C31.5,46.35999,31.87,47.65997,31.96002,49H9z M55,55H34v-5.38c0-1.89001-0.47998-3.76001-1.40002-5.40002
		c-0.37-0.66998-0.81995-1.28998-1.31995-1.87C32.87,42.07996,34.45001,41.95996,35.96997,42
		c5.56006,0.14001,8.75,0.95996,8.78003,0.96997c0.53003,0.14001,1.03003,0.28003,1.52002,0.42999
		c1.90997,0.56,3.70996,1.10004,5.94995,0.57001C53.20001,43.75,54.12,43.39001,55,42.89996V55z"/>
	<path d="M23,24h21c3.30859,0,6-2.69141,6-6c0-2.23535-1.22949-4.26074-3.17383-5.29834C46.25,10.55713,44.26465,9,42,9
		c-0.88623,0-1.74463,0.23438-2.5,0.67236C38.1875,8.00146,36.1665,7,34,7c-2.38086,0-4.54541,1.18262-5.83496,3.1377
		C27.78809,10.04639,27.39844,10,27,10c-2.44434,0-4.48438,1.76318-4.91602,4.08398C19.76318,14.51562,18,16.55566,18,19
		C18,21.75684,20.24316,24,23,24z M23,16c0.55225,0,1-0.44775,1-1c0-1.6543,1.3457-3,3-3c0.43066,0,0.82373,0.08447,1.20215,0.25879
		c0.4917,0.2251,1.07471,0.02002,1.31396-0.46533C30.36914,10.07031,32.0874,9,34,9c1.81976,0,3.49597,0.98962,4.37439,2.58276
		c0.31366,0.56885,1.09045,0.68939,1.56262,0.2439C40.50098,11.29346,41.23389,11,42,11c1.46973,0,2.74268,1.0918,2.96143,2.53955
		c0.05176,0.34326,0.27832,0.63525,0.59814,0.771C47.04199,14.93994,48,16.38818,48,18c0,2.20557-1.79443,4-4,4H23
		c-1.6543,0-3-1.3457-3-3S21.3457,16,23,16z"/>
	<path d="M28.29297,26.29297C28.05811,26.52734,26,28.65332,26,31c0,1.6543,1.3457,3,3,3s3-1.3457,3-3
		c0-2.34668-2.05811-4.47266-2.29297-4.70703C29.31641,25.90234,28.68359,25.90234,28.29297,26.29297z M30,31
		c0,0.55127-0.44873,1-1,1s-1-0.44873-1-1c0-0.82959,0.50977-1.75586,1-2.43896C29.49023,29.24414,30,30.17041,30,31z"/>
	<path d="M36.29297,28.29297C36.05811,28.52734,34,30.65332,34,33c0,1.6543,1.3457,3,3,3s3-1.3457,3-3
		c0-2.34668-2.05811-4.47266-2.29297-4.70703C37.31641,27.90234,36.68359,27.90234,36.29297,28.29297z M38,33
		c0,0.55127-0.44873,1-1,1s-1-0.44873-1-1c0-0.82959,0.50977-1.75586,1-2.43896C37.49023,31.24414,38,32.17041,38,33z"/>
	<path d="M44.29297,26.29297C44.05811,26.52734,42,28.65332,42,31c0,1.6543,1.3457,3,3,3s3-1.3457,3-3
		c0-2.34668-2.05811-4.47266-2.29297-4.70703C45.31641,25.90234,44.68359,25.90234,44.29297,26.29297z M46,31
		c0,0.55127-0.44873,1-1,1s-1-0.44873-1-1c0-0.82959,0.50977-1.75586,1-2.43896C45.49023,29.24414,46,30.17041,46,31z"/>
	<path d="M52,39c1.6543,0,3-1.3457,3-3c0-2.34668-2.05811-4.47266-2.29297-4.70703c-0.39062-0.39062-1.02344-0.39062-1.41406,0
		C51.05811,31.52734,49,33.65332,49,36C49,37.6543,50.3457,39,52,39z M52,33.56104c0.49023,0.68311,1,1.60938,1,2.43896
		c0,0.55127-0.44873,1-1,1s-1-0.44873-1-1C51,35.17041,51.50977,34.24414,52,33.56104z"/>
	<circle cx="18" cy="56" r="1"/>
</g>
</svg>
