<?xml version="1.0" encoding="UTF-8"?>
<svg xmlns="http://www.w3.org/2000/svg" version="1.1" viewBox="0 0 64 64">
  <!-- Generator: Adobe Illustrator 28.7.1, SVG Export Plug-In . SVG Version: 1.2.0 Build 142)  -->
  <g>
    <g id="Outline">
      <g>
        <path d="M35,16.5h21c.54999,0,1-.45001,1-1v-6c0-.54999-.45001-1-1-1h-25c-2.76001,0-5,2.23999-5,5v7h-1c-.54999,0-1,.45001-1,1v3h-10c-1.29999,0-2.40002.83997-2.82001,2h-3.17999c-.54999,0-1,.45001-1,1v14c0,.54999.45001,1,1,1h3.17999c.41998,1.15997,1.52002,2,2.82001,2h2.94c-.22003,1.88-1.03998,3.62-2.37,5h-1.57001c-.54999,0-1,.45001-1,1v3h-4c-.54999,0-1,.45001-1,1s.45001,1,1,1h48c.54999,0,1-.45001,1-1s-.45001-1-1-1h-16v-3c0-.54999-.45001-1-1-1h-1.57001c-1.33002-1.38-2.14996-3.12-2.37-5h2.94c1.65002,0,3-1.35004,3-3h3c.54999,0,1-.45001,1-1v-2h3c.54999,0,1-.45001,1-1v-6c0-.54999-.45001-1-1-1h-3v-2c0-.54999-.45001-1-1-1h-3c0-1.65002-1.34998-3-3-3h-2v-3c0-.54999-.45001-1-1-1h-1v-3c0-.54999.45001-1,1-1ZM11,40.5h-2v-12h2v12ZM45,32.5h2v4h-2v-4ZM41,29.5h2v10h-2v-10ZM26,22.5h8v2h-8v-2ZM38,51.5v2H14v-2h24ZM17.15002,49.5c1.00995-1.48004,1.63-3.19,1.79999-5h14.09998c.16998,1.81.79004,3.51996,1.79999,5h-17.69995ZM38,26.5c.54999,0,1,.45001,1,1v14c0,.54999-.45001,1-1,1H14c-.54999,0-1-.45001-1-1v-14c0-.54999.45001-1,1-1h24ZM32,17.5v3h-4v-7c0-1.65002,1.34998-3,3-3h24v4h-20c-1.65002,0-3,1.34998-3,3Z"/>
        <path d="M15,29.5v10c0,.55273.44775,1,1,1h20c.55225,0,1-.44727,1-1v-10c0-.55273-.44775-1-1-1h-20c-.55225,0-1,.44727-1,1ZM35,30.5v8h-6v-8h6ZM17,30.5h10v8h-10v-8Z"/>
        <circle cx="20" cy="34.5" r="1"/>
        <circle cx="24" cy="34.5" r="1"/>
      </g>
    </g>
  </g>
</svg>