<?xml version="1.0" encoding="UTF-8"?>
<svg id="Outline" xmlns="http://www.w3.org/2000/svg" version="1.1" viewBox="0 0 64 64">
  <path d="M54,11h-2c-.34998,0-.69.07001-1,.17999v-.17999c0-1.65002-1.34998-3-3-3h-2c-1.65002,0-3,1.34998-3,3v5h-22v-5c0-1.65002-1.34998-3-3-3h-2c-1.65002,0-3,1.34998-3,3v.17999c-.31-.10999-.65002-.17999-1-.17999h-2c-1.65002,0-3,1.34998-3,3v10c0,1.64996,1.34998,3,3,3h2c.34998,0,.69-.07001,1-.17999v.17999c0,1.64996,1.34998,3,3,3h2c1.65002,0,3-1.35004,3-3v-5h22v5c0,1.64996,1.34998,3,3,3h2c1.65002,0,3-1.35004,3-3v-.17999c.31.10999.65002.17999,1,.17999h2c1.65002,0,3-1.35004,3-3v-10c0-1.65002-1.34998-3-3-3ZM13,24c0,.54999-.45001,1-1,1h-2c-.54999,0-1-.45001-1-1v-10c0-.54999.45001-1,1-1h2c.54999,0,1,.45001,1,1v10ZM19,27c0,.54999-.45001,1-1,1h-2c-.54999,0-1-.45001-1-1V11c0-.54999.45001-1,1-1h2c.54999,0,1,.45001,1,1v16ZM43,20h-22v-2h22v2ZM49,27c0,.54999-.45001,1-1,1h-2c-.54999,0-1-.45001-1-1V11c0-.54999.45001-1,1-1h2c.54999,0,1,.45001,1,1v16ZM55,24c0,.54999-.45001,1-1,1h-2c-.54999,0-1-.45001-1-1v-10c0-.54999.45001-1,1-1h2c.54999,0,1,.45001,1,1v10Z" style="fill: #000; stroke-width: 0px;"/>
  <path d="M54,37h-2c-.34998,0-.69.07001-1,.17999v-.17999c0-1.65002-1.34998-3-3-3h-2c-1.65002,0-3,1.34998-3,3v5h-22v-5c0-1.65002-1.34998-3-3-3h-2c-1.65002,0-3,1.34998-3,3v.17999c-.31-.10999-.65002-.17999-1-.17999h-2c-1.65002,0-3,1.34998-3,3v10c0,1.64996,1.34998,3,3,3h2c.34998,0,.69-.07001,1-.17999v.17999c0,1.64996,1.34998,3,3,3h2c1.65002,0,3-1.35004,3-3v-5h22v5c0,1.64996,1.34998,3,3,3h2c1.65002,0,3-1.35004,3-3v-.17999c.31.10999.65002.17999,1,.17999h2c1.65002,0,3-1.35004,3-3v-10c0-1.65002-1.34998-3-3-3ZM13,50c0,.54999-.45001,1-1,1h-2c-.54999,0-1-.45001-1-1v-10c0-.54999.45001-1,1-1h2c.54999,0,1,.45001,1,1v10ZM19,53c0,.54999-.45001,1-1,1h-2c-.54999,0-1-.45001-1-1v-16c0-.54999.45001-1,1-1h2c.54999,0,1,.45001,1,1v16ZM43,46h-22v-2h22v2ZM49,53c0,.54999-.45001,1-1,1h-2c-.54999,0-1-.45001-1-1v-16c0-.54999.45001-1,1-1h2c.54999,0,1,.45001,1,1v16ZM55,50c0,.54999-.45001,1-1,1h-2c-.54999,0-1-.45001-1-1v-10c0-.54999.45001-1,1-1h2c.54999,0,1,.45001,1,1v10Z" style="fill: #000; stroke-width: 0px;"/>
</svg>