<?xml version="1.0" encoding="UTF-8"?>
<svg xmlns="http://www.w3.org/2000/svg" version="1.1" viewBox="0 0 64 64">
  <!-- Generator: Adobe Illustrator 28.7.1, SVG Export Plug-In . SVG Version: 1.2.0 Build 142)  -->
  <g>
    <g id="Outline">
      <g>
        <path d="M32.69,38.27997l-7.91998-4.57001c-.17004-.48999-.42999-.94-.77002-1.32996v-9.14001c0-1.76001-.97998-3.34998-2.54999-4.13-.28003-.15002-.60999-.15002-.89001,0-1.58002.78003-2.56,2.37-2.56,4.13v9.14001c-.33002.38995-.59998.83997-.77002,1.32996l-7.90997,4.57001c-1.53003.88-2.41003,2.52002-2.31,4.28003.02002.31.19.59997.45001.76996,1.45901.95384,3.3446,1.02188,4.85999.15003l5.87-3.39001-1.54999,10.91003h-.64001c-2.20001,0-4,1.78998-4,4h-1c-.54999,0-1,.45001-1,1s.45001,1,1,1h20c.56,0,1-.45001,1-1s-.44-1-1-1h-1c0-2.21002-1.78998-4-4-4h-.63l-1.52997-10.90002,5.84998,3.38001c1.49091.8697,3.41813.81702,4.84997-.15003.27002-.16998.42999-.45996.45001-.76996.10999-1.76001-.77002-3.40002-2.29999-4.28003ZM11.32001,41.75c-.71002.40997-1.54999.45996-2.28998.15997.10999-.78998.57996-1.47998,1.28998-1.89001l6.83997-3.95996c.19.65997.52002,1.26001.99005,1.73999l-6.83002,3.95001ZM20,23.23999c0-.82001.38-1.57001,1-2.06.63.48999,1,1.23999,1,2.06v7.90002c-.32001-.08002-.65002-.14001-1-.14001-.34003,0-.67999.06-1,.14001v-7.90002ZM21,33c1.10999,0,2,.89996,2,2,0,1.09998-.89001,2-2,2-1.09998,0-2-.90002-2-2,0-1.10004.90002-2,2-2ZM20.38,38.94c.20001.02997.40997.06.62.06.22998,0,.44-.03003.65997-.07001l1.69,12.07001h-4.69l1.72003-12.06ZM26,53c1.10999,0,2,.89996,2,2h-14c0-1.10004.90002-2,2-2h10ZM30.69,41.75l-6.84003-3.95001c.47003-.47998.81-1.08002.99005-1.73999l6.84998,3.95996c.71002.40002,1.16998,1.10004,1.27997,1.89001-.73999.29999-1.56995.25-2.27997-.15997Z"/>
        <path d="M54.69,26.27997l-7.91998-4.57001c-.17004-.48999-.42999-.94-.77002-1.32996v-9.14001c0-1.76001-.97998-3.34998-2.54999-4.13-.28003-.15002-.62-.15002-.90002,0-1.57001.78003-2.54999,2.37-2.54999,4.13v9.14001c-.34003.38995-.59998.83997-.77002,1.32996l-7.91998,4.57001c-1.52002.88-2.40002,2.52002-2.29999,4.28003.02002.31.19.59998.45001.76996.76996.52002,1.65997.77002,2.53998.77002.79999,0,1.59003-.20001,2.31-.62l6.42999-3.71002-2.60999,18.23004h-.13c-2.21002,0-4,1.78998-4,4h-1c-.54999,0-1,.45001-1,1s.45001,1,1,1h20c.54999,0,1-.45001,1-1s-.45001-1-1-1h-1c0-2.21002-1.78998-4-4-4h-.13l-2.60999-18.23004,6.42999,3.71002c1.49607.86322,3.41328.8203,4.84998-.15002.26001-.16998.42999-.45996.45001-.76996.10004-1.76001-.77997-3.40002-2.29999-4.28003ZM33.31,29.75c-.71002.40997-1.53998.45996-2.27997.15997.10999-.78998.56995-1.48999,1.27997-1.89001l6.84998-3.95996c.18005.65997.52002,1.26001.99005,1.73999l-6.84003,3.95001ZM42,11.23999c0-.82001.37-1.57001,1-2.06.63.48999,1,1.23999,1,2.06v7.90002c-.32001-.08002-.65002-.14001-1-.14001s-.67999.06-1,.14001v-7.90002ZM43,21c1.09998,0,2,.89996,2,2,0,1.09998-.90002,2-2,2s-2-.90002-2-2c0-1.10004.90002-2,2-2ZM48,48c1.09998,0,2,.89996,2,2h-14c0-1.10004.90002-2,2-2h10ZM45.84998,46h-5.69995l2.71997-19h.26001l2.71997,19ZM52.69,29.75l-6.84003-3.95001c.47003-.47998.81-1.08002.99005-1.73999l6.84998,3.95996c.71002.41003,1.16998,1.10004,1.27997,1.89001-.73999.29999-1.56995.25-2.27997-.15997Z"/>
      </g>
    </g>
  </g>
</svg>