<?xml version="1.0" encoding="UTF-8"?>
<svg xmlns="http://www.w3.org/2000/svg" version="1.1" viewBox="0 0 64 64">
  <!-- Generator: Adobe Illustrator 28.7.1, SVG Export Plug-In . SVG Version: 1.2.0 Build 142)  -->
  <g>
    <g id="Outline">
      <g>
        <path d="M51.52262,27.76091c-.24628-.42064-.54713-.82019-.82837-1.19091-2.12-2.85004-5.19-4.90002-8.64996-5.76001l-1.54004-.38.04999-.19c.98004-3.41003.75-7.09998-.64996-10.38l-.58002-1.33002c-.40002-.92999-1.29999-1.52997-2.31-1.52997s-1.90997.59998-2.31,1.51996l-.58002,1.35004c-1.39996,3.27002-1.63,6.95996-.64996,10.35999l.04999.20001-1.53998.38c-3.46002.85999-6.53003,2.90997-8.65006,5.76006-.90751,1.19298-1.90397,2.40184-1.03999,3.93988.82579,1.47005,2.51239,1.22624,3.92003,1.06007,2.75-.33002,5.31-1.38,7.5-3.02002l-1.95001,16.88c-1.53998.13-2.90997,1.02997-3.64001,2.39001-2.33997.21997-4.16998,2.19-4.16998,4.57996,0,2.54004,2.06,4.60004,4.59998,4.60004h3.40002c.54999,0,1-.45001,1-1s-.45001-1-1-1h-3.40002c-1.42999,0-2.59998-1.17004-2.59998-2.60004s1.16998-2.59998,2.59003-2.59998l.10999.01001c.45996.06.90997-.22003,1.06-.66003.37-1.04999,1.34998-1.75,2.44-1.75.89001,0,1.70996.45001,2.20001,1.22003.27997.45001.88.58997,1.33997.33002.40002-.23004.82001-.35004,1.26001-.35004.54999,0,1-.45001,1-1,0-1.42999,1.16998-2.59998,2.59998-2.59998.46002,0,.91003.12,1.30005.34998.81.47998,1.29999,1.32001,1.29999,2.25,0,.38-.09003.77002-.27002,1.13-.20001.39001-.12.84998.17999,1.16003.31.29999.77002.37994,1.16003.17999.35999-.17999.75-.27002,1.13-.27002,1.42999,0,2.59998,1.16998,2.59998,2.59998s-1.16998,2.60004-2.59998,2.60004h-5.40002c-.54999,0-1,.45001-1,1s.45001,1,1,1h5.40002c2.53998,0,4.59998-2.06,4.59998-4.60004,0-2.60999-2.19-4.71997-4.79999-4.59998v-.20001c0-1.64996-.85004-3.13-2.28003-3.96997-.27997-.16003-.57001-.28003-.87-.38l-1.69-14.70001c2.18998,1.64,4.74995,2.68998,7.49994,3.02001,1.43943.17275,3.05919.43436,3.92993-1.0798.54811-.95311.27352-1.88381-.2215-2.72929ZM25.97427,29.58997c-.47202.05613-1.63765.45012-1.94989-.07977-.2982-.5065.61251-1.34827.90986-1.74024,1.78003-2.39996,4.34003-4.13995,7.23004-4.92999-.09003.37-.15002.76001-.15002,1.16003,0,1,.29999,1.92999.81,2.70996-1.96997,1.58002-4.32001,2.57001-6.84999,2.88001ZM35.96427,10.65997l.58002-1.34998c.15997-.38.76996-.39001.94.01001l.57996,1.32996c1.17004,2.74005,1.39001,5.80005.66003,8.67004-.54004-.20001-1.11005-.32001-1.71002-.32001s-1.16998.12-1.71002.32001c-.72998-2.87-.50995-5.92999.66003-8.66003ZM36.04429,46.69c-.18005.03998-.37006.08997-.55005.15997-.48999-.52002-1.08997-.89996-1.75-1.14996l1.95001-16.90002c.41998.12.85999.20001,1.32001.20001s.90002-.08002,1.32001-.20001l1.64001,14.25c-1.96002.25-3.55005,1.72998-3.92999,3.64001ZM38.69425,26.48999q-.01001,0-.02002.01001c-.47998.31-1.04999.5-1.65997.5s-1.17999-.19-1.65997-.5q-.01001-.01001-.02002-.01001c-.78998-.53998-1.32001-1.46002-1.32001-2.48999,0-1.65002,1.34998-3,3-3s3,1.34998,3,3c0,1.02997-.52002,1.95001-1.32001,2.48999ZM50.01426,29.5c-.10999.17999-.31.27997-.52002.26001l-1.44-.17004c-2.52997-.31-4.88-1.29999-6.84998-2.88.51001-.77997.81-1.70996.81-2.70996,0-.40002-.06-.79004-.15002-1.16003,2.89001.79004,5.45001,2.53003,7.23004,4.93.2853.37713,1.21242,1.20354.91998,1.73004Z"/>
        <circle cx="37.01456" cy="24" r="1"/>
        <path d="M31.95426,10c0-1.6543-1.3457-3-3-3h-4c-.55273,0-1,.44775-1,1s.44727,1,1,1h4c.55176,0,1,.44873,1,1s-.44824,1-1,1h-10c-.55273,0-1,.44775-1,1s.44727,1,1,1h10c1.6543,0,3-1.3457,3-3Z"/>
        <path d="M27.95426,18c0,.55127-.44824,1-1,1h-2c-.55273,0-1,.44775-1,1s.44727,1,1,1h2c1.6543,0,3-1.3457,3-3s-1.3457-3-3-3h-6c-.55273,0-1,.44775-1,1s.44727,1,1,1h6c.55176,0,1,.44873,1,1Z"/>
        <path d="M12.95426,13h2c.55273,0,1-.44775,1-1s-.44727-1-1-1h-2c-.55273,0-1,.44775-1,1s.44727,1,1,1Z"/>
        <path d="M16.95426,15h-4c-.55273,0-1,.44775-1,1s.44727,1,1,1h4c.55273,0,1-.44775,1-1s-.44727-1-1-1Z"/>
        <circle cx="35.95426" cy="56" r="1"/>
      </g>
    </g>
  </g>
</svg>