<?xml version="1.0" encoding="UTF-8"?>
<svg id="Outline" xmlns="http://www.w3.org/2000/svg" version="1.1" viewBox="0 0 64 64">
  <path d="M18.01815,47.5957c.60339-.70062.98175-1.60052.98175-2.5957,0-2.20605-1.79443-4-4-4s-4,1.79395-4,4c0,.99518.37836,1.89508.98175,2.5957-2.91852,1.19415-4.98175,4.06116-4.98175,7.4043v1c0,.55273.44775,1,1,1h14c.55225,0,1-.44727,1-1v-1c0-3.34314-2.06323-6.21014-4.98175-7.4043ZM12.9999,45c0-1.10254.89697-2,2-2s2,.89746,2,2-.89697,2-2,2-2-.89746-2-2ZM8.9999,55c0-3.30859,2.69141-6,6-6s6,2.69141,6,6h-12Z" fill="#000" stroke-width="0"/>
  <path d="M52.01827,47.59576c.60333-.70062.98163-1.60052.98163-2.59576,0-2.20605-1.79395-4-4-4s-4,1.79395-4,4c0,.99524.3783,1.89514.98163,2.59576-2.9184,1.19421-4.98163,4.06116-4.98163,7.40424v1c0,.55273.44727,1,1,1h14c.55273,0,1-.44727,1-1v-1c0-3.34308-2.06323-6.21002-4.98163-7.40424ZM46.9999,45c0-1.10254.89746-2,2-2s2,.89746,2,2-.89746,2-2,2-2-.89746-2-2ZM42.9999,55c0-3.30859,2.69141-6,6-6s6,2.69141,6,6h-12Z" fill="#000" stroke-width="0"/>
  <path d="M31.9999,37h-8c-1.6543,0-3,1.3457-3,3v4c0,1.6543,1.3457,3,3,3v2.99997c0,.87054,1.09246,1.32163,1.70703.70706l3.70703-3.70703h2.58594c1.6543,0,3-1.3457,3-3v-4c0-1.6543-1.3457-3-3-3ZM32.9999,44c0,.55176-.44873,1-1,1h-3c-.26514,0-.51953.10547-.70703.29297l-2.29297,2.29297v-1.58594c0-.55273-.44775-1-1-1h-1c-.55127,0-1-.44824-1-1v-4c0-.55176.44873-1,1-1h8c.55127,0,1,.44824,1,1v4Z" fill="#000" stroke-width="0"/>
  <path d="M56.4999,30.69c-.60999-.36005-.96997-.98999-.96997-1.69s.35999-1.33002.96997-1.69c.47998-.27002.64001-.88.37-1.35999l-2.25-3.90002c-.27997-.47998-.89001-.64001-1.37-.35999-.08002.03998-.16998.07001-.25.09998v-9.78998c0-1.65002-1.34998-3-3-3h-5.17999c-.41998-1.16003-1.52002-2-2.82001-2h-20c-1.29999,0-2.40002.83997-2.82001,2h-5.17999c-1.65002,0-3,1.34998-3,3v1.57001c-1.89001.82996-3.34003,2.5-3.82001,4.56-.57001,2.47998.22998,4.95996,2.10999,6.59998v3.27002c0,1.19.70001,2.21997,1.71002,2.70001v1.29999c0,1.64996,1.34998,3,3,3h25l.53998.95001c.28003.47998.89001.63995,1.37.35999.61005-.35004,1.34003-.35004,1.95001,0,.60999.35999.97003.98999.97003,1.69,0,.54999.45001,1,1,1h4.5c.54999,0,1-.45001,1-1,0-.70001.37-1.33002.96997-1.69.60999-.35004,1.34003-.35004,1.95001,0,.47998.27997,1.09003.12,1.37-.35999l2.25-3.90002c.27002-.47998.10999-1.09003-.37-1.35999ZM21.9999,9h20c.54999,0,1,.45001,1,1s-.45001,1-1,1h-20c-.54999,0-1-.45001-1-1s.45001-1,1-1ZM10.88991,23.45996c-1.52002-1.13995-2.19-3.00995-1.76001-4.88.40002-1.70996,1.83002-3.10999,3.54999-3.46997.34003-.07001.67999-.10999,1.02002-.10999,1.08997,0,2.14001.37,2.97998,1.04999,1.10999.90002,1.75,2.23999,1.75,3.65997,0,1.48004-.69,2.84003-1.89001,3.75-.25.19-.39996.49005-.39996.80005v.73999h-1.42999v-2.59003l1.70996-1.70001c.39001-.38995.39001-1.02997,0-1.41998-.38995-.39001-1.01996-.39001-1.40997,0l-1.29999,1.29999-1.29004-1.29999c-.38995-.39001-1.01996-.39001-1.40997,0s-.39001,1.03003,0,1.41998l1.70001,1.70001v2.59003h-1.42004v-.73999c0-.31-.14996-.61005-.39996-.80005ZM11.28988,28v-1h4.85004v1c0,.54999-.45001,1-1,1h-2.85004c-.56,0-1-.45001-1-1ZM37.65987,27.31c.61005.35999.97003.98999.97003,1.69s-.35999,1.32996-.97003,1.69c-.47998.26996-.63995.88-.37,1.35999l.55005.95001H13.9999c-.54999,0-1-.45001-1-1v-1h2.14001c1.65997,0,3-1.35004,3-3v-3.27002c1.45996-1.27002,2.28998-3.08002,2.28998-5.02002,0-2.02997-.90997-3.92999-2.48999-5.20996-1.39001-1.13-3.15002-1.64001-4.94-1.46002v-1.03998c0-.54999.45001-1,1-1h5.17999c.41998,1.15997,1.52002,2,2.82001,2h20c1.29999,0,2.40002-.84003,2.82001-2h5.17999c.54999,0,1,.45001,1,1v9.45001c-.41998-.36005-.66998-.88-.66998-1.45001,0-.54999-.45001-1-1-1h-4.5c-.54999,0-1,.45001-1,1,0,.70001-.36005,1.32996-.97003,1.69-.60999.34998-1.33997.34998-1.95001,0-.47998-.28003-1.08997-.12-1.37.35999l-2.25,3.90002c-.26996.47998-.10999,1.08997.37,1.35999ZM54.69991,31.81l-1.38,2.38c-1-.28003-2.08002-.15002-3.02002.38995-.92999.54004-1.58002,1.41003-1.83997,2.42004h-2.75c-.26001-1.01001-.91003-1.88-1.85004-2.42004-.94-.53998-2.01001-.66998-3.01996-.38995l-1.38-2.38c.75-.73004,1.16998-1.73004,1.16998-2.81,0-1.08002-.41998-2.08002-1.16998-2.81l1.38-2.38c1.00995.27997,2.07996.14996,3.01996-.39001s1.59003-1.40997,1.85004-2.41998h2.75c.25995,1.01001.90997,1.88,1.83997,2.41998.94.53998,2.02002.66998,3.02002.39001l1.38,2.38c-.75.72998-1.16998,1.72998-1.16998,2.81,0,1.07996.41998,2.07996,1.16998,2.81Z" fill="#000" stroke-width="0"/>
  <path d="M47.16103,33c2.20605,0,4-1.79395,4-4s-1.79395-4-4-4-4,1.79395-4,4,1.79395,4,4,4ZM47.16103,27c1.10254,0,2,.89746,2,2s-.89746,2-2,2-2-.89746-2-2,.89746-2,2-2Z" fill="#000" stroke-width="0"/>
</svg>