<?xml version="1.0" encoding="UTF-8"?>
<svg xmlns="http://www.w3.org/2000/svg" version="1.1" viewBox="0 0 64 64">
  <!-- Generator: Adobe Illustrator 28.7.1, SVG Export Plug-In . SVG Version: 1.2.0 Build 142)  -->
  <g>
    <g id="Outline">
      <g>
        <path d="M50,7h-23c-.54999,0-1,.45001-1,1s.45001,1,1,1h23c.54999,0,1,.45001,1,1v13H13v-13c0-.54999.45001-1,1-1h5c.54999,0,1-.45001,1-1s-.45001-1-1-1h-5c-1.65002,0-3,1.34998-3,3v40c0,1.64996,1.34998,3,3,3h7v3c0,.54999.45001,1,1,1h20c.54999,0,1-.45001,1-1v-3h7c1.65002,0,3-1.35004,3-3V10c0-1.65002-1.34998-3-3-3ZM41,55h-18v-2h18v2ZM51,50c0,.54999-.45001,1-1,1H14c-.54999,0-1-.45001-1-1v-25h38v25Z"/>
        <circle cx="48" cy="28" r="1"/>
        <circle cx="16" cy="28" r="1"/>
        <circle cx="48" cy="48" r="1"/>
        <circle cx="16" cy="48" r="1"/>
        <path d="M23,12v8c0,.55225.44775,1,1,1s1-.44775,1-1v-8c0-.55225-.44775-1-1-1s-1,.44775-1,1Z"/>
        <path d="M19.10547,11.55273l-1.10547,2.21143-1.10547-2.21143c-.24707-.49414-.84619-.69482-1.3418-.44727-.49414.24707-.69434.84766-.44727,1.3418l1.89453,3.78906v3.76367c0,.55225.44775,1,1,1s1-.44775,1-1v-3.76367l1.89453-3.78906c.24707-.49414.04688-1.09473-.44727-1.3418-.49463-.24756-1.09473-.04688-1.3418.44727Z"/>
        <path d="M32,13c.55225,0,1-.44775,1-1s-.44775-1-1-1h-4c-.55225,0-1,.44775-1,1v8c0,.55225.44775,1,1,1h4c.55225,0,1-.44775,1-1s-.44775-1-1-1h-3v-2h3c.55225,0,1-.44775,1-1s-.44775-1-1-1h-3v-2h3Z"/>
        <path d="M36,11c-.55225,0-1,.44775-1,1v8c0,.55225.44775,1,1,1h4c.55225,0,1-.44775,1-1s-.44775-1-1-1h-3v-7c0-.55225-.44775-1-1-1Z"/>
        <path d="M49,16c0-2.75684-2.24316-5-5-5-.55225,0-1,.44775-1,1v8c0,.55225.44775,1,1,1,2.75684,0,5-2.24316,5-5ZM45,13.17139c1.16406.4126,2,1.5249,2,2.82861s-.83594,2.41602-2,2.82861v-5.65723Z"/>
        <path d="M44,27h-24c-.36035,0-.69287.19385-.87012.50732-.17773.31348-.17285.69824.0127,1.00732l12,20c.18066.30127.50635.48535.85742.48535s.67676-.18408.85742-.48535l12-20c.18555-.30908.19043-.69385.0127-1.00732-.17725-.31348-.50977-.50732-.87012-.50732ZM32,46.05615l-10.23389-17.05615h20.46777l-10.23389,17.05615Z"/>
        <path d="M32,37c.55225,0,1-.44775,1-1v-4c0-.55225-.44775-1-1-1s-1,.44775-1,1v4c0,.55225.44775,1,1,1Z"/>
        <circle cx="32" cy="40" r="1"/>
        <circle cx="23" cy="8" r="1"/>
      </g>
    </g>
  </g>
</svg>