<svg fill="#000000" xmlns="http://www.w3.org/2000/svg"  viewBox="0 0 48 48" width="24px" height="24px"><path d="M 14.476562 5.9785156 A 1.50015 1.50015 0 0 0 13.443359 6.4179688 A 1.50015 1.50015 0 0 0 13.408203 6.4511719 A 1.50015 1.50015 0 0 0 13 7.7402344 L 13 40.5 A 1.50015 1.50015 0 0 0 14.5 42 L 26.5 42 C 32.281501 42 37 37.281501 37 31.5 C 37 27.471343 34.706702 23.964624 31.361328 22.205078 C 33.562113 20.560857 35 17.944445 35 15 C 35 10.047281 30.952719 6 26 6 L 14.746094 6 A 1.50015 1.50015 0 0 0 14.476562 5.9785156 z M 16 9 L 26 9 C 29.331281 9 32 11.668719 32 15 C 32 18.331281 29.331281 21 26 21 L 17.5 21 L 16 21 L 16 9 z M 16 24 L 17.5 24 L 26 24 L 26.5 24 C 30.660499 24 34 27.339501 34 31.5 C 34 35.660499 30.660499 39 26.5 39 L 16 39 L 16 24 z"/></svg>