<svg fill="#000000" xmlns="http://www.w3.org/2000/svg"  viewBox="0 0 48 48" width="24px" height="24px"><path d="M 24.320312 5.0058594 C 23.178572 5.0058594 22.068214 5.1418057 20.998047 5.3984375 C 18.857712 5.9117011 16.880517 6.9100833 15.148438 8.2871094 C 12.550318 10.352648 10.50344 13.267379 9.28125 16.666016 C 9.2810444 16.666587 9.2814556 16.667397 9.28125 16.667969 C 8.466853 18.933256 8.0175781 21.413692 8.0175781 24 C 8.0175781 25.940247 8.2704346 27.820891 8.7402344 29.595703 C 8.8968322 30.187286 9.0775368 30.765601 9.28125 31.332031 C 10.50347 34.73142 12.549849 37.647011 15.148438 39.712891 C 16.44751 40.745654 17.88375 41.566749 19.423828 42.128906 C 20.963906 42.691063 22.607867 42.994141 24.320312 42.994141 C 24.370802 42.994141 24.420326 42.988817 24.470703 42.988281 C 29.66387 42.933032 34.256036 40.041841 37.171875 35.693359 A 1.50015 1.50015 0 1 0 34.681641 34.023438 C 32.203764 37.718773 28.47308 39.994141 24.320312 39.994141 C 21.613954 39.994141 19.06639 39.007781 16.939453 37.300781 C 16.584963 37.016259 16.242038 36.710008 15.912109 36.386719 C 15.582181 36.06343 15.265838 35.722865 14.962891 35.363281 C 14.356644 34.643726 13.807874 33.853976 13.324219 33.003906 C 13.082775 32.579649 12.855723 32.140568 12.648438 31.6875 C 12.648189 31.686957 12.648686 31.68609 12.648438 31.685547 C 12.44095 31.231914 12.25286 30.765194 12.082031 30.285156 C 11.398725 28.364955 11.017578 26.244004 11.017578 24 C 11.017578 23.43906 11.041562 22.88622 11.087891 22.341797 C 11.319474 19.620064 12.116188 17.11952 13.324219 14.996094 C 13.324494 14.99561 13.323944 14.994624 13.324219 14.994141 C 14.049076 13.720327 14.922783 12.582865 15.912109 11.613281 C 16.242026 11.289994 16.584968 10.983739 16.939453 10.699219 C 19.066357 8.9922319 21.613535 8.0058594 24.320312 8.0058594 C 28.473081 8.0058594 32.203764 10.281228 34.681641 13.976562 A 1.50015 1.50015 0 1 0 37.171875 12.306641 C 34.251989 7.952122 29.651267 5.0571903 24.449219 5.0097656 A 1.50015 1.50015 0 0 0 24.320312 5.0058594 z"/></svg>