<svg fill="#000000" xmlns="http://www.w3.org/2000/svg"  viewBox="0 0 48 48" width="24px" height="24px"><path d="M 12.476562 5.9785156 A 1.50015 1.50015 0 0 0 11.423828 6.4355469 A 1.50015 1.50015 0 0 0 11.416016 6.4433594 A 1.50015 1.50015 0 0 0 11.396484 6.4628906 A 1.50015 1.50015 0 0 0 11 7.7402344 L 11 40.5 A 1.50015 1.50015 0 0 0 12.5 42 L 21 42 C 30.9236 42 39 33.9236 39 24 C 39 14.0764 30.9236 6 21 6 L 12.746094 6 A 1.50015 1.50015 0 0 0 12.476562 5.9785156 z M 14 9 L 21 9 C 29.3024 9 36 15.6976 36 24 C 36 32.3024 29.3024 39 21 39 L 14 39 L 14 9 z"/></svg>