<svg fill="#000000" xmlns="http://www.w3.org/2000/svg"  viewBox="0 0 48 48" width="24px" height="24px"><path d="M 14.476562 5.9785156 A 1.50015 1.50015 0 0 0 13.423828 6.4355469 A 1.50015 1.50015 0 0 0 13.416016 6.4433594 A 1.50015 1.50015 0 0 0 13.396484 6.4628906 A 1.50015 1.50015 0 0 0 13 7.7402344 L 13 40.5 A 1.50015 1.50015 0 0 0 14.5 42 L 34.5 42 A 1.50015 1.50015 0 1 0 34.5 39 L 16 39 L 16 24 L 17.5 24 L 26.5 24 L 30.5 24 A 1.50015 1.50015 0 1 0 30.5 21 L 26.5 21 L 17.5 21 L 16 21 L 16 9 L 34.5 9 A 1.50015 1.50015 0 1 0 34.5 6 L 14.746094 6 A 1.50015 1.50015 0 0 0 14.476562 5.9785156 z"/></svg>