<svg fill="#000000" xmlns="http://www.w3.org/2000/svg"  viewBox="0 0 48 48" width="24px" height="24px"><path d="M 8.4785156 5.9980469 A 1.50015 1.50015 0 0 0 7 7.4960938 L 7 40.503906 A 1.50015 1.50015 0 1 0 10 40.503906 L 10 11.708984 L 22.837891 27.445312 A 1.50015 1.50015 0 0 0 25.162109 27.445312 L 38 11.708984 L 38 40.503906 A 1.50015 1.50015 0 1 0 41 40.503906 L 41 7.4960938 A 1.50015 1.50015 0 0 0 38.337891 6.5488281 L 24 24.125 L 9.6621094 6.5488281 A 1.50015 1.50015 0 0 0 8.4785156 5.9980469 z"/></svg>