<svg fill="#000000" xmlns="http://www.w3.org/2000/svg"  viewBox="0 0 48 48" width="24px" height="24px"><path d="M 24 5 C 14.52432 5 7 13.617005 7 24 C 7 34.382995 14.52432 43 24 43 C 27.162663 43 30.069156 41.973731 32.589844 40.308594 L 35.371094 43.488281 A 1.500376 1.500376 0 1 0 37.628906 41.511719 L 34.935547 38.433594 C 38.625888 34.930096 41 29.769484 41 24 C 41 13.617005 33.47568 5 24 5 z M 24 8 C 31.645159 8 38 15.053029 38 24 C 38 28.954959 36.01058 33.274554 32.972656 36.191406 L 30.628906 33.511719 A 1.500376 1.500376 0 1 0 28.371094 35.488281 L 30.595703 38.03125 C 28.614429 39.249322 26.386987 40 24 40 C 16.354841 40 10 32.946971 10 24 C 10 15.053029 16.354841 8 24 8 z"/></svg>