<svg fill="#000000" xmlns="http://www.w3.org/2000/svg"  viewBox="0 0 48 48" width="24px" height="24px"><path d="M 24.458984 4.9882812 C 17.741139 4.9882812 11.966797 9.4008259 11.966797 15.261719 C 11.966797 18.603408 13.790959 20.991542 16.150391 22.357422 C 18.509822 23.723302 21.36649 24.355036 24.109375 25.011719 C 26.85226 25.668402 29.477637 26.350328 31.236328 27.421875 C 32.99502 28.493422 33.951172 29.694006 33.951172 32.220703 C 33.951172 34.06619 33.167333 35.654351 31.576172 36.896484 C 29.985011 38.138617 27.53606 38.992187 24.300781 38.992188 C 19.173851 38.992188 15.542776 36.379641 14.351562 32.980469 A 1.5004028 1.5004028 0 1 0 11.519531 33.972656 C 13.182318 38.717484 18.131712 41.992188 24.300781 41.992188 C 28.061503 41.992187 31.187036 41.006336 33.421875 39.261719 C 35.656714 37.517102 36.951172 34.970216 36.951172 32.220703 C 36.951172 28.7739 35.160371 26.299421 32.796875 24.859375 C 30.433379 23.419329 27.561959 22.752942 24.808594 22.09375 C 22.055229 21.434558 19.4151 20.782182 17.652344 19.761719 C 15.889587 18.741255 14.966797 17.643029 14.966797 15.261719 C 14.966797 11.432611 19.03483 7.9882812 24.458984 7.9882812 C 28.820911 7.9882812 31.659718 10.150716 32.720703 13.056641 A 1.50015 1.50015 0 1 0 35.537109 12.027344 C 34.032094 7.905268 29.861058 4.9882813 24.458984 4.9882812 z"/></svg>