<svg fill="#000000" xmlns="http://www.w3.org/2000/svg"  viewBox="0 0 48 48" width="24px" height="24px"><path d="M 3.4921875 5.9804688 A 1.50015 1.50015 0 0 0 2.0605469 7.9238281 L 12.060547 41.923828 A 1.50015 1.50015 0 0 0 14.933594 41.943359 L 24 12.585938 L 33.066406 41.943359 A 1.50015 1.50015 0 0 0 35.939453 41.923828 L 45.939453 7.9238281 A 1.5005518 1.5005518 0 1 0 43.060547 7.0761719 L 34.464844 36.300781 L 25.482422 7.2128906 A 1.50015 1.50015 0 0 0 24.121094 5.984375 A 1.50015 1.50015 0 0 0 23.833984 5.9902344 A 1.50015 1.50015 0 0 0 22.519531 7.2070312 L 13.535156 36.300781 L 4.9394531 7.0761719 A 1.50015 1.50015 0 0 0 3.4921875 5.9804688 z"/></svg>