<svg fill="#000000" xmlns="http://www.w3.org/2000/svg"  viewBox="0 0 48 48" width="24px" height="24px"><path d="M 35.548828 4.9511719 A 1.50015 1.50015 0 0 0 34.263672 5.6523438 L 23.5 21.349609 L 12.736328 5.6523438 A 1.50015 1.50015 0 0 0 11.462891 4.9824219 A 1.50015 1.50015 0 0 0 10.263672 7.3476562 L 21.681641 24 L 10.263672 40.652344 A 1.50015 1.50015 0 1 0 12.736328 42.347656 L 23.5 26.650391 L 34.263672 42.347656 A 1.50015 1.50015 0 1 0 36.736328 40.652344 L 25.318359 24 L 36.736328 7.3476562 A 1.50015 1.50015 0 0 0 35.548828 4.9511719 z"/></svg>