<svg fill="#000000" xmlns="http://www.w3.org/2000/svg"  viewBox="0 0 48 48" width="24px" height="24px"><path d="M 33.521484 5.9824219 A 1.50015 1.50015 0 0 0 33.291016 6 L 15.5 6 A 1.50015 1.50015 0 1 0 15.5 9 L 30.904297 9 L 13.316406 39.550781 L 13.310547 39.560547 A 1.50015 1.50015 0 0 0 13.146484 41.185547 A 1.50015 1.50015 0 0 0 13.152344 41.197266 A 1.50015 1.50015 0 0 0 13.185547 41.257812 A 1.50015 1.50015 0 0 0 13.253906 41.365234 A 1.50015 1.50015 0 0 0 13.345703 41.484375 A 1.50015 1.50015 0 0 0 14.708984 42 L 33.5 42 A 1.50015 1.50015 0 1 0 33.5 39 L 17.095703 39 L 34.683594 8.4492188 A 1.50015 1.50015 0 0 0 34.689453 8.4394531 A 1.50015 1.50015 0 0 0 34.853516 6.8144531 A 1.50015 1.50015 0 0 0 34.851562 6.8105469 A 1.50015 1.50015 0 0 0 34.847656 6.8027344 A 1.50015 1.50015 0 0 0 34.814453 6.7421875 A 1.50015 1.50015 0 0 0 34.746094 6.6347656 A 1.50015 1.50015 0 0 0 34.654297 6.515625 A 1.50015 1.50015 0 0 0 33.521484 5.9824219 z"/></svg>